<?xml version="1.0" encoding="utf-8" standalone="no"?>
<!DOCTYPE svg PUBLIC "-//W3C//DTD SVG 1.1//EN"
  "http://www.w3.org/Graphics/SVG/1.1/DTD/svg11.dtd">
<!-- Created with matplotlib (https://matplotlib.org/) -->
<svg height="810pt" version="1.1" viewBox="0 0 720 810" width="720pt" xmlns="http://www.w3.org/2000/svg" xmlns:xlink="http://www.w3.org/1999/xlink">
 <metadata>
  <rdf:RDF xmlns:cc="http://creativecommons.org/ns#" xmlns:dc="http://purl.org/dc/elements/1.1/" xmlns:rdf="http://www.w3.org/1999/02/22-rdf-syntax-ns#">
   <cc:Work>
    <dc:type rdf:resource="http://purl.org/dc/dcmitype/StillImage"/>
    <dc:date>2021-01-26T08:26:41.451635</dc:date>
    <dc:format>image/svg+xml</dc:format>
    <dc:creator>
     <cc:Agent>
      <dc:title>Matplotlib v3.3.1, https://matplotlib.org/</dc:title>
     </cc:Agent>
    </dc:creator>
   </cc:Work>
  </rdf:RDF>
 </metadata>
 <defs>
  <style type="text/css">*{stroke-linecap:butt;stroke-linejoin:round;}</style>
 </defs>
 <g id="figure_1">
  <g id="patch_1">
   <path d="M 0 810 
L 720 810 
L 720 0 
L 0 0 
z
" style="fill:#ffffff;"/>
  </g>
  <g id="axes_1">
   <g id="patch_2">
    <path d="M 108 720.9 
L 698.4 720.9 
L 698.4 56.7 
L 108 56.7 
z
" style="fill:#ffffff;"/>
   </g>
   <g id="matplotlib.axis_1">
    <g id="xtick_1">
     <g id="line2d_1">
      <path clip-path="url(#p16174b0c4f)" d="M 108 720.9 
L 108 56.7 
" style="fill:none;stroke:#e6e6e6;stroke-linecap:square;stroke-width:0.8;"/>
     </g>
     <g id="line2d_2">
      <defs>
       <path d="M 0 0 
L 0 3.5 
" id="m006b3d42ac" style="stroke:#000000;stroke-width:0.8;"/>
      </defs>
      <g>
       <use style="stroke:#000000;stroke-width:0.8;" x="108" xlink:href="#m006b3d42ac" y="720.9"/>
      </g>
     </g>
     <g id="text_1">
      <!-- $\mathdefault{20}$ -->
      <g transform="translate(100.683762 738.277725)scale(0.15 -0.15)">
       <defs>
        <path d="M 41.703125 15.453125 
L 39.90625 15.453125 
C 38.90625 8.375 38.09375 7.171875 37.703125 6.5625 
C 37.203125 5.765625 30 5.765625 28.59375 5.765625 
L 9.40625 5.765625 
C 13 9.671875 20 16.75 28.5 24.953125 
C 34.59375 30.734375 41.703125 37.53125 41.703125 47.421875 
C 41.703125 59.21875 32.296875 66 21.796875 66 
C 10.796875 66 4.09375 56.3125 4.09375 47.34375 
C 4.09375 43.4375 7 42.9375 8.203125 42.9375 
C 9.203125 42.9375 12.203125 43.546875 12.203125 47.03125 
C 12.203125 50.109375 9.59375 51 8.203125 51 
C 7.59375 51 7 50.90625 6.59375 50.703125 
C 8.5 59.21875 14.296875 63.40625 20.40625 63.40625 
C 29.09375 63.40625 34.796875 56.515625 34.796875 47.421875 
C 34.796875 38.734375 29.703125 31.25 24 24.75 
L 4.09375 2.28125 
L 4.09375 0 
L 39.296875 0 
z
" id="CMR17-50"/>
        <path d="M 42 31.640625 
C 42 37.75 41.90625 48.125 37.703125 56.109375 
C 34 63.109375 28.09375 65.59375 22.90625 65.59375 
C 18.09375 65.59375 12 63.40625 8.203125 56.203125 
C 4.203125 48.71875 3.796875 39.4375 3.796875 31.640625 
C 3.796875 25.953125 3.90625 17.28125 7 9.671875 
C 11.296875 -0.609375 19 -2 22.90625 -2 
C 27.5 -2 34.5 -0.109375 38.59375 9.375 
C 41.59375 16.28125 42 24.359375 42 31.640625 
z
M 22.90625 -0.40625 
C 16.5 -0.40625 12.703125 5.078125 11.296875 12.6875 
C 10.203125 18.5625 10.203125 27.15625 10.203125 32.75 
C 10.203125 40.4375 10.203125 46.828125 11.5 52.921875 
C 13.40625 61.390625 19 64 22.90625 64 
C 27 64 32.296875 61.296875 34.203125 53.125 
C 35.5 47.4375 35.59375 40.734375 35.59375 32.75 
C 35.59375 26.25 35.59375 18.265625 34.40625 12.375 
C 32.296875 1.484375 26.40625 -0.40625 22.90625 -0.40625 
z
" id="CMR17-48"/>
       </defs>
       <use transform="scale(0.996264)" xlink:href="#CMR17-50"/>
       <use transform="translate(45.690477 0)scale(0.996264)" xlink:href="#CMR17-48"/>
      </g>
     </g>
    </g>
    <g id="xtick_2">
     <g id="line2d_3">
      <path clip-path="url(#p16174b0c4f)" d="M 226.08 720.9 
L 226.08 56.7 
" style="fill:none;stroke:#e6e6e6;stroke-linecap:square;stroke-width:0.8;"/>
     </g>
     <g id="line2d_4">
      <g>
       <use style="stroke:#000000;stroke-width:0.8;" x="226.08" xlink:href="#m006b3d42ac" y="720.9"/>
      </g>
     </g>
     <g id="text_2">
      <!-- $\mathdefault{22}$ -->
      <g transform="translate(218.763762 738.277725)scale(0.15 -0.15)">
       <use transform="scale(0.996264)" xlink:href="#CMR17-50"/>
       <use transform="translate(45.690477 0)scale(0.996264)" xlink:href="#CMR17-50"/>
      </g>
     </g>
    </g>
    <g id="xtick_3">
     <g id="line2d_5">
      <path clip-path="url(#p16174b0c4f)" d="M 344.16 720.9 
L 344.16 56.7 
" style="fill:none;stroke:#e6e6e6;stroke-linecap:square;stroke-width:0.8;"/>
     </g>
     <g id="line2d_6">
      <g>
       <use style="stroke:#000000;stroke-width:0.8;" x="344.16" xlink:href="#m006b3d42ac" y="720.9"/>
      </g>
     </g>
     <g id="text_3">
      <!-- $\mathdefault{24}$ -->
      <g transform="translate(336.843762 738.277725)scale(0.15 -0.15)">
       <defs>
        <path d="M 33.59375 64.40625 
C 33.59375 66.5 33.5 66.5 31.703125 66.5 
L 2 19.59375 
L 2 17 
L 27.796875 17 
L 27.796875 7.140625 
C 27.796875 3.5 27.59375 2.5 20.59375 2.5 
L 18.703125 2.5 
L 18.703125 0 
C 21.90625 0 27.296875 0 30.703125 0 
C 34.09375 0 39.5 0 42.703125 0 
L 42.703125 2.5 
L 40.796875 2.5 
C 33.796875 2.5 33.59375 3.5 33.59375 7.140625 
L 33.59375 17 
L 43.796875 17 
L 43.796875 19.59375 
L 33.59375 19.59375 
z
M 28.09375 57.859375 
L 28.09375 19.59375 
L 4 19.59375 
z
" id="CMR17-52"/>
       </defs>
       <use transform="scale(0.996264)" xlink:href="#CMR17-50"/>
       <use transform="translate(45.690477 0)scale(0.996264)" xlink:href="#CMR17-52"/>
      </g>
     </g>
    </g>
    <g id="xtick_4">
     <g id="line2d_7">
      <path clip-path="url(#p16174b0c4f)" d="M 462.24 720.9 
L 462.24 56.7 
" style="fill:none;stroke:#e6e6e6;stroke-linecap:square;stroke-width:0.8;"/>
     </g>
     <g id="line2d_8">
      <g>
       <use style="stroke:#000000;stroke-width:0.8;" x="462.24" xlink:href="#m006b3d42ac" y="720.9"/>
      </g>
     </g>
     <g id="text_4">
      <!-- $\mathdefault{26}$ -->
      <g transform="translate(454.923762 738.277725)scale(0.15 -0.15)">
       <defs>
        <path d="M 10.59375 34 
C 10.59375 57.65625 21.796875 63 28.296875 63 
C 30.40625 63 35.5 62.640625 37.5 59 
C 35.90625 59 32.90625 59 32.90625 55.515625 
C 32.90625 52.828125 35.09375 51.921875 36.5 51.921875 
C 37.40625 51.921875 40.09375 52.3125 40.09375 55.625 
C 40.09375 61.78125 35.09375 65.296875 28.203125 65.296875 
C 16.296875 65.296875 3.796875 52.96875 3.796875 31 
C 3.796875 3.953125 15.09375 -2 23.09375 -2 
C 32.796875 -2 42 6.671875 42 20.046875 
C 42 32.515625 33.90625 41.59375 23.703125 41.59375 
C 17.59375 41.59375 13.09375 37.609375 10.59375 30.625 
z
M 23.09375 0.390625 
C 10.796875 0.390625 10.796875 18.75 10.796875 22.4375 
C 10.796875 29.625 14.203125 40 23.5 40 
C 25.203125 40 30.09375 40 33.40625 33.125 
C 35.203125 29.21875 35.203125 25.140625 35.203125 20.140625 
C 35.203125 14.75 35.203125 10.78125 33.09375 6.78125 
C 30.90625 2.671875 27.703125 0.390625 23.09375 0.390625 
z
" id="CMR17-54"/>
       </defs>
       <use transform="scale(0.996264)" xlink:href="#CMR17-50"/>
       <use transform="translate(45.690477 0)scale(0.996264)" xlink:href="#CMR17-54"/>
      </g>
     </g>
    </g>
    <g id="xtick_5">
     <g id="line2d_9">
      <path clip-path="url(#p16174b0c4f)" d="M 580.32 720.9 
L 580.32 56.7 
" style="fill:none;stroke:#e6e6e6;stroke-linecap:square;stroke-width:0.8;"/>
     </g>
     <g id="line2d_10">
      <g>
       <use style="stroke:#000000;stroke-width:0.8;" x="580.32" xlink:href="#m006b3d42ac" y="720.9"/>
      </g>
     </g>
     <g id="text_5">
      <!-- $\mathdefault{28}$ -->
      <g transform="translate(573.003762 738.277725)scale(0.15 -0.15)">
       <defs>
        <path d="M 27.203125 35.375 
C 33.5 38.546875 39.90625 43.328125 39.90625 50.984375 
C 39.90625 60.015625 31.09375 65.296875 23 65.296875 
C 13.90625 65.296875 5.90625 58.734375 5.90625 49.6875 
C 5.90625 47.203125 6.5 42.921875 10.40625 39.140625 
C 11.40625 38.15625 15.59375 35.171875 18.296875 33.28125 
C 13.796875 30.984375 3.296875 25.53125 3.296875 14.59375 
C 3.296875 4.359375 13.09375 -2 22.796875 -2 
C 33.5 -2 42.5 5.65625 42.5 15.78125 
C 42.5 24.84375 36.40625 29.015625 32.40625 31.703125 
z
M 14.09375 44.09375 
C 13.296875 44.59375 9.296875 47.671875 9.296875 52.359375 
C 9.296875 58.421875 15.59375 63 22.796875 63 
C 30.703125 63 36.5 57.4375 36.5 50.96875 
C 36.5 41.703125 26.09375 36.421875 25.59375 36.421875 
C 25.5 36.421875 25.40625 36.421875 24.59375 37.03125 
z
M 32.5 23.734375 
C 34 22.640625 38.796875 19.375 38.796875 13.296875 
C 38.796875 5.953125 31.40625 0.390625 23 0.390625 
C 13.90625 0.390625 7 6.84375 7 14.6875 
C 7 22.546875 13.09375 29.09375 20 32.1875 
z
" id="CMR17-56"/>
       </defs>
       <use transform="scale(0.996264)" xlink:href="#CMR17-50"/>
       <use transform="translate(45.690477 0)scale(0.996264)" xlink:href="#CMR17-56"/>
      </g>
     </g>
    </g>
    <g id="xtick_6">
     <g id="line2d_11">
      <path clip-path="url(#p16174b0c4f)" d="M 698.4 720.9 
L 698.4 56.7 
" style="fill:none;stroke:#e6e6e6;stroke-linecap:square;stroke-width:0.8;"/>
     </g>
     <g id="line2d_12">
      <g>
       <use style="stroke:#000000;stroke-width:0.8;" x="698.4" xlink:href="#m006b3d42ac" y="720.9"/>
      </g>
     </g>
     <g id="text_6">
      <!-- $\mathdefault{30}$ -->
      <g transform="translate(691.083762 738.277725)scale(0.15 -0.15)">
       <defs>
        <path d="M 22.09375 33.703125 
C 31 33.703125 34.90625 25.96875 34.90625 17.03125 
C 34.90625 5 28.5 0.390625 22.703125 0.390625 
C 17.40625 0.390625 8.796875 3.03125 6.09375 10.828125 
C 6.59375 10.625 7.09375 10.625 7.59375 10.625 
C 10 10.625 11.796875 12.21875 11.796875 14.8125 
C 11.796875 17.703125 9.59375 19 7.59375 19 
C 5.90625 19 3.296875 18.203125 3.296875 14.46875 
C 3.296875 5.234375 12.296875 -2 22.90625 -2 
C 34 -2 42.5 6.71875 42.5 16.953125 
C 42.5 26.671875 34.5 33.703125 25 34.796875 
C 32.59375 36.375 39.90625 43.0625 39.90625 52.015625 
C 39.90625 59.6875 32 65.296875 23 65.296875 
C 13.90625 65.296875 5.90625 59.828125 5.90625 52.015625 
C 5.90625 48.59375 8.5 48 9.796875 48 
C 11.90625 48 13.703125 49.296875 13.703125 51.890625 
C 13.703125 54.46875 11.90625 55.765625 9.796875 55.765625 
C 9.40625 55.765625 8.90625 55.765625 8.5 55.578125 
C 11.40625 61.859375 19.296875 63 22.796875 63 
C 26.296875 63 32.90625 61.328125 32.90625 51.875 
C 32.90625 49.109375 32.5 44.1875 29.09375 39.84375 
C 26.09375 36 22.703125 36 19.40625 35.6875 
C 18.90625 35.6875 16.59375 35.453125 16.203125 35.453125 
C 15.5 35.359375 15.09375 35.265625 15.09375 34.5 
C 15.09375 33.796875 15.203125 33.703125 17.203125 33.703125 
z
" id="CMR17-51"/>
       </defs>
       <use transform="scale(0.996264)" xlink:href="#CMR17-51"/>
       <use transform="translate(45.690477 0)scale(0.996264)" xlink:href="#CMR17-48"/>
      </g>
     </g>
    </g>
    <g id="text_7">
     <!-- $x$ -->
     <g transform="translate(396.270746 762.479723)scale(0.25 -0.25)">
      <defs>
       <path d="M 47.40625 40.71875 
C 44.203125 40.109375 43 37.71875 43 35.828125 
C 43 33.421875 44.90625 32.625 46.296875 32.625 
C 49.296875 32.625 51.40625 35.21875 51.40625 37.921875 
C 51.40625 42.109375 46.59375 44 42.40625 44 
C 36.296875 44 32.90625 38.015625 32 36.125 
C 29.703125 44 23.5 44 21.703125 44 
C 11.5 44 6.09375 30.9375 6.09375 28.734375 
C 6.09375 28.34375 6.5 27.84375 7.203125 27.84375 
C 8 27.84375 8.203125 28.4375 8.40625 28.84375 
C 11.796875 39.921875 18.5 42.015625 21.40625 42.015625 
C 25.90625 42.015625 26.796875 37.8125 26.796875 35.421875 
C 26.796875 33.234375 26.203125 30.9375 25 26.140625 
L 21.59375 12.46875 
C 20.09375 6.484375 17.203125 1 11.90625 1 
C 11.40625 1 8.90625 1 6.796875 2.296875 
C 10.40625 3 11.203125 5.984375 11.203125 7.1875 
C 11.203125 9.1875 9.703125 10.375 7.796875 10.375 
C 5.40625 10.375 2.796875 8.28125 2.796875 5.09375 
C 2.796875 0.890625 7.5 -1 11.796875 -1 
C 16.59375 -1 20 2.796875 22.09375 6.890625 
C 23.703125 1 28.703125 -1 32.40625 -1 
C 42.59375 -1 48 12.078125 48 14.265625 
C 48 14.765625 47.59375 15.171875 47 15.171875 
C 46.09375 15.171875 46 14.671875 45.703125 13.875 
C 43 5.09375 37.203125 1 32.703125 1 
C 29.203125 1 27.296875 3.59375 27.296875 7.6875 
C 27.296875 9.875 27.703125 11.46875 29.296875 18.0625 
L 32.796875 31.625 
C 34.296875 37.625 37.703125 42.015625 42.296875 42.015625 
C 42.5 42.015625 45.296875 42.015625 47.40625 40.71875 
z
" id="CMMI12-120"/>
      </defs>
      <use transform="scale(0.996264)" xlink:href="#CMMI12-120"/>
     </g>
    </g>
   </g>
   <g id="matplotlib.axis_2">
    <g id="ytick_1">
     <g id="line2d_13">
      <path clip-path="url(#p16174b0c4f)" d="M 108 658.281736 
L 698.4 658.281736 
" style="fill:none;stroke:#e6e6e6;stroke-linecap:square;stroke-width:0.8;"/>
     </g>
     <g id="line2d_14">
      <defs>
       <path d="M 0 0 
L -3.5 0 
" id="mc9ba869186" style="stroke:#000000;stroke-width:0.8;"/>
      </defs>
      <g>
       <use style="stroke:#000000;stroke-width:0.8;" x="108" xlink:href="#mc9ba869186" y="658.281736"/>
      </g>
     </g>
     <g id="text_8">
      <!-- $\mathdefault{0.0}$ -->
      <g transform="translate(82.302948 663.470598)scale(0.15 -0.15)">
       <defs>
        <path d="M 18.40625 4.796875 
C 18.40625 7.6875 16 9.671875 13.59375 9.671875 
C 10.703125 9.671875 8.703125 7.28125 8.703125 4.890625 
C 8.703125 2 11.09375 0 13.5 0 
C 16.40625 0 18.40625 2.390625 18.40625 4.796875 
z
" id="CMMI12-58"/>
       </defs>
       <use transform="scale(0.996264)" xlink:href="#CMR17-48"/>
       <use transform="translate(45.690477 0)scale(0.996264)" xlink:href="#CMMI12-58"/>
       <use transform="translate(72.787654 0)scale(0.996264)" xlink:href="#CMR17-48"/>
      </g>
     </g>
    </g>
    <g id="ytick_2">
     <g id="line2d_15">
      <path clip-path="url(#p16174b0c4f)" d="M 108 554.134542 
L 698.4 554.134542 
" style="fill:none;stroke:#e6e6e6;stroke-linecap:square;stroke-width:0.8;"/>
     </g>
     <g id="line2d_16">
      <g>
       <use style="stroke:#000000;stroke-width:0.8;" x="108" xlink:href="#mc9ba869186" y="554.134542"/>
      </g>
     </g>
     <g id="text_9">
      <!-- $\mathdefault{0.2}$ -->
      <g transform="translate(82.302948 559.323404)scale(0.15 -0.15)">
       <use transform="scale(0.996264)" xlink:href="#CMR17-48"/>
       <use transform="translate(45.690477 0)scale(0.996264)" xlink:href="#CMMI12-58"/>
       <use transform="translate(72.787654 0)scale(0.996264)" xlink:href="#CMR17-50"/>
      </g>
     </g>
    </g>
    <g id="ytick_3">
     <g id="line2d_17">
      <path clip-path="url(#p16174b0c4f)" d="M 108 449.987348 
L 698.4 449.987348 
" style="fill:none;stroke:#e6e6e6;stroke-linecap:square;stroke-width:0.8;"/>
     </g>
     <g id="line2d_18">
      <g>
       <use style="stroke:#000000;stroke-width:0.8;" x="108" xlink:href="#mc9ba869186" y="449.987348"/>
      </g>
     </g>
     <g id="text_10">
      <!-- $\mathdefault{0.4}$ -->
      <g transform="translate(82.302948 455.17621)scale(0.15 -0.15)">
       <use transform="scale(0.996264)" xlink:href="#CMR17-48"/>
       <use transform="translate(45.690477 0)scale(0.996264)" xlink:href="#CMMI12-58"/>
       <use transform="translate(72.787654 0)scale(0.996264)" xlink:href="#CMR17-52"/>
      </g>
     </g>
    </g>
    <g id="ytick_4">
     <g id="line2d_19">
      <path clip-path="url(#p16174b0c4f)" d="M 108 345.840154 
L 698.4 345.840154 
" style="fill:none;stroke:#e6e6e6;stroke-linecap:square;stroke-width:0.8;"/>
     </g>
     <g id="line2d_20">
      <g>
       <use style="stroke:#000000;stroke-width:0.8;" x="108" xlink:href="#mc9ba869186" y="345.840154"/>
      </g>
     </g>
     <g id="text_11">
      <!-- $\mathdefault{0.6}$ -->
      <g transform="translate(82.302948 351.029016)scale(0.15 -0.15)">
       <use transform="scale(0.996264)" xlink:href="#CMR17-48"/>
       <use transform="translate(45.690477 0)scale(0.996264)" xlink:href="#CMMI12-58"/>
       <use transform="translate(72.787654 0)scale(0.996264)" xlink:href="#CMR17-54"/>
      </g>
     </g>
    </g>
    <g id="ytick_5">
     <g id="line2d_21">
      <path clip-path="url(#p16174b0c4f)" d="M 108 241.69296 
L 698.4 241.69296 
" style="fill:none;stroke:#e6e6e6;stroke-linecap:square;stroke-width:0.8;"/>
     </g>
     <g id="line2d_22">
      <g>
       <use style="stroke:#000000;stroke-width:0.8;" x="108" xlink:href="#mc9ba869186" y="241.69296"/>
      </g>
     </g>
     <g id="text_12">
      <!-- $\mathdefault{0.8}$ -->
      <g transform="translate(82.302948 246.881822)scale(0.15 -0.15)">
       <use transform="scale(0.996264)" xlink:href="#CMR17-48"/>
       <use transform="translate(45.690477 0)scale(0.996264)" xlink:href="#CMMI12-58"/>
       <use transform="translate(72.787654 0)scale(0.996264)" xlink:href="#CMR17-56"/>
      </g>
     </g>
    </g>
    <g id="ytick_6">
     <g id="line2d_23">
      <path clip-path="url(#p16174b0c4f)" d="M 108 137.545766 
L 698.4 137.545766 
" style="fill:none;stroke:#e6e6e6;stroke-linecap:square;stroke-width:0.8;"/>
     </g>
     <g id="line2d_24">
      <g>
       <use style="stroke:#000000;stroke-width:0.8;" x="108" xlink:href="#mc9ba869186" y="137.545766"/>
      </g>
     </g>
     <g id="text_13">
      <!-- $\mathdefault{1.0}$ -->
      <g transform="translate(82.302948 142.734628)scale(0.15 -0.15)">
       <defs>
        <path d="M 26.59375 63.40625 
C 26.59375 65.5 26.5 65.5 25.09375 65.5 
C 21.203125 61.1875 15.296875 59.796875 9.703125 59.796875 
C 9.40625 59.796875 8.90625 59.796875 8.796875 59.5 
C 8.703125 59.296875 8.703125 59.09375 8.703125 57 
C 11.796875 57 17 57.59375 21 59.984375 
L 21 7.203125 
C 21 3.6875 20.796875 2.5 12.203125 2.5 
L 9.203125 2.5 
L 9.203125 0 
C 14 0 19 0 23.796875 0 
C 28.59375 0 33.59375 0 38.40625 0 
L 38.40625 2.5 
L 35.40625 2.5 
C 26.796875 2.5 26.59375 3.59375 26.59375 7.15625 
z
" id="CMR17-49"/>
       </defs>
       <use transform="scale(0.996264)" xlink:href="#CMR17-49"/>
       <use transform="translate(45.690477 0)scale(0.996264)" xlink:href="#CMMI12-58"/>
       <use transform="translate(72.787654 0)scale(0.996264)" xlink:href="#CMR17-48"/>
      </g>
     </g>
    </g>
    <g id="text_14">
     <!-- $\Psi(x)$ -->
     <g transform="translate(72.097139 413.513781)rotate(-90)scale(0.25 -0.25)">
      <defs>
       <path d="M 39 60.890625 
C 39 64.5 39.203125 65.5 46.796875 65.5 
L 49 65.5 
L 49 68 
C 44.90625 68 40.09375 68 35.90625 68 
C 31.703125 68 26.796875 68 22.703125 68 
L 22.703125 65.5 
L 24.90625 65.5 
C 32.5 65.5 32.703125 64.5 32.703125 60.890625 
L 32.703125 14.578125 
C 18.40625 17.46875 18.203125 35.84375 18.203125 41.03125 
C 18.09375 50.515625 15.59375 55.40625 9.40625 55.40625 
L 6.796875 55.40625 
C 5.203125 55.40625 4.703125 55.40625 4.703125 54.609375 
C 4.703125 54.515625 4.703125 53.90625 5.203125 53.90625 
C 8 53.40625 11.796875 52.8125 11.90625 39.421875 
C 12 30.140625 15.296875 14.875 32.703125 12.875 
L 32.703125 7.09375 
C 32.703125 3.5 32.5 2.5 24.90625 2.5 
L 22.703125 2.5 
L 22.703125 0 
C 26.796875 0 31.703125 0 35.90625 0 
C 40.09375 0 44.90625 0 49 0 
L 49 2.5 
L 46.796875 2.5 
C 39.203125 2.5 39 3.5 39 7.09375 
L 39 12.875 
C 59.796875 15.078125 60 36.046875 60 41.734375 
C 60 46.328125 61 52.8125 66.09375 53.8125 
C 67.09375 54.015625 67.296875 54.015625 67.296875 54.609375 
C 67.296875 55.40625 66.796875 55.40625 65.09375 55.40625 
L 62.5 55.40625 
C 55.90625 55.40625 53.796875 50.234375 53.703125 39.9375 
C 53.59375 29.359375 50.796875 17.078125 39 14.578125 
z
" id="CMR17-9"/>
       <path d="M 30.59375 -24.390625 
C 30.59375 -24.296875 30.59375 -24.09375 30.296875 -23.796875 
C 25.703125 -19.125 13.40625 -6.359375 13.40625 24.703125 
C 13.40625 55.765625 25.5 68.421875 30.40625 73.390625 
C 30.40625 73.5 30.59375 73.703125 30.59375 74 
C 30.59375 74.296875 30.296875 74.5 29.90625 74.5 
C 28.796875 74.5 20.296875 67.125 15.40625 56.15625 
C 10.40625 45.109375 9 34.359375 9 24.8125 
C 9 17.625 9.703125 5.484375 15.703125 -7.359375 
C 20.5 -17.734375 28.703125 -25 29.90625 -25 
C 30.40625 -25 30.59375 -24.796875 30.59375 -24.390625 
z
" id="CMR17-40"/>
       <path d="M 26.296875 24.703125 
C 26.296875 31.875 25.59375 44.015625 19.59375 56.859375 
C 14.796875 67.234375 6.59375 74.5 5.40625 74.5 
C 5.09375 74.5 4.703125 74.390625 4.703125 73.890625 
C 4.703125 73.703125 4.796875 73.59375 4.90625 73.390625 
C 9.703125 68.40625 21.90625 55.75 21.90625 24.75 
C 21.90625 -6.359375 9.796875 -19.015625 4.90625 -24.015625 
C 4.796875 -24.203125 4.703125 -24.3125 4.703125 -24.5 
C 4.703125 -25 5.09375 -25 5.40625 -25 
C 6.5 -25 15 -17.625 19.90625 -6.65625 
C 24.90625 4.390625 26.296875 15.140625 26.296875 24.703125 
z
" id="CMR17-41"/>
      </defs>
      <use transform="scale(0.996264)" xlink:href="#CMR17-9"/>
      <use transform="translate(71.714788 0)scale(0.996264)" xlink:href="#CMR17-40"/>
      <use transform="translate(106.995556 0)scale(0.996264)" xlink:href="#CMMI12-120"/>
      <use transform="translate(162.429616 0)scale(0.996264)" xlink:href="#CMR17-41"/>
     </g>
    </g>
   </g>
   <g id="line2d_25">
    <path clip-path="url(#p16174b0c4f)" d="M 107.711719 137.510553 
L 126.45 137.567023 
L 168.250781 137.545766 
L 355.633594 137.445841 
L 359.957813 137.397791 
L 362.840625 137.637399 
L 364.282031 137.946509 
L 365.723438 138.43932 
L 367.164844 139.155488 
L 368.60625 140.1261 
L 370.047656 141.370255 
L 371.489063 142.893456 
L 372.930469 144.687131 
L 374.371875 146.727766 
L 377.254688 151.360861 
L 380.1375 156.13562 
L 381.578906 158.217738 
L 383.020313 159.833667 
L 384.461719 160.761707 
L 385.903125 160.788911 
L 387.344531 159.741969 
L 388.785938 157.518472 
L 390.227344 154.112724 
L 391.66875 149.631058 
L 393.110156 144.293416 
L 397.434375 126.687378 
L 398.875781 121.693088 
L 400.317188 117.812274 
L 401.758594 115.352119 
L 403.2 114.509479 
L 404.641406 115.352119 
L 406.082813 117.812274 
L 407.524219 121.693088 
L 408.965625 126.687378 
L 414.73125 149.631058 
L 416.172656 154.112724 
L 417.614063 157.518472 
L 419.055469 159.741969 
L 420.496875 160.788911 
L 421.938281 160.761707 
L 423.379688 159.833667 
L 424.821094 158.217738 
L 426.2625 156.13562 
L 432.028125 146.727766 
L 433.469531 144.687131 
L 434.910938 142.893456 
L 436.352344 141.370255 
L 437.79375 140.1261 
L 439.235156 139.155488 
L 440.676563 138.43932 
L 442.117969 137.946509 
L 443.559375 137.637399 
L 446.442188 137.397791 
L 450.766406 137.445841 
L 459.414844 137.545979 
L 659.770313 137.544788 
L 698.688281 137.510553 
L 698.688281 137.510553 
" style="fill:none;stroke:#0000ff;stroke-linecap:square;stroke-width:2;"/>
   </g>
   <g id="line2d_26">
    <path clip-path="url(#p16174b0c4f)" d="M 107.711719 661.684787 
L 123.567188 661.706124 
L 178.340625 661.698019 
L 357.075 661.788337 
L 359.957813 662.03823 
L 362.840625 662.486281 
L 367.164844 663.209877 
L 368.60625 663.26281 
L 370.047656 663.089434 
L 371.489063 662.59061 
L 372.930469 661.656404 
L 374.371875 660.166044 
L 375.813281 657.987362 
L 377.254688 654.977982 
L 378.696094 650.99091 
L 380.1375 645.886358 
L 381.578906 639.549777 
L 383.020313 631.913756 
L 384.461719 622.979624 
L 385.903125 612.833875 
L 388.785938 589.710471 
L 393.110156 552.877323 
L 394.551563 541.590878 
L 395.992969 531.428972 
L 397.434375 522.70412 
L 398.875781 515.669041 
L 400.317188 510.514348 
L 401.758594 507.371032 
L 403.2 506.314998 
L 404.641406 507.371032 
L 406.082813 510.514348 
L 407.524219 515.669041 
L 408.965625 522.70412 
L 410.407031 531.428972 
L 411.848438 541.590878 
L 414.73125 564.925268 
L 419.055469 601.65528 
L 420.496875 612.833875 
L 421.938281 622.979624 
L 423.379688 631.913756 
L 424.821094 639.549777 
L 426.2625 645.886358 
L 427.703906 650.99091 
L 429.145313 654.977982 
L 430.586719 657.987362 
L 432.028125 660.166044 
L 433.469531 661.656404 
L 434.910938 662.59061 
L 436.352344 663.089434 
L 437.79375 663.26281 
L 439.235156 663.209877 
L 442.117969 662.757984 
L 446.442188 662.03823 
L 449.325 661.788337 
L 453.649219 661.684713 
L 535.809375 661.697422 
L 698.688281 661.684787 
L 698.688281 661.684787 
" style="fill:none;stroke:#ff0000;stroke-linecap:square;stroke-width:2;"/>
   </g>
   <g id="line2d_27">
    <path clip-path="url(#p16174b0c4f)" d="M 107.711719 137.545766 
L 355.633594 137.445852 
L 359.957813 137.392575 
L 362.840625 137.625814 
L 364.282031 137.931639 
L 365.723438 138.421725 
L 367.164844 139.136192 
L 368.60625 140.106458 
L 370.047656 141.351776 
L 371.489063 142.877673 
L 372.930469 144.675621 
L 374.371875 146.722309 
L 377.254688 151.374716 
L 380.1375 156.181298 
L 381.578906 158.283463 
L 383.020313 159.920317 
L 384.461719 160.867721 
L 385.903125 160.909807 
L 387.344531 159.87036 
L 388.785938 157.644623 
L 390.227344 154.225575 
L 391.66875 149.719546 
L 393.110156 144.347868 
L 397.434375 126.612203 
L 398.875781 121.578555 
L 400.317188 117.666684 
L 401.758594 115.186663 
L 403.2 114.33719 
L 404.641406 115.186663 
L 406.082813 117.666684 
L 407.524219 121.578555 
L 408.965625 126.612203 
L 414.73125 149.719546 
L 416.172656 154.225575 
L 417.614063 157.644623 
L 419.055469 159.87036 
L 420.496875 160.909807 
L 421.938281 160.867721 
L 423.379688 159.920317 
L 424.821094 158.283463 
L 426.2625 156.181298 
L 432.028125 146.722309 
L 433.469531 144.675621 
L 434.910938 142.877673 
L 436.352344 141.351776 
L 437.79375 140.106458 
L 439.235156 139.136192 
L 440.676563 138.421725 
L 442.117969 137.931639 
L 443.559375 137.625814 
L 446.442188 137.392575 
L 450.766406 137.445852 
L 459.414844 137.546129 
L 685.715625 137.545766 
L 698.688281 137.545766 
L 698.688281 137.545766 
" style="fill:none;stroke:#0000ff;stroke-dasharray:7.4,3.2;stroke-dashoffset:0;stroke-width:2;"/>
   </g>
   <g id="line2d_28">
    <path clip-path="url(#p16174b0c4f)" d="M 107.711719 658.281736 
L 357.075 658.368781 
L 359.957813 658.617921 
L 362.840625 659.068729 
L 367.164844 659.807019 
L 368.60625 659.867303 
L 370.047656 659.701988 
L 371.489063 659.211678 
L 372.930469 658.286313 
L 374.371875 656.805036 
L 375.813281 654.635439 
L 377.254688 651.634517 
L 378.696094 647.654093 
L 380.1375 642.552667 
L 381.578906 636.213659 
L 383.020313 628.567713 
L 384.461719 619.614737 
L 385.903125 609.440721 
L 388.785938 586.236032 
L 393.110156 549.254517 
L 394.551563 537.922823 
L 395.992969 527.721456 
L 397.434375 518.964097 
L 398.875781 511.903961 
L 400.317188 506.731666 
L 401.758594 503.577964 
L 403.2 502.518502 
L 404.641406 503.577964 
L 406.082813 506.731666 
L 407.524219 511.903961 
L 408.965625 518.964097 
L 410.407031 527.721456 
L 411.848438 537.922823 
L 414.73125 561.351586 
L 419.055469 598.225045 
L 420.496875 609.440721 
L 421.938281 619.614737 
L 423.379688 628.567713 
L 424.821094 636.213659 
L 426.2625 642.552667 
L 427.703906 647.654093 
L 429.145313 651.634517 
L 430.586719 654.635439 
L 432.028125 656.805036 
L 433.469531 658.286313 
L 434.910938 659.211678 
L 436.352344 659.701988 
L 437.79375 659.867303 
L 439.235156 659.807019 
L 442.117969 659.343874 
L 446.442188 658.617921 
L 449.325 658.368781 
L 453.649219 658.267562 
L 567.520313 658.281736 
L 698.688281 658.281736 
L 698.688281 658.281736 
" style="fill:none;stroke:#ff0000;stroke-dasharray:7.4,3.2;stroke-dashoffset:0;stroke-width:2;"/>
   </g>
   <g id="patch_3">
    <path d="M 108 720.9 
L 108 56.7 
" style="fill:none;stroke:#000000;stroke-linecap:square;stroke-linejoin:miter;stroke-width:0.8;"/>
   </g>
   <g id="patch_4">
    <path d="M 698.4 720.9 
L 698.4 56.7 
" style="fill:none;stroke:#000000;stroke-linecap:square;stroke-linejoin:miter;stroke-width:0.8;"/>
   </g>
   <g id="patch_5">
    <path d="M 108 720.9 
L 698.4 720.9 
" style="fill:none;stroke:#000000;stroke-linecap:square;stroke-linejoin:miter;stroke-width:0.8;"/>
   </g>
   <g id="patch_6">
    <path d="M 108 56.7 
L 698.4 56.7 
" style="fill:none;stroke:#000000;stroke-linecap:square;stroke-linejoin:miter;stroke-width:0.8;"/>
   </g>
   <g id="legend_1">
    <g id="patch_7">
     <path d="M 558.670563 451.317769 
L 684.4 451.317769 
Q 688.4 451.317769 688.4 447.317769 
L 688.4 330.282231 
Q 688.4 326.282231 684.4 326.282231 
L 558.670563 326.282231 
Q 554.670563 326.282231 554.670563 330.282231 
L 554.670563 447.317769 
Q 554.670563 451.317769 558.670563 451.317769 
z
" style="fill:#ffffff;opacity:0.8;stroke:#cccccc;stroke-linejoin:miter;"/>
    </g>
    <g id="line2d_29">
     <path d="M 562.670563 342.479106 
L 602.670563 342.479106 
" style="fill:none;stroke:#0000ff;stroke-linecap:square;stroke-width:2;"/>
    </g>
    <g id="line2d_30"/>
    <g id="text_15">
     <!-- frr -->
     <g transform="translate(618.670563 349.479106)scale(0.2 -0.2)">
      <defs>
       <path d="M 16.796875 37 
L 26.90625 37 
L 26.90625 42.765625 
L 16.59375 42.765625 
L 16.59375 55.609375 
C 16.59375 62.71875 22 63.9375 25.09375 63.9375 
C 26.09375 63.9375 28.90625 63.9375 32.5 62.640625 
L 32.5 69.203125 
C 30.203125 69.703125 27.40625 70 25.203125 70 
C 15.90625 70 9.40625 62.390625 9.40625 52.484375 
L 9.40625 42.765625 
L 2.5 42.765625 
L 2.5 37 
L 9.40625 37 
L 9.40625 0 
L 16.796875 0 
z
" id="CMSS17-102"/>
       <path d="M 14.90625 21.296875 
C 14.90625 30.703125 21.796875 37 30.59375 37 
L 30.59375 43.578125 
C 24.203125 43.578125 18.203125 40.390625 14.59375 35.203125 
L 14.59375 43.09375 
L 7.5 43.09375 
L 7.5 0 
L 14.90625 0 
z
" id="CMSS17-114"/>
      </defs>
      <use transform="scale(0.996264)" xlink:href="#CMSS17-102"/>
      <use transform="translate(28.626659 0)scale(0.996264)" xlink:href="#CMSS17-114"/>
      <use transform="translate(60.536431 0)scale(0.996264)" xlink:href="#CMSS17-114"/>
     </g>
    </g>
    <g id="line2d_31">
     <path d="M 562.670563 371.835356 
L 602.670563 371.835356 
" style="fill:none;stroke:#ff0000;stroke-linecap:square;stroke-width:2;"/>
    </g>
    <g id="line2d_32"/>
    <g id="text_16">
     <!-- fri -->
     <g transform="translate(618.670563 378.835356)scale(0.2 -0.2)">
      <defs>
       <path d="M 15.296875 65.359375 
L 6.90625 65.359375 
L 6.90625 57 
L 15.296875 57 
z
M 14.796875 42.796875 
L 7.40625 42.796875 
L 7.40625 0 
L 14.796875 0 
z
" id="CMSS17-105"/>
      </defs>
      <use transform="scale(0.996264)" xlink:href="#CMSS17-102"/>
      <use transform="translate(28.626659 0)scale(0.996264)" xlink:href="#CMSS17-114"/>
      <use transform="translate(60.536431 0)scale(0.996264)" xlink:href="#CMSS17-105"/>
     </g>
    </g>
    <g id="line2d_33">
     <path d="M 562.670563 401.191606 
L 602.670563 401.191606 
" style="fill:none;stroke:#0000ff;stroke-dasharray:7.4,3.2;stroke-dashoffset:0;stroke-width:2;"/>
    </g>
    <g id="line2d_34"/>
    <g id="text_17">
     <!-- Re(MS) -->
     <g transform="translate(618.670563 408.191606)scale(0.2 -0.2)">
      <defs>
       <path d="M 39.40625 32.953125 
L 39.59375 33.046875 
C 55.203125 38.421875 55.296875 49.171875 55.296875 51.0625 
C 55.296875 60.515625 45.703125 69.578125 31.296875 69.578125 
L 8.90625 69.578125 
L 8.90625 0.5 
L 17.09375 0.5 
L 17.09375 32 
L 31.796875 32 
L 49.5 0.5 
L 57.90625 0.5 
z
M 17.09375 38.078125 
L 17.09375 64 
L 30.203125 64 
C 42.90625 64 47.40625 56.828125 47.40625 51.046875 
C 47.40625 45.65625 43.40625 38.078125 30.203125 38.078125 
z
" id="CMSS17-82"/>
       <path d="M 39.09375 21.515625 
C 39.09375 24.84375 38.90625 31.296875 35.703125 36.640625 
C 32.203125 42.390625 26.5 44 22.203125 44 
C 11.796875 44 3 34.1875 3 21.484375 
C 3 9.09375 12.09375 -1 23.59375 -1 
C 28.09375 -1 33.59375 0.296875 38.59375 3.875 
C 38.59375 4.28125 38.40625 6.46875 38.296875 6.5625 
C 38.296875 6.765625 38 9.84375 38 10.25 
C 33.203125 6.359375 27.703125 5.078125 23.703125 5.078125 
C 17.296875 5.078125 10.40625 10.421875 10.09375 21.515625 
z
M 10.90625 27 
C 12.203125 32.5625 16.59375 37.828125 22.203125 37.828125 
C 23.703125 37.828125 30.703125 37.828125 32.5 27 
z
" id="CMSS17-101"/>
       <path d="M 25.203125 74.5 
C 19.796875 69.015625 7.40625 56.265625 7.40625 24.8125 
C 7.40625 -6.765625 19.796875 -19.421875 25.203125 -25 
L 31.296875 -25 
C 19 -12.25 15 5.578125 15 24.703125 
C 15 43.71875 18.796875 61.65625 31.296875 74.5 
z
" id="CMSS17-40"/>
       <path d="M 49.90625 37.046875 
L 45.09375 23.015625 
C 44.296875 20.421875 41.59375 12.359375 41 9.171875 
L 40.90625 9.171875 
C 40.59375 11.171875 40 13.265625 38.40625 18.34375 
C 37.5 21.328125 36.5 24.40625 35.5 27.203125 
L 20.703125 69 
L 9 69 
L 9 0 
L 16.796875 0 
L 16.796875 60.9375 
L 16.90625 60.9375 
C 16.90625 60.84375 17.796875 56.453125 23.90625 39.046875 
L 37.09375 1.5 
L 44.5 1.5 
L 56.40625 34.859375 
C 57.203125 37.15625 59.703125 44.421875 60.796875 47.90625 
C 61.796875 50.890625 64.296875 58.25 64.90625 61.140625 
L 65 61.140625 
L 65 0 
L 72.90625 0 
L 72.90625 69 
L 61.296875 69 
z
" id="CMSS17-77"/>
       <path d="M 43.703125 65.140625 
C 39.296875 67.71875 34.5 70 26.40625 70 
C 13.5 70 5.203125 60.609375 5.203125 51.03125 
C 5.203125 47.265625 6.296875 43.015625 10.203125 38.671875 
C 14.09375 34.3125 18.5 33.140625 24.09375 31.765625 
C 26.40625 31.15625 30.296875 30.0625 31 29.78125 
C 36.59375 27.609375 39.296875 22.5625 39.296875 17.8125 
C 39.296875 11.59375 34.40625 4.96875 25.703125 4.96875 
C 22.703125 4.96875 13.90625 4.96875 5.59375 12.796875 
L 4.203125 4.96875 
C 12.40625 -1 21.296875 -2 25.796875 -2 
C 38.09375 -2 46.90625 7.625 46.90625 18.53125 
C 46.90625 22.5 45.703125 27.546875 41.5 32.203125 
C 37.40625 36.671875 33.796875 37.65625 25.59375 39.828125 
C 20.90625 41.03125 17.90625 41.828125 15.40625 44.890625 
C 13.703125 47.078125 12.796875 49.15625 12.796875 51.828125 
C 12.796875 57.390625 17.59375 63.4375 26.40625 63.4375 
C 30.796875 63.4375 36.5 62.53125 42.296875 57.1875 
z
" id="CMSS17-83"/>
       <path d="M 11.296875 -25 
C 16.703125 -19.515625 29.09375 -6.765625 29.09375 24.703125 
C 29.09375 56.265625 16.703125 68.921875 11.296875 74.5 
L 5.203125 74.5 
C 17.5 61.75 21.5 43.921875 21.5 24.8125 
C 21.5 5.78125 17.703125 -12.15625 5.203125 -25 
z
" id="CMSS17-41"/>
      </defs>
      <use transform="scale(0.996264)" xlink:href="#CMSS17-82"/>
      <use transform="translate(60.416155 0)scale(0.996264)" xlink:href="#CMSS17-101"/>
      <use transform="translate(102.054977 0)scale(0.996264)" xlink:href="#CMSS17-40"/>
      <use transform="translate(138.488891 0)scale(0.996264)" xlink:href="#CMSS17-77"/>
      <use transform="translate(220.164921 0)scale(0.996264)" xlink:href="#CMSS17-83"/>
      <use transform="translate(272.213437 0)scale(0.996264)" xlink:href="#CMSS17-41"/>
     </g>
    </g>
    <g id="line2d_35">
     <path d="M 562.670563 431.353125 
L 602.670563 431.353125 
" style="fill:none;stroke:#ff0000;stroke-dasharray:7.4,3.2;stroke-dashoffset:0;stroke-width:2;"/>
    </g>
    <g id="line2d_36"/>
    <g id="text_18">
     <!-- Im(MS) -->
     <g transform="translate(618.670563 438.353125)scale(0.2 -0.2)">
      <defs>
       <path d="M 17.09375 69 
L 8.703125 69 
L 8.703125 0 
L 17.09375 0 
z
" id="CMSS17-73"/>
       <path d="M 67 29.328125 
C 67 36.0625 65.296875 44 54.09375 44 
C 46.59375 44 42.09375 39.3125 40.09375 36.421875 
C 38.296875 41.71875 34.09375 44 28.09375 44 
C 21.296875 44 17 40.125 14.703125 37.328125 
L 14.703125 43.09375 
L 7.40625 43.09375 
L 7.40625 0 
L 15 0 
L 15 24.359375 
C 15 30.296875 17.203125 37.9375 24.296875 37.9375 
C 33.40625 37.9375 33.40625 31.5 33.40625 28.578125 
L 33.40625 0 
L 41 0 
L 41 24.359375 
C 41 30.296875 43.203125 37.9375 50.296875 37.9375 
C 59.40625 37.9375 59.40625 31.5 59.40625 28.578125 
L 59.40625 0 
L 67 0 
z
" id="CMSS17-109"/>
      </defs>
      <use transform="scale(0.996264)" xlink:href="#CMSS17-73"/>
      <use transform="translate(25.783926 0)scale(0.996264)" xlink:href="#CMSS17-109"/>
      <use transform="translate(100.01318 0)scale(0.996264)" xlink:href="#CMSS17-40"/>
      <use transform="translate(136.447094 0)scale(0.996264)" xlink:href="#CMSS17-77"/>
      <use transform="translate(218.123124 0)scale(0.996264)" xlink:href="#CMSS17-83"/>
      <use transform="translate(270.17164 0)scale(0.996264)" xlink:href="#CMSS17-41"/>
     </g>
    </g>
   </g>
  </g>
 </g>
 <defs>
  <clipPath id="p16174b0c4f">
   <rect height="664.2" width="590.4" x="108" y="56.7"/>
  </clipPath>
 </defs>
</svg>
