<?xml version="1.0" encoding="utf-8" standalone="no"?>
<!DOCTYPE svg PUBLIC "-//W3C//DTD SVG 1.1//EN"
  "http://www.w3.org/Graphics/SVG/1.1/DTD/svg11.dtd">
<!-- Created with matplotlib (https://matplotlib.org/) -->
<svg height="810pt" version="1.1" viewBox="0 0 720 810" width="720pt" xmlns="http://www.w3.org/2000/svg" xmlns:xlink="http://www.w3.org/1999/xlink">
 <metadata>
  <rdf:RDF xmlns:cc="http://creativecommons.org/ns#" xmlns:dc="http://purl.org/dc/elements/1.1/" xmlns:rdf="http://www.w3.org/1999/02/22-rdf-syntax-ns#">
   <cc:Work>
    <dc:type rdf:resource="http://purl.org/dc/dcmitype/StillImage"/>
    <dc:date>2021-01-26T08:26:39.866981</dc:date>
    <dc:format>image/svg+xml</dc:format>
    <dc:creator>
     <cc:Agent>
      <dc:title>Matplotlib v3.3.1, https://matplotlib.org/</dc:title>
     </cc:Agent>
    </dc:creator>
   </cc:Work>
  </rdf:RDF>
 </metadata>
 <defs>
  <style type="text/css">*{stroke-linecap:butt;stroke-linejoin:round;}</style>
 </defs>
 <g id="figure_1">
  <g id="patch_1">
   <path d="M 0 810 
L 720 810 
L 720 0 
L 0 0 
z
" style="fill:#ffffff;"/>
  </g>
  <g id="axes_1">
   <g id="patch_2">
    <path d="M 108 720.9 
L 698.4 720.9 
L 698.4 56.7 
L 108 56.7 
z
" style="fill:#ffffff;"/>
   </g>
   <g id="matplotlib.axis_1">
    <g id="xtick_1">
     <g id="line2d_1">
      <path clip-path="url(#pfa0545ba71)" d="M 108 720.9 
L 108 56.7 
" style="fill:none;stroke:#e6e6e6;stroke-linecap:square;stroke-width:0.8;"/>
     </g>
     <g id="line2d_2">
      <defs>
       <path d="M 0 0 
L 0 3.5 
" id="m67e7bc88d6" style="stroke:#000000;stroke-width:0.8;"/>
      </defs>
      <g>
       <use style="stroke:#000000;stroke-width:0.8;" x="108" xlink:href="#m67e7bc88d6" y="720.9"/>
      </g>
     </g>
     <g id="text_1">
      <!-- $\mathdefault{−2.0}$ -->
      <g transform="translate(92.839916 738.277725)scale(0.15 -0.15)">
       <defs>
        <path d="M 65.90625 23 
C 67.59375 23 69.40625 23 69.40625 25 
C 69.40625 27 67.59375 27 65.90625 27 
L 11.796875 27 
C 10.09375 27 8.296875 27 8.296875 25 
C 8.296875 23 10.09375 23 11.796875 23 
z
" id="CMSY10-0"/>
        <path d="M 41.703125 15.453125 
L 39.90625 15.453125 
C 38.90625 8.375 38.09375 7.171875 37.703125 6.5625 
C 37.203125 5.765625 30 5.765625 28.59375 5.765625 
L 9.40625 5.765625 
C 13 9.671875 20 16.75 28.5 24.953125 
C 34.59375 30.734375 41.703125 37.53125 41.703125 47.421875 
C 41.703125 59.21875 32.296875 66 21.796875 66 
C 10.796875 66 4.09375 56.3125 4.09375 47.34375 
C 4.09375 43.4375 7 42.9375 8.203125 42.9375 
C 9.203125 42.9375 12.203125 43.546875 12.203125 47.03125 
C 12.203125 50.109375 9.59375 51 8.203125 51 
C 7.59375 51 7 50.90625 6.59375 50.703125 
C 8.5 59.21875 14.296875 63.40625 20.40625 63.40625 
C 29.09375 63.40625 34.796875 56.515625 34.796875 47.421875 
C 34.796875 38.734375 29.703125 31.25 24 24.75 
L 4.09375 2.28125 
L 4.09375 0 
L 39.296875 0 
z
" id="CMR17-50"/>
        <path d="M 18.40625 4.796875 
C 18.40625 7.6875 16 9.671875 13.59375 9.671875 
C 10.703125 9.671875 8.703125 7.28125 8.703125 4.890625 
C 8.703125 2 11.09375 0 13.5 0 
C 16.40625 0 18.40625 2.390625 18.40625 4.796875 
z
" id="CMMI12-58"/>
        <path d="M 42 31.640625 
C 42 37.75 41.90625 48.125 37.703125 56.109375 
C 34 63.109375 28.09375 65.59375 22.90625 65.59375 
C 18.09375 65.59375 12 63.40625 8.203125 56.203125 
C 4.203125 48.71875 3.796875 39.4375 3.796875 31.640625 
C 3.796875 25.953125 3.90625 17.28125 7 9.671875 
C 11.296875 -0.609375 19 -2 22.90625 -2 
C 27.5 -2 34.5 -0.109375 38.59375 9.375 
C 41.59375 16.28125 42 24.359375 42 31.640625 
z
M 22.90625 -0.40625 
C 16.5 -0.40625 12.703125 5.078125 11.296875 12.6875 
C 10.203125 18.5625 10.203125 27.15625 10.203125 32.75 
C 10.203125 40.4375 10.203125 46.828125 11.5 52.921875 
C 13.40625 61.390625 19 64 22.90625 64 
C 27 64 32.296875 61.296875 34.203125 53.125 
C 35.5 47.4375 35.59375 40.734375 35.59375 32.75 
C 35.59375 26.25 35.59375 18.265625 34.40625 12.375 
C 32.296875 1.484375 26.40625 -0.40625 22.90625 -0.40625 
z
" id="CMR17-48"/>
       </defs>
       <use transform="scale(0.996264)" xlink:href="#CMSY10-0"/>
       <use transform="translate(77.487468 0)scale(0.996264)" xlink:href="#CMR17-50"/>
       <use transform="translate(123.177945 0)scale(0.996264)" xlink:href="#CMMI12-58"/>
       <use transform="translate(150.275122 0)scale(0.996264)" xlink:href="#CMR17-48"/>
      </g>
     </g>
    </g>
    <g id="xtick_2">
     <g id="line2d_3">
      <path clip-path="url(#pfa0545ba71)" d="M 181.8 720.9 
L 181.8 56.7 
" style="fill:none;stroke:#e6e6e6;stroke-linecap:square;stroke-width:0.8;"/>
     </g>
     <g id="line2d_4">
      <g>
       <use style="stroke:#000000;stroke-width:0.8;" x="181.8" xlink:href="#m67e7bc88d6" y="720.9"/>
      </g>
     </g>
     <g id="text_2">
      <!-- $\mathdefault{−1.5}$ -->
      <g transform="translate(166.639916 738.277725)scale(0.15 -0.15)">
       <defs>
        <path d="M 26.59375 63.40625 
C 26.59375 65.5 26.5 65.5 25.09375 65.5 
C 21.203125 61.1875 15.296875 59.796875 9.703125 59.796875 
C 9.40625 59.796875 8.90625 59.796875 8.796875 59.5 
C 8.703125 59.296875 8.703125 59.09375 8.703125 57 
C 11.796875 57 17 57.59375 21 59.984375 
L 21 7.203125 
C 21 3.6875 20.796875 2.5 12.203125 2.5 
L 9.203125 2.5 
L 9.203125 0 
C 14 0 19 0 23.796875 0 
C 28.59375 0 33.59375 0 38.40625 0 
L 38.40625 2.5 
L 35.40625 2.5 
C 26.796875 2.5 26.59375 3.59375 26.59375 7.15625 
z
" id="CMR17-49"/>
        <path d="M 11.40625 57.6875 
C 12.40625 57.28125 16.5 56 20.703125 56 
C 30 56 35.09375 61.109375 38 64.0625 
C 38 64.953125 38 65.5 37.40625 65.5 
C 37.296875 65.5 37.09375 65.5 36.296875 65.046875 
C 32.796875 63.40625 28.703125 62.078125 23.703125 62.078125 
C 20.703125 62.078125 16.203125 62.484375 11.296875 64.671875 
C 10.203125 65.171875 10 65.171875 9.90625 65.171875 
C 9.40625 65.171875 9.296875 65.0625 9.296875 63.078125 
L 9.296875 34.421875 
C 9.296875 32.640625 9.296875 32.140625 10.296875 32.140625 
C 10.796875 32.140625 11 32.34375 11.5 33.03125 
C 14.703125 37.515625 19.09375 39.40625 24.09375 39.40625 
C 27.59375 39.40625 35.09375 37.21875 35.09375 20.140625 
C 35.09375 16.953125 35.09375 11.171875 32.09375 6.578125 
C 29.59375 2.484375 25.703125 0.390625 21.40625 0.390625 
C 14.796875 0.390625 8.09375 5 6.296875 12.71875 
C 6.703125 12.609375 7.5 12.421875 7.90625 12.421875 
C 9.203125 12.421875 11.703125 13.125 11.703125 16.21875 
C 11.703125 18.90625 9.796875 20 7.90625 20 
C 5.59375 20 4.09375 18.59375 4.09375 15.796875 
C 4.09375 7.09375 11 -2 21.59375 -2 
C 31.90625 -2 41.703125 6.875 41.703125 19.75 
C 41.703125 31.71875 33.90625 41 24.203125 41 
C 19.09375 41 14.796875 39.109375 11.40625 35.53125 
z
" id="CMR17-53"/>
       </defs>
       <use transform="scale(0.996264)" xlink:href="#CMSY10-0"/>
       <use transform="translate(77.487468 0)scale(0.996264)" xlink:href="#CMR17-49"/>
       <use transform="translate(123.177945 0)scale(0.996264)" xlink:href="#CMMI12-58"/>
       <use transform="translate(150.275122 0)scale(0.996264)" xlink:href="#CMR17-53"/>
      </g>
     </g>
    </g>
    <g id="xtick_3">
     <g id="line2d_5">
      <path clip-path="url(#pfa0545ba71)" d="M 255.6 720.9 
L 255.6 56.7 
" style="fill:none;stroke:#e6e6e6;stroke-linecap:square;stroke-width:0.8;"/>
     </g>
     <g id="line2d_6">
      <g>
       <use style="stroke:#000000;stroke-width:0.8;" x="255.6" xlink:href="#m67e7bc88d6" y="720.9"/>
      </g>
     </g>
     <g id="text_3">
      <!-- $\mathdefault{−1.0}$ -->
      <g transform="translate(240.439916 738.277725)scale(0.15 -0.15)">
       <use transform="scale(0.996264)" xlink:href="#CMSY10-0"/>
       <use transform="translate(77.487468 0)scale(0.996264)" xlink:href="#CMR17-49"/>
       <use transform="translate(123.177945 0)scale(0.996264)" xlink:href="#CMMI12-58"/>
       <use transform="translate(150.275122 0)scale(0.996264)" xlink:href="#CMR17-48"/>
      </g>
     </g>
    </g>
    <g id="xtick_4">
     <g id="line2d_7">
      <path clip-path="url(#pfa0545ba71)" d="M 329.4 720.9 
L 329.4 56.7 
" style="fill:none;stroke:#e6e6e6;stroke-linecap:square;stroke-width:0.8;"/>
     </g>
     <g id="line2d_8">
      <g>
       <use style="stroke:#000000;stroke-width:0.8;" x="329.4" xlink:href="#m67e7bc88d6" y="720.9"/>
      </g>
     </g>
     <g id="text_4">
      <!-- $\mathdefault{−0.5}$ -->
      <g transform="translate(314.239916 738.277725)scale(0.15 -0.15)">
       <use transform="scale(0.996264)" xlink:href="#CMSY10-0"/>
       <use transform="translate(77.487468 0)scale(0.996264)" xlink:href="#CMR17-48"/>
       <use transform="translate(123.177945 0)scale(0.996264)" xlink:href="#CMMI12-58"/>
       <use transform="translate(150.275122 0)scale(0.996264)" xlink:href="#CMR17-53"/>
      </g>
     </g>
    </g>
    <g id="xtick_5">
     <g id="line2d_9">
      <path clip-path="url(#pfa0545ba71)" d="M 403.2 720.9 
L 403.2 56.7 
" style="fill:none;stroke:#e6e6e6;stroke-linecap:square;stroke-width:0.8;"/>
     </g>
     <g id="line2d_10">
      <g>
       <use style="stroke:#000000;stroke-width:0.8;" x="403.2" xlink:href="#m67e7bc88d6" y="720.9"/>
      </g>
     </g>
     <g id="text_5">
      <!-- $\mathdefault{0.0}$ -->
      <g transform="translate(393.851474 738.277725)scale(0.15 -0.15)">
       <use transform="scale(0.996264)" xlink:href="#CMR17-48"/>
       <use transform="translate(45.690477 0)scale(0.996264)" xlink:href="#CMMI12-58"/>
       <use transform="translate(72.787654 0)scale(0.996264)" xlink:href="#CMR17-48"/>
      </g>
     </g>
    </g>
    <g id="xtick_6">
     <g id="line2d_11">
      <path clip-path="url(#pfa0545ba71)" d="M 477 720.9 
L 477 56.7 
" style="fill:none;stroke:#e6e6e6;stroke-linecap:square;stroke-width:0.8;"/>
     </g>
     <g id="line2d_12">
      <g>
       <use style="stroke:#000000;stroke-width:0.8;" x="477" xlink:href="#m67e7bc88d6" y="720.9"/>
      </g>
     </g>
     <g id="text_6">
      <!-- $\mathdefault{0.5}$ -->
      <g transform="translate(467.651474 738.277725)scale(0.15 -0.15)">
       <use transform="scale(0.996264)" xlink:href="#CMR17-48"/>
       <use transform="translate(45.690477 0)scale(0.996264)" xlink:href="#CMMI12-58"/>
       <use transform="translate(72.787654 0)scale(0.996264)" xlink:href="#CMR17-53"/>
      </g>
     </g>
    </g>
    <g id="xtick_7">
     <g id="line2d_13">
      <path clip-path="url(#pfa0545ba71)" d="M 550.8 720.9 
L 550.8 56.7 
" style="fill:none;stroke:#e6e6e6;stroke-linecap:square;stroke-width:0.8;"/>
     </g>
     <g id="line2d_14">
      <g>
       <use style="stroke:#000000;stroke-width:0.8;" x="550.8" xlink:href="#m67e7bc88d6" y="720.9"/>
      </g>
     </g>
     <g id="text_7">
      <!-- $\mathdefault{1.0}$ -->
      <g transform="translate(541.451474 738.277725)scale(0.15 -0.15)">
       <use transform="scale(0.996264)" xlink:href="#CMR17-49"/>
       <use transform="translate(45.690477 0)scale(0.996264)" xlink:href="#CMMI12-58"/>
       <use transform="translate(72.787654 0)scale(0.996264)" xlink:href="#CMR17-48"/>
      </g>
     </g>
    </g>
    <g id="xtick_8">
     <g id="line2d_15">
      <path clip-path="url(#pfa0545ba71)" d="M 624.6 720.9 
L 624.6 56.7 
" style="fill:none;stroke:#e6e6e6;stroke-linecap:square;stroke-width:0.8;"/>
     </g>
     <g id="line2d_16">
      <g>
       <use style="stroke:#000000;stroke-width:0.8;" x="624.6" xlink:href="#m67e7bc88d6" y="720.9"/>
      </g>
     </g>
     <g id="text_8">
      <!-- $\mathdefault{1.5}$ -->
      <g transform="translate(615.251474 738.277725)scale(0.15 -0.15)">
       <use transform="scale(0.996264)" xlink:href="#CMR17-49"/>
       <use transform="translate(45.690477 0)scale(0.996264)" xlink:href="#CMMI12-58"/>
       <use transform="translate(72.787654 0)scale(0.996264)" xlink:href="#CMR17-53"/>
      </g>
     </g>
    </g>
    <g id="xtick_9">
     <g id="line2d_17">
      <path clip-path="url(#pfa0545ba71)" d="M 698.4 720.9 
L 698.4 56.7 
" style="fill:none;stroke:#e6e6e6;stroke-linecap:square;stroke-width:0.8;"/>
     </g>
     <g id="line2d_18">
      <g>
       <use style="stroke:#000000;stroke-width:0.8;" x="698.4" xlink:href="#m67e7bc88d6" y="720.9"/>
      </g>
     </g>
     <g id="text_9">
      <!-- $\mathdefault{2.0}$ -->
      <g transform="translate(689.051474 738.277725)scale(0.15 -0.15)">
       <use transform="scale(0.996264)" xlink:href="#CMR17-50"/>
       <use transform="translate(45.690477 0)scale(0.996264)" xlink:href="#CMMI12-58"/>
       <use transform="translate(72.787654 0)scale(0.996264)" xlink:href="#CMR17-48"/>
      </g>
     </g>
    </g>
    <g id="text_10">
     <!-- $x$ -->
     <g transform="translate(396.270746 762.479723)scale(0.25 -0.25)">
      <defs>
       <path d="M 47.40625 40.71875 
C 44.203125 40.109375 43 37.71875 43 35.828125 
C 43 33.421875 44.90625 32.625 46.296875 32.625 
C 49.296875 32.625 51.40625 35.21875 51.40625 37.921875 
C 51.40625 42.109375 46.59375 44 42.40625 44 
C 36.296875 44 32.90625 38.015625 32 36.125 
C 29.703125 44 23.5 44 21.703125 44 
C 11.5 44 6.09375 30.9375 6.09375 28.734375 
C 6.09375 28.34375 6.5 27.84375 7.203125 27.84375 
C 8 27.84375 8.203125 28.4375 8.40625 28.84375 
C 11.796875 39.921875 18.5 42.015625 21.40625 42.015625 
C 25.90625 42.015625 26.796875 37.8125 26.796875 35.421875 
C 26.796875 33.234375 26.203125 30.9375 25 26.140625 
L 21.59375 12.46875 
C 20.09375 6.484375 17.203125 1 11.90625 1 
C 11.40625 1 8.90625 1 6.796875 2.296875 
C 10.40625 3 11.203125 5.984375 11.203125 7.1875 
C 11.203125 9.1875 9.703125 10.375 7.796875 10.375 
C 5.40625 10.375 2.796875 8.28125 2.796875 5.09375 
C 2.796875 0.890625 7.5 -1 11.796875 -1 
C 16.59375 -1 20 2.796875 22.09375 6.890625 
C 23.703125 1 28.703125 -1 32.40625 -1 
C 42.59375 -1 48 12.078125 48 14.265625 
C 48 14.765625 47.59375 15.171875 47 15.171875 
C 46.09375 15.171875 46 14.671875 45.703125 13.875 
C 43 5.09375 37.203125 1 32.703125 1 
C 29.203125 1 27.296875 3.59375 27.296875 7.6875 
C 27.296875 9.875 27.703125 11.46875 29.296875 18.0625 
L 32.796875 31.625 
C 34.296875 37.625 37.703125 42.015625 42.296875 42.015625 
C 42.5 42.015625 45.296875 42.015625 47.40625 40.71875 
z
" id="CMMI12-120"/>
      </defs>
      <use transform="scale(0.996264)" xlink:href="#CMMI12-120"/>
     </g>
    </g>
   </g>
   <g id="matplotlib.axis_2">
    <g id="ytick_1">
     <g id="line2d_19">
      <path clip-path="url(#pfa0545ba71)" d="M 108 646.925459 
L 698.4 646.925459 
" style="fill:none;stroke:#e6e6e6;stroke-linecap:square;stroke-width:0.8;"/>
     </g>
     <g id="line2d_20">
      <defs>
       <path d="M 0 0 
L -3.5 0 
" id="ma3b75241d3" style="stroke:#000000;stroke-width:0.8;"/>
      </defs>
      <g>
       <use style="stroke:#000000;stroke-width:0.8;" x="108" xlink:href="#ma3b75241d3" y="646.925459"/>
      </g>
     </g>
     <g id="text_11">
      <!-- $\mathdefault{−7.5}$ -->
      <g transform="translate(70.679832 652.114322)scale(0.15 -0.15)">
       <defs>
        <path d="M 45.09375 61.578125 
L 45.09375 63.765625 
L 21.59375 63.765625 
C 9.90625 63.765625 9.703125 65.078125 9.296875 67 
L 7.5 67 
L 4.59375 48.34375 
L 6.40625 48.34375 
C 6.703125 50.234375 7.40625 55.3125 8.59375 57.203125 
C 9.203125 58 16.59375 58 18.296875 58 
L 40.296875 58 
L 29.203125 41.578125 
C 21.796875 30.53125 16.703125 15.609375 16.703125 2.578125 
C 16.703125 1.390625 16.703125 -2 20.296875 -2 
C 23.90625 -2 23.90625 1.390625 23.90625 2.671875 
L 23.90625 7.265625 
C 23.90625 23.5625 26.703125 34.3125 31.296875 41.1875 
z
" id="CMR17-55"/>
       </defs>
       <use transform="scale(0.996264)" xlink:href="#CMSY10-0"/>
       <use transform="translate(77.487468 0)scale(0.996264)" xlink:href="#CMR17-55"/>
       <use transform="translate(123.177945 0)scale(0.996264)" xlink:href="#CMMI12-58"/>
       <use transform="translate(150.275122 0)scale(0.996264)" xlink:href="#CMR17-53"/>
      </g>
     </g>
    </g>
    <g id="ytick_2">
     <g id="line2d_21">
      <path clip-path="url(#pfa0545ba71)" d="M 108 560.883639 
L 698.4 560.883639 
" style="fill:none;stroke:#e6e6e6;stroke-linecap:square;stroke-width:0.8;"/>
     </g>
     <g id="line2d_22">
      <g>
       <use style="stroke:#000000;stroke-width:0.8;" x="108" xlink:href="#ma3b75241d3" y="560.883639"/>
      </g>
     </g>
     <g id="text_12">
      <!-- $\mathdefault{−5.0}$ -->
      <g transform="translate(70.679832 566.072502)scale(0.15 -0.15)">
       <use transform="scale(0.996264)" xlink:href="#CMSY10-0"/>
       <use transform="translate(77.487468 0)scale(0.996264)" xlink:href="#CMR17-53"/>
       <use transform="translate(123.177945 0)scale(0.996264)" xlink:href="#CMMI12-58"/>
       <use transform="translate(150.275122 0)scale(0.996264)" xlink:href="#CMR17-48"/>
      </g>
     </g>
    </g>
    <g id="ytick_3">
     <g id="line2d_23">
      <path clip-path="url(#pfa0545ba71)" d="M 108 474.84182 
L 698.4 474.84182 
" style="fill:none;stroke:#e6e6e6;stroke-linecap:square;stroke-width:0.8;"/>
     </g>
     <g id="line2d_24">
      <g>
       <use style="stroke:#000000;stroke-width:0.8;" x="108" xlink:href="#ma3b75241d3" y="474.84182"/>
      </g>
     </g>
     <g id="text_13">
      <!-- $\mathdefault{−2.5}$ -->
      <g transform="translate(70.679832 480.030682)scale(0.15 -0.15)">
       <use transform="scale(0.996264)" xlink:href="#CMSY10-0"/>
       <use transform="translate(77.487468 0)scale(0.996264)" xlink:href="#CMR17-50"/>
       <use transform="translate(123.177945 0)scale(0.996264)" xlink:href="#CMMI12-58"/>
       <use transform="translate(150.275122 0)scale(0.996264)" xlink:href="#CMR17-53"/>
      </g>
     </g>
    </g>
    <g id="ytick_4">
     <g id="line2d_25">
      <path clip-path="url(#pfa0545ba71)" d="M 108 388.8 
L 698.4 388.8 
" style="fill:none;stroke:#e6e6e6;stroke-linecap:square;stroke-width:0.8;"/>
     </g>
     <g id="line2d_26">
      <g>
       <use style="stroke:#000000;stroke-width:0.8;" x="108" xlink:href="#ma3b75241d3" y="388.8"/>
      </g>
     </g>
     <g id="text_14">
      <!-- $\mathdefault{0.0}$ -->
      <g transform="translate(82.302948 393.988862)scale(0.15 -0.15)">
       <use transform="scale(0.996264)" xlink:href="#CMR17-48"/>
       <use transform="translate(45.690477 0)scale(0.996264)" xlink:href="#CMMI12-58"/>
       <use transform="translate(72.787654 0)scale(0.996264)" xlink:href="#CMR17-48"/>
      </g>
     </g>
    </g>
    <g id="ytick_5">
     <g id="line2d_27">
      <path clip-path="url(#pfa0545ba71)" d="M 108 302.75818 
L 698.4 302.75818 
" style="fill:none;stroke:#e6e6e6;stroke-linecap:square;stroke-width:0.8;"/>
     </g>
     <g id="line2d_28">
      <g>
       <use style="stroke:#000000;stroke-width:0.8;" x="108" xlink:href="#ma3b75241d3" y="302.75818"/>
      </g>
     </g>
     <g id="text_15">
      <!-- $\mathdefault{2.5}$ -->
      <g transform="translate(82.302948 307.947043)scale(0.15 -0.15)">
       <use transform="scale(0.996264)" xlink:href="#CMR17-50"/>
       <use transform="translate(45.690477 0)scale(0.996264)" xlink:href="#CMMI12-58"/>
       <use transform="translate(72.787654 0)scale(0.996264)" xlink:href="#CMR17-53"/>
      </g>
     </g>
    </g>
    <g id="ytick_6">
     <g id="line2d_29">
      <path clip-path="url(#pfa0545ba71)" d="M 108 216.716361 
L 698.4 216.716361 
" style="fill:none;stroke:#e6e6e6;stroke-linecap:square;stroke-width:0.8;"/>
     </g>
     <g id="line2d_30">
      <g>
       <use style="stroke:#000000;stroke-width:0.8;" x="108" xlink:href="#ma3b75241d3" y="216.716361"/>
      </g>
     </g>
     <g id="text_16">
      <!-- $\mathdefault{5.0}$ -->
      <g transform="translate(82.302948 221.905223)scale(0.15 -0.15)">
       <use transform="scale(0.996264)" xlink:href="#CMR17-53"/>
       <use transform="translate(45.690477 0)scale(0.996264)" xlink:href="#CMMI12-58"/>
       <use transform="translate(72.787654 0)scale(0.996264)" xlink:href="#CMR17-48"/>
      </g>
     </g>
    </g>
    <g id="ytick_7">
     <g id="line2d_31">
      <path clip-path="url(#pfa0545ba71)" d="M 108 130.674541 
L 698.4 130.674541 
" style="fill:none;stroke:#e6e6e6;stroke-linecap:square;stroke-width:0.8;"/>
     </g>
     <g id="line2d_32">
      <g>
       <use style="stroke:#000000;stroke-width:0.8;" x="108" xlink:href="#ma3b75241d3" y="130.674541"/>
      </g>
     </g>
     <g id="text_17">
      <!-- $\mathdefault{7.5}$ -->
      <g transform="translate(82.302948 135.863403)scale(0.15 -0.15)">
       <use transform="scale(0.996264)" xlink:href="#CMR17-55"/>
       <use transform="translate(45.690477 0)scale(0.996264)" xlink:href="#CMMI12-58"/>
       <use transform="translate(72.787654 0)scale(0.996264)" xlink:href="#CMR17-53"/>
      </g>
     </g>
    </g>
    <g id="text_18">
     <!-- Fresnel Propagator -->
     <g transform="translate(61.835298 480.895788)rotate(-90)scale(0.25 -0.25)">
      <defs>
       <path d="M 45.59375 31 
L 45.59375 37.078125 
L 17.203125 37.078125 
L 17.203125 62 
L 29.40625 62 
C 30.59375 62 31.796875 62 33 62 
L 49.5 62 
L 49.5 68.359375 
L 8.796875 68.359375 
L 8.796875 -0.5 
L 17.203125 -0.5 
L 17.203125 31 
z
" id="CMSS17-70"/>
       <path d="M 14.90625 21.296875 
C 14.90625 30.703125 21.796875 37 30.59375 37 
L 30.59375 43.578125 
C 24.203125 43.578125 18.203125 40.390625 14.59375 35.203125 
L 14.59375 43.09375 
L 7.5 43.09375 
L 7.5 0 
L 14.90625 0 
z
" id="CMSS17-114"/>
       <path d="M 39.09375 21.515625 
C 39.09375 24.84375 38.90625 31.296875 35.703125 36.640625 
C 32.203125 42.390625 26.5 44 22.203125 44 
C 11.796875 44 3 34.1875 3 21.484375 
C 3 9.09375 12.09375 -1 23.59375 -1 
C 28.09375 -1 33.59375 0.296875 38.59375 3.875 
C 38.59375 4.28125 38.40625 6.46875 38.296875 6.5625 
C 38.296875 6.765625 38 9.84375 38 10.25 
C 33.203125 6.359375 27.703125 5.078125 23.703125 5.078125 
C 17.296875 5.078125 10.40625 10.421875 10.09375 21.515625 
z
M 10.90625 27 
C 12.203125 32.5625 16.59375 37.828125 22.203125 37.828125 
C 23.703125 37.828125 30.703125 37.828125 32.5 27 
z
" id="CMSS17-101"/>
       <path d="M 32.203125 41.046875 
C 26.296875 43.859375 21.703125 43.859375 18.703125 43.859375 
C 11.59375 43.859375 3.09375 41.375 3.09375 31.296875 
C 3.09375 21.234375 14.09375 19.03125 17.09375 18.421875 
C 21.703125 17.53125 26.796875 16.53125 26.796875 11.5625 
C 26.796875 5.265625 19.59375 5.265625 18.296875 5.265625 
C 14.296875 5.265625 8.796875 6.359375 3.796875 9.96875 
L 2.59375 3.28125 
C 8.296875 0 13.796875 -1 18.40625 -1 
C 30.703125 -1 33.796875 6.5 33.796875 12.203125 
C 33.796875 17.09375 31 20.390625 29.09375 21.890625 
C 25.796875 24.5 24.59375 24.796875 16.40625 26.5 
C 15 26.703125 10.09375 27.796875 10.09375 32.28125 
C 10.09375 38 16.40625 38 17.796875 38 
C 24.296875 38 28.296875 35.984375 31 34.5 
z
" id="CMSS17-115"/>
       <path d="M 40.90625 29.328125 
C 40.90625 35.671875 39.40625 44 28.09375 44 
C 21.703125 44 17.5 40.71875 14.703125 37.328125 
L 14.703125 43.09375 
L 7.40625 43.09375 
L 7.40625 0 
L 15 0 
L 15 24.359375 
C 15 30.6875 17.40625 37.9375 24.203125 37.9375 
C 33 37.9375 33.296875 32 33.296875 28.578125 
L 33.296875 0 
L 40.90625 0 
z
" id="CMSS17-110"/>
       <path d="M 14.796875 69 
L 7.40625 69 
L 7.40625 0 
L 14.796875 0 
z
" id="CMSS17-108"/>
       <path d="M 32.90625 29 
C 44.90625 29 54.703125 38.328125 54.703125 49.34375 
C 54.703125 60.15625 45.296875 69.578125 32.296875 69.578125 
L 8.90625 69.578125 
L 8.90625 0 
L 17.296875 0 
L 17.296875 29 
z
M 30.09375 64 
C 41.703125 64 46.796875 56.671875 46.796875 49.328125 
C 46.796875 42.5 42.09375 34.78125 30.09375 34.78125 
L 17.09375 34.78125 
L 17.09375 64 
z
" id="CMSS17-80"/>
       <path d="M 44.203125 21.1875 
C 44.203125 34 34.703125 44 23.5 44 
C 12 44 2.703125 33.703125 2.703125 21.1875 
C 2.703125 8.5 12.296875 -1 23.40625 -1 
C 34.796875 -1 44.203125 8.796875 44.203125 21.1875 
z
M 23.5 5.265625 
C 16.40625 5.265625 10.296875 11.078125 10.296875 22 
C 10.296875 33.609375 17.40625 37.921875 23.40625 37.921875 
C 29.90625 37.921875 36.59375 33.21875 36.59375 22 
C 36.59375 10.671875 30.09375 5.265625 23.5 5.265625 
z
" id="CMSS17-111"/>
       <path d="M 15.09375 5.203125 
C 18.40625 2.015625 22.90625 -0.078125 27.703125 -0.078125 
C 37 -0.078125 45 9.421875 45 22.0625 
C 45 33.734375 39 44 30.40625 44 
C 25.40625 44 19.40625 42.21875 14.90625 38.625 
L 14.90625 43.203125 
L 7.5 43.203125 
L 7.5 -19 
L 15.09375 -19 
z
M 15.09375 32.8125 
C 15.90625 34 19.296875 37.734375 24.796875 37.734375 
C 31.796875 37.734375 37.40625 30.625 37.40625 22.0625 
C 37.40625 12.296875 30.59375 6 23.90625 6 
C 21.90625 6 19.796875 6.484375 17.796875 8.171875 
C 15.09375 10.53125 15.09375 12 15.09375 13.390625 
z
" id="CMSS17-112"/>
       <path d="M 37.59375 27.984375 
C 37.59375 37.375 30.90625 43.875 21.90625 43.875 
C 17.5 43.875 12.703125 43.078125 7.203125 39.890625 
L 7.796875 33.359375 
C 10.296875 35.125 14.59375 38 21.796875 38 
C 26.90625 38 30 34.0625 30 27.84375 
L 30 24 
C 14 24 4 19.34375 4 11.34375 
C 4 7.203125 6.5 -1 14.796875 -1 
C 16.296875 -1 24.40625 -1 30.203125 3.390625 
L 30.203125 -0.296875 
L 37.59375 -0.296875 
z
M 30 12.75 
C 30 10.953125 30 8.5625 27 6.78125 
C 24.40625 5.078125 21.09375 5.078125 19.703125 5.078125 
C 14.703125 5.078125 11.296875 7.984375 11.296875 11.625 
C 11.296875 18.921875 26.90625 18.921875 30 18.921875 
z
" id="CMSS17-97"/>
       <path d="M 44.5 43.875 
C 38.796875 43.875 33.90625 42.78125 29.90625 40.890625 
C 26.59375 43.390625 23.203125 43.875 20.90625 43.875 
C 12.203125 43.875 5.59375 36.703125 5.59375 28.34375 
C 5.59375 22.9375 8.59375 18.859375 8.796875 18.671875 
C 7 16.171875 6 13.484375 6 10.5 
C 6 7 7.40625 4.515625 8.5 3.125 
C 3.296875 -0.046875 2.59375 -4.90625 2.59375 -6.796875 
C 2.59375 -14.03125 11.703125 -20 23.40625 -20 
C 35.203125 -20 44.296875 -14.03125 44.296875 -6.6875 
C 44.296875 7 29 7 24.796875 7 
L 16.703125 7 
C 15.203125 7 11.203125 7 11.203125 12.359375 
C 11.203125 14.390625 12.09375 15.6875 12.203125 15.78125 
C 13.703125 14.6875 16.796875 13 20.90625 13 
C 29.203125 13 36.09375 19.96875 36.09375 28.546875 
C 36.09375 33.3125 33.90625 36.796875 33 38 
L 33.296875 38 
C 33.59375 38 37.796875 38 39.296875 38 
C 42.5 38 42.796875 37.953125 45.59375 37.796875 
z
M 20.90625 18.46875 
C 17.5 18.46875 12.703125 20.546875 12.703125 28.484375 
C 12.703125 37.109375 18.203125 38.5 20.796875 38.5 
C 24.203125 38.5 29 36.421875 29 28.484375 
C 29 19.859375 23.5 18.46875 20.90625 18.46875 
z
M 24.703125 -0.15625 
C 27.09375 -0.15625 37.203125 -0.15625 37.203125 -6.90625 
C 37.203125 -11.15625 31 -14.515625 23.5 -14.515625 
C 15.90625 -14.515625 9.703125 -11.25 9.703125 -6.796875 
C 9.703125 -6.296875 9.703125 -0.15625 16.59375 -0.15625 
z
" id="CMSS17-103"/>
       <path d="M 16.703125 37 
L 29.703125 37 
L 29.703125 42.765625 
L 16.703125 42.765625 
L 16.703125 55 
L 9.59375 55 
L 9.59375 42.765625 
L 1.703125 42.765625 
L 1.703125 37 
L 9.40625 37 
L 9.40625 11.703125 
C 9.40625 6 10.703125 -1 17.296875 -1 
C 22.296875 -1 26.90625 0.390625 31.296875 2.6875 
L 29.703125 8.5625 
C 27.296875 6.46875 24.40625 5.265625 21.296875 5.265625 
C 16.90625 5.265625 16.703125 10.875 16.703125 13.375 
z
" id="CMSS17-116"/>
      </defs>
      <use transform="scale(0.996264)" xlink:href="#CMSS17-70"/>
      <use transform="translate(50.687105 0)scale(0.996264)" xlink:href="#CMSS17-114"/>
      <use transform="translate(82.596878 0)scale(0.996264)" xlink:href="#CMSS17-101"/>
      <use transform="translate(124.2357 0)scale(0.996264)" xlink:href="#CMSS17-115"/>
      <use transform="translate(160.149242 0)scale(0.996264)" xlink:href="#CMSS17-110"/>
      <use transform="translate(208.354185 0)scale(0.996264)" xlink:href="#CMSS17-101"/>
      <use transform="translate(249.993007 0)scale(0.996264)" xlink:href="#CMSS17-108"/>
      <use transform="translate(303.402843 0)scale(0.996264)" xlink:href="#CMSS17-80"/>
      <use transform="translate(363.138429 0)scale(0.996264)" xlink:href="#CMSS17-114"/>
      <use transform="translate(395.048202 0)scale(0.996264)" xlink:href="#CMSS17-111"/>
      <use transform="translate(441.891825 0)scale(0.996264)" xlink:href="#CMSS17-112"/>
      <use transform="translate(490.096768 0)scale(0.996264)" xlink:href="#CMSS17-97"/>
      <use transform="translate(535.018689 0)scale(0.996264)" xlink:href="#CMSS17-103"/>
      <use transform="translate(581.862313 0)scale(0.996264)" xlink:href="#CMSS17-97"/>
      <use transform="translate(626.784233 0)scale(0.996264)" xlink:href="#CMSS17-116"/>
      <use transform="translate(660.6158 0)scale(0.996264)" xlink:href="#CMSS17-111"/>
      <use transform="translate(704.856969 0)scale(0.996264)" xlink:href="#CMSS17-114"/>
     </g>
    </g>
   </g>
   <g id="line2d_33">
    <path clip-path="url(#pfa0545ba71)" d="M 107.98555 262.745506 
L 109.879165 586.532049 
L 110.257887 628.196692 
L 110.63661 654.315713 
L 111.015333 663.262555 
L 111.394056 654.527017 
L 111.772779 628.738053 
L 112.151502 587.613236 
L 112.908947 470.891513 
L 114.423839 210.929688 
L 114.802561 164.527838 
L 115.181284 132.25511 
L 115.560007 116.075974 
L 115.93873 116.937463 
L 116.317453 134.719431 
L 116.696176 168.251745 
L 117.453621 273.188319 
L 119.347235 586.749975 
L 119.725958 627.237382 
L 120.104681 653.217634 
L 120.483404 663.17732 
L 120.862127 656.579392 
L 121.24085 633.886451 
L 121.619572 596.523712 
L 122.377018 487.686473 
L 123.891909 232.194426 
L 124.649355 145.055795 
L 125.028078 121.892767 
L 125.406801 114.343823 
L 125.785524 122.785485 
L 126.164246 146.66284 
L 126.542969 184.530489 
L 127.300415 292.599369 
L 128.815306 543.895362 
L 129.572752 630.590336 
L 129.951475 654.405951 
L 130.330198 663.223678 
L 130.70892 656.60969 
L 131.087643 634.998197 
L 131.466366 599.658818 
L 132.223812 496.537677 
L 134.117426 197.214839 
L 134.496149 156.833988 
L 134.874872 129.14973 
L 135.253594 115.613504 
L 135.632317 116.899619 
L 136.01104 132.876378 
L 136.389763 162.621067 
L 137.147209 256.151239 
L 139.419546 600.35807 
L 139.798268 634.600441 
L 140.176991 655.921109 
L 140.555714 663.261675 
L 140.934437 656.299619 
L 141.31316 635.457727 
L 141.691883 601.874736 
L 142.449328 504.191434 
L 144.342942 212.491756 
L 145.100388 138.517509 
L 145.479111 119.713441 
L 145.857834 114.430435 
L 146.236557 122.873655 
L 146.615279 144.562115 
L 146.994002 178.359601 
L 147.751448 274.867583 
L 149.645062 561.455639 
L 150.402508 636.012556 
L 150.781231 656.075739 
L 151.159953 663.250038 
L 151.538676 657.248723 
L 151.917399 638.417677 
L 152.296122 607.7123 
L 153.053568 517.210947 
L 155.325905 189.154934 
L 155.704628 153.464424 
L 156.08335 128.714358 
L 156.462073 115.996609 
L 156.840796 115.841199 
L 157.219519 128.197939 
L 157.598242 152.444894 
L 158.355687 231.493728 
L 159.491856 396.482364 
L 160.628024 557.804247 
L 161.38547 631.544179 
L 161.764193 652.946219 
L 162.142916 662.684775 
L 162.521639 660.38672 
L 162.900361 646.208852 
L 163.279084 620.825271 
L 164.03653 541.493457 
L 165.172698 379.603024 
L 166.308867 221.819414 
L 167.066313 148.562299 
L 167.445035 126.532346 
L 167.823758 115.549627 
L 168.202481 116.021121 
L 168.581204 127.87234 
L 168.959927 150.555792 
L 169.717372 224.05056 
L 170.853541 379.144189 
L 171.989709 537.0205 
L 172.747155 615.605267 
L 173.125878 641.851559 
L 173.504601 657.934274 
L 173.883324 663.261924 
L 174.262046 657.675539 
L 174.640769 641.450026 
L 175.019492 615.278341 
L 175.776938 537.751159 
L 176.913106 383.542656 
L 178.049275 231.795892 
L 178.80672 157.763397 
L 179.185443 133.403858 
L 179.564166 118.770197 
L 179.942889 114.36668 
L 180.321612 120.307653 
L 180.700335 136.31782 
L 181.079057 161.747137 
L 181.836503 236.573999 
L 182.972672 385.794576 
L 184.10884 535.299762 
L 184.866286 611.101649 
L 185.245009 637.503726 
L 185.623731 654.931097 
L 186.002454 662.806484 
L 186.381177 660.898513 
L 186.7599 649.325778 
L 187.138623 628.548405 
L 187.896068 562.794454 
L 189.032237 423.156885 
L 190.547128 229.762131 
L 191.304574 159.66509 
L 191.683297 135.846401 
L 192.06202 120.624482 
L 192.440742 114.466596 
L 192.819465 117.531157 
L 193.198188 129.666254 
L 193.576911 150.418591 
L 194.334357 214.577114 
L 195.470525 349.574411 
L 196.985416 538.688903 
L 197.742862 609.845609 
L 198.121585 635.256028 
L 198.500308 652.783738 
L 198.879031 661.916663 
L 199.257754 662.412717 
L 199.636476 654.303982 
L 200.015199 637.892179 
L 200.772645 582.629133 
L 201.530091 503.750669 
L 204.18115 193.946083 
L 204.938596 139.93533 
L 205.317319 123.760001 
L 205.696042 115.462678 
L 206.074765 115.243261 
L 206.453487 123.062048 
L 206.83221 138.644082 
L 207.589656 190.895213 
L 208.347102 265.670235 
L 211.376884 600.69429 
L 212.13433 646.125408 
L 212.513053 658.376087 
L 212.891776 663.189884 
L 213.270498 660.478917 
L 213.649221 650.361805 
L 214.027944 633.157582 
L 214.78539 579.692488 
L 215.542835 506.091005 
L 218.572618 181.598345 
L 219.330064 135.393864 
L 219.708787 121.834205 
L 220.087509 115.100593 
L 220.466232 115.321878 
L 220.844955 122.449586 
L 221.223678 136.261684 
L 221.981124 182.235585 
L 222.738569 248.400144 
L 224.253461 413.234028 
L 225.389629 533.489791 
L 226.147075 597.581098 
L 226.90452 641.742409 
L 227.283243 655.05062 
L 227.661966 662.097736 
L 228.040689 662.759595 
L 228.419412 657.061905 
L 228.798135 645.177413 
L 229.176857 627.419703 
L 229.934303 576.184294 
L 230.691749 508.257949 
L 233.721531 203.481693 
L 234.478977 152.683662 
L 234.8577 134.756106 
L 235.236423 122.315039 
L 235.615146 115.589364 
L 235.993868 114.683646 
L 236.372591 119.577827 
L 236.751314 130.129599 
L 237.130037 146.079324 
L 237.887483 192.593379 
L 238.644928 255.025637 
L 240.15982 405.693043 
L 241.674711 549.835222 
L 242.432157 605.109236 
L 243.189602 643.312019 
L 243.568325 655.104886 
L 243.947048 661.73558 
L 244.325771 663.11329 
L 244.704494 659.24895 
L 245.083217 650.253354 
L 245.461939 636.3334 
L 246.219385 594.993816 
L 246.976831 538.559155 
L 248.112999 435.34477 
L 250.006613 256.996448 
L 250.764059 198.303479 
L 251.521505 153.217462 
L 252.27895 124.664307 
L 252.657673 117.17382 
L 253.036396 114.360138 
L 253.415119 116.236216 
L 253.793842 122.734875 
L 254.172565 133.711343 
L 254.93001 168.154718 
L 255.687456 217.029572 
L 256.823624 309.732156 
L 259.474684 542.002056 
L 260.23213 593.529117 
L 260.989576 632.187899 
L 261.747021 655.82205 
L 262.125744 661.593881 
L 262.504467 663.241768 
L 262.88319 660.774031 
L 263.261913 654.260554 
L 263.640635 643.830598 
L 264.398081 612.016148 
L 265.155527 567.418138 
L 266.291695 482.753032 
L 269.700201 209.782802 
L 270.457646 166.758872 
L 271.215092 135.763447 
L 271.593815 125.251098 
L 271.972538 118.223448 
L 272.351261 114.742329 
L 272.729983 114.822384 
L 273.108706 118.431813 
L 273.487429 125.493714 
L 273.866152 135.887985 
L 274.623598 165.992152 
L 275.381043 207.022428 
L 276.517212 284.106434 
L 280.30444 564.690859 
L 281.061886 605.328923 
L 281.819331 635.983192 
L 282.576777 655.472008 
L 282.9555 660.804909 
L 283.334223 663.14455 
L 283.712946 662.493562 
L 284.091668 658.887207 
L 284.470391 652.392278 
L 285.227837 631.152735 
L 285.985283 599.878961 
L 287.121451 537.499474 
L 288.636342 435.438883 
L 291.287402 252.497486 
L 292.423571 189.88624 
L 293.181017 157.40686 
L 293.938462 133.593028 
L 294.695908 119.128669 
L 295.074631 115.517697 
L 295.453354 114.3374 
L 295.832076 115.572776 
L 296.210799 119.187657 
L 296.589522 125.125535 
L 297.346968 143.648694 
L 298.104413 170.324815 
L 299.240582 223.239262 
L 300.755473 310.855266 
L 304.163979 520.816465 
L 305.300147 577.705297 
L 306.436316 621.725755 
L 307.193761 642.711896 
L 307.951207 656.476128 
L 308.32993 660.575833 
L 308.708653 662.808092 
L 309.087376 663.179966 
L 309.466098 661.711199 
L 309.844821 658.433735 
L 310.223544 653.391162 
L 310.98099 638.239464 
L 311.738435 616.812629 
L 312.495881 589.808269 
L 313.63205 540.645728 
L 315.146941 463.811195 
L 318.934169 263.603059 
L 320.070338 213.590587 
L 321.206506 172.426457 
L 321.963952 150.682531 
L 322.721398 133.878132 
L 323.478843 122.209403 
L 323.857566 118.33129 
L 324.236289 115.759877 
L 324.615012 114.488862 
L 324.993735 114.505665 
L 325.372457 115.791692 
L 325.75118 118.322623 
L 326.129903 122.068721 
L 326.887349 133.062351 
L 327.644794 148.439062 
L 328.40224 167.800799 
L 329.538409 203.317867 
L 331.0533 260.106073 
L 333.325637 356.783931 
L 336.35542 485.342177 
L 337.870311 541.431981 
L 339.385202 588.473803 
L 340.521371 616.733806 
L 341.657539 638.444409 
L 342.414985 649.158029 
L 343.172431 656.840793 
L 343.929876 661.517437 
L 344.308599 662.746057 
L 344.687322 663.248416 
L 345.066045 663.037068 
L 345.444768 662.126343 
L 345.823491 660.532226 
L 346.580936 655.365326 
L 347.338382 647.692819 
L 348.095828 637.689973 
L 349.231996 618.735872 
L 350.368165 595.656307 
L 351.883056 559.710747 
L 353.77667 508.880094 
L 361.72985 287.382169 
L 363.623464 244.179503 
L 365.138355 214.045901 
L 366.653246 188.089578 
L 368.168138 166.364753 
L 369.304306 152.805467 
L 370.440475 141.511379 
L 371.576643 132.381159 
L 372.712812 125.291127 
L 373.470257 121.628889 
L 374.227703 118.766087 
L 374.985149 116.65588 
L 375.742594 115.250085 
L 376.50004 114.499664 
L 376.878763 114.354769 
L 377.257486 114.355163 
L 377.636209 114.494662 
L 378.393654 115.16637 
L 379.1511 116.321035 
L 379.908546 117.910586 
L 381.044714 121.007767 
L 382.180883 124.824618 
L 383.695774 130.78267 
L 385.589388 139.179884 
L 392.406399 170.541213 
L 394.300013 177.876308 
L 395.814905 182.942784 
L 397.329796 187.189159 
L 398.465965 189.788732 
L 399.602133 191.85808 
L 400.738302 193.377734 
L 401.495747 194.078342 
L 402.253193 194.525519 
L 403.010639 194.717483 
L 403.768084 194.653474 
L 404.52553 194.333745 
L 405.282976 193.759566 
L 406.040421 192.933232 
L 407.17659 191.228529 
L 408.312758 188.979997 
L 409.448927 186.208998 
L 410.963818 181.749597 
L 412.478709 176.492533 
L 414.372324 168.959212 
L 416.644661 158.851093 
L 423.082949 129.215461 
L 424.59784 123.481532 
L 425.734009 119.887986 
L 426.870177 117.064416 
L 427.627623 115.686358 
L 428.385069 114.767108 
L 429.142514 114.355163 
L 429.521237 114.354769 
L 429.89996 114.499664 
L 430.278683 114.796039 
L 431.036128 115.867981 
L 431.793574 117.619896 
L 432.55102 120.100449 
L 433.308465 123.357217 
L 434.065911 127.436178 
L 435.20208 135.191369 
L 436.338248 145.03013 
L 437.474417 157.069285 
L 438.610585 171.401496 
L 439.746754 188.089578 
L 441.261645 214.045901 
L 442.776536 244.179503 
L 444.67015 287.382169 
L 446.563765 335.955008 
L 449.214824 410.387868 
L 453.759498 540.006108 
L 455.653113 587.170173 
L 457.168004 618.735872 
L 458.304172 637.689973 
L 459.061618 647.692819 
L 459.819064 655.365326 
L 460.576509 660.532226 
L 460.955232 662.126343 
L 461.333955 663.037068 
L 461.712678 663.248416 
L 462.091401 662.746057 
L 462.470124 661.517437 
L 462.848846 659.551898 
L 463.606292 653.3776 
L 464.363738 644.180134 
L 465.121183 631.953888 
L 465.878629 616.733806 
L 467.014798 588.473803 
L 468.150966 554.122355 
L 469.665857 500.088064 
L 471.559472 422.719211 
L 476.104146 230.584373 
L 477.619037 178.836924 
L 478.755206 148.439062 
L 479.512651 133.062351 
L 480.270097 122.068721 
L 480.64882 118.322623 
L 481.027543 115.791692 
L 481.406265 114.505665 
L 481.784988 114.488862 
L 482.163711 115.759877 
L 482.542434 118.33129 
L 482.921157 122.209403 
L 483.678602 133.878132 
L 484.436048 150.682531 
L 485.193494 172.426457 
L 486.329662 213.590587 
L 487.465831 263.603059 
L 488.980722 340.357363 
L 492.76795 540.645728 
L 493.904119 589.808269 
L 495.040287 628.269846 
L 495.797733 646.638089 
L 496.555179 658.433735 
L 496.933902 661.711199 
L 497.312624 663.179966 
L 497.691347 662.808092 
L 498.07007 660.575833 
L 498.448793 656.476128 
L 498.827516 650.515004 
L 499.584961 633.099871 
L 500.342407 608.65016 
L 501.099853 577.705297 
L 502.236021 520.816465 
L 503.750913 430.925998 
L 506.780695 243.674772 
L 507.916864 186.395697 
L 508.674309 156.028952 
L 509.431755 133.310563 
L 510.189201 119.187657 
L 510.567924 115.572776 
L 510.946646 114.3374 
L 511.325369 115.517697 
L 511.704092 119.128669 
L 512.082815 125.163488 
L 512.840261 144.365593 
L 513.597706 172.620035 
L 514.355152 209.065124 
L 515.49132 276.371682 
L 517.384935 408.306319 
L 519.278549 537.499474 
L 520.414717 599.878961 
L 521.172163 631.152735 
L 521.929609 652.392278 
L 522.308332 658.887207 
L 522.687054 662.493562 
L 523.065777 663.14455 
L 523.4445 660.804909 
L 523.823223 655.472008 
L 524.201946 647.176597 
L 524.959391 621.990078 
L 525.716837 586.163974 
L 526.853006 515.749463 
L 528.367897 401.80062 
L 530.261511 256.76409 
L 531.39768 185.269838 
L 532.155125 149.45373 
L 532.912571 125.493714 
L 533.291294 118.431813 
L 533.670017 114.822384 
L 534.048739 114.742329 
L 534.427462 118.223448 
L 534.806185 125.251098 
L 535.184908 135.763447 
L 535.942354 166.758872 
L 536.699799 209.782802 
L 537.835968 292.061352 
L 541.623196 591.155922 
L 542.380642 629.669755 
L 543.138087 654.260554 
L 543.51681 660.774031 
L 543.895533 663.241768 
L 544.274256 661.593881 
L 544.652979 655.82205 
L 545.031702 645.980812 
L 545.789147 614.623602 
L 546.546593 569.203908 
L 547.682761 480.629344 
L 551.091267 190.984183 
L 551.848713 148.947071 
L 552.606158 122.734875 
L 552.984881 116.236216 
L 553.363604 114.360138 
L 553.742327 117.17382 
L 554.12105 124.664307 
L 554.499772 136.737317 
L 555.257218 173.849904 
L 556.014664 226.175247 
L 557.150832 325.327863 
L 559.423169 538.559155 
L 560.180615 594.993816 
L 560.938061 636.3334 
L 561.316783 650.253354 
L 561.695506 659.24895 
L 562.074229 663.11329 
L 562.452952 661.73558 
L 562.831675 655.104886 
L 563.210398 643.312019 
L 563.967843 605.109236 
L 564.725289 549.835222 
L 565.861458 444.252201 
L 568.133795 222.128025 
L 568.89124 167.057332 
L 569.648686 130.129599 
L 570.027409 119.577827 
L 570.406132 114.683646 
L 570.784854 115.589364 
L 571.163577 122.315039 
L 571.5423 134.756106 
L 572.299746 175.747472 
L 573.057191 235.313266 
L 574.19336 348.298978 
L 576.086974 543.940032 
L 576.84442 604.233862 
L 577.601865 645.177413 
L 577.980588 657.061905 
L 578.359311 662.759595 
L 578.738034 662.097736 
L 579.116757 655.05062 
L 579.49548 641.742409 
L 580.252925 597.581098 
L 581.010371 533.489791 
L 582.146539 413.234028 
L 583.661431 248.400144 
L 584.418876 182.235585 
L 585.176322 136.261684 
L 585.555045 122.449586 
L 585.933768 115.321878 
L 586.312491 115.100593 
L 586.691213 121.834205 
L 587.069936 135.393864 
L 587.448659 155.474135 
L 588.206105 213.128469 
L 589.342273 331.682592 
L 591.235887 544.94476 
L 591.993333 609.374265 
L 592.750779 650.361805 
L 593.129502 660.478917 
L 593.508224 663.189884 
L 593.886947 658.376087 
L 594.26567 646.125408 
L 594.644393 626.732667 
L 595.401839 568.697211 
L 596.159284 490.422069 
L 598.810344 190.895213 
L 599.56779 138.644082 
L 599.946513 123.062048 
L 600.325235 115.243261 
L 600.703958 115.462678 
L 601.082681 123.760001 
L 601.461404 139.93533 
L 602.21885 193.946083 
L 602.976295 271.386108 
L 605.627355 582.629133 
L 606.384801 637.892179 
L 606.763524 654.303982 
L 607.142246 662.412717 
L 607.520969 661.916663 
L 607.899692 652.783738 
L 608.278415 635.256028 
L 609.035861 577.321635 
L 609.793306 495.15845 
L 612.444366 179.052345 
L 613.201812 129.666254 
L 613.580535 117.531157 
L 613.959258 114.466596 
L 614.33798 120.624482 
L 614.716703 135.846401 
L 615.095426 159.66509 
L 615.852872 229.762131 
L 616.98904 372.101635 
L 618.503932 562.794454 
L 619.261377 628.548405 
L 619.6401 649.325778 
L 620.018823 660.898513 
L 620.397546 662.806484 
L 620.776269 654.931097 
L 621.154991 637.503726 
L 621.533714 611.101649 
L 622.29116 535.299762 
L 623.427328 385.794576 
L 624.563497 236.573999 
L 625.320943 161.747137 
L 625.699665 136.31782 
L 626.078388 120.307653 
L 626.457111 114.36668 
L 626.835834 118.770197 
L 627.214557 133.403858 
L 627.59328 157.763397 
L 628.350725 231.795892 
L 629.486894 383.542656 
L 630.623062 537.751159 
L 631.380508 615.278341 
L 631.759231 641.450026 
L 632.137954 657.675539 
L 632.516676 663.261924 
L 632.895399 657.934274 
L 633.274122 641.851559 
L 633.652845 615.605267 
L 634.410291 537.0205 
L 635.546459 379.144189 
L 636.682628 224.05056 
L 637.440073 150.555792 
L 637.818796 127.87234 
L 638.197519 116.021121 
L 638.576242 115.549627 
L 638.954965 126.532346 
L 639.333687 148.562299 
L 640.091133 221.819414 
L 641.227302 379.603024 
L 642.36347 541.493457 
L 643.120916 620.825271 
L 643.499639 646.208852 
L 643.878361 660.38672 
L 644.257084 662.684775 
L 644.635807 652.946219 
L 645.01453 631.544179 
L 645.771976 557.804247 
L 646.908144 396.482364 
L 648.044313 231.493728 
L 648.801758 152.444894 
L 649.180481 128.197939 
L 649.559204 115.841199 
L 649.937927 115.996609 
L 650.31665 128.714358 
L 650.695372 153.464424 
L 651.452818 234.176959 
L 652.588987 402.997456 
L 653.725155 566.645676 
L 654.482601 638.417677 
L 654.861324 657.248723 
L 655.240047 663.250038 
L 655.618769 656.075739 
L 655.997492 636.012556 
L 656.376215 603.972596 
L 657.133661 510.482284 
L 659.405998 178.359601 
L 659.784721 144.562115 
L 660.163443 122.873655 
L 660.542166 114.430435 
L 660.920889 119.713441 
L 661.299612 138.517509 
L 661.678335 169.954611 
L 662.43578 264.022132 
L 664.708117 601.874736 
L 665.08684 635.457727 
L 665.465563 656.299619 
L 665.844286 663.261675 
L 666.223009 655.921109 
L 666.601732 634.600441 
L 666.980454 600.35807 
L 667.7379 500.694277 
L 669.631514 204.477338 
L 670.38896 132.876378 
L 670.767683 116.899619 
L 671.146406 115.613504 
L 671.525128 129.14973 
L 671.903851 156.833988 
L 672.661297 248.135565 
L 674.933634 599.658818 
L 675.312357 634.998197 
L 675.69108 656.60969 
L 676.069802 663.223678 
L 676.448525 654.405951 
L 676.827248 630.590336 
L 677.205971 593.062535 
L 677.963417 485.838312 
L 679.857031 184.530489 
L 680.235754 146.66284 
L 680.614476 122.785485 
L 680.993199 114.343823 
L 681.371922 121.892767 
L 681.750645 145.055795 
L 682.129368 182.538178 
L 682.886813 291.146779 
L 684.780428 596.523712 
L 685.15915 633.886451 
L 685.537873 656.579392 
L 685.916596 663.17732 
L 686.295319 653.217634 
L 686.674042 627.237382 
L 687.052765 586.749975 
L 687.81021 472.635156 
L 689.325102 215.396365 
L 690.082547 134.719431 
L 690.46127 116.937463 
L 690.839993 116.075974 
L 691.218716 132.25511 
L 691.597439 164.527838 
L 692.354884 268.593226 
L 694.248498 587.613236 
L 694.627221 628.738053 
L 695.005944 654.527017 
L 695.384667 663.262555 
L 695.76339 654.315713 
L 696.142113 628.196692 
L 696.520835 586.532049 
L 697.278281 468.012248 
L 698.41445 262.745506 
L 698.41445 262.745506 
" style="fill:none;stroke:#0000ff;stroke-linecap:square;stroke-width:2;"/>
   </g>
   <g id="line2d_34">
    <path clip-path="url(#pfa0545ba71)" d="M 107.98555 632.603402 
L 108.364273 656.635574 
L 108.742996 663.08049 
L 109.121719 651.583663 
L 109.500442 622.963323 
L 110.257887 523.035085 
L 112.151502 199.582847 
L 112.530224 155.790408 
L 112.908947 126.901513 
L 113.28767 114.694827 
L 113.666393 119.879699 
L 114.045116 142.060936 
L 114.423839 179.773719 
L 115.181284 291.257428 
L 116.696176 552.165545 
L 117.453621 637.725236 
L 117.832344 658.525485 
L 118.211067 662.72969 
L 118.58979 650.145558 
L 118.968513 621.608266 
L 119.725958 524.731781 
L 121.998295 164.365925 
L 122.377018 132.77012 
L 122.755741 116.449115 
L 123.134464 116.310347 
L 123.513187 132.297208 
L 123.891909 163.401401 
L 124.649355 262.63108 
L 126.542969 572.113395 
L 126.921692 615.541072 
L 127.300415 645.851109 
L 127.679138 661.355724 
L 128.057861 661.227 
L 128.436583 645.536051 
L 128.815306 615.240418 
L 129.572752 518.674045 
L 131.845089 168.587408 
L 132.223812 136.366985 
L 132.602535 118.179458 
L 132.981257 114.971792 
L 133.35998 126.858545 
L 133.738703 153.123631 
L 134.496149 242.09757 
L 136.768486 592.159264 
L 137.147209 629.079296 
L 137.525931 653.110004 
L 137.904654 663.025429 
L 138.283377 658.358487 
L 138.6621 639.418245 
L 139.040823 607.265907 
L 139.798268 510.914607 
L 142.070605 172.179758 
L 142.449328 139.77259 
L 142.828051 120.193838 
L 143.206774 114.390328 
L 143.585497 122.598754 
L 143.96422 144.340765 
L 144.342942 178.454481 
L 145.100388 276.156719 
L 146.994002 564.994985 
L 147.751448 638.498295 
L 148.130171 657.47547 
L 148.508894 663.226384 
L 148.887616 655.527666 
L 149.266339 634.814747 
L 149.645062 602.153848 
L 150.402508 508.029973 
L 152.674845 179.752757 
L 153.053568 146.229468 
L 153.432291 124.218325 
L 153.811013 114.70464 
L 154.189736 118.079007 
L 154.568459 134.125227 
L 154.947182 162.036799 
L 155.704628 247.566148 
L 158.355687 613.710139 
L 158.73441 641.892182 
L 159.113133 658.607048 
L 159.491856 663.155272 
L 159.870579 655.388907 
L 160.249302 635.712224 
L 160.628024 605.057714 
L 161.38547 516.882387 
L 163.657807 197.276458 
L 164.415253 134.100917 
L 164.793976 118.480733 
L 165.172698 114.491324 
L 165.551421 122.248522 
L 165.930144 141.365734 
L 166.308867 170.975948 
L 167.066313 256.075922 
L 169.717372 608.316414 
L 170.096095 637.04838 
L 170.474818 655.543035 
L 170.853541 663.092908 
L 171.232264 659.442982 
L 171.610987 644.795977 
L 171.989709 619.798955 
L 172.747155 543.36133 
L 173.883324 388.102743 
L 175.019492 233.760021 
L 175.776938 158.271507 
L 176.155661 133.482458 
L 176.534383 118.679387 
L 176.913106 114.387547 
L 177.291829 120.720783 
L 177.670552 137.381889 
L 178.049275 163.678824 
L 178.80672 240.63819 
L 179.942889 392.823274 
L 181.079057 542.997378 
L 181.836503 617.179243 
L 182.215226 642.099941 
L 182.593949 657.630125 
L 182.972672 663.246355 
L 183.351394 658.79338 
L 183.730117 644.485444 
L 184.10884 620.894063 
L 184.866286 549.77146 
L 186.002454 404.620266 
L 187.517346 212.733187 
L 188.274791 147.840086 
L 188.653514 127.606662 
L 189.032237 116.496055 
L 189.41096 114.845627 
L 189.789683 122.662603 
L 190.168405 139.62787 
L 190.547128 165.110952 
L 191.304574 237.713842 
L 192.440742 380.372811 
L 193.576911 524.829916 
L 194.334357 600.875977 
L 195.091802 648.937248 
L 195.470525 660.445334 
L 195.849248 663.071198 
L 196.227971 656.777695 
L 196.606694 641.817221 
L 196.985416 618.719879 
L 197.742862 551.491956 
L 198.879031 415.949999 
L 200.393922 231.53035 
L 201.151368 163.519234 
L 201.530091 139.568827 
L 201.908813 123.326775 
L 202.287536 115.2477 
L 202.666259 115.532507 
L 203.044982 124.125565 
L 203.423705 140.719747 
L 204.18115 195.508031 
L 204.938596 273.058003 
L 207.589656 578.967109 
L 208.347102 634.093488 
L 208.725824 651.353864 
L 209.104547 661.072196 
L 209.48327 663.015287 
L 209.861993 657.173184 
L 210.240716 643.756446 
L 210.619439 623.187204 
L 211.376884 563.243813 
L 212.513053 440.361297 
L 214.406667 225.469576 
L 215.164113 163.081928 
L 215.542835 140.661623 
L 215.921558 124.89469 
L 216.300281 116.15952 
L 216.679004 114.644606 
L 217.057727 120.346213 
L 217.43645 133.071185 
L 217.815172 152.444663 
L 218.572618 208.807478 
L 219.708787 325.088946 
L 221.602401 534.767232 
L 222.359846 599.718724 
L 223.117292 643.68847 
L 223.496015 656.450919 
L 223.874738 662.648969 
L 224.253461 662.173028 
L 224.632183 655.076653 
L 225.010906 641.572875 
L 225.768352 596.944165 
L 226.525798 532.810984 
L 228.040689 372.187517 
L 229.176857 253.188529 
L 229.934303 188.258332 
L 230.691749 141.697526 
L 231.070472 126.612677 
L 231.449194 117.437242 
L 231.827917 114.337328 
L 232.20664 117.341898 
L 232.585363 126.344216 
L 232.964086 141.106293 
L 233.721531 186.347637 
L 234.478977 248.875346 
L 235.993868 402.58618 
L 237.50876 550.540605 
L 238.266205 606.860282 
L 239.023651 645.089633 
L 239.402374 656.46039 
L 239.781097 662.371953 
L 240.15982 662.742438 
L 240.538542 657.602693 
L 240.917265 647.093871 
L 241.295988 631.462823 
L 242.053434 586.308296 
L 242.810879 525.93144 
L 244.325771 379.741693 
L 245.840662 237.489113 
L 246.598108 181.267544 
L 247.355554 140.625061 
L 247.734276 127.059092 
L 248.112999 118.312628 
L 248.491722 114.509973 
L 248.870445 115.68404 
L 249.249168 121.777301 
L 249.627891 132.644353 
L 250.385336 167.704944 
L 251.142782 218.135738 
L 252.27895 314.220046 
L 254.93001 552.034474 
L 255.687456 602.867172 
L 256.444902 639.421328 
L 256.823624 651.627149 
L 257.202347 659.540226 
L 257.58107 663.065908 
L 257.959793 662.181513 
L 258.338516 656.935406 
L 258.717239 647.444941 
L 259.474684 616.525634 
L 260.23213 571.599952 
L 261.368298 484.653347 
L 264.398081 229.099076 
L 265.155527 180.412393 
L 265.912972 143.948625 
L 266.670418 121.583061 
L 267.049141 116.042523 
L 267.427864 114.343717 
L 267.806587 116.478485 
L 268.185309 122.385247 
L 268.564032 131.950885 
L 269.321478 161.364683 
L 270.078924 202.896933 
L 271.215092 282.487552 
L 275.00232 572.933938 
L 275.759766 613.334886 
L 276.517212 642.510645 
L 276.895935 652.484188 
L 277.274657 659.244402 
L 277.65338 662.738737 
L 278.032103 662.954734 
L 278.410826 659.919344 
L 278.789549 653.697793 
L 279.168272 644.391997 
L 279.925717 617.10657 
L 280.683163 579.52833 
L 281.819331 508.090837 
L 283.712946 368.265444 
L 285.227837 259.978472 
L 286.364005 192.802086 
L 287.121451 158.10908 
L 287.878897 133.009933 
L 288.25762 124.332921 
L 288.636342 118.32884 
L 289.015065 115.031233 
L 289.393788 114.446043 
L 289.772511 116.552168 
L 290.151234 121.302294 
L 290.529957 128.623965 
L 291.287402 150.574353 
L 292.044848 181.374813 
L 293.181017 241.195634 
L 294.695908 337.739181 
L 297.346968 512.212605 
L 298.483136 574.170797 
L 299.240582 607.705176 
L 299.998028 633.864101 
L 300.755473 651.962407 
L 301.134196 657.852523 
L 301.512919 661.599629 
L 301.891642 663.197983 
L 302.270365 662.658992 
L 302.649087 660.010683 
L 303.02781 655.297057 
L 303.785256 639.925078 
L 304.542702 617.183297 
L 305.300147 587.909575 
L 306.436316 533.973781 
L 307.951207 449.457438 
L 311.359713 254.695462 
L 312.495881 201.91632 
L 313.63205 160.167743 
L 314.389495 139.423572 
L 315.146941 124.78645 
L 315.525664 119.824015 
L 315.904387 116.447499 
L 316.283109 114.656119 
L 316.661832 114.439694 
L 317.040555 115.778984 
L 317.419278 118.646072 
L 317.798001 123.004788 
L 318.555446 136.013962 
L 319.312892 154.370382 
L 320.070338 177.538324 
L 321.206506 219.944074 
L 322.721398 287.091223 
L 328.023517 536.783085 
L 329.159686 578.760424 
L 330.295854 613.071374 
L 331.0533 631.220517 
L 331.810746 645.376569 
L 332.568191 655.441501 
L 333.325637 661.389078 
L 333.70436 662.829224 
L 334.083083 663.260444 
L 334.461805 662.697538 
L 334.840528 661.15881 
L 335.219251 658.66587 
L 335.976697 650.919059 
L 336.734143 639.688025 
L 337.491588 625.242766 
L 338.627757 598.2158 
L 339.763925 565.759256 
L 341.278817 516.102871 
L 343.929876 419.70362 
L 346.959659 310.415366 
L 348.853273 249.945259 
L 350.368165 208.410693 
L 351.504333 181.927188 
L 352.640502 159.744227 
L 353.77667 141.99926 
L 354.534116 132.652319 
L 355.291561 125.275132 
L 356.049007 119.833519 
L 356.806453 116.277659 
L 357.185176 115.187504 
L 357.563898 114.543972 
L 357.942621 114.337271 
L 358.321344 114.55698 
L 358.700067 115.192107 
L 359.07879 116.231141 
L 359.836235 119.472614 
L 360.593681 124.180961 
L 361.351127 130.250749 
L 362.487295 141.669254 
L 363.623464 155.530315 
L 365.138355 177.161537 
L 367.031969 208.045591 
L 369.683029 255.658173 
L 375.742594 366.433102 
L 378.393654 410.11831 
L 380.665991 443.719601 
L 382.559606 468.722272 
L 384.45322 490.921486 
L 386.346834 510.34457 
L 387.861725 523.946739 
L 389.376617 535.903014 
L 390.891508 546.295496 
L 392.406399 555.211946 
L 393.921291 562.740719 
L 395.436182 568.966492 
L 396.57235 572.827687 
L 397.708519 576.028808 
L 398.844687 578.59519 
L 399.980856 580.547975 
L 400.738302 581.517337 
L 401.495747 582.225205 
L 402.253193 582.674341 
L 403.010639 582.866511 
L 403.768084 582.802475 
L 404.52553 582.48198 
L 405.282976 581.903762 
L 406.040421 581.065554 
L 406.797867 579.964103 
L 407.934035 577.808861 
L 409.070204 575.033463 
L 410.206372 571.615327 
L 411.342541 567.527816 
L 412.478709 562.740719 
L 413.993601 555.211946 
L 415.508492 546.295496 
L 417.023383 535.903014 
L 418.538275 523.946739 
L 420.053166 510.34457 
L 421.568057 495.025961 
L 423.461672 473.386702 
L 425.355286 448.942779 
L 427.2489 421.740059 
L 429.521237 385.693672 
L 432.172297 339.69277 
L 436.716971 255.658173 
L 439.746754 201.596473 
L 441.640368 171.457532 
L 443.155259 150.661869 
L 444.291428 137.573055 
L 445.427596 127.052418 
L 446.185042 121.649919 
L 446.942487 117.662105 
L 447.699933 115.192107 
L 448.078656 114.55698 
L 448.457379 114.337271 
L 448.836102 114.543972 
L 449.214824 115.187504 
L 449.593547 116.277659 
L 450.350993 119.833519 
L 451.108439 125.275132 
L 451.865884 132.652319 
L 452.62333 141.99926 
L 453.759498 159.744227 
L 454.895667 181.927188 
L 456.031835 208.410693 
L 457.546727 249.945259 
L 459.061618 297.671835 
L 461.333955 377.670561 
L 465.878629 541.692166 
L 467.39352 587.942436 
L 468.529689 616.908116 
L 469.665857 639.688025 
L 470.423303 650.919059 
L 471.180749 658.66587 
L 471.559472 661.15881 
L 471.938195 662.697538 
L 472.316917 663.260444 
L 472.69564 662.829224 
L 473.074363 661.389078 
L 473.453086 658.928908 
L 473.831809 655.441501 
L 474.589254 645.376569 
L 475.3467 631.220517 
L 476.104146 613.071374 
L 477.240314 578.760424 
L 478.376483 536.783085 
L 479.891374 471.189673 
L 482.542434 342.146911 
L 484.814771 235.777302 
L 485.950939 190.736415 
L 487.087108 154.370382 
L 487.844554 136.013962 
L 488.601999 123.004788 
L 488.980722 118.646072 
L 489.359445 115.778984 
L 489.738168 114.439694 
L 490.116891 114.656119 
L 490.495613 116.447499 
L 490.874336 119.824015 
L 491.253059 124.78645 
L 492.010505 139.423572 
L 492.76795 160.167743 
L 493.525396 186.665232 
L 494.661565 236.025411 
L 496.176456 315.85241 
L 500.72113 571.130409 
L 501.857298 617.183297 
L 502.614744 639.925078 
L 503.37219 655.297057 
L 503.750913 660.010683 
L 504.129635 662.658992 
L 504.508358 663.197983 
L 504.887081 661.599629 
L 505.265804 657.852523 
L 505.644527 651.962407 
L 506.401972 633.864101 
L 507.159418 607.705176 
L 507.916864 574.170797 
L 509.053032 512.212605 
L 510.567924 414.813811 
L 513.218983 241.195634 
L 514.355152 181.374813 
L 515.112598 150.574353 
L 515.870043 128.623965 
L 516.248766 121.302294 
L 516.627489 116.552168 
L 517.006212 114.446043 
L 517.384935 115.031233 
L 517.763658 118.32884 
L 518.14238 124.332921 
L 518.521103 133.009933 
L 519.278549 158.10908 
L 520.035995 192.802086 
L 521.172163 259.978472 
L 522.687054 368.265444 
L 524.959391 533.548822 
L 526.09556 599.49466 
L 526.853006 632.138587 
L 527.610451 653.697793 
L 527.989174 659.919344 
L 528.367897 662.954734 
L 528.74662 662.738737 
L 529.125343 659.244402 
L 529.504065 652.484188 
L 529.882788 642.510645 
L 530.640234 613.334886 
L 531.39768 572.933938 
L 532.533848 495.408379 
L 534.806185 312.172262 
L 535.942354 227.469372 
L 536.699799 180.755109 
L 537.457245 145.013315 
L 538.214691 122.385247 
L 538.593413 116.478485 
L 538.972136 114.343717 
L 539.350859 116.042523 
L 539.729582 121.583061 
L 540.108305 130.9189 
L 540.86575 160.516243 
L 541.623196 203.37639 
L 542.759365 287.364167 
L 546.546593 595.643574 
L 547.304039 633.89335 
L 547.682761 647.444941 
L 548.061484 656.935406 
L 548.440207 662.181513 
L 548.81893 663.065908 
L 549.197653 659.540226 
L 549.576376 651.627149 
L 549.955098 639.421328 
L 550.712544 602.867172 
L 551.46999 552.034474 
L 552.606158 456.17346 
L 555.257218 218.135738 
L 556.014664 167.704944 
L 556.772109 132.644353 
L 557.150832 121.777301 
L 557.529555 115.68404 
L 557.908278 114.509973 
L 558.287001 118.312628 
L 558.665724 127.059092 
L 559.044446 140.625061 
L 559.801892 181.267544 
L 560.559338 237.489113 
L 561.695506 342.032494 
L 563.967843 557.738299 
L 564.725289 611.055464 
L 565.482735 647.093871 
L 565.861458 657.602693 
L 566.24018 662.742438 
L 566.618903 662.371953 
L 566.997626 656.46039 
L 567.376349 645.089633 
L 567.755072 628.454447 
L 568.512517 580.718722 
L 569.269963 516.92692 
L 570.784854 362.612549 
L 572.299746 215.772678 
L 573.057191 161.266142 
L 573.814637 126.344216 
L 574.19336 117.341898 
L 574.572083 114.337328 
L 574.950806 117.437242 
L 575.329528 126.612677 
L 575.708251 141.697526 
L 576.465697 188.258332 
L 577.223143 253.188529 
L 578.738034 414.062253 
L 579.874202 532.810984 
L 580.631648 596.944165 
L 581.389094 641.572875 
L 581.767817 655.076653 
L 582.146539 662.173028 
L 582.525262 662.648969 
L 582.903985 656.450919 
L 583.282708 643.68847 
L 583.661431 624.634082 
L 584.418876 569.523481 
L 585.176322 496.290618 
L 588.206105 177.922436 
L 588.96355 133.071185 
L 589.342273 120.346213 
L 589.720996 114.644606 
L 590.099719 116.15952 
L 590.478442 124.89469 
L 590.857165 140.661623 
L 591.61461 191.594797 
L 592.372056 263.823177 
L 595.401839 596.084413 
L 596.159284 643.756446 
L 596.538007 657.173184 
L 596.91673 663.015287 
L 597.295453 661.072196 
L 597.674176 651.353864 
L 598.052898 634.093488 
L 598.810344 578.967109 
L 599.56779 501.724092 
L 602.21885 195.508031 
L 602.976295 140.719747 
L 603.355018 124.125565 
L 603.733741 115.532507 
L 604.112464 115.2477 
L 604.491187 123.326775 
L 604.869909 139.568827 
L 605.627355 194.480415 
L 606.384801 273.548447 
L 609.035861 588.272874 
L 609.793306 641.817221 
L 610.172029 656.777695 
L 610.550752 663.071198 
L 610.929475 660.445334 
L 611.308198 648.937248 
L 611.686921 628.876111 
L 612.444366 565.819082 
L 613.201812 479.240787 
L 615.474149 198.195448 
L 616.231595 139.62787 
L 616.610317 122.662603 
L 616.98904 114.845627 
L 617.367763 116.496055 
L 617.746486 127.606662 
L 618.125209 147.840086 
L 618.882654 212.733187 
L 619.6401 302.45098 
L 621.533714 549.77146 
L 622.29116 620.894063 
L 622.669883 644.485444 
L 623.048606 658.79338 
L 623.427328 663.246355 
L 623.806051 657.630125 
L 624.184774 642.099941 
L 624.563497 617.179243 
L 625.320943 542.997378 
L 626.457111 392.823274 
L 627.59328 240.63819 
L 628.350725 163.678824 
L 628.729448 137.381889 
L 629.108171 120.720783 
L 629.486894 114.387547 
L 629.865617 118.679387 
L 630.244339 133.482458 
L 630.623062 158.271507 
L 631.380508 233.760021 
L 632.516676 388.102743 
L 633.652845 543.36133 
L 634.410291 619.798955 
L 634.789013 644.795977 
L 635.167736 659.442982 
L 635.546459 663.092908 
L 635.925182 655.543035 
L 636.303905 637.04838 
L 636.682628 608.316414 
L 637.440073 525.070068 
L 640.091133 170.975948 
L 640.469856 141.365734 
L 640.848579 122.248522 
L 641.227302 114.491324 
L 641.606024 118.480733 
L 641.984747 134.100917 
L 642.36347 160.733031 
L 643.120916 242.19131 
L 644.257084 406.603486 
L 645.393253 564.838893 
L 646.150698 635.712224 
L 646.529421 655.388907 
L 646.908144 663.155272 
L 647.286867 658.607048 
L 647.66559 641.892182 
L 648.044313 613.710139 
L 648.801758 528.320959 
L 651.452818 162.036799 
L 651.831541 134.125227 
L 652.210264 118.079007 
L 652.588987 114.70464 
L 652.967709 124.218325 
L 653.346432 146.229468 
L 653.725155 179.752757 
L 654.482601 274.691064 
L 656.754938 602.153848 
L 657.133661 634.814747 
L 657.512384 655.527666 
L 657.891106 663.226384 
L 658.269829 657.47547 
L 658.648552 638.498295 
L 659.027275 607.172839 
L 659.784721 514.01058 
L 662.057058 178.454481 
L 662.43578 144.340765 
L 662.814503 122.598754 
L 663.193226 114.390328 
L 663.571949 120.193838 
L 663.950672 139.77259 
L 664.329395 172.179758 
L 665.08684 268.426415 
L 667.359177 607.265907 
L 667.7379 639.418245 
L 668.116623 658.358487 
L 668.495346 663.025429 
L 668.874069 653.110004 
L 669.252791 629.079296 
L 669.631514 592.159264 
L 670.38896 487.96115 
L 672.282574 192.267662 
L 672.661297 153.123631 
L 673.04002 126.858545 
L 673.418743 114.971792 
L 673.797465 118.179458 
L 674.176188 136.366985 
L 674.554911 168.587408 
L 675.312357 267.489317 
L 677.205971 572.121168 
L 677.584694 615.240418 
L 677.963417 645.536051 
L 678.342139 661.227 
L 678.720862 661.355724 
L 679.099585 645.851109 
L 679.478308 615.541072 
L 680.235754 518.026273 
L 682.508091 163.401401 
L 682.886813 132.297208 
L 683.265536 116.310347 
L 683.644259 116.449115 
L 684.022982 132.77012 
L 684.401705 164.365925 
L 685.15915 265.258649 
L 687.052765 578.920072 
L 687.431487 621.608266 
L 687.81021 650.145558 
L 688.188933 662.72969 
L 688.567656 658.525485 
L 688.946379 637.725236 
L 689.325102 601.546359 
L 690.082547 492.592574 
L 691.976161 179.773719 
L 692.354884 142.060936 
L 692.733607 119.879699 
L 693.11233 114.694827 
L 693.491053 126.901513 
L 693.869776 155.790408 
L 694.627221 255.534983 
L 696.520835 579.146713 
L 696.899558 622.963323 
L 697.278281 651.583663 
L 697.657004 663.08049 
L 698.035727 656.635574 
L 698.41445 632.603402 
L 698.41445 632.603402 
" style="fill:none;stroke:#ff0000;stroke-linecap:square;stroke-width:2;"/>
   </g>
   <g id="patch_3">
    <path d="M 108 720.9 
L 108 56.7 
" style="fill:none;stroke:#000000;stroke-linecap:square;stroke-linejoin:miter;stroke-width:0.8;"/>
   </g>
   <g id="patch_4">
    <path d="M 698.4 720.9 
L 698.4 56.7 
" style="fill:none;stroke:#000000;stroke-linecap:square;stroke-linejoin:miter;stroke-width:0.8;"/>
   </g>
   <g id="patch_5">
    <path d="M 108 720.9 
L 698.4 720.9 
" style="fill:none;stroke:#000000;stroke-linecap:square;stroke-linejoin:miter;stroke-width:0.8;"/>
   </g>
   <g id="patch_6">
    <path d="M 108 56.7 
L 698.4 56.7 
" style="fill:none;stroke:#000000;stroke-linecap:square;stroke-linejoin:miter;stroke-width:0.8;"/>
   </g>
   <g id="legend_1">
    <g id="patch_7">
     <path d="M 361.835033 710.9 
L 444.564967 710.9 
Q 448.564967 710.9 448.564967 706.9 
L 448.564967 650.471241 
Q 448.564967 646.471241 444.564967 646.471241 
L 361.835033 646.471241 
Q 357.835033 646.471241 357.835033 650.471241 
L 357.835033 706.9 
Q 357.835033 710.9 361.835033 710.9 
z
" style="fill:#ffffff;opacity:0.8;stroke:#cccccc;stroke-linejoin:miter;"/>
    </g>
    <g id="line2d_35">
     <path d="M 365.835033 662.668116 
L 405.835033 662.668116 
" style="fill:none;stroke:#0000ff;stroke-linecap:square;stroke-width:2;"/>
    </g>
    <g id="line2d_36"/>
    <g id="text_19">
     <!-- $P_r$ -->
     <g transform="translate(421.835033 669.668116)scale(0.2 -0.2)">
      <defs>
       <path d="M 29.59375 31.609375 
L 46.40625 31.609375 
C 60.203125 31.609375 74 41.765625 74 53.140625 
C 74 60.90625 67.40625 68 54.796875 68 
L 23.90625 68 
C 22 68 21.09375 68 21.09375 66.109375 
C 21.09375 65.109375 22 65.109375 23.5 65.109375 
C 29.59375 65.109375 29.59375 64.3125 29.59375 63.21875 
C 29.59375 63.03125 29.59375 62.421875 29.203125 60.921875 
L 15.703125 7.375 
C 14.796875 3.890625 14.59375 2.890625 7.59375 2.890625 
C 5.703125 2.890625 4.703125 2.890625 4.703125 1.09375 
C 4.703125 0 5.59375 0 6.203125 0 
C 8.09375 0 10.09375 0 12 0 
L 23.703125 0 
C 25.59375 0 27.703125 0 29.59375 0 
C 30.40625 0 31.5 0 31.5 1.890625 
C 31.5 2.890625 30.59375 2.890625 29.09375 2.890625 
C 23.09375 2.890625 23 3.59375 23 4.578125 
C 23 5.078125 23.09375 5.765625 23.203125 6.265625 
z
M 36.796875 61.40625 
C 37.703125 65.109375 38.09375 65.109375 42 65.109375 
L 51.90625 65.109375 
C 59.40625 65.109375 65.59375 62.703125 65.59375 55.234375 
C 65.59375 52.640625 64.296875 44.171875 59.703125 39.59375 
C 58 37.796875 53.203125 34 44.09375 34 
L 30 34 
z
" id="CMMI12-80"/>
       <path d="M 38.90625 40.8125 
C 35.796875 40.21875 34.203125 38.015625 34.203125 35.828125 
C 34.203125 33.421875 36.09375 32.625 37.5 32.625 
C 40.296875 32.625 42.59375 35.03125 42.59375 38.015625 
C 42.59375 41.21875 39.5 44 34.5 44 
C 30.5 44 25.90625 42.203125 21.703125 36.125 
C 21 41.40625 17 44 13 44 
C 9.09375 44 7.09375 41.015625 5.90625 38.8125 
C 4.203125 35.21875 2.703125 29.234375 2.703125 28.734375 
C 2.703125 28.34375 3.09375 27.84375 3.796875 27.84375 
C 4.59375 27.84375 4.703125 27.9375 5.296875 30.234375 
C 6.796875 36.21875 8.703125 42.015625 12.703125 42.015625 
C 15.09375 42.015625 15.796875 40.3125 15.796875 37.421875 
C 15.796875 35.21875 14.796875 31.328125 14.09375 28.234375 
L 11.296875 17.46875 
C 10.90625 15.5625 9.796875 11.078125 9.296875 9.28125 
C 8.59375 6.6875 7.5 2 7.5 1.5 
C 7.5 0.09375 8.59375 -1 10.09375 -1 
C 11.203125 -1 13.09375 -0.296875 13.703125 1.703125 
C 14 2.5 17.703125 17.5625 18.296875 19.859375 
C 18.796875 22.046875 19.40625 24.15625 19.90625 26.34375 
C 20.296875 27.734375 20.703125 29.34375 21 30.640625 
C 21.296875 31.53125 24 36.421875 26.5 38.625 
C 27.703125 39.71875 30.296875 42.015625 34.40625 42.015625 
C 36 42.015625 37.59375 41.71875 38.90625 40.8125 
z
" id="CMMI12-114"/>
      </defs>
      <use transform="scale(0.996264)" xlink:href="#CMMI12-80"/>
      <use transform="translate(62.877232 -14.943915)scale(0.697382)" xlink:href="#CMMI12-114"/>
     </g>
    </g>
    <g id="line2d_37">
     <path d="M 365.835033 692.024366 
L 405.835033 692.024366 
" style="fill:none;stroke:#ff0000;stroke-linecap:square;stroke-width:2;"/>
    </g>
    <g id="line2d_38"/>
    <g id="text_20">
     <!-- $P_i$ -->
     <g transform="translate(421.835033 699.024366)scale(0.2 -0.2)">
      <defs>
       <path d="M 28.296875 14.265625 
C 28.296875 14.765625 27.90625 15.171875 27.296875 15.171875 
C 26.40625 15.171875 26.296875 14.875 25.796875 13.171875 
C 23.203125 4.09375 19.09375 1 15.796875 1 
C 14.59375 1 13.203125 1.296875 13.203125 4.296875 
C 13.203125 6.984375 14.40625 9.984375 15.5 12.96875 
L 22.5 31.53125 
C 22.796875 32.328125 23.5 34.125 23.5 36.015625 
C 23.5 40.21875 20.5 44 15.59375 44 
C 6.40625 44 2.703125 29.53125 2.703125 28.734375 
C 2.703125 28.34375 3.09375 27.84375 3.796875 27.84375 
C 4.703125 27.84375 4.796875 28.234375 5.203125 29.625 
C 7.59375 37.9375 11.40625 41.90625 15.296875 41.90625 
C 16.203125 41.90625 17.90625 41.90625 17.90625 38.71875 
C 17.90625 36.125 16.59375 32.828125 15.796875 30.640625 
L 8.796875 12.078125 
C 8.203125 10.484375 7.59375 8.875 7.59375 7.078125 
C 7.59375 2.59375 10.703125 -1 15.5 -1 
C 24.703125 -1 28.296875 13.578125 28.296875 14.265625 
z
M 27.5 62.703125 
C 27.5 64.203125 26.296875 66 24.09375 66 
C 21.796875 66 19.203125 63.796875 19.203125 61.203125 
C 19.203125 58.71875 21.296875 57.921875 22.5 57.921875 
C 25.203125 57.921875 27.5 60.515625 27.5 62.703125 
z
" id="CMMI12-105"/>
      </defs>
      <use transform="scale(0.996264)" xlink:href="#CMMI12-80"/>
      <use transform="translate(62.877232 -14.943915)scale(0.697382)" xlink:href="#CMMI12-105"/>
     </g>
    </g>
   </g>
  </g>
 </g>
 <defs>
  <clipPath id="pfa0545ba71">
   <rect height="664.2" width="590.4" x="108" y="56.7"/>
  </clipPath>
 </defs>
</svg>
