<?xml version="1.0" encoding="utf-8" standalone="no"?>
<!DOCTYPE svg PUBLIC "-//W3C//DTD SVG 1.1//EN"
  "http://www.w3.org/Graphics/SVG/1.1/DTD/svg11.dtd">
<!-- Created with matplotlib (https://matplotlib.org/) -->
<svg height="810pt" version="1.1" viewBox="0 0 720 810" width="720pt" xmlns="http://www.w3.org/2000/svg" xmlns:xlink="http://www.w3.org/1999/xlink">
 <metadata>
  <rdf:RDF xmlns:cc="http://creativecommons.org/ns#" xmlns:dc="http://purl.org/dc/elements/1.1/" xmlns:rdf="http://www.w3.org/1999/02/22-rdf-syntax-ns#">
   <cc:Work>
    <dc:type rdf:resource="http://purl.org/dc/dcmitype/StillImage"/>
    <dc:date>2021-09-02T23:48:17.526654</dc:date>
    <dc:format>image/svg+xml</dc:format>
    <dc:creator>
     <cc:Agent>
      <dc:title>Matplotlib v3.3.1, https://matplotlib.org/</dc:title>
     </cc:Agent>
    </dc:creator>
   </cc:Work>
  </rdf:RDF>
 </metadata>
 <defs>
  <style type="text/css">*{stroke-linecap:butt;stroke-linejoin:round;}</style>
 </defs>
 <g id="figure_1">
  <g id="patch_1">
   <path d="M 0 810 
L 720 810 
L 720 0 
L 0 0 
z
" style="fill:#ffffff;"/>
  </g>
  <g id="axes_1">
   <g id="line2d_1">
    <path clip-path="url(#p6d8909411f)" d="M 99.818182 644.031818 
L 118.753481 640.892615 
L 137.68878 637.5343 
L 157.180999 633.848339 
L 176.673219 629.930188 
L 196.165438 625.779848 
L 215.657658 621.397318 
L 235.149877 616.782598 
L 254.642097 611.935689 
L 274.134316 606.856591 
L 293.626536 601.545302 
L 313.118755 596.001824 
L 332.610975 590.226157 
L 352.103194 584.2183 
L 371.595414 577.978253 
L 391.087633 571.506016 
L 410.579853 564.80159 
L 430.072072 557.864975 
L 449.564292 550.69617 
L 469.056511 543.295175 
L 488.548731 535.661991 
L 508.597871 527.56848 
L 528.647011 519.229322 
L 548.696151 510.644517 
L 568.745291 501.814065 
L 588.794431 492.737966 
L 608.843571 483.416219 
L 628.892711 473.848826 
L 648.941851 464.035785 
L 656.181818 460.431818 
L 656.181818 460.431818 
" style="fill:none;stroke:#0000ff;stroke-linecap:square;stroke-width:2;"/>
   </g>
   <g id="line2d_2">
    <path clip-path="url(#p6d8909411f)" d="M 99.818182 643.896023 
L 118.753481 640.712713 
L 137.68878 637.300239 
L 156.624079 633.657139 
L 175.559378 629.78184 
L 193.937756 625.796865 
L 212.316134 621.589902 
L 230.694513 617.159188 
L 249.072891 612.502846 
L 267.451269 607.618879 
L 285.829648 602.505169 
L 304.208026 597.159468 
L 322.586405 591.579396 
L 340.964783 585.762434 
L 359.343161 579.705916 
L 377.164619 573.601489 
L 394.986077 567.266443 
L 412.807535 560.697919 
L 430.628993 553.892899 
L 448.45045 546.848203 
L 466.271908 539.560478 
L 484.093366 532.026192 
L 501.357903 524.488712 
L 518.622441 516.712774 
L 535.886978 508.694619 
L 553.151515 500.43029 
L 570.416052 491.915614 
L 587.68059 483.146195 
L 604.388206 474.412747 
L 621.095823 465.431956 
L 637.80344 456.199153 
L 654.511057 446.709418 
L 656.181818 445.746115 
L 656.181818 445.746115 
" style="fill:none;stroke:#0000ff;stroke-dasharray:7.4,3.2;stroke-dashoffset:0;stroke-width:2;"/>
   </g>
   <g id="line2d_3">
    <defs>
     <path d="M 0 5 
C 1.326016 5 2.597899 4.473168 3.535534 3.535534 
C 4.473168 2.597899 5 1.326016 5 0 
C 5 -1.326016 4.473168 -2.597899 3.535534 -3.535534 
C 2.597899 -4.473168 1.326016 -5 0 -5 
C -1.326016 -5 -2.597899 -4.473168 -3.535534 -3.535534 
C -4.473168 -2.597899 -5 -1.326016 -5 0 
C -5 1.326016 -4.473168 2.597899 -3.535534 3.535534 
C -2.597899 4.473168 -1.326016 5 0 5 
z
" id="m6ebb296eb8" style="stroke:#0000ff;"/>
    </defs>
    <g clip-path="url(#p6d8909411f)">
     <use style="fill:#0000ff;stroke:#0000ff;" x="282.158787" xlink:href="#m6ebb296eb8" y="604.698181"/>
    </g>
   </g>
   <g id="line2d_4">
    <defs>
     <path d="M 0 5 
C 1.326016 5 2.597899 4.473168 3.535534 3.535534 
C 4.473168 2.597899 5 1.326016 5 0 
C 5 -1.326016 4.473168 -2.597899 3.535534 -3.535534 
C 2.597899 -4.473168 1.326016 -5 0 -5 
C -1.326016 -5 -2.597899 -4.473168 -3.535534 -3.535534 
C -4.473168 -2.597899 -5 -1.326016 -5 0 
C -5 1.326016 -4.473168 2.597899 -3.535534 3.535534 
C -2.597899 4.473168 -1.326016 5 0 5 
z
" id="m836e6e8cb2" style="stroke:#ff0000;"/>
    </defs>
    <g clip-path="url(#p6d8909411f)">
     <use style="fill:#ff0000;stroke:#ff0000;" x="165.272727" xlink:href="#m836e6e8cb2" y="174.068182"/>
    </g>
   </g>
   <g id="line2d_5">
    <g clip-path="url(#p6d8909411f)">
     <use style="fill:#ff0000;stroke:#ff0000;" x="165.272727" xlink:href="#m836e6e8cb2" y="632.25"/>
    </g>
   </g>
   <g id="line2d_6">
    <path clip-path="url(#p6d8909411f)" d="M 165.272727 632.25 
L 165.272727 174.068182 
" style="fill:none;stroke:#ff0000;stroke-dasharray:7.4,3.2;stroke-dashoffset:0;stroke-width:2;"/>
   </g>
   <g id="line2d_7">
    <path clip-path="url(#p6d8909411f)" d="M 165.272727 174.068182 
L 282.158787 604.698181 
" style="fill:none;stroke:#ff0000;stroke-linecap:square;stroke-width:2;"/>
   </g>
   <g id="line2d_8">
    <path clip-path="url(#p6d8909411f)" d="M 250.574323 613.271163 
L 313.743251 596.125198 
" style="fill:none;stroke:#00bfbf;stroke-linecap:square;stroke-width:2;"/>
   </g>
   <g id="text_1">
    <!-- $(u_n,w_n)$ -->
    <g style="fill:#ff0000;" transform="translate(143.693182 149.522727)scale(0.25 -0.25)">
     <defs>
      <path d="M 31 75.875 
Q 24.46875 64.65625 21.28125 53.65625 
Q 18.109375 42.671875 18.109375 31.390625 
Q 18.109375 20.125 21.3125 9.0625 
Q 24.515625 -2 31 -13.1875 
L 23.1875 -13.1875 
Q 15.875 -1.703125 12.234375 9.375 
Q 8.59375 20.453125 8.59375 31.390625 
Q 8.59375 42.28125 12.203125 53.3125 
Q 15.828125 64.359375 23.1875 75.875 
z
" id="DejaVuSans-40"/>
      <path d="M 6.6875 21.6875 
L 13.09375 54.6875 
L 22.125 54.6875 
L 15.71875 22.015625 
Q 15.234375 19.625 15.015625 17.921875 
Q 14.796875 16.21875 14.796875 15.09375 
Q 14.796875 10.9375 17.328125 8.65625 
Q 19.875 6.390625 24.515625 6.390625 
Q 31.734375 6.390625 37 11.265625 
Q 42.28125 16.15625 43.890625 24.421875 
L 49.90625 54.6875 
L 58.890625 54.6875 
L 48.296875 0 
L 39.3125 0 
L 41.109375 8.59375 
Q 37.3125 3.8125 32.0625 1.1875 
Q 26.8125 -1.421875 20.90625 -1.421875 
Q 13.71875 -1.421875 9.71875 2.515625 
Q 5.71875 6.453125 5.71875 13.484375 
Q 5.71875 14.9375 5.953125 17.140625 
Q 6.203125 19.34375 6.6875 21.6875 
z
" id="DejaVuSans-Oblique-117"/>
      <path d="M 55.71875 33.015625 
L 49.3125 0 
L 40.28125 0 
L 46.6875 32.671875 
Q 47.125 34.96875 47.359375 36.71875 
Q 47.609375 38.484375 47.609375 39.5 
Q 47.609375 43.609375 45.015625 45.890625 
Q 42.4375 48.1875 37.796875 48.1875 
Q 30.5625 48.1875 25.34375 43.375 
Q 20.125 38.578125 18.5 30.328125 
L 12.5 0 
L 3.515625 0 
L 14.109375 54.6875 
L 23.09375 54.6875 
L 21.296875 46.09375 
Q 25.046875 50.828125 30.3125 53.40625 
Q 35.59375 56 41.40625 56 
Q 48.640625 56 52.609375 52.09375 
Q 56.59375 48.1875 56.59375 41.109375 
Q 56.59375 39.359375 56.375 37.359375 
Q 56.15625 35.359375 55.71875 33.015625 
z
" id="DejaVuSans-Oblique-110"/>
      <path d="M 11.71875 12.40625 
L 22.015625 12.40625 
L 22.015625 4 
L 14.015625 -11.625 
L 7.71875 -11.625 
L 11.71875 4 
z
" id="DejaVuSans-44"/>
      <path d="M 8.5 54.6875 
L 17.390625 54.6875 
L 19.671875 10.6875 
L 40.09375 54.6875 
L 50.484375 54.6875 
L 53.515625 10.6875 
L 72.90625 54.6875 
L 81.890625 54.6875 
L 56.890625 0 
L 46.390625 0 
L 43.703125 45.3125 
L 22.796875 0 
L 12.203125 0 
z
" id="DejaVuSans-Oblique-119"/>
      <path d="M 8.015625 75.875 
L 15.828125 75.875 
Q 23.140625 64.359375 26.78125 53.3125 
Q 30.421875 42.28125 30.421875 31.390625 
Q 30.421875 20.453125 26.78125 9.375 
Q 23.140625 -1.703125 15.828125 -13.1875 
L 8.015625 -13.1875 
Q 14.5 -2 17.703125 9.0625 
Q 20.90625 20.125 20.90625 31.390625 
Q 20.90625 42.671875 17.703125 53.65625 
Q 14.5 64.65625 8.015625 75.875 
z
" id="DejaVuSans-41"/>
     </defs>
     <use transform="translate(0 0.125)" xlink:href="#DejaVuSans-40"/>
     <use transform="translate(39.013672 0.125)" xlink:href="#DejaVuSans-Oblique-117"/>
     <use transform="translate(102.392578 -16.28125)scale(0.7)" xlink:href="#DejaVuSans-Oblique-110"/>
     <use transform="translate(149.492188 0.125)" xlink:href="#DejaVuSans-44"/>
     <use transform="translate(200.761719 0.125)" xlink:href="#DejaVuSans-Oblique-119"/>
     <use transform="translate(282.548828 -16.28125)scale(0.7)" xlink:href="#DejaVuSans-Oblique-110"/>
     <use transform="translate(329.648438 0.125)" xlink:href="#DejaVuSans-41"/>
    </g>
   </g>
   <g id="text_2">
    <!-- $P$ -->
    <g style="fill:#0000ff;" transform="translate(299.079242 580.152726)scale(0.25 -0.25)">
     <defs>
      <path d="M 16.890625 72.90625 
L 39.703125 72.90625 
Q 49.65625 72.90625 54.875 68.265625 
Q 60.109375 63.625 60.109375 54.6875 
Q 60.109375 42.671875 52.390625 35.984375 
Q 44.671875 29.296875 30.71875 29.296875 
L 18.3125 29.296875 
L 12.59375 0 
L 2.6875 0 
z
M 25.203125 64.796875 
L 19.921875 37.40625 
L 32.328125 37.40625 
Q 40.71875 37.40625 45.203125 41.703125 
Q 49.703125 46 49.703125 54 
Q 49.703125 59.125 46.65625 61.953125 
Q 43.609375 64.796875 38.09375 64.796875 
z
" id="DejaVuSans-Oblique-80"/>
     </defs>
     <use transform="translate(0 0.09375)" xlink:href="#DejaVuSans-Oblique-80"/>
    </g>
   </g>
   <g id="text_3">
    <!-- $\hat t$ -->
    <g style="fill:#00bfbf;" transform="translate(333.288705 571.579744)scale(0.25 -0.25)">
     <defs>
      <path d="M -28.609375 79.984375 
L -21.390625 79.984375 
L -9.421875 61.625 
L -16.21875 61.625 
L -25 73.578125 
L -33.796875 61.625 
L -40.578125 61.625 
z
M -25 56 
z
" id="DejaVuSans-770"/>
      <path d="M 42.28125 54.6875 
L 40.921875 47.703125 
L 23 47.703125 
L 17.1875 18.015625 
Q 16.890625 16.359375 16.75 15.234375 
Q 16.609375 14.109375 16.609375 13.484375 
Q 16.609375 10.359375 18.484375 8.9375 
Q 20.359375 7.515625 24.515625 7.515625 
L 33.59375 7.515625 
L 32.078125 0 
L 23.484375 0 
Q 15.484375 0 11.546875 3.125 
Q 7.625 6.25 7.625 12.59375 
Q 7.625 13.71875 7.765625 15.0625 
Q 7.90625 16.40625 8.203125 18.015625 
L 14.015625 47.703125 
L 6.390625 47.703125 
L 7.8125 54.6875 
L 15.28125 54.6875 
L 18.3125 70.21875 
L 27.296875 70.21875 
L 24.3125 54.6875 
z
" id="DejaVuSans-Oblique-116"/>
     </defs>
     <use transform="translate(47.546875 27.015625)" xlink:href="#DejaVuSans-770"/>
     <use transform="translate(0 0.296875)" xlink:href="#DejaVuSans-Oblique-116"/>
    </g>
   </g>
   <g id="text_4">
    <!-- $\zeta^{(BW)}$ -->
    <g style="fill:#ff0000;" transform="translate(243.181666 364.837727)scale(0.25 -0.25)">
     <defs>
      <path d="M 30.71875 6.203125 
Q 37.15625 6.15625 40.28125 2.484375 
Q 43.65625 -1.375 42.53125 -7.234375 
Q 41.40625 -12.84375 37.0625 -16.75 
Q 32.328125 -21 24.359375 -21 
Q 25.09375 -17.328125 25.78125 -13.625 
Q 29.109375 -13.875 31.59375 -11.71875 
Q 33.5 -10.015625 33.84375 -8.203125 
Q 34.328125 -5.609375 33.203125 -3.46875 
Q 32.03125 -1.421875 29.25 -1.421875 
Q -0.34375 -1.421875 4.9375 26.078125 
Q 9.625 50.09375 40.765625 66.9375 
L 14.796875 66.9375 
L 16.546875 75.984375 
L 59.03125 75.984375 
L 57.28125 66.9375 
Q 18.453125 49.171875 13.96875 26.078125 
Q 10.109375 6.203125 30.71875 6.203125 
z
" id="DejaVuSans-Oblique-950"/>
      <path d="M 16.890625 72.90625 
L 42.09375 72.90625 
Q 52.34375 72.90625 57.421875 69.09375 
Q 62.5 65.28125 62.5 57.625 
Q 62.5 50.59375 58.125 45.484375 
Q 53.765625 40.375 46.6875 39.3125 
Q 52.734375 37.9375 55.765625 34.078125 
Q 58.796875 30.21875 58.796875 23.78125 
Q 58.796875 12.796875 50.65625 6.390625 
Q 42.53125 0 28.421875 0 
L 2.6875 0 
z
M 19.28125 34.8125 
L 14.109375 8.109375 
L 29.984375 8.109375 
Q 38.921875 8.109375 43.75 12.203125 
Q 48.578125 16.3125 48.578125 23.78125 
Q 48.578125 29.546875 45.375 32.171875 
Q 42.1875 34.8125 35.109375 34.8125 
z
M 25.09375 64.796875 
L 20.796875 42.828125 
L 35.5 42.828125 
Q 43.359375 42.828125 47.78125 46.234375 
Q 52.203125 49.65625 52.203125 55.71875 
Q 52.203125 60.453125 49.21875 62.625 
Q 46.234375 64.796875 39.703125 64.796875 
z
" id="DejaVuSans-Oblique-66"/>
      <path d="M 9.625 72.90625 
L 19.1875 72.90625 
L 22.703125 10.890625 
L 50.203125 72.90625 
L 61.1875 72.90625 
L 64.796875 10.890625 
L 92 72.90625 
L 102 72.90625 
L 69.578125 0 
L 57.171875 0 
L 53.8125 60.796875 
L 26.515625 0 
L 14.109375 0 
z
" id="DejaVuSans-Oblique-87"/>
     </defs>
     <use transform="translate(0 0.60625)" xlink:href="#DejaVuSans-Oblique-950"/>
     <use transform="translate(61.84224 38.8875)scale(0.7)" xlink:href="#DejaVuSans-40"/>
     <use transform="translate(89.15181 38.8875)scale(0.7)" xlink:href="#DejaVuSans-Oblique-66"/>
     <use transform="translate(137.174271 38.8875)scale(0.7)" xlink:href="#DejaVuSans-Oblique-87"/>
     <use transform="translate(206.388138 38.8875)scale(0.7)" xlink:href="#DejaVuSans-41"/>
    </g>
   </g>
   <g id="text_5">
    <!-- $\zeta_n^{(MS)}$ -->
    <g style="fill:#ff0000;" transform="translate(112.602273 378.613636)scale(0.25 -0.25)">
     <defs>
      <path d="M 16.890625 72.90625 
L 31.6875 72.90625 
L 40.1875 23.78125 
L 68.40625 72.90625 
L 83.59375 72.90625 
L 69.390625 0 
L 59.8125 0 
L 72.21875 63.921875 
L 43.609375 14.015625 
L 33.984375 14.015625 
L 24.703125 64.109375 
L 12.3125 0 
L 2.6875 0 
z
" id="DejaVuSans-Oblique-77"/>
      <path d="M 60.296875 70.515625 
L 58.40625 60.890625 
Q 53.46875 63.53125 48.609375 64.875 
Q 43.75 66.21875 39.203125 66.21875 
Q 30.375 66.21875 25.140625 62.359375 
Q 19.921875 58.5 19.921875 52.09375 
Q 19.921875 48.578125 21.84375 46.703125 
Q 23.78125 44.828125 31.78125 42.671875 
L 37.703125 41.21875 
Q 47.703125 38.625 51.609375 34.640625 
Q 55.515625 30.671875 55.515625 23.484375 
Q 55.515625 12.453125 46.84375 5.515625 
Q 38.1875 -1.421875 24.03125 -1.421875 
Q 18.21875 -1.421875 12.359375 -0.265625 
Q 6.5 0.875 0.59375 3.21875 
L 2.59375 13.375 
Q 8.015625 10.015625 13.453125 8.296875 
Q 18.890625 6.59375 24.3125 6.59375 
Q 33.546875 6.59375 39.109375 10.6875 
Q 44.671875 14.796875 44.671875 21.390625 
Q 44.671875 25.78125 42.453125 28.046875 
Q 40.234375 30.328125 32.90625 32.171875 
L 27 33.6875 
Q 16.890625 36.328125 13.203125 39.765625 
Q 9.515625 43.21875 9.515625 49.421875 
Q 9.515625 60.296875 17.890625 67.25 
Q 26.265625 74.21875 39.703125 74.21875 
Q 44.921875 74.21875 50.046875 73.28125 
Q 55.171875 72.359375 60.296875 70.515625 
z
" id="DejaVuSans-Oblique-83"/>
     </defs>
     <use transform="translate(0 0.60625)" xlink:href="#DejaVuSans-Oblique-950"/>
     <use transform="translate(61.84224 38.8875)scale(0.7)" xlink:href="#DejaVuSans-40"/>
     <use transform="translate(89.15181 38.8875)scale(0.7)" xlink:href="#DejaVuSans-Oblique-77"/>
     <use transform="translate(149.547318 38.8875)scale(0.7)" xlink:href="#DejaVuSans-Oblique-83"/>
     <use transform="translate(193.980911 38.8875)scale(0.7)" xlink:href="#DejaVuSans-41"/>
     <use transform="translate(54.394531 -26.7375)scale(0.7)" xlink:href="#DejaVuSans-Oblique-110"/>
    </g>
   </g>
  </g>
 </g>
 <defs>
  <clipPath id="p6d8909411f">
   <rect height="688.5" width="612" x="72" y="64.8"/>
  </clipPath>
 </defs>
</svg>
