<?xml version="1.0" encoding="utf-8" standalone="no"?>
<!DOCTYPE svg PUBLIC "-//W3C//DTD SVG 1.1//EN"
  "http://www.w3.org/Graphics/SVG/1.1/DTD/svg11.dtd">
<!-- Created with matplotlib (https://matplotlib.org/) -->
<svg height="810pt" version="1.1" viewBox="0 0 720 810" width="720pt" xmlns="http://www.w3.org/2000/svg" xmlns:xlink="http://www.w3.org/1999/xlink">
 <metadata>
  <rdf:RDF xmlns:cc="http://creativecommons.org/ns#" xmlns:dc="http://purl.org/dc/elements/1.1/" xmlns:rdf="http://www.w3.org/1999/02/22-rdf-syntax-ns#">
   <cc:Work>
    <dc:type rdf:resource="http://purl.org/dc/dcmitype/StillImage"/>
    <dc:date>2021-09-03T00:10:22.971984</dc:date>
    <dc:format>image/svg+xml</dc:format>
    <dc:creator>
     <cc:Agent>
      <dc:title>Matplotlib v3.3.1, https://matplotlib.org/</dc:title>
     </cc:Agent>
    </dc:creator>
   </cc:Work>
  </rdf:RDF>
 </metadata>
 <defs>
  <style type="text/css">*{stroke-linecap:butt;stroke-linejoin:round;}</style>
 </defs>
 <g id="figure_1">
  <g id="patch_1">
   <path d="M 0 810 
L 720 810 
L 720 0 
L 0 0 
z
" style="fill:#ffffff;"/>
  </g>
  <g id="axes_1">
   <g id="PathCollection_1">
    <path clip-path="url(#pe1ab27357c)" d="M 240 721.581139 
C 240.419323 721.581139 240.821528 721.41454 241.118034 721.118034 
C 241.41454 720.821528 241.581139 720.419323 241.581139 720 
C 241.581139 719.580677 241.41454 719.178472 241.118034 718.881966 
C 240.821528 718.58546 240.419323 718.418861 240 718.418861 
C 239.580677 718.418861 239.178472 718.58546 238.881966 718.881966 
C 238.58546 719.178472 238.418861 719.580677 238.418861 720 
C 238.418861 720.419323 238.58546 720.821528 238.881966 721.118034 
C 239.178472 721.41454 239.580677 721.581139 240 721.581139 
z
" style="stroke:#000000;"/>
    <path clip-path="url(#pe1ab27357c)" d="M 240 631.581139 
C 240.419323 631.581139 240.821528 631.41454 241.118034 631.118034 
C 241.41454 630.821528 241.581139 630.419323 241.581139 630 
C 241.581139 629.580677 241.41454 629.178472 241.118034 628.881966 
C 240.821528 628.58546 240.419323 628.418861 240 628.418861 
C 239.580677 628.418861 239.178472 628.58546 238.881966 628.881966 
C 238.58546 629.178472 238.418861 629.580677 238.418861 630 
C 238.418861 630.419323 238.58546 630.821528 238.881966 631.118034 
C 239.178472 631.41454 239.580677 631.581139 240 631.581139 
z
" style="stroke:#000000;"/>
    <path clip-path="url(#pe1ab27357c)" d="M 240 541.581139 
C 240.419323 541.581139 240.821528 541.41454 241.118034 541.118034 
C 241.41454 540.821528 241.581139 540.419323 241.581139 540 
C 241.581139 539.580677 241.41454 539.178472 241.118034 538.881966 
C 240.821528 538.58546 240.419323 538.418861 240 538.418861 
C 239.580677 538.418861 239.178472 538.58546 238.881966 538.881966 
C 238.58546 539.178472 238.418861 539.580677 238.418861 540 
C 238.418861 540.419323 238.58546 540.821528 238.881966 541.118034 
C 239.178472 541.41454 239.580677 541.581139 240 541.581139 
z
" style="stroke:#000000;"/>
    <path clip-path="url(#pe1ab27357c)" d="M 240 451.581139 
C 240.419323 451.581139 240.821528 451.41454 241.118034 451.118034 
C 241.41454 450.821528 241.581139 450.419323 241.581139 450 
C 241.581139 449.580677 241.41454 449.178472 241.118034 448.881966 
C 240.821528 448.58546 240.419323 448.418861 240 448.418861 
C 239.580677 448.418861 239.178472 448.58546 238.881966 448.881966 
C 238.58546 449.178472 238.418861 449.580677 238.418861 450 
C 238.418861 450.419323 238.58546 450.821528 238.881966 451.118034 
C 239.178472 451.41454 239.580677 451.581139 240 451.581139 
z
" style="stroke:#000000;"/>
    <path clip-path="url(#pe1ab27357c)" d="M 240 361.581139 
C 240.419323 361.581139 240.821528 361.41454 241.118034 361.118034 
C 241.41454 360.821528 241.581139 360.419323 241.581139 360 
C 241.581139 359.580677 241.41454 359.178472 241.118034 358.881966 
C 240.821528 358.58546 240.419323 358.418861 240 358.418861 
C 239.580677 358.418861 239.178472 358.58546 238.881966 358.881966 
C 238.58546 359.178472 238.418861 359.580677 238.418861 360 
C 238.418861 360.419323 238.58546 360.821528 238.881966 361.118034 
C 239.178472 361.41454 239.580677 361.581139 240 361.581139 
z
" style="stroke:#000000;"/>
    <path clip-path="url(#pe1ab27357c)" d="M 240 271.581139 
C 240.419323 271.581139 240.821528 271.41454 241.118034 271.118034 
C 241.41454 270.821528 241.581139 270.419323 241.581139 270 
C 241.581139 269.580677 241.41454 269.178472 241.118034 268.881966 
C 240.821528 268.58546 240.419323 268.418861 240 268.418861 
C 239.580677 268.418861 239.178472 268.58546 238.881966 268.881966 
C 238.58546 269.178472 238.418861 269.580677 238.418861 270 
C 238.418861 270.419323 238.58546 270.821528 238.881966 271.118034 
C 239.178472 271.41454 239.580677 271.581139 240 271.581139 
z
" style="stroke:#000000;"/>
    <path clip-path="url(#pe1ab27357c)" d="M 240 181.581139 
C 240.419323 181.581139 240.821528 181.41454 241.118034 181.118034 
C 241.41454 180.821528 241.581139 180.419323 241.581139 180 
C 241.581139 179.580677 241.41454 179.178472 241.118034 178.881966 
C 240.821528 178.58546 240.419323 178.418861 240 178.418861 
C 239.580677 178.418861 239.178472 178.58546 238.881966 178.881966 
C 238.58546 179.178472 238.418861 179.580677 238.418861 180 
C 238.418861 180.419323 238.58546 180.821528 238.881966 181.118034 
C 239.178472 181.41454 239.580677 181.581139 240 181.581139 
z
" style="stroke:#000000;"/>
    <path clip-path="url(#pe1ab27357c)" d="M 432 721.581139 
C 432.419323 721.581139 432.821528 721.41454 433.118034 721.118034 
C 433.41454 720.821528 433.581139 720.419323 433.581139 720 
C 433.581139 719.580677 433.41454 719.178472 433.118034 718.881966 
C 432.821528 718.58546 432.419323 718.418861 432 718.418861 
C 431.580677 718.418861 431.178472 718.58546 430.881966 718.881966 
C 430.58546 719.178472 430.418861 719.580677 430.418861 720 
C 430.418861 720.419323 430.58546 720.821528 430.881966 721.118034 
C 431.178472 721.41454 431.580677 721.581139 432 721.581139 
z
" style="stroke:#000000;"/>
    <path clip-path="url(#pe1ab27357c)" d="M 432 631.581139 
C 432.419323 631.581139 432.821528 631.41454 433.118034 631.118034 
C 433.41454 630.821528 433.581139 630.419323 433.581139 630 
C 433.581139 629.580677 433.41454 629.178472 433.118034 628.881966 
C 432.821528 628.58546 432.419323 628.418861 432 628.418861 
C 431.580677 628.418861 431.178472 628.58546 430.881966 628.881966 
C 430.58546 629.178472 430.418861 629.580677 430.418861 630 
C 430.418861 630.419323 430.58546 630.821528 430.881966 631.118034 
C 431.178472 631.41454 431.580677 631.581139 432 631.581139 
z
" style="stroke:#000000;"/>
    <path clip-path="url(#pe1ab27357c)" d="M 432 541.581139 
C 432.419323 541.581139 432.821528 541.41454 433.118034 541.118034 
C 433.41454 540.821528 433.581139 540.419323 433.581139 540 
C 433.581139 539.580677 433.41454 539.178472 433.118034 538.881966 
C 432.821528 538.58546 432.419323 538.418861 432 538.418861 
C 431.580677 538.418861 431.178472 538.58546 430.881966 538.881966 
C 430.58546 539.178472 430.418861 539.580677 430.418861 540 
C 430.418861 540.419323 430.58546 540.821528 430.881966 541.118034 
C 431.178472 541.41454 431.580677 541.581139 432 541.581139 
z
" style="stroke:#000000;"/>
    <path clip-path="url(#pe1ab27357c)" d="M 432 451.581139 
C 432.419323 451.581139 432.821528 451.41454 433.118034 451.118034 
C 433.41454 450.821528 433.581139 450.419323 433.581139 450 
C 433.581139 449.580677 433.41454 449.178472 433.118034 448.881966 
C 432.821528 448.58546 432.419323 448.418861 432 448.418861 
C 431.580677 448.418861 431.178472 448.58546 430.881966 448.881966 
C 430.58546 449.178472 430.418861 449.580677 430.418861 450 
C 430.418861 450.419323 430.58546 450.821528 430.881966 451.118034 
C 431.178472 451.41454 431.580677 451.581139 432 451.581139 
z
" style="stroke:#000000;"/>
    <path clip-path="url(#pe1ab27357c)" d="M 432 361.581139 
C 432.419323 361.581139 432.821528 361.41454 433.118034 361.118034 
C 433.41454 360.821528 433.581139 360.419323 433.581139 360 
C 433.581139 359.580677 433.41454 359.178472 433.118034 358.881966 
C 432.821528 358.58546 432.419323 358.418861 432 358.418861 
C 431.580677 358.418861 431.178472 358.58546 430.881966 358.881966 
C 430.58546 359.178472 430.418861 359.580677 430.418861 360 
C 430.418861 360.419323 430.58546 360.821528 430.881966 361.118034 
C 431.178472 361.41454 431.580677 361.581139 432 361.581139 
z
" style="stroke:#000000;"/>
    <path clip-path="url(#pe1ab27357c)" d="M 432 271.581139 
C 432.419323 271.581139 432.821528 271.41454 433.118034 271.118034 
C 433.41454 270.821528 433.581139 270.419323 433.581139 270 
C 433.581139 269.580677 433.41454 269.178472 433.118034 268.881966 
C 432.821528 268.58546 432.419323 268.418861 432 268.418861 
C 431.580677 268.418861 431.178472 268.58546 430.881966 268.881966 
C 430.58546 269.178472 430.418861 269.580677 430.418861 270 
C 430.418861 270.419323 430.58546 270.821528 430.881966 271.118034 
C 431.178472 271.41454 431.580677 271.581139 432 271.581139 
z
" style="stroke:#000000;"/>
    <path clip-path="url(#pe1ab27357c)" d="M 432 181.581139 
C 432.419323 181.581139 432.821528 181.41454 433.118034 181.118034 
C 433.41454 180.821528 433.581139 180.419323 433.581139 180 
C 433.581139 179.580677 433.41454 179.178472 433.118034 178.881966 
C 432.821528 178.58546 432.419323 178.418861 432 178.418861 
C 431.580677 178.418861 431.178472 178.58546 430.881966 178.881966 
C 430.58546 179.178472 430.418861 179.580677 430.418861 180 
C 430.418861 180.419323 430.58546 180.821528 430.881966 181.118034 
C 431.178472 181.41454 431.580677 181.581139 432 181.581139 
z
" style="stroke:#000000;"/>
    <path clip-path="url(#pe1ab27357c)" d="M 624 721.581139 
C 624.419323 721.581139 624.821528 721.41454 625.118034 721.118034 
C 625.41454 720.821528 625.581139 720.419323 625.581139 720 
C 625.581139 719.580677 625.41454 719.178472 625.118034 718.881966 
C 624.821528 718.58546 624.419323 718.418861 624 718.418861 
C 623.580677 718.418861 623.178472 718.58546 622.881966 718.881966 
C 622.58546 719.178472 622.418861 719.580677 622.418861 720 
C 622.418861 720.419323 622.58546 720.821528 622.881966 721.118034 
C 623.178472 721.41454 623.580677 721.581139 624 721.581139 
z
" style="stroke:#000000;"/>
    <path clip-path="url(#pe1ab27357c)" d="M 624 631.581139 
C 624.419323 631.581139 624.821528 631.41454 625.118034 631.118034 
C 625.41454 630.821528 625.581139 630.419323 625.581139 630 
C 625.581139 629.580677 625.41454 629.178472 625.118034 628.881966 
C 624.821528 628.58546 624.419323 628.418861 624 628.418861 
C 623.580677 628.418861 623.178472 628.58546 622.881966 628.881966 
C 622.58546 629.178472 622.418861 629.580677 622.418861 630 
C 622.418861 630.419323 622.58546 630.821528 622.881966 631.118034 
C 623.178472 631.41454 623.580677 631.581139 624 631.581139 
z
" style="stroke:#000000;"/>
    <path clip-path="url(#pe1ab27357c)" d="M 624 541.581139 
C 624.419323 541.581139 624.821528 541.41454 625.118034 541.118034 
C 625.41454 540.821528 625.581139 540.419323 625.581139 540 
C 625.581139 539.580677 625.41454 539.178472 625.118034 538.881966 
C 624.821528 538.58546 624.419323 538.418861 624 538.418861 
C 623.580677 538.418861 623.178472 538.58546 622.881966 538.881966 
C 622.58546 539.178472 622.418861 539.580677 622.418861 540 
C 622.418861 540.419323 622.58546 540.821528 622.881966 541.118034 
C 623.178472 541.41454 623.580677 541.581139 624 541.581139 
z
" style="stroke:#000000;"/>
    <path clip-path="url(#pe1ab27357c)" d="M 624 451.581139 
C 624.419323 451.581139 624.821528 451.41454 625.118034 451.118034 
C 625.41454 450.821528 625.581139 450.419323 625.581139 450 
C 625.581139 449.580677 625.41454 449.178472 625.118034 448.881966 
C 624.821528 448.58546 624.419323 448.418861 624 448.418861 
C 623.580677 448.418861 623.178472 448.58546 622.881966 448.881966 
C 622.58546 449.178472 622.418861 449.580677 622.418861 450 
C 622.418861 450.419323 622.58546 450.821528 622.881966 451.118034 
C 623.178472 451.41454 623.580677 451.581139 624 451.581139 
z
" style="stroke:#000000;"/>
    <path clip-path="url(#pe1ab27357c)" d="M 624 361.581139 
C 624.419323 361.581139 624.821528 361.41454 625.118034 361.118034 
C 625.41454 360.821528 625.581139 360.419323 625.581139 360 
C 625.581139 359.580677 625.41454 359.178472 625.118034 358.881966 
C 624.821528 358.58546 624.419323 358.418861 624 358.418861 
C 623.580677 358.418861 623.178472 358.58546 622.881966 358.881966 
C 622.58546 359.178472 622.418861 359.580677 622.418861 360 
C 622.418861 360.419323 622.58546 360.821528 622.881966 361.118034 
C 623.178472 361.41454 623.580677 361.581139 624 361.581139 
z
" style="stroke:#000000;"/>
    <path clip-path="url(#pe1ab27357c)" d="M 624 271.581139 
C 624.419323 271.581139 624.821528 271.41454 625.118034 271.118034 
C 625.41454 270.821528 625.581139 270.419323 625.581139 270 
C 625.581139 269.580677 625.41454 269.178472 625.118034 268.881966 
C 624.821528 268.58546 624.419323 268.418861 624 268.418861 
C 623.580677 268.418861 623.178472 268.58546 622.881966 268.881966 
C 622.58546 269.178472 622.418861 269.580677 622.418861 270 
C 622.418861 270.419323 622.58546 270.821528 622.881966 271.118034 
C 623.178472 271.41454 623.580677 271.581139 624 271.581139 
z
" style="stroke:#000000;"/>
    <path clip-path="url(#pe1ab27357c)" d="M 624 181.581139 
C 624.419323 181.581139 624.821528 181.41454 625.118034 181.118034 
C 625.41454 180.821528 625.581139 180.419323 625.581139 180 
C 625.581139 179.580677 625.41454 179.178472 625.118034 178.881966 
C 624.821528 178.58546 624.419323 178.418861 624 178.418861 
C 623.580677 178.418861 623.178472 178.58546 622.881966 178.881966 
C 622.58546 179.178472 622.418861 179.580677 622.418861 180 
C 622.418861 180.419323 622.58546 180.821528 622.881966 181.118034 
C 623.178472 181.41454 623.580677 181.581139 624 181.581139 
z
" style="stroke:#000000;"/>
   </g>
   <g id="PathCollection_2">
    <path clip-path="url(#pe1ab27357c)" d="M 240 543.535534 
C 240.937635 543.535534 241.836992 543.163008 242.5 542.5 
C 243.163008 541.836992 243.535534 540.937635 243.535534 540 
C 243.535534 539.062365 243.163008 538.163008 242.5 537.5 
C 241.836992 536.836992 240.937635 536.464466 240 536.464466 
C 239.062365 536.464466 238.163008 536.836992 237.5 537.5 
C 236.836992 538.163008 236.464466 539.062365 236.464466 540 
C 236.464466 540.937635 236.836992 541.836992 237.5 542.5 
C 238.163008 543.163008 239.062365 543.535534 240 543.535534 
z
" style="fill:#ff0000;stroke:#ff0000;"/>
    <path clip-path="url(#pe1ab27357c)" d="M 432 723.535534 
C 432.937635 723.535534 433.836992 723.163008 434.5 722.5 
C 435.163008 721.836992 435.535534 720.937635 435.535534 720 
C 435.535534 719.062365 435.163008 718.163008 434.5 717.5 
C 433.836992 716.836992 432.937635 716.464466 432 716.464466 
C 431.062365 716.464466 430.163008 716.836992 429.5 717.5 
C 428.836992 718.163008 428.464466 719.062365 428.464466 720 
C 428.464466 720.937635 428.836992 721.836992 429.5 722.5 
C 430.163008 723.163008 431.062365 723.535534 432 723.535534 
z
" style="fill:#ff0000;stroke:#ff0000;"/>
    <path clip-path="url(#pe1ab27357c)" d="M 624 453.535534 
C 624.937635 453.535534 625.836992 453.163008 626.5 452.5 
C 627.163008 451.836992 627.535534 450.937635 627.535534 450 
C 627.535534 449.062365 627.163008 448.163008 626.5 447.5 
C 625.836992 446.836992 624.937635 446.464466 624 446.464466 
C 623.062365 446.464466 622.163008 446.836992 621.5 447.5 
C 620.836992 448.163008 620.464466 449.062365 620.464466 450 
C 620.464466 450.937635 620.836992 451.836992 621.5 452.5 
C 622.163008 453.163008 623.062365 453.535534 624 453.535534 
z
" style="fill:#ff0000;stroke:#ff0000;"/>
   </g>
   <g id="patch_2">
    <path clip-path="url(#pe1ab27357c)" d="M 231.709403 547.772435 
L 227.636468 555.409188 
L 226.278823 554.136396 
L 48.678823 720.636396 
L 47.321177 719.363604 
L 224.921177 552.863604 
L 223.563532 551.590812 
z
" style="fill:#ff0000;stroke:#ff0000;stroke-linejoin:miter;"/>
   </g>
   <g id="patch_3">
    <path clip-path="url(#pe1ab27357c)" d="M 426.24 540 
L 417.6 542.7 
L 417.6 540.9 
L 240 540.9 
L 240 539.1 
L 417.6 539.1 
L 417.6 537.3 
z
" style="fill:#ff0000;stroke:#ff0000;stroke-linejoin:miter;"/>
   </g>
   <g id="patch_4">
    <path clip-path="url(#pe1ab27357c)" d="M 614.39261 283.510393 
L 611.996305 291.747691 
L 610.398768 290.74923 
L 432.798768 540.49923 
L 431.201232 539.50077 
L 608.801232 289.75077 
L 607.203695 288.752309 
z
" style="fill:#ff0000;stroke:#ff0000;stroke-linejoin:miter;"/>
   </g>
   <g id="line2d_1">
    <path clip-path="url(#pe1ab27357c)" d="M 240 720 
L 239.979308 714.090909 
L 239.917233 708.181818 
L 239.813774 702.272727 
L 239.668932 696.363636 
L 239.482706 690.454545 
L 239.255096 684.545455 
L 238.986103 678.636364 
L 238.675727 672.727273 
L 238.323967 666.818182 
L 237.930823 660.909091 
L 237.496296 655 
L 237.020386 649.090909 
L 236.503092 643.181818 
L 235.944414 637.272727 
L 235.344353 631.363636 
L 234.702908 625.454545 
L 234.02008 619.545455 
L 233.295868 613.636364 
L 232.530272 607.727273 
L 231.723294 601.818182 
L 230.874931 595.909091 
L 229.985185 590 
L 229.054056 584.090909 
L 228.081543 578.181818 
L 227.067646 572.272727 
L 226.012366 566.363636 
L 224.915702 560.454545 
L 223.777655 554.545455 
L 222.598225 548.636364 
L 221.37741 542.727273 
L 220.115213 536.818182 
L 218.811631 530.909091 
L 217.466667 525 
L 216.080318 519.090909 
L 214.652586 513.181818 
L 213.183471 507.272727 
L 211.672972 501.363636 
L 210.12109 495.454545 
L 208.527824 489.545455 
L 206.893174 483.636364 
L 205.217141 477.727273 
L 203.499725 471.818182 
L 201.740924 465.909091 
L 199.940741 460 
L 198.099174 454.090909 
L 196.216223 448.181818 
L 194.291889 442.272727 
L 192.326171 436.363636 
L 190.319069 430.454545 
L 188.270585 424.545455 
L 186.180716 418.636364 
L 184.049464 412.727273 
L 181.876829 406.818182 
L 179.66281 400.909091 
L 177.407407 395 
L 175.110621 389.090909 
L 172.772452 383.181818 
L 170.392899 377.272727 
L 167.971962 371.363636 
L 165.509642 365.454545 
L 163.005938 359.545455 
L 160.460851 353.636364 
L 157.87438 347.727273 
L 155.246526 341.818182 
L 152.577288 335.909091 
L 149.866667 330 
L 147.114662 324.090909 
L 144.321273 318.181818 
L 141.486501 312.272727 
L 138.610346 306.363636 
L 135.692807 300.454545 
L 132.733884 294.545455 
L 129.733578 288.636364 
L 126.691889 282.727273 
L 123.608815 276.818182 
L 120.484359 270.909091 
L 117.318519 265 
L 114.111295 259.090909 
L 110.862687 253.181818 
L 107.572697 247.272727 
L 104.241322 241.363636 
L 100.868564 235.454545 
L 97.454423 229.545455 
L 93.998898 223.636364 
L 90.50199 217.727273 
L 86.963698 211.818182 
L 83.384022 205.909091 
L 79.762963 200 
L 76.10052 194.090909 
L 72.396694 188.181818 
L 68.651485 182.272727 
L 64.864891 176.363636 
L 61.036915 170.454545 
L 57.167554 164.545455 
L 53.256811 158.636364 
L 49.304683 152.727273 
L 45.311172 146.818182 
L 41.276278 140.909091 
L 37.2 135 
" style="fill:none;stroke:#0000ff;stroke-linecap:square;stroke-width:2;"/>
   </g>
   <g id="line2d_2">
    <path clip-path="url(#pe1ab27357c)" d="M 432 720 
L 431.979308 714.090909 
L 431.917233 708.181818 
L 431.813774 702.272727 
L 431.668932 696.363636 
L 431.482706 690.454545 
L 431.255096 684.545455 
L 430.986103 678.636364 
L 430.675727 672.727273 
L 430.323967 666.818182 
L 429.930823 660.909091 
L 429.496296 655 
L 429.020386 649.090909 
L 428.503092 643.181818 
L 427.944414 637.272727 
L 427.344353 631.363636 
L 426.702908 625.454545 
L 426.02008 619.545455 
L 425.295868 613.636364 
L 424.530272 607.727273 
L 423.723294 601.818182 
L 422.874931 595.909091 
L 421.985185 590 
L 421.054056 584.090909 
L 420.081543 578.181818 
L 419.067646 572.272727 
L 418.012366 566.363636 
L 416.915702 560.454545 
L 415.777655 554.545455 
L 414.598225 548.636364 
L 413.37741 542.727273 
L 412.115213 536.818182 
L 410.811631 530.909091 
L 409.466667 525 
L 408.080318 519.090909 
L 406.652586 513.181818 
L 405.183471 507.272727 
L 403.672972 501.363636 
L 402.12109 495.454545 
L 400.527824 489.545455 
L 398.893174 483.636364 
L 397.217141 477.727273 
L 395.499725 471.818182 
L 393.740924 465.909091 
L 391.940741 460 
L 390.099174 454.090909 
L 388.216223 448.181818 
L 386.291889 442.272727 
L 384.326171 436.363636 
L 382.319069 430.454545 
L 380.270585 424.545455 
L 378.180716 418.636364 
L 376.049464 412.727273 
L 373.876829 406.818182 
L 371.66281 400.909091 
L 369.407407 395 
L 367.110621 389.090909 
L 364.772452 383.181818 
L 362.392899 377.272727 
L 359.971962 371.363636 
L 357.509642 365.454545 
L 355.005938 359.545455 
L 352.460851 353.636364 
L 349.87438 347.727273 
L 347.246526 341.818182 
L 344.577288 335.909091 
L 341.866667 330 
L 339.114662 324.090909 
L 336.321273 318.181818 
L 333.486501 312.272727 
L 330.610346 306.363636 
L 327.692807 300.454545 
L 324.733884 294.545455 
L 321.733578 288.636364 
L 318.691889 282.727273 
L 315.608815 276.818182 
L 312.484359 270.909091 
L 309.318519 265 
L 306.111295 259.090909 
L 302.862687 253.181818 
L 299.572697 247.272727 
L 296.241322 241.363636 
L 292.868564 235.454545 
L 289.454423 229.545455 
L 285.998898 223.636364 
L 282.50199 217.727273 
L 278.963698 211.818182 
L 275.384022 205.909091 
L 271.762963 200 
L 268.10052 194.090909 
L 264.396694 188.181818 
L 260.651485 182.272727 
L 256.864891 176.363636 
L 253.036915 170.454545 
L 249.167554 164.545455 
L 245.256811 158.636364 
L 241.304683 152.727273 
L 237.311172 146.818182 
L 233.276278 140.909091 
L 229.2 135 
" style="fill:none;stroke:#0000ff;stroke-linecap:square;stroke-width:2;"/>
   </g>
   <g id="line2d_3">
    <path clip-path="url(#pe1ab27357c)" d="M 624 720 
L 623.979308 714.090909 
L 623.917233 708.181818 
L 623.813774 702.272727 
L 623.668932 696.363636 
L 623.482706 690.454545 
L 623.255096 684.545455 
L 622.986103 678.636364 
L 622.675727 672.727273 
L 622.323967 666.818182 
L 621.930823 660.909091 
L 621.496296 655 
L 621.020386 649.090909 
L 620.503092 643.181818 
L 619.944414 637.272727 
L 619.344353 631.363636 
L 618.702908 625.454545 
L 618.02008 619.545455 
L 617.295868 613.636364 
L 616.530272 607.727273 
L 615.723294 601.818182 
L 614.874931 595.909091 
L 613.985185 590 
L 613.054056 584.090909 
L 612.081543 578.181818 
L 611.067646 572.272727 
L 610.012366 566.363636 
L 608.915702 560.454545 
L 607.777655 554.545455 
L 606.598225 548.636364 
L 605.37741 542.727273 
L 604.115213 536.818182 
L 602.811631 530.909091 
L 601.466667 525 
L 600.080318 519.090909 
L 598.652586 513.181818 
L 597.183471 507.272727 
L 595.672972 501.363636 
L 594.12109 495.454545 
L 592.527824 489.545455 
L 590.893174 483.636364 
L 589.217141 477.727273 
L 587.499725 471.818182 
L 585.740924 465.909091 
L 583.940741 460 
L 582.099174 454.090909 
L 580.216223 448.181818 
L 578.291889 442.272727 
L 576.326171 436.363636 
L 574.319069 430.454545 
L 572.270585 424.545455 
L 570.180716 418.636364 
L 568.049464 412.727273 
L 565.876829 406.818182 
L 563.66281 400.909091 
L 561.407407 395 
L 559.110621 389.090909 
L 556.772452 383.181818 
L 554.392899 377.272727 
L 551.971962 371.363636 
L 549.509642 365.454545 
L 547.005938 359.545455 
L 544.460851 353.636364 
L 541.87438 347.727273 
L 539.246526 341.818182 
L 536.577288 335.909091 
L 533.866667 330 
L 531.114662 324.090909 
L 528.321273 318.181818 
L 525.486501 312.272727 
L 522.610346 306.363636 
L 519.692807 300.454545 
L 516.733884 294.545455 
L 513.733578 288.636364 
L 510.691889 282.727273 
L 507.608815 276.818182 
L 504.484359 270.909091 
L 501.318519 265 
L 498.111295 259.090909 
L 494.862687 253.181818 
L 491.572697 247.272727 
L 488.241322 241.363636 
L 484.868564 235.454545 
L 481.454423 229.545455 
L 477.998898 223.636364 
L 474.50199 217.727273 
L 470.963698 211.818182 
L 467.384022 205.909091 
L 463.762963 200 
L 460.10052 194.090909 
L 456.396694 188.181818 
L 452.651485 182.272727 
L 448.864891 176.363636 
L 445.036915 170.454545 
L 441.167554 164.545455 
L 437.256811 158.636364 
L 433.304683 152.727273 
L 429.311172 146.818182 
L 425.276278 140.909091 
L 421.2 135 
" style="fill:none;stroke:#0000ff;stroke-linecap:square;stroke-width:2;"/>
   </g>
   <g id="line2d_4">
    <defs>
     <path d="M 0 7.5 
C 1.989023 7.5 3.896849 6.709753 5.303301 5.303301 
C 6.709753 3.896849 7.5 1.989023 7.5 0 
C 7.5 -1.989023 6.709753 -3.896849 5.303301 -5.303301 
C 3.896849 -6.709753 1.989023 -7.5 0 -7.5 
C -1.989023 -7.5 -3.896849 -6.709753 -5.303301 -5.303301 
C -6.709753 -3.896849 -7.5 -1.989023 -7.5 0 
C -7.5 1.989023 -6.709753 3.896849 -5.303301 5.303301 
C -3.896849 6.709753 -1.989023 7.5 0 7.5 
z
" id="mb5aacf3002" style="stroke:#0000ff;stroke-width:2;"/>
    </defs>
    <g clip-path="url(#pe1ab27357c)">
     <use style="fill-opacity:0;stroke:#0000ff;stroke-width:2;" x="240" xlink:href="#mb5aacf3002" y="540"/>
     <use style="fill-opacity:0;stroke:#0000ff;stroke-width:2;" x="432" xlink:href="#mb5aacf3002" y="540"/>
     <use style="fill-opacity:0;stroke:#0000ff;stroke-width:2;" x="624" xlink:href="#mb5aacf3002" y="270"/>
    </g>
   </g>
   <g id="line2d_5">
    <path clip-path="url(#pe1ab27357c)" d="M 240 540 
L 220.8 540 
" style="fill:none;stroke:#0000ff;stroke-dasharray:5.55,2.4;stroke-dashoffset:0;stroke-width:1.5;"/>
   </g>
   <g id="line2d_6">
    <path clip-path="url(#pe1ab27357c)" d="M 432 540 
L 412.8 540 
" style="fill:none;stroke:#0000ff;stroke-dasharray:5.55,2.4;stroke-dashoffset:0;stroke-width:1.5;"/>
   </g>
   <g id="line2d_7">
    <path clip-path="url(#pe1ab27357c)" d="M 624 270 
L 504 270 
" style="fill:none;stroke:#0000ff;stroke-dasharray:5.55,2.4;stroke-dashoffset:0;stroke-width:1.5;"/>
   </g>
   <g id="line2d_8">
    <path clip-path="url(#pe1ab27357c)" d="M 240 720 
L 240 90 
" style="fill:none;stroke:#000000;stroke-dasharray:5.55,2.4;stroke-dashoffset:0;stroke-width:1.5;"/>
   </g>
   <g id="line2d_9">
    <path clip-path="url(#pe1ab27357c)" d="M 432 720 
L 432 90 
" style="fill:none;stroke:#000000;stroke-dasharray:5.55,2.4;stroke-dashoffset:0;stroke-width:1.5;"/>
   </g>
   <g id="line2d_10">
    <path clip-path="url(#pe1ab27357c)" d="M 624 720 
L 624 90 
" style="fill:none;stroke:#000000;stroke-dasharray:5.55,2.4;stroke-dashoffset:0;stroke-width:1.5;"/>
   </g>
   <g id="text_1">
    <!-- $\zeta_1$ -->
    <g style="fill:#0000ff;" transform="translate(219.6 526.8)scale(0.2 -0.2)">
     <defs>
      <path d="M 30.71875 6.203125 
Q 37.15625 6.15625 40.28125 2.484375 
Q 43.65625 -1.375 42.53125 -7.234375 
Q 41.40625 -12.84375 37.0625 -16.75 
Q 32.328125 -21 24.359375 -21 
Q 25.09375 -17.328125 25.78125 -13.625 
Q 29.109375 -13.875 31.59375 -11.71875 
Q 33.5 -10.015625 33.84375 -8.203125 
Q 34.328125 -5.609375 33.203125 -3.46875 
Q 32.03125 -1.421875 29.25 -1.421875 
Q -0.34375 -1.421875 4.9375 26.078125 
Q 9.625 50.09375 40.765625 66.9375 
L 14.796875 66.9375 
L 16.546875 75.984375 
L 59.03125 75.984375 
L 57.28125 66.9375 
Q 18.453125 49.171875 13.96875 26.078125 
Q 10.109375 6.203125 30.71875 6.203125 
z
" id="DejaVuSans-Oblique-950"/>
      <path d="M 12.40625 8.296875 
L 28.515625 8.296875 
L 28.515625 63.921875 
L 10.984375 60.40625 
L 10.984375 69.390625 
L 28.421875 72.90625 
L 38.28125 72.90625 
L 38.28125 8.296875 
L 54.390625 8.296875 
L 54.390625 0 
L 12.40625 0 
z
" id="DejaVuSans-49"/>
     </defs>
     <use transform="translate(0 0.015625)" xlink:href="#DejaVuSans-Oblique-950"/>
     <use transform="translate(54.394531 -16.390625)scale(0.7)" xlink:href="#DejaVuSans-49"/>
    </g>
   </g>
   <g id="text_2">
    <!-- $\zeta_2$ -->
    <g style="fill:#0000ff;" transform="translate(411.6 526.8)scale(0.2 -0.2)">
     <defs>
      <path d="M 19.1875 8.296875 
L 53.609375 8.296875 
L 53.609375 0 
L 7.328125 0 
L 7.328125 8.296875 
Q 12.9375 14.109375 22.625 23.890625 
Q 32.328125 33.6875 34.8125 36.53125 
Q 39.546875 41.84375 41.421875 45.53125 
Q 43.3125 49.21875 43.3125 52.78125 
Q 43.3125 58.59375 39.234375 62.25 
Q 35.15625 65.921875 28.609375 65.921875 
Q 23.96875 65.921875 18.8125 64.3125 
Q 13.671875 62.703125 7.8125 59.421875 
L 7.8125 69.390625 
Q 13.765625 71.78125 18.9375 73 
Q 24.125 74.21875 28.421875 74.21875 
Q 39.75 74.21875 46.484375 68.546875 
Q 53.21875 62.890625 53.21875 53.421875 
Q 53.21875 48.921875 51.53125 44.890625 
Q 49.859375 40.875 45.40625 35.40625 
Q 44.1875 33.984375 37.640625 27.21875 
Q 31.109375 20.453125 19.1875 8.296875 
z
" id="DejaVuSans-50"/>
     </defs>
     <use transform="translate(0 0.015625)" xlink:href="#DejaVuSans-Oblique-950"/>
     <use transform="translate(54.394531 -16.390625)scale(0.7)" xlink:href="#DejaVuSans-50"/>
    </g>
   </g>
   <g id="text_3">
    <!-- $\zeta_h=\zeta$ -->
    <g style="fill:#0000ff;" transform="translate(568.2 256.8)scale(0.2 -0.2)">
     <defs>
      <path d="M 55.71875 33.015625 
L 49.3125 0 
L 40.28125 0 
L 46.6875 32.671875 
Q 47.125 34.96875 47.359375 36.71875 
Q 47.609375 38.484375 47.609375 39.5 
Q 47.609375 43.609375 45.015625 45.890625 
Q 42.4375 48.1875 37.796875 48.1875 
Q 30.5625 48.1875 25.265625 43.296875 
Q 19.96875 38.421875 18.40625 30.328125 
L 12.5 0 
L 3.515625 0 
L 18.3125 75.984375 
L 27.296875 75.984375 
L 21.484375 46.09375 
Q 24.90625 50.6875 30.21875 53.34375 
Q 35.546875 56 41.40625 56 
Q 48.640625 56 52.609375 52.09375 
Q 56.59375 48.1875 56.59375 41.109375 
Q 56.59375 39.359375 56.375 37.359375 
Q 56.15625 35.359375 55.71875 33.015625 
z
" id="DejaVuSans-Oblique-104"/>
      <path d="M 10.59375 45.40625 
L 73.1875 45.40625 
L 73.1875 37.203125 
L 10.59375 37.203125 
z
M 10.59375 25.484375 
L 73.1875 25.484375 
L 73.1875 17.1875 
L 10.59375 17.1875 
z
" id="DejaVuSans-61"/>
     </defs>
     <use transform="translate(0 0.015625)" xlink:href="#DejaVuSans-Oblique-950"/>
     <use transform="translate(54.394531 -16.390625)scale(0.7)" xlink:href="#DejaVuSans-Oblique-104"/>
     <use transform="translate(120.976562 0.015625)" xlink:href="#DejaVuSans-61"/>
     <use transform="translate(224.248047 0.015625)" xlink:href="#DejaVuSans-Oblique-950"/>
    </g>
   </g>
   <g id="text_4">
    <!-- $h_1$ -->
    <g style="fill:#ff0000;" transform="translate(249.6 555.196875)scale(0.2 -0.2)">
     <use transform="translate(0 0.015625)" xlink:href="#DejaVuSans-Oblique-104"/>
     <use transform="translate(63.378906 -16.390625)scale(0.7)" xlink:href="#DejaVuSans-49"/>
    </g>
   </g>
   <g id="text_5">
    <!-- $h_2$ -->
    <g style="fill:#ff0000;" transform="translate(441.6 735.196875)scale(0.2 -0.2)">
     <use transform="translate(0 0.015625)" xlink:href="#DejaVuSans-Oblique-104"/>
     <use transform="translate(63.378906 -16.390625)scale(0.7)" xlink:href="#DejaVuSans-50"/>
    </g>
   </g>
   <g id="text_6">
    <!-- $h_N$ -->
    <g style="fill:#ff0000;" transform="translate(633.6 465.196875)scale(0.2 -0.2)">
     <defs>
      <path d="M 16.890625 72.90625 
L 30.171875 72.90625 
L 50.296875 10.40625 
L 62.5 72.90625 
L 72.125 72.90625 
L 57.90625 0 
L 44.578125 0 
L 24.515625 62.890625 
L 12.3125 0 
L 2.6875 0 
z
" id="DejaVuSans-Oblique-78"/>
     </defs>
     <use transform="translate(0 0.015625)" xlink:href="#DejaVuSans-Oblique-104"/>
     <use transform="translate(63.378906 -16.390625)scale(0.7)" xlink:href="#DejaVuSans-Oblique-78"/>
    </g>
   </g>
   <g id="text_7">
    <!-- $z_1$ -->
    <g transform="translate(230 81)scale(0.2 -0.2)">
     <defs>
      <path d="M 11.625 54.6875 
L 54.296875 54.6875 
L 52.6875 46.484375 
L 11.53125 7.171875 
L 45.515625 7.171875 
L 44.09375 0 
L -0.296875 0 
L 1.3125 8.203125 
L 42.484375 47.515625 
L 10.203125 47.515625 
z
" id="DejaVuSans-Oblique-122"/>
     </defs>
     <use transform="translate(0 0.3125)" xlink:href="#DejaVuSans-Oblique-122"/>
     <use transform="translate(52.490234 -16.09375)scale(0.7)" xlink:href="#DejaVuSans-49"/>
    </g>
   </g>
   <g id="text_8">
    <!-- $z_2$ -->
    <g transform="translate(422 81)scale(0.2 -0.2)">
     <use transform="translate(0 0.3125)" xlink:href="#DejaVuSans-Oblique-122"/>
     <use transform="translate(52.490234 -16.09375)scale(0.7)" xlink:href="#DejaVuSans-50"/>
    </g>
   </g>
   <g id="text_9">
    <!-- $z_3$ -->
    <g transform="translate(614 81)scale(0.2 -0.2)">
     <defs>
      <path d="M 40.578125 39.3125 
Q 47.65625 37.796875 51.625 33 
Q 55.609375 28.21875 55.609375 21.1875 
Q 55.609375 10.40625 48.1875 4.484375 
Q 40.765625 -1.421875 27.09375 -1.421875 
Q 22.515625 -1.421875 17.65625 -0.515625 
Q 12.796875 0.390625 7.625 2.203125 
L 7.625 11.71875 
Q 11.71875 9.328125 16.59375 8.109375 
Q 21.484375 6.890625 26.8125 6.890625 
Q 36.078125 6.890625 40.9375 10.546875 
Q 45.796875 14.203125 45.796875 21.1875 
Q 45.796875 27.640625 41.28125 31.265625 
Q 36.765625 34.90625 28.71875 34.90625 
L 20.21875 34.90625 
L 20.21875 43.015625 
L 29.109375 43.015625 
Q 36.375 43.015625 40.234375 45.921875 
Q 44.09375 48.828125 44.09375 54.296875 
Q 44.09375 59.90625 40.109375 62.90625 
Q 36.140625 65.921875 28.71875 65.921875 
Q 24.65625 65.921875 20.015625 65.03125 
Q 15.375 64.15625 9.8125 62.3125 
L 9.8125 71.09375 
Q 15.4375 72.65625 20.34375 73.4375 
Q 25.25 74.21875 29.59375 74.21875 
Q 40.828125 74.21875 47.359375 69.109375 
Q 53.90625 64.015625 53.90625 55.328125 
Q 53.90625 49.265625 50.4375 45.09375 
Q 46.96875 40.921875 40.578125 39.3125 
z
" id="DejaVuSans-51"/>
     </defs>
     <use transform="translate(0 0.3125)" xlink:href="#DejaVuSans-Oblique-122"/>
     <use transform="translate(52.490234 -16.09375)scale(0.7)" xlink:href="#DejaVuSans-51"/>
    </g>
   </g>
  </g>
 </g>
 <defs>
  <clipPath id="pe1ab27357c">
   <rect height="810" width="720" x="0" y="0"/>
  </clipPath>
 </defs>
</svg>
