<?xml version="1.0" encoding="utf-8" standalone="no"?>
<!DOCTYPE svg PUBLIC "-//W3C//DTD SVG 1.1//EN"
  "http://www.w3.org/Graphics/SVG/1.1/DTD/svg11.dtd">
<!-- Created with matplotlib (https://matplotlib.org/) -->
<svg height="810pt" version="1.1" viewBox="0 0 720 810" width="720pt" xmlns="http://www.w3.org/2000/svg" xmlns:xlink="http://www.w3.org/1999/xlink">
 <metadata>
  <rdf:RDF xmlns:cc="http://creativecommons.org/ns#" xmlns:dc="http://purl.org/dc/elements/1.1/" xmlns:rdf="http://www.w3.org/1999/02/22-rdf-syntax-ns#">
   <cc:Work>
    <dc:type rdf:resource="http://purl.org/dc/dcmitype/StillImage"/>
    <dc:date>2021-07-15T09:38:22.441218</dc:date>
    <dc:format>image/svg+xml</dc:format>
    <dc:creator>
     <cc:Agent>
      <dc:title>Matplotlib v3.3.1, https://matplotlib.org/</dc:title>
     </cc:Agent>
    </dc:creator>
   </cc:Work>
  </rdf:RDF>
 </metadata>
 <defs>
  <style type="text/css">*{stroke-linecap:butt;stroke-linejoin:round;}</style>
 </defs>
 <g id="figure_1">
  <g id="patch_1">
   <path d="M 0 810 
L 720 810 
L 720 0 
L 0 0 
z
" style="fill:#ffffff;"/>
  </g>
  <g id="axes_1">
   <g id="patch_2">
    <path d="M 108 720.9 
L 698.4 720.9 
L 698.4 56.7 
L 108 56.7 
z
" style="fill:#ffffff;"/>
   </g>
   <g id="matplotlib.axis_1">
    <g id="xtick_1">
     <g id="line2d_1">
      <path clip-path="url(#pe0b8b22b59)" d="M 130.531065 720.9 
L 130.531065 56.7 
" style="fill:none;stroke:#e6e6e6;stroke-linecap:square;stroke-width:0.8;"/>
     </g>
     <g id="line2d_2">
      <defs>
       <path d="M 0 0 
L 0 3.5 
" id="m9b3a0469f1" style="stroke:#000000;stroke-width:0.8;"/>
      </defs>
      <g>
       <use style="stroke:#000000;stroke-width:0.8;" x="130.531065" xlink:href="#m9b3a0469f1" y="720.9"/>
      </g>
     </g>
     <g id="text_1">
      <!-- 0.0 -->
      <g transform="translate(118.603721 739.297656)scale(0.15 -0.15)">
       <defs>
        <path d="M 31.78125 66.40625 
Q 24.171875 66.40625 20.328125 58.90625 
Q 16.5 51.421875 16.5 36.375 
Q 16.5 21.390625 20.328125 13.890625 
Q 24.171875 6.390625 31.78125 6.390625 
Q 39.453125 6.390625 43.28125 13.890625 
Q 47.125 21.390625 47.125 36.375 
Q 47.125 51.421875 43.28125 58.90625 
Q 39.453125 66.40625 31.78125 66.40625 
z
M 31.78125 74.21875 
Q 44.046875 74.21875 50.515625 64.515625 
Q 56.984375 54.828125 56.984375 36.375 
Q 56.984375 17.96875 50.515625 8.265625 
Q 44.046875 -1.421875 31.78125 -1.421875 
Q 19.53125 -1.421875 13.0625 8.265625 
Q 6.59375 17.96875 6.59375 36.375 
Q 6.59375 54.828125 13.0625 64.515625 
Q 19.53125 74.21875 31.78125 74.21875 
z
" id="DejaVuSans-48"/>
        <path d="M 10.6875 12.40625 
L 21 12.40625 
L 21 0 
L 10.6875 0 
z
" id="DejaVuSans-46"/>
       </defs>
       <use xlink:href="#DejaVuSans-48"/>
       <use x="63.623047" xlink:href="#DejaVuSans-46"/>
       <use x="95.410156" xlink:href="#DejaVuSans-48"/>
      </g>
     </g>
    </g>
    <g id="xtick_2">
     <g id="line2d_3">
      <path clip-path="url(#pe0b8b22b59)" d="M 202.286048 720.9 
L 202.286048 56.7 
" style="fill:none;stroke:#e6e6e6;stroke-linecap:square;stroke-width:0.8;"/>
     </g>
     <g id="line2d_4">
      <g>
       <use style="stroke:#000000;stroke-width:0.8;" x="202.286048" xlink:href="#m9b3a0469f1" y="720.9"/>
      </g>
     </g>
     <g id="text_2">
      <!-- 2.5 -->
      <g transform="translate(190.358704 739.297656)scale(0.15 -0.15)">
       <defs>
        <path d="M 19.1875 8.296875 
L 53.609375 8.296875 
L 53.609375 0 
L 7.328125 0 
L 7.328125 8.296875 
Q 12.9375 14.109375 22.625 23.890625 
Q 32.328125 33.6875 34.8125 36.53125 
Q 39.546875 41.84375 41.421875 45.53125 
Q 43.3125 49.21875 43.3125 52.78125 
Q 43.3125 58.59375 39.234375 62.25 
Q 35.15625 65.921875 28.609375 65.921875 
Q 23.96875 65.921875 18.8125 64.3125 
Q 13.671875 62.703125 7.8125 59.421875 
L 7.8125 69.390625 
Q 13.765625 71.78125 18.9375 73 
Q 24.125 74.21875 28.421875 74.21875 
Q 39.75 74.21875 46.484375 68.546875 
Q 53.21875 62.890625 53.21875 53.421875 
Q 53.21875 48.921875 51.53125 44.890625 
Q 49.859375 40.875 45.40625 35.40625 
Q 44.1875 33.984375 37.640625 27.21875 
Q 31.109375 20.453125 19.1875 8.296875 
z
" id="DejaVuSans-50"/>
        <path d="M 10.796875 72.90625 
L 49.515625 72.90625 
L 49.515625 64.59375 
L 19.828125 64.59375 
L 19.828125 46.734375 
Q 21.96875 47.46875 24.109375 47.828125 
Q 26.265625 48.1875 28.421875 48.1875 
Q 40.625 48.1875 47.75 41.5 
Q 54.890625 34.8125 54.890625 23.390625 
Q 54.890625 11.625 47.5625 5.09375 
Q 40.234375 -1.421875 26.90625 -1.421875 
Q 22.3125 -1.421875 17.546875 -0.640625 
Q 12.796875 0.140625 7.71875 1.703125 
L 7.71875 11.625 
Q 12.109375 9.234375 16.796875 8.0625 
Q 21.484375 6.890625 26.703125 6.890625 
Q 35.15625 6.890625 40.078125 11.328125 
Q 45.015625 15.765625 45.015625 23.390625 
Q 45.015625 31 40.078125 35.4375 
Q 35.15625 39.890625 26.703125 39.890625 
Q 22.75 39.890625 18.8125 39.015625 
Q 14.890625 38.140625 10.796875 36.28125 
z
" id="DejaVuSans-53"/>
       </defs>
       <use xlink:href="#DejaVuSans-50"/>
       <use x="63.623047" xlink:href="#DejaVuSans-46"/>
       <use x="95.410156" xlink:href="#DejaVuSans-53"/>
      </g>
     </g>
    </g>
    <g id="xtick_3">
     <g id="line2d_5">
      <path clip-path="url(#pe0b8b22b59)" d="M 274.041031 720.9 
L 274.041031 56.7 
" style="fill:none;stroke:#e6e6e6;stroke-linecap:square;stroke-width:0.8;"/>
     </g>
     <g id="line2d_6">
      <g>
       <use style="stroke:#000000;stroke-width:0.8;" x="274.041031" xlink:href="#m9b3a0469f1" y="720.9"/>
      </g>
     </g>
     <g id="text_3">
      <!-- 5.0 -->
      <g transform="translate(262.113687 739.297656)scale(0.15 -0.15)">
       <use xlink:href="#DejaVuSans-53"/>
       <use x="63.623047" xlink:href="#DejaVuSans-46"/>
       <use x="95.410156" xlink:href="#DejaVuSans-48"/>
      </g>
     </g>
    </g>
    <g id="xtick_4">
     <g id="line2d_7">
      <path clip-path="url(#pe0b8b22b59)" d="M 345.796014 720.9 
L 345.796014 56.7 
" style="fill:none;stroke:#e6e6e6;stroke-linecap:square;stroke-width:0.8;"/>
     </g>
     <g id="line2d_8">
      <g>
       <use style="stroke:#000000;stroke-width:0.8;" x="345.796014" xlink:href="#m9b3a0469f1" y="720.9"/>
      </g>
     </g>
     <g id="text_4">
      <!-- 7.5 -->
      <g transform="translate(333.86867 739.297656)scale(0.15 -0.15)">
       <defs>
        <path d="M 8.203125 72.90625 
L 55.078125 72.90625 
L 55.078125 68.703125 
L 28.609375 0 
L 18.3125 0 
L 43.21875 64.59375 
L 8.203125 64.59375 
z
" id="DejaVuSans-55"/>
       </defs>
       <use xlink:href="#DejaVuSans-55"/>
       <use x="63.623047" xlink:href="#DejaVuSans-46"/>
       <use x="95.410156" xlink:href="#DejaVuSans-53"/>
      </g>
     </g>
    </g>
    <g id="xtick_5">
     <g id="line2d_9">
      <path clip-path="url(#pe0b8b22b59)" d="M 417.550997 720.9 
L 417.550997 56.7 
" style="fill:none;stroke:#e6e6e6;stroke-linecap:square;stroke-width:0.8;"/>
     </g>
     <g id="line2d_10">
      <g>
       <use style="stroke:#000000;stroke-width:0.8;" x="417.550997" xlink:href="#m9b3a0469f1" y="720.9"/>
      </g>
     </g>
     <g id="text_5">
      <!-- 10.0 -->
      <g transform="translate(400.851778 739.297656)scale(0.15 -0.15)">
       <defs>
        <path d="M 12.40625 8.296875 
L 28.515625 8.296875 
L 28.515625 63.921875 
L 10.984375 60.40625 
L 10.984375 69.390625 
L 28.421875 72.90625 
L 38.28125 72.90625 
L 38.28125 8.296875 
L 54.390625 8.296875 
L 54.390625 0 
L 12.40625 0 
z
" id="DejaVuSans-49"/>
       </defs>
       <use xlink:href="#DejaVuSans-49"/>
       <use x="63.623047" xlink:href="#DejaVuSans-48"/>
       <use x="127.246094" xlink:href="#DejaVuSans-46"/>
       <use x="159.033203" xlink:href="#DejaVuSans-48"/>
      </g>
     </g>
    </g>
    <g id="xtick_6">
     <g id="line2d_11">
      <path clip-path="url(#pe0b8b22b59)" d="M 489.30598 720.9 
L 489.30598 56.7 
" style="fill:none;stroke:#e6e6e6;stroke-linecap:square;stroke-width:0.8;"/>
     </g>
     <g id="line2d_12">
      <g>
       <use style="stroke:#000000;stroke-width:0.8;" x="489.30598" xlink:href="#m9b3a0469f1" y="720.9"/>
      </g>
     </g>
     <g id="text_6">
      <!-- 12.5 -->
      <g transform="translate(472.606761 739.297656)scale(0.15 -0.15)">
       <use xlink:href="#DejaVuSans-49"/>
       <use x="63.623047" xlink:href="#DejaVuSans-50"/>
       <use x="127.246094" xlink:href="#DejaVuSans-46"/>
       <use x="159.033203" xlink:href="#DejaVuSans-53"/>
      </g>
     </g>
    </g>
    <g id="xtick_7">
     <g id="line2d_13">
      <path clip-path="url(#pe0b8b22b59)" d="M 561.060963 720.9 
L 561.060963 56.7 
" style="fill:none;stroke:#e6e6e6;stroke-linecap:square;stroke-width:0.8;"/>
     </g>
     <g id="line2d_14">
      <g>
       <use style="stroke:#000000;stroke-width:0.8;" x="561.060963" xlink:href="#m9b3a0469f1" y="720.9"/>
      </g>
     </g>
     <g id="text_7">
      <!-- 15.0 -->
      <g transform="translate(544.361744 739.297656)scale(0.15 -0.15)">
       <use xlink:href="#DejaVuSans-49"/>
       <use x="63.623047" xlink:href="#DejaVuSans-53"/>
       <use x="127.246094" xlink:href="#DejaVuSans-46"/>
       <use x="159.033203" xlink:href="#DejaVuSans-48"/>
      </g>
     </g>
    </g>
    <g id="xtick_8">
     <g id="line2d_15">
      <path clip-path="url(#pe0b8b22b59)" d="M 632.815946 720.9 
L 632.815946 56.7 
" style="fill:none;stroke:#e6e6e6;stroke-linecap:square;stroke-width:0.8;"/>
     </g>
     <g id="line2d_16">
      <g>
       <use style="stroke:#000000;stroke-width:0.8;" x="632.815946" xlink:href="#m9b3a0469f1" y="720.9"/>
      </g>
     </g>
     <g id="text_8">
      <!-- 17.5 -->
      <g transform="translate(616.116727 739.297656)scale(0.15 -0.15)">
       <use xlink:href="#DejaVuSans-49"/>
       <use x="63.623047" xlink:href="#DejaVuSans-55"/>
       <use x="127.246094" xlink:href="#DejaVuSans-46"/>
       <use x="159.033203" xlink:href="#DejaVuSans-53"/>
      </g>
     </g>
    </g>
    <g id="text_9">
     <!-- frame -->
     <g transform="translate(366.133594 765.413281)scale(0.25 -0.25)">
      <defs>
       <path d="M 37.109375 75.984375 
L 37.109375 68.5 
L 28.515625 68.5 
Q 23.6875 68.5 21.796875 66.546875 
Q 19.921875 64.59375 19.921875 59.515625 
L 19.921875 54.6875 
L 34.71875 54.6875 
L 34.71875 47.703125 
L 19.921875 47.703125 
L 19.921875 0 
L 10.890625 0 
L 10.890625 47.703125 
L 2.296875 47.703125 
L 2.296875 54.6875 
L 10.890625 54.6875 
L 10.890625 58.5 
Q 10.890625 67.625 15.140625 71.796875 
Q 19.390625 75.984375 28.609375 75.984375 
z
" id="DejaVuSans-102"/>
       <path d="M 41.109375 46.296875 
Q 39.59375 47.171875 37.8125 47.578125 
Q 36.03125 48 33.890625 48 
Q 26.265625 48 22.1875 43.046875 
Q 18.109375 38.09375 18.109375 28.8125 
L 18.109375 0 
L 9.078125 0 
L 9.078125 54.6875 
L 18.109375 54.6875 
L 18.109375 46.1875 
Q 20.953125 51.171875 25.484375 53.578125 
Q 30.03125 56 36.53125 56 
Q 37.453125 56 38.578125 55.875 
Q 39.703125 55.765625 41.0625 55.515625 
z
" id="DejaVuSans-114"/>
       <path d="M 34.28125 27.484375 
Q 23.390625 27.484375 19.1875 25 
Q 14.984375 22.515625 14.984375 16.5 
Q 14.984375 11.71875 18.140625 8.90625 
Q 21.296875 6.109375 26.703125 6.109375 
Q 34.1875 6.109375 38.703125 11.40625 
Q 43.21875 16.703125 43.21875 25.484375 
L 43.21875 27.484375 
z
M 52.203125 31.203125 
L 52.203125 0 
L 43.21875 0 
L 43.21875 8.296875 
Q 40.140625 3.328125 35.546875 0.953125 
Q 30.953125 -1.421875 24.3125 -1.421875 
Q 15.921875 -1.421875 10.953125 3.296875 
Q 6 8.015625 6 15.921875 
Q 6 25.140625 12.171875 29.828125 
Q 18.359375 34.515625 30.609375 34.515625 
L 43.21875 34.515625 
L 43.21875 35.40625 
Q 43.21875 41.609375 39.140625 45 
Q 35.0625 48.390625 27.6875 48.390625 
Q 23 48.390625 18.546875 47.265625 
Q 14.109375 46.140625 10.015625 43.890625 
L 10.015625 52.203125 
Q 14.9375 54.109375 19.578125 55.046875 
Q 24.21875 56 28.609375 56 
Q 40.484375 56 46.34375 49.84375 
Q 52.203125 43.703125 52.203125 31.203125 
z
" id="DejaVuSans-97"/>
       <path d="M 52 44.1875 
Q 55.375 50.25 60.0625 53.125 
Q 64.75 56 71.09375 56 
Q 79.640625 56 84.28125 50.015625 
Q 88.921875 44.046875 88.921875 33.015625 
L 88.921875 0 
L 79.890625 0 
L 79.890625 32.71875 
Q 79.890625 40.578125 77.09375 44.375 
Q 74.3125 48.1875 68.609375 48.1875 
Q 61.625 48.1875 57.5625 43.546875 
Q 53.515625 38.921875 53.515625 30.90625 
L 53.515625 0 
L 44.484375 0 
L 44.484375 32.71875 
Q 44.484375 40.625 41.703125 44.40625 
Q 38.921875 48.1875 33.109375 48.1875 
Q 26.21875 48.1875 22.15625 43.53125 
Q 18.109375 38.875 18.109375 30.90625 
L 18.109375 0 
L 9.078125 0 
L 9.078125 54.6875 
L 18.109375 54.6875 
L 18.109375 46.1875 
Q 21.1875 51.21875 25.484375 53.609375 
Q 29.78125 56 35.6875 56 
Q 41.65625 56 45.828125 52.96875 
Q 50 49.953125 52 44.1875 
z
" id="DejaVuSans-109"/>
       <path d="M 56.203125 29.59375 
L 56.203125 25.203125 
L 14.890625 25.203125 
Q 15.484375 15.921875 20.484375 11.0625 
Q 25.484375 6.203125 34.421875 6.203125 
Q 39.59375 6.203125 44.453125 7.46875 
Q 49.3125 8.734375 54.109375 11.28125 
L 54.109375 2.78125 
Q 49.265625 0.734375 44.1875 -0.34375 
Q 39.109375 -1.421875 33.890625 -1.421875 
Q 20.796875 -1.421875 13.15625 6.1875 
Q 5.515625 13.8125 5.515625 26.8125 
Q 5.515625 40.234375 12.765625 48.109375 
Q 20.015625 56 32.328125 56 
Q 43.359375 56 49.78125 48.890625 
Q 56.203125 41.796875 56.203125 29.59375 
z
M 47.21875 32.234375 
Q 47.125 39.59375 43.09375 43.984375 
Q 39.0625 48.390625 32.421875 48.390625 
Q 24.90625 48.390625 20.390625 44.140625 
Q 15.875 39.890625 15.1875 32.171875 
z
" id="DejaVuSans-101"/>
      </defs>
      <use xlink:href="#DejaVuSans-102"/>
      <use x="35.205078" xlink:href="#DejaVuSans-114"/>
      <use x="76.318359" xlink:href="#DejaVuSans-97"/>
      <use x="137.597656" xlink:href="#DejaVuSans-109"/>
      <use x="235.009766" xlink:href="#DejaVuSans-101"/>
     </g>
    </g>
   </g>
   <g id="matplotlib.axis_2">
    <g id="ytick_1">
     <g id="line2d_17">
      <path clip-path="url(#pe0b8b22b59)" d="M 108 663.293152 
L 698.4 663.293152 
" style="fill:none;stroke:#e6e6e6;stroke-linecap:square;stroke-width:0.8;"/>
     </g>
     <g id="line2d_18">
      <defs>
       <path d="M 0 0 
L -3.5 0 
" id="ma19e24354a" style="stroke:#000000;stroke-width:0.8;"/>
      </defs>
      <g>
       <use style="stroke:#000000;stroke-width:0.8;" x="108" xlink:href="#ma19e24354a" y="663.293152"/>
      </g>
     </g>
     <g id="text_10">
      <!-- 0.0 -->
      <g transform="translate(77.145313 668.99198)scale(0.15 -0.15)">
       <use xlink:href="#DejaVuSans-48"/>
       <use x="63.623047" xlink:href="#DejaVuSans-46"/>
       <use x="95.410156" xlink:href="#DejaVuSans-48"/>
      </g>
     </g>
    </g>
    <g id="ytick_2">
     <g id="line2d_19">
      <path clip-path="url(#pe0b8b22b59)" d="M 108 573.727744 
L 698.4 573.727744 
" style="fill:none;stroke:#e6e6e6;stroke-linecap:square;stroke-width:0.8;"/>
     </g>
     <g id="line2d_20">
      <g>
       <use style="stroke:#000000;stroke-width:0.8;" x="108" xlink:href="#ma19e24354a" y="573.727744"/>
      </g>
     </g>
     <g id="text_11">
      <!-- 0.1 -->
      <g transform="translate(77.145313 579.426572)scale(0.15 -0.15)">
       <use xlink:href="#DejaVuSans-48"/>
       <use x="63.623047" xlink:href="#DejaVuSans-46"/>
       <use x="95.410156" xlink:href="#DejaVuSans-49"/>
      </g>
     </g>
    </g>
    <g id="ytick_3">
     <g id="line2d_21">
      <path clip-path="url(#pe0b8b22b59)" d="M 108 484.162337 
L 698.4 484.162337 
" style="fill:none;stroke:#e6e6e6;stroke-linecap:square;stroke-width:0.8;"/>
     </g>
     <g id="line2d_22">
      <g>
       <use style="stroke:#000000;stroke-width:0.8;" x="108" xlink:href="#ma19e24354a" y="484.162337"/>
      </g>
     </g>
     <g id="text_12">
      <!-- 0.2 -->
      <g transform="translate(77.145313 489.861165)scale(0.15 -0.15)">
       <use xlink:href="#DejaVuSans-48"/>
       <use x="63.623047" xlink:href="#DejaVuSans-46"/>
       <use x="95.410156" xlink:href="#DejaVuSans-50"/>
      </g>
     </g>
    </g>
    <g id="ytick_4">
     <g id="line2d_23">
      <path clip-path="url(#pe0b8b22b59)" d="M 108 394.59693 
L 698.4 394.59693 
" style="fill:none;stroke:#e6e6e6;stroke-linecap:square;stroke-width:0.8;"/>
     </g>
     <g id="line2d_24">
      <g>
       <use style="stroke:#000000;stroke-width:0.8;" x="108" xlink:href="#ma19e24354a" y="394.59693"/>
      </g>
     </g>
     <g id="text_13">
      <!-- 0.3 -->
      <g transform="translate(77.145313 400.295758)scale(0.15 -0.15)">
       <defs>
        <path d="M 40.578125 39.3125 
Q 47.65625 37.796875 51.625 33 
Q 55.609375 28.21875 55.609375 21.1875 
Q 55.609375 10.40625 48.1875 4.484375 
Q 40.765625 -1.421875 27.09375 -1.421875 
Q 22.515625 -1.421875 17.65625 -0.515625 
Q 12.796875 0.390625 7.625 2.203125 
L 7.625 11.71875 
Q 11.71875 9.328125 16.59375 8.109375 
Q 21.484375 6.890625 26.8125 6.890625 
Q 36.078125 6.890625 40.9375 10.546875 
Q 45.796875 14.203125 45.796875 21.1875 
Q 45.796875 27.640625 41.28125 31.265625 
Q 36.765625 34.90625 28.71875 34.90625 
L 20.21875 34.90625 
L 20.21875 43.015625 
L 29.109375 43.015625 
Q 36.375 43.015625 40.234375 45.921875 
Q 44.09375 48.828125 44.09375 54.296875 
Q 44.09375 59.90625 40.109375 62.90625 
Q 36.140625 65.921875 28.71875 65.921875 
Q 24.65625 65.921875 20.015625 65.03125 
Q 15.375 64.15625 9.8125 62.3125 
L 9.8125 71.09375 
Q 15.4375 72.65625 20.34375 73.4375 
Q 25.25 74.21875 29.59375 74.21875 
Q 40.828125 74.21875 47.359375 69.109375 
Q 53.90625 64.015625 53.90625 55.328125 
Q 53.90625 49.265625 50.4375 45.09375 
Q 46.96875 40.921875 40.578125 39.3125 
z
" id="DejaVuSans-51"/>
       </defs>
       <use xlink:href="#DejaVuSans-48"/>
       <use x="63.623047" xlink:href="#DejaVuSans-46"/>
       <use x="95.410156" xlink:href="#DejaVuSans-51"/>
      </g>
     </g>
    </g>
    <g id="ytick_5">
     <g id="line2d_25">
      <path clip-path="url(#pe0b8b22b59)" d="M 108 305.031522 
L 698.4 305.031522 
" style="fill:none;stroke:#e6e6e6;stroke-linecap:square;stroke-width:0.8;"/>
     </g>
     <g id="line2d_26">
      <g>
       <use style="stroke:#000000;stroke-width:0.8;" x="108" xlink:href="#ma19e24354a" y="305.031522"/>
      </g>
     </g>
     <g id="text_14">
      <!-- 0.4 -->
      <g transform="translate(77.145313 310.73035)scale(0.15 -0.15)">
       <defs>
        <path d="M 37.796875 64.3125 
L 12.890625 25.390625 
L 37.796875 25.390625 
z
M 35.203125 72.90625 
L 47.609375 72.90625 
L 47.609375 25.390625 
L 58.015625 25.390625 
L 58.015625 17.1875 
L 47.609375 17.1875 
L 47.609375 0 
L 37.796875 0 
L 37.796875 17.1875 
L 4.890625 17.1875 
L 4.890625 26.703125 
z
" id="DejaVuSans-52"/>
       </defs>
       <use xlink:href="#DejaVuSans-48"/>
       <use x="63.623047" xlink:href="#DejaVuSans-46"/>
       <use x="95.410156" xlink:href="#DejaVuSans-52"/>
      </g>
     </g>
    </g>
    <g id="ytick_6">
     <g id="line2d_27">
      <path clip-path="url(#pe0b8b22b59)" d="M 108 215.466115 
L 698.4 215.466115 
" style="fill:none;stroke:#e6e6e6;stroke-linecap:square;stroke-width:0.8;"/>
     </g>
     <g id="line2d_28">
      <g>
       <use style="stroke:#000000;stroke-width:0.8;" x="108" xlink:href="#ma19e24354a" y="215.466115"/>
      </g>
     </g>
     <g id="text_15">
      <!-- 0.5 -->
      <g transform="translate(77.145313 221.164943)scale(0.15 -0.15)">
       <use xlink:href="#DejaVuSans-48"/>
       <use x="63.623047" xlink:href="#DejaVuSans-46"/>
       <use x="95.410156" xlink:href="#DejaVuSans-53"/>
      </g>
     </g>
    </g>
    <g id="ytick_7">
     <g id="line2d_29">
      <path clip-path="url(#pe0b8b22b59)" d="M 108 125.900708 
L 698.4 125.900708 
" style="fill:none;stroke:#e6e6e6;stroke-linecap:square;stroke-width:0.8;"/>
     </g>
     <g id="line2d_30">
      <g>
       <use style="stroke:#000000;stroke-width:0.8;" x="108" xlink:href="#ma19e24354a" y="125.900708"/>
      </g>
     </g>
     <g id="text_16">
      <!-- 0.6 -->
      <g transform="translate(77.145313 131.599536)scale(0.15 -0.15)">
       <defs>
        <path d="M 33.015625 40.375 
Q 26.375 40.375 22.484375 35.828125 
Q 18.609375 31.296875 18.609375 23.390625 
Q 18.609375 15.53125 22.484375 10.953125 
Q 26.375 6.390625 33.015625 6.390625 
Q 39.65625 6.390625 43.53125 10.953125 
Q 47.40625 15.53125 47.40625 23.390625 
Q 47.40625 31.296875 43.53125 35.828125 
Q 39.65625 40.375 33.015625 40.375 
z
M 52.59375 71.296875 
L 52.59375 62.3125 
Q 48.875 64.0625 45.09375 64.984375 
Q 41.3125 65.921875 37.59375 65.921875 
Q 27.828125 65.921875 22.671875 59.328125 
Q 17.53125 52.734375 16.796875 39.40625 
Q 19.671875 43.65625 24.015625 45.921875 
Q 28.375 48.1875 33.59375 48.1875 
Q 44.578125 48.1875 50.953125 41.515625 
Q 57.328125 34.859375 57.328125 23.390625 
Q 57.328125 12.15625 50.6875 5.359375 
Q 44.046875 -1.421875 33.015625 -1.421875 
Q 20.359375 -1.421875 13.671875 8.265625 
Q 6.984375 17.96875 6.984375 36.375 
Q 6.984375 53.65625 15.1875 63.9375 
Q 23.390625 74.21875 37.203125 74.21875 
Q 40.921875 74.21875 44.703125 73.484375 
Q 48.484375 72.75 52.59375 71.296875 
z
" id="DejaVuSans-54"/>
       </defs>
       <use xlink:href="#DejaVuSans-48"/>
       <use x="63.623047" xlink:href="#DejaVuSans-46"/>
       <use x="95.410156" xlink:href="#DejaVuSans-54"/>
      </g>
     </g>
    </g>
    <g id="text_17">
     <!-- $I$ -->
     <g transform="translate(67.946094 392.55)rotate(-90)scale(0.25 -0.25)">
      <defs>
       <path d="M 16.890625 72.90625 
L 26.8125 72.90625 
L 12.59375 0 
L 2.6875 0 
z
" id="DejaVuSans-Oblique-73"/>
      </defs>
      <use transform="translate(0 0.09375)" xlink:href="#DejaVuSans-Oblique-73"/>
     </g>
    </g>
   </g>
   <g id="line2d_31">
    <path clip-path="url(#pe0b8b22b59)" d="M 159.233058 662.597833 
L 187.935051 662.102946 
L 216.637044 663.043751 
L 245.339037 663.109787 
L 274.041031 662.968488 
L 302.743024 650.883443 
L 331.445017 619.324004 
L 360.14701 618.188951 
L 388.849003 624.153685 
L 417.550997 642.581774 
L 446.25299 655.62942 
L 474.954983 663.144682 
L 503.656976 661.87946 
L 532.358969 660.740976 
L 561.060963 662.113605 
L 589.762956 663.051908 
L 618.464949 662.300018 
L 647.166942 662.417435 
" style="fill:none;stroke:#fdbf6f;stroke-linecap:square;stroke-width:2;"/>
    <defs>
     <path d="M 0 2.5 
C 0.663008 2.5 1.29895 2.236584 1.767767 1.767767 
C 2.236584 1.29895 2.5 0.663008 2.5 0 
C 2.5 -0.663008 2.236584 -1.29895 1.767767 -1.767767 
C 1.29895 -2.236584 0.663008 -2.5 0 -2.5 
C -0.663008 -2.5 -1.29895 -2.236584 -1.767767 -1.767767 
C -2.236584 -1.29895 -2.5 -0.663008 -2.5 0 
C -2.5 0.663008 -2.236584 1.29895 -1.767767 1.767767 
C -1.29895 2.236584 -0.663008 2.5 0 2.5 
z
" id="m916bc0c6c9" style="stroke:#fdbf6f;"/>
    </defs>
    <g clip-path="url(#pe0b8b22b59)">
     <use style="fill:#fdbf6f;stroke:#fdbf6f;" x="159.233058" xlink:href="#m916bc0c6c9" y="662.597833"/>
     <use style="fill:#fdbf6f;stroke:#fdbf6f;" x="187.935051" xlink:href="#m916bc0c6c9" y="662.102946"/>
     <use style="fill:#fdbf6f;stroke:#fdbf6f;" x="216.637044" xlink:href="#m916bc0c6c9" y="663.043751"/>
     <use style="fill:#fdbf6f;stroke:#fdbf6f;" x="245.339037" xlink:href="#m916bc0c6c9" y="663.109787"/>
     <use style="fill:#fdbf6f;stroke:#fdbf6f;" x="274.041031" xlink:href="#m916bc0c6c9" y="662.968488"/>
     <use style="fill:#fdbf6f;stroke:#fdbf6f;" x="302.743024" xlink:href="#m916bc0c6c9" y="650.883443"/>
     <use style="fill:#fdbf6f;stroke:#fdbf6f;" x="331.445017" xlink:href="#m916bc0c6c9" y="619.324004"/>
     <use style="fill:#fdbf6f;stroke:#fdbf6f;" x="360.14701" xlink:href="#m916bc0c6c9" y="618.188951"/>
     <use style="fill:#fdbf6f;stroke:#fdbf6f;" x="388.849003" xlink:href="#m916bc0c6c9" y="624.153685"/>
     <use style="fill:#fdbf6f;stroke:#fdbf6f;" x="417.550997" xlink:href="#m916bc0c6c9" y="642.581774"/>
     <use style="fill:#fdbf6f;stroke:#fdbf6f;" x="446.25299" xlink:href="#m916bc0c6c9" y="655.62942"/>
     <use style="fill:#fdbf6f;stroke:#fdbf6f;" x="474.954983" xlink:href="#m916bc0c6c9" y="663.144682"/>
     <use style="fill:#fdbf6f;stroke:#fdbf6f;" x="503.656976" xlink:href="#m916bc0c6c9" y="661.87946"/>
     <use style="fill:#fdbf6f;stroke:#fdbf6f;" x="532.358969" xlink:href="#m916bc0c6c9" y="660.740976"/>
     <use style="fill:#fdbf6f;stroke:#fdbf6f;" x="561.060963" xlink:href="#m916bc0c6c9" y="662.113605"/>
     <use style="fill:#fdbf6f;stroke:#fdbf6f;" x="589.762956" xlink:href="#m916bc0c6c9" y="663.051908"/>
     <use style="fill:#fdbf6f;stroke:#fdbf6f;" x="618.464949" xlink:href="#m916bc0c6c9" y="662.300018"/>
     <use style="fill:#fdbf6f;stroke:#fdbf6f;" x="647.166942" xlink:href="#m916bc0c6c9" y="662.417435"/>
    </g>
   </g>
   <g id="line2d_32">
    <path clip-path="url(#pe0b8b22b59)" d="M 159.233058 662.329469 
L 187.935051 663.224703 
L 216.637044 661.950039 
L 245.339037 662.743938 
L 274.041031 661.82054 
L 302.743024 658.138959 
L 331.445017 552.06679 
L 360.14701 114.33719 
L 388.849003 662.314358 
L 417.550997 657.232164 
L 446.25299 660.955536 
L 474.954983 659.731457 
L 503.656976 662.000939 
L 532.358969 662.904359 
L 561.060963 662.766338 
L 589.762956 663.062354 
L 618.464949 662.443309 
L 647.166942 663.018583 
" style="fill:none;stroke:#bfe5a0;stroke-linecap:square;stroke-width:2;"/>
    <defs>
     <path d="M 0 2.5 
C 0.663008 2.5 1.29895 2.236584 1.767767 1.767767 
C 2.236584 1.29895 2.5 0.663008 2.5 0 
C 2.5 -0.663008 2.236584 -1.29895 1.767767 -1.767767 
C 1.29895 -2.236584 0.663008 -2.5 0 -2.5 
C -0.663008 -2.5 -1.29895 -2.236584 -1.767767 -1.767767 
C -2.236584 -1.29895 -2.5 -0.663008 -2.5 0 
C -2.5 0.663008 -2.236584 1.29895 -1.767767 1.767767 
C -1.29895 2.236584 -0.663008 2.5 0 2.5 
z
" id="m4cb2d4e044" style="stroke:#bfe5a0;"/>
    </defs>
    <g clip-path="url(#pe0b8b22b59)">
     <use style="fill:#bfe5a0;stroke:#bfe5a0;" x="159.233058" xlink:href="#m4cb2d4e044" y="662.329469"/>
     <use style="fill:#bfe5a0;stroke:#bfe5a0;" x="187.935051" xlink:href="#m4cb2d4e044" y="663.224703"/>
     <use style="fill:#bfe5a0;stroke:#bfe5a0;" x="216.637044" xlink:href="#m4cb2d4e044" y="661.950039"/>
     <use style="fill:#bfe5a0;stroke:#bfe5a0;" x="245.339037" xlink:href="#m4cb2d4e044" y="662.743938"/>
     <use style="fill:#bfe5a0;stroke:#bfe5a0;" x="274.041031" xlink:href="#m4cb2d4e044" y="661.82054"/>
     <use style="fill:#bfe5a0;stroke:#bfe5a0;" x="302.743024" xlink:href="#m4cb2d4e044" y="658.138959"/>
     <use style="fill:#bfe5a0;stroke:#bfe5a0;" x="331.445017" xlink:href="#m4cb2d4e044" y="552.06679"/>
     <use style="fill:#bfe5a0;stroke:#bfe5a0;" x="360.14701" xlink:href="#m4cb2d4e044" y="114.33719"/>
     <use style="fill:#bfe5a0;stroke:#bfe5a0;" x="388.849003" xlink:href="#m4cb2d4e044" y="662.314358"/>
     <use style="fill:#bfe5a0;stroke:#bfe5a0;" x="417.550997" xlink:href="#m4cb2d4e044" y="657.232164"/>
     <use style="fill:#bfe5a0;stroke:#bfe5a0;" x="446.25299" xlink:href="#m4cb2d4e044" y="660.955536"/>
     <use style="fill:#bfe5a0;stroke:#bfe5a0;" x="474.954983" xlink:href="#m4cb2d4e044" y="659.731457"/>
     <use style="fill:#bfe5a0;stroke:#bfe5a0;" x="503.656976" xlink:href="#m4cb2d4e044" y="662.000939"/>
     <use style="fill:#bfe5a0;stroke:#bfe5a0;" x="532.358969" xlink:href="#m4cb2d4e044" y="662.904359"/>
     <use style="fill:#bfe5a0;stroke:#bfe5a0;" x="561.060963" xlink:href="#m4cb2d4e044" y="662.766338"/>
     <use style="fill:#bfe5a0;stroke:#bfe5a0;" x="589.762956" xlink:href="#m4cb2d4e044" y="663.062354"/>
     <use style="fill:#bfe5a0;stroke:#bfe5a0;" x="618.464949" xlink:href="#m4cb2d4e044" y="662.443309"/>
     <use style="fill:#bfe5a0;stroke:#bfe5a0;" x="647.166942" xlink:href="#m4cb2d4e044" y="663.018583"/>
    </g>
   </g>
   <g id="line2d_33">
    <path clip-path="url(#pe0b8b22b59)" d="M 159.233058 663.118021 
L 187.935051 663.26281 
L 216.637044 661.668347 
L 245.339037 660.178456 
L 274.041031 663.074618 
L 302.743024 663.150093 
L 331.445017 598.992136 
L 360.14701 141.636557 
L 388.849003 639.546113 
L 417.550997 661.064087 
L 446.25299 662.943408 
L 474.954983 663.079527 
L 503.656976 663.183529 
L 532.358969 662.659469 
L 561.060963 661.880287 
L 589.762956 662.910767 
L 618.464949 662.866474 
L 647.166942 662.475769 
" style="fill:none;stroke:#5e4fa2;stroke-linecap:square;stroke-width:2;"/>
    <defs>
     <path d="M 0 2.5 
C 0.663008 2.5 1.29895 2.236584 1.767767 1.767767 
C 2.236584 1.29895 2.5 0.663008 2.5 0 
C 2.5 -0.663008 2.236584 -1.29895 1.767767 -1.767767 
C 1.29895 -2.236584 0.663008 -2.5 0 -2.5 
C -0.663008 -2.5 -1.29895 -2.236584 -1.767767 -1.767767 
C -2.236584 -1.29895 -2.5 -0.663008 -2.5 0 
C -2.5 0.663008 -2.236584 1.29895 -1.767767 1.767767 
C -1.29895 2.236584 -0.663008 2.5 0 2.5 
z
" id="m974169c097" style="stroke:#5e4fa2;"/>
    </defs>
    <g clip-path="url(#pe0b8b22b59)">
     <use style="fill:#5e4fa2;stroke:#5e4fa2;" x="159.233058" xlink:href="#m974169c097" y="663.118021"/>
     <use style="fill:#5e4fa2;stroke:#5e4fa2;" x="187.935051" xlink:href="#m974169c097" y="663.26281"/>
     <use style="fill:#5e4fa2;stroke:#5e4fa2;" x="216.637044" xlink:href="#m974169c097" y="661.668347"/>
     <use style="fill:#5e4fa2;stroke:#5e4fa2;" x="245.339037" xlink:href="#m974169c097" y="660.178456"/>
     <use style="fill:#5e4fa2;stroke:#5e4fa2;" x="274.041031" xlink:href="#m974169c097" y="663.074618"/>
     <use style="fill:#5e4fa2;stroke:#5e4fa2;" x="302.743024" xlink:href="#m974169c097" y="663.150093"/>
     <use style="fill:#5e4fa2;stroke:#5e4fa2;" x="331.445017" xlink:href="#m974169c097" y="598.992136"/>
     <use style="fill:#5e4fa2;stroke:#5e4fa2;" x="360.14701" xlink:href="#m974169c097" y="141.636557"/>
     <use style="fill:#5e4fa2;stroke:#5e4fa2;" x="388.849003" xlink:href="#m974169c097" y="639.546113"/>
     <use style="fill:#5e4fa2;stroke:#5e4fa2;" x="417.550997" xlink:href="#m974169c097" y="661.064087"/>
     <use style="fill:#5e4fa2;stroke:#5e4fa2;" x="446.25299" xlink:href="#m974169c097" y="662.943408"/>
     <use style="fill:#5e4fa2;stroke:#5e4fa2;" x="474.954983" xlink:href="#m974169c097" y="663.079527"/>
     <use style="fill:#5e4fa2;stroke:#5e4fa2;" x="503.656976" xlink:href="#m974169c097" y="663.183529"/>
     <use style="fill:#5e4fa2;stroke:#5e4fa2;" x="532.358969" xlink:href="#m974169c097" y="662.659469"/>
     <use style="fill:#5e4fa2;stroke:#5e4fa2;" x="561.060963" xlink:href="#m974169c097" y="661.880287"/>
     <use style="fill:#5e4fa2;stroke:#5e4fa2;" x="589.762956" xlink:href="#m974169c097" y="662.910767"/>
     <use style="fill:#5e4fa2;stroke:#5e4fa2;" x="618.464949" xlink:href="#m974169c097" y="662.866474"/>
     <use style="fill:#5e4fa2;stroke:#5e4fa2;" x="647.166942" xlink:href="#m974169c097" y="662.475769"/>
    </g>
   </g>
   <g id="patch_3">
    <path d="M 108 720.9 
L 108 56.7 
" style="fill:none;stroke:#000000;stroke-linecap:square;stroke-linejoin:miter;stroke-width:0.8;"/>
   </g>
   <g id="patch_4">
    <path d="M 698.4 720.9 
L 698.4 56.7 
" style="fill:none;stroke:#000000;stroke-linecap:square;stroke-linejoin:miter;stroke-width:0.8;"/>
   </g>
   <g id="patch_5">
    <path d="M 108 720.9 
L 698.4 720.9 
" style="fill:none;stroke:#000000;stroke-linecap:square;stroke-linejoin:miter;stroke-width:0.8;"/>
   </g>
   <g id="patch_6">
    <path d="M 108 56.7 
L 698.4 56.7 
" style="fill:none;stroke:#000000;stroke-linecap:square;stroke-linejoin:miter;stroke-width:0.8;"/>
   </g>
   <g id="legend_1">
    <g id="patch_7">
     <path d="M 533.4 190.125 
L 684.4 190.125 
Q 688.4 190.125 688.4 186.125 
L 688.4 70.7 
Q 688.4 66.7 684.4 66.7 
L 533.4 66.7 
Q 529.4 66.7 529.4 70.7 
L 529.4 186.125 
Q 529.4 190.125 533.4 190.125 
z
" style="fill:#ffffff;opacity:0.8;stroke:#cccccc;stroke-linejoin:miter;"/>
    </g>
    <g id="line2d_34">
     <path d="M 537.4 82.896875 
L 577.4 82.896875 
" style="fill:none;stroke:#000000;stroke-linecap:square;stroke-width:2;"/>
    </g>
    <g id="line2d_35">
     <defs>
      <path d="M 0 3 
C 0.795609 3 1.55874 2.683901 2.12132 2.12132 
C 2.683901 1.55874 3 0.795609 3 0 
C 3 -0.795609 2.683901 -1.55874 2.12132 -2.12132 
C 1.55874 -2.683901 0.795609 -3 0 -3 
C -0.795609 -3 -1.55874 -2.683901 -2.12132 -2.12132 
C -2.683901 -1.55874 -3 -0.795609 -3 0 
C -3 0.795609 -2.683901 1.55874 -2.12132 2.12132 
C -1.55874 2.683901 -0.795609 3 0 3 
z
" id="m72230f63cb" style="stroke:#000000;"/>
     </defs>
     <g>
      <use style="stroke:#000000;" x="557.4" xlink:href="#m72230f63cb" y="82.896875"/>
     </g>
    </g>
    <g id="text_18">
     <!-- (4, 1, 0) -->
     <g transform="translate(593.4 89.896875)scale(0.2 -0.2)">
      <defs>
       <path d="M 31 75.875 
Q 24.46875 64.65625 21.28125 53.65625 
Q 18.109375 42.671875 18.109375 31.390625 
Q 18.109375 20.125 21.3125 9.0625 
Q 24.515625 -2 31 -13.1875 
L 23.1875 -13.1875 
Q 15.875 -1.703125 12.234375 9.375 
Q 8.59375 20.453125 8.59375 31.390625 
Q 8.59375 42.28125 12.203125 53.3125 
Q 15.828125 64.359375 23.1875 75.875 
z
" id="DejaVuSans-40"/>
       <path d="M 11.71875 12.40625 
L 22.015625 12.40625 
L 22.015625 4 
L 14.015625 -11.625 
L 7.71875 -11.625 
L 11.71875 4 
z
" id="DejaVuSans-44"/>
       <path id="DejaVuSans-32"/>
       <path d="M 8.015625 75.875 
L 15.828125 75.875 
Q 23.140625 64.359375 26.78125 53.3125 
Q 30.421875 42.28125 30.421875 31.390625 
Q 30.421875 20.453125 26.78125 9.375 
Q 23.140625 -1.703125 15.828125 -13.1875 
L 8.015625 -13.1875 
Q 14.5 -2 17.703125 9.0625 
Q 20.90625 20.125 20.90625 31.390625 
Q 20.90625 42.671875 17.703125 53.65625 
Q 14.5 64.65625 8.015625 75.875 
z
" id="DejaVuSans-41"/>
      </defs>
      <use xlink:href="#DejaVuSans-40"/>
      <use x="39.013672" xlink:href="#DejaVuSans-52"/>
      <use x="102.636719" xlink:href="#DejaVuSans-44"/>
      <use x="134.423828" xlink:href="#DejaVuSans-32"/>
      <use x="166.210938" xlink:href="#DejaVuSans-49"/>
      <use x="229.833984" xlink:href="#DejaVuSans-44"/>
      <use x="261.621094" xlink:href="#DejaVuSans-32"/>
      <use x="293.408203" xlink:href="#DejaVuSans-48"/>
      <use x="357.03125" xlink:href="#DejaVuSans-41"/>
     </g>
    </g>
    <g id="line2d_36">
     <path d="M 537.4 112.253125 
L 577.4 112.253125 
" style="fill:none;stroke:#fdbf6f;stroke-linecap:square;stroke-width:2;"/>
    </g>
    <g id="line2d_37"/>
    <g id="text_19">
     <!-- $z=90 A$ -->
     <g transform="translate(593.4 119.253125)scale(0.2 -0.2)">
      <defs>
       <path d="M 11.625 54.6875 
L 54.296875 54.6875 
L 52.6875 46.484375 
L 11.53125 7.171875 
L 45.515625 7.171875 
L 44.09375 0 
L -0.296875 0 
L 1.3125 8.203125 
L 42.484375 47.515625 
L 10.203125 47.515625 
z
" id="DejaVuSans-Oblique-122"/>
       <path d="M 10.59375 45.40625 
L 73.1875 45.40625 
L 73.1875 37.203125 
L 10.59375 37.203125 
z
M 10.59375 25.484375 
L 73.1875 25.484375 
L 73.1875 17.1875 
L 10.59375 17.1875 
z
" id="DejaVuSans-61"/>
       <path d="M 10.984375 1.515625 
L 10.984375 10.5 
Q 14.703125 8.734375 18.5 7.8125 
Q 22.3125 6.890625 25.984375 6.890625 
Q 35.75 6.890625 40.890625 13.453125 
Q 46.046875 20.015625 46.78125 33.40625 
Q 43.953125 29.203125 39.59375 26.953125 
Q 35.25 24.703125 29.984375 24.703125 
Q 19.046875 24.703125 12.671875 31.3125 
Q 6.296875 37.9375 6.296875 49.421875 
Q 6.296875 60.640625 12.9375 67.421875 
Q 19.578125 74.21875 30.609375 74.21875 
Q 43.265625 74.21875 49.921875 64.515625 
Q 56.59375 54.828125 56.59375 36.375 
Q 56.59375 19.140625 48.40625 8.859375 
Q 40.234375 -1.421875 26.421875 -1.421875 
Q 22.703125 -1.421875 18.890625 -0.6875 
Q 15.09375 0.046875 10.984375 1.515625 
z
M 30.609375 32.421875 
Q 37.25 32.421875 41.125 36.953125 
Q 45.015625 41.5 45.015625 49.421875 
Q 45.015625 57.28125 41.125 61.84375 
Q 37.25 66.40625 30.609375 66.40625 
Q 23.96875 66.40625 20.09375 61.84375 
Q 16.21875 57.28125 16.21875 49.421875 
Q 16.21875 41.5 20.09375 36.953125 
Q 23.96875 32.421875 30.609375 32.421875 
z
" id="DejaVuSans-57"/>
       <path d="M 36.8125 72.90625 
L 48 72.90625 
L 61.53125 0 
L 51.21875 0 
L 48.1875 18.703125 
L 15.375 18.703125 
L 5.078125 0 
L -5.328125 0 
z
M 40.375 63.1875 
L 19.921875 26.90625 
L 46.6875 26.90625 
z
" id="DejaVuSans-Oblique-65"/>
      </defs>
      <use transform="translate(0 0.78125)" xlink:href="#DejaVuSans-Oblique-122"/>
      <use transform="translate(71.972656 0.78125)" xlink:href="#DejaVuSans-61"/>
      <use transform="translate(175.244141 0.78125)" xlink:href="#DejaVuSans-57"/>
      <use transform="translate(238.867188 0.78125)" xlink:href="#DejaVuSans-48"/>
      <use transform="translate(302.490234 0.78125)" xlink:href="#DejaVuSans-Oblique-65"/>
     </g>
    </g>
    <g id="line2d_38">
     <path d="M 537.4 141.609375 
L 577.4 141.609375 
" style="fill:none;stroke:#bfe5a0;stroke-linecap:square;stroke-width:2;"/>
    </g>
    <g id="line2d_39"/>
    <g id="text_20">
     <!-- $z=454 A$ -->
     <g transform="translate(593.4 148.609375)scale(0.2 -0.2)">
      <use transform="translate(0 0.09375)" xlink:href="#DejaVuSans-Oblique-122"/>
      <use transform="translate(71.972656 0.09375)" xlink:href="#DejaVuSans-61"/>
      <use transform="translate(175.244141 0.09375)" xlink:href="#DejaVuSans-52"/>
      <use transform="translate(238.867188 0.09375)" xlink:href="#DejaVuSans-53"/>
      <use transform="translate(302.490234 0.09375)" xlink:href="#DejaVuSans-52"/>
      <use transform="translate(366.113281 0.09375)" xlink:href="#DejaVuSans-Oblique-65"/>
     </g>
    </g>
    <g id="line2d_40">
     <path d="M 537.4 170.965625 
L 577.4 170.965625 
" style="fill:none;stroke:#5e4fa2;stroke-linecap:square;stroke-width:2;"/>
    </g>
    <g id="line2d_41"/>
    <g id="text_21">
     <!-- $z=797 A$ -->
     <g transform="translate(593.4 177.965625)scale(0.2 -0.2)">
      <use transform="translate(0 0.78125)" xlink:href="#DejaVuSans-Oblique-122"/>
      <use transform="translate(71.972656 0.78125)" xlink:href="#DejaVuSans-61"/>
      <use transform="translate(175.244141 0.78125)" xlink:href="#DejaVuSans-55"/>
      <use transform="translate(238.867188 0.78125)" xlink:href="#DejaVuSans-57"/>
      <use transform="translate(302.490234 0.78125)" xlink:href="#DejaVuSans-55"/>
      <use transform="translate(366.113281 0.78125)" xlink:href="#DejaVuSans-Oblique-65"/>
     </g>
    </g>
   </g>
  </g>
 </g>
 <defs>
  <clipPath id="pe0b8b22b59">
   <rect height="664.2" width="590.4" x="108" y="56.7"/>
  </clipPath>
 </defs>
</svg>
