<?xml version="1.0" encoding="utf-8" standalone="no"?>
<!DOCTYPE svg PUBLIC "-//W3C//DTD SVG 1.1//EN"
  "http://www.w3.org/Graphics/SVG/1.1/DTD/svg11.dtd">
<!-- Created with matplotlib (https://matplotlib.org/) -->
<svg height="810pt" version="1.1" viewBox="0 0 720 810" width="720pt" xmlns="http://www.w3.org/2000/svg" xmlns:xlink="http://www.w3.org/1999/xlink">
 <metadata>
  <rdf:RDF xmlns:cc="http://creativecommons.org/ns#" xmlns:dc="http://purl.org/dc/elements/1.1/" xmlns:rdf="http://www.w3.org/1999/02/22-rdf-syntax-ns#">
   <cc:Work>
    <dc:type rdf:resource="http://purl.org/dc/dcmitype/StillImage"/>
    <dc:date>2021-07-14T11:55:09.281138</dc:date>
    <dc:format>image/svg+xml</dc:format>
    <dc:creator>
     <cc:Agent>
      <dc:title>Matplotlib v3.3.1, https://matplotlib.org/</dc:title>
     </cc:Agent>
    </dc:creator>
   </cc:Work>
  </rdf:RDF>
 </metadata>
 <defs>
  <style type="text/css">*{stroke-linecap:butt;stroke-linejoin:round;}</style>
 </defs>
 <g id="figure_1">
  <g id="patch_1">
   <path d="M 0 810 
L 720 810 
L 720 0 
L 0 0 
z
" style="fill:#ffffff;"/>
  </g>
  <g id="axes_1">
   <g id="patch_2">
    <path d="M 108 720.9 
L 698.4 720.9 
L 698.4 56.7 
L 108 56.7 
z
" style="fill:#ffffff;"/>
   </g>
   <g id="matplotlib.axis_1">
    <g id="xtick_1">
     <g id="line2d_1">
      <path clip-path="url(#p2c27ff6de2)" d="M 154.304433 720.9 
L 154.304433 56.7 
" style="fill:none;stroke:#e6e6e6;stroke-linecap:square;stroke-width:0.8;"/>
     </g>
     <g id="line2d_2">
      <defs>
       <path d="M 0 0 
L 0 3.5 
" id="m8ff2eb8d40" style="stroke:#000000;stroke-width:0.8;"/>
      </defs>
      <g>
       <use style="stroke:#000000;stroke-width:0.8;" x="154.304433" xlink:href="#m8ff2eb8d40" y="720.9"/>
      </g>
     </g>
     <g id="text_1">
      <!-- 0 -->
      <g transform="translate(149.532558 739.297656)scale(0.15 -0.15)">
       <defs>
        <path d="M 31.78125 66.40625 
Q 24.171875 66.40625 20.328125 58.90625 
Q 16.5 51.421875 16.5 36.375 
Q 16.5 21.390625 20.328125 13.890625 
Q 24.171875 6.390625 31.78125 6.390625 
Q 39.453125 6.390625 43.28125 13.890625 
Q 47.125 21.390625 47.125 36.375 
Q 47.125 51.421875 43.28125 58.90625 
Q 39.453125 66.40625 31.78125 66.40625 
z
M 31.78125 74.21875 
Q 44.046875 74.21875 50.515625 64.515625 
Q 56.984375 54.828125 56.984375 36.375 
Q 56.984375 17.96875 50.515625 8.265625 
Q 44.046875 -1.421875 31.78125 -1.421875 
Q 19.53125 -1.421875 13.0625 8.265625 
Q 6.59375 17.96875 6.59375 36.375 
Q 6.59375 54.828125 13.0625 64.515625 
Q 19.53125 74.21875 31.78125 74.21875 
z
" id="DejaVuSans-48"/>
       </defs>
       <use xlink:href="#DejaVuSans-48"/>
      </g>
     </g>
    </g>
    <g id="xtick_2">
     <g id="line2d_3">
      <path clip-path="url(#p2c27ff6de2)" d="M 252.876935 720.9 
L 252.876935 56.7 
" style="fill:none;stroke:#e6e6e6;stroke-linecap:square;stroke-width:0.8;"/>
     </g>
     <g id="line2d_4">
      <g>
       <use style="stroke:#000000;stroke-width:0.8;" x="252.876935" xlink:href="#m8ff2eb8d40" y="720.9"/>
      </g>
     </g>
     <g id="text_2">
      <!-- 200 -->
      <g transform="translate(238.56131 739.297656)scale(0.15 -0.15)">
       <defs>
        <path d="M 19.1875 8.296875 
L 53.609375 8.296875 
L 53.609375 0 
L 7.328125 0 
L 7.328125 8.296875 
Q 12.9375 14.109375 22.625 23.890625 
Q 32.328125 33.6875 34.8125 36.53125 
Q 39.546875 41.84375 41.421875 45.53125 
Q 43.3125 49.21875 43.3125 52.78125 
Q 43.3125 58.59375 39.234375 62.25 
Q 35.15625 65.921875 28.609375 65.921875 
Q 23.96875 65.921875 18.8125 64.3125 
Q 13.671875 62.703125 7.8125 59.421875 
L 7.8125 69.390625 
Q 13.765625 71.78125 18.9375 73 
Q 24.125 74.21875 28.421875 74.21875 
Q 39.75 74.21875 46.484375 68.546875 
Q 53.21875 62.890625 53.21875 53.421875 
Q 53.21875 48.921875 51.53125 44.890625 
Q 49.859375 40.875 45.40625 35.40625 
Q 44.1875 33.984375 37.640625 27.21875 
Q 31.109375 20.453125 19.1875 8.296875 
z
" id="DejaVuSans-50"/>
       </defs>
       <use xlink:href="#DejaVuSans-50"/>
       <use x="63.623047" xlink:href="#DejaVuSans-48"/>
       <use x="127.246094" xlink:href="#DejaVuSans-48"/>
      </g>
     </g>
    </g>
    <g id="xtick_3">
     <g id="line2d_5">
      <path clip-path="url(#p2c27ff6de2)" d="M 351.449437 720.9 
L 351.449437 56.7 
" style="fill:none;stroke:#e6e6e6;stroke-linecap:square;stroke-width:0.8;"/>
     </g>
     <g id="line2d_6">
      <g>
       <use style="stroke:#000000;stroke-width:0.8;" x="351.449437" xlink:href="#m8ff2eb8d40" y="720.9"/>
      </g>
     </g>
     <g id="text_3">
      <!-- 400 -->
      <g transform="translate(337.133812 739.297656)scale(0.15 -0.15)">
       <defs>
        <path d="M 37.796875 64.3125 
L 12.890625 25.390625 
L 37.796875 25.390625 
z
M 35.203125 72.90625 
L 47.609375 72.90625 
L 47.609375 25.390625 
L 58.015625 25.390625 
L 58.015625 17.1875 
L 47.609375 17.1875 
L 47.609375 0 
L 37.796875 0 
L 37.796875 17.1875 
L 4.890625 17.1875 
L 4.890625 26.703125 
z
" id="DejaVuSans-52"/>
       </defs>
       <use xlink:href="#DejaVuSans-52"/>
       <use x="63.623047" xlink:href="#DejaVuSans-48"/>
       <use x="127.246094" xlink:href="#DejaVuSans-48"/>
      </g>
     </g>
    </g>
    <g id="xtick_4">
     <g id="line2d_7">
      <path clip-path="url(#p2c27ff6de2)" d="M 450.021938 720.9 
L 450.021938 56.7 
" style="fill:none;stroke:#e6e6e6;stroke-linecap:square;stroke-width:0.8;"/>
     </g>
     <g id="line2d_8">
      <g>
       <use style="stroke:#000000;stroke-width:0.8;" x="450.021938" xlink:href="#m8ff2eb8d40" y="720.9"/>
      </g>
     </g>
     <g id="text_4">
      <!-- 600 -->
      <g transform="translate(435.706313 739.297656)scale(0.15 -0.15)">
       <defs>
        <path d="M 33.015625 40.375 
Q 26.375 40.375 22.484375 35.828125 
Q 18.609375 31.296875 18.609375 23.390625 
Q 18.609375 15.53125 22.484375 10.953125 
Q 26.375 6.390625 33.015625 6.390625 
Q 39.65625 6.390625 43.53125 10.953125 
Q 47.40625 15.53125 47.40625 23.390625 
Q 47.40625 31.296875 43.53125 35.828125 
Q 39.65625 40.375 33.015625 40.375 
z
M 52.59375 71.296875 
L 52.59375 62.3125 
Q 48.875 64.0625 45.09375 64.984375 
Q 41.3125 65.921875 37.59375 65.921875 
Q 27.828125 65.921875 22.671875 59.328125 
Q 17.53125 52.734375 16.796875 39.40625 
Q 19.671875 43.65625 24.015625 45.921875 
Q 28.375 48.1875 33.59375 48.1875 
Q 44.578125 48.1875 50.953125 41.515625 
Q 57.328125 34.859375 57.328125 23.390625 
Q 57.328125 12.15625 50.6875 5.359375 
Q 44.046875 -1.421875 33.015625 -1.421875 
Q 20.359375 -1.421875 13.671875 8.265625 
Q 6.984375 17.96875 6.984375 36.375 
Q 6.984375 53.65625 15.1875 63.9375 
Q 23.390625 74.21875 37.203125 74.21875 
Q 40.921875 74.21875 44.703125 73.484375 
Q 48.484375 72.75 52.59375 71.296875 
z
" id="DejaVuSans-54"/>
       </defs>
       <use xlink:href="#DejaVuSans-54"/>
       <use x="63.623047" xlink:href="#DejaVuSans-48"/>
       <use x="127.246094" xlink:href="#DejaVuSans-48"/>
      </g>
     </g>
    </g>
    <g id="xtick_5">
     <g id="line2d_9">
      <path clip-path="url(#p2c27ff6de2)" d="M 548.59444 720.9 
L 548.59444 56.7 
" style="fill:none;stroke:#e6e6e6;stroke-linecap:square;stroke-width:0.8;"/>
     </g>
     <g id="line2d_10">
      <g>
       <use style="stroke:#000000;stroke-width:0.8;" x="548.59444" xlink:href="#m8ff2eb8d40" y="720.9"/>
      </g>
     </g>
     <g id="text_5">
      <!-- 800 -->
      <g transform="translate(534.278815 739.297656)scale(0.15 -0.15)">
       <defs>
        <path d="M 31.78125 34.625 
Q 24.75 34.625 20.71875 30.859375 
Q 16.703125 27.09375 16.703125 20.515625 
Q 16.703125 13.921875 20.71875 10.15625 
Q 24.75 6.390625 31.78125 6.390625 
Q 38.8125 6.390625 42.859375 10.171875 
Q 46.921875 13.96875 46.921875 20.515625 
Q 46.921875 27.09375 42.890625 30.859375 
Q 38.875 34.625 31.78125 34.625 
z
M 21.921875 38.8125 
Q 15.578125 40.375 12.03125 44.71875 
Q 8.5 49.078125 8.5 55.328125 
Q 8.5 64.0625 14.71875 69.140625 
Q 20.953125 74.21875 31.78125 74.21875 
Q 42.671875 74.21875 48.875 69.140625 
Q 55.078125 64.0625 55.078125 55.328125 
Q 55.078125 49.078125 51.53125 44.71875 
Q 48 40.375 41.703125 38.8125 
Q 48.828125 37.15625 52.796875 32.3125 
Q 56.78125 27.484375 56.78125 20.515625 
Q 56.78125 9.90625 50.3125 4.234375 
Q 43.84375 -1.421875 31.78125 -1.421875 
Q 19.734375 -1.421875 13.25 4.234375 
Q 6.78125 9.90625 6.78125 20.515625 
Q 6.78125 27.484375 10.78125 32.3125 
Q 14.796875 37.15625 21.921875 38.8125 
z
M 18.3125 54.390625 
Q 18.3125 48.734375 21.84375 45.5625 
Q 25.390625 42.390625 31.78125 42.390625 
Q 38.140625 42.390625 41.71875 45.5625 
Q 45.3125 48.734375 45.3125 54.390625 
Q 45.3125 60.0625 41.71875 63.234375 
Q 38.140625 66.40625 31.78125 66.40625 
Q 25.390625 66.40625 21.84375 63.234375 
Q 18.3125 60.0625 18.3125 54.390625 
z
" id="DejaVuSans-56"/>
       </defs>
       <use xlink:href="#DejaVuSans-56"/>
       <use x="63.623047" xlink:href="#DejaVuSans-48"/>
       <use x="127.246094" xlink:href="#DejaVuSans-48"/>
      </g>
     </g>
    </g>
    <g id="xtick_6">
     <g id="line2d_11">
      <path clip-path="url(#p2c27ff6de2)" d="M 647.166942 720.9 
L 647.166942 56.7 
" style="fill:none;stroke:#e6e6e6;stroke-linecap:square;stroke-width:0.8;"/>
     </g>
     <g id="line2d_12">
      <g>
       <use style="stroke:#000000;stroke-width:0.8;" x="647.166942" xlink:href="#m8ff2eb8d40" y="720.9"/>
      </g>
     </g>
     <g id="text_6">
      <!-- 1000 -->
      <g transform="translate(628.079442 739.297656)scale(0.15 -0.15)">
       <defs>
        <path d="M 12.40625 8.296875 
L 28.515625 8.296875 
L 28.515625 63.921875 
L 10.984375 60.40625 
L 10.984375 69.390625 
L 28.421875 72.90625 
L 38.28125 72.90625 
L 38.28125 8.296875 
L 54.390625 8.296875 
L 54.390625 0 
L 12.40625 0 
z
" id="DejaVuSans-49"/>
       </defs>
       <use xlink:href="#DejaVuSans-49"/>
       <use x="63.623047" xlink:href="#DejaVuSans-48"/>
       <use x="127.246094" xlink:href="#DejaVuSans-48"/>
       <use x="190.869141" xlink:href="#DejaVuSans-48"/>
      </g>
     </g>
    </g>
    <g id="text_7">
     <!-- $z(\AA)$ -->
     <g transform="translate(378.325 767.967969)scale(0.25 -0.25)">
      <defs>
       <path d="M 11.625 54.6875 
L 54.296875 54.6875 
L 52.6875 46.484375 
L 11.53125 7.171875 
L 45.515625 7.171875 
L 44.09375 0 
L -0.296875 0 
L 1.3125 8.203125 
L 42.484375 47.515625 
L 10.203125 47.515625 
z
" id="DejaVuSans-Oblique-122"/>
       <path d="M 31 75.875 
Q 24.46875 64.65625 21.28125 53.65625 
Q 18.109375 42.671875 18.109375 31.390625 
Q 18.109375 20.125 21.3125 9.0625 
Q 24.515625 -2 31 -13.1875 
L 23.1875 -13.1875 
Q 15.875 -1.703125 12.234375 9.375 
Q 8.59375 20.453125 8.59375 31.390625 
Q 8.59375 42.28125 12.203125 53.3125 
Q 15.828125 64.359375 23.1875 75.875 
z
" id="DejaVuSans-40"/>
       <path d="M 49.8125 79.390625 
Q 49.8125 82.46875 47.625 84.640625 
Q 45.453125 86.8125 42.390625 86.8125 
Q 39.265625 86.8125 37.140625 84.6875 
Q 35.015625 82.5625 35.015625 79.390625 
Q 35.015625 76.3125 37.140625 74.15625 
Q 39.265625 72.015625 42.390625 72.015625 
Q 45.453125 72.015625 47.625 74.15625 
Q 49.8125 76.3125 49.8125 79.390625 
z
M 34.421875 68.703125 
Q 31.78125 70.515625 30.390625 73.265625 
Q 29 76.03125 29 79.390625 
Q 29 84.96875 32.90625 88.890625 
Q 36.8125 92.828125 42.390625 92.828125 
Q 47.953125 92.828125 51.875 88.890625 
Q 55.8125 84.96875 55.8125 79.390625 
Q 55.8125 75.53125 54.03125 72.546875 
Q 52.25 69.578125 48.875 67.828125 
L 61.53125 0 
L 51.21875 0 
L 48.1875 18.703125 
L 15.375 18.703125 
L 5.078125 0 
L -5.328125 0 
z
M 40.375 63.1875 
L 19.921875 26.90625 
L 46.6875 26.90625 
z
" id="DejaVuSans-Oblique-197"/>
       <path d="M 8.015625 75.875 
L 15.828125 75.875 
Q 23.140625 64.359375 26.78125 53.3125 
Q 30.421875 42.28125 30.421875 31.390625 
Q 30.421875 20.453125 26.78125 9.375 
Q 23.140625 -1.703125 15.828125 -13.1875 
L 8.015625 -13.1875 
Q 14.5 -2 17.703125 9.0625 
Q 20.90625 20.125 20.90625 31.390625 
Q 20.90625 42.671875 17.703125 53.65625 
Q 14.5 64.65625 8.015625 75.875 
z
" id="DejaVuSans-41"/>
      </defs>
      <use transform="translate(0 0.171875)" xlink:href="#DejaVuSans-Oblique-122"/>
      <use transform="translate(52.490234 0.171875)" xlink:href="#DejaVuSans-40"/>
      <use transform="translate(91.503906 0.171875)" xlink:href="#DejaVuSans-Oblique-197"/>
      <use transform="translate(159.912109 0.171875)" xlink:href="#DejaVuSans-41"/>
     </g>
    </g>
   </g>
   <g id="matplotlib.axis_2">
    <g id="ytick_1">
     <g id="line2d_13">
      <path clip-path="url(#p2c27ff6de2)" d="M 108 663.269303 
L 698.4 663.269303 
" style="fill:none;stroke:#e6e6e6;stroke-linecap:square;stroke-width:0.8;"/>
     </g>
     <g id="line2d_14">
      <defs>
       <path d="M 0 0 
L -3.5 0 
" id="m21bbf89081" style="stroke:#000000;stroke-width:0.8;"/>
      </defs>
      <g>
       <use style="stroke:#000000;stroke-width:0.8;" x="108" xlink:href="#m21bbf89081" y="663.269303"/>
      </g>
     </g>
     <g id="text_8">
      <!-- 0.0 -->
      <g transform="translate(77.145313 668.968131)scale(0.15 -0.15)">
       <defs>
        <path d="M 10.6875 12.40625 
L 21 12.40625 
L 21 0 
L 10.6875 0 
z
" id="DejaVuSans-46"/>
       </defs>
       <use xlink:href="#DejaVuSans-48"/>
       <use x="63.623047" xlink:href="#DejaVuSans-46"/>
       <use x="95.410156" xlink:href="#DejaVuSans-48"/>
      </g>
     </g>
    </g>
    <g id="ytick_2">
     <g id="line2d_15">
      <path clip-path="url(#p2c27ff6de2)" d="M 108 588.825071 
L 698.4 588.825071 
" style="fill:none;stroke:#e6e6e6;stroke-linecap:square;stroke-width:0.8;"/>
     </g>
     <g id="line2d_16">
      <g>
       <use style="stroke:#000000;stroke-width:0.8;" x="108" xlink:href="#m21bbf89081" y="588.825071"/>
      </g>
     </g>
     <g id="text_9">
      <!-- 0.2 -->
      <g transform="translate(77.145313 594.523899)scale(0.15 -0.15)">
       <use xlink:href="#DejaVuSans-48"/>
       <use x="63.623047" xlink:href="#DejaVuSans-46"/>
       <use x="95.410156" xlink:href="#DejaVuSans-50"/>
      </g>
     </g>
    </g>
    <g id="ytick_3">
     <g id="line2d_17">
      <path clip-path="url(#p2c27ff6de2)" d="M 108 514.380838 
L 698.4 514.380838 
" style="fill:none;stroke:#e6e6e6;stroke-linecap:square;stroke-width:0.8;"/>
     </g>
     <g id="line2d_18">
      <g>
       <use style="stroke:#000000;stroke-width:0.8;" x="108" xlink:href="#m21bbf89081" y="514.380838"/>
      </g>
     </g>
     <g id="text_10">
      <!-- 0.4 -->
      <g transform="translate(77.145313 520.079667)scale(0.15 -0.15)">
       <use xlink:href="#DejaVuSans-48"/>
       <use x="63.623047" xlink:href="#DejaVuSans-46"/>
       <use x="95.410156" xlink:href="#DejaVuSans-52"/>
      </g>
     </g>
    </g>
    <g id="ytick_4">
     <g id="line2d_19">
      <path clip-path="url(#p2c27ff6de2)" d="M 108 439.936606 
L 698.4 439.936606 
" style="fill:none;stroke:#e6e6e6;stroke-linecap:square;stroke-width:0.8;"/>
     </g>
     <g id="line2d_20">
      <g>
       <use style="stroke:#000000;stroke-width:0.8;" x="108" xlink:href="#m21bbf89081" y="439.936606"/>
      </g>
     </g>
     <g id="text_11">
      <!-- 0.6 -->
      <g transform="translate(77.145313 445.635434)scale(0.15 -0.15)">
       <use xlink:href="#DejaVuSans-48"/>
       <use x="63.623047" xlink:href="#DejaVuSans-46"/>
       <use x="95.410156" xlink:href="#DejaVuSans-54"/>
      </g>
     </g>
    </g>
    <g id="ytick_5">
     <g id="line2d_21">
      <path clip-path="url(#p2c27ff6de2)" d="M 108 365.492374 
L 698.4 365.492374 
" style="fill:none;stroke:#e6e6e6;stroke-linecap:square;stroke-width:0.8;"/>
     </g>
     <g id="line2d_22">
      <g>
       <use style="stroke:#000000;stroke-width:0.8;" x="108" xlink:href="#m21bbf89081" y="365.492374"/>
      </g>
     </g>
     <g id="text_12">
      <!-- 0.8 -->
      <g transform="translate(77.145313 371.191202)scale(0.15 -0.15)">
       <use xlink:href="#DejaVuSans-48"/>
       <use x="63.623047" xlink:href="#DejaVuSans-46"/>
       <use x="95.410156" xlink:href="#DejaVuSans-56"/>
      </g>
     </g>
    </g>
    <g id="ytick_6">
     <g id="line2d_23">
      <path clip-path="url(#p2c27ff6de2)" d="M 108 291.048141 
L 698.4 291.048141 
" style="fill:none;stroke:#e6e6e6;stroke-linecap:square;stroke-width:0.8;"/>
     </g>
     <g id="line2d_24">
      <g>
       <use style="stroke:#000000;stroke-width:0.8;" x="108" xlink:href="#m21bbf89081" y="291.048141"/>
      </g>
     </g>
     <g id="text_13">
      <!-- 1.0 -->
      <g transform="translate(77.145313 296.74697)scale(0.15 -0.15)">
       <use xlink:href="#DejaVuSans-49"/>
       <use x="63.623047" xlink:href="#DejaVuSans-46"/>
       <use x="95.410156" xlink:href="#DejaVuSans-48"/>
      </g>
     </g>
    </g>
    <g id="ytick_7">
     <g id="line2d_25">
      <path clip-path="url(#p2c27ff6de2)" d="M 108 216.603909 
L 698.4 216.603909 
" style="fill:none;stroke:#e6e6e6;stroke-linecap:square;stroke-width:0.8;"/>
     </g>
     <g id="line2d_26">
      <g>
       <use style="stroke:#000000;stroke-width:0.8;" x="108" xlink:href="#m21bbf89081" y="216.603909"/>
      </g>
     </g>
     <g id="text_14">
      <!-- 1.2 -->
      <g transform="translate(77.145313 222.302737)scale(0.15 -0.15)">
       <use xlink:href="#DejaVuSans-49"/>
       <use x="63.623047" xlink:href="#DejaVuSans-46"/>
       <use x="95.410156" xlink:href="#DejaVuSans-50"/>
      </g>
     </g>
    </g>
    <g id="ytick_8">
     <g id="line2d_27">
      <path clip-path="url(#p2c27ff6de2)" d="M 108 142.159677 
L 698.4 142.159677 
" style="fill:none;stroke:#e6e6e6;stroke-linecap:square;stroke-width:0.8;"/>
     </g>
     <g id="line2d_28">
      <g>
       <use style="stroke:#000000;stroke-width:0.8;" x="108" xlink:href="#m21bbf89081" y="142.159677"/>
      </g>
     </g>
     <g id="text_15">
      <!-- 1.4 -->
      <g transform="translate(77.145313 147.858505)scale(0.15 -0.15)">
       <use xlink:href="#DejaVuSans-49"/>
       <use x="63.623047" xlink:href="#DejaVuSans-46"/>
       <use x="95.410156" xlink:href="#DejaVuSans-52"/>
      </g>
     </g>
    </g>
    <g id="ytick_9">
     <g id="line2d_29">
      <path clip-path="url(#p2c27ff6de2)" d="M 108 67.715444 
L 698.4 67.715444 
" style="fill:none;stroke:#e6e6e6;stroke-linecap:square;stroke-width:0.8;"/>
     </g>
     <g id="line2d_30">
      <g>
       <use style="stroke:#000000;stroke-width:0.8;" x="108" xlink:href="#m21bbf89081" y="67.715444"/>
      </g>
     </g>
     <g id="text_16">
      <!-- 1.6 -->
      <g transform="translate(77.145313 73.414272)scale(0.15 -0.15)">
       <use xlink:href="#DejaVuSans-49"/>
       <use x="63.623047" xlink:href="#DejaVuSans-46"/>
       <use x="95.410156" xlink:href="#DejaVuSans-54"/>
      </g>
     </g>
    </g>
    <g id="text_17">
     <!-- $I_{int}$ -->
     <g transform="translate(67.946094 404.3)rotate(-90)scale(0.25 -0.25)">
      <defs>
       <path d="M 16.890625 72.90625 
L 26.8125 72.90625 
L 12.59375 0 
L 2.6875 0 
z
" id="DejaVuSans-Oblique-73"/>
       <path d="M 18.3125 75.984375 
L 27.296875 75.984375 
L 25.09375 64.59375 
L 16.109375 64.59375 
z
M 14.203125 54.6875 
L 23.1875 54.6875 
L 12.5 0 
L 3.515625 0 
z
" id="DejaVuSans-Oblique-105"/>
       <path d="M 55.71875 33.015625 
L 49.3125 0 
L 40.28125 0 
L 46.6875 32.671875 
Q 47.125 34.96875 47.359375 36.71875 
Q 47.609375 38.484375 47.609375 39.5 
Q 47.609375 43.609375 45.015625 45.890625 
Q 42.4375 48.1875 37.796875 48.1875 
Q 30.5625 48.1875 25.34375 43.375 
Q 20.125 38.578125 18.5 30.328125 
L 12.5 0 
L 3.515625 0 
L 14.109375 54.6875 
L 23.09375 54.6875 
L 21.296875 46.09375 
Q 25.046875 50.828125 30.3125 53.40625 
Q 35.59375 56 41.40625 56 
Q 48.640625 56 52.609375 52.09375 
Q 56.59375 48.1875 56.59375 41.109375 
Q 56.59375 39.359375 56.375 37.359375 
Q 56.15625 35.359375 55.71875 33.015625 
z
" id="DejaVuSans-Oblique-110"/>
       <path d="M 42.28125 54.6875 
L 40.921875 47.703125 
L 23 47.703125 
L 17.1875 18.015625 
Q 16.890625 16.359375 16.75 15.234375 
Q 16.609375 14.109375 16.609375 13.484375 
Q 16.609375 10.359375 18.484375 8.9375 
Q 20.359375 7.515625 24.515625 7.515625 
L 33.59375 7.515625 
L 32.078125 0 
L 23.484375 0 
Q 15.484375 0 11.546875 3.125 
Q 7.625 6.25 7.625 12.59375 
Q 7.625 13.71875 7.765625 15.0625 
Q 7.90625 16.40625 8.203125 18.015625 
L 14.015625 47.703125 
L 6.390625 47.703125 
L 7.8125 54.6875 
L 15.28125 54.6875 
L 18.3125 70.21875 
L 27.296875 70.21875 
L 24.3125 54.6875 
z
" id="DejaVuSans-Oblique-116"/>
      </defs>
      <use transform="translate(0 0.09375)" xlink:href="#DejaVuSans-Oblique-73"/>
      <use transform="translate(29.492188 -16.3125)scale(0.7)" xlink:href="#DejaVuSans-Oblique-105"/>
      <use transform="translate(48.94043 -16.3125)scale(0.7)" xlink:href="#DejaVuSans-Oblique-110"/>
      <use transform="translate(93.305664 -16.3125)scale(0.7)" xlink:href="#DejaVuSans-Oblique-116"/>
     </g>
    </g>
   </g>
   <g id="line2d_31">
    <path clip-path="url(#p2c27ff6de2)" d="M 159.233058 662.431882 
L 169.190892 660.809169 
L 179.148727 660.783276 
L 189.106561 659.890167 
L 199.064395 658.704514 
L 209.02223 657.521086 
L 218.980064 656.480885 
L 228.937898 656.112829 
L 238.895733 654.88141 
L 248.853567 653.99085 
L 258.811402 652.706965 
L 268.769236 652.246123 
L 278.72707 650.228918 
L 288.684905 648.974932 
L 298.642739 648.01255 
L 308.600573 646.742918 
L 318.558408 644.786363 
L 328.516242 643.059363 
L 338.474077 641.644584 
L 348.431911 640.162262 
L 358.389745 639.446437 
L 368.34758 637.679317 
L 378.305414 636.139786 
L 388.263248 632.827568 
L 398.221083 631.961825 
L 408.178917 629.291185 
L 418.136752 627.990474 
L 428.094586 625.549504 
L 438.05242 623.072432 
L 448.010255 621.113469 
L 457.968089 619.653575 
L 467.925923 616.725125 
L 477.883758 614.376253 
L 487.841592 611.934485 
L 497.799427 610.939472 
L 507.757261 607.86107 
L 517.715095 607.344338 
L 527.67293 606.066622 
L 537.630764 603.188885 
L 547.588598 601.605215 
L 557.546433 600.368552 
L 567.504267 598.027068 
L 577.462102 596.034681 
L 587.419936 593.947926 
L 597.37777 592.015295 
L 607.335605 590.564773 
L 617.293439 588.813764 
L 627.251273 587.274719 
L 637.209108 586.103841 
L 647.166942 586.091661 
" style="fill:none;stroke:#fcf500;stroke-linecap:square;stroke-width:2;"/>
   </g>
   <g id="line2d_32">
    <path clip-path="url(#p2c27ff6de2)" d="M 159.233058 663.26281 
L 169.190892 663.248152 
L 179.148727 663.232678 
L 189.106561 663.138966 
L 199.064395 662.980129 
L 209.02223 662.935051 
L 218.980064 662.815506 
L 228.937898 662.739567 
L 238.895733 662.743224 
L 248.853567 662.668944 
L 258.811402 662.696951 
L 268.769236 662.784913 
L 278.72707 662.734816 
L 288.684905 662.574564 
L 298.642739 662.610313 
L 308.600573 662.447868 
L 318.558408 662.001336 
L 328.516242 661.683319 
L 338.474077 662.129712 
L 348.431911 662.161363 
L 358.389745 661.915877 
L 368.34758 661.791878 
L 378.305414 662.144446 
L 388.263248 662.23687 
L 398.221083 662.225731 
L 408.178917 662.008075 
L 418.136752 661.943392 
L 428.094586 661.869803 
L 438.05242 662.058919 
L 448.010255 662.063451 
L 457.968089 661.934042 
L 467.925923 661.966322 
L 477.883758 661.993712 
L 487.841592 661.585286 
L 497.799427 661.487225 
L 507.757261 661.792878 
L 517.715095 661.907335 
L 527.67293 661.990369 
L 537.630764 662.354725 
L 547.588598 662.498322 
L 557.546433 662.290368 
L 567.504267 662.319263 
L 577.462102 662.475737 
L 587.419936 662.251756 
L 597.37777 662.327097 
L 607.335605 662.617164 
L 617.293439 662.617608 
L 627.251273 662.504355 
L 637.209108 662.663046 
L 647.166942 662.800773 
" style="fill:none;stroke:#08ff00;stroke-linecap:square;stroke-width:2;"/>
   </g>
   <g id="line2d_33">
    <path clip-path="url(#p2c27ff6de2)" d="M 159.233058 657.467336 
L 169.190892 636.651348 
L 179.148727 620.61078 
L 189.106561 605.955297 
L 199.064395 588.860915 
L 209.02223 571.134608 
L 218.980064 549.719491 
L 228.937898 533.009344 
L 238.895733 514.448298 
L 248.853567 496.432737 
L 258.811402 474.925752 
L 268.769236 453.658186 
L 278.72707 437.000985 
L 288.684905 424.315799 
L 298.642739 418.028629 
L 308.600573 410.785185 
L 318.558408 402.966907 
L 328.516242 394.5875 
L 338.474077 392.053449 
L 348.431911 388.478824 
L 358.389745 382.693535 
L 368.34758 379.463586 
L 378.305414 378.079452 
L 388.263248 377.77395 
L 398.221083 374.343667 
L 408.178917 370.118386 
L 418.136752 363.000584 
L 428.094586 361.921727 
L 438.05242 358.661586 
L 448.010255 359.745702 
L 457.968089 356.816485 
L 467.925923 361.327323 
L 477.883758 361.33015 
L 487.841592 362.739822 
L 497.799427 363.127368 
L 507.757261 368.528147 
L 517.715095 374.636936 
L 527.67293 384.9831 
L 537.630764 395.192792 
L 547.588598 404.946847 
L 557.546433 414.464628 
L 567.504267 421.544207 
L 577.462102 429.055248 
L 587.419936 435.269908 
L 597.37777 444.14127 
L 607.335605 452.796715 
L 617.293439 464.674938 
L 627.251273 476.12546 
L 637.209108 488.729295 
L 647.166942 501.144229 
" style="fill:none;stroke:#00fff6;stroke-linecap:square;stroke-width:2;"/>
   </g>
   <g id="line2d_34">
    <path clip-path="url(#p2c27ff6de2)" d="M 159.233058 663.262117 
L 169.190892 663.226389 
L 179.148727 663.174628 
L 189.106561 663.007691 
L 199.064395 662.796054 
L 209.02223 662.533634 
L 218.980064 662.348755 
L 228.937898 662.315511 
L 238.895733 662.267962 
L 248.853567 662.27424 
L 258.811402 662.24252 
L 268.769236 661.952796 
L 278.72707 661.455186 
L 288.684905 661.402806 
L 298.642739 661.439258 
L 308.600573 661.441279 
L 318.558408 661.587024 
L 328.516242 661.612014 
L 338.474077 661.796056 
L 348.431911 661.818667 
L 358.389745 662.227514 
L 368.34758 662.377951 
L 378.305414 662.477267 
L 388.263248 662.345073 
L 398.221083 662.089841 
L 408.178917 662.312865 
L 418.136752 662.640091 
L 428.094586 662.689673 
L 438.05242 662.628125 
L 448.010255 662.369818 
L 457.968089 662.159113 
L 467.925923 662.187603 
L 477.883758 662.014006 
L 487.841592 662.118384 
L 497.799427 661.911325 
L 507.757261 661.47256 
L 517.715095 661.5369 
L 527.67293 661.533518 
L 537.630764 661.23073 
L 547.588598 661.208837 
L 557.546433 661.48505 
L 567.504267 661.310461 
L 577.462102 661.244721 
L 587.419936 661.426726 
L 597.37777 661.609508 
L 607.335605 661.74561 
L 617.293439 661.695056 
L 627.251273 661.523447 
L 637.209108 661.421699 
L 647.166942 661.69276 
" style="fill:none;stroke:#0010ff;stroke-linecap:square;stroke-width:2;"/>
   </g>
   <g id="line2d_35">
    <path clip-path="url(#p2c27ff6de2)" d="M 159.233058 650.094613 
L 169.190892 595.215667 
L 179.148727 561.735362 
L 189.106561 534.10907 
L 199.064395 516.278983 
L 209.02223 504.075456 
L 218.980064 493.33441 
L 228.937898 484.536981 
L 238.895733 483.785373 
L 248.853567 486.157305 
L 258.811402 488.462243 
L 268.769236 496.550912 
L 278.72707 504.56082 
L 288.684905 512.511366 
L 298.642739 525.383199 
L 308.600573 534.536189 
L 318.558408 543.260218 
L 328.516242 550.459283 
L 338.474077 558.923637 
L 348.431911 567.764097 
L 358.389745 573.080578 
L 368.34758 579.611715 
L 378.305414 583.530548 
L 388.263248 578.159138 
L 398.221083 568.379854 
L 408.178917 559.188661 
L 418.136752 549.544171 
L 428.094586 542.025691 
L 438.05242 537.861168 
L 448.010255 541.001478 
L 457.968089 548.135608 
L 467.925923 551.090035 
L 477.883758 551.682523 
L 487.841592 553.270351 
L 497.799427 555.269871 
L 507.757261 554.414182 
L 517.715095 556.744444 
L 527.67293 564.107251 
L 537.630764 572.617847 
L 547.588598 582.838045 
L 557.546433 594.248907 
L 567.504267 602.255005 
L 577.462102 608.942577 
L 587.419936 617.982245 
L 597.37777 625.069533 
L 607.335605 622.958709 
L 617.293439 616.238343 
L 627.251273 607.421039 
L 637.209108 594.642993 
L 647.166942 581.927929 
" style="fill:none;stroke:#ee00ff;stroke-linecap:square;stroke-width:2;"/>
   </g>
   <g id="line2d_36">
    <path clip-path="url(#p2c27ff6de2)" d="M 159.233058 651.387004 
L 169.190892 598.256965 
L 179.148727 559.947204 
L 189.106561 536.158688 
L 199.064395 515.134417 
L 209.02223 495.540847 
L 218.980064 484.893796 
L 228.937898 464.066158 
L 238.895733 438.601997 
L 248.853567 413.150073 
L 258.811402 383.326134 
L 268.769236 358.164016 
L 278.72707 343.522332 
L 288.684905 330.764681 
L 298.642739 314.921316 
L 308.600573 298.251679 
L 318.558408 283.922465 
L 328.516242 264.668895 
L 338.474077 233.392291 
L 348.431911 201.348117 
L 358.389745 175.209975 
L 368.34758 151.081783 
L 378.305414 132.576012 
L 388.263248 125.528375 
L 398.221083 119.149985 
L 408.178917 114.33719 
L 418.136752 127.226115 
L 428.094586 153.453813 
L 438.05242 179.842208 
L 448.010255 202.900615 
L 457.968089 227.87975 
L 467.925923 260.913897 
L 477.883758 294.572401 
L 487.841592 329.091392 
L 497.799427 364.801843 
L 507.757261 390.385899 
L 517.715095 407.753327 
L 527.67293 422.130901 
L 537.630764 440.268227 
L 547.588598 458.468007 
L 557.546433 476.421336 
L 567.504267 495.09962 
L 577.462102 512.855066 
L 587.419936 529.38301 
L 597.37777 550.111222 
L 607.335605 570.920199 
L 617.293439 586.097494 
L 627.251273 594.058005 
L 637.209108 595.197359 
L 647.166942 587.830442 
" style="fill:none;stroke:#ff0018;stroke-linecap:square;stroke-width:2;"/>
   </g>
   <g id="patch_3">
    <path d="M 108 720.9 
L 108 56.7 
" style="fill:none;stroke:#000000;stroke-linecap:square;stroke-linejoin:miter;stroke-width:0.8;"/>
   </g>
   <g id="patch_4">
    <path d="M 698.4 720.9 
L 698.4 56.7 
" style="fill:none;stroke:#000000;stroke-linecap:square;stroke-linejoin:miter;stroke-width:0.8;"/>
   </g>
   <g id="patch_5">
    <path d="M 108 720.9 
L 698.4 720.9 
" style="fill:none;stroke:#000000;stroke-linecap:square;stroke-linejoin:miter;stroke-width:0.8;"/>
   </g>
   <g id="patch_6">
    <path d="M 108 56.7 
L 698.4 56.7 
" style="fill:none;stroke:#000000;stroke-linecap:square;stroke-linejoin:miter;stroke-width:0.8;"/>
   </g>
   <g id="legend_1">
    <g id="patch_7">
     <path d="M 526.7625 248.8375 
L 684.4 248.8375 
Q 688.4 248.8375 688.4 244.8375 
L 688.4 70.7 
Q 688.4 66.7 684.4 66.7 
L 526.7625 66.7 
Q 522.7625 66.7 522.7625 70.7 
L 522.7625 244.8375 
Q 522.7625 248.8375 526.7625 248.8375 
z
" style="fill:#ffffff;opacity:0.8;stroke:#cccccc;stroke-linejoin:miter;"/>
    </g>
    <g id="line2d_37">
     <path d="M 530.7625 82.896875 
L 570.7625 82.896875 
" style="fill:none;stroke:#fcf500;stroke-linecap:square;stroke-width:2;"/>
    </g>
    <g id="line2d_38"/>
    <g id="text_18">
     <!-- (-3, -1, 2) -->
     <g transform="translate(586.7625 89.896875)scale(0.2 -0.2)">
      <defs>
       <path d="M 4.890625 31.390625 
L 31.203125 31.390625 
L 31.203125 23.390625 
L 4.890625 23.390625 
z
" id="DejaVuSans-45"/>
       <path d="M 40.578125 39.3125 
Q 47.65625 37.796875 51.625 33 
Q 55.609375 28.21875 55.609375 21.1875 
Q 55.609375 10.40625 48.1875 4.484375 
Q 40.765625 -1.421875 27.09375 -1.421875 
Q 22.515625 -1.421875 17.65625 -0.515625 
Q 12.796875 0.390625 7.625 2.203125 
L 7.625 11.71875 
Q 11.71875 9.328125 16.59375 8.109375 
Q 21.484375 6.890625 26.8125 6.890625 
Q 36.078125 6.890625 40.9375 10.546875 
Q 45.796875 14.203125 45.796875 21.1875 
Q 45.796875 27.640625 41.28125 31.265625 
Q 36.765625 34.90625 28.71875 34.90625 
L 20.21875 34.90625 
L 20.21875 43.015625 
L 29.109375 43.015625 
Q 36.375 43.015625 40.234375 45.921875 
Q 44.09375 48.828125 44.09375 54.296875 
Q 44.09375 59.90625 40.109375 62.90625 
Q 36.140625 65.921875 28.71875 65.921875 
Q 24.65625 65.921875 20.015625 65.03125 
Q 15.375 64.15625 9.8125 62.3125 
L 9.8125 71.09375 
Q 15.4375 72.65625 20.34375 73.4375 
Q 25.25 74.21875 29.59375 74.21875 
Q 40.828125 74.21875 47.359375 69.109375 
Q 53.90625 64.015625 53.90625 55.328125 
Q 53.90625 49.265625 50.4375 45.09375 
Q 46.96875 40.921875 40.578125 39.3125 
z
" id="DejaVuSans-51"/>
       <path d="M 11.71875 12.40625 
L 22.015625 12.40625 
L 22.015625 4 
L 14.015625 -11.625 
L 7.71875 -11.625 
L 11.71875 4 
z
" id="DejaVuSans-44"/>
       <path id="DejaVuSans-32"/>
      </defs>
      <use xlink:href="#DejaVuSans-40"/>
      <use x="39.013672" xlink:href="#DejaVuSans-45"/>
      <use x="75.097656" xlink:href="#DejaVuSans-51"/>
      <use x="138.720703" xlink:href="#DejaVuSans-44"/>
      <use x="170.507812" xlink:href="#DejaVuSans-32"/>
      <use x="202.294922" xlink:href="#DejaVuSans-45"/>
      <use x="238.378906" xlink:href="#DejaVuSans-49"/>
      <use x="302.001953" xlink:href="#DejaVuSans-44"/>
      <use x="333.789062" xlink:href="#DejaVuSans-32"/>
      <use x="365.576172" xlink:href="#DejaVuSans-50"/>
      <use x="429.199219" xlink:href="#DejaVuSans-41"/>
     </g>
    </g>
    <g id="line2d_39">
     <path d="M 530.7625 112.253125 
L 570.7625 112.253125 
" style="fill:none;stroke:#08ff00;stroke-linecap:square;stroke-width:2;"/>
    </g>
    <g id="line2d_40"/>
    <g id="text_19">
     <!-- (3, 1, -4) -->
     <g transform="translate(586.7625 119.253125)scale(0.2 -0.2)">
      <use xlink:href="#DejaVuSans-40"/>
      <use x="39.013672" xlink:href="#DejaVuSans-51"/>
      <use x="102.636719" xlink:href="#DejaVuSans-44"/>
      <use x="134.423828" xlink:href="#DejaVuSans-32"/>
      <use x="166.210938" xlink:href="#DejaVuSans-49"/>
      <use x="229.833984" xlink:href="#DejaVuSans-44"/>
      <use x="261.621094" xlink:href="#DejaVuSans-32"/>
      <use x="293.408203" xlink:href="#DejaVuSans-45"/>
      <use x="329.492188" xlink:href="#DejaVuSans-52"/>
      <use x="393.115234" xlink:href="#DejaVuSans-41"/>
     </g>
    </g>
    <g id="line2d_41">
     <path d="M 530.7625 141.609375 
L 570.7625 141.609375 
" style="fill:none;stroke:#00fff6;stroke-linecap:square;stroke-width:2;"/>
    </g>
    <g id="line2d_42"/>
    <g id="text_20">
     <!-- (4, 1, 0) -->
     <g transform="translate(586.7625 148.609375)scale(0.2 -0.2)">
      <use xlink:href="#DejaVuSans-40"/>
      <use x="39.013672" xlink:href="#DejaVuSans-52"/>
      <use x="102.636719" xlink:href="#DejaVuSans-44"/>
      <use x="134.423828" xlink:href="#DejaVuSans-32"/>
      <use x="166.210938" xlink:href="#DejaVuSans-49"/>
      <use x="229.833984" xlink:href="#DejaVuSans-44"/>
      <use x="261.621094" xlink:href="#DejaVuSans-32"/>
      <use x="293.408203" xlink:href="#DejaVuSans-48"/>
      <use x="357.03125" xlink:href="#DejaVuSans-41"/>
     </g>
    </g>
    <g id="line2d_43">
     <path d="M 530.7625 170.965625 
L 570.7625 170.965625 
" style="fill:none;stroke:#0010ff;stroke-linecap:square;stroke-width:2;"/>
    </g>
    <g id="line2d_44"/>
    <g id="text_21">
     <!-- (-3, -1, 4) -->
     <g transform="translate(586.7625 177.965625)scale(0.2 -0.2)">
      <use xlink:href="#DejaVuSans-40"/>
      <use x="39.013672" xlink:href="#DejaVuSans-45"/>
      <use x="75.097656" xlink:href="#DejaVuSans-51"/>
      <use x="138.720703" xlink:href="#DejaVuSans-44"/>
      <use x="170.507812" xlink:href="#DejaVuSans-32"/>
      <use x="202.294922" xlink:href="#DejaVuSans-45"/>
      <use x="238.378906" xlink:href="#DejaVuSans-49"/>
      <use x="302.001953" xlink:href="#DejaVuSans-44"/>
      <use x="333.789062" xlink:href="#DejaVuSans-32"/>
      <use x="365.576172" xlink:href="#DejaVuSans-52"/>
      <use x="429.199219" xlink:href="#DejaVuSans-41"/>
     </g>
    </g>
    <g id="line2d_45">
     <path d="M 530.7625 200.321875 
L 570.7625 200.321875 
" style="fill:none;stroke:#ee00ff;stroke-linecap:square;stroke-width:2;"/>
    </g>
    <g id="line2d_46"/>
    <g id="text_22">
     <!-- (0, 0, -2) -->
     <g transform="translate(586.7625 207.321875)scale(0.2 -0.2)">
      <use xlink:href="#DejaVuSans-40"/>
      <use x="39.013672" xlink:href="#DejaVuSans-48"/>
      <use x="102.636719" xlink:href="#DejaVuSans-44"/>
      <use x="134.423828" xlink:href="#DejaVuSans-32"/>
      <use x="166.210938" xlink:href="#DejaVuSans-48"/>
      <use x="229.833984" xlink:href="#DejaVuSans-44"/>
      <use x="261.621094" xlink:href="#DejaVuSans-32"/>
      <use x="293.408203" xlink:href="#DejaVuSans-45"/>
      <use x="329.492188" xlink:href="#DejaVuSans-50"/>
      <use x="393.115234" xlink:href="#DejaVuSans-41"/>
     </g>
    </g>
    <g id="line2d_47">
     <path d="M 530.7625 229.678125 
L 570.7625 229.678125 
" style="fill:none;stroke:#ff0018;stroke-linecap:square;stroke-width:2;"/>
    </g>
    <g id="line2d_48"/>
    <g id="text_23">
     <!-- (0, 0, 2) -->
     <g transform="translate(586.7625 236.678125)scale(0.2 -0.2)">
      <use xlink:href="#DejaVuSans-40"/>
      <use x="39.013672" xlink:href="#DejaVuSans-48"/>
      <use x="102.636719" xlink:href="#DejaVuSans-44"/>
      <use x="134.423828" xlink:href="#DejaVuSans-32"/>
      <use x="166.210938" xlink:href="#DejaVuSans-48"/>
      <use x="229.833984" xlink:href="#DejaVuSans-44"/>
      <use x="261.621094" xlink:href="#DejaVuSans-32"/>
      <use x="293.408203" xlink:href="#DejaVuSans-50"/>
      <use x="357.03125" xlink:href="#DejaVuSans-41"/>
     </g>
    </g>
   </g>
  </g>
 </g>
 <defs>
  <clipPath id="p2c27ff6de2">
   <rect height="664.2" width="590.4" x="108" y="56.7"/>
  </clipPath>
 </defs>
</svg>
