<?xml version="1.0" encoding="utf-8" standalone="no"?>
<!DOCTYPE svg PUBLIC "-//W3C//DTD SVG 1.1//EN"
  "http://www.w3.org/Graphics/SVG/1.1/DTD/svg11.dtd">
<!-- Created with matplotlib (https://matplotlib.org/) -->
<svg height="810pt" version="1.1" viewBox="0 0 720 810" width="720pt" xmlns="http://www.w3.org/2000/svg" xmlns:xlink="http://www.w3.org/1999/xlink">
 <metadata>
  <rdf:RDF xmlns:cc="http://creativecommons.org/ns#" xmlns:dc="http://purl.org/dc/elements/1.1/" xmlns:rdf="http://www.w3.org/1999/02/22-rdf-syntax-ns#">
   <cc:Work>
    <dc:type rdf:resource="http://purl.org/dc/dcmitype/StillImage"/>
    <dc:date>2021-07-20T11:15:17.607313</dc:date>
    <dc:format>image/svg+xml</dc:format>
    <dc:creator>
     <cc:Agent>
      <dc:title>Matplotlib v3.3.1, https://matplotlib.org/</dc:title>
     </cc:Agent>
    </dc:creator>
   </cc:Work>
  </rdf:RDF>
 </metadata>
 <defs>
  <style type="text/css">*{stroke-linecap:butt;stroke-linejoin:round;}</style>
 </defs>
 <g id="figure_1">
  <g id="patch_1">
   <path d="M 0 810 
L 720 810 
L 720 0 
L 0 0 
z
" style="fill:#ffffff;"/>
  </g>
  <g id="axes_1">
   <g id="patch_2">
    <path d="M 108 720.9 
L 698.4 720.9 
L 698.4 56.7 
L 108 56.7 
z
" style="fill:#ffffff;"/>
   </g>
   <g id="matplotlib.axis_1">
    <g id="xtick_1">
     <g id="line2d_1">
      <path clip-path="url(#pbdf4179318)" d="M 147.332231 720.9 
L 147.332231 56.7 
" style="fill:none;stroke:#e6e6e6;stroke-linecap:square;stroke-width:0.8;"/>
     </g>
     <g id="line2d_2">
      <defs>
       <path d="M 0 0 
L 0 3.5 
" id="m1f51d4b62d" style="stroke:#000000;stroke-width:0.8;"/>
      </defs>
      <g>
       <use style="stroke:#000000;stroke-width:0.8;" x="147.332231" xlink:href="#m1f51d4b62d" y="720.9"/>
      </g>
     </g>
     <g id="text_1">
      <!-- 0 -->
      <g transform="translate(142.560356 739.297656)scale(0.15 -0.15)">
       <defs>
        <path d="M 31.78125 66.40625 
Q 24.171875 66.40625 20.328125 58.90625 
Q 16.5 51.421875 16.5 36.375 
Q 16.5 21.390625 20.328125 13.890625 
Q 24.171875 6.390625 31.78125 6.390625 
Q 39.453125 6.390625 43.28125 13.890625 
Q 47.125 21.390625 47.125 36.375 
Q 47.125 51.421875 43.28125 58.90625 
Q 39.453125 66.40625 31.78125 66.40625 
z
M 31.78125 74.21875 
Q 44.046875 74.21875 50.515625 64.515625 
Q 56.984375 54.828125 56.984375 36.375 
Q 56.984375 17.96875 50.515625 8.265625 
Q 44.046875 -1.421875 31.78125 -1.421875 
Q 19.53125 -1.421875 13.0625 8.265625 
Q 6.59375 17.96875 6.59375 36.375 
Q 6.59375 54.828125 13.0625 64.515625 
Q 19.53125 74.21875 31.78125 74.21875 
z
" id="DejaVuSans-48"/>
       </defs>
       <use xlink:href="#DejaVuSans-48"/>
      </g>
     </g>
    </g>
    <g id="xtick_2">
     <g id="line2d_3">
      <path clip-path="url(#pbdf4179318)" d="M 266.340496 720.9 
L 266.340496 56.7 
" style="fill:none;stroke:#e6e6e6;stroke-linecap:square;stroke-width:0.8;"/>
     </g>
     <g id="line2d_4">
      <g>
       <use style="stroke:#000000;stroke-width:0.8;" x="266.340496" xlink:href="#m1f51d4b62d" y="720.9"/>
      </g>
     </g>
     <g id="text_2">
      <!-- 10 -->
      <g transform="translate(256.796746 739.297656)scale(0.15 -0.15)">
       <defs>
        <path d="M 12.40625 8.296875 
L 28.515625 8.296875 
L 28.515625 63.921875 
L 10.984375 60.40625 
L 10.984375 69.390625 
L 28.421875 72.90625 
L 38.28125 72.90625 
L 38.28125 8.296875 
L 54.390625 8.296875 
L 54.390625 0 
L 12.40625 0 
z
" id="DejaVuSans-49"/>
       </defs>
       <use xlink:href="#DejaVuSans-49"/>
       <use x="63.623047" xlink:href="#DejaVuSans-48"/>
      </g>
     </g>
    </g>
    <g id="xtick_3">
     <g id="line2d_5">
      <path clip-path="url(#pbdf4179318)" d="M 385.34876 720.9 
L 385.34876 56.7 
" style="fill:none;stroke:#e6e6e6;stroke-linecap:square;stroke-width:0.8;"/>
     </g>
     <g id="line2d_6">
      <g>
       <use style="stroke:#000000;stroke-width:0.8;" x="385.34876" xlink:href="#m1f51d4b62d" y="720.9"/>
      </g>
     </g>
     <g id="text_3">
      <!-- 20 -->
      <g transform="translate(375.80501 739.297656)scale(0.15 -0.15)">
       <defs>
        <path d="M 19.1875 8.296875 
L 53.609375 8.296875 
L 53.609375 0 
L 7.328125 0 
L 7.328125 8.296875 
Q 12.9375 14.109375 22.625 23.890625 
Q 32.328125 33.6875 34.8125 36.53125 
Q 39.546875 41.84375 41.421875 45.53125 
Q 43.3125 49.21875 43.3125 52.78125 
Q 43.3125 58.59375 39.234375 62.25 
Q 35.15625 65.921875 28.609375 65.921875 
Q 23.96875 65.921875 18.8125 64.3125 
Q 13.671875 62.703125 7.8125 59.421875 
L 7.8125 69.390625 
Q 13.765625 71.78125 18.9375 73 
Q 24.125 74.21875 28.421875 74.21875 
Q 39.75 74.21875 46.484375 68.546875 
Q 53.21875 62.890625 53.21875 53.421875 
Q 53.21875 48.921875 51.53125 44.890625 
Q 49.859375 40.875 45.40625 35.40625 
Q 44.1875 33.984375 37.640625 27.21875 
Q 31.109375 20.453125 19.1875 8.296875 
z
" id="DejaVuSans-50"/>
       </defs>
       <use xlink:href="#DejaVuSans-50"/>
       <use x="63.623047" xlink:href="#DejaVuSans-48"/>
      </g>
     </g>
    </g>
    <g id="xtick_4">
     <g id="line2d_7">
      <path clip-path="url(#pbdf4179318)" d="M 504.357025 720.9 
L 504.357025 56.7 
" style="fill:none;stroke:#e6e6e6;stroke-linecap:square;stroke-width:0.8;"/>
     </g>
     <g id="line2d_8">
      <g>
       <use style="stroke:#000000;stroke-width:0.8;" x="504.357025" xlink:href="#m1f51d4b62d" y="720.9"/>
      </g>
     </g>
     <g id="text_4">
      <!-- 30 -->
      <g transform="translate(494.813275 739.297656)scale(0.15 -0.15)">
       <defs>
        <path d="M 40.578125 39.3125 
Q 47.65625 37.796875 51.625 33 
Q 55.609375 28.21875 55.609375 21.1875 
Q 55.609375 10.40625 48.1875 4.484375 
Q 40.765625 -1.421875 27.09375 -1.421875 
Q 22.515625 -1.421875 17.65625 -0.515625 
Q 12.796875 0.390625 7.625 2.203125 
L 7.625 11.71875 
Q 11.71875 9.328125 16.59375 8.109375 
Q 21.484375 6.890625 26.8125 6.890625 
Q 36.078125 6.890625 40.9375 10.546875 
Q 45.796875 14.203125 45.796875 21.1875 
Q 45.796875 27.640625 41.28125 31.265625 
Q 36.765625 34.90625 28.71875 34.90625 
L 20.21875 34.90625 
L 20.21875 43.015625 
L 29.109375 43.015625 
Q 36.375 43.015625 40.234375 45.921875 
Q 44.09375 48.828125 44.09375 54.296875 
Q 44.09375 59.90625 40.109375 62.90625 
Q 36.140625 65.921875 28.71875 65.921875 
Q 24.65625 65.921875 20.015625 65.03125 
Q 15.375 64.15625 9.8125 62.3125 
L 9.8125 71.09375 
Q 15.4375 72.65625 20.34375 73.4375 
Q 25.25 74.21875 29.59375 74.21875 
Q 40.828125 74.21875 47.359375 69.109375 
Q 53.90625 64.015625 53.90625 55.328125 
Q 53.90625 49.265625 50.4375 45.09375 
Q 46.96875 40.921875 40.578125 39.3125 
z
" id="DejaVuSans-51"/>
       </defs>
       <use xlink:href="#DejaVuSans-51"/>
       <use x="63.623047" xlink:href="#DejaVuSans-48"/>
      </g>
     </g>
    </g>
    <g id="xtick_5">
     <g id="line2d_9">
      <path clip-path="url(#pbdf4179318)" d="M 623.365289 720.9 
L 623.365289 56.7 
" style="fill:none;stroke:#e6e6e6;stroke-linecap:square;stroke-width:0.8;"/>
     </g>
     <g id="line2d_10">
      <g>
       <use style="stroke:#000000;stroke-width:0.8;" x="623.365289" xlink:href="#m1f51d4b62d" y="720.9"/>
      </g>
     </g>
     <g id="text_5">
      <!-- 40 -->
      <g transform="translate(613.821539 739.297656)scale(0.15 -0.15)">
       <defs>
        <path d="M 37.796875 64.3125 
L 12.890625 25.390625 
L 37.796875 25.390625 
z
M 35.203125 72.90625 
L 47.609375 72.90625 
L 47.609375 25.390625 
L 58.015625 25.390625 
L 58.015625 17.1875 
L 47.609375 17.1875 
L 47.609375 0 
L 37.796875 0 
L 37.796875 17.1875 
L 4.890625 17.1875 
L 4.890625 26.703125 
z
" id="DejaVuSans-52"/>
       </defs>
       <use xlink:href="#DejaVuSans-52"/>
       <use x="63.623047" xlink:href="#DejaVuSans-48"/>
      </g>
     </g>
    </g>
    <g id="text_6">
     <!-- frame -->
     <g transform="translate(366.133594 765.413281)scale(0.25 -0.25)">
      <defs>
       <path d="M 37.109375 75.984375 
L 37.109375 68.5 
L 28.515625 68.5 
Q 23.6875 68.5 21.796875 66.546875 
Q 19.921875 64.59375 19.921875 59.515625 
L 19.921875 54.6875 
L 34.71875 54.6875 
L 34.71875 47.703125 
L 19.921875 47.703125 
L 19.921875 0 
L 10.890625 0 
L 10.890625 47.703125 
L 2.296875 47.703125 
L 2.296875 54.6875 
L 10.890625 54.6875 
L 10.890625 58.5 
Q 10.890625 67.625 15.140625 71.796875 
Q 19.390625 75.984375 28.609375 75.984375 
z
" id="DejaVuSans-102"/>
       <path d="M 41.109375 46.296875 
Q 39.59375 47.171875 37.8125 47.578125 
Q 36.03125 48 33.890625 48 
Q 26.265625 48 22.1875 43.046875 
Q 18.109375 38.09375 18.109375 28.8125 
L 18.109375 0 
L 9.078125 0 
L 9.078125 54.6875 
L 18.109375 54.6875 
L 18.109375 46.1875 
Q 20.953125 51.171875 25.484375 53.578125 
Q 30.03125 56 36.53125 56 
Q 37.453125 56 38.578125 55.875 
Q 39.703125 55.765625 41.0625 55.515625 
z
" id="DejaVuSans-114"/>
       <path d="M 34.28125 27.484375 
Q 23.390625 27.484375 19.1875 25 
Q 14.984375 22.515625 14.984375 16.5 
Q 14.984375 11.71875 18.140625 8.90625 
Q 21.296875 6.109375 26.703125 6.109375 
Q 34.1875 6.109375 38.703125 11.40625 
Q 43.21875 16.703125 43.21875 25.484375 
L 43.21875 27.484375 
z
M 52.203125 31.203125 
L 52.203125 0 
L 43.21875 0 
L 43.21875 8.296875 
Q 40.140625 3.328125 35.546875 0.953125 
Q 30.953125 -1.421875 24.3125 -1.421875 
Q 15.921875 -1.421875 10.953125 3.296875 
Q 6 8.015625 6 15.921875 
Q 6 25.140625 12.171875 29.828125 
Q 18.359375 34.515625 30.609375 34.515625 
L 43.21875 34.515625 
L 43.21875 35.40625 
Q 43.21875 41.609375 39.140625 45 
Q 35.0625 48.390625 27.6875 48.390625 
Q 23 48.390625 18.546875 47.265625 
Q 14.109375 46.140625 10.015625 43.890625 
L 10.015625 52.203125 
Q 14.9375 54.109375 19.578125 55.046875 
Q 24.21875 56 28.609375 56 
Q 40.484375 56 46.34375 49.84375 
Q 52.203125 43.703125 52.203125 31.203125 
z
" id="DejaVuSans-97"/>
       <path d="M 52 44.1875 
Q 55.375 50.25 60.0625 53.125 
Q 64.75 56 71.09375 56 
Q 79.640625 56 84.28125 50.015625 
Q 88.921875 44.046875 88.921875 33.015625 
L 88.921875 0 
L 79.890625 0 
L 79.890625 32.71875 
Q 79.890625 40.578125 77.09375 44.375 
Q 74.3125 48.1875 68.609375 48.1875 
Q 61.625 48.1875 57.5625 43.546875 
Q 53.515625 38.921875 53.515625 30.90625 
L 53.515625 0 
L 44.484375 0 
L 44.484375 32.71875 
Q 44.484375 40.625 41.703125 44.40625 
Q 38.921875 48.1875 33.109375 48.1875 
Q 26.21875 48.1875 22.15625 43.53125 
Q 18.109375 38.875 18.109375 30.90625 
L 18.109375 0 
L 9.078125 0 
L 9.078125 54.6875 
L 18.109375 54.6875 
L 18.109375 46.1875 
Q 21.1875 51.21875 25.484375 53.609375 
Q 29.78125 56 35.6875 56 
Q 41.65625 56 45.828125 52.96875 
Q 50 49.953125 52 44.1875 
z
" id="DejaVuSans-109"/>
       <path d="M 56.203125 29.59375 
L 56.203125 25.203125 
L 14.890625 25.203125 
Q 15.484375 15.921875 20.484375 11.0625 
Q 25.484375 6.203125 34.421875 6.203125 
Q 39.59375 6.203125 44.453125 7.46875 
Q 49.3125 8.734375 54.109375 11.28125 
L 54.109375 2.78125 
Q 49.265625 0.734375 44.1875 -0.34375 
Q 39.109375 -1.421875 33.890625 -1.421875 
Q 20.796875 -1.421875 13.15625 6.1875 
Q 5.515625 13.8125 5.515625 26.8125 
Q 5.515625 40.234375 12.765625 48.109375 
Q 20.015625 56 32.328125 56 
Q 43.359375 56 49.78125 48.890625 
Q 56.203125 41.796875 56.203125 29.59375 
z
M 47.21875 32.234375 
Q 47.125 39.59375 43.09375 43.984375 
Q 39.0625 48.390625 32.421875 48.390625 
Q 24.90625 48.390625 20.390625 44.140625 
Q 15.875 39.890625 15.1875 32.171875 
z
" id="DejaVuSans-101"/>
      </defs>
      <use xlink:href="#DejaVuSans-102"/>
      <use x="35.205078" xlink:href="#DejaVuSans-114"/>
      <use x="76.318359" xlink:href="#DejaVuSans-97"/>
      <use x="137.597656" xlink:href="#DejaVuSans-109"/>
      <use x="235.009766" xlink:href="#DejaVuSans-101"/>
     </g>
    </g>
   </g>
   <g id="matplotlib.axis_2">
    <g id="ytick_1">
     <g id="line2d_11">
      <path clip-path="url(#pbdf4179318)" d="M 108 663.539556 
L 698.4 663.539556 
" style="fill:none;stroke:#e6e6e6;stroke-linecap:square;stroke-width:0.8;"/>
     </g>
     <g id="line2d_12">
      <defs>
       <path d="M 0 0 
L -3.5 0 
" id="m892b470421" style="stroke:#000000;stroke-width:0.8;"/>
      </defs>
      <g>
       <use style="stroke:#000000;stroke-width:0.8;" x="108" xlink:href="#m892b470421" y="663.539556"/>
      </g>
     </g>
     <g id="text_7">
      <!-- 0.000 -->
      <g transform="translate(58.057813 669.238384)scale(0.15 -0.15)">
       <defs>
        <path d="M 10.6875 12.40625 
L 21 12.40625 
L 21 0 
L 10.6875 0 
z
" id="DejaVuSans-46"/>
       </defs>
       <use xlink:href="#DejaVuSans-48"/>
       <use x="63.623047" xlink:href="#DejaVuSans-46"/>
       <use x="95.410156" xlink:href="#DejaVuSans-48"/>
       <use x="159.033203" xlink:href="#DejaVuSans-48"/>
       <use x="222.65625" xlink:href="#DejaVuSans-48"/>
      </g>
     </g>
    </g>
    <g id="ytick_2">
     <g id="line2d_13">
      <path clip-path="url(#pbdf4179318)" d="M 108 559.043851 
L 698.4 559.043851 
" style="fill:none;stroke:#e6e6e6;stroke-linecap:square;stroke-width:0.8;"/>
     </g>
     <g id="line2d_14">
      <g>
       <use style="stroke:#000000;stroke-width:0.8;" x="108" xlink:href="#m892b470421" y="559.043851"/>
      </g>
     </g>
     <g id="text_8">
      <!-- 0.001 -->
      <g transform="translate(58.057813 564.742679)scale(0.15 -0.15)">
       <use xlink:href="#DejaVuSans-48"/>
       <use x="63.623047" xlink:href="#DejaVuSans-46"/>
       <use x="95.410156" xlink:href="#DejaVuSans-48"/>
       <use x="159.033203" xlink:href="#DejaVuSans-48"/>
       <use x="222.65625" xlink:href="#DejaVuSans-49"/>
      </g>
     </g>
    </g>
    <g id="ytick_3">
     <g id="line2d_15">
      <path clip-path="url(#pbdf4179318)" d="M 108 454.548145 
L 698.4 454.548145 
" style="fill:none;stroke:#e6e6e6;stroke-linecap:square;stroke-width:0.8;"/>
     </g>
     <g id="line2d_16">
      <g>
       <use style="stroke:#000000;stroke-width:0.8;" x="108" xlink:href="#m892b470421" y="454.548145"/>
      </g>
     </g>
     <g id="text_9">
      <!-- 0.002 -->
      <g transform="translate(58.057813 460.246973)scale(0.15 -0.15)">
       <use xlink:href="#DejaVuSans-48"/>
       <use x="63.623047" xlink:href="#DejaVuSans-46"/>
       <use x="95.410156" xlink:href="#DejaVuSans-48"/>
       <use x="159.033203" xlink:href="#DejaVuSans-48"/>
       <use x="222.65625" xlink:href="#DejaVuSans-50"/>
      </g>
     </g>
    </g>
    <g id="ytick_4">
     <g id="line2d_17">
      <path clip-path="url(#pbdf4179318)" d="M 108 350.052439 
L 698.4 350.052439 
" style="fill:none;stroke:#e6e6e6;stroke-linecap:square;stroke-width:0.8;"/>
     </g>
     <g id="line2d_18">
      <g>
       <use style="stroke:#000000;stroke-width:0.8;" x="108" xlink:href="#m892b470421" y="350.052439"/>
      </g>
     </g>
     <g id="text_10">
      <!-- 0.003 -->
      <g transform="translate(58.057813 355.751267)scale(0.15 -0.15)">
       <use xlink:href="#DejaVuSans-48"/>
       <use x="63.623047" xlink:href="#DejaVuSans-46"/>
       <use x="95.410156" xlink:href="#DejaVuSans-48"/>
       <use x="159.033203" xlink:href="#DejaVuSans-48"/>
       <use x="222.65625" xlink:href="#DejaVuSans-51"/>
      </g>
     </g>
    </g>
    <g id="ytick_5">
     <g id="line2d_19">
      <path clip-path="url(#pbdf4179318)" d="M 108 245.556734 
L 698.4 245.556734 
" style="fill:none;stroke:#e6e6e6;stroke-linecap:square;stroke-width:0.8;"/>
     </g>
     <g id="line2d_20">
      <g>
       <use style="stroke:#000000;stroke-width:0.8;" x="108" xlink:href="#m892b470421" y="245.556734"/>
      </g>
     </g>
     <g id="text_11">
      <!-- 0.004 -->
      <g transform="translate(58.057813 251.255562)scale(0.15 -0.15)">
       <use xlink:href="#DejaVuSans-48"/>
       <use x="63.623047" xlink:href="#DejaVuSans-46"/>
       <use x="95.410156" xlink:href="#DejaVuSans-48"/>
       <use x="159.033203" xlink:href="#DejaVuSans-48"/>
       <use x="222.65625" xlink:href="#DejaVuSans-52"/>
      </g>
     </g>
    </g>
    <g id="ytick_6">
     <g id="line2d_21">
      <path clip-path="url(#pbdf4179318)" d="M 108 141.061028 
L 698.4 141.061028 
" style="fill:none;stroke:#e6e6e6;stroke-linecap:square;stroke-width:0.8;"/>
     </g>
     <g id="line2d_22">
      <g>
       <use style="stroke:#000000;stroke-width:0.8;" x="108" xlink:href="#m892b470421" y="141.061028"/>
      </g>
     </g>
     <g id="text_12">
      <!-- 0.005 -->
      <g transform="translate(58.057813 146.759856)scale(0.15 -0.15)">
       <defs>
        <path d="M 10.796875 72.90625 
L 49.515625 72.90625 
L 49.515625 64.59375 
L 19.828125 64.59375 
L 19.828125 46.734375 
Q 21.96875 47.46875 24.109375 47.828125 
Q 26.265625 48.1875 28.421875 48.1875 
Q 40.625 48.1875 47.75 41.5 
Q 54.890625 34.8125 54.890625 23.390625 
Q 54.890625 11.625 47.5625 5.09375 
Q 40.234375 -1.421875 26.90625 -1.421875 
Q 22.3125 -1.421875 17.546875 -0.640625 
Q 12.796875 0.140625 7.71875 1.703125 
L 7.71875 11.625 
Q 12.109375 9.234375 16.796875 8.0625 
Q 21.484375 6.890625 26.703125 6.890625 
Q 35.15625 6.890625 40.078125 11.328125 
Q 45.015625 15.765625 45.015625 23.390625 
Q 45.015625 31 40.078125 35.4375 
Q 35.15625 39.890625 26.703125 39.890625 
Q 22.75 39.890625 18.8125 39.015625 
Q 14.890625 38.140625 10.796875 36.28125 
z
" id="DejaVuSans-53"/>
       </defs>
       <use xlink:href="#DejaVuSans-48"/>
       <use x="63.623047" xlink:href="#DejaVuSans-46"/>
       <use x="95.410156" xlink:href="#DejaVuSans-48"/>
       <use x="159.033203" xlink:href="#DejaVuSans-48"/>
       <use x="222.65625" xlink:href="#DejaVuSans-53"/>
      </g>
     </g>
    </g>
    <g id="text_13">
     <!-- $I$ -->
     <g transform="translate(48.858594 392.55)rotate(-90)scale(0.25 -0.25)">
      <defs>
       <path d="M 16.890625 72.90625 
L 26.8125 72.90625 
L 12.59375 0 
L 2.6875 0 
z
" id="DejaVuSans-Oblique-73"/>
      </defs>
      <use transform="translate(0 0.09375)" xlink:href="#DejaVuSans-Oblique-73"/>
     </g>
    </g>
   </g>
   <g id="line2d_23">
    <path clip-path="url(#pbdf4179318)" d="M 159.233058 654.763548 
L 171.133884 654.993284 
L 183.034711 655.25752 
L 194.935537 657.545836 
L 206.836364 658.676836 
L 218.73719 659.100916 
L 230.638017 659.713275 
L 242.538843 659.539052 
L 254.439669 658.240402 
L 266.340496 657.778753 
L 278.241322 657.702933 
L 290.142149 658.440851 
L 302.042975 658.73819 
L 313.943802 657.715556 
L 325.844628 654.671042 
L 337.745455 648.674733 
L 349.646281 640.636079 
L 361.547107 635.568574 
L 373.447934 629.304911 
L 385.34876 622.716794 
L 397.249587 617.32503 
L 409.150413 607.840409 
L 421.05124 598.155558 
L 432.952066 587.383361 
L 444.852893 592.383225 
L 456.753719 614.789237 
L 468.654545 639.654447 
L 480.555372 654.054895 
L 492.456198 658.991809 
L 504.357025 659.824819 
L 516.257851 661.676635 
L 528.158678 662.20726 
L 540.059504 662.348792 
L 551.960331 661.689699 
L 563.861157 660.72149 
L 575.761983 659.883929 
L 587.66281 657.61739 
L 599.563636 656.8593 
L 611.464463 654.703659 
L 623.365289 653.931298 
L 635.266116 655.656493 
L 647.166942 662.6974 
" style="fill:none;stroke:#f98e52;stroke-linecap:square;stroke-width:2;"/>
    <defs>
     <path d="M 0 2.5 
C 0.663008 2.5 1.29895 2.236584 1.767767 1.767767 
C 2.236584 1.29895 2.5 0.663008 2.5 0 
C 2.5 -0.663008 2.236584 -1.29895 1.767767 -1.767767 
C 1.29895 -2.236584 0.663008 -2.5 0 -2.5 
C -0.663008 -2.5 -1.29895 -2.236584 -1.767767 -1.767767 
C -2.236584 -1.29895 -2.5 -0.663008 -2.5 0 
C -2.5 0.663008 -2.236584 1.29895 -1.767767 1.767767 
C -1.29895 2.236584 -0.663008 2.5 0 2.5 
z
" id="md64b76eb85" style="stroke:#f98e52;"/>
    </defs>
    <g clip-path="url(#pbdf4179318)">
     <use style="fill:#f98e52;stroke:#f98e52;" x="159.233058" xlink:href="#md64b76eb85" y="654.763548"/>
     <use style="fill:#f98e52;stroke:#f98e52;" x="171.133884" xlink:href="#md64b76eb85" y="654.993284"/>
     <use style="fill:#f98e52;stroke:#f98e52;" x="183.034711" xlink:href="#md64b76eb85" y="655.25752"/>
     <use style="fill:#f98e52;stroke:#f98e52;" x="194.935537" xlink:href="#md64b76eb85" y="657.545836"/>
     <use style="fill:#f98e52;stroke:#f98e52;" x="206.836364" xlink:href="#md64b76eb85" y="658.676836"/>
     <use style="fill:#f98e52;stroke:#f98e52;" x="218.73719" xlink:href="#md64b76eb85" y="659.100916"/>
     <use style="fill:#f98e52;stroke:#f98e52;" x="230.638017" xlink:href="#md64b76eb85" y="659.713275"/>
     <use style="fill:#f98e52;stroke:#f98e52;" x="242.538843" xlink:href="#md64b76eb85" y="659.539052"/>
     <use style="fill:#f98e52;stroke:#f98e52;" x="254.439669" xlink:href="#md64b76eb85" y="658.240402"/>
     <use style="fill:#f98e52;stroke:#f98e52;" x="266.340496" xlink:href="#md64b76eb85" y="657.778753"/>
     <use style="fill:#f98e52;stroke:#f98e52;" x="278.241322" xlink:href="#md64b76eb85" y="657.702933"/>
     <use style="fill:#f98e52;stroke:#f98e52;" x="290.142149" xlink:href="#md64b76eb85" y="658.440851"/>
     <use style="fill:#f98e52;stroke:#f98e52;" x="302.042975" xlink:href="#md64b76eb85" y="658.73819"/>
     <use style="fill:#f98e52;stroke:#f98e52;" x="313.943802" xlink:href="#md64b76eb85" y="657.715556"/>
     <use style="fill:#f98e52;stroke:#f98e52;" x="325.844628" xlink:href="#md64b76eb85" y="654.671042"/>
     <use style="fill:#f98e52;stroke:#f98e52;" x="337.745455" xlink:href="#md64b76eb85" y="648.674733"/>
     <use style="fill:#f98e52;stroke:#f98e52;" x="349.646281" xlink:href="#md64b76eb85" y="640.636079"/>
     <use style="fill:#f98e52;stroke:#f98e52;" x="361.547107" xlink:href="#md64b76eb85" y="635.568574"/>
     <use style="fill:#f98e52;stroke:#f98e52;" x="373.447934" xlink:href="#md64b76eb85" y="629.304911"/>
     <use style="fill:#f98e52;stroke:#f98e52;" x="385.34876" xlink:href="#md64b76eb85" y="622.716794"/>
     <use style="fill:#f98e52;stroke:#f98e52;" x="397.249587" xlink:href="#md64b76eb85" y="617.32503"/>
     <use style="fill:#f98e52;stroke:#f98e52;" x="409.150413" xlink:href="#md64b76eb85" y="607.840409"/>
     <use style="fill:#f98e52;stroke:#f98e52;" x="421.05124" xlink:href="#md64b76eb85" y="598.155558"/>
     <use style="fill:#f98e52;stroke:#f98e52;" x="432.952066" xlink:href="#md64b76eb85" y="587.383361"/>
     <use style="fill:#f98e52;stroke:#f98e52;" x="444.852893" xlink:href="#md64b76eb85" y="592.383225"/>
     <use style="fill:#f98e52;stroke:#f98e52;" x="456.753719" xlink:href="#md64b76eb85" y="614.789237"/>
     <use style="fill:#f98e52;stroke:#f98e52;" x="468.654545" xlink:href="#md64b76eb85" y="639.654447"/>
     <use style="fill:#f98e52;stroke:#f98e52;" x="480.555372" xlink:href="#md64b76eb85" y="654.054895"/>
     <use style="fill:#f98e52;stroke:#f98e52;" x="492.456198" xlink:href="#md64b76eb85" y="658.991809"/>
     <use style="fill:#f98e52;stroke:#f98e52;" x="504.357025" xlink:href="#md64b76eb85" y="659.824819"/>
     <use style="fill:#f98e52;stroke:#f98e52;" x="516.257851" xlink:href="#md64b76eb85" y="661.676635"/>
     <use style="fill:#f98e52;stroke:#f98e52;" x="528.158678" xlink:href="#md64b76eb85" y="662.20726"/>
     <use style="fill:#f98e52;stroke:#f98e52;" x="540.059504" xlink:href="#md64b76eb85" y="662.348792"/>
     <use style="fill:#f98e52;stroke:#f98e52;" x="551.960331" xlink:href="#md64b76eb85" y="661.689699"/>
     <use style="fill:#f98e52;stroke:#f98e52;" x="563.861157" xlink:href="#md64b76eb85" y="660.72149"/>
     <use style="fill:#f98e52;stroke:#f98e52;" x="575.761983" xlink:href="#md64b76eb85" y="659.883929"/>
     <use style="fill:#f98e52;stroke:#f98e52;" x="587.66281" xlink:href="#md64b76eb85" y="657.61739"/>
     <use style="fill:#f98e52;stroke:#f98e52;" x="599.563636" xlink:href="#md64b76eb85" y="656.8593"/>
     <use style="fill:#f98e52;stroke:#f98e52;" x="611.464463" xlink:href="#md64b76eb85" y="654.703659"/>
     <use style="fill:#f98e52;stroke:#f98e52;" x="623.365289" xlink:href="#md64b76eb85" y="653.931298"/>
     <use style="fill:#f98e52;stroke:#f98e52;" x="635.266116" xlink:href="#md64b76eb85" y="655.656493"/>
     <use style="fill:#f98e52;stroke:#f98e52;" x="647.166942" xlink:href="#md64b76eb85" y="662.6974"/>
    </g>
   </g>
   <g id="line2d_24">
    <path clip-path="url(#pbdf4179318)" d="M 159.233058 662.220896 
L 171.133884 654.73842 
L 183.034711 641.437544 
L 194.935537 634.8272 
L 206.836364 629.836092 
L 218.73719 627.678895 
L 230.638017 631.045983 
L 242.538843 646.764016 
L 254.439669 656.095669 
L 266.340496 654.784024 
L 278.241322 648.982638 
L 290.142149 651.044857 
L 302.042975 662.315937 
L 313.943802 660.056332 
L 325.844628 650.21271 
L 337.745455 641.730455 
L 349.646281 620.111802 
L 361.547107 591.753139 
L 373.447934 566.781991 
L 385.34876 498.116458 
L 397.249587 421.402564 
L 409.150413 455.684825 
L 421.05124 560.97836 
L 432.952066 567.418405 
L 444.852893 593.070323 
L 456.753719 655.107928 
L 468.654545 654.707661 
L 480.555372 637.238021 
L 492.456198 646.578967 
L 504.357025 659.053697 
L 516.257851 658.114479 
L 528.158678 654.542353 
L 540.059504 660.534959 
L 551.960331 661.50637 
L 563.861157 659.736337 
L 575.761983 651.968701 
L 587.66281 654.450257 
L 599.563636 654.263913 
L 611.464463 656.198394 
L 623.365289 662.877312 
L 635.266116 662.368282 
L 647.166942 660.249525 
" style="fill:none;stroke:#ffffbe;stroke-linecap:square;stroke-width:2;"/>
    <defs>
     <path d="M 0 2.5 
C 0.663008 2.5 1.29895 2.236584 1.767767 1.767767 
C 2.236584 1.29895 2.5 0.663008 2.5 0 
C 2.5 -0.663008 2.236584 -1.29895 1.767767 -1.767767 
C 1.29895 -2.236584 0.663008 -2.5 0 -2.5 
C -0.663008 -2.5 -1.29895 -2.236584 -1.767767 -1.767767 
C -2.236584 -1.29895 -2.5 -0.663008 -2.5 0 
C -2.5 0.663008 -2.236584 1.29895 -1.767767 1.767767 
C -1.29895 2.236584 -0.663008 2.5 0 2.5 
z
" id="md265fabd7f" style="stroke:#ffffbe;"/>
    </defs>
    <g clip-path="url(#pbdf4179318)">
     <use style="fill:#ffffbe;stroke:#ffffbe;" x="159.233058" xlink:href="#md265fabd7f" y="662.220896"/>
     <use style="fill:#ffffbe;stroke:#ffffbe;" x="171.133884" xlink:href="#md265fabd7f" y="654.73842"/>
     <use style="fill:#ffffbe;stroke:#ffffbe;" x="183.034711" xlink:href="#md265fabd7f" y="641.437544"/>
     <use style="fill:#ffffbe;stroke:#ffffbe;" x="194.935537" xlink:href="#md265fabd7f" y="634.8272"/>
     <use style="fill:#ffffbe;stroke:#ffffbe;" x="206.836364" xlink:href="#md265fabd7f" y="629.836092"/>
     <use style="fill:#ffffbe;stroke:#ffffbe;" x="218.73719" xlink:href="#md265fabd7f" y="627.678895"/>
     <use style="fill:#ffffbe;stroke:#ffffbe;" x="230.638017" xlink:href="#md265fabd7f" y="631.045983"/>
     <use style="fill:#ffffbe;stroke:#ffffbe;" x="242.538843" xlink:href="#md265fabd7f" y="646.764016"/>
     <use style="fill:#ffffbe;stroke:#ffffbe;" x="254.439669" xlink:href="#md265fabd7f" y="656.095669"/>
     <use style="fill:#ffffbe;stroke:#ffffbe;" x="266.340496" xlink:href="#md265fabd7f" y="654.784024"/>
     <use style="fill:#ffffbe;stroke:#ffffbe;" x="278.241322" xlink:href="#md265fabd7f" y="648.982638"/>
     <use style="fill:#ffffbe;stroke:#ffffbe;" x="290.142149" xlink:href="#md265fabd7f" y="651.044857"/>
     <use style="fill:#ffffbe;stroke:#ffffbe;" x="302.042975" xlink:href="#md265fabd7f" y="662.315937"/>
     <use style="fill:#ffffbe;stroke:#ffffbe;" x="313.943802" xlink:href="#md265fabd7f" y="660.056332"/>
     <use style="fill:#ffffbe;stroke:#ffffbe;" x="325.844628" xlink:href="#md265fabd7f" y="650.21271"/>
     <use style="fill:#ffffbe;stroke:#ffffbe;" x="337.745455" xlink:href="#md265fabd7f" y="641.730455"/>
     <use style="fill:#ffffbe;stroke:#ffffbe;" x="349.646281" xlink:href="#md265fabd7f" y="620.111802"/>
     <use style="fill:#ffffbe;stroke:#ffffbe;" x="361.547107" xlink:href="#md265fabd7f" y="591.753139"/>
     <use style="fill:#ffffbe;stroke:#ffffbe;" x="373.447934" xlink:href="#md265fabd7f" y="566.781991"/>
     <use style="fill:#ffffbe;stroke:#ffffbe;" x="385.34876" xlink:href="#md265fabd7f" y="498.116458"/>
     <use style="fill:#ffffbe;stroke:#ffffbe;" x="397.249587" xlink:href="#md265fabd7f" y="421.402564"/>
     <use style="fill:#ffffbe;stroke:#ffffbe;" x="409.150413" xlink:href="#md265fabd7f" y="455.684825"/>
     <use style="fill:#ffffbe;stroke:#ffffbe;" x="421.05124" xlink:href="#md265fabd7f" y="560.97836"/>
     <use style="fill:#ffffbe;stroke:#ffffbe;" x="432.952066" xlink:href="#md265fabd7f" y="567.418405"/>
     <use style="fill:#ffffbe;stroke:#ffffbe;" x="444.852893" xlink:href="#md265fabd7f" y="593.070323"/>
     <use style="fill:#ffffbe;stroke:#ffffbe;" x="456.753719" xlink:href="#md265fabd7f" y="655.107928"/>
     <use style="fill:#ffffbe;stroke:#ffffbe;" x="468.654545" xlink:href="#md265fabd7f" y="654.707661"/>
     <use style="fill:#ffffbe;stroke:#ffffbe;" x="480.555372" xlink:href="#md265fabd7f" y="637.238021"/>
     <use style="fill:#ffffbe;stroke:#ffffbe;" x="492.456198" xlink:href="#md265fabd7f" y="646.578967"/>
     <use style="fill:#ffffbe;stroke:#ffffbe;" x="504.357025" xlink:href="#md265fabd7f" y="659.053697"/>
     <use style="fill:#ffffbe;stroke:#ffffbe;" x="516.257851" xlink:href="#md265fabd7f" y="658.114479"/>
     <use style="fill:#ffffbe;stroke:#ffffbe;" x="528.158678" xlink:href="#md265fabd7f" y="654.542353"/>
     <use style="fill:#ffffbe;stroke:#ffffbe;" x="540.059504" xlink:href="#md265fabd7f" y="660.534959"/>
     <use style="fill:#ffffbe;stroke:#ffffbe;" x="551.960331" xlink:href="#md265fabd7f" y="661.50637"/>
     <use style="fill:#ffffbe;stroke:#ffffbe;" x="563.861157" xlink:href="#md265fabd7f" y="659.736337"/>
     <use style="fill:#ffffbe;stroke:#ffffbe;" x="575.761983" xlink:href="#md265fabd7f" y="651.968701"/>
     <use style="fill:#ffffbe;stroke:#ffffbe;" x="587.66281" xlink:href="#md265fabd7f" y="654.450257"/>
     <use style="fill:#ffffbe;stroke:#ffffbe;" x="599.563636" xlink:href="#md265fabd7f" y="654.263913"/>
     <use style="fill:#ffffbe;stroke:#ffffbe;" x="611.464463" xlink:href="#md265fabd7f" y="656.198394"/>
     <use style="fill:#ffffbe;stroke:#ffffbe;" x="623.365289" xlink:href="#md265fabd7f" y="662.877312"/>
     <use style="fill:#ffffbe;stroke:#ffffbe;" x="635.266116" xlink:href="#md265fabd7f" y="662.368282"/>
     <use style="fill:#ffffbe;stroke:#ffffbe;" x="647.166942" xlink:href="#md265fabd7f" y="660.249525"/>
    </g>
   </g>
   <g id="line2d_25">
    <path clip-path="url(#pbdf4179318)" d="M 159.233058 632.055004 
L 171.133884 630.634574 
L 183.034711 651.758775 
L 194.935537 662.105461 
L 206.836364 650.331136 
L 218.73719 628.902467 
L 230.638017 647.217106 
L 242.538843 648.180915 
L 254.439669 642.240385 
L 266.340496 652.265805 
L 278.241322 645.367187 
L 290.142149 641.47007 
L 302.042975 644.651111 
L 313.943802 662.355207 
L 325.844628 658.114455 
L 337.745455 639.599699 
L 349.646281 548.350942 
L 361.547107 457.439683 
L 373.447934 393.540017 
L 385.34876 301.106922 
L 397.249587 215.133539 
L 409.150413 481.686618 
L 421.05124 603.57249 
L 432.952066 639.484358 
L 444.852893 572.049499 
L 456.753719 619.836824 
L 468.654545 644.315827 
L 480.555372 613.681848 
L 492.456198 659.367945 
L 504.357025 660.768682 
L 516.257851 655.751316 
L 528.158678 661.25728 
L 540.059504 659.260965 
L 551.960331 655.934616 
L 563.861157 658.089458 
L 575.761983 651.305442 
L 587.66281 650.055012 
L 599.563636 645.495784 
L 611.464463 663.233756 
L 623.365289 659.471559 
L 635.266116 645.524639 
L 647.166942 655.379324 
" style="fill:none;stroke:#86cfa5;stroke-linecap:square;stroke-width:2;"/>
    <defs>
     <path d="M 0 2.5 
C 0.663008 2.5 1.29895 2.236584 1.767767 1.767767 
C 2.236584 1.29895 2.5 0.663008 2.5 0 
C 2.5 -0.663008 2.236584 -1.29895 1.767767 -1.767767 
C 1.29895 -2.236584 0.663008 -2.5 0 -2.5 
C -0.663008 -2.5 -1.29895 -2.236584 -1.767767 -1.767767 
C -2.236584 -1.29895 -2.5 -0.663008 -2.5 0 
C -2.5 0.663008 -2.236584 1.29895 -1.767767 1.767767 
C -1.29895 2.236584 -0.663008 2.5 0 2.5 
z
" id="m7cd50c105a" style="stroke:#86cfa5;"/>
    </defs>
    <g clip-path="url(#pbdf4179318)">
     <use style="fill:#86cfa5;stroke:#86cfa5;" x="159.233058" xlink:href="#m7cd50c105a" y="632.055004"/>
     <use style="fill:#86cfa5;stroke:#86cfa5;" x="171.133884" xlink:href="#m7cd50c105a" y="630.634574"/>
     <use style="fill:#86cfa5;stroke:#86cfa5;" x="183.034711" xlink:href="#m7cd50c105a" y="651.758775"/>
     <use style="fill:#86cfa5;stroke:#86cfa5;" x="194.935537" xlink:href="#m7cd50c105a" y="662.105461"/>
     <use style="fill:#86cfa5;stroke:#86cfa5;" x="206.836364" xlink:href="#m7cd50c105a" y="650.331136"/>
     <use style="fill:#86cfa5;stroke:#86cfa5;" x="218.73719" xlink:href="#m7cd50c105a" y="628.902467"/>
     <use style="fill:#86cfa5;stroke:#86cfa5;" x="230.638017" xlink:href="#m7cd50c105a" y="647.217106"/>
     <use style="fill:#86cfa5;stroke:#86cfa5;" x="242.538843" xlink:href="#m7cd50c105a" y="648.180915"/>
     <use style="fill:#86cfa5;stroke:#86cfa5;" x="254.439669" xlink:href="#m7cd50c105a" y="642.240385"/>
     <use style="fill:#86cfa5;stroke:#86cfa5;" x="266.340496" xlink:href="#m7cd50c105a" y="652.265805"/>
     <use style="fill:#86cfa5;stroke:#86cfa5;" x="278.241322" xlink:href="#m7cd50c105a" y="645.367187"/>
     <use style="fill:#86cfa5;stroke:#86cfa5;" x="290.142149" xlink:href="#m7cd50c105a" y="641.47007"/>
     <use style="fill:#86cfa5;stroke:#86cfa5;" x="302.042975" xlink:href="#m7cd50c105a" y="644.651111"/>
     <use style="fill:#86cfa5;stroke:#86cfa5;" x="313.943802" xlink:href="#m7cd50c105a" y="662.355207"/>
     <use style="fill:#86cfa5;stroke:#86cfa5;" x="325.844628" xlink:href="#m7cd50c105a" y="658.114455"/>
     <use style="fill:#86cfa5;stroke:#86cfa5;" x="337.745455" xlink:href="#m7cd50c105a" y="639.599699"/>
     <use style="fill:#86cfa5;stroke:#86cfa5;" x="349.646281" xlink:href="#m7cd50c105a" y="548.350942"/>
     <use style="fill:#86cfa5;stroke:#86cfa5;" x="361.547107" xlink:href="#m7cd50c105a" y="457.439683"/>
     <use style="fill:#86cfa5;stroke:#86cfa5;" x="373.447934" xlink:href="#m7cd50c105a" y="393.540017"/>
     <use style="fill:#86cfa5;stroke:#86cfa5;" x="385.34876" xlink:href="#m7cd50c105a" y="301.106922"/>
     <use style="fill:#86cfa5;stroke:#86cfa5;" x="397.249587" xlink:href="#m7cd50c105a" y="215.133539"/>
     <use style="fill:#86cfa5;stroke:#86cfa5;" x="409.150413" xlink:href="#m7cd50c105a" y="481.686618"/>
     <use style="fill:#86cfa5;stroke:#86cfa5;" x="421.05124" xlink:href="#m7cd50c105a" y="603.57249"/>
     <use style="fill:#86cfa5;stroke:#86cfa5;" x="432.952066" xlink:href="#m7cd50c105a" y="639.484358"/>
     <use style="fill:#86cfa5;stroke:#86cfa5;" x="444.852893" xlink:href="#m7cd50c105a" y="572.049499"/>
     <use style="fill:#86cfa5;stroke:#86cfa5;" x="456.753719" xlink:href="#m7cd50c105a" y="619.836824"/>
     <use style="fill:#86cfa5;stroke:#86cfa5;" x="468.654545" xlink:href="#m7cd50c105a" y="644.315827"/>
     <use style="fill:#86cfa5;stroke:#86cfa5;" x="480.555372" xlink:href="#m7cd50c105a" y="613.681848"/>
     <use style="fill:#86cfa5;stroke:#86cfa5;" x="492.456198" xlink:href="#m7cd50c105a" y="659.367945"/>
     <use style="fill:#86cfa5;stroke:#86cfa5;" x="504.357025" xlink:href="#m7cd50c105a" y="660.768682"/>
     <use style="fill:#86cfa5;stroke:#86cfa5;" x="516.257851" xlink:href="#m7cd50c105a" y="655.751316"/>
     <use style="fill:#86cfa5;stroke:#86cfa5;" x="528.158678" xlink:href="#m7cd50c105a" y="661.25728"/>
     <use style="fill:#86cfa5;stroke:#86cfa5;" x="540.059504" xlink:href="#m7cd50c105a" y="659.260965"/>
     <use style="fill:#86cfa5;stroke:#86cfa5;" x="551.960331" xlink:href="#m7cd50c105a" y="655.934616"/>
     <use style="fill:#86cfa5;stroke:#86cfa5;" x="563.861157" xlink:href="#m7cd50c105a" y="658.089458"/>
     <use style="fill:#86cfa5;stroke:#86cfa5;" x="575.761983" xlink:href="#m7cd50c105a" y="651.305442"/>
     <use style="fill:#86cfa5;stroke:#86cfa5;" x="587.66281" xlink:href="#m7cd50c105a" y="650.055012"/>
     <use style="fill:#86cfa5;stroke:#86cfa5;" x="599.563636" xlink:href="#m7cd50c105a" y="645.495784"/>
     <use style="fill:#86cfa5;stroke:#86cfa5;" x="611.464463" xlink:href="#m7cd50c105a" y="663.233756"/>
     <use style="fill:#86cfa5;stroke:#86cfa5;" x="623.365289" xlink:href="#m7cd50c105a" y="659.471559"/>
     <use style="fill:#86cfa5;stroke:#86cfa5;" x="635.266116" xlink:href="#m7cd50c105a" y="645.524639"/>
     <use style="fill:#86cfa5;stroke:#86cfa5;" x="647.166942" xlink:href="#m7cd50c105a" y="655.379324"/>
    </g>
   </g>
   <g id="line2d_26">
    <path clip-path="url(#pbdf4179318)" d="M 159.233058 627.800497 
L 171.133884 660.784729 
L 183.034711 656.790634 
L 194.935537 657.754228 
L 206.836364 640.409357 
L 218.73719 626.97525 
L 230.638017 659.813401 
L 242.538843 658.899205 
L 254.439669 657.410508 
L 266.340496 642.920564 
L 278.241322 649.253996 
L 290.142149 655.461803 
L 302.042975 663.26281 
L 313.943802 659.586564 
L 325.844628 652.557063 
L 337.745455 628.860862 
L 349.646281 562.4162 
L 361.547107 400.889558 
L 373.447934 168.942664 
L 385.34876 128.96821 
L 397.249587 114.33719 
L 409.150413 620.145532 
L 421.05124 458.03776 
L 432.952066 662.908978 
L 444.852893 615.086619 
L 456.753719 648.110259 
L 468.654545 609.709841 
L 480.555372 553.535949 
L 492.456198 653.906502 
L 504.357025 662.407391 
L 516.257851 643.266061 
L 528.158678 656.212078 
L 540.059504 649.429864 
L 551.960331 651.357306 
L 563.861157 660.597956 
L 575.761983 654.938892 
L 587.66281 660.661952 
L 599.563636 632.766145 
L 611.464463 653.802234 
L 623.365289 660.699577 
L 635.266116 656.213689 
L 647.166942 651.60792 
" style="fill:none;stroke:#5e4fa2;stroke-linecap:square;stroke-width:2;"/>
    <defs>
     <path d="M 0 2.5 
C 0.663008 2.5 1.29895 2.236584 1.767767 1.767767 
C 2.236584 1.29895 2.5 0.663008 2.5 0 
C 2.5 -0.663008 2.236584 -1.29895 1.767767 -1.767767 
C 1.29895 -2.236584 0.663008 -2.5 0 -2.5 
C -0.663008 -2.5 -1.29895 -2.236584 -1.767767 -1.767767 
C -2.236584 -1.29895 -2.5 -0.663008 -2.5 0 
C -2.5 0.663008 -2.236584 1.29895 -1.767767 1.767767 
C -1.29895 2.236584 -0.663008 2.5 0 2.5 
z
" id="mb6b2a2770f" style="stroke:#5e4fa2;"/>
    </defs>
    <g clip-path="url(#pbdf4179318)">
     <use style="fill:#5e4fa2;stroke:#5e4fa2;" x="159.233058" xlink:href="#mb6b2a2770f" y="627.800497"/>
     <use style="fill:#5e4fa2;stroke:#5e4fa2;" x="171.133884" xlink:href="#mb6b2a2770f" y="660.784729"/>
     <use style="fill:#5e4fa2;stroke:#5e4fa2;" x="183.034711" xlink:href="#mb6b2a2770f" y="656.790634"/>
     <use style="fill:#5e4fa2;stroke:#5e4fa2;" x="194.935537" xlink:href="#mb6b2a2770f" y="657.754228"/>
     <use style="fill:#5e4fa2;stroke:#5e4fa2;" x="206.836364" xlink:href="#mb6b2a2770f" y="640.409357"/>
     <use style="fill:#5e4fa2;stroke:#5e4fa2;" x="218.73719" xlink:href="#mb6b2a2770f" y="626.97525"/>
     <use style="fill:#5e4fa2;stroke:#5e4fa2;" x="230.638017" xlink:href="#mb6b2a2770f" y="659.813401"/>
     <use style="fill:#5e4fa2;stroke:#5e4fa2;" x="242.538843" xlink:href="#mb6b2a2770f" y="658.899205"/>
     <use style="fill:#5e4fa2;stroke:#5e4fa2;" x="254.439669" xlink:href="#mb6b2a2770f" y="657.410508"/>
     <use style="fill:#5e4fa2;stroke:#5e4fa2;" x="266.340496" xlink:href="#mb6b2a2770f" y="642.920564"/>
     <use style="fill:#5e4fa2;stroke:#5e4fa2;" x="278.241322" xlink:href="#mb6b2a2770f" y="649.253996"/>
     <use style="fill:#5e4fa2;stroke:#5e4fa2;" x="290.142149" xlink:href="#mb6b2a2770f" y="655.461803"/>
     <use style="fill:#5e4fa2;stroke:#5e4fa2;" x="302.042975" xlink:href="#mb6b2a2770f" y="663.26281"/>
     <use style="fill:#5e4fa2;stroke:#5e4fa2;" x="313.943802" xlink:href="#mb6b2a2770f" y="659.586564"/>
     <use style="fill:#5e4fa2;stroke:#5e4fa2;" x="325.844628" xlink:href="#mb6b2a2770f" y="652.557063"/>
     <use style="fill:#5e4fa2;stroke:#5e4fa2;" x="337.745455" xlink:href="#mb6b2a2770f" y="628.860862"/>
     <use style="fill:#5e4fa2;stroke:#5e4fa2;" x="349.646281" xlink:href="#mb6b2a2770f" y="562.4162"/>
     <use style="fill:#5e4fa2;stroke:#5e4fa2;" x="361.547107" xlink:href="#mb6b2a2770f" y="400.889558"/>
     <use style="fill:#5e4fa2;stroke:#5e4fa2;" x="373.447934" xlink:href="#mb6b2a2770f" y="168.942664"/>
     <use style="fill:#5e4fa2;stroke:#5e4fa2;" x="385.34876" xlink:href="#mb6b2a2770f" y="128.96821"/>
     <use style="fill:#5e4fa2;stroke:#5e4fa2;" x="397.249587" xlink:href="#mb6b2a2770f" y="114.33719"/>
     <use style="fill:#5e4fa2;stroke:#5e4fa2;" x="409.150413" xlink:href="#mb6b2a2770f" y="620.145532"/>
     <use style="fill:#5e4fa2;stroke:#5e4fa2;" x="421.05124" xlink:href="#mb6b2a2770f" y="458.03776"/>
     <use style="fill:#5e4fa2;stroke:#5e4fa2;" x="432.952066" xlink:href="#mb6b2a2770f" y="662.908978"/>
     <use style="fill:#5e4fa2;stroke:#5e4fa2;" x="444.852893" xlink:href="#mb6b2a2770f" y="615.086619"/>
     <use style="fill:#5e4fa2;stroke:#5e4fa2;" x="456.753719" xlink:href="#mb6b2a2770f" y="648.110259"/>
     <use style="fill:#5e4fa2;stroke:#5e4fa2;" x="468.654545" xlink:href="#mb6b2a2770f" y="609.709841"/>
     <use style="fill:#5e4fa2;stroke:#5e4fa2;" x="480.555372" xlink:href="#mb6b2a2770f" y="553.535949"/>
     <use style="fill:#5e4fa2;stroke:#5e4fa2;" x="492.456198" xlink:href="#mb6b2a2770f" y="653.906502"/>
     <use style="fill:#5e4fa2;stroke:#5e4fa2;" x="504.357025" xlink:href="#mb6b2a2770f" y="662.407391"/>
     <use style="fill:#5e4fa2;stroke:#5e4fa2;" x="516.257851" xlink:href="#mb6b2a2770f" y="643.266061"/>
     <use style="fill:#5e4fa2;stroke:#5e4fa2;" x="528.158678" xlink:href="#mb6b2a2770f" y="656.212078"/>
     <use style="fill:#5e4fa2;stroke:#5e4fa2;" x="540.059504" xlink:href="#mb6b2a2770f" y="649.429864"/>
     <use style="fill:#5e4fa2;stroke:#5e4fa2;" x="551.960331" xlink:href="#mb6b2a2770f" y="651.357306"/>
     <use style="fill:#5e4fa2;stroke:#5e4fa2;" x="563.861157" xlink:href="#mb6b2a2770f" y="660.597956"/>
     <use style="fill:#5e4fa2;stroke:#5e4fa2;" x="575.761983" xlink:href="#mb6b2a2770f" y="654.938892"/>
     <use style="fill:#5e4fa2;stroke:#5e4fa2;" x="587.66281" xlink:href="#mb6b2a2770f" y="660.661952"/>
     <use style="fill:#5e4fa2;stroke:#5e4fa2;" x="599.563636" xlink:href="#mb6b2a2770f" y="632.766145"/>
     <use style="fill:#5e4fa2;stroke:#5e4fa2;" x="611.464463" xlink:href="#mb6b2a2770f" y="653.802234"/>
     <use style="fill:#5e4fa2;stroke:#5e4fa2;" x="623.365289" xlink:href="#mb6b2a2770f" y="660.699577"/>
     <use style="fill:#5e4fa2;stroke:#5e4fa2;" x="635.266116" xlink:href="#mb6b2a2770f" y="656.213689"/>
     <use style="fill:#5e4fa2;stroke:#5e4fa2;" x="647.166942" xlink:href="#mb6b2a2770f" y="651.60792"/>
    </g>
   </g>
   <g id="patch_3">
    <path d="M 108 720.9 
L 108 56.7 
" style="fill:none;stroke:#000000;stroke-linecap:square;stroke-linejoin:miter;stroke-width:0.8;"/>
   </g>
   <g id="patch_4">
    <path d="M 698.4 720.9 
L 698.4 56.7 
" style="fill:none;stroke:#000000;stroke-linecap:square;stroke-linejoin:miter;stroke-width:0.8;"/>
   </g>
   <g id="patch_5">
    <path d="M 108 720.9 
L 698.4 720.9 
" style="fill:none;stroke:#000000;stroke-linecap:square;stroke-linejoin:miter;stroke-width:0.8;"/>
   </g>
   <g id="patch_6">
    <path d="M 108 56.7 
L 698.4 56.7 
" style="fill:none;stroke:#000000;stroke-linecap:square;stroke-linejoin:miter;stroke-width:0.8;"/>
   </g>
   <g id="legend_1">
    <g id="patch_7">
     <path d="M 526.7625 219.48125 
L 684.4 219.48125 
Q 688.4 219.48125 688.4 215.48125 
L 688.4 70.7 
Q 688.4 66.7 684.4 66.7 
L 526.7625 66.7 
Q 522.7625 66.7 522.7625 70.7 
L 522.7625 215.48125 
Q 522.7625 219.48125 526.7625 219.48125 
z
" style="fill:#ffffff;opacity:0.8;stroke:#cccccc;stroke-linejoin:miter;"/>
    </g>
    <g id="line2d_27">
     <path d="M 530.7625 82.896875 
L 570.7625 82.896875 
" style="fill:none;stroke:#000000;stroke-linecap:square;stroke-width:2;"/>
    </g>
    <g id="line2d_28">
     <defs>
      <path d="M 0 3 
C 0.795609 3 1.55874 2.683901 2.12132 2.12132 
C 2.683901 1.55874 3 0.795609 3 0 
C 3 -0.795609 2.683901 -1.55874 2.12132 -2.12132 
C 1.55874 -2.683901 0.795609 -3 0 -3 
C -0.795609 -3 -1.55874 -2.683901 -2.12132 -2.12132 
C -2.683901 -1.55874 -3 -0.795609 -3 0 
C -3 0.795609 -2.683901 1.55874 -2.12132 2.12132 
C -1.55874 2.683901 -0.795609 3 0 3 
z
" id="m91ec5f40c4" style="stroke:#000000;"/>
     </defs>
     <g>
      <use style="stroke:#000000;" x="550.7625" xlink:href="#m91ec5f40c4" y="82.896875"/>
     </g>
    </g>
    <g id="text_14">
     <!-- (-3, -1, 4) -->
     <g transform="translate(586.7625 89.896875)scale(0.2 -0.2)">
      <defs>
       <path d="M 31 75.875 
Q 24.46875 64.65625 21.28125 53.65625 
Q 18.109375 42.671875 18.109375 31.390625 
Q 18.109375 20.125 21.3125 9.0625 
Q 24.515625 -2 31 -13.1875 
L 23.1875 -13.1875 
Q 15.875 -1.703125 12.234375 9.375 
Q 8.59375 20.453125 8.59375 31.390625 
Q 8.59375 42.28125 12.203125 53.3125 
Q 15.828125 64.359375 23.1875 75.875 
z
" id="DejaVuSans-40"/>
       <path d="M 4.890625 31.390625 
L 31.203125 31.390625 
L 31.203125 23.390625 
L 4.890625 23.390625 
z
" id="DejaVuSans-45"/>
       <path d="M 11.71875 12.40625 
L 22.015625 12.40625 
L 22.015625 4 
L 14.015625 -11.625 
L 7.71875 -11.625 
L 11.71875 4 
z
" id="DejaVuSans-44"/>
       <path id="DejaVuSans-32"/>
       <path d="M 8.015625 75.875 
L 15.828125 75.875 
Q 23.140625 64.359375 26.78125 53.3125 
Q 30.421875 42.28125 30.421875 31.390625 
Q 30.421875 20.453125 26.78125 9.375 
Q 23.140625 -1.703125 15.828125 -13.1875 
L 8.015625 -13.1875 
Q 14.5 -2 17.703125 9.0625 
Q 20.90625 20.125 20.90625 31.390625 
Q 20.90625 42.671875 17.703125 53.65625 
Q 14.5 64.65625 8.015625 75.875 
z
" id="DejaVuSans-41"/>
      </defs>
      <use xlink:href="#DejaVuSans-40"/>
      <use x="39.013672" xlink:href="#DejaVuSans-45"/>
      <use x="75.097656" xlink:href="#DejaVuSans-51"/>
      <use x="138.720703" xlink:href="#DejaVuSans-44"/>
      <use x="170.507812" xlink:href="#DejaVuSans-32"/>
      <use x="202.294922" xlink:href="#DejaVuSans-45"/>
      <use x="238.378906" xlink:href="#DejaVuSans-49"/>
      <use x="302.001953" xlink:href="#DejaVuSans-44"/>
      <use x="333.789062" xlink:href="#DejaVuSans-32"/>
      <use x="365.576172" xlink:href="#DejaVuSans-52"/>
      <use x="429.199219" xlink:href="#DejaVuSans-41"/>
     </g>
    </g>
    <g id="line2d_29">
     <path d="M 530.7625 112.253125 
L 570.7625 112.253125 
" style="fill:none;stroke:#f98e52;stroke-linecap:square;stroke-width:2;"/>
    </g>
    <g id="line2d_30"/>
    <g id="text_15">
     <!-- $z=90 A$ -->
     <g transform="translate(586.7625 119.253125)scale(0.2 -0.2)">
      <defs>
       <path d="M 11.625 54.6875 
L 54.296875 54.6875 
L 52.6875 46.484375 
L 11.53125 7.171875 
L 45.515625 7.171875 
L 44.09375 0 
L -0.296875 0 
L 1.3125 8.203125 
L 42.484375 47.515625 
L 10.203125 47.515625 
z
" id="DejaVuSans-Oblique-122"/>
       <path d="M 10.59375 45.40625 
L 73.1875 45.40625 
L 73.1875 37.203125 
L 10.59375 37.203125 
z
M 10.59375 25.484375 
L 73.1875 25.484375 
L 73.1875 17.1875 
L 10.59375 17.1875 
z
" id="DejaVuSans-61"/>
       <path d="M 10.984375 1.515625 
L 10.984375 10.5 
Q 14.703125 8.734375 18.5 7.8125 
Q 22.3125 6.890625 25.984375 6.890625 
Q 35.75 6.890625 40.890625 13.453125 
Q 46.046875 20.015625 46.78125 33.40625 
Q 43.953125 29.203125 39.59375 26.953125 
Q 35.25 24.703125 29.984375 24.703125 
Q 19.046875 24.703125 12.671875 31.3125 
Q 6.296875 37.9375 6.296875 49.421875 
Q 6.296875 60.640625 12.9375 67.421875 
Q 19.578125 74.21875 30.609375 74.21875 
Q 43.265625 74.21875 49.921875 64.515625 
Q 56.59375 54.828125 56.59375 36.375 
Q 56.59375 19.140625 48.40625 8.859375 
Q 40.234375 -1.421875 26.421875 -1.421875 
Q 22.703125 -1.421875 18.890625 -0.6875 
Q 15.09375 0.046875 10.984375 1.515625 
z
M 30.609375 32.421875 
Q 37.25 32.421875 41.125 36.953125 
Q 45.015625 41.5 45.015625 49.421875 
Q 45.015625 57.28125 41.125 61.84375 
Q 37.25 66.40625 30.609375 66.40625 
Q 23.96875 66.40625 20.09375 61.84375 
Q 16.21875 57.28125 16.21875 49.421875 
Q 16.21875 41.5 20.09375 36.953125 
Q 23.96875 32.421875 30.609375 32.421875 
z
" id="DejaVuSans-57"/>
       <path d="M 36.8125 72.90625 
L 48 72.90625 
L 61.53125 0 
L 51.21875 0 
L 48.1875 18.703125 
L 15.375 18.703125 
L 5.078125 0 
L -5.328125 0 
z
M 40.375 63.1875 
L 19.921875 26.90625 
L 46.6875 26.90625 
z
" id="DejaVuSans-Oblique-65"/>
      </defs>
      <use transform="translate(0 0.78125)" xlink:href="#DejaVuSans-Oblique-122"/>
      <use transform="translate(71.972656 0.78125)" xlink:href="#DejaVuSans-61"/>
      <use transform="translate(175.244141 0.78125)" xlink:href="#DejaVuSans-57"/>
      <use transform="translate(238.867188 0.78125)" xlink:href="#DejaVuSans-48"/>
      <use transform="translate(302.490234 0.78125)" xlink:href="#DejaVuSans-Oblique-65"/>
     </g>
    </g>
    <g id="line2d_31">
     <path d="M 530.7625 141.609375 
L 570.7625 141.609375 
" style="fill:none;stroke:#ffffbe;stroke-linecap:square;stroke-width:2;"/>
    </g>
    <g id="line2d_32"/>
    <g id="text_16">
     <!-- $z=191 A$ -->
     <g transform="translate(586.7625 148.609375)scale(0.2 -0.2)">
      <use transform="translate(0 0.78125)" xlink:href="#DejaVuSans-Oblique-122"/>
      <use transform="translate(71.972656 0.78125)" xlink:href="#DejaVuSans-61"/>
      <use transform="translate(175.244141 0.78125)" xlink:href="#DejaVuSans-49"/>
      <use transform="translate(238.867188 0.78125)" xlink:href="#DejaVuSans-57"/>
      <use transform="translate(302.490234 0.78125)" xlink:href="#DejaVuSans-49"/>
      <use transform="translate(366.113281 0.78125)" xlink:href="#DejaVuSans-Oblique-65"/>
     </g>
    </g>
    <g id="line2d_33">
     <path d="M 530.7625 170.965625 
L 570.7625 170.965625 
" style="fill:none;stroke:#86cfa5;stroke-linecap:square;stroke-width:2;"/>
    </g>
    <g id="line2d_34"/>
    <g id="text_17">
     <!-- $z=292 A$ -->
     <g transform="translate(586.7625 177.965625)scale(0.2 -0.2)">
      <use transform="translate(0 0.78125)" xlink:href="#DejaVuSans-Oblique-122"/>
      <use transform="translate(71.972656 0.78125)" xlink:href="#DejaVuSans-61"/>
      <use transform="translate(175.244141 0.78125)" xlink:href="#DejaVuSans-50"/>
      <use transform="translate(237.117188 0.78125)" xlink:href="#DejaVuSans-57"/>
      <use transform="translate(298.990234 0.78125)" xlink:href="#DejaVuSans-50"/>
      <use transform="translate(362.613281 0.78125)" xlink:href="#DejaVuSans-Oblique-65"/>
     </g>
    </g>
    <g id="line2d_35">
     <path d="M 530.7625 200.321875 
L 570.7625 200.321875 
" style="fill:none;stroke:#5e4fa2;stroke-linecap:square;stroke-width:2;"/>
    </g>
    <g id="line2d_36"/>
    <g id="text_18">
     <!-- $z=393 A$ -->
     <g transform="translate(586.7625 207.321875)scale(0.2 -0.2)">
      <use transform="translate(0 0.78125)" xlink:href="#DejaVuSans-Oblique-122"/>
      <use transform="translate(71.972656 0.78125)" xlink:href="#DejaVuSans-61"/>
      <use transform="translate(175.244141 0.78125)" xlink:href="#DejaVuSans-51"/>
      <use transform="translate(238.867188 0.78125)" xlink:href="#DejaVuSans-57"/>
      <use transform="translate(302.490234 0.78125)" xlink:href="#DejaVuSans-51"/>
      <use transform="translate(366.113281 0.78125)" xlink:href="#DejaVuSans-Oblique-65"/>
     </g>
    </g>
   </g>
  </g>
 </g>
 <defs>
  <clipPath id="pbdf4179318">
   <rect height="664.2" width="590.4" x="108" y="56.7"/>
  </clipPath>
 </defs>
</svg>
