<?xml version="1.0" encoding="utf-8" standalone="no"?>
<!DOCTYPE svg PUBLIC "-//W3C//DTD SVG 1.1//EN"
  "http://www.w3.org/Graphics/SVG/1.1/DTD/svg11.dtd">
<!-- Created with matplotlib (https://matplotlib.org/) -->
<svg height="810pt" version="1.1" viewBox="0 0 720 810" width="720pt" xmlns="http://www.w3.org/2000/svg" xmlns:xlink="http://www.w3.org/1999/xlink">
 <metadata>
  <rdf:RDF xmlns:cc="http://creativecommons.org/ns#" xmlns:dc="http://purl.org/dc/elements/1.1/" xmlns:rdf="http://www.w3.org/1999/02/22-rdf-syntax-ns#">
   <cc:Work>
    <dc:type rdf:resource="http://purl.org/dc/dcmitype/StillImage"/>
    <dc:date>2021-07-20T11:15:14.039322</dc:date>
    <dc:format>image/svg+xml</dc:format>
    <dc:creator>
     <cc:Agent>
      <dc:title>Matplotlib v3.3.1, https://matplotlib.org/</dc:title>
     </cc:Agent>
    </dc:creator>
   </cc:Work>
  </rdf:RDF>
 </metadata>
 <defs>
  <style type="text/css">*{stroke-linecap:butt;stroke-linejoin:round;}</style>
 </defs>
 <g id="figure_1">
  <g id="patch_1">
   <path d="M 0 810 
L 720 810 
L 720 0 
L 0 0 
z
" style="fill:#ffffff;"/>
  </g>
  <g id="axes_1">
   <g id="patch_2">
    <path d="M 108 720.9 
L 698.4 720.9 
L 698.4 56.7 
L 108 56.7 
z
" style="fill:#ffffff;"/>
   </g>
   <g id="matplotlib.axis_1">
    <g id="xtick_1">
     <g id="line2d_1">
      <path clip-path="url(#p8a0db6f11d)" d="M 154.304433 720.9 
L 154.304433 56.7 
" style="fill:none;stroke:#e6e6e6;stroke-linecap:square;stroke-width:0.8;"/>
     </g>
     <g id="line2d_2">
      <defs>
       <path d="M 0 0 
L 0 3.5 
" id="m4933fff610" style="stroke:#000000;stroke-width:0.8;"/>
      </defs>
      <g>
       <use style="stroke:#000000;stroke-width:0.8;" x="154.304433" xlink:href="#m4933fff610" y="720.9"/>
      </g>
     </g>
     <g id="text_1">
      <!-- 0 -->
      <g transform="translate(149.532558 739.297656)scale(0.15 -0.15)">
       <defs>
        <path d="M 31.78125 66.40625 
Q 24.171875 66.40625 20.328125 58.90625 
Q 16.5 51.421875 16.5 36.375 
Q 16.5 21.390625 20.328125 13.890625 
Q 24.171875 6.390625 31.78125 6.390625 
Q 39.453125 6.390625 43.28125 13.890625 
Q 47.125 21.390625 47.125 36.375 
Q 47.125 51.421875 43.28125 58.90625 
Q 39.453125 66.40625 31.78125 66.40625 
z
M 31.78125 74.21875 
Q 44.046875 74.21875 50.515625 64.515625 
Q 56.984375 54.828125 56.984375 36.375 
Q 56.984375 17.96875 50.515625 8.265625 
Q 44.046875 -1.421875 31.78125 -1.421875 
Q 19.53125 -1.421875 13.0625 8.265625 
Q 6.59375 17.96875 6.59375 36.375 
Q 6.59375 54.828125 13.0625 64.515625 
Q 19.53125 74.21875 31.78125 74.21875 
z
" id="DejaVuSans-48"/>
       </defs>
       <use xlink:href="#DejaVuSans-48"/>
      </g>
     </g>
    </g>
    <g id="xtick_2">
     <g id="line2d_3">
      <path clip-path="url(#p8a0db6f11d)" d="M 252.876935 720.9 
L 252.876935 56.7 
" style="fill:none;stroke:#e6e6e6;stroke-linecap:square;stroke-width:0.8;"/>
     </g>
     <g id="line2d_4">
      <g>
       <use style="stroke:#000000;stroke-width:0.8;" x="252.876935" xlink:href="#m4933fff610" y="720.9"/>
      </g>
     </g>
     <g id="text_2">
      <!-- 200 -->
      <g transform="translate(238.56131 739.297656)scale(0.15 -0.15)">
       <defs>
        <path d="M 19.1875 8.296875 
L 53.609375 8.296875 
L 53.609375 0 
L 7.328125 0 
L 7.328125 8.296875 
Q 12.9375 14.109375 22.625 23.890625 
Q 32.328125 33.6875 34.8125 36.53125 
Q 39.546875 41.84375 41.421875 45.53125 
Q 43.3125 49.21875 43.3125 52.78125 
Q 43.3125 58.59375 39.234375 62.25 
Q 35.15625 65.921875 28.609375 65.921875 
Q 23.96875 65.921875 18.8125 64.3125 
Q 13.671875 62.703125 7.8125 59.421875 
L 7.8125 69.390625 
Q 13.765625 71.78125 18.9375 73 
Q 24.125 74.21875 28.421875 74.21875 
Q 39.75 74.21875 46.484375 68.546875 
Q 53.21875 62.890625 53.21875 53.421875 
Q 53.21875 48.921875 51.53125 44.890625 
Q 49.859375 40.875 45.40625 35.40625 
Q 44.1875 33.984375 37.640625 27.21875 
Q 31.109375 20.453125 19.1875 8.296875 
z
" id="DejaVuSans-50"/>
       </defs>
       <use xlink:href="#DejaVuSans-50"/>
       <use x="63.623047" xlink:href="#DejaVuSans-48"/>
       <use x="127.246094" xlink:href="#DejaVuSans-48"/>
      </g>
     </g>
    </g>
    <g id="xtick_3">
     <g id="line2d_5">
      <path clip-path="url(#p8a0db6f11d)" d="M 351.449437 720.9 
L 351.449437 56.7 
" style="fill:none;stroke:#e6e6e6;stroke-linecap:square;stroke-width:0.8;"/>
     </g>
     <g id="line2d_6">
      <g>
       <use style="stroke:#000000;stroke-width:0.8;" x="351.449437" xlink:href="#m4933fff610" y="720.9"/>
      </g>
     </g>
     <g id="text_3">
      <!-- 400 -->
      <g transform="translate(337.133812 739.297656)scale(0.15 -0.15)">
       <defs>
        <path d="M 37.796875 64.3125 
L 12.890625 25.390625 
L 37.796875 25.390625 
z
M 35.203125 72.90625 
L 47.609375 72.90625 
L 47.609375 25.390625 
L 58.015625 25.390625 
L 58.015625 17.1875 
L 47.609375 17.1875 
L 47.609375 0 
L 37.796875 0 
L 37.796875 17.1875 
L 4.890625 17.1875 
L 4.890625 26.703125 
z
" id="DejaVuSans-52"/>
       </defs>
       <use xlink:href="#DejaVuSans-52"/>
       <use x="63.623047" xlink:href="#DejaVuSans-48"/>
       <use x="127.246094" xlink:href="#DejaVuSans-48"/>
      </g>
     </g>
    </g>
    <g id="xtick_4">
     <g id="line2d_7">
      <path clip-path="url(#p8a0db6f11d)" d="M 450.021938 720.9 
L 450.021938 56.7 
" style="fill:none;stroke:#e6e6e6;stroke-linecap:square;stroke-width:0.8;"/>
     </g>
     <g id="line2d_8">
      <g>
       <use style="stroke:#000000;stroke-width:0.8;" x="450.021938" xlink:href="#m4933fff610" y="720.9"/>
      </g>
     </g>
     <g id="text_4">
      <!-- 600 -->
      <g transform="translate(435.706313 739.297656)scale(0.15 -0.15)">
       <defs>
        <path d="M 33.015625 40.375 
Q 26.375 40.375 22.484375 35.828125 
Q 18.609375 31.296875 18.609375 23.390625 
Q 18.609375 15.53125 22.484375 10.953125 
Q 26.375 6.390625 33.015625 6.390625 
Q 39.65625 6.390625 43.53125 10.953125 
Q 47.40625 15.53125 47.40625 23.390625 
Q 47.40625 31.296875 43.53125 35.828125 
Q 39.65625 40.375 33.015625 40.375 
z
M 52.59375 71.296875 
L 52.59375 62.3125 
Q 48.875 64.0625 45.09375 64.984375 
Q 41.3125 65.921875 37.59375 65.921875 
Q 27.828125 65.921875 22.671875 59.328125 
Q 17.53125 52.734375 16.796875 39.40625 
Q 19.671875 43.65625 24.015625 45.921875 
Q 28.375 48.1875 33.59375 48.1875 
Q 44.578125 48.1875 50.953125 41.515625 
Q 57.328125 34.859375 57.328125 23.390625 
Q 57.328125 12.15625 50.6875 5.359375 
Q 44.046875 -1.421875 33.015625 -1.421875 
Q 20.359375 -1.421875 13.671875 8.265625 
Q 6.984375 17.96875 6.984375 36.375 
Q 6.984375 53.65625 15.1875 63.9375 
Q 23.390625 74.21875 37.203125 74.21875 
Q 40.921875 74.21875 44.703125 73.484375 
Q 48.484375 72.75 52.59375 71.296875 
z
" id="DejaVuSans-54"/>
       </defs>
       <use xlink:href="#DejaVuSans-54"/>
       <use x="63.623047" xlink:href="#DejaVuSans-48"/>
       <use x="127.246094" xlink:href="#DejaVuSans-48"/>
      </g>
     </g>
    </g>
    <g id="xtick_5">
     <g id="line2d_9">
      <path clip-path="url(#p8a0db6f11d)" d="M 548.59444 720.9 
L 548.59444 56.7 
" style="fill:none;stroke:#e6e6e6;stroke-linecap:square;stroke-width:0.8;"/>
     </g>
     <g id="line2d_10">
      <g>
       <use style="stroke:#000000;stroke-width:0.8;" x="548.59444" xlink:href="#m4933fff610" y="720.9"/>
      </g>
     </g>
     <g id="text_5">
      <!-- 800 -->
      <g transform="translate(534.278815 739.297656)scale(0.15 -0.15)">
       <defs>
        <path d="M 31.78125 34.625 
Q 24.75 34.625 20.71875 30.859375 
Q 16.703125 27.09375 16.703125 20.515625 
Q 16.703125 13.921875 20.71875 10.15625 
Q 24.75 6.390625 31.78125 6.390625 
Q 38.8125 6.390625 42.859375 10.171875 
Q 46.921875 13.96875 46.921875 20.515625 
Q 46.921875 27.09375 42.890625 30.859375 
Q 38.875 34.625 31.78125 34.625 
z
M 21.921875 38.8125 
Q 15.578125 40.375 12.03125 44.71875 
Q 8.5 49.078125 8.5 55.328125 
Q 8.5 64.0625 14.71875 69.140625 
Q 20.953125 74.21875 31.78125 74.21875 
Q 42.671875 74.21875 48.875 69.140625 
Q 55.078125 64.0625 55.078125 55.328125 
Q 55.078125 49.078125 51.53125 44.71875 
Q 48 40.375 41.703125 38.8125 
Q 48.828125 37.15625 52.796875 32.3125 
Q 56.78125 27.484375 56.78125 20.515625 
Q 56.78125 9.90625 50.3125 4.234375 
Q 43.84375 -1.421875 31.78125 -1.421875 
Q 19.734375 -1.421875 13.25 4.234375 
Q 6.78125 9.90625 6.78125 20.515625 
Q 6.78125 27.484375 10.78125 32.3125 
Q 14.796875 37.15625 21.921875 38.8125 
z
M 18.3125 54.390625 
Q 18.3125 48.734375 21.84375 45.5625 
Q 25.390625 42.390625 31.78125 42.390625 
Q 38.140625 42.390625 41.71875 45.5625 
Q 45.3125 48.734375 45.3125 54.390625 
Q 45.3125 60.0625 41.71875 63.234375 
Q 38.140625 66.40625 31.78125 66.40625 
Q 25.390625 66.40625 21.84375 63.234375 
Q 18.3125 60.0625 18.3125 54.390625 
z
" id="DejaVuSans-56"/>
       </defs>
       <use xlink:href="#DejaVuSans-56"/>
       <use x="63.623047" xlink:href="#DejaVuSans-48"/>
       <use x="127.246094" xlink:href="#DejaVuSans-48"/>
      </g>
     </g>
    </g>
    <g id="xtick_6">
     <g id="line2d_11">
      <path clip-path="url(#p8a0db6f11d)" d="M 647.166942 720.9 
L 647.166942 56.7 
" style="fill:none;stroke:#e6e6e6;stroke-linecap:square;stroke-width:0.8;"/>
     </g>
     <g id="line2d_12">
      <g>
       <use style="stroke:#000000;stroke-width:0.8;" x="647.166942" xlink:href="#m4933fff610" y="720.9"/>
      </g>
     </g>
     <g id="text_6">
      <!-- 1000 -->
      <g transform="translate(628.079442 739.297656)scale(0.15 -0.15)">
       <defs>
        <path d="M 12.40625 8.296875 
L 28.515625 8.296875 
L 28.515625 63.921875 
L 10.984375 60.40625 
L 10.984375 69.390625 
L 28.421875 72.90625 
L 38.28125 72.90625 
L 38.28125 8.296875 
L 54.390625 8.296875 
L 54.390625 0 
L 12.40625 0 
z
" id="DejaVuSans-49"/>
       </defs>
       <use xlink:href="#DejaVuSans-49"/>
       <use x="63.623047" xlink:href="#DejaVuSans-48"/>
       <use x="127.246094" xlink:href="#DejaVuSans-48"/>
       <use x="190.869141" xlink:href="#DejaVuSans-48"/>
      </g>
     </g>
    </g>
    <g id="text_7">
     <!-- $z(\AA)$ -->
     <g transform="translate(378.325 767.967969)scale(0.25 -0.25)">
      <defs>
       <path d="M 11.625 54.6875 
L 54.296875 54.6875 
L 52.6875 46.484375 
L 11.53125 7.171875 
L 45.515625 7.171875 
L 44.09375 0 
L -0.296875 0 
L 1.3125 8.203125 
L 42.484375 47.515625 
L 10.203125 47.515625 
z
" id="DejaVuSans-Oblique-122"/>
       <path d="M 31 75.875 
Q 24.46875 64.65625 21.28125 53.65625 
Q 18.109375 42.671875 18.109375 31.390625 
Q 18.109375 20.125 21.3125 9.0625 
Q 24.515625 -2 31 -13.1875 
L 23.1875 -13.1875 
Q 15.875 -1.703125 12.234375 9.375 
Q 8.59375 20.453125 8.59375 31.390625 
Q 8.59375 42.28125 12.203125 53.3125 
Q 15.828125 64.359375 23.1875 75.875 
z
" id="DejaVuSans-40"/>
       <path d="M 49.8125 79.390625 
Q 49.8125 82.46875 47.625 84.640625 
Q 45.453125 86.8125 42.390625 86.8125 
Q 39.265625 86.8125 37.140625 84.6875 
Q 35.015625 82.5625 35.015625 79.390625 
Q 35.015625 76.3125 37.140625 74.15625 
Q 39.265625 72.015625 42.390625 72.015625 
Q 45.453125 72.015625 47.625 74.15625 
Q 49.8125 76.3125 49.8125 79.390625 
z
M 34.421875 68.703125 
Q 31.78125 70.515625 30.390625 73.265625 
Q 29 76.03125 29 79.390625 
Q 29 84.96875 32.90625 88.890625 
Q 36.8125 92.828125 42.390625 92.828125 
Q 47.953125 92.828125 51.875 88.890625 
Q 55.8125 84.96875 55.8125 79.390625 
Q 55.8125 75.53125 54.03125 72.546875 
Q 52.25 69.578125 48.875 67.828125 
L 61.53125 0 
L 51.21875 0 
L 48.1875 18.703125 
L 15.375 18.703125 
L 5.078125 0 
L -5.328125 0 
z
M 40.375 63.1875 
L 19.921875 26.90625 
L 46.6875 26.90625 
z
" id="DejaVuSans-Oblique-197"/>
       <path d="M 8.015625 75.875 
L 15.828125 75.875 
Q 23.140625 64.359375 26.78125 53.3125 
Q 30.421875 42.28125 30.421875 31.390625 
Q 30.421875 20.453125 26.78125 9.375 
Q 23.140625 -1.703125 15.828125 -13.1875 
L 8.015625 -13.1875 
Q 14.5 -2 17.703125 9.0625 
Q 20.90625 20.125 20.90625 31.390625 
Q 20.90625 42.671875 17.703125 53.65625 
Q 14.5 64.65625 8.015625 75.875 
z
" id="DejaVuSans-41"/>
      </defs>
      <use transform="translate(0 0.171875)" xlink:href="#DejaVuSans-Oblique-122"/>
      <use transform="translate(52.490234 0.171875)" xlink:href="#DejaVuSans-40"/>
      <use transform="translate(91.503906 0.171875)" xlink:href="#DejaVuSans-Oblique-197"/>
      <use transform="translate(159.912109 0.171875)" xlink:href="#DejaVuSans-41"/>
     </g>
    </g>
   </g>
   <g id="matplotlib.axis_2">
    <g id="ytick_1">
     <g id="line2d_13">
      <path clip-path="url(#p8a0db6f11d)" d="M 108 663.464522 
L 698.4 663.464522 
" style="fill:none;stroke:#e6e6e6;stroke-linecap:square;stroke-width:0.8;"/>
     </g>
     <g id="line2d_14">
      <defs>
       <path d="M 0 0 
L -3.5 0 
" id="md7206f77a0" style="stroke:#000000;stroke-width:0.8;"/>
      </defs>
      <g>
       <use style="stroke:#000000;stroke-width:0.8;" x="108" xlink:href="#md7206f77a0" y="663.464522"/>
      </g>
     </g>
     <g id="text_8">
      <!-- 0 -->
      <g transform="translate(91.45625 669.16335)scale(0.15 -0.15)">
       <use xlink:href="#DejaVuSans-48"/>
      </g>
     </g>
    </g>
    <g id="ytick_2">
     <g id="line2d_15">
      <path clip-path="url(#p8a0db6f11d)" d="M 108 569.270384 
L 698.4 569.270384 
" style="fill:none;stroke:#e6e6e6;stroke-linecap:square;stroke-width:0.8;"/>
     </g>
     <g id="line2d_16">
      <g>
       <use style="stroke:#000000;stroke-width:0.8;" x="108" xlink:href="#md7206f77a0" y="569.270384"/>
      </g>
     </g>
     <g id="text_9">
      <!-- 1 -->
      <g transform="translate(91.45625 574.969212)scale(0.15 -0.15)">
       <use xlink:href="#DejaVuSans-49"/>
      </g>
     </g>
    </g>
    <g id="ytick_3">
     <g id="line2d_17">
      <path clip-path="url(#p8a0db6f11d)" d="M 108 475.076246 
L 698.4 475.076246 
" style="fill:none;stroke:#e6e6e6;stroke-linecap:square;stroke-width:0.8;"/>
     </g>
     <g id="line2d_18">
      <g>
       <use style="stroke:#000000;stroke-width:0.8;" x="108" xlink:href="#md7206f77a0" y="475.076246"/>
      </g>
     </g>
     <g id="text_10">
      <!-- 2 -->
      <g transform="translate(91.45625 480.775074)scale(0.15 -0.15)">
       <use xlink:href="#DejaVuSans-50"/>
      </g>
     </g>
    </g>
    <g id="ytick_4">
     <g id="line2d_19">
      <path clip-path="url(#p8a0db6f11d)" d="M 108 380.882108 
L 698.4 380.882108 
" style="fill:none;stroke:#e6e6e6;stroke-linecap:square;stroke-width:0.8;"/>
     </g>
     <g id="line2d_20">
      <g>
       <use style="stroke:#000000;stroke-width:0.8;" x="108" xlink:href="#md7206f77a0" y="380.882108"/>
      </g>
     </g>
     <g id="text_11">
      <!-- 3 -->
      <g transform="translate(91.45625 386.580936)scale(0.15 -0.15)">
       <defs>
        <path d="M 40.578125 39.3125 
Q 47.65625 37.796875 51.625 33 
Q 55.609375 28.21875 55.609375 21.1875 
Q 55.609375 10.40625 48.1875 4.484375 
Q 40.765625 -1.421875 27.09375 -1.421875 
Q 22.515625 -1.421875 17.65625 -0.515625 
Q 12.796875 0.390625 7.625 2.203125 
L 7.625 11.71875 
Q 11.71875 9.328125 16.59375 8.109375 
Q 21.484375 6.890625 26.8125 6.890625 
Q 36.078125 6.890625 40.9375 10.546875 
Q 45.796875 14.203125 45.796875 21.1875 
Q 45.796875 27.640625 41.28125 31.265625 
Q 36.765625 34.90625 28.71875 34.90625 
L 20.21875 34.90625 
L 20.21875 43.015625 
L 29.109375 43.015625 
Q 36.375 43.015625 40.234375 45.921875 
Q 44.09375 48.828125 44.09375 54.296875 
Q 44.09375 59.90625 40.109375 62.90625 
Q 36.140625 65.921875 28.71875 65.921875 
Q 24.65625 65.921875 20.015625 65.03125 
Q 15.375 64.15625 9.8125 62.3125 
L 9.8125 71.09375 
Q 15.4375 72.65625 20.34375 73.4375 
Q 25.25 74.21875 29.59375 74.21875 
Q 40.828125 74.21875 47.359375 69.109375 
Q 53.90625 64.015625 53.90625 55.328125 
Q 53.90625 49.265625 50.4375 45.09375 
Q 46.96875 40.921875 40.578125 39.3125 
z
" id="DejaVuSans-51"/>
       </defs>
       <use xlink:href="#DejaVuSans-51"/>
      </g>
     </g>
    </g>
    <g id="ytick_5">
     <g id="line2d_21">
      <path clip-path="url(#p8a0db6f11d)" d="M 108 286.68797 
L 698.4 286.68797 
" style="fill:none;stroke:#e6e6e6;stroke-linecap:square;stroke-width:0.8;"/>
     </g>
     <g id="line2d_22">
      <g>
       <use style="stroke:#000000;stroke-width:0.8;" x="108" xlink:href="#md7206f77a0" y="286.68797"/>
      </g>
     </g>
     <g id="text_12">
      <!-- 4 -->
      <g transform="translate(91.45625 292.386798)scale(0.15 -0.15)">
       <use xlink:href="#DejaVuSans-52"/>
      </g>
     </g>
    </g>
    <g id="ytick_6">
     <g id="line2d_23">
      <path clip-path="url(#p8a0db6f11d)" d="M 108 192.493832 
L 698.4 192.493832 
" style="fill:none;stroke:#e6e6e6;stroke-linecap:square;stroke-width:0.8;"/>
     </g>
     <g id="line2d_24">
      <g>
       <use style="stroke:#000000;stroke-width:0.8;" x="108" xlink:href="#md7206f77a0" y="192.493832"/>
      </g>
     </g>
     <g id="text_13">
      <!-- 5 -->
      <g transform="translate(91.45625 198.19266)scale(0.15 -0.15)">
       <defs>
        <path d="M 10.796875 72.90625 
L 49.515625 72.90625 
L 49.515625 64.59375 
L 19.828125 64.59375 
L 19.828125 46.734375 
Q 21.96875 47.46875 24.109375 47.828125 
Q 26.265625 48.1875 28.421875 48.1875 
Q 40.625 48.1875 47.75 41.5 
Q 54.890625 34.8125 54.890625 23.390625 
Q 54.890625 11.625 47.5625 5.09375 
Q 40.234375 -1.421875 26.90625 -1.421875 
Q 22.3125 -1.421875 17.546875 -0.640625 
Q 12.796875 0.140625 7.71875 1.703125 
L 7.71875 11.625 
Q 12.109375 9.234375 16.796875 8.0625 
Q 21.484375 6.890625 26.703125 6.890625 
Q 35.15625 6.890625 40.078125 11.328125 
Q 45.015625 15.765625 45.015625 23.390625 
Q 45.015625 31 40.078125 35.4375 
Q 35.15625 39.890625 26.703125 39.890625 
Q 22.75 39.890625 18.8125 39.015625 
Q 14.890625 38.140625 10.796875 36.28125 
z
" id="DejaVuSans-53"/>
       </defs>
       <use xlink:href="#DejaVuSans-53"/>
      </g>
     </g>
    </g>
    <g id="ytick_7">
     <g id="line2d_25">
      <path clip-path="url(#p8a0db6f11d)" d="M 108 98.299694 
L 698.4 98.299694 
" style="fill:none;stroke:#e6e6e6;stroke-linecap:square;stroke-width:0.8;"/>
     </g>
     <g id="line2d_26">
      <g>
       <use style="stroke:#000000;stroke-width:0.8;" x="108" xlink:href="#md7206f77a0" y="98.299694"/>
      </g>
     </g>
     <g id="text_14">
      <!-- 6 -->
      <g transform="translate(91.45625 103.998522)scale(0.15 -0.15)">
       <use xlink:href="#DejaVuSans-54"/>
      </g>
     </g>
    </g>
    <g id="text_15">
     <!-- $I_{int}$ -->
     <g transform="translate(82.257031 404.3)rotate(-90)scale(0.25 -0.25)">
      <defs>
       <path d="M 16.890625 72.90625 
L 26.8125 72.90625 
L 12.59375 0 
L 2.6875 0 
z
" id="DejaVuSans-Oblique-73"/>
       <path d="M 18.3125 75.984375 
L 27.296875 75.984375 
L 25.09375 64.59375 
L 16.109375 64.59375 
z
M 14.203125 54.6875 
L 23.1875 54.6875 
L 12.5 0 
L 3.515625 0 
z
" id="DejaVuSans-Oblique-105"/>
       <path d="M 55.71875 33.015625 
L 49.3125 0 
L 40.28125 0 
L 46.6875 32.671875 
Q 47.125 34.96875 47.359375 36.71875 
Q 47.609375 38.484375 47.609375 39.5 
Q 47.609375 43.609375 45.015625 45.890625 
Q 42.4375 48.1875 37.796875 48.1875 
Q 30.5625 48.1875 25.34375 43.375 
Q 20.125 38.578125 18.5 30.328125 
L 12.5 0 
L 3.515625 0 
L 14.109375 54.6875 
L 23.09375 54.6875 
L 21.296875 46.09375 
Q 25.046875 50.828125 30.3125 53.40625 
Q 35.59375 56 41.40625 56 
Q 48.640625 56 52.609375 52.09375 
Q 56.59375 48.1875 56.59375 41.109375 
Q 56.59375 39.359375 56.375 37.359375 
Q 56.15625 35.359375 55.71875 33.015625 
z
" id="DejaVuSans-Oblique-110"/>
       <path d="M 42.28125 54.6875 
L 40.921875 47.703125 
L 23 47.703125 
L 17.1875 18.015625 
Q 16.890625 16.359375 16.75 15.234375 
Q 16.609375 14.109375 16.609375 13.484375 
Q 16.609375 10.359375 18.484375 8.9375 
Q 20.359375 7.515625 24.515625 7.515625 
L 33.59375 7.515625 
L 32.078125 0 
L 23.484375 0 
Q 15.484375 0 11.546875 3.125 
Q 7.625 6.25 7.625 12.59375 
Q 7.625 13.71875 7.765625 15.0625 
Q 7.90625 16.40625 8.203125 18.015625 
L 14.015625 47.703125 
L 6.390625 47.703125 
L 7.8125 54.6875 
L 15.28125 54.6875 
L 18.3125 70.21875 
L 27.296875 70.21875 
L 24.3125 54.6875 
z
" id="DejaVuSans-Oblique-116"/>
      </defs>
      <use transform="translate(0 0.09375)" xlink:href="#DejaVuSans-Oblique-73"/>
      <use transform="translate(29.492188 -16.3125)scale(0.7)" xlink:href="#DejaVuSans-Oblique-105"/>
      <use transform="translate(48.94043 -16.3125)scale(0.7)" xlink:href="#DejaVuSans-Oblique-110"/>
      <use transform="translate(93.305664 -16.3125)scale(0.7)" xlink:href="#DejaVuSans-Oblique-116"/>
     </g>
    </g>
   </g>
   <g id="line2d_27">
    <path clip-path="url(#p8a0db6f11d)" d="M 159.233058 663.249462 
L 169.190892 662.456865 
L 179.148727 661.908986 
L 189.106561 661.203847 
L 199.064395 660.244865 
L 209.02223 659.365864 
L 218.980064 658.719517 
L 228.937898 658.094491 
L 238.895733 657.443953 
L 248.853567 656.892397 
L 258.811402 656.215325 
L 268.769236 655.622856 
L 278.72707 655.030342 
L 288.684905 654.68356 
L 298.642739 654.165114 
L 308.600573 653.382618 
L 318.558408 652.352032 
L 328.516242 651.727598 
L 338.474077 651.049456 
L 348.431911 650.74884 
L 358.389745 650.221083 
L 368.34758 649.840037 
L 378.305414 649.509953 
L 388.263248 649.353365 
L 398.221083 648.690485 
L 408.178917 647.836303 
L 418.136752 647.137408 
L 428.094586 646.792053 
L 438.05242 646.435785 
L 448.010255 645.863973 
L 457.968089 644.857831 
L 467.925923 643.532153 
L 477.883758 642.342506 
L 487.841592 641.225218 
L 497.799427 640.04874 
L 507.757261 638.509298 
L 517.715095 637.301173 
L 527.67293 636.160941 
L 537.630764 635.179959 
L 547.588598 633.861585 
L 557.546433 632.642963 
L 567.504267 631.364696 
L 577.462102 630.685825 
L 587.419936 629.507321 
L 597.37777 628.378377 
L 607.335605 627.212755 
L 617.293439 626.161552 
L 627.251273 625.419786 
L 637.209108 624.894236 
L 647.166942 624.019438 
" style="fill:none;stroke:#ff6a00;stroke-linecap:square;stroke-width:2;"/>
   </g>
   <g id="line2d_28">
    <path clip-path="url(#p8a0db6f11d)" d="M 159.233058 663.06345 
L 169.190892 661.0069 
L 179.148727 659.478532 
L 189.106561 658.027222 
L 199.064395 657.456638 
L 209.02223 656.388032 
L 218.980064 655.415608 
L 228.937898 654.124117 
L 238.895733 653.227919 
L 248.853567 652.397857 
L 258.811402 651.604201 
L 268.769236 650.50525 
L 278.72707 649.315709 
L 288.684905 647.98615 
L 298.642739 646.892545 
L 308.600573 645.36933 
L 318.558408 643.472124 
L 328.516242 641.42683 
L 338.474077 639.287067 
L 348.431911 637.817558 
L 358.389745 636.271298 
L 368.34758 634.680793 
L 378.305414 632.427474 
L 388.263248 631.277967 
L 398.221083 630.297478 
L 408.178917 629.931121 
L 418.136752 628.995335 
L 428.094586 628.512332 
L 438.05242 627.544371 
L 448.010255 627.477922 
L 457.968089 627.633273 
L 467.925923 627.261815 
L 477.883758 626.658182 
L 487.841592 625.661591 
L 497.799427 624.289177 
L 507.757261 623.144879 
L 517.715095 621.592678 
L 527.67293 619.657876 
L 537.630764 617.168794 
L 547.588598 614.941542 
L 557.546433 612.338808 
L 567.504267 610.667368 
L 577.462102 608.752316 
L 587.419936 607.595809 
L 597.37777 605.092927 
L 607.335605 602.572895 
L 617.293439 599.903792 
L 627.251273 597.94324 
L 637.209108 595.903383 
L 647.166942 594.413391 
" style="fill:none;stroke:#ffd500;stroke-linecap:square;stroke-width:2;"/>
   </g>
   <g id="line2d_29">
    <path clip-path="url(#p8a0db6f11d)" d="M 159.233058 663.26281 
L 169.190892 662.764299 
L 179.148727 662.604916 
L 189.106561 662.199959 
L 199.064395 661.636803 
L 209.02223 661.409629 
L 218.980064 661.290523 
L 228.937898 660.823001 
L 238.895733 660.210067 
L 248.853567 660.071458 
L 258.811402 659.729316 
L 268.769236 659.443336 
L 278.72707 659.097176 
L 288.684905 659.091797 
L 298.642739 658.887059 
L 308.600573 658.437676 
L 318.558408 658.185801 
L 328.516242 657.992638 
L 338.474077 657.941873 
L 348.431911 657.65724 
L 358.389745 657.595363 
L 368.34758 657.296571 
L 378.305414 656.85129 
L 388.263248 656.298821 
L 398.221083 655.779703 
L 408.178917 655.5381 
L 418.136752 655.146244 
L 428.094586 654.534366 
L 438.05242 653.687337 
L 448.010255 652.891642 
L 457.968089 651.99139 
L 467.925923 651.024476 
L 477.883758 650.106248 
L 487.841592 649.043868 
L 497.799427 647.874853 
L 507.757261 646.719502 
L 517.715095 645.547876 
L 527.67293 644.902646 
L 537.630764 643.989184 
L 547.588598 643.22596 
L 557.546433 642.553095 
L 567.504267 642.1287 
L 577.462102 641.710595 
L 587.419936 641.039261 
L 597.37777 640.923741 
L 607.335605 640.398627 
L 617.293439 640.003652 
L 627.251273 639.382741 
L 637.209108 638.647581 
L 647.166942 638.223813 
" style="fill:none;stroke:#bfff00;stroke-linecap:square;stroke-width:2;"/>
   </g>
   <g id="line2d_30">
    <path clip-path="url(#p8a0db6f11d)" d="M 159.233058 662.373302 
L 169.190892 658.674803 
L 179.148727 657.572469 
L 189.106561 656.549735 
L 199.064395 655.260932 
L 209.02223 653.258738 
L 218.980064 651.177355 
L 228.937898 649.274819 
L 238.895733 648.554117 
L 248.853567 647.800672 
L 258.811402 645.540987 
L 268.769236 643.029688 
L 278.72707 641.065465 
L 288.684905 639.836908 
L 298.642739 639.206042 
L 308.600573 639.194192 
L 318.558408 638.379597 
L 328.516242 636.23866 
L 338.474077 634.040338 
L 348.431911 632.584976 
L 358.389745 631.60645 
L 368.34758 630.324629 
L 378.305414 629.465594 
L 388.263248 629.070078 
L 398.221083 628.411679 
L 408.178917 628.353617 
L 418.136752 628.536068 
L 428.094586 629.356849 
L 438.05242 629.729741 
L 448.010255 628.999872 
L 457.968089 627.464378 
L 467.925923 625.42942 
L 477.883758 624.033798 
L 487.841592 623.551578 
L 497.799427 623.681348 
L 507.757261 623.09398 
L 517.715095 623.131062 
L 527.67293 623.645493 
L 537.630764 624.293512 
L 547.588598 624.772188 
L 557.546433 624.321621 
L 567.504267 623.308826 
L 577.462102 621.364924 
L 587.419936 619.855351 
L 597.37777 618.540351 
L 607.335605 618.214451 
L 617.293439 618.317535 
L 627.251273 617.830993 
L 637.209108 616.161787 
L 647.166942 613.872927 
" style="fill:none;stroke:#4fff00;stroke-linecap:square;stroke-width:2;"/>
   </g>
   <g id="line2d_31">
    <path clip-path="url(#p8a0db6f11d)" d="M 159.233058 663.191456 
L 169.190892 661.245007 
L 179.148727 657.188496 
L 189.106561 651.177466 
L 199.064395 644.545854 
L 209.02223 637.644102 
L 218.980064 631.996677 
L 228.937898 627.705617 
L 238.895733 625.112464 
L 248.853567 623.944777 
L 258.811402 624.004066 
L 268.769236 624.094719 
L 278.72707 624.374784 
L 288.684905 623.432823 
L 298.642739 622.393262 
L 308.600573 621.182405 
L 318.558408 619.853748 
L 328.516242 617.447211 
L 338.474077 614.885616 
L 348.431911 611.605799 
L 358.389745 608.844726 
L 368.34758 605.956654 
L 378.305414 602.98651 
L 388.263248 599.983814 
L 398.221083 596.890415 
L 408.178917 594.314054 
L 418.136752 592.003089 
L 428.094586 590.528045 
L 438.05242 589.672341 
L 448.010255 590.09198 
L 457.968089 591.117676 
L 467.925923 592.806324 
L 477.883758 593.880896 
L 487.841592 594.594702 
L 497.799427 594.263573 
L 507.757261 593.1146 
L 517.715095 590.904382 
L 527.67293 587.871662 
L 537.630764 583.77009 
L 547.588598 580.141894 
L 557.546433 577.292691 
L 567.504267 576.155295 
L 577.462102 576.212473 
L 587.419936 577.061572 
L 597.37777 578.214299 
L 607.335605 580.40268 
L 617.293439 582.409106 
L 627.251273 584.277054 
L 637.209108 585.614169 
L 647.166942 586.816665 
" style="fill:none;stroke:#00ff1b;stroke-linecap:square;stroke-width:2;"/>
   </g>
   <g id="line2d_32">
    <path clip-path="url(#p8a0db6f11d)" d="M 159.233058 661.413779 
L 169.190892 651.744038 
L 179.148727 638.047678 
L 189.106561 623.188736 
L 199.064395 609.358425 
L 209.02223 595.550806 
L 218.980064 581.616648 
L 228.937898 570.625674 
L 238.895733 559.298061 
L 248.853567 551.398259 
L 258.811402 543.105345 
L 268.769236 534.887861 
L 278.72707 527.382509 
L 288.684905 520.690212 
L 298.642739 513.943402 
L 308.600573 506.729804 
L 318.558408 498.582613 
L 328.516242 491.943034 
L 338.474077 487.942993 
L 348.431911 483.74722 
L 358.389745 480.79767 
L 368.34758 478.385948 
L 378.305414 476.885016 
L 388.263248 477.783409 
L 398.221083 478.918285 
L 408.178917 479.694917 
L 418.136752 480.001659 
L 428.094586 478.930443 
L 438.05242 478.389104 
L 448.010255 475.022199 
L 457.968089 472.786486 
L 467.925923 468.351727 
L 477.883758 465.694919 
L 487.841592 462.677255 
L 497.799427 461.775044 
L 507.757261 459.440257 
L 517.715095 458.408779 
L 527.67293 456.688316 
L 537.630764 457.478818 
L 547.588598 458.829422 
L 557.546433 460.125822 
L 567.504267 460.311842 
L 577.462102 460.074736 
L 587.419936 460.505974 
L 597.37777 462.316994 
L 607.335605 465.905051 
L 617.293439 470.986974 
L 627.251273 478.727758 
L 637.209108 487.773538 
L 647.166942 497.813718 
" style="fill:none;stroke:#00ff86;stroke-linecap:square;stroke-width:2;"/>
   </g>
   <g id="line2d_33">
    <path clip-path="url(#p8a0db6f11d)" d="M 159.233058 657.522527 
L 169.190892 631.782689 
L 179.148727 613.488979 
L 189.106561 600.799767 
L 199.064395 591.184475 
L 209.02223 587.382545 
L 218.980064 584.395079 
L 228.937898 582.573155 
L 238.895733 580.95556 
L 248.853567 583.012031 
L 258.811402 584.121631 
L 268.769236 585.272296 
L 278.72707 584.741241 
L 288.684905 583.449342 
L 298.642739 582.304464 
L 308.600573 582.767327 
L 318.558408 582.420145 
L 328.516242 582.277883 
L 338.474077 583.577108 
L 348.431911 584.165495 
L 358.389745 584.913878 
L 368.34758 586.348809 
L 378.305414 589.720051 
L 388.263248 594.204412 
L 398.221083 599.613242 
L 408.178917 604.283305 
L 418.136752 607.744559 
L 428.094586 609.913289 
L 438.05242 612.162615 
L 448.010255 612.652503 
L 457.968089 612.632102 
L 467.925923 612.449887 
L 477.883758 610.182885 
L 487.841592 606.813279 
L 497.799427 604.280346 
L 507.757261 599.239632 
L 517.715095 594.242623 
L 527.67293 589.872408 
L 537.630764 585.16721 
L 547.588598 579.720432 
L 557.546433 576.683371 
L 567.504267 574.484362 
L 577.462102 571.895665 
L 587.419936 568.763913 
L 597.37777 566.791649 
L 607.335605 564.479949 
L 617.293439 562.519395 
L 627.251273 561.227452 
L 637.209108 561.198725 
L 647.166942 563.853184 
" style="fill:none;stroke:#00fff6;stroke-linecap:square;stroke-width:2;"/>
   </g>
   <g id="line2d_34">
    <path clip-path="url(#p8a0db6f11d)" d="M 159.233058 662.275721 
L 169.190892 657.794304 
L 179.148727 654.520783 
L 189.106561 650.129371 
L 199.064395 647.110765 
L 209.02223 644.833649 
L 218.980064 642.442075 
L 228.937898 641.032819 
L 238.895733 639.700774 
L 248.853567 638.136446 
L 258.811402 636.924421 
L 268.769236 636.062622 
L 278.72707 634.424436 
L 288.684905 631.739773 
L 298.642739 628.531892 
L 308.600573 625.174371 
L 318.558408 622.980407 
L 328.516242 619.803441 
L 338.474077 615.580478 
L 348.431911 612.018866 
L 358.389745 608.915592 
L 368.34758 606.956543 
L 378.305414 605.016373 
L 388.263248 602.611129 
L 398.221083 600.529653 
L 408.178917 599.78708 
L 418.136752 598.597506 
L 428.094586 597.362805 
L 438.05242 595.477303 
L 448.010255 593.199594 
L 457.968089 591.407164 
L 467.925923 590.696802 
L 477.883758 590.695367 
L 487.841592 591.450132 
L 497.799427 592.221703 
L 507.757261 593.030114 
L 517.715095 594.235452 
L 527.67293 595.408732 
L 537.630764 596.175109 
L 547.588598 596.70367 
L 557.546433 598.535308 
L 567.504267 600.725013 
L 577.462102 603.521648 
L 587.419936 605.65716 
L 597.37777 607.447631 
L 607.335605 609.034776 
L 617.293439 609.892268 
L 627.251273 611.112732 
L 637.209108 612.152235 
L 647.166942 613.833992 
" style="fill:none;stroke:#009eff;stroke-linecap:square;stroke-width:2;"/>
   </g>
   <g id="line2d_35">
    <path clip-path="url(#p8a0db6f11d)" d="M 159.233058 662.958595 
L 169.190892 661.842041 
L 179.148727 661.873345 
L 189.106561 661.412426 
L 199.064395 659.598241 
L 209.02223 658.685147 
L 218.980064 658.013335 
L 228.937898 657.302162 
L 238.895733 655.690728 
L 248.853567 654.608006 
L 258.811402 653.70244 
L 268.769236 653.524103 
L 278.72707 652.709345 
L 288.684905 651.322079 
L 298.642739 650.214378 
L 308.600573 649.728868 
L 318.558408 649.016323 
L 328.516242 647.914308 
L 338.474077 646.967695 
L 348.431911 646.331382 
L 358.389745 645.967434 
L 368.34758 644.92142 
L 378.305414 644.200144 
L 388.263248 642.99102 
L 398.221083 642.42258 
L 408.178917 642.303624 
L 418.136752 641.846528 
L 428.094586 641.207676 
L 438.05242 639.577726 
L 448.010255 638.803574 
L 457.968089 637.825236 
L 467.925923 637.629796 
L 477.883758 636.700093 
L 487.841592 635.932219 
L 497.799427 635.337454 
L 507.757261 634.764673 
L 517.715095 633.475603 
L 527.67293 632.810765 
L 537.630764 632.284372 
L 547.588598 631.681459 
L 557.546433 631.409762 
L 567.504267 630.218603 
L 577.462102 629.682928 
L 587.419936 628.856616 
L 597.37777 628.867717 
L 607.335605 628.27226 
L 617.293439 628.337329 
L 627.251273 627.747667 
L 637.209108 627.491125 
L 647.166942 626.733131 
" style="fill:none;stroke:#0033ff;stroke-linecap:square;stroke-width:2;"/>
   </g>
   <g id="line2d_36">
    <path clip-path="url(#p8a0db6f11d)" d="M 159.233058 654.807004 
L 169.190892 602.06856 
L 179.148727 544.64098 
L 189.106561 508.214812 
L 199.064395 487.099286 
L 209.02223 471.275519 
L 218.980064 453.25229 
L 228.937898 436.710114 
L 238.895733 426.615853 
L 248.853567 423.80642 
L 258.811402 421.041051 
L 268.769236 423.636812 
L 278.72707 427.569044 
L 288.684905 437.331864 
L 298.642739 448.448851 
L 308.600573 456.328919 
L 318.558408 456.556641 
L 328.516242 450.182775 
L 338.474077 444.347109 
L 348.431911 441.84286 
L 358.389745 441.424683 
L 368.34758 442.668179 
L 378.305414 444.210325 
L 388.263248 448.375196 
L 398.221083 452.543012 
L 408.178917 455.617448 
L 418.136752 456.04314 
L 428.094586 455.290683 
L 438.05242 455.759606 
L 448.010255 455.300324 
L 457.968089 454.569478 
L 467.925923 455.038492 
L 477.883758 455.333292 
L 487.841592 457.291846 
L 497.799427 458.051849 
L 507.757261 457.798513 
L 517.715095 459.799829 
L 527.67293 464.167752 
L 537.630764 471.005485 
L 547.588598 475.770402 
L 557.546433 481.29524 
L 567.504267 487.581607 
L 577.462102 498.036195 
L 587.419936 509.727773 
L 597.37777 520.845529 
L 607.335605 528.51913 
L 617.293439 535.689777 
L 627.251273 541.769492 
L 637.209108 546.965102 
L 647.166942 549.943159 
" style="fill:none;stroke:#3700ff;stroke-linecap:square;stroke-width:2;"/>
   </g>
   <g id="line2d_37">
    <path clip-path="url(#p8a0db6f11d)" d="M 159.233058 654.874137 
L 169.190892 605.081525 
L 179.148727 552.737649 
L 189.106561 516.617686 
L 199.064395 485.162146 
L 209.02223 457.972589 
L 218.980064 438.994612 
L 228.937898 416.376636 
L 238.895733 386.651331 
L 248.853567 355.181173 
L 258.811402 319.570108 
L 268.769236 289.632813 
L 278.72707 269.062392 
L 288.684905 254.047867 
L 298.642739 236.325329 
L 308.600573 221.414151 
L 318.558408 205.136052 
L 328.516242 185.171017 
L 338.474077 166.145206 
L 348.431911 150.550813 
L 358.389745 141.368494 
L 368.34758 129.413824 
L 378.305414 118.264054 
L 388.263248 114.33719 
L 398.221083 115.499693 
L 408.178917 114.896035 
L 418.136752 122.506439 
L 428.094586 136.820588 
L 438.05242 157.668017 
L 448.010255 179.537829 
L 457.968089 201.867744 
L 467.925923 227.142509 
L 477.883758 255.499268 
L 487.841592 282.055468 
L 497.799427 308.214024 
L 507.757261 336.310195 
L 517.715095 362.983151 
L 527.67293 391.011001 
L 537.630764 420.471664 
L 547.588598 447.729102 
L 557.546433 471.334689 
L 567.504267 492.336571 
L 577.462102 510.339148 
L 587.419936 524.501542 
L 597.37777 534.409973 
L 607.335605 543.075733 
L 617.293439 550.786955 
L 627.251273 556.654283 
L 637.209108 558.440499 
L 647.166942 554.889207 
" style="fill:none;stroke:#a700ff;stroke-linecap:square;stroke-width:2;"/>
   </g>
   <g id="line2d_38">
    <path clip-path="url(#p8a0db6f11d)" d="M 159.233058 662.709678 
L 169.190892 659.134627 
L 179.148727 655.219188 
L 189.106561 651.350676 
L 199.064395 646.437805 
L 209.02223 641.59252 
L 218.980064 637.049196 
L 228.937898 631.800115 
L 238.895733 626.406419 
L 248.853567 621.705913 
L 258.811402 617.528414 
L 268.769236 613.926178 
L 278.72707 610.484737 
L 288.684905 607.776594 
L 298.642739 604.58965 
L 308.600573 602.245335 
L 318.558408 599.01721 
L 328.516242 595.751056 
L 338.474077 592.153743 
L 348.431911 588.890745 
L 358.389745 586.092361 
L 368.34758 584.260073 
L 378.305414 582.611777 
L 388.263248 579.782541 
L 398.221083 576.808359 
L 408.178917 573.904351 
L 418.136752 570.899204 
L 428.094586 568.249486 
L 438.05242 566.221333 
L 448.010255 564.63154 
L 457.968089 562.914103 
L 467.925923 561.376942 
L 477.883758 559.936753 
L 487.841592 558.435113 
L 497.799427 556.437262 
L 507.757261 555.482389 
L 517.715095 554.730103 
L 527.67293 554.487291 
L 537.630764 553.686874 
L 547.588598 553.213409 
L 557.546433 552.299214 
L 567.504267 551.365066 
L 577.462102 550.962449 
L 587.419936 551.427045 
L 597.37777 551.52502 
L 607.335605 551.510027 
L 617.293439 551.538588 
L 627.251273 552.209305 
L 637.209108 552.876236 
L 647.166942 553.799525 
" style="fill:none;stroke:#ff00ed;stroke-linecap:square;stroke-width:2;"/>
   </g>
   <g id="line2d_39">
    <path clip-path="url(#p8a0db6f11d)" d="M 159.233058 661.237146 
L 169.190892 653.053431 
L 179.148727 648.031231 
L 189.106561 645.018591 
L 199.064395 642.599375 
L 209.02223 641.178647 
L 218.980064 640.743963 
L 228.937898 642.155039 
L 238.895733 641.988207 
L 248.853567 642.224492 
L 258.811402 640.766933 
L 268.769236 640.910769 
L 278.72707 640.339262 
L 288.684905 640.345318 
L 298.642739 640.664366 
L 308.600573 642.824046 
L 318.558408 644.571618 
L 328.516242 645.47133 
L 338.474077 645.361088 
L 348.431911 645.363729 
L 358.389745 645.223682 
L 368.34758 644.368475 
L 378.305414 643.763085 
L 388.263248 644.12668 
L 398.221083 644.598583 
L 408.178917 644.91329 
L 418.136752 645.115801 
L 428.094586 645.130099 
L 438.05242 645.076154 
L 448.010255 644.20643 
L 457.968089 642.059941 
L 467.925923 639.379581 
L 477.883758 637.391781 
L 487.841592 635.856569 
L 497.799427 635.207238 
L 507.757261 635.424896 
L 517.715095 637.249232 
L 527.67293 637.982172 
L 537.630764 637.283067 
L 547.588598 635.493748 
L 557.546433 633.005847 
L 567.504267 629.633812 
L 577.462102 626.346708 
L 587.419936 623.461512 
L 597.37777 621.352417 
L 607.335605 618.973333 
L 617.293439 616.619277 
L 627.251273 615.683855 
L 637.209108 615.289575 
L 647.166942 614.01042 
" style="fill:none;stroke:#ff0082;stroke-linecap:square;stroke-width:2;"/>
   </g>
   <g id="line2d_40">
    <path clip-path="url(#p8a0db6f11d)" d="M 159.233058 661.643158 
L 169.190892 654.916455 
L 179.148727 651.181553 
L 189.106561 649.651444 
L 199.064395 648.418439 
L 209.02223 646.996431 
L 218.980064 646.002689 
L 228.937898 646.166152 
L 238.895733 645.873988 
L 248.853567 645.357736 
L 258.811402 643.06273 
L 268.769236 641.457538 
L 278.72707 639.814803 
L 288.684905 637.862831 
L 298.642739 635.896696 
L 308.600573 634.730796 
L 318.558408 633.661566 
L 328.516242 632.542985 
L 338.474077 631.373735 
L 348.431911 630.516334 
L 358.389745 629.533862 
L 368.34758 628.715325 
L 378.305414 628.259504 
L 388.263248 627.871693 
L 398.221083 627.288795 
L 408.178917 626.909044 
L 418.136752 626.912552 
L 428.094586 627.177929 
L 438.05242 626.95246 
L 448.010255 625.613894 
L 457.968089 623.918514 
L 467.925923 623.166045 
L 477.883758 623.444775 
L 487.841592 623.890535 
L 497.799427 623.748183 
L 507.757261 623.278869 
L 517.715095 622.753384 
L 527.67293 621.825416 
L 537.630764 621.148927 
L 547.588598 620.475146 
L 557.546433 618.804643 
L 567.504267 616.73377 
L 577.462102 615.265343 
L 587.419936 614.063318 
L 597.37777 612.75018 
L 607.335605 611.739169 
L 617.293439 610.035113 
L 627.251273 608.208549 
L 637.209108 607.074948 
L 647.166942 605.588839 
" style="fill:none;stroke:#ff0018;stroke-linecap:square;stroke-width:2;"/>
   </g>
   <g id="patch_3">
    <path d="M 108 720.9 
L 108 56.7 
" style="fill:none;stroke:#000000;stroke-linecap:square;stroke-linejoin:miter;stroke-width:0.8;"/>
   </g>
   <g id="patch_4">
    <path d="M 698.4 720.9 
L 698.4 56.7 
" style="fill:none;stroke:#000000;stroke-linecap:square;stroke-linejoin:miter;stroke-width:0.8;"/>
   </g>
   <g id="patch_5">
    <path d="M 108 720.9 
L 698.4 720.9 
" style="fill:none;stroke:#000000;stroke-linecap:square;stroke-linejoin:miter;stroke-width:0.8;"/>
   </g>
   <g id="patch_6">
    <path d="M 108 56.7 
L 698.4 56.7 
" style="fill:none;stroke:#000000;stroke-linecap:square;stroke-linejoin:miter;stroke-width:0.8;"/>
   </g>
   <g id="legend_1">
    <g id="patch_7">
     <path d="M 122 483.6875 
L 286.853125 483.6875 
Q 290.853125 483.6875 290.853125 479.6875 
L 290.853125 70.7 
Q 290.853125 66.7 286.853125 66.7 
L 122 66.7 
Q 118 66.7 118 70.7 
L 118 479.6875 
Q 118 483.6875 122 483.6875 
z
" style="fill:#ffffff;opacity:0.8;stroke:#cccccc;stroke-linejoin:miter;"/>
    </g>
    <g id="line2d_41">
     <path d="M 126 82.896875 
L 166 82.896875 
" style="fill:none;stroke:#ff6a00;stroke-linecap:square;stroke-width:2;"/>
    </g>
    <g id="line2d_42"/>
    <g id="text_16">
     <!-- (-9, -2, 1) -->
     <g transform="translate(182 89.896875)scale(0.2 -0.2)">
      <defs>
       <path d="M 4.890625 31.390625 
L 31.203125 31.390625 
L 31.203125 23.390625 
L 4.890625 23.390625 
z
" id="DejaVuSans-45"/>
       <path d="M 10.984375 1.515625 
L 10.984375 10.5 
Q 14.703125 8.734375 18.5 7.8125 
Q 22.3125 6.890625 25.984375 6.890625 
Q 35.75 6.890625 40.890625 13.453125 
Q 46.046875 20.015625 46.78125 33.40625 
Q 43.953125 29.203125 39.59375 26.953125 
Q 35.25 24.703125 29.984375 24.703125 
Q 19.046875 24.703125 12.671875 31.3125 
Q 6.296875 37.9375 6.296875 49.421875 
Q 6.296875 60.640625 12.9375 67.421875 
Q 19.578125 74.21875 30.609375 74.21875 
Q 43.265625 74.21875 49.921875 64.515625 
Q 56.59375 54.828125 56.59375 36.375 
Q 56.59375 19.140625 48.40625 8.859375 
Q 40.234375 -1.421875 26.421875 -1.421875 
Q 22.703125 -1.421875 18.890625 -0.6875 
Q 15.09375 0.046875 10.984375 1.515625 
z
M 30.609375 32.421875 
Q 37.25 32.421875 41.125 36.953125 
Q 45.015625 41.5 45.015625 49.421875 
Q 45.015625 57.28125 41.125 61.84375 
Q 37.25 66.40625 30.609375 66.40625 
Q 23.96875 66.40625 20.09375 61.84375 
Q 16.21875 57.28125 16.21875 49.421875 
Q 16.21875 41.5 20.09375 36.953125 
Q 23.96875 32.421875 30.609375 32.421875 
z
" id="DejaVuSans-57"/>
       <path d="M 11.71875 12.40625 
L 22.015625 12.40625 
L 22.015625 4 
L 14.015625 -11.625 
L 7.71875 -11.625 
L 11.71875 4 
z
" id="DejaVuSans-44"/>
       <path id="DejaVuSans-32"/>
      </defs>
      <use xlink:href="#DejaVuSans-40"/>
      <use x="39.013672" xlink:href="#DejaVuSans-45"/>
      <use x="75.097656" xlink:href="#DejaVuSans-57"/>
      <use x="138.720703" xlink:href="#DejaVuSans-44"/>
      <use x="170.507812" xlink:href="#DejaVuSans-32"/>
      <use x="202.294922" xlink:href="#DejaVuSans-45"/>
      <use x="238.378906" xlink:href="#DejaVuSans-50"/>
      <use x="302.001953" xlink:href="#DejaVuSans-44"/>
      <use x="333.789062" xlink:href="#DejaVuSans-32"/>
      <use x="365.576172" xlink:href="#DejaVuSans-49"/>
      <use x="429.199219" xlink:href="#DejaVuSans-41"/>
     </g>
    </g>
    <g id="line2d_43">
     <path d="M 126 112.253125 
L 166 112.253125 
" style="fill:none;stroke:#ffd500;stroke-linecap:square;stroke-width:2;"/>
    </g>
    <g id="line2d_44"/>
    <g id="text_17">
     <!-- (-7, -2, 2) -->
     <g transform="translate(182 119.253125)scale(0.2 -0.2)">
      <defs>
       <path d="M 8.203125 72.90625 
L 55.078125 72.90625 
L 55.078125 68.703125 
L 28.609375 0 
L 18.3125 0 
L 43.21875 64.59375 
L 8.203125 64.59375 
z
" id="DejaVuSans-55"/>
      </defs>
      <use xlink:href="#DejaVuSans-40"/>
      <use x="39.013672" xlink:href="#DejaVuSans-45"/>
      <use x="75.097656" xlink:href="#DejaVuSans-55"/>
      <use x="138.720703" xlink:href="#DejaVuSans-44"/>
      <use x="170.507812" xlink:href="#DejaVuSans-32"/>
      <use x="202.294922" xlink:href="#DejaVuSans-45"/>
      <use x="238.378906" xlink:href="#DejaVuSans-50"/>
      <use x="302.001953" xlink:href="#DejaVuSans-44"/>
      <use x="333.789062" xlink:href="#DejaVuSans-32"/>
      <use x="365.576172" xlink:href="#DejaVuSans-50"/>
      <use x="429.199219" xlink:href="#DejaVuSans-41"/>
     </g>
    </g>
    <g id="line2d_45">
     <path d="M 126 141.609375 
L 166 141.609375 
" style="fill:none;stroke:#bfff00;stroke-linecap:square;stroke-width:2;"/>
    </g>
    <g id="line2d_46"/>
    <g id="text_18">
     <!-- (-6, -2, 4) -->
     <g transform="translate(182 148.609375)scale(0.2 -0.2)">
      <use xlink:href="#DejaVuSans-40"/>
      <use x="39.013672" xlink:href="#DejaVuSans-45"/>
      <use x="75.097656" xlink:href="#DejaVuSans-54"/>
      <use x="138.720703" xlink:href="#DejaVuSans-44"/>
      <use x="170.507812" xlink:href="#DejaVuSans-32"/>
      <use x="202.294922" xlink:href="#DejaVuSans-45"/>
      <use x="238.378906" xlink:href="#DejaVuSans-50"/>
      <use x="302.001953" xlink:href="#DejaVuSans-44"/>
      <use x="333.789062" xlink:href="#DejaVuSans-32"/>
      <use x="365.576172" xlink:href="#DejaVuSans-52"/>
      <use x="429.199219" xlink:href="#DejaVuSans-41"/>
     </g>
    </g>
    <g id="line2d_47">
     <path d="M 126 170.965625 
L 166 170.965625 
" style="fill:none;stroke:#4fff00;stroke-linecap:square;stroke-width:2;"/>
    </g>
    <g id="line2d_48"/>
    <g id="text_19">
     <!-- (-5, -1, 2) -->
     <g transform="translate(182 177.965625)scale(0.2 -0.2)">
      <use xlink:href="#DejaVuSans-40"/>
      <use x="39.013672" xlink:href="#DejaVuSans-45"/>
      <use x="75.097656" xlink:href="#DejaVuSans-53"/>
      <use x="138.720703" xlink:href="#DejaVuSans-44"/>
      <use x="170.507812" xlink:href="#DejaVuSans-32"/>
      <use x="202.294922" xlink:href="#DejaVuSans-45"/>
      <use x="238.378906" xlink:href="#DejaVuSans-49"/>
      <use x="302.001953" xlink:href="#DejaVuSans-44"/>
      <use x="333.789062" xlink:href="#DejaVuSans-32"/>
      <use x="365.576172" xlink:href="#DejaVuSans-50"/>
      <use x="429.199219" xlink:href="#DejaVuSans-41"/>
     </g>
    </g>
    <g id="line2d_49">
     <path d="M 126 200.321875 
L 166 200.321875 
" style="fill:none;stroke:#00ff1b;stroke-linecap:square;stroke-width:2;"/>
    </g>
    <g id="line2d_50"/>
    <g id="text_20">
     <!-- (-4, -1, -3) -->
     <g transform="translate(182 207.321875)scale(0.2 -0.2)">
      <use xlink:href="#DejaVuSans-40"/>
      <use x="39.013672" xlink:href="#DejaVuSans-45"/>
      <use x="75.097656" xlink:href="#DejaVuSans-52"/>
      <use x="138.720703" xlink:href="#DejaVuSans-44"/>
      <use x="170.507812" xlink:href="#DejaVuSans-32"/>
      <use x="202.294922" xlink:href="#DejaVuSans-45"/>
      <use x="238.378906" xlink:href="#DejaVuSans-49"/>
      <use x="302.001953" xlink:href="#DejaVuSans-44"/>
      <use x="333.789062" xlink:href="#DejaVuSans-32"/>
      <use x="365.576172" xlink:href="#DejaVuSans-45"/>
      <use x="401.660156" xlink:href="#DejaVuSans-51"/>
      <use x="465.283203" xlink:href="#DejaVuSans-41"/>
     </g>
    </g>
    <g id="line2d_51">
     <path d="M 126 229.678125 
L 166 229.678125 
" style="fill:none;stroke:#00ff86;stroke-linecap:square;stroke-width:2;"/>
    </g>
    <g id="line2d_52"/>
    <g id="text_21">
     <!-- (-4, -1, -1) -->
     <g transform="translate(182 236.678125)scale(0.2 -0.2)">
      <use xlink:href="#DejaVuSans-40"/>
      <use x="39.013672" xlink:href="#DejaVuSans-45"/>
      <use x="75.097656" xlink:href="#DejaVuSans-52"/>
      <use x="138.720703" xlink:href="#DejaVuSans-44"/>
      <use x="170.507812" xlink:href="#DejaVuSans-32"/>
      <use x="202.294922" xlink:href="#DejaVuSans-45"/>
      <use x="238.378906" xlink:href="#DejaVuSans-49"/>
      <use x="302.001953" xlink:href="#DejaVuSans-44"/>
      <use x="333.789062" xlink:href="#DejaVuSans-32"/>
      <use x="365.576172" xlink:href="#DejaVuSans-45"/>
      <use x="401.660156" xlink:href="#DejaVuSans-49"/>
      <use x="465.283203" xlink:href="#DejaVuSans-41"/>
     </g>
    </g>
    <g id="line2d_53">
     <path d="M 126 259.034375 
L 166 259.034375 
" style="fill:none;stroke:#00fff6;stroke-linecap:square;stroke-width:2;"/>
    </g>
    <g id="line2d_54"/>
    <g id="text_22">
     <!-- (-4, -1, 0) -->
     <g transform="translate(182 266.034375)scale(0.2 -0.2)">
      <use xlink:href="#DejaVuSans-40"/>
      <use x="39.013672" xlink:href="#DejaVuSans-45"/>
      <use x="75.097656" xlink:href="#DejaVuSans-52"/>
      <use x="138.720703" xlink:href="#DejaVuSans-44"/>
      <use x="170.507812" xlink:href="#DejaVuSans-32"/>
      <use x="202.294922" xlink:href="#DejaVuSans-45"/>
      <use x="238.378906" xlink:href="#DejaVuSans-49"/>
      <use x="302.001953" xlink:href="#DejaVuSans-44"/>
      <use x="333.789062" xlink:href="#DejaVuSans-32"/>
      <use x="365.576172" xlink:href="#DejaVuSans-48"/>
      <use x="429.199219" xlink:href="#DejaVuSans-41"/>
     </g>
    </g>
    <g id="line2d_55">
     <path d="M 126 288.390625 
L 166 288.390625 
" style="fill:none;stroke:#009eff;stroke-linecap:square;stroke-width:2;"/>
    </g>
    <g id="line2d_56"/>
    <g id="text_23">
     <!-- (-4, -1, 1) -->
     <g transform="translate(182 295.390625)scale(0.2 -0.2)">
      <use xlink:href="#DejaVuSans-40"/>
      <use x="39.013672" xlink:href="#DejaVuSans-45"/>
      <use x="75.097656" xlink:href="#DejaVuSans-52"/>
      <use x="138.720703" xlink:href="#DejaVuSans-44"/>
      <use x="170.507812" xlink:href="#DejaVuSans-32"/>
      <use x="202.294922" xlink:href="#DejaVuSans-45"/>
      <use x="238.378906" xlink:href="#DejaVuSans-49"/>
      <use x="302.001953" xlink:href="#DejaVuSans-44"/>
      <use x="333.789062" xlink:href="#DejaVuSans-32"/>
      <use x="365.576172" xlink:href="#DejaVuSans-49"/>
      <use x="429.199219" xlink:href="#DejaVuSans-41"/>
     </g>
    </g>
    <g id="line2d_57">
     <path d="M 126 317.746875 
L 166 317.746875 
" style="fill:none;stroke:#0033ff;stroke-linecap:square;stroke-width:2;"/>
    </g>
    <g id="line2d_58"/>
    <g id="text_24">
     <!-- (-3, -1, 2) -->
     <g transform="translate(182 324.746875)scale(0.2 -0.2)">
      <use xlink:href="#DejaVuSans-40"/>
      <use x="39.013672" xlink:href="#DejaVuSans-45"/>
      <use x="75.097656" xlink:href="#DejaVuSans-51"/>
      <use x="138.720703" xlink:href="#DejaVuSans-44"/>
      <use x="170.507812" xlink:href="#DejaVuSans-32"/>
      <use x="202.294922" xlink:href="#DejaVuSans-45"/>
      <use x="238.378906" xlink:href="#DejaVuSans-49"/>
      <use x="302.001953" xlink:href="#DejaVuSans-44"/>
      <use x="333.789062" xlink:href="#DejaVuSans-32"/>
      <use x="365.576172" xlink:href="#DejaVuSans-50"/>
      <use x="429.199219" xlink:href="#DejaVuSans-41"/>
     </g>
    </g>
    <g id="line2d_59">
     <path d="M 126 347.103125 
L 166 347.103125 
" style="fill:none;stroke:#3700ff;stroke-linecap:square;stroke-width:2;"/>
    </g>
    <g id="line2d_60"/>
    <g id="text_25">
     <!-- (0, 0, -2) -->
     <g transform="translate(182 354.103125)scale(0.2 -0.2)">
      <use xlink:href="#DejaVuSans-40"/>
      <use x="39.013672" xlink:href="#DejaVuSans-48"/>
      <use x="102.636719" xlink:href="#DejaVuSans-44"/>
      <use x="134.423828" xlink:href="#DejaVuSans-32"/>
      <use x="166.210938" xlink:href="#DejaVuSans-48"/>
      <use x="229.833984" xlink:href="#DejaVuSans-44"/>
      <use x="261.621094" xlink:href="#DejaVuSans-32"/>
      <use x="293.408203" xlink:href="#DejaVuSans-45"/>
      <use x="329.492188" xlink:href="#DejaVuSans-50"/>
      <use x="393.115234" xlink:href="#DejaVuSans-41"/>
     </g>
    </g>
    <g id="line2d_61">
     <path d="M 126 376.459375 
L 166 376.459375 
" style="fill:none;stroke:#a700ff;stroke-linecap:square;stroke-width:2;"/>
    </g>
    <g id="line2d_62"/>
    <g id="text_26">
     <!-- (0, 0, 2) -->
     <g transform="translate(182 383.459375)scale(0.2 -0.2)">
      <use xlink:href="#DejaVuSans-40"/>
      <use x="39.013672" xlink:href="#DejaVuSans-48"/>
      <use x="102.636719" xlink:href="#DejaVuSans-44"/>
      <use x="134.423828" xlink:href="#DejaVuSans-32"/>
      <use x="166.210938" xlink:href="#DejaVuSans-48"/>
      <use x="229.833984" xlink:href="#DejaVuSans-44"/>
      <use x="261.621094" xlink:href="#DejaVuSans-32"/>
      <use x="293.408203" xlink:href="#DejaVuSans-50"/>
      <use x="357.03125" xlink:href="#DejaVuSans-41"/>
     </g>
    </g>
    <g id="line2d_63">
     <path d="M 126 405.815625 
L 166 405.815625 
" style="fill:none;stroke:#ff00ed;stroke-linecap:square;stroke-width:2;"/>
    </g>
    <g id="line2d_64"/>
    <g id="text_27">
     <!-- (4, 1, -1) -->
     <g transform="translate(182 412.815625)scale(0.2 -0.2)">
      <use xlink:href="#DejaVuSans-40"/>
      <use x="39.013672" xlink:href="#DejaVuSans-52"/>
      <use x="102.636719" xlink:href="#DejaVuSans-44"/>
      <use x="134.423828" xlink:href="#DejaVuSans-32"/>
      <use x="166.210938" xlink:href="#DejaVuSans-49"/>
      <use x="229.833984" xlink:href="#DejaVuSans-44"/>
      <use x="261.621094" xlink:href="#DejaVuSans-32"/>
      <use x="293.408203" xlink:href="#DejaVuSans-45"/>
      <use x="329.492188" xlink:href="#DejaVuSans-49"/>
      <use x="393.115234" xlink:href="#DejaVuSans-41"/>
     </g>
    </g>
    <g id="line2d_65">
     <path d="M 126 435.171875 
L 166 435.171875 
" style="fill:none;stroke:#ff0082;stroke-linecap:square;stroke-width:2;"/>
    </g>
    <g id="line2d_66"/>
    <g id="text_28">
     <!-- (7, 1, 0) -->
     <g transform="translate(182 442.171875)scale(0.2 -0.2)">
      <use xlink:href="#DejaVuSans-40"/>
      <use x="39.013672" xlink:href="#DejaVuSans-55"/>
      <use x="102.636719" xlink:href="#DejaVuSans-44"/>
      <use x="134.423828" xlink:href="#DejaVuSans-32"/>
      <use x="166.210938" xlink:href="#DejaVuSans-49"/>
      <use x="229.833984" xlink:href="#DejaVuSans-44"/>
      <use x="261.621094" xlink:href="#DejaVuSans-32"/>
      <use x="293.408203" xlink:href="#DejaVuSans-48"/>
      <use x="357.03125" xlink:href="#DejaVuSans-41"/>
     </g>
    </g>
    <g id="line2d_67">
     <path d="M 126 464.528125 
L 166 464.528125 
" style="fill:none;stroke:#ff0018;stroke-linecap:square;stroke-width:2;"/>
    </g>
    <g id="line2d_68"/>
    <g id="text_29">
     <!-- (8, 1, 0) -->
     <g transform="translate(182 471.528125)scale(0.2 -0.2)">
      <use xlink:href="#DejaVuSans-40"/>
      <use x="39.013672" xlink:href="#DejaVuSans-56"/>
      <use x="102.636719" xlink:href="#DejaVuSans-44"/>
      <use x="134.423828" xlink:href="#DejaVuSans-32"/>
      <use x="166.210938" xlink:href="#DejaVuSans-49"/>
      <use x="229.833984" xlink:href="#DejaVuSans-44"/>
      <use x="261.621094" xlink:href="#DejaVuSans-32"/>
      <use x="293.408203" xlink:href="#DejaVuSans-48"/>
      <use x="357.03125" xlink:href="#DejaVuSans-41"/>
     </g>
    </g>
   </g>
  </g>
 </g>
 <defs>
  <clipPath id="p8a0db6f11d">
   <rect height="664.2" width="590.4" x="108" y="56.7"/>
  </clipPath>
 </defs>
</svg>
