<?xml version="1.0" encoding="utf-8" standalone="no"?>
<!DOCTYPE svg PUBLIC "-//W3C//DTD SVG 1.1//EN"
  "http://www.w3.org/Graphics/SVG/1.1/DTD/svg11.dtd">
<!-- Created with matplotlib (https://matplotlib.org/) -->
<svg height="810pt" version="1.1" viewBox="0 0 720 810" width="720pt" xmlns="http://www.w3.org/2000/svg" xmlns:xlink="http://www.w3.org/1999/xlink">
 <metadata>
  <rdf:RDF xmlns:cc="http://creativecommons.org/ns#" xmlns:dc="http://purl.org/dc/elements/1.1/" xmlns:rdf="http://www.w3.org/1999/02/22-rdf-syntax-ns#">
   <cc:Work>
    <dc:type rdf:resource="http://purl.org/dc/dcmitype/StillImage"/>
    <dc:date>2021-07-14T13:37:21.296806</dc:date>
    <dc:format>image/svg+xml</dc:format>
    <dc:creator>
     <cc:Agent>
      <dc:title>Matplotlib v3.3.1, https://matplotlib.org/</dc:title>
     </cc:Agent>
    </dc:creator>
   </cc:Work>
  </rdf:RDF>
 </metadata>
 <defs>
  <style type="text/css">*{stroke-linecap:butt;stroke-linejoin:round;}</style>
 </defs>
 <g id="figure_1">
  <g id="patch_1">
   <path d="M 0 810 
L 720 810 
L 720 0 
L 0 0 
z
" style="fill:#ffffff;"/>
  </g>
  <g id="axes_1">
   <g id="patch_2">
    <path d="M 108 720.9 
L 698.4 720.9 
L 698.4 56.7 
L 108 56.7 
z
" style="fill:#ffffff;"/>
   </g>
   <g id="matplotlib.axis_1">
    <g id="xtick_1">
     <g id="line2d_1">
      <path clip-path="url(#p1200917928)" d="M 124.380638 720.9 
L 124.380638 56.7 
" style="fill:none;stroke:#e6e6e6;stroke-linecap:square;stroke-width:0.8;"/>
     </g>
     <g id="line2d_2">
      <defs>
       <path d="M 0 0 
L 0 3.5 
" id="m5a60e24bfd" style="stroke:#000000;stroke-width:0.8;"/>
      </defs>
      <g>
       <use style="stroke:#000000;stroke-width:0.8;" x="124.380638" xlink:href="#m5a60e24bfd" y="720.9"/>
      </g>
     </g>
     <g id="text_1">
      <!-- 0 -->
      <g transform="translate(119.608763 739.297656)scale(0.15 -0.15)">
       <defs>
        <path d="M 31.78125 66.40625 
Q 24.171875 66.40625 20.328125 58.90625 
Q 16.5 51.421875 16.5 36.375 
Q 16.5 21.390625 20.328125 13.890625 
Q 24.171875 6.390625 31.78125 6.390625 
Q 39.453125 6.390625 43.28125 13.890625 
Q 47.125 21.390625 47.125 36.375 
Q 47.125 51.421875 43.28125 58.90625 
Q 39.453125 66.40625 31.78125 66.40625 
z
M 31.78125 74.21875 
Q 44.046875 74.21875 50.515625 64.515625 
Q 56.984375 54.828125 56.984375 36.375 
Q 56.984375 17.96875 50.515625 8.265625 
Q 44.046875 -1.421875 31.78125 -1.421875 
Q 19.53125 -1.421875 13.0625 8.265625 
Q 6.59375 17.96875 6.59375 36.375 
Q 6.59375 54.828125 13.0625 64.515625 
Q 19.53125 74.21875 31.78125 74.21875 
z
" id="DejaVuSans-48"/>
       </defs>
       <use xlink:href="#DejaVuSans-48"/>
      </g>
     </g>
    </g>
    <g id="xtick_2">
     <g id="line2d_3">
      <path clip-path="url(#p1200917928)" d="M 211.511688 720.9 
L 211.511688 56.7 
" style="fill:none;stroke:#e6e6e6;stroke-linecap:square;stroke-width:0.8;"/>
     </g>
     <g id="line2d_4">
      <g>
       <use style="stroke:#000000;stroke-width:0.8;" x="211.511688" xlink:href="#m5a60e24bfd" y="720.9"/>
      </g>
     </g>
     <g id="text_2">
      <!-- 5 -->
      <g transform="translate(206.739813 739.297656)scale(0.15 -0.15)">
       <defs>
        <path d="M 10.796875 72.90625 
L 49.515625 72.90625 
L 49.515625 64.59375 
L 19.828125 64.59375 
L 19.828125 46.734375 
Q 21.96875 47.46875 24.109375 47.828125 
Q 26.265625 48.1875 28.421875 48.1875 
Q 40.625 48.1875 47.75 41.5 
Q 54.890625 34.8125 54.890625 23.390625 
Q 54.890625 11.625 47.5625 5.09375 
Q 40.234375 -1.421875 26.90625 -1.421875 
Q 22.3125 -1.421875 17.546875 -0.640625 
Q 12.796875 0.140625 7.71875 1.703125 
L 7.71875 11.625 
Q 12.109375 9.234375 16.796875 8.0625 
Q 21.484375 6.890625 26.703125 6.890625 
Q 35.15625 6.890625 40.078125 11.328125 
Q 45.015625 15.765625 45.015625 23.390625 
Q 45.015625 31 40.078125 35.4375 
Q 35.15625 39.890625 26.703125 39.890625 
Q 22.75 39.890625 18.8125 39.015625 
Q 14.890625 38.140625 10.796875 36.28125 
z
" id="DejaVuSans-53"/>
       </defs>
       <use xlink:href="#DejaVuSans-53"/>
      </g>
     </g>
    </g>
    <g id="xtick_3">
     <g id="line2d_5">
      <path clip-path="url(#p1200917928)" d="M 298.642739 720.9 
L 298.642739 56.7 
" style="fill:none;stroke:#e6e6e6;stroke-linecap:square;stroke-width:0.8;"/>
     </g>
     <g id="line2d_6">
      <g>
       <use style="stroke:#000000;stroke-width:0.8;" x="298.642739" xlink:href="#m5a60e24bfd" y="720.9"/>
      </g>
     </g>
     <g id="text_3">
      <!-- 10 -->
      <g transform="translate(289.098989 739.297656)scale(0.15 -0.15)">
       <defs>
        <path d="M 12.40625 8.296875 
L 28.515625 8.296875 
L 28.515625 63.921875 
L 10.984375 60.40625 
L 10.984375 69.390625 
L 28.421875 72.90625 
L 38.28125 72.90625 
L 38.28125 8.296875 
L 54.390625 8.296875 
L 54.390625 0 
L 12.40625 0 
z
" id="DejaVuSans-49"/>
       </defs>
       <use xlink:href="#DejaVuSans-49"/>
       <use x="63.623047" xlink:href="#DejaVuSans-48"/>
      </g>
     </g>
    </g>
    <g id="xtick_4">
     <g id="line2d_7">
      <path clip-path="url(#p1200917928)" d="M 385.77379 720.9 
L 385.77379 56.7 
" style="fill:none;stroke:#e6e6e6;stroke-linecap:square;stroke-width:0.8;"/>
     </g>
     <g id="line2d_8">
      <g>
       <use style="stroke:#000000;stroke-width:0.8;" x="385.77379" xlink:href="#m5a60e24bfd" y="720.9"/>
      </g>
     </g>
     <g id="text_4">
      <!-- 15 -->
      <g transform="translate(376.23004 739.297656)scale(0.15 -0.15)">
       <use xlink:href="#DejaVuSans-49"/>
       <use x="63.623047" xlink:href="#DejaVuSans-53"/>
      </g>
     </g>
    </g>
    <g id="xtick_5">
     <g id="line2d_9">
      <path clip-path="url(#p1200917928)" d="M 472.904841 720.9 
L 472.904841 56.7 
" style="fill:none;stroke:#e6e6e6;stroke-linecap:square;stroke-width:0.8;"/>
     </g>
     <g id="line2d_10">
      <g>
       <use style="stroke:#000000;stroke-width:0.8;" x="472.904841" xlink:href="#m5a60e24bfd" y="720.9"/>
      </g>
     </g>
     <g id="text_5">
      <!-- 20 -->
      <g transform="translate(463.361091 739.297656)scale(0.15 -0.15)">
       <defs>
        <path d="M 19.1875 8.296875 
L 53.609375 8.296875 
L 53.609375 0 
L 7.328125 0 
L 7.328125 8.296875 
Q 12.9375 14.109375 22.625 23.890625 
Q 32.328125 33.6875 34.8125 36.53125 
Q 39.546875 41.84375 41.421875 45.53125 
Q 43.3125 49.21875 43.3125 52.78125 
Q 43.3125 58.59375 39.234375 62.25 
Q 35.15625 65.921875 28.609375 65.921875 
Q 23.96875 65.921875 18.8125 64.3125 
Q 13.671875 62.703125 7.8125 59.421875 
L 7.8125 69.390625 
Q 13.765625 71.78125 18.9375 73 
Q 24.125 74.21875 28.421875 74.21875 
Q 39.75 74.21875 46.484375 68.546875 
Q 53.21875 62.890625 53.21875 53.421875 
Q 53.21875 48.921875 51.53125 44.890625 
Q 49.859375 40.875 45.40625 35.40625 
Q 44.1875 33.984375 37.640625 27.21875 
Q 31.109375 20.453125 19.1875 8.296875 
z
" id="DejaVuSans-50"/>
       </defs>
       <use xlink:href="#DejaVuSans-50"/>
       <use x="63.623047" xlink:href="#DejaVuSans-48"/>
      </g>
     </g>
    </g>
    <g id="xtick_6">
     <g id="line2d_11">
      <path clip-path="url(#p1200917928)" d="M 560.035891 720.9 
L 560.035891 56.7 
" style="fill:none;stroke:#e6e6e6;stroke-linecap:square;stroke-width:0.8;"/>
     </g>
     <g id="line2d_12">
      <g>
       <use style="stroke:#000000;stroke-width:0.8;" x="560.035891" xlink:href="#m5a60e24bfd" y="720.9"/>
      </g>
     </g>
     <g id="text_6">
      <!-- 25 -->
      <g transform="translate(550.492141 739.297656)scale(0.15 -0.15)">
       <use xlink:href="#DejaVuSans-50"/>
       <use x="63.623047" xlink:href="#DejaVuSans-53"/>
      </g>
     </g>
    </g>
    <g id="xtick_7">
     <g id="line2d_13">
      <path clip-path="url(#p1200917928)" d="M 647.166942 720.9 
L 647.166942 56.7 
" style="fill:none;stroke:#e6e6e6;stroke-linecap:square;stroke-width:0.8;"/>
     </g>
     <g id="line2d_14">
      <g>
       <use style="stroke:#000000;stroke-width:0.8;" x="647.166942" xlink:href="#m5a60e24bfd" y="720.9"/>
      </g>
     </g>
     <g id="text_7">
      <!-- 30 -->
      <g transform="translate(637.623192 739.297656)scale(0.15 -0.15)">
       <defs>
        <path d="M 40.578125 39.3125 
Q 47.65625 37.796875 51.625 33 
Q 55.609375 28.21875 55.609375 21.1875 
Q 55.609375 10.40625 48.1875 4.484375 
Q 40.765625 -1.421875 27.09375 -1.421875 
Q 22.515625 -1.421875 17.65625 -0.515625 
Q 12.796875 0.390625 7.625 2.203125 
L 7.625 11.71875 
Q 11.71875 9.328125 16.59375 8.109375 
Q 21.484375 6.890625 26.8125 6.890625 
Q 36.078125 6.890625 40.9375 10.546875 
Q 45.796875 14.203125 45.796875 21.1875 
Q 45.796875 27.640625 41.28125 31.265625 
Q 36.765625 34.90625 28.71875 34.90625 
L 20.21875 34.90625 
L 20.21875 43.015625 
L 29.109375 43.015625 
Q 36.375 43.015625 40.234375 45.921875 
Q 44.09375 48.828125 44.09375 54.296875 
Q 44.09375 59.90625 40.109375 62.90625 
Q 36.140625 65.921875 28.71875 65.921875 
Q 24.65625 65.921875 20.015625 65.03125 
Q 15.375 64.15625 9.8125 62.3125 
L 9.8125 71.09375 
Q 15.4375 72.65625 20.34375 73.4375 
Q 25.25 74.21875 29.59375 74.21875 
Q 40.828125 74.21875 47.359375 69.109375 
Q 53.90625 64.015625 53.90625 55.328125 
Q 53.90625 49.265625 50.4375 45.09375 
Q 46.96875 40.921875 40.578125 39.3125 
z
" id="DejaVuSans-51"/>
       </defs>
       <use xlink:href="#DejaVuSans-51"/>
       <use x="63.623047" xlink:href="#DejaVuSans-48"/>
      </g>
     </g>
    </g>
    <g id="text_8">
     <!-- frame -->
     <g transform="translate(366.133594 765.413281)scale(0.25 -0.25)">
      <defs>
       <path d="M 37.109375 75.984375 
L 37.109375 68.5 
L 28.515625 68.5 
Q 23.6875 68.5 21.796875 66.546875 
Q 19.921875 64.59375 19.921875 59.515625 
L 19.921875 54.6875 
L 34.71875 54.6875 
L 34.71875 47.703125 
L 19.921875 47.703125 
L 19.921875 0 
L 10.890625 0 
L 10.890625 47.703125 
L 2.296875 47.703125 
L 2.296875 54.6875 
L 10.890625 54.6875 
L 10.890625 58.5 
Q 10.890625 67.625 15.140625 71.796875 
Q 19.390625 75.984375 28.609375 75.984375 
z
" id="DejaVuSans-102"/>
       <path d="M 41.109375 46.296875 
Q 39.59375 47.171875 37.8125 47.578125 
Q 36.03125 48 33.890625 48 
Q 26.265625 48 22.1875 43.046875 
Q 18.109375 38.09375 18.109375 28.8125 
L 18.109375 0 
L 9.078125 0 
L 9.078125 54.6875 
L 18.109375 54.6875 
L 18.109375 46.1875 
Q 20.953125 51.171875 25.484375 53.578125 
Q 30.03125 56 36.53125 56 
Q 37.453125 56 38.578125 55.875 
Q 39.703125 55.765625 41.0625 55.515625 
z
" id="DejaVuSans-114"/>
       <path d="M 34.28125 27.484375 
Q 23.390625 27.484375 19.1875 25 
Q 14.984375 22.515625 14.984375 16.5 
Q 14.984375 11.71875 18.140625 8.90625 
Q 21.296875 6.109375 26.703125 6.109375 
Q 34.1875 6.109375 38.703125 11.40625 
Q 43.21875 16.703125 43.21875 25.484375 
L 43.21875 27.484375 
z
M 52.203125 31.203125 
L 52.203125 0 
L 43.21875 0 
L 43.21875 8.296875 
Q 40.140625 3.328125 35.546875 0.953125 
Q 30.953125 -1.421875 24.3125 -1.421875 
Q 15.921875 -1.421875 10.953125 3.296875 
Q 6 8.015625 6 15.921875 
Q 6 25.140625 12.171875 29.828125 
Q 18.359375 34.515625 30.609375 34.515625 
L 43.21875 34.515625 
L 43.21875 35.40625 
Q 43.21875 41.609375 39.140625 45 
Q 35.0625 48.390625 27.6875 48.390625 
Q 23 48.390625 18.546875 47.265625 
Q 14.109375 46.140625 10.015625 43.890625 
L 10.015625 52.203125 
Q 14.9375 54.109375 19.578125 55.046875 
Q 24.21875 56 28.609375 56 
Q 40.484375 56 46.34375 49.84375 
Q 52.203125 43.703125 52.203125 31.203125 
z
" id="DejaVuSans-97"/>
       <path d="M 52 44.1875 
Q 55.375 50.25 60.0625 53.125 
Q 64.75 56 71.09375 56 
Q 79.640625 56 84.28125 50.015625 
Q 88.921875 44.046875 88.921875 33.015625 
L 88.921875 0 
L 79.890625 0 
L 79.890625 32.71875 
Q 79.890625 40.578125 77.09375 44.375 
Q 74.3125 48.1875 68.609375 48.1875 
Q 61.625 48.1875 57.5625 43.546875 
Q 53.515625 38.921875 53.515625 30.90625 
L 53.515625 0 
L 44.484375 0 
L 44.484375 32.71875 
Q 44.484375 40.625 41.703125 44.40625 
Q 38.921875 48.1875 33.109375 48.1875 
Q 26.21875 48.1875 22.15625 43.53125 
Q 18.109375 38.875 18.109375 30.90625 
L 18.109375 0 
L 9.078125 0 
L 9.078125 54.6875 
L 18.109375 54.6875 
L 18.109375 46.1875 
Q 21.1875 51.21875 25.484375 53.609375 
Q 29.78125 56 35.6875 56 
Q 41.65625 56 45.828125 52.96875 
Q 50 49.953125 52 44.1875 
z
" id="DejaVuSans-109"/>
       <path d="M 56.203125 29.59375 
L 56.203125 25.203125 
L 14.890625 25.203125 
Q 15.484375 15.921875 20.484375 11.0625 
Q 25.484375 6.203125 34.421875 6.203125 
Q 39.59375 6.203125 44.453125 7.46875 
Q 49.3125 8.734375 54.109375 11.28125 
L 54.109375 2.78125 
Q 49.265625 0.734375 44.1875 -0.34375 
Q 39.109375 -1.421875 33.890625 -1.421875 
Q 20.796875 -1.421875 13.15625 6.1875 
Q 5.515625 13.8125 5.515625 26.8125 
Q 5.515625 40.234375 12.765625 48.109375 
Q 20.015625 56 32.328125 56 
Q 43.359375 56 49.78125 48.890625 
Q 56.203125 41.796875 56.203125 29.59375 
z
M 47.21875 32.234375 
Q 47.125 39.59375 43.09375 43.984375 
Q 39.0625 48.390625 32.421875 48.390625 
Q 24.90625 48.390625 20.390625 44.140625 
Q 15.875 39.890625 15.1875 32.171875 
z
" id="DejaVuSans-101"/>
      </defs>
      <use xlink:href="#DejaVuSans-102"/>
      <use x="35.205078" xlink:href="#DejaVuSans-114"/>
      <use x="76.318359" xlink:href="#DejaVuSans-97"/>
      <use x="137.597656" xlink:href="#DejaVuSans-109"/>
      <use x="235.009766" xlink:href="#DejaVuSans-101"/>
     </g>
    </g>
   </g>
   <g id="matplotlib.axis_2">
    <g id="ytick_1">
     <g id="line2d_15">
      <path clip-path="url(#p1200917928)" d="M 108 663.26281 
L 698.4 663.26281 
" style="fill:none;stroke:#e6e6e6;stroke-linecap:square;stroke-width:0.8;"/>
     </g>
     <g id="line2d_16">
      <defs>
       <path d="M 0 0 
L -3.5 0 
" id="m95f7ae0514" style="stroke:#000000;stroke-width:0.8;"/>
      </defs>
      <g>
       <use style="stroke:#000000;stroke-width:0.8;" x="108" xlink:href="#m95f7ae0514" y="663.26281"/>
      </g>
     </g>
     <g id="text_9">
      <!-- 0 -->
      <g transform="translate(91.45625 668.961638)scale(0.15 -0.15)">
       <use xlink:href="#DejaVuSans-48"/>
      </g>
     </g>
    </g>
    <g id="ytick_2">
     <g id="line2d_17">
      <path clip-path="url(#p1200917928)" d="M 108 588.968013 
L 698.4 588.968013 
" style="fill:none;stroke:#e6e6e6;stroke-linecap:square;stroke-width:0.8;"/>
     </g>
     <g id="line2d_18">
      <g>
       <use style="stroke:#000000;stroke-width:0.8;" x="108" xlink:href="#m95f7ae0514" y="588.968013"/>
      </g>
     </g>
     <g id="text_10">
      <!-- 500 -->
      <g transform="translate(72.36875 594.666841)scale(0.15 -0.15)">
       <use xlink:href="#DejaVuSans-53"/>
       <use x="63.623047" xlink:href="#DejaVuSans-48"/>
       <use x="127.246094" xlink:href="#DejaVuSans-48"/>
      </g>
     </g>
    </g>
    <g id="ytick_3">
     <g id="line2d_19">
      <path clip-path="url(#p1200917928)" d="M 108 514.673216 
L 698.4 514.673216 
" style="fill:none;stroke:#e6e6e6;stroke-linecap:square;stroke-width:0.8;"/>
     </g>
     <g id="line2d_20">
      <g>
       <use style="stroke:#000000;stroke-width:0.8;" x="108" xlink:href="#m95f7ae0514" y="514.673216"/>
      </g>
     </g>
     <g id="text_11">
      <!-- 1000 -->
      <g transform="translate(62.825 520.372045)scale(0.15 -0.15)">
       <use xlink:href="#DejaVuSans-49"/>
       <use x="63.623047" xlink:href="#DejaVuSans-48"/>
       <use x="127.246094" xlink:href="#DejaVuSans-48"/>
       <use x="190.869141" xlink:href="#DejaVuSans-48"/>
      </g>
     </g>
    </g>
    <g id="ytick_4">
     <g id="line2d_21">
      <path clip-path="url(#p1200917928)" d="M 108 440.37842 
L 698.4 440.37842 
" style="fill:none;stroke:#e6e6e6;stroke-linecap:square;stroke-width:0.8;"/>
     </g>
     <g id="line2d_22">
      <g>
       <use style="stroke:#000000;stroke-width:0.8;" x="108" xlink:href="#m95f7ae0514" y="440.37842"/>
      </g>
     </g>
     <g id="text_12">
      <!-- 1500 -->
      <g transform="translate(62.825 446.077248)scale(0.15 -0.15)">
       <use xlink:href="#DejaVuSans-49"/>
       <use x="63.623047" xlink:href="#DejaVuSans-53"/>
       <use x="127.246094" xlink:href="#DejaVuSans-48"/>
       <use x="190.869141" xlink:href="#DejaVuSans-48"/>
      </g>
     </g>
    </g>
    <g id="ytick_5">
     <g id="line2d_23">
      <path clip-path="url(#p1200917928)" d="M 108 366.083623 
L 698.4 366.083623 
" style="fill:none;stroke:#e6e6e6;stroke-linecap:square;stroke-width:0.8;"/>
     </g>
     <g id="line2d_24">
      <g>
       <use style="stroke:#000000;stroke-width:0.8;" x="108" xlink:href="#m95f7ae0514" y="366.083623"/>
      </g>
     </g>
     <g id="text_13">
      <!-- 2000 -->
      <g transform="translate(62.825 371.782451)scale(0.15 -0.15)">
       <use xlink:href="#DejaVuSans-50"/>
       <use x="63.623047" xlink:href="#DejaVuSans-48"/>
       <use x="127.246094" xlink:href="#DejaVuSans-48"/>
       <use x="190.869141" xlink:href="#DejaVuSans-48"/>
      </g>
     </g>
    </g>
    <g id="ytick_6">
     <g id="line2d_25">
      <path clip-path="url(#p1200917928)" d="M 108 291.788826 
L 698.4 291.788826 
" style="fill:none;stroke:#e6e6e6;stroke-linecap:square;stroke-width:0.8;"/>
     </g>
     <g id="line2d_26">
      <g>
       <use style="stroke:#000000;stroke-width:0.8;" x="108" xlink:href="#m95f7ae0514" y="291.788826"/>
      </g>
     </g>
     <g id="text_14">
      <!-- 2500 -->
      <g transform="translate(62.825 297.487654)scale(0.15 -0.15)">
       <use xlink:href="#DejaVuSans-50"/>
       <use x="63.623047" xlink:href="#DejaVuSans-53"/>
       <use x="127.246094" xlink:href="#DejaVuSans-48"/>
       <use x="190.869141" xlink:href="#DejaVuSans-48"/>
      </g>
     </g>
    </g>
    <g id="ytick_7">
     <g id="line2d_27">
      <path clip-path="url(#p1200917928)" d="M 108 217.494029 
L 698.4 217.494029 
" style="fill:none;stroke:#e6e6e6;stroke-linecap:square;stroke-width:0.8;"/>
     </g>
     <g id="line2d_28">
      <g>
       <use style="stroke:#000000;stroke-width:0.8;" x="108" xlink:href="#m95f7ae0514" y="217.494029"/>
      </g>
     </g>
     <g id="text_15">
      <!-- 3000 -->
      <g transform="translate(62.825 223.192858)scale(0.15 -0.15)">
       <use xlink:href="#DejaVuSans-51"/>
       <use x="63.623047" xlink:href="#DejaVuSans-48"/>
       <use x="127.246094" xlink:href="#DejaVuSans-48"/>
       <use x="190.869141" xlink:href="#DejaVuSans-48"/>
      </g>
     </g>
    </g>
    <g id="ytick_8">
     <g id="line2d_29">
      <path clip-path="url(#p1200917928)" d="M 108 143.199233 
L 698.4 143.199233 
" style="fill:none;stroke:#e6e6e6;stroke-linecap:square;stroke-width:0.8;"/>
     </g>
     <g id="line2d_30">
      <g>
       <use style="stroke:#000000;stroke-width:0.8;" x="108" xlink:href="#m95f7ae0514" y="143.199233"/>
      </g>
     </g>
     <g id="text_16">
      <!-- 3500 -->
      <g transform="translate(62.825 148.898061)scale(0.15 -0.15)">
       <use xlink:href="#DejaVuSans-51"/>
       <use x="63.623047" xlink:href="#DejaVuSans-53"/>
       <use x="127.246094" xlink:href="#DejaVuSans-48"/>
       <use x="190.869141" xlink:href="#DejaVuSans-48"/>
      </g>
     </g>
    </g>
    <g id="ytick_9">
     <g id="line2d_31">
      <path clip-path="url(#p1200917928)" d="M 108 68.904436 
L 698.4 68.904436 
" style="fill:none;stroke:#e6e6e6;stroke-linecap:square;stroke-width:0.8;"/>
     </g>
     <g id="line2d_32">
      <g>
       <use style="stroke:#000000;stroke-width:0.8;" x="108" xlink:href="#m95f7ae0514" y="68.904436"/>
      </g>
     </g>
     <g id="text_17">
      <!-- 4000 -->
      <g transform="translate(62.825 74.603264)scale(0.15 -0.15)">
       <defs>
        <path d="M 37.796875 64.3125 
L 12.890625 25.390625 
L 37.796875 25.390625 
z
M 35.203125 72.90625 
L 47.609375 72.90625 
L 47.609375 25.390625 
L 58.015625 25.390625 
L 58.015625 17.1875 
L 47.609375 17.1875 
L 47.609375 0 
L 37.796875 0 
L 37.796875 17.1875 
L 4.890625 17.1875 
L 4.890625 26.703125 
z
" id="DejaVuSans-52"/>
       </defs>
       <use xlink:href="#DejaVuSans-52"/>
       <use x="63.623047" xlink:href="#DejaVuSans-48"/>
       <use x="127.246094" xlink:href="#DejaVuSans-48"/>
       <use x="190.869141" xlink:href="#DejaVuSans-48"/>
      </g>
     </g>
    </g>
    <g id="text_18">
     <!-- $I$ -->
     <g transform="translate(53.625781 392.55)rotate(-90)scale(0.25 -0.25)">
      <defs>
       <path d="M 16.890625 72.90625 
L 26.8125 72.90625 
L 12.59375 0 
L 2.6875 0 
z
" id="DejaVuSans-Oblique-73"/>
      </defs>
      <use transform="translate(0 0.09375)" xlink:href="#DejaVuSans-Oblique-73"/>
     </g>
    </g>
   </g>
   <g id="line2d_33">
    <path clip-path="url(#p1200917928)" d="M 159.233058 663.26281 
L 176.659268 663.26281 
L 194.085478 662.521348 
L 211.511688 662.149874 
L 228.937898 661.976024 
L 246.364109 661.767999 
L 263.790319 657.539139 
L 281.216529 595.248895 
L 298.642739 540.888878 
L 316.068949 560.832574 
L 333.495159 642.154172 
L 350.92137 660.368285 
L 368.34758 662.231598 
L 385.77379 662.613473 
L 403.2 663.26281 
L 420.62621 663.26281 
L 438.05242 663.26281 
L 455.47863 662.539179 
L 472.904841 663.26281 
L 490.331051 663.26281 
L 507.757261 663.26281 
L 525.183471 663.26281 
L 542.609681 663.26281 
L 560.035891 663.26281 
L 577.462102 663.26281 
L 594.888312 663.26281 
L 612.314522 663.26281 
L 629.740732 663.26281 
L 647.166942 663.26281 
" style="fill:none;stroke:#fcf500;stroke-linecap:square;stroke-width:2;"/>
    <defs>
     <path d="M 0 2.5 
C 0.663008 2.5 1.29895 2.236584 1.767767 1.767767 
C 2.236584 1.29895 2.5 0.663008 2.5 0 
C 2.5 -0.663008 2.236584 -1.29895 1.767767 -1.767767 
C 1.29895 -2.236584 0.663008 -2.5 0 -2.5 
C -0.663008 -2.5 -1.29895 -2.236584 -1.767767 -1.767767 
C -2.236584 -1.29895 -2.5 -0.663008 -2.5 0 
C -2.5 0.663008 -2.236584 1.29895 -1.767767 1.767767 
C -1.29895 2.236584 -0.663008 2.5 0 2.5 
z
" id="ma4a8994a5c" style="stroke:#fcf500;"/>
    </defs>
    <g clip-path="url(#p1200917928)">
     <use style="fill:#fcf500;stroke:#fcf500;" x="159.233058" xlink:href="#ma4a8994a5c" y="663.26281"/>
     <use style="fill:#fcf500;stroke:#fcf500;" x="176.659268" xlink:href="#ma4a8994a5c" y="663.26281"/>
     <use style="fill:#fcf500;stroke:#fcf500;" x="194.085478" xlink:href="#ma4a8994a5c" y="662.521348"/>
     <use style="fill:#fcf500;stroke:#fcf500;" x="211.511688" xlink:href="#ma4a8994a5c" y="662.149874"/>
     <use style="fill:#fcf500;stroke:#fcf500;" x="228.937898" xlink:href="#ma4a8994a5c" y="661.976024"/>
     <use style="fill:#fcf500;stroke:#fcf500;" x="246.364109" xlink:href="#ma4a8994a5c" y="661.767999"/>
     <use style="fill:#fcf500;stroke:#fcf500;" x="263.790319" xlink:href="#ma4a8994a5c" y="657.539139"/>
     <use style="fill:#fcf500;stroke:#fcf500;" x="281.216529" xlink:href="#ma4a8994a5c" y="595.248895"/>
     <use style="fill:#fcf500;stroke:#fcf500;" x="298.642739" xlink:href="#ma4a8994a5c" y="540.888878"/>
     <use style="fill:#fcf500;stroke:#fcf500;" x="316.068949" xlink:href="#ma4a8994a5c" y="560.832574"/>
     <use style="fill:#fcf500;stroke:#fcf500;" x="333.495159" xlink:href="#ma4a8994a5c" y="642.154172"/>
     <use style="fill:#fcf500;stroke:#fcf500;" x="350.92137" xlink:href="#ma4a8994a5c" y="660.368285"/>
     <use style="fill:#fcf500;stroke:#fcf500;" x="368.34758" xlink:href="#ma4a8994a5c" y="662.231598"/>
     <use style="fill:#fcf500;stroke:#fcf500;" x="385.77379" xlink:href="#ma4a8994a5c" y="662.613473"/>
     <use style="fill:#fcf500;stroke:#fcf500;" x="403.2" xlink:href="#ma4a8994a5c" y="663.26281"/>
     <use style="fill:#fcf500;stroke:#fcf500;" x="420.62621" xlink:href="#ma4a8994a5c" y="663.26281"/>
     <use style="fill:#fcf500;stroke:#fcf500;" x="438.05242" xlink:href="#ma4a8994a5c" y="663.26281"/>
     <use style="fill:#fcf500;stroke:#fcf500;" x="455.47863" xlink:href="#ma4a8994a5c" y="662.539179"/>
     <use style="fill:#fcf500;stroke:#fcf500;" x="472.904841" xlink:href="#ma4a8994a5c" y="663.26281"/>
     <use style="fill:#fcf500;stroke:#fcf500;" x="490.331051" xlink:href="#ma4a8994a5c" y="663.26281"/>
     <use style="fill:#fcf500;stroke:#fcf500;" x="507.757261" xlink:href="#ma4a8994a5c" y="663.26281"/>
     <use style="fill:#fcf500;stroke:#fcf500;" x="525.183471" xlink:href="#ma4a8994a5c" y="663.26281"/>
     <use style="fill:#fcf500;stroke:#fcf500;" x="542.609681" xlink:href="#ma4a8994a5c" y="663.26281"/>
     <use style="fill:#fcf500;stroke:#fcf500;" x="560.035891" xlink:href="#ma4a8994a5c" y="663.26281"/>
     <use style="fill:#fcf500;stroke:#fcf500;" x="577.462102" xlink:href="#ma4a8994a5c" y="663.26281"/>
     <use style="fill:#fcf500;stroke:#fcf500;" x="594.888312" xlink:href="#ma4a8994a5c" y="663.26281"/>
     <use style="fill:#fcf500;stroke:#fcf500;" x="612.314522" xlink:href="#ma4a8994a5c" y="663.26281"/>
     <use style="fill:#fcf500;stroke:#fcf500;" x="629.740732" xlink:href="#ma4a8994a5c" y="663.26281"/>
     <use style="fill:#fcf500;stroke:#fcf500;" x="647.166942" xlink:href="#ma4a8994a5c" y="663.26281"/>
    </g>
   </g>
   <g id="line2d_34">
    <path clip-path="url(#p1200917928)" d="M 159.233058 663.26281 
L 176.659268 663.26281 
L 194.085478 663.26281 
L 211.511688 663.26281 
L 228.937898 662.51689 
L 246.364109 662.088952 
L 263.790319 660.958185 
L 281.216529 631.084248 
L 298.642739 582.743595 
L 316.068949 608.8389 
L 333.495159 658.546576 
L 350.92137 660.111225 
L 368.34758 662.510947 
L 385.77379 663.26281 
L 403.2 663.26281 
L 420.62621 662.652107 
L 438.05242 663.26281 
L 455.47863 663.26281 
L 472.904841 663.26281 
L 490.331051 663.26281 
L 507.757261 663.26281 
L 525.183471 663.26281 
L 542.609681 663.26281 
L 560.035891 663.26281 
L 577.462102 663.26281 
L 594.888312 663.26281 
L 612.314522 663.26281 
L 629.740732 663.26281 
L 647.166942 663.26281 
" style="fill:none;stroke:#08ff00;stroke-linecap:square;stroke-width:2;"/>
    <defs>
     <path d="M 0 2.5 
C 0.663008 2.5 1.29895 2.236584 1.767767 1.767767 
C 2.236584 1.29895 2.5 0.663008 2.5 0 
C 2.5 -0.663008 2.236584 -1.29895 1.767767 -1.767767 
C 1.29895 -2.236584 0.663008 -2.5 0 -2.5 
C -0.663008 -2.5 -1.29895 -2.236584 -1.767767 -1.767767 
C -2.236584 -1.29895 -2.5 -0.663008 -2.5 0 
C -2.5 0.663008 -2.236584 1.29895 -1.767767 1.767767 
C -1.29895 2.236584 -0.663008 2.5 0 2.5 
z
" id="m54785aa6b1" style="stroke:#08ff00;"/>
    </defs>
    <g clip-path="url(#p1200917928)">
     <use style="fill:#08ff00;stroke:#08ff00;" x="159.233058" xlink:href="#m54785aa6b1" y="663.26281"/>
     <use style="fill:#08ff00;stroke:#08ff00;" x="176.659268" xlink:href="#m54785aa6b1" y="663.26281"/>
     <use style="fill:#08ff00;stroke:#08ff00;" x="194.085478" xlink:href="#m54785aa6b1" y="663.26281"/>
     <use style="fill:#08ff00;stroke:#08ff00;" x="211.511688" xlink:href="#m54785aa6b1" y="663.26281"/>
     <use style="fill:#08ff00;stroke:#08ff00;" x="228.937898" xlink:href="#m54785aa6b1" y="662.51689"/>
     <use style="fill:#08ff00;stroke:#08ff00;" x="246.364109" xlink:href="#m54785aa6b1" y="662.088952"/>
     <use style="fill:#08ff00;stroke:#08ff00;" x="263.790319" xlink:href="#m54785aa6b1" y="660.958185"/>
     <use style="fill:#08ff00;stroke:#08ff00;" x="281.216529" xlink:href="#m54785aa6b1" y="631.084248"/>
     <use style="fill:#08ff00;stroke:#08ff00;" x="298.642739" xlink:href="#m54785aa6b1" y="582.743595"/>
     <use style="fill:#08ff00;stroke:#08ff00;" x="316.068949" xlink:href="#m54785aa6b1" y="608.8389"/>
     <use style="fill:#08ff00;stroke:#08ff00;" x="333.495159" xlink:href="#m54785aa6b1" y="658.546576"/>
     <use style="fill:#08ff00;stroke:#08ff00;" x="350.92137" xlink:href="#m54785aa6b1" y="660.111225"/>
     <use style="fill:#08ff00;stroke:#08ff00;" x="368.34758" xlink:href="#m54785aa6b1" y="662.510947"/>
     <use style="fill:#08ff00;stroke:#08ff00;" x="385.77379" xlink:href="#m54785aa6b1" y="663.26281"/>
     <use style="fill:#08ff00;stroke:#08ff00;" x="403.2" xlink:href="#m54785aa6b1" y="663.26281"/>
     <use style="fill:#08ff00;stroke:#08ff00;" x="420.62621" xlink:href="#m54785aa6b1" y="662.652107"/>
     <use style="fill:#08ff00;stroke:#08ff00;" x="438.05242" xlink:href="#m54785aa6b1" y="663.26281"/>
     <use style="fill:#08ff00;stroke:#08ff00;" x="455.47863" xlink:href="#m54785aa6b1" y="663.26281"/>
     <use style="fill:#08ff00;stroke:#08ff00;" x="472.904841" xlink:href="#m54785aa6b1" y="663.26281"/>
     <use style="fill:#08ff00;stroke:#08ff00;" x="490.331051" xlink:href="#m54785aa6b1" y="663.26281"/>
     <use style="fill:#08ff00;stroke:#08ff00;" x="507.757261" xlink:href="#m54785aa6b1" y="663.26281"/>
     <use style="fill:#08ff00;stroke:#08ff00;" x="525.183471" xlink:href="#m54785aa6b1" y="663.26281"/>
     <use style="fill:#08ff00;stroke:#08ff00;" x="542.609681" xlink:href="#m54785aa6b1" y="663.26281"/>
     <use style="fill:#08ff00;stroke:#08ff00;" x="560.035891" xlink:href="#m54785aa6b1" y="663.26281"/>
     <use style="fill:#08ff00;stroke:#08ff00;" x="577.462102" xlink:href="#m54785aa6b1" y="663.26281"/>
     <use style="fill:#08ff00;stroke:#08ff00;" x="594.888312" xlink:href="#m54785aa6b1" y="663.26281"/>
     <use style="fill:#08ff00;stroke:#08ff00;" x="612.314522" xlink:href="#m54785aa6b1" y="663.26281"/>
     <use style="fill:#08ff00;stroke:#08ff00;" x="629.740732" xlink:href="#m54785aa6b1" y="663.26281"/>
     <use style="fill:#08ff00;stroke:#08ff00;" x="647.166942" xlink:href="#m54785aa6b1" y="663.26281"/>
    </g>
   </g>
   <g id="line2d_35">
    <path clip-path="url(#p1200917928)" d="M 159.233058 659.227117 
L 176.659268 661.63724 
L 194.085478 661.503509 
L 211.511688 660.656548 
L 228.937898 652.335531 
L 246.364109 634.470604 
L 263.790319 546.400066 
L 281.216529 555.973694 
L 298.642739 536.397015 
L 316.068949 618.164382 
L 333.495159 657.528738 
L 350.92137 661.663986 
L 368.34758 662.482715 
L 385.77379 662.717486 
L 403.2 662.420307 
L 420.62621 663.26281 
L 438.05242 663.26281 
L 455.47863 663.26281 
L 472.904841 663.26281 
L 490.331051 663.26281 
L 507.757261 663.26281 
L 525.183471 663.26281 
L 542.609681 663.26281 
L 560.035891 663.26281 
L 577.462102 663.26281 
L 594.888312 663.26281 
L 612.314522 663.26281 
L 629.740732 663.26281 
L 647.166942 663.26281 
" style="fill:none;stroke:#00fff6;stroke-linecap:square;stroke-width:2;"/>
    <defs>
     <path d="M 0 2.5 
C 0.663008 2.5 1.29895 2.236584 1.767767 1.767767 
C 2.236584 1.29895 2.5 0.663008 2.5 0 
C 2.5 -0.663008 2.236584 -1.29895 1.767767 -1.767767 
C 1.29895 -2.236584 0.663008 -2.5 0 -2.5 
C -0.663008 -2.5 -1.29895 -2.236584 -1.767767 -1.767767 
C -2.236584 -1.29895 -2.5 -0.663008 -2.5 0 
C -2.5 0.663008 -2.236584 1.29895 -1.767767 1.767767 
C -1.29895 2.236584 -0.663008 2.5 0 2.5 
z
" id="m628ed1ee1c" style="stroke:#00fff6;"/>
    </defs>
    <g clip-path="url(#p1200917928)">
     <use style="fill:#00fff6;stroke:#00fff6;" x="159.233058" xlink:href="#m628ed1ee1c" y="659.227117"/>
     <use style="fill:#00fff6;stroke:#00fff6;" x="176.659268" xlink:href="#m628ed1ee1c" y="661.63724"/>
     <use style="fill:#00fff6;stroke:#00fff6;" x="194.085478" xlink:href="#m628ed1ee1c" y="661.503509"/>
     <use style="fill:#00fff6;stroke:#00fff6;" x="211.511688" xlink:href="#m628ed1ee1c" y="660.656548"/>
     <use style="fill:#00fff6;stroke:#00fff6;" x="228.937898" xlink:href="#m628ed1ee1c" y="652.335531"/>
     <use style="fill:#00fff6;stroke:#00fff6;" x="246.364109" xlink:href="#m628ed1ee1c" y="634.470604"/>
     <use style="fill:#00fff6;stroke:#00fff6;" x="263.790319" xlink:href="#m628ed1ee1c" y="546.400066"/>
     <use style="fill:#00fff6;stroke:#00fff6;" x="281.216529" xlink:href="#m628ed1ee1c" y="555.973694"/>
     <use style="fill:#00fff6;stroke:#00fff6;" x="298.642739" xlink:href="#m628ed1ee1c" y="536.397015"/>
     <use style="fill:#00fff6;stroke:#00fff6;" x="316.068949" xlink:href="#m628ed1ee1c" y="618.164382"/>
     <use style="fill:#00fff6;stroke:#00fff6;" x="333.495159" xlink:href="#m628ed1ee1c" y="657.528738"/>
     <use style="fill:#00fff6;stroke:#00fff6;" x="350.92137" xlink:href="#m628ed1ee1c" y="661.663986"/>
     <use style="fill:#00fff6;stroke:#00fff6;" x="368.34758" xlink:href="#m628ed1ee1c" y="662.482715"/>
     <use style="fill:#00fff6;stroke:#00fff6;" x="385.77379" xlink:href="#m628ed1ee1c" y="662.717486"/>
     <use style="fill:#00fff6;stroke:#00fff6;" x="403.2" xlink:href="#m628ed1ee1c" y="662.420307"/>
     <use style="fill:#00fff6;stroke:#00fff6;" x="420.62621" xlink:href="#m628ed1ee1c" y="663.26281"/>
     <use style="fill:#00fff6;stroke:#00fff6;" x="438.05242" xlink:href="#m628ed1ee1c" y="663.26281"/>
     <use style="fill:#00fff6;stroke:#00fff6;" x="455.47863" xlink:href="#m628ed1ee1c" y="663.26281"/>
     <use style="fill:#00fff6;stroke:#00fff6;" x="472.904841" xlink:href="#m628ed1ee1c" y="663.26281"/>
     <use style="fill:#00fff6;stroke:#00fff6;" x="490.331051" xlink:href="#m628ed1ee1c" y="663.26281"/>
     <use style="fill:#00fff6;stroke:#00fff6;" x="507.757261" xlink:href="#m628ed1ee1c" y="663.26281"/>
     <use style="fill:#00fff6;stroke:#00fff6;" x="525.183471" xlink:href="#m628ed1ee1c" y="663.26281"/>
     <use style="fill:#00fff6;stroke:#00fff6;" x="542.609681" xlink:href="#m628ed1ee1c" y="663.26281"/>
     <use style="fill:#00fff6;stroke:#00fff6;" x="560.035891" xlink:href="#m628ed1ee1c" y="663.26281"/>
     <use style="fill:#00fff6;stroke:#00fff6;" x="577.462102" xlink:href="#m628ed1ee1c" y="663.26281"/>
     <use style="fill:#00fff6;stroke:#00fff6;" x="594.888312" xlink:href="#m628ed1ee1c" y="663.26281"/>
     <use style="fill:#00fff6;stroke:#00fff6;" x="612.314522" xlink:href="#m628ed1ee1c" y="663.26281"/>
     <use style="fill:#00fff6;stroke:#00fff6;" x="629.740732" xlink:href="#m628ed1ee1c" y="663.26281"/>
     <use style="fill:#00fff6;stroke:#00fff6;" x="647.166942" xlink:href="#m628ed1ee1c" y="663.26281"/>
    </g>
   </g>
   <g id="line2d_36">
    <path clip-path="url(#p1200917928)" d="M 159.233058 663.26281 
L 176.659268 663.26281 
L 194.085478 663.26281 
L 211.511688 663.26281 
L 228.937898 663.26281 
L 246.364109 663.26281 
L 263.790319 663.26281 
L 281.216529 661.818519 
L 298.642739 662.051805 
L 316.068949 661.022079 
L 333.495159 623.613163 
L 350.92137 536.96017 
L 368.34758 586.303802 
L 385.77379 645.091789 
L 403.2 661.230104 
L 420.62621 662.490144 
L 438.05242 661.484192 
L 455.47863 662.011686 
L 472.904841 663.26281 
L 490.331051 663.26281 
L 507.757261 663.26281 
L 525.183471 663.26281 
L 542.609681 663.26281 
L 560.035891 663.26281 
L 577.462102 663.26281 
L 594.888312 663.26281 
L 612.314522 663.26281 
L 629.740732 663.26281 
L 647.166942 663.26281 
" style="fill:none;stroke:#0010ff;stroke-linecap:square;stroke-width:2;"/>
    <defs>
     <path d="M 0 2.5 
C 0.663008 2.5 1.29895 2.236584 1.767767 1.767767 
C 2.236584 1.29895 2.5 0.663008 2.5 0 
C 2.5 -0.663008 2.236584 -1.29895 1.767767 -1.767767 
C 1.29895 -2.236584 0.663008 -2.5 0 -2.5 
C -0.663008 -2.5 -1.29895 -2.236584 -1.767767 -1.767767 
C -2.236584 -1.29895 -2.5 -0.663008 -2.5 0 
C -2.5 0.663008 -2.236584 1.29895 -1.767767 1.767767 
C -1.29895 2.236584 -0.663008 2.5 0 2.5 
z
" id="mf2786a5a93" style="stroke:#0010ff;"/>
    </defs>
    <g clip-path="url(#p1200917928)">
     <use style="fill:#0010ff;stroke:#0010ff;" x="159.233058" xlink:href="#mf2786a5a93" y="663.26281"/>
     <use style="fill:#0010ff;stroke:#0010ff;" x="176.659268" xlink:href="#mf2786a5a93" y="663.26281"/>
     <use style="fill:#0010ff;stroke:#0010ff;" x="194.085478" xlink:href="#mf2786a5a93" y="663.26281"/>
     <use style="fill:#0010ff;stroke:#0010ff;" x="211.511688" xlink:href="#mf2786a5a93" y="663.26281"/>
     <use style="fill:#0010ff;stroke:#0010ff;" x="228.937898" xlink:href="#mf2786a5a93" y="663.26281"/>
     <use style="fill:#0010ff;stroke:#0010ff;" x="246.364109" xlink:href="#mf2786a5a93" y="663.26281"/>
     <use style="fill:#0010ff;stroke:#0010ff;" x="263.790319" xlink:href="#mf2786a5a93" y="663.26281"/>
     <use style="fill:#0010ff;stroke:#0010ff;" x="281.216529" xlink:href="#mf2786a5a93" y="661.818519"/>
     <use style="fill:#0010ff;stroke:#0010ff;" x="298.642739" xlink:href="#mf2786a5a93" y="662.051805"/>
     <use style="fill:#0010ff;stroke:#0010ff;" x="316.068949" xlink:href="#mf2786a5a93" y="661.022079"/>
     <use style="fill:#0010ff;stroke:#0010ff;" x="333.495159" xlink:href="#mf2786a5a93" y="623.613163"/>
     <use style="fill:#0010ff;stroke:#0010ff;" x="350.92137" xlink:href="#mf2786a5a93" y="536.96017"/>
     <use style="fill:#0010ff;stroke:#0010ff;" x="368.34758" xlink:href="#mf2786a5a93" y="586.303802"/>
     <use style="fill:#0010ff;stroke:#0010ff;" x="385.77379" xlink:href="#mf2786a5a93" y="645.091789"/>
     <use style="fill:#0010ff;stroke:#0010ff;" x="403.2" xlink:href="#mf2786a5a93" y="661.230104"/>
     <use style="fill:#0010ff;stroke:#0010ff;" x="420.62621" xlink:href="#mf2786a5a93" y="662.490144"/>
     <use style="fill:#0010ff;stroke:#0010ff;" x="438.05242" xlink:href="#mf2786a5a93" y="661.484192"/>
     <use style="fill:#0010ff;stroke:#0010ff;" x="455.47863" xlink:href="#mf2786a5a93" y="662.011686"/>
     <use style="fill:#0010ff;stroke:#0010ff;" x="472.904841" xlink:href="#mf2786a5a93" y="663.26281"/>
     <use style="fill:#0010ff;stroke:#0010ff;" x="490.331051" xlink:href="#mf2786a5a93" y="663.26281"/>
     <use style="fill:#0010ff;stroke:#0010ff;" x="507.757261" xlink:href="#mf2786a5a93" y="663.26281"/>
     <use style="fill:#0010ff;stroke:#0010ff;" x="525.183471" xlink:href="#mf2786a5a93" y="663.26281"/>
     <use style="fill:#0010ff;stroke:#0010ff;" x="542.609681" xlink:href="#mf2786a5a93" y="663.26281"/>
     <use style="fill:#0010ff;stroke:#0010ff;" x="560.035891" xlink:href="#mf2786a5a93" y="663.26281"/>
     <use style="fill:#0010ff;stroke:#0010ff;" x="577.462102" xlink:href="#mf2786a5a93" y="663.26281"/>
     <use style="fill:#0010ff;stroke:#0010ff;" x="594.888312" xlink:href="#mf2786a5a93" y="663.26281"/>
     <use style="fill:#0010ff;stroke:#0010ff;" x="612.314522" xlink:href="#mf2786a5a93" y="663.26281"/>
     <use style="fill:#0010ff;stroke:#0010ff;" x="629.740732" xlink:href="#mf2786a5a93" y="663.26281"/>
     <use style="fill:#0010ff;stroke:#0010ff;" x="647.166942" xlink:href="#mf2786a5a93" y="663.26281"/>
    </g>
   </g>
   <g id="line2d_37">
    <path clip-path="url(#p1200917928)" d="M 159.233058 663.26281 
L 176.659268 663.26281 
L 194.085478 663.26281 
L 211.511688 663.26281 
L 228.937898 661.580776 
L 246.364109 662.576326 
L 263.790319 662.37573 
L 281.216529 662.130557 
L 298.642739 661.926989 
L 316.068949 658.399473 
L 333.495159 659.931431 
L 350.92137 656.241952 
L 368.34758 652.717406 
L 385.77379 608.598184 
L 403.2 154.312248 
L 420.62621 114.33719 
L 438.05242 525.046256 
L 455.47863 617.82857 
L 472.904841 663.26281 
L 490.331051 655.800641 
L 507.757261 659.209286 
L 525.183471 661.244963 
L 542.609681 660.295476 
L 560.035891 660.348968 
L 577.462102 662.507975 
L 594.888312 661.800688 
L 612.314522 663.26281 
L 629.740732 663.26281 
L 647.166942 661.402468 
" style="fill:none;stroke:#ee00ff;stroke-linecap:square;stroke-width:2;"/>
    <defs>
     <path d="M 0 2.5 
C 0.663008 2.5 1.29895 2.236584 1.767767 1.767767 
C 2.236584 1.29895 2.5 0.663008 2.5 0 
C 2.5 -0.663008 2.236584 -1.29895 1.767767 -1.767767 
C 1.29895 -2.236584 0.663008 -2.5 0 -2.5 
C -0.663008 -2.5 -1.29895 -2.236584 -1.767767 -1.767767 
C -2.236584 -1.29895 -2.5 -0.663008 -2.5 0 
C -2.5 0.663008 -2.236584 1.29895 -1.767767 1.767767 
C -1.29895 2.236584 -0.663008 2.5 0 2.5 
z
" id="mb10beb53d9" style="stroke:#ee00ff;"/>
    </defs>
    <g clip-path="url(#p1200917928)">
     <use style="fill:#ee00ff;stroke:#ee00ff;" x="159.233058" xlink:href="#mb10beb53d9" y="663.26281"/>
     <use style="fill:#ee00ff;stroke:#ee00ff;" x="176.659268" xlink:href="#mb10beb53d9" y="663.26281"/>
     <use style="fill:#ee00ff;stroke:#ee00ff;" x="194.085478" xlink:href="#mb10beb53d9" y="663.26281"/>
     <use style="fill:#ee00ff;stroke:#ee00ff;" x="211.511688" xlink:href="#mb10beb53d9" y="663.26281"/>
     <use style="fill:#ee00ff;stroke:#ee00ff;" x="228.937898" xlink:href="#mb10beb53d9" y="661.580776"/>
     <use style="fill:#ee00ff;stroke:#ee00ff;" x="246.364109" xlink:href="#mb10beb53d9" y="662.576326"/>
     <use style="fill:#ee00ff;stroke:#ee00ff;" x="263.790319" xlink:href="#mb10beb53d9" y="662.37573"/>
     <use style="fill:#ee00ff;stroke:#ee00ff;" x="281.216529" xlink:href="#mb10beb53d9" y="662.130557"/>
     <use style="fill:#ee00ff;stroke:#ee00ff;" x="298.642739" xlink:href="#mb10beb53d9" y="661.926989"/>
     <use style="fill:#ee00ff;stroke:#ee00ff;" x="316.068949" xlink:href="#mb10beb53d9" y="658.399473"/>
     <use style="fill:#ee00ff;stroke:#ee00ff;" x="333.495159" xlink:href="#mb10beb53d9" y="659.931431"/>
     <use style="fill:#ee00ff;stroke:#ee00ff;" x="350.92137" xlink:href="#mb10beb53d9" y="656.241952"/>
     <use style="fill:#ee00ff;stroke:#ee00ff;" x="368.34758" xlink:href="#mb10beb53d9" y="652.717406"/>
     <use style="fill:#ee00ff;stroke:#ee00ff;" x="385.77379" xlink:href="#mb10beb53d9" y="608.598184"/>
     <use style="fill:#ee00ff;stroke:#ee00ff;" x="403.2" xlink:href="#mb10beb53d9" y="154.312248"/>
     <use style="fill:#ee00ff;stroke:#ee00ff;" x="420.62621" xlink:href="#mb10beb53d9" y="114.33719"/>
     <use style="fill:#ee00ff;stroke:#ee00ff;" x="438.05242" xlink:href="#mb10beb53d9" y="525.046256"/>
     <use style="fill:#ee00ff;stroke:#ee00ff;" x="455.47863" xlink:href="#mb10beb53d9" y="617.82857"/>
     <use style="fill:#ee00ff;stroke:#ee00ff;" x="472.904841" xlink:href="#mb10beb53d9" y="663.26281"/>
     <use style="fill:#ee00ff;stroke:#ee00ff;" x="490.331051" xlink:href="#mb10beb53d9" y="655.800641"/>
     <use style="fill:#ee00ff;stroke:#ee00ff;" x="507.757261" xlink:href="#mb10beb53d9" y="659.209286"/>
     <use style="fill:#ee00ff;stroke:#ee00ff;" x="525.183471" xlink:href="#mb10beb53d9" y="661.244963"/>
     <use style="fill:#ee00ff;stroke:#ee00ff;" x="542.609681" xlink:href="#mb10beb53d9" y="660.295476"/>
     <use style="fill:#ee00ff;stroke:#ee00ff;" x="560.035891" xlink:href="#mb10beb53d9" y="660.348968"/>
     <use style="fill:#ee00ff;stroke:#ee00ff;" x="577.462102" xlink:href="#mb10beb53d9" y="662.507975"/>
     <use style="fill:#ee00ff;stroke:#ee00ff;" x="594.888312" xlink:href="#mb10beb53d9" y="661.800688"/>
     <use style="fill:#ee00ff;stroke:#ee00ff;" x="612.314522" xlink:href="#mb10beb53d9" y="663.26281"/>
     <use style="fill:#ee00ff;stroke:#ee00ff;" x="629.740732" xlink:href="#mb10beb53d9" y="663.26281"/>
     <use style="fill:#ee00ff;stroke:#ee00ff;" x="647.166942" xlink:href="#mb10beb53d9" y="661.402468"/>
    </g>
   </g>
   <g id="line2d_38">
    <path clip-path="url(#p1200917928)" d="M 159.233058 663.26281 
L 176.659268 663.26281 
L 194.085478 663.26281 
L 211.511688 663.26281 
L 228.937898 663.26281 
L 246.364109 663.26281 
L 263.790319 662.565925 
L 281.216529 662.00277 
L 298.642739 662.277661 
L 316.068949 661.840808 
L 333.495159 661.898757 
L 350.92137 660.305877 
L 368.34758 660.762047 
L 385.77379 659.169167 
L 403.2 656.068102 
L 420.62621 646.923898 
L 438.05242 443.418563 
L 455.47863 363.593261 
L 472.904841 663.26281 
L 490.331051 464.929878 
L 507.757261 597.290516 
L 525.183471 655.335555 
L 542.609681 656.389055 
L 560.035891 657.081483 
L 577.462102 658.247911 
L 594.888312 661.38018 
L 612.314522 662.366815 
L 629.740732 662.543636 
L 647.166942 663.26281 
" style="fill:none;stroke:#ff0018;stroke-linecap:square;stroke-width:2;"/>
    <defs>
     <path d="M 0 2.5 
C 0.663008 2.5 1.29895 2.236584 1.767767 1.767767 
C 2.236584 1.29895 2.5 0.663008 2.5 0 
C 2.5 -0.663008 2.236584 -1.29895 1.767767 -1.767767 
C 1.29895 -2.236584 0.663008 -2.5 0 -2.5 
C -0.663008 -2.5 -1.29895 -2.236584 -1.767767 -1.767767 
C -2.236584 -1.29895 -2.5 -0.663008 -2.5 0 
C -2.5 0.663008 -2.236584 1.29895 -1.767767 1.767767 
C -1.29895 2.236584 -0.663008 2.5 0 2.5 
z
" id="m8b27d75717" style="stroke:#ff0018;"/>
    </defs>
    <g clip-path="url(#p1200917928)">
     <use style="fill:#ff0018;stroke:#ff0018;" x="159.233058" xlink:href="#m8b27d75717" y="663.26281"/>
     <use style="fill:#ff0018;stroke:#ff0018;" x="176.659268" xlink:href="#m8b27d75717" y="663.26281"/>
     <use style="fill:#ff0018;stroke:#ff0018;" x="194.085478" xlink:href="#m8b27d75717" y="663.26281"/>
     <use style="fill:#ff0018;stroke:#ff0018;" x="211.511688" xlink:href="#m8b27d75717" y="663.26281"/>
     <use style="fill:#ff0018;stroke:#ff0018;" x="228.937898" xlink:href="#m8b27d75717" y="663.26281"/>
     <use style="fill:#ff0018;stroke:#ff0018;" x="246.364109" xlink:href="#m8b27d75717" y="663.26281"/>
     <use style="fill:#ff0018;stroke:#ff0018;" x="263.790319" xlink:href="#m8b27d75717" y="662.565925"/>
     <use style="fill:#ff0018;stroke:#ff0018;" x="281.216529" xlink:href="#m8b27d75717" y="662.00277"/>
     <use style="fill:#ff0018;stroke:#ff0018;" x="298.642739" xlink:href="#m8b27d75717" y="662.277661"/>
     <use style="fill:#ff0018;stroke:#ff0018;" x="316.068949" xlink:href="#m8b27d75717" y="661.840808"/>
     <use style="fill:#ff0018;stroke:#ff0018;" x="333.495159" xlink:href="#m8b27d75717" y="661.898757"/>
     <use style="fill:#ff0018;stroke:#ff0018;" x="350.92137" xlink:href="#m8b27d75717" y="660.305877"/>
     <use style="fill:#ff0018;stroke:#ff0018;" x="368.34758" xlink:href="#m8b27d75717" y="660.762047"/>
     <use style="fill:#ff0018;stroke:#ff0018;" x="385.77379" xlink:href="#m8b27d75717" y="659.169167"/>
     <use style="fill:#ff0018;stroke:#ff0018;" x="403.2" xlink:href="#m8b27d75717" y="656.068102"/>
     <use style="fill:#ff0018;stroke:#ff0018;" x="420.62621" xlink:href="#m8b27d75717" y="646.923898"/>
     <use style="fill:#ff0018;stroke:#ff0018;" x="438.05242" xlink:href="#m8b27d75717" y="443.418563"/>
     <use style="fill:#ff0018;stroke:#ff0018;" x="455.47863" xlink:href="#m8b27d75717" y="363.593261"/>
     <use style="fill:#ff0018;stroke:#ff0018;" x="472.904841" xlink:href="#m8b27d75717" y="663.26281"/>
     <use style="fill:#ff0018;stroke:#ff0018;" x="490.331051" xlink:href="#m8b27d75717" y="464.929878"/>
     <use style="fill:#ff0018;stroke:#ff0018;" x="507.757261" xlink:href="#m8b27d75717" y="597.290516"/>
     <use style="fill:#ff0018;stroke:#ff0018;" x="525.183471" xlink:href="#m8b27d75717" y="655.335555"/>
     <use style="fill:#ff0018;stroke:#ff0018;" x="542.609681" xlink:href="#m8b27d75717" y="656.389055"/>
     <use style="fill:#ff0018;stroke:#ff0018;" x="560.035891" xlink:href="#m8b27d75717" y="657.081483"/>
     <use style="fill:#ff0018;stroke:#ff0018;" x="577.462102" xlink:href="#m8b27d75717" y="658.247911"/>
     <use style="fill:#ff0018;stroke:#ff0018;" x="594.888312" xlink:href="#m8b27d75717" y="661.38018"/>
     <use style="fill:#ff0018;stroke:#ff0018;" x="612.314522" xlink:href="#m8b27d75717" y="662.366815"/>
     <use style="fill:#ff0018;stroke:#ff0018;" x="629.740732" xlink:href="#m8b27d75717" y="662.543636"/>
     <use style="fill:#ff0018;stroke:#ff0018;" x="647.166942" xlink:href="#m8b27d75717" y="663.26281"/>
    </g>
   </g>
   <g id="patch_3">
    <path d="M 108 720.9 
L 108 56.7 
" style="fill:none;stroke:#000000;stroke-linecap:square;stroke-linejoin:miter;stroke-width:0.8;"/>
   </g>
   <g id="patch_4">
    <path d="M 698.4 720.9 
L 698.4 56.7 
" style="fill:none;stroke:#000000;stroke-linecap:square;stroke-linejoin:miter;stroke-width:0.8;"/>
   </g>
   <g id="patch_5">
    <path d="M 108 720.9 
L 698.4 720.9 
" style="fill:none;stroke:#000000;stroke-linecap:square;stroke-linejoin:miter;stroke-width:0.8;"/>
   </g>
   <g id="patch_6">
    <path d="M 108 56.7 
L 698.4 56.7 
" style="fill:none;stroke:#000000;stroke-linecap:square;stroke-linejoin:miter;stroke-width:0.8;"/>
   </g>
   <g id="legend_1">
    <g id="patch_7">
     <path d="M 526.7625 248.8375 
L 684.4 248.8375 
Q 688.4 248.8375 688.4 244.8375 
L 688.4 70.7 
Q 688.4 66.7 684.4 66.7 
L 526.7625 66.7 
Q 522.7625 66.7 522.7625 70.7 
L 522.7625 244.8375 
Q 522.7625 248.8375 526.7625 248.8375 
z
" style="fill:#ffffff;opacity:0.8;stroke:#cccccc;stroke-linejoin:miter;"/>
    </g>
    <g id="line2d_39">
     <path d="M 530.7625 82.896875 
L 570.7625 82.896875 
" style="fill:none;stroke:#fcf500;stroke-linecap:square;stroke-width:2;"/>
    </g>
    <g id="line2d_40">
     <g>
      <use style="fill:#fcf500;stroke:#fcf500;" x="550.7625" xlink:href="#ma4a8994a5c" y="82.896875"/>
     </g>
    </g>
    <g id="text_19">
     <!-- (-3, -1, 2) -->
     <g transform="translate(586.7625 89.896875)scale(0.2 -0.2)">
      <defs>
       <path d="M 31 75.875 
Q 24.46875 64.65625 21.28125 53.65625 
Q 18.109375 42.671875 18.109375 31.390625 
Q 18.109375 20.125 21.3125 9.0625 
Q 24.515625 -2 31 -13.1875 
L 23.1875 -13.1875 
Q 15.875 -1.703125 12.234375 9.375 
Q 8.59375 20.453125 8.59375 31.390625 
Q 8.59375 42.28125 12.203125 53.3125 
Q 15.828125 64.359375 23.1875 75.875 
z
" id="DejaVuSans-40"/>
       <path d="M 4.890625 31.390625 
L 31.203125 31.390625 
L 31.203125 23.390625 
L 4.890625 23.390625 
z
" id="DejaVuSans-45"/>
       <path d="M 11.71875 12.40625 
L 22.015625 12.40625 
L 22.015625 4 
L 14.015625 -11.625 
L 7.71875 -11.625 
L 11.71875 4 
z
" id="DejaVuSans-44"/>
       <path id="DejaVuSans-32"/>
       <path d="M 8.015625 75.875 
L 15.828125 75.875 
Q 23.140625 64.359375 26.78125 53.3125 
Q 30.421875 42.28125 30.421875 31.390625 
Q 30.421875 20.453125 26.78125 9.375 
Q 23.140625 -1.703125 15.828125 -13.1875 
L 8.015625 -13.1875 
Q 14.5 -2 17.703125 9.0625 
Q 20.90625 20.125 20.90625 31.390625 
Q 20.90625 42.671875 17.703125 53.65625 
Q 14.5 64.65625 8.015625 75.875 
z
" id="DejaVuSans-41"/>
      </defs>
      <use xlink:href="#DejaVuSans-40"/>
      <use x="39.013672" xlink:href="#DejaVuSans-45"/>
      <use x="75.097656" xlink:href="#DejaVuSans-51"/>
      <use x="138.720703" xlink:href="#DejaVuSans-44"/>
      <use x="170.507812" xlink:href="#DejaVuSans-32"/>
      <use x="202.294922" xlink:href="#DejaVuSans-45"/>
      <use x="238.378906" xlink:href="#DejaVuSans-49"/>
      <use x="302.001953" xlink:href="#DejaVuSans-44"/>
      <use x="333.789062" xlink:href="#DejaVuSans-32"/>
      <use x="365.576172" xlink:href="#DejaVuSans-50"/>
      <use x="429.199219" xlink:href="#DejaVuSans-41"/>
     </g>
    </g>
    <g id="line2d_41">
     <path d="M 530.7625 112.253125 
L 570.7625 112.253125 
" style="fill:none;stroke:#08ff00;stroke-linecap:square;stroke-width:2;"/>
    </g>
    <g id="line2d_42">
     <g>
      <use style="fill:#08ff00;stroke:#08ff00;" x="550.7625" xlink:href="#m54785aa6b1" y="112.253125"/>
     </g>
    </g>
    <g id="text_20">
     <!-- (3, 1, -4) -->
     <g transform="translate(586.7625 119.253125)scale(0.2 -0.2)">
      <use xlink:href="#DejaVuSans-40"/>
      <use x="39.013672" xlink:href="#DejaVuSans-51"/>
      <use x="102.636719" xlink:href="#DejaVuSans-44"/>
      <use x="134.423828" xlink:href="#DejaVuSans-32"/>
      <use x="166.210938" xlink:href="#DejaVuSans-49"/>
      <use x="229.833984" xlink:href="#DejaVuSans-44"/>
      <use x="261.621094" xlink:href="#DejaVuSans-32"/>
      <use x="293.408203" xlink:href="#DejaVuSans-45"/>
      <use x="329.492188" xlink:href="#DejaVuSans-52"/>
      <use x="393.115234" xlink:href="#DejaVuSans-41"/>
     </g>
    </g>
    <g id="line2d_43">
     <path d="M 530.7625 141.609375 
L 570.7625 141.609375 
" style="fill:none;stroke:#00fff6;stroke-linecap:square;stroke-width:2;"/>
    </g>
    <g id="line2d_44">
     <g>
      <use style="fill:#00fff6;stroke:#00fff6;" x="550.7625" xlink:href="#m628ed1ee1c" y="141.609375"/>
     </g>
    </g>
    <g id="text_21">
     <!-- (4, 1, 0) -->
     <g transform="translate(586.7625 148.609375)scale(0.2 -0.2)">
      <use xlink:href="#DejaVuSans-40"/>
      <use x="39.013672" xlink:href="#DejaVuSans-52"/>
      <use x="102.636719" xlink:href="#DejaVuSans-44"/>
      <use x="134.423828" xlink:href="#DejaVuSans-32"/>
      <use x="166.210938" xlink:href="#DejaVuSans-49"/>
      <use x="229.833984" xlink:href="#DejaVuSans-44"/>
      <use x="261.621094" xlink:href="#DejaVuSans-32"/>
      <use x="293.408203" xlink:href="#DejaVuSans-48"/>
      <use x="357.03125" xlink:href="#DejaVuSans-41"/>
     </g>
    </g>
    <g id="line2d_45">
     <path d="M 530.7625 170.965625 
L 570.7625 170.965625 
" style="fill:none;stroke:#0010ff;stroke-linecap:square;stroke-width:2;"/>
    </g>
    <g id="line2d_46">
     <g>
      <use style="fill:#0010ff;stroke:#0010ff;" x="550.7625" xlink:href="#mf2786a5a93" y="170.965625"/>
     </g>
    </g>
    <g id="text_22">
     <!-- (-3, -1, 4) -->
     <g transform="translate(586.7625 177.965625)scale(0.2 -0.2)">
      <use xlink:href="#DejaVuSans-40"/>
      <use x="39.013672" xlink:href="#DejaVuSans-45"/>
      <use x="75.097656" xlink:href="#DejaVuSans-51"/>
      <use x="138.720703" xlink:href="#DejaVuSans-44"/>
      <use x="170.507812" xlink:href="#DejaVuSans-32"/>
      <use x="202.294922" xlink:href="#DejaVuSans-45"/>
      <use x="238.378906" xlink:href="#DejaVuSans-49"/>
      <use x="302.001953" xlink:href="#DejaVuSans-44"/>
      <use x="333.789062" xlink:href="#DejaVuSans-32"/>
      <use x="365.576172" xlink:href="#DejaVuSans-52"/>
      <use x="429.199219" xlink:href="#DejaVuSans-41"/>
     </g>
    </g>
    <g id="line2d_47">
     <path d="M 530.7625 200.321875 
L 570.7625 200.321875 
" style="fill:none;stroke:#ee00ff;stroke-linecap:square;stroke-width:2;"/>
    </g>
    <g id="line2d_48">
     <g>
      <use style="fill:#ee00ff;stroke:#ee00ff;" x="550.7625" xlink:href="#mb10beb53d9" y="200.321875"/>
     </g>
    </g>
    <g id="text_23">
     <!-- (0, 0, -2) -->
     <g transform="translate(586.7625 207.321875)scale(0.2 -0.2)">
      <use xlink:href="#DejaVuSans-40"/>
      <use x="39.013672" xlink:href="#DejaVuSans-48"/>
      <use x="102.636719" xlink:href="#DejaVuSans-44"/>
      <use x="134.423828" xlink:href="#DejaVuSans-32"/>
      <use x="166.210938" xlink:href="#DejaVuSans-48"/>
      <use x="229.833984" xlink:href="#DejaVuSans-44"/>
      <use x="261.621094" xlink:href="#DejaVuSans-32"/>
      <use x="293.408203" xlink:href="#DejaVuSans-45"/>
      <use x="329.492188" xlink:href="#DejaVuSans-50"/>
      <use x="393.115234" xlink:href="#DejaVuSans-41"/>
     </g>
    </g>
    <g id="line2d_49">
     <path d="M 530.7625 229.678125 
L 570.7625 229.678125 
" style="fill:none;stroke:#ff0018;stroke-linecap:square;stroke-width:2;"/>
    </g>
    <g id="line2d_50">
     <g>
      <use style="fill:#ff0018;stroke:#ff0018;" x="550.7625" xlink:href="#m8b27d75717" y="229.678125"/>
     </g>
    </g>
    <g id="text_24">
     <!-- (0, 0, 2) -->
     <g transform="translate(586.7625 236.678125)scale(0.2 -0.2)">
      <use xlink:href="#DejaVuSans-40"/>
      <use x="39.013672" xlink:href="#DejaVuSans-48"/>
      <use x="102.636719" xlink:href="#DejaVuSans-44"/>
      <use x="134.423828" xlink:href="#DejaVuSans-32"/>
      <use x="166.210938" xlink:href="#DejaVuSans-48"/>
      <use x="229.833984" xlink:href="#DejaVuSans-44"/>
      <use x="261.621094" xlink:href="#DejaVuSans-32"/>
      <use x="293.408203" xlink:href="#DejaVuSans-50"/>
      <use x="357.03125" xlink:href="#DejaVuSans-41"/>
     </g>
    </g>
   </g>
  </g>
 </g>
 <defs>
  <clipPath id="p1200917928">
   <rect height="664.2" width="590.4" x="108" y="56.7"/>
  </clipPath>
 </defs>
</svg>
