<?xml version="1.0" encoding="utf-8" standalone="no"?>
<!DOCTYPE svg PUBLIC "-//W3C//DTD SVG 1.1//EN"
  "http://www.w3.org/Graphics/SVG/1.1/DTD/svg11.dtd">
<!-- Created with matplotlib (https://matplotlib.org/) -->
<svg height="810pt" version="1.1" viewBox="0 0 720 810" width="720pt" xmlns="http://www.w3.org/2000/svg" xmlns:xlink="http://www.w3.org/1999/xlink">
 <metadata>
  <rdf:RDF xmlns:cc="http://creativecommons.org/ns#" xmlns:dc="http://purl.org/dc/elements/1.1/" xmlns:rdf="http://www.w3.org/1999/02/22-rdf-syntax-ns#">
   <cc:Work>
    <dc:type rdf:resource="http://purl.org/dc/dcmitype/StillImage"/>
    <dc:date>2021-07-20T11:15:19.330974</dc:date>
    <dc:format>image/svg+xml</dc:format>
    <dc:creator>
     <cc:Agent>
      <dc:title>Matplotlib v3.3.1, https://matplotlib.org/</dc:title>
     </cc:Agent>
    </dc:creator>
   </cc:Work>
  </rdf:RDF>
 </metadata>
 <defs>
  <style type="text/css">*{stroke-linecap:butt;stroke-linejoin:round;}</style>
 </defs>
 <g id="figure_1">
  <g id="patch_1">
   <path d="M 0 810 
L 720 810 
L 720 0 
L 0 0 
z
" style="fill:#ffffff;"/>
  </g>
  <g id="axes_1">
   <g id="patch_2">
    <path d="M 108 720.9 
L 698.4 720.9 
L 698.4 56.7 
L 108 56.7 
z
" style="fill:#ffffff;"/>
   </g>
   <g id="matplotlib.axis_1">
    <g id="xtick_1">
     <g id="line2d_1">
      <path clip-path="url(#p5036ca9fa3)" d="M 152.262574 720.9 
L 152.262574 56.7 
" style="fill:none;stroke:#e6e6e6;stroke-linecap:square;stroke-width:0.8;"/>
     </g>
     <g id="line2d_2">
      <defs>
       <path d="M 0 0 
L 0 3.5 
" id="m273256eae8" style="stroke:#000000;stroke-width:0.8;"/>
      </defs>
      <g>
       <use style="stroke:#000000;stroke-width:0.8;" x="152.262574" xlink:href="#m273256eae8" y="720.9"/>
      </g>
     </g>
     <g id="text_1">
      <!-- 0 -->
      <g transform="translate(147.490699 739.297656)scale(0.15 -0.15)">
       <defs>
        <path d="M 31.78125 66.40625 
Q 24.171875 66.40625 20.328125 58.90625 
Q 16.5 51.421875 16.5 36.375 
Q 16.5 21.390625 20.328125 13.890625 
Q 24.171875 6.390625 31.78125 6.390625 
Q 39.453125 6.390625 43.28125 13.890625 
Q 47.125 21.390625 47.125 36.375 
Q 47.125 51.421875 43.28125 58.90625 
Q 39.453125 66.40625 31.78125 66.40625 
z
M 31.78125 74.21875 
Q 44.046875 74.21875 50.515625 64.515625 
Q 56.984375 54.828125 56.984375 36.375 
Q 56.984375 17.96875 50.515625 8.265625 
Q 44.046875 -1.421875 31.78125 -1.421875 
Q 19.53125 -1.421875 13.0625 8.265625 
Q 6.59375 17.96875 6.59375 36.375 
Q 6.59375 54.828125 13.0625 64.515625 
Q 19.53125 74.21875 31.78125 74.21875 
z
" id="DejaVuSans-48"/>
       </defs>
       <use xlink:href="#DejaVuSans-48"/>
      </g>
     </g>
    </g>
    <g id="xtick_2">
     <g id="line2d_3">
      <path clip-path="url(#p5036ca9fa3)" d="M 221.967414 720.9 
L 221.967414 56.7 
" style="fill:none;stroke:#e6e6e6;stroke-linecap:square;stroke-width:0.8;"/>
     </g>
     <g id="line2d_4">
      <g>
       <use style="stroke:#000000;stroke-width:0.8;" x="221.967414" xlink:href="#m273256eae8" y="720.9"/>
      </g>
     </g>
     <g id="text_2">
      <!-- 10 -->
      <g transform="translate(212.423664 739.297656)scale(0.15 -0.15)">
       <defs>
        <path d="M 12.40625 8.296875 
L 28.515625 8.296875 
L 28.515625 63.921875 
L 10.984375 60.40625 
L 10.984375 69.390625 
L 28.421875 72.90625 
L 38.28125 72.90625 
L 38.28125 8.296875 
L 54.390625 8.296875 
L 54.390625 0 
L 12.40625 0 
z
" id="DejaVuSans-49"/>
       </defs>
       <use xlink:href="#DejaVuSans-49"/>
       <use x="63.623047" xlink:href="#DejaVuSans-48"/>
      </g>
     </g>
    </g>
    <g id="xtick_3">
     <g id="line2d_5">
      <path clip-path="url(#p5036ca9fa3)" d="M 291.672255 720.9 
L 291.672255 56.7 
" style="fill:none;stroke:#e6e6e6;stroke-linecap:square;stroke-width:0.8;"/>
     </g>
     <g id="line2d_6">
      <g>
       <use style="stroke:#000000;stroke-width:0.8;" x="291.672255" xlink:href="#m273256eae8" y="720.9"/>
      </g>
     </g>
     <g id="text_3">
      <!-- 20 -->
      <g transform="translate(282.128505 739.297656)scale(0.15 -0.15)">
       <defs>
        <path d="M 19.1875 8.296875 
L 53.609375 8.296875 
L 53.609375 0 
L 7.328125 0 
L 7.328125 8.296875 
Q 12.9375 14.109375 22.625 23.890625 
Q 32.328125 33.6875 34.8125 36.53125 
Q 39.546875 41.84375 41.421875 45.53125 
Q 43.3125 49.21875 43.3125 52.78125 
Q 43.3125 58.59375 39.234375 62.25 
Q 35.15625 65.921875 28.609375 65.921875 
Q 23.96875 65.921875 18.8125 64.3125 
Q 13.671875 62.703125 7.8125 59.421875 
L 7.8125 69.390625 
Q 13.765625 71.78125 18.9375 73 
Q 24.125 74.21875 28.421875 74.21875 
Q 39.75 74.21875 46.484375 68.546875 
Q 53.21875 62.890625 53.21875 53.421875 
Q 53.21875 48.921875 51.53125 44.890625 
Q 49.859375 40.875 45.40625 35.40625 
Q 44.1875 33.984375 37.640625 27.21875 
Q 31.109375 20.453125 19.1875 8.296875 
z
" id="DejaVuSans-50"/>
       </defs>
       <use xlink:href="#DejaVuSans-50"/>
       <use x="63.623047" xlink:href="#DejaVuSans-48"/>
      </g>
     </g>
    </g>
    <g id="xtick_4">
     <g id="line2d_7">
      <path clip-path="url(#p5036ca9fa3)" d="M 361.377096 720.9 
L 361.377096 56.7 
" style="fill:none;stroke:#e6e6e6;stroke-linecap:square;stroke-width:0.8;"/>
     </g>
     <g id="line2d_8">
      <g>
       <use style="stroke:#000000;stroke-width:0.8;" x="361.377096" xlink:href="#m273256eae8" y="720.9"/>
      </g>
     </g>
     <g id="text_4">
      <!-- 30 -->
      <g transform="translate(351.833346 739.297656)scale(0.15 -0.15)">
       <defs>
        <path d="M 40.578125 39.3125 
Q 47.65625 37.796875 51.625 33 
Q 55.609375 28.21875 55.609375 21.1875 
Q 55.609375 10.40625 48.1875 4.484375 
Q 40.765625 -1.421875 27.09375 -1.421875 
Q 22.515625 -1.421875 17.65625 -0.515625 
Q 12.796875 0.390625 7.625 2.203125 
L 7.625 11.71875 
Q 11.71875 9.328125 16.59375 8.109375 
Q 21.484375 6.890625 26.8125 6.890625 
Q 36.078125 6.890625 40.9375 10.546875 
Q 45.796875 14.203125 45.796875 21.1875 
Q 45.796875 27.640625 41.28125 31.265625 
Q 36.765625 34.90625 28.71875 34.90625 
L 20.21875 34.90625 
L 20.21875 43.015625 
L 29.109375 43.015625 
Q 36.375 43.015625 40.234375 45.921875 
Q 44.09375 48.828125 44.09375 54.296875 
Q 44.09375 59.90625 40.109375 62.90625 
Q 36.140625 65.921875 28.71875 65.921875 
Q 24.65625 65.921875 20.015625 65.03125 
Q 15.375 64.15625 9.8125 62.3125 
L 9.8125 71.09375 
Q 15.4375 72.65625 20.34375 73.4375 
Q 25.25 74.21875 29.59375 74.21875 
Q 40.828125 74.21875 47.359375 69.109375 
Q 53.90625 64.015625 53.90625 55.328125 
Q 53.90625 49.265625 50.4375 45.09375 
Q 46.96875 40.921875 40.578125 39.3125 
z
" id="DejaVuSans-51"/>
       </defs>
       <use xlink:href="#DejaVuSans-51"/>
       <use x="63.623047" xlink:href="#DejaVuSans-48"/>
      </g>
     </g>
    </g>
    <g id="xtick_5">
     <g id="line2d_9">
      <path clip-path="url(#p5036ca9fa3)" d="M 431.081936 720.9 
L 431.081936 56.7 
" style="fill:none;stroke:#e6e6e6;stroke-linecap:square;stroke-width:0.8;"/>
     </g>
     <g id="line2d_10">
      <g>
       <use style="stroke:#000000;stroke-width:0.8;" x="431.081936" xlink:href="#m273256eae8" y="720.9"/>
      </g>
     </g>
     <g id="text_5">
      <!-- 40 -->
      <g transform="translate(421.538186 739.297656)scale(0.15 -0.15)">
       <defs>
        <path d="M 37.796875 64.3125 
L 12.890625 25.390625 
L 37.796875 25.390625 
z
M 35.203125 72.90625 
L 47.609375 72.90625 
L 47.609375 25.390625 
L 58.015625 25.390625 
L 58.015625 17.1875 
L 47.609375 17.1875 
L 47.609375 0 
L 37.796875 0 
L 37.796875 17.1875 
L 4.890625 17.1875 
L 4.890625 26.703125 
z
" id="DejaVuSans-52"/>
       </defs>
       <use xlink:href="#DejaVuSans-52"/>
       <use x="63.623047" xlink:href="#DejaVuSans-48"/>
      </g>
     </g>
    </g>
    <g id="xtick_6">
     <g id="line2d_11">
      <path clip-path="url(#p5036ca9fa3)" d="M 500.786777 720.9 
L 500.786777 56.7 
" style="fill:none;stroke:#e6e6e6;stroke-linecap:square;stroke-width:0.8;"/>
     </g>
     <g id="line2d_12">
      <g>
       <use style="stroke:#000000;stroke-width:0.8;" x="500.786777" xlink:href="#m273256eae8" y="720.9"/>
      </g>
     </g>
     <g id="text_6">
      <!-- 50 -->
      <g transform="translate(491.243027 739.297656)scale(0.15 -0.15)">
       <defs>
        <path d="M 10.796875 72.90625 
L 49.515625 72.90625 
L 49.515625 64.59375 
L 19.828125 64.59375 
L 19.828125 46.734375 
Q 21.96875 47.46875 24.109375 47.828125 
Q 26.265625 48.1875 28.421875 48.1875 
Q 40.625 48.1875 47.75 41.5 
Q 54.890625 34.8125 54.890625 23.390625 
Q 54.890625 11.625 47.5625 5.09375 
Q 40.234375 -1.421875 26.90625 -1.421875 
Q 22.3125 -1.421875 17.546875 -0.640625 
Q 12.796875 0.140625 7.71875 1.703125 
L 7.71875 11.625 
Q 12.109375 9.234375 16.796875 8.0625 
Q 21.484375 6.890625 26.703125 6.890625 
Q 35.15625 6.890625 40.078125 11.328125 
Q 45.015625 15.765625 45.015625 23.390625 
Q 45.015625 31 40.078125 35.4375 
Q 35.15625 39.890625 26.703125 39.890625 
Q 22.75 39.890625 18.8125 39.015625 
Q 14.890625 38.140625 10.796875 36.28125 
z
" id="DejaVuSans-53"/>
       </defs>
       <use xlink:href="#DejaVuSans-53"/>
       <use x="63.623047" xlink:href="#DejaVuSans-48"/>
      </g>
     </g>
    </g>
    <g id="xtick_7">
     <g id="line2d_13">
      <path clip-path="url(#p5036ca9fa3)" d="M 570.491617 720.9 
L 570.491617 56.7 
" style="fill:none;stroke:#e6e6e6;stroke-linecap:square;stroke-width:0.8;"/>
     </g>
     <g id="line2d_14">
      <g>
       <use style="stroke:#000000;stroke-width:0.8;" x="570.491617" xlink:href="#m273256eae8" y="720.9"/>
      </g>
     </g>
     <g id="text_7">
      <!-- 60 -->
      <g transform="translate(560.947867 739.297656)scale(0.15 -0.15)">
       <defs>
        <path d="M 33.015625 40.375 
Q 26.375 40.375 22.484375 35.828125 
Q 18.609375 31.296875 18.609375 23.390625 
Q 18.609375 15.53125 22.484375 10.953125 
Q 26.375 6.390625 33.015625 6.390625 
Q 39.65625 6.390625 43.53125 10.953125 
Q 47.40625 15.53125 47.40625 23.390625 
Q 47.40625 31.296875 43.53125 35.828125 
Q 39.65625 40.375 33.015625 40.375 
z
M 52.59375 71.296875 
L 52.59375 62.3125 
Q 48.875 64.0625 45.09375 64.984375 
Q 41.3125 65.921875 37.59375 65.921875 
Q 27.828125 65.921875 22.671875 59.328125 
Q 17.53125 52.734375 16.796875 39.40625 
Q 19.671875 43.65625 24.015625 45.921875 
Q 28.375 48.1875 33.59375 48.1875 
Q 44.578125 48.1875 50.953125 41.515625 
Q 57.328125 34.859375 57.328125 23.390625 
Q 57.328125 12.15625 50.6875 5.359375 
Q 44.046875 -1.421875 33.015625 -1.421875 
Q 20.359375 -1.421875 13.671875 8.265625 
Q 6.984375 17.96875 6.984375 36.375 
Q 6.984375 53.65625 15.1875 63.9375 
Q 23.390625 74.21875 37.203125 74.21875 
Q 40.921875 74.21875 44.703125 73.484375 
Q 48.484375 72.75 52.59375 71.296875 
z
" id="DejaVuSans-54"/>
       </defs>
       <use xlink:href="#DejaVuSans-54"/>
       <use x="63.623047" xlink:href="#DejaVuSans-48"/>
      </g>
     </g>
    </g>
    <g id="xtick_8">
     <g id="line2d_15">
      <path clip-path="url(#p5036ca9fa3)" d="M 640.196458 720.9 
L 640.196458 56.7 
" style="fill:none;stroke:#e6e6e6;stroke-linecap:square;stroke-width:0.8;"/>
     </g>
     <g id="line2d_16">
      <g>
       <use style="stroke:#000000;stroke-width:0.8;" x="640.196458" xlink:href="#m273256eae8" y="720.9"/>
      </g>
     </g>
     <g id="text_8">
      <!-- 70 -->
      <g transform="translate(630.652708 739.297656)scale(0.15 -0.15)">
       <defs>
        <path d="M 8.203125 72.90625 
L 55.078125 72.90625 
L 55.078125 68.703125 
L 28.609375 0 
L 18.3125 0 
L 43.21875 64.59375 
L 8.203125 64.59375 
z
" id="DejaVuSans-55"/>
       </defs>
       <use xlink:href="#DejaVuSans-55"/>
       <use x="63.623047" xlink:href="#DejaVuSans-48"/>
      </g>
     </g>
    </g>
    <g id="text_9">
     <!-- frame -->
     <g transform="translate(366.133594 765.413281)scale(0.25 -0.25)">
      <defs>
       <path d="M 37.109375 75.984375 
L 37.109375 68.5 
L 28.515625 68.5 
Q 23.6875 68.5 21.796875 66.546875 
Q 19.921875 64.59375 19.921875 59.515625 
L 19.921875 54.6875 
L 34.71875 54.6875 
L 34.71875 47.703125 
L 19.921875 47.703125 
L 19.921875 0 
L 10.890625 0 
L 10.890625 47.703125 
L 2.296875 47.703125 
L 2.296875 54.6875 
L 10.890625 54.6875 
L 10.890625 58.5 
Q 10.890625 67.625 15.140625 71.796875 
Q 19.390625 75.984375 28.609375 75.984375 
z
" id="DejaVuSans-102"/>
       <path d="M 41.109375 46.296875 
Q 39.59375 47.171875 37.8125 47.578125 
Q 36.03125 48 33.890625 48 
Q 26.265625 48 22.1875 43.046875 
Q 18.109375 38.09375 18.109375 28.8125 
L 18.109375 0 
L 9.078125 0 
L 9.078125 54.6875 
L 18.109375 54.6875 
L 18.109375 46.1875 
Q 20.953125 51.171875 25.484375 53.578125 
Q 30.03125 56 36.53125 56 
Q 37.453125 56 38.578125 55.875 
Q 39.703125 55.765625 41.0625 55.515625 
z
" id="DejaVuSans-114"/>
       <path d="M 34.28125 27.484375 
Q 23.390625 27.484375 19.1875 25 
Q 14.984375 22.515625 14.984375 16.5 
Q 14.984375 11.71875 18.140625 8.90625 
Q 21.296875 6.109375 26.703125 6.109375 
Q 34.1875 6.109375 38.703125 11.40625 
Q 43.21875 16.703125 43.21875 25.484375 
L 43.21875 27.484375 
z
M 52.203125 31.203125 
L 52.203125 0 
L 43.21875 0 
L 43.21875 8.296875 
Q 40.140625 3.328125 35.546875 0.953125 
Q 30.953125 -1.421875 24.3125 -1.421875 
Q 15.921875 -1.421875 10.953125 3.296875 
Q 6 8.015625 6 15.921875 
Q 6 25.140625 12.171875 29.828125 
Q 18.359375 34.515625 30.609375 34.515625 
L 43.21875 34.515625 
L 43.21875 35.40625 
Q 43.21875 41.609375 39.140625 45 
Q 35.0625 48.390625 27.6875 48.390625 
Q 23 48.390625 18.546875 47.265625 
Q 14.109375 46.140625 10.015625 43.890625 
L 10.015625 52.203125 
Q 14.9375 54.109375 19.578125 55.046875 
Q 24.21875 56 28.609375 56 
Q 40.484375 56 46.34375 49.84375 
Q 52.203125 43.703125 52.203125 31.203125 
z
" id="DejaVuSans-97"/>
       <path d="M 52 44.1875 
Q 55.375 50.25 60.0625 53.125 
Q 64.75 56 71.09375 56 
Q 79.640625 56 84.28125 50.015625 
Q 88.921875 44.046875 88.921875 33.015625 
L 88.921875 0 
L 79.890625 0 
L 79.890625 32.71875 
Q 79.890625 40.578125 77.09375 44.375 
Q 74.3125 48.1875 68.609375 48.1875 
Q 61.625 48.1875 57.5625 43.546875 
Q 53.515625 38.921875 53.515625 30.90625 
L 53.515625 0 
L 44.484375 0 
L 44.484375 32.71875 
Q 44.484375 40.625 41.703125 44.40625 
Q 38.921875 48.1875 33.109375 48.1875 
Q 26.21875 48.1875 22.15625 43.53125 
Q 18.109375 38.875 18.109375 30.90625 
L 18.109375 0 
L 9.078125 0 
L 9.078125 54.6875 
L 18.109375 54.6875 
L 18.109375 46.1875 
Q 21.1875 51.21875 25.484375 53.609375 
Q 29.78125 56 35.6875 56 
Q 41.65625 56 45.828125 52.96875 
Q 50 49.953125 52 44.1875 
z
" id="DejaVuSans-109"/>
       <path d="M 56.203125 29.59375 
L 56.203125 25.203125 
L 14.890625 25.203125 
Q 15.484375 15.921875 20.484375 11.0625 
Q 25.484375 6.203125 34.421875 6.203125 
Q 39.59375 6.203125 44.453125 7.46875 
Q 49.3125 8.734375 54.109375 11.28125 
L 54.109375 2.78125 
Q 49.265625 0.734375 44.1875 -0.34375 
Q 39.109375 -1.421875 33.890625 -1.421875 
Q 20.796875 -1.421875 13.15625 6.1875 
Q 5.515625 13.8125 5.515625 26.8125 
Q 5.515625 40.234375 12.765625 48.109375 
Q 20.015625 56 32.328125 56 
Q 43.359375 56 49.78125 48.890625 
Q 56.203125 41.796875 56.203125 29.59375 
z
M 47.21875 32.234375 
Q 47.125 39.59375 43.09375 43.984375 
Q 39.0625 48.390625 32.421875 48.390625 
Q 24.90625 48.390625 20.390625 44.140625 
Q 15.875 39.890625 15.1875 32.171875 
z
" id="DejaVuSans-101"/>
      </defs>
      <use xlink:href="#DejaVuSans-102"/>
      <use x="35.205078" xlink:href="#DejaVuSans-114"/>
      <use x="76.318359" xlink:href="#DejaVuSans-97"/>
      <use x="137.597656" xlink:href="#DejaVuSans-109"/>
      <use x="235.009766" xlink:href="#DejaVuSans-101"/>
     </g>
    </g>
   </g>
   <g id="matplotlib.axis_2">
    <g id="ytick_1">
     <g id="line2d_17">
      <path clip-path="url(#p5036ca9fa3)" d="M 108 663.274454 
L 698.4 663.274454 
" style="fill:none;stroke:#e6e6e6;stroke-linecap:square;stroke-width:0.8;"/>
     </g>
     <g id="line2d_18">
      <defs>
       <path d="M 0 0 
L -3.5 0 
" id="maf6dd5be18" style="stroke:#000000;stroke-width:0.8;"/>
      </defs>
      <g>
       <use style="stroke:#000000;stroke-width:0.8;" x="108" xlink:href="#maf6dd5be18" y="663.274454"/>
      </g>
     </g>
     <g id="text_10">
      <!-- 0.0 -->
      <g transform="translate(77.145313 668.973282)scale(0.15 -0.15)">
       <defs>
        <path d="M 10.6875 12.40625 
L 21 12.40625 
L 21 0 
L 10.6875 0 
z
" id="DejaVuSans-46"/>
       </defs>
       <use xlink:href="#DejaVuSans-48"/>
       <use x="63.623047" xlink:href="#DejaVuSans-46"/>
       <use x="95.410156" xlink:href="#DejaVuSans-48"/>
      </g>
     </g>
    </g>
    <g id="ytick_2">
     <g id="line2d_19">
      <path clip-path="url(#p5036ca9fa3)" d="M 108 589.033439 
L 698.4 589.033439 
" style="fill:none;stroke:#e6e6e6;stroke-linecap:square;stroke-width:0.8;"/>
     </g>
     <g id="line2d_20">
      <g>
       <use style="stroke:#000000;stroke-width:0.8;" x="108" xlink:href="#maf6dd5be18" y="589.033439"/>
      </g>
     </g>
     <g id="text_11">
      <!-- 0.1 -->
      <g transform="translate(77.145313 594.732267)scale(0.15 -0.15)">
       <use xlink:href="#DejaVuSans-48"/>
       <use x="63.623047" xlink:href="#DejaVuSans-46"/>
       <use x="95.410156" xlink:href="#DejaVuSans-49"/>
      </g>
     </g>
    </g>
    <g id="ytick_3">
     <g id="line2d_21">
      <path clip-path="url(#p5036ca9fa3)" d="M 108 514.792424 
L 698.4 514.792424 
" style="fill:none;stroke:#e6e6e6;stroke-linecap:square;stroke-width:0.8;"/>
     </g>
     <g id="line2d_22">
      <g>
       <use style="stroke:#000000;stroke-width:0.8;" x="108" xlink:href="#maf6dd5be18" y="514.792424"/>
      </g>
     </g>
     <g id="text_12">
      <!-- 0.2 -->
      <g transform="translate(77.145313 520.491252)scale(0.15 -0.15)">
       <use xlink:href="#DejaVuSans-48"/>
       <use x="63.623047" xlink:href="#DejaVuSans-46"/>
       <use x="95.410156" xlink:href="#DejaVuSans-50"/>
      </g>
     </g>
    </g>
    <g id="ytick_4">
     <g id="line2d_23">
      <path clip-path="url(#p5036ca9fa3)" d="M 108 440.551409 
L 698.4 440.551409 
" style="fill:none;stroke:#e6e6e6;stroke-linecap:square;stroke-width:0.8;"/>
     </g>
     <g id="line2d_24">
      <g>
       <use style="stroke:#000000;stroke-width:0.8;" x="108" xlink:href="#maf6dd5be18" y="440.551409"/>
      </g>
     </g>
     <g id="text_13">
      <!-- 0.3 -->
      <g transform="translate(77.145313 446.250237)scale(0.15 -0.15)">
       <use xlink:href="#DejaVuSans-48"/>
       <use x="63.623047" xlink:href="#DejaVuSans-46"/>
       <use x="95.410156" xlink:href="#DejaVuSans-51"/>
      </g>
     </g>
    </g>
    <g id="ytick_5">
     <g id="line2d_25">
      <path clip-path="url(#p5036ca9fa3)" d="M 108 366.310394 
L 698.4 366.310394 
" style="fill:none;stroke:#e6e6e6;stroke-linecap:square;stroke-width:0.8;"/>
     </g>
     <g id="line2d_26">
      <g>
       <use style="stroke:#000000;stroke-width:0.8;" x="108" xlink:href="#maf6dd5be18" y="366.310394"/>
      </g>
     </g>
     <g id="text_14">
      <!-- 0.4 -->
      <g transform="translate(77.145313 372.009222)scale(0.15 -0.15)">
       <use xlink:href="#DejaVuSans-48"/>
       <use x="63.623047" xlink:href="#DejaVuSans-46"/>
       <use x="95.410156" xlink:href="#DejaVuSans-52"/>
      </g>
     </g>
    </g>
    <g id="ytick_6">
     <g id="line2d_27">
      <path clip-path="url(#p5036ca9fa3)" d="M 108 292.069379 
L 698.4 292.069379 
" style="fill:none;stroke:#e6e6e6;stroke-linecap:square;stroke-width:0.8;"/>
     </g>
     <g id="line2d_28">
      <g>
       <use style="stroke:#000000;stroke-width:0.8;" x="108" xlink:href="#maf6dd5be18" y="292.069379"/>
      </g>
     </g>
     <g id="text_15">
      <!-- 0.5 -->
      <g transform="translate(77.145313 297.768207)scale(0.15 -0.15)">
       <use xlink:href="#DejaVuSans-48"/>
       <use x="63.623047" xlink:href="#DejaVuSans-46"/>
       <use x="95.410156" xlink:href="#DejaVuSans-53"/>
      </g>
     </g>
    </g>
    <g id="ytick_7">
     <g id="line2d_29">
      <path clip-path="url(#p5036ca9fa3)" d="M 108 217.828364 
L 698.4 217.828364 
" style="fill:none;stroke:#e6e6e6;stroke-linecap:square;stroke-width:0.8;"/>
     </g>
     <g id="line2d_30">
      <g>
       <use style="stroke:#000000;stroke-width:0.8;" x="108" xlink:href="#maf6dd5be18" y="217.828364"/>
      </g>
     </g>
     <g id="text_16">
      <!-- 0.6 -->
      <g transform="translate(77.145313 223.527192)scale(0.15 -0.15)">
       <use xlink:href="#DejaVuSans-48"/>
       <use x="63.623047" xlink:href="#DejaVuSans-46"/>
       <use x="95.410156" xlink:href="#DejaVuSans-54"/>
      </g>
     </g>
    </g>
    <g id="ytick_8">
     <g id="line2d_31">
      <path clip-path="url(#p5036ca9fa3)" d="M 108 143.587349 
L 698.4 143.587349 
" style="fill:none;stroke:#e6e6e6;stroke-linecap:square;stroke-width:0.8;"/>
     </g>
     <g id="line2d_32">
      <g>
       <use style="stroke:#000000;stroke-width:0.8;" x="108" xlink:href="#maf6dd5be18" y="143.587349"/>
      </g>
     </g>
     <g id="text_17">
      <!-- 0.7 -->
      <g transform="translate(77.145313 149.286177)scale(0.15 -0.15)">
       <use xlink:href="#DejaVuSans-48"/>
       <use x="63.623047" xlink:href="#DejaVuSans-46"/>
       <use x="95.410156" xlink:href="#DejaVuSans-55"/>
      </g>
     </g>
    </g>
    <g id="ytick_9">
     <g id="line2d_33">
      <path clip-path="url(#p5036ca9fa3)" d="M 108 69.346334 
L 698.4 69.346334 
" style="fill:none;stroke:#e6e6e6;stroke-linecap:square;stroke-width:0.8;"/>
     </g>
     <g id="line2d_34">
      <g>
       <use style="stroke:#000000;stroke-width:0.8;" x="108" xlink:href="#maf6dd5be18" y="69.346334"/>
      </g>
     </g>
     <g id="text_18">
      <!-- 0.8 -->
      <g transform="translate(77.145313 75.045162)scale(0.15 -0.15)">
       <defs>
        <path d="M 31.78125 34.625 
Q 24.75 34.625 20.71875 30.859375 
Q 16.703125 27.09375 16.703125 20.515625 
Q 16.703125 13.921875 20.71875 10.15625 
Q 24.75 6.390625 31.78125 6.390625 
Q 38.8125 6.390625 42.859375 10.171875 
Q 46.921875 13.96875 46.921875 20.515625 
Q 46.921875 27.09375 42.890625 30.859375 
Q 38.875 34.625 31.78125 34.625 
z
M 21.921875 38.8125 
Q 15.578125 40.375 12.03125 44.71875 
Q 8.5 49.078125 8.5 55.328125 
Q 8.5 64.0625 14.71875 69.140625 
Q 20.953125 74.21875 31.78125 74.21875 
Q 42.671875 74.21875 48.875 69.140625 
Q 55.078125 64.0625 55.078125 55.328125 
Q 55.078125 49.078125 51.53125 44.71875 
Q 48 40.375 41.703125 38.8125 
Q 48.828125 37.15625 52.796875 32.3125 
Q 56.78125 27.484375 56.78125 20.515625 
Q 56.78125 9.90625 50.3125 4.234375 
Q 43.84375 -1.421875 31.78125 -1.421875 
Q 19.734375 -1.421875 13.25 4.234375 
Q 6.78125 9.90625 6.78125 20.515625 
Q 6.78125 27.484375 10.78125 32.3125 
Q 14.796875 37.15625 21.921875 38.8125 
z
M 18.3125 54.390625 
Q 18.3125 48.734375 21.84375 45.5625 
Q 25.390625 42.390625 31.78125 42.390625 
Q 38.140625 42.390625 41.71875 45.5625 
Q 45.3125 48.734375 45.3125 54.390625 
Q 45.3125 60.0625 41.71875 63.234375 
Q 38.140625 66.40625 31.78125 66.40625 
Q 25.390625 66.40625 21.84375 63.234375 
Q 18.3125 60.0625 18.3125 54.390625 
z
" id="DejaVuSans-56"/>
       </defs>
       <use xlink:href="#DejaVuSans-48"/>
       <use x="63.623047" xlink:href="#DejaVuSans-46"/>
       <use x="95.410156" xlink:href="#DejaVuSans-56"/>
      </g>
     </g>
    </g>
    <g id="text_19">
     <!-- $I$ -->
     <g transform="translate(67.946094 392.55)rotate(-90)scale(0.25 -0.25)">
      <defs>
       <path d="M 16.890625 72.90625 
L 26.8125 72.90625 
L 12.59375 0 
L 2.6875 0 
z
" id="DejaVuSans-Oblique-73"/>
      </defs>
      <use transform="translate(0 0.09375)" xlink:href="#DejaVuSans-Oblique-73"/>
     </g>
    </g>
   </g>
   <g id="line2d_35">
    <path clip-path="url(#p5036ca9fa3)" d="M 159.233058 660.802801 
L 166.203542 660.740699 
L 173.174026 660.664347 
L 180.14451 660.602188 
L 187.114994 660.596189 
L 194.085478 660.618651 
L 201.055962 660.805247 
L 208.026446 661.147241 
L 214.99693 661.512791 
L 221.967414 661.89377 
L 228.937898 662.272919 
L 235.908383 662.475478 
L 242.878867 662.660831 
L 249.849351 662.833675 
L 256.819835 662.986064 
L 263.790319 663.112257 
L 270.760803 663.185208 
L 277.731287 663.234025 
L 284.701771 663.242996 
L 291.672255 663.209603 
L 298.642739 663.140053 
L 305.613223 662.871905 
L 312.583707 662.33041 
L 319.554191 661.488696 
L 326.524675 660.245008 
L 333.495159 658.552163 
L 340.465643 656.67978 
L 347.436128 654.484553 
L 354.406612 651.941564 
L 361.377096 649.097201 
L 368.34758 646.243912 
L 375.318064 645.462281 
L 382.288548 645.127688 
L 389.259032 644.874414 
L 396.229516 644.849715 
L 403.2 644.69185 
L 410.170484 639.591677 
L 417.140968 633.937713 
L 424.111452 629.127099 
L 431.081936 624.744352 
L 438.05242 621.320647 
L 445.022904 618.626857 
L 451.993388 615.940919 
L 458.963872 613.438016 
L 465.934357 611.560488 
L 472.904841 610.872128 
L 479.875325 610.923785 
L 486.845809 611.154173 
L 493.816293 611.519859 
L 500.786777 611.93568 
L 507.757261 612.426178 
L 514.727745 613.164323 
L 521.698229 613.805166 
L 528.668713 615.592055 
L 535.639197 617.936269 
L 542.609681 620.884531 
L 549.580165 625.037428 
L 556.550649 628.639033 
L 563.521133 631.893978 
L 570.491617 635.359723 
L 577.462102 638.363066 
L 584.432586 640.260661 
L 591.40307 642.101885 
L 598.373554 644.055132 
L 605.344038 646.034239 
L 612.314522 647.968875 
L 619.285006 649.351981 
L 626.25549 650.615683 
L 633.225974 651.778283 
L 640.196458 652.82084 
L 647.166942 653.699091 
" style="fill:none;stroke:#f98e52;stroke-linecap:square;stroke-width:2;"/>
    <defs>
     <path d="M 0 2.5 
C 0.663008 2.5 1.29895 2.236584 1.767767 1.767767 
C 2.236584 1.29895 2.5 0.663008 2.5 0 
C 2.5 -0.663008 2.236584 -1.29895 1.767767 -1.767767 
C 1.29895 -2.236584 0.663008 -2.5 0 -2.5 
C -0.663008 -2.5 -1.29895 -2.236584 -1.767767 -1.767767 
C -2.236584 -1.29895 -2.5 -0.663008 -2.5 0 
C -2.5 0.663008 -2.236584 1.29895 -1.767767 1.767767 
C -1.29895 2.236584 -0.663008 2.5 0 2.5 
z
" id="m111a554de0" style="stroke:#f98e52;"/>
    </defs>
    <g clip-path="url(#p5036ca9fa3)">
     <use style="fill:#f98e52;stroke:#f98e52;" x="159.233058" xlink:href="#m111a554de0" y="660.802801"/>
     <use style="fill:#f98e52;stroke:#f98e52;" x="166.203542" xlink:href="#m111a554de0" y="660.740699"/>
     <use style="fill:#f98e52;stroke:#f98e52;" x="173.174026" xlink:href="#m111a554de0" y="660.664347"/>
     <use style="fill:#f98e52;stroke:#f98e52;" x="180.14451" xlink:href="#m111a554de0" y="660.602188"/>
     <use style="fill:#f98e52;stroke:#f98e52;" x="187.114994" xlink:href="#m111a554de0" y="660.596189"/>
     <use style="fill:#f98e52;stroke:#f98e52;" x="194.085478" xlink:href="#m111a554de0" y="660.618651"/>
     <use style="fill:#f98e52;stroke:#f98e52;" x="201.055962" xlink:href="#m111a554de0" y="660.805247"/>
     <use style="fill:#f98e52;stroke:#f98e52;" x="208.026446" xlink:href="#m111a554de0" y="661.147241"/>
     <use style="fill:#f98e52;stroke:#f98e52;" x="214.99693" xlink:href="#m111a554de0" y="661.512791"/>
     <use style="fill:#f98e52;stroke:#f98e52;" x="221.967414" xlink:href="#m111a554de0" y="661.89377"/>
     <use style="fill:#f98e52;stroke:#f98e52;" x="228.937898" xlink:href="#m111a554de0" y="662.272919"/>
     <use style="fill:#f98e52;stroke:#f98e52;" x="235.908383" xlink:href="#m111a554de0" y="662.475478"/>
     <use style="fill:#f98e52;stroke:#f98e52;" x="242.878867" xlink:href="#m111a554de0" y="662.660831"/>
     <use style="fill:#f98e52;stroke:#f98e52;" x="249.849351" xlink:href="#m111a554de0" y="662.833675"/>
     <use style="fill:#f98e52;stroke:#f98e52;" x="256.819835" xlink:href="#m111a554de0" y="662.986064"/>
     <use style="fill:#f98e52;stroke:#f98e52;" x="263.790319" xlink:href="#m111a554de0" y="663.112257"/>
     <use style="fill:#f98e52;stroke:#f98e52;" x="270.760803" xlink:href="#m111a554de0" y="663.185208"/>
     <use style="fill:#f98e52;stroke:#f98e52;" x="277.731287" xlink:href="#m111a554de0" y="663.234025"/>
     <use style="fill:#f98e52;stroke:#f98e52;" x="284.701771" xlink:href="#m111a554de0" y="663.242996"/>
     <use style="fill:#f98e52;stroke:#f98e52;" x="291.672255" xlink:href="#m111a554de0" y="663.209603"/>
     <use style="fill:#f98e52;stroke:#f98e52;" x="298.642739" xlink:href="#m111a554de0" y="663.140053"/>
     <use style="fill:#f98e52;stroke:#f98e52;" x="305.613223" xlink:href="#m111a554de0" y="662.871905"/>
     <use style="fill:#f98e52;stroke:#f98e52;" x="312.583707" xlink:href="#m111a554de0" y="662.33041"/>
     <use style="fill:#f98e52;stroke:#f98e52;" x="319.554191" xlink:href="#m111a554de0" y="661.488696"/>
     <use style="fill:#f98e52;stroke:#f98e52;" x="326.524675" xlink:href="#m111a554de0" y="660.245008"/>
     <use style="fill:#f98e52;stroke:#f98e52;" x="333.495159" xlink:href="#m111a554de0" y="658.552163"/>
     <use style="fill:#f98e52;stroke:#f98e52;" x="340.465643" xlink:href="#m111a554de0" y="656.67978"/>
     <use style="fill:#f98e52;stroke:#f98e52;" x="347.436128" xlink:href="#m111a554de0" y="654.484553"/>
     <use style="fill:#f98e52;stroke:#f98e52;" x="354.406612" xlink:href="#m111a554de0" y="651.941564"/>
     <use style="fill:#f98e52;stroke:#f98e52;" x="361.377096" xlink:href="#m111a554de0" y="649.097201"/>
     <use style="fill:#f98e52;stroke:#f98e52;" x="368.34758" xlink:href="#m111a554de0" y="646.243912"/>
     <use style="fill:#f98e52;stroke:#f98e52;" x="375.318064" xlink:href="#m111a554de0" y="645.462281"/>
     <use style="fill:#f98e52;stroke:#f98e52;" x="382.288548" xlink:href="#m111a554de0" y="645.127688"/>
     <use style="fill:#f98e52;stroke:#f98e52;" x="389.259032" xlink:href="#m111a554de0" y="644.874414"/>
     <use style="fill:#f98e52;stroke:#f98e52;" x="396.229516" xlink:href="#m111a554de0" y="644.849715"/>
     <use style="fill:#f98e52;stroke:#f98e52;" x="403.2" xlink:href="#m111a554de0" y="644.69185"/>
     <use style="fill:#f98e52;stroke:#f98e52;" x="410.170484" xlink:href="#m111a554de0" y="639.591677"/>
     <use style="fill:#f98e52;stroke:#f98e52;" x="417.140968" xlink:href="#m111a554de0" y="633.937713"/>
     <use style="fill:#f98e52;stroke:#f98e52;" x="424.111452" xlink:href="#m111a554de0" y="629.127099"/>
     <use style="fill:#f98e52;stroke:#f98e52;" x="431.081936" xlink:href="#m111a554de0" y="624.744352"/>
     <use style="fill:#f98e52;stroke:#f98e52;" x="438.05242" xlink:href="#m111a554de0" y="621.320647"/>
     <use style="fill:#f98e52;stroke:#f98e52;" x="445.022904" xlink:href="#m111a554de0" y="618.626857"/>
     <use style="fill:#f98e52;stroke:#f98e52;" x="451.993388" xlink:href="#m111a554de0" y="615.940919"/>
     <use style="fill:#f98e52;stroke:#f98e52;" x="458.963872" xlink:href="#m111a554de0" y="613.438016"/>
     <use style="fill:#f98e52;stroke:#f98e52;" x="465.934357" xlink:href="#m111a554de0" y="611.560488"/>
     <use style="fill:#f98e52;stroke:#f98e52;" x="472.904841" xlink:href="#m111a554de0" y="610.872128"/>
     <use style="fill:#f98e52;stroke:#f98e52;" x="479.875325" xlink:href="#m111a554de0" y="610.923785"/>
     <use style="fill:#f98e52;stroke:#f98e52;" x="486.845809" xlink:href="#m111a554de0" y="611.154173"/>
     <use style="fill:#f98e52;stroke:#f98e52;" x="493.816293" xlink:href="#m111a554de0" y="611.519859"/>
     <use style="fill:#f98e52;stroke:#f98e52;" x="500.786777" xlink:href="#m111a554de0" y="611.93568"/>
     <use style="fill:#f98e52;stroke:#f98e52;" x="507.757261" xlink:href="#m111a554de0" y="612.426178"/>
     <use style="fill:#f98e52;stroke:#f98e52;" x="514.727745" xlink:href="#m111a554de0" y="613.164323"/>
     <use style="fill:#f98e52;stroke:#f98e52;" x="521.698229" xlink:href="#m111a554de0" y="613.805166"/>
     <use style="fill:#f98e52;stroke:#f98e52;" x="528.668713" xlink:href="#m111a554de0" y="615.592055"/>
     <use style="fill:#f98e52;stroke:#f98e52;" x="535.639197" xlink:href="#m111a554de0" y="617.936269"/>
     <use style="fill:#f98e52;stroke:#f98e52;" x="542.609681" xlink:href="#m111a554de0" y="620.884531"/>
     <use style="fill:#f98e52;stroke:#f98e52;" x="549.580165" xlink:href="#m111a554de0" y="625.037428"/>
     <use style="fill:#f98e52;stroke:#f98e52;" x="556.550649" xlink:href="#m111a554de0" y="628.639033"/>
     <use style="fill:#f98e52;stroke:#f98e52;" x="563.521133" xlink:href="#m111a554de0" y="631.893978"/>
     <use style="fill:#f98e52;stroke:#f98e52;" x="570.491617" xlink:href="#m111a554de0" y="635.359723"/>
     <use style="fill:#f98e52;stroke:#f98e52;" x="577.462102" xlink:href="#m111a554de0" y="638.363066"/>
     <use style="fill:#f98e52;stroke:#f98e52;" x="584.432586" xlink:href="#m111a554de0" y="640.260661"/>
     <use style="fill:#f98e52;stroke:#f98e52;" x="591.40307" xlink:href="#m111a554de0" y="642.101885"/>
     <use style="fill:#f98e52;stroke:#f98e52;" x="598.373554" xlink:href="#m111a554de0" y="644.055132"/>
     <use style="fill:#f98e52;stroke:#f98e52;" x="605.344038" xlink:href="#m111a554de0" y="646.034239"/>
     <use style="fill:#f98e52;stroke:#f98e52;" x="612.314522" xlink:href="#m111a554de0" y="647.968875"/>
     <use style="fill:#f98e52;stroke:#f98e52;" x="619.285006" xlink:href="#m111a554de0" y="649.351981"/>
     <use style="fill:#f98e52;stroke:#f98e52;" x="626.25549" xlink:href="#m111a554de0" y="650.615683"/>
     <use style="fill:#f98e52;stroke:#f98e52;" x="633.225974" xlink:href="#m111a554de0" y="651.778283"/>
     <use style="fill:#f98e52;stroke:#f98e52;" x="640.196458" xlink:href="#m111a554de0" y="652.82084"/>
     <use style="fill:#f98e52;stroke:#f98e52;" x="647.166942" xlink:href="#m111a554de0" y="653.699091"/>
    </g>
   </g>
   <g id="line2d_36">
    <path clip-path="url(#p5036ca9fa3)" d="M 159.233058 662.558979 
L 166.203542 662.418094 
L 173.174026 662.257849 
L 180.14451 661.90509 
L 187.114994 661.643018 
L 194.085478 661.468216 
L 201.055962 661.186114 
L 208.026446 660.789957 
L 214.99693 660.197704 
L 221.967414 660.063302 
L 228.937898 659.835014 
L 235.908383 659.311146 
L 242.878867 659.483274 
L 249.849351 660.215007 
L 256.819835 661.057255 
L 263.790319 661.862323 
L 270.760803 662.47106 
L 277.731287 662.826149 
L 284.701771 662.836706 
L 291.672255 662.772081 
L 298.642739 662.883535 
L 305.613223 662.694572 
L 312.583707 661.68702 
L 319.554191 659.878833 
L 326.524675 657.644178 
L 333.495159 655.038906 
L 340.465643 652.435287 
L 347.436128 651.584698 
L 354.406612 652.448162 
L 361.377096 654.165189 
L 368.34758 656.485833 
L 375.318064 657.151567 
L 382.288548 657.452261 
L 389.259032 657.200477 
L 396.229516 657.44848 
L 403.2 659.275278 
L 410.170484 662.791118 
L 417.140968 659.048295 
L 424.111452 643.966263 
L 431.081936 619.970241 
L 438.05242 590.191181 
L 445.022904 563.784017 
L 451.993388 542.653827 
L 458.963872 517.7248 
L 465.934357 485.928548 
L 472.904841 477.895805 
L 479.875325 478.767589 
L 486.845809 485.673635 
L 493.816293 494.269841 
L 500.786777 503.924876 
L 507.757261 513.873089 
L 514.727745 535.371914 
L 521.698229 544.538213 
L 528.668713 557.965033 
L 535.639197 581.565957 
L 542.609681 610.497412 
L 549.580165 638.620881 
L 556.550649 649.135834 
L 563.521133 653.433581 
L 570.491617 659.412246 
L 577.462102 661.836965 
L 584.432586 662.071843 
L 591.40307 662.026316 
L 598.373554 661.660159 
L 605.344038 661.114755 
L 612.314522 660.316623 
L 619.285006 659.999432 
L 626.25549 658.937485 
L 633.225974 656.634741 
L 640.196458 653.587591 
L 647.166942 650.865939 
" style="fill:none;stroke:#ffffbe;stroke-linecap:square;stroke-width:2;"/>
    <defs>
     <path d="M 0 2.5 
C 0.663008 2.5 1.29895 2.236584 1.767767 1.767767 
C 2.236584 1.29895 2.5 0.663008 2.5 0 
C 2.5 -0.663008 2.236584 -1.29895 1.767767 -1.767767 
C 1.29895 -2.236584 0.663008 -2.5 0 -2.5 
C -0.663008 -2.5 -1.29895 -2.236584 -1.767767 -1.767767 
C -2.236584 -1.29895 -2.5 -0.663008 -2.5 0 
C -2.5 0.663008 -2.236584 1.29895 -1.767767 1.767767 
C -1.29895 2.236584 -0.663008 2.5 0 2.5 
z
" id="mab52aaca04" style="stroke:#ffffbe;"/>
    </defs>
    <g clip-path="url(#p5036ca9fa3)">
     <use style="fill:#ffffbe;stroke:#ffffbe;" x="159.233058" xlink:href="#mab52aaca04" y="662.558979"/>
     <use style="fill:#ffffbe;stroke:#ffffbe;" x="166.203542" xlink:href="#mab52aaca04" y="662.418094"/>
     <use style="fill:#ffffbe;stroke:#ffffbe;" x="173.174026" xlink:href="#mab52aaca04" y="662.257849"/>
     <use style="fill:#ffffbe;stroke:#ffffbe;" x="180.14451" xlink:href="#mab52aaca04" y="661.90509"/>
     <use style="fill:#ffffbe;stroke:#ffffbe;" x="187.114994" xlink:href="#mab52aaca04" y="661.643018"/>
     <use style="fill:#ffffbe;stroke:#ffffbe;" x="194.085478" xlink:href="#mab52aaca04" y="661.468216"/>
     <use style="fill:#ffffbe;stroke:#ffffbe;" x="201.055962" xlink:href="#mab52aaca04" y="661.186114"/>
     <use style="fill:#ffffbe;stroke:#ffffbe;" x="208.026446" xlink:href="#mab52aaca04" y="660.789957"/>
     <use style="fill:#ffffbe;stroke:#ffffbe;" x="214.99693" xlink:href="#mab52aaca04" y="660.197704"/>
     <use style="fill:#ffffbe;stroke:#ffffbe;" x="221.967414" xlink:href="#mab52aaca04" y="660.063302"/>
     <use style="fill:#ffffbe;stroke:#ffffbe;" x="228.937898" xlink:href="#mab52aaca04" y="659.835014"/>
     <use style="fill:#ffffbe;stroke:#ffffbe;" x="235.908383" xlink:href="#mab52aaca04" y="659.311146"/>
     <use style="fill:#ffffbe;stroke:#ffffbe;" x="242.878867" xlink:href="#mab52aaca04" y="659.483274"/>
     <use style="fill:#ffffbe;stroke:#ffffbe;" x="249.849351" xlink:href="#mab52aaca04" y="660.215007"/>
     <use style="fill:#ffffbe;stroke:#ffffbe;" x="256.819835" xlink:href="#mab52aaca04" y="661.057255"/>
     <use style="fill:#ffffbe;stroke:#ffffbe;" x="263.790319" xlink:href="#mab52aaca04" y="661.862323"/>
     <use style="fill:#ffffbe;stroke:#ffffbe;" x="270.760803" xlink:href="#mab52aaca04" y="662.47106"/>
     <use style="fill:#ffffbe;stroke:#ffffbe;" x="277.731287" xlink:href="#mab52aaca04" y="662.826149"/>
     <use style="fill:#ffffbe;stroke:#ffffbe;" x="284.701771" xlink:href="#mab52aaca04" y="662.836706"/>
     <use style="fill:#ffffbe;stroke:#ffffbe;" x="291.672255" xlink:href="#mab52aaca04" y="662.772081"/>
     <use style="fill:#ffffbe;stroke:#ffffbe;" x="298.642739" xlink:href="#mab52aaca04" y="662.883535"/>
     <use style="fill:#ffffbe;stroke:#ffffbe;" x="305.613223" xlink:href="#mab52aaca04" y="662.694572"/>
     <use style="fill:#ffffbe;stroke:#ffffbe;" x="312.583707" xlink:href="#mab52aaca04" y="661.68702"/>
     <use style="fill:#ffffbe;stroke:#ffffbe;" x="319.554191" xlink:href="#mab52aaca04" y="659.878833"/>
     <use style="fill:#ffffbe;stroke:#ffffbe;" x="326.524675" xlink:href="#mab52aaca04" y="657.644178"/>
     <use style="fill:#ffffbe;stroke:#ffffbe;" x="333.495159" xlink:href="#mab52aaca04" y="655.038906"/>
     <use style="fill:#ffffbe;stroke:#ffffbe;" x="340.465643" xlink:href="#mab52aaca04" y="652.435287"/>
     <use style="fill:#ffffbe;stroke:#ffffbe;" x="347.436128" xlink:href="#mab52aaca04" y="651.584698"/>
     <use style="fill:#ffffbe;stroke:#ffffbe;" x="354.406612" xlink:href="#mab52aaca04" y="652.448162"/>
     <use style="fill:#ffffbe;stroke:#ffffbe;" x="361.377096" xlink:href="#mab52aaca04" y="654.165189"/>
     <use style="fill:#ffffbe;stroke:#ffffbe;" x="368.34758" xlink:href="#mab52aaca04" y="656.485833"/>
     <use style="fill:#ffffbe;stroke:#ffffbe;" x="375.318064" xlink:href="#mab52aaca04" y="657.151567"/>
     <use style="fill:#ffffbe;stroke:#ffffbe;" x="382.288548" xlink:href="#mab52aaca04" y="657.452261"/>
     <use style="fill:#ffffbe;stroke:#ffffbe;" x="389.259032" xlink:href="#mab52aaca04" y="657.200477"/>
     <use style="fill:#ffffbe;stroke:#ffffbe;" x="396.229516" xlink:href="#mab52aaca04" y="657.44848"/>
     <use style="fill:#ffffbe;stroke:#ffffbe;" x="403.2" xlink:href="#mab52aaca04" y="659.275278"/>
     <use style="fill:#ffffbe;stroke:#ffffbe;" x="410.170484" xlink:href="#mab52aaca04" y="662.791118"/>
     <use style="fill:#ffffbe;stroke:#ffffbe;" x="417.140968" xlink:href="#mab52aaca04" y="659.048295"/>
     <use style="fill:#ffffbe;stroke:#ffffbe;" x="424.111452" xlink:href="#mab52aaca04" y="643.966263"/>
     <use style="fill:#ffffbe;stroke:#ffffbe;" x="431.081936" xlink:href="#mab52aaca04" y="619.970241"/>
     <use style="fill:#ffffbe;stroke:#ffffbe;" x="438.05242" xlink:href="#mab52aaca04" y="590.191181"/>
     <use style="fill:#ffffbe;stroke:#ffffbe;" x="445.022904" xlink:href="#mab52aaca04" y="563.784017"/>
     <use style="fill:#ffffbe;stroke:#ffffbe;" x="451.993388" xlink:href="#mab52aaca04" y="542.653827"/>
     <use style="fill:#ffffbe;stroke:#ffffbe;" x="458.963872" xlink:href="#mab52aaca04" y="517.7248"/>
     <use style="fill:#ffffbe;stroke:#ffffbe;" x="465.934357" xlink:href="#mab52aaca04" y="485.928548"/>
     <use style="fill:#ffffbe;stroke:#ffffbe;" x="472.904841" xlink:href="#mab52aaca04" y="477.895805"/>
     <use style="fill:#ffffbe;stroke:#ffffbe;" x="479.875325" xlink:href="#mab52aaca04" y="478.767589"/>
     <use style="fill:#ffffbe;stroke:#ffffbe;" x="486.845809" xlink:href="#mab52aaca04" y="485.673635"/>
     <use style="fill:#ffffbe;stroke:#ffffbe;" x="493.816293" xlink:href="#mab52aaca04" y="494.269841"/>
     <use style="fill:#ffffbe;stroke:#ffffbe;" x="500.786777" xlink:href="#mab52aaca04" y="503.924876"/>
     <use style="fill:#ffffbe;stroke:#ffffbe;" x="507.757261" xlink:href="#mab52aaca04" y="513.873089"/>
     <use style="fill:#ffffbe;stroke:#ffffbe;" x="514.727745" xlink:href="#mab52aaca04" y="535.371914"/>
     <use style="fill:#ffffbe;stroke:#ffffbe;" x="521.698229" xlink:href="#mab52aaca04" y="544.538213"/>
     <use style="fill:#ffffbe;stroke:#ffffbe;" x="528.668713" xlink:href="#mab52aaca04" y="557.965033"/>
     <use style="fill:#ffffbe;stroke:#ffffbe;" x="535.639197" xlink:href="#mab52aaca04" y="581.565957"/>
     <use style="fill:#ffffbe;stroke:#ffffbe;" x="542.609681" xlink:href="#mab52aaca04" y="610.497412"/>
     <use style="fill:#ffffbe;stroke:#ffffbe;" x="549.580165" xlink:href="#mab52aaca04" y="638.620881"/>
     <use style="fill:#ffffbe;stroke:#ffffbe;" x="556.550649" xlink:href="#mab52aaca04" y="649.135834"/>
     <use style="fill:#ffffbe;stroke:#ffffbe;" x="563.521133" xlink:href="#mab52aaca04" y="653.433581"/>
     <use style="fill:#ffffbe;stroke:#ffffbe;" x="570.491617" xlink:href="#mab52aaca04" y="659.412246"/>
     <use style="fill:#ffffbe;stroke:#ffffbe;" x="577.462102" xlink:href="#mab52aaca04" y="661.836965"/>
     <use style="fill:#ffffbe;stroke:#ffffbe;" x="584.432586" xlink:href="#mab52aaca04" y="662.071843"/>
     <use style="fill:#ffffbe;stroke:#ffffbe;" x="591.40307" xlink:href="#mab52aaca04" y="662.026316"/>
     <use style="fill:#ffffbe;stroke:#ffffbe;" x="598.373554" xlink:href="#mab52aaca04" y="661.660159"/>
     <use style="fill:#ffffbe;stroke:#ffffbe;" x="605.344038" xlink:href="#mab52aaca04" y="661.114755"/>
     <use style="fill:#ffffbe;stroke:#ffffbe;" x="612.314522" xlink:href="#mab52aaca04" y="660.316623"/>
     <use style="fill:#ffffbe;stroke:#ffffbe;" x="619.285006" xlink:href="#mab52aaca04" y="659.999432"/>
     <use style="fill:#ffffbe;stroke:#ffffbe;" x="626.25549" xlink:href="#mab52aaca04" y="658.937485"/>
     <use style="fill:#ffffbe;stroke:#ffffbe;" x="633.225974" xlink:href="#mab52aaca04" y="656.634741"/>
     <use style="fill:#ffffbe;stroke:#ffffbe;" x="640.196458" xlink:href="#mab52aaca04" y="653.587591"/>
     <use style="fill:#ffffbe;stroke:#ffffbe;" x="647.166942" xlink:href="#mab52aaca04" y="650.865939"/>
    </g>
   </g>
   <g id="line2d_37">
    <path clip-path="url(#p5036ca9fa3)" d="M 159.233058 662.108381 
L 166.203542 662.572222 
L 173.174026 662.569911 
L 180.14451 662.65477 
L 187.114994 662.765297 
L 194.085478 662.820839 
L 201.055962 663.113508 
L 208.026446 662.845796 
L 214.99693 661.747496 
L 221.967414 660.366441 
L 228.937898 659.31126 
L 235.908383 658.708362 
L 242.878867 658.230712 
L 249.849351 658.815643 
L 256.819835 659.902505 
L 263.790319 660.278986 
L 270.760803 660.588187 
L 277.731287 662.014944 
L 284.701771 662.728934 
L 291.672255 662.739714 
L 298.642739 662.711845 
L 305.613223 662.561487 
L 312.583707 660.59506 
L 319.554191 658.755628 
L 326.524675 657.368583 
L 333.495159 658.906464 
L 340.465643 660.749689 
L 347.436128 661.59344 
L 354.406612 662.508674 
L 361.377096 663.096753 
L 368.34758 661.461084 
L 375.318064 658.792871 
L 382.288548 657.724919 
L 389.259032 657.507882 
L 396.229516 657.108612 
L 403.2 658.110735 
L 410.170484 650.446535 
L 417.140968 654.332361 
L 424.111452 662.406163 
L 431.081936 658.237418 
L 438.05242 642.771564 
L 445.022904 613.223561 
L 451.993388 561.12234 
L 458.963872 463.513342 
L 465.934357 337.94717 
L 472.904841 280.751495 
L 479.875325 274.769749 
L 486.845809 288.661794 
L 493.816293 317.471555 
L 500.786777 358.109144 
L 507.757261 405.892209 
L 514.727745 494.442081 
L 521.698229 560.276415 
L 528.668713 596.754035 
L 535.639197 634.892204 
L 542.609681 653.007959 
L 549.580165 655.756443 
L 556.550649 653.718523 
L 563.521133 652.349106 
L 570.491617 648.010316 
L 577.462102 649.817847 
L 584.432586 651.417525 
L 591.40307 651.83717 
L 598.373554 652.094252 
L 605.344038 653.339387 
L 612.314522 656.26972 
L 619.285006 657.652809 
L 626.25549 660.925275 
L 633.225974 662.936726 
L 640.196458 662.510716 
L 647.166942 661.799741 
" style="fill:none;stroke:#86cfa5;stroke-linecap:square;stroke-width:2;"/>
    <defs>
     <path d="M 0 2.5 
C 0.663008 2.5 1.29895 2.236584 1.767767 1.767767 
C 2.236584 1.29895 2.5 0.663008 2.5 0 
C 2.5 -0.663008 2.236584 -1.29895 1.767767 -1.767767 
C 1.29895 -2.236584 0.663008 -2.5 0 -2.5 
C -0.663008 -2.5 -1.29895 -2.236584 -1.767767 -1.767767 
C -2.236584 -1.29895 -2.5 -0.663008 -2.5 0 
C -2.5 0.663008 -2.236584 1.29895 -1.767767 1.767767 
C -1.29895 2.236584 -0.663008 2.5 0 2.5 
z
" id="m5cdb1a9d74" style="stroke:#86cfa5;"/>
    </defs>
    <g clip-path="url(#p5036ca9fa3)">
     <use style="fill:#86cfa5;stroke:#86cfa5;" x="159.233058" xlink:href="#m5cdb1a9d74" y="662.108381"/>
     <use style="fill:#86cfa5;stroke:#86cfa5;" x="166.203542" xlink:href="#m5cdb1a9d74" y="662.572222"/>
     <use style="fill:#86cfa5;stroke:#86cfa5;" x="173.174026" xlink:href="#m5cdb1a9d74" y="662.569911"/>
     <use style="fill:#86cfa5;stroke:#86cfa5;" x="180.14451" xlink:href="#m5cdb1a9d74" y="662.65477"/>
     <use style="fill:#86cfa5;stroke:#86cfa5;" x="187.114994" xlink:href="#m5cdb1a9d74" y="662.765297"/>
     <use style="fill:#86cfa5;stroke:#86cfa5;" x="194.085478" xlink:href="#m5cdb1a9d74" y="662.820839"/>
     <use style="fill:#86cfa5;stroke:#86cfa5;" x="201.055962" xlink:href="#m5cdb1a9d74" y="663.113508"/>
     <use style="fill:#86cfa5;stroke:#86cfa5;" x="208.026446" xlink:href="#m5cdb1a9d74" y="662.845796"/>
     <use style="fill:#86cfa5;stroke:#86cfa5;" x="214.99693" xlink:href="#m5cdb1a9d74" y="661.747496"/>
     <use style="fill:#86cfa5;stroke:#86cfa5;" x="221.967414" xlink:href="#m5cdb1a9d74" y="660.366441"/>
     <use style="fill:#86cfa5;stroke:#86cfa5;" x="228.937898" xlink:href="#m5cdb1a9d74" y="659.31126"/>
     <use style="fill:#86cfa5;stroke:#86cfa5;" x="235.908383" xlink:href="#m5cdb1a9d74" y="658.708362"/>
     <use style="fill:#86cfa5;stroke:#86cfa5;" x="242.878867" xlink:href="#m5cdb1a9d74" y="658.230712"/>
     <use style="fill:#86cfa5;stroke:#86cfa5;" x="249.849351" xlink:href="#m5cdb1a9d74" y="658.815643"/>
     <use style="fill:#86cfa5;stroke:#86cfa5;" x="256.819835" xlink:href="#m5cdb1a9d74" y="659.902505"/>
     <use style="fill:#86cfa5;stroke:#86cfa5;" x="263.790319" xlink:href="#m5cdb1a9d74" y="660.278986"/>
     <use style="fill:#86cfa5;stroke:#86cfa5;" x="270.760803" xlink:href="#m5cdb1a9d74" y="660.588187"/>
     <use style="fill:#86cfa5;stroke:#86cfa5;" x="277.731287" xlink:href="#m5cdb1a9d74" y="662.014944"/>
     <use style="fill:#86cfa5;stroke:#86cfa5;" x="284.701771" xlink:href="#m5cdb1a9d74" y="662.728934"/>
     <use style="fill:#86cfa5;stroke:#86cfa5;" x="291.672255" xlink:href="#m5cdb1a9d74" y="662.739714"/>
     <use style="fill:#86cfa5;stroke:#86cfa5;" x="298.642739" xlink:href="#m5cdb1a9d74" y="662.711845"/>
     <use style="fill:#86cfa5;stroke:#86cfa5;" x="305.613223" xlink:href="#m5cdb1a9d74" y="662.561487"/>
     <use style="fill:#86cfa5;stroke:#86cfa5;" x="312.583707" xlink:href="#m5cdb1a9d74" y="660.59506"/>
     <use style="fill:#86cfa5;stroke:#86cfa5;" x="319.554191" xlink:href="#m5cdb1a9d74" y="658.755628"/>
     <use style="fill:#86cfa5;stroke:#86cfa5;" x="326.524675" xlink:href="#m5cdb1a9d74" y="657.368583"/>
     <use style="fill:#86cfa5;stroke:#86cfa5;" x="333.495159" xlink:href="#m5cdb1a9d74" y="658.906464"/>
     <use style="fill:#86cfa5;stroke:#86cfa5;" x="340.465643" xlink:href="#m5cdb1a9d74" y="660.749689"/>
     <use style="fill:#86cfa5;stroke:#86cfa5;" x="347.436128" xlink:href="#m5cdb1a9d74" y="661.59344"/>
     <use style="fill:#86cfa5;stroke:#86cfa5;" x="354.406612" xlink:href="#m5cdb1a9d74" y="662.508674"/>
     <use style="fill:#86cfa5;stroke:#86cfa5;" x="361.377096" xlink:href="#m5cdb1a9d74" y="663.096753"/>
     <use style="fill:#86cfa5;stroke:#86cfa5;" x="368.34758" xlink:href="#m5cdb1a9d74" y="661.461084"/>
     <use style="fill:#86cfa5;stroke:#86cfa5;" x="375.318064" xlink:href="#m5cdb1a9d74" y="658.792871"/>
     <use style="fill:#86cfa5;stroke:#86cfa5;" x="382.288548" xlink:href="#m5cdb1a9d74" y="657.724919"/>
     <use style="fill:#86cfa5;stroke:#86cfa5;" x="389.259032" xlink:href="#m5cdb1a9d74" y="657.507882"/>
     <use style="fill:#86cfa5;stroke:#86cfa5;" x="396.229516" xlink:href="#m5cdb1a9d74" y="657.108612"/>
     <use style="fill:#86cfa5;stroke:#86cfa5;" x="403.2" xlink:href="#m5cdb1a9d74" y="658.110735"/>
     <use style="fill:#86cfa5;stroke:#86cfa5;" x="410.170484" xlink:href="#m5cdb1a9d74" y="650.446535"/>
     <use style="fill:#86cfa5;stroke:#86cfa5;" x="417.140968" xlink:href="#m5cdb1a9d74" y="654.332361"/>
     <use style="fill:#86cfa5;stroke:#86cfa5;" x="424.111452" xlink:href="#m5cdb1a9d74" y="662.406163"/>
     <use style="fill:#86cfa5;stroke:#86cfa5;" x="431.081936" xlink:href="#m5cdb1a9d74" y="658.237418"/>
     <use style="fill:#86cfa5;stroke:#86cfa5;" x="438.05242" xlink:href="#m5cdb1a9d74" y="642.771564"/>
     <use style="fill:#86cfa5;stroke:#86cfa5;" x="445.022904" xlink:href="#m5cdb1a9d74" y="613.223561"/>
     <use style="fill:#86cfa5;stroke:#86cfa5;" x="451.993388" xlink:href="#m5cdb1a9d74" y="561.12234"/>
     <use style="fill:#86cfa5;stroke:#86cfa5;" x="458.963872" xlink:href="#m5cdb1a9d74" y="463.513342"/>
     <use style="fill:#86cfa5;stroke:#86cfa5;" x="465.934357" xlink:href="#m5cdb1a9d74" y="337.94717"/>
     <use style="fill:#86cfa5;stroke:#86cfa5;" x="472.904841" xlink:href="#m5cdb1a9d74" y="280.751495"/>
     <use style="fill:#86cfa5;stroke:#86cfa5;" x="479.875325" xlink:href="#m5cdb1a9d74" y="274.769749"/>
     <use style="fill:#86cfa5;stroke:#86cfa5;" x="486.845809" xlink:href="#m5cdb1a9d74" y="288.661794"/>
     <use style="fill:#86cfa5;stroke:#86cfa5;" x="493.816293" xlink:href="#m5cdb1a9d74" y="317.471555"/>
     <use style="fill:#86cfa5;stroke:#86cfa5;" x="500.786777" xlink:href="#m5cdb1a9d74" y="358.109144"/>
     <use style="fill:#86cfa5;stroke:#86cfa5;" x="507.757261" xlink:href="#m5cdb1a9d74" y="405.892209"/>
     <use style="fill:#86cfa5;stroke:#86cfa5;" x="514.727745" xlink:href="#m5cdb1a9d74" y="494.442081"/>
     <use style="fill:#86cfa5;stroke:#86cfa5;" x="521.698229" xlink:href="#m5cdb1a9d74" y="560.276415"/>
     <use style="fill:#86cfa5;stroke:#86cfa5;" x="528.668713" xlink:href="#m5cdb1a9d74" y="596.754035"/>
     <use style="fill:#86cfa5;stroke:#86cfa5;" x="535.639197" xlink:href="#m5cdb1a9d74" y="634.892204"/>
     <use style="fill:#86cfa5;stroke:#86cfa5;" x="542.609681" xlink:href="#m5cdb1a9d74" y="653.007959"/>
     <use style="fill:#86cfa5;stroke:#86cfa5;" x="549.580165" xlink:href="#m5cdb1a9d74" y="655.756443"/>
     <use style="fill:#86cfa5;stroke:#86cfa5;" x="556.550649" xlink:href="#m5cdb1a9d74" y="653.718523"/>
     <use style="fill:#86cfa5;stroke:#86cfa5;" x="563.521133" xlink:href="#m5cdb1a9d74" y="652.349106"/>
     <use style="fill:#86cfa5;stroke:#86cfa5;" x="570.491617" xlink:href="#m5cdb1a9d74" y="648.010316"/>
     <use style="fill:#86cfa5;stroke:#86cfa5;" x="577.462102" xlink:href="#m5cdb1a9d74" y="649.817847"/>
     <use style="fill:#86cfa5;stroke:#86cfa5;" x="584.432586" xlink:href="#m5cdb1a9d74" y="651.417525"/>
     <use style="fill:#86cfa5;stroke:#86cfa5;" x="591.40307" xlink:href="#m5cdb1a9d74" y="651.83717"/>
     <use style="fill:#86cfa5;stroke:#86cfa5;" x="598.373554" xlink:href="#m5cdb1a9d74" y="652.094252"/>
     <use style="fill:#86cfa5;stroke:#86cfa5;" x="605.344038" xlink:href="#m5cdb1a9d74" y="653.339387"/>
     <use style="fill:#86cfa5;stroke:#86cfa5;" x="612.314522" xlink:href="#m5cdb1a9d74" y="656.26972"/>
     <use style="fill:#86cfa5;stroke:#86cfa5;" x="619.285006" xlink:href="#m5cdb1a9d74" y="657.652809"/>
     <use style="fill:#86cfa5;stroke:#86cfa5;" x="626.25549" xlink:href="#m5cdb1a9d74" y="660.925275"/>
     <use style="fill:#86cfa5;stroke:#86cfa5;" x="633.225974" xlink:href="#m5cdb1a9d74" y="662.936726"/>
     <use style="fill:#86cfa5;stroke:#86cfa5;" x="640.196458" xlink:href="#m5cdb1a9d74" y="662.510716"/>
     <use style="fill:#86cfa5;stroke:#86cfa5;" x="647.166942" xlink:href="#m5cdb1a9d74" y="661.799741"/>
    </g>
   </g>
   <g id="line2d_38">
    <path clip-path="url(#p5036ca9fa3)" d="M 159.233058 662.622424 
L 166.203542 662.607918 
L 173.174026 662.650813 
L 180.14451 661.932005 
L 187.114994 660.70909 
L 194.085478 660.67204 
L 201.055962 661.61211 
L 208.026446 662.786195 
L 214.99693 663.175504 
L 221.967414 662.851056 
L 228.937898 661.362614 
L 235.908383 660.437189 
L 242.878867 660.629121 
L 249.849351 660.512207 
L 256.819835 660.037479 
L 263.790319 659.713606 
L 270.760803 659.693032 
L 277.731287 661.608326 
L 284.701771 662.808258 
L 291.672255 663.26281 
L 298.642739 662.645606 
L 305.613223 661.173771 
L 312.583707 661.02329 
L 319.554191 661.036183 
L 326.524675 656.418364 
L 333.495159 658.688345 
L 340.465643 661.944838 
L 347.436128 663.058576 
L 354.406612 660.693867 
L 361.377096 660.357273 
L 368.34758 658.722239 
L 375.318064 652.57616 
L 382.288548 653.915361 
L 389.259032 656.279917 
L 396.229516 648.945939 
L 403.2 646.165118 
L 410.170484 661.004681 
L 417.140968 662.926457 
L 424.111452 654.90532 
L 431.081936 643.391115 
L 438.05242 651.292824 
L 445.022904 660.021293 
L 451.993388 612.595633 
L 458.963872 455.513164 
L 465.934357 247.321708 
L 472.904841 125.940865 
L 479.875325 114.33719 
L 486.845809 126.644349 
L 493.816293 161.968531 
L 500.786777 225.645381 
L 507.757261 317.025758 
L 514.727745 516.403163 
L 521.698229 636.179563 
L 528.668713 659.670841 
L 535.639197 658.728029 
L 542.609681 657.884833 
L 549.580165 649.123801 
L 556.550649 649.152048 
L 563.521133 651.053273 
L 570.491617 657.692723 
L 577.462102 656.189182 
L 584.432586 656.91623 
L 591.40307 660.88368 
L 598.373554 661.669834 
L 605.344038 659.672035 
L 612.314522 659.179596 
L 619.285006 657.779394 
L 626.25549 654.340504 
L 633.225974 655.36205 
L 640.196458 656.600738 
L 647.166942 659.508665 
" style="fill:none;stroke:#5e4fa2;stroke-linecap:square;stroke-width:2;"/>
    <defs>
     <path d="M 0 2.5 
C 0.663008 2.5 1.29895 2.236584 1.767767 1.767767 
C 2.236584 1.29895 2.5 0.663008 2.5 0 
C 2.5 -0.663008 2.236584 -1.29895 1.767767 -1.767767 
C 1.29895 -2.236584 0.663008 -2.5 0 -2.5 
C -0.663008 -2.5 -1.29895 -2.236584 -1.767767 -1.767767 
C -2.236584 -1.29895 -2.5 -0.663008 -2.5 0 
C -2.5 0.663008 -2.236584 1.29895 -1.767767 1.767767 
C -1.29895 2.236584 -0.663008 2.5 0 2.5 
z
" id="m1f8719c492" style="stroke:#5e4fa2;"/>
    </defs>
    <g clip-path="url(#p5036ca9fa3)">
     <use style="fill:#5e4fa2;stroke:#5e4fa2;" x="159.233058" xlink:href="#m1f8719c492" y="662.622424"/>
     <use style="fill:#5e4fa2;stroke:#5e4fa2;" x="166.203542" xlink:href="#m1f8719c492" y="662.607918"/>
     <use style="fill:#5e4fa2;stroke:#5e4fa2;" x="173.174026" xlink:href="#m1f8719c492" y="662.650813"/>
     <use style="fill:#5e4fa2;stroke:#5e4fa2;" x="180.14451" xlink:href="#m1f8719c492" y="661.932005"/>
     <use style="fill:#5e4fa2;stroke:#5e4fa2;" x="187.114994" xlink:href="#m1f8719c492" y="660.70909"/>
     <use style="fill:#5e4fa2;stroke:#5e4fa2;" x="194.085478" xlink:href="#m1f8719c492" y="660.67204"/>
     <use style="fill:#5e4fa2;stroke:#5e4fa2;" x="201.055962" xlink:href="#m1f8719c492" y="661.61211"/>
     <use style="fill:#5e4fa2;stroke:#5e4fa2;" x="208.026446" xlink:href="#m1f8719c492" y="662.786195"/>
     <use style="fill:#5e4fa2;stroke:#5e4fa2;" x="214.99693" xlink:href="#m1f8719c492" y="663.175504"/>
     <use style="fill:#5e4fa2;stroke:#5e4fa2;" x="221.967414" xlink:href="#m1f8719c492" y="662.851056"/>
     <use style="fill:#5e4fa2;stroke:#5e4fa2;" x="228.937898" xlink:href="#m1f8719c492" y="661.362614"/>
     <use style="fill:#5e4fa2;stroke:#5e4fa2;" x="235.908383" xlink:href="#m1f8719c492" y="660.437189"/>
     <use style="fill:#5e4fa2;stroke:#5e4fa2;" x="242.878867" xlink:href="#m1f8719c492" y="660.629121"/>
     <use style="fill:#5e4fa2;stroke:#5e4fa2;" x="249.849351" xlink:href="#m1f8719c492" y="660.512207"/>
     <use style="fill:#5e4fa2;stroke:#5e4fa2;" x="256.819835" xlink:href="#m1f8719c492" y="660.037479"/>
     <use style="fill:#5e4fa2;stroke:#5e4fa2;" x="263.790319" xlink:href="#m1f8719c492" y="659.713606"/>
     <use style="fill:#5e4fa2;stroke:#5e4fa2;" x="270.760803" xlink:href="#m1f8719c492" y="659.693032"/>
     <use style="fill:#5e4fa2;stroke:#5e4fa2;" x="277.731287" xlink:href="#m1f8719c492" y="661.608326"/>
     <use style="fill:#5e4fa2;stroke:#5e4fa2;" x="284.701771" xlink:href="#m1f8719c492" y="662.808258"/>
     <use style="fill:#5e4fa2;stroke:#5e4fa2;" x="291.672255" xlink:href="#m1f8719c492" y="663.26281"/>
     <use style="fill:#5e4fa2;stroke:#5e4fa2;" x="298.642739" xlink:href="#m1f8719c492" y="662.645606"/>
     <use style="fill:#5e4fa2;stroke:#5e4fa2;" x="305.613223" xlink:href="#m1f8719c492" y="661.173771"/>
     <use style="fill:#5e4fa2;stroke:#5e4fa2;" x="312.583707" xlink:href="#m1f8719c492" y="661.02329"/>
     <use style="fill:#5e4fa2;stroke:#5e4fa2;" x="319.554191" xlink:href="#m1f8719c492" y="661.036183"/>
     <use style="fill:#5e4fa2;stroke:#5e4fa2;" x="326.524675" xlink:href="#m1f8719c492" y="656.418364"/>
     <use style="fill:#5e4fa2;stroke:#5e4fa2;" x="333.495159" xlink:href="#m1f8719c492" y="658.688345"/>
     <use style="fill:#5e4fa2;stroke:#5e4fa2;" x="340.465643" xlink:href="#m1f8719c492" y="661.944838"/>
     <use style="fill:#5e4fa2;stroke:#5e4fa2;" x="347.436128" xlink:href="#m1f8719c492" y="663.058576"/>
     <use style="fill:#5e4fa2;stroke:#5e4fa2;" x="354.406612" xlink:href="#m1f8719c492" y="660.693867"/>
     <use style="fill:#5e4fa2;stroke:#5e4fa2;" x="361.377096" xlink:href="#m1f8719c492" y="660.357273"/>
     <use style="fill:#5e4fa2;stroke:#5e4fa2;" x="368.34758" xlink:href="#m1f8719c492" y="658.722239"/>
     <use style="fill:#5e4fa2;stroke:#5e4fa2;" x="375.318064" xlink:href="#m1f8719c492" y="652.57616"/>
     <use style="fill:#5e4fa2;stroke:#5e4fa2;" x="382.288548" xlink:href="#m1f8719c492" y="653.915361"/>
     <use style="fill:#5e4fa2;stroke:#5e4fa2;" x="389.259032" xlink:href="#m1f8719c492" y="656.279917"/>
     <use style="fill:#5e4fa2;stroke:#5e4fa2;" x="396.229516" xlink:href="#m1f8719c492" y="648.945939"/>
     <use style="fill:#5e4fa2;stroke:#5e4fa2;" x="403.2" xlink:href="#m1f8719c492" y="646.165118"/>
     <use style="fill:#5e4fa2;stroke:#5e4fa2;" x="410.170484" xlink:href="#m1f8719c492" y="661.004681"/>
     <use style="fill:#5e4fa2;stroke:#5e4fa2;" x="417.140968" xlink:href="#m1f8719c492" y="662.926457"/>
     <use style="fill:#5e4fa2;stroke:#5e4fa2;" x="424.111452" xlink:href="#m1f8719c492" y="654.90532"/>
     <use style="fill:#5e4fa2;stroke:#5e4fa2;" x="431.081936" xlink:href="#m1f8719c492" y="643.391115"/>
     <use style="fill:#5e4fa2;stroke:#5e4fa2;" x="438.05242" xlink:href="#m1f8719c492" y="651.292824"/>
     <use style="fill:#5e4fa2;stroke:#5e4fa2;" x="445.022904" xlink:href="#m1f8719c492" y="660.021293"/>
     <use style="fill:#5e4fa2;stroke:#5e4fa2;" x="451.993388" xlink:href="#m1f8719c492" y="612.595633"/>
     <use style="fill:#5e4fa2;stroke:#5e4fa2;" x="458.963872" xlink:href="#m1f8719c492" y="455.513164"/>
     <use style="fill:#5e4fa2;stroke:#5e4fa2;" x="465.934357" xlink:href="#m1f8719c492" y="247.321708"/>
     <use style="fill:#5e4fa2;stroke:#5e4fa2;" x="472.904841" xlink:href="#m1f8719c492" y="125.940865"/>
     <use style="fill:#5e4fa2;stroke:#5e4fa2;" x="479.875325" xlink:href="#m1f8719c492" y="114.33719"/>
     <use style="fill:#5e4fa2;stroke:#5e4fa2;" x="486.845809" xlink:href="#m1f8719c492" y="126.644349"/>
     <use style="fill:#5e4fa2;stroke:#5e4fa2;" x="493.816293" xlink:href="#m1f8719c492" y="161.968531"/>
     <use style="fill:#5e4fa2;stroke:#5e4fa2;" x="500.786777" xlink:href="#m1f8719c492" y="225.645381"/>
     <use style="fill:#5e4fa2;stroke:#5e4fa2;" x="507.757261" xlink:href="#m1f8719c492" y="317.025758"/>
     <use style="fill:#5e4fa2;stroke:#5e4fa2;" x="514.727745" xlink:href="#m1f8719c492" y="516.403163"/>
     <use style="fill:#5e4fa2;stroke:#5e4fa2;" x="521.698229" xlink:href="#m1f8719c492" y="636.179563"/>
     <use style="fill:#5e4fa2;stroke:#5e4fa2;" x="528.668713" xlink:href="#m1f8719c492" y="659.670841"/>
     <use style="fill:#5e4fa2;stroke:#5e4fa2;" x="535.639197" xlink:href="#m1f8719c492" y="658.728029"/>
     <use style="fill:#5e4fa2;stroke:#5e4fa2;" x="542.609681" xlink:href="#m1f8719c492" y="657.884833"/>
     <use style="fill:#5e4fa2;stroke:#5e4fa2;" x="549.580165" xlink:href="#m1f8719c492" y="649.123801"/>
     <use style="fill:#5e4fa2;stroke:#5e4fa2;" x="556.550649" xlink:href="#m1f8719c492" y="649.152048"/>
     <use style="fill:#5e4fa2;stroke:#5e4fa2;" x="563.521133" xlink:href="#m1f8719c492" y="651.053273"/>
     <use style="fill:#5e4fa2;stroke:#5e4fa2;" x="570.491617" xlink:href="#m1f8719c492" y="657.692723"/>
     <use style="fill:#5e4fa2;stroke:#5e4fa2;" x="577.462102" xlink:href="#m1f8719c492" y="656.189182"/>
     <use style="fill:#5e4fa2;stroke:#5e4fa2;" x="584.432586" xlink:href="#m1f8719c492" y="656.91623"/>
     <use style="fill:#5e4fa2;stroke:#5e4fa2;" x="591.40307" xlink:href="#m1f8719c492" y="660.88368"/>
     <use style="fill:#5e4fa2;stroke:#5e4fa2;" x="598.373554" xlink:href="#m1f8719c492" y="661.669834"/>
     <use style="fill:#5e4fa2;stroke:#5e4fa2;" x="605.344038" xlink:href="#m1f8719c492" y="659.672035"/>
     <use style="fill:#5e4fa2;stroke:#5e4fa2;" x="612.314522" xlink:href="#m1f8719c492" y="659.179596"/>
     <use style="fill:#5e4fa2;stroke:#5e4fa2;" x="619.285006" xlink:href="#m1f8719c492" y="657.779394"/>
     <use style="fill:#5e4fa2;stroke:#5e4fa2;" x="626.25549" xlink:href="#m1f8719c492" y="654.340504"/>
     <use style="fill:#5e4fa2;stroke:#5e4fa2;" x="633.225974" xlink:href="#m1f8719c492" y="655.36205"/>
     <use style="fill:#5e4fa2;stroke:#5e4fa2;" x="640.196458" xlink:href="#m1f8719c492" y="656.600738"/>
     <use style="fill:#5e4fa2;stroke:#5e4fa2;" x="647.166942" xlink:href="#m1f8719c492" y="659.508665"/>
    </g>
   </g>
   <g id="patch_3">
    <path d="M 108 720.9 
L 108 56.7 
" style="fill:none;stroke:#000000;stroke-linecap:square;stroke-linejoin:miter;stroke-width:0.8;"/>
   </g>
   <g id="patch_4">
    <path d="M 698.4 720.9 
L 698.4 56.7 
" style="fill:none;stroke:#000000;stroke-linecap:square;stroke-linejoin:miter;stroke-width:0.8;"/>
   </g>
   <g id="patch_5">
    <path d="M 108 720.9 
L 698.4 720.9 
" style="fill:none;stroke:#000000;stroke-linecap:square;stroke-linejoin:miter;stroke-width:0.8;"/>
   </g>
   <g id="patch_6">
    <path d="M 108 56.7 
L 698.4 56.7 
" style="fill:none;stroke:#000000;stroke-linecap:square;stroke-linejoin:miter;stroke-width:0.8;"/>
   </g>
   <g id="legend_1">
    <g id="patch_7">
     <path d="M 533.4 219.48125 
L 684.4 219.48125 
Q 688.4 219.48125 688.4 215.48125 
L 688.4 70.7 
Q 688.4 66.7 684.4 66.7 
L 533.4 66.7 
Q 529.4 66.7 529.4 70.7 
L 529.4 215.48125 
Q 529.4 219.48125 533.4 219.48125 
z
" style="fill:#ffffff;opacity:0.8;stroke:#cccccc;stroke-linejoin:miter;"/>
    </g>
    <g id="line2d_39">
     <path d="M 537.4 82.896875 
L 577.4 82.896875 
" style="fill:none;stroke:#000000;stroke-linecap:square;stroke-width:2;"/>
    </g>
    <g id="line2d_40">
     <defs>
      <path d="M 0 3 
C 0.795609 3 1.55874 2.683901 2.12132 2.12132 
C 2.683901 1.55874 3 0.795609 3 0 
C 3 -0.795609 2.683901 -1.55874 2.12132 -2.12132 
C 1.55874 -2.683901 0.795609 -3 0 -3 
C -0.795609 -3 -1.55874 -2.683901 -2.12132 -2.12132 
C -2.683901 -1.55874 -3 -0.795609 -3 0 
C -3 0.795609 -2.683901 1.55874 -2.12132 2.12132 
C -1.55874 2.683901 -0.795609 3 0 3 
z
" id="mf9306fde39" style="stroke:#000000;"/>
     </defs>
     <g>
      <use style="stroke:#000000;" x="557.4" xlink:href="#mf9306fde39" y="82.896875"/>
     </g>
    </g>
    <g id="text_20">
     <!-- (0, 0, 2) -->
     <g transform="translate(593.4 89.896875)scale(0.2 -0.2)">
      <defs>
       <path d="M 31 75.875 
Q 24.46875 64.65625 21.28125 53.65625 
Q 18.109375 42.671875 18.109375 31.390625 
Q 18.109375 20.125 21.3125 9.0625 
Q 24.515625 -2 31 -13.1875 
L 23.1875 -13.1875 
Q 15.875 -1.703125 12.234375 9.375 
Q 8.59375 20.453125 8.59375 31.390625 
Q 8.59375 42.28125 12.203125 53.3125 
Q 15.828125 64.359375 23.1875 75.875 
z
" id="DejaVuSans-40"/>
       <path d="M 11.71875 12.40625 
L 22.015625 12.40625 
L 22.015625 4 
L 14.015625 -11.625 
L 7.71875 -11.625 
L 11.71875 4 
z
" id="DejaVuSans-44"/>
       <path id="DejaVuSans-32"/>
       <path d="M 8.015625 75.875 
L 15.828125 75.875 
Q 23.140625 64.359375 26.78125 53.3125 
Q 30.421875 42.28125 30.421875 31.390625 
Q 30.421875 20.453125 26.78125 9.375 
Q 23.140625 -1.703125 15.828125 -13.1875 
L 8.015625 -13.1875 
Q 14.5 -2 17.703125 9.0625 
Q 20.90625 20.125 20.90625 31.390625 
Q 20.90625 42.671875 17.703125 53.65625 
Q 14.5 64.65625 8.015625 75.875 
z
" id="DejaVuSans-41"/>
      </defs>
      <use xlink:href="#DejaVuSans-40"/>
      <use x="39.013672" xlink:href="#DejaVuSans-48"/>
      <use x="102.636719" xlink:href="#DejaVuSans-44"/>
      <use x="134.423828" xlink:href="#DejaVuSans-32"/>
      <use x="166.210938" xlink:href="#DejaVuSans-48"/>
      <use x="229.833984" xlink:href="#DejaVuSans-44"/>
      <use x="261.621094" xlink:href="#DejaVuSans-32"/>
      <use x="293.408203" xlink:href="#DejaVuSans-50"/>
      <use x="357.03125" xlink:href="#DejaVuSans-41"/>
     </g>
    </g>
    <g id="line2d_41">
     <path d="M 537.4 112.253125 
L 577.4 112.253125 
" style="fill:none;stroke:#f98e52;stroke-linecap:square;stroke-width:2;"/>
    </g>
    <g id="line2d_42"/>
    <g id="text_21">
     <!-- $z=90 A$ -->
     <g transform="translate(593.4 119.253125)scale(0.2 -0.2)">
      <defs>
       <path d="M 11.625 54.6875 
L 54.296875 54.6875 
L 52.6875 46.484375 
L 11.53125 7.171875 
L 45.515625 7.171875 
L 44.09375 0 
L -0.296875 0 
L 1.3125 8.203125 
L 42.484375 47.515625 
L 10.203125 47.515625 
z
" id="DejaVuSans-Oblique-122"/>
       <path d="M 10.59375 45.40625 
L 73.1875 45.40625 
L 73.1875 37.203125 
L 10.59375 37.203125 
z
M 10.59375 25.484375 
L 73.1875 25.484375 
L 73.1875 17.1875 
L 10.59375 17.1875 
z
" id="DejaVuSans-61"/>
       <path d="M 10.984375 1.515625 
L 10.984375 10.5 
Q 14.703125 8.734375 18.5 7.8125 
Q 22.3125 6.890625 25.984375 6.890625 
Q 35.75 6.890625 40.890625 13.453125 
Q 46.046875 20.015625 46.78125 33.40625 
Q 43.953125 29.203125 39.59375 26.953125 
Q 35.25 24.703125 29.984375 24.703125 
Q 19.046875 24.703125 12.671875 31.3125 
Q 6.296875 37.9375 6.296875 49.421875 
Q 6.296875 60.640625 12.9375 67.421875 
Q 19.578125 74.21875 30.609375 74.21875 
Q 43.265625 74.21875 49.921875 64.515625 
Q 56.59375 54.828125 56.59375 36.375 
Q 56.59375 19.140625 48.40625 8.859375 
Q 40.234375 -1.421875 26.421875 -1.421875 
Q 22.703125 -1.421875 18.890625 -0.6875 
Q 15.09375 0.046875 10.984375 1.515625 
z
M 30.609375 32.421875 
Q 37.25 32.421875 41.125 36.953125 
Q 45.015625 41.5 45.015625 49.421875 
Q 45.015625 57.28125 41.125 61.84375 
Q 37.25 66.40625 30.609375 66.40625 
Q 23.96875 66.40625 20.09375 61.84375 
Q 16.21875 57.28125 16.21875 49.421875 
Q 16.21875 41.5 20.09375 36.953125 
Q 23.96875 32.421875 30.609375 32.421875 
z
" id="DejaVuSans-57"/>
       <path d="M 36.8125 72.90625 
L 48 72.90625 
L 61.53125 0 
L 51.21875 0 
L 48.1875 18.703125 
L 15.375 18.703125 
L 5.078125 0 
L -5.328125 0 
z
M 40.375 63.1875 
L 19.921875 26.90625 
L 46.6875 26.90625 
z
" id="DejaVuSans-Oblique-65"/>
      </defs>
      <use transform="translate(0 0.78125)" xlink:href="#DejaVuSans-Oblique-122"/>
      <use transform="translate(71.972656 0.78125)" xlink:href="#DejaVuSans-61"/>
      <use transform="translate(175.244141 0.78125)" xlink:href="#DejaVuSans-57"/>
      <use transform="translate(238.867188 0.78125)" xlink:href="#DejaVuSans-48"/>
      <use transform="translate(302.490234 0.78125)" xlink:href="#DejaVuSans-Oblique-65"/>
     </g>
    </g>
    <g id="line2d_43">
     <path d="M 537.4 141.609375 
L 577.4 141.609375 
" style="fill:none;stroke:#ffffbe;stroke-linecap:square;stroke-width:2;"/>
    </g>
    <g id="line2d_44"/>
    <g id="text_22">
     <!-- $z=191 A$ -->
     <g transform="translate(593.4 148.609375)scale(0.2 -0.2)">
      <use transform="translate(0 0.78125)" xlink:href="#DejaVuSans-Oblique-122"/>
      <use transform="translate(71.972656 0.78125)" xlink:href="#DejaVuSans-61"/>
      <use transform="translate(175.244141 0.78125)" xlink:href="#DejaVuSans-49"/>
      <use transform="translate(238.867188 0.78125)" xlink:href="#DejaVuSans-57"/>
      <use transform="translate(302.490234 0.78125)" xlink:href="#DejaVuSans-49"/>
      <use transform="translate(366.113281 0.78125)" xlink:href="#DejaVuSans-Oblique-65"/>
     </g>
    </g>
    <g id="line2d_45">
     <path d="M 537.4 170.965625 
L 577.4 170.965625 
" style="fill:none;stroke:#86cfa5;stroke-linecap:square;stroke-width:2;"/>
    </g>
    <g id="line2d_46"/>
    <g id="text_23">
     <!-- $z=292 A$ -->
     <g transform="translate(593.4 177.965625)scale(0.2 -0.2)">
      <use transform="translate(0 0.78125)" xlink:href="#DejaVuSans-Oblique-122"/>
      <use transform="translate(71.972656 0.78125)" xlink:href="#DejaVuSans-61"/>
      <use transform="translate(175.244141 0.78125)" xlink:href="#DejaVuSans-50"/>
      <use transform="translate(237.117188 0.78125)" xlink:href="#DejaVuSans-57"/>
      <use transform="translate(298.990234 0.78125)" xlink:href="#DejaVuSans-50"/>
      <use transform="translate(362.613281 0.78125)" xlink:href="#DejaVuSans-Oblique-65"/>
     </g>
    </g>
    <g id="line2d_47">
     <path d="M 537.4 200.321875 
L 577.4 200.321875 
" style="fill:none;stroke:#5e4fa2;stroke-linecap:square;stroke-width:2;"/>
    </g>
    <g id="line2d_48"/>
    <g id="text_24">
     <!-- $z=393 A$ -->
     <g transform="translate(593.4 207.321875)scale(0.2 -0.2)">
      <use transform="translate(0 0.78125)" xlink:href="#DejaVuSans-Oblique-122"/>
      <use transform="translate(71.972656 0.78125)" xlink:href="#DejaVuSans-61"/>
      <use transform="translate(175.244141 0.78125)" xlink:href="#DejaVuSans-51"/>
      <use transform="translate(238.867188 0.78125)" xlink:href="#DejaVuSans-57"/>
      <use transform="translate(302.490234 0.78125)" xlink:href="#DejaVuSans-51"/>
      <use transform="translate(366.113281 0.78125)" xlink:href="#DejaVuSans-Oblique-65"/>
     </g>
    </g>
   </g>
  </g>
 </g>
 <defs>
  <clipPath id="p5036ca9fa3">
   <rect height="664.2" width="590.4" x="108" y="56.7"/>
  </clipPath>
 </defs>
</svg>
