<?xml version="1.0" encoding="utf-8" standalone="no"?>
<!DOCTYPE svg PUBLIC "-//W3C//DTD SVG 1.1//EN"
  "http://www.w3.org/Graphics/SVG/1.1/DTD/svg11.dtd">
<!-- Created with matplotlib (https://matplotlib.org/) -->
<svg height="810pt" version="1.1" viewBox="0 0 720 810" width="720pt" xmlns="http://www.w3.org/2000/svg" xmlns:xlink="http://www.w3.org/1999/xlink">
 <metadata>
  <rdf:RDF xmlns:cc="http://creativecommons.org/ns#" xmlns:dc="http://purl.org/dc/elements/1.1/" xmlns:rdf="http://www.w3.org/1999/02/22-rdf-syntax-ns#">
   <cc:Work>
    <dc:type rdf:resource="http://purl.org/dc/dcmitype/StillImage"/>
    <dc:date>2021-07-20T11:15:16.764890</dc:date>
    <dc:format>image/svg+xml</dc:format>
    <dc:creator>
     <cc:Agent>
      <dc:title>Matplotlib v3.3.1, https://matplotlib.org/</dc:title>
     </cc:Agent>
    </dc:creator>
   </cc:Work>
  </rdf:RDF>
 </metadata>
 <defs>
  <style type="text/css">*{stroke-linecap:butt;stroke-linejoin:round;}</style>
 </defs>
 <g id="figure_1">
  <g id="patch_1">
   <path d="M 0 810 
L 720 810 
L 720 0 
L 0 0 
z
" style="fill:#ffffff;"/>
  </g>
  <g id="axes_1">
   <g id="patch_2">
    <path d="M 108 720.9 
L 698.4 720.9 
L 698.4 56.7 
L 108 56.7 
z
" style="fill:#ffffff;"/>
   </g>
   <g id="matplotlib.axis_1">
    <g id="xtick_1">
     <g id="line2d_1">
      <path clip-path="url(#p4a7c91014a)" d="M 147.332231 720.9 
L 147.332231 56.7 
" style="fill:none;stroke:#e6e6e6;stroke-linecap:square;stroke-width:0.8;"/>
     </g>
     <g id="line2d_2">
      <defs>
       <path d="M 0 0 
L 0 3.5 
" id="m4317981417" style="stroke:#000000;stroke-width:0.8;"/>
      </defs>
      <g>
       <use style="stroke:#000000;stroke-width:0.8;" x="147.332231" xlink:href="#m4317981417" y="720.9"/>
      </g>
     </g>
     <g id="text_1">
      <!-- 0 -->
      <g transform="translate(142.560356 739.297656)scale(0.15 -0.15)">
       <defs>
        <path d="M 31.78125 66.40625 
Q 24.171875 66.40625 20.328125 58.90625 
Q 16.5 51.421875 16.5 36.375 
Q 16.5 21.390625 20.328125 13.890625 
Q 24.171875 6.390625 31.78125 6.390625 
Q 39.453125 6.390625 43.28125 13.890625 
Q 47.125 21.390625 47.125 36.375 
Q 47.125 51.421875 43.28125 58.90625 
Q 39.453125 66.40625 31.78125 66.40625 
z
M 31.78125 74.21875 
Q 44.046875 74.21875 50.515625 64.515625 
Q 56.984375 54.828125 56.984375 36.375 
Q 56.984375 17.96875 50.515625 8.265625 
Q 44.046875 -1.421875 31.78125 -1.421875 
Q 19.53125 -1.421875 13.0625 8.265625 
Q 6.59375 17.96875 6.59375 36.375 
Q 6.59375 54.828125 13.0625 64.515625 
Q 19.53125 74.21875 31.78125 74.21875 
z
" id="DejaVuSans-48"/>
       </defs>
       <use xlink:href="#DejaVuSans-48"/>
      </g>
     </g>
    </g>
    <g id="xtick_2">
     <g id="line2d_3">
      <path clip-path="url(#p4a7c91014a)" d="M 266.340496 720.9 
L 266.340496 56.7 
" style="fill:none;stroke:#e6e6e6;stroke-linecap:square;stroke-width:0.8;"/>
     </g>
     <g id="line2d_4">
      <g>
       <use style="stroke:#000000;stroke-width:0.8;" x="266.340496" xlink:href="#m4317981417" y="720.9"/>
      </g>
     </g>
     <g id="text_2">
      <!-- 10 -->
      <g transform="translate(256.796746 739.297656)scale(0.15 -0.15)">
       <defs>
        <path d="M 12.40625 8.296875 
L 28.515625 8.296875 
L 28.515625 63.921875 
L 10.984375 60.40625 
L 10.984375 69.390625 
L 28.421875 72.90625 
L 38.28125 72.90625 
L 38.28125 8.296875 
L 54.390625 8.296875 
L 54.390625 0 
L 12.40625 0 
z
" id="DejaVuSans-49"/>
       </defs>
       <use xlink:href="#DejaVuSans-49"/>
       <use x="63.623047" xlink:href="#DejaVuSans-48"/>
      </g>
     </g>
    </g>
    <g id="xtick_3">
     <g id="line2d_5">
      <path clip-path="url(#p4a7c91014a)" d="M 385.34876 720.9 
L 385.34876 56.7 
" style="fill:none;stroke:#e6e6e6;stroke-linecap:square;stroke-width:0.8;"/>
     </g>
     <g id="line2d_6">
      <g>
       <use style="stroke:#000000;stroke-width:0.8;" x="385.34876" xlink:href="#m4317981417" y="720.9"/>
      </g>
     </g>
     <g id="text_3">
      <!-- 20 -->
      <g transform="translate(375.80501 739.297656)scale(0.15 -0.15)">
       <defs>
        <path d="M 19.1875 8.296875 
L 53.609375 8.296875 
L 53.609375 0 
L 7.328125 0 
L 7.328125 8.296875 
Q 12.9375 14.109375 22.625 23.890625 
Q 32.328125 33.6875 34.8125 36.53125 
Q 39.546875 41.84375 41.421875 45.53125 
Q 43.3125 49.21875 43.3125 52.78125 
Q 43.3125 58.59375 39.234375 62.25 
Q 35.15625 65.921875 28.609375 65.921875 
Q 23.96875 65.921875 18.8125 64.3125 
Q 13.671875 62.703125 7.8125 59.421875 
L 7.8125 69.390625 
Q 13.765625 71.78125 18.9375 73 
Q 24.125 74.21875 28.421875 74.21875 
Q 39.75 74.21875 46.484375 68.546875 
Q 53.21875 62.890625 53.21875 53.421875 
Q 53.21875 48.921875 51.53125 44.890625 
Q 49.859375 40.875 45.40625 35.40625 
Q 44.1875 33.984375 37.640625 27.21875 
Q 31.109375 20.453125 19.1875 8.296875 
z
" id="DejaVuSans-50"/>
       </defs>
       <use xlink:href="#DejaVuSans-50"/>
       <use x="63.623047" xlink:href="#DejaVuSans-48"/>
      </g>
     </g>
    </g>
    <g id="xtick_4">
     <g id="line2d_7">
      <path clip-path="url(#p4a7c91014a)" d="M 504.357025 720.9 
L 504.357025 56.7 
" style="fill:none;stroke:#e6e6e6;stroke-linecap:square;stroke-width:0.8;"/>
     </g>
     <g id="line2d_8">
      <g>
       <use style="stroke:#000000;stroke-width:0.8;" x="504.357025" xlink:href="#m4317981417" y="720.9"/>
      </g>
     </g>
     <g id="text_4">
      <!-- 30 -->
      <g transform="translate(494.813275 739.297656)scale(0.15 -0.15)">
       <defs>
        <path d="M 40.578125 39.3125 
Q 47.65625 37.796875 51.625 33 
Q 55.609375 28.21875 55.609375 21.1875 
Q 55.609375 10.40625 48.1875 4.484375 
Q 40.765625 -1.421875 27.09375 -1.421875 
Q 22.515625 -1.421875 17.65625 -0.515625 
Q 12.796875 0.390625 7.625 2.203125 
L 7.625 11.71875 
Q 11.71875 9.328125 16.59375 8.109375 
Q 21.484375 6.890625 26.8125 6.890625 
Q 36.078125 6.890625 40.9375 10.546875 
Q 45.796875 14.203125 45.796875 21.1875 
Q 45.796875 27.640625 41.28125 31.265625 
Q 36.765625 34.90625 28.71875 34.90625 
L 20.21875 34.90625 
L 20.21875 43.015625 
L 29.109375 43.015625 
Q 36.375 43.015625 40.234375 45.921875 
Q 44.09375 48.828125 44.09375 54.296875 
Q 44.09375 59.90625 40.109375 62.90625 
Q 36.140625 65.921875 28.71875 65.921875 
Q 24.65625 65.921875 20.015625 65.03125 
Q 15.375 64.15625 9.8125 62.3125 
L 9.8125 71.09375 
Q 15.4375 72.65625 20.34375 73.4375 
Q 25.25 74.21875 29.59375 74.21875 
Q 40.828125 74.21875 47.359375 69.109375 
Q 53.90625 64.015625 53.90625 55.328125 
Q 53.90625 49.265625 50.4375 45.09375 
Q 46.96875 40.921875 40.578125 39.3125 
z
" id="DejaVuSans-51"/>
       </defs>
       <use xlink:href="#DejaVuSans-51"/>
       <use x="63.623047" xlink:href="#DejaVuSans-48"/>
      </g>
     </g>
    </g>
    <g id="xtick_5">
     <g id="line2d_9">
      <path clip-path="url(#p4a7c91014a)" d="M 623.365289 720.9 
L 623.365289 56.7 
" style="fill:none;stroke:#e6e6e6;stroke-linecap:square;stroke-width:0.8;"/>
     </g>
     <g id="line2d_10">
      <g>
       <use style="stroke:#000000;stroke-width:0.8;" x="623.365289" xlink:href="#m4317981417" y="720.9"/>
      </g>
     </g>
     <g id="text_5">
      <!-- 40 -->
      <g transform="translate(613.821539 739.297656)scale(0.15 -0.15)">
       <defs>
        <path d="M 37.796875 64.3125 
L 12.890625 25.390625 
L 37.796875 25.390625 
z
M 35.203125 72.90625 
L 47.609375 72.90625 
L 47.609375 25.390625 
L 58.015625 25.390625 
L 58.015625 17.1875 
L 47.609375 17.1875 
L 47.609375 0 
L 37.796875 0 
L 37.796875 17.1875 
L 4.890625 17.1875 
L 4.890625 26.703125 
z
" id="DejaVuSans-52"/>
       </defs>
       <use xlink:href="#DejaVuSans-52"/>
       <use x="63.623047" xlink:href="#DejaVuSans-48"/>
      </g>
     </g>
    </g>
    <g id="text_6">
     <!-- frame -->
     <g transform="translate(366.133594 765.413281)scale(0.25 -0.25)">
      <defs>
       <path d="M 37.109375 75.984375 
L 37.109375 68.5 
L 28.515625 68.5 
Q 23.6875 68.5 21.796875 66.546875 
Q 19.921875 64.59375 19.921875 59.515625 
L 19.921875 54.6875 
L 34.71875 54.6875 
L 34.71875 47.703125 
L 19.921875 47.703125 
L 19.921875 0 
L 10.890625 0 
L 10.890625 47.703125 
L 2.296875 47.703125 
L 2.296875 54.6875 
L 10.890625 54.6875 
L 10.890625 58.5 
Q 10.890625 67.625 15.140625 71.796875 
Q 19.390625 75.984375 28.609375 75.984375 
z
" id="DejaVuSans-102"/>
       <path d="M 41.109375 46.296875 
Q 39.59375 47.171875 37.8125 47.578125 
Q 36.03125 48 33.890625 48 
Q 26.265625 48 22.1875 43.046875 
Q 18.109375 38.09375 18.109375 28.8125 
L 18.109375 0 
L 9.078125 0 
L 9.078125 54.6875 
L 18.109375 54.6875 
L 18.109375 46.1875 
Q 20.953125 51.171875 25.484375 53.578125 
Q 30.03125 56 36.53125 56 
Q 37.453125 56 38.578125 55.875 
Q 39.703125 55.765625 41.0625 55.515625 
z
" id="DejaVuSans-114"/>
       <path d="M 34.28125 27.484375 
Q 23.390625 27.484375 19.1875 25 
Q 14.984375 22.515625 14.984375 16.5 
Q 14.984375 11.71875 18.140625 8.90625 
Q 21.296875 6.109375 26.703125 6.109375 
Q 34.1875 6.109375 38.703125 11.40625 
Q 43.21875 16.703125 43.21875 25.484375 
L 43.21875 27.484375 
z
M 52.203125 31.203125 
L 52.203125 0 
L 43.21875 0 
L 43.21875 8.296875 
Q 40.140625 3.328125 35.546875 0.953125 
Q 30.953125 -1.421875 24.3125 -1.421875 
Q 15.921875 -1.421875 10.953125 3.296875 
Q 6 8.015625 6 15.921875 
Q 6 25.140625 12.171875 29.828125 
Q 18.359375 34.515625 30.609375 34.515625 
L 43.21875 34.515625 
L 43.21875 35.40625 
Q 43.21875 41.609375 39.140625 45 
Q 35.0625 48.390625 27.6875 48.390625 
Q 23 48.390625 18.546875 47.265625 
Q 14.109375 46.140625 10.015625 43.890625 
L 10.015625 52.203125 
Q 14.9375 54.109375 19.578125 55.046875 
Q 24.21875 56 28.609375 56 
Q 40.484375 56 46.34375 49.84375 
Q 52.203125 43.703125 52.203125 31.203125 
z
" id="DejaVuSans-97"/>
       <path d="M 52 44.1875 
Q 55.375 50.25 60.0625 53.125 
Q 64.75 56 71.09375 56 
Q 79.640625 56 84.28125 50.015625 
Q 88.921875 44.046875 88.921875 33.015625 
L 88.921875 0 
L 79.890625 0 
L 79.890625 32.71875 
Q 79.890625 40.578125 77.09375 44.375 
Q 74.3125 48.1875 68.609375 48.1875 
Q 61.625 48.1875 57.5625 43.546875 
Q 53.515625 38.921875 53.515625 30.90625 
L 53.515625 0 
L 44.484375 0 
L 44.484375 32.71875 
Q 44.484375 40.625 41.703125 44.40625 
Q 38.921875 48.1875 33.109375 48.1875 
Q 26.21875 48.1875 22.15625 43.53125 
Q 18.109375 38.875 18.109375 30.90625 
L 18.109375 0 
L 9.078125 0 
L 9.078125 54.6875 
L 18.109375 54.6875 
L 18.109375 46.1875 
Q 21.1875 51.21875 25.484375 53.609375 
Q 29.78125 56 35.6875 56 
Q 41.65625 56 45.828125 52.96875 
Q 50 49.953125 52 44.1875 
z
" id="DejaVuSans-109"/>
       <path d="M 56.203125 29.59375 
L 56.203125 25.203125 
L 14.890625 25.203125 
Q 15.484375 15.921875 20.484375 11.0625 
Q 25.484375 6.203125 34.421875 6.203125 
Q 39.59375 6.203125 44.453125 7.46875 
Q 49.3125 8.734375 54.109375 11.28125 
L 54.109375 2.78125 
Q 49.265625 0.734375 44.1875 -0.34375 
Q 39.109375 -1.421875 33.890625 -1.421875 
Q 20.796875 -1.421875 13.15625 6.1875 
Q 5.515625 13.8125 5.515625 26.8125 
Q 5.515625 40.234375 12.765625 48.109375 
Q 20.015625 56 32.328125 56 
Q 43.359375 56 49.78125 48.890625 
Q 56.203125 41.796875 56.203125 29.59375 
z
M 47.21875 32.234375 
Q 47.125 39.59375 43.09375 43.984375 
Q 39.0625 48.390625 32.421875 48.390625 
Q 24.90625 48.390625 20.390625 44.140625 
Q 15.875 39.890625 15.1875 32.171875 
z
" id="DejaVuSans-101"/>
      </defs>
      <use xlink:href="#DejaVuSans-102"/>
      <use x="35.205078" xlink:href="#DejaVuSans-114"/>
      <use x="76.318359" xlink:href="#DejaVuSans-97"/>
      <use x="137.597656" xlink:href="#DejaVuSans-109"/>
      <use x="235.009766" xlink:href="#DejaVuSans-101"/>
     </g>
    </g>
   </g>
   <g id="matplotlib.axis_2">
    <g id="ytick_1">
     <g id="line2d_11">
      <path clip-path="url(#p4a7c91014a)" d="M 108 663.402412 
L 698.4 663.402412 
" style="fill:none;stroke:#e6e6e6;stroke-linecap:square;stroke-width:0.8;"/>
     </g>
     <g id="line2d_12">
      <defs>
       <path d="M 0 0 
L -3.5 0 
" id="m6a9e1d00e8" style="stroke:#000000;stroke-width:0.8;"/>
      </defs>
      <g>
       <use style="stroke:#000000;stroke-width:0.8;" x="108" xlink:href="#m6a9e1d00e8" y="663.402412"/>
      </g>
     </g>
     <g id="text_7">
      <!-- 0.000 -->
      <g transform="translate(58.057813 669.10124)scale(0.15 -0.15)">
       <defs>
        <path d="M 10.6875 12.40625 
L 21 12.40625 
L 21 0 
L 10.6875 0 
z
" id="DejaVuSans-46"/>
       </defs>
       <use xlink:href="#DejaVuSans-48"/>
       <use x="63.623047" xlink:href="#DejaVuSans-46"/>
       <use x="95.410156" xlink:href="#DejaVuSans-48"/>
       <use x="159.033203" xlink:href="#DejaVuSans-48"/>
       <use x="222.65625" xlink:href="#DejaVuSans-48"/>
      </g>
     </g>
    </g>
    <g id="ytick_2">
     <g id="line2d_13">
      <path clip-path="url(#p4a7c91014a)" d="M 108 554.057808 
L 698.4 554.057808 
" style="fill:none;stroke:#e6e6e6;stroke-linecap:square;stroke-width:0.8;"/>
     </g>
     <g id="line2d_14">
      <g>
       <use style="stroke:#000000;stroke-width:0.8;" x="108" xlink:href="#m6a9e1d00e8" y="554.057808"/>
      </g>
     </g>
     <g id="text_8">
      <!-- 0.005 -->
      <g transform="translate(58.057813 559.756636)scale(0.15 -0.15)">
       <defs>
        <path d="M 10.796875 72.90625 
L 49.515625 72.90625 
L 49.515625 64.59375 
L 19.828125 64.59375 
L 19.828125 46.734375 
Q 21.96875 47.46875 24.109375 47.828125 
Q 26.265625 48.1875 28.421875 48.1875 
Q 40.625 48.1875 47.75 41.5 
Q 54.890625 34.8125 54.890625 23.390625 
Q 54.890625 11.625 47.5625 5.09375 
Q 40.234375 -1.421875 26.90625 -1.421875 
Q 22.3125 -1.421875 17.546875 -0.640625 
Q 12.796875 0.140625 7.71875 1.703125 
L 7.71875 11.625 
Q 12.109375 9.234375 16.796875 8.0625 
Q 21.484375 6.890625 26.703125 6.890625 
Q 35.15625 6.890625 40.078125 11.328125 
Q 45.015625 15.765625 45.015625 23.390625 
Q 45.015625 31 40.078125 35.4375 
Q 35.15625 39.890625 26.703125 39.890625 
Q 22.75 39.890625 18.8125 39.015625 
Q 14.890625 38.140625 10.796875 36.28125 
z
" id="DejaVuSans-53"/>
       </defs>
       <use xlink:href="#DejaVuSans-48"/>
       <use x="63.623047" xlink:href="#DejaVuSans-46"/>
       <use x="95.410156" xlink:href="#DejaVuSans-48"/>
       <use x="159.033203" xlink:href="#DejaVuSans-48"/>
       <use x="222.65625" xlink:href="#DejaVuSans-53"/>
      </g>
     </g>
    </g>
    <g id="ytick_3">
     <g id="line2d_15">
      <path clip-path="url(#p4a7c91014a)" d="M 108 444.713204 
L 698.4 444.713204 
" style="fill:none;stroke:#e6e6e6;stroke-linecap:square;stroke-width:0.8;"/>
     </g>
     <g id="line2d_16">
      <g>
       <use style="stroke:#000000;stroke-width:0.8;" x="108" xlink:href="#m6a9e1d00e8" y="444.713204"/>
      </g>
     </g>
     <g id="text_9">
      <!-- 0.010 -->
      <g transform="translate(58.057813 450.412032)scale(0.15 -0.15)">
       <use xlink:href="#DejaVuSans-48"/>
       <use x="63.623047" xlink:href="#DejaVuSans-46"/>
       <use x="95.410156" xlink:href="#DejaVuSans-48"/>
       <use x="159.033203" xlink:href="#DejaVuSans-49"/>
       <use x="222.65625" xlink:href="#DejaVuSans-48"/>
      </g>
     </g>
    </g>
    <g id="ytick_4">
     <g id="line2d_17">
      <path clip-path="url(#p4a7c91014a)" d="M 108 335.3686 
L 698.4 335.3686 
" style="fill:none;stroke:#e6e6e6;stroke-linecap:square;stroke-width:0.8;"/>
     </g>
     <g id="line2d_18">
      <g>
       <use style="stroke:#000000;stroke-width:0.8;" x="108" xlink:href="#m6a9e1d00e8" y="335.3686"/>
      </g>
     </g>
     <g id="text_10">
      <!-- 0.015 -->
      <g transform="translate(58.057813 341.067428)scale(0.15 -0.15)">
       <use xlink:href="#DejaVuSans-48"/>
       <use x="63.623047" xlink:href="#DejaVuSans-46"/>
       <use x="95.410156" xlink:href="#DejaVuSans-48"/>
       <use x="159.033203" xlink:href="#DejaVuSans-49"/>
       <use x="222.65625" xlink:href="#DejaVuSans-53"/>
      </g>
     </g>
    </g>
    <g id="ytick_5">
     <g id="line2d_19">
      <path clip-path="url(#p4a7c91014a)" d="M 108 226.023996 
L 698.4 226.023996 
" style="fill:none;stroke:#e6e6e6;stroke-linecap:square;stroke-width:0.8;"/>
     </g>
     <g id="line2d_20">
      <g>
       <use style="stroke:#000000;stroke-width:0.8;" x="108" xlink:href="#m6a9e1d00e8" y="226.023996"/>
      </g>
     </g>
     <g id="text_11">
      <!-- 0.020 -->
      <g transform="translate(58.057813 231.722824)scale(0.15 -0.15)">
       <use xlink:href="#DejaVuSans-48"/>
       <use x="63.623047" xlink:href="#DejaVuSans-46"/>
       <use x="95.410156" xlink:href="#DejaVuSans-48"/>
       <use x="159.033203" xlink:href="#DejaVuSans-50"/>
       <use x="222.65625" xlink:href="#DejaVuSans-48"/>
      </g>
     </g>
    </g>
    <g id="ytick_6">
     <g id="line2d_21">
      <path clip-path="url(#p4a7c91014a)" d="M 108 116.679392 
L 698.4 116.679392 
" style="fill:none;stroke:#e6e6e6;stroke-linecap:square;stroke-width:0.8;"/>
     </g>
     <g id="line2d_22">
      <g>
       <use style="stroke:#000000;stroke-width:0.8;" x="108" xlink:href="#m6a9e1d00e8" y="116.679392"/>
      </g>
     </g>
     <g id="text_12">
      <!-- 0.025 -->
      <g transform="translate(58.057813 122.37822)scale(0.15 -0.15)">
       <use xlink:href="#DejaVuSans-48"/>
       <use x="63.623047" xlink:href="#DejaVuSans-46"/>
       <use x="95.410156" xlink:href="#DejaVuSans-48"/>
       <use x="159.033203" xlink:href="#DejaVuSans-50"/>
       <use x="222.65625" xlink:href="#DejaVuSans-53"/>
      </g>
     </g>
    </g>
    <g id="text_13">
     <!-- $I$ -->
     <g transform="translate(48.858594 392.55)rotate(-90)scale(0.25 -0.25)">
      <defs>
       <path d="M 16.890625 72.90625 
L 26.8125 72.90625 
L 12.59375 0 
L 2.6875 0 
z
" id="DejaVuSans-Oblique-73"/>
      </defs>
      <use transform="translate(0 0.09375)" xlink:href="#DejaVuSans-Oblique-73"/>
     </g>
    </g>
   </g>
   <g id="line2d_23">
    <path clip-path="url(#p4a7c91014a)" d="M 159.233058 114.33719 
L 171.133884 184.540152 
L 183.034711 254.086997 
L 194.935537 325.237681 
L 206.836364 390.793999 
L 218.73719 451.909705 
L 230.638017 525.175948 
L 242.538843 577.906128 
L 254.439669 615.904496 
L 266.340496 641.118624 
L 278.241322 656.559378 
L 290.142149 662.627955 
L 302.042975 662.145236 
L 313.943802 656.024837 
L 325.844628 645.830477 
L 337.745455 632.767225 
L 349.646281 618.629591 
L 361.547107 608.015519 
L 373.447934 599.824627 
L 385.34876 596.053677 
L 397.249587 596.815385 
L 409.150413 600.595754 
L 421.05124 607.020262 
L 432.952066 614.480505 
L 444.852893 621.834658 
L 456.753719 629.283928 
L 468.654545 635.439132 
L 480.555372 641.456072 
L 492.456198 647.215276 
L 504.357025 651.902745 
L 516.257851 656.258544 
L 528.158678 661.172541 
L 540.059504 662.69858 
L 551.960331 658.462198 
L 563.861157 648.534376 
L 575.761983 638.314452 
L 587.66281 639.613136 
L 599.563636 640.128282 
L 611.464463 639.623772 
L 623.365289 638.611312 
L 635.266116 639.802641 
L 647.166942 637.297421 
" style="fill:none;stroke:#f98e52;stroke-linecap:square;stroke-width:2;"/>
    <defs>
     <path d="M 0 2.5 
C 0.663008 2.5 1.29895 2.236584 1.767767 1.767767 
C 2.236584 1.29895 2.5 0.663008 2.5 0 
C 2.5 -0.663008 2.236584 -1.29895 1.767767 -1.767767 
C 1.29895 -2.236584 0.663008 -2.5 0 -2.5 
C -0.663008 -2.5 -1.29895 -2.236584 -1.767767 -1.767767 
C -2.236584 -1.29895 -2.5 -0.663008 -2.5 0 
C -2.5 0.663008 -2.236584 1.29895 -1.767767 1.767767 
C -1.29895 2.236584 -0.663008 2.5 0 2.5 
z
" id="m9e34e2f09b" style="stroke:#f98e52;"/>
    </defs>
    <g clip-path="url(#p4a7c91014a)">
     <use style="fill:#f98e52;stroke:#f98e52;" x="159.233058" xlink:href="#m9e34e2f09b" y="114.33719"/>
     <use style="fill:#f98e52;stroke:#f98e52;" x="171.133884" xlink:href="#m9e34e2f09b" y="184.540152"/>
     <use style="fill:#f98e52;stroke:#f98e52;" x="183.034711" xlink:href="#m9e34e2f09b" y="254.086997"/>
     <use style="fill:#f98e52;stroke:#f98e52;" x="194.935537" xlink:href="#m9e34e2f09b" y="325.237681"/>
     <use style="fill:#f98e52;stroke:#f98e52;" x="206.836364" xlink:href="#m9e34e2f09b" y="390.793999"/>
     <use style="fill:#f98e52;stroke:#f98e52;" x="218.73719" xlink:href="#m9e34e2f09b" y="451.909705"/>
     <use style="fill:#f98e52;stroke:#f98e52;" x="230.638017" xlink:href="#m9e34e2f09b" y="525.175948"/>
     <use style="fill:#f98e52;stroke:#f98e52;" x="242.538843" xlink:href="#m9e34e2f09b" y="577.906128"/>
     <use style="fill:#f98e52;stroke:#f98e52;" x="254.439669" xlink:href="#m9e34e2f09b" y="615.904496"/>
     <use style="fill:#f98e52;stroke:#f98e52;" x="266.340496" xlink:href="#m9e34e2f09b" y="641.118624"/>
     <use style="fill:#f98e52;stroke:#f98e52;" x="278.241322" xlink:href="#m9e34e2f09b" y="656.559378"/>
     <use style="fill:#f98e52;stroke:#f98e52;" x="290.142149" xlink:href="#m9e34e2f09b" y="662.627955"/>
     <use style="fill:#f98e52;stroke:#f98e52;" x="302.042975" xlink:href="#m9e34e2f09b" y="662.145236"/>
     <use style="fill:#f98e52;stroke:#f98e52;" x="313.943802" xlink:href="#m9e34e2f09b" y="656.024837"/>
     <use style="fill:#f98e52;stroke:#f98e52;" x="325.844628" xlink:href="#m9e34e2f09b" y="645.830477"/>
     <use style="fill:#f98e52;stroke:#f98e52;" x="337.745455" xlink:href="#m9e34e2f09b" y="632.767225"/>
     <use style="fill:#f98e52;stroke:#f98e52;" x="349.646281" xlink:href="#m9e34e2f09b" y="618.629591"/>
     <use style="fill:#f98e52;stroke:#f98e52;" x="361.547107" xlink:href="#m9e34e2f09b" y="608.015519"/>
     <use style="fill:#f98e52;stroke:#f98e52;" x="373.447934" xlink:href="#m9e34e2f09b" y="599.824627"/>
     <use style="fill:#f98e52;stroke:#f98e52;" x="385.34876" xlink:href="#m9e34e2f09b" y="596.053677"/>
     <use style="fill:#f98e52;stroke:#f98e52;" x="397.249587" xlink:href="#m9e34e2f09b" y="596.815385"/>
     <use style="fill:#f98e52;stroke:#f98e52;" x="409.150413" xlink:href="#m9e34e2f09b" y="600.595754"/>
     <use style="fill:#f98e52;stroke:#f98e52;" x="421.05124" xlink:href="#m9e34e2f09b" y="607.020262"/>
     <use style="fill:#f98e52;stroke:#f98e52;" x="432.952066" xlink:href="#m9e34e2f09b" y="614.480505"/>
     <use style="fill:#f98e52;stroke:#f98e52;" x="444.852893" xlink:href="#m9e34e2f09b" y="621.834658"/>
     <use style="fill:#f98e52;stroke:#f98e52;" x="456.753719" xlink:href="#m9e34e2f09b" y="629.283928"/>
     <use style="fill:#f98e52;stroke:#f98e52;" x="468.654545" xlink:href="#m9e34e2f09b" y="635.439132"/>
     <use style="fill:#f98e52;stroke:#f98e52;" x="480.555372" xlink:href="#m9e34e2f09b" y="641.456072"/>
     <use style="fill:#f98e52;stroke:#f98e52;" x="492.456198" xlink:href="#m9e34e2f09b" y="647.215276"/>
     <use style="fill:#f98e52;stroke:#f98e52;" x="504.357025" xlink:href="#m9e34e2f09b" y="651.902745"/>
     <use style="fill:#f98e52;stroke:#f98e52;" x="516.257851" xlink:href="#m9e34e2f09b" y="656.258544"/>
     <use style="fill:#f98e52;stroke:#f98e52;" x="528.158678" xlink:href="#m9e34e2f09b" y="661.172541"/>
     <use style="fill:#f98e52;stroke:#f98e52;" x="540.059504" xlink:href="#m9e34e2f09b" y="662.69858"/>
     <use style="fill:#f98e52;stroke:#f98e52;" x="551.960331" xlink:href="#m9e34e2f09b" y="658.462198"/>
     <use style="fill:#f98e52;stroke:#f98e52;" x="563.861157" xlink:href="#m9e34e2f09b" y="648.534376"/>
     <use style="fill:#f98e52;stroke:#f98e52;" x="575.761983" xlink:href="#m9e34e2f09b" y="638.314452"/>
     <use style="fill:#f98e52;stroke:#f98e52;" x="587.66281" xlink:href="#m9e34e2f09b" y="639.613136"/>
     <use style="fill:#f98e52;stroke:#f98e52;" x="599.563636" xlink:href="#m9e34e2f09b" y="640.128282"/>
     <use style="fill:#f98e52;stroke:#f98e52;" x="611.464463" xlink:href="#m9e34e2f09b" y="639.623772"/>
     <use style="fill:#f98e52;stroke:#f98e52;" x="623.365289" xlink:href="#m9e34e2f09b" y="638.611312"/>
     <use style="fill:#f98e52;stroke:#f98e52;" x="635.266116" xlink:href="#m9e34e2f09b" y="639.802641"/>
     <use style="fill:#f98e52;stroke:#f98e52;" x="647.166942" xlink:href="#m9e34e2f09b" y="637.297421"/>
    </g>
   </g>
   <g id="line2d_24">
    <path clip-path="url(#p4a7c91014a)" d="M 159.233058 575.838803 
L 171.133884 632.51645 
L 183.034711 646.817736 
L 194.935537 631.371608 
L 206.836364 592.404803 
L 218.73719 550.118795 
L 230.638017 512.194169 
L 242.538843 522.242385 
L 254.439669 585.58012 
L 266.340496 631.274344 
L 278.241322 646.645839 
L 290.142149 661.799554 
L 302.042975 656.30556 
L 313.943802 626.741055 
L 325.844628 602.511945 
L 337.745455 590.206109 
L 349.646281 585.186364 
L 361.547107 589.307809 
L 373.447934 608.428679 
L 385.34876 640.36038 
L 397.249587 661.697558 
L 409.150413 660.134172 
L 421.05124 650.316804 
L 432.952066 643.262992 
L 444.852893 636.72351 
L 456.753719 636.894542 
L 468.654545 645.006713 
L 480.555372 654.71765 
L 492.456198 657.777706 
L 504.357025 659.414381 
L 516.257851 661.796864 
L 528.158678 660.17535 
L 540.059504 656.945306 
L 551.960331 663.128798 
L 563.861157 658.814123 
L 575.761983 657.921979 
L 587.66281 660.72437 
L 599.563636 660.258022 
L 611.464463 661.813229 
L 623.365289 661.424068 
L 635.266116 662.877406 
L 647.166942 658.912459 
" style="fill:none;stroke:#ffffbe;stroke-linecap:square;stroke-width:2;"/>
    <defs>
     <path d="M 0 2.5 
C 0.663008 2.5 1.29895 2.236584 1.767767 1.767767 
C 2.236584 1.29895 2.5 0.663008 2.5 0 
C 2.5 -0.663008 2.236584 -1.29895 1.767767 -1.767767 
C 1.29895 -2.236584 0.663008 -2.5 0 -2.5 
C -0.663008 -2.5 -1.29895 -2.236584 -1.767767 -1.767767 
C -2.236584 -1.29895 -2.5 -0.663008 -2.5 0 
C -2.5 0.663008 -2.236584 1.29895 -1.767767 1.767767 
C -1.29895 2.236584 -0.663008 2.5 0 2.5 
z
" id="m0450add63d" style="stroke:#ffffbe;"/>
    </defs>
    <g clip-path="url(#p4a7c91014a)">
     <use style="fill:#ffffbe;stroke:#ffffbe;" x="159.233058" xlink:href="#m0450add63d" y="575.838803"/>
     <use style="fill:#ffffbe;stroke:#ffffbe;" x="171.133884" xlink:href="#m0450add63d" y="632.51645"/>
     <use style="fill:#ffffbe;stroke:#ffffbe;" x="183.034711" xlink:href="#m0450add63d" y="646.817736"/>
     <use style="fill:#ffffbe;stroke:#ffffbe;" x="194.935537" xlink:href="#m0450add63d" y="631.371608"/>
     <use style="fill:#ffffbe;stroke:#ffffbe;" x="206.836364" xlink:href="#m0450add63d" y="592.404803"/>
     <use style="fill:#ffffbe;stroke:#ffffbe;" x="218.73719" xlink:href="#m0450add63d" y="550.118795"/>
     <use style="fill:#ffffbe;stroke:#ffffbe;" x="230.638017" xlink:href="#m0450add63d" y="512.194169"/>
     <use style="fill:#ffffbe;stroke:#ffffbe;" x="242.538843" xlink:href="#m0450add63d" y="522.242385"/>
     <use style="fill:#ffffbe;stroke:#ffffbe;" x="254.439669" xlink:href="#m0450add63d" y="585.58012"/>
     <use style="fill:#ffffbe;stroke:#ffffbe;" x="266.340496" xlink:href="#m0450add63d" y="631.274344"/>
     <use style="fill:#ffffbe;stroke:#ffffbe;" x="278.241322" xlink:href="#m0450add63d" y="646.645839"/>
     <use style="fill:#ffffbe;stroke:#ffffbe;" x="290.142149" xlink:href="#m0450add63d" y="661.799554"/>
     <use style="fill:#ffffbe;stroke:#ffffbe;" x="302.042975" xlink:href="#m0450add63d" y="656.30556"/>
     <use style="fill:#ffffbe;stroke:#ffffbe;" x="313.943802" xlink:href="#m0450add63d" y="626.741055"/>
     <use style="fill:#ffffbe;stroke:#ffffbe;" x="325.844628" xlink:href="#m0450add63d" y="602.511945"/>
     <use style="fill:#ffffbe;stroke:#ffffbe;" x="337.745455" xlink:href="#m0450add63d" y="590.206109"/>
     <use style="fill:#ffffbe;stroke:#ffffbe;" x="349.646281" xlink:href="#m0450add63d" y="585.186364"/>
     <use style="fill:#ffffbe;stroke:#ffffbe;" x="361.547107" xlink:href="#m0450add63d" y="589.307809"/>
     <use style="fill:#ffffbe;stroke:#ffffbe;" x="373.447934" xlink:href="#m0450add63d" y="608.428679"/>
     <use style="fill:#ffffbe;stroke:#ffffbe;" x="385.34876" xlink:href="#m0450add63d" y="640.36038"/>
     <use style="fill:#ffffbe;stroke:#ffffbe;" x="397.249587" xlink:href="#m0450add63d" y="661.697558"/>
     <use style="fill:#ffffbe;stroke:#ffffbe;" x="409.150413" xlink:href="#m0450add63d" y="660.134172"/>
     <use style="fill:#ffffbe;stroke:#ffffbe;" x="421.05124" xlink:href="#m0450add63d" y="650.316804"/>
     <use style="fill:#ffffbe;stroke:#ffffbe;" x="432.952066" xlink:href="#m0450add63d" y="643.262992"/>
     <use style="fill:#ffffbe;stroke:#ffffbe;" x="444.852893" xlink:href="#m0450add63d" y="636.72351"/>
     <use style="fill:#ffffbe;stroke:#ffffbe;" x="456.753719" xlink:href="#m0450add63d" y="636.894542"/>
     <use style="fill:#ffffbe;stroke:#ffffbe;" x="468.654545" xlink:href="#m0450add63d" y="645.006713"/>
     <use style="fill:#ffffbe;stroke:#ffffbe;" x="480.555372" xlink:href="#m0450add63d" y="654.71765"/>
     <use style="fill:#ffffbe;stroke:#ffffbe;" x="492.456198" xlink:href="#m0450add63d" y="657.777706"/>
     <use style="fill:#ffffbe;stroke:#ffffbe;" x="504.357025" xlink:href="#m0450add63d" y="659.414381"/>
     <use style="fill:#ffffbe;stroke:#ffffbe;" x="516.257851" xlink:href="#m0450add63d" y="661.796864"/>
     <use style="fill:#ffffbe;stroke:#ffffbe;" x="528.158678" xlink:href="#m0450add63d" y="660.17535"/>
     <use style="fill:#ffffbe;stroke:#ffffbe;" x="540.059504" xlink:href="#m0450add63d" y="656.945306"/>
     <use style="fill:#ffffbe;stroke:#ffffbe;" x="551.960331" xlink:href="#m0450add63d" y="663.128798"/>
     <use style="fill:#ffffbe;stroke:#ffffbe;" x="563.861157" xlink:href="#m0450add63d" y="658.814123"/>
     <use style="fill:#ffffbe;stroke:#ffffbe;" x="575.761983" xlink:href="#m0450add63d" y="657.921979"/>
     <use style="fill:#ffffbe;stroke:#ffffbe;" x="587.66281" xlink:href="#m0450add63d" y="660.72437"/>
     <use style="fill:#ffffbe;stroke:#ffffbe;" x="599.563636" xlink:href="#m0450add63d" y="660.258022"/>
     <use style="fill:#ffffbe;stroke:#ffffbe;" x="611.464463" xlink:href="#m0450add63d" y="661.813229"/>
     <use style="fill:#ffffbe;stroke:#ffffbe;" x="623.365289" xlink:href="#m0450add63d" y="661.424068"/>
     <use style="fill:#ffffbe;stroke:#ffffbe;" x="635.266116" xlink:href="#m0450add63d" y="662.877406"/>
     <use style="fill:#ffffbe;stroke:#ffffbe;" x="647.166942" xlink:href="#m0450add63d" y="658.912459"/>
    </g>
   </g>
   <g id="line2d_25">
    <path clip-path="url(#p4a7c91014a)" d="M 159.233058 323.337248 
L 171.133884 296.572044 
L 183.034711 330.576521 
L 194.935537 465.955023 
L 206.836364 578.662716 
L 218.73719 623.548402 
L 230.638017 615.48228 
L 242.538843 559.457345 
L 254.439669 562.72494 
L 266.340496 599.241374 
L 278.241322 647.104863 
L 290.142149 662.18489 
L 302.042975 636.170649 
L 313.943802 586.539949 
L 325.844628 563.061696 
L 337.745455 586.25003 
L 349.646281 643.257153 
L 361.547107 661.255654 
L 373.447934 632.216075 
L 385.34876 612.182035 
L 397.249587 613.270256 
L 409.150413 636.979956 
L 421.05124 653.276188 
L 432.952066 661.622685 
L 444.852893 656.89246 
L 456.753719 655.205307 
L 468.654545 655.398304 
L 480.555372 653.567499 
L 492.456198 659.619518 
L 504.357025 662.162876 
L 516.257851 659.500105 
L 528.158678 642.159859 
L 540.059504 648.489518 
L 551.960331 642.027833 
L 563.861157 660.809863 
L 575.761983 651.735719 
L 587.66281 655.963388 
L 599.563636 658.956718 
L 611.464463 660.399492 
L 623.365289 658.118964 
L 635.266116 657.433035 
L 647.166942 659.73214 
" style="fill:none;stroke:#86cfa5;stroke-linecap:square;stroke-width:2;"/>
    <defs>
     <path d="M 0 2.5 
C 0.663008 2.5 1.29895 2.236584 1.767767 1.767767 
C 2.236584 1.29895 2.5 0.663008 2.5 0 
C 2.5 -0.663008 2.236584 -1.29895 1.767767 -1.767767 
C 1.29895 -2.236584 0.663008 -2.5 0 -2.5 
C -0.663008 -2.5 -1.29895 -2.236584 -1.767767 -1.767767 
C -2.236584 -1.29895 -2.5 -0.663008 -2.5 0 
C -2.5 0.663008 -2.236584 1.29895 -1.767767 1.767767 
C -1.29895 2.236584 -0.663008 2.5 0 2.5 
z
" id="m002f044f4e" style="stroke:#86cfa5;"/>
    </defs>
    <g clip-path="url(#p4a7c91014a)">
     <use style="fill:#86cfa5;stroke:#86cfa5;" x="159.233058" xlink:href="#m002f044f4e" y="323.337248"/>
     <use style="fill:#86cfa5;stroke:#86cfa5;" x="171.133884" xlink:href="#m002f044f4e" y="296.572044"/>
     <use style="fill:#86cfa5;stroke:#86cfa5;" x="183.034711" xlink:href="#m002f044f4e" y="330.576521"/>
     <use style="fill:#86cfa5;stroke:#86cfa5;" x="194.935537" xlink:href="#m002f044f4e" y="465.955023"/>
     <use style="fill:#86cfa5;stroke:#86cfa5;" x="206.836364" xlink:href="#m002f044f4e" y="578.662716"/>
     <use style="fill:#86cfa5;stroke:#86cfa5;" x="218.73719" xlink:href="#m002f044f4e" y="623.548402"/>
     <use style="fill:#86cfa5;stroke:#86cfa5;" x="230.638017" xlink:href="#m002f044f4e" y="615.48228"/>
     <use style="fill:#86cfa5;stroke:#86cfa5;" x="242.538843" xlink:href="#m002f044f4e" y="559.457345"/>
     <use style="fill:#86cfa5;stroke:#86cfa5;" x="254.439669" xlink:href="#m002f044f4e" y="562.72494"/>
     <use style="fill:#86cfa5;stroke:#86cfa5;" x="266.340496" xlink:href="#m002f044f4e" y="599.241374"/>
     <use style="fill:#86cfa5;stroke:#86cfa5;" x="278.241322" xlink:href="#m002f044f4e" y="647.104863"/>
     <use style="fill:#86cfa5;stroke:#86cfa5;" x="290.142149" xlink:href="#m002f044f4e" y="662.18489"/>
     <use style="fill:#86cfa5;stroke:#86cfa5;" x="302.042975" xlink:href="#m002f044f4e" y="636.170649"/>
     <use style="fill:#86cfa5;stroke:#86cfa5;" x="313.943802" xlink:href="#m002f044f4e" y="586.539949"/>
     <use style="fill:#86cfa5;stroke:#86cfa5;" x="325.844628" xlink:href="#m002f044f4e" y="563.061696"/>
     <use style="fill:#86cfa5;stroke:#86cfa5;" x="337.745455" xlink:href="#m002f044f4e" y="586.25003"/>
     <use style="fill:#86cfa5;stroke:#86cfa5;" x="349.646281" xlink:href="#m002f044f4e" y="643.257153"/>
     <use style="fill:#86cfa5;stroke:#86cfa5;" x="361.547107" xlink:href="#m002f044f4e" y="661.255654"/>
     <use style="fill:#86cfa5;stroke:#86cfa5;" x="373.447934" xlink:href="#m002f044f4e" y="632.216075"/>
     <use style="fill:#86cfa5;stroke:#86cfa5;" x="385.34876" xlink:href="#m002f044f4e" y="612.182035"/>
     <use style="fill:#86cfa5;stroke:#86cfa5;" x="397.249587" xlink:href="#m002f044f4e" y="613.270256"/>
     <use style="fill:#86cfa5;stroke:#86cfa5;" x="409.150413" xlink:href="#m002f044f4e" y="636.979956"/>
     <use style="fill:#86cfa5;stroke:#86cfa5;" x="421.05124" xlink:href="#m002f044f4e" y="653.276188"/>
     <use style="fill:#86cfa5;stroke:#86cfa5;" x="432.952066" xlink:href="#m002f044f4e" y="661.622685"/>
     <use style="fill:#86cfa5;stroke:#86cfa5;" x="444.852893" xlink:href="#m002f044f4e" y="656.89246"/>
     <use style="fill:#86cfa5;stroke:#86cfa5;" x="456.753719" xlink:href="#m002f044f4e" y="655.205307"/>
     <use style="fill:#86cfa5;stroke:#86cfa5;" x="468.654545" xlink:href="#m002f044f4e" y="655.398304"/>
     <use style="fill:#86cfa5;stroke:#86cfa5;" x="480.555372" xlink:href="#m002f044f4e" y="653.567499"/>
     <use style="fill:#86cfa5;stroke:#86cfa5;" x="492.456198" xlink:href="#m002f044f4e" y="659.619518"/>
     <use style="fill:#86cfa5;stroke:#86cfa5;" x="504.357025" xlink:href="#m002f044f4e" y="662.162876"/>
     <use style="fill:#86cfa5;stroke:#86cfa5;" x="516.257851" xlink:href="#m002f044f4e" y="659.500105"/>
     <use style="fill:#86cfa5;stroke:#86cfa5;" x="528.158678" xlink:href="#m002f044f4e" y="642.159859"/>
     <use style="fill:#86cfa5;stroke:#86cfa5;" x="540.059504" xlink:href="#m002f044f4e" y="648.489518"/>
     <use style="fill:#86cfa5;stroke:#86cfa5;" x="551.960331" xlink:href="#m002f044f4e" y="642.027833"/>
     <use style="fill:#86cfa5;stroke:#86cfa5;" x="563.861157" xlink:href="#m002f044f4e" y="660.809863"/>
     <use style="fill:#86cfa5;stroke:#86cfa5;" x="575.761983" xlink:href="#m002f044f4e" y="651.735719"/>
     <use style="fill:#86cfa5;stroke:#86cfa5;" x="587.66281" xlink:href="#m002f044f4e" y="655.963388"/>
     <use style="fill:#86cfa5;stroke:#86cfa5;" x="599.563636" xlink:href="#m002f044f4e" y="658.956718"/>
     <use style="fill:#86cfa5;stroke:#86cfa5;" x="611.464463" xlink:href="#m002f044f4e" y="660.399492"/>
     <use style="fill:#86cfa5;stroke:#86cfa5;" x="623.365289" xlink:href="#m002f044f4e" y="658.118964"/>
     <use style="fill:#86cfa5;stroke:#86cfa5;" x="635.266116" xlink:href="#m002f044f4e" y="657.433035"/>
     <use style="fill:#86cfa5;stroke:#86cfa5;" x="647.166942" xlink:href="#m002f044f4e" y="659.73214"/>
    </g>
   </g>
   <g id="line2d_26">
    <path clip-path="url(#p4a7c91014a)" d="M 159.233058 392.299672 
L 171.133884 588.462621 
L 183.034711 621.500566 
L 194.935537 582.578085 
L 206.836364 540.177384 
L 218.73719 578.622168 
L 230.638017 616.233192 
L 242.538843 616.409064 
L 254.439669 580.291628 
L 266.340496 596.78288 
L 278.241322 650.834104 
L 290.142149 660.88334 
L 302.042975 637.784187 
L 313.943802 589.641239 
L 325.844628 628.705661 
L 337.745455 662.132334 
L 349.646281 650.808242 
L 361.547107 604.352602 
L 373.447934 625.058433 
L 385.34876 657.956345 
L 397.249587 648.70223 
L 409.150413 621.554243 
L 421.05124 632.139892 
L 432.952066 658.167005 
L 444.852893 662.218264 
L 456.753719 662.353597 
L 468.654545 655.257407 
L 480.555372 657.561102 
L 492.456198 658.445115 
L 504.357025 656.996257 
L 516.257851 658.006615 
L 528.158678 651.493665 
L 540.059504 646.180305 
L 551.960331 662.576782 
L 563.861157 658.217996 
L 575.761983 663.26281 
L 587.66281 663.016974 
L 599.563636 655.019777 
L 611.464463 656.663972 
L 623.365289 657.823416 
L 635.266116 660.289954 
L 647.166942 658.494728 
" style="fill:none;stroke:#5e4fa2;stroke-linecap:square;stroke-width:2;"/>
    <defs>
     <path d="M 0 2.5 
C 0.663008 2.5 1.29895 2.236584 1.767767 1.767767 
C 2.236584 1.29895 2.5 0.663008 2.5 0 
C 2.5 -0.663008 2.236584 -1.29895 1.767767 -1.767767 
C 1.29895 -2.236584 0.663008 -2.5 0 -2.5 
C -0.663008 -2.5 -1.29895 -2.236584 -1.767767 -1.767767 
C -2.236584 -1.29895 -2.5 -0.663008 -2.5 0 
C -2.5 0.663008 -2.236584 1.29895 -1.767767 1.767767 
C -1.29895 2.236584 -0.663008 2.5 0 2.5 
z
" id="m4f7c4ec8df" style="stroke:#5e4fa2;"/>
    </defs>
    <g clip-path="url(#p4a7c91014a)">
     <use style="fill:#5e4fa2;stroke:#5e4fa2;" x="159.233058" xlink:href="#m4f7c4ec8df" y="392.299672"/>
     <use style="fill:#5e4fa2;stroke:#5e4fa2;" x="171.133884" xlink:href="#m4f7c4ec8df" y="588.462621"/>
     <use style="fill:#5e4fa2;stroke:#5e4fa2;" x="183.034711" xlink:href="#m4f7c4ec8df" y="621.500566"/>
     <use style="fill:#5e4fa2;stroke:#5e4fa2;" x="194.935537" xlink:href="#m4f7c4ec8df" y="582.578085"/>
     <use style="fill:#5e4fa2;stroke:#5e4fa2;" x="206.836364" xlink:href="#m4f7c4ec8df" y="540.177384"/>
     <use style="fill:#5e4fa2;stroke:#5e4fa2;" x="218.73719" xlink:href="#m4f7c4ec8df" y="578.622168"/>
     <use style="fill:#5e4fa2;stroke:#5e4fa2;" x="230.638017" xlink:href="#m4f7c4ec8df" y="616.233192"/>
     <use style="fill:#5e4fa2;stroke:#5e4fa2;" x="242.538843" xlink:href="#m4f7c4ec8df" y="616.409064"/>
     <use style="fill:#5e4fa2;stroke:#5e4fa2;" x="254.439669" xlink:href="#m4f7c4ec8df" y="580.291628"/>
     <use style="fill:#5e4fa2;stroke:#5e4fa2;" x="266.340496" xlink:href="#m4f7c4ec8df" y="596.78288"/>
     <use style="fill:#5e4fa2;stroke:#5e4fa2;" x="278.241322" xlink:href="#m4f7c4ec8df" y="650.834104"/>
     <use style="fill:#5e4fa2;stroke:#5e4fa2;" x="290.142149" xlink:href="#m4f7c4ec8df" y="660.88334"/>
     <use style="fill:#5e4fa2;stroke:#5e4fa2;" x="302.042975" xlink:href="#m4f7c4ec8df" y="637.784187"/>
     <use style="fill:#5e4fa2;stroke:#5e4fa2;" x="313.943802" xlink:href="#m4f7c4ec8df" y="589.641239"/>
     <use style="fill:#5e4fa2;stroke:#5e4fa2;" x="325.844628" xlink:href="#m4f7c4ec8df" y="628.705661"/>
     <use style="fill:#5e4fa2;stroke:#5e4fa2;" x="337.745455" xlink:href="#m4f7c4ec8df" y="662.132334"/>
     <use style="fill:#5e4fa2;stroke:#5e4fa2;" x="349.646281" xlink:href="#m4f7c4ec8df" y="650.808242"/>
     <use style="fill:#5e4fa2;stroke:#5e4fa2;" x="361.547107" xlink:href="#m4f7c4ec8df" y="604.352602"/>
     <use style="fill:#5e4fa2;stroke:#5e4fa2;" x="373.447934" xlink:href="#m4f7c4ec8df" y="625.058433"/>
     <use style="fill:#5e4fa2;stroke:#5e4fa2;" x="385.34876" xlink:href="#m4f7c4ec8df" y="657.956345"/>
     <use style="fill:#5e4fa2;stroke:#5e4fa2;" x="397.249587" xlink:href="#m4f7c4ec8df" y="648.70223"/>
     <use style="fill:#5e4fa2;stroke:#5e4fa2;" x="409.150413" xlink:href="#m4f7c4ec8df" y="621.554243"/>
     <use style="fill:#5e4fa2;stroke:#5e4fa2;" x="421.05124" xlink:href="#m4f7c4ec8df" y="632.139892"/>
     <use style="fill:#5e4fa2;stroke:#5e4fa2;" x="432.952066" xlink:href="#m4f7c4ec8df" y="658.167005"/>
     <use style="fill:#5e4fa2;stroke:#5e4fa2;" x="444.852893" xlink:href="#m4f7c4ec8df" y="662.218264"/>
     <use style="fill:#5e4fa2;stroke:#5e4fa2;" x="456.753719" xlink:href="#m4f7c4ec8df" y="662.353597"/>
     <use style="fill:#5e4fa2;stroke:#5e4fa2;" x="468.654545" xlink:href="#m4f7c4ec8df" y="655.257407"/>
     <use style="fill:#5e4fa2;stroke:#5e4fa2;" x="480.555372" xlink:href="#m4f7c4ec8df" y="657.561102"/>
     <use style="fill:#5e4fa2;stroke:#5e4fa2;" x="492.456198" xlink:href="#m4f7c4ec8df" y="658.445115"/>
     <use style="fill:#5e4fa2;stroke:#5e4fa2;" x="504.357025" xlink:href="#m4f7c4ec8df" y="656.996257"/>
     <use style="fill:#5e4fa2;stroke:#5e4fa2;" x="516.257851" xlink:href="#m4f7c4ec8df" y="658.006615"/>
     <use style="fill:#5e4fa2;stroke:#5e4fa2;" x="528.158678" xlink:href="#m4f7c4ec8df" y="651.493665"/>
     <use style="fill:#5e4fa2;stroke:#5e4fa2;" x="540.059504" xlink:href="#m4f7c4ec8df" y="646.180305"/>
     <use style="fill:#5e4fa2;stroke:#5e4fa2;" x="551.960331" xlink:href="#m4f7c4ec8df" y="662.576782"/>
     <use style="fill:#5e4fa2;stroke:#5e4fa2;" x="563.861157" xlink:href="#m4f7c4ec8df" y="658.217996"/>
     <use style="fill:#5e4fa2;stroke:#5e4fa2;" x="575.761983" xlink:href="#m4f7c4ec8df" y="663.26281"/>
     <use style="fill:#5e4fa2;stroke:#5e4fa2;" x="587.66281" xlink:href="#m4f7c4ec8df" y="663.016974"/>
     <use style="fill:#5e4fa2;stroke:#5e4fa2;" x="599.563636" xlink:href="#m4f7c4ec8df" y="655.019777"/>
     <use style="fill:#5e4fa2;stroke:#5e4fa2;" x="611.464463" xlink:href="#m4f7c4ec8df" y="656.663972"/>
     <use style="fill:#5e4fa2;stroke:#5e4fa2;" x="623.365289" xlink:href="#m4f7c4ec8df" y="657.823416"/>
     <use style="fill:#5e4fa2;stroke:#5e4fa2;" x="635.266116" xlink:href="#m4f7c4ec8df" y="660.289954"/>
     <use style="fill:#5e4fa2;stroke:#5e4fa2;" x="647.166942" xlink:href="#m4f7c4ec8df" y="658.494728"/>
    </g>
   </g>
   <g id="patch_3">
    <path d="M 108 720.9 
L 108 56.7 
" style="fill:none;stroke:#000000;stroke-linecap:square;stroke-linejoin:miter;stroke-width:0.8;"/>
   </g>
   <g id="patch_4">
    <path d="M 698.4 720.9 
L 698.4 56.7 
" style="fill:none;stroke:#000000;stroke-linecap:square;stroke-linejoin:miter;stroke-width:0.8;"/>
   </g>
   <g id="patch_5">
    <path d="M 108 720.9 
L 698.4 720.9 
" style="fill:none;stroke:#000000;stroke-linecap:square;stroke-linejoin:miter;stroke-width:0.8;"/>
   </g>
   <g id="patch_6">
    <path d="M 108 56.7 
L 698.4 56.7 
" style="fill:none;stroke:#000000;stroke-linecap:square;stroke-linejoin:miter;stroke-width:0.8;"/>
   </g>
   <g id="legend_1">
    <g id="patch_7">
     <path d="M 533.4 219.48125 
L 684.4 219.48125 
Q 688.4 219.48125 688.4 215.48125 
L 688.4 70.7 
Q 688.4 66.7 684.4 66.7 
L 533.4 66.7 
Q 529.4 66.7 529.4 70.7 
L 529.4 215.48125 
Q 529.4 219.48125 533.4 219.48125 
z
" style="fill:#ffffff;opacity:0.8;stroke:#cccccc;stroke-linejoin:miter;"/>
    </g>
    <g id="line2d_27">
     <path d="M 537.4 82.896875 
L 577.4 82.896875 
" style="fill:none;stroke:#000000;stroke-linecap:square;stroke-width:2;"/>
    </g>
    <g id="line2d_28">
     <defs>
      <path d="M 0 3 
C 0.795609 3 1.55874 2.683901 2.12132 2.12132 
C 2.683901 1.55874 3 0.795609 3 0 
C 3 -0.795609 2.683901 -1.55874 2.12132 -2.12132 
C 1.55874 -2.683901 0.795609 -3 0 -3 
C -0.795609 -3 -1.55874 -2.683901 -2.12132 -2.12132 
C -2.683901 -1.55874 -3 -0.795609 -3 0 
C -3 0.795609 -2.683901 1.55874 -2.12132 2.12132 
C -1.55874 2.683901 -0.795609 3 0 3 
z
" id="m94064e5712" style="stroke:#000000;"/>
     </defs>
     <g>
      <use style="stroke:#000000;" x="557.4" xlink:href="#m94064e5712" y="82.896875"/>
     </g>
    </g>
    <g id="text_14">
     <!-- (4, 1, 0) -->
     <g transform="translate(593.4 89.896875)scale(0.2 -0.2)">
      <defs>
       <path d="M 31 75.875 
Q 24.46875 64.65625 21.28125 53.65625 
Q 18.109375 42.671875 18.109375 31.390625 
Q 18.109375 20.125 21.3125 9.0625 
Q 24.515625 -2 31 -13.1875 
L 23.1875 -13.1875 
Q 15.875 -1.703125 12.234375 9.375 
Q 8.59375 20.453125 8.59375 31.390625 
Q 8.59375 42.28125 12.203125 53.3125 
Q 15.828125 64.359375 23.1875 75.875 
z
" id="DejaVuSans-40"/>
       <path d="M 11.71875 12.40625 
L 22.015625 12.40625 
L 22.015625 4 
L 14.015625 -11.625 
L 7.71875 -11.625 
L 11.71875 4 
z
" id="DejaVuSans-44"/>
       <path id="DejaVuSans-32"/>
       <path d="M 8.015625 75.875 
L 15.828125 75.875 
Q 23.140625 64.359375 26.78125 53.3125 
Q 30.421875 42.28125 30.421875 31.390625 
Q 30.421875 20.453125 26.78125 9.375 
Q 23.140625 -1.703125 15.828125 -13.1875 
L 8.015625 -13.1875 
Q 14.5 -2 17.703125 9.0625 
Q 20.90625 20.125 20.90625 31.390625 
Q 20.90625 42.671875 17.703125 53.65625 
Q 14.5 64.65625 8.015625 75.875 
z
" id="DejaVuSans-41"/>
      </defs>
      <use xlink:href="#DejaVuSans-40"/>
      <use x="39.013672" xlink:href="#DejaVuSans-52"/>
      <use x="102.636719" xlink:href="#DejaVuSans-44"/>
      <use x="134.423828" xlink:href="#DejaVuSans-32"/>
      <use x="166.210938" xlink:href="#DejaVuSans-49"/>
      <use x="229.833984" xlink:href="#DejaVuSans-44"/>
      <use x="261.621094" xlink:href="#DejaVuSans-32"/>
      <use x="293.408203" xlink:href="#DejaVuSans-48"/>
      <use x="357.03125" xlink:href="#DejaVuSans-41"/>
     </g>
    </g>
    <g id="line2d_29">
     <path d="M 537.4 112.253125 
L 577.4 112.253125 
" style="fill:none;stroke:#f98e52;stroke-linecap:square;stroke-width:2;"/>
    </g>
    <g id="line2d_30"/>
    <g id="text_15">
     <!-- $z=90 A$ -->
     <g transform="translate(593.4 119.253125)scale(0.2 -0.2)">
      <defs>
       <path d="M 11.625 54.6875 
L 54.296875 54.6875 
L 52.6875 46.484375 
L 11.53125 7.171875 
L 45.515625 7.171875 
L 44.09375 0 
L -0.296875 0 
L 1.3125 8.203125 
L 42.484375 47.515625 
L 10.203125 47.515625 
z
" id="DejaVuSans-Oblique-122"/>
       <path d="M 10.59375 45.40625 
L 73.1875 45.40625 
L 73.1875 37.203125 
L 10.59375 37.203125 
z
M 10.59375 25.484375 
L 73.1875 25.484375 
L 73.1875 17.1875 
L 10.59375 17.1875 
z
" id="DejaVuSans-61"/>
       <path d="M 10.984375 1.515625 
L 10.984375 10.5 
Q 14.703125 8.734375 18.5 7.8125 
Q 22.3125 6.890625 25.984375 6.890625 
Q 35.75 6.890625 40.890625 13.453125 
Q 46.046875 20.015625 46.78125 33.40625 
Q 43.953125 29.203125 39.59375 26.953125 
Q 35.25 24.703125 29.984375 24.703125 
Q 19.046875 24.703125 12.671875 31.3125 
Q 6.296875 37.9375 6.296875 49.421875 
Q 6.296875 60.640625 12.9375 67.421875 
Q 19.578125 74.21875 30.609375 74.21875 
Q 43.265625 74.21875 49.921875 64.515625 
Q 56.59375 54.828125 56.59375 36.375 
Q 56.59375 19.140625 48.40625 8.859375 
Q 40.234375 -1.421875 26.421875 -1.421875 
Q 22.703125 -1.421875 18.890625 -0.6875 
Q 15.09375 0.046875 10.984375 1.515625 
z
M 30.609375 32.421875 
Q 37.25 32.421875 41.125 36.953125 
Q 45.015625 41.5 45.015625 49.421875 
Q 45.015625 57.28125 41.125 61.84375 
Q 37.25 66.40625 30.609375 66.40625 
Q 23.96875 66.40625 20.09375 61.84375 
Q 16.21875 57.28125 16.21875 49.421875 
Q 16.21875 41.5 20.09375 36.953125 
Q 23.96875 32.421875 30.609375 32.421875 
z
" id="DejaVuSans-57"/>
       <path d="M 36.8125 72.90625 
L 48 72.90625 
L 61.53125 0 
L 51.21875 0 
L 48.1875 18.703125 
L 15.375 18.703125 
L 5.078125 0 
L -5.328125 0 
z
M 40.375 63.1875 
L 19.921875 26.90625 
L 46.6875 26.90625 
z
" id="DejaVuSans-Oblique-65"/>
      </defs>
      <use transform="translate(0 0.78125)" xlink:href="#DejaVuSans-Oblique-122"/>
      <use transform="translate(71.972656 0.78125)" xlink:href="#DejaVuSans-61"/>
      <use transform="translate(175.244141 0.78125)" xlink:href="#DejaVuSans-57"/>
      <use transform="translate(238.867188 0.78125)" xlink:href="#DejaVuSans-48"/>
      <use transform="translate(302.490234 0.78125)" xlink:href="#DejaVuSans-Oblique-65"/>
     </g>
    </g>
    <g id="line2d_31">
     <path d="M 537.4 141.609375 
L 577.4 141.609375 
" style="fill:none;stroke:#ffffbe;stroke-linecap:square;stroke-width:2;"/>
    </g>
    <g id="line2d_32"/>
    <g id="text_16">
     <!-- $z=191 A$ -->
     <g transform="translate(593.4 148.609375)scale(0.2 -0.2)">
      <use transform="translate(0 0.78125)" xlink:href="#DejaVuSans-Oblique-122"/>
      <use transform="translate(71.972656 0.78125)" xlink:href="#DejaVuSans-61"/>
      <use transform="translate(175.244141 0.78125)" xlink:href="#DejaVuSans-49"/>
      <use transform="translate(238.867188 0.78125)" xlink:href="#DejaVuSans-57"/>
      <use transform="translate(302.490234 0.78125)" xlink:href="#DejaVuSans-49"/>
      <use transform="translate(366.113281 0.78125)" xlink:href="#DejaVuSans-Oblique-65"/>
     </g>
    </g>
    <g id="line2d_33">
     <path d="M 537.4 170.965625 
L 577.4 170.965625 
" style="fill:none;stroke:#86cfa5;stroke-linecap:square;stroke-width:2;"/>
    </g>
    <g id="line2d_34"/>
    <g id="text_17">
     <!-- $z=292 A$ -->
     <g transform="translate(593.4 177.965625)scale(0.2 -0.2)">
      <use transform="translate(0 0.78125)" xlink:href="#DejaVuSans-Oblique-122"/>
      <use transform="translate(71.972656 0.78125)" xlink:href="#DejaVuSans-61"/>
      <use transform="translate(175.244141 0.78125)" xlink:href="#DejaVuSans-50"/>
      <use transform="translate(237.117188 0.78125)" xlink:href="#DejaVuSans-57"/>
      <use transform="translate(298.990234 0.78125)" xlink:href="#DejaVuSans-50"/>
      <use transform="translate(362.613281 0.78125)" xlink:href="#DejaVuSans-Oblique-65"/>
     </g>
    </g>
    <g id="line2d_35">
     <path d="M 537.4 200.321875 
L 577.4 200.321875 
" style="fill:none;stroke:#5e4fa2;stroke-linecap:square;stroke-width:2;"/>
    </g>
    <g id="line2d_36"/>
    <g id="text_18">
     <!-- $z=393 A$ -->
     <g transform="translate(593.4 207.321875)scale(0.2 -0.2)">
      <use transform="translate(0 0.78125)" xlink:href="#DejaVuSans-Oblique-122"/>
      <use transform="translate(71.972656 0.78125)" xlink:href="#DejaVuSans-61"/>
      <use transform="translate(175.244141 0.78125)" xlink:href="#DejaVuSans-51"/>
      <use transform="translate(238.867188 0.78125)" xlink:href="#DejaVuSans-57"/>
      <use transform="translate(302.490234 0.78125)" xlink:href="#DejaVuSans-51"/>
      <use transform="translate(366.113281 0.78125)" xlink:href="#DejaVuSans-Oblique-65"/>
     </g>
    </g>
   </g>
  </g>
 </g>
 <defs>
  <clipPath id="p4a7c91014a">
   <rect height="664.2" width="590.4" x="108" y="56.7"/>
  </clipPath>
 </defs>
</svg>
