<?xml version="1.0" encoding="utf-8" standalone="no"?>
<!DOCTYPE svg PUBLIC "-//W3C//DTD SVG 1.1//EN"
  "http://www.w3.org/Graphics/SVG/1.1/DTD/svg11.dtd">
<!-- Created with matplotlib (https://matplotlib.org/) -->
<svg height="810pt" version="1.1" viewBox="0 0 720 810" width="720pt" xmlns="http://www.w3.org/2000/svg" xmlns:xlink="http://www.w3.org/1999/xlink">
 <metadata>
  <rdf:RDF xmlns:cc="http://creativecommons.org/ns#" xmlns:dc="http://purl.org/dc/elements/1.1/" xmlns:rdf="http://www.w3.org/1999/02/22-rdf-syntax-ns#">
   <cc:Work>
    <dc:type rdf:resource="http://purl.org/dc/dcmitype/StillImage"/>
    <dc:date>2021-07-20T11:15:14.943058</dc:date>
    <dc:format>image/svg+xml</dc:format>
    <dc:creator>
     <cc:Agent>
      <dc:title>Matplotlib v3.3.1, https://matplotlib.org/</dc:title>
     </cc:Agent>
    </dc:creator>
   </cc:Work>
  </rdf:RDF>
 </metadata>
 <defs>
  <style type="text/css">*{stroke-linecap:butt;stroke-linejoin:round;}</style>
 </defs>
 <g id="figure_1">
  <g id="patch_1">
   <path d="M 0 810 
L 720 810 
L 720 0 
L 0 0 
z
" style="fill:#ffffff;"/>
  </g>
  <g id="axes_1">
   <g id="patch_2">
    <path d="M 108 720.9 
L 698.4 720.9 
L 698.4 56.7 
L 108 56.7 
z
" style="fill:#ffffff;"/>
   </g>
   <g id="matplotlib.axis_1">
    <g id="xtick_1">
     <g id="line2d_1">
      <path clip-path="url(#p93dbebb400)" d="M 145.679339 720.9 
L 145.679339 56.7 
" style="fill:none;stroke:#e6e6e6;stroke-linecap:square;stroke-width:0.8;"/>
     </g>
     <g id="line2d_2">
      <defs>
       <path d="M 0 0 
L 0 3.5 
" id="m6fa9eee310" style="stroke:#000000;stroke-width:0.8;"/>
      </defs>
      <g>
       <use style="stroke:#000000;stroke-width:0.8;" x="145.679339" xlink:href="#m6fa9eee310" y="720.9"/>
      </g>
     </g>
     <g id="text_1">
      <!-- 0 -->
      <g transform="translate(140.907464 739.297656)scale(0.15 -0.15)">
       <defs>
        <path d="M 31.78125 66.40625 
Q 24.171875 66.40625 20.328125 58.90625 
Q 16.5 51.421875 16.5 36.375 
Q 16.5 21.390625 20.328125 13.890625 
Q 24.171875 6.390625 31.78125 6.390625 
Q 39.453125 6.390625 43.28125 13.890625 
Q 47.125 21.390625 47.125 36.375 
Q 47.125 51.421875 43.28125 58.90625 
Q 39.453125 66.40625 31.78125 66.40625 
z
M 31.78125 74.21875 
Q 44.046875 74.21875 50.515625 64.515625 
Q 56.984375 54.828125 56.984375 36.375 
Q 56.984375 17.96875 50.515625 8.265625 
Q 44.046875 -1.421875 31.78125 -1.421875 
Q 19.53125 -1.421875 13.0625 8.265625 
Q 6.59375 17.96875 6.59375 36.375 
Q 6.59375 54.828125 13.0625 64.515625 
Q 19.53125 74.21875 31.78125 74.21875 
z
" id="DejaVuSans-48"/>
       </defs>
       <use xlink:href="#DejaVuSans-48"/>
      </g>
     </g>
    </g>
    <g id="xtick_2">
     <g id="line2d_3">
      <path clip-path="url(#p93dbebb400)" d="M 213.447934 720.9 
L 213.447934 56.7 
" style="fill:none;stroke:#e6e6e6;stroke-linecap:square;stroke-width:0.8;"/>
     </g>
     <g id="line2d_4">
      <g>
       <use style="stroke:#000000;stroke-width:0.8;" x="213.447934" xlink:href="#m6fa9eee310" y="720.9"/>
      </g>
     </g>
     <g id="text_2">
      <!-- 5 -->
      <g transform="translate(208.676059 739.297656)scale(0.15 -0.15)">
       <defs>
        <path d="M 10.796875 72.90625 
L 49.515625 72.90625 
L 49.515625 64.59375 
L 19.828125 64.59375 
L 19.828125 46.734375 
Q 21.96875 47.46875 24.109375 47.828125 
Q 26.265625 48.1875 28.421875 48.1875 
Q 40.625 48.1875 47.75 41.5 
Q 54.890625 34.8125 54.890625 23.390625 
Q 54.890625 11.625 47.5625 5.09375 
Q 40.234375 -1.421875 26.90625 -1.421875 
Q 22.3125 -1.421875 17.546875 -0.640625 
Q 12.796875 0.140625 7.71875 1.703125 
L 7.71875 11.625 
Q 12.109375 9.234375 16.796875 8.0625 
Q 21.484375 6.890625 26.703125 6.890625 
Q 35.15625 6.890625 40.078125 11.328125 
Q 45.015625 15.765625 45.015625 23.390625 
Q 45.015625 31 40.078125 35.4375 
Q 35.15625 39.890625 26.703125 39.890625 
Q 22.75 39.890625 18.8125 39.015625 
Q 14.890625 38.140625 10.796875 36.28125 
z
" id="DejaVuSans-53"/>
       </defs>
       <use xlink:href="#DejaVuSans-53"/>
      </g>
     </g>
    </g>
    <g id="xtick_3">
     <g id="line2d_5">
      <path clip-path="url(#p93dbebb400)" d="M 281.216529 720.9 
L 281.216529 56.7 
" style="fill:none;stroke:#e6e6e6;stroke-linecap:square;stroke-width:0.8;"/>
     </g>
     <g id="line2d_6">
      <g>
       <use style="stroke:#000000;stroke-width:0.8;" x="281.216529" xlink:href="#m6fa9eee310" y="720.9"/>
      </g>
     </g>
     <g id="text_3">
      <!-- 10 -->
      <g transform="translate(271.672779 739.297656)scale(0.15 -0.15)">
       <defs>
        <path d="M 12.40625 8.296875 
L 28.515625 8.296875 
L 28.515625 63.921875 
L 10.984375 60.40625 
L 10.984375 69.390625 
L 28.421875 72.90625 
L 38.28125 72.90625 
L 38.28125 8.296875 
L 54.390625 8.296875 
L 54.390625 0 
L 12.40625 0 
z
" id="DejaVuSans-49"/>
       </defs>
       <use xlink:href="#DejaVuSans-49"/>
       <use x="63.623047" xlink:href="#DejaVuSans-48"/>
      </g>
     </g>
    </g>
    <g id="xtick_4">
     <g id="line2d_7">
      <path clip-path="url(#p93dbebb400)" d="M 348.985124 720.9 
L 348.985124 56.7 
" style="fill:none;stroke:#e6e6e6;stroke-linecap:square;stroke-width:0.8;"/>
     </g>
     <g id="line2d_8">
      <g>
       <use style="stroke:#000000;stroke-width:0.8;" x="348.985124" xlink:href="#m6fa9eee310" y="720.9"/>
      </g>
     </g>
     <g id="text_4">
      <!-- 15 -->
      <g transform="translate(339.441374 739.297656)scale(0.15 -0.15)">
       <use xlink:href="#DejaVuSans-49"/>
       <use x="63.623047" xlink:href="#DejaVuSans-53"/>
      </g>
     </g>
    </g>
    <g id="xtick_5">
     <g id="line2d_9">
      <path clip-path="url(#p93dbebb400)" d="M 416.753719 720.9 
L 416.753719 56.7 
" style="fill:none;stroke:#e6e6e6;stroke-linecap:square;stroke-width:0.8;"/>
     </g>
     <g id="line2d_10">
      <g>
       <use style="stroke:#000000;stroke-width:0.8;" x="416.753719" xlink:href="#m6fa9eee310" y="720.9"/>
      </g>
     </g>
     <g id="text_5">
      <!-- 20 -->
      <g transform="translate(407.209969 739.297656)scale(0.15 -0.15)">
       <defs>
        <path d="M 19.1875 8.296875 
L 53.609375 8.296875 
L 53.609375 0 
L 7.328125 0 
L 7.328125 8.296875 
Q 12.9375 14.109375 22.625 23.890625 
Q 32.328125 33.6875 34.8125 36.53125 
Q 39.546875 41.84375 41.421875 45.53125 
Q 43.3125 49.21875 43.3125 52.78125 
Q 43.3125 58.59375 39.234375 62.25 
Q 35.15625 65.921875 28.609375 65.921875 
Q 23.96875 65.921875 18.8125 64.3125 
Q 13.671875 62.703125 7.8125 59.421875 
L 7.8125 69.390625 
Q 13.765625 71.78125 18.9375 73 
Q 24.125 74.21875 28.421875 74.21875 
Q 39.75 74.21875 46.484375 68.546875 
Q 53.21875 62.890625 53.21875 53.421875 
Q 53.21875 48.921875 51.53125 44.890625 
Q 49.859375 40.875 45.40625 35.40625 
Q 44.1875 33.984375 37.640625 27.21875 
Q 31.109375 20.453125 19.1875 8.296875 
z
" id="DejaVuSans-50"/>
       </defs>
       <use xlink:href="#DejaVuSans-50"/>
       <use x="63.623047" xlink:href="#DejaVuSans-48"/>
      </g>
     </g>
    </g>
    <g id="xtick_6">
     <g id="line2d_11">
      <path clip-path="url(#p93dbebb400)" d="M 484.522314 720.9 
L 484.522314 56.7 
" style="fill:none;stroke:#e6e6e6;stroke-linecap:square;stroke-width:0.8;"/>
     </g>
     <g id="line2d_12">
      <g>
       <use style="stroke:#000000;stroke-width:0.8;" x="484.522314" xlink:href="#m6fa9eee310" y="720.9"/>
      </g>
     </g>
     <g id="text_6">
      <!-- 25 -->
      <g transform="translate(474.978564 739.297656)scale(0.15 -0.15)">
       <use xlink:href="#DejaVuSans-50"/>
       <use x="63.623047" xlink:href="#DejaVuSans-53"/>
      </g>
     </g>
    </g>
    <g id="xtick_7">
     <g id="line2d_13">
      <path clip-path="url(#p93dbebb400)" d="M 552.290909 720.9 
L 552.290909 56.7 
" style="fill:none;stroke:#e6e6e6;stroke-linecap:square;stroke-width:0.8;"/>
     </g>
     <g id="line2d_14">
      <g>
       <use style="stroke:#000000;stroke-width:0.8;" x="552.290909" xlink:href="#m6fa9eee310" y="720.9"/>
      </g>
     </g>
     <g id="text_7">
      <!-- 30 -->
      <g transform="translate(542.747159 739.297656)scale(0.15 -0.15)">
       <defs>
        <path d="M 40.578125 39.3125 
Q 47.65625 37.796875 51.625 33 
Q 55.609375 28.21875 55.609375 21.1875 
Q 55.609375 10.40625 48.1875 4.484375 
Q 40.765625 -1.421875 27.09375 -1.421875 
Q 22.515625 -1.421875 17.65625 -0.515625 
Q 12.796875 0.390625 7.625 2.203125 
L 7.625 11.71875 
Q 11.71875 9.328125 16.59375 8.109375 
Q 21.484375 6.890625 26.8125 6.890625 
Q 36.078125 6.890625 40.9375 10.546875 
Q 45.796875 14.203125 45.796875 21.1875 
Q 45.796875 27.640625 41.28125 31.265625 
Q 36.765625 34.90625 28.71875 34.90625 
L 20.21875 34.90625 
L 20.21875 43.015625 
L 29.109375 43.015625 
Q 36.375 43.015625 40.234375 45.921875 
Q 44.09375 48.828125 44.09375 54.296875 
Q 44.09375 59.90625 40.109375 62.90625 
Q 36.140625 65.921875 28.71875 65.921875 
Q 24.65625 65.921875 20.015625 65.03125 
Q 15.375 64.15625 9.8125 62.3125 
L 9.8125 71.09375 
Q 15.4375 72.65625 20.34375 73.4375 
Q 25.25 74.21875 29.59375 74.21875 
Q 40.828125 74.21875 47.359375 69.109375 
Q 53.90625 64.015625 53.90625 55.328125 
Q 53.90625 49.265625 50.4375 45.09375 
Q 46.96875 40.921875 40.578125 39.3125 
z
" id="DejaVuSans-51"/>
       </defs>
       <use xlink:href="#DejaVuSans-51"/>
       <use x="63.623047" xlink:href="#DejaVuSans-48"/>
      </g>
     </g>
    </g>
    <g id="xtick_8">
     <g id="line2d_15">
      <path clip-path="url(#p93dbebb400)" d="M 620.059504 720.9 
L 620.059504 56.7 
" style="fill:none;stroke:#e6e6e6;stroke-linecap:square;stroke-width:0.8;"/>
     </g>
     <g id="line2d_16">
      <g>
       <use style="stroke:#000000;stroke-width:0.8;" x="620.059504" xlink:href="#m6fa9eee310" y="720.9"/>
      </g>
     </g>
     <g id="text_8">
      <!-- 35 -->
      <g transform="translate(610.515754 739.297656)scale(0.15 -0.15)">
       <use xlink:href="#DejaVuSans-51"/>
       <use x="63.623047" xlink:href="#DejaVuSans-53"/>
      </g>
     </g>
    </g>
    <g id="xtick_9">
     <g id="line2d_17">
      <path clip-path="url(#p93dbebb400)" d="M 687.828099 720.9 
L 687.828099 56.7 
" style="fill:none;stroke:#e6e6e6;stroke-linecap:square;stroke-width:0.8;"/>
     </g>
     <g id="line2d_18">
      <g>
       <use style="stroke:#000000;stroke-width:0.8;" x="687.828099" xlink:href="#m6fa9eee310" y="720.9"/>
      </g>
     </g>
     <g id="text_9">
      <!-- 40 -->
      <g transform="translate(678.284349 739.297656)scale(0.15 -0.15)">
       <defs>
        <path d="M 37.796875 64.3125 
L 12.890625 25.390625 
L 37.796875 25.390625 
z
M 35.203125 72.90625 
L 47.609375 72.90625 
L 47.609375 25.390625 
L 58.015625 25.390625 
L 58.015625 17.1875 
L 47.609375 17.1875 
L 47.609375 0 
L 37.796875 0 
L 37.796875 17.1875 
L 4.890625 17.1875 
L 4.890625 26.703125 
z
" id="DejaVuSans-52"/>
       </defs>
       <use xlink:href="#DejaVuSans-52"/>
       <use x="63.623047" xlink:href="#DejaVuSans-48"/>
      </g>
     </g>
    </g>
    <g id="text_10">
     <!-- frame -->
     <g transform="translate(366.133594 765.413281)scale(0.25 -0.25)">
      <defs>
       <path d="M 37.109375 75.984375 
L 37.109375 68.5 
L 28.515625 68.5 
Q 23.6875 68.5 21.796875 66.546875 
Q 19.921875 64.59375 19.921875 59.515625 
L 19.921875 54.6875 
L 34.71875 54.6875 
L 34.71875 47.703125 
L 19.921875 47.703125 
L 19.921875 0 
L 10.890625 0 
L 10.890625 47.703125 
L 2.296875 47.703125 
L 2.296875 54.6875 
L 10.890625 54.6875 
L 10.890625 58.5 
Q 10.890625 67.625 15.140625 71.796875 
Q 19.390625 75.984375 28.609375 75.984375 
z
" id="DejaVuSans-102"/>
       <path d="M 41.109375 46.296875 
Q 39.59375 47.171875 37.8125 47.578125 
Q 36.03125 48 33.890625 48 
Q 26.265625 48 22.1875 43.046875 
Q 18.109375 38.09375 18.109375 28.8125 
L 18.109375 0 
L 9.078125 0 
L 9.078125 54.6875 
L 18.109375 54.6875 
L 18.109375 46.1875 
Q 20.953125 51.171875 25.484375 53.578125 
Q 30.03125 56 36.53125 56 
Q 37.453125 56 38.578125 55.875 
Q 39.703125 55.765625 41.0625 55.515625 
z
" id="DejaVuSans-114"/>
       <path d="M 34.28125 27.484375 
Q 23.390625 27.484375 19.1875 25 
Q 14.984375 22.515625 14.984375 16.5 
Q 14.984375 11.71875 18.140625 8.90625 
Q 21.296875 6.109375 26.703125 6.109375 
Q 34.1875 6.109375 38.703125 11.40625 
Q 43.21875 16.703125 43.21875 25.484375 
L 43.21875 27.484375 
z
M 52.203125 31.203125 
L 52.203125 0 
L 43.21875 0 
L 43.21875 8.296875 
Q 40.140625 3.328125 35.546875 0.953125 
Q 30.953125 -1.421875 24.3125 -1.421875 
Q 15.921875 -1.421875 10.953125 3.296875 
Q 6 8.015625 6 15.921875 
Q 6 25.140625 12.171875 29.828125 
Q 18.359375 34.515625 30.609375 34.515625 
L 43.21875 34.515625 
L 43.21875 35.40625 
Q 43.21875 41.609375 39.140625 45 
Q 35.0625 48.390625 27.6875 48.390625 
Q 23 48.390625 18.546875 47.265625 
Q 14.109375 46.140625 10.015625 43.890625 
L 10.015625 52.203125 
Q 14.9375 54.109375 19.578125 55.046875 
Q 24.21875 56 28.609375 56 
Q 40.484375 56 46.34375 49.84375 
Q 52.203125 43.703125 52.203125 31.203125 
z
" id="DejaVuSans-97"/>
       <path d="M 52 44.1875 
Q 55.375 50.25 60.0625 53.125 
Q 64.75 56 71.09375 56 
Q 79.640625 56 84.28125 50.015625 
Q 88.921875 44.046875 88.921875 33.015625 
L 88.921875 0 
L 79.890625 0 
L 79.890625 32.71875 
Q 79.890625 40.578125 77.09375 44.375 
Q 74.3125 48.1875 68.609375 48.1875 
Q 61.625 48.1875 57.5625 43.546875 
Q 53.515625 38.921875 53.515625 30.90625 
L 53.515625 0 
L 44.484375 0 
L 44.484375 32.71875 
Q 44.484375 40.625 41.703125 44.40625 
Q 38.921875 48.1875 33.109375 48.1875 
Q 26.21875 48.1875 22.15625 43.53125 
Q 18.109375 38.875 18.109375 30.90625 
L 18.109375 0 
L 9.078125 0 
L 9.078125 54.6875 
L 18.109375 54.6875 
L 18.109375 46.1875 
Q 21.1875 51.21875 25.484375 53.609375 
Q 29.78125 56 35.6875 56 
Q 41.65625 56 45.828125 52.96875 
Q 50 49.953125 52 44.1875 
z
" id="DejaVuSans-109"/>
       <path d="M 56.203125 29.59375 
L 56.203125 25.203125 
L 14.890625 25.203125 
Q 15.484375 15.921875 20.484375 11.0625 
Q 25.484375 6.203125 34.421875 6.203125 
Q 39.59375 6.203125 44.453125 7.46875 
Q 49.3125 8.734375 54.109375 11.28125 
L 54.109375 2.78125 
Q 49.265625 0.734375 44.1875 -0.34375 
Q 39.109375 -1.421875 33.890625 -1.421875 
Q 20.796875 -1.421875 13.15625 6.1875 
Q 5.515625 13.8125 5.515625 26.8125 
Q 5.515625 40.234375 12.765625 48.109375 
Q 20.015625 56 32.328125 56 
Q 43.359375 56 49.78125 48.890625 
Q 56.203125 41.796875 56.203125 29.59375 
z
M 47.21875 32.234375 
Q 47.125 39.59375 43.09375 43.984375 
Q 39.0625 48.390625 32.421875 48.390625 
Q 24.90625 48.390625 20.390625 44.140625 
Q 15.875 39.890625 15.1875 32.171875 
z
" id="DejaVuSans-101"/>
      </defs>
      <use xlink:href="#DejaVuSans-102"/>
      <use x="35.205078" xlink:href="#DejaVuSans-114"/>
      <use x="76.318359" xlink:href="#DejaVuSans-97"/>
      <use x="137.597656" xlink:href="#DejaVuSans-109"/>
      <use x="235.009766" xlink:href="#DejaVuSans-101"/>
     </g>
    </g>
   </g>
   <g id="matplotlib.axis_2">
    <g id="ytick_1">
     <g id="line2d_19">
      <path clip-path="url(#p93dbebb400)" d="M 108 663.278757 
L 698.4 663.278757 
" style="fill:none;stroke:#e6e6e6;stroke-linecap:square;stroke-width:0.8;"/>
     </g>
     <g id="line2d_20">
      <defs>
       <path d="M 0 0 
L -3.5 0 
" id="m87506d1e4e" style="stroke:#000000;stroke-width:0.8;"/>
      </defs>
      <g>
       <use style="stroke:#000000;stroke-width:0.8;" x="108" xlink:href="#m87506d1e4e" y="663.278757"/>
      </g>
     </g>
     <g id="text_11">
      <!-- 0.00 -->
      <g transform="translate(67.601562 668.977585)scale(0.15 -0.15)">
       <defs>
        <path d="M 10.6875 12.40625 
L 21 12.40625 
L 21 0 
L 10.6875 0 
z
" id="DejaVuSans-46"/>
       </defs>
       <use xlink:href="#DejaVuSans-48"/>
       <use x="63.623047" xlink:href="#DejaVuSans-46"/>
       <use x="95.410156" xlink:href="#DejaVuSans-48"/>
       <use x="159.033203" xlink:href="#DejaVuSans-48"/>
      </g>
     </g>
    </g>
    <g id="ytick_2">
     <g id="line2d_21">
      <path clip-path="url(#p93dbebb400)" d="M 108 567.383885 
L 698.4 567.383885 
" style="fill:none;stroke:#e6e6e6;stroke-linecap:square;stroke-width:0.8;"/>
     </g>
     <g id="line2d_22">
      <g>
       <use style="stroke:#000000;stroke-width:0.8;" x="108" xlink:href="#m87506d1e4e" y="567.383885"/>
      </g>
     </g>
     <g id="text_12">
      <!-- 0.01 -->
      <g transform="translate(67.601562 573.082713)scale(0.15 -0.15)">
       <use xlink:href="#DejaVuSans-48"/>
       <use x="63.623047" xlink:href="#DejaVuSans-46"/>
       <use x="95.410156" xlink:href="#DejaVuSans-48"/>
       <use x="159.033203" xlink:href="#DejaVuSans-49"/>
      </g>
     </g>
    </g>
    <g id="ytick_3">
     <g id="line2d_23">
      <path clip-path="url(#p93dbebb400)" d="M 108 471.489014 
L 698.4 471.489014 
" style="fill:none;stroke:#e6e6e6;stroke-linecap:square;stroke-width:0.8;"/>
     </g>
     <g id="line2d_24">
      <g>
       <use style="stroke:#000000;stroke-width:0.8;" x="108" xlink:href="#m87506d1e4e" y="471.489014"/>
      </g>
     </g>
     <g id="text_13">
      <!-- 0.02 -->
      <g transform="translate(67.601562 477.187842)scale(0.15 -0.15)">
       <use xlink:href="#DejaVuSans-48"/>
       <use x="63.623047" xlink:href="#DejaVuSans-46"/>
       <use x="95.410156" xlink:href="#DejaVuSans-48"/>
       <use x="159.033203" xlink:href="#DejaVuSans-50"/>
      </g>
     </g>
    </g>
    <g id="ytick_4">
     <g id="line2d_25">
      <path clip-path="url(#p93dbebb400)" d="M 108 375.594143 
L 698.4 375.594143 
" style="fill:none;stroke:#e6e6e6;stroke-linecap:square;stroke-width:0.8;"/>
     </g>
     <g id="line2d_26">
      <g>
       <use style="stroke:#000000;stroke-width:0.8;" x="108" xlink:href="#m87506d1e4e" y="375.594143"/>
      </g>
     </g>
     <g id="text_14">
      <!-- 0.03 -->
      <g transform="translate(67.601562 381.292971)scale(0.15 -0.15)">
       <use xlink:href="#DejaVuSans-48"/>
       <use x="63.623047" xlink:href="#DejaVuSans-46"/>
       <use x="95.410156" xlink:href="#DejaVuSans-48"/>
       <use x="159.033203" xlink:href="#DejaVuSans-51"/>
      </g>
     </g>
    </g>
    <g id="ytick_5">
     <g id="line2d_27">
      <path clip-path="url(#p93dbebb400)" d="M 108 279.699272 
L 698.4 279.699272 
" style="fill:none;stroke:#e6e6e6;stroke-linecap:square;stroke-width:0.8;"/>
     </g>
     <g id="line2d_28">
      <g>
       <use style="stroke:#000000;stroke-width:0.8;" x="108" xlink:href="#m87506d1e4e" y="279.699272"/>
      </g>
     </g>
     <g id="text_15">
      <!-- 0.04 -->
      <g transform="translate(67.601562 285.3981)scale(0.15 -0.15)">
       <use xlink:href="#DejaVuSans-48"/>
       <use x="63.623047" xlink:href="#DejaVuSans-46"/>
       <use x="95.410156" xlink:href="#DejaVuSans-48"/>
       <use x="159.033203" xlink:href="#DejaVuSans-52"/>
      </g>
     </g>
    </g>
    <g id="ytick_6">
     <g id="line2d_29">
      <path clip-path="url(#p93dbebb400)" d="M 108 183.8044 
L 698.4 183.8044 
" style="fill:none;stroke:#e6e6e6;stroke-linecap:square;stroke-width:0.8;"/>
     </g>
     <g id="line2d_30">
      <g>
       <use style="stroke:#000000;stroke-width:0.8;" x="108" xlink:href="#m87506d1e4e" y="183.8044"/>
      </g>
     </g>
     <g id="text_16">
      <!-- 0.05 -->
      <g transform="translate(67.601562 189.503228)scale(0.15 -0.15)">
       <use xlink:href="#DejaVuSans-48"/>
       <use x="63.623047" xlink:href="#DejaVuSans-46"/>
       <use x="95.410156" xlink:href="#DejaVuSans-48"/>
       <use x="159.033203" xlink:href="#DejaVuSans-53"/>
      </g>
     </g>
    </g>
    <g id="ytick_7">
     <g id="line2d_31">
      <path clip-path="url(#p93dbebb400)" d="M 108 87.909529 
L 698.4 87.909529 
" style="fill:none;stroke:#e6e6e6;stroke-linecap:square;stroke-width:0.8;"/>
     </g>
     <g id="line2d_32">
      <g>
       <use style="stroke:#000000;stroke-width:0.8;" x="108" xlink:href="#m87506d1e4e" y="87.909529"/>
      </g>
     </g>
     <g id="text_17">
      <!-- 0.06 -->
      <g transform="translate(67.601562 93.608357)scale(0.15 -0.15)">
       <defs>
        <path d="M 33.015625 40.375 
Q 26.375 40.375 22.484375 35.828125 
Q 18.609375 31.296875 18.609375 23.390625 
Q 18.609375 15.53125 22.484375 10.953125 
Q 26.375 6.390625 33.015625 6.390625 
Q 39.65625 6.390625 43.53125 10.953125 
Q 47.40625 15.53125 47.40625 23.390625 
Q 47.40625 31.296875 43.53125 35.828125 
Q 39.65625 40.375 33.015625 40.375 
z
M 52.59375 71.296875 
L 52.59375 62.3125 
Q 48.875 64.0625 45.09375 64.984375 
Q 41.3125 65.921875 37.59375 65.921875 
Q 27.828125 65.921875 22.671875 59.328125 
Q 17.53125 52.734375 16.796875 39.40625 
Q 19.671875 43.65625 24.015625 45.921875 
Q 28.375 48.1875 33.59375 48.1875 
Q 44.578125 48.1875 50.953125 41.515625 
Q 57.328125 34.859375 57.328125 23.390625 
Q 57.328125 12.15625 50.6875 5.359375 
Q 44.046875 -1.421875 33.015625 -1.421875 
Q 20.359375 -1.421875 13.671875 8.265625 
Q 6.984375 17.96875 6.984375 36.375 
Q 6.984375 53.65625 15.1875 63.9375 
Q 23.390625 74.21875 37.203125 74.21875 
Q 40.921875 74.21875 44.703125 73.484375 
Q 48.484375 72.75 52.59375 71.296875 
z
" id="DejaVuSans-54"/>
       </defs>
       <use xlink:href="#DejaVuSans-48"/>
       <use x="63.623047" xlink:href="#DejaVuSans-46"/>
       <use x="95.410156" xlink:href="#DejaVuSans-48"/>
       <use x="159.033203" xlink:href="#DejaVuSans-54"/>
      </g>
     </g>
    </g>
    <g id="text_18">
     <!-- $I$ -->
     <g transform="translate(58.402344 392.55)rotate(-90)scale(0.25 -0.25)">
      <defs>
       <path d="M 16.890625 72.90625 
L 26.8125 72.90625 
L 12.59375 0 
L 2.6875 0 
z
" id="DejaVuSans-Oblique-73"/>
      </defs>
      <use transform="translate(0 0.09375)" xlink:href="#DejaVuSans-Oblique-73"/>
     </g>
    </g>
   </g>
   <g id="line2d_33">
    <path clip-path="url(#p93dbebb400)" d="M 159.233058 628.738832 
L 172.786777 629.691612 
L 186.340496 629.188233 
L 199.894215 629.334053 
L 213.447934 629.557441 
L 227.001653 629.771522 
L 240.555372 630.241394 
L 254.109091 634.680756 
L 267.66281 641.619525 
L 281.216529 649.467551 
L 294.770248 655.525626 
L 308.323967 658.979025 
L 321.877686 661.43068 
L 335.431405 662.751425 
L 348.985124 663.233237 
L 362.538843 662.945506 
L 376.092562 661.912056 
L 389.646281 660.389481 
L 403.2 658.688393 
L 416.753719 657.38122 
L 430.307438 656.376365 
L 443.861157 654.891466 
L 457.414876 654.347434 
L 470.968595 653.958135 
L 484.522314 654.926514 
L 498.076033 657.15659 
L 511.629752 659.655765 
L 525.183471 661.253897 
L 538.73719 662.409747 
L 552.290909 662.942448 
L 565.844628 663.262474 
L 579.398347 663.235273 
L 592.952066 662.224085 
L 606.505785 661.681735 
L 620.059504 661.453905 
L 633.613223 661.067834 
L 647.166942 661.333844 
" style="fill:none;stroke:#f98e52;stroke-linecap:square;stroke-width:2;"/>
    <defs>
     <path d="M 0 2.5 
C 0.663008 2.5 1.29895 2.236584 1.767767 1.767767 
C 2.236584 1.29895 2.5 0.663008 2.5 0 
C 2.5 -0.663008 2.236584 -1.29895 1.767767 -1.767767 
C 1.29895 -2.236584 0.663008 -2.5 0 -2.5 
C -0.663008 -2.5 -1.29895 -2.236584 -1.767767 -1.767767 
C -2.236584 -1.29895 -2.5 -0.663008 -2.5 0 
C -2.5 0.663008 -2.236584 1.29895 -1.767767 1.767767 
C -1.29895 2.236584 -0.663008 2.5 0 2.5 
z
" id="mdc66f2f8fc" style="stroke:#f98e52;"/>
    </defs>
    <g clip-path="url(#p93dbebb400)">
     <use style="fill:#f98e52;stroke:#f98e52;" x="159.233058" xlink:href="#mdc66f2f8fc" y="628.738832"/>
     <use style="fill:#f98e52;stroke:#f98e52;" x="172.786777" xlink:href="#mdc66f2f8fc" y="629.691612"/>
     <use style="fill:#f98e52;stroke:#f98e52;" x="186.340496" xlink:href="#mdc66f2f8fc" y="629.188233"/>
     <use style="fill:#f98e52;stroke:#f98e52;" x="199.894215" xlink:href="#mdc66f2f8fc" y="629.334053"/>
     <use style="fill:#f98e52;stroke:#f98e52;" x="213.447934" xlink:href="#mdc66f2f8fc" y="629.557441"/>
     <use style="fill:#f98e52;stroke:#f98e52;" x="227.001653" xlink:href="#mdc66f2f8fc" y="629.771522"/>
     <use style="fill:#f98e52;stroke:#f98e52;" x="240.555372" xlink:href="#mdc66f2f8fc" y="630.241394"/>
     <use style="fill:#f98e52;stroke:#f98e52;" x="254.109091" xlink:href="#mdc66f2f8fc" y="634.680756"/>
     <use style="fill:#f98e52;stroke:#f98e52;" x="267.66281" xlink:href="#mdc66f2f8fc" y="641.619525"/>
     <use style="fill:#f98e52;stroke:#f98e52;" x="281.216529" xlink:href="#mdc66f2f8fc" y="649.467551"/>
     <use style="fill:#f98e52;stroke:#f98e52;" x="294.770248" xlink:href="#mdc66f2f8fc" y="655.525626"/>
     <use style="fill:#f98e52;stroke:#f98e52;" x="308.323967" xlink:href="#mdc66f2f8fc" y="658.979025"/>
     <use style="fill:#f98e52;stroke:#f98e52;" x="321.877686" xlink:href="#mdc66f2f8fc" y="661.43068"/>
     <use style="fill:#f98e52;stroke:#f98e52;" x="335.431405" xlink:href="#mdc66f2f8fc" y="662.751425"/>
     <use style="fill:#f98e52;stroke:#f98e52;" x="348.985124" xlink:href="#mdc66f2f8fc" y="663.233237"/>
     <use style="fill:#f98e52;stroke:#f98e52;" x="362.538843" xlink:href="#mdc66f2f8fc" y="662.945506"/>
     <use style="fill:#f98e52;stroke:#f98e52;" x="376.092562" xlink:href="#mdc66f2f8fc" y="661.912056"/>
     <use style="fill:#f98e52;stroke:#f98e52;" x="389.646281" xlink:href="#mdc66f2f8fc" y="660.389481"/>
     <use style="fill:#f98e52;stroke:#f98e52;" x="403.2" xlink:href="#mdc66f2f8fc" y="658.688393"/>
     <use style="fill:#f98e52;stroke:#f98e52;" x="416.753719" xlink:href="#mdc66f2f8fc" y="657.38122"/>
     <use style="fill:#f98e52;stroke:#f98e52;" x="430.307438" xlink:href="#mdc66f2f8fc" y="656.376365"/>
     <use style="fill:#f98e52;stroke:#f98e52;" x="443.861157" xlink:href="#mdc66f2f8fc" y="654.891466"/>
     <use style="fill:#f98e52;stroke:#f98e52;" x="457.414876" xlink:href="#mdc66f2f8fc" y="654.347434"/>
     <use style="fill:#f98e52;stroke:#f98e52;" x="470.968595" xlink:href="#mdc66f2f8fc" y="653.958135"/>
     <use style="fill:#f98e52;stroke:#f98e52;" x="484.522314" xlink:href="#mdc66f2f8fc" y="654.926514"/>
     <use style="fill:#f98e52;stroke:#f98e52;" x="498.076033" xlink:href="#mdc66f2f8fc" y="657.15659"/>
     <use style="fill:#f98e52;stroke:#f98e52;" x="511.629752" xlink:href="#mdc66f2f8fc" y="659.655765"/>
     <use style="fill:#f98e52;stroke:#f98e52;" x="525.183471" xlink:href="#mdc66f2f8fc" y="661.253897"/>
     <use style="fill:#f98e52;stroke:#f98e52;" x="538.73719" xlink:href="#mdc66f2f8fc" y="662.409747"/>
     <use style="fill:#f98e52;stroke:#f98e52;" x="552.290909" xlink:href="#mdc66f2f8fc" y="662.942448"/>
     <use style="fill:#f98e52;stroke:#f98e52;" x="565.844628" xlink:href="#mdc66f2f8fc" y="663.262474"/>
     <use style="fill:#f98e52;stroke:#f98e52;" x="579.398347" xlink:href="#mdc66f2f8fc" y="663.235273"/>
     <use style="fill:#f98e52;stroke:#f98e52;" x="592.952066" xlink:href="#mdc66f2f8fc" y="662.224085"/>
     <use style="fill:#f98e52;stroke:#f98e52;" x="606.505785" xlink:href="#mdc66f2f8fc" y="661.681735"/>
     <use style="fill:#f98e52;stroke:#f98e52;" x="620.059504" xlink:href="#mdc66f2f8fc" y="661.453905"/>
     <use style="fill:#f98e52;stroke:#f98e52;" x="633.613223" xlink:href="#mdc66f2f8fc" y="661.067834"/>
     <use style="fill:#f98e52;stroke:#f98e52;" x="647.166942" xlink:href="#mdc66f2f8fc" y="661.333844"/>
    </g>
   </g>
   <g id="line2d_34">
    <path clip-path="url(#p93dbebb400)" d="M 159.233058 533.831972 
L 172.786777 528.535864 
L 186.340496 527.285793 
L 199.894215 540.243457 
L 213.447934 558.951903 
L 227.001653 583.013397 
L 240.555372 619.80074 
L 254.109091 646.696746 
L 267.66281 659.524366 
L 281.216529 661.422297 
L 294.770248 656.43022 
L 308.323967 656.119962 
L 321.877686 659.381257 
L 335.431405 661.476207 
L 348.985124 662.61785 
L 362.538843 662.268842 
L 376.092562 655.746553 
L 389.646281 647.509903 
L 403.2 645.957736 
L 416.753719 646.96639 
L 430.307438 648.578527 
L 443.861157 652.981912 
L 457.414876 662.690204 
L 470.968595 661.872771 
L 484.522314 661.40535 
L 498.076033 661.970089 
L 511.629752 661.711733 
L 525.183471 662.246769 
L 538.73719 662.87243 
L 552.290909 663.150709 
L 565.844628 662.822908 
L 579.398347 663.115764 
L 592.952066 662.419638 
L 606.505785 660.868765 
L 620.059504 659.372092 
L 633.613223 657.905547 
L 647.166942 659.904707 
" style="fill:none;stroke:#ffffbe;stroke-linecap:square;stroke-width:2;"/>
    <defs>
     <path d="M 0 2.5 
C 0.663008 2.5 1.29895 2.236584 1.767767 1.767767 
C 2.236584 1.29895 2.5 0.663008 2.5 0 
C 2.5 -0.663008 2.236584 -1.29895 1.767767 -1.767767 
C 1.29895 -2.236584 0.663008 -2.5 0 -2.5 
C -0.663008 -2.5 -1.29895 -2.236584 -1.767767 -1.767767 
C -2.236584 -1.29895 -2.5 -0.663008 -2.5 0 
C -2.5 0.663008 -2.236584 1.29895 -1.767767 1.767767 
C -1.29895 2.236584 -0.663008 2.5 0 2.5 
z
" id="m0d1d8b3ffe" style="stroke:#ffffbe;"/>
    </defs>
    <g clip-path="url(#p93dbebb400)">
     <use style="fill:#ffffbe;stroke:#ffffbe;" x="159.233058" xlink:href="#m0d1d8b3ffe" y="533.831972"/>
     <use style="fill:#ffffbe;stroke:#ffffbe;" x="172.786777" xlink:href="#m0d1d8b3ffe" y="528.535864"/>
     <use style="fill:#ffffbe;stroke:#ffffbe;" x="186.340496" xlink:href="#m0d1d8b3ffe" y="527.285793"/>
     <use style="fill:#ffffbe;stroke:#ffffbe;" x="199.894215" xlink:href="#m0d1d8b3ffe" y="540.243457"/>
     <use style="fill:#ffffbe;stroke:#ffffbe;" x="213.447934" xlink:href="#m0d1d8b3ffe" y="558.951903"/>
     <use style="fill:#ffffbe;stroke:#ffffbe;" x="227.001653" xlink:href="#m0d1d8b3ffe" y="583.013397"/>
     <use style="fill:#ffffbe;stroke:#ffffbe;" x="240.555372" xlink:href="#m0d1d8b3ffe" y="619.80074"/>
     <use style="fill:#ffffbe;stroke:#ffffbe;" x="254.109091" xlink:href="#m0d1d8b3ffe" y="646.696746"/>
     <use style="fill:#ffffbe;stroke:#ffffbe;" x="267.66281" xlink:href="#m0d1d8b3ffe" y="659.524366"/>
     <use style="fill:#ffffbe;stroke:#ffffbe;" x="281.216529" xlink:href="#m0d1d8b3ffe" y="661.422297"/>
     <use style="fill:#ffffbe;stroke:#ffffbe;" x="294.770248" xlink:href="#m0d1d8b3ffe" y="656.43022"/>
     <use style="fill:#ffffbe;stroke:#ffffbe;" x="308.323967" xlink:href="#m0d1d8b3ffe" y="656.119962"/>
     <use style="fill:#ffffbe;stroke:#ffffbe;" x="321.877686" xlink:href="#m0d1d8b3ffe" y="659.381257"/>
     <use style="fill:#ffffbe;stroke:#ffffbe;" x="335.431405" xlink:href="#m0d1d8b3ffe" y="661.476207"/>
     <use style="fill:#ffffbe;stroke:#ffffbe;" x="348.985124" xlink:href="#m0d1d8b3ffe" y="662.61785"/>
     <use style="fill:#ffffbe;stroke:#ffffbe;" x="362.538843" xlink:href="#m0d1d8b3ffe" y="662.268842"/>
     <use style="fill:#ffffbe;stroke:#ffffbe;" x="376.092562" xlink:href="#m0d1d8b3ffe" y="655.746553"/>
     <use style="fill:#ffffbe;stroke:#ffffbe;" x="389.646281" xlink:href="#m0d1d8b3ffe" y="647.509903"/>
     <use style="fill:#ffffbe;stroke:#ffffbe;" x="403.2" xlink:href="#m0d1d8b3ffe" y="645.957736"/>
     <use style="fill:#ffffbe;stroke:#ffffbe;" x="416.753719" xlink:href="#m0d1d8b3ffe" y="646.96639"/>
     <use style="fill:#ffffbe;stroke:#ffffbe;" x="430.307438" xlink:href="#m0d1d8b3ffe" y="648.578527"/>
     <use style="fill:#ffffbe;stroke:#ffffbe;" x="443.861157" xlink:href="#m0d1d8b3ffe" y="652.981912"/>
     <use style="fill:#ffffbe;stroke:#ffffbe;" x="457.414876" xlink:href="#m0d1d8b3ffe" y="662.690204"/>
     <use style="fill:#ffffbe;stroke:#ffffbe;" x="470.968595" xlink:href="#m0d1d8b3ffe" y="661.872771"/>
     <use style="fill:#ffffbe;stroke:#ffffbe;" x="484.522314" xlink:href="#m0d1d8b3ffe" y="661.40535"/>
     <use style="fill:#ffffbe;stroke:#ffffbe;" x="498.076033" xlink:href="#m0d1d8b3ffe" y="661.970089"/>
     <use style="fill:#ffffbe;stroke:#ffffbe;" x="511.629752" xlink:href="#m0d1d8b3ffe" y="661.711733"/>
     <use style="fill:#ffffbe;stroke:#ffffbe;" x="525.183471" xlink:href="#m0d1d8b3ffe" y="662.246769"/>
     <use style="fill:#ffffbe;stroke:#ffffbe;" x="538.73719" xlink:href="#m0d1d8b3ffe" y="662.87243"/>
     <use style="fill:#ffffbe;stroke:#ffffbe;" x="552.290909" xlink:href="#m0d1d8b3ffe" y="663.150709"/>
     <use style="fill:#ffffbe;stroke:#ffffbe;" x="565.844628" xlink:href="#m0d1d8b3ffe" y="662.822908"/>
     <use style="fill:#ffffbe;stroke:#ffffbe;" x="579.398347" xlink:href="#m0d1d8b3ffe" y="663.115764"/>
     <use style="fill:#ffffbe;stroke:#ffffbe;" x="592.952066" xlink:href="#m0d1d8b3ffe" y="662.419638"/>
     <use style="fill:#ffffbe;stroke:#ffffbe;" x="606.505785" xlink:href="#m0d1d8b3ffe" y="660.868765"/>
     <use style="fill:#ffffbe;stroke:#ffffbe;" x="620.059504" xlink:href="#m0d1d8b3ffe" y="659.372092"/>
     <use style="fill:#ffffbe;stroke:#ffffbe;" x="633.613223" xlink:href="#m0d1d8b3ffe" y="657.905547"/>
     <use style="fill:#ffffbe;stroke:#ffffbe;" x="647.166942" xlink:href="#m0d1d8b3ffe" y="659.904707"/>
    </g>
   </g>
   <g id="line2d_35">
    <path clip-path="url(#p93dbebb400)" d="M 159.233058 352.347017 
L 172.786777 371.140128 
L 186.340496 427.968376 
L 199.894215 506.828717 
L 213.447934 562.474094 
L 227.001653 606.477278 
L 240.555372 658.889036 
L 254.109091 657.119178 
L 267.66281 649.221284 
L 281.216529 653.791561 
L 294.770248 656.37611 
L 308.323967 657.227929 
L 321.877686 655.735364 
L 335.431405 653.300467 
L 348.985124 654.167053 
L 362.538843 660.21736 
L 376.092562 648.679097 
L 389.646281 638.022057 
L 403.2 638.944391 
L 416.753719 655.264229 
L 430.307438 662.451303 
L 443.861157 660.241776 
L 457.414876 649.742589 
L 470.968595 651.670302 
L 484.522314 659.498028 
L 498.076033 662.259915 
L 511.629752 663.26281 
L 525.183471 663.020181 
L 538.73719 662.773704 
L 552.290909 663.25506 
L 565.844628 661.938176 
L 579.398347 661.409759 
L 592.952066 661.807983 
L 606.505785 663.261907 
L 620.059504 662.419031 
L 633.613223 658.316449 
L 647.166942 660.855962 
" style="fill:none;stroke:#86cfa5;stroke-linecap:square;stroke-width:2;"/>
    <defs>
     <path d="M 0 2.5 
C 0.663008 2.5 1.29895 2.236584 1.767767 1.767767 
C 2.236584 1.29895 2.5 0.663008 2.5 0 
C 2.5 -0.663008 2.236584 -1.29895 1.767767 -1.767767 
C 1.29895 -2.236584 0.663008 -2.5 0 -2.5 
C -0.663008 -2.5 -1.29895 -2.236584 -1.767767 -1.767767 
C -2.236584 -1.29895 -2.5 -0.663008 -2.5 0 
C -2.5 0.663008 -2.236584 1.29895 -1.767767 1.767767 
C -1.29895 2.236584 -0.663008 2.5 0 2.5 
z
" id="m8d940af49e" style="stroke:#86cfa5;"/>
    </defs>
    <g clip-path="url(#p93dbebb400)">
     <use style="fill:#86cfa5;stroke:#86cfa5;" x="159.233058" xlink:href="#m8d940af49e" y="352.347017"/>
     <use style="fill:#86cfa5;stroke:#86cfa5;" x="172.786777" xlink:href="#m8d940af49e" y="371.140128"/>
     <use style="fill:#86cfa5;stroke:#86cfa5;" x="186.340496" xlink:href="#m8d940af49e" y="427.968376"/>
     <use style="fill:#86cfa5;stroke:#86cfa5;" x="199.894215" xlink:href="#m8d940af49e" y="506.828717"/>
     <use style="fill:#86cfa5;stroke:#86cfa5;" x="213.447934" xlink:href="#m8d940af49e" y="562.474094"/>
     <use style="fill:#86cfa5;stroke:#86cfa5;" x="227.001653" xlink:href="#m8d940af49e" y="606.477278"/>
     <use style="fill:#86cfa5;stroke:#86cfa5;" x="240.555372" xlink:href="#m8d940af49e" y="658.889036"/>
     <use style="fill:#86cfa5;stroke:#86cfa5;" x="254.109091" xlink:href="#m8d940af49e" y="657.119178"/>
     <use style="fill:#86cfa5;stroke:#86cfa5;" x="267.66281" xlink:href="#m8d940af49e" y="649.221284"/>
     <use style="fill:#86cfa5;stroke:#86cfa5;" x="281.216529" xlink:href="#m8d940af49e" y="653.791561"/>
     <use style="fill:#86cfa5;stroke:#86cfa5;" x="294.770248" xlink:href="#m8d940af49e" y="656.37611"/>
     <use style="fill:#86cfa5;stroke:#86cfa5;" x="308.323967" xlink:href="#m8d940af49e" y="657.227929"/>
     <use style="fill:#86cfa5;stroke:#86cfa5;" x="321.877686" xlink:href="#m8d940af49e" y="655.735364"/>
     <use style="fill:#86cfa5;stroke:#86cfa5;" x="335.431405" xlink:href="#m8d940af49e" y="653.300467"/>
     <use style="fill:#86cfa5;stroke:#86cfa5;" x="348.985124" xlink:href="#m8d940af49e" y="654.167053"/>
     <use style="fill:#86cfa5;stroke:#86cfa5;" x="362.538843" xlink:href="#m8d940af49e" y="660.21736"/>
     <use style="fill:#86cfa5;stroke:#86cfa5;" x="376.092562" xlink:href="#m8d940af49e" y="648.679097"/>
     <use style="fill:#86cfa5;stroke:#86cfa5;" x="389.646281" xlink:href="#m8d940af49e" y="638.022057"/>
     <use style="fill:#86cfa5;stroke:#86cfa5;" x="403.2" xlink:href="#m8d940af49e" y="638.944391"/>
     <use style="fill:#86cfa5;stroke:#86cfa5;" x="416.753719" xlink:href="#m8d940af49e" y="655.264229"/>
     <use style="fill:#86cfa5;stroke:#86cfa5;" x="430.307438" xlink:href="#m8d940af49e" y="662.451303"/>
     <use style="fill:#86cfa5;stroke:#86cfa5;" x="443.861157" xlink:href="#m8d940af49e" y="660.241776"/>
     <use style="fill:#86cfa5;stroke:#86cfa5;" x="457.414876" xlink:href="#m8d940af49e" y="649.742589"/>
     <use style="fill:#86cfa5;stroke:#86cfa5;" x="470.968595" xlink:href="#m8d940af49e" y="651.670302"/>
     <use style="fill:#86cfa5;stroke:#86cfa5;" x="484.522314" xlink:href="#m8d940af49e" y="659.498028"/>
     <use style="fill:#86cfa5;stroke:#86cfa5;" x="498.076033" xlink:href="#m8d940af49e" y="662.259915"/>
     <use style="fill:#86cfa5;stroke:#86cfa5;" x="511.629752" xlink:href="#m8d940af49e" y="663.26281"/>
     <use style="fill:#86cfa5;stroke:#86cfa5;" x="525.183471" xlink:href="#m8d940af49e" y="663.020181"/>
     <use style="fill:#86cfa5;stroke:#86cfa5;" x="538.73719" xlink:href="#m8d940af49e" y="662.773704"/>
     <use style="fill:#86cfa5;stroke:#86cfa5;" x="552.290909" xlink:href="#m8d940af49e" y="663.25506"/>
     <use style="fill:#86cfa5;stroke:#86cfa5;" x="565.844628" xlink:href="#m8d940af49e" y="661.938176"/>
     <use style="fill:#86cfa5;stroke:#86cfa5;" x="579.398347" xlink:href="#m8d940af49e" y="661.409759"/>
     <use style="fill:#86cfa5;stroke:#86cfa5;" x="592.952066" xlink:href="#m8d940af49e" y="661.807983"/>
     <use style="fill:#86cfa5;stroke:#86cfa5;" x="606.505785" xlink:href="#m8d940af49e" y="663.261907"/>
     <use style="fill:#86cfa5;stroke:#86cfa5;" x="620.059504" xlink:href="#m8d940af49e" y="662.419031"/>
     <use style="fill:#86cfa5;stroke:#86cfa5;" x="633.613223" xlink:href="#m8d940af49e" y="658.316449"/>
     <use style="fill:#86cfa5;stroke:#86cfa5;" x="647.166942" xlink:href="#m8d940af49e" y="660.855962"/>
    </g>
   </g>
   <g id="line2d_36">
    <path clip-path="url(#p93dbebb400)" d="M 159.233058 114.33719 
L 172.786777 192.791989 
L 186.340496 340.595869 
L 199.894215 517.93071 
L 213.447934 613.804861 
L 227.001653 654.070745 
L 240.555372 647.543797 
L 254.109091 642.492424 
L 267.66281 662.687698 
L 281.216529 657.762303 
L 294.770248 661.897422 
L 308.323967 657.664723 
L 321.877686 651.226893 
L 335.431405 644.589182 
L 348.985124 644.328939 
L 362.538843 656.717787 
L 376.092562 651.231049 
L 389.646281 636.129784 
L 403.2 649.492617 
L 416.753719 662.477113 
L 430.307438 658.364128 
L 443.861157 655.654196 
L 457.414876 663.142004 
L 470.968595 661.736739 
L 484.522314 659.289223 
L 498.076033 661.834053 
L 511.629752 662.714333 
L 525.183471 662.726901 
L 538.73719 662.74744 
L 552.290909 662.45795 
L 565.844628 660.663405 
L 579.398347 659.938402 
L 592.952066 658.886744 
L 606.505785 659.895454 
L 620.059504 663.144872 
L 633.613223 662.728685 
L 647.166942 661.367455 
" style="fill:none;stroke:#5e4fa2;stroke-linecap:square;stroke-width:2;"/>
    <defs>
     <path d="M 0 2.5 
C 0.663008 2.5 1.29895 2.236584 1.767767 1.767767 
C 2.236584 1.29895 2.5 0.663008 2.5 0 
C 2.5 -0.663008 2.236584 -1.29895 1.767767 -1.767767 
C 1.29895 -2.236584 0.663008 -2.5 0 -2.5 
C -0.663008 -2.5 -1.29895 -2.236584 -1.767767 -1.767767 
C -2.236584 -1.29895 -2.5 -0.663008 -2.5 0 
C -2.5 0.663008 -2.236584 1.29895 -1.767767 1.767767 
C -1.29895 2.236584 -0.663008 2.5 0 2.5 
z
" id="ma2d9619ec4" style="stroke:#5e4fa2;"/>
    </defs>
    <g clip-path="url(#p93dbebb400)">
     <use style="fill:#5e4fa2;stroke:#5e4fa2;" x="159.233058" xlink:href="#ma2d9619ec4" y="114.33719"/>
     <use style="fill:#5e4fa2;stroke:#5e4fa2;" x="172.786777" xlink:href="#ma2d9619ec4" y="192.791989"/>
     <use style="fill:#5e4fa2;stroke:#5e4fa2;" x="186.340496" xlink:href="#ma2d9619ec4" y="340.595869"/>
     <use style="fill:#5e4fa2;stroke:#5e4fa2;" x="199.894215" xlink:href="#ma2d9619ec4" y="517.93071"/>
     <use style="fill:#5e4fa2;stroke:#5e4fa2;" x="213.447934" xlink:href="#ma2d9619ec4" y="613.804861"/>
     <use style="fill:#5e4fa2;stroke:#5e4fa2;" x="227.001653" xlink:href="#ma2d9619ec4" y="654.070745"/>
     <use style="fill:#5e4fa2;stroke:#5e4fa2;" x="240.555372" xlink:href="#ma2d9619ec4" y="647.543797"/>
     <use style="fill:#5e4fa2;stroke:#5e4fa2;" x="254.109091" xlink:href="#ma2d9619ec4" y="642.492424"/>
     <use style="fill:#5e4fa2;stroke:#5e4fa2;" x="267.66281" xlink:href="#ma2d9619ec4" y="662.687698"/>
     <use style="fill:#5e4fa2;stroke:#5e4fa2;" x="281.216529" xlink:href="#ma2d9619ec4" y="657.762303"/>
     <use style="fill:#5e4fa2;stroke:#5e4fa2;" x="294.770248" xlink:href="#ma2d9619ec4" y="661.897422"/>
     <use style="fill:#5e4fa2;stroke:#5e4fa2;" x="308.323967" xlink:href="#ma2d9619ec4" y="657.664723"/>
     <use style="fill:#5e4fa2;stroke:#5e4fa2;" x="321.877686" xlink:href="#ma2d9619ec4" y="651.226893"/>
     <use style="fill:#5e4fa2;stroke:#5e4fa2;" x="335.431405" xlink:href="#ma2d9619ec4" y="644.589182"/>
     <use style="fill:#5e4fa2;stroke:#5e4fa2;" x="348.985124" xlink:href="#ma2d9619ec4" y="644.328939"/>
     <use style="fill:#5e4fa2;stroke:#5e4fa2;" x="362.538843" xlink:href="#ma2d9619ec4" y="656.717787"/>
     <use style="fill:#5e4fa2;stroke:#5e4fa2;" x="376.092562" xlink:href="#ma2d9619ec4" y="651.231049"/>
     <use style="fill:#5e4fa2;stroke:#5e4fa2;" x="389.646281" xlink:href="#ma2d9619ec4" y="636.129784"/>
     <use style="fill:#5e4fa2;stroke:#5e4fa2;" x="403.2" xlink:href="#ma2d9619ec4" y="649.492617"/>
     <use style="fill:#5e4fa2;stroke:#5e4fa2;" x="416.753719" xlink:href="#ma2d9619ec4" y="662.477113"/>
     <use style="fill:#5e4fa2;stroke:#5e4fa2;" x="430.307438" xlink:href="#ma2d9619ec4" y="658.364128"/>
     <use style="fill:#5e4fa2;stroke:#5e4fa2;" x="443.861157" xlink:href="#ma2d9619ec4" y="655.654196"/>
     <use style="fill:#5e4fa2;stroke:#5e4fa2;" x="457.414876" xlink:href="#ma2d9619ec4" y="663.142004"/>
     <use style="fill:#5e4fa2;stroke:#5e4fa2;" x="470.968595" xlink:href="#ma2d9619ec4" y="661.736739"/>
     <use style="fill:#5e4fa2;stroke:#5e4fa2;" x="484.522314" xlink:href="#ma2d9619ec4" y="659.289223"/>
     <use style="fill:#5e4fa2;stroke:#5e4fa2;" x="498.076033" xlink:href="#ma2d9619ec4" y="661.834053"/>
     <use style="fill:#5e4fa2;stroke:#5e4fa2;" x="511.629752" xlink:href="#ma2d9619ec4" y="662.714333"/>
     <use style="fill:#5e4fa2;stroke:#5e4fa2;" x="525.183471" xlink:href="#ma2d9619ec4" y="662.726901"/>
     <use style="fill:#5e4fa2;stroke:#5e4fa2;" x="538.73719" xlink:href="#ma2d9619ec4" y="662.74744"/>
     <use style="fill:#5e4fa2;stroke:#5e4fa2;" x="552.290909" xlink:href="#ma2d9619ec4" y="662.45795"/>
     <use style="fill:#5e4fa2;stroke:#5e4fa2;" x="565.844628" xlink:href="#ma2d9619ec4" y="660.663405"/>
     <use style="fill:#5e4fa2;stroke:#5e4fa2;" x="579.398347" xlink:href="#ma2d9619ec4" y="659.938402"/>
     <use style="fill:#5e4fa2;stroke:#5e4fa2;" x="592.952066" xlink:href="#ma2d9619ec4" y="658.886744"/>
     <use style="fill:#5e4fa2;stroke:#5e4fa2;" x="606.505785" xlink:href="#ma2d9619ec4" y="659.895454"/>
     <use style="fill:#5e4fa2;stroke:#5e4fa2;" x="620.059504" xlink:href="#ma2d9619ec4" y="663.144872"/>
     <use style="fill:#5e4fa2;stroke:#5e4fa2;" x="633.613223" xlink:href="#ma2d9619ec4" y="662.728685"/>
     <use style="fill:#5e4fa2;stroke:#5e4fa2;" x="647.166942" xlink:href="#ma2d9619ec4" y="661.367455"/>
    </g>
   </g>
   <g id="patch_3">
    <path d="M 108 720.9 
L 108 56.7 
" style="fill:none;stroke:#000000;stroke-linecap:square;stroke-linejoin:miter;stroke-width:0.8;"/>
   </g>
   <g id="patch_4">
    <path d="M 698.4 720.9 
L 698.4 56.7 
" style="fill:none;stroke:#000000;stroke-linecap:square;stroke-linejoin:miter;stroke-width:0.8;"/>
   </g>
   <g id="patch_5">
    <path d="M 108 720.9 
L 698.4 720.9 
" style="fill:none;stroke:#000000;stroke-linecap:square;stroke-linejoin:miter;stroke-width:0.8;"/>
   </g>
   <g id="patch_6">
    <path d="M 108 56.7 
L 698.4 56.7 
" style="fill:none;stroke:#000000;stroke-linecap:square;stroke-linejoin:miter;stroke-width:0.8;"/>
   </g>
   <g id="legend_1">
    <g id="patch_7">
     <path d="M 526.7625 219.48125 
L 684.4 219.48125 
Q 688.4 219.48125 688.4 215.48125 
L 688.4 70.7 
Q 688.4 66.7 684.4 66.7 
L 526.7625 66.7 
Q 522.7625 66.7 522.7625 70.7 
L 522.7625 215.48125 
Q 522.7625 219.48125 526.7625 219.48125 
z
" style="fill:#ffffff;opacity:0.8;stroke:#cccccc;stroke-linejoin:miter;"/>
    </g>
    <g id="line2d_37">
     <path d="M 530.7625 82.896875 
L 570.7625 82.896875 
" style="fill:none;stroke:#000000;stroke-linecap:square;stroke-width:2;"/>
    </g>
    <g id="line2d_38">
     <defs>
      <path d="M 0 3 
C 0.795609 3 1.55874 2.683901 2.12132 2.12132 
C 2.683901 1.55874 3 0.795609 3 0 
C 3 -0.795609 2.683901 -1.55874 2.12132 -2.12132 
C 1.55874 -2.683901 0.795609 -3 0 -3 
C -0.795609 -3 -1.55874 -2.683901 -2.12132 -2.12132 
C -2.683901 -1.55874 -3 -0.795609 -3 0 
C -3 0.795609 -2.683901 1.55874 -2.12132 2.12132 
C -1.55874 2.683901 -0.795609 3 0 3 
z
" id="me0742d679a" style="stroke:#000000;"/>
     </defs>
     <g>
      <use style="stroke:#000000;" x="550.7625" xlink:href="#me0742d679a" y="82.896875"/>
     </g>
    </g>
    <g id="text_19">
     <!-- (-3, -1, 2) -->
     <g transform="translate(586.7625 89.896875)scale(0.2 -0.2)">
      <defs>
       <path d="M 31 75.875 
Q 24.46875 64.65625 21.28125 53.65625 
Q 18.109375 42.671875 18.109375 31.390625 
Q 18.109375 20.125 21.3125 9.0625 
Q 24.515625 -2 31 -13.1875 
L 23.1875 -13.1875 
Q 15.875 -1.703125 12.234375 9.375 
Q 8.59375 20.453125 8.59375 31.390625 
Q 8.59375 42.28125 12.203125 53.3125 
Q 15.828125 64.359375 23.1875 75.875 
z
" id="DejaVuSans-40"/>
       <path d="M 4.890625 31.390625 
L 31.203125 31.390625 
L 31.203125 23.390625 
L 4.890625 23.390625 
z
" id="DejaVuSans-45"/>
       <path d="M 11.71875 12.40625 
L 22.015625 12.40625 
L 22.015625 4 
L 14.015625 -11.625 
L 7.71875 -11.625 
L 11.71875 4 
z
" id="DejaVuSans-44"/>
       <path id="DejaVuSans-32"/>
       <path d="M 8.015625 75.875 
L 15.828125 75.875 
Q 23.140625 64.359375 26.78125 53.3125 
Q 30.421875 42.28125 30.421875 31.390625 
Q 30.421875 20.453125 26.78125 9.375 
Q 23.140625 -1.703125 15.828125 -13.1875 
L 8.015625 -13.1875 
Q 14.5 -2 17.703125 9.0625 
Q 20.90625 20.125 20.90625 31.390625 
Q 20.90625 42.671875 17.703125 53.65625 
Q 14.5 64.65625 8.015625 75.875 
z
" id="DejaVuSans-41"/>
      </defs>
      <use xlink:href="#DejaVuSans-40"/>
      <use x="39.013672" xlink:href="#DejaVuSans-45"/>
      <use x="75.097656" xlink:href="#DejaVuSans-51"/>
      <use x="138.720703" xlink:href="#DejaVuSans-44"/>
      <use x="170.507812" xlink:href="#DejaVuSans-32"/>
      <use x="202.294922" xlink:href="#DejaVuSans-45"/>
      <use x="238.378906" xlink:href="#DejaVuSans-49"/>
      <use x="302.001953" xlink:href="#DejaVuSans-44"/>
      <use x="333.789062" xlink:href="#DejaVuSans-32"/>
      <use x="365.576172" xlink:href="#DejaVuSans-50"/>
      <use x="429.199219" xlink:href="#DejaVuSans-41"/>
     </g>
    </g>
    <g id="line2d_39">
     <path d="M 530.7625 112.253125 
L 570.7625 112.253125 
" style="fill:none;stroke:#f98e52;stroke-linecap:square;stroke-width:2;"/>
    </g>
    <g id="line2d_40"/>
    <g id="text_20">
     <!-- $z=90 A$ -->
     <g transform="translate(586.7625 119.253125)scale(0.2 -0.2)">
      <defs>
       <path d="M 11.625 54.6875 
L 54.296875 54.6875 
L 52.6875 46.484375 
L 11.53125 7.171875 
L 45.515625 7.171875 
L 44.09375 0 
L -0.296875 0 
L 1.3125 8.203125 
L 42.484375 47.515625 
L 10.203125 47.515625 
z
" id="DejaVuSans-Oblique-122"/>
       <path d="M 10.59375 45.40625 
L 73.1875 45.40625 
L 73.1875 37.203125 
L 10.59375 37.203125 
z
M 10.59375 25.484375 
L 73.1875 25.484375 
L 73.1875 17.1875 
L 10.59375 17.1875 
z
" id="DejaVuSans-61"/>
       <path d="M 10.984375 1.515625 
L 10.984375 10.5 
Q 14.703125 8.734375 18.5 7.8125 
Q 22.3125 6.890625 25.984375 6.890625 
Q 35.75 6.890625 40.890625 13.453125 
Q 46.046875 20.015625 46.78125 33.40625 
Q 43.953125 29.203125 39.59375 26.953125 
Q 35.25 24.703125 29.984375 24.703125 
Q 19.046875 24.703125 12.671875 31.3125 
Q 6.296875 37.9375 6.296875 49.421875 
Q 6.296875 60.640625 12.9375 67.421875 
Q 19.578125 74.21875 30.609375 74.21875 
Q 43.265625 74.21875 49.921875 64.515625 
Q 56.59375 54.828125 56.59375 36.375 
Q 56.59375 19.140625 48.40625 8.859375 
Q 40.234375 -1.421875 26.421875 -1.421875 
Q 22.703125 -1.421875 18.890625 -0.6875 
Q 15.09375 0.046875 10.984375 1.515625 
z
M 30.609375 32.421875 
Q 37.25 32.421875 41.125 36.953125 
Q 45.015625 41.5 45.015625 49.421875 
Q 45.015625 57.28125 41.125 61.84375 
Q 37.25 66.40625 30.609375 66.40625 
Q 23.96875 66.40625 20.09375 61.84375 
Q 16.21875 57.28125 16.21875 49.421875 
Q 16.21875 41.5 20.09375 36.953125 
Q 23.96875 32.421875 30.609375 32.421875 
z
" id="DejaVuSans-57"/>
       <path d="M 36.8125 72.90625 
L 48 72.90625 
L 61.53125 0 
L 51.21875 0 
L 48.1875 18.703125 
L 15.375 18.703125 
L 5.078125 0 
L -5.328125 0 
z
M 40.375 63.1875 
L 19.921875 26.90625 
L 46.6875 26.90625 
z
" id="DejaVuSans-Oblique-65"/>
      </defs>
      <use transform="translate(0 0.78125)" xlink:href="#DejaVuSans-Oblique-122"/>
      <use transform="translate(71.972656 0.78125)" xlink:href="#DejaVuSans-61"/>
      <use transform="translate(175.244141 0.78125)" xlink:href="#DejaVuSans-57"/>
      <use transform="translate(238.867188 0.78125)" xlink:href="#DejaVuSans-48"/>
      <use transform="translate(302.490234 0.78125)" xlink:href="#DejaVuSans-Oblique-65"/>
     </g>
    </g>
    <g id="line2d_41">
     <path d="M 530.7625 141.609375 
L 570.7625 141.609375 
" style="fill:none;stroke:#ffffbe;stroke-linecap:square;stroke-width:2;"/>
    </g>
    <g id="line2d_42"/>
    <g id="text_21">
     <!-- $z=191 A$ -->
     <g transform="translate(586.7625 148.609375)scale(0.2 -0.2)">
      <use transform="translate(0 0.78125)" xlink:href="#DejaVuSans-Oblique-122"/>
      <use transform="translate(71.972656 0.78125)" xlink:href="#DejaVuSans-61"/>
      <use transform="translate(175.244141 0.78125)" xlink:href="#DejaVuSans-49"/>
      <use transform="translate(238.867188 0.78125)" xlink:href="#DejaVuSans-57"/>
      <use transform="translate(302.490234 0.78125)" xlink:href="#DejaVuSans-49"/>
      <use transform="translate(366.113281 0.78125)" xlink:href="#DejaVuSans-Oblique-65"/>
     </g>
    </g>
    <g id="line2d_43">
     <path d="M 530.7625 170.965625 
L 570.7625 170.965625 
" style="fill:none;stroke:#86cfa5;stroke-linecap:square;stroke-width:2;"/>
    </g>
    <g id="line2d_44"/>
    <g id="text_22">
     <!-- $z=292 A$ -->
     <g transform="translate(586.7625 177.965625)scale(0.2 -0.2)">
      <use transform="translate(0 0.78125)" xlink:href="#DejaVuSans-Oblique-122"/>
      <use transform="translate(71.972656 0.78125)" xlink:href="#DejaVuSans-61"/>
      <use transform="translate(175.244141 0.78125)" xlink:href="#DejaVuSans-50"/>
      <use transform="translate(237.117188 0.78125)" xlink:href="#DejaVuSans-57"/>
      <use transform="translate(298.990234 0.78125)" xlink:href="#DejaVuSans-50"/>
      <use transform="translate(362.613281 0.78125)" xlink:href="#DejaVuSans-Oblique-65"/>
     </g>
    </g>
    <g id="line2d_45">
     <path d="M 530.7625 200.321875 
L 570.7625 200.321875 
" style="fill:none;stroke:#5e4fa2;stroke-linecap:square;stroke-width:2;"/>
    </g>
    <g id="line2d_46"/>
    <g id="text_23">
     <!-- $z=393 A$ -->
     <g transform="translate(586.7625 207.321875)scale(0.2 -0.2)">
      <use transform="translate(0 0.78125)" xlink:href="#DejaVuSans-Oblique-122"/>
      <use transform="translate(71.972656 0.78125)" xlink:href="#DejaVuSans-61"/>
      <use transform="translate(175.244141 0.78125)" xlink:href="#DejaVuSans-51"/>
      <use transform="translate(238.867188 0.78125)" xlink:href="#DejaVuSans-57"/>
      <use transform="translate(302.490234 0.78125)" xlink:href="#DejaVuSans-51"/>
      <use transform="translate(366.113281 0.78125)" xlink:href="#DejaVuSans-Oblique-65"/>
     </g>
    </g>
   </g>
  </g>
 </g>
 <defs>
  <clipPath id="p93dbebb400">
   <rect height="664.2" width="590.4" x="108" y="56.7"/>
  </clipPath>
 </defs>
</svg>
