<?xml version="1.0" encoding="utf-8" standalone="no"?>
<!DOCTYPE svg PUBLIC "-//W3C//DTD SVG 1.1//EN"
  "http://www.w3.org/Graphics/SVG/1.1/DTD/svg11.dtd">
<!-- Created with matplotlib (https://matplotlib.org/) -->
<svg height="810pt" version="1.1" viewBox="0 0 720 810" width="720pt" xmlns="http://www.w3.org/2000/svg" xmlns:xlink="http://www.w3.org/1999/xlink">
 <metadata>
  <rdf:RDF xmlns:cc="http://creativecommons.org/ns#" xmlns:dc="http://purl.org/dc/elements/1.1/" xmlns:rdf="http://www.w3.org/1999/02/22-rdf-syntax-ns#">
   <cc:Work>
    <dc:type rdf:resource="http://purl.org/dc/dcmitype/StillImage"/>
    <dc:date>2021-07-15T12:31:11.443442</dc:date>
    <dc:format>image/svg+xml</dc:format>
    <dc:creator>
     <cc:Agent>
      <dc:title>Matplotlib v3.3.1, https://matplotlib.org/</dc:title>
     </cc:Agent>
    </dc:creator>
   </cc:Work>
  </rdf:RDF>
 </metadata>
 <defs>
  <style type="text/css">*{stroke-linecap:butt;stroke-linejoin:round;}</style>
 </defs>
 <g id="figure_1">
  <g id="patch_1">
   <path d="M 0 810 
L 720 810 
L 720 0 
L 0 0 
z
" style="fill:#ffffff;"/>
  </g>
  <g id="axes_1">
   <g id="patch_2">
    <path d="M 108 720.9 
L 698.4 720.9 
L 698.4 56.7 
L 108 56.7 
z
" style="fill:#ffffff;"/>
   </g>
   <g id="matplotlib.axis_1">
    <g id="xtick_1">
     <g id="line2d_1">
      <path clip-path="url(#pebaf4aea95)" d="M 177.999746 720.9 
L 177.999746 56.7 
" style="fill:none;stroke:#e6e6e6;stroke-linecap:square;stroke-width:0.8;"/>
     </g>
     <g id="line2d_2">
      <defs>
       <path d="M 0 0 
L 0 3.5 
" id="mc95b2983df" style="stroke:#000000;stroke-width:0.8;"/>
      </defs>
      <g>
       <use style="stroke:#000000;stroke-width:0.8;" x="177.999746" xlink:href="#mc95b2983df" y="720.9"/>
      </g>
     </g>
     <g id="text_1">
      <!-- 5 -->
      <g transform="translate(173.227871 739.297656)scale(0.15 -0.15)">
       <defs>
        <path d="M 10.796875 72.90625 
L 49.515625 72.90625 
L 49.515625 64.59375 
L 19.828125 64.59375 
L 19.828125 46.734375 
Q 21.96875 47.46875 24.109375 47.828125 
Q 26.265625 48.1875 28.421875 48.1875 
Q 40.625 48.1875 47.75 41.5 
Q 54.890625 34.8125 54.890625 23.390625 
Q 54.890625 11.625 47.5625 5.09375 
Q 40.234375 -1.421875 26.90625 -1.421875 
Q 22.3125 -1.421875 17.546875 -0.640625 
Q 12.796875 0.140625 7.71875 1.703125 
L 7.71875 11.625 
Q 12.109375 9.234375 16.796875 8.0625 
Q 21.484375 6.890625 26.703125 6.890625 
Q 35.15625 6.890625 40.078125 11.328125 
Q 45.015625 15.765625 45.015625 23.390625 
Q 45.015625 31 40.078125 35.4375 
Q 35.15625 39.890625 26.703125 39.890625 
Q 22.75 39.890625 18.8125 39.015625 
Q 14.890625 38.140625 10.796875 36.28125 
z
" id="DejaVuSans-53"/>
       </defs>
       <use xlink:href="#DejaVuSans-53"/>
      </g>
     </g>
    </g>
    <g id="xtick_2">
     <g id="line2d_3">
      <path clip-path="url(#pebaf4aea95)" d="M 271.833185 720.9 
L 271.833185 56.7 
" style="fill:none;stroke:#e6e6e6;stroke-linecap:square;stroke-width:0.8;"/>
     </g>
     <g id="line2d_4">
      <g>
       <use style="stroke:#000000;stroke-width:0.8;" x="271.833185" xlink:href="#mc95b2983df" y="720.9"/>
      </g>
     </g>
     <g id="text_2">
      <!-- 10 -->
      <g transform="translate(262.289435 739.297656)scale(0.15 -0.15)">
       <defs>
        <path d="M 12.40625 8.296875 
L 28.515625 8.296875 
L 28.515625 63.921875 
L 10.984375 60.40625 
L 10.984375 69.390625 
L 28.421875 72.90625 
L 38.28125 72.90625 
L 38.28125 8.296875 
L 54.390625 8.296875 
L 54.390625 0 
L 12.40625 0 
z
" id="DejaVuSans-49"/>
        <path d="M 31.78125 66.40625 
Q 24.171875 66.40625 20.328125 58.90625 
Q 16.5 51.421875 16.5 36.375 
Q 16.5 21.390625 20.328125 13.890625 
Q 24.171875 6.390625 31.78125 6.390625 
Q 39.453125 6.390625 43.28125 13.890625 
Q 47.125 21.390625 47.125 36.375 
Q 47.125 51.421875 43.28125 58.90625 
Q 39.453125 66.40625 31.78125 66.40625 
z
M 31.78125 74.21875 
Q 44.046875 74.21875 50.515625 64.515625 
Q 56.984375 54.828125 56.984375 36.375 
Q 56.984375 17.96875 50.515625 8.265625 
Q 44.046875 -1.421875 31.78125 -1.421875 
Q 19.53125 -1.421875 13.0625 8.265625 
Q 6.59375 17.96875 6.59375 36.375 
Q 6.59375 54.828125 13.0625 64.515625 
Q 19.53125 74.21875 31.78125 74.21875 
z
" id="DejaVuSans-48"/>
       </defs>
       <use xlink:href="#DejaVuSans-49"/>
       <use x="63.623047" xlink:href="#DejaVuSans-48"/>
      </g>
     </g>
    </g>
    <g id="xtick_3">
     <g id="line2d_5">
      <path clip-path="url(#pebaf4aea95)" d="M 365.666624 720.9 
L 365.666624 56.7 
" style="fill:none;stroke:#e6e6e6;stroke-linecap:square;stroke-width:0.8;"/>
     </g>
     <g id="line2d_6">
      <g>
       <use style="stroke:#000000;stroke-width:0.8;" x="365.666624" xlink:href="#mc95b2983df" y="720.9"/>
      </g>
     </g>
     <g id="text_3">
      <!-- 15 -->
      <g transform="translate(356.122874 739.297656)scale(0.15 -0.15)">
       <use xlink:href="#DejaVuSans-49"/>
       <use x="63.623047" xlink:href="#DejaVuSans-53"/>
      </g>
     </g>
    </g>
    <g id="xtick_4">
     <g id="line2d_7">
      <path clip-path="url(#pebaf4aea95)" d="M 459.500064 720.9 
L 459.500064 56.7 
" style="fill:none;stroke:#e6e6e6;stroke-linecap:square;stroke-width:0.8;"/>
     </g>
     <g id="line2d_8">
      <g>
       <use style="stroke:#000000;stroke-width:0.8;" x="459.500064" xlink:href="#mc95b2983df" y="720.9"/>
      </g>
     </g>
     <g id="text_4">
      <!-- 20 -->
      <g transform="translate(449.956314 739.297656)scale(0.15 -0.15)">
       <defs>
        <path d="M 19.1875 8.296875 
L 53.609375 8.296875 
L 53.609375 0 
L 7.328125 0 
L 7.328125 8.296875 
Q 12.9375 14.109375 22.625 23.890625 
Q 32.328125 33.6875 34.8125 36.53125 
Q 39.546875 41.84375 41.421875 45.53125 
Q 43.3125 49.21875 43.3125 52.78125 
Q 43.3125 58.59375 39.234375 62.25 
Q 35.15625 65.921875 28.609375 65.921875 
Q 23.96875 65.921875 18.8125 64.3125 
Q 13.671875 62.703125 7.8125 59.421875 
L 7.8125 69.390625 
Q 13.765625 71.78125 18.9375 73 
Q 24.125 74.21875 28.421875 74.21875 
Q 39.75 74.21875 46.484375 68.546875 
Q 53.21875 62.890625 53.21875 53.421875 
Q 53.21875 48.921875 51.53125 44.890625 
Q 49.859375 40.875 45.40625 35.40625 
Q 44.1875 33.984375 37.640625 27.21875 
Q 31.109375 20.453125 19.1875 8.296875 
z
" id="DejaVuSans-50"/>
       </defs>
       <use xlink:href="#DejaVuSans-50"/>
       <use x="63.623047" xlink:href="#DejaVuSans-48"/>
      </g>
     </g>
    </g>
    <g id="xtick_5">
     <g id="line2d_9">
      <path clip-path="url(#pebaf4aea95)" d="M 553.333503 720.9 
L 553.333503 56.7 
" style="fill:none;stroke:#e6e6e6;stroke-linecap:square;stroke-width:0.8;"/>
     </g>
     <g id="line2d_10">
      <g>
       <use style="stroke:#000000;stroke-width:0.8;" x="553.333503" xlink:href="#mc95b2983df" y="720.9"/>
      </g>
     </g>
     <g id="text_5">
      <!-- 25 -->
      <g transform="translate(543.789753 739.297656)scale(0.15 -0.15)">
       <use xlink:href="#DejaVuSans-50"/>
       <use x="63.623047" xlink:href="#DejaVuSans-53"/>
      </g>
     </g>
    </g>
    <g id="xtick_6">
     <g id="line2d_11">
      <path clip-path="url(#pebaf4aea95)" d="M 647.166942 720.9 
L 647.166942 56.7 
" style="fill:none;stroke:#e6e6e6;stroke-linecap:square;stroke-width:0.8;"/>
     </g>
     <g id="line2d_12">
      <g>
       <use style="stroke:#000000;stroke-width:0.8;" x="647.166942" xlink:href="#mc95b2983df" y="720.9"/>
      </g>
     </g>
     <g id="text_6">
      <!-- 30 -->
      <g transform="translate(637.623192 739.297656)scale(0.15 -0.15)">
       <defs>
        <path d="M 40.578125 39.3125 
Q 47.65625 37.796875 51.625 33 
Q 55.609375 28.21875 55.609375 21.1875 
Q 55.609375 10.40625 48.1875 4.484375 
Q 40.765625 -1.421875 27.09375 -1.421875 
Q 22.515625 -1.421875 17.65625 -0.515625 
Q 12.796875 0.390625 7.625 2.203125 
L 7.625 11.71875 
Q 11.71875 9.328125 16.59375 8.109375 
Q 21.484375 6.890625 26.8125 6.890625 
Q 36.078125 6.890625 40.9375 10.546875 
Q 45.796875 14.203125 45.796875 21.1875 
Q 45.796875 27.640625 41.28125 31.265625 
Q 36.765625 34.90625 28.71875 34.90625 
L 20.21875 34.90625 
L 20.21875 43.015625 
L 29.109375 43.015625 
Q 36.375 43.015625 40.234375 45.921875 
Q 44.09375 48.828125 44.09375 54.296875 
Q 44.09375 59.90625 40.109375 62.90625 
Q 36.140625 65.921875 28.71875 65.921875 
Q 24.65625 65.921875 20.015625 65.03125 
Q 15.375 64.15625 9.8125 62.3125 
L 9.8125 71.09375 
Q 15.4375 72.65625 20.34375 73.4375 
Q 25.25 74.21875 29.59375 74.21875 
Q 40.828125 74.21875 47.359375 69.109375 
Q 53.90625 64.015625 53.90625 55.328125 
Q 53.90625 49.265625 50.4375 45.09375 
Q 46.96875 40.921875 40.578125 39.3125 
z
" id="DejaVuSans-51"/>
       </defs>
       <use xlink:href="#DejaVuSans-51"/>
       <use x="63.623047" xlink:href="#DejaVuSans-48"/>
      </g>
     </g>
    </g>
    <g id="text_7">
     <!-- frame -->
     <g transform="translate(366.133594 765.413281)scale(0.25 -0.25)">
      <defs>
       <path d="M 37.109375 75.984375 
L 37.109375 68.5 
L 28.515625 68.5 
Q 23.6875 68.5 21.796875 66.546875 
Q 19.921875 64.59375 19.921875 59.515625 
L 19.921875 54.6875 
L 34.71875 54.6875 
L 34.71875 47.703125 
L 19.921875 47.703125 
L 19.921875 0 
L 10.890625 0 
L 10.890625 47.703125 
L 2.296875 47.703125 
L 2.296875 54.6875 
L 10.890625 54.6875 
L 10.890625 58.5 
Q 10.890625 67.625 15.140625 71.796875 
Q 19.390625 75.984375 28.609375 75.984375 
z
" id="DejaVuSans-102"/>
       <path d="M 41.109375 46.296875 
Q 39.59375 47.171875 37.8125 47.578125 
Q 36.03125 48 33.890625 48 
Q 26.265625 48 22.1875 43.046875 
Q 18.109375 38.09375 18.109375 28.8125 
L 18.109375 0 
L 9.078125 0 
L 9.078125 54.6875 
L 18.109375 54.6875 
L 18.109375 46.1875 
Q 20.953125 51.171875 25.484375 53.578125 
Q 30.03125 56 36.53125 56 
Q 37.453125 56 38.578125 55.875 
Q 39.703125 55.765625 41.0625 55.515625 
z
" id="DejaVuSans-114"/>
       <path d="M 34.28125 27.484375 
Q 23.390625 27.484375 19.1875 25 
Q 14.984375 22.515625 14.984375 16.5 
Q 14.984375 11.71875 18.140625 8.90625 
Q 21.296875 6.109375 26.703125 6.109375 
Q 34.1875 6.109375 38.703125 11.40625 
Q 43.21875 16.703125 43.21875 25.484375 
L 43.21875 27.484375 
z
M 52.203125 31.203125 
L 52.203125 0 
L 43.21875 0 
L 43.21875 8.296875 
Q 40.140625 3.328125 35.546875 0.953125 
Q 30.953125 -1.421875 24.3125 -1.421875 
Q 15.921875 -1.421875 10.953125 3.296875 
Q 6 8.015625 6 15.921875 
Q 6 25.140625 12.171875 29.828125 
Q 18.359375 34.515625 30.609375 34.515625 
L 43.21875 34.515625 
L 43.21875 35.40625 
Q 43.21875 41.609375 39.140625 45 
Q 35.0625 48.390625 27.6875 48.390625 
Q 23 48.390625 18.546875 47.265625 
Q 14.109375 46.140625 10.015625 43.890625 
L 10.015625 52.203125 
Q 14.9375 54.109375 19.578125 55.046875 
Q 24.21875 56 28.609375 56 
Q 40.484375 56 46.34375 49.84375 
Q 52.203125 43.703125 52.203125 31.203125 
z
" id="DejaVuSans-97"/>
       <path d="M 52 44.1875 
Q 55.375 50.25 60.0625 53.125 
Q 64.75 56 71.09375 56 
Q 79.640625 56 84.28125 50.015625 
Q 88.921875 44.046875 88.921875 33.015625 
L 88.921875 0 
L 79.890625 0 
L 79.890625 32.71875 
Q 79.890625 40.578125 77.09375 44.375 
Q 74.3125 48.1875 68.609375 48.1875 
Q 61.625 48.1875 57.5625 43.546875 
Q 53.515625 38.921875 53.515625 30.90625 
L 53.515625 0 
L 44.484375 0 
L 44.484375 32.71875 
Q 44.484375 40.625 41.703125 44.40625 
Q 38.921875 48.1875 33.109375 48.1875 
Q 26.21875 48.1875 22.15625 43.53125 
Q 18.109375 38.875 18.109375 30.90625 
L 18.109375 0 
L 9.078125 0 
L 9.078125 54.6875 
L 18.109375 54.6875 
L 18.109375 46.1875 
Q 21.1875 51.21875 25.484375 53.609375 
Q 29.78125 56 35.6875 56 
Q 41.65625 56 45.828125 52.96875 
Q 50 49.953125 52 44.1875 
z
" id="DejaVuSans-109"/>
       <path d="M 56.203125 29.59375 
L 56.203125 25.203125 
L 14.890625 25.203125 
Q 15.484375 15.921875 20.484375 11.0625 
Q 25.484375 6.203125 34.421875 6.203125 
Q 39.59375 6.203125 44.453125 7.46875 
Q 49.3125 8.734375 54.109375 11.28125 
L 54.109375 2.78125 
Q 49.265625 0.734375 44.1875 -0.34375 
Q 39.109375 -1.421875 33.890625 -1.421875 
Q 20.796875 -1.421875 13.15625 6.1875 
Q 5.515625 13.8125 5.515625 26.8125 
Q 5.515625 40.234375 12.765625 48.109375 
Q 20.015625 56 32.328125 56 
Q 43.359375 56 49.78125 48.890625 
Q 56.203125 41.796875 56.203125 29.59375 
z
M 47.21875 32.234375 
Q 47.125 39.59375 43.09375 43.984375 
Q 39.0625 48.390625 32.421875 48.390625 
Q 24.90625 48.390625 20.390625 44.140625 
Q 15.875 39.890625 15.1875 32.171875 
z
" id="DejaVuSans-101"/>
      </defs>
      <use xlink:href="#DejaVuSans-102"/>
      <use x="35.205078" xlink:href="#DejaVuSans-114"/>
      <use x="76.318359" xlink:href="#DejaVuSans-97"/>
      <use x="137.597656" xlink:href="#DejaVuSans-109"/>
      <use x="235.009766" xlink:href="#DejaVuSans-101"/>
     </g>
    </g>
   </g>
   <g id="matplotlib.axis_2">
    <g id="ytick_1">
     <g id="line2d_13">
      <path clip-path="url(#pebaf4aea95)" d="M 108 667.490601 
L 698.4 667.490601 
" style="fill:none;stroke:#e6e6e6;stroke-linecap:square;stroke-width:0.8;"/>
     </g>
     <g id="line2d_14">
      <defs>
       <path d="M 0 0 
L -3.5 0 
" id="me01d3e26eb" style="stroke:#000000;stroke-width:0.8;"/>
      </defs>
      <g>
       <use style="stroke:#000000;stroke-width:0.8;" x="108" xlink:href="#me01d3e26eb" y="667.490601"/>
      </g>
     </g>
     <g id="text_8">
      <!-- 0 -->
      <g transform="translate(91.45625 673.189429)scale(0.15 -0.15)">
       <use xlink:href="#DejaVuSans-48"/>
      </g>
     </g>
    </g>
    <g id="ytick_2">
     <g id="line2d_15">
      <path clip-path="url(#pebaf4aea95)" d="M 108 592.794648 
L 698.4 592.794648 
" style="fill:none;stroke:#e6e6e6;stroke-linecap:square;stroke-width:0.8;"/>
     </g>
     <g id="line2d_16">
      <g>
       <use style="stroke:#000000;stroke-width:0.8;" x="108" xlink:href="#me01d3e26eb" y="592.794648"/>
      </g>
     </g>
     <g id="text_9">
      <!-- 50 -->
      <g transform="translate(81.9125 598.493476)scale(0.15 -0.15)">
       <use xlink:href="#DejaVuSans-53"/>
       <use x="63.623047" xlink:href="#DejaVuSans-48"/>
      </g>
     </g>
    </g>
    <g id="ytick_3">
     <g id="line2d_17">
      <path clip-path="url(#pebaf4aea95)" d="M 108 518.098695 
L 698.4 518.098695 
" style="fill:none;stroke:#e6e6e6;stroke-linecap:square;stroke-width:0.8;"/>
     </g>
     <g id="line2d_18">
      <g>
       <use style="stroke:#000000;stroke-width:0.8;" x="108" xlink:href="#me01d3e26eb" y="518.098695"/>
      </g>
     </g>
     <g id="text_10">
      <!-- 100 -->
      <g transform="translate(72.36875 523.797523)scale(0.15 -0.15)">
       <use xlink:href="#DejaVuSans-49"/>
       <use x="63.623047" xlink:href="#DejaVuSans-48"/>
       <use x="127.246094" xlink:href="#DejaVuSans-48"/>
      </g>
     </g>
    </g>
    <g id="ytick_4">
     <g id="line2d_19">
      <path clip-path="url(#pebaf4aea95)" d="M 108 443.402742 
L 698.4 443.402742 
" style="fill:none;stroke:#e6e6e6;stroke-linecap:square;stroke-width:0.8;"/>
     </g>
     <g id="line2d_20">
      <g>
       <use style="stroke:#000000;stroke-width:0.8;" x="108" xlink:href="#me01d3e26eb" y="443.402742"/>
      </g>
     </g>
     <g id="text_11">
      <!-- 150 -->
      <g transform="translate(72.36875 449.10157)scale(0.15 -0.15)">
       <use xlink:href="#DejaVuSans-49"/>
       <use x="63.623047" xlink:href="#DejaVuSans-53"/>
       <use x="127.246094" xlink:href="#DejaVuSans-48"/>
      </g>
     </g>
    </g>
    <g id="ytick_5">
     <g id="line2d_21">
      <path clip-path="url(#pebaf4aea95)" d="M 108 368.706789 
L 698.4 368.706789 
" style="fill:none;stroke:#e6e6e6;stroke-linecap:square;stroke-width:0.8;"/>
     </g>
     <g id="line2d_22">
      <g>
       <use style="stroke:#000000;stroke-width:0.8;" x="108" xlink:href="#me01d3e26eb" y="368.706789"/>
      </g>
     </g>
     <g id="text_12">
      <!-- 200 -->
      <g transform="translate(72.36875 374.405617)scale(0.15 -0.15)">
       <use xlink:href="#DejaVuSans-50"/>
       <use x="63.623047" xlink:href="#DejaVuSans-48"/>
       <use x="127.246094" xlink:href="#DejaVuSans-48"/>
      </g>
     </g>
    </g>
    <g id="ytick_6">
     <g id="line2d_23">
      <path clip-path="url(#pebaf4aea95)" d="M 108 294.010836 
L 698.4 294.010836 
" style="fill:none;stroke:#e6e6e6;stroke-linecap:square;stroke-width:0.8;"/>
     </g>
     <g id="line2d_24">
      <g>
       <use style="stroke:#000000;stroke-width:0.8;" x="108" xlink:href="#me01d3e26eb" y="294.010836"/>
      </g>
     </g>
     <g id="text_13">
      <!-- 250 -->
      <g transform="translate(72.36875 299.709664)scale(0.15 -0.15)">
       <use xlink:href="#DejaVuSans-50"/>
       <use x="63.623047" xlink:href="#DejaVuSans-53"/>
       <use x="127.246094" xlink:href="#DejaVuSans-48"/>
      </g>
     </g>
    </g>
    <g id="ytick_7">
     <g id="line2d_25">
      <path clip-path="url(#pebaf4aea95)" d="M 108 219.314883 
L 698.4 219.314883 
" style="fill:none;stroke:#e6e6e6;stroke-linecap:square;stroke-width:0.8;"/>
     </g>
     <g id="line2d_26">
      <g>
       <use style="stroke:#000000;stroke-width:0.8;" x="108" xlink:href="#me01d3e26eb" y="219.314883"/>
      </g>
     </g>
     <g id="text_14">
      <!-- 300 -->
      <g transform="translate(72.36875 225.013711)scale(0.15 -0.15)">
       <use xlink:href="#DejaVuSans-51"/>
       <use x="63.623047" xlink:href="#DejaVuSans-48"/>
       <use x="127.246094" xlink:href="#DejaVuSans-48"/>
      </g>
     </g>
    </g>
    <g id="ytick_8">
     <g id="line2d_27">
      <path clip-path="url(#pebaf4aea95)" d="M 108 144.618929 
L 698.4 144.618929 
" style="fill:none;stroke:#e6e6e6;stroke-linecap:square;stroke-width:0.8;"/>
     </g>
     <g id="line2d_28">
      <g>
       <use style="stroke:#000000;stroke-width:0.8;" x="108" xlink:href="#me01d3e26eb" y="144.618929"/>
      </g>
     </g>
     <g id="text_15">
      <!-- 350 -->
      <g transform="translate(72.36875 150.317758)scale(0.15 -0.15)">
       <use xlink:href="#DejaVuSans-51"/>
       <use x="63.623047" xlink:href="#DejaVuSans-53"/>
       <use x="127.246094" xlink:href="#DejaVuSans-48"/>
      </g>
     </g>
    </g>
    <g id="ytick_9">
     <g id="line2d_29">
      <path clip-path="url(#pebaf4aea95)" d="M 108 69.922976 
L 698.4 69.922976 
" style="fill:none;stroke:#e6e6e6;stroke-linecap:square;stroke-width:0.8;"/>
     </g>
     <g id="line2d_30">
      <g>
       <use style="stroke:#000000;stroke-width:0.8;" x="108" xlink:href="#me01d3e26eb" y="69.922976"/>
      </g>
     </g>
     <g id="text_16">
      <!-- 400 -->
      <g transform="translate(72.36875 75.621805)scale(0.15 -0.15)">
       <defs>
        <path d="M 37.796875 64.3125 
L 12.890625 25.390625 
L 37.796875 25.390625 
z
M 35.203125 72.90625 
L 47.609375 72.90625 
L 47.609375 25.390625 
L 58.015625 25.390625 
L 58.015625 17.1875 
L 47.609375 17.1875 
L 47.609375 0 
L 37.796875 0 
L 37.796875 17.1875 
L 4.890625 17.1875 
L 4.890625 26.703125 
z
" id="DejaVuSans-52"/>
       </defs>
       <use xlink:href="#DejaVuSans-52"/>
       <use x="63.623047" xlink:href="#DejaVuSans-48"/>
       <use x="127.246094" xlink:href="#DejaVuSans-48"/>
      </g>
     </g>
    </g>
    <g id="text_17">
     <!-- $I$ -->
     <g transform="translate(63.169531 392.55)rotate(-90)scale(0.25 -0.25)">
      <defs>
       <path d="M 16.890625 72.90625 
L 26.8125 72.90625 
L 12.59375 0 
L 2.6875 0 
z
" id="DejaVuSans-Oblique-73"/>
      </defs>
      <use transform="translate(0 0.09375)" xlink:href="#DejaVuSans-Oblique-73"/>
     </g>
    </g>
   </g>
   <g id="line2d_31">
    <path clip-path="url(#pebaf4aea95)" d="M 159.233058 652.805376 
L 177.999746 655.419735 
L 196.766434 537.519643 
L 215.533121 114.33719 
L 234.299809 178.545831 
L 253.066497 303.123742 
L 271.833185 633.952118 
" style="fill:none;stroke:#ff4d00;stroke-linecap:square;stroke-width:2;"/>
    <defs>
     <path d="M 0 2.5 
C 0.663008 2.5 1.29895 2.236584 1.767767 1.767767 
C 2.236584 1.29895 2.5 0.663008 2.5 0 
C 2.5 -0.663008 2.236584 -1.29895 1.767767 -1.767767 
C 1.29895 -2.236584 0.663008 -2.5 0 -2.5 
C -0.663008 -2.5 -1.29895 -2.236584 -1.767767 -1.767767 
C -2.236584 -1.29895 -2.5 -0.663008 -2.5 0 
C -2.5 0.663008 -2.236584 1.29895 -1.767767 1.767767 
C -1.29895 2.236584 -0.663008 2.5 0 2.5 
z
" id="mb0ea6f9b10" style="stroke:#ff4d00;"/>
    </defs>
    <g clip-path="url(#pebaf4aea95)">
     <use style="fill:#ff4d00;stroke:#ff4d00;" x="159.233058" xlink:href="#mb0ea6f9b10" y="652.805376"/>
     <use style="fill:#ff4d00;stroke:#ff4d00;" x="177.999746" xlink:href="#mb0ea6f9b10" y="655.419735"/>
     <use style="fill:#ff4d00;stroke:#ff4d00;" x="196.766434" xlink:href="#mb0ea6f9b10" y="537.519643"/>
     <use style="fill:#ff4d00;stroke:#ff4d00;" x="215.533121" xlink:href="#mb0ea6f9b10" y="114.33719"/>
     <use style="fill:#ff4d00;stroke:#ff4d00;" x="234.299809" xlink:href="#mb0ea6f9b10" y="178.545831"/>
     <use style="fill:#ff4d00;stroke:#ff4d00;" x="253.066497" xlink:href="#mb0ea6f9b10" y="303.123742"/>
     <use style="fill:#ff4d00;stroke:#ff4d00;" x="271.833185" xlink:href="#mb0ea6f9b10" y="633.952118"/>
    </g>
   </g>
   <g id="line2d_32">
    <path clip-path="url(#pebaf4aea95)" d="M 159.233058 660.558816 
L 177.999746 412.209712 
L 196.766434 128.783387 
L 215.533121 379.776729 
L 234.299809 477.314704 
L 253.066497 594.856256 
L 271.833185 621.821495 
L 290.599873 645.485173 
L 309.366561 658.034093 
M 346.899936 662.217067 
" style="fill:none;stroke:#ff9a00;stroke-linecap:square;stroke-width:2;"/>
    <defs>
     <path d="M 0 2.5 
C 0.663008 2.5 1.29895 2.236584 1.767767 1.767767 
C 2.236584 1.29895 2.5 0.663008 2.5 0 
C 2.5 -0.663008 2.236584 -1.29895 1.767767 -1.767767 
C 1.29895 -2.236584 0.663008 -2.5 0 -2.5 
C -0.663008 -2.5 -1.29895 -2.236584 -1.767767 -1.767767 
C -2.236584 -1.29895 -2.5 -0.663008 -2.5 0 
C -2.5 0.663008 -2.236584 1.29895 -1.767767 1.767767 
C -1.29895 2.236584 -0.663008 2.5 0 2.5 
z
" id="m1897d5fe82" style="stroke:#ff9a00;"/>
    </defs>
    <g clip-path="url(#pebaf4aea95)">
     <use style="fill:#ff9a00;stroke:#ff9a00;" x="159.233058" xlink:href="#m1897d5fe82" y="660.558816"/>
     <use style="fill:#ff9a00;stroke:#ff9a00;" x="177.999746" xlink:href="#m1897d5fe82" y="412.209712"/>
     <use style="fill:#ff9a00;stroke:#ff9a00;" x="196.766434" xlink:href="#m1897d5fe82" y="128.783387"/>
     <use style="fill:#ff9a00;stroke:#ff9a00;" x="215.533121" xlink:href="#m1897d5fe82" y="379.776729"/>
     <use style="fill:#ff9a00;stroke:#ff9a00;" x="234.299809" xlink:href="#m1897d5fe82" y="477.314704"/>
     <use style="fill:#ff9a00;stroke:#ff9a00;" x="253.066497" xlink:href="#m1897d5fe82" y="594.856256"/>
     <use style="fill:#ff9a00;stroke:#ff9a00;" x="271.833185" xlink:href="#m1897d5fe82" y="621.821495"/>
     <use style="fill:#ff9a00;stroke:#ff9a00;" x="290.599873" xlink:href="#m1897d5fe82" y="645.485173"/>
     <use style="fill:#ff9a00;stroke:#ff9a00;" x="309.366561" xlink:href="#m1897d5fe82" y="658.034093"/>
     <use style="fill:#ff9a00;stroke:#ff9a00;" x="346.899936" xlink:href="#m1897d5fe82" y="662.217067"/>
    </g>
   </g>
   <g id="line2d_33">
    <path clip-path="url(#pebaf4aea95)" d="M 628.400254 601.578892 
L 647.166942 203.703428 
" style="fill:none;stroke:#ffec00;stroke-linecap:square;stroke-width:2;"/>
    <defs>
     <path d="M 0 2.5 
C 0.663008 2.5 1.29895 2.236584 1.767767 1.767767 
C 2.236584 1.29895 2.5 0.663008 2.5 0 
C 2.5 -0.663008 2.236584 -1.29895 1.767767 -1.767767 
C 1.29895 -2.236584 0.663008 -2.5 0 -2.5 
C -0.663008 -2.5 -1.29895 -2.236584 -1.767767 -1.767767 
C -2.236584 -1.29895 -2.5 -0.663008 -2.5 0 
C -2.5 0.663008 -2.236584 1.29895 -1.767767 1.767767 
C -1.29895 2.236584 -0.663008 2.5 0 2.5 
z
" id="mce8d3ea5ba" style="stroke:#ffec00;"/>
    </defs>
    <g clip-path="url(#pebaf4aea95)">
     <use style="fill:#ffec00;stroke:#ffec00;" x="628.400254" xlink:href="#mce8d3ea5ba" y="601.578892"/>
     <use style="fill:#ffec00;stroke:#ffec00;" x="647.166942" xlink:href="#mce8d3ea5ba" y="203.703428"/>
    </g>
   </g>
   <g id="line2d_34">
    <path clip-path="url(#pebaf4aea95)" d="M 590.866879 658.213363 
L 609.633566 601.130716 
L 628.400254 218.418531 
L 647.166942 425.684862 
" style="fill:none;stroke:#c5ff00;stroke-linecap:square;stroke-width:2;"/>
    <defs>
     <path d="M 0 2.5 
C 0.663008 2.5 1.29895 2.236584 1.767767 1.767767 
C 2.236584 1.29895 2.5 0.663008 2.5 0 
C 2.5 -0.663008 2.236584 -1.29895 1.767767 -1.767767 
C 1.29895 -2.236584 0.663008 -2.5 0 -2.5 
C -0.663008 -2.5 -1.29895 -2.236584 -1.767767 -1.767767 
C -2.236584 -1.29895 -2.5 -0.663008 -2.5 0 
C -2.5 0.663008 -2.236584 1.29895 -1.767767 1.767767 
C -1.29895 2.236584 -0.663008 2.5 0 2.5 
z
" id="mb360ec6d21" style="stroke:#c5ff00;"/>
    </defs>
    <g clip-path="url(#pebaf4aea95)">
     <use style="fill:#c5ff00;stroke:#c5ff00;" x="590.866879" xlink:href="#mb360ec6d21" y="658.213363"/>
     <use style="fill:#c5ff00;stroke:#c5ff00;" x="609.633566" xlink:href="#mb360ec6d21" y="601.130716"/>
     <use style="fill:#c5ff00;stroke:#c5ff00;" x="628.400254" xlink:href="#mb360ec6d21" y="218.418531"/>
     <use style="fill:#c5ff00;stroke:#c5ff00;" x="647.166942" xlink:href="#mb360ec6d21" y="425.684862"/>
    </g>
   </g>
   <g id="line2d_35">
    <path clip-path="url(#pebaf4aea95)" d="M 590.866879 660.633512 
L 609.633566 385.617952 
L 628.400254 335.541785 
L 647.166942 483.619043 
" style="fill:none;stroke:#72ff00;stroke-linecap:square;stroke-width:2;"/>
    <defs>
     <path d="M 0 2.5 
C 0.663008 2.5 1.29895 2.236584 1.767767 1.767767 
C 2.236584 1.29895 2.5 0.663008 2.5 0 
C 2.5 -0.663008 2.236584 -1.29895 1.767767 -1.767767 
C 1.29895 -2.236584 0.663008 -2.5 0 -2.5 
C -0.663008 -2.5 -1.29895 -2.236584 -1.767767 -1.767767 
C -2.236584 -1.29895 -2.5 -0.663008 -2.5 0 
C -2.5 0.663008 -2.236584 1.29895 -1.767767 1.767767 
C -1.29895 2.236584 -0.663008 2.5 0 2.5 
z
" id="mea756cf742" style="stroke:#72ff00;"/>
    </defs>
    <g clip-path="url(#pebaf4aea95)">
     <use style="fill:#72ff00;stroke:#72ff00;" x="590.866879" xlink:href="#mea756cf742" y="660.633512"/>
     <use style="fill:#72ff00;stroke:#72ff00;" x="609.633566" xlink:href="#mea756cf742" y="385.617952"/>
     <use style="fill:#72ff00;stroke:#72ff00;" x="628.400254" xlink:href="#mea756cf742" y="335.541785"/>
     <use style="fill:#72ff00;stroke:#72ff00;" x="647.166942" xlink:href="#mea756cf742" y="483.619043"/>
    </g>
   </g>
   <g id="line2d_36">
    <path clip-path="url(#pebaf4aea95)" d="M 609.633566 608.510676 
L 628.400254 341.890941 
L 647.166942 443.582012 
" style="fill:none;stroke:#25ff00;stroke-linecap:square;stroke-width:2;"/>
    <defs>
     <path d="M 0 2.5 
C 0.663008 2.5 1.29895 2.236584 1.767767 1.767767 
C 2.236584 1.29895 2.5 0.663008 2.5 0 
C 2.5 -0.663008 2.236584 -1.29895 1.767767 -1.767767 
C 1.29895 -2.236584 0.663008 -2.5 0 -2.5 
C -0.663008 -2.5 -1.29895 -2.236584 -1.767767 -1.767767 
C -2.236584 -1.29895 -2.5 -0.663008 -2.5 0 
C -2.5 0.663008 -2.236584 1.29895 -1.767767 1.767767 
C -1.29895 2.236584 -0.663008 2.5 0 2.5 
z
" id="m1859477820" style="stroke:#25ff00;"/>
    </defs>
    <g clip-path="url(#pebaf4aea95)">
     <use style="fill:#25ff00;stroke:#25ff00;" x="609.633566" xlink:href="#m1859477820" y="608.510676"/>
     <use style="fill:#25ff00;stroke:#25ff00;" x="628.400254" xlink:href="#m1859477820" y="341.890941"/>
     <use style="fill:#25ff00;stroke:#25ff00;" x="647.166942" xlink:href="#m1859477820" y="443.582012"/>
    </g>
   </g>
   <g id="line2d_37">
    <path clip-path="url(#pebaf4aea95)" d="M 403.2 662.441154 
L 421.966688 647.427268 
L 440.733376 627.647779 
L 478.266751 374.682465 
L 497.033439 508.044619 
L 515.800127 637.358253 
L 534.566815 656.824019 
" style="fill:none;stroke:#00ff2d;stroke-linecap:square;stroke-width:2;"/>
    <defs>
     <path d="M 0 2.5 
C 0.663008 2.5 1.29895 2.236584 1.767767 1.767767 
C 2.236584 1.29895 2.5 0.663008 2.5 0 
C 2.5 -0.663008 2.236584 -1.29895 1.767767 -1.767767 
C 1.29895 -2.236584 0.663008 -2.5 0 -2.5 
C -0.663008 -2.5 -1.29895 -2.236584 -1.767767 -1.767767 
C -2.236584 -1.29895 -2.5 -0.663008 -2.5 0 
C -2.5 0.663008 -2.236584 1.29895 -1.767767 1.767767 
C -1.29895 2.236584 -0.663008 2.5 0 2.5 
z
" id="m7612170eb9" style="stroke:#00ff2d;"/>
    </defs>
    <g clip-path="url(#pebaf4aea95)">
     <use style="fill:#00ff2d;stroke:#00ff2d;" x="403.2" xlink:href="#m7612170eb9" y="662.441154"/>
     <use style="fill:#00ff2d;stroke:#00ff2d;" x="421.966688" xlink:href="#m7612170eb9" y="647.427268"/>
     <use style="fill:#00ff2d;stroke:#00ff2d;" x="440.733376" xlink:href="#m7612170eb9" y="627.647779"/>
     <use style="fill:#00ff2d;stroke:#00ff2d;" x="478.266751" xlink:href="#m7612170eb9" y="374.682465"/>
     <use style="fill:#00ff2d;stroke:#00ff2d;" x="497.033439" xlink:href="#m7612170eb9" y="508.044619"/>
     <use style="fill:#00ff2d;stroke:#00ff2d;" x="515.800127" xlink:href="#m7612170eb9" y="637.358253"/>
     <use style="fill:#00ff2d;stroke:#00ff2d;" x="534.566815" xlink:href="#m7612170eb9" y="656.824019"/>
    </g>
   </g>
   <g id="line2d_38">
    <path clip-path="url(#pebaf4aea95)" d="M 534.566815 637.343314 
L 553.333503 377.461154 
L 572.100191 529.213453 
L 590.866879 662.127431 
" style="fill:none;stroke:#00ff7a;stroke-linecap:square;stroke-width:2;"/>
    <defs>
     <path d="M 0 2.5 
C 0.663008 2.5 1.29895 2.236584 1.767767 1.767767 
C 2.236584 1.29895 2.5 0.663008 2.5 0 
C 2.5 -0.663008 2.236584 -1.29895 1.767767 -1.767767 
C 1.29895 -2.236584 0.663008 -2.5 0 -2.5 
C -0.663008 -2.5 -1.29895 -2.236584 -1.767767 -1.767767 
C -2.236584 -1.29895 -2.5 -0.663008 -2.5 0 
C -2.5 0.663008 -2.236584 1.29895 -1.767767 1.767767 
C -1.29895 2.236584 -0.663008 2.5 0 2.5 
z
" id="m65416a7608" style="stroke:#00ff7a;"/>
    </defs>
    <g clip-path="url(#pebaf4aea95)">
     <use style="fill:#00ff7a;stroke:#00ff7a;" x="534.566815" xlink:href="#m65416a7608" y="637.343314"/>
     <use style="fill:#00ff7a;stroke:#00ff7a;" x="553.333503" xlink:href="#m65416a7608" y="377.461154"/>
     <use style="fill:#00ff7a;stroke:#00ff7a;" x="572.100191" xlink:href="#m65416a7608" y="529.213453"/>
     <use style="fill:#00ff7a;stroke:#00ff7a;" x="590.866879" xlink:href="#m65416a7608" y="662.127431"/>
    </g>
   </g>
   <g id="line2d_39">
    <path clip-path="url(#pebaf4aea95)" d="M 365.666624 661.320715 
L 384.433312 631.457273 
L 403.2 559.390618 
L 421.966688 393.655237 
L 440.733376 645.515051 
" style="fill:none;stroke:#00ffcd;stroke-linecap:square;stroke-width:2;"/>
    <defs>
     <path d="M 0 2.5 
C 0.663008 2.5 1.29895 2.236584 1.767767 1.767767 
C 2.236584 1.29895 2.5 0.663008 2.5 0 
C 2.5 -0.663008 2.236584 -1.29895 1.767767 -1.767767 
C 1.29895 -2.236584 0.663008 -2.5 0 -2.5 
C -0.663008 -2.5 -1.29895 -2.236584 -1.767767 -1.767767 
C -2.236584 -1.29895 -2.5 -0.663008 -2.5 0 
C -2.5 0.663008 -2.236584 1.29895 -1.767767 1.767767 
C -1.29895 2.236584 -0.663008 2.5 0 2.5 
z
" id="m0b564fb544" style="stroke:#00ffcd;"/>
    </defs>
    <g clip-path="url(#pebaf4aea95)">
     <use style="fill:#00ffcd;stroke:#00ffcd;" x="365.666624" xlink:href="#m0b564fb544" y="661.320715"/>
     <use style="fill:#00ffcd;stroke:#00ffcd;" x="384.433312" xlink:href="#m0b564fb544" y="631.457273"/>
     <use style="fill:#00ffcd;stroke:#00ffcd;" x="403.2" xlink:href="#m0b564fb544" y="559.390618"/>
     <use style="fill:#00ffcd;stroke:#00ffcd;" x="421.966688" xlink:href="#m0b564fb544" y="393.655237"/>
     <use style="fill:#00ffcd;stroke:#00ffcd;" x="440.733376" xlink:href="#m0b564fb544" y="645.515051"/>
    </g>
   </g>
   <g id="line2d_40">
    <path clip-path="url(#pebaf4aea95)" d="M 328.133249 662.261884 
L 346.899936 649.742842 
L 365.666624 539.207771 
L 384.433312 511.226667 
L 403.2 397.793393 
L 421.966688 521.803614 
L 440.733376 660.050884 
" style="fill:none;stroke:#00e5ff;stroke-linecap:square;stroke-width:2;"/>
    <defs>
     <path d="M 0 2.5 
C 0.663008 2.5 1.29895 2.236584 1.767767 1.767767 
C 2.236584 1.29895 2.5 0.663008 2.5 0 
C 2.5 -0.663008 2.236584 -1.29895 1.767767 -1.767767 
C 1.29895 -2.236584 0.663008 -2.5 0 -2.5 
C -0.663008 -2.5 -1.29895 -2.236584 -1.767767 -1.767767 
C -2.236584 -1.29895 -2.5 -0.663008 -2.5 0 
C -2.5 0.663008 -2.236584 1.29895 -1.767767 1.767767 
C -1.29895 2.236584 -0.663008 2.5 0 2.5 
z
" id="m1702e2b875" style="stroke:#00e5ff;"/>
    </defs>
    <g clip-path="url(#pebaf4aea95)">
     <use style="fill:#00e5ff;stroke:#00e5ff;" x="328.133249" xlink:href="#m1702e2b875" y="662.261884"/>
     <use style="fill:#00e5ff;stroke:#00e5ff;" x="346.899936" xlink:href="#m1702e2b875" y="649.742842"/>
     <use style="fill:#00e5ff;stroke:#00e5ff;" x="365.666624" xlink:href="#m1702e2b875" y="539.207771"/>
     <use style="fill:#00e5ff;stroke:#00e5ff;" x="384.433312" xlink:href="#m1702e2b875" y="511.226667"/>
     <use style="fill:#00e5ff;stroke:#00e5ff;" x="403.2" xlink:href="#m1702e2b875" y="397.793393"/>
     <use style="fill:#00e5ff;stroke:#00e5ff;" x="421.966688" xlink:href="#m1702e2b875" y="521.803614"/>
     <use style="fill:#00e5ff;stroke:#00e5ff;" x="440.733376" xlink:href="#m1702e2b875" y="660.050884"/>
    </g>
   </g>
   <g id="line2d_41">
    <path clip-path="url(#pebaf4aea95)" d="M 421.966688 654.090147 
L 440.733376 650.205957 
L 478.266751 482.692813 
L 497.033439 407.727955 
L 515.800127 497.318281 
L 534.566815 657.989276 
" style="fill:none;stroke:#0092ff;stroke-linecap:square;stroke-width:2;"/>
    <defs>
     <path d="M 0 2.5 
C 0.663008 2.5 1.29895 2.236584 1.767767 1.767767 
C 2.236584 1.29895 2.5 0.663008 2.5 0 
C 2.5 -0.663008 2.236584 -1.29895 1.767767 -1.767767 
C 1.29895 -2.236584 0.663008 -2.5 0 -2.5 
C -0.663008 -2.5 -1.29895 -2.236584 -1.767767 -1.767767 
C -2.236584 -1.29895 -2.5 -0.663008 -2.5 0 
C -2.5 0.663008 -2.236584 1.29895 -1.767767 1.767767 
C -1.29895 2.236584 -0.663008 2.5 0 2.5 
z
" id="m33e7834cda" style="stroke:#0092ff;"/>
    </defs>
    <g clip-path="url(#pebaf4aea95)">
     <use style="fill:#0092ff;stroke:#0092ff;" x="421.966688" xlink:href="#m33e7834cda" y="654.090147"/>
     <use style="fill:#0092ff;stroke:#0092ff;" x="440.733376" xlink:href="#m33e7834cda" y="650.205957"/>
     <use style="fill:#0092ff;stroke:#0092ff;" x="478.266751" xlink:href="#m33e7834cda" y="482.692813"/>
     <use style="fill:#0092ff;stroke:#0092ff;" x="497.033439" xlink:href="#m33e7834cda" y="407.727955"/>
     <use style="fill:#0092ff;stroke:#0092ff;" x="515.800127" xlink:href="#m33e7834cda" y="497.318281"/>
     <use style="fill:#0092ff;stroke:#0092ff;" x="534.566815" xlink:href="#m33e7834cda" y="657.989276"/>
    </g>
   </g>
   <g id="line2d_42">
    <path clip-path="url(#pebaf4aea95)" d="M 309.366561 662.814634 
L 328.133249 652.297444 
L 346.899936 592.346472 
L 365.666624 421.516827 
L 384.433312 522.162155 
L 403.2 612.155839 
L 421.966688 651.356275 
L 440.733376 656.480417 
" style="fill:none;stroke:#0045ff;stroke-linecap:square;stroke-width:2;"/>
    <defs>
     <path d="M 0 2.5 
C 0.663008 2.5 1.29895 2.236584 1.767767 1.767767 
C 2.236584 1.29895 2.5 0.663008 2.5 0 
C 2.5 -0.663008 2.236584 -1.29895 1.767767 -1.767767 
C 1.29895 -2.236584 0.663008 -2.5 0 -2.5 
C -0.663008 -2.5 -1.29895 -2.236584 -1.767767 -1.767767 
C -2.236584 -1.29895 -2.5 -0.663008 -2.5 0 
C -2.5 0.663008 -2.236584 1.29895 -1.767767 1.767767 
C -1.29895 2.236584 -0.663008 2.5 0 2.5 
z
" id="m5da17e9bb2" style="stroke:#0045ff;"/>
    </defs>
    <g clip-path="url(#pebaf4aea95)">
     <use style="fill:#0045ff;stroke:#0045ff;" x="309.366561" xlink:href="#m5da17e9bb2" y="662.814634"/>
     <use style="fill:#0045ff;stroke:#0045ff;" x="328.133249" xlink:href="#m5da17e9bb2" y="652.297444"/>
     <use style="fill:#0045ff;stroke:#0045ff;" x="346.899936" xlink:href="#m5da17e9bb2" y="592.346472"/>
     <use style="fill:#0045ff;stroke:#0045ff;" x="365.666624" xlink:href="#m5da17e9bb2" y="421.516827"/>
     <use style="fill:#0045ff;stroke:#0045ff;" x="384.433312" xlink:href="#m5da17e9bb2" y="522.162155"/>
     <use style="fill:#0045ff;stroke:#0045ff;" x="403.2" xlink:href="#m5da17e9bb2" y="612.155839"/>
     <use style="fill:#0045ff;stroke:#0045ff;" x="421.966688" xlink:href="#m5da17e9bb2" y="651.356275"/>
     <use style="fill:#0045ff;stroke:#0045ff;" x="440.733376" xlink:href="#m5da17e9bb2" y="656.480417"/>
    </g>
   </g>
   <g id="line2d_43">
    <path clip-path="url(#pebaf4aea95)" d="M 628.400254 650.071505 
L 647.166942 428.85197 
" style="fill:none;stroke:#0e00ff;stroke-linecap:square;stroke-width:2;"/>
    <defs>
     <path d="M 0 2.5 
C 0.663008 2.5 1.29895 2.236584 1.767767 1.767767 
C 2.236584 1.29895 2.5 0.663008 2.5 0 
C 2.5 -0.663008 2.236584 -1.29895 1.767767 -1.767767 
C 1.29895 -2.236584 0.663008 -2.5 0 -2.5 
C -0.663008 -2.5 -1.29895 -2.236584 -1.767767 -1.767767 
C -2.236584 -1.29895 -2.5 -0.663008 -2.5 0 
C -2.5 0.663008 -2.236584 1.29895 -1.767767 1.767767 
C -1.29895 2.236584 -0.663008 2.5 0 2.5 
z
" id="m270c7f6750" style="stroke:#0e00ff;"/>
    </defs>
    <g clip-path="url(#pebaf4aea95)">
     <use style="fill:#0e00ff;stroke:#0e00ff;" x="628.400254" xlink:href="#m270c7f6750" y="650.071505"/>
     <use style="fill:#0e00ff;stroke:#0e00ff;" x="647.166942" xlink:href="#m270c7f6750" y="428.85197"/>
    </g>
   </g>
   <g id="line2d_44">
    <path clip-path="url(#pebaf4aea95)" d="M 253.066497 662.769817 
L 271.833185 661.499985 
L 290.599873 658.138668 
L 309.366561 655.419735 
L 328.133249 604.462156 
L 346.899936 546.557853 
L 365.666624 437.128282 
L 384.433312 554.490563 
L 403.2 595.88706 
L 421.966688 651.953843 
L 440.733376 661.694195 
" style="fill:none;stroke:#5a00ff;stroke-linecap:square;stroke-width:2;"/>
    <defs>
     <path d="M 0 2.5 
C 0.663008 2.5 1.29895 2.236584 1.767767 1.767767 
C 2.236584 1.29895 2.5 0.663008 2.5 0 
C 2.5 -0.663008 2.236584 -1.29895 1.767767 -1.767767 
C 1.29895 -2.236584 0.663008 -2.5 0 -2.5 
C -0.663008 -2.5 -1.29895 -2.236584 -1.767767 -1.767767 
C -2.236584 -1.29895 -2.5 -0.663008 -2.5 0 
C -2.5 0.663008 -2.236584 1.29895 -1.767767 1.767767 
C -1.29895 2.236584 -0.663008 2.5 0 2.5 
z
" id="m1178f3951d" style="stroke:#5a00ff;"/>
    </defs>
    <g clip-path="url(#pebaf4aea95)">
     <use style="fill:#5a00ff;stroke:#5a00ff;" x="253.066497" xlink:href="#m1178f3951d" y="662.769817"/>
     <use style="fill:#5a00ff;stroke:#5a00ff;" x="271.833185" xlink:href="#m1178f3951d" y="661.499985"/>
     <use style="fill:#5a00ff;stroke:#5a00ff;" x="290.599873" xlink:href="#m1178f3951d" y="658.138668"/>
     <use style="fill:#5a00ff;stroke:#5a00ff;" x="309.366561" xlink:href="#m1178f3951d" y="655.419735"/>
     <use style="fill:#5a00ff;stroke:#5a00ff;" x="328.133249" xlink:href="#m1178f3951d" y="604.462156"/>
     <use style="fill:#5a00ff;stroke:#5a00ff;" x="346.899936" xlink:href="#m1178f3951d" y="546.557853"/>
     <use style="fill:#5a00ff;stroke:#5a00ff;" x="365.666624" xlink:href="#m1178f3951d" y="437.128282"/>
     <use style="fill:#5a00ff;stroke:#5a00ff;" x="384.433312" xlink:href="#m1178f3951d" y="554.490563"/>
     <use style="fill:#5a00ff;stroke:#5a00ff;" x="403.2" xlink:href="#m1178f3951d" y="595.88706"/>
     <use style="fill:#5a00ff;stroke:#5a00ff;" x="421.966688" xlink:href="#m1178f3951d" y="651.953843"/>
     <use style="fill:#5a00ff;stroke:#5a00ff;" x="440.733376" xlink:href="#m1178f3951d" y="661.694195"/>
    </g>
   </g>
   <g id="line2d_45">
    <path clip-path="url(#pebaf4aea95)" d="M 177.999746 662.037796 
L 196.766434 663.26281 
M 253.066497 659.737161 
L 271.833185 660.842661 
L 290.599873 656.390782 
L 309.366561 647.501964 
L 328.133249 595.483702 
L 346.899936 463.241987 
M 384.433312 577.511856 
L 403.2 454.308351 
L 421.966688 511.16691 
L 440.733376 546.139556 
L 478.266751 512.496498 
L 497.033439 523.476803 
L 515.800127 543.83892 
L 534.566815 563.244929 
L 553.333503 590.658344 
L 572.100191 622.165097 
L 590.866879 645.559869 
L 609.633566 659.049958 
L 628.400254 663.023783 
" style="fill:none;stroke:#ad00ff;stroke-linecap:square;stroke-width:2;"/>
    <defs>
     <path d="M 0 2.5 
C 0.663008 2.5 1.29895 2.236584 1.767767 1.767767 
C 2.236584 1.29895 2.5 0.663008 2.5 0 
C 2.5 -0.663008 2.236584 -1.29895 1.767767 -1.767767 
C 1.29895 -2.236584 0.663008 -2.5 0 -2.5 
C -0.663008 -2.5 -1.29895 -2.236584 -1.767767 -1.767767 
C -2.236584 -1.29895 -2.5 -0.663008 -2.5 0 
C -2.5 0.663008 -2.236584 1.29895 -1.767767 1.767767 
C -1.29895 2.236584 -0.663008 2.5 0 2.5 
z
" id="mfcc9ca535e" style="stroke:#ad00ff;"/>
    </defs>
    <g clip-path="url(#pebaf4aea95)">
     <use style="fill:#ad00ff;stroke:#ad00ff;" x="177.999746" xlink:href="#mfcc9ca535e" y="662.037796"/>
     <use style="fill:#ad00ff;stroke:#ad00ff;" x="196.766434" xlink:href="#mfcc9ca535e" y="663.26281"/>
     <use style="fill:#ad00ff;stroke:#ad00ff;" x="253.066497" xlink:href="#mfcc9ca535e" y="659.737161"/>
     <use style="fill:#ad00ff;stroke:#ad00ff;" x="271.833185" xlink:href="#mfcc9ca535e" y="660.842661"/>
     <use style="fill:#ad00ff;stroke:#ad00ff;" x="290.599873" xlink:href="#mfcc9ca535e" y="656.390782"/>
     <use style="fill:#ad00ff;stroke:#ad00ff;" x="309.366561" xlink:href="#mfcc9ca535e" y="647.501964"/>
     <use style="fill:#ad00ff;stroke:#ad00ff;" x="328.133249" xlink:href="#mfcc9ca535e" y="595.483702"/>
     <use style="fill:#ad00ff;stroke:#ad00ff;" x="346.899936" xlink:href="#mfcc9ca535e" y="463.241987"/>
     <use style="fill:#ad00ff;stroke:#ad00ff;" x="384.433312" xlink:href="#mfcc9ca535e" y="577.511856"/>
     <use style="fill:#ad00ff;stroke:#ad00ff;" x="403.2" xlink:href="#mfcc9ca535e" y="454.308351"/>
     <use style="fill:#ad00ff;stroke:#ad00ff;" x="421.966688" xlink:href="#mfcc9ca535e" y="511.16691"/>
     <use style="fill:#ad00ff;stroke:#ad00ff;" x="440.733376" xlink:href="#mfcc9ca535e" y="546.139556"/>
     <use style="fill:#ad00ff;stroke:#ad00ff;" x="478.266751" xlink:href="#mfcc9ca535e" y="512.496498"/>
     <use style="fill:#ad00ff;stroke:#ad00ff;" x="497.033439" xlink:href="#mfcc9ca535e" y="523.476803"/>
     <use style="fill:#ad00ff;stroke:#ad00ff;" x="515.800127" xlink:href="#mfcc9ca535e" y="543.83892"/>
     <use style="fill:#ad00ff;stroke:#ad00ff;" x="534.566815" xlink:href="#mfcc9ca535e" y="563.244929"/>
     <use style="fill:#ad00ff;stroke:#ad00ff;" x="553.333503" xlink:href="#mfcc9ca535e" y="590.658344"/>
     <use style="fill:#ad00ff;stroke:#ad00ff;" x="572.100191" xlink:href="#mfcc9ca535e" y="622.165097"/>
     <use style="fill:#ad00ff;stroke:#ad00ff;" x="590.866879" xlink:href="#mfcc9ca535e" y="645.559869"/>
     <use style="fill:#ad00ff;stroke:#ad00ff;" x="609.633566" xlink:href="#mfcc9ca535e" y="659.049958"/>
     <use style="fill:#ad00ff;stroke:#ad00ff;" x="628.400254" xlink:href="#mfcc9ca535e" y="663.023783"/>
    </g>
   </g>
   <g id="line2d_46">
    <path clip-path="url(#pebaf4aea95)" d="M 440.733376 661.798769 
L 478.266751 654.822167 
L 497.033439 601.369743 
L 515.800127 488.145618 
L 534.566815 501.38174 
L 553.333503 525.418898 
L 572.100191 560.481179 
L 590.866879 642.064098 
L 609.633566 659.901492 
" style="fill:none;stroke:#f800fd;stroke-linecap:square;stroke-width:2;"/>
    <defs>
     <path d="M 0 2.5 
C 0.663008 2.5 1.29895 2.236584 1.767767 1.767767 
C 2.236584 1.29895 2.5 0.663008 2.5 0 
C 2.5 -0.663008 2.236584 -1.29895 1.767767 -1.767767 
C 1.29895 -2.236584 0.663008 -2.5 0 -2.5 
C -0.663008 -2.5 -1.29895 -2.236584 -1.767767 -1.767767 
C -2.236584 -1.29895 -2.5 -0.663008 -2.5 0 
C -2.5 0.663008 -2.236584 1.29895 -1.767767 1.767767 
C -1.29895 2.236584 -0.663008 2.5 0 2.5 
z
" id="m1a3de2c2db" style="stroke:#f800fd;"/>
    </defs>
    <g clip-path="url(#pebaf4aea95)">
     <use style="fill:#f800fd;stroke:#f800fd;" x="440.733376" xlink:href="#m1a3de2c2db" y="661.798769"/>
     <use style="fill:#f800fd;stroke:#f800fd;" x="478.266751" xlink:href="#m1a3de2c2db" y="654.822167"/>
     <use style="fill:#f800fd;stroke:#f800fd;" x="497.033439" xlink:href="#m1a3de2c2db" y="601.369743"/>
     <use style="fill:#f800fd;stroke:#f800fd;" x="515.800127" xlink:href="#m1a3de2c2db" y="488.145618"/>
     <use style="fill:#f800fd;stroke:#f800fd;" x="534.566815" xlink:href="#m1a3de2c2db" y="501.38174"/>
     <use style="fill:#f800fd;stroke:#f800fd;" x="553.333503" xlink:href="#m1a3de2c2db" y="525.418898"/>
     <use style="fill:#f800fd;stroke:#f800fd;" x="572.100191" xlink:href="#m1a3de2c2db" y="560.481179"/>
     <use style="fill:#f800fd;stroke:#f800fd;" x="590.866879" xlink:href="#m1a3de2c2db" y="642.064098"/>
     <use style="fill:#f800fd;stroke:#f800fd;" x="609.633566" xlink:href="#m1a3de2c2db" y="659.901492"/>
    </g>
   </g>
   <g id="line2d_47">
    <path clip-path="url(#pebaf4aea95)" d="M 421.966688 662.949087 
L 440.733376 655.479492 
L 478.266751 505.669288 
L 497.033439 500.918626 
L 515.800127 579.678038 
L 534.566815 632.06978 
L 553.333503 661.156384 
" style="fill:none;stroke:#ff00b1;stroke-linecap:square;stroke-width:2;"/>
    <defs>
     <path d="M 0 2.5 
C 0.663008 2.5 1.29895 2.236584 1.767767 1.767767 
C 2.236584 1.29895 2.5 0.663008 2.5 0 
C 2.5 -0.663008 2.236584 -1.29895 1.767767 -1.767767 
C 1.29895 -2.236584 0.663008 -2.5 0 -2.5 
C -0.663008 -2.5 -1.29895 -2.236584 -1.767767 -1.767767 
C -2.236584 -1.29895 -2.5 -0.663008 -2.5 0 
C -2.5 0.663008 -2.236584 1.29895 -1.767767 1.767767 
C -1.29895 2.236584 -0.663008 2.5 0 2.5 
z
" id="mb53140a0d3" style="stroke:#ff00b1;"/>
    </defs>
    <g clip-path="url(#pebaf4aea95)">
     <use style="fill:#ff00b1;stroke:#ff00b1;" x="421.966688" xlink:href="#mb53140a0d3" y="662.949087"/>
     <use style="fill:#ff00b1;stroke:#ff00b1;" x="440.733376" xlink:href="#mb53140a0d3" y="655.479492"/>
     <use style="fill:#ff00b1;stroke:#ff00b1;" x="478.266751" xlink:href="#mb53140a0d3" y="505.669288"/>
     <use style="fill:#ff00b1;stroke:#ff00b1;" x="497.033439" xlink:href="#mb53140a0d3" y="500.918626"/>
     <use style="fill:#ff00b1;stroke:#ff00b1;" x="515.800127" xlink:href="#mb53140a0d3" y="579.678038"/>
     <use style="fill:#ff00b1;stroke:#ff00b1;" x="534.566815" xlink:href="#mb53140a0d3" y="632.06978"/>
     <use style="fill:#ff00b1;stroke:#ff00b1;" x="553.333503" xlink:href="#mb53140a0d3" y="661.156384"/>
    </g>
   </g>
   <g id="line2d_48">
    <path clip-path="url(#pebaf4aea95)" d="M 365.666624 656.689566 
L 384.433312 569.474571 
L 403.2 517.336796 
L 421.966688 567.263571 
L 440.733376 648.921187 
" style="fill:none;stroke:#ff0065;stroke-linecap:square;stroke-width:2;"/>
    <defs>
     <path d="M 0 2.5 
C 0.663008 2.5 1.29895 2.236584 1.767767 1.767767 
C 2.236584 1.29895 2.5 0.663008 2.5 0 
C 2.5 -0.663008 2.236584 -1.29895 1.767767 -1.767767 
C 1.29895 -2.236584 0.663008 -2.5 0 -2.5 
C -0.663008 -2.5 -1.29895 -2.236584 -1.767767 -1.767767 
C -2.236584 -1.29895 -2.5 -0.663008 -2.5 0 
C -2.5 0.663008 -2.236584 1.29895 -1.767767 1.767767 
C -1.29895 2.236584 -0.663008 2.5 0 2.5 
z
" id="m378fac0e60" style="stroke:#ff0065;"/>
    </defs>
    <g clip-path="url(#pebaf4aea95)">
     <use style="fill:#ff0065;stroke:#ff0065;" x="365.666624" xlink:href="#m378fac0e60" y="656.689566"/>
     <use style="fill:#ff0065;stroke:#ff0065;" x="384.433312" xlink:href="#m378fac0e60" y="569.474571"/>
     <use style="fill:#ff0065;stroke:#ff0065;" x="403.2" xlink:href="#m378fac0e60" y="517.336796"/>
     <use style="fill:#ff0065;stroke:#ff0065;" x="421.966688" xlink:href="#m378fac0e60" y="567.263571"/>
     <use style="fill:#ff0065;stroke:#ff0065;" x="440.733376" xlink:href="#m378fac0e60" y="648.921187"/>
    </g>
   </g>
   <g id="line2d_49">
    <path clip-path="url(#pebaf4aea95)" d="M 346.899936 517.381614 
" style="fill:none;stroke:#ff0018;stroke-linecap:square;stroke-width:2;"/>
    <defs>
     <path d="M 0 2.5 
C 0.663008 2.5 1.29895 2.236584 1.767767 1.767767 
C 2.236584 1.29895 2.5 0.663008 2.5 0 
C 2.5 -0.663008 2.236584 -1.29895 1.767767 -1.767767 
C 1.29895 -2.236584 0.663008 -2.5 0 -2.5 
C -0.663008 -2.5 -1.29895 -2.236584 -1.767767 -1.767767 
C -2.236584 -1.29895 -2.5 -0.663008 -2.5 0 
C -2.5 0.663008 -2.236584 1.29895 -1.767767 1.767767 
C -1.29895 2.236584 -0.663008 2.5 0 2.5 
z
" id="mc94bdd9a85" style="stroke:#ff0018;"/>
    </defs>
    <g clip-path="url(#pebaf4aea95)">
     <use style="fill:#ff0018;stroke:#ff0018;" x="346.899936" xlink:href="#mc94bdd9a85" y="517.381614"/>
    </g>
   </g>
   <g id="patch_3">
    <path d="M 108 720.9 
L 108 56.7 
" style="fill:none;stroke:#000000;stroke-linecap:square;stroke-linejoin:miter;stroke-width:0.8;"/>
   </g>
   <g id="patch_4">
    <path d="M 698.4 720.9 
L 698.4 56.7 
" style="fill:none;stroke:#000000;stroke-linecap:square;stroke-linejoin:miter;stroke-width:0.8;"/>
   </g>
   <g id="patch_5">
    <path d="M 108 720.9 
L 698.4 720.9 
" style="fill:none;stroke:#000000;stroke-linecap:square;stroke-linejoin:miter;stroke-width:0.8;"/>
   </g>
   <g id="patch_6">
    <path d="M 108 56.7 
L 698.4 56.7 
" style="fill:none;stroke:#000000;stroke-linecap:square;stroke-linejoin:miter;stroke-width:0.8;"/>
   </g>
   <g id="legend_1">
    <g id="patch_7">
     <path d="M 122 630.46875 
L 286.853125 630.46875 
Q 290.853125 630.46875 290.853125 626.46875 
L 290.853125 70.7 
Q 290.853125 66.7 286.853125 66.7 
L 122 66.7 
Q 118 66.7 118 70.7 
L 118 626.46875 
Q 118 630.46875 122 630.46875 
z
" style="fill:#ffffff;opacity:0.8;stroke:#cccccc;stroke-linejoin:miter;"/>
    </g>
    <g id="line2d_50">
     <path d="M 126 82.896875 
L 166 82.896875 
" style="fill:none;stroke:#ff4d00;stroke-linecap:square;stroke-width:2;"/>
    </g>
    <g id="line2d_51">
     <g>
      <use style="fill:#ff4d00;stroke:#ff4d00;" x="146" xlink:href="#mb0ea6f9b10" y="82.896875"/>
     </g>
    </g>
    <g id="text_18">
     <!-- (-3, -1, 1) -->
     <g transform="translate(182 89.896875)scale(0.2 -0.2)">
      <defs>
       <path d="M 31 75.875 
Q 24.46875 64.65625 21.28125 53.65625 
Q 18.109375 42.671875 18.109375 31.390625 
Q 18.109375 20.125 21.3125 9.0625 
Q 24.515625 -2 31 -13.1875 
L 23.1875 -13.1875 
Q 15.875 -1.703125 12.234375 9.375 
Q 8.59375 20.453125 8.59375 31.390625 
Q 8.59375 42.28125 12.203125 53.3125 
Q 15.828125 64.359375 23.1875 75.875 
z
" id="DejaVuSans-40"/>
       <path d="M 4.890625 31.390625 
L 31.203125 31.390625 
L 31.203125 23.390625 
L 4.890625 23.390625 
z
" id="DejaVuSans-45"/>
       <path d="M 11.71875 12.40625 
L 22.015625 12.40625 
L 22.015625 4 
L 14.015625 -11.625 
L 7.71875 -11.625 
L 11.71875 4 
z
" id="DejaVuSans-44"/>
       <path id="DejaVuSans-32"/>
       <path d="M 8.015625 75.875 
L 15.828125 75.875 
Q 23.140625 64.359375 26.78125 53.3125 
Q 30.421875 42.28125 30.421875 31.390625 
Q 30.421875 20.453125 26.78125 9.375 
Q 23.140625 -1.703125 15.828125 -13.1875 
L 8.015625 -13.1875 
Q 14.5 -2 17.703125 9.0625 
Q 20.90625 20.125 20.90625 31.390625 
Q 20.90625 42.671875 17.703125 53.65625 
Q 14.5 64.65625 8.015625 75.875 
z
" id="DejaVuSans-41"/>
      </defs>
      <use xlink:href="#DejaVuSans-40"/>
      <use x="39.013672" xlink:href="#DejaVuSans-45"/>
      <use x="75.097656" xlink:href="#DejaVuSans-51"/>
      <use x="138.720703" xlink:href="#DejaVuSans-44"/>
      <use x="170.507812" xlink:href="#DejaVuSans-32"/>
      <use x="202.294922" xlink:href="#DejaVuSans-45"/>
      <use x="238.378906" xlink:href="#DejaVuSans-49"/>
      <use x="302.001953" xlink:href="#DejaVuSans-44"/>
      <use x="333.789062" xlink:href="#DejaVuSans-32"/>
      <use x="365.576172" xlink:href="#DejaVuSans-49"/>
      <use x="429.199219" xlink:href="#DejaVuSans-41"/>
     </g>
    </g>
    <g id="line2d_52">
     <path d="M 126 112.253125 
L 166 112.253125 
" style="fill:none;stroke:#ff9a00;stroke-linecap:square;stroke-width:2;"/>
    </g>
    <g id="line2d_53">
     <g>
      <use style="fill:#ff9a00;stroke:#ff9a00;" x="146" xlink:href="#m1897d5fe82" y="112.253125"/>
     </g>
    </g>
    <g id="text_19">
     <!-- (2, 0, 4) -->
     <g transform="translate(182 119.253125)scale(0.2 -0.2)">
      <use xlink:href="#DejaVuSans-40"/>
      <use x="39.013672" xlink:href="#DejaVuSans-50"/>
      <use x="102.636719" xlink:href="#DejaVuSans-44"/>
      <use x="134.423828" xlink:href="#DejaVuSans-32"/>
      <use x="166.210938" xlink:href="#DejaVuSans-48"/>
      <use x="229.833984" xlink:href="#DejaVuSans-44"/>
      <use x="261.621094" xlink:href="#DejaVuSans-32"/>
      <use x="293.408203" xlink:href="#DejaVuSans-52"/>
      <use x="357.03125" xlink:href="#DejaVuSans-41"/>
     </g>
    </g>
    <g id="line2d_54">
     <path d="M 126 141.609375 
L 166 141.609375 
" style="fill:none;stroke:#ffec00;stroke-linecap:square;stroke-width:2;"/>
    </g>
    <g id="line2d_55">
     <g>
      <use style="fill:#ffec00;stroke:#ffec00;" x="146" xlink:href="#mce8d3ea5ba" y="141.609375"/>
     </g>
    </g>
    <g id="text_20">
     <!-- (1, 0, -1) -->
     <g transform="translate(182 148.609375)scale(0.2 -0.2)">
      <use xlink:href="#DejaVuSans-40"/>
      <use x="39.013672" xlink:href="#DejaVuSans-49"/>
      <use x="102.636719" xlink:href="#DejaVuSans-44"/>
      <use x="134.423828" xlink:href="#DejaVuSans-32"/>
      <use x="166.210938" xlink:href="#DejaVuSans-48"/>
      <use x="229.833984" xlink:href="#DejaVuSans-44"/>
      <use x="261.621094" xlink:href="#DejaVuSans-32"/>
      <use x="293.408203" xlink:href="#DejaVuSans-45"/>
      <use x="329.492188" xlink:href="#DejaVuSans-49"/>
      <use x="393.115234" xlink:href="#DejaVuSans-41"/>
     </g>
    </g>
    <g id="line2d_56">
     <path d="M 126 170.965625 
L 166 170.965625 
" style="fill:none;stroke:#c5ff00;stroke-linecap:square;stroke-width:2;"/>
    </g>
    <g id="line2d_57">
     <g>
      <use style="fill:#c5ff00;stroke:#c5ff00;" x="146" xlink:href="#mb360ec6d21" y="170.965625"/>
     </g>
    </g>
    <g id="text_21">
     <!-- (3, 0, -3) -->
     <g transform="translate(182 177.965625)scale(0.2 -0.2)">
      <use xlink:href="#DejaVuSans-40"/>
      <use x="39.013672" xlink:href="#DejaVuSans-51"/>
      <use x="102.636719" xlink:href="#DejaVuSans-44"/>
      <use x="134.423828" xlink:href="#DejaVuSans-32"/>
      <use x="166.210938" xlink:href="#DejaVuSans-48"/>
      <use x="229.833984" xlink:href="#DejaVuSans-44"/>
      <use x="261.621094" xlink:href="#DejaVuSans-32"/>
      <use x="293.408203" xlink:href="#DejaVuSans-45"/>
      <use x="329.492188" xlink:href="#DejaVuSans-51"/>
      <use x="393.115234" xlink:href="#DejaVuSans-41"/>
     </g>
    </g>
    <g id="line2d_58">
     <path d="M 126 200.321875 
L 166 200.321875 
" style="fill:none;stroke:#72ff00;stroke-linecap:square;stroke-width:2;"/>
    </g>
    <g id="line2d_59">
     <g>
      <use style="fill:#72ff00;stroke:#72ff00;" x="146" xlink:href="#mea756cf742" y="200.321875"/>
     </g>
    </g>
    <g id="text_22">
     <!-- (4, 0, -4) -->
     <g transform="translate(182 207.321875)scale(0.2 -0.2)">
      <use xlink:href="#DejaVuSans-40"/>
      <use x="39.013672" xlink:href="#DejaVuSans-52"/>
      <use x="102.636719" xlink:href="#DejaVuSans-44"/>
      <use x="134.423828" xlink:href="#DejaVuSans-32"/>
      <use x="166.210938" xlink:href="#DejaVuSans-48"/>
      <use x="229.833984" xlink:href="#DejaVuSans-44"/>
      <use x="261.621094" xlink:href="#DejaVuSans-32"/>
      <use x="293.408203" xlink:href="#DejaVuSans-45"/>
      <use x="329.492188" xlink:href="#DejaVuSans-52"/>
      <use x="393.115234" xlink:href="#DejaVuSans-41"/>
     </g>
    </g>
    <g id="line2d_60">
     <path d="M 126 229.678125 
L 166 229.678125 
" style="fill:none;stroke:#25ff00;stroke-linecap:square;stroke-width:2;"/>
    </g>
    <g id="line2d_61">
     <g>
      <use style="fill:#25ff00;stroke:#25ff00;" x="146" xlink:href="#m1859477820" y="229.678125"/>
     </g>
    </g>
    <g id="text_23">
     <!-- (-3, 0, 5) -->
     <g transform="translate(182 236.678125)scale(0.2 -0.2)">
      <use xlink:href="#DejaVuSans-40"/>
      <use x="39.013672" xlink:href="#DejaVuSans-45"/>
      <use x="75.097656" xlink:href="#DejaVuSans-51"/>
      <use x="138.720703" xlink:href="#DejaVuSans-44"/>
      <use x="170.507812" xlink:href="#DejaVuSans-32"/>
      <use x="202.294922" xlink:href="#DejaVuSans-48"/>
      <use x="265.917969" xlink:href="#DejaVuSans-44"/>
      <use x="297.705078" xlink:href="#DejaVuSans-32"/>
      <use x="329.492188" xlink:href="#DejaVuSans-53"/>
      <use x="393.115234" xlink:href="#DejaVuSans-41"/>
     </g>
    </g>
    <g id="line2d_62">
     <path d="M 126 259.034375 
L 166 259.034375 
" style="fill:none;stroke:#00ff2d;stroke-linecap:square;stroke-width:2;"/>
    </g>
    <g id="line2d_63">
     <g>
      <use style="fill:#00ff2d;stroke:#00ff2d;" x="146" xlink:href="#m7612170eb9" y="259.034375"/>
     </g>
    </g>
    <g id="text_24">
     <!-- (0, 0, 4) -->
     <g transform="translate(182 266.034375)scale(0.2 -0.2)">
      <use xlink:href="#DejaVuSans-40"/>
      <use x="39.013672" xlink:href="#DejaVuSans-48"/>
      <use x="102.636719" xlink:href="#DejaVuSans-44"/>
      <use x="134.423828" xlink:href="#DejaVuSans-32"/>
      <use x="166.210938" xlink:href="#DejaVuSans-48"/>
      <use x="229.833984" xlink:href="#DejaVuSans-44"/>
      <use x="261.621094" xlink:href="#DejaVuSans-32"/>
      <use x="293.408203" xlink:href="#DejaVuSans-52"/>
      <use x="357.03125" xlink:href="#DejaVuSans-41"/>
     </g>
    </g>
    <g id="line2d_64">
     <path d="M 126 288.390625 
L 166 288.390625 
" style="fill:none;stroke:#00ff7a;stroke-linecap:square;stroke-width:2;"/>
    </g>
    <g id="line2d_65">
     <g>
      <use style="fill:#00ff7a;stroke:#00ff7a;" x="146" xlink:href="#m65416a7608" y="288.390625"/>
     </g>
    </g>
    <g id="text_25">
     <!-- (3, 0, -5) -->
     <g transform="translate(182 295.390625)scale(0.2 -0.2)">
      <use xlink:href="#DejaVuSans-40"/>
      <use x="39.013672" xlink:href="#DejaVuSans-51"/>
      <use x="102.636719" xlink:href="#DejaVuSans-44"/>
      <use x="134.423828" xlink:href="#DejaVuSans-32"/>
      <use x="166.210938" xlink:href="#DejaVuSans-48"/>
      <use x="229.833984" xlink:href="#DejaVuSans-44"/>
      <use x="261.621094" xlink:href="#DejaVuSans-32"/>
      <use x="293.408203" xlink:href="#DejaVuSans-45"/>
      <use x="329.492188" xlink:href="#DejaVuSans-53"/>
      <use x="393.115234" xlink:href="#DejaVuSans-41"/>
     </g>
    </g>
    <g id="line2d_66">
     <path d="M 126 317.746875 
L 166 317.746875 
" style="fill:none;stroke:#00ffcd;stroke-linecap:square;stroke-width:2;"/>
    </g>
    <g id="line2d_67">
     <g>
      <use style="fill:#00ffcd;stroke:#00ffcd;" x="146" xlink:href="#m0b564fb544" y="317.746875"/>
     </g>
    </g>
    <g id="text_26">
     <!-- (-4, -1, 4) -->
     <g transform="translate(182 324.746875)scale(0.2 -0.2)">
      <use xlink:href="#DejaVuSans-40"/>
      <use x="39.013672" xlink:href="#DejaVuSans-45"/>
      <use x="75.097656" xlink:href="#DejaVuSans-52"/>
      <use x="138.720703" xlink:href="#DejaVuSans-44"/>
      <use x="170.507812" xlink:href="#DejaVuSans-32"/>
      <use x="202.294922" xlink:href="#DejaVuSans-45"/>
      <use x="238.378906" xlink:href="#DejaVuSans-49"/>
      <use x="302.001953" xlink:href="#DejaVuSans-44"/>
      <use x="333.789062" xlink:href="#DejaVuSans-32"/>
      <use x="365.576172" xlink:href="#DejaVuSans-52"/>
      <use x="429.199219" xlink:href="#DejaVuSans-41"/>
     </g>
    </g>
    <g id="line2d_68">
     <path d="M 126 347.103125 
L 166 347.103125 
" style="fill:none;stroke:#00e5ff;stroke-linecap:square;stroke-width:2;"/>
    </g>
    <g id="line2d_69">
     <g>
      <use style="fill:#00e5ff;stroke:#00e5ff;" x="146" xlink:href="#m1702e2b875" y="347.103125"/>
     </g>
    </g>
    <g id="text_27">
     <!-- (5, 1, -2) -->
     <g transform="translate(182 354.103125)scale(0.2 -0.2)">
      <use xlink:href="#DejaVuSans-40"/>
      <use x="39.013672" xlink:href="#DejaVuSans-53"/>
      <use x="102.636719" xlink:href="#DejaVuSans-44"/>
      <use x="134.423828" xlink:href="#DejaVuSans-32"/>
      <use x="166.210938" xlink:href="#DejaVuSans-49"/>
      <use x="229.833984" xlink:href="#DejaVuSans-44"/>
      <use x="261.621094" xlink:href="#DejaVuSans-32"/>
      <use x="293.408203" xlink:href="#DejaVuSans-45"/>
      <use x="329.492188" xlink:href="#DejaVuSans-50"/>
      <use x="393.115234" xlink:href="#DejaVuSans-41"/>
     </g>
    </g>
    <g id="line2d_70">
     <path d="M 126 376.459375 
L 166 376.459375 
" style="fill:none;stroke:#0092ff;stroke-linecap:square;stroke-width:2;"/>
    </g>
    <g id="line2d_71">
     <g>
      <use style="fill:#0092ff;stroke:#0092ff;" x="146" xlink:href="#m33e7834cda" y="376.459375"/>
     </g>
    </g>
    <g id="text_28">
     <!-- (-5, -1, 2) -->
     <g transform="translate(182 383.459375)scale(0.2 -0.2)">
      <use xlink:href="#DejaVuSans-40"/>
      <use x="39.013672" xlink:href="#DejaVuSans-45"/>
      <use x="75.097656" xlink:href="#DejaVuSans-53"/>
      <use x="138.720703" xlink:href="#DejaVuSans-44"/>
      <use x="170.507812" xlink:href="#DejaVuSans-32"/>
      <use x="202.294922" xlink:href="#DejaVuSans-45"/>
      <use x="238.378906" xlink:href="#DejaVuSans-49"/>
      <use x="302.001953" xlink:href="#DejaVuSans-44"/>
      <use x="333.789062" xlink:href="#DejaVuSans-32"/>
      <use x="365.576172" xlink:href="#DejaVuSans-50"/>
      <use x="429.199219" xlink:href="#DejaVuSans-41"/>
     </g>
    </g>
    <g id="line2d_72">
     <path d="M 126 405.815625 
L 166 405.815625 
" style="fill:none;stroke:#0045ff;stroke-linecap:square;stroke-width:2;"/>
    </g>
    <g id="line2d_73">
     <g>
      <use style="fill:#0045ff;stroke:#0045ff;" x="146" xlink:href="#m5da17e9bb2" y="405.815625"/>
     </g>
    </g>
    <g id="text_29">
     <!-- (0, 0, -4) -->
     <g transform="translate(182 412.815625)scale(0.2 -0.2)">
      <use xlink:href="#DejaVuSans-40"/>
      <use x="39.013672" xlink:href="#DejaVuSans-48"/>
      <use x="102.636719" xlink:href="#DejaVuSans-44"/>
      <use x="134.423828" xlink:href="#DejaVuSans-32"/>
      <use x="166.210938" xlink:href="#DejaVuSans-48"/>
      <use x="229.833984" xlink:href="#DejaVuSans-44"/>
      <use x="261.621094" xlink:href="#DejaVuSans-32"/>
      <use x="293.408203" xlink:href="#DejaVuSans-45"/>
      <use x="329.492188" xlink:href="#DejaVuSans-52"/>
      <use x="393.115234" xlink:href="#DejaVuSans-41"/>
     </g>
    </g>
    <g id="line2d_74">
     <path d="M 126 435.171875 
L 166 435.171875 
" style="fill:none;stroke:#0e00ff;stroke-linecap:square;stroke-width:2;"/>
    </g>
    <g id="line2d_75">
     <g>
      <use style="fill:#0e00ff;stroke:#0e00ff;" x="146" xlink:href="#m270c7f6750" y="435.171875"/>
     </g>
    </g>
    <g id="text_30">
     <!-- (-1, 0, 1) -->
     <g transform="translate(182 442.171875)scale(0.2 -0.2)">
      <use xlink:href="#DejaVuSans-40"/>
      <use x="39.013672" xlink:href="#DejaVuSans-45"/>
      <use x="75.097656" xlink:href="#DejaVuSans-49"/>
      <use x="138.720703" xlink:href="#DejaVuSans-44"/>
      <use x="170.507812" xlink:href="#DejaVuSans-32"/>
      <use x="202.294922" xlink:href="#DejaVuSans-48"/>
      <use x="265.917969" xlink:href="#DejaVuSans-44"/>
      <use x="297.705078" xlink:href="#DejaVuSans-32"/>
      <use x="329.492188" xlink:href="#DejaVuSans-49"/>
      <use x="393.115234" xlink:href="#DejaVuSans-41"/>
     </g>
    </g>
    <g id="line2d_76">
     <path d="M 126 464.528125 
L 166 464.528125 
" style="fill:none;stroke:#5a00ff;stroke-linecap:square;stroke-width:2;"/>
    </g>
    <g id="line2d_77">
     <g>
      <use style="fill:#5a00ff;stroke:#5a00ff;" x="146" xlink:href="#m1178f3951d" y="464.528125"/>
     </g>
    </g>
    <g id="text_31">
     <!-- (5, 1, 0) -->
     <g transform="translate(182 471.528125)scale(0.2 -0.2)">
      <use xlink:href="#DejaVuSans-40"/>
      <use x="39.013672" xlink:href="#DejaVuSans-53"/>
      <use x="102.636719" xlink:href="#DejaVuSans-44"/>
      <use x="134.423828" xlink:href="#DejaVuSans-32"/>
      <use x="166.210938" xlink:href="#DejaVuSans-49"/>
      <use x="229.833984" xlink:href="#DejaVuSans-44"/>
      <use x="261.621094" xlink:href="#DejaVuSans-32"/>
      <use x="293.408203" xlink:href="#DejaVuSans-48"/>
      <use x="357.03125" xlink:href="#DejaVuSans-41"/>
     </g>
    </g>
    <g id="line2d_78">
     <path d="M 126 493.884375 
L 166 493.884375 
" style="fill:none;stroke:#ad00ff;stroke-linecap:square;stroke-width:2;"/>
    </g>
    <g id="line2d_79">
     <g>
      <use style="fill:#ad00ff;stroke:#ad00ff;" x="146" xlink:href="#mfcc9ca535e" y="493.884375"/>
     </g>
    </g>
    <g id="text_32">
     <!-- (-4, -1, -2) -->
     <g transform="translate(182 500.884375)scale(0.2 -0.2)">
      <use xlink:href="#DejaVuSans-40"/>
      <use x="39.013672" xlink:href="#DejaVuSans-45"/>
      <use x="75.097656" xlink:href="#DejaVuSans-52"/>
      <use x="138.720703" xlink:href="#DejaVuSans-44"/>
      <use x="170.507812" xlink:href="#DejaVuSans-32"/>
      <use x="202.294922" xlink:href="#DejaVuSans-45"/>
      <use x="238.378906" xlink:href="#DejaVuSans-49"/>
      <use x="302.001953" xlink:href="#DejaVuSans-44"/>
      <use x="333.789062" xlink:href="#DejaVuSans-32"/>
      <use x="365.576172" xlink:href="#DejaVuSans-45"/>
      <use x="401.660156" xlink:href="#DejaVuSans-50"/>
      <use x="465.283203" xlink:href="#DejaVuSans-41"/>
     </g>
    </g>
    <g id="line2d_80">
     <path d="M 126 523.240625 
L 166 523.240625 
" style="fill:none;stroke:#f800fd;stroke-linecap:square;stroke-width:2;"/>
    </g>
    <g id="line2d_81">
     <g>
      <use style="fill:#f800fd;stroke:#f800fd;" x="146" xlink:href="#m1a3de2c2db" y="523.240625"/>
     </g>
    </g>
    <g id="text_33">
     <!-- (-5, -1, 0) -->
     <g transform="translate(182 530.240625)scale(0.2 -0.2)">
      <use xlink:href="#DejaVuSans-40"/>
      <use x="39.013672" xlink:href="#DejaVuSans-45"/>
      <use x="75.097656" xlink:href="#DejaVuSans-53"/>
      <use x="138.720703" xlink:href="#DejaVuSans-44"/>
      <use x="170.507812" xlink:href="#DejaVuSans-32"/>
      <use x="202.294922" xlink:href="#DejaVuSans-45"/>
      <use x="238.378906" xlink:href="#DejaVuSans-49"/>
      <use x="302.001953" xlink:href="#DejaVuSans-44"/>
      <use x="333.789062" xlink:href="#DejaVuSans-32"/>
      <use x="365.576172" xlink:href="#DejaVuSans-48"/>
      <use x="429.199219" xlink:href="#DejaVuSans-41"/>
     </g>
    </g>
    <g id="line2d_82">
     <path d="M 126 552.596875 
L 166 552.596875 
" style="fill:none;stroke:#ff00b1;stroke-linecap:square;stroke-width:2;"/>
    </g>
    <g id="line2d_83">
     <g>
      <use style="fill:#ff00b1;stroke:#ff00b1;" x="146" xlink:href="#mb53140a0d3" y="552.596875"/>
     </g>
    </g>
    <g id="text_34">
     <!-- (0, 0, 6) -->
     <g transform="translate(182 559.596875)scale(0.2 -0.2)">
      <defs>
       <path d="M 33.015625 40.375 
Q 26.375 40.375 22.484375 35.828125 
Q 18.609375 31.296875 18.609375 23.390625 
Q 18.609375 15.53125 22.484375 10.953125 
Q 26.375 6.390625 33.015625 6.390625 
Q 39.65625 6.390625 43.53125 10.953125 
Q 47.40625 15.53125 47.40625 23.390625 
Q 47.40625 31.296875 43.53125 35.828125 
Q 39.65625 40.375 33.015625 40.375 
z
M 52.59375 71.296875 
L 52.59375 62.3125 
Q 48.875 64.0625 45.09375 64.984375 
Q 41.3125 65.921875 37.59375 65.921875 
Q 27.828125 65.921875 22.671875 59.328125 
Q 17.53125 52.734375 16.796875 39.40625 
Q 19.671875 43.65625 24.015625 45.921875 
Q 28.375 48.1875 33.59375 48.1875 
Q 44.578125 48.1875 50.953125 41.515625 
Q 57.328125 34.859375 57.328125 23.390625 
Q 57.328125 12.15625 50.6875 5.359375 
Q 44.046875 -1.421875 33.015625 -1.421875 
Q 20.359375 -1.421875 13.671875 8.265625 
Q 6.984375 17.96875 6.984375 36.375 
Q 6.984375 53.65625 15.1875 63.9375 
Q 23.390625 74.21875 37.203125 74.21875 
Q 40.921875 74.21875 44.703125 73.484375 
Q 48.484375 72.75 52.59375 71.296875 
z
" id="DejaVuSans-54"/>
      </defs>
      <use xlink:href="#DejaVuSans-40"/>
      <use x="39.013672" xlink:href="#DejaVuSans-48"/>
      <use x="102.636719" xlink:href="#DejaVuSans-44"/>
      <use x="134.423828" xlink:href="#DejaVuSans-32"/>
      <use x="166.210938" xlink:href="#DejaVuSans-48"/>
      <use x="229.833984" xlink:href="#DejaVuSans-44"/>
      <use x="261.621094" xlink:href="#DejaVuSans-32"/>
      <use x="293.408203" xlink:href="#DejaVuSans-54"/>
      <use x="357.03125" xlink:href="#DejaVuSans-41"/>
     </g>
    </g>
    <g id="line2d_84">
     <path d="M 126 581.953125 
L 166 581.953125 
" style="fill:none;stroke:#ff0065;stroke-linecap:square;stroke-width:2;"/>
    </g>
    <g id="line2d_85">
     <g>
      <use style="fill:#ff0065;stroke:#ff0065;" x="146" xlink:href="#m378fac0e60" y="581.953125"/>
     </g>
    </g>
    <g id="text_35">
     <!-- (-4, -1, 2) -->
     <g transform="translate(182 588.953125)scale(0.2 -0.2)">
      <use xlink:href="#DejaVuSans-40"/>
      <use x="39.013672" xlink:href="#DejaVuSans-45"/>
      <use x="75.097656" xlink:href="#DejaVuSans-52"/>
      <use x="138.720703" xlink:href="#DejaVuSans-44"/>
      <use x="170.507812" xlink:href="#DejaVuSans-32"/>
      <use x="202.294922" xlink:href="#DejaVuSans-45"/>
      <use x="238.378906" xlink:href="#DejaVuSans-49"/>
      <use x="302.001953" xlink:href="#DejaVuSans-44"/>
      <use x="333.789062" xlink:href="#DejaVuSans-32"/>
      <use x="365.576172" xlink:href="#DejaVuSans-50"/>
      <use x="429.199219" xlink:href="#DejaVuSans-41"/>
     </g>
    </g>
    <g id="line2d_86">
     <path d="M 126 611.309375 
L 166 611.309375 
" style="fill:none;stroke:#ff0018;stroke-linecap:square;stroke-width:2;"/>
    </g>
    <g id="line2d_87">
     <g>
      <use style="fill:#ff0018;stroke:#ff0018;" x="146" xlink:href="#mc94bdd9a85" y="611.309375"/>
     </g>
    </g>
    <g id="text_36">
     <!-- (0, 0, -6) -->
     <g transform="translate(182 618.309375)scale(0.2 -0.2)">
      <use xlink:href="#DejaVuSans-40"/>
      <use x="39.013672" xlink:href="#DejaVuSans-48"/>
      <use x="102.636719" xlink:href="#DejaVuSans-44"/>
      <use x="134.423828" xlink:href="#DejaVuSans-32"/>
      <use x="166.210938" xlink:href="#DejaVuSans-48"/>
      <use x="229.833984" xlink:href="#DejaVuSans-44"/>
      <use x="261.621094" xlink:href="#DejaVuSans-32"/>
      <use x="293.408203" xlink:href="#DejaVuSans-45"/>
      <use x="329.492188" xlink:href="#DejaVuSans-54"/>
      <use x="393.115234" xlink:href="#DejaVuSans-41"/>
     </g>
    </g>
   </g>
  </g>
 </g>
 <defs>
  <clipPath id="pebaf4aea95">
   <rect height="664.2" width="590.4" x="108" y="56.7"/>
  </clipPath>
 </defs>
</svg>
