<?xml version="1.0" encoding="utf-8" standalone="no"?>
<!DOCTYPE svg PUBLIC "-//W3C//DTD SVG 1.1//EN"
  "http://www.w3.org/Graphics/SVG/1.1/DTD/svg11.dtd">
<!-- Created with matplotlib (https://matplotlib.org/) -->
<svg height="810pt" version="1.1" viewBox="0 0 720 810" width="720pt" xmlns="http://www.w3.org/2000/svg" xmlns:xlink="http://www.w3.org/1999/xlink">
 <metadata>
  <rdf:RDF xmlns:cc="http://creativecommons.org/ns#" xmlns:dc="http://purl.org/dc/elements/1.1/" xmlns:rdf="http://www.w3.org/1999/02/22-rdf-syntax-ns#">
   <cc:Work>
    <dc:type rdf:resource="http://purl.org/dc/dcmitype/StillImage"/>
    <dc:date>2021-07-20T11:15:18.444721</dc:date>
    <dc:format>image/svg+xml</dc:format>
    <dc:creator>
     <cc:Agent>
      <dc:title>Matplotlib v3.3.1, https://matplotlib.org/</dc:title>
     </cc:Agent>
    </dc:creator>
   </cc:Work>
  </rdf:RDF>
 </metadata>
 <defs>
  <style type="text/css">*{stroke-linecap:butt;stroke-linejoin:round;}</style>
 </defs>
 <g id="figure_1">
  <g id="patch_1">
   <path d="M 0 810 
L 720 810 
L 720 0 
L 0 0 
z
" style="fill:#ffffff;"/>
  </g>
  <g id="axes_1">
   <g id="patch_2">
    <path d="M 108 720.9 
L 698.4 720.9 
L 698.4 56.7 
L 108 56.7 
z
" style="fill:#ffffff;"/>
   </g>
   <g id="matplotlib.axis_1">
    <g id="xtick_1">
     <g id="line2d_1">
      <path clip-path="url(#peb0c6a5da5)" d="M 152.262574 720.9 
L 152.262574 56.7 
" style="fill:none;stroke:#e6e6e6;stroke-linecap:square;stroke-width:0.8;"/>
     </g>
     <g id="line2d_2">
      <defs>
       <path d="M 0 0 
L 0 3.5 
" id="m4f0d320078" style="stroke:#000000;stroke-width:0.8;"/>
      </defs>
      <g>
       <use style="stroke:#000000;stroke-width:0.8;" x="152.262574" xlink:href="#m4f0d320078" y="720.9"/>
      </g>
     </g>
     <g id="text_1">
      <!-- 0 -->
      <g transform="translate(147.490699 739.297656)scale(0.15 -0.15)">
       <defs>
        <path d="M 31.78125 66.40625 
Q 24.171875 66.40625 20.328125 58.90625 
Q 16.5 51.421875 16.5 36.375 
Q 16.5 21.390625 20.328125 13.890625 
Q 24.171875 6.390625 31.78125 6.390625 
Q 39.453125 6.390625 43.28125 13.890625 
Q 47.125 21.390625 47.125 36.375 
Q 47.125 51.421875 43.28125 58.90625 
Q 39.453125 66.40625 31.78125 66.40625 
z
M 31.78125 74.21875 
Q 44.046875 74.21875 50.515625 64.515625 
Q 56.984375 54.828125 56.984375 36.375 
Q 56.984375 17.96875 50.515625 8.265625 
Q 44.046875 -1.421875 31.78125 -1.421875 
Q 19.53125 -1.421875 13.0625 8.265625 
Q 6.59375 17.96875 6.59375 36.375 
Q 6.59375 54.828125 13.0625 64.515625 
Q 19.53125 74.21875 31.78125 74.21875 
z
" id="DejaVuSans-48"/>
       </defs>
       <use xlink:href="#DejaVuSans-48"/>
      </g>
     </g>
    </g>
    <g id="xtick_2">
     <g id="line2d_3">
      <path clip-path="url(#peb0c6a5da5)" d="M 221.967414 720.9 
L 221.967414 56.7 
" style="fill:none;stroke:#e6e6e6;stroke-linecap:square;stroke-width:0.8;"/>
     </g>
     <g id="line2d_4">
      <g>
       <use style="stroke:#000000;stroke-width:0.8;" x="221.967414" xlink:href="#m4f0d320078" y="720.9"/>
      </g>
     </g>
     <g id="text_2">
      <!-- 10 -->
      <g transform="translate(212.423664 739.297656)scale(0.15 -0.15)">
       <defs>
        <path d="M 12.40625 8.296875 
L 28.515625 8.296875 
L 28.515625 63.921875 
L 10.984375 60.40625 
L 10.984375 69.390625 
L 28.421875 72.90625 
L 38.28125 72.90625 
L 38.28125 8.296875 
L 54.390625 8.296875 
L 54.390625 0 
L 12.40625 0 
z
" id="DejaVuSans-49"/>
       </defs>
       <use xlink:href="#DejaVuSans-49"/>
       <use x="63.623047" xlink:href="#DejaVuSans-48"/>
      </g>
     </g>
    </g>
    <g id="xtick_3">
     <g id="line2d_5">
      <path clip-path="url(#peb0c6a5da5)" d="M 291.672255 720.9 
L 291.672255 56.7 
" style="fill:none;stroke:#e6e6e6;stroke-linecap:square;stroke-width:0.8;"/>
     </g>
     <g id="line2d_6">
      <g>
       <use style="stroke:#000000;stroke-width:0.8;" x="291.672255" xlink:href="#m4f0d320078" y="720.9"/>
      </g>
     </g>
     <g id="text_3">
      <!-- 20 -->
      <g transform="translate(282.128505 739.297656)scale(0.15 -0.15)">
       <defs>
        <path d="M 19.1875 8.296875 
L 53.609375 8.296875 
L 53.609375 0 
L 7.328125 0 
L 7.328125 8.296875 
Q 12.9375 14.109375 22.625 23.890625 
Q 32.328125 33.6875 34.8125 36.53125 
Q 39.546875 41.84375 41.421875 45.53125 
Q 43.3125 49.21875 43.3125 52.78125 
Q 43.3125 58.59375 39.234375 62.25 
Q 35.15625 65.921875 28.609375 65.921875 
Q 23.96875 65.921875 18.8125 64.3125 
Q 13.671875 62.703125 7.8125 59.421875 
L 7.8125 69.390625 
Q 13.765625 71.78125 18.9375 73 
Q 24.125 74.21875 28.421875 74.21875 
Q 39.75 74.21875 46.484375 68.546875 
Q 53.21875 62.890625 53.21875 53.421875 
Q 53.21875 48.921875 51.53125 44.890625 
Q 49.859375 40.875 45.40625 35.40625 
Q 44.1875 33.984375 37.640625 27.21875 
Q 31.109375 20.453125 19.1875 8.296875 
z
" id="DejaVuSans-50"/>
       </defs>
       <use xlink:href="#DejaVuSans-50"/>
       <use x="63.623047" xlink:href="#DejaVuSans-48"/>
      </g>
     </g>
    </g>
    <g id="xtick_4">
     <g id="line2d_7">
      <path clip-path="url(#peb0c6a5da5)" d="M 361.377096 720.9 
L 361.377096 56.7 
" style="fill:none;stroke:#e6e6e6;stroke-linecap:square;stroke-width:0.8;"/>
     </g>
     <g id="line2d_8">
      <g>
       <use style="stroke:#000000;stroke-width:0.8;" x="361.377096" xlink:href="#m4f0d320078" y="720.9"/>
      </g>
     </g>
     <g id="text_4">
      <!-- 30 -->
      <g transform="translate(351.833346 739.297656)scale(0.15 -0.15)">
       <defs>
        <path d="M 40.578125 39.3125 
Q 47.65625 37.796875 51.625 33 
Q 55.609375 28.21875 55.609375 21.1875 
Q 55.609375 10.40625 48.1875 4.484375 
Q 40.765625 -1.421875 27.09375 -1.421875 
Q 22.515625 -1.421875 17.65625 -0.515625 
Q 12.796875 0.390625 7.625 2.203125 
L 7.625 11.71875 
Q 11.71875 9.328125 16.59375 8.109375 
Q 21.484375 6.890625 26.8125 6.890625 
Q 36.078125 6.890625 40.9375 10.546875 
Q 45.796875 14.203125 45.796875 21.1875 
Q 45.796875 27.640625 41.28125 31.265625 
Q 36.765625 34.90625 28.71875 34.90625 
L 20.21875 34.90625 
L 20.21875 43.015625 
L 29.109375 43.015625 
Q 36.375 43.015625 40.234375 45.921875 
Q 44.09375 48.828125 44.09375 54.296875 
Q 44.09375 59.90625 40.109375 62.90625 
Q 36.140625 65.921875 28.71875 65.921875 
Q 24.65625 65.921875 20.015625 65.03125 
Q 15.375 64.15625 9.8125 62.3125 
L 9.8125 71.09375 
Q 15.4375 72.65625 20.34375 73.4375 
Q 25.25 74.21875 29.59375 74.21875 
Q 40.828125 74.21875 47.359375 69.109375 
Q 53.90625 64.015625 53.90625 55.328125 
Q 53.90625 49.265625 50.4375 45.09375 
Q 46.96875 40.921875 40.578125 39.3125 
z
" id="DejaVuSans-51"/>
       </defs>
       <use xlink:href="#DejaVuSans-51"/>
       <use x="63.623047" xlink:href="#DejaVuSans-48"/>
      </g>
     </g>
    </g>
    <g id="xtick_5">
     <g id="line2d_9">
      <path clip-path="url(#peb0c6a5da5)" d="M 431.081936 720.9 
L 431.081936 56.7 
" style="fill:none;stroke:#e6e6e6;stroke-linecap:square;stroke-width:0.8;"/>
     </g>
     <g id="line2d_10">
      <g>
       <use style="stroke:#000000;stroke-width:0.8;" x="431.081936" xlink:href="#m4f0d320078" y="720.9"/>
      </g>
     </g>
     <g id="text_5">
      <!-- 40 -->
      <g transform="translate(421.538186 739.297656)scale(0.15 -0.15)">
       <defs>
        <path d="M 37.796875 64.3125 
L 12.890625 25.390625 
L 37.796875 25.390625 
z
M 35.203125 72.90625 
L 47.609375 72.90625 
L 47.609375 25.390625 
L 58.015625 25.390625 
L 58.015625 17.1875 
L 47.609375 17.1875 
L 47.609375 0 
L 37.796875 0 
L 37.796875 17.1875 
L 4.890625 17.1875 
L 4.890625 26.703125 
z
" id="DejaVuSans-52"/>
       </defs>
       <use xlink:href="#DejaVuSans-52"/>
       <use x="63.623047" xlink:href="#DejaVuSans-48"/>
      </g>
     </g>
    </g>
    <g id="xtick_6">
     <g id="line2d_11">
      <path clip-path="url(#peb0c6a5da5)" d="M 500.786777 720.9 
L 500.786777 56.7 
" style="fill:none;stroke:#e6e6e6;stroke-linecap:square;stroke-width:0.8;"/>
     </g>
     <g id="line2d_12">
      <g>
       <use style="stroke:#000000;stroke-width:0.8;" x="500.786777" xlink:href="#m4f0d320078" y="720.9"/>
      </g>
     </g>
     <g id="text_6">
      <!-- 50 -->
      <g transform="translate(491.243027 739.297656)scale(0.15 -0.15)">
       <defs>
        <path d="M 10.796875 72.90625 
L 49.515625 72.90625 
L 49.515625 64.59375 
L 19.828125 64.59375 
L 19.828125 46.734375 
Q 21.96875 47.46875 24.109375 47.828125 
Q 26.265625 48.1875 28.421875 48.1875 
Q 40.625 48.1875 47.75 41.5 
Q 54.890625 34.8125 54.890625 23.390625 
Q 54.890625 11.625 47.5625 5.09375 
Q 40.234375 -1.421875 26.90625 -1.421875 
Q 22.3125 -1.421875 17.546875 -0.640625 
Q 12.796875 0.140625 7.71875 1.703125 
L 7.71875 11.625 
Q 12.109375 9.234375 16.796875 8.0625 
Q 21.484375 6.890625 26.703125 6.890625 
Q 35.15625 6.890625 40.078125 11.328125 
Q 45.015625 15.765625 45.015625 23.390625 
Q 45.015625 31 40.078125 35.4375 
Q 35.15625 39.890625 26.703125 39.890625 
Q 22.75 39.890625 18.8125 39.015625 
Q 14.890625 38.140625 10.796875 36.28125 
z
" id="DejaVuSans-53"/>
       </defs>
       <use xlink:href="#DejaVuSans-53"/>
       <use x="63.623047" xlink:href="#DejaVuSans-48"/>
      </g>
     </g>
    </g>
    <g id="xtick_7">
     <g id="line2d_13">
      <path clip-path="url(#peb0c6a5da5)" d="M 570.491617 720.9 
L 570.491617 56.7 
" style="fill:none;stroke:#e6e6e6;stroke-linecap:square;stroke-width:0.8;"/>
     </g>
     <g id="line2d_14">
      <g>
       <use style="stroke:#000000;stroke-width:0.8;" x="570.491617" xlink:href="#m4f0d320078" y="720.9"/>
      </g>
     </g>
     <g id="text_7">
      <!-- 60 -->
      <g transform="translate(560.947867 739.297656)scale(0.15 -0.15)">
       <defs>
        <path d="M 33.015625 40.375 
Q 26.375 40.375 22.484375 35.828125 
Q 18.609375 31.296875 18.609375 23.390625 
Q 18.609375 15.53125 22.484375 10.953125 
Q 26.375 6.390625 33.015625 6.390625 
Q 39.65625 6.390625 43.53125 10.953125 
Q 47.40625 15.53125 47.40625 23.390625 
Q 47.40625 31.296875 43.53125 35.828125 
Q 39.65625 40.375 33.015625 40.375 
z
M 52.59375 71.296875 
L 52.59375 62.3125 
Q 48.875 64.0625 45.09375 64.984375 
Q 41.3125 65.921875 37.59375 65.921875 
Q 27.828125 65.921875 22.671875 59.328125 
Q 17.53125 52.734375 16.796875 39.40625 
Q 19.671875 43.65625 24.015625 45.921875 
Q 28.375 48.1875 33.59375 48.1875 
Q 44.578125 48.1875 50.953125 41.515625 
Q 57.328125 34.859375 57.328125 23.390625 
Q 57.328125 12.15625 50.6875 5.359375 
Q 44.046875 -1.421875 33.015625 -1.421875 
Q 20.359375 -1.421875 13.671875 8.265625 
Q 6.984375 17.96875 6.984375 36.375 
Q 6.984375 53.65625 15.1875 63.9375 
Q 23.390625 74.21875 37.203125 74.21875 
Q 40.921875 74.21875 44.703125 73.484375 
Q 48.484375 72.75 52.59375 71.296875 
z
" id="DejaVuSans-54"/>
       </defs>
       <use xlink:href="#DejaVuSans-54"/>
       <use x="63.623047" xlink:href="#DejaVuSans-48"/>
      </g>
     </g>
    </g>
    <g id="xtick_8">
     <g id="line2d_15">
      <path clip-path="url(#peb0c6a5da5)" d="M 640.196458 720.9 
L 640.196458 56.7 
" style="fill:none;stroke:#e6e6e6;stroke-linecap:square;stroke-width:0.8;"/>
     </g>
     <g id="line2d_16">
      <g>
       <use style="stroke:#000000;stroke-width:0.8;" x="640.196458" xlink:href="#m4f0d320078" y="720.9"/>
      </g>
     </g>
     <g id="text_8">
      <!-- 70 -->
      <g transform="translate(630.652708 739.297656)scale(0.15 -0.15)">
       <defs>
        <path d="M 8.203125 72.90625 
L 55.078125 72.90625 
L 55.078125 68.703125 
L 28.609375 0 
L 18.3125 0 
L 43.21875 64.59375 
L 8.203125 64.59375 
z
" id="DejaVuSans-55"/>
       </defs>
       <use xlink:href="#DejaVuSans-55"/>
       <use x="63.623047" xlink:href="#DejaVuSans-48"/>
      </g>
     </g>
    </g>
    <g id="text_9">
     <!-- frame -->
     <g transform="translate(366.133594 765.413281)scale(0.25 -0.25)">
      <defs>
       <path d="M 37.109375 75.984375 
L 37.109375 68.5 
L 28.515625 68.5 
Q 23.6875 68.5 21.796875 66.546875 
Q 19.921875 64.59375 19.921875 59.515625 
L 19.921875 54.6875 
L 34.71875 54.6875 
L 34.71875 47.703125 
L 19.921875 47.703125 
L 19.921875 0 
L 10.890625 0 
L 10.890625 47.703125 
L 2.296875 47.703125 
L 2.296875 54.6875 
L 10.890625 54.6875 
L 10.890625 58.5 
Q 10.890625 67.625 15.140625 71.796875 
Q 19.390625 75.984375 28.609375 75.984375 
z
" id="DejaVuSans-102"/>
       <path d="M 41.109375 46.296875 
Q 39.59375 47.171875 37.8125 47.578125 
Q 36.03125 48 33.890625 48 
Q 26.265625 48 22.1875 43.046875 
Q 18.109375 38.09375 18.109375 28.8125 
L 18.109375 0 
L 9.078125 0 
L 9.078125 54.6875 
L 18.109375 54.6875 
L 18.109375 46.1875 
Q 20.953125 51.171875 25.484375 53.578125 
Q 30.03125 56 36.53125 56 
Q 37.453125 56 38.578125 55.875 
Q 39.703125 55.765625 41.0625 55.515625 
z
" id="DejaVuSans-114"/>
       <path d="M 34.28125 27.484375 
Q 23.390625 27.484375 19.1875 25 
Q 14.984375 22.515625 14.984375 16.5 
Q 14.984375 11.71875 18.140625 8.90625 
Q 21.296875 6.109375 26.703125 6.109375 
Q 34.1875 6.109375 38.703125 11.40625 
Q 43.21875 16.703125 43.21875 25.484375 
L 43.21875 27.484375 
z
M 52.203125 31.203125 
L 52.203125 0 
L 43.21875 0 
L 43.21875 8.296875 
Q 40.140625 3.328125 35.546875 0.953125 
Q 30.953125 -1.421875 24.3125 -1.421875 
Q 15.921875 -1.421875 10.953125 3.296875 
Q 6 8.015625 6 15.921875 
Q 6 25.140625 12.171875 29.828125 
Q 18.359375 34.515625 30.609375 34.515625 
L 43.21875 34.515625 
L 43.21875 35.40625 
Q 43.21875 41.609375 39.140625 45 
Q 35.0625 48.390625 27.6875 48.390625 
Q 23 48.390625 18.546875 47.265625 
Q 14.109375 46.140625 10.015625 43.890625 
L 10.015625 52.203125 
Q 14.9375 54.109375 19.578125 55.046875 
Q 24.21875 56 28.609375 56 
Q 40.484375 56 46.34375 49.84375 
Q 52.203125 43.703125 52.203125 31.203125 
z
" id="DejaVuSans-97"/>
       <path d="M 52 44.1875 
Q 55.375 50.25 60.0625 53.125 
Q 64.75 56 71.09375 56 
Q 79.640625 56 84.28125 50.015625 
Q 88.921875 44.046875 88.921875 33.015625 
L 88.921875 0 
L 79.890625 0 
L 79.890625 32.71875 
Q 79.890625 40.578125 77.09375 44.375 
Q 74.3125 48.1875 68.609375 48.1875 
Q 61.625 48.1875 57.5625 43.546875 
Q 53.515625 38.921875 53.515625 30.90625 
L 53.515625 0 
L 44.484375 0 
L 44.484375 32.71875 
Q 44.484375 40.625 41.703125 44.40625 
Q 38.921875 48.1875 33.109375 48.1875 
Q 26.21875 48.1875 22.15625 43.53125 
Q 18.109375 38.875 18.109375 30.90625 
L 18.109375 0 
L 9.078125 0 
L 9.078125 54.6875 
L 18.109375 54.6875 
L 18.109375 46.1875 
Q 21.1875 51.21875 25.484375 53.609375 
Q 29.78125 56 35.6875 56 
Q 41.65625 56 45.828125 52.96875 
Q 50 49.953125 52 44.1875 
z
" id="DejaVuSans-109"/>
       <path d="M 56.203125 29.59375 
L 56.203125 25.203125 
L 14.890625 25.203125 
Q 15.484375 15.921875 20.484375 11.0625 
Q 25.484375 6.203125 34.421875 6.203125 
Q 39.59375 6.203125 44.453125 7.46875 
Q 49.3125 8.734375 54.109375 11.28125 
L 54.109375 2.78125 
Q 49.265625 0.734375 44.1875 -0.34375 
Q 39.109375 -1.421875 33.890625 -1.421875 
Q 20.796875 -1.421875 13.15625 6.1875 
Q 5.515625 13.8125 5.515625 26.8125 
Q 5.515625 40.234375 12.765625 48.109375 
Q 20.015625 56 32.328125 56 
Q 43.359375 56 49.78125 48.890625 
Q 56.203125 41.796875 56.203125 29.59375 
z
M 47.21875 32.234375 
Q 47.125 39.59375 43.09375 43.984375 
Q 39.0625 48.390625 32.421875 48.390625 
Q 24.90625 48.390625 20.390625 44.140625 
Q 15.875 39.890625 15.1875 32.171875 
z
" id="DejaVuSans-101"/>
      </defs>
      <use xlink:href="#DejaVuSans-102"/>
      <use x="35.205078" xlink:href="#DejaVuSans-114"/>
      <use x="76.318359" xlink:href="#DejaVuSans-97"/>
      <use x="137.597656" xlink:href="#DejaVuSans-109"/>
      <use x="235.009766" xlink:href="#DejaVuSans-101"/>
     </g>
    </g>
   </g>
   <g id="matplotlib.axis_2">
    <g id="ytick_1">
     <g id="line2d_17">
      <path clip-path="url(#peb0c6a5da5)" d="M 108 663.268719 
L 698.4 663.268719 
" style="fill:none;stroke:#e6e6e6;stroke-linecap:square;stroke-width:0.8;"/>
     </g>
     <g id="line2d_18">
      <defs>
       <path d="M 0 0 
L -3.5 0 
" id="m244ecdd817" style="stroke:#000000;stroke-width:0.8;"/>
      </defs>
      <g>
       <use style="stroke:#000000;stroke-width:0.8;" x="108" xlink:href="#m244ecdd817" y="663.268719"/>
      </g>
     </g>
     <g id="text_10">
      <!-- 0.0 -->
      <g transform="translate(77.145313 668.967547)scale(0.15 -0.15)">
       <defs>
        <path d="M 10.6875 12.40625 
L 21 12.40625 
L 21 0 
L 10.6875 0 
z
" id="DejaVuSans-46"/>
       </defs>
       <use xlink:href="#DejaVuSans-48"/>
       <use x="63.623047" xlink:href="#DejaVuSans-46"/>
       <use x="95.410156" xlink:href="#DejaVuSans-48"/>
      </g>
     </g>
    </g>
    <g id="ytick_2">
     <g id="line2d_19">
      <path clip-path="url(#peb0c6a5da5)" d="M 108 560.564789 
L 698.4 560.564789 
" style="fill:none;stroke:#e6e6e6;stroke-linecap:square;stroke-width:0.8;"/>
     </g>
     <g id="line2d_20">
      <g>
       <use style="stroke:#000000;stroke-width:0.8;" x="108" xlink:href="#m244ecdd817" y="560.564789"/>
      </g>
     </g>
     <g id="text_11">
      <!-- 0.1 -->
      <g transform="translate(77.145313 566.263617)scale(0.15 -0.15)">
       <use xlink:href="#DejaVuSans-48"/>
       <use x="63.623047" xlink:href="#DejaVuSans-46"/>
       <use x="95.410156" xlink:href="#DejaVuSans-49"/>
      </g>
     </g>
    </g>
    <g id="ytick_3">
     <g id="line2d_21">
      <path clip-path="url(#peb0c6a5da5)" d="M 108 457.86086 
L 698.4 457.86086 
" style="fill:none;stroke:#e6e6e6;stroke-linecap:square;stroke-width:0.8;"/>
     </g>
     <g id="line2d_22">
      <g>
       <use style="stroke:#000000;stroke-width:0.8;" x="108" xlink:href="#m244ecdd817" y="457.86086"/>
      </g>
     </g>
     <g id="text_12">
      <!-- 0.2 -->
      <g transform="translate(77.145313 463.559688)scale(0.15 -0.15)">
       <use xlink:href="#DejaVuSans-48"/>
       <use x="63.623047" xlink:href="#DejaVuSans-46"/>
       <use x="95.410156" xlink:href="#DejaVuSans-50"/>
      </g>
     </g>
    </g>
    <g id="ytick_4">
     <g id="line2d_23">
      <path clip-path="url(#peb0c6a5da5)" d="M 108 355.15693 
L 698.4 355.15693 
" style="fill:none;stroke:#e6e6e6;stroke-linecap:square;stroke-width:0.8;"/>
     </g>
     <g id="line2d_24">
      <g>
       <use style="stroke:#000000;stroke-width:0.8;" x="108" xlink:href="#m244ecdd817" y="355.15693"/>
      </g>
     </g>
     <g id="text_13">
      <!-- 0.3 -->
      <g transform="translate(77.145313 360.855758)scale(0.15 -0.15)">
       <use xlink:href="#DejaVuSans-48"/>
       <use x="63.623047" xlink:href="#DejaVuSans-46"/>
       <use x="95.410156" xlink:href="#DejaVuSans-51"/>
      </g>
     </g>
    </g>
    <g id="ytick_5">
     <g id="line2d_25">
      <path clip-path="url(#peb0c6a5da5)" d="M 108 252.453 
L 698.4 252.453 
" style="fill:none;stroke:#e6e6e6;stroke-linecap:square;stroke-width:0.8;"/>
     </g>
     <g id="line2d_26">
      <g>
       <use style="stroke:#000000;stroke-width:0.8;" x="108" xlink:href="#m244ecdd817" y="252.453"/>
      </g>
     </g>
     <g id="text_14">
      <!-- 0.4 -->
      <g transform="translate(77.145313 258.151829)scale(0.15 -0.15)">
       <use xlink:href="#DejaVuSans-48"/>
       <use x="63.623047" xlink:href="#DejaVuSans-46"/>
       <use x="95.410156" xlink:href="#DejaVuSans-52"/>
      </g>
     </g>
    </g>
    <g id="ytick_6">
     <g id="line2d_27">
      <path clip-path="url(#peb0c6a5da5)" d="M 108 149.749071 
L 698.4 149.749071 
" style="fill:none;stroke:#e6e6e6;stroke-linecap:square;stroke-width:0.8;"/>
     </g>
     <g id="line2d_28">
      <g>
       <use style="stroke:#000000;stroke-width:0.8;" x="108" xlink:href="#m244ecdd817" y="149.749071"/>
      </g>
     </g>
     <g id="text_15">
      <!-- 0.5 -->
      <g transform="translate(77.145313 155.447899)scale(0.15 -0.15)">
       <use xlink:href="#DejaVuSans-48"/>
       <use x="63.623047" xlink:href="#DejaVuSans-46"/>
       <use x="95.410156" xlink:href="#DejaVuSans-53"/>
      </g>
     </g>
    </g>
    <g id="text_16">
     <!-- $I$ -->
     <g transform="translate(67.946094 392.55)rotate(-90)scale(0.25 -0.25)">
      <defs>
       <path d="M 16.890625 72.90625 
L 26.8125 72.90625 
L 12.59375 0 
L 2.6875 0 
z
" id="DejaVuSans-Oblique-73"/>
      </defs>
      <use transform="translate(0 0.09375)" xlink:href="#DejaVuSans-Oblique-73"/>
     </g>
    </g>
   </g>
   <g id="line2d_29">
    <path clip-path="url(#peb0c6a5da5)" d="M 159.233058 662.864362 
L 166.203542 662.78054 
L 173.174026 662.678175 
L 180.14451 662.564528 
L 187.114994 662.441524 
L 194.085478 662.279464 
L 201.055962 661.71976 
L 208.026446 660.907127 
L 214.99693 659.69663 
L 221.967414 658.189861 
L 228.937898 656.508184 
L 235.908383 655.284324 
L 242.878867 654.121349 
L 249.849351 653.080518 
L 256.819835 651.930831 
L 263.790319 650.607398 
L 270.760803 649.747797 
L 277.731287 648.531711 
L 284.701771 647.176932 
L 291.672255 645.67404 
L 298.642739 644.301877 
L 305.613223 641.175711 
L 312.583707 637.382366 
L 319.554191 633.282501 
L 326.524675 628.50738 
L 333.495159 623.400262 
L 340.465643 618.996844 
L 347.436128 614.514564 
L 354.406612 609.925538 
L 361.377096 605.106652 
L 368.34758 600.666312 
L 375.318064 599.655124 
L 382.288548 599.425641 
L 389.259032 600.497652 
L 396.229516 601.587667 
L 403.2 601.521159 
L 410.170484 598.341007 
L 417.140968 595.309097 
L 424.111452 594.517389 
L 431.081936 594.80447 
L 438.05242 596.481417 
L 445.022904 597.54357 
L 451.993388 599.168364 
L 458.963872 602.435338 
L 465.934357 607.19858 
L 472.904841 612.719537 
L 479.875325 614.704215 
L 486.845809 616.990665 
L 493.816293 619.431243 
L 500.786777 621.716831 
L 507.757261 623.981269 
L 514.727745 628.514501 
L 521.698229 633.002066 
L 528.668713 638.116984 
L 535.639197 642.559764 
L 542.609681 645.821328 
L 549.580165 649.086032 
L 556.550649 651.676877 
L 563.521133 654.405496 
L 570.491617 657.152602 
L 577.462102 659.325292 
L 584.432586 660.432964 
L 591.40307 661.320787 
L 598.373554 662.051592 
L 605.344038 662.59126 
L 612.314522 662.96712 
L 619.285006 663.164287 
L 626.25549 663.254878 
L 633.225974 663.26281 
L 640.196458 663.202022 
L 647.166942 663.108875 
" style="fill:none;stroke:#f98e52;stroke-linecap:square;stroke-width:2;"/>
    <defs>
     <path d="M 0 2.5 
C 0.663008 2.5 1.29895 2.236584 1.767767 1.767767 
C 2.236584 1.29895 2.5 0.663008 2.5 0 
C 2.5 -0.663008 2.236584 -1.29895 1.767767 -1.767767 
C 1.29895 -2.236584 0.663008 -2.5 0 -2.5 
C -0.663008 -2.5 -1.29895 -2.236584 -1.767767 -1.767767 
C -2.236584 -1.29895 -2.5 -0.663008 -2.5 0 
C -2.5 0.663008 -2.236584 1.29895 -1.767767 1.767767 
C -1.29895 2.236584 -0.663008 2.5 0 2.5 
z
" id="m9c9a79678c" style="stroke:#f98e52;"/>
    </defs>
    <g clip-path="url(#peb0c6a5da5)">
     <use style="fill:#f98e52;stroke:#f98e52;" x="159.233058" xlink:href="#m9c9a79678c" y="662.864362"/>
     <use style="fill:#f98e52;stroke:#f98e52;" x="166.203542" xlink:href="#m9c9a79678c" y="662.78054"/>
     <use style="fill:#f98e52;stroke:#f98e52;" x="173.174026" xlink:href="#m9c9a79678c" y="662.678175"/>
     <use style="fill:#f98e52;stroke:#f98e52;" x="180.14451" xlink:href="#m9c9a79678c" y="662.564528"/>
     <use style="fill:#f98e52;stroke:#f98e52;" x="187.114994" xlink:href="#m9c9a79678c" y="662.441524"/>
     <use style="fill:#f98e52;stroke:#f98e52;" x="194.085478" xlink:href="#m9c9a79678c" y="662.279464"/>
     <use style="fill:#f98e52;stroke:#f98e52;" x="201.055962" xlink:href="#m9c9a79678c" y="661.71976"/>
     <use style="fill:#f98e52;stroke:#f98e52;" x="208.026446" xlink:href="#m9c9a79678c" y="660.907127"/>
     <use style="fill:#f98e52;stroke:#f98e52;" x="214.99693" xlink:href="#m9c9a79678c" y="659.69663"/>
     <use style="fill:#f98e52;stroke:#f98e52;" x="221.967414" xlink:href="#m9c9a79678c" y="658.189861"/>
     <use style="fill:#f98e52;stroke:#f98e52;" x="228.937898" xlink:href="#m9c9a79678c" y="656.508184"/>
     <use style="fill:#f98e52;stroke:#f98e52;" x="235.908383" xlink:href="#m9c9a79678c" y="655.284324"/>
     <use style="fill:#f98e52;stroke:#f98e52;" x="242.878867" xlink:href="#m9c9a79678c" y="654.121349"/>
     <use style="fill:#f98e52;stroke:#f98e52;" x="249.849351" xlink:href="#m9c9a79678c" y="653.080518"/>
     <use style="fill:#f98e52;stroke:#f98e52;" x="256.819835" xlink:href="#m9c9a79678c" y="651.930831"/>
     <use style="fill:#f98e52;stroke:#f98e52;" x="263.790319" xlink:href="#m9c9a79678c" y="650.607398"/>
     <use style="fill:#f98e52;stroke:#f98e52;" x="270.760803" xlink:href="#m9c9a79678c" y="649.747797"/>
     <use style="fill:#f98e52;stroke:#f98e52;" x="277.731287" xlink:href="#m9c9a79678c" y="648.531711"/>
     <use style="fill:#f98e52;stroke:#f98e52;" x="284.701771" xlink:href="#m9c9a79678c" y="647.176932"/>
     <use style="fill:#f98e52;stroke:#f98e52;" x="291.672255" xlink:href="#m9c9a79678c" y="645.67404"/>
     <use style="fill:#f98e52;stroke:#f98e52;" x="298.642739" xlink:href="#m9c9a79678c" y="644.301877"/>
     <use style="fill:#f98e52;stroke:#f98e52;" x="305.613223" xlink:href="#m9c9a79678c" y="641.175711"/>
     <use style="fill:#f98e52;stroke:#f98e52;" x="312.583707" xlink:href="#m9c9a79678c" y="637.382366"/>
     <use style="fill:#f98e52;stroke:#f98e52;" x="319.554191" xlink:href="#m9c9a79678c" y="633.282501"/>
     <use style="fill:#f98e52;stroke:#f98e52;" x="326.524675" xlink:href="#m9c9a79678c" y="628.50738"/>
     <use style="fill:#f98e52;stroke:#f98e52;" x="333.495159" xlink:href="#m9c9a79678c" y="623.400262"/>
     <use style="fill:#f98e52;stroke:#f98e52;" x="340.465643" xlink:href="#m9c9a79678c" y="618.996844"/>
     <use style="fill:#f98e52;stroke:#f98e52;" x="347.436128" xlink:href="#m9c9a79678c" y="614.514564"/>
     <use style="fill:#f98e52;stroke:#f98e52;" x="354.406612" xlink:href="#m9c9a79678c" y="609.925538"/>
     <use style="fill:#f98e52;stroke:#f98e52;" x="361.377096" xlink:href="#m9c9a79678c" y="605.106652"/>
     <use style="fill:#f98e52;stroke:#f98e52;" x="368.34758" xlink:href="#m9c9a79678c" y="600.666312"/>
     <use style="fill:#f98e52;stroke:#f98e52;" x="375.318064" xlink:href="#m9c9a79678c" y="599.655124"/>
     <use style="fill:#f98e52;stroke:#f98e52;" x="382.288548" xlink:href="#m9c9a79678c" y="599.425641"/>
     <use style="fill:#f98e52;stroke:#f98e52;" x="389.259032" xlink:href="#m9c9a79678c" y="600.497652"/>
     <use style="fill:#f98e52;stroke:#f98e52;" x="396.229516" xlink:href="#m9c9a79678c" y="601.587667"/>
     <use style="fill:#f98e52;stroke:#f98e52;" x="403.2" xlink:href="#m9c9a79678c" y="601.521159"/>
     <use style="fill:#f98e52;stroke:#f98e52;" x="410.170484" xlink:href="#m9c9a79678c" y="598.341007"/>
     <use style="fill:#f98e52;stroke:#f98e52;" x="417.140968" xlink:href="#m9c9a79678c" y="595.309097"/>
     <use style="fill:#f98e52;stroke:#f98e52;" x="424.111452" xlink:href="#m9c9a79678c" y="594.517389"/>
     <use style="fill:#f98e52;stroke:#f98e52;" x="431.081936" xlink:href="#m9c9a79678c" y="594.80447"/>
     <use style="fill:#f98e52;stroke:#f98e52;" x="438.05242" xlink:href="#m9c9a79678c" y="596.481417"/>
     <use style="fill:#f98e52;stroke:#f98e52;" x="445.022904" xlink:href="#m9c9a79678c" y="597.54357"/>
     <use style="fill:#f98e52;stroke:#f98e52;" x="451.993388" xlink:href="#m9c9a79678c" y="599.168364"/>
     <use style="fill:#f98e52;stroke:#f98e52;" x="458.963872" xlink:href="#m9c9a79678c" y="602.435338"/>
     <use style="fill:#f98e52;stroke:#f98e52;" x="465.934357" xlink:href="#m9c9a79678c" y="607.19858"/>
     <use style="fill:#f98e52;stroke:#f98e52;" x="472.904841" xlink:href="#m9c9a79678c" y="612.719537"/>
     <use style="fill:#f98e52;stroke:#f98e52;" x="479.875325" xlink:href="#m9c9a79678c" y="614.704215"/>
     <use style="fill:#f98e52;stroke:#f98e52;" x="486.845809" xlink:href="#m9c9a79678c" y="616.990665"/>
     <use style="fill:#f98e52;stroke:#f98e52;" x="493.816293" xlink:href="#m9c9a79678c" y="619.431243"/>
     <use style="fill:#f98e52;stroke:#f98e52;" x="500.786777" xlink:href="#m9c9a79678c" y="621.716831"/>
     <use style="fill:#f98e52;stroke:#f98e52;" x="507.757261" xlink:href="#m9c9a79678c" y="623.981269"/>
     <use style="fill:#f98e52;stroke:#f98e52;" x="514.727745" xlink:href="#m9c9a79678c" y="628.514501"/>
     <use style="fill:#f98e52;stroke:#f98e52;" x="521.698229" xlink:href="#m9c9a79678c" y="633.002066"/>
     <use style="fill:#f98e52;stroke:#f98e52;" x="528.668713" xlink:href="#m9c9a79678c" y="638.116984"/>
     <use style="fill:#f98e52;stroke:#f98e52;" x="535.639197" xlink:href="#m9c9a79678c" y="642.559764"/>
     <use style="fill:#f98e52;stroke:#f98e52;" x="542.609681" xlink:href="#m9c9a79678c" y="645.821328"/>
     <use style="fill:#f98e52;stroke:#f98e52;" x="549.580165" xlink:href="#m9c9a79678c" y="649.086032"/>
     <use style="fill:#f98e52;stroke:#f98e52;" x="556.550649" xlink:href="#m9c9a79678c" y="651.676877"/>
     <use style="fill:#f98e52;stroke:#f98e52;" x="563.521133" xlink:href="#m9c9a79678c" y="654.405496"/>
     <use style="fill:#f98e52;stroke:#f98e52;" x="570.491617" xlink:href="#m9c9a79678c" y="657.152602"/>
     <use style="fill:#f98e52;stroke:#f98e52;" x="577.462102" xlink:href="#m9c9a79678c" y="659.325292"/>
     <use style="fill:#f98e52;stroke:#f98e52;" x="584.432586" xlink:href="#m9c9a79678c" y="660.432964"/>
     <use style="fill:#f98e52;stroke:#f98e52;" x="591.40307" xlink:href="#m9c9a79678c" y="661.320787"/>
     <use style="fill:#f98e52;stroke:#f98e52;" x="598.373554" xlink:href="#m9c9a79678c" y="662.051592"/>
     <use style="fill:#f98e52;stroke:#f98e52;" x="605.344038" xlink:href="#m9c9a79678c" y="662.59126"/>
     <use style="fill:#f98e52;stroke:#f98e52;" x="612.314522" xlink:href="#m9c9a79678c" y="662.96712"/>
     <use style="fill:#f98e52;stroke:#f98e52;" x="619.285006" xlink:href="#m9c9a79678c" y="663.164287"/>
     <use style="fill:#f98e52;stroke:#f98e52;" x="626.25549" xlink:href="#m9c9a79678c" y="663.254878"/>
     <use style="fill:#f98e52;stroke:#f98e52;" x="633.225974" xlink:href="#m9c9a79678c" y="663.26281"/>
     <use style="fill:#f98e52;stroke:#f98e52;" x="640.196458" xlink:href="#m9c9a79678c" y="663.202022"/>
     <use style="fill:#f98e52;stroke:#f98e52;" x="647.166942" xlink:href="#m9c9a79678c" y="663.108875"/>
    </g>
   </g>
   <g id="line2d_30">
    <path clip-path="url(#peb0c6a5da5)" d="M 159.233058 662.445406 
L 166.203542 662.557141 
L 173.174026 662.453103 
L 180.14451 662.007778 
L 187.114994 661.29071 
L 194.085478 660.496454 
L 201.055962 658.862091 
L 208.026446 657.333441 
L 214.99693 655.928187 
L 221.967414 655.131002 
L 228.937898 653.402226 
L 235.908383 651.615428 
L 242.878867 650.332143 
L 249.849351 651.510466 
L 256.819835 653.25539 
L 263.790319 653.859482 
L 270.760803 653.10528 
L 277.731287 652.318621 
L 284.701771 651.708762 
L 291.672255 652.523482 
L 298.642739 655.505972 
L 305.613223 659.848218 
L 312.583707 662.062202 
L 319.554191 662.817109 
L 326.524675 661.598224 
L 333.495159 657.060141 
L 340.465643 647.556636 
L 347.436128 631.926589 
L 354.406612 612.954104 
L 361.377096 591.904505 
L 368.34758 572.285276 
L 375.318064 566.993826 
L 382.288548 564.73516 
L 389.259032 552.091343 
L 396.229516 531.597004 
L 403.2 511.526092 
L 410.170484 473.261102 
L 417.140968 434.76687 
L 424.111452 431.450359 
L 431.081936 456.562433 
L 438.05242 499.180254 
L 445.022904 530.889982 
L 451.993388 556.067216 
L 458.963872 582.108452 
L 465.934357 606.425749 
L 472.904841 636.708969 
L 479.875325 643.122532 
L 486.845809 649.03004 
L 493.816293 653.595539 
L 500.786777 657.198688 
L 507.757261 659.888078 
L 514.727745 661.868216 
L 521.698229 661.48852 
L 528.668713 659.627498 
L 535.639197 653.382144 
L 542.609681 646.174032 
L 549.580165 644.275052 
L 556.550649 647.502679 
L 563.521133 651.530428 
L 570.491617 653.637954 
L 577.462102 654.258591 
L 584.432586 655.502331 
L 591.40307 657.745538 
L 598.373554 660.317018 
L 605.344038 662.177203 
L 612.314522 663.097837 
L 619.285006 663.109398 
L 626.25549 662.855772 
L 633.225974 662.392494 
L 640.196458 661.79418 
L 647.166942 661.39129 
" style="fill:none;stroke:#ffffbe;stroke-linecap:square;stroke-width:2;"/>
    <defs>
     <path d="M 0 2.5 
C 0.663008 2.5 1.29895 2.236584 1.767767 1.767767 
C 2.236584 1.29895 2.5 0.663008 2.5 0 
C 2.5 -0.663008 2.236584 -1.29895 1.767767 -1.767767 
C 1.29895 -2.236584 0.663008 -2.5 0 -2.5 
C -0.663008 -2.5 -1.29895 -2.236584 -1.767767 -1.767767 
C -2.236584 -1.29895 -2.5 -0.663008 -2.5 0 
C -2.5 0.663008 -2.236584 1.29895 -1.767767 1.767767 
C -1.29895 2.236584 -0.663008 2.5 0 2.5 
z
" id="m3f4236f94f" style="stroke:#ffffbe;"/>
    </defs>
    <g clip-path="url(#peb0c6a5da5)">
     <use style="fill:#ffffbe;stroke:#ffffbe;" x="159.233058" xlink:href="#m3f4236f94f" y="662.445406"/>
     <use style="fill:#ffffbe;stroke:#ffffbe;" x="166.203542" xlink:href="#m3f4236f94f" y="662.557141"/>
     <use style="fill:#ffffbe;stroke:#ffffbe;" x="173.174026" xlink:href="#m3f4236f94f" y="662.453103"/>
     <use style="fill:#ffffbe;stroke:#ffffbe;" x="180.14451" xlink:href="#m3f4236f94f" y="662.007778"/>
     <use style="fill:#ffffbe;stroke:#ffffbe;" x="187.114994" xlink:href="#m3f4236f94f" y="661.29071"/>
     <use style="fill:#ffffbe;stroke:#ffffbe;" x="194.085478" xlink:href="#m3f4236f94f" y="660.496454"/>
     <use style="fill:#ffffbe;stroke:#ffffbe;" x="201.055962" xlink:href="#m3f4236f94f" y="658.862091"/>
     <use style="fill:#ffffbe;stroke:#ffffbe;" x="208.026446" xlink:href="#m3f4236f94f" y="657.333441"/>
     <use style="fill:#ffffbe;stroke:#ffffbe;" x="214.99693" xlink:href="#m3f4236f94f" y="655.928187"/>
     <use style="fill:#ffffbe;stroke:#ffffbe;" x="221.967414" xlink:href="#m3f4236f94f" y="655.131002"/>
     <use style="fill:#ffffbe;stroke:#ffffbe;" x="228.937898" xlink:href="#m3f4236f94f" y="653.402226"/>
     <use style="fill:#ffffbe;stroke:#ffffbe;" x="235.908383" xlink:href="#m3f4236f94f" y="651.615428"/>
     <use style="fill:#ffffbe;stroke:#ffffbe;" x="242.878867" xlink:href="#m3f4236f94f" y="650.332143"/>
     <use style="fill:#ffffbe;stroke:#ffffbe;" x="249.849351" xlink:href="#m3f4236f94f" y="651.510466"/>
     <use style="fill:#ffffbe;stroke:#ffffbe;" x="256.819835" xlink:href="#m3f4236f94f" y="653.25539"/>
     <use style="fill:#ffffbe;stroke:#ffffbe;" x="263.790319" xlink:href="#m3f4236f94f" y="653.859482"/>
     <use style="fill:#ffffbe;stroke:#ffffbe;" x="270.760803" xlink:href="#m3f4236f94f" y="653.10528"/>
     <use style="fill:#ffffbe;stroke:#ffffbe;" x="277.731287" xlink:href="#m3f4236f94f" y="652.318621"/>
     <use style="fill:#ffffbe;stroke:#ffffbe;" x="284.701771" xlink:href="#m3f4236f94f" y="651.708762"/>
     <use style="fill:#ffffbe;stroke:#ffffbe;" x="291.672255" xlink:href="#m3f4236f94f" y="652.523482"/>
     <use style="fill:#ffffbe;stroke:#ffffbe;" x="298.642739" xlink:href="#m3f4236f94f" y="655.505972"/>
     <use style="fill:#ffffbe;stroke:#ffffbe;" x="305.613223" xlink:href="#m3f4236f94f" y="659.848218"/>
     <use style="fill:#ffffbe;stroke:#ffffbe;" x="312.583707" xlink:href="#m3f4236f94f" y="662.062202"/>
     <use style="fill:#ffffbe;stroke:#ffffbe;" x="319.554191" xlink:href="#m3f4236f94f" y="662.817109"/>
     <use style="fill:#ffffbe;stroke:#ffffbe;" x="326.524675" xlink:href="#m3f4236f94f" y="661.598224"/>
     <use style="fill:#ffffbe;stroke:#ffffbe;" x="333.495159" xlink:href="#m3f4236f94f" y="657.060141"/>
     <use style="fill:#ffffbe;stroke:#ffffbe;" x="340.465643" xlink:href="#m3f4236f94f" y="647.556636"/>
     <use style="fill:#ffffbe;stroke:#ffffbe;" x="347.436128" xlink:href="#m3f4236f94f" y="631.926589"/>
     <use style="fill:#ffffbe;stroke:#ffffbe;" x="354.406612" xlink:href="#m3f4236f94f" y="612.954104"/>
     <use style="fill:#ffffbe;stroke:#ffffbe;" x="361.377096" xlink:href="#m3f4236f94f" y="591.904505"/>
     <use style="fill:#ffffbe;stroke:#ffffbe;" x="368.34758" xlink:href="#m3f4236f94f" y="572.285276"/>
     <use style="fill:#ffffbe;stroke:#ffffbe;" x="375.318064" xlink:href="#m3f4236f94f" y="566.993826"/>
     <use style="fill:#ffffbe;stroke:#ffffbe;" x="382.288548" xlink:href="#m3f4236f94f" y="564.73516"/>
     <use style="fill:#ffffbe;stroke:#ffffbe;" x="389.259032" xlink:href="#m3f4236f94f" y="552.091343"/>
     <use style="fill:#ffffbe;stroke:#ffffbe;" x="396.229516" xlink:href="#m3f4236f94f" y="531.597004"/>
     <use style="fill:#ffffbe;stroke:#ffffbe;" x="403.2" xlink:href="#m3f4236f94f" y="511.526092"/>
     <use style="fill:#ffffbe;stroke:#ffffbe;" x="410.170484" xlink:href="#m3f4236f94f" y="473.261102"/>
     <use style="fill:#ffffbe;stroke:#ffffbe;" x="417.140968" xlink:href="#m3f4236f94f" y="434.76687"/>
     <use style="fill:#ffffbe;stroke:#ffffbe;" x="424.111452" xlink:href="#m3f4236f94f" y="431.450359"/>
     <use style="fill:#ffffbe;stroke:#ffffbe;" x="431.081936" xlink:href="#m3f4236f94f" y="456.562433"/>
     <use style="fill:#ffffbe;stroke:#ffffbe;" x="438.05242" xlink:href="#m3f4236f94f" y="499.180254"/>
     <use style="fill:#ffffbe;stroke:#ffffbe;" x="445.022904" xlink:href="#m3f4236f94f" y="530.889982"/>
     <use style="fill:#ffffbe;stroke:#ffffbe;" x="451.993388" xlink:href="#m3f4236f94f" y="556.067216"/>
     <use style="fill:#ffffbe;stroke:#ffffbe;" x="458.963872" xlink:href="#m3f4236f94f" y="582.108452"/>
     <use style="fill:#ffffbe;stroke:#ffffbe;" x="465.934357" xlink:href="#m3f4236f94f" y="606.425749"/>
     <use style="fill:#ffffbe;stroke:#ffffbe;" x="472.904841" xlink:href="#m3f4236f94f" y="636.708969"/>
     <use style="fill:#ffffbe;stroke:#ffffbe;" x="479.875325" xlink:href="#m3f4236f94f" y="643.122532"/>
     <use style="fill:#ffffbe;stroke:#ffffbe;" x="486.845809" xlink:href="#m3f4236f94f" y="649.03004"/>
     <use style="fill:#ffffbe;stroke:#ffffbe;" x="493.816293" xlink:href="#m3f4236f94f" y="653.595539"/>
     <use style="fill:#ffffbe;stroke:#ffffbe;" x="500.786777" xlink:href="#m3f4236f94f" y="657.198688"/>
     <use style="fill:#ffffbe;stroke:#ffffbe;" x="507.757261" xlink:href="#m3f4236f94f" y="659.888078"/>
     <use style="fill:#ffffbe;stroke:#ffffbe;" x="514.727745" xlink:href="#m3f4236f94f" y="661.868216"/>
     <use style="fill:#ffffbe;stroke:#ffffbe;" x="521.698229" xlink:href="#m3f4236f94f" y="661.48852"/>
     <use style="fill:#ffffbe;stroke:#ffffbe;" x="528.668713" xlink:href="#m3f4236f94f" y="659.627498"/>
     <use style="fill:#ffffbe;stroke:#ffffbe;" x="535.639197" xlink:href="#m3f4236f94f" y="653.382144"/>
     <use style="fill:#ffffbe;stroke:#ffffbe;" x="542.609681" xlink:href="#m3f4236f94f" y="646.174032"/>
     <use style="fill:#ffffbe;stroke:#ffffbe;" x="549.580165" xlink:href="#m3f4236f94f" y="644.275052"/>
     <use style="fill:#ffffbe;stroke:#ffffbe;" x="556.550649" xlink:href="#m3f4236f94f" y="647.502679"/>
     <use style="fill:#ffffbe;stroke:#ffffbe;" x="563.521133" xlink:href="#m3f4236f94f" y="651.530428"/>
     <use style="fill:#ffffbe;stroke:#ffffbe;" x="570.491617" xlink:href="#m3f4236f94f" y="653.637954"/>
     <use style="fill:#ffffbe;stroke:#ffffbe;" x="577.462102" xlink:href="#m3f4236f94f" y="654.258591"/>
     <use style="fill:#ffffbe;stroke:#ffffbe;" x="584.432586" xlink:href="#m3f4236f94f" y="655.502331"/>
     <use style="fill:#ffffbe;stroke:#ffffbe;" x="591.40307" xlink:href="#m3f4236f94f" y="657.745538"/>
     <use style="fill:#ffffbe;stroke:#ffffbe;" x="598.373554" xlink:href="#m3f4236f94f" y="660.317018"/>
     <use style="fill:#ffffbe;stroke:#ffffbe;" x="605.344038" xlink:href="#m3f4236f94f" y="662.177203"/>
     <use style="fill:#ffffbe;stroke:#ffffbe;" x="612.314522" xlink:href="#m3f4236f94f" y="663.097837"/>
     <use style="fill:#ffffbe;stroke:#ffffbe;" x="619.285006" xlink:href="#m3f4236f94f" y="663.109398"/>
     <use style="fill:#ffffbe;stroke:#ffffbe;" x="626.25549" xlink:href="#m3f4236f94f" y="662.855772"/>
     <use style="fill:#ffffbe;stroke:#ffffbe;" x="633.225974" xlink:href="#m3f4236f94f" y="662.392494"/>
     <use style="fill:#ffffbe;stroke:#ffffbe;" x="640.196458" xlink:href="#m3f4236f94f" y="661.79418"/>
     <use style="fill:#ffffbe;stroke:#ffffbe;" x="647.166942" xlink:href="#m3f4236f94f" y="661.39129"/>
    </g>
   </g>
   <g id="line2d_31">
    <path clip-path="url(#peb0c6a5da5)" d="M 159.233058 661.758613 
L 166.203542 662.031321 
L 173.174026 661.783328 
L 180.14451 661.259449 
L 187.114994 660.448787 
L 194.085478 659.767349 
L 201.055962 657.481071 
L 208.026446 653.977772 
L 214.99693 655.47332 
L 221.967414 656.926465 
L 228.937898 658.932282 
L 235.908383 659.200484 
L 242.878867 659.177319 
L 249.849351 660.551317 
L 256.819835 661.848809 
L 263.790319 662.370845 
L 270.760803 662.816256 
L 277.731287 663.00579 
L 284.701771 661.090001 
L 291.672255 658.121392 
L 298.642739 654.93011 
L 305.613223 647.609773 
L 312.583707 644.724023 
L 319.554191 645.549562 
L 326.524675 644.533049 
L 333.495159 647.727844 
L 340.465643 650.952356 
L 347.436128 659.165792 
L 354.406612 657.469068 
L 361.377096 652.633549 
L 368.34758 653.378889 
L 375.318064 651.309883 
L 382.288548 636.504701 
L 389.259032 592.699179 
L 396.229516 553.593929 
L 403.2 522.911501 
L 410.170484 385.758268 
L 417.140968 240.705749 
L 424.111452 268.761306 
L 431.081936 374.337289 
L 438.05242 511.117019 
L 445.022904 605.288768 
L 451.993388 638.574207 
L 458.963872 651.145169 
L 465.934357 660.413217 
L 472.904841 661.482569 
L 479.875325 659.007384 
L 486.845809 656.541381 
L 493.816293 654.266961 
L 500.786777 652.553203 
L 507.757261 651.321892 
L 514.727745 648.287677 
L 521.698229 657.232141 
L 528.668713 659.65349 
L 535.639197 660.985998 
L 542.609681 662.088926 
L 549.580165 659.464516 
L 556.550649 657.779859 
L 563.521133 656.103337 
L 570.491617 655.274816 
L 577.462102 651.540383 
L 584.432586 652.587373 
L 591.40307 655.710311 
L 598.373554 659.860927 
L 605.344038 662.360181 
L 612.314522 663.125187 
L 619.285006 662.712136 
L 626.25549 662.372158 
L 633.225974 660.405964 
L 640.196458 657.456592 
L 647.166942 657.678948 
" style="fill:none;stroke:#86cfa5;stroke-linecap:square;stroke-width:2;"/>
    <defs>
     <path d="M 0 2.5 
C 0.663008 2.5 1.29895 2.236584 1.767767 1.767767 
C 2.236584 1.29895 2.5 0.663008 2.5 0 
C 2.5 -0.663008 2.236584 -1.29895 1.767767 -1.767767 
C 1.29895 -2.236584 0.663008 -2.5 0 -2.5 
C -0.663008 -2.5 -1.29895 -2.236584 -1.767767 -1.767767 
C -2.236584 -1.29895 -2.5 -0.663008 -2.5 0 
C -2.5 0.663008 -2.236584 1.29895 -1.767767 1.767767 
C -1.29895 2.236584 -0.663008 2.5 0 2.5 
z
" id="m06ac3c1b6a" style="stroke:#86cfa5;"/>
    </defs>
    <g clip-path="url(#peb0c6a5da5)">
     <use style="fill:#86cfa5;stroke:#86cfa5;" x="159.233058" xlink:href="#m06ac3c1b6a" y="661.758613"/>
     <use style="fill:#86cfa5;stroke:#86cfa5;" x="166.203542" xlink:href="#m06ac3c1b6a" y="662.031321"/>
     <use style="fill:#86cfa5;stroke:#86cfa5;" x="173.174026" xlink:href="#m06ac3c1b6a" y="661.783328"/>
     <use style="fill:#86cfa5;stroke:#86cfa5;" x="180.14451" xlink:href="#m06ac3c1b6a" y="661.259449"/>
     <use style="fill:#86cfa5;stroke:#86cfa5;" x="187.114994" xlink:href="#m06ac3c1b6a" y="660.448787"/>
     <use style="fill:#86cfa5;stroke:#86cfa5;" x="194.085478" xlink:href="#m06ac3c1b6a" y="659.767349"/>
     <use style="fill:#86cfa5;stroke:#86cfa5;" x="201.055962" xlink:href="#m06ac3c1b6a" y="657.481071"/>
     <use style="fill:#86cfa5;stroke:#86cfa5;" x="208.026446" xlink:href="#m06ac3c1b6a" y="653.977772"/>
     <use style="fill:#86cfa5;stroke:#86cfa5;" x="214.99693" xlink:href="#m06ac3c1b6a" y="655.47332"/>
     <use style="fill:#86cfa5;stroke:#86cfa5;" x="221.967414" xlink:href="#m06ac3c1b6a" y="656.926465"/>
     <use style="fill:#86cfa5;stroke:#86cfa5;" x="228.937898" xlink:href="#m06ac3c1b6a" y="658.932282"/>
     <use style="fill:#86cfa5;stroke:#86cfa5;" x="235.908383" xlink:href="#m06ac3c1b6a" y="659.200484"/>
     <use style="fill:#86cfa5;stroke:#86cfa5;" x="242.878867" xlink:href="#m06ac3c1b6a" y="659.177319"/>
     <use style="fill:#86cfa5;stroke:#86cfa5;" x="249.849351" xlink:href="#m06ac3c1b6a" y="660.551317"/>
     <use style="fill:#86cfa5;stroke:#86cfa5;" x="256.819835" xlink:href="#m06ac3c1b6a" y="661.848809"/>
     <use style="fill:#86cfa5;stroke:#86cfa5;" x="263.790319" xlink:href="#m06ac3c1b6a" y="662.370845"/>
     <use style="fill:#86cfa5;stroke:#86cfa5;" x="270.760803" xlink:href="#m06ac3c1b6a" y="662.816256"/>
     <use style="fill:#86cfa5;stroke:#86cfa5;" x="277.731287" xlink:href="#m06ac3c1b6a" y="663.00579"/>
     <use style="fill:#86cfa5;stroke:#86cfa5;" x="284.701771" xlink:href="#m06ac3c1b6a" y="661.090001"/>
     <use style="fill:#86cfa5;stroke:#86cfa5;" x="291.672255" xlink:href="#m06ac3c1b6a" y="658.121392"/>
     <use style="fill:#86cfa5;stroke:#86cfa5;" x="298.642739" xlink:href="#m06ac3c1b6a" y="654.93011"/>
     <use style="fill:#86cfa5;stroke:#86cfa5;" x="305.613223" xlink:href="#m06ac3c1b6a" y="647.609773"/>
     <use style="fill:#86cfa5;stroke:#86cfa5;" x="312.583707" xlink:href="#m06ac3c1b6a" y="644.724023"/>
     <use style="fill:#86cfa5;stroke:#86cfa5;" x="319.554191" xlink:href="#m06ac3c1b6a" y="645.549562"/>
     <use style="fill:#86cfa5;stroke:#86cfa5;" x="326.524675" xlink:href="#m06ac3c1b6a" y="644.533049"/>
     <use style="fill:#86cfa5;stroke:#86cfa5;" x="333.495159" xlink:href="#m06ac3c1b6a" y="647.727844"/>
     <use style="fill:#86cfa5;stroke:#86cfa5;" x="340.465643" xlink:href="#m06ac3c1b6a" y="650.952356"/>
     <use style="fill:#86cfa5;stroke:#86cfa5;" x="347.436128" xlink:href="#m06ac3c1b6a" y="659.165792"/>
     <use style="fill:#86cfa5;stroke:#86cfa5;" x="354.406612" xlink:href="#m06ac3c1b6a" y="657.469068"/>
     <use style="fill:#86cfa5;stroke:#86cfa5;" x="361.377096" xlink:href="#m06ac3c1b6a" y="652.633549"/>
     <use style="fill:#86cfa5;stroke:#86cfa5;" x="368.34758" xlink:href="#m06ac3c1b6a" y="653.378889"/>
     <use style="fill:#86cfa5;stroke:#86cfa5;" x="375.318064" xlink:href="#m06ac3c1b6a" y="651.309883"/>
     <use style="fill:#86cfa5;stroke:#86cfa5;" x="382.288548" xlink:href="#m06ac3c1b6a" y="636.504701"/>
     <use style="fill:#86cfa5;stroke:#86cfa5;" x="389.259032" xlink:href="#m06ac3c1b6a" y="592.699179"/>
     <use style="fill:#86cfa5;stroke:#86cfa5;" x="396.229516" xlink:href="#m06ac3c1b6a" y="553.593929"/>
     <use style="fill:#86cfa5;stroke:#86cfa5;" x="403.2" xlink:href="#m06ac3c1b6a" y="522.911501"/>
     <use style="fill:#86cfa5;stroke:#86cfa5;" x="410.170484" xlink:href="#m06ac3c1b6a" y="385.758268"/>
     <use style="fill:#86cfa5;stroke:#86cfa5;" x="417.140968" xlink:href="#m06ac3c1b6a" y="240.705749"/>
     <use style="fill:#86cfa5;stroke:#86cfa5;" x="424.111452" xlink:href="#m06ac3c1b6a" y="268.761306"/>
     <use style="fill:#86cfa5;stroke:#86cfa5;" x="431.081936" xlink:href="#m06ac3c1b6a" y="374.337289"/>
     <use style="fill:#86cfa5;stroke:#86cfa5;" x="438.05242" xlink:href="#m06ac3c1b6a" y="511.117019"/>
     <use style="fill:#86cfa5;stroke:#86cfa5;" x="445.022904" xlink:href="#m06ac3c1b6a" y="605.288768"/>
     <use style="fill:#86cfa5;stroke:#86cfa5;" x="451.993388" xlink:href="#m06ac3c1b6a" y="638.574207"/>
     <use style="fill:#86cfa5;stroke:#86cfa5;" x="458.963872" xlink:href="#m06ac3c1b6a" y="651.145169"/>
     <use style="fill:#86cfa5;stroke:#86cfa5;" x="465.934357" xlink:href="#m06ac3c1b6a" y="660.413217"/>
     <use style="fill:#86cfa5;stroke:#86cfa5;" x="472.904841" xlink:href="#m06ac3c1b6a" y="661.482569"/>
     <use style="fill:#86cfa5;stroke:#86cfa5;" x="479.875325" xlink:href="#m06ac3c1b6a" y="659.007384"/>
     <use style="fill:#86cfa5;stroke:#86cfa5;" x="486.845809" xlink:href="#m06ac3c1b6a" y="656.541381"/>
     <use style="fill:#86cfa5;stroke:#86cfa5;" x="493.816293" xlink:href="#m06ac3c1b6a" y="654.266961"/>
     <use style="fill:#86cfa5;stroke:#86cfa5;" x="500.786777" xlink:href="#m06ac3c1b6a" y="652.553203"/>
     <use style="fill:#86cfa5;stroke:#86cfa5;" x="507.757261" xlink:href="#m06ac3c1b6a" y="651.321892"/>
     <use style="fill:#86cfa5;stroke:#86cfa5;" x="514.727745" xlink:href="#m06ac3c1b6a" y="648.287677"/>
     <use style="fill:#86cfa5;stroke:#86cfa5;" x="521.698229" xlink:href="#m06ac3c1b6a" y="657.232141"/>
     <use style="fill:#86cfa5;stroke:#86cfa5;" x="528.668713" xlink:href="#m06ac3c1b6a" y="659.65349"/>
     <use style="fill:#86cfa5;stroke:#86cfa5;" x="535.639197" xlink:href="#m06ac3c1b6a" y="660.985998"/>
     <use style="fill:#86cfa5;stroke:#86cfa5;" x="542.609681" xlink:href="#m06ac3c1b6a" y="662.088926"/>
     <use style="fill:#86cfa5;stroke:#86cfa5;" x="549.580165" xlink:href="#m06ac3c1b6a" y="659.464516"/>
     <use style="fill:#86cfa5;stroke:#86cfa5;" x="556.550649" xlink:href="#m06ac3c1b6a" y="657.779859"/>
     <use style="fill:#86cfa5;stroke:#86cfa5;" x="563.521133" xlink:href="#m06ac3c1b6a" y="656.103337"/>
     <use style="fill:#86cfa5;stroke:#86cfa5;" x="570.491617" xlink:href="#m06ac3c1b6a" y="655.274816"/>
     <use style="fill:#86cfa5;stroke:#86cfa5;" x="577.462102" xlink:href="#m06ac3c1b6a" y="651.540383"/>
     <use style="fill:#86cfa5;stroke:#86cfa5;" x="584.432586" xlink:href="#m06ac3c1b6a" y="652.587373"/>
     <use style="fill:#86cfa5;stroke:#86cfa5;" x="591.40307" xlink:href="#m06ac3c1b6a" y="655.710311"/>
     <use style="fill:#86cfa5;stroke:#86cfa5;" x="598.373554" xlink:href="#m06ac3c1b6a" y="659.860927"/>
     <use style="fill:#86cfa5;stroke:#86cfa5;" x="605.344038" xlink:href="#m06ac3c1b6a" y="662.360181"/>
     <use style="fill:#86cfa5;stroke:#86cfa5;" x="612.314522" xlink:href="#m06ac3c1b6a" y="663.125187"/>
     <use style="fill:#86cfa5;stroke:#86cfa5;" x="619.285006" xlink:href="#m06ac3c1b6a" y="662.712136"/>
     <use style="fill:#86cfa5;stroke:#86cfa5;" x="626.25549" xlink:href="#m06ac3c1b6a" y="662.372158"/>
     <use style="fill:#86cfa5;stroke:#86cfa5;" x="633.225974" xlink:href="#m06ac3c1b6a" y="660.405964"/>
     <use style="fill:#86cfa5;stroke:#86cfa5;" x="640.196458" xlink:href="#m06ac3c1b6a" y="657.456592"/>
     <use style="fill:#86cfa5;stroke:#86cfa5;" x="647.166942" xlink:href="#m06ac3c1b6a" y="657.678948"/>
    </g>
   </g>
   <g id="line2d_32">
    <path clip-path="url(#peb0c6a5da5)" d="M 159.233058 661.622501 
L 166.203542 661.995213 
L 173.174026 661.976212 
L 180.14451 660.710673 
L 187.114994 660.032875 
L 194.085478 659.865327 
L 201.055962 657.146054 
L 208.026446 653.224555 
L 214.99693 657.219605 
L 221.967414 659.066709 
L 228.937898 661.583468 
L 235.908383 662.583258 
L 242.878867 662.338246 
L 249.849351 660.160064 
L 256.819835 658.635005 
L 263.790319 657.023692 
L 270.760803 654.173728 
L 277.731287 650.093326 
L 284.701771 645.05325 
L 291.672255 646.551868 
L 298.642739 649.578613 
L 305.613223 656.464322 
L 312.583707 660.566041 
L 319.554191 652.484147 
L 326.524675 646.010249 
L 333.495159 650.96508 
L 340.465643 647.77966 
L 347.436128 644.962254 
L 354.406612 639.80493 
L 361.377096 647.609596 
L 368.34758 644.454506 
L 375.318064 640.849149 
L 382.288548 631.929191 
L 389.259032 617.410728 
L 396.229516 612.956019 
L 403.2 603.982591 
L 410.170484 300.001269 
L 417.140968 114.33719 
L 424.111452 224.544952 
L 431.081936 400.296865 
L 438.05242 598.223196 
L 445.022904 661.242641 
L 451.993388 626.491591 
L 458.963872 631.334587 
L 465.934357 648.440606 
L 472.904841 648.178992 
L 479.875325 650.173608 
L 486.845809 655.1259 
L 493.816293 658.423472 
L 500.786777 661.191253 
L 507.757261 663.08825 
L 514.727745 657.276546 
L 521.698229 641.498034 
L 528.668713 639.599485 
L 535.639197 655.971755 
L 542.609681 651.77967 
L 549.580165 662.463539 
L 556.550649 660.192957 
L 563.521133 658.333968 
L 570.491617 654.422826 
L 577.462102 654.629782 
L 584.432586 653.860101 
L 591.40307 657.733759 
L 598.373554 661.402444 
L 605.344038 662.87159 
L 612.314522 662.757148 
L 619.285006 662.417514 
L 626.25549 662.367235 
L 633.225974 659.53182 
L 640.196458 657.857668 
L 647.166942 658.717592 
" style="fill:none;stroke:#5e4fa2;stroke-linecap:square;stroke-width:2;"/>
    <defs>
     <path d="M 0 2.5 
C 0.663008 2.5 1.29895 2.236584 1.767767 1.767767 
C 2.236584 1.29895 2.5 0.663008 2.5 0 
C 2.5 -0.663008 2.236584 -1.29895 1.767767 -1.767767 
C 1.29895 -2.236584 0.663008 -2.5 0 -2.5 
C -0.663008 -2.5 -1.29895 -2.236584 -1.767767 -1.767767 
C -2.236584 -1.29895 -2.5 -0.663008 -2.5 0 
C -2.5 0.663008 -2.236584 1.29895 -1.767767 1.767767 
C -1.29895 2.236584 -0.663008 2.5 0 2.5 
z
" id="m5e6620587d" style="stroke:#5e4fa2;"/>
    </defs>
    <g clip-path="url(#peb0c6a5da5)">
     <use style="fill:#5e4fa2;stroke:#5e4fa2;" x="159.233058" xlink:href="#m5e6620587d" y="661.622501"/>
     <use style="fill:#5e4fa2;stroke:#5e4fa2;" x="166.203542" xlink:href="#m5e6620587d" y="661.995213"/>
     <use style="fill:#5e4fa2;stroke:#5e4fa2;" x="173.174026" xlink:href="#m5e6620587d" y="661.976212"/>
     <use style="fill:#5e4fa2;stroke:#5e4fa2;" x="180.14451" xlink:href="#m5e6620587d" y="660.710673"/>
     <use style="fill:#5e4fa2;stroke:#5e4fa2;" x="187.114994" xlink:href="#m5e6620587d" y="660.032875"/>
     <use style="fill:#5e4fa2;stroke:#5e4fa2;" x="194.085478" xlink:href="#m5e6620587d" y="659.865327"/>
     <use style="fill:#5e4fa2;stroke:#5e4fa2;" x="201.055962" xlink:href="#m5e6620587d" y="657.146054"/>
     <use style="fill:#5e4fa2;stroke:#5e4fa2;" x="208.026446" xlink:href="#m5e6620587d" y="653.224555"/>
     <use style="fill:#5e4fa2;stroke:#5e4fa2;" x="214.99693" xlink:href="#m5e6620587d" y="657.219605"/>
     <use style="fill:#5e4fa2;stroke:#5e4fa2;" x="221.967414" xlink:href="#m5e6620587d" y="659.066709"/>
     <use style="fill:#5e4fa2;stroke:#5e4fa2;" x="228.937898" xlink:href="#m5e6620587d" y="661.583468"/>
     <use style="fill:#5e4fa2;stroke:#5e4fa2;" x="235.908383" xlink:href="#m5e6620587d" y="662.583258"/>
     <use style="fill:#5e4fa2;stroke:#5e4fa2;" x="242.878867" xlink:href="#m5e6620587d" y="662.338246"/>
     <use style="fill:#5e4fa2;stroke:#5e4fa2;" x="249.849351" xlink:href="#m5e6620587d" y="660.160064"/>
     <use style="fill:#5e4fa2;stroke:#5e4fa2;" x="256.819835" xlink:href="#m5e6620587d" y="658.635005"/>
     <use style="fill:#5e4fa2;stroke:#5e4fa2;" x="263.790319" xlink:href="#m5e6620587d" y="657.023692"/>
     <use style="fill:#5e4fa2;stroke:#5e4fa2;" x="270.760803" xlink:href="#m5e6620587d" y="654.173728"/>
     <use style="fill:#5e4fa2;stroke:#5e4fa2;" x="277.731287" xlink:href="#m5e6620587d" y="650.093326"/>
     <use style="fill:#5e4fa2;stroke:#5e4fa2;" x="284.701771" xlink:href="#m5e6620587d" y="645.05325"/>
     <use style="fill:#5e4fa2;stroke:#5e4fa2;" x="291.672255" xlink:href="#m5e6620587d" y="646.551868"/>
     <use style="fill:#5e4fa2;stroke:#5e4fa2;" x="298.642739" xlink:href="#m5e6620587d" y="649.578613"/>
     <use style="fill:#5e4fa2;stroke:#5e4fa2;" x="305.613223" xlink:href="#m5e6620587d" y="656.464322"/>
     <use style="fill:#5e4fa2;stroke:#5e4fa2;" x="312.583707" xlink:href="#m5e6620587d" y="660.566041"/>
     <use style="fill:#5e4fa2;stroke:#5e4fa2;" x="319.554191" xlink:href="#m5e6620587d" y="652.484147"/>
     <use style="fill:#5e4fa2;stroke:#5e4fa2;" x="326.524675" xlink:href="#m5e6620587d" y="646.010249"/>
     <use style="fill:#5e4fa2;stroke:#5e4fa2;" x="333.495159" xlink:href="#m5e6620587d" y="650.96508"/>
     <use style="fill:#5e4fa2;stroke:#5e4fa2;" x="340.465643" xlink:href="#m5e6620587d" y="647.77966"/>
     <use style="fill:#5e4fa2;stroke:#5e4fa2;" x="347.436128" xlink:href="#m5e6620587d" y="644.962254"/>
     <use style="fill:#5e4fa2;stroke:#5e4fa2;" x="354.406612" xlink:href="#m5e6620587d" y="639.80493"/>
     <use style="fill:#5e4fa2;stroke:#5e4fa2;" x="361.377096" xlink:href="#m5e6620587d" y="647.609596"/>
     <use style="fill:#5e4fa2;stroke:#5e4fa2;" x="368.34758" xlink:href="#m5e6620587d" y="644.454506"/>
     <use style="fill:#5e4fa2;stroke:#5e4fa2;" x="375.318064" xlink:href="#m5e6620587d" y="640.849149"/>
     <use style="fill:#5e4fa2;stroke:#5e4fa2;" x="382.288548" xlink:href="#m5e6620587d" y="631.929191"/>
     <use style="fill:#5e4fa2;stroke:#5e4fa2;" x="389.259032" xlink:href="#m5e6620587d" y="617.410728"/>
     <use style="fill:#5e4fa2;stroke:#5e4fa2;" x="396.229516" xlink:href="#m5e6620587d" y="612.956019"/>
     <use style="fill:#5e4fa2;stroke:#5e4fa2;" x="403.2" xlink:href="#m5e6620587d" y="603.982591"/>
     <use style="fill:#5e4fa2;stroke:#5e4fa2;" x="410.170484" xlink:href="#m5e6620587d" y="300.001269"/>
     <use style="fill:#5e4fa2;stroke:#5e4fa2;" x="417.140968" xlink:href="#m5e6620587d" y="114.33719"/>
     <use style="fill:#5e4fa2;stroke:#5e4fa2;" x="424.111452" xlink:href="#m5e6620587d" y="224.544952"/>
     <use style="fill:#5e4fa2;stroke:#5e4fa2;" x="431.081936" xlink:href="#m5e6620587d" y="400.296865"/>
     <use style="fill:#5e4fa2;stroke:#5e4fa2;" x="438.05242" xlink:href="#m5e6620587d" y="598.223196"/>
     <use style="fill:#5e4fa2;stroke:#5e4fa2;" x="445.022904" xlink:href="#m5e6620587d" y="661.242641"/>
     <use style="fill:#5e4fa2;stroke:#5e4fa2;" x="451.993388" xlink:href="#m5e6620587d" y="626.491591"/>
     <use style="fill:#5e4fa2;stroke:#5e4fa2;" x="458.963872" xlink:href="#m5e6620587d" y="631.334587"/>
     <use style="fill:#5e4fa2;stroke:#5e4fa2;" x="465.934357" xlink:href="#m5e6620587d" y="648.440606"/>
     <use style="fill:#5e4fa2;stroke:#5e4fa2;" x="472.904841" xlink:href="#m5e6620587d" y="648.178992"/>
     <use style="fill:#5e4fa2;stroke:#5e4fa2;" x="479.875325" xlink:href="#m5e6620587d" y="650.173608"/>
     <use style="fill:#5e4fa2;stroke:#5e4fa2;" x="486.845809" xlink:href="#m5e6620587d" y="655.1259"/>
     <use style="fill:#5e4fa2;stroke:#5e4fa2;" x="493.816293" xlink:href="#m5e6620587d" y="658.423472"/>
     <use style="fill:#5e4fa2;stroke:#5e4fa2;" x="500.786777" xlink:href="#m5e6620587d" y="661.191253"/>
     <use style="fill:#5e4fa2;stroke:#5e4fa2;" x="507.757261" xlink:href="#m5e6620587d" y="663.08825"/>
     <use style="fill:#5e4fa2;stroke:#5e4fa2;" x="514.727745" xlink:href="#m5e6620587d" y="657.276546"/>
     <use style="fill:#5e4fa2;stroke:#5e4fa2;" x="521.698229" xlink:href="#m5e6620587d" y="641.498034"/>
     <use style="fill:#5e4fa2;stroke:#5e4fa2;" x="528.668713" xlink:href="#m5e6620587d" y="639.599485"/>
     <use style="fill:#5e4fa2;stroke:#5e4fa2;" x="535.639197" xlink:href="#m5e6620587d" y="655.971755"/>
     <use style="fill:#5e4fa2;stroke:#5e4fa2;" x="542.609681" xlink:href="#m5e6620587d" y="651.77967"/>
     <use style="fill:#5e4fa2;stroke:#5e4fa2;" x="549.580165" xlink:href="#m5e6620587d" y="662.463539"/>
     <use style="fill:#5e4fa2;stroke:#5e4fa2;" x="556.550649" xlink:href="#m5e6620587d" y="660.192957"/>
     <use style="fill:#5e4fa2;stroke:#5e4fa2;" x="563.521133" xlink:href="#m5e6620587d" y="658.333968"/>
     <use style="fill:#5e4fa2;stroke:#5e4fa2;" x="570.491617" xlink:href="#m5e6620587d" y="654.422826"/>
     <use style="fill:#5e4fa2;stroke:#5e4fa2;" x="577.462102" xlink:href="#m5e6620587d" y="654.629782"/>
     <use style="fill:#5e4fa2;stroke:#5e4fa2;" x="584.432586" xlink:href="#m5e6620587d" y="653.860101"/>
     <use style="fill:#5e4fa2;stroke:#5e4fa2;" x="591.40307" xlink:href="#m5e6620587d" y="657.733759"/>
     <use style="fill:#5e4fa2;stroke:#5e4fa2;" x="598.373554" xlink:href="#m5e6620587d" y="661.402444"/>
     <use style="fill:#5e4fa2;stroke:#5e4fa2;" x="605.344038" xlink:href="#m5e6620587d" y="662.87159"/>
     <use style="fill:#5e4fa2;stroke:#5e4fa2;" x="612.314522" xlink:href="#m5e6620587d" y="662.757148"/>
     <use style="fill:#5e4fa2;stroke:#5e4fa2;" x="619.285006" xlink:href="#m5e6620587d" y="662.417514"/>
     <use style="fill:#5e4fa2;stroke:#5e4fa2;" x="626.25549" xlink:href="#m5e6620587d" y="662.367235"/>
     <use style="fill:#5e4fa2;stroke:#5e4fa2;" x="633.225974" xlink:href="#m5e6620587d" y="659.53182"/>
     <use style="fill:#5e4fa2;stroke:#5e4fa2;" x="640.196458" xlink:href="#m5e6620587d" y="657.857668"/>
     <use style="fill:#5e4fa2;stroke:#5e4fa2;" x="647.166942" xlink:href="#m5e6620587d" y="658.717592"/>
    </g>
   </g>
   <g id="patch_3">
    <path d="M 108 720.9 
L 108 56.7 
" style="fill:none;stroke:#000000;stroke-linecap:square;stroke-linejoin:miter;stroke-width:0.8;"/>
   </g>
   <g id="patch_4">
    <path d="M 698.4 720.9 
L 698.4 56.7 
" style="fill:none;stroke:#000000;stroke-linecap:square;stroke-linejoin:miter;stroke-width:0.8;"/>
   </g>
   <g id="patch_5">
    <path d="M 108 720.9 
L 698.4 720.9 
" style="fill:none;stroke:#000000;stroke-linecap:square;stroke-linejoin:miter;stroke-width:0.8;"/>
   </g>
   <g id="patch_6">
    <path d="M 108 56.7 
L 698.4 56.7 
" style="fill:none;stroke:#000000;stroke-linecap:square;stroke-linejoin:miter;stroke-width:0.8;"/>
   </g>
   <g id="legend_1">
    <g id="patch_7">
     <path d="M 533.4 219.48125 
L 684.4 219.48125 
Q 688.4 219.48125 688.4 215.48125 
L 688.4 70.7 
Q 688.4 66.7 684.4 66.7 
L 533.4 66.7 
Q 529.4 66.7 529.4 70.7 
L 529.4 215.48125 
Q 529.4 219.48125 533.4 219.48125 
z
" style="fill:#ffffff;opacity:0.8;stroke:#cccccc;stroke-linejoin:miter;"/>
    </g>
    <g id="line2d_33">
     <path d="M 537.4 82.896875 
L 577.4 82.896875 
" style="fill:none;stroke:#000000;stroke-linecap:square;stroke-width:2;"/>
    </g>
    <g id="line2d_34">
     <defs>
      <path d="M 0 3 
C 0.795609 3 1.55874 2.683901 2.12132 2.12132 
C 2.683901 1.55874 3 0.795609 3 0 
C 3 -0.795609 2.683901 -1.55874 2.12132 -2.12132 
C 1.55874 -2.683901 0.795609 -3 0 -3 
C -0.795609 -3 -1.55874 -2.683901 -2.12132 -2.12132 
C -2.683901 -1.55874 -3 -0.795609 -3 0 
C -3 0.795609 -2.683901 1.55874 -2.12132 2.12132 
C -1.55874 2.683901 -0.795609 3 0 3 
z
" id="m6cc14416b9" style="stroke:#000000;"/>
     </defs>
     <g>
      <use style="stroke:#000000;" x="557.4" xlink:href="#m6cc14416b9" y="82.896875"/>
     </g>
    </g>
    <g id="text_17">
     <!-- (0, 0, -2) -->
     <g transform="translate(593.4 89.896875)scale(0.2 -0.2)">
      <defs>
       <path d="M 31 75.875 
Q 24.46875 64.65625 21.28125 53.65625 
Q 18.109375 42.671875 18.109375 31.390625 
Q 18.109375 20.125 21.3125 9.0625 
Q 24.515625 -2 31 -13.1875 
L 23.1875 -13.1875 
Q 15.875 -1.703125 12.234375 9.375 
Q 8.59375 20.453125 8.59375 31.390625 
Q 8.59375 42.28125 12.203125 53.3125 
Q 15.828125 64.359375 23.1875 75.875 
z
" id="DejaVuSans-40"/>
       <path d="M 11.71875 12.40625 
L 22.015625 12.40625 
L 22.015625 4 
L 14.015625 -11.625 
L 7.71875 -11.625 
L 11.71875 4 
z
" id="DejaVuSans-44"/>
       <path id="DejaVuSans-32"/>
       <path d="M 4.890625 31.390625 
L 31.203125 31.390625 
L 31.203125 23.390625 
L 4.890625 23.390625 
z
" id="DejaVuSans-45"/>
       <path d="M 8.015625 75.875 
L 15.828125 75.875 
Q 23.140625 64.359375 26.78125 53.3125 
Q 30.421875 42.28125 30.421875 31.390625 
Q 30.421875 20.453125 26.78125 9.375 
Q 23.140625 -1.703125 15.828125 -13.1875 
L 8.015625 -13.1875 
Q 14.5 -2 17.703125 9.0625 
Q 20.90625 20.125 20.90625 31.390625 
Q 20.90625 42.671875 17.703125 53.65625 
Q 14.5 64.65625 8.015625 75.875 
z
" id="DejaVuSans-41"/>
      </defs>
      <use xlink:href="#DejaVuSans-40"/>
      <use x="39.013672" xlink:href="#DejaVuSans-48"/>
      <use x="102.636719" xlink:href="#DejaVuSans-44"/>
      <use x="134.423828" xlink:href="#DejaVuSans-32"/>
      <use x="166.210938" xlink:href="#DejaVuSans-48"/>
      <use x="229.833984" xlink:href="#DejaVuSans-44"/>
      <use x="261.621094" xlink:href="#DejaVuSans-32"/>
      <use x="293.408203" xlink:href="#DejaVuSans-45"/>
      <use x="329.492188" xlink:href="#DejaVuSans-50"/>
      <use x="393.115234" xlink:href="#DejaVuSans-41"/>
     </g>
    </g>
    <g id="line2d_35">
     <path d="M 537.4 112.253125 
L 577.4 112.253125 
" style="fill:none;stroke:#f98e52;stroke-linecap:square;stroke-width:2;"/>
    </g>
    <g id="line2d_36"/>
    <g id="text_18">
     <!-- $z=90 A$ -->
     <g transform="translate(593.4 119.253125)scale(0.2 -0.2)">
      <defs>
       <path d="M 11.625 54.6875 
L 54.296875 54.6875 
L 52.6875 46.484375 
L 11.53125 7.171875 
L 45.515625 7.171875 
L 44.09375 0 
L -0.296875 0 
L 1.3125 8.203125 
L 42.484375 47.515625 
L 10.203125 47.515625 
z
" id="DejaVuSans-Oblique-122"/>
       <path d="M 10.59375 45.40625 
L 73.1875 45.40625 
L 73.1875 37.203125 
L 10.59375 37.203125 
z
M 10.59375 25.484375 
L 73.1875 25.484375 
L 73.1875 17.1875 
L 10.59375 17.1875 
z
" id="DejaVuSans-61"/>
       <path d="M 10.984375 1.515625 
L 10.984375 10.5 
Q 14.703125 8.734375 18.5 7.8125 
Q 22.3125 6.890625 25.984375 6.890625 
Q 35.75 6.890625 40.890625 13.453125 
Q 46.046875 20.015625 46.78125 33.40625 
Q 43.953125 29.203125 39.59375 26.953125 
Q 35.25 24.703125 29.984375 24.703125 
Q 19.046875 24.703125 12.671875 31.3125 
Q 6.296875 37.9375 6.296875 49.421875 
Q 6.296875 60.640625 12.9375 67.421875 
Q 19.578125 74.21875 30.609375 74.21875 
Q 43.265625 74.21875 49.921875 64.515625 
Q 56.59375 54.828125 56.59375 36.375 
Q 56.59375 19.140625 48.40625 8.859375 
Q 40.234375 -1.421875 26.421875 -1.421875 
Q 22.703125 -1.421875 18.890625 -0.6875 
Q 15.09375 0.046875 10.984375 1.515625 
z
M 30.609375 32.421875 
Q 37.25 32.421875 41.125 36.953125 
Q 45.015625 41.5 45.015625 49.421875 
Q 45.015625 57.28125 41.125 61.84375 
Q 37.25 66.40625 30.609375 66.40625 
Q 23.96875 66.40625 20.09375 61.84375 
Q 16.21875 57.28125 16.21875 49.421875 
Q 16.21875 41.5 20.09375 36.953125 
Q 23.96875 32.421875 30.609375 32.421875 
z
" id="DejaVuSans-57"/>
       <path d="M 36.8125 72.90625 
L 48 72.90625 
L 61.53125 0 
L 51.21875 0 
L 48.1875 18.703125 
L 15.375 18.703125 
L 5.078125 0 
L -5.328125 0 
z
M 40.375 63.1875 
L 19.921875 26.90625 
L 46.6875 26.90625 
z
" id="DejaVuSans-Oblique-65"/>
      </defs>
      <use transform="translate(0 0.78125)" xlink:href="#DejaVuSans-Oblique-122"/>
      <use transform="translate(71.972656 0.78125)" xlink:href="#DejaVuSans-61"/>
      <use transform="translate(175.244141 0.78125)" xlink:href="#DejaVuSans-57"/>
      <use transform="translate(238.867188 0.78125)" xlink:href="#DejaVuSans-48"/>
      <use transform="translate(302.490234 0.78125)" xlink:href="#DejaVuSans-Oblique-65"/>
     </g>
    </g>
    <g id="line2d_37">
     <path d="M 537.4 141.609375 
L 577.4 141.609375 
" style="fill:none;stroke:#ffffbe;stroke-linecap:square;stroke-width:2;"/>
    </g>
    <g id="line2d_38"/>
    <g id="text_19">
     <!-- $z=191 A$ -->
     <g transform="translate(593.4 148.609375)scale(0.2 -0.2)">
      <use transform="translate(0 0.78125)" xlink:href="#DejaVuSans-Oblique-122"/>
      <use transform="translate(71.972656 0.78125)" xlink:href="#DejaVuSans-61"/>
      <use transform="translate(175.244141 0.78125)" xlink:href="#DejaVuSans-49"/>
      <use transform="translate(238.867188 0.78125)" xlink:href="#DejaVuSans-57"/>
      <use transform="translate(302.490234 0.78125)" xlink:href="#DejaVuSans-49"/>
      <use transform="translate(366.113281 0.78125)" xlink:href="#DejaVuSans-Oblique-65"/>
     </g>
    </g>
    <g id="line2d_39">
     <path d="M 537.4 170.965625 
L 577.4 170.965625 
" style="fill:none;stroke:#86cfa5;stroke-linecap:square;stroke-width:2;"/>
    </g>
    <g id="line2d_40"/>
    <g id="text_20">
     <!-- $z=292 A$ -->
     <g transform="translate(593.4 177.965625)scale(0.2 -0.2)">
      <use transform="translate(0 0.78125)" xlink:href="#DejaVuSans-Oblique-122"/>
      <use transform="translate(71.972656 0.78125)" xlink:href="#DejaVuSans-61"/>
      <use transform="translate(175.244141 0.78125)" xlink:href="#DejaVuSans-50"/>
      <use transform="translate(237.117188 0.78125)" xlink:href="#DejaVuSans-57"/>
      <use transform="translate(298.990234 0.78125)" xlink:href="#DejaVuSans-50"/>
      <use transform="translate(362.613281 0.78125)" xlink:href="#DejaVuSans-Oblique-65"/>
     </g>
    </g>
    <g id="line2d_41">
     <path d="M 537.4 200.321875 
L 577.4 200.321875 
" style="fill:none;stroke:#5e4fa2;stroke-linecap:square;stroke-width:2;"/>
    </g>
    <g id="line2d_42"/>
    <g id="text_21">
     <!-- $z=393 A$ -->
     <g transform="translate(593.4 207.321875)scale(0.2 -0.2)">
      <use transform="translate(0 0.78125)" xlink:href="#DejaVuSans-Oblique-122"/>
      <use transform="translate(71.972656 0.78125)" xlink:href="#DejaVuSans-61"/>
      <use transform="translate(175.244141 0.78125)" xlink:href="#DejaVuSans-51"/>
      <use transform="translate(238.867188 0.78125)" xlink:href="#DejaVuSans-57"/>
      <use transform="translate(302.490234 0.78125)" xlink:href="#DejaVuSans-51"/>
      <use transform="translate(366.113281 0.78125)" xlink:href="#DejaVuSans-Oblique-65"/>
     </g>
    </g>
   </g>
  </g>
 </g>
 <defs>
  <clipPath id="peb0c6a5da5">
   <rect height="664.2" width="590.4" x="108" y="56.7"/>
  </clipPath>
 </defs>
</svg>
