<?xml version="1.0" encoding="utf-8" standalone="no"?>
<!DOCTYPE svg PUBLIC "-//W3C//DTD SVG 1.1//EN"
  "http://www.w3.org/Graphics/SVG/1.1/DTD/svg11.dtd">
<!-- Created with matplotlib (https://matplotlib.org/) -->
<svg height="576pt" version="1.1" viewBox="0 0 512.25 576" width="512.25pt" xmlns="http://www.w3.org/2000/svg" xmlns:xlink="http://www.w3.org/1999/xlink">
 <defs>
  <style type="text/css">
*{stroke-linecap:butt;stroke-linejoin:round;}
  </style>
 </defs>
 <g id="figure_1">
  <g id="patch_1">
   <path d="M 0 576 
L 512.25 576 
L 512.25 0 
L 0 0 
z
" style="fill:#ffffff;"/>
  </g>
  <g id="axes_1">
   <g id="patch_2">
    <path d="M 76.8375 512.64 
L 496.8825 512.64 
L 496.8825 40.32 
L 76.8375 40.32 
z
" style="fill:#ffffff;"/>
   </g>
   <g id="matplotlib.axis_1">
    <g id="xtick_1">
     <g id="line2d_1">
      <path clip-path="url(#p81ac2ba22d)" d="M 95.930455 512.64 
L 95.930455 40.32 
" style="fill:none;stroke:#e6e6e6;stroke-linecap:square;stroke-width:0.8;"/>
     </g>
     <g id="line2d_2">
      <defs>
       <path d="M 0 0 
L 0 3.5 
" id="ma96f3d8e45" style="stroke:#000000;stroke-width:0.8;"/>
      </defs>
      <g>
       <use style="stroke:#000000;stroke-width:0.8;" x="95.930455" xlink:href="#ma96f3d8e45" y="512.64"/>
      </g>
     </g>
     <g id="text_1">
      <!-- 0 -->
      <defs>
       <path d="M 31.78125 66.40625 
Q 24.171875 66.40625 20.328125 58.90625 
Q 16.5 51.421875 16.5 36.375 
Q 16.5 21.390625 20.328125 13.890625 
Q 24.171875 6.390625 31.78125 6.390625 
Q 39.453125 6.390625 43.28125 13.890625 
Q 47.125 21.390625 47.125 36.375 
Q 47.125 51.421875 43.28125 58.90625 
Q 39.453125 66.40625 31.78125 66.40625 
z
M 31.78125 74.21875 
Q 44.046875 74.21875 50.515625 64.515625 
Q 56.984375 54.828125 56.984375 36.375 
Q 56.984375 17.96875 50.515625 8.265625 
Q 44.046875 -1.421875 31.78125 -1.421875 
Q 19.53125 -1.421875 13.0625 8.265625 
Q 6.59375 17.96875 6.59375 36.375 
Q 6.59375 54.828125 13.0625 64.515625 
Q 19.53125 74.21875 31.78125 74.21875 
z
" id="DejaVuSans-48"/>
      </defs>
      <g transform="translate(91.15858 531.037656)scale(0.15 -0.15)">
       <use xlink:href="#DejaVuSans-48"/>
      </g>
     </g>
    </g>
    <g id="xtick_2">
     <g id="line2d_3">
      <path clip-path="url(#p81ac2ba22d)" d="M 146.424219 512.64 
L 146.424219 40.32 
" style="fill:none;stroke:#e6e6e6;stroke-linecap:square;stroke-width:0.8;"/>
     </g>
     <g id="line2d_4">
      <g>
       <use style="stroke:#000000;stroke-width:0.8;" x="146.424219" xlink:href="#ma96f3d8e45" y="512.64"/>
      </g>
     </g>
     <g id="text_2">
      <!-- 50 -->
      <defs>
       <path d="M 10.796875 72.90625 
L 49.515625 72.90625 
L 49.515625 64.59375 
L 19.828125 64.59375 
L 19.828125 46.734375 
Q 21.96875 47.46875 24.109375 47.828125 
Q 26.265625 48.1875 28.421875 48.1875 
Q 40.625 48.1875 47.75 41.5 
Q 54.890625 34.8125 54.890625 23.390625 
Q 54.890625 11.625 47.5625 5.09375 
Q 40.234375 -1.421875 26.90625 -1.421875 
Q 22.3125 -1.421875 17.546875 -0.640625 
Q 12.796875 0.140625 7.71875 1.703125 
L 7.71875 11.625 
Q 12.109375 9.234375 16.796875 8.0625 
Q 21.484375 6.890625 26.703125 6.890625 
Q 35.15625 6.890625 40.078125 11.328125 
Q 45.015625 15.765625 45.015625 23.390625 
Q 45.015625 31 40.078125 35.4375 
Q 35.15625 39.890625 26.703125 39.890625 
Q 22.75 39.890625 18.8125 39.015625 
Q 14.890625 38.140625 10.796875 36.28125 
z
" id="DejaVuSans-53"/>
      </defs>
      <g transform="translate(136.880469 531.037656)scale(0.15 -0.15)">
       <use xlink:href="#DejaVuSans-53"/>
       <use x="63.623047" xlink:href="#DejaVuSans-48"/>
      </g>
     </g>
    </g>
    <g id="xtick_3">
     <g id="line2d_5">
      <path clip-path="url(#p81ac2ba22d)" d="M 196.917983 512.64 
L 196.917983 40.32 
" style="fill:none;stroke:#e6e6e6;stroke-linecap:square;stroke-width:0.8;"/>
     </g>
     <g id="line2d_6">
      <g>
       <use style="stroke:#000000;stroke-width:0.8;" x="196.917983" xlink:href="#ma96f3d8e45" y="512.64"/>
      </g>
     </g>
     <g id="text_3">
      <!-- 100 -->
      <defs>
       <path d="M 12.40625 8.296875 
L 28.515625 8.296875 
L 28.515625 63.921875 
L 10.984375 60.40625 
L 10.984375 69.390625 
L 28.421875 72.90625 
L 38.28125 72.90625 
L 38.28125 8.296875 
L 54.390625 8.296875 
L 54.390625 0 
L 12.40625 0 
z
" id="DejaVuSans-49"/>
      </defs>
      <g transform="translate(182.602358 531.037656)scale(0.15 -0.15)">
       <use xlink:href="#DejaVuSans-49"/>
       <use x="63.623047" xlink:href="#DejaVuSans-48"/>
       <use x="127.246094" xlink:href="#DejaVuSans-48"/>
      </g>
     </g>
    </g>
    <g id="xtick_4">
     <g id="line2d_7">
      <path clip-path="url(#p81ac2ba22d)" d="M 247.411747 512.64 
L 247.411747 40.32 
" style="fill:none;stroke:#e6e6e6;stroke-linecap:square;stroke-width:0.8;"/>
     </g>
     <g id="line2d_8">
      <g>
       <use style="stroke:#000000;stroke-width:0.8;" x="247.411747" xlink:href="#ma96f3d8e45" y="512.64"/>
      </g>
     </g>
     <g id="text_4">
      <!-- 150 -->
      <g transform="translate(233.096122 531.037656)scale(0.15 -0.15)">
       <use xlink:href="#DejaVuSans-49"/>
       <use x="63.623047" xlink:href="#DejaVuSans-53"/>
       <use x="127.246094" xlink:href="#DejaVuSans-48"/>
      </g>
     </g>
    </g>
    <g id="xtick_5">
     <g id="line2d_9">
      <path clip-path="url(#p81ac2ba22d)" d="M 297.905511 512.64 
L 297.905511 40.32 
" style="fill:none;stroke:#e6e6e6;stroke-linecap:square;stroke-width:0.8;"/>
     </g>
     <g id="line2d_10">
      <g>
       <use style="stroke:#000000;stroke-width:0.8;" x="297.905511" xlink:href="#ma96f3d8e45" y="512.64"/>
      </g>
     </g>
     <g id="text_5">
      <!-- 200 -->
      <defs>
       <path d="M 19.1875 8.296875 
L 53.609375 8.296875 
L 53.609375 0 
L 7.328125 0 
L 7.328125 8.296875 
Q 12.9375 14.109375 22.625 23.890625 
Q 32.328125 33.6875 34.8125 36.53125 
Q 39.546875 41.84375 41.421875 45.53125 
Q 43.3125 49.21875 43.3125 52.78125 
Q 43.3125 58.59375 39.234375 62.25 
Q 35.15625 65.921875 28.609375 65.921875 
Q 23.96875 65.921875 18.8125 64.3125 
Q 13.671875 62.703125 7.8125 59.421875 
L 7.8125 69.390625 
Q 13.765625 71.78125 18.9375 73 
Q 24.125 74.21875 28.421875 74.21875 
Q 39.75 74.21875 46.484375 68.546875 
Q 53.21875 62.890625 53.21875 53.421875 
Q 53.21875 48.921875 51.53125 44.890625 
Q 49.859375 40.875 45.40625 35.40625 
Q 44.1875 33.984375 37.640625 27.21875 
Q 31.109375 20.453125 19.1875 8.296875 
z
" id="DejaVuSans-50"/>
      </defs>
      <g transform="translate(283.589886 531.037656)scale(0.15 -0.15)">
       <use xlink:href="#DejaVuSans-50"/>
       <use x="63.623047" xlink:href="#DejaVuSans-48"/>
       <use x="127.246094" xlink:href="#DejaVuSans-48"/>
      </g>
     </g>
    </g>
    <g id="xtick_6">
     <g id="line2d_11">
      <path clip-path="url(#p81ac2ba22d)" d="M 348.399275 512.64 
L 348.399275 40.32 
" style="fill:none;stroke:#e6e6e6;stroke-linecap:square;stroke-width:0.8;"/>
     </g>
     <g id="line2d_12">
      <g>
       <use style="stroke:#000000;stroke-width:0.8;" x="348.399275" xlink:href="#ma96f3d8e45" y="512.64"/>
      </g>
     </g>
     <g id="text_6">
      <!-- 250 -->
      <g transform="translate(334.08365 531.037656)scale(0.15 -0.15)">
       <use xlink:href="#DejaVuSans-50"/>
       <use x="63.623047" xlink:href="#DejaVuSans-53"/>
       <use x="127.246094" xlink:href="#DejaVuSans-48"/>
      </g>
     </g>
    </g>
    <g id="xtick_7">
     <g id="line2d_13">
      <path clip-path="url(#p81ac2ba22d)" d="M 398.893039 512.64 
L 398.893039 40.32 
" style="fill:none;stroke:#e6e6e6;stroke-linecap:square;stroke-width:0.8;"/>
     </g>
     <g id="line2d_14">
      <g>
       <use style="stroke:#000000;stroke-width:0.8;" x="398.893039" xlink:href="#ma96f3d8e45" y="512.64"/>
      </g>
     </g>
     <g id="text_7">
      <!-- 300 -->
      <defs>
       <path d="M 40.578125 39.3125 
Q 47.65625 37.796875 51.625 33 
Q 55.609375 28.21875 55.609375 21.1875 
Q 55.609375 10.40625 48.1875 4.484375 
Q 40.765625 -1.421875 27.09375 -1.421875 
Q 22.515625 -1.421875 17.65625 -0.515625 
Q 12.796875 0.390625 7.625 2.203125 
L 7.625 11.71875 
Q 11.71875 9.328125 16.59375 8.109375 
Q 21.484375 6.890625 26.8125 6.890625 
Q 36.078125 6.890625 40.9375 10.546875 
Q 45.796875 14.203125 45.796875 21.1875 
Q 45.796875 27.640625 41.28125 31.265625 
Q 36.765625 34.90625 28.71875 34.90625 
L 20.21875 34.90625 
L 20.21875 43.015625 
L 29.109375 43.015625 
Q 36.375 43.015625 40.234375 45.921875 
Q 44.09375 48.828125 44.09375 54.296875 
Q 44.09375 59.90625 40.109375 62.90625 
Q 36.140625 65.921875 28.71875 65.921875 
Q 24.65625 65.921875 20.015625 65.03125 
Q 15.375 64.15625 9.8125 62.3125 
L 9.8125 71.09375 
Q 15.4375 72.65625 20.34375 73.4375 
Q 25.25 74.21875 29.59375 74.21875 
Q 40.828125 74.21875 47.359375 69.109375 
Q 53.90625 64.015625 53.90625 55.328125 
Q 53.90625 49.265625 50.4375 45.09375 
Q 46.96875 40.921875 40.578125 39.3125 
z
" id="DejaVuSans-51"/>
      </defs>
      <g transform="translate(384.577414 531.037656)scale(0.15 -0.15)">
       <use xlink:href="#DejaVuSans-51"/>
       <use x="63.623047" xlink:href="#DejaVuSans-48"/>
       <use x="127.246094" xlink:href="#DejaVuSans-48"/>
      </g>
     </g>
    </g>
    <g id="xtick_8">
     <g id="line2d_15">
      <path clip-path="url(#p81ac2ba22d)" d="M 449.386803 512.64 
L 449.386803 40.32 
" style="fill:none;stroke:#e6e6e6;stroke-linecap:square;stroke-width:0.8;"/>
     </g>
     <g id="line2d_16">
      <g>
       <use style="stroke:#000000;stroke-width:0.8;" x="449.386803" xlink:href="#ma96f3d8e45" y="512.64"/>
      </g>
     </g>
     <g id="text_8">
      <!-- 350 -->
      <g transform="translate(435.071178 531.037656)scale(0.15 -0.15)">
       <use xlink:href="#DejaVuSans-51"/>
       <use x="63.623047" xlink:href="#DejaVuSans-53"/>
       <use x="127.246094" xlink:href="#DejaVuSans-48"/>
      </g>
     </g>
    </g>
    <g id="text_9">
     <!-- $thickness(\AA)$ -->
     <defs>
      <path d="M 42.28125 54.6875 
L 40.921875 47.703125 
L 23 47.703125 
L 17.1875 18.015625 
Q 16.890625 16.359375 16.75 15.234375 
Q 16.609375 14.109375 16.609375 13.484375 
Q 16.609375 10.359375 18.484375 8.9375 
Q 20.359375 7.515625 24.515625 7.515625 
L 33.59375 7.515625 
L 32.078125 0 
L 23.484375 0 
Q 15.484375 0 11.546875 3.125 
Q 7.625 6.25 7.625 12.59375 
Q 7.625 13.71875 7.765625 15.0625 
Q 7.90625 16.40625 8.203125 18.015625 
L 14.015625 47.703125 
L 6.390625 47.703125 
L 7.8125 54.6875 
L 15.28125 54.6875 
L 18.3125 70.21875 
L 27.296875 70.21875 
L 24.3125 54.6875 
z
" id="DejaVuSans-Oblique-116"/>
      <path d="M 55.71875 33.015625 
L 49.3125 0 
L 40.28125 0 
L 46.6875 32.671875 
Q 47.125 34.96875 47.359375 36.71875 
Q 47.609375 38.484375 47.609375 39.5 
Q 47.609375 43.609375 45.015625 45.890625 
Q 42.4375 48.1875 37.796875 48.1875 
Q 30.5625 48.1875 25.265625 43.296875 
Q 19.96875 38.421875 18.40625 30.328125 
L 12.5 0 
L 3.515625 0 
L 18.3125 75.984375 
L 27.296875 75.984375 
L 21.484375 46.09375 
Q 24.90625 50.6875 30.21875 53.34375 
Q 35.546875 56 41.40625 56 
Q 48.640625 56 52.609375 52.09375 
Q 56.59375 48.1875 56.59375 41.109375 
Q 56.59375 39.359375 56.375 37.359375 
Q 56.15625 35.359375 55.71875 33.015625 
z
" id="DejaVuSans-Oblique-104"/>
      <path d="M 18.3125 75.984375 
L 27.296875 75.984375 
L 25.09375 64.59375 
L 16.109375 64.59375 
z
M 14.203125 54.6875 
L 23.1875 54.6875 
L 12.5 0 
L 3.515625 0 
z
" id="DejaVuSans-Oblique-105"/>
      <path d="M 53.609375 52.59375 
L 51.8125 43.703125 
Q 48.578125 46.046875 44.9375 47.21875 
Q 41.3125 48.390625 37.40625 48.390625 
Q 33.109375 48.390625 29.21875 46.875 
Q 25.34375 45.359375 22.703125 42.578125 
Q 18.5 38.328125 16.203125 32.609375 
Q 13.921875 26.90625 13.921875 20.796875 
Q 13.921875 13.421875 17.609375 9.8125 
Q 21.296875 6.203125 28.8125 6.203125 
Q 32.515625 6.203125 36.6875 7.328125 
Q 40.875 8.453125 45.40625 10.6875 
L 43.703125 1.8125 
Q 39.796875 0.203125 35.671875 -0.609375 
Q 31.546875 -1.421875 27.203125 -1.421875 
Q 16.3125 -1.421875 10.453125 4.015625 
Q 4.59375 9.46875 4.59375 19.578125 
Q 4.59375 28.078125 7.640625 35.234375 
Q 10.6875 42.390625 16.703125 48.09375 
Q 20.796875 52 26.3125 54 
Q 31.84375 56 38.375 56 
Q 42.1875 56 45.9375 55.140625 
Q 49.703125 54.296875 53.609375 52.59375 
z
" id="DejaVuSans-Oblique-99"/>
      <path d="M 18.3125 75.984375 
L 27.296875 75.984375 
L 18.703125 31.6875 
L 49.515625 54.6875 
L 61.1875 54.6875 
L 26.8125 28.515625 
L 51.90625 0 
L 41.015625 0 
L 17.671875 26.703125 
L 12.5 0 
L 3.515625 0 
z
" id="DejaVuSans-Oblique-107"/>
      <path d="M 55.71875 33.015625 
L 49.3125 0 
L 40.28125 0 
L 46.6875 32.671875 
Q 47.125 34.96875 47.359375 36.71875 
Q 47.609375 38.484375 47.609375 39.5 
Q 47.609375 43.609375 45.015625 45.890625 
Q 42.4375 48.1875 37.796875 48.1875 
Q 30.5625 48.1875 25.34375 43.375 
Q 20.125 38.578125 18.5 30.328125 
L 12.5 0 
L 3.515625 0 
L 14.109375 54.6875 
L 23.09375 54.6875 
L 21.296875 46.09375 
Q 25.046875 50.828125 30.3125 53.40625 
Q 35.59375 56 41.40625 56 
Q 48.640625 56 52.609375 52.09375 
Q 56.59375 48.1875 56.59375 41.109375 
Q 56.59375 39.359375 56.375 37.359375 
Q 56.15625 35.359375 55.71875 33.015625 
z
" id="DejaVuSans-Oblique-110"/>
      <path d="M 48.09375 32.234375 
Q 48.25 33.015625 48.3125 33.84375 
Q 48.390625 34.671875 48.390625 35.5 
Q 48.390625 41.453125 44.890625 44.921875 
Q 41.40625 48.390625 35.40625 48.390625 
Q 28.71875 48.390625 23.578125 44.15625 
Q 18.453125 39.9375 15.828125 32.171875 
z
M 55.90625 25.203125 
L 14.109375 25.203125 
Q 13.8125 23.34375 13.71875 22.265625 
Q 13.625 21.1875 13.625 20.40625 
Q 13.625 13.625 17.796875 9.90625 
Q 21.96875 6.203125 29.59375 6.203125 
Q 35.453125 6.203125 40.671875 7.515625 
Q 45.90625 8.84375 50.390625 11.375 
L 48.6875 2.484375 
Q 43.84375 0.53125 38.6875 -0.4375 
Q 33.546875 -1.421875 28.21875 -1.421875 
Q 16.84375 -1.421875 10.71875 4.015625 
Q 4.59375 9.46875 4.59375 19.484375 
Q 4.59375 28.03125 7.640625 35.375 
Q 10.6875 42.71875 16.609375 48.484375 
Q 20.40625 52.09375 25.65625 54.046875 
Q 30.90625 56 36.8125 56 
Q 46.09375 56 51.578125 50.4375 
Q 57.078125 44.875 57.078125 35.5 
Q 57.078125 33.25 56.78125 30.6875 
Q 56.5 28.125 55.90625 25.203125 
z
" id="DejaVuSans-Oblique-101"/>
      <path d="M 50 53.078125 
L 48.296875 44.578125 
Q 44.734375 46.53125 40.765625 47.5 
Q 36.8125 48.484375 32.625 48.484375 
Q 25.53125 48.484375 21.453125 46.0625 
Q 17.390625 43.65625 17.390625 39.5 
Q 17.390625 34.671875 26.859375 32.078125 
Q 27.59375 31.890625 27.9375 31.78125 
L 30.8125 30.90625 
Q 39.796875 28.421875 42.796875 25.6875 
Q 45.796875 22.953125 45.796875 18.21875 
Q 45.796875 9.515625 38.890625 4.046875 
Q 31.984375 -1.421875 20.796875 -1.421875 
Q 16.453125 -1.421875 11.671875 -0.578125 
Q 6.890625 0.25 1.125 2 
L 2.875 11.28125 
Q 7.8125 8.734375 12.59375 7.421875 
Q 17.390625 6.109375 21.78125 6.109375 
Q 28.375 6.109375 32.5 8.9375 
Q 36.625 11.765625 36.625 16.109375 
Q 36.625 20.796875 25.78125 23.6875 
L 24.859375 23.921875 
L 21.78125 24.703125 
Q 14.9375 26.515625 11.765625 29.46875 
Q 8.59375 32.421875 8.59375 37.015625 
Q 8.59375 45.75 15.15625 50.875 
Q 21.734375 56 33.015625 56 
Q 37.453125 56 41.671875 55.265625 
Q 45.90625 54.546875 50 53.078125 
z
" id="DejaVuSans-Oblique-115"/>
      <path d="M 31 75.875 
Q 24.46875 64.65625 21.28125 53.65625 
Q 18.109375 42.671875 18.109375 31.390625 
Q 18.109375 20.125 21.3125 9.0625 
Q 24.515625 -2 31 -13.1875 
L 23.1875 -13.1875 
Q 15.875 -1.703125 12.234375 9.375 
Q 8.59375 20.453125 8.59375 31.390625 
Q 8.59375 42.28125 12.203125 53.3125 
Q 15.828125 64.359375 23.1875 75.875 
z
" id="DejaVuSans-40"/>
      <path d="M 49.8125 79.390625 
Q 49.8125 82.46875 47.625 84.640625 
Q 45.453125 86.8125 42.390625 86.8125 
Q 39.265625 86.8125 37.140625 84.6875 
Q 35.015625 82.5625 35.015625 79.390625 
Q 35.015625 76.3125 37.140625 74.15625 
Q 39.265625 72.015625 42.390625 72.015625 
Q 45.453125 72.015625 47.625 74.15625 
Q 49.8125 76.3125 49.8125 79.390625 
z
M 34.421875 68.703125 
Q 31.78125 70.515625 30.390625 73.265625 
Q 29 76.03125 29 79.390625 
Q 29 84.96875 32.90625 88.890625 
Q 36.8125 92.828125 42.390625 92.828125 
Q 47.953125 92.828125 51.875 88.890625 
Q 55.8125 84.96875 55.8125 79.390625 
Q 55.8125 75.53125 54.03125 72.546875 
Q 52.25 69.578125 48.875 67.828125 
L 61.53125 0 
L 51.21875 0 
L 48.1875 18.703125 
L 15.375 18.703125 
L 5.078125 0 
L -5.328125 0 
z
M 40.375 63.1875 
L 19.921875 26.90625 
L 46.6875 26.90625 
z
" id="DejaVuSans-Oblique-197"/>
      <path d="M 8.015625 75.875 
L 15.828125 75.875 
Q 23.140625 64.359375 26.78125 53.3125 
Q 30.421875 42.28125 30.421875 31.390625 
Q 30.421875 20.453125 26.78125 9.375 
Q 23.140625 -1.703125 15.828125 -13.1875 
L 8.015625 -13.1875 
Q 14.5 -2 17.703125 9.0625 
Q 20.90625 20.125 20.90625 31.390625 
Q 20.90625 42.671875 17.703125 53.65625 
Q 14.5 64.65625 8.015625 75.875 
z
" id="DejaVuSans-41"/>
     </defs>
     <g transform="translate(194.01 564.018125)scale(0.3 -0.3)">
      <use transform="translate(0 0.171875)" xlink:href="#DejaVuSans-Oblique-116"/>
      <use transform="translate(39.208984 0.171875)" xlink:href="#DejaVuSans-Oblique-104"/>
      <use transform="translate(102.587891 0.171875)" xlink:href="#DejaVuSans-Oblique-105"/>
      <use transform="translate(130.371094 0.171875)" xlink:href="#DejaVuSans-Oblique-99"/>
      <use transform="translate(185.351562 0.171875)" xlink:href="#DejaVuSans-Oblique-107"/>
      <use transform="translate(243.261719 0.171875)" xlink:href="#DejaVuSans-Oblique-110"/>
      <use transform="translate(306.640625 0.171875)" xlink:href="#DejaVuSans-Oblique-101"/>
      <use transform="translate(368.164062 0.171875)" xlink:href="#DejaVuSans-Oblique-115"/>
      <use transform="translate(420.263672 0.171875)" xlink:href="#DejaVuSans-Oblique-115"/>
      <use transform="translate(472.363281 0.171875)" xlink:href="#DejaVuSans-40"/>
      <use transform="translate(511.376953 0.171875)" xlink:href="#DejaVuSans-Oblique-197"/>
      <use transform="translate(579.785156 0.171875)" xlink:href="#DejaVuSans-41"/>
     </g>
    </g>
   </g>
   <g id="matplotlib.axis_2">
    <g id="ytick_1">
     <g id="line2d_17">
      <path clip-path="url(#p81ac2ba22d)" d="M 76.8375 491.192652 
L 496.8825 491.192652 
" style="fill:none;stroke:#e6e6e6;stroke-linecap:square;stroke-width:0.8;"/>
     </g>
     <g id="line2d_18">
      <defs>
       <path d="M 0 0 
L -3.5 0 
" id="m352b2acf3c" style="stroke:#000000;stroke-width:0.8;"/>
      </defs>
      <g>
       <use style="stroke:#000000;stroke-width:0.8;" x="76.8375" xlink:href="#m352b2acf3c" y="491.192652"/>
      </g>
     </g>
     <g id="text_10">
      <!-- 0.00 -->
      <defs>
       <path d="M 10.6875 12.40625 
L 21 12.40625 
L 21 0 
L 10.6875 0 
z
" id="DejaVuSans-46"/>
      </defs>
      <g transform="translate(36.439062 496.89148)scale(0.15 -0.15)">
       <use xlink:href="#DejaVuSans-48"/>
       <use x="63.623047" xlink:href="#DejaVuSans-46"/>
       <use x="95.410156" xlink:href="#DejaVuSans-48"/>
       <use x="159.033203" xlink:href="#DejaVuSans-48"/>
      </g>
     </g>
    </g>
    <g id="ytick_2">
     <g id="line2d_19">
      <path clip-path="url(#p81ac2ba22d)" d="M 76.8375 431.008994 
L 496.8825 431.008994 
" style="fill:none;stroke:#e6e6e6;stroke-linecap:square;stroke-width:0.8;"/>
     </g>
     <g id="line2d_20">
      <g>
       <use style="stroke:#000000;stroke-width:0.8;" x="76.8375" xlink:href="#m352b2acf3c" y="431.008994"/>
      </g>
     </g>
     <g id="text_11">
      <!-- 0.02 -->
      <g transform="translate(36.439062 436.707822)scale(0.15 -0.15)">
       <use xlink:href="#DejaVuSans-48"/>
       <use x="63.623047" xlink:href="#DejaVuSans-46"/>
       <use x="95.410156" xlink:href="#DejaVuSans-48"/>
       <use x="159.033203" xlink:href="#DejaVuSans-50"/>
      </g>
     </g>
    </g>
    <g id="ytick_3">
     <g id="line2d_21">
      <path clip-path="url(#p81ac2ba22d)" d="M 76.8375 370.825336 
L 496.8825 370.825336 
" style="fill:none;stroke:#e6e6e6;stroke-linecap:square;stroke-width:0.8;"/>
     </g>
     <g id="line2d_22">
      <g>
       <use style="stroke:#000000;stroke-width:0.8;" x="76.8375" xlink:href="#m352b2acf3c" y="370.825336"/>
      </g>
     </g>
     <g id="text_12">
      <!-- 0.04 -->
      <defs>
       <path d="M 37.796875 64.3125 
L 12.890625 25.390625 
L 37.796875 25.390625 
z
M 35.203125 72.90625 
L 47.609375 72.90625 
L 47.609375 25.390625 
L 58.015625 25.390625 
L 58.015625 17.1875 
L 47.609375 17.1875 
L 47.609375 0 
L 37.796875 0 
L 37.796875 17.1875 
L 4.890625 17.1875 
L 4.890625 26.703125 
z
" id="DejaVuSans-52"/>
      </defs>
      <g transform="translate(36.439062 376.524164)scale(0.15 -0.15)">
       <use xlink:href="#DejaVuSans-48"/>
       <use x="63.623047" xlink:href="#DejaVuSans-46"/>
       <use x="95.410156" xlink:href="#DejaVuSans-48"/>
       <use x="159.033203" xlink:href="#DejaVuSans-52"/>
      </g>
     </g>
    </g>
    <g id="ytick_4">
     <g id="line2d_23">
      <path clip-path="url(#p81ac2ba22d)" d="M 76.8375 310.641677 
L 496.8825 310.641677 
" style="fill:none;stroke:#e6e6e6;stroke-linecap:square;stroke-width:0.8;"/>
     </g>
     <g id="line2d_24">
      <g>
       <use style="stroke:#000000;stroke-width:0.8;" x="76.8375" xlink:href="#m352b2acf3c" y="310.641677"/>
      </g>
     </g>
     <g id="text_13">
      <!-- 0.06 -->
      <defs>
       <path d="M 33.015625 40.375 
Q 26.375 40.375 22.484375 35.828125 
Q 18.609375 31.296875 18.609375 23.390625 
Q 18.609375 15.53125 22.484375 10.953125 
Q 26.375 6.390625 33.015625 6.390625 
Q 39.65625 6.390625 43.53125 10.953125 
Q 47.40625 15.53125 47.40625 23.390625 
Q 47.40625 31.296875 43.53125 35.828125 
Q 39.65625 40.375 33.015625 40.375 
z
M 52.59375 71.296875 
L 52.59375 62.3125 
Q 48.875 64.0625 45.09375 64.984375 
Q 41.3125 65.921875 37.59375 65.921875 
Q 27.828125 65.921875 22.671875 59.328125 
Q 17.53125 52.734375 16.796875 39.40625 
Q 19.671875 43.65625 24.015625 45.921875 
Q 28.375 48.1875 33.59375 48.1875 
Q 44.578125 48.1875 50.953125 41.515625 
Q 57.328125 34.859375 57.328125 23.390625 
Q 57.328125 12.15625 50.6875 5.359375 
Q 44.046875 -1.421875 33.015625 -1.421875 
Q 20.359375 -1.421875 13.671875 8.265625 
Q 6.984375 17.96875 6.984375 36.375 
Q 6.984375 53.65625 15.1875 63.9375 
Q 23.390625 74.21875 37.203125 74.21875 
Q 40.921875 74.21875 44.703125 73.484375 
Q 48.484375 72.75 52.59375 71.296875 
z
" id="DejaVuSans-54"/>
      </defs>
      <g transform="translate(36.439062 316.340505)scale(0.15 -0.15)">
       <use xlink:href="#DejaVuSans-48"/>
       <use x="63.623047" xlink:href="#DejaVuSans-46"/>
       <use x="95.410156" xlink:href="#DejaVuSans-48"/>
       <use x="159.033203" xlink:href="#DejaVuSans-54"/>
      </g>
     </g>
    </g>
    <g id="ytick_5">
     <g id="line2d_25">
      <path clip-path="url(#p81ac2ba22d)" d="M 76.8375 250.458019 
L 496.8825 250.458019 
" style="fill:none;stroke:#e6e6e6;stroke-linecap:square;stroke-width:0.8;"/>
     </g>
     <g id="line2d_26">
      <g>
       <use style="stroke:#000000;stroke-width:0.8;" x="76.8375" xlink:href="#m352b2acf3c" y="250.458019"/>
      </g>
     </g>
     <g id="text_14">
      <!-- 0.08 -->
      <defs>
       <path d="M 31.78125 34.625 
Q 24.75 34.625 20.71875 30.859375 
Q 16.703125 27.09375 16.703125 20.515625 
Q 16.703125 13.921875 20.71875 10.15625 
Q 24.75 6.390625 31.78125 6.390625 
Q 38.8125 6.390625 42.859375 10.171875 
Q 46.921875 13.96875 46.921875 20.515625 
Q 46.921875 27.09375 42.890625 30.859375 
Q 38.875 34.625 31.78125 34.625 
z
M 21.921875 38.8125 
Q 15.578125 40.375 12.03125 44.71875 
Q 8.5 49.078125 8.5 55.328125 
Q 8.5 64.0625 14.71875 69.140625 
Q 20.953125 74.21875 31.78125 74.21875 
Q 42.671875 74.21875 48.875 69.140625 
Q 55.078125 64.0625 55.078125 55.328125 
Q 55.078125 49.078125 51.53125 44.71875 
Q 48 40.375 41.703125 38.8125 
Q 48.828125 37.15625 52.796875 32.3125 
Q 56.78125 27.484375 56.78125 20.515625 
Q 56.78125 9.90625 50.3125 4.234375 
Q 43.84375 -1.421875 31.78125 -1.421875 
Q 19.734375 -1.421875 13.25 4.234375 
Q 6.78125 9.90625 6.78125 20.515625 
Q 6.78125 27.484375 10.78125 32.3125 
Q 14.796875 37.15625 21.921875 38.8125 
z
M 18.3125 54.390625 
Q 18.3125 48.734375 21.84375 45.5625 
Q 25.390625 42.390625 31.78125 42.390625 
Q 38.140625 42.390625 41.71875 45.5625 
Q 45.3125 48.734375 45.3125 54.390625 
Q 45.3125 60.0625 41.71875 63.234375 
Q 38.140625 66.40625 31.78125 66.40625 
Q 25.390625 66.40625 21.84375 63.234375 
Q 18.3125 60.0625 18.3125 54.390625 
z
" id="DejaVuSans-56"/>
      </defs>
      <g transform="translate(36.439062 256.156847)scale(0.15 -0.15)">
       <use xlink:href="#DejaVuSans-48"/>
       <use x="63.623047" xlink:href="#DejaVuSans-46"/>
       <use x="95.410156" xlink:href="#DejaVuSans-48"/>
       <use x="159.033203" xlink:href="#DejaVuSans-56"/>
      </g>
     </g>
    </g>
    <g id="ytick_6">
     <g id="line2d_27">
      <path clip-path="url(#p81ac2ba22d)" d="M 76.8375 190.274361 
L 496.8825 190.274361 
" style="fill:none;stroke:#e6e6e6;stroke-linecap:square;stroke-width:0.8;"/>
     </g>
     <g id="line2d_28">
      <g>
       <use style="stroke:#000000;stroke-width:0.8;" x="76.8375" xlink:href="#m352b2acf3c" y="190.274361"/>
      </g>
     </g>
     <g id="text_15">
      <!-- 0.10 -->
      <g transform="translate(36.439062 195.973189)scale(0.15 -0.15)">
       <use xlink:href="#DejaVuSans-48"/>
       <use x="63.623047" xlink:href="#DejaVuSans-46"/>
       <use x="95.410156" xlink:href="#DejaVuSans-49"/>
       <use x="159.033203" xlink:href="#DejaVuSans-48"/>
      </g>
     </g>
    </g>
    <g id="ytick_7">
     <g id="line2d_29">
      <path clip-path="url(#p81ac2ba22d)" d="M 76.8375 130.090702 
L 496.8825 130.090702 
" style="fill:none;stroke:#e6e6e6;stroke-linecap:square;stroke-width:0.8;"/>
     </g>
     <g id="line2d_30">
      <g>
       <use style="stroke:#000000;stroke-width:0.8;" x="76.8375" xlink:href="#m352b2acf3c" y="130.090702"/>
      </g>
     </g>
     <g id="text_16">
      <!-- 0.12 -->
      <g transform="translate(36.439062 135.78953)scale(0.15 -0.15)">
       <use xlink:href="#DejaVuSans-48"/>
       <use x="63.623047" xlink:href="#DejaVuSans-46"/>
       <use x="95.410156" xlink:href="#DejaVuSans-49"/>
       <use x="159.033203" xlink:href="#DejaVuSans-50"/>
      </g>
     </g>
    </g>
    <g id="ytick_8">
     <g id="line2d_31">
      <path clip-path="url(#p81ac2ba22d)" d="M 76.8375 69.907044 
L 496.8825 69.907044 
" style="fill:none;stroke:#e6e6e6;stroke-linecap:square;stroke-width:0.8;"/>
     </g>
     <g id="line2d_32">
      <g>
       <use style="stroke:#000000;stroke-width:0.8;" x="76.8375" xlink:href="#m352b2acf3c" y="69.907044"/>
      </g>
     </g>
     <g id="text_17">
      <!-- 0.14 -->
      <g transform="translate(36.439062 75.605872)scale(0.15 -0.15)">
       <use xlink:href="#DejaVuSans-48"/>
       <use x="63.623047" xlink:href="#DejaVuSans-46"/>
       <use x="95.410156" xlink:href="#DejaVuSans-49"/>
       <use x="159.033203" xlink:href="#DejaVuSans-52"/>
      </g>
     </g>
    </g>
    <g id="text_18">
     <!-- $I_{hk}$ -->
     <defs>
      <path d="M 16.890625 72.90625 
L 26.8125 72.90625 
L 12.59375 0 
L 2.6875 0 
z
" id="DejaVuSans-Oblique-73"/>
     </defs>
     <g transform="translate(26.2 294.18)rotate(-90)scale(0.3 -0.3)">
      <use transform="translate(0 0.09375)" xlink:href="#DejaVuSans-Oblique-73"/>
      <use transform="translate(29.492188 -16.3125)scale(0.7)" xlink:href="#DejaVuSans-Oblique-104"/>
      <use transform="translate(73.857422 -16.3125)scale(0.7)" xlink:href="#DejaVuSans-Oblique-107"/>
     </g>
    </g>
   </g>
   <g id="line2d_33">
    <path clip-path="url(#p81ac2ba22d)" d="M 95.930455 491.170909 
L 98.707612 490.99746 
L 101.484769 490.645971 
L 104.261926 490.106396 
L 107.039083 489.37899 
L 109.81624 488.454889 
L 112.593397 487.343803 
L 115.370554 486.04064 
L 119.536289 483.764978 
L 120.924868 482.919479 
L 122.313446 481.114281 
L 126.479182 478.129405 
L 130.644917 474.897131 
L 141.753545 465.675573 
L 144.530702 463.427064 
L 150.085017 459.231563 
L 154.250752 456.445858 
L 159.805066 453.542158 
L 165.35938 451.565888 
L 170.913694 450.535277 
L 175.07943 450.321035 
L 176.468008 450.191819 
L 180.633744 450.424201 
L 182.022322 450.423544 
L 184.799479 450.828136 
L 187.576636 451.008049 
L 190.353793 451.530055 
L 201.462421 452.685655 
L 208.405314 452.80829 
L 209.793893 452.6733 
L 211.182471 452.727932 
L 213.959628 452.537931 
L 215.348207 452.296926 
L 216.736785 452.240674 
L 219.513942 451.796054 
L 220.902521 451.403085 
L 222.291099 451.183271 
L 225.068256 450.422571 
L 226.456835 449.888527 
L 227.845413 449.563585 
L 229.233992 449.116183 
L 230.62257 447.945894 
L 232.011149 447.503409 
L 234.788306 446.290696 
L 236.176884 445.467785 
L 237.565463 444.872079 
L 240.34262 443.356846 
L 241.731198 442.417003 
L 244.508355 440.903194 
L 251.451248 436.316819 
L 252.839826 435.253812 
L 255.616983 433.582581 
L 259.782719 430.74798 
L 262.559876 428.9575 
L 263.948455 427.944868 
L 266.725612 426.466753 
L 269.502769 424.644287 
L 272.279926 423.351505 
L 275.057083 421.769599 
L 277.83424 420.835392 
L 280.611397 419.621872 
L 283.388554 419.082211 
L 286.165711 418.240997 
L 288.942868 418.162338 
L 291.720025 417.779825 
L 294.497182 418.106149 
L 297.274339 418.170287 
L 300.051496 419.01134 
L 302.828653 419.638265 
L 305.60581 420.980179 
L 308.382967 422.028268 
L 311.160124 423.725823 
L 313.937281 425.216307 
L 316.714438 427.385505 
L 319.491595 429.346002 
L 323.657331 433.265316 
L 325.045909 434.522324 
L 329.211645 439.15834 
L 330.600223 440.559663 
L 334.765959 445.600906 
L 336.154537 447.154003 
L 337.543116 450.854287 
L 347.263165 463.186272 
L 350.040322 466.532689 
L 352.817479 469.695589 
L 355.594636 472.664239 
L 361.14895 477.867058 
L 366.703264 482.098006 
L 372.257579 485.242661 
L 376.423314 486.993622 
L 379.200471 487.799792 
L 381.977628 488.536103 
L 386.143364 489.235491 
L 388.920521 489.546358 
L 395.863413 489.893491 
L 400.029149 489.881985 
L 405.583463 489.554214 
L 411.137777 488.936548 
L 418.080669 487.77639 
L 422.246405 486.914355 
L 440.297926 482.788473 
L 444.463661 482.117909 
L 445.85224 481.727256 
L 451.406554 481.094718 
L 461.126603 480.52693 
L 469.458074 480.139119 
L 475.012388 479.47261 
L 477.789545 478.980951 
L 477.789545 478.980951 
" style="fill:none;stroke:#aedea7;stroke-linecap:square;stroke-width:2;"/>
   </g>
   <g id="line2d_34">
    <path clip-path="url(#p81ac2ba22d)" d="M 95.930455 491.134904 
L 97.319033 490.96167 
L 98.707612 490.673239 
L 100.09619 490.269784 
L 101.484769 489.740598 
L 104.261926 488.317403 
L 105.650504 487.424848 
L 108.427661 485.239928 
L 111.204818 482.543285 
L 113.981975 479.306494 
L 116.759132 475.532765 
L 119.536289 471.216081 
L 120.924868 468.844121 
L 122.313446 463.724799 
L 125.090603 458.078535 
L 127.86776 451.888948 
L 130.644917 445.132963 
L 133.422074 437.847846 
L 136.199231 430.004879 
L 140.364967 417.302434 
L 144.530702 403.51316 
L 147.30786 393.794579 
L 152.862174 373.294971 
L 159.805066 345.967119 
L 163.970802 329.091622 
L 179.245165 264.108007 
L 187.576636 227.363508 
L 190.353793 215.782187 
L 194.519529 197.77914 
L 197.296686 185.946291 
L 198.685264 179.74408 
L 201.462421 168.709898 
L 204.239579 156.951453 
L 207.016736 146.644657 
L 209.793893 135.69486 
L 212.57105 126.381246 
L 215.348207 116.438917 
L 218.125364 108.257733 
L 220.902521 99.356588 
L 223.679678 92.289513 
L 226.456835 84.588926 
L 229.233992 79.09621 
L 230.62257 73.396072 
L 233.399727 70.376742 
L 234.788306 68.633574 
L 236.176884 66.576123 
L 237.565463 65.848694 
L 240.34262 63.900563 
L 241.731198 62.630458 
L 243.119777 62.689865 
L 244.508355 62.613364 
L 245.896934 62.280146 
L 247.285512 61.789091 
L 248.674091 62.595162 
L 250.062669 63.265389 
L 251.451248 63.675318 
L 252.839826 63.96655 
L 255.616983 66.998257 
L 257.005562 68.148828 
L 258.39414 69.133428 
L 261.171298 73.45376 
L 262.559876 75.294293 
L 263.948455 76.943185 
L 266.725612 82.486327 
L 268.11419 84.870566 
L 269.502769 87.023318 
L 272.279926 93.475542 
L 275.057083 98.894377 
L 277.83424 106.2533 
L 280.611397 112.527973 
L 283.388554 120.608191 
L 286.165711 127.478761 
L 288.942868 136.168551 
L 291.720025 143.60039 
L 294.497182 152.613366 
L 297.274339 160.361998 
L 300.051496 169.72835 
L 302.828653 177.919864 
L 305.60581 187.573362 
L 309.771545 200.805858 
L 312.548702 209.796762 
L 313.937281 213.879966 
L 316.714438 223.603274 
L 319.491595 232.163174 
L 322.268752 242.078927 
L 325.045909 251.032966 
L 327.823066 261.308647 
L 331.988802 275.579148 
L 334.765959 285.324923 
L 336.154537 289.794767 
L 337.543116 300.521458 
L 350.040322 346.551113 
L 351.428901 351.157707 
L 354.206058 361.342374 
L 361.14895 384.398468 
L 362.537529 388.587452 
L 365.314686 397.649588 
L 370.869 413.963458 
L 376.423314 428.99543 
L 381.977628 442.535775 
L 386.143364 451.708147 
L 388.920521 457.4249 
L 395.863413 470.01367 
L 398.64057 474.551289 
L 401.417727 478.410594 
L 402.806306 480.250834 
L 405.583463 483.409746 
L 408.36062 486.003736 
L 409.749198 487.088081 
L 411.137777 488.030063 
L 412.526355 488.803082 
L 413.914934 489.440335 
L 415.303512 489.902179 
L 416.692091 490.217423 
L 418.080669 490.370768 
L 419.469248 490.338762 
L 420.857826 490.147539 
L 422.246405 489.810255 
L 423.634983 489.325381 
L 425.023562 488.604668 
L 426.41214 487.740638 
L 429.189298 485.609193 
L 431.966455 482.677013 
L 434.743612 479.233914 
L 437.520769 475.035227 
L 440.297926 470.406855 
L 443.075083 465.051216 
L 444.463661 462.214893 
L 445.85224 456.123869 
L 450.017975 446.136611 
L 454.183711 434.918739 
L 456.960868 426.871974 
L 461.126603 414.084514 
L 468.069496 390.831934 
L 472.235231 375.925884 
L 477.789545 355.259409 
L 477.789545 355.259409 
" style="fill:none;stroke:#37a055;stroke-linecap:square;stroke-width:2;"/>
   </g>
   <g id="line2d_35">
    <path clip-path="url(#p81ac2ba22d)" d="M 95.930455 491.170909 
L 98.707612 490.99746 
L 101.484769 490.645971 
L 104.261926 490.106396 
L 107.039083 489.378991 
L 109.81624 488.45489 
L 112.593397 487.343804 
L 115.370554 486.040641 
L 119.536289 483.764979 
L 120.924868 482.91948 
L 122.313446 481.114283 
L 126.479182 478.129408 
L 130.644917 474.897135 
L 141.753545 465.675579 
L 144.530702 463.427069 
L 150.085017 459.231567 
L 154.250752 456.445861 
L 159.805066 453.542162 
L 165.35938 451.565892 
L 170.913694 450.535282 
L 175.07943 450.32104 
L 176.468008 450.191824 
L 180.633744 450.424208 
L 182.022322 450.423552 
L 184.799479 450.828145 
L 187.576636 451.008059 
L 190.353793 451.530067 
L 201.462421 452.685674 
L 208.405314 452.808314 
L 209.793893 452.673325 
L 211.182471 452.727959 
L 213.959628 452.537931 
L 215.348207 452.296956 
L 216.736785 452.240674 
L 219.513942 451.796114 
L 220.902521 451.403145 
L 222.291099 451.183307 
L 225.068256 450.422629 
L 226.456835 449.888527 
L 227.845413 449.563585 
L 229.233992 449.116183 
L 230.62257 447.945894 
L 232.011149 447.503409 
L 234.788306 446.290592 
L 236.176884 445.46768 
L 237.565463 444.872025 
L 240.34262 443.356846 
L 241.731198 442.416945 
L 244.508355 440.903135 
L 251.451248 436.316771 
L 252.839826 435.253716 
L 255.616983 433.582486 
L 259.782719 430.747887 
L 262.559876 428.957408 
L 263.948455 427.944776 
L 266.725612 426.466663 
L 269.502769 424.644197 
L 272.279926 423.351416 
L 275.057083 421.76951 
L 277.83424 420.835305 
L 280.611397 419.621785 
L 283.388554 419.082125 
L 286.165711 418.240911 
L 288.942868 418.162253 
L 291.720025 417.77974 
L 294.497182 418.106065 
L 297.274339 418.170204 
L 300.051496 419.011257 
L 302.828653 419.638141 
L 305.60581 420.980098 
L 308.382967 422.028147 
L 311.160124 423.725703 
L 313.937281 425.216228 
L 316.714438 427.385427 
L 319.491595 429.345925 
L 323.657331 433.265203 
L 325.045909 434.522249 
L 329.211645 439.15823 
L 330.600223 440.559554 
L 334.765959 445.600802 
L 336.154537 447.153934 
L 337.543116 450.854198 
L 347.263165 463.186304 
L 350.040322 466.532671 
L 352.817479 469.69564 
L 355.594636 472.664245 
L 361.14895 477.867104 
L 366.703264 482.09805 
L 372.257579 485.24271 
L 376.423314 486.993666 
L 379.200471 487.799833 
L 381.977628 488.536138 
L 386.143364 489.235519 
L 388.920521 489.54637 
L 395.863413 489.893488 
L 400.029149 489.881979 
L 405.583463 489.5542 
L 411.137777 488.936528 
L 418.080669 487.776344 
L 422.246405 486.914305 
L 440.297926 482.78843 
L 444.463661 482.117866 
L 445.85224 481.727217 
L 451.406554 481.09468 
L 461.126603 480.526932 
L 469.458074 480.139135 
L 475.012388 479.472642 
L 477.789545 478.980987 
L 477.789545 478.980987 
" style="fill:none;stroke:#00441b;stroke-linecap:square;stroke-width:2;"/>
   </g>
   <g id="patch_3">
    <path d="M 76.8375 512.64 
L 76.8375 40.32 
" style="fill:none;stroke:#000000;stroke-linecap:square;stroke-linejoin:miter;stroke-width:0.8;"/>
   </g>
   <g id="patch_4">
    <path d="M 496.8825 512.64 
L 496.8825 40.32 
" style="fill:none;stroke:#000000;stroke-linecap:square;stroke-linejoin:miter;stroke-width:0.8;"/>
   </g>
   <g id="patch_5">
    <path d="M 76.8375 512.64 
L 496.8825 512.64 
" style="fill:none;stroke:#000000;stroke-linecap:square;stroke-linejoin:miter;stroke-width:0.8;"/>
   </g>
   <g id="patch_6">
    <path d="M 76.8375 40.32 
L 496.8825 40.32 
" style="fill:none;stroke:#000000;stroke-linecap:square;stroke-linejoin:miter;stroke-width:0.8;"/>
   </g>
   <g id="legend_1">
    <g id="patch_7">
     <path d="M 94.3375 174.308281 
L 249.5875 174.308281 
Q 254.5875 174.308281 254.5875 169.308281 
L 254.5875 57.82 
Q 254.5875 52.82 249.5875 52.82 
L 94.3375 52.82 
Q 89.3375 52.82 89.3375 57.82 
L 89.3375 169.308281 
Q 89.3375 174.308281 94.3375 174.308281 
z
" style="fill:#ffffff;opacity:0.8;stroke:#cccccc;stroke-linejoin:miter;"/>
    </g>
    <g id="line2d_36">
     <path d="M 99.3375 73.066094 
L 149.3375 73.066094 
" style="fill:none;stroke:#aedea7;stroke-linecap:square;stroke-width:2;"/>
    </g>
    <g id="line2d_37"/>
    <g id="text_19">
     <!-- $I_{(24,0)}$ -->
     <defs>
      <path d="M 11.71875 12.40625 
L 22.015625 12.40625 
L 22.015625 4 
L 14.015625 -11.625 
L 7.71875 -11.625 
L 11.71875 4 
z
" id="DejaVuSans-44"/>
     </defs>
     <g transform="translate(169.3375 81.816094)scale(0.25 -0.25)">
      <use transform="translate(0 0.09375)" xlink:href="#DejaVuSans-Oblique-73"/>
      <use transform="translate(29.492188 -16.3125)scale(0.7)" xlink:href="#DejaVuSans-40"/>
      <use transform="translate(56.801758 -16.3125)scale(0.7)" xlink:href="#DejaVuSans-50"/>
      <use transform="translate(101.337891 -16.3125)scale(0.7)" xlink:href="#DejaVuSans-52"/>
      <use transform="translate(145.874023 -16.3125)scale(0.7)" xlink:href="#DejaVuSans-44"/>
      <use transform="translate(181.762695 -16.3125)scale(0.7)" xlink:href="#DejaVuSans-48"/>
      <use transform="translate(226.298828 -16.3125)scale(0.7)" xlink:href="#DejaVuSans-41"/>
     </g>
    </g>
    <g id="line2d_38">
     <path d="M 99.3375 111.062188 
L 149.3375 111.062188 
" style="fill:none;stroke:#37a055;stroke-linecap:square;stroke-width:2;"/>
    </g>
    <g id="line2d_39"/>
    <g id="text_20">
     <!-- $I_{(12,12)}$ -->
     <g transform="translate(169.3375 119.812188)scale(0.25 -0.25)">
      <use transform="translate(0 0.09375)" xlink:href="#DejaVuSans-Oblique-73"/>
      <use transform="translate(29.492188 -16.3125)scale(0.7)" xlink:href="#DejaVuSans-40"/>
      <use transform="translate(56.801758 -16.3125)scale(0.7)" xlink:href="#DejaVuSans-49"/>
      <use transform="translate(101.337891 -16.3125)scale(0.7)" xlink:href="#DejaVuSans-50"/>
      <use transform="translate(145.874023 -16.3125)scale(0.7)" xlink:href="#DejaVuSans-44"/>
      <use transform="translate(181.762695 -16.3125)scale(0.7)" xlink:href="#DejaVuSans-49"/>
      <use transform="translate(226.298828 -16.3125)scale(0.7)" xlink:href="#DejaVuSans-50"/>
      <use transform="translate(270.834961 -16.3125)scale(0.7)" xlink:href="#DejaVuSans-41"/>
     </g>
    </g>
    <g id="line2d_40">
     <path d="M 99.3375 149.058281 
L 149.3375 149.058281 
" style="fill:none;stroke:#00441b;stroke-linecap:square;stroke-width:2;"/>
    </g>
    <g id="line2d_41"/>
    <g id="text_21">
     <!-- $I_{(0,24)}$ -->
     <g transform="translate(169.3375 157.808281)scale(0.25 -0.25)">
      <use transform="translate(0 0.09375)" xlink:href="#DejaVuSans-Oblique-73"/>
      <use transform="translate(29.492188 -16.3125)scale(0.7)" xlink:href="#DejaVuSans-40"/>
      <use transform="translate(56.801758 -16.3125)scale(0.7)" xlink:href="#DejaVuSans-48"/>
      <use transform="translate(101.337891 -16.3125)scale(0.7)" xlink:href="#DejaVuSans-44"/>
      <use transform="translate(137.226562 -16.3125)scale(0.7)" xlink:href="#DejaVuSans-50"/>
      <use transform="translate(181.762695 -16.3125)scale(0.7)" xlink:href="#DejaVuSans-52"/>
      <use transform="translate(226.298828 -16.3125)scale(0.7)" xlink:href="#DejaVuSans-41"/>
     </g>
    </g>
   </g>
  </g>
 </g>
 <defs>
  <clipPath id="p81ac2ba22d">
   <rect height="472.32" width="420.045" x="76.8375" y="40.32"/>
  </clipPath>
 </defs>
</svg>
