<?xml version="1.0" encoding="utf-8" standalone="no"?>
<!DOCTYPE svg PUBLIC "-//W3C//DTD SVG 1.1//EN"
  "http://www.w3.org/Graphics/SVG/1.1/DTD/svg11.dtd">
<!-- Created with matplotlib (https://matplotlib.org/) -->
<svg height="576pt" version="1.1" viewBox="0 0 512.25 576" width="512.25pt" xmlns="http://www.w3.org/2000/svg" xmlns:xlink="http://www.w3.org/1999/xlink">
 <defs>
  <style type="text/css">
*{stroke-linecap:butt;stroke-linejoin:round;}
  </style>
 </defs>
 <g id="figure_1">
  <g id="patch_1">
   <path d="M 0 576 
L 512.25 576 
L 512.25 0 
L 0 0 
z
" style="fill:#ffffff;"/>
  </g>
  <g id="axes_1">
   <g id="patch_2">
    <path d="M 76.8375 512.64 
L 496.8825 512.64 
L 496.8825 40.32 
L 76.8375 40.32 
z
" style="fill:#ffffff;"/>
   </g>
   <g id="matplotlib.axis_1">
    <g id="xtick_1">
     <g id="line2d_1">
      <path clip-path="url(#p76153f9acb)" d="M 95.930455 512.64 
L 95.930455 40.32 
" style="fill:none;stroke:#e6e6e6;stroke-linecap:square;stroke-width:0.8;"/>
     </g>
     <g id="line2d_2">
      <defs>
       <path d="M 0 0 
L 0 3.5 
" id="mbc10ab0705" style="stroke:#000000;stroke-width:0.8;"/>
      </defs>
      <g>
       <use style="stroke:#000000;stroke-width:0.8;" x="95.930455" xlink:href="#mbc10ab0705" y="512.64"/>
      </g>
     </g>
     <g id="text_1">
      <!-- 0 -->
      <defs>
       <path d="M 31.78125 66.40625 
Q 24.171875 66.40625 20.328125 58.90625 
Q 16.5 51.421875 16.5 36.375 
Q 16.5 21.390625 20.328125 13.890625 
Q 24.171875 6.390625 31.78125 6.390625 
Q 39.453125 6.390625 43.28125 13.890625 
Q 47.125 21.390625 47.125 36.375 
Q 47.125 51.421875 43.28125 58.90625 
Q 39.453125 66.40625 31.78125 66.40625 
z
M 31.78125 74.21875 
Q 44.046875 74.21875 50.515625 64.515625 
Q 56.984375 54.828125 56.984375 36.375 
Q 56.984375 17.96875 50.515625 8.265625 
Q 44.046875 -1.421875 31.78125 -1.421875 
Q 19.53125 -1.421875 13.0625 8.265625 
Q 6.59375 17.96875 6.59375 36.375 
Q 6.59375 54.828125 13.0625 64.515625 
Q 19.53125 74.21875 31.78125 74.21875 
z
" id="DejaVuSans-48"/>
      </defs>
      <g transform="translate(91.15858 531.037656)scale(0.15 -0.15)">
       <use xlink:href="#DejaVuSans-48"/>
      </g>
     </g>
    </g>
    <g id="xtick_2">
     <g id="line2d_3">
      <path clip-path="url(#p76153f9acb)" d="M 178.830664 512.64 
L 178.830664 40.32 
" style="fill:none;stroke:#e6e6e6;stroke-linecap:square;stroke-width:0.8;"/>
     </g>
     <g id="line2d_4">
      <g>
       <use style="stroke:#000000;stroke-width:0.8;" x="178.830664" xlink:href="#mbc10ab0705" y="512.64"/>
      </g>
     </g>
     <g id="text_2">
      <!-- 100 -->
      <defs>
       <path d="M 12.40625 8.296875 
L 28.515625 8.296875 
L 28.515625 63.921875 
L 10.984375 60.40625 
L 10.984375 69.390625 
L 28.421875 72.90625 
L 38.28125 72.90625 
L 38.28125 8.296875 
L 54.390625 8.296875 
L 54.390625 0 
L 12.40625 0 
z
" id="DejaVuSans-49"/>
      </defs>
      <g transform="translate(164.515039 531.037656)scale(0.15 -0.15)">
       <use xlink:href="#DejaVuSans-49"/>
       <use x="63.623047" xlink:href="#DejaVuSans-48"/>
       <use x="127.246094" xlink:href="#DejaVuSans-48"/>
      </g>
     </g>
    </g>
    <g id="xtick_3">
     <g id="line2d_5">
      <path clip-path="url(#p76153f9acb)" d="M 261.730874 512.64 
L 261.730874 40.32 
" style="fill:none;stroke:#e6e6e6;stroke-linecap:square;stroke-width:0.8;"/>
     </g>
     <g id="line2d_6">
      <g>
       <use style="stroke:#000000;stroke-width:0.8;" x="261.730874" xlink:href="#mbc10ab0705" y="512.64"/>
      </g>
     </g>
     <g id="text_3">
      <!-- 200 -->
      <defs>
       <path d="M 19.1875 8.296875 
L 53.609375 8.296875 
L 53.609375 0 
L 7.328125 0 
L 7.328125 8.296875 
Q 12.9375 14.109375 22.625 23.890625 
Q 32.328125 33.6875 34.8125 36.53125 
Q 39.546875 41.84375 41.421875 45.53125 
Q 43.3125 49.21875 43.3125 52.78125 
Q 43.3125 58.59375 39.234375 62.25 
Q 35.15625 65.921875 28.609375 65.921875 
Q 23.96875 65.921875 18.8125 64.3125 
Q 13.671875 62.703125 7.8125 59.421875 
L 7.8125 69.390625 
Q 13.765625 71.78125 18.9375 73 
Q 24.125 74.21875 28.421875 74.21875 
Q 39.75 74.21875 46.484375 68.546875 
Q 53.21875 62.890625 53.21875 53.421875 
Q 53.21875 48.921875 51.53125 44.890625 
Q 49.859375 40.875 45.40625 35.40625 
Q 44.1875 33.984375 37.640625 27.21875 
Q 31.109375 20.453125 19.1875 8.296875 
z
" id="DejaVuSans-50"/>
      </defs>
      <g transform="translate(247.415249 531.037656)scale(0.15 -0.15)">
       <use xlink:href="#DejaVuSans-50"/>
       <use x="63.623047" xlink:href="#DejaVuSans-48"/>
       <use x="127.246094" xlink:href="#DejaVuSans-48"/>
      </g>
     </g>
    </g>
    <g id="xtick_4">
     <g id="line2d_7">
      <path clip-path="url(#p76153f9acb)" d="M 344.631084 512.64 
L 344.631084 40.32 
" style="fill:none;stroke:#e6e6e6;stroke-linecap:square;stroke-width:0.8;"/>
     </g>
     <g id="line2d_8">
      <g>
       <use style="stroke:#000000;stroke-width:0.8;" x="344.631084" xlink:href="#mbc10ab0705" y="512.64"/>
      </g>
     </g>
     <g id="text_4">
      <!-- 300 -->
      <defs>
       <path d="M 40.578125 39.3125 
Q 47.65625 37.796875 51.625 33 
Q 55.609375 28.21875 55.609375 21.1875 
Q 55.609375 10.40625 48.1875 4.484375 
Q 40.765625 -1.421875 27.09375 -1.421875 
Q 22.515625 -1.421875 17.65625 -0.515625 
Q 12.796875 0.390625 7.625 2.203125 
L 7.625 11.71875 
Q 11.71875 9.328125 16.59375 8.109375 
Q 21.484375 6.890625 26.8125 6.890625 
Q 36.078125 6.890625 40.9375 10.546875 
Q 45.796875 14.203125 45.796875 21.1875 
Q 45.796875 27.640625 41.28125 31.265625 
Q 36.765625 34.90625 28.71875 34.90625 
L 20.21875 34.90625 
L 20.21875 43.015625 
L 29.109375 43.015625 
Q 36.375 43.015625 40.234375 45.921875 
Q 44.09375 48.828125 44.09375 54.296875 
Q 44.09375 59.90625 40.109375 62.90625 
Q 36.140625 65.921875 28.71875 65.921875 
Q 24.65625 65.921875 20.015625 65.03125 
Q 15.375 64.15625 9.8125 62.3125 
L 9.8125 71.09375 
Q 15.4375 72.65625 20.34375 73.4375 
Q 25.25 74.21875 29.59375 74.21875 
Q 40.828125 74.21875 47.359375 69.109375 
Q 53.90625 64.015625 53.90625 55.328125 
Q 53.90625 49.265625 50.4375 45.09375 
Q 46.96875 40.921875 40.578125 39.3125 
z
" id="DejaVuSans-51"/>
      </defs>
      <g transform="translate(330.315459 531.037656)scale(0.15 -0.15)">
       <use xlink:href="#DejaVuSans-51"/>
       <use x="63.623047" xlink:href="#DejaVuSans-48"/>
       <use x="127.246094" xlink:href="#DejaVuSans-48"/>
      </g>
     </g>
    </g>
    <g id="xtick_5">
     <g id="line2d_9">
      <path clip-path="url(#p76153f9acb)" d="M 427.531293 512.64 
L 427.531293 40.32 
" style="fill:none;stroke:#e6e6e6;stroke-linecap:square;stroke-width:0.8;"/>
     </g>
     <g id="line2d_10">
      <g>
       <use style="stroke:#000000;stroke-width:0.8;" x="427.531293" xlink:href="#mbc10ab0705" y="512.64"/>
      </g>
     </g>
     <g id="text_5">
      <!-- 400 -->
      <defs>
       <path d="M 37.796875 64.3125 
L 12.890625 25.390625 
L 37.796875 25.390625 
z
M 35.203125 72.90625 
L 47.609375 72.90625 
L 47.609375 25.390625 
L 58.015625 25.390625 
L 58.015625 17.1875 
L 47.609375 17.1875 
L 47.609375 0 
L 37.796875 0 
L 37.796875 17.1875 
L 4.890625 17.1875 
L 4.890625 26.703125 
z
" id="DejaVuSans-52"/>
      </defs>
      <g transform="translate(413.215668 531.037656)scale(0.15 -0.15)">
       <use xlink:href="#DejaVuSans-52"/>
       <use x="63.623047" xlink:href="#DejaVuSans-48"/>
       <use x="127.246094" xlink:href="#DejaVuSans-48"/>
      </g>
     </g>
    </g>
    <g id="text_6">
     <!-- $thickness(\AA)$ -->
     <defs>
      <path d="M 42.28125 54.6875 
L 40.921875 47.703125 
L 23 47.703125 
L 17.1875 18.015625 
Q 16.890625 16.359375 16.75 15.234375 
Q 16.609375 14.109375 16.609375 13.484375 
Q 16.609375 10.359375 18.484375 8.9375 
Q 20.359375 7.515625 24.515625 7.515625 
L 33.59375 7.515625 
L 32.078125 0 
L 23.484375 0 
Q 15.484375 0 11.546875 3.125 
Q 7.625 6.25 7.625 12.59375 
Q 7.625 13.71875 7.765625 15.0625 
Q 7.90625 16.40625 8.203125 18.015625 
L 14.015625 47.703125 
L 6.390625 47.703125 
L 7.8125 54.6875 
L 15.28125 54.6875 
L 18.3125 70.21875 
L 27.296875 70.21875 
L 24.3125 54.6875 
z
" id="DejaVuSans-Oblique-116"/>
      <path d="M 55.71875 33.015625 
L 49.3125 0 
L 40.28125 0 
L 46.6875 32.671875 
Q 47.125 34.96875 47.359375 36.71875 
Q 47.609375 38.484375 47.609375 39.5 
Q 47.609375 43.609375 45.015625 45.890625 
Q 42.4375 48.1875 37.796875 48.1875 
Q 30.5625 48.1875 25.265625 43.296875 
Q 19.96875 38.421875 18.40625 30.328125 
L 12.5 0 
L 3.515625 0 
L 18.3125 75.984375 
L 27.296875 75.984375 
L 21.484375 46.09375 
Q 24.90625 50.6875 30.21875 53.34375 
Q 35.546875 56 41.40625 56 
Q 48.640625 56 52.609375 52.09375 
Q 56.59375 48.1875 56.59375 41.109375 
Q 56.59375 39.359375 56.375 37.359375 
Q 56.15625 35.359375 55.71875 33.015625 
z
" id="DejaVuSans-Oblique-104"/>
      <path d="M 18.3125 75.984375 
L 27.296875 75.984375 
L 25.09375 64.59375 
L 16.109375 64.59375 
z
M 14.203125 54.6875 
L 23.1875 54.6875 
L 12.5 0 
L 3.515625 0 
z
" id="DejaVuSans-Oblique-105"/>
      <path d="M 53.609375 52.59375 
L 51.8125 43.703125 
Q 48.578125 46.046875 44.9375 47.21875 
Q 41.3125 48.390625 37.40625 48.390625 
Q 33.109375 48.390625 29.21875 46.875 
Q 25.34375 45.359375 22.703125 42.578125 
Q 18.5 38.328125 16.203125 32.609375 
Q 13.921875 26.90625 13.921875 20.796875 
Q 13.921875 13.421875 17.609375 9.8125 
Q 21.296875 6.203125 28.8125 6.203125 
Q 32.515625 6.203125 36.6875 7.328125 
Q 40.875 8.453125 45.40625 10.6875 
L 43.703125 1.8125 
Q 39.796875 0.203125 35.671875 -0.609375 
Q 31.546875 -1.421875 27.203125 -1.421875 
Q 16.3125 -1.421875 10.453125 4.015625 
Q 4.59375 9.46875 4.59375 19.578125 
Q 4.59375 28.078125 7.640625 35.234375 
Q 10.6875 42.390625 16.703125 48.09375 
Q 20.796875 52 26.3125 54 
Q 31.84375 56 38.375 56 
Q 42.1875 56 45.9375 55.140625 
Q 49.703125 54.296875 53.609375 52.59375 
z
" id="DejaVuSans-Oblique-99"/>
      <path d="M 18.3125 75.984375 
L 27.296875 75.984375 
L 18.703125 31.6875 
L 49.515625 54.6875 
L 61.1875 54.6875 
L 26.8125 28.515625 
L 51.90625 0 
L 41.015625 0 
L 17.671875 26.703125 
L 12.5 0 
L 3.515625 0 
z
" id="DejaVuSans-Oblique-107"/>
      <path d="M 55.71875 33.015625 
L 49.3125 0 
L 40.28125 0 
L 46.6875 32.671875 
Q 47.125 34.96875 47.359375 36.71875 
Q 47.609375 38.484375 47.609375 39.5 
Q 47.609375 43.609375 45.015625 45.890625 
Q 42.4375 48.1875 37.796875 48.1875 
Q 30.5625 48.1875 25.34375 43.375 
Q 20.125 38.578125 18.5 30.328125 
L 12.5 0 
L 3.515625 0 
L 14.109375 54.6875 
L 23.09375 54.6875 
L 21.296875 46.09375 
Q 25.046875 50.828125 30.3125 53.40625 
Q 35.59375 56 41.40625 56 
Q 48.640625 56 52.609375 52.09375 
Q 56.59375 48.1875 56.59375 41.109375 
Q 56.59375 39.359375 56.375 37.359375 
Q 56.15625 35.359375 55.71875 33.015625 
z
" id="DejaVuSans-Oblique-110"/>
      <path d="M 48.09375 32.234375 
Q 48.25 33.015625 48.3125 33.84375 
Q 48.390625 34.671875 48.390625 35.5 
Q 48.390625 41.453125 44.890625 44.921875 
Q 41.40625 48.390625 35.40625 48.390625 
Q 28.71875 48.390625 23.578125 44.15625 
Q 18.453125 39.9375 15.828125 32.171875 
z
M 55.90625 25.203125 
L 14.109375 25.203125 
Q 13.8125 23.34375 13.71875 22.265625 
Q 13.625 21.1875 13.625 20.40625 
Q 13.625 13.625 17.796875 9.90625 
Q 21.96875 6.203125 29.59375 6.203125 
Q 35.453125 6.203125 40.671875 7.515625 
Q 45.90625 8.84375 50.390625 11.375 
L 48.6875 2.484375 
Q 43.84375 0.53125 38.6875 -0.4375 
Q 33.546875 -1.421875 28.21875 -1.421875 
Q 16.84375 -1.421875 10.71875 4.015625 
Q 4.59375 9.46875 4.59375 19.484375 
Q 4.59375 28.03125 7.640625 35.375 
Q 10.6875 42.71875 16.609375 48.484375 
Q 20.40625 52.09375 25.65625 54.046875 
Q 30.90625 56 36.8125 56 
Q 46.09375 56 51.578125 50.4375 
Q 57.078125 44.875 57.078125 35.5 
Q 57.078125 33.25 56.78125 30.6875 
Q 56.5 28.125 55.90625 25.203125 
z
" id="DejaVuSans-Oblique-101"/>
      <path d="M 50 53.078125 
L 48.296875 44.578125 
Q 44.734375 46.53125 40.765625 47.5 
Q 36.8125 48.484375 32.625 48.484375 
Q 25.53125 48.484375 21.453125 46.0625 
Q 17.390625 43.65625 17.390625 39.5 
Q 17.390625 34.671875 26.859375 32.078125 
Q 27.59375 31.890625 27.9375 31.78125 
L 30.8125 30.90625 
Q 39.796875 28.421875 42.796875 25.6875 
Q 45.796875 22.953125 45.796875 18.21875 
Q 45.796875 9.515625 38.890625 4.046875 
Q 31.984375 -1.421875 20.796875 -1.421875 
Q 16.453125 -1.421875 11.671875 -0.578125 
Q 6.890625 0.25 1.125 2 
L 2.875 11.28125 
Q 7.8125 8.734375 12.59375 7.421875 
Q 17.390625 6.109375 21.78125 6.109375 
Q 28.375 6.109375 32.5 8.9375 
Q 36.625 11.765625 36.625 16.109375 
Q 36.625 20.796875 25.78125 23.6875 
L 24.859375 23.921875 
L 21.78125 24.703125 
Q 14.9375 26.515625 11.765625 29.46875 
Q 8.59375 32.421875 8.59375 37.015625 
Q 8.59375 45.75 15.15625 50.875 
Q 21.734375 56 33.015625 56 
Q 37.453125 56 41.671875 55.265625 
Q 45.90625 54.546875 50 53.078125 
z
" id="DejaVuSans-Oblique-115"/>
      <path d="M 31 75.875 
Q 24.46875 64.65625 21.28125 53.65625 
Q 18.109375 42.671875 18.109375 31.390625 
Q 18.109375 20.125 21.3125 9.0625 
Q 24.515625 -2 31 -13.1875 
L 23.1875 -13.1875 
Q 15.875 -1.703125 12.234375 9.375 
Q 8.59375 20.453125 8.59375 31.390625 
Q 8.59375 42.28125 12.203125 53.3125 
Q 15.828125 64.359375 23.1875 75.875 
z
" id="DejaVuSans-40"/>
      <path d="M 49.8125 79.390625 
Q 49.8125 82.46875 47.625 84.640625 
Q 45.453125 86.8125 42.390625 86.8125 
Q 39.265625 86.8125 37.140625 84.6875 
Q 35.015625 82.5625 35.015625 79.390625 
Q 35.015625 76.3125 37.140625 74.15625 
Q 39.265625 72.015625 42.390625 72.015625 
Q 45.453125 72.015625 47.625 74.15625 
Q 49.8125 76.3125 49.8125 79.390625 
z
M 34.421875 68.703125 
Q 31.78125 70.515625 30.390625 73.265625 
Q 29 76.03125 29 79.390625 
Q 29 84.96875 32.90625 88.890625 
Q 36.8125 92.828125 42.390625 92.828125 
Q 47.953125 92.828125 51.875 88.890625 
Q 55.8125 84.96875 55.8125 79.390625 
Q 55.8125 75.53125 54.03125 72.546875 
Q 52.25 69.578125 48.875 67.828125 
L 61.53125 0 
L 51.21875 0 
L 48.1875 18.703125 
L 15.375 18.703125 
L 5.078125 0 
L -5.328125 0 
z
M 40.375 63.1875 
L 19.921875 26.90625 
L 46.6875 26.90625 
z
" id="DejaVuSans-Oblique-197"/>
      <path d="M 8.015625 75.875 
L 15.828125 75.875 
Q 23.140625 64.359375 26.78125 53.3125 
Q 30.421875 42.28125 30.421875 31.390625 
Q 30.421875 20.453125 26.78125 9.375 
Q 23.140625 -1.703125 15.828125 -13.1875 
L 8.015625 -13.1875 
Q 14.5 -2 17.703125 9.0625 
Q 20.90625 20.125 20.90625 31.390625 
Q 20.90625 42.671875 17.703125 53.65625 
Q 14.5 64.65625 8.015625 75.875 
z
" id="DejaVuSans-41"/>
     </defs>
     <g transform="translate(194.01 564.018125)scale(0.3 -0.3)">
      <use transform="translate(0 0.171875)" xlink:href="#DejaVuSans-Oblique-116"/>
      <use transform="translate(39.208984 0.171875)" xlink:href="#DejaVuSans-Oblique-104"/>
      <use transform="translate(102.587891 0.171875)" xlink:href="#DejaVuSans-Oblique-105"/>
      <use transform="translate(130.371094 0.171875)" xlink:href="#DejaVuSans-Oblique-99"/>
      <use transform="translate(185.351562 0.171875)" xlink:href="#DejaVuSans-Oblique-107"/>
      <use transform="translate(243.261719 0.171875)" xlink:href="#DejaVuSans-Oblique-110"/>
      <use transform="translate(306.640625 0.171875)" xlink:href="#DejaVuSans-Oblique-101"/>
      <use transform="translate(368.164062 0.171875)" xlink:href="#DejaVuSans-Oblique-115"/>
      <use transform="translate(420.263672 0.171875)" xlink:href="#DejaVuSans-Oblique-115"/>
      <use transform="translate(472.363281 0.171875)" xlink:href="#DejaVuSans-40"/>
      <use transform="translate(511.376953 0.171875)" xlink:href="#DejaVuSans-Oblique-197"/>
      <use transform="translate(579.785156 0.171875)" xlink:href="#DejaVuSans-41"/>
     </g>
    </g>
   </g>
   <g id="matplotlib.axis_2">
    <g id="ytick_1">
     <g id="line2d_11">
      <path clip-path="url(#p76153f9acb)" d="M 76.8375 491.1751 
L 496.8825 491.1751 
" style="fill:none;stroke:#e6e6e6;stroke-linecap:square;stroke-width:0.8;"/>
     </g>
     <g id="line2d_12">
      <defs>
       <path d="M 0 0 
L -3.5 0 
" id="mef52ab346f" style="stroke:#000000;stroke-width:0.8;"/>
      </defs>
      <g>
       <use style="stroke:#000000;stroke-width:0.8;" x="76.8375" xlink:href="#mef52ab346f" y="491.1751"/>
      </g>
     </g>
     <g id="text_7">
      <!-- 0.00 -->
      <defs>
       <path d="M 10.6875 12.40625 
L 21 12.40625 
L 21 0 
L 10.6875 0 
z
" id="DejaVuSans-46"/>
      </defs>
      <g transform="translate(36.439062 496.873929)scale(0.15 -0.15)">
       <use xlink:href="#DejaVuSans-48"/>
       <use x="63.623047" xlink:href="#DejaVuSans-46"/>
       <use x="95.410156" xlink:href="#DejaVuSans-48"/>
       <use x="159.033203" xlink:href="#DejaVuSans-48"/>
      </g>
     </g>
    </g>
    <g id="ytick_2">
     <g id="line2d_13">
      <path clip-path="url(#p76153f9acb)" d="M 76.8375 429.732507 
L 496.8825 429.732507 
" style="fill:none;stroke:#e6e6e6;stroke-linecap:square;stroke-width:0.8;"/>
     </g>
     <g id="line2d_14">
      <g>
       <use style="stroke:#000000;stroke-width:0.8;" x="76.8375" xlink:href="#mef52ab346f" y="429.732507"/>
      </g>
     </g>
     <g id="text_8">
      <!-- 0.02 -->
      <g transform="translate(36.439062 435.431335)scale(0.15 -0.15)">
       <use xlink:href="#DejaVuSans-48"/>
       <use x="63.623047" xlink:href="#DejaVuSans-46"/>
       <use x="95.410156" xlink:href="#DejaVuSans-48"/>
       <use x="159.033203" xlink:href="#DejaVuSans-50"/>
      </g>
     </g>
    </g>
    <g id="ytick_3">
     <g id="line2d_15">
      <path clip-path="url(#p76153f9acb)" d="M 76.8375 368.289913 
L 496.8825 368.289913 
" style="fill:none;stroke:#e6e6e6;stroke-linecap:square;stroke-width:0.8;"/>
     </g>
     <g id="line2d_16">
      <g>
       <use style="stroke:#000000;stroke-width:0.8;" x="76.8375" xlink:href="#mef52ab346f" y="368.289913"/>
      </g>
     </g>
     <g id="text_9">
      <!-- 0.04 -->
      <g transform="translate(36.439062 373.988742)scale(0.15 -0.15)">
       <use xlink:href="#DejaVuSans-48"/>
       <use x="63.623047" xlink:href="#DejaVuSans-46"/>
       <use x="95.410156" xlink:href="#DejaVuSans-48"/>
       <use x="159.033203" xlink:href="#DejaVuSans-52"/>
      </g>
     </g>
    </g>
    <g id="ytick_4">
     <g id="line2d_17">
      <path clip-path="url(#p76153f9acb)" d="M 76.8375 306.84732 
L 496.8825 306.84732 
" style="fill:none;stroke:#e6e6e6;stroke-linecap:square;stroke-width:0.8;"/>
     </g>
     <g id="line2d_18">
      <g>
       <use style="stroke:#000000;stroke-width:0.8;" x="76.8375" xlink:href="#mef52ab346f" y="306.84732"/>
      </g>
     </g>
     <g id="text_10">
      <!-- 0.06 -->
      <defs>
       <path d="M 33.015625 40.375 
Q 26.375 40.375 22.484375 35.828125 
Q 18.609375 31.296875 18.609375 23.390625 
Q 18.609375 15.53125 22.484375 10.953125 
Q 26.375 6.390625 33.015625 6.390625 
Q 39.65625 6.390625 43.53125 10.953125 
Q 47.40625 15.53125 47.40625 23.390625 
Q 47.40625 31.296875 43.53125 35.828125 
Q 39.65625 40.375 33.015625 40.375 
z
M 52.59375 71.296875 
L 52.59375 62.3125 
Q 48.875 64.0625 45.09375 64.984375 
Q 41.3125 65.921875 37.59375 65.921875 
Q 27.828125 65.921875 22.671875 59.328125 
Q 17.53125 52.734375 16.796875 39.40625 
Q 19.671875 43.65625 24.015625 45.921875 
Q 28.375 48.1875 33.59375 48.1875 
Q 44.578125 48.1875 50.953125 41.515625 
Q 57.328125 34.859375 57.328125 23.390625 
Q 57.328125 12.15625 50.6875 5.359375 
Q 44.046875 -1.421875 33.015625 -1.421875 
Q 20.359375 -1.421875 13.671875 8.265625 
Q 6.984375 17.96875 6.984375 36.375 
Q 6.984375 53.65625 15.1875 63.9375 
Q 23.390625 74.21875 37.203125 74.21875 
Q 40.921875 74.21875 44.703125 73.484375 
Q 48.484375 72.75 52.59375 71.296875 
z
" id="DejaVuSans-54"/>
      </defs>
      <g transform="translate(36.439062 312.546148)scale(0.15 -0.15)">
       <use xlink:href="#DejaVuSans-48"/>
       <use x="63.623047" xlink:href="#DejaVuSans-46"/>
       <use x="95.410156" xlink:href="#DejaVuSans-48"/>
       <use x="159.033203" xlink:href="#DejaVuSans-54"/>
      </g>
     </g>
    </g>
    <g id="ytick_5">
     <g id="line2d_19">
      <path clip-path="url(#p76153f9acb)" d="M 76.8375 245.404727 
L 496.8825 245.404727 
" style="fill:none;stroke:#e6e6e6;stroke-linecap:square;stroke-width:0.8;"/>
     </g>
     <g id="line2d_20">
      <g>
       <use style="stroke:#000000;stroke-width:0.8;" x="76.8375" xlink:href="#mef52ab346f" y="245.404727"/>
      </g>
     </g>
     <g id="text_11">
      <!-- 0.08 -->
      <defs>
       <path d="M 31.78125 34.625 
Q 24.75 34.625 20.71875 30.859375 
Q 16.703125 27.09375 16.703125 20.515625 
Q 16.703125 13.921875 20.71875 10.15625 
Q 24.75 6.390625 31.78125 6.390625 
Q 38.8125 6.390625 42.859375 10.171875 
Q 46.921875 13.96875 46.921875 20.515625 
Q 46.921875 27.09375 42.890625 30.859375 
Q 38.875 34.625 31.78125 34.625 
z
M 21.921875 38.8125 
Q 15.578125 40.375 12.03125 44.71875 
Q 8.5 49.078125 8.5 55.328125 
Q 8.5 64.0625 14.71875 69.140625 
Q 20.953125 74.21875 31.78125 74.21875 
Q 42.671875 74.21875 48.875 69.140625 
Q 55.078125 64.0625 55.078125 55.328125 
Q 55.078125 49.078125 51.53125 44.71875 
Q 48 40.375 41.703125 38.8125 
Q 48.828125 37.15625 52.796875 32.3125 
Q 56.78125 27.484375 56.78125 20.515625 
Q 56.78125 9.90625 50.3125 4.234375 
Q 43.84375 -1.421875 31.78125 -1.421875 
Q 19.734375 -1.421875 13.25 4.234375 
Q 6.78125 9.90625 6.78125 20.515625 
Q 6.78125 27.484375 10.78125 32.3125 
Q 14.796875 37.15625 21.921875 38.8125 
z
M 18.3125 54.390625 
Q 18.3125 48.734375 21.84375 45.5625 
Q 25.390625 42.390625 31.78125 42.390625 
Q 38.140625 42.390625 41.71875 45.5625 
Q 45.3125 48.734375 45.3125 54.390625 
Q 45.3125 60.0625 41.71875 63.234375 
Q 38.140625 66.40625 31.78125 66.40625 
Q 25.390625 66.40625 21.84375 63.234375 
Q 18.3125 60.0625 18.3125 54.390625 
z
" id="DejaVuSans-56"/>
      </defs>
      <g transform="translate(36.439062 251.103555)scale(0.15 -0.15)">
       <use xlink:href="#DejaVuSans-48"/>
       <use x="63.623047" xlink:href="#DejaVuSans-46"/>
       <use x="95.410156" xlink:href="#DejaVuSans-48"/>
       <use x="159.033203" xlink:href="#DejaVuSans-56"/>
      </g>
     </g>
    </g>
    <g id="ytick_6">
     <g id="line2d_21">
      <path clip-path="url(#p76153f9acb)" d="M 76.8375 183.962133 
L 496.8825 183.962133 
" style="fill:none;stroke:#e6e6e6;stroke-linecap:square;stroke-width:0.8;"/>
     </g>
     <g id="line2d_22">
      <g>
       <use style="stroke:#000000;stroke-width:0.8;" x="76.8375" xlink:href="#mef52ab346f" y="183.962133"/>
      </g>
     </g>
     <g id="text_12">
      <!-- 0.10 -->
      <g transform="translate(36.439062 189.660961)scale(0.15 -0.15)">
       <use xlink:href="#DejaVuSans-48"/>
       <use x="63.623047" xlink:href="#DejaVuSans-46"/>
       <use x="95.410156" xlink:href="#DejaVuSans-49"/>
       <use x="159.033203" xlink:href="#DejaVuSans-48"/>
      </g>
     </g>
    </g>
    <g id="ytick_7">
     <g id="line2d_23">
      <path clip-path="url(#p76153f9acb)" d="M 76.8375 122.51954 
L 496.8825 122.51954 
" style="fill:none;stroke:#e6e6e6;stroke-linecap:square;stroke-width:0.8;"/>
     </g>
     <g id="line2d_24">
      <g>
       <use style="stroke:#000000;stroke-width:0.8;" x="76.8375" xlink:href="#mef52ab346f" y="122.51954"/>
      </g>
     </g>
     <g id="text_13">
      <!-- 0.12 -->
      <g transform="translate(36.439062 128.218368)scale(0.15 -0.15)">
       <use xlink:href="#DejaVuSans-48"/>
       <use x="63.623047" xlink:href="#DejaVuSans-46"/>
       <use x="95.410156" xlink:href="#DejaVuSans-49"/>
       <use x="159.033203" xlink:href="#DejaVuSans-50"/>
      </g>
     </g>
    </g>
    <g id="ytick_8">
     <g id="line2d_25">
      <path clip-path="url(#p76153f9acb)" d="M 76.8375 61.076946 
L 496.8825 61.076946 
" style="fill:none;stroke:#e6e6e6;stroke-linecap:square;stroke-width:0.8;"/>
     </g>
     <g id="line2d_26">
      <g>
       <use style="stroke:#000000;stroke-width:0.8;" x="76.8375" xlink:href="#mef52ab346f" y="61.076946"/>
      </g>
     </g>
     <g id="text_14">
      <!-- 0.14 -->
      <g transform="translate(36.439062 66.775774)scale(0.15 -0.15)">
       <use xlink:href="#DejaVuSans-48"/>
       <use x="63.623047" xlink:href="#DejaVuSans-46"/>
       <use x="95.410156" xlink:href="#DejaVuSans-49"/>
       <use x="159.033203" xlink:href="#DejaVuSans-52"/>
      </g>
     </g>
    </g>
    <g id="text_15">
     <!-- $I_{hk}$ -->
     <defs>
      <path d="M 16.890625 72.90625 
L 26.8125 72.90625 
L 12.59375 0 
L 2.6875 0 
z
" id="DejaVuSans-Oblique-73"/>
     </defs>
     <g transform="translate(26.2 294.18)rotate(-90)scale(0.3 -0.3)">
      <use transform="translate(0 0.09375)" xlink:href="#DejaVuSans-Oblique-73"/>
      <use transform="translate(29.492188 -16.3125)scale(0.7)" xlink:href="#DejaVuSans-Oblique-104"/>
      <use transform="translate(73.857422 -16.3125)scale(0.7)" xlink:href="#DejaVuSans-Oblique-107"/>
     </g>
    </g>
   </g>
   <g id="line2d_27">
    <path clip-path="url(#p76153f9acb)" d="M 95.930455 491.145696 
L 97.070332 490.910486 
L 98.21021 490.910486 
L 99.350088 490.43661 
L 100.489966 489.713806 
L 101.629844 488.755419 
L 102.769722 488.755416 
L 103.9096 487.52422 
L 105.049478 486.040415 
L 106.189355 486.040417 
L 107.329233 484.278088 
L 108.469111 482.253268 
L 109.608989 479.986989 
L 110.748867 479.986972 
L 113.028623 474.561625 
L 114.168501 474.561607 
L 116.448256 468.002643 
L 117.588134 464.393871 
L 118.728012 464.393857 
L 121.007768 456.214739 
L 122.147646 451.821262 
L 123.287524 451.821234 
L 125.56728 442.088383 
L 126.707157 442.088742 
L 128.986913 431.29801 
L 130.126791 425.738061 
L 131.266669 425.738081 
L 133.546425 413.634075 
L 134.686303 413.633955 
L 138.105936 394.15613 
L 139.245814 394.156219 
L 141.52557 380.31089 
L 142.665448 380.310132 
L 146.085081 358.812673 
L 147.224959 358.812162 
L 149.504715 344.034961 
L 150.644593 344.035236 
L 154.064227 322.036729 
L 155.204104 322.035853 
L 157.48386 307.532901 
L 158.623738 307.533491 
L 160.903494 293.313496 
L 162.043372 286.8938 
L 163.18325 286.893324 
L 165.463005 273.871089 
L 166.602883 273.871553 
L 168.882639 261.615609 
L 170.022517 256.373026 
L 171.162395 256.373033 
L 173.442151 246.174941 
L 174.582028 246.174761 
L 176.861784 237.142097 
L 178.001662 233.703039 
L 179.14154 233.703455 
L 180.281418 230.057434 
L 181.421296 227.058237 
L 182.561174 227.057211 
L 183.701052 224.058309 
L 184.840929 221.61203 
L 185.980807 220.024434 
L 187.120685 220.025717 
L 188.260563 218.25563 
L 189.400441 217.122845 
L 190.540319 217.122207 
L 191.680197 216.017033 
L 192.820075 215.420745 
L 193.959953 215.760136 
L 196.239708 215.848952 
L 197.379586 216.660207 
L 198.519464 216.660157 
L 199.659342 217.438845 
L 200.79922 218.803871 
L 201.939098 220.984611 
L 203.078976 220.984644 
L 204.218853 222.966242 
L 205.358731 225.58376 
L 206.498609 228.923016 
L 207.638487 228.922619 
L 208.778365 232.033264 
L 209.918243 235.686008 
L 211.058121 235.684491 
L 212.197999 239.278352 
L 213.337877 243.324918 
L 214.477754 248.103384 
L 215.617632 248.10429 
L 216.75751 252.586216 
L 217.897388 257.576188 
L 219.037266 257.57685 
L 221.317022 267.663735 
L 222.4569 273.452815 
L 223.596777 273.453424 
L 225.876533 284.81652 
L 227.016411 284.815833 
L 229.296167 296.442134 
L 230.436045 302.851474 
L 231.575923 302.850843 
L 233.855678 315.263167 
L 234.995556 315.262898 
L 237.275312 327.677394 
L 238.41519 334.280365 
L 239.555068 334.280724 
L 241.834824 347.106517 
L 242.974701 347.106591 
L 246.394335 366.332042 
L 247.534213 366.331579 
L 249.813969 379.080638 
L 250.953847 379.080731 
L 254.37348 397.712337 
L 255.513358 397.71208 
L 257.793114 409.747964 
L 258.932992 409.748166 
L 262.352626 426.787145 
L 263.492503 426.786501 
L 265.772259 437.376989 
L 266.912137 437.377152 
L 270.331771 451.803027 
L 271.471649 451.802856 
L 273.751404 460.405136 
L 274.891282 460.405174 
L 277.171038 467.990953 
L 278.310916 471.446347 
L 279.450794 471.446344 
L 281.73055 477.539288 
L 282.870427 477.539286 
L 285.150183 482.504682 
L 286.290061 484.567488 
L 287.429939 484.567494 
L 288.569817 486.361077 
L 289.709695 487.864265 
L 290.849573 489.092349 
L 291.98945 489.092358 
L 293.129328 490.028821 
L 294.269206 490.685861 
L 295.409084 490.685864 
L 296.548962 491.063998 
L 297.68884 491.170909 
L 298.828718 491.011668 
L 299.968596 491.011668 
L 301.108474 490.588639 
L 302.248351 489.919584 
L 303.388229 489.919587 
L 304.528107 488.998821 
L 305.667985 487.847371 
L 306.807863 486.473818 
L 307.947741 486.473825 
L 309.087619 484.872194 
L 310.227497 483.066664 
L 311.367374 483.066662 
L 313.64713 478.848253 
L 314.787008 476.509768 
L 315.926886 476.509788 
L 318.206642 471.295602 
L 319.34652 471.295571 
L 322.766153 462.492704 
L 323.906031 462.492703 
L 326.185787 456.101528 
L 327.325665 456.101986 
L 330.745299 446.116381 
L 331.885176 446.116487 
L 334.164932 439.152404 
L 335.30481 439.152858 
L 338.724444 428.733973 
L 339.864322 428.733864 
L 342.144077 421.844859 
L 343.283955 421.844651 
L 346.703589 411.961478 
L 347.843467 411.961969 
L 350.123223 405.514616 
L 351.2631 405.513979 
L 353.542856 399.212898 
L 354.682734 396.382941 
L 355.822612 396.383626 
L 358.102368 390.412696 
L 359.242246 390.412888 
L 361.522001 384.524643 
L 362.661879 382.00951 
L 363.801757 382.00926 
L 366.081513 376.531488 
L 367.221391 376.532032 
L 369.501147 371.156878 
L 370.641024 368.906233 
L 371.780902 368.906671 
L 374.060658 364.030298 
L 375.200536 361.93841 
L 376.340414 361.938785 
L 377.480292 359.499713 
L 378.62017 357.359975 
L 379.760047 357.360222 
L 382.039803 352.748211 
L 383.179681 350.854671 
L 384.319559 350.853941 
L 385.459437 348.646594 
L 386.599315 346.753812 
L 387.739193 346.754096 
L 390.018948 342.682937 
L 391.158826 341.132305 
L 392.298704 341.132265 
L 393.438582 339.16889 
L 394.57846 337.619751 
L 395.718338 337.619941 
L 396.858216 335.72568 
L 397.998094 334.152133 
L 399.137972 332.899932 
L 400.277849 332.900382 
L 401.417727 331.354862 
L 402.557605 330.111275 
L 403.697483 330.111362 
L 404.837361 328.718057 
L 405.977239 327.522302 
L 407.117117 326.859043 
L 408.256995 326.859317 
L 409.396872 325.815261 
L 410.53675 325.198054 
L 411.676628 325.198071 
L 412.816506 324.425867 
L 413.956384 323.843927 
L 416.23614 323.840873 
L 417.376018 323.415778 
L 419.655773 323.412631 
L 420.795651 323.278203 
L 421.935529 323.337134 
L 423.075407 324.003419 
L 424.215285 324.00262 
L 425.355163 324.323627 
L 426.495041 325.103319 
L 427.634919 325.104304 
L 428.774796 325.780278 
L 429.914674 326.72716 
L 431.054552 328.21627 
L 432.19443 328.215678 
L 433.334308 329.469654 
L 434.474186 331.122635 
L 435.614064 331.122121 
L 437.89382 334.470127 
L 439.033697 336.76607 
L 440.173575 336.765939 
L 441.313453 338.749184 
L 442.453331 341.174044 
L 443.593209 341.173896 
L 444.733087 343.456392 
L 445.872965 346.015024 
L 447.012843 349.003769 
L 448.15272 349.003929 
L 449.292598 351.809146 
L 450.432476 355.020525 
L 451.572354 355.019609 
L 453.85211 361.490284 
L 454.991988 365.191178 
L 456.131866 365.191072 
L 458.411621 372.549815 
L 459.551499 376.576699 
L 460.691377 376.577078 
L 462.971133 384.604968 
L 464.111011 384.605024 
L 466.390767 392.839422 
L 467.530645 397.213552 
L 468.670522 397.213498 
L 470.950278 405.828194 
L 472.090156 405.828087 
L 475.50979 418.865675 
L 476.649668 418.865036 
L 477.789545 420.904555 
L 477.789545 420.904555 
" style="fill:none;stroke:#004cff;stroke-linecap:square;stroke-width:2;"/>
   </g>
   <g id="line2d_28">
    <path clip-path="url(#p76153f9acb)" d="M 95.930455 491.084882 
L 97.070332 490.727524 
L 98.21021 490.727526 
L 99.350088 489.963636 
L 100.489966 488.882841 
L 101.629844 487.358817 
L 102.769722 487.358823 
L 103.9096 485.546457 
L 105.049478 483.23929 
L 106.189355 483.239295 
L 107.329233 480.688682 
L 109.608989 474.372799 
L 110.748867 474.372806 
L 113.028623 466.546316 
L 114.168501 466.546314 
L 116.448256 457.248205 
L 117.588134 452.017972 
L 118.728012 452.018508 
L 119.86789 446.652412 
L 122.147646 434.838159 
L 123.287524 434.837843 
L 125.56728 421.68098 
L 126.707157 421.681211 
L 130.126791 399.646716 
L 131.266669 399.646489 
L 133.546425 383.723603 
L 134.686303 383.723739 
L 138.105936 358.522297 
L 139.245814 358.521936 
L 141.52557 340.563856 
L 142.665448 340.563955 
L 146.085081 312.382098 
L 147.224959 312.382139 
L 149.504715 293.149318 
L 150.644593 293.148773 
L 154.064227 264.332363 
L 155.204104 264.33297 
L 157.48386 244.851618 
L 158.623738 244.851518 
L 160.903494 225.343167 
L 162.043372 216.035446 
L 163.18325 216.034736 
L 165.463005 197.405338 
L 166.602883 197.404973 
L 168.882639 179.141165 
L 170.022517 171.124848 
L 171.162395 171.12462 
L 172.302273 162.322323 
L 173.442151 154.506607 
L 174.582028 154.50697 
L 175.721906 146.117255 
L 178.001662 131.65753 
L 179.14154 131.656424 
L 181.421296 117.922943 
L 182.561174 117.921743 
L 184.840929 105.077082 
L 185.980807 100.027655 
L 187.120685 100.026864 
L 188.260563 94.335768 
L 189.400441 89.611866 
L 190.540319 89.612157 
L 191.680197 84.505493 
L 192.820075 80.253776 
L 193.959953 76.912277 
L 195.09983 76.912356 
L 196.239708 73.291882 
L 197.379586 70.406712 
L 198.519464 70.405824 
L 199.659342 67.451897 
L 200.79922 65.182147 
L 201.939098 64.008148 
L 203.078976 64.009156 
L 204.218853 62.460675 
L 205.358731 61.789091 
L 206.498609 62.147782 
L 208.778365 62.115681 
L 209.918243 62.982582 
L 211.058121 62.983652 
L 212.197999 63.617618 
L 213.337877 65.137425 
L 214.477754 67.589652 
L 215.617632 67.589741 
L 216.75751 69.840962 
L 217.897388 72.789005 
L 219.037266 72.789808 
L 220.177144 75.75522 
L 221.317022 79.293714 
L 222.4569 84.040102 
L 223.596777 84.040936 
L 224.736655 88.172325 
L 225.876533 93.406552 
L 227.016411 93.405729 
L 228.156289 98.114366 
L 230.436045 110.145254 
L 231.575923 110.144335 
L 233.855678 123.099447 
L 234.995556 123.098495 
L 237.275312 136.960026 
L 238.41519 145.164626 
L 239.555068 145.166416 
L 240.694946 152.596703 
L 241.834824 161.158452 
L 242.974701 161.159811 
L 244.114579 168.948711 
L 246.394335 186.717136 
L 247.534213 186.716315 
L 249.813969 205.012551 
L 250.953847 205.011525 
L 254.37348 233.870267 
L 255.513358 233.871134 
L 257.793114 253.519673 
L 258.932992 253.51949 
L 261.212748 273.15125 
L 262.352626 283.006758 
L 263.492503 283.006334 
L 265.772259 302.868215 
L 266.912137 302.868363 
L 270.331771 332.413592 
L 271.471649 332.413746 
L 273.751404 351.424946 
L 274.891282 351.42506 
L 278.310916 378.333308 
L 279.450794 378.33357 
L 281.73055 395.415411 
L 282.870427 395.414844 
L 285.150183 411.335754 
L 286.290061 419.101721 
L 287.429939 419.101748 
L 290.849573 439.59101 
L 291.98945 439.591238 
L 293.129328 445.926354 
L 294.269206 451.561013 
L 295.409084 451.561034 
L 296.548962 457.090055 
L 298.828718 466.635247 
L 299.968596 466.635269 
L 302.248351 474.477217 
L 303.388229 474.477212 
L 305.667985 480.550511 
L 306.807863 482.837203 
L 307.947741 482.837203 
L 309.087619 484.791865 
L 310.227497 486.182566 
L 311.367374 486.182564 
L 312.507252 487.181727 
L 313.64713 487.664631 
L 315.926886 487.686325 
L 317.066764 487.253389 
L 318.206642 486.314029 
L 319.34652 486.314015 
L 320.486398 484.969337 
L 321.626275 483.076946 
L 322.766153 480.853038 
L 323.906031 480.853024 
L 325.045909 478.04169 
L 326.185787 474.925775 
L 327.325665 474.92578 
L 329.605421 467.254072 
L 330.745299 462.744417 
L 331.885176 462.744438 
L 333.025054 457.998224 
L 334.164932 452.616339 
L 335.30481 452.616214 
L 336.444688 447.121108 
L 338.724444 434.920629 
L 339.864322 434.920616 
L 342.144077 421.377001 
L 343.283955 421.377041 
L 346.703589 398.944536 
L 347.843467 398.944664 
L 350.123223 382.899618 
L 351.2631 382.899141 
L 354.682734 357.927689 
L 355.822612 357.92842 
L 358.102368 340.362031 
L 359.242246 340.362511 
L 362.661879 313.532509 
L 363.801757 313.532436 
L 366.081513 295.60215 
L 367.221391 295.601866 
L 370.641024 269.631026 
L 371.780902 269.629698 
L 374.060658 252.539426 
L 375.200536 244.416669 
L 376.340414 244.417264 
L 378.62017 228.429009 
L 379.760047 228.428595 
L 382.039803 212.971209 
L 383.179681 206.329073 
L 384.319559 206.329282 
L 385.459437 198.955815 
L 386.599315 192.65181 
L 387.739193 192.650846 
L 388.879071 185.752286 
L 391.158826 174.239673 
L 392.298704 174.238251 
L 394.57846 163.536733 
L 395.718338 163.537321 
L 397.998094 153.775452 
L 399.137972 150.149559 
L 400.277849 150.148799 
L 401.417727 145.993451 
L 402.557605 142.823174 
L 403.697483 142.822669 
L 404.837361 139.333269 
L 405.977239 136.653813 
L 407.117117 134.791827 
L 408.256995 134.793208 
L 409.396872 132.723358 
L 410.53675 131.349419 
L 411.676628 131.348422 
L 412.816506 129.987654 
L 413.956384 129.101755 
L 415.096262 129.321144 
L 416.23614 129.319799 
L 417.376018 129.046676 
L 418.515896 129.650808 
L 419.655773 129.650632 
L 420.795651 130.093911 
L 421.935529 131.117436 
L 423.075407 133.168044 
L 424.215285 133.168543 
L 425.355163 134.811395 
L 426.495041 137.308342 
L 427.634919 137.307944 
L 428.774796 139.618999 
L 429.914674 142.593198 
L 431.054552 146.353235 
L 432.19443 146.354174 
L 433.334308 149.922854 
L 434.474186 154.054441 
L 435.614064 154.054304 
L 437.89382 162.648592 
L 439.033697 168.111592 
L 440.173575 168.11187 
L 441.313453 172.916073 
L 442.453331 178.648065 
L 443.593209 178.647712 
L 444.733087 183.894984 
L 447.012843 196.2259 
L 448.15272 196.224549 
L 450.432476 209.126239 
L 451.572354 209.125126 
L 453.85211 222.515435 
L 454.991988 230.086847 
L 456.131866 230.087083 
L 457.271744 236.905251 
L 459.551499 252.072662 
L 460.691377 252.073258 
L 462.971133 267.245634 
L 464.111011 267.246129 
L 467.530645 290.565737 
L 468.670522 290.56709 
L 470.950278 305.994719 
L 472.090156 305.994545 
L 474.369912 321.147593 
L 475.50979 328.663771 
L 476.649668 328.664813 
L 477.789545 335.299809 
L 477.789545 335.299809 
" style="fill:none;stroke:#29ffce;stroke-linecap:square;stroke-width:2;"/>
   </g>
   <g id="line2d_29">
    <path clip-path="url(#p76153f9acb)" d="M 95.930455 491.107022 
L 136.966058 491.02752 
L 144.945204 490.83914 
L 147.224959 490.761251 
L 152.924349 490.462248 
L 160.903494 489.949768 
L 162.043372 489.771939 
L 164.323128 489.664286 
L 165.463005 489.458827 
L 166.602883 489.458827 
L 168.882639 489.094543 
L 170.022517 488.942335 
L 171.162395 488.942337 
L 173.442151 488.495621 
L 174.582028 488.495618 
L 178.001662 487.634336 
L 179.14154 487.634334 
L 180.281418 487.397643 
L 181.421296 487.002296 
L 182.561174 487.002297 
L 183.701052 486.726903 
L 184.840929 486.281384 
L 185.980807 485.966131 
L 187.120685 485.966131 
L 188.260563 485.468206 
L 189.400441 485.107549 
L 190.540319 485.107552 
L 191.680197 484.54962 
L 192.820075 484.142485 
L 193.959953 483.52557 
L 195.09983 483.525565 
L 196.239708 483.068651 
L 197.379586 482.382 
L 198.519464 482.382002 
L 199.659342 481.866099 
L 200.79922 481.112231 
L 201.939098 480.541116 
L 203.078976 480.541095 
L 204.218853 479.719983 
L 205.358731 479.084269 
L 206.498609 478.196312 
L 207.638487 478.196305 
L 208.778365 477.49886 
L 209.918243 476.531796 
L 211.058121 476.531799 
L 212.197999 475.775724 
L 213.337877 474.736272 
L 214.477754 473.922377 
L 215.617632 473.922401 
L 216.75751 472.820385 
L 217.897388 471.934863 
L 219.037266 471.934841 
L 220.177144 470.778592 
L 221.317022 469.825075 
L 222.4569 468.616759 
L 223.596777 468.616734 
L 224.736655 467.606181 
L 225.876533 466.33165 
L 227.016411 466.331691 
L 228.156289 465.265652 
L 229.296167 463.934202 
L 230.436045 462.816997 
L 231.575923 462.817 
L 232.715801 461.439582 
L 233.855678 460.262443 
L 234.995556 460.262444 
L 236.135434 458.848558 
L 237.275312 457.616187 
L 238.41519 456.18187 
L 239.555068 456.181842 
L 240.694946 454.906163 
L 241.834824 453.444489 
L 242.974701 453.444778 
L 244.114579 452.139033 
L 246.394335 449.32231 
L 247.534213 449.322486 
L 249.813969 446.474811 
L 250.953847 446.47448 
L 254.37348 442.175986 
L 255.513358 442.175679 
L 257.793114 439.364487 
L 258.932992 439.364202 
L 262.352626 435.214888 
L 263.492503 435.21513 
L 265.772259 432.50522 
L 266.912137 432.505333 
L 270.331771 428.660276 
L 271.471649 428.660398 
L 272.611526 427.311881 
L 273.751404 426.185632 
L 274.891282 426.185389 
L 276.03116 424.874552 
L 277.171038 423.819069 
L 278.310916 422.547236 
L 279.450794 422.547214 
L 280.590672 421.575661 
L 281.73055 420.338415 
L 282.870427 420.338365 
L 284.010305 419.439155 
L 285.150183 418.229015 
L 286.290061 417.425912 
L 287.429939 417.426456 
L 288.569817 416.238685 
L 289.709695 415.510145 
L 290.849573 414.374272 
L 291.98945 414.37405 
L 293.129328 413.710621 
L 294.269206 412.614402 
L 295.409084 412.61422 
L 296.548962 412.019932 
L 297.68884 410.964236 
L 298.828718 410.464197 
L 299.968596 410.464531 
L 301.108474 409.444742 
L 302.248351 409.015427 
L 303.388229 409.015305 
L 304.528107 408.026344 
L 305.667985 407.659159 
L 306.807863 406.724284 
L 307.947741 406.724422 
L 309.087619 406.400965 
L 310.227497 405.502277 
L 311.367374 405.501739 
L 312.507252 405.215518 
L 313.64713 404.339718 
L 314.787008 404.113282 
L 315.926886 404.113279 
L 317.066764 403.262191 
L 318.206642 403.065918 
L 319.34652 403.066114 
L 320.486398 402.241005 
L 321.626275 402.05448 
L 322.766153 401.270082 
L 323.906031 401.269866 
L 325.045909 401.072837 
L 326.185787 400.296034 
L 327.325665 400.296107 
L 328.465543 400.072104 
L 329.605421 399.303229 
L 330.745299 399.074334 
L 331.885176 399.074156 
L 333.025054 398.294932 
L 334.164932 398.013775 
L 335.30481 398.01455 
L 336.444688 397.23279 
L 337.584566 396.904743 
L 338.724444 396.145933 
L 339.864322 396.145964 
L 341.004199 395.764966 
L 342.144077 394.954635 
L 343.283955 394.954543 
L 344.423833 394.476687 
L 345.563711 393.616199 
L 346.703589 393.067151 
L 347.843467 393.067044 
L 348.983345 392.136456 
L 350.123223 391.471088 
L 351.2631 391.471789 
L 352.402978 390.465013 
L 353.542856 389.672568 
L 354.682734 388.647027 
L 355.822612 388.646851 
L 356.96249 387.714747 
L 358.102368 386.612582 
L 359.242246 386.613063 
L 361.522001 384.344872 
L 362.661879 383.127748 
L 363.801757 383.127466 
L 366.081513 380.518701 
L 367.221391 380.518268 
L 368.361269 379.174498 
L 370.641024 376.274316 
L 371.780902 376.274483 
L 372.92078 374.60284 
L 374.060658 373.129818 
L 375.200536 371.323862 
L 376.340414 371.323806 
L 377.480292 369.77565 
L 378.62017 367.802512 
L 379.760047 367.803249 
L 380.899925 366.163438 
L 382.039803 364.039417 
L 383.179681 362.348634 
L 384.319559 362.34792 
L 385.459437 360.066821 
L 386.599315 358.255057 
L 387.739193 358.255726 
L 388.879071 355.835073 
L 390.018948 353.935194 
L 391.158826 351.392397 
L 392.298704 351.392022 
L 393.438582 349.409292 
L 394.57846 346.695514 
L 395.718338 346.69476 
L 396.858216 344.634876 
L 397.998094 341.814643 
L 399.137972 339.722902 
L 400.277849 339.722997 
L 401.417727 336.807433 
L 402.557605 334.628754 
L 403.697483 334.628046 
L 404.837361 331.616532 
L 405.977239 329.384098 
L 407.117117 326.316447 
L 408.256995 326.31688 
L 409.396872 324.055061 
L 410.53675 320.898269 
L 411.676628 320.897634 
L 412.816506 318.602962 
L 413.956384 315.407937 
L 415.096262 313.11875 
L 416.23614 313.118971 
L 417.376018 309.91611 
L 418.515896 307.584212 
L 419.655773 307.584493 
L 420.795651 304.37924 
L 421.935529 302.038439 
L 423.075407 298.877911 
L 424.215285 298.878216 
L 425.355163 296.573708 
L 426.495041 293.419581 
L 427.634919 293.418918 
L 428.774796 291.126628 
L 429.914674 288.02294 
L 431.054552 285.771856 
L 432.19443 285.7711 
L 433.334308 282.770009 
L 434.474186 280.529374 
L 435.614064 280.529601 
L 436.753942 277.618777 
L 437.89382 275.4056 
L 439.033697 272.624037 
L 440.173575 272.624076 
L 441.313453 270.479513 
L 442.453331 267.765929 
L 443.593209 267.765855 
L 444.733087 265.69459 
L 445.872965 263.089374 
L 447.012843 261.097442 
L 448.15272 261.097747 
L 449.292598 258.65018 
L 450.432476 256.682038 
L 451.572354 256.68243 
L 452.712232 254.383967 
L 454.991988 250.339038 
L 456.131866 250.339078 
L 459.551499 244.798955 
L 460.691377 244.799778 
L 461.831255 242.939601 
L 462.971133 241.310437 
L 464.111011 241.310444 
L 466.390767 238.058138 
L 467.530645 236.631941 
L 468.670522 236.632765 
L 469.8104 235.116305 
L 470.950278 233.84291 
L 472.090156 233.844362 
L 473.230034 232.399327 
L 474.369912 231.256152 
L 475.50979 229.953621 
L 476.649668 229.953662 
L 477.789545 238.031888 
L 477.789545 238.031888 
" style="fill:none;stroke:#ceff29;stroke-linecap:square;stroke-width:2;"/>
   </g>
   <g id="line2d_30">
    <path clip-path="url(#p76153f9acb)" d="M 95.930455 491.156263 
L 99.350088 490.939887 
L 101.629844 490.417874 
L 102.769722 490.417874 
L 105.049478 489.566207 
L 106.189355 489.566204 
L 108.469111 488.37216 
L 109.608989 487.620181 
L 110.748867 487.620181 
L 111.888745 486.844817 
L 113.028623 485.901184 
L 114.168501 485.901178 
L 115.308379 484.958536 
L 117.588134 482.758342 
L 118.728012 482.758359 
L 122.147646 478.802246 
L 123.287524 478.802244 
L 124.427402 477.415903 
L 125.56728 475.831918 
L 126.707157 475.831928 
L 127.847035 474.316083 
L 130.126791 471.036147 
L 131.266669 471.036146 
L 133.546425 467.518065 
L 134.686303 467.518085 
L 138.105936 461.947358 
L 139.245814 461.947368 
L 141.52557 458.16614 
L 142.665448 458.166112 
L 146.085081 452.619585 
L 147.224959 452.61965 
L 148.364837 450.651121 
L 149.504715 448.933556 
L 150.644593 448.933639 
L 151.784471 447.045788 
L 154.064227 443.765687 
L 155.204104 443.765883 
L 157.48386 440.669617 
L 158.623738 440.669472 
L 160.903494 437.851327 
L 162.043372 436.787797 
L 163.18325 436.788119 
L 164.323128 435.563228 
L 165.463005 434.641001 
L 166.602883 434.641739 
L 167.742761 433.64667 
L 168.882639 432.915192 
L 170.022517 432.366922 
L 171.162395 432.367447 
L 172.302273 431.878391 
L 173.442151 431.560896 
L 174.582028 431.5612 
L 175.721906 431.330121 
L 176.861784 431.261788 
L 178.001662 431.476163 
L 179.14154 431.476228 
L 180.281418 431.65966 
L 181.421296 432.050611 
L 182.561174 432.050202 
L 183.701052 432.467087 
L 184.840929 433.028193 
L 185.980807 433.873073 
L 187.120685 433.873024 
L 188.260563 434.615301 
L 189.400441 435.601828 
L 190.540319 435.601856 
L 191.680197 436.500441 
L 193.959953 438.843619 
L 195.09983 438.843565 
L 197.379586 441.388424 
L 198.519464 441.388017 
L 200.79922 444.109217 
L 201.939098 445.741254 
L 203.078976 445.741171 
L 204.218853 447.165147 
L 206.498609 450.467391 
L 207.638487 450.467454 
L 209.918243 453.760239 
L 211.058121 453.760262 
L 214.477754 458.809645 
L 215.617632 458.809641 
L 217.897388 462.074088 
L 219.037266 462.074088 
L 221.317022 465.178055 
L 222.4569 466.702219 
L 223.596777 466.702249 
L 225.876533 469.621921 
L 227.016411 469.621907 
L 230.436045 473.678992 
L 231.575923 473.678999 
L 233.855678 476.06487 
L 234.995556 476.06487 
L 238.41519 479.159727 
L 239.555068 479.159739 
L 241.834824 480.990562 
L 242.974701 480.990563 
L 245.254457 482.571933 
L 246.394335 483.368895 
L 247.534213 483.368903 
L 249.813969 484.693021 
L 250.953847 484.693024 
L 254.37348 486.302504 
L 255.513358 486.302512 
L 257.793114 487.210634 
L 258.932992 487.210635 
L 262.352626 488.312419 
L 263.492503 488.312409 
L 265.772259 488.876728 
L 266.912137 488.876724 
L 270.331771 489.518258 
L 271.471649 489.518262 
L 273.751404 489.848957 
L 274.891282 489.848961 
L 278.310916 490.196261 
L 280.590672 490.264922 
L 284.010305 490.359561 
L 288.569817 490.333534 
L 293.129328 490.08581 
L 294.269206 489.918587 
L 295.409084 489.918588 
L 297.68884 489.506463 
L 298.828718 489.258799 
L 299.968596 489.258801 
L 302.248351 488.584922 
L 303.388229 488.584927 
L 306.807863 487.153404 
L 307.947741 487.153396 
L 309.087619 486.604711 
L 310.227497 485.9211 
L 311.367374 485.921103 
L 312.507252 485.251075 
L 314.787008 483.636103 
L 315.926886 483.63611 
L 318.206642 481.748883 
L 319.34652 481.748884 
L 322.766153 478.388004 
L 323.906031 478.388012 
L 325.045909 477.220991 
L 326.185787 475.871551 
L 327.325665 475.871531 
L 328.465543 474.615776 
L 330.745299 471.818767 
L 331.885176 471.818798 
L 334.164932 468.810705 
L 335.30481 468.810687 
L 338.724444 464.094962 
L 339.864322 464.094953 
L 342.144077 460.918302 
L 343.283955 460.91832 
L 346.703589 456.321492 
L 347.843467 456.321519 
L 348.983345 454.681117 
L 350.123223 453.251502 
L 351.2631 453.251846 
L 353.542856 450.292638 
L 354.682734 448.906585 
L 355.822612 448.906061 
L 358.102368 446.229982 
L 359.242246 446.229554 
L 361.522001 443.750945 
L 362.661879 442.793601 
L 363.801757 442.794285 
L 364.941635 441.675957 
L 366.081513 440.813546 
L 367.221391 440.813281 
L 368.361269 439.875062 
L 369.501147 439.136512 
L 370.641024 438.530998 
L 371.780902 438.531111 
L 374.060658 437.515052 
L 375.200536 437.239 
L 376.340414 437.239107 
L 377.480292 436.897469 
L 378.62017 436.75375 
L 379.760047 436.754366 
L 380.899925 436.551283 
L 382.039803 436.525374 
L 384.319559 436.624616 
L 385.459437 436.688646 
L 386.599315 436.913678 
L 387.739193 436.913068 
L 388.879071 437.087179 
L 391.158826 437.840377 
L 392.298704 437.840644 
L 394.57846 438.724144 
L 395.718338 438.724555 
L 397.998094 439.736262 
L 399.137972 440.439281 
L 400.277849 440.439112 
L 401.417727 441.00579 
L 402.557605 441.746312 
L 403.697483 441.745995 
L 404.837361 442.350342 
L 407.117117 443.939559 
L 408.256995 443.939722 
L 410.53675 445.576268 
L 411.676628 445.576277 
L 413.956384 447.249478 
L 415.096262 448.306494 
L 416.23614 448.306487 
L 417.376018 449.114365 
L 418.515896 450.155784 
L 419.655773 450.155772 
L 420.795651 450.97694 
L 423.075407 452.975021 
L 424.215285 452.975051 
L 426.495041 454.970218 
L 427.634919 454.97026 
L 431.054552 458.151173 
L 432.19443 458.151193 
L 433.334308 459.128457 
L 434.474186 460.334692 
L 435.614064 460.334652 
L 436.753942 461.31764 
L 439.033697 463.598722 
L 440.173575 463.598695 
L 442.453331 465.852573 
L 443.593209 465.852582 
L 447.012843 469.288019 
L 448.15272 469.288005 
L 449.292598 470.322413 
L 450.432476 471.561965 
L 451.572354 471.561958 
L 452.712232 472.575681 
L 454.991988 474.833719 
L 456.131866 474.833715 
L 459.551499 478.141999 
L 460.691377 478.142015 
L 462.971133 480.131156 
L 464.111011 480.13114 
L 467.530645 482.692547 
L 468.670522 482.692545 
L 469.8104 483.499616 
L 470.950278 484.151887 
L 472.090156 484.15191 
L 473.230034 484.797722 
L 475.50979 485.806794 
L 476.649668 485.806796 
L 477.789545 486.392986 
L 477.789545 486.392986 
" style="fill:none;stroke:#ff6800;stroke-linecap:square;stroke-width:2;"/>
   </g>
   <g id="line2d_31">
    <path clip-path="url(#p76153f9acb)" d="M 95.930455 491.164048 
L 99.350088 490.897271 
L 101.629844 490.256345 
L 102.769722 490.256343 
L 105.049478 489.20911 
L 106.189355 489.209109 
L 108.469111 487.74634 
L 109.608989 486.872945 
L 110.748867 486.872947 
L 113.028623 484.794233 
L 114.168501 484.79426 
L 116.448256 482.334413 
L 117.588134 481.006285 
L 118.728012 481.006282 
L 122.147646 476.535951 
L 123.287524 476.535925 
L 125.56728 473.254801 
L 126.707157 473.254796 
L 130.126791 468.142117 
L 131.266669 468.142107 
L 133.546425 464.645138 
L 134.686303 464.645117 
L 138.105936 459.609288 
L 139.245814 459.609265 
L 141.52557 456.430966 
L 142.665448 456.430942 
L 144.945204 453.490872 
L 146.085081 452.221799 
L 147.224959 452.221788 
L 149.504715 449.807226 
L 150.644593 449.807208 
L 152.924349 447.827685 
L 154.064227 447.107008 
L 155.204104 447.107039 
L 156.343982 446.403221 
L 157.48386 445.86266 
L 158.623738 445.862677 
L 160.903494 445.110089 
L 164.323128 444.938175 
L 167.742761 445.196123 
L 168.882639 445.477756 
L 170.022517 445.956638 
L 171.162395 445.956843 
L 172.302273 446.455131 
L 173.442151 447.081968 
L 174.582028 447.081986 
L 176.861784 448.513848 
L 178.001662 449.408252 
L 179.14154 449.408107 
L 181.421296 451.095731 
L 182.561174 451.095629 
L 185.980807 453.599636 
L 187.120685 453.599526 
L 189.400441 455.017494 
L 190.540319 455.016958 
L 192.820075 456.112354 
L 193.959953 456.655488 
L 195.09983 456.65532 
L 197.379586 457.294908 
L 198.519464 457.294572 
L 200.79922 457.572804 
L 201.939098 457.686186 
L 204.218853 457.627482 
L 208.778365 457.231788 
L 209.918243 456.97597 
L 211.058121 456.975726 
L 214.477754 456.055966 
L 215.617632 456.056003 
L 217.897388 455.380548 
L 219.037266 455.380551 
L 221.317022 454.75798 
L 222.4569 454.595248 
L 223.596777 454.595234 
L 225.876533 454.279343 
L 229.296167 454.233275 
L 230.436045 454.426893 
L 231.575923 454.426922 
L 232.715801 454.647672 
L 233.855678 454.99632 
L 234.995556 454.996336 
L 237.275312 455.988769 
L 238.41519 456.74288 
L 239.555068 456.742824 
L 240.694946 457.514816 
L 241.834824 458.479481 
L 242.974701 458.479484 
L 244.114579 459.470609 
L 246.394335 461.903719 
L 247.534213 461.903763 
L 249.813969 464.672441 
L 250.953847 464.672468 
L 253.233602 467.677781 
L 254.37348 469.289522 
L 255.513358 469.289523 
L 257.793114 472.5506 
L 258.932992 472.55059 
L 262.352626 477.362394 
L 263.492503 477.362361 
L 265.772259 480.383049 
L 266.912137 480.383035 
L 269.191893 483.118684 
L 270.331771 484.373697 
L 271.471649 484.373703 
L 273.751404 486.588311 
L 274.891282 486.588324 
L 277.171038 488.346067 
L 278.310916 489.05676 
L 279.450794 489.056747 
L 281.73055 490.114135 
L 282.870427 490.114138 
L 285.150183 490.690964 
L 286.290061 490.809883 
L 289.709695 490.74062 
L 290.849573 490.55792 
L 291.98945 490.557915 
L 294.269206 489.964586 
L 295.409084 489.964589 
L 297.68884 489.123717 
L 298.828718 488.630602 
L 299.968596 488.630601 
L 302.248351 487.556189 
L 303.388229 487.556195 
L 306.807863 485.862619 
L 307.947741 485.86263 
L 310.227497 484.778678 
L 311.367374 484.778666 
L 314.787008 483.327079 
L 315.926886 483.327072 
L 318.206642 482.519793 
L 319.34652 482.519822 
L 322.766153 481.588515 
L 323.906031 481.58852 
L 326.185787 481.141137 
L 327.325665 481.141136 
L 330.745299 480.712158 
L 331.885176 480.71216 
L 334.164932 480.457118 
L 335.30481 480.457092 
L 344.423833 479.567093 
L 346.703589 479.060877 
L 347.843467 479.060892 
L 350.123223 478.330436 
L 351.2631 478.330427 
L 353.542856 477.358322 
L 354.682734 476.817402 
L 355.822612 476.817416 
L 358.102368 475.390389 
L 359.242246 475.390354 
L 360.382123 474.589806 
L 362.661879 472.76065 
L 363.801757 472.760641 
L 366.081513 470.618656 
L 367.221391 470.618655 
L 370.641024 467.093004 
L 371.780902 467.093 
L 375.200536 463.23726 
L 376.340414 463.237257 
L 378.62017 460.460828 
L 379.760047 460.460813 
L 383.179681 456.222768 
L 384.319559 456.222778 
L 386.599315 453.421375 
L 387.739193 453.421163 
L 390.018948 450.667049 
L 391.158826 449.436229 
L 392.298704 449.436344 
L 394.57846 446.960171 
L 395.718338 446.960627 
L 397.998094 444.682197 
L 399.137972 443.74646 
L 400.277849 443.746281 
L 401.417727 442.79916 
L 402.557605 442.009772 
L 403.697483 442.010401 
L 405.977239 440.680562 
L 407.117117 440.346573 
L 408.256995 440.346199 
L 409.396872 439.968837 
L 410.53675 439.848633 
L 413.956384 439.866933 
L 415.096262 440.222592 
L 416.23614 440.222403 
L 417.376018 440.537499 
L 418.515896 441.087545 
L 419.655773 441.087421 
L 421.935529 442.443829 
L 423.075407 443.46981 
L 424.215285 443.470076 
L 425.355163 444.45171 
L 426.495041 445.684276 
L 427.634919 445.684583 
L 429.914674 448.358477 
L 431.054552 449.96756 
L 432.19443 449.967638 
L 434.474186 453.325702 
L 435.614064 453.32563 
L 437.89382 456.917451 
L 439.033697 458.878155 
L 440.173575 458.878214 
L 442.453331 462.707684 
L 443.593209 462.707681 
L 447.012843 468.45015 
L 448.15272 468.450163 
L 450.432476 472.174943 
L 451.572354 472.174947 
L 454.991988 477.321868 
L 456.131866 477.321865 
L 458.411621 480.314815 
L 459.551499 481.666175 
L 460.691377 481.666201 
L 462.971133 483.998966 
L 464.111011 483.998954 
L 466.390767 485.831262 
L 467.530645 486.574603 
L 468.670522 486.574599 
L 470.950278 487.695741 
L 472.090156 487.69573 
L 474.369912 488.371578 
L 475.50979 488.571428 
L 476.649668 488.571443 
L 477.789545 488.259553 
L 477.789545 488.259553 
" style="fill:none;stroke:#800000;stroke-linecap:square;stroke-width:2;"/>
   </g>
   <g id="patch_3">
    <path d="M 76.8375 512.64 
L 76.8375 40.32 
" style="fill:none;stroke:#000000;stroke-linecap:square;stroke-linejoin:miter;stroke-width:0.8;"/>
   </g>
   <g id="patch_4">
    <path d="M 496.8825 512.64 
L 496.8825 40.32 
" style="fill:none;stroke:#000000;stroke-linecap:square;stroke-linejoin:miter;stroke-width:0.8;"/>
   </g>
   <g id="patch_5">
    <path d="M 76.8375 512.64 
L 496.8825 512.64 
" style="fill:none;stroke:#000000;stroke-linecap:square;stroke-linejoin:miter;stroke-width:0.8;"/>
   </g>
   <g id="patch_6">
    <path d="M 76.8375 40.32 
L 496.8825 40.32 
" style="fill:none;stroke:#000000;stroke-linecap:square;stroke-linejoin:miter;stroke-width:0.8;"/>
   </g>
   <g id="legend_1">
    <g id="patch_7">
     <path d="M 94.3375 250.300469 
L 249.5875 250.300469 
Q 254.5875 250.300469 254.5875 245.300469 
L 254.5875 57.82 
Q 254.5875 52.82 249.5875 52.82 
L 94.3375 52.82 
Q 89.3375 52.82 89.3375 57.82 
L 89.3375 245.300469 
Q 89.3375 250.300469 94.3375 250.300469 
z
" style="fill:#ffffff;opacity:0.8;stroke:#cccccc;stroke-linejoin:miter;"/>
    </g>
    <g id="line2d_32">
     <path d="M 99.3375 73.066094 
L 149.3375 73.066094 
" style="fill:none;stroke:#004cff;stroke-linecap:square;stroke-width:2;"/>
    </g>
    <g id="line2d_33"/>
    <g id="text_16">
     <!-- $I_{(20,0)}$ -->
     <defs>
      <path d="M 11.71875 12.40625 
L 22.015625 12.40625 
L 22.015625 4 
L 14.015625 -11.625 
L 7.71875 -11.625 
L 11.71875 4 
z
" id="DejaVuSans-44"/>
     </defs>
     <g transform="translate(169.3375 81.816094)scale(0.25 -0.25)">
      <use transform="translate(0 0.09375)" xlink:href="#DejaVuSans-Oblique-73"/>
      <use transform="translate(29.492188 -16.3125)scale(0.7)" xlink:href="#DejaVuSans-40"/>
      <use transform="translate(56.801758 -16.3125)scale(0.7)" xlink:href="#DejaVuSans-50"/>
      <use transform="translate(101.337891 -16.3125)scale(0.7)" xlink:href="#DejaVuSans-48"/>
      <use transform="translate(145.874023 -16.3125)scale(0.7)" xlink:href="#DejaVuSans-44"/>
      <use transform="translate(181.762695 -16.3125)scale(0.7)" xlink:href="#DejaVuSans-48"/>
      <use transform="translate(226.298828 -16.3125)scale(0.7)" xlink:href="#DejaVuSans-41"/>
     </g>
    </g>
    <g id="line2d_34">
     <path d="M 99.3375 111.062188 
L 149.3375 111.062188 
" style="fill:none;stroke:#29ffce;stroke-linecap:square;stroke-width:2;"/>
    </g>
    <g id="line2d_35"/>
    <g id="text_17">
     <!-- $I_{(10,10)}$ -->
     <g transform="translate(169.3375 119.812188)scale(0.25 -0.25)">
      <use transform="translate(0 0.09375)" xlink:href="#DejaVuSans-Oblique-73"/>
      <use transform="translate(29.492188 -16.3125)scale(0.7)" xlink:href="#DejaVuSans-40"/>
      <use transform="translate(56.801758 -16.3125)scale(0.7)" xlink:href="#DejaVuSans-49"/>
      <use transform="translate(101.337891 -16.3125)scale(0.7)" xlink:href="#DejaVuSans-48"/>
      <use transform="translate(145.874023 -16.3125)scale(0.7)" xlink:href="#DejaVuSans-44"/>
      <use transform="translate(181.762695 -16.3125)scale(0.7)" xlink:href="#DejaVuSans-49"/>
      <use transform="translate(226.298828 -16.3125)scale(0.7)" xlink:href="#DejaVuSans-48"/>
      <use transform="translate(270.834961 -16.3125)scale(0.7)" xlink:href="#DejaVuSans-41"/>
     </g>
    </g>
    <g id="line2d_36">
     <path d="M 99.3375 149.058281 
L 149.3375 149.058281 
" style="fill:none;stroke:#ceff29;stroke-linecap:square;stroke-width:2;"/>
    </g>
    <g id="line2d_37"/>
    <g id="text_18">
     <!-- $I_{(0,20)}$ -->
     <g transform="translate(169.3375 157.808281)scale(0.25 -0.25)">
      <use transform="translate(0 0.09375)" xlink:href="#DejaVuSans-Oblique-73"/>
      <use transform="translate(29.492188 -16.3125)scale(0.7)" xlink:href="#DejaVuSans-40"/>
      <use transform="translate(56.801758 -16.3125)scale(0.7)" xlink:href="#DejaVuSans-48"/>
      <use transform="translate(101.337891 -16.3125)scale(0.7)" xlink:href="#DejaVuSans-44"/>
      <use transform="translate(137.226562 -16.3125)scale(0.7)" xlink:href="#DejaVuSans-50"/>
      <use transform="translate(181.762695 -16.3125)scale(0.7)" xlink:href="#DejaVuSans-48"/>
      <use transform="translate(226.298828 -16.3125)scale(0.7)" xlink:href="#DejaVuSans-41"/>
     </g>
    </g>
    <g id="line2d_38">
     <path d="M 99.3375 187.054375 
L 149.3375 187.054375 
" style="fill:none;stroke:#ff6800;stroke-linecap:square;stroke-width:2;"/>
    </g>
    <g id="line2d_39"/>
    <g id="text_19">
     <!-- $I_{(10,30)}$ -->
     <g transform="translate(169.3375 195.804375)scale(0.25 -0.25)">
      <use transform="translate(0 0.09375)" xlink:href="#DejaVuSans-Oblique-73"/>
      <use transform="translate(29.492188 -16.3125)scale(0.7)" xlink:href="#DejaVuSans-40"/>
      <use transform="translate(56.801758 -16.3125)scale(0.7)" xlink:href="#DejaVuSans-49"/>
      <use transform="translate(101.337891 -16.3125)scale(0.7)" xlink:href="#DejaVuSans-48"/>
      <use transform="translate(145.874023 -16.3125)scale(0.7)" xlink:href="#DejaVuSans-44"/>
      <use transform="translate(181.762695 -16.3125)scale(0.7)" xlink:href="#DejaVuSans-51"/>
      <use transform="translate(226.298828 -16.3125)scale(0.7)" xlink:href="#DejaVuSans-48"/>
      <use transform="translate(270.834961 -16.3125)scale(0.7)" xlink:href="#DejaVuSans-41"/>
     </g>
    </g>
    <g id="line2d_40">
     <path d="M 99.3375 225.050469 
L 149.3375 225.050469 
" style="fill:none;stroke:#800000;stroke-linecap:square;stroke-width:2;"/>
    </g>
    <g id="line2d_41"/>
    <g id="text_20">
     <!-- $I_{(0,40)}$ -->
     <g transform="translate(169.3375 233.800469)scale(0.25 -0.25)">
      <use transform="translate(0 0.09375)" xlink:href="#DejaVuSans-Oblique-73"/>
      <use transform="translate(29.492188 -16.3125)scale(0.7)" xlink:href="#DejaVuSans-40"/>
      <use transform="translate(56.801758 -16.3125)scale(0.7)" xlink:href="#DejaVuSans-48"/>
      <use transform="translate(101.337891 -16.3125)scale(0.7)" xlink:href="#DejaVuSans-44"/>
      <use transform="translate(137.226562 -16.3125)scale(0.7)" xlink:href="#DejaVuSans-52"/>
      <use transform="translate(181.762695 -16.3125)scale(0.7)" xlink:href="#DejaVuSans-48"/>
      <use transform="translate(226.298828 -16.3125)scale(0.7)" xlink:href="#DejaVuSans-41"/>
     </g>
    </g>
   </g>
  </g>
 </g>
 <defs>
  <clipPath id="p76153f9acb">
   <rect height="472.32" width="420.045" x="76.8375" y="40.32"/>
  </clipPath>
 </defs>
</svg>
