<?xml version="1.0" encoding="utf-8" standalone="no"?>
<!DOCTYPE svg PUBLIC "-//W3C//DTD SVG 1.1//EN"
  "http://www.w3.org/Graphics/SVG/1.1/DTD/svg11.dtd">
<!-- Created with matplotlib (https://matplotlib.org/) -->
<svg height="576pt" version="1.1" viewBox="0 0 512.25 576" width="512.25pt" xmlns="http://www.w3.org/2000/svg" xmlns:xlink="http://www.w3.org/1999/xlink">
 <defs>
  <style type="text/css">
*{stroke-linecap:butt;stroke-linejoin:round;}
  </style>
 </defs>
 <g id="figure_1">
  <g id="patch_1">
   <path d="M 0 576 
L 512.25 576 
L 512.25 0 
L 0 0 
z
" style="fill:#ffffff;"/>
  </g>
  <g id="axes_1">
   <g id="patch_2">
    <path d="M 76.8375 512.64 
L 496.8825 512.64 
L 496.8825 40.32 
L 76.8375 40.32 
z
" style="fill:#ffffff;"/>
   </g>
   <g id="matplotlib.axis_1">
    <g id="xtick_1">
     <g id="line2d_1">
      <path clip-path="url(#p273abdfce7)" d="M 94.332718 512.64 
L 94.332718 40.32 
" style="fill:none;stroke:#e6e6e6;stroke-linecap:square;stroke-width:0.8;"/>
     </g>
     <g id="line2d_2">
      <defs>
       <path d="M 0 0 
L 0 3.5 
" id="m81fbb9a1dc" style="stroke:#000000;stroke-width:0.8;"/>
      </defs>
      <g>
       <use style="stroke:#000000;stroke-width:0.8;" x="94.332718" xlink:href="#m81fbb9a1dc" y="512.64"/>
      </g>
     </g>
     <g id="text_1">
      <!-- 0 -->
      <defs>
       <path d="M 31.78125 66.40625 
Q 24.171875 66.40625 20.328125 58.90625 
Q 16.5 51.421875 16.5 36.375 
Q 16.5 21.390625 20.328125 13.890625 
Q 24.171875 6.390625 31.78125 6.390625 
Q 39.453125 6.390625 43.28125 13.890625 
Q 47.125 21.390625 47.125 36.375 
Q 47.125 51.421875 43.28125 58.90625 
Q 39.453125 66.40625 31.78125 66.40625 
z
M 31.78125 74.21875 
Q 44.046875 74.21875 50.515625 64.515625 
Q 56.984375 54.828125 56.984375 36.375 
Q 56.984375 17.96875 50.515625 8.265625 
Q 44.046875 -1.421875 31.78125 -1.421875 
Q 19.53125 -1.421875 13.0625 8.265625 
Q 6.59375 17.96875 6.59375 36.375 
Q 6.59375 54.828125 13.0625 64.515625 
Q 19.53125 74.21875 31.78125 74.21875 
z
" id="DejaVuSans-48"/>
      </defs>
      <g transform="translate(89.560843 531.037656)scale(0.15 -0.15)">
       <use xlink:href="#DejaVuSans-48"/>
      </g>
     </g>
    </g>
    <g id="xtick_2">
     <g id="line2d_3">
      <path clip-path="url(#p273abdfce7)" d="M 177.556844 512.64 
L 177.556844 40.32 
" style="fill:none;stroke:#e6e6e6;stroke-linecap:square;stroke-width:0.8;"/>
     </g>
     <g id="line2d_4">
      <g>
       <use style="stroke:#000000;stroke-width:0.8;" x="177.556844" xlink:href="#m81fbb9a1dc" y="512.64"/>
      </g>
     </g>
     <g id="text_2">
      <!-- 100 -->
      <defs>
       <path d="M 12.40625 8.296875 
L 28.515625 8.296875 
L 28.515625 63.921875 
L 10.984375 60.40625 
L 10.984375 69.390625 
L 28.421875 72.90625 
L 38.28125 72.90625 
L 38.28125 8.296875 
L 54.390625 8.296875 
L 54.390625 0 
L 12.40625 0 
z
" id="DejaVuSans-49"/>
      </defs>
      <g transform="translate(163.241219 531.037656)scale(0.15 -0.15)">
       <use xlink:href="#DejaVuSans-49"/>
       <use x="63.623047" xlink:href="#DejaVuSans-48"/>
       <use x="127.246094" xlink:href="#DejaVuSans-48"/>
      </g>
     </g>
    </g>
    <g id="xtick_3">
     <g id="line2d_5">
      <path clip-path="url(#p273abdfce7)" d="M 260.780971 512.64 
L 260.780971 40.32 
" style="fill:none;stroke:#e6e6e6;stroke-linecap:square;stroke-width:0.8;"/>
     </g>
     <g id="line2d_6">
      <g>
       <use style="stroke:#000000;stroke-width:0.8;" x="260.780971" xlink:href="#m81fbb9a1dc" y="512.64"/>
      </g>
     </g>
     <g id="text_3">
      <!-- 200 -->
      <defs>
       <path d="M 19.1875 8.296875 
L 53.609375 8.296875 
L 53.609375 0 
L 7.328125 0 
L 7.328125 8.296875 
Q 12.9375 14.109375 22.625 23.890625 
Q 32.328125 33.6875 34.8125 36.53125 
Q 39.546875 41.84375 41.421875 45.53125 
Q 43.3125 49.21875 43.3125 52.78125 
Q 43.3125 58.59375 39.234375 62.25 
Q 35.15625 65.921875 28.609375 65.921875 
Q 23.96875 65.921875 18.8125 64.3125 
Q 13.671875 62.703125 7.8125 59.421875 
L 7.8125 69.390625 
Q 13.765625 71.78125 18.9375 73 
Q 24.125 74.21875 28.421875 74.21875 
Q 39.75 74.21875 46.484375 68.546875 
Q 53.21875 62.890625 53.21875 53.421875 
Q 53.21875 48.921875 51.53125 44.890625 
Q 49.859375 40.875 45.40625 35.40625 
Q 44.1875 33.984375 37.640625 27.21875 
Q 31.109375 20.453125 19.1875 8.296875 
z
" id="DejaVuSans-50"/>
      </defs>
      <g transform="translate(246.465346 531.037656)scale(0.15 -0.15)">
       <use xlink:href="#DejaVuSans-50"/>
       <use x="63.623047" xlink:href="#DejaVuSans-48"/>
       <use x="127.246094" xlink:href="#DejaVuSans-48"/>
      </g>
     </g>
    </g>
    <g id="xtick_4">
     <g id="line2d_7">
      <path clip-path="url(#p273abdfce7)" d="M 344.005097 512.64 
L 344.005097 40.32 
" style="fill:none;stroke:#e6e6e6;stroke-linecap:square;stroke-width:0.8;"/>
     </g>
     <g id="line2d_8">
      <g>
       <use style="stroke:#000000;stroke-width:0.8;" x="344.005097" xlink:href="#m81fbb9a1dc" y="512.64"/>
      </g>
     </g>
     <g id="text_4">
      <!-- 300 -->
      <defs>
       <path d="M 40.578125 39.3125 
Q 47.65625 37.796875 51.625 33 
Q 55.609375 28.21875 55.609375 21.1875 
Q 55.609375 10.40625 48.1875 4.484375 
Q 40.765625 -1.421875 27.09375 -1.421875 
Q 22.515625 -1.421875 17.65625 -0.515625 
Q 12.796875 0.390625 7.625 2.203125 
L 7.625 11.71875 
Q 11.71875 9.328125 16.59375 8.109375 
Q 21.484375 6.890625 26.8125 6.890625 
Q 36.078125 6.890625 40.9375 10.546875 
Q 45.796875 14.203125 45.796875 21.1875 
Q 45.796875 27.640625 41.28125 31.265625 
Q 36.765625 34.90625 28.71875 34.90625 
L 20.21875 34.90625 
L 20.21875 43.015625 
L 29.109375 43.015625 
Q 36.375 43.015625 40.234375 45.921875 
Q 44.09375 48.828125 44.09375 54.296875 
Q 44.09375 59.90625 40.109375 62.90625 
Q 36.140625 65.921875 28.71875 65.921875 
Q 24.65625 65.921875 20.015625 65.03125 
Q 15.375 64.15625 9.8125 62.3125 
L 9.8125 71.09375 
Q 15.4375 72.65625 20.34375 73.4375 
Q 25.25 74.21875 29.59375 74.21875 
Q 40.828125 74.21875 47.359375 69.109375 
Q 53.90625 64.015625 53.90625 55.328125 
Q 53.90625 49.265625 50.4375 45.09375 
Q 46.96875 40.921875 40.578125 39.3125 
z
" id="DejaVuSans-51"/>
      </defs>
      <g transform="translate(329.689472 531.037656)scale(0.15 -0.15)">
       <use xlink:href="#DejaVuSans-51"/>
       <use x="63.623047" xlink:href="#DejaVuSans-48"/>
       <use x="127.246094" xlink:href="#DejaVuSans-48"/>
      </g>
     </g>
    </g>
    <g id="xtick_5">
     <g id="line2d_9">
      <path clip-path="url(#p273abdfce7)" d="M 427.229224 512.64 
L 427.229224 40.32 
" style="fill:none;stroke:#e6e6e6;stroke-linecap:square;stroke-width:0.8;"/>
     </g>
     <g id="line2d_10">
      <g>
       <use style="stroke:#000000;stroke-width:0.8;" x="427.229224" xlink:href="#m81fbb9a1dc" y="512.64"/>
      </g>
     </g>
     <g id="text_5">
      <!-- 400 -->
      <defs>
       <path d="M 37.796875 64.3125 
L 12.890625 25.390625 
L 37.796875 25.390625 
z
M 35.203125 72.90625 
L 47.609375 72.90625 
L 47.609375 25.390625 
L 58.015625 25.390625 
L 58.015625 17.1875 
L 47.609375 17.1875 
L 47.609375 0 
L 37.796875 0 
L 37.796875 17.1875 
L 4.890625 17.1875 
L 4.890625 26.703125 
z
" id="DejaVuSans-52"/>
      </defs>
      <g transform="translate(412.913599 531.037656)scale(0.15 -0.15)">
       <use xlink:href="#DejaVuSans-52"/>
       <use x="63.623047" xlink:href="#DejaVuSans-48"/>
       <use x="127.246094" xlink:href="#DejaVuSans-48"/>
      </g>
     </g>
    </g>
    <g id="text_6">
     <!-- $thickness(\AA)$ -->
     <defs>
      <path d="M 42.28125 54.6875 
L 40.921875 47.703125 
L 23 47.703125 
L 17.1875 18.015625 
Q 16.890625 16.359375 16.75 15.234375 
Q 16.609375 14.109375 16.609375 13.484375 
Q 16.609375 10.359375 18.484375 8.9375 
Q 20.359375 7.515625 24.515625 7.515625 
L 33.59375 7.515625 
L 32.078125 0 
L 23.484375 0 
Q 15.484375 0 11.546875 3.125 
Q 7.625 6.25 7.625 12.59375 
Q 7.625 13.71875 7.765625 15.0625 
Q 7.90625 16.40625 8.203125 18.015625 
L 14.015625 47.703125 
L 6.390625 47.703125 
L 7.8125 54.6875 
L 15.28125 54.6875 
L 18.3125 70.21875 
L 27.296875 70.21875 
L 24.3125 54.6875 
z
" id="DejaVuSans-Oblique-116"/>
      <path d="M 55.71875 33.015625 
L 49.3125 0 
L 40.28125 0 
L 46.6875 32.671875 
Q 47.125 34.96875 47.359375 36.71875 
Q 47.609375 38.484375 47.609375 39.5 
Q 47.609375 43.609375 45.015625 45.890625 
Q 42.4375 48.1875 37.796875 48.1875 
Q 30.5625 48.1875 25.265625 43.296875 
Q 19.96875 38.421875 18.40625 30.328125 
L 12.5 0 
L 3.515625 0 
L 18.3125 75.984375 
L 27.296875 75.984375 
L 21.484375 46.09375 
Q 24.90625 50.6875 30.21875 53.34375 
Q 35.546875 56 41.40625 56 
Q 48.640625 56 52.609375 52.09375 
Q 56.59375 48.1875 56.59375 41.109375 
Q 56.59375 39.359375 56.375 37.359375 
Q 56.15625 35.359375 55.71875 33.015625 
z
" id="DejaVuSans-Oblique-104"/>
      <path d="M 18.3125 75.984375 
L 27.296875 75.984375 
L 25.09375 64.59375 
L 16.109375 64.59375 
z
M 14.203125 54.6875 
L 23.1875 54.6875 
L 12.5 0 
L 3.515625 0 
z
" id="DejaVuSans-Oblique-105"/>
      <path d="M 53.609375 52.59375 
L 51.8125 43.703125 
Q 48.578125 46.046875 44.9375 47.21875 
Q 41.3125 48.390625 37.40625 48.390625 
Q 33.109375 48.390625 29.21875 46.875 
Q 25.34375 45.359375 22.703125 42.578125 
Q 18.5 38.328125 16.203125 32.609375 
Q 13.921875 26.90625 13.921875 20.796875 
Q 13.921875 13.421875 17.609375 9.8125 
Q 21.296875 6.203125 28.8125 6.203125 
Q 32.515625 6.203125 36.6875 7.328125 
Q 40.875 8.453125 45.40625 10.6875 
L 43.703125 1.8125 
Q 39.796875 0.203125 35.671875 -0.609375 
Q 31.546875 -1.421875 27.203125 -1.421875 
Q 16.3125 -1.421875 10.453125 4.015625 
Q 4.59375 9.46875 4.59375 19.578125 
Q 4.59375 28.078125 7.640625 35.234375 
Q 10.6875 42.390625 16.703125 48.09375 
Q 20.796875 52 26.3125 54 
Q 31.84375 56 38.375 56 
Q 42.1875 56 45.9375 55.140625 
Q 49.703125 54.296875 53.609375 52.59375 
z
" id="DejaVuSans-Oblique-99"/>
      <path d="M 18.3125 75.984375 
L 27.296875 75.984375 
L 18.703125 31.6875 
L 49.515625 54.6875 
L 61.1875 54.6875 
L 26.8125 28.515625 
L 51.90625 0 
L 41.015625 0 
L 17.671875 26.703125 
L 12.5 0 
L 3.515625 0 
z
" id="DejaVuSans-Oblique-107"/>
      <path d="M 55.71875 33.015625 
L 49.3125 0 
L 40.28125 0 
L 46.6875 32.671875 
Q 47.125 34.96875 47.359375 36.71875 
Q 47.609375 38.484375 47.609375 39.5 
Q 47.609375 43.609375 45.015625 45.890625 
Q 42.4375 48.1875 37.796875 48.1875 
Q 30.5625 48.1875 25.34375 43.375 
Q 20.125 38.578125 18.5 30.328125 
L 12.5 0 
L 3.515625 0 
L 14.109375 54.6875 
L 23.09375 54.6875 
L 21.296875 46.09375 
Q 25.046875 50.828125 30.3125 53.40625 
Q 35.59375 56 41.40625 56 
Q 48.640625 56 52.609375 52.09375 
Q 56.59375 48.1875 56.59375 41.109375 
Q 56.59375 39.359375 56.375 37.359375 
Q 56.15625 35.359375 55.71875 33.015625 
z
" id="DejaVuSans-Oblique-110"/>
      <path d="M 48.09375 32.234375 
Q 48.25 33.015625 48.3125 33.84375 
Q 48.390625 34.671875 48.390625 35.5 
Q 48.390625 41.453125 44.890625 44.921875 
Q 41.40625 48.390625 35.40625 48.390625 
Q 28.71875 48.390625 23.578125 44.15625 
Q 18.453125 39.9375 15.828125 32.171875 
z
M 55.90625 25.203125 
L 14.109375 25.203125 
Q 13.8125 23.34375 13.71875 22.265625 
Q 13.625 21.1875 13.625 20.40625 
Q 13.625 13.625 17.796875 9.90625 
Q 21.96875 6.203125 29.59375 6.203125 
Q 35.453125 6.203125 40.671875 7.515625 
Q 45.90625 8.84375 50.390625 11.375 
L 48.6875 2.484375 
Q 43.84375 0.53125 38.6875 -0.4375 
Q 33.546875 -1.421875 28.21875 -1.421875 
Q 16.84375 -1.421875 10.71875 4.015625 
Q 4.59375 9.46875 4.59375 19.484375 
Q 4.59375 28.03125 7.640625 35.375 
Q 10.6875 42.71875 16.609375 48.484375 
Q 20.40625 52.09375 25.65625 54.046875 
Q 30.90625 56 36.8125 56 
Q 46.09375 56 51.578125 50.4375 
Q 57.078125 44.875 57.078125 35.5 
Q 57.078125 33.25 56.78125 30.6875 
Q 56.5 28.125 55.90625 25.203125 
z
" id="DejaVuSans-Oblique-101"/>
      <path d="M 50 53.078125 
L 48.296875 44.578125 
Q 44.734375 46.53125 40.765625 47.5 
Q 36.8125 48.484375 32.625 48.484375 
Q 25.53125 48.484375 21.453125 46.0625 
Q 17.390625 43.65625 17.390625 39.5 
Q 17.390625 34.671875 26.859375 32.078125 
Q 27.59375 31.890625 27.9375 31.78125 
L 30.8125 30.90625 
Q 39.796875 28.421875 42.796875 25.6875 
Q 45.796875 22.953125 45.796875 18.21875 
Q 45.796875 9.515625 38.890625 4.046875 
Q 31.984375 -1.421875 20.796875 -1.421875 
Q 16.453125 -1.421875 11.671875 -0.578125 
Q 6.890625 0.25 1.125 2 
L 2.875 11.28125 
Q 7.8125 8.734375 12.59375 7.421875 
Q 17.390625 6.109375 21.78125 6.109375 
Q 28.375 6.109375 32.5 8.9375 
Q 36.625 11.765625 36.625 16.109375 
Q 36.625 20.796875 25.78125 23.6875 
L 24.859375 23.921875 
L 21.78125 24.703125 
Q 14.9375 26.515625 11.765625 29.46875 
Q 8.59375 32.421875 8.59375 37.015625 
Q 8.59375 45.75 15.15625 50.875 
Q 21.734375 56 33.015625 56 
Q 37.453125 56 41.671875 55.265625 
Q 45.90625 54.546875 50 53.078125 
z
" id="DejaVuSans-Oblique-115"/>
      <path d="M 31 75.875 
Q 24.46875 64.65625 21.28125 53.65625 
Q 18.109375 42.671875 18.109375 31.390625 
Q 18.109375 20.125 21.3125 9.0625 
Q 24.515625 -2 31 -13.1875 
L 23.1875 -13.1875 
Q 15.875 -1.703125 12.234375 9.375 
Q 8.59375 20.453125 8.59375 31.390625 
Q 8.59375 42.28125 12.203125 53.3125 
Q 15.828125 64.359375 23.1875 75.875 
z
" id="DejaVuSans-40"/>
      <path d="M 49.8125 79.390625 
Q 49.8125 82.46875 47.625 84.640625 
Q 45.453125 86.8125 42.390625 86.8125 
Q 39.265625 86.8125 37.140625 84.6875 
Q 35.015625 82.5625 35.015625 79.390625 
Q 35.015625 76.3125 37.140625 74.15625 
Q 39.265625 72.015625 42.390625 72.015625 
Q 45.453125 72.015625 47.625 74.15625 
Q 49.8125 76.3125 49.8125 79.390625 
z
M 34.421875 68.703125 
Q 31.78125 70.515625 30.390625 73.265625 
Q 29 76.03125 29 79.390625 
Q 29 84.96875 32.90625 88.890625 
Q 36.8125 92.828125 42.390625 92.828125 
Q 47.953125 92.828125 51.875 88.890625 
Q 55.8125 84.96875 55.8125 79.390625 
Q 55.8125 75.53125 54.03125 72.546875 
Q 52.25 69.578125 48.875 67.828125 
L 61.53125 0 
L 51.21875 0 
L 48.1875 18.703125 
L 15.375 18.703125 
L 5.078125 0 
L -5.328125 0 
z
M 40.375 63.1875 
L 19.921875 26.90625 
L 46.6875 26.90625 
z
" id="DejaVuSans-Oblique-197"/>
      <path d="M 8.015625 75.875 
L 15.828125 75.875 
Q 23.140625 64.359375 26.78125 53.3125 
Q 30.421875 42.28125 30.421875 31.390625 
Q 30.421875 20.453125 26.78125 9.375 
Q 23.140625 -1.703125 15.828125 -13.1875 
L 8.015625 -13.1875 
Q 14.5 -2 17.703125 9.0625 
Q 20.90625 20.125 20.90625 31.390625 
Q 20.90625 42.671875 17.703125 53.65625 
Q 14.5 64.65625 8.015625 75.875 
z
" id="DejaVuSans-41"/>
     </defs>
     <g transform="translate(194.01 564.018125)scale(0.3 -0.3)">
      <use transform="translate(0 0.171875)" xlink:href="#DejaVuSans-Oblique-116"/>
      <use transform="translate(39.208984 0.171875)" xlink:href="#DejaVuSans-Oblique-104"/>
      <use transform="translate(102.587891 0.171875)" xlink:href="#DejaVuSans-Oblique-105"/>
      <use transform="translate(130.371094 0.171875)" xlink:href="#DejaVuSans-Oblique-99"/>
      <use transform="translate(185.351562 0.171875)" xlink:href="#DejaVuSans-Oblique-107"/>
      <use transform="translate(243.261719 0.171875)" xlink:href="#DejaVuSans-Oblique-110"/>
      <use transform="translate(306.640625 0.171875)" xlink:href="#DejaVuSans-Oblique-101"/>
      <use transform="translate(368.164062 0.171875)" xlink:href="#DejaVuSans-Oblique-115"/>
      <use transform="translate(420.263672 0.171875)" xlink:href="#DejaVuSans-Oblique-115"/>
      <use transform="translate(472.363281 0.171875)" xlink:href="#DejaVuSans-40"/>
      <use transform="translate(511.376953 0.171875)" xlink:href="#DejaVuSans-Oblique-197"/>
      <use transform="translate(579.785156 0.171875)" xlink:href="#DejaVuSans-41"/>
     </g>
    </g>
   </g>
   <g id="matplotlib.axis_2">
    <g id="ytick_1">
     <g id="line2d_11">
      <path clip-path="url(#p273abdfce7)" d="M 76.8375 491.170909 
L 496.8825 491.170909 
" style="fill:none;stroke:#e6e6e6;stroke-linecap:square;stroke-width:0.8;"/>
     </g>
     <g id="line2d_12">
      <defs>
       <path d="M 0 0 
L -3.5 0 
" id="m9a5b9a3d72" style="stroke:#000000;stroke-width:0.8;"/>
      </defs>
      <g>
       <use style="stroke:#000000;stroke-width:0.8;" x="76.8375" xlink:href="#m9a5b9a3d72" y="491.170909"/>
      </g>
     </g>
     <g id="text_7">
      <!-- 0.00 -->
      <defs>
       <path d="M 10.6875 12.40625 
L 21 12.40625 
L 21 0 
L 10.6875 0 
z
" id="DejaVuSans-46"/>
      </defs>
      <g transform="translate(36.439062 496.869737)scale(0.15 -0.15)">
       <use xlink:href="#DejaVuSans-48"/>
       <use x="63.623047" xlink:href="#DejaVuSans-46"/>
       <use x="95.410156" xlink:href="#DejaVuSans-48"/>
       <use x="159.033203" xlink:href="#DejaVuSans-48"/>
      </g>
     </g>
    </g>
    <g id="ytick_2">
     <g id="line2d_13">
      <path clip-path="url(#p273abdfce7)" d="M 76.8375 428.472434 
L 496.8825 428.472434 
" style="fill:none;stroke:#e6e6e6;stroke-linecap:square;stroke-width:0.8;"/>
     </g>
     <g id="line2d_14">
      <g>
       <use style="stroke:#000000;stroke-width:0.8;" x="76.8375" xlink:href="#m9a5b9a3d72" y="428.472434"/>
      </g>
     </g>
     <g id="text_8">
      <!-- 0.02 -->
      <g transform="translate(36.439062 434.171262)scale(0.15 -0.15)">
       <use xlink:href="#DejaVuSans-48"/>
       <use x="63.623047" xlink:href="#DejaVuSans-46"/>
       <use x="95.410156" xlink:href="#DejaVuSans-48"/>
       <use x="159.033203" xlink:href="#DejaVuSans-50"/>
      </g>
     </g>
    </g>
    <g id="ytick_3">
     <g id="line2d_15">
      <path clip-path="url(#p273abdfce7)" d="M 76.8375 365.773959 
L 496.8825 365.773959 
" style="fill:none;stroke:#e6e6e6;stroke-linecap:square;stroke-width:0.8;"/>
     </g>
     <g id="line2d_16">
      <g>
       <use style="stroke:#000000;stroke-width:0.8;" x="76.8375" xlink:href="#m9a5b9a3d72" y="365.773959"/>
      </g>
     </g>
     <g id="text_9">
      <!-- 0.04 -->
      <g transform="translate(36.439062 371.472787)scale(0.15 -0.15)">
       <use xlink:href="#DejaVuSans-48"/>
       <use x="63.623047" xlink:href="#DejaVuSans-46"/>
       <use x="95.410156" xlink:href="#DejaVuSans-48"/>
       <use x="159.033203" xlink:href="#DejaVuSans-52"/>
      </g>
     </g>
    </g>
    <g id="ytick_4">
     <g id="line2d_17">
      <path clip-path="url(#p273abdfce7)" d="M 76.8375 303.075484 
L 496.8825 303.075484 
" style="fill:none;stroke:#e6e6e6;stroke-linecap:square;stroke-width:0.8;"/>
     </g>
     <g id="line2d_18">
      <g>
       <use style="stroke:#000000;stroke-width:0.8;" x="76.8375" xlink:href="#m9a5b9a3d72" y="303.075484"/>
      </g>
     </g>
     <g id="text_10">
      <!-- 0.06 -->
      <defs>
       <path d="M 33.015625 40.375 
Q 26.375 40.375 22.484375 35.828125 
Q 18.609375 31.296875 18.609375 23.390625 
Q 18.609375 15.53125 22.484375 10.953125 
Q 26.375 6.390625 33.015625 6.390625 
Q 39.65625 6.390625 43.53125 10.953125 
Q 47.40625 15.53125 47.40625 23.390625 
Q 47.40625 31.296875 43.53125 35.828125 
Q 39.65625 40.375 33.015625 40.375 
z
M 52.59375 71.296875 
L 52.59375 62.3125 
Q 48.875 64.0625 45.09375 64.984375 
Q 41.3125 65.921875 37.59375 65.921875 
Q 27.828125 65.921875 22.671875 59.328125 
Q 17.53125 52.734375 16.796875 39.40625 
Q 19.671875 43.65625 24.015625 45.921875 
Q 28.375 48.1875 33.59375 48.1875 
Q 44.578125 48.1875 50.953125 41.515625 
Q 57.328125 34.859375 57.328125 23.390625 
Q 57.328125 12.15625 50.6875 5.359375 
Q 44.046875 -1.421875 33.015625 -1.421875 
Q 20.359375 -1.421875 13.671875 8.265625 
Q 6.984375 17.96875 6.984375 36.375 
Q 6.984375 53.65625 15.1875 63.9375 
Q 23.390625 74.21875 37.203125 74.21875 
Q 40.921875 74.21875 44.703125 73.484375 
Q 48.484375 72.75 52.59375 71.296875 
z
" id="DejaVuSans-54"/>
      </defs>
      <g transform="translate(36.439062 308.774312)scale(0.15 -0.15)">
       <use xlink:href="#DejaVuSans-48"/>
       <use x="63.623047" xlink:href="#DejaVuSans-46"/>
       <use x="95.410156" xlink:href="#DejaVuSans-48"/>
       <use x="159.033203" xlink:href="#DejaVuSans-54"/>
      </g>
     </g>
    </g>
    <g id="ytick_5">
     <g id="line2d_19">
      <path clip-path="url(#p273abdfce7)" d="M 76.8375 240.377009 
L 496.8825 240.377009 
" style="fill:none;stroke:#e6e6e6;stroke-linecap:square;stroke-width:0.8;"/>
     </g>
     <g id="line2d_20">
      <g>
       <use style="stroke:#000000;stroke-width:0.8;" x="76.8375" xlink:href="#m9a5b9a3d72" y="240.377009"/>
      </g>
     </g>
     <g id="text_11">
      <!-- 0.08 -->
      <defs>
       <path d="M 31.78125 34.625 
Q 24.75 34.625 20.71875 30.859375 
Q 16.703125 27.09375 16.703125 20.515625 
Q 16.703125 13.921875 20.71875 10.15625 
Q 24.75 6.390625 31.78125 6.390625 
Q 38.8125 6.390625 42.859375 10.171875 
Q 46.921875 13.96875 46.921875 20.515625 
Q 46.921875 27.09375 42.890625 30.859375 
Q 38.875 34.625 31.78125 34.625 
z
M 21.921875 38.8125 
Q 15.578125 40.375 12.03125 44.71875 
Q 8.5 49.078125 8.5 55.328125 
Q 8.5 64.0625 14.71875 69.140625 
Q 20.953125 74.21875 31.78125 74.21875 
Q 42.671875 74.21875 48.875 69.140625 
Q 55.078125 64.0625 55.078125 55.328125 
Q 55.078125 49.078125 51.53125 44.71875 
Q 48 40.375 41.703125 38.8125 
Q 48.828125 37.15625 52.796875 32.3125 
Q 56.78125 27.484375 56.78125 20.515625 
Q 56.78125 9.90625 50.3125 4.234375 
Q 43.84375 -1.421875 31.78125 -1.421875 
Q 19.734375 -1.421875 13.25 4.234375 
Q 6.78125 9.90625 6.78125 20.515625 
Q 6.78125 27.484375 10.78125 32.3125 
Q 14.796875 37.15625 21.921875 38.8125 
z
M 18.3125 54.390625 
Q 18.3125 48.734375 21.84375 45.5625 
Q 25.390625 42.390625 31.78125 42.390625 
Q 38.140625 42.390625 41.71875 45.5625 
Q 45.3125 48.734375 45.3125 54.390625 
Q 45.3125 60.0625 41.71875 63.234375 
Q 38.140625 66.40625 31.78125 66.40625 
Q 25.390625 66.40625 21.84375 63.234375 
Q 18.3125 60.0625 18.3125 54.390625 
z
" id="DejaVuSans-56"/>
      </defs>
      <g transform="translate(36.439062 246.075837)scale(0.15 -0.15)">
       <use xlink:href="#DejaVuSans-48"/>
       <use x="63.623047" xlink:href="#DejaVuSans-46"/>
       <use x="95.410156" xlink:href="#DejaVuSans-48"/>
       <use x="159.033203" xlink:href="#DejaVuSans-56"/>
      </g>
     </g>
    </g>
    <g id="ytick_6">
     <g id="line2d_21">
      <path clip-path="url(#p273abdfce7)" d="M 76.8375 177.678534 
L 496.8825 177.678534 
" style="fill:none;stroke:#e6e6e6;stroke-linecap:square;stroke-width:0.8;"/>
     </g>
     <g id="line2d_22">
      <g>
       <use style="stroke:#000000;stroke-width:0.8;" x="76.8375" xlink:href="#m9a5b9a3d72" y="177.678534"/>
      </g>
     </g>
     <g id="text_12">
      <!-- 0.10 -->
      <g transform="translate(36.439062 183.377362)scale(0.15 -0.15)">
       <use xlink:href="#DejaVuSans-48"/>
       <use x="63.623047" xlink:href="#DejaVuSans-46"/>
       <use x="95.410156" xlink:href="#DejaVuSans-49"/>
       <use x="159.033203" xlink:href="#DejaVuSans-48"/>
      </g>
     </g>
    </g>
    <g id="ytick_7">
     <g id="line2d_23">
      <path clip-path="url(#p273abdfce7)" d="M 76.8375 114.980059 
L 496.8825 114.980059 
" style="fill:none;stroke:#e6e6e6;stroke-linecap:square;stroke-width:0.8;"/>
     </g>
     <g id="line2d_24">
      <g>
       <use style="stroke:#000000;stroke-width:0.8;" x="76.8375" xlink:href="#m9a5b9a3d72" y="114.980059"/>
      </g>
     </g>
     <g id="text_13">
      <!-- 0.12 -->
      <g transform="translate(36.439062 120.678887)scale(0.15 -0.15)">
       <use xlink:href="#DejaVuSans-48"/>
       <use x="63.623047" xlink:href="#DejaVuSans-46"/>
       <use x="95.410156" xlink:href="#DejaVuSans-49"/>
       <use x="159.033203" xlink:href="#DejaVuSans-50"/>
      </g>
     </g>
    </g>
    <g id="ytick_8">
     <g id="line2d_25">
      <path clip-path="url(#p273abdfce7)" d="M 76.8375 52.281584 
L 496.8825 52.281584 
" style="fill:none;stroke:#e6e6e6;stroke-linecap:square;stroke-width:0.8;"/>
     </g>
     <g id="line2d_26">
      <g>
       <use style="stroke:#000000;stroke-width:0.8;" x="76.8375" xlink:href="#m9a5b9a3d72" y="52.281584"/>
      </g>
     </g>
     <g id="text_14">
      <!-- 0.14 -->
      <g transform="translate(36.439062 57.980412)scale(0.15 -0.15)">
       <use xlink:href="#DejaVuSans-48"/>
       <use x="63.623047" xlink:href="#DejaVuSans-46"/>
       <use x="95.410156" xlink:href="#DejaVuSans-49"/>
       <use x="159.033203" xlink:href="#DejaVuSans-52"/>
      </g>
     </g>
    </g>
    <g id="text_15">
     <!-- $I_{hk}$ -->
     <defs>
      <path d="M 16.890625 72.90625 
L 26.8125 72.90625 
L 12.59375 0 
L 2.6875 0 
z
" id="DejaVuSans-Oblique-73"/>
     </defs>
     <g transform="translate(26.2 294.18)rotate(-90)scale(0.3 -0.3)">
      <use transform="translate(0 0.09375)" xlink:href="#DejaVuSans-Oblique-73"/>
      <use transform="translate(29.492188 -16.3125)scale(0.7)" xlink:href="#DejaVuSans-Oblique-104"/>
      <use transform="translate(73.857422 -16.3125)scale(0.7)" xlink:href="#DejaVuSans-Oblique-107"/>
     </g>
    </g>
   </g>
   <g id="line2d_27">
    <path clip-path="url(#p273abdfce7)" d="M 95.930455 491.050542 
L 97.528191 490.689606 
L 99.125928 490.078247 
L 100.723665 489.215555 
L 102.321402 488.09076 
L 103.919138 486.7003 
L 105.516875 485.040474 
L 107.114612 483.099604 
L 108.712349 480.888298 
L 110.310086 478.378961 
L 111.907822 475.603595 
L 113.505559 472.513897 
L 115.103296 469.16962 
L 118.298769 461.589769 
L 121.494243 452.888915 
L 124.689717 443.093526 
L 127.88519 432.236313 
L 131.080664 420.394492 
L 135.873874 400.862056 
L 139.069348 386.963885 
L 142.264821 372.446642 
L 145.460295 357.435534 
L 150.253505 334.672582 
L 155.046715 311.483804 
L 164.633136 268.323814 
L 171.024083 243.928684 
L 172.62182 239.020025 
L 174.219557 233.692396 
L 175.817294 229.533625 
L 177.41503 224.969853 
L 179.012767 221.593075 
L 180.610504 217.756575 
L 182.208241 215.180165 
L 183.805978 212.103895 
L 185.403714 210.333079 
L 187.001451 208.030028 
L 188.599188 207.048882 
L 190.196925 205.520198 
L 191.794661 205.348801 
L 193.392398 204.589059 
L 194.990135 205.199406 
L 196.587872 205.241216 
L 198.185609 206.658958 
L 199.783345 207.502262 
L 201.381082 209.69425 
L 202.978819 211.317812 
L 204.576556 214.288022 
L 206.174293 216.659784 
L 207.772029 220.345822 
L 209.369766 223.419457 
L 210.967503 227.766029 
L 212.56524 231.491364 
L 214.162976 236.434877 
L 215.760713 240.772273 
L 217.35845 246.235102 
L 218.956187 251.086378 
L 220.553924 257.040232 
L 222.15166 262.340843 
L 223.749397 268.685683 
L 225.347134 274.346153 
L 226.944871 280.979424 
L 228.542607 286.930378 
L 230.140344 293.796581 
L 231.738081 299.972798 
L 233.335818 307.008393 
L 234.933555 313.347308 
L 236.531291 320.483846 
L 238.129028 326.944514 
L 239.726765 334.140912 
L 241.324502 340.669461 
L 242.922238 347.87026 
L 244.519975 354.417789 
L 246.117712 361.568526 
L 247.715449 368.098245 
L 249.313186 375.171268 
L 254.106396 394.919566 
L 255.704133 401.646579 
L 262.09508 426.186963 
L 266.88829 442.525249 
L 268.486027 447.755183 
L 271.681501 457.189081 
L 274.876974 465.587884 
L 278.072448 472.869412 
L 281.267921 478.973339 
L 284.463395 483.853278 
L 286.061132 485.792302 
L 287.658868 487.492099 
L 289.256605 488.817575 
L 290.854342 489.877802 
L 292.452079 490.594161 
L 294.049816 491.030599 
L 295.647552 491.151832 
L 297.245289 490.984328 
L 298.843026 490.529284 
L 300.440763 489.782515 
L 302.038499 488.778286 
L 303.636236 487.486061 
L 305.233973 485.96849 
L 306.83171 484.174873 
L 308.429447 482.1827 
L 311.62492 477.493675 
L 314.820394 471.995578 
L 318.015867 465.802133 
L 321.211341 459.025444 
L 326.004551 448.035548 
L 330.797762 436.394698 
L 346.775129 396.97572 
L 353.166076 382.53902 
L 359.557024 369.120563 
L 365.947971 356.701986 
L 372.338918 345.544529 
L 373.936655 343.119783 
L 375.534391 340.450937 
L 377.132128 338.145721 
L 378.729865 335.592671 
L 380.327602 333.414405 
L 381.925339 330.990587 
L 383.523075 328.982009 
L 385.120812 326.706404 
L 386.718549 324.896927 
L 388.316286 322.791561 
L 389.914022 321.166896 
L 391.511759 319.217017 
L 393.109496 317.769377 
L 394.707233 315.983052 
L 396.30497 314.719908 
L 397.902706 313.108035 
L 399.500443 312.045491 
L 401.09818 310.636869 
L 402.695917 309.80242 
L 404.293653 308.62894 
L 405.89139 308.057027 
L 407.489127 307.150123 
L 409.086864 306.879269 
L 410.684601 306.266806 
L 412.282337 306.296735 
L 413.880074 305.963461 
L 415.477811 306.304008 
L 417.075548 306.261965 
L 418.673285 306.903307 
L 420.271021 307.162667 
L 421.868758 308.11692 
L 423.466495 308.689954 
L 425.064232 309.990426 
L 426.661968 310.897318 
L 428.259705 312.550578 
L 429.857442 313.825271 
L 431.455179 315.872907 
L 433.052916 317.522387 
L 434.650652 319.939879 
L 436.248389 321.923469 
L 437.846126 324.667947 
L 439.443863 326.943242 
L 441.041599 329.989707 
L 442.639336 332.569032 
L 444.237073 335.919298 
L 445.83481 338.801186 
L 447.432547 342.438958 
L 449.030283 345.626879 
L 450.62802 349.571529 
L 452.225757 353.072411 
L 453.823494 357.294608 
L 455.421231 361.054226 
L 457.018967 365.508064 
L 458.616704 369.49368 
L 460.214441 374.167572 
L 461.812178 378.350726 
L 463.409914 383.218671 
L 465.007651 387.593914 
L 466.605388 392.599183 
L 468.203125 397.113336 
L 469.800862 402.197679 
L 471.398598 406.782187 
L 472.996335 411.870325 
L 474.594072 416.454618 
L 476.191809 421.491302 
L 477.789545 426.027327 
L 477.789545 426.027327 
" style="fill:none;stroke:#004cff;stroke-linecap:square;stroke-width:2;"/>
   </g>
   <g id="line2d_28">
    <path clip-path="url(#p273abdfce7)" d="M 95.930455 490.98569 
L 97.528191 490.430183 
L 99.125928 489.498893 
L 100.723665 488.190966 
L 102.321402 486.504949 
L 103.919138 484.434966 
L 105.516875 481.991653 
L 107.114612 479.157713 
L 108.712349 475.96264 
L 110.310086 472.370676 
L 111.907822 468.436085 
L 115.103296 459.44481 
L 118.298769 449.040172 
L 121.494243 437.288552 
L 124.689717 424.256934 
L 127.88519 410.013592 
L 131.080664 394.660097 
L 135.873874 369.666723 
L 139.069348 352.013368 
L 142.264821 333.654734 
L 147.058032 305.253524 
L 158.242189 236.569303 
L 167.82861 180.301714 
L 174.219557 146.740198 
L 180.610504 117.873706 
L 182.208241 111.865775 
L 183.805978 105.402764 
L 185.403714 100.112011 
L 187.001451 94.345356 
L 188.599188 89.792414 
L 190.196925 84.758391 
L 191.794661 80.9945 
L 193.392398 76.728363 
L 194.990135 73.771608 
L 196.587872 70.338215 
L 198.185609 68.249764 
L 199.783345 65.683756 
L 201.381082 64.481064 
L 202.978819 62.812187 
L 204.576556 62.540418 
L 206.174293 61.789091 
L 207.772029 62.443728 
L 209.369766 62.614777 
L 210.967503 64.193992 
L 212.56524 65.292238 
L 214.162976 67.788745 
L 215.760713 69.819941 
L 217.35845 73.206164 
L 218.956187 76.115815 
L 220.553924 80.401576 
L 222.15166 84.174638 
L 223.749397 89.298183 
L 225.347134 93.883209 
L 226.944871 99.786192 
L 228.542607 105.152355 
L 230.140344 111.801712 
L 231.738081 117.898436 
L 233.335818 125.243172 
L 234.933555 132.01814 
L 236.531291 139.99633 
L 238.129028 147.408308 
L 244.519975 181.519904 
L 254.106396 239.004959 
L 258.899606 269.706671 
L 263.692817 299.924723 
L 266.88829 320.064673 
L 270.083764 339.833191 
L 273.279237 359.03664 
L 276.474711 377.470768 
L 279.670184 394.96414 
L 281.267921 403.456612 
L 284.463395 419.195807 
L 287.658868 433.602977 
L 290.854342 446.52672 
L 294.049816 457.856842 
L 297.245289 467.501907 
L 298.843026 471.632456 
L 300.440763 475.372234 
L 302.038499 478.599748 
L 303.636236 481.382985 
L 305.233973 483.672222 
L 306.83171 485.468413 
L 308.429447 486.795493 
L 310.027183 487.590573 
L 311.62492 487.940384 
L 313.222657 487.725085 
L 314.820394 487.088925 
L 316.41813 485.862463 
L 318.015867 484.241944 
L 319.613604 482.01795 
L 321.211341 479.428772 
L 322.809078 476.230566 
L 324.406814 472.697285 
L 327.602288 464.121392 
L 330.797762 453.779544 
L 333.993235 441.767556 
L 337.188709 428.227721 
L 340.384182 413.331655 
L 343.579656 397.252595 
L 348.372866 371.198521 
L 353.166076 343.540733 
L 361.15476 295.157808 
L 369.143444 246.788368 
L 373.936655 219.257403 
L 377.132128 201.775894 
L 380.327602 185.195225 
L 383.523075 169.709016 
L 385.120812 162.299889 
L 388.316286 148.713352 
L 391.511759 136.499124 
L 394.707233 125.733772 
L 397.902706 116.495067 
L 401.09818 108.873463 
L 404.293653 102.947602 
L 407.489127 98.789335 
L 410.684601 96.447744 
L 413.880074 95.880478 
L 415.477811 96.54864 
L 417.075548 97.075191 
L 418.673285 98.609682 
L 420.271021 99.979707 
L 423.466495 104.555846 
L 426.661968 110.781908 
L 429.857442 118.616992 
L 433.052916 128.016195 
L 437.846126 145.032782 
L 439.443863 150.837857 
L 445.83481 178.071588 
L 453.823494 217.202396 
L 455.421231 225.093902 
L 460.214441 250.647077 
L 461.812178 258.865834 
L 466.605388 285.070384 
L 471.398598 310.578955 
L 472.996335 319.35514 
L 477.789545 343.971074 
L 477.789545 343.971074 
" style="fill:none;stroke:#29ffce;stroke-linecap:square;stroke-width:2;"/>
   </g>
   <g id="line2d_29">
    <path clip-path="url(#p273abdfce7)" d="M 95.930455 491.170909 
L 126.287453 491.064618 
L 139.069348 490.795921 
L 148.655768 490.409188 
L 156.644452 489.910334 
L 164.633136 489.188484 
L 171.024083 488.406775 
L 177.41503 487.392371 
L 182.208241 486.451456 
L 187.001451 485.323909 
L 191.794661 483.994243 
L 196.587872 482.435185 
L 201.381082 480.633109 
L 206.174293 478.572228 
L 210.967503 476.252581 
L 215.760713 473.680444 
L 220.553924 470.859877 
L 225.347134 467.820226 
L 231.738081 463.447374 
L 238.129028 458.754525 
L 247.715449 451.293 
L 260.497343 441.127986 
L 266.88829 436.200458 
L 271.681501 432.633426 
L 279.670184 427.107636 
L 284.463395 423.996907 
L 292.452079 419.240761 
L 297.245289 416.584091 
L 305.233973 412.563833 
L 310.027183 410.310498 
L 333.993235 399.489008 
L 338.786445 396.995561 
L 343.579656 394.219304 
L 346.775129 392.190345 
L 349.970603 389.999617 
L 353.166076 387.630656 
L 356.36155 385.074303 
L 359.557024 382.322646 
L 362.752497 379.373706 
L 365.947971 376.223054 
L 369.143444 372.873423 
L 372.338918 369.321602 
L 375.534391 365.571835 
L 378.729865 361.626512 
L 381.925339 357.483202 
L 385.120812 353.137326 
L 389.914022 346.269898 
L 396.30497 336.480026 
L 404.293653 323.490875 
L 412.282337 310.107723 
L 421.868758 294.076331 
L 426.661968 286.312916 
L 433.052916 276.449996 
L 437.846126 269.473939 
L 442.639336 262.900793 
L 447.432547 256.770136 
L 452.225757 251.111236 
L 455.421231 247.627735 
L 458.616704 244.38928 
L 461.812178 241.406013 
L 465.007651 238.679147 
L 468.203125 236.210262 
L 471.398598 233.999386 
L 474.594072 232.041265 
L 477.789545 230.307765 
L 477.789545 230.307765 
" style="fill:none;stroke:#ceff29;stroke-linecap:square;stroke-width:2;"/>
   </g>
   <g id="line2d_30">
    <path clip-path="url(#p273abdfce7)" d="M 95.930455 491.132118 
L 99.125928 490.818396 
L 102.321402 490.174331 
L 105.516875 489.18309 
L 108.712349 487.832387 
L 111.907822 486.116609 
L 115.103296 484.036032 
L 118.298769 481.603191 
L 121.494243 478.842269 
L 124.689717 475.779802 
L 129.482927 470.63968 
L 132.678401 466.955561 
L 135.873874 463.107675 
L 139.069348 459.144549 
L 143.862558 453.183278 
L 145.460295 451.086683 
L 155.046715 439.805183 
L 156.644452 438.275025 
L 158.242189 436.573912 
L 159.839926 435.23576 
L 161.437663 433.724266 
L 163.035399 432.608638 
L 164.633136 431.318717 
L 166.230873 430.452716 
L 167.82861 429.420637 
L 169.426347 428.833388 
L 171.024083 428.084748 
L 172.62182 427.803887 
L 174.219557 427.362223 
L 175.817294 427.394335 
L 177.41503 427.270954 
L 179.012767 427.605183 
L 180.610504 427.758324 
L 182.208241 428.372663 
L 183.805978 428.786191 
L 185.403714 429.652682 
L 187.001451 430.305959 
L 188.599188 431.39134 
L 190.196925 432.252055 
L 191.794661 433.532432 
L 193.392398 434.573057 
L 194.990135 436.012897 
L 196.587872 437.214661 
L 198.185609 438.795782 
L 199.783345 440.136633 
L 201.381082 441.827263 
L 202.978819 443.281642 
L 204.576556 445.066385 
L 206.174293 446.610769 
L 207.772029 448.458519 
L 209.369766 450.064517 
L 210.967503 451.94211 
L 212.56524 453.577374 
L 214.162976 455.45299 
L 215.760713 457.094623 
L 217.35845 458.935672 
L 218.956187 460.550843 
L 220.553924 462.342191 
L 230.140344 471.553439 
L 236.531291 476.558088 
L 242.922238 480.609357 
L 249.313186 483.773046 
L 255.704133 486.173399 
L 262.09508 487.884479 
L 268.486027 489.020729 
L 274.876974 489.702716 
L 281.267921 489.987324 
L 287.658868 489.888566 
L 292.452079 489.511087 
L 295.647552 489.09658 
L 298.843026 488.514048 
L 302.038499 487.734338 
L 305.233973 486.733631 
L 308.429447 485.491082 
L 311.62492 483.978245 
L 314.820394 482.178253 
L 318.015867 480.090662 
L 321.211341 477.719972 
L 324.406814 475.083896 
L 327.602288 472.2024 
L 330.797762 469.097008 
L 335.590972 464.094114 
L 351.56834 446.550568 
L 354.763813 443.327269 
L 356.36155 441.731683 
L 361.15476 437.576156 
L 362.752497 436.242894 
L 367.545707 433.120449 
L 369.143444 432.171043 
L 372.338918 430.799199 
L 375.534391 429.877211 
L 380.327602 429.340327 
L 381.925339 429.223439 
L 383.523075 429.398661 
L 385.120812 429.456268 
L 386.718549 429.818998 
L 388.316286 430.043169 
L 389.914022 430.570478 
L 391.511759 430.935287 
L 393.109496 431.601307 
L 394.707233 432.087198 
L 396.30497 432.874239 
L 397.902706 433.4625 
L 399.500443 434.351554 
L 401.09818 435.031336 
L 402.695917 436.012266 
L 404.293653 436.780608 
L 405.89139 437.852662 
L 407.489127 438.703777 
L 409.086864 439.861342 
L 410.684601 440.793537 
L 412.282337 442.021675 
L 413.880074 443.015159 
L 415.477811 444.299879 
L 417.075548 445.339746 
L 418.673285 446.661969 
L 420.271021 447.742164 
L 421.868758 449.092315 
L 423.466495 450.205177 
L 425.064232 451.58357 
L 426.661968 452.725177 
L 428.259705 454.125063 
L 429.857442 455.296898 
L 431.455179 456.721345 
L 433.052916 457.927276 
L 434.650652 459.373077 
L 436.248389 460.601107 
L 437.846126 462.05531 
L 439.443863 463.291401 
L 441.041599 464.739263 
L 442.639336 465.978935 
L 444.237073 467.415738 
L 445.83481 468.652518 
L 447.432547 470.065378 
L 449.030283 471.291732 
L 450.62802 472.676588 
L 455.421231 476.410551 
L 457.018967 477.689276 
L 463.409914 482.130953 
L 468.203125 484.844792 
L 469.800862 485.649746 
L 472.996335 486.945644 
L 476.191809 487.869467 
L 477.789545 488.18039 
L 477.789545 488.18039 
" style="fill:none;stroke:#ff6800;stroke-linecap:square;stroke-width:2;"/>
   </g>
   <g id="line2d_31">
    <path clip-path="url(#p273abdfce7)" d="M 95.930455 491.125404 
L 99.125928 490.755855 
L 102.321402 489.990457 
L 105.516875 488.805028 
L 108.712349 487.187091 
L 111.907822 485.139318 
L 115.103296 482.681874 
L 118.298769 479.859632 
L 123.09198 475.038185 
L 126.287453 471.564786 
L 131.080664 466.191562 
L 134.276137 462.551206 
L 135.873874 460.670976 
L 142.264821 453.897375 
L 148.655768 448.25156 
L 150.253505 447.232105 
L 151.851242 446.062284 
L 153.448979 445.295089 
L 155.046715 444.367362 
L 156.644452 443.869519 
L 158.242189 443.19855 
L 159.839926 442.973484 
L 161.437663 442.561059 
L 163.035399 442.604479 
L 164.633136 442.44391 
L 166.230873 442.740252 
L 167.82861 442.83081 
L 169.426347 443.367239 
L 171.024083 443.685877 
L 172.62182 444.441723 
L 174.219557 444.962226 
L 175.817294 445.88762 
L 177.41503 446.5646 
L 179.012767 447.589478 
L 180.610504 448.318665 
L 182.208241 449.367169 
L 183.805978 450.082023 
L 185.403714 451.084111 
L 187.001451 451.722648 
L 188.599188 452.608853 
L 190.196925 453.113716 
L 191.794661 453.847013 
L 193.392398 454.180706 
L 194.990135 454.726485 
L 196.587872 454.883615 
L 198.185609 455.246638 
L 199.783345 455.23018 
L 201.381082 455.418651 
L 202.978819 455.246476 
L 204.576556 455.29913 
L 206.174293 455.003998 
L 207.772029 454.94953 
L 209.369766 454.566058 
L 210.967503 454.441041 
L 212.56524 454.01003 
L 214.162976 453.85751 
L 215.760713 453.430664 
L 217.35845 453.291496 
L 218.956187 452.897208 
L 220.553924 452.8316 
L 222.15166 452.517758 
L 223.749397 452.557157 
L 225.347134 452.358902 
L 226.944871 452.534902 
L 228.542607 452.497394 
L 230.140344 452.858204 
L 231.738081 453.018923 
L 233.335818 453.594449 
L 234.933555 453.979382 
L 236.531291 454.785159 
L 238.129028 455.413799 
L 239.726765 456.456754 
L 241.324502 457.325217 
L 242.922238 458.589831 
L 244.519975 459.6823 
L 246.117712 461.141156 
L 247.715449 462.434037 
L 249.313186 464.059866 
L 250.910922 465.516842 
L 252.508659 467.256687 
L 254.106396 468.818896 
L 255.704133 470.614128 
L 257.30187 472.22113 
L 258.899606 474.005276 
L 266.88829 481.74372 
L 268.486027 483.157955 
L 271.681501 485.574281 
L 274.876974 487.54948 
L 278.072448 489.040799 
L 281.267921 490.032489 
L 284.463395 490.535998 
L 287.658868 490.588697 
L 290.854342 490.246995 
L 294.049816 489.586507 
L 297.245289 488.681415 
L 303.636236 486.426539 
L 310.027183 484.048341 
L 314.820394 482.385163 
L 321.211341 480.579 
L 327.602288 479.251308 
L 332.395498 478.496202 
L 345.177393 475.987528 
L 349.970603 474.493583 
L 351.56834 473.949115 
L 356.36155 471.775735 
L 357.959287 470.970822 
L 362.752497 467.972732 
L 364.350234 466.910903 
L 370.741181 462.047659 
L 389.914022 446.16845 
L 391.511759 444.865684 
L 397.902706 440.444159 
L 402.695917 438.009467 
L 404.293653 437.255842 
L 407.489127 436.355441 
L 409.086864 436.248238 
L 410.684601 436.022387 
L 412.282337 436.208862 
L 413.880074 436.261448 
L 415.477811 436.745468 
L 417.075548 437.081887 
L 418.673285 437.85204 
L 420.271021 438.470486 
L 421.868758 439.515877 
L 423.466495 440.404588 
L 425.064232 441.722142 
L 426.661968 442.868183 
L 428.259705 444.432487 
L 429.857442 445.826654 
L 431.455179 447.624559 
L 433.052916 449.240167 
L 434.650652 451.225081 
L 436.248389 453.002318 
L 437.846126 455.108851 
L 439.443863 456.981913 
L 441.041599 459.146736 
L 442.639336 461.067399 
L 444.237073 463.24132 
L 445.83481 465.156935 
L 447.432547 467.277225 
L 455.421231 476.414045 
L 457.018967 478.094907 
L 460.214441 480.960257 
L 463.409914 483.360116 
L 466.605388 485.27266 
L 469.800862 486.690698 
L 472.996335 487.62411 
L 476.191809 488.117282 
L 477.789545 488.188432 
L 477.789545 488.188432 
" style="fill:none;stroke:#800000;stroke-linecap:square;stroke-width:2;"/>
   </g>
   <g id="patch_3">
    <path d="M 76.8375 512.64 
L 76.8375 40.32 
" style="fill:none;stroke:#000000;stroke-linecap:square;stroke-linejoin:miter;stroke-width:0.8;"/>
   </g>
   <g id="patch_4">
    <path d="M 496.8825 512.64 
L 496.8825 40.32 
" style="fill:none;stroke:#000000;stroke-linecap:square;stroke-linejoin:miter;stroke-width:0.8;"/>
   </g>
   <g id="patch_5">
    <path d="M 76.8375 512.64 
L 496.8825 512.64 
" style="fill:none;stroke:#000000;stroke-linecap:square;stroke-linejoin:miter;stroke-width:0.8;"/>
   </g>
   <g id="patch_6">
    <path d="M 76.8375 40.32 
L 496.8825 40.32 
" style="fill:none;stroke:#000000;stroke-linecap:square;stroke-linejoin:miter;stroke-width:0.8;"/>
   </g>
   <g id="legend_1">
    <g id="patch_7">
     <path d="M 94.3375 250.300469 
L 227.3375 250.300469 
Q 232.3375 250.300469 232.3375 245.300469 
L 232.3375 57.82 
Q 232.3375 52.82 227.3375 52.82 
L 94.3375 52.82 
Q 89.3375 52.82 89.3375 57.82 
L 89.3375 245.300469 
Q 89.3375 250.300469 94.3375 250.300469 
z
" style="fill:#ffffff;opacity:0.8;stroke:#cccccc;stroke-linejoin:miter;"/>
    </g>
    <g id="line2d_32">
     <path d="M 99.3375 73.066094 
L 149.3375 73.066094 
" style="fill:none;stroke:#004cff;stroke-linecap:square;stroke-width:2;"/>
    </g>
    <g id="line2d_33"/>
    <g id="text_16">
     <!-- $I_{(2,0)}$ -->
     <defs>
      <path d="M 11.71875 12.40625 
L 22.015625 12.40625 
L 22.015625 4 
L 14.015625 -11.625 
L 7.71875 -11.625 
L 11.71875 4 
z
" id="DejaVuSans-44"/>
     </defs>
     <g transform="translate(169.3375 81.816094)scale(0.25 -0.25)">
      <use transform="translate(0 0.09375)" xlink:href="#DejaVuSans-Oblique-73"/>
      <use transform="translate(29.492188 -16.3125)scale(0.7)" xlink:href="#DejaVuSans-40"/>
      <use transform="translate(56.801758 -16.3125)scale(0.7)" xlink:href="#DejaVuSans-50"/>
      <use transform="translate(101.337891 -16.3125)scale(0.7)" xlink:href="#DejaVuSans-44"/>
      <use transform="translate(137.226562 -16.3125)scale(0.7)" xlink:href="#DejaVuSans-48"/>
      <use transform="translate(181.762695 -16.3125)scale(0.7)" xlink:href="#DejaVuSans-41"/>
     </g>
    </g>
    <g id="line2d_34">
     <path d="M 99.3375 111.062188 
L 149.3375 111.062188 
" style="fill:none;stroke:#29ffce;stroke-linecap:square;stroke-width:2;"/>
    </g>
    <g id="line2d_35"/>
    <g id="text_17">
     <!-- $I_{(1,1)}$ -->
     <g transform="translate(169.3375 119.812188)scale(0.25 -0.25)">
      <use transform="translate(0 0.09375)" xlink:href="#DejaVuSans-Oblique-73"/>
      <use transform="translate(29.492188 -16.3125)scale(0.7)" xlink:href="#DejaVuSans-40"/>
      <use transform="translate(56.801758 -16.3125)scale(0.7)" xlink:href="#DejaVuSans-49"/>
      <use transform="translate(101.337891 -16.3125)scale(0.7)" xlink:href="#DejaVuSans-44"/>
      <use transform="translate(137.226562 -16.3125)scale(0.7)" xlink:href="#DejaVuSans-49"/>
      <use transform="translate(181.762695 -16.3125)scale(0.7)" xlink:href="#DejaVuSans-41"/>
     </g>
    </g>
    <g id="line2d_36">
     <path d="M 99.3375 149.058281 
L 149.3375 149.058281 
" style="fill:none;stroke:#ceff29;stroke-linecap:square;stroke-width:2;"/>
    </g>
    <g id="line2d_37"/>
    <g id="text_18">
     <!-- $I_{(0,2)}$ -->
     <g transform="translate(169.3375 157.808281)scale(0.25 -0.25)">
      <use transform="translate(0 0.09375)" xlink:href="#DejaVuSans-Oblique-73"/>
      <use transform="translate(29.492188 -16.3125)scale(0.7)" xlink:href="#DejaVuSans-40"/>
      <use transform="translate(56.801758 -16.3125)scale(0.7)" xlink:href="#DejaVuSans-48"/>
      <use transform="translate(101.337891 -16.3125)scale(0.7)" xlink:href="#DejaVuSans-44"/>
      <use transform="translate(137.226562 -16.3125)scale(0.7)" xlink:href="#DejaVuSans-50"/>
      <use transform="translate(181.762695 -16.3125)scale(0.7)" xlink:href="#DejaVuSans-41"/>
     </g>
    </g>
    <g id="line2d_38">
     <path d="M 99.3375 187.054375 
L 149.3375 187.054375 
" style="fill:none;stroke:#ff6800;stroke-linecap:square;stroke-width:2;"/>
    </g>
    <g id="line2d_39"/>
    <g id="text_19">
     <!-- $I_{(1,3)}$ -->
     <g transform="translate(169.3375 195.804375)scale(0.25 -0.25)">
      <use transform="translate(0 0.09375)" xlink:href="#DejaVuSans-Oblique-73"/>
      <use transform="translate(29.492188 -16.3125)scale(0.7)" xlink:href="#DejaVuSans-40"/>
      <use transform="translate(56.801758 -16.3125)scale(0.7)" xlink:href="#DejaVuSans-49"/>
      <use transform="translate(101.337891 -16.3125)scale(0.7)" xlink:href="#DejaVuSans-44"/>
      <use transform="translate(137.226562 -16.3125)scale(0.7)" xlink:href="#DejaVuSans-51"/>
      <use transform="translate(181.762695 -16.3125)scale(0.7)" xlink:href="#DejaVuSans-41"/>
     </g>
    </g>
    <g id="line2d_40">
     <path d="M 99.3375 225.050469 
L 149.3375 225.050469 
" style="fill:none;stroke:#800000;stroke-linecap:square;stroke-width:2;"/>
    </g>
    <g id="line2d_41"/>
    <g id="text_20">
     <!-- $I_{(0,4)}$ -->
     <g transform="translate(169.3375 233.800469)scale(0.25 -0.25)">
      <use transform="translate(0 0.09375)" xlink:href="#DejaVuSans-Oblique-73"/>
      <use transform="translate(29.492188 -16.3125)scale(0.7)" xlink:href="#DejaVuSans-40"/>
      <use transform="translate(56.801758 -16.3125)scale(0.7)" xlink:href="#DejaVuSans-48"/>
      <use transform="translate(101.337891 -16.3125)scale(0.7)" xlink:href="#DejaVuSans-44"/>
      <use transform="translate(137.226562 -16.3125)scale(0.7)" xlink:href="#DejaVuSans-52"/>
      <use transform="translate(181.762695 -16.3125)scale(0.7)" xlink:href="#DejaVuSans-41"/>
     </g>
    </g>
   </g>
  </g>
 </g>
 <defs>
  <clipPath id="p273abdfce7">
   <rect height="472.32" width="420.045" x="76.8375" y="40.32"/>
  </clipPath>
 </defs>
</svg>
