<?xml version="1.0" encoding="utf-8" standalone="no"?>
<!DOCTYPE svg PUBLIC "-//W3C//DTD SVG 1.1//EN"
  "http://www.w3.org/Graphics/SVG/1.1/DTD/svg11.dtd">
<!-- Created with matplotlib (https://matplotlib.org/) -->
<svg height="576pt" version="1.1" viewBox="0 0 512.25 576" width="512.25pt" xmlns="http://www.w3.org/2000/svg" xmlns:xlink="http://www.w3.org/1999/xlink">
 <defs>
  <style type="text/css">
*{stroke-linecap:butt;stroke-linejoin:round;}
  </style>
 </defs>
 <g id="figure_1">
  <g id="patch_1">
   <path d="M 0 576 
L 512.25 576 
L 512.25 0 
L 0 0 
z
" style="fill:#ffffff;"/>
  </g>
  <g id="axes_1">
   <g id="patch_2">
    <path d="M 64.03125 512.64 
L 461.025 512.64 
L 461.025 69.12 
L 64.03125 69.12 
z
" style="fill:#ffffff;"/>
   </g>
   <g id="matplotlib.axis_1">
    <g id="xtick_1">
     <g id="line2d_1">
      <path clip-path="url(#pb4b5a07243)" d="M 82.07642 512.64 
L 82.07642 69.12 
" style="fill:none;stroke:#e6e6e6;stroke-linecap:square;stroke-width:0.8;"/>
     </g>
     <g id="line2d_2">
      <defs>
       <path d="M 0 0 
L 0 3.5 
" id="m7615753bd4" style="stroke:#000000;stroke-width:0.8;"/>
      </defs>
      <g>
       <use style="stroke:#000000;stroke-width:0.8;" x="82.07642" xlink:href="#m7615753bd4" y="512.64"/>
      </g>
     </g>
     <g id="text_1">
      <!-- −10 -->
      <defs>
       <path d="M 10.59375 35.5 
L 73.1875 35.5 
L 73.1875 27.203125 
L 10.59375 27.203125 
z
" id="DejaVuSans-8722"/>
       <path d="M 12.40625 8.296875 
L 28.515625 8.296875 
L 28.515625 63.921875 
L 10.984375 60.40625 
L 10.984375 69.390625 
L 28.421875 72.90625 
L 38.28125 72.90625 
L 38.28125 8.296875 
L 54.390625 8.296875 
L 54.390625 0 
L 12.40625 0 
z
" id="DejaVuSans-49"/>
       <path d="M 31.78125 66.40625 
Q 24.171875 66.40625 20.328125 58.90625 
Q 16.5 51.421875 16.5 36.375 
Q 16.5 21.390625 20.328125 13.890625 
Q 24.171875 6.390625 31.78125 6.390625 
Q 39.453125 6.390625 43.28125 13.890625 
Q 47.125 21.390625 47.125 36.375 
Q 47.125 51.421875 43.28125 58.90625 
Q 39.453125 66.40625 31.78125 66.40625 
z
M 31.78125 74.21875 
Q 44.046875 74.21875 50.515625 64.515625 
Q 56.984375 54.828125 56.984375 36.375 
Q 56.984375 17.96875 50.515625 8.265625 
Q 44.046875 -1.421875 31.78125 -1.421875 
Q 19.53125 -1.421875 13.0625 8.265625 
Q 6.59375 17.96875 6.59375 36.375 
Q 6.59375 54.828125 13.0625 64.515625 
Q 19.53125 74.21875 31.78125 74.21875 
z
" id="DejaVuSans-48"/>
      </defs>
      <g transform="translate(66.247905 531.037656)scale(0.15 -0.15)">
       <use xlink:href="#DejaVuSans-8722"/>
       <use x="83.789062" xlink:href="#DejaVuSans-49"/>
       <use x="147.412109" xlink:href="#DejaVuSans-48"/>
      </g>
     </g>
    </g>
    <g id="xtick_2">
     <g id="line2d_3">
      <path clip-path="url(#pb4b5a07243)" d="M 172.302273 512.64 
L 172.302273 69.12 
" style="fill:none;stroke:#e6e6e6;stroke-linecap:square;stroke-width:0.8;"/>
     </g>
     <g id="line2d_4">
      <g>
       <use style="stroke:#000000;stroke-width:0.8;" x="172.302273" xlink:href="#m7615753bd4" y="512.64"/>
      </g>
     </g>
     <g id="text_2">
      <!-- −5 -->
      <defs>
       <path d="M 10.796875 72.90625 
L 49.515625 72.90625 
L 49.515625 64.59375 
L 19.828125 64.59375 
L 19.828125 46.734375 
Q 21.96875 47.46875 24.109375 47.828125 
Q 26.265625 48.1875 28.421875 48.1875 
Q 40.625 48.1875 47.75 41.5 
Q 54.890625 34.8125 54.890625 23.390625 
Q 54.890625 11.625 47.5625 5.09375 
Q 40.234375 -1.421875 26.90625 -1.421875 
Q 22.3125 -1.421875 17.546875 -0.640625 
Q 12.796875 0.140625 7.71875 1.703125 
L 7.71875 11.625 
Q 12.109375 9.234375 16.796875 8.0625 
Q 21.484375 6.890625 26.703125 6.890625 
Q 35.15625 6.890625 40.078125 11.328125 
Q 45.015625 15.765625 45.015625 23.390625 
Q 45.015625 31 40.078125 35.4375 
Q 35.15625 39.890625 26.703125 39.890625 
Q 22.75 39.890625 18.8125 39.015625 
Q 14.890625 38.140625 10.796875 36.28125 
z
" id="DejaVuSans-53"/>
      </defs>
      <g transform="translate(161.245632 531.037656)scale(0.15 -0.15)">
       <use xlink:href="#DejaVuSans-8722"/>
       <use x="83.789062" xlink:href="#DejaVuSans-53"/>
      </g>
     </g>
    </g>
    <g id="xtick_3">
     <g id="line2d_5">
      <path clip-path="url(#pb4b5a07243)" d="M 262.528125 512.64 
L 262.528125 69.12 
" style="fill:none;stroke:#e6e6e6;stroke-linecap:square;stroke-width:0.8;"/>
     </g>
     <g id="line2d_6">
      <g>
       <use style="stroke:#000000;stroke-width:0.8;" x="262.528125" xlink:href="#m7615753bd4" y="512.64"/>
      </g>
     </g>
     <g id="text_3">
      <!-- 0 -->
      <g transform="translate(257.75625 531.037656)scale(0.15 -0.15)">
       <use xlink:href="#DejaVuSans-48"/>
      </g>
     </g>
    </g>
    <g id="xtick_4">
     <g id="line2d_7">
      <path clip-path="url(#pb4b5a07243)" d="M 352.753977 512.64 
L 352.753977 69.12 
" style="fill:none;stroke:#e6e6e6;stroke-linecap:square;stroke-width:0.8;"/>
     </g>
     <g id="line2d_8">
      <g>
       <use style="stroke:#000000;stroke-width:0.8;" x="352.753977" xlink:href="#m7615753bd4" y="512.64"/>
      </g>
     </g>
     <g id="text_4">
      <!-- 5 -->
      <g transform="translate(347.982102 531.037656)scale(0.15 -0.15)">
       <use xlink:href="#DejaVuSans-53"/>
      </g>
     </g>
    </g>
    <g id="xtick_5">
     <g id="line2d_9">
      <path clip-path="url(#pb4b5a07243)" d="M 442.97983 512.64 
L 442.97983 69.12 
" style="fill:none;stroke:#e6e6e6;stroke-linecap:square;stroke-width:0.8;"/>
     </g>
     <g id="line2d_10">
      <g>
       <use style="stroke:#000000;stroke-width:0.8;" x="442.97983" xlink:href="#m7615753bd4" y="512.64"/>
      </g>
     </g>
     <g id="text_5">
      <!-- 10 -->
      <g transform="translate(433.43608 531.037656)scale(0.15 -0.15)">
       <use xlink:href="#DejaVuSans-49"/>
       <use x="63.623047" xlink:href="#DejaVuSans-48"/>
      </g>
     </g>
    </g>
    <g id="text_6">
     <!-- $w (A^{-1})$ -->
     <defs>
      <path d="M 8.5 54.6875 
L 17.390625 54.6875 
L 19.671875 10.6875 
L 40.09375 54.6875 
L 50.484375 54.6875 
L 53.515625 10.6875 
L 72.90625 54.6875 
L 81.890625 54.6875 
L 56.890625 0 
L 46.390625 0 
L 43.703125 45.3125 
L 22.796875 0 
L 12.203125 0 
z
" id="DejaVuSans-Oblique-119"/>
      <path d="M 31 75.875 
Q 24.46875 64.65625 21.28125 53.65625 
Q 18.109375 42.671875 18.109375 31.390625 
Q 18.109375 20.125 21.3125 9.0625 
Q 24.515625 -2 31 -13.1875 
L 23.1875 -13.1875 
Q 15.875 -1.703125 12.234375 9.375 
Q 8.59375 20.453125 8.59375 31.390625 
Q 8.59375 42.28125 12.203125 53.3125 
Q 15.828125 64.359375 23.1875 75.875 
z
" id="DejaVuSans-40"/>
      <path d="M 36.8125 72.90625 
L 48 72.90625 
L 61.53125 0 
L 51.21875 0 
L 48.1875 18.703125 
L 15.375 18.703125 
L 5.078125 0 
L -5.328125 0 
z
M 40.375 63.1875 
L 19.921875 26.90625 
L 46.6875 26.90625 
z
" id="DejaVuSans-Oblique-65"/>
      <path d="M 8.015625 75.875 
L 15.828125 75.875 
Q 23.140625 64.359375 26.78125 53.3125 
Q 30.421875 42.28125 30.421875 31.390625 
Q 30.421875 20.453125 26.78125 9.375 
Q 23.140625 -1.703125 15.828125 -13.1875 
L 8.015625 -13.1875 
Q 14.5 -2 17.703125 9.0625 
Q 20.90625 20.125 20.90625 31.390625 
Q 20.90625 42.671875 17.703125 53.65625 
Q 14.5 64.65625 8.015625 75.875 
z
" id="DejaVuSans-41"/>
     </defs>
     <g transform="translate(211.228125 563.118125)scale(0.3 -0.3)">
      <use transform="translate(0 0.684375)" xlink:href="#DejaVuSans-Oblique-119"/>
      <use transform="translate(81.787109 0.684375)" xlink:href="#DejaVuSans-40"/>
      <use transform="translate(120.800781 0.684375)" xlink:href="#DejaVuSans-Oblique-65"/>
      <use transform="translate(196.225755 38.965625)scale(0.7)" xlink:href="#DejaVuSans-8722"/>
      <use transform="translate(254.878099 38.965625)scale(0.7)" xlink:href="#DejaVuSans-49"/>
      <use transform="translate(302.148607 0.684375)" xlink:href="#DejaVuSans-41"/>
     </g>
    </g>
   </g>
   <g id="matplotlib.axis_2">
    <g id="ytick_1">
     <g id="line2d_11">
      <path clip-path="url(#pb4b5a07243)" d="M 64.03125 492.48 
L 461.025 492.48 
" style="fill:none;stroke:#e6e6e6;stroke-linecap:square;stroke-width:0.8;"/>
     </g>
     <g id="line2d_12">
      <defs>
       <path d="M 0 0 
L -3.5 0 
" id="ma361d17355" style="stroke:#000000;stroke-width:0.8;"/>
      </defs>
      <g>
       <use style="stroke:#000000;stroke-width:0.8;" x="64.03125" xlink:href="#ma361d17355" y="492.48"/>
      </g>
     </g>
     <g id="text_7">
      <!-- 0.0 -->
      <defs>
       <path d="M 10.6875 12.40625 
L 21 12.40625 
L 21 0 
L 10.6875 0 
z
" id="DejaVuSans-46"/>
      </defs>
      <g transform="translate(33.176563 498.178828)scale(0.15 -0.15)">
       <use xlink:href="#DejaVuSans-48"/>
       <use x="63.623047" xlink:href="#DejaVuSans-46"/>
       <use x="95.410156" xlink:href="#DejaVuSans-48"/>
      </g>
     </g>
    </g>
    <g id="ytick_2">
     <g id="line2d_13">
      <path clip-path="url(#pb4b5a07243)" d="M 64.03125 411.839734 
L 461.025 411.839734 
" style="fill:none;stroke:#e6e6e6;stroke-linecap:square;stroke-width:0.8;"/>
     </g>
     <g id="line2d_14">
      <g>
       <use style="stroke:#000000;stroke-width:0.8;" x="64.03125" xlink:href="#ma361d17355" y="411.839734"/>
      </g>
     </g>
     <g id="text_8">
      <!-- 0.2 -->
      <defs>
       <path d="M 19.1875 8.296875 
L 53.609375 8.296875 
L 53.609375 0 
L 7.328125 0 
L 7.328125 8.296875 
Q 12.9375 14.109375 22.625 23.890625 
Q 32.328125 33.6875 34.8125 36.53125 
Q 39.546875 41.84375 41.421875 45.53125 
Q 43.3125 49.21875 43.3125 52.78125 
Q 43.3125 58.59375 39.234375 62.25 
Q 35.15625 65.921875 28.609375 65.921875 
Q 23.96875 65.921875 18.8125 64.3125 
Q 13.671875 62.703125 7.8125 59.421875 
L 7.8125 69.390625 
Q 13.765625 71.78125 18.9375 73 
Q 24.125 74.21875 28.421875 74.21875 
Q 39.75 74.21875 46.484375 68.546875 
Q 53.21875 62.890625 53.21875 53.421875 
Q 53.21875 48.921875 51.53125 44.890625 
Q 49.859375 40.875 45.40625 35.40625 
Q 44.1875 33.984375 37.640625 27.21875 
Q 31.109375 20.453125 19.1875 8.296875 
z
" id="DejaVuSans-50"/>
      </defs>
      <g transform="translate(33.176563 417.538562)scale(0.15 -0.15)">
       <use xlink:href="#DejaVuSans-48"/>
       <use x="63.623047" xlink:href="#DejaVuSans-46"/>
       <use x="95.410156" xlink:href="#DejaVuSans-50"/>
      </g>
     </g>
    </g>
    <g id="ytick_3">
     <g id="line2d_15">
      <path clip-path="url(#pb4b5a07243)" d="M 64.03125 331.199468 
L 461.025 331.199468 
" style="fill:none;stroke:#e6e6e6;stroke-linecap:square;stroke-width:0.8;"/>
     </g>
     <g id="line2d_16">
      <g>
       <use style="stroke:#000000;stroke-width:0.8;" x="64.03125" xlink:href="#ma361d17355" y="331.199468"/>
      </g>
     </g>
     <g id="text_9">
      <!-- 0.4 -->
      <defs>
       <path d="M 37.796875 64.3125 
L 12.890625 25.390625 
L 37.796875 25.390625 
z
M 35.203125 72.90625 
L 47.609375 72.90625 
L 47.609375 25.390625 
L 58.015625 25.390625 
L 58.015625 17.1875 
L 47.609375 17.1875 
L 47.609375 0 
L 37.796875 0 
L 37.796875 17.1875 
L 4.890625 17.1875 
L 4.890625 26.703125 
z
" id="DejaVuSans-52"/>
      </defs>
      <g transform="translate(33.176563 336.898296)scale(0.15 -0.15)">
       <use xlink:href="#DejaVuSans-48"/>
       <use x="63.623047" xlink:href="#DejaVuSans-46"/>
       <use x="95.410156" xlink:href="#DejaVuSans-52"/>
      </g>
     </g>
    </g>
    <g id="ytick_4">
     <g id="line2d_17">
      <path clip-path="url(#pb4b5a07243)" d="M 64.03125 250.559203 
L 461.025 250.559203 
" style="fill:none;stroke:#e6e6e6;stroke-linecap:square;stroke-width:0.8;"/>
     </g>
     <g id="line2d_18">
      <g>
       <use style="stroke:#000000;stroke-width:0.8;" x="64.03125" xlink:href="#ma361d17355" y="250.559203"/>
      </g>
     </g>
     <g id="text_10">
      <!-- 0.6 -->
      <defs>
       <path d="M 33.015625 40.375 
Q 26.375 40.375 22.484375 35.828125 
Q 18.609375 31.296875 18.609375 23.390625 
Q 18.609375 15.53125 22.484375 10.953125 
Q 26.375 6.390625 33.015625 6.390625 
Q 39.65625 6.390625 43.53125 10.953125 
Q 47.40625 15.53125 47.40625 23.390625 
Q 47.40625 31.296875 43.53125 35.828125 
Q 39.65625 40.375 33.015625 40.375 
z
M 52.59375 71.296875 
L 52.59375 62.3125 
Q 48.875 64.0625 45.09375 64.984375 
Q 41.3125 65.921875 37.59375 65.921875 
Q 27.828125 65.921875 22.671875 59.328125 
Q 17.53125 52.734375 16.796875 39.40625 
Q 19.671875 43.65625 24.015625 45.921875 
Q 28.375 48.1875 33.59375 48.1875 
Q 44.578125 48.1875 50.953125 41.515625 
Q 57.328125 34.859375 57.328125 23.390625 
Q 57.328125 12.15625 50.6875 5.359375 
Q 44.046875 -1.421875 33.015625 -1.421875 
Q 20.359375 -1.421875 13.671875 8.265625 
Q 6.984375 17.96875 6.984375 36.375 
Q 6.984375 53.65625 15.1875 63.9375 
Q 23.390625 74.21875 37.203125 74.21875 
Q 40.921875 74.21875 44.703125 73.484375 
Q 48.484375 72.75 52.59375 71.296875 
z
" id="DejaVuSans-54"/>
      </defs>
      <g transform="translate(33.176563 256.258031)scale(0.15 -0.15)">
       <use xlink:href="#DejaVuSans-48"/>
       <use x="63.623047" xlink:href="#DejaVuSans-46"/>
       <use x="95.410156" xlink:href="#DejaVuSans-54"/>
      </g>
     </g>
    </g>
    <g id="ytick_5">
     <g id="line2d_19">
      <path clip-path="url(#pb4b5a07243)" d="M 64.03125 169.918937 
L 461.025 169.918937 
" style="fill:none;stroke:#e6e6e6;stroke-linecap:square;stroke-width:0.8;"/>
     </g>
     <g id="line2d_20">
      <g>
       <use style="stroke:#000000;stroke-width:0.8;" x="64.03125" xlink:href="#ma361d17355" y="169.918937"/>
      </g>
     </g>
     <g id="text_11">
      <!-- 0.8 -->
      <defs>
       <path d="M 31.78125 34.625 
Q 24.75 34.625 20.71875 30.859375 
Q 16.703125 27.09375 16.703125 20.515625 
Q 16.703125 13.921875 20.71875 10.15625 
Q 24.75 6.390625 31.78125 6.390625 
Q 38.8125 6.390625 42.859375 10.171875 
Q 46.921875 13.96875 46.921875 20.515625 
Q 46.921875 27.09375 42.890625 30.859375 
Q 38.875 34.625 31.78125 34.625 
z
M 21.921875 38.8125 
Q 15.578125 40.375 12.03125 44.71875 
Q 8.5 49.078125 8.5 55.328125 
Q 8.5 64.0625 14.71875 69.140625 
Q 20.953125 74.21875 31.78125 74.21875 
Q 42.671875 74.21875 48.875 69.140625 
Q 55.078125 64.0625 55.078125 55.328125 
Q 55.078125 49.078125 51.53125 44.71875 
Q 48 40.375 41.703125 38.8125 
Q 48.828125 37.15625 52.796875 32.3125 
Q 56.78125 27.484375 56.78125 20.515625 
Q 56.78125 9.90625 50.3125 4.234375 
Q 43.84375 -1.421875 31.78125 -1.421875 
Q 19.734375 -1.421875 13.25 4.234375 
Q 6.78125 9.90625 6.78125 20.515625 
Q 6.78125 27.484375 10.78125 32.3125 
Q 14.796875 37.15625 21.921875 38.8125 
z
M 18.3125 54.390625 
Q 18.3125 48.734375 21.84375 45.5625 
Q 25.390625 42.390625 31.78125 42.390625 
Q 38.140625 42.390625 41.71875 45.5625 
Q 45.3125 48.734375 45.3125 54.390625 
Q 45.3125 60.0625 41.71875 63.234375 
Q 38.140625 66.40625 31.78125 66.40625 
Q 25.390625 66.40625 21.84375 63.234375 
Q 18.3125 60.0625 18.3125 54.390625 
z
" id="DejaVuSans-56"/>
      </defs>
      <g transform="translate(33.176563 175.617765)scale(0.15 -0.15)">
       <use xlink:href="#DejaVuSans-48"/>
       <use x="63.623047" xlink:href="#DejaVuSans-46"/>
       <use x="95.410156" xlink:href="#DejaVuSans-56"/>
      </g>
     </g>
    </g>
    <g id="ytick_6">
     <g id="line2d_21">
      <path clip-path="url(#pb4b5a07243)" d="M 64.03125 89.278671 
L 461.025 89.278671 
" style="fill:none;stroke:#e6e6e6;stroke-linecap:square;stroke-width:0.8;"/>
     </g>
     <g id="line2d_22">
      <g>
       <use style="stroke:#000000;stroke-width:0.8;" x="64.03125" xlink:href="#ma361d17355" y="89.278671"/>
      </g>
     </g>
     <g id="text_12">
      <!-- 1.0 -->
      <g transform="translate(33.176563 94.977499)scale(0.15 -0.15)">
       <use xlink:href="#DejaVuSans-49"/>
       <use x="63.623047" xlink:href="#DejaVuSans-46"/>
       <use x="95.410156" xlink:href="#DejaVuSans-48"/>
      </g>
     </g>
    </g>
    <g id="text_13">
     <!-- $I(w)/\sigma v_g t$ -->
     <defs>
      <path d="M 16.890625 72.90625 
L 26.8125 72.90625 
L 12.59375 0 
L 2.6875 0 
z
" id="DejaVuSans-Oblique-73"/>
      <path d="M 25.390625 72.90625 
L 33.6875 72.90625 
L 8.296875 -9.28125 
L 0 -9.28125 
z
" id="DejaVuSans-47"/>
      <path d="M 34.671875 47.5625 
Q 27.25 47.5625 22.21875 42.1875 
Q 16.890625 36.578125 15.140625 27.296875 
Q 13.1875 17.484375 16.3125 11.8125 
Q 19.390625 6.203125 26.65625 6.203125 
Q 33.84375 6.203125 39.109375 11.859375 
Q 44.4375 17.53125 46.34375 27.296875 
Q 48.046875 36.234375 45.015625 42.1875 
Q 42.1875 47.5625 34.671875 47.5625 
z
M 36.078125 54.734375 
L 65.921875 54.6875 
L 64.15625 45.703125 
L 54.109375 45.703125 
Q 57.90625 38.09375 55.859375 27.296875 
Q 53.21875 13.875 45.0625 6.25 
Q 36.859375 -1.421875 25.140625 -1.421875 
Q 13.375 -1.421875 8.203125 6.25 
Q 3.03125 13.875 5.671875 27.296875 
Q 8.25 40.765625 16.40625 48.390625 
Q 23.1875 54.734375 36.078125 54.734375 
z
" id="DejaVuSans-Oblique-963"/>
      <path d="M 7.171875 54.6875 
L 16.703125 54.6875 
L 24.703125 8.203125 
L 50.875 54.6875 
L 60.40625 54.6875 
L 29.296875 0 
L 17.1875 0 
z
" id="DejaVuSans-Oblique-118"/>
      <path d="M 59.625 54.6875 
L 50.296875 6.78125 
Q 47.609375 -7.125 40.015625 -13.953125 
Q 32.421875 -20.796875 19.578125 -20.796875 
Q 14.84375 -20.796875 10.78125 -20.09375 
Q 6.734375 -19.390625 3.21875 -17.921875 
L 4.890625 -9.1875 
Q 8.203125 -11.328125 11.90625 -12.34375 
Q 15.625 -13.375 19.828125 -13.375 
Q 28.375 -13.375 33.859375 -8.703125 
Q 39.359375 -4.046875 41.109375 4.6875 
L 41.890625 8.796875 
Q 38.140625 4.5 33.15625 2.25 
Q 28.171875 0 22.40625 0 
Q 14.109375 0 9.34375 5.484375 
Q 4.59375 10.984375 4.59375 20.609375 
Q 4.59375 28.171875 7.46875 35.421875 
Q 10.359375 42.671875 15.578125 48.296875 
Q 19.046875 52 23.65625 54 
Q 28.265625 56 33.296875 56 
Q 38.8125 56 42.90625 53.4375 
Q 47.015625 50.875 49.03125 46.1875 
L 50.59375 54.6875 
z
M 46.09375 34.625 
Q 46.09375 41.265625 42.96875 44.875 
Q 39.84375 48.484375 34.078125 48.484375 
Q 30.515625 48.484375 27.296875 47.0625 
Q 24.078125 45.65625 21.78125 43.109375 
Q 18.0625 38.921875 15.984375 33.234375 
Q 13.921875 27.546875 13.921875 21.484375 
Q 13.921875 14.75 17.0625 11.125 
Q 20.21875 7.515625 26.125 7.515625 
Q 34.671875 7.515625 40.375 15.25 
Q 46.09375 23 46.09375 34.625 
z
" id="DejaVuSans-Oblique-103"/>
      <path d="M 42.28125 54.6875 
L 40.921875 47.703125 
L 23 47.703125 
L 17.1875 18.015625 
Q 16.890625 16.359375 16.75 15.234375 
Q 16.609375 14.109375 16.609375 13.484375 
Q 16.609375 10.359375 18.484375 8.9375 
Q 20.359375 7.515625 24.515625 7.515625 
L 33.59375 7.515625 
L 32.078125 0 
L 23.484375 0 
Q 15.484375 0 11.546875 3.125 
Q 7.625 6.25 7.625 12.59375 
Q 7.625 13.71875 7.765625 15.0625 
Q 7.90625 16.40625 8.203125 18.015625 
L 14.015625 47.703125 
L 6.390625 47.703125 
L 7.8125 54.6875 
L 15.28125 54.6875 
L 18.3125 70.21875 
L 27.296875 70.21875 
L 24.3125 54.6875 
z
" id="DejaVuSans-Oblique-116"/>
     </defs>
     <g transform="translate(19.876562 355.68)rotate(-90)scale(0.3 -0.3)">
      <use transform="translate(0 0.125)" xlink:href="#DejaVuSans-Oblique-73"/>
      <use transform="translate(29.492188 0.125)" xlink:href="#DejaVuSans-40"/>
      <use transform="translate(68.505859 0.125)" xlink:href="#DejaVuSans-Oblique-119"/>
      <use transform="translate(150.292969 0.125)" xlink:href="#DejaVuSans-41"/>
      <use transform="translate(189.306641 0.125)" xlink:href="#DejaVuSans-47"/>
      <use transform="translate(222.998047 0.125)" xlink:href="#DejaVuSans-Oblique-963"/>
      <use transform="translate(286.376953 0.125)" xlink:href="#DejaVuSans-Oblique-118"/>
      <use transform="translate(345.556641 -16.28125)scale(0.7)" xlink:href="#DejaVuSans-Oblique-103"/>
      <use transform="translate(392.724609 0.125)" xlink:href="#DejaVuSans-Oblique-116"/>
     </g>
    </g>
   </g>
   <g id="line2d_23">
    <path clip-path="url(#pb4b5a07243)" d="M 82.07642 492.48 
L 84.966538 492.37327 
L 87.856655 492.03995 
L 90.746773 491.460605 
L 93.275625 490.736925 
L 95.804478 489.797987 
L 98.333331 488.631851 
L 100.862183 487.22706 
L 103.391036 485.572709 
L 105.919889 483.658509 
L 108.448742 481.47486 
L 110.977594 479.012908 
L 113.506447 476.264609 
L 116.396564 472.76391 
L 119.286682 468.870653 
L 122.176799 464.577306 
L 125.066917 459.878118 
L 127.957034 454.769207 
L 131.208416 448.529604 
L 134.459798 441.76935 
L 137.71118 434.492073 
L 141.323827 425.808496 
L 144.936474 416.510054 
L 148.54912 406.61674 
L 152.523032 395.077395 
L 156.858208 381.751631 
L 161.554649 366.519322 
L 166.612354 349.295654 
L 172.031324 330.049317 
L 178.895353 304.783267 
L 189.733293 263.857734 
L 199.848704 225.96004 
L 205.990204 203.78711 
L 211.047909 186.31543 
L 215.383085 172.067839 
L 219.356996 159.706971 
L 222.969643 149.127733 
L 226.58229 139.240894 
L 229.833672 130.984399 
L 232.723789 124.190077 
L 235.613907 117.93642 
L 238.504024 112.248177 
L 241.032877 107.752611 
L 243.56173 103.721021 
L 245.729318 100.644066 
L 247.896906 97.924039 
L 250.064494 95.567096 
L 252.232082 93.578576 
L 254.038405 92.206194 
L 255.844729 91.094977 
L 257.651052 90.24668 
L 259.457375 89.662645 
L 261.263699 89.343794 
L 263.070022 89.290633 
L 264.876345 89.503245 
L 266.682669 89.981294 
L 268.488992 90.724023 
L 270.295315 91.73026 
L 272.101639 92.998413 
L 273.907962 94.526481 
L 275.714286 96.312054 
L 277.881874 98.790659 
L 280.049462 101.630386 
L 282.21705 104.824812 
L 284.745902 108.990289 
L 287.274755 113.615956 
L 289.803608 118.687694 
L 292.693725 125.010329 
L 295.583843 131.870393 
L 298.835225 140.19668 
L 302.086607 149.127733 
L 305.699254 159.706971 
L 309.673165 172.067839 
L 314.008341 186.31543 
L 318.704782 202.512672 
L 324.485017 223.307595 
L 331.71031 250.203368 
L 352.663661 328.741419 
L 358.443896 349.295654 
L 363.501601 366.519322 
L 368.198042 381.751631 
L 372.533218 395.077395 
L 376.50713 406.61674 
L 380.481041 417.467039 
L 384.093688 426.704806 
L 387.706334 435.326002 
L 390.957717 442.546117 
L 394.209099 449.248638 
L 397.460481 455.430313 
L 400.350598 460.487862 
L 403.240715 465.136068 
L 406.130833 469.379052 
L 409.02095 473.222792 
L 411.911068 476.675036 
L 414.801185 479.745206 
L 417.330038 482.126786 
L 419.85889 484.232512 
L 422.387743 486.071458 
L 424.916596 487.653428 
L 427.445449 488.988894 
L 429.974301 490.088925 
L 432.503154 490.965123 
L 435.032007 491.629553 
L 437.922124 492.145592 
L 440.812242 492.420428 
L 442.97983 492.48 
L 442.97983 492.48 
" style="fill:none;stroke:#0000ff;stroke-dasharray:7.4,3.2;stroke-dashoffset:0;stroke-width:2;"/>
   </g>
   <g id="line2d_24">
    <path clip-path="url(#pb4b5a07243)" d="M 82.07642 492.47007 
L 84.966538 492.430619 
L 87.856655 492.173081 
L 90.746773 491.678326 
L 93.275625 491.03611 
L 95.804478 490.185771 
L 98.333331 489.115525 
L 100.862183 487.814056 
L 103.391036 486.270578 
L 105.919889 484.474908 
L 108.448742 482.417524 
L 110.977594 480.089633 
L 113.506447 477.483231 
L 116.0353 474.591162 
L 118.925417 470.928164 
L 121.815535 466.876115 
L 124.705652 462.428945 
L 127.595769 457.582397 
L 130.485887 452.334112 
L 133.737269 445.949172 
L 136.988651 439.057831 
L 140.240033 431.665908 
L 143.85268 422.876863 
L 147.465326 413.498832 
L 151.439238 402.530087 
L 155.413149 390.913981 
L 159.748325 377.556728 
L 164.444766 362.357226 
L 169.863736 344.0053 
L 176.005236 322.364223 
L 183.953058 293.480853 
L 200.932498 231.516121 
L 207.073998 210.113309 
L 212.131703 193.29494 
L 216.466879 179.616523 
L 220.440791 167.781443 
L 224.053437 157.680894 
L 227.304819 149.179192 
L 230.556201 141.279015 
L 233.446319 134.793526 
L 236.336436 128.840181 
L 238.865289 124.086218 
L 241.394142 119.772422 
L 243.922994 115.912046 
L 246.090582 112.973096 
L 248.25817 110.382708 
L 250.425758 108.146776 
L 252.593346 106.270394 
L 254.39967 104.984512 
L 256.205993 103.953348 
L 258.012317 103.178537 
L 259.81864 102.661311 
L 261.624963 102.402492 
L 263.431287 102.402492 
L 265.23761 102.661311 
L 267.043933 103.178537 
L 268.850257 103.953348 
L 270.65658 104.984512 
L 272.462904 106.270394 
L 274.269227 107.808951 
L 276.436815 109.98529 
L 278.604403 112.51699 
L 280.771991 115.398289 
L 282.939579 118.622644 
L 285.468432 122.808186 
L 287.997285 127.437816 
L 290.526137 132.497343 
L 293.416255 138.786186 
L 296.306372 145.591333 
L 299.557754 153.830733 
L 303.170401 163.662193 
L 306.783048 174.14793 
L 310.756959 186.362421 
L 315.092135 200.399342 
L 320.14984 217.560116 
L 326.29134 239.265908 
L 334.600427 269.551441 
L 349.773544 324.948233 
L 356.276308 347.73797 
L 361.695278 365.927296 
L 366.391719 380.959657 
L 370.726895 394.143771 
L 375.062071 406.595763 
L 379.035982 417.31938 
L 382.648629 426.464261 
L 386.261276 435.012497 
L 389.512658 442.182873 
L 392.76404 448.849666 
L 396.015422 455.008544 
L 399.266804 460.65846 
L 402.156921 465.254998 
L 405.047039 469.454602 
L 407.937156 473.262671 
L 410.827274 476.686366 
L 413.717391 479.734518 
L 416.246244 482.101725 
L 418.775096 484.197232 
L 421.303949 486.029724 
L 423.832802 487.60862 
L 426.361655 488.944015 
L 428.890507 490.046612 
L 431.41936 490.927655 
L 433.948213 491.598865 
L 436.83833 492.124597 
L 439.728447 492.410749 
L 442.618565 492.476404 
L 442.97983 492.47007 
L 442.97983 492.47007 
" style="fill:none;stroke:#0000ff;stroke-linecap:square;stroke-width:2;"/>
   </g>
   <g id="line2d_25">
    <path clip-path="url(#pb4b5a07243)" d="M 82.07642 492.48 
L 84.966538 492.375414 
L 88.21792 492.025379 
L 93.63689 491.148423 
L 97.610801 490.615515 
L 100.500919 490.455328 
L 103.029772 490.519543 
L 105.919889 490.81776 
L 109.8938 491.486607 
L 114.590241 492.251857 
L 117.119094 492.459127 
L 119.647947 492.436909 
L 122.176799 492.164009 
L 124.705652 491.666287 
L 128.679563 490.613951 
L 132.653475 489.61845 
L 135.182327 489.225069 
L 137.349916 489.117378 
L 139.517504 489.246644 
L 141.685092 489.602525 
L 144.213944 490.243429 
L 151.077973 492.160212 
L 153.245561 492.445544 
L 155.051885 492.457986 
L 156.858208 492.23984 
L 158.664531 491.788882 
L 160.470855 491.125536 
L 162.999707 489.925026 
L 169.141207 486.828995 
L 170.94753 486.223326 
L 172.392589 485.930845 
L 173.837648 485.835393 
L 175.282706 485.949404 
L 176.727765 486.272518 
L 178.534088 486.947789 
L 180.340412 487.869474 
L 183.591794 489.851855 
L 186.120646 491.300804 
L 187.92697 492.061789 
L 189.372029 492.408492 
L 190.455823 492.479088 
L 191.539617 492.366691 
L 192.623411 492.058156 
L 193.707205 491.546143 
L 194.790999 490.829706 
L 196.236057 489.567613 
L 197.681116 487.986693 
L 199.487439 485.648446 
L 202.377557 481.449734 
L 204.90641 477.884894 
L 206.351468 476.145372 
L 207.796527 474.764309 
L 208.880321 474.024862 
L 209.964115 473.579439 
L 211.047909 473.455566 
L 211.770438 473.560938 
L 212.854232 474.007542 
L 213.938026 474.798541 
L 215.02182 475.919902 
L 216.105614 477.343841 
L 217.550673 479.638384 
L 219.718261 483.628744 
L 222.247114 488.306139 
L 223.692173 490.502815 
L 224.775967 491.704157 
L 225.498496 492.221147 
L 226.221025 492.465631 
L 226.943555 492.3986 
L 227.666084 491.98138 
L 228.388613 491.176031 
L 229.111143 489.945758 
L 229.833672 488.255323 
L 230.556201 486.071458 
L 231.639995 481.803651 
L 232.723789 476.264609 
L 233.807583 469.379052 
L 234.891377 461.091207 
L 235.975171 451.367132 
L 237.42023 436.15362 
L 238.865289 418.418049 
L 240.671612 392.90839 
L 242.477936 364.10805 
L 244.645524 326.117356 
L 248.619435 251.564917 
L 251.870817 192.459382 
L 253.67714 163.006336 
L 255.483464 137.351962 
L 256.928523 120.216566 
L 258.012317 109.623238 
L 259.096111 101.132283 
L 259.81864 96.699829 
L 260.541169 93.283305 
L 261.263699 90.904235 
L 261.986228 89.577638 
L 262.347493 89.311898 
L 262.708757 89.311898 
L 263.070022 89.577638 
L 263.431287 90.108697 
L 264.153816 91.962995 
L 264.876345 94.86308 
L 265.598875 98.790659 
L 266.321404 103.721021 
L 267.405198 112.927492 
L 268.488992 124.190077 
L 269.934051 142.130599 
L 271.37911 163.006336 
L 273.185433 192.459382 
L 275.714286 238.009116 
L 282.21705 358.006051 
L 284.384638 392.90839 
L 286.190961 418.418049 
L 287.63602 436.15362 
L 289.081079 451.367132 
L 290.526137 464.012199 
L 291.609931 471.827722 
L 292.693725 478.257229 
L 293.777519 483.363271 
L 294.861313 487.22706 
L 295.583843 489.160191 
L 296.306372 490.616254 
L 297.028901 491.629553 
L 297.751431 492.236157 
L 298.47396 492.473484 
L 299.196489 492.379893 
L 299.919019 491.994275 
L 300.641548 491.355657 
L 301.725342 490.008019 
L 303.170401 487.681459 
L 305.699254 482.939154 
L 307.866842 479.028327 
L 309.3119 476.837873 
L 310.395694 475.510834 
L 311.479488 474.497198 
L 312.563282 473.820098 
L 313.647076 473.489141 
L 314.369606 473.459806 
L 315.4534 473.693363 
L 316.537194 474.240279 
L 317.620988 475.070195 
L 319.066046 476.550898 
L 320.511105 478.362741 
L 323.039958 481.983734 
L 326.29134 486.624256 
L 328.097663 488.814053 
L 329.542722 490.24112 
L 330.987781 491.329898 
L 332.071575 491.910277 
L 333.155369 492.286127 
L 334.239163 492.462716 
L 335.322957 492.451328 
L 336.768015 492.173104 
L 338.213074 491.642114 
L 340.019398 490.717446 
L 343.993309 488.288316 
L 346.160897 487.114818 
L 347.96722 486.384631 
L 349.412279 486.01089 
L 350.857338 485.844044 
L 352.302396 485.887819 
L 353.747455 486.132856 
L 355.553778 486.689141 
L 357.721367 487.639086 
L 361.695278 489.736272 
L 364.585395 491.125536 
L 366.752983 491.897048 
L 368.559307 492.302344 
L 370.36563 492.473487 
L 372.171953 492.417092 
L 374.339542 492.088385 
L 376.868394 491.445801 
L 383.732423 489.528946 
L 385.900011 489.208657 
L 388.067599 489.119091 
L 390.235187 489.264914 
L 392.76404 489.694075 
L 396.015422 490.513887 
L 401.434392 491.90351 
L 403.963245 492.311106 
L 406.492097 492.476929 
L 409.02095 492.395617 
L 411.911068 492.052672 
L 422.387743 490.498461 
L 424.916596 490.462132 
L 427.806713 490.651316 
L 431.41936 491.148423 
L 439.005918 492.28358 
L 441.896036 492.465323 
L 442.97983 492.48 
L 442.97983 492.48 
" style="fill:none;stroke:#ff0000;stroke-dasharray:7.4,3.2;stroke-dashoffset:0;stroke-width:2;"/>
   </g>
   <g id="line2d_26">
    <path clip-path="url(#pb4b5a07243)" d="M 82.07642 492.47009 
L 84.966538 492.431085 
L 88.21792 492.147393 
L 92.191831 491.551152 
L 97.972066 490.679422 
L 100.862183 490.470161 
L 103.752301 490.501783 
L 106.642418 490.774704 
L 110.255065 491.357398 
L 115.674035 492.249356 
L 118.202888 492.457523 
L 120.731741 492.440335 
L 123.260593 492.17641 
L 125.789446 491.689892 
L 129.763357 490.652015 
L 133.737269 489.654405 
L 136.266122 489.246305 
L 138.43371 489.11764 
L 140.601298 489.220249 
L 142.768886 489.547416 
L 145.297738 490.158885 
L 152.884297 492.220548 
L 155.051885 492.462929 
L 156.858208 492.439841 
L 158.664531 492.191004 
L 160.470855 491.71773 
L 162.638443 490.886997 
L 165.167295 489.658085 
L 170.225001 487.10686 
L 172.031324 486.428456 
L 173.837648 485.988088 
L 175.282706 485.841208 
L 176.727765 485.893133 
L 178.172824 486.146689 
L 179.979147 486.731421 
L 181.78547 487.569159 
L 184.314323 489.019697 
L 187.92697 491.12331 
L 189.733293 491.9223 
L 191.178352 492.331572 
L 192.623411 492.479981 
L 193.707205 492.395179 
L 194.790999 492.128491 
L 195.874793 491.67297 
L 197.319851 490.770314 
L 198.76491 489.54323 
L 200.209969 488.023835 
L 202.016292 485.792376 
L 204.90641 481.790472 
L 207.796527 477.895225 
L 209.60285 475.867699 
L 211.047909 474.6223 
L 212.131703 473.961475 
L 213.215497 473.565614 
L 214.299291 473.455031 
L 215.383085 473.6421 
L 216.466879 474.130384 
L 217.550673 474.913953 
L 218.634467 475.976938 
L 220.079526 477.78249 
L 221.885849 480.532275 
L 227.666084 489.924466 
L 228.749878 491.158649 
L 229.833672 492.027576 
L 230.556201 492.364195 
L 231.278731 492.479992 
L 232.00126 492.353333 
L 232.723789 491.963979 
L 233.446319 491.293344 
L 234.168848 490.324743 
L 234.891377 489.043627 
L 235.975171 486.509996 
L 237.058965 483.216127 
L 238.14276 479.145954 
L 239.226554 474.298582 
L 240.671612 466.654612 
L 242.116671 457.737608 
L 243.922994 445.005173 
L 246.090582 427.890222 
L 250.064494 394.02961 
L 252.954611 370.366178 
L 254.760935 357.27079 
L 256.205993 348.205577 
L 257.651052 340.675848 
L 258.734846 336.168324 
L 259.81864 332.721092 
L 260.541169 331.040712 
L 261.263699 329.869468 
L 261.986228 329.21597 
L 262.347493 329.08503 
L 262.708757 329.08503 
L 263.070022 329.21597 
L 263.792551 329.869468 
L 264.515081 331.040712 
L 265.23761 332.721092 
L 265.960139 334.898275 
L 267.043933 339.059745 
L 268.127727 344.234177 
L 269.572786 352.561488 
L 271.017845 362.300083 
L 272.824168 376.0372 
L 275.353021 397.11871 
L 280.049462 436.656236 
L 282.21705 452.840689 
L 284.023373 464.54045 
L 285.468432 472.512199 
L 286.91349 479.145954 
L 287.997285 483.216127 
L 289.081079 486.509996 
L 290.164873 489.043627 
L 290.887402 490.324743 
L 291.609931 491.293344 
L 292.332461 491.963979 
L 293.05499 492.353333 
L 293.777519 492.479992 
L 294.500049 492.364195 
L 295.222578 492.027576 
L 295.945107 491.492901 
L 297.028901 490.371379 
L 298.47396 488.407485 
L 300.280283 485.474678 
L 304.254195 478.827049 
L 305.699254 476.828399 
L 307.144312 475.23831 
L 308.228106 474.35934 
L 309.3119 473.771485 
L 310.395694 473.48395 
L 311.479488 473.496272 
L 312.563282 473.798925 
L 313.647076 474.374134 
L 314.73087 475.196866 
L 316.175929 476.624311 
L 317.982252 478.815656 
L 320.87237 482.811279 
L 323.762487 486.722283 
L 325.568811 488.817326 
L 327.013869 490.195764 
L 328.458928 491.263457 
L 329.903987 491.997819 
L 330.987781 492.326946 
L 332.071575 492.471279 
L 333.155369 492.441218 
L 334.600427 492.156537 
L 336.045486 491.635637 
L 337.851809 490.738068 
L 341.464456 488.585004 
L 343.993309 487.207895 
L 345.799632 486.463905 
L 347.244691 486.064704 
L 348.68975 485.861152 
L 350.134808 485.859662 
L 351.579867 486.054427 
L 353.38619 486.547043 
L 355.553778 487.430141 
L 358.443896 488.895554 
L 362.417807 490.886997 
L 364.585395 491.71773 
L 366.391719 492.191004 
L 368.198042 492.439841 
L 370.004365 492.462929 
L 371.810689 492.279186 
L 373.978277 491.837701 
L 377.229659 490.909582 
L 381.564835 489.700491 
L 384.093688 489.259846 
L 386.261276 489.118457 
L 388.428864 489.209483 
L 390.596452 489.513295 
L 393.486569 490.165483 
L 401.073127 492.057907 
L 403.60198 492.389924 
L 406.130833 492.477356 
L 408.659686 492.328933 
L 411.911068 491.875981 
L 419.85889 490.6105 
L 422.749008 490.454378 
L 425.639125 490.547081 
L 428.890507 490.908946 
L 440.089712 492.431085 
L 442.97983 492.47009 
L 442.97983 492.47009 
" style="fill:none;stroke:#ff0000;stroke-linecap:square;stroke-width:2;"/>
   </g>
   <g id="patch_3">
    <path d="M 64.03125 512.64 
L 64.03125 69.12 
" style="fill:none;stroke:#000000;stroke-linecap:square;stroke-linejoin:miter;stroke-width:0.8;"/>
   </g>
   <g id="patch_4">
    <path d="M 461.025 512.64 
L 461.025 69.12 
" style="fill:none;stroke:#000000;stroke-linecap:square;stroke-linejoin:miter;stroke-width:0.8;"/>
   </g>
   <g id="patch_5">
    <path d="M 64.03125 512.64 
L 461.025 512.64 
" style="fill:none;stroke:#000000;stroke-linecap:square;stroke-linejoin:miter;stroke-width:0.8;"/>
   </g>
   <g id="patch_6">
    <path d="M 64.03125 69.12 
L 461.025 69.12 
" style="fill:none;stroke:#000000;stroke-linecap:square;stroke-linejoin:miter;stroke-width:0.8;"/>
   </g>
   <g id="legend_1">
    <g id="patch_7">
     <path d="M 81.53125 235.90125 
L 257.101562 235.90125 
Q 262.101562 235.90125 262.101562 230.90125 
L 262.101562 86.62 
Q 262.101562 81.62 257.101562 81.62 
L 81.53125 81.62 
Q 76.53125 81.62 76.53125 86.62 
L 76.53125 230.90125 
Q 76.53125 235.90125 81.53125 235.90125 
z
" style="fill:#ffffff;opacity:0.8;stroke:#cccccc;stroke-linejoin:miter;"/>
    </g>
    <g id="line2d_27">
     <path d="M 86.53125 101.866094 
L 136.53125 101.866094 
" style="fill:none;stroke:#000000;stroke-dasharray:7.4,3.2;stroke-dashoffset:0;stroke-width:2;"/>
    </g>
    <g id="line2d_28"/>
    <g id="text_14">
     <!-- kin -->
     <defs>
      <path d="M 9.078125 75.984375 
L 18.109375 75.984375 
L 18.109375 31.109375 
L 44.921875 54.6875 
L 56.390625 54.6875 
L 27.390625 29.109375 
L 57.625 0 
L 45.90625 0 
L 18.109375 26.703125 
L 18.109375 0 
L 9.078125 0 
z
" id="DejaVuSans-107"/>
      <path d="M 9.421875 54.6875 
L 18.40625 54.6875 
L 18.40625 0 
L 9.421875 0 
z
M 9.421875 75.984375 
L 18.40625 75.984375 
L 18.40625 64.59375 
L 9.421875 64.59375 
z
" id="DejaVuSans-105"/>
      <path d="M 54.890625 33.015625 
L 54.890625 0 
L 45.90625 0 
L 45.90625 32.71875 
Q 45.90625 40.484375 42.875 44.328125 
Q 39.84375 48.1875 33.796875 48.1875 
Q 26.515625 48.1875 22.3125 43.546875 
Q 18.109375 38.921875 18.109375 30.90625 
L 18.109375 0 
L 9.078125 0 
L 9.078125 54.6875 
L 18.109375 54.6875 
L 18.109375 46.1875 
Q 21.34375 51.125 25.703125 53.5625 
Q 30.078125 56 35.796875 56 
Q 45.21875 56 50.046875 50.171875 
Q 54.890625 44.34375 54.890625 33.015625 
z
" id="DejaVuSans-110"/>
     </defs>
     <g transform="translate(156.53125 110.616094)scale(0.25 -0.25)">
      <use xlink:href="#DejaVuSans-107"/>
      <use x="57.910156" xlink:href="#DejaVuSans-105"/>
      <use x="85.693359" xlink:href="#DejaVuSans-110"/>
     </g>
    </g>
    <g id="line2d_29">
     <path d="M 86.53125 138.561406 
L 136.53125 138.561406 
" style="fill:none;stroke:#000000;stroke-linecap:square;stroke-width:2;"/>
    </g>
    <g id="line2d_30"/>
    <g id="text_15">
     <!-- dyn -->
     <defs>
      <path d="M 45.40625 46.390625 
L 45.40625 75.984375 
L 54.390625 75.984375 
L 54.390625 0 
L 45.40625 0 
L 45.40625 8.203125 
Q 42.578125 3.328125 38.25 0.953125 
Q 33.9375 -1.421875 27.875 -1.421875 
Q 17.96875 -1.421875 11.734375 6.484375 
Q 5.515625 14.40625 5.515625 27.296875 
Q 5.515625 40.1875 11.734375 48.09375 
Q 17.96875 56 27.875 56 
Q 33.9375 56 38.25 53.625 
Q 42.578125 51.265625 45.40625 46.390625 
z
M 14.796875 27.296875 
Q 14.796875 17.390625 18.875 11.75 
Q 22.953125 6.109375 30.078125 6.109375 
Q 37.203125 6.109375 41.296875 11.75 
Q 45.40625 17.390625 45.40625 27.296875 
Q 45.40625 37.203125 41.296875 42.84375 
Q 37.203125 48.484375 30.078125 48.484375 
Q 22.953125 48.484375 18.875 42.84375 
Q 14.796875 37.203125 14.796875 27.296875 
z
" id="DejaVuSans-100"/>
      <path d="M 32.171875 -5.078125 
Q 28.375 -14.84375 24.75 -17.8125 
Q 21.140625 -20.796875 15.09375 -20.796875 
L 7.90625 -20.796875 
L 7.90625 -13.28125 
L 13.1875 -13.28125 
Q 16.890625 -13.28125 18.9375 -11.515625 
Q 21 -9.765625 23.484375 -3.21875 
L 25.09375 0.875 
L 2.984375 54.6875 
L 12.5 54.6875 
L 29.59375 11.921875 
L 46.6875 54.6875 
L 56.203125 54.6875 
z
" id="DejaVuSans-121"/>
     </defs>
     <g transform="translate(156.53125 147.311406)scale(0.25 -0.25)">
      <use xlink:href="#DejaVuSans-100"/>
      <use x="63.476562" xlink:href="#DejaVuSans-121"/>
      <use x="122.65625" xlink:href="#DejaVuSans-110"/>
     </g>
    </g>
    <g id="line2d_31">
     <path d="M 86.53125 175.256719 
L 136.53125 175.256719 
" style="fill:none;stroke:#0000ff;stroke-linecap:square;stroke-width:2;"/>
    </g>
    <g id="line2d_32"/>
    <g id="text_16">
     <!-- t=100A -->
     <defs>
      <path d="M 18.3125 70.21875 
L 18.3125 54.6875 
L 36.8125 54.6875 
L 36.8125 47.703125 
L 18.3125 47.703125 
L 18.3125 18.015625 
Q 18.3125 11.328125 20.140625 9.421875 
Q 21.96875 7.515625 27.59375 7.515625 
L 36.8125 7.515625 
L 36.8125 0 
L 27.59375 0 
Q 17.1875 0 13.234375 3.875 
Q 9.28125 7.765625 9.28125 18.015625 
L 9.28125 47.703125 
L 2.6875 47.703125 
L 2.6875 54.6875 
L 9.28125 54.6875 
L 9.28125 70.21875 
z
" id="DejaVuSans-116"/>
      <path d="M 10.59375 45.40625 
L 73.1875 45.40625 
L 73.1875 37.203125 
L 10.59375 37.203125 
z
M 10.59375 25.484375 
L 73.1875 25.484375 
L 73.1875 17.1875 
L 10.59375 17.1875 
z
" id="DejaVuSans-61"/>
      <path d="M 34.1875 63.1875 
L 20.796875 26.90625 
L 47.609375 26.90625 
z
M 28.609375 72.90625 
L 39.796875 72.90625 
L 67.578125 0 
L 57.328125 0 
L 50.6875 18.703125 
L 17.828125 18.703125 
L 11.1875 0 
L 0.78125 0 
z
" id="DejaVuSans-65"/>
     </defs>
     <g transform="translate(156.53125 184.006719)scale(0.25 -0.25)">
      <use xlink:href="#DejaVuSans-116"/>
      <use x="39.208984" xlink:href="#DejaVuSans-61"/>
      <use x="122.998047" xlink:href="#DejaVuSans-49"/>
      <use x="186.621094" xlink:href="#DejaVuSans-48"/>
      <use x="250.244141" xlink:href="#DejaVuSans-48"/>
      <use x="313.867188" xlink:href="#DejaVuSans-65"/>
     </g>
    </g>
    <g id="line2d_33">
     <path d="M 86.53125 211.952031 
L 136.53125 211.952031 
" style="fill:none;stroke:#ff0000;stroke-linecap:square;stroke-width:2;"/>
    </g>
    <g id="line2d_34"/>
    <g id="text_17">
     <!-- t=500A -->
     <g transform="translate(156.53125 220.702031)scale(0.25 -0.25)">
      <use xlink:href="#DejaVuSans-116"/>
      <use x="39.208984" xlink:href="#DejaVuSans-61"/>
      <use x="122.998047" xlink:href="#DejaVuSans-53"/>
      <use x="186.621094" xlink:href="#DejaVuSans-48"/>
      <use x="250.244141" xlink:href="#DejaVuSans-48"/>
      <use x="313.867188" xlink:href="#DejaVuSans-65"/>
     </g>
    </g>
   </g>
  </g>
 </g>
 <defs>
  <clipPath id="pb4b5a07243">
   <rect height="443.52" width="396.99375" x="64.03125" y="69.12"/>
  </clipPath>
 </defs>
</svg>
