<?xml version="1.0" encoding="utf-8" standalone="no"?>
<!DOCTYPE svg PUBLIC "-//W3C//DTD SVG 1.1//EN"
  "http://www.w3.org/Graphics/SVG/1.1/DTD/svg11.dtd">
<!-- Created with matplotlib (https://matplotlib.org/) -->
<svg height="810pt" version="1.1" viewBox="0 0 720 810" width="720pt" xmlns="http://www.w3.org/2000/svg" xmlns:xlink="http://www.w3.org/1999/xlink">
 <metadata>
  <rdf:RDF xmlns:cc="http://creativecommons.org/ns#" xmlns:dc="http://purl.org/dc/elements/1.1/" xmlns:rdf="http://www.w3.org/1999/02/22-rdf-syntax-ns#">
   <cc:Work>
    <dc:type rdf:resource="http://purl.org/dc/dcmitype/StillImage"/>
    <dc:date>2020-08-28T12:13:58.827502</dc:date>
    <dc:format>image/svg+xml</dc:format>
    <dc:creator>
     <cc:Agent>
      <dc:title>Matplotlib v3.3.1, https://matplotlib.org/</dc:title>
     </cc:Agent>
    </dc:creator>
   </cc:Work>
  </rdf:RDF>
 </metadata>
 <defs>
  <style type="text/css">*{stroke-linecap:butt;stroke-linejoin:round;}</style>
 </defs>
 <g id="figure_1">
  <g id="patch_1">
   <path d="M 0 810 
L 720 810 
L 720 0 
L 0 0 
z
" style="fill:#ffffff;"/>
  </g>
  <g id="axes_1">
   <g id="patch_2">
    <path d="M 108 720.9 
L 698.4 720.9 
L 698.4 56.7 
L 108 56.7 
z
" style="fill:#ffffff;"/>
   </g>
   <g id="matplotlib.axis_1">
    <g id="xtick_1">
     <g id="line2d_1">
      <path clip-path="url(#pf7b75e2c14)" d="M 174.758365 720.9 
L 174.758365 56.7 
" style="fill:none;stroke:#e6e6e6;stroke-linecap:square;stroke-width:0.8;"/>
     </g>
     <g id="line2d_2">
      <defs>
       <path d="M 0 0 
L 0 -3.5 
" id="md585e227fd" style="stroke:#000000;stroke-width:0.8;"/>
      </defs>
      <g>
       <use style="stroke:#000000;stroke-width:0.8;" x="174.758365" xlink:href="#md585e227fd" y="720.9"/>
      </g>
     </g>
     <g id="text_1">
      <!-- −7.5 -->
      <g transform="translate(156.546255 735.797656)scale(0.15 -0.15)">
       <defs>
        <path d="M 10.59375 35.5 
L 73.1875 35.5 
L 73.1875 27.203125 
L 10.59375 27.203125 
z
" id="DejaVuSans-8722"/>
        <path d="M 8.203125 72.90625 
L 55.078125 72.90625 
L 55.078125 68.703125 
L 28.609375 0 
L 18.3125 0 
L 43.21875 64.59375 
L 8.203125 64.59375 
z
" id="DejaVuSans-55"/>
        <path d="M 10.6875 12.40625 
L 21 12.40625 
L 21 0 
L 10.6875 0 
z
" id="DejaVuSans-46"/>
        <path d="M 10.796875 72.90625 
L 49.515625 72.90625 
L 49.515625 64.59375 
L 19.828125 64.59375 
L 19.828125 46.734375 
Q 21.96875 47.46875 24.109375 47.828125 
Q 26.265625 48.1875 28.421875 48.1875 
Q 40.625 48.1875 47.75 41.5 
Q 54.890625 34.8125 54.890625 23.390625 
Q 54.890625 11.625 47.5625 5.09375 
Q 40.234375 -1.421875 26.90625 -1.421875 
Q 22.3125 -1.421875 17.546875 -0.640625 
Q 12.796875 0.140625 7.71875 1.703125 
L 7.71875 11.625 
Q 12.109375 9.234375 16.796875 8.0625 
Q 21.484375 6.890625 26.703125 6.890625 
Q 35.15625 6.890625 40.078125 11.328125 
Q 45.015625 15.765625 45.015625 23.390625 
Q 45.015625 31 40.078125 35.4375 
Q 35.15625 39.890625 26.703125 39.890625 
Q 22.75 39.890625 18.8125 39.015625 
Q 14.890625 38.140625 10.796875 36.28125 
z
" id="DejaVuSans-53"/>
       </defs>
       <use xlink:href="#DejaVuSans-8722"/>
       <use x="83.789062" xlink:href="#DejaVuSans-55"/>
       <use x="147.412109" xlink:href="#DejaVuSans-46"/>
       <use x="179.199219" xlink:href="#DejaVuSans-53"/>
      </g>
     </g>
    </g>
    <g id="xtick_2">
     <g id="line2d_3">
      <path clip-path="url(#pf7b75e2c14)" d="M 250.905577 720.9 
L 250.905577 56.7 
" style="fill:none;stroke:#e6e6e6;stroke-linecap:square;stroke-width:0.8;"/>
     </g>
     <g id="line2d_4">
      <g>
       <use style="stroke:#000000;stroke-width:0.8;" x="250.905577" xlink:href="#md585e227fd" y="720.9"/>
      </g>
     </g>
     <g id="text_2">
      <!-- −5.0 -->
      <g transform="translate(232.693467 735.797656)scale(0.15 -0.15)">
       <defs>
        <path d="M 31.78125 66.40625 
Q 24.171875 66.40625 20.328125 58.90625 
Q 16.5 51.421875 16.5 36.375 
Q 16.5 21.390625 20.328125 13.890625 
Q 24.171875 6.390625 31.78125 6.390625 
Q 39.453125 6.390625 43.28125 13.890625 
Q 47.125 21.390625 47.125 36.375 
Q 47.125 51.421875 43.28125 58.90625 
Q 39.453125 66.40625 31.78125 66.40625 
z
M 31.78125 74.21875 
Q 44.046875 74.21875 50.515625 64.515625 
Q 56.984375 54.828125 56.984375 36.375 
Q 56.984375 17.96875 50.515625 8.265625 
Q 44.046875 -1.421875 31.78125 -1.421875 
Q 19.53125 -1.421875 13.0625 8.265625 
Q 6.59375 17.96875 6.59375 36.375 
Q 6.59375 54.828125 13.0625 64.515625 
Q 19.53125 74.21875 31.78125 74.21875 
z
" id="DejaVuSans-48"/>
       </defs>
       <use xlink:href="#DejaVuSans-8722"/>
       <use x="83.789062" xlink:href="#DejaVuSans-53"/>
       <use x="147.412109" xlink:href="#DejaVuSans-46"/>
       <use x="179.199219" xlink:href="#DejaVuSans-48"/>
      </g>
     </g>
    </g>
    <g id="xtick_3">
     <g id="line2d_5">
      <path clip-path="url(#pf7b75e2c14)" d="M 327.052788 720.9 
L 327.052788 56.7 
" style="fill:none;stroke:#e6e6e6;stroke-linecap:square;stroke-width:0.8;"/>
     </g>
     <g id="line2d_6">
      <g>
       <use style="stroke:#000000;stroke-width:0.8;" x="327.052788" xlink:href="#md585e227fd" y="720.9"/>
      </g>
     </g>
     <g id="text_3">
      <!-- −2.5 -->
      <g transform="translate(308.840679 735.797656)scale(0.15 -0.15)">
       <defs>
        <path d="M 19.1875 8.296875 
L 53.609375 8.296875 
L 53.609375 0 
L 7.328125 0 
L 7.328125 8.296875 
Q 12.9375 14.109375 22.625 23.890625 
Q 32.328125 33.6875 34.8125 36.53125 
Q 39.546875 41.84375 41.421875 45.53125 
Q 43.3125 49.21875 43.3125 52.78125 
Q 43.3125 58.59375 39.234375 62.25 
Q 35.15625 65.921875 28.609375 65.921875 
Q 23.96875 65.921875 18.8125 64.3125 
Q 13.671875 62.703125 7.8125 59.421875 
L 7.8125 69.390625 
Q 13.765625 71.78125 18.9375 73 
Q 24.125 74.21875 28.421875 74.21875 
Q 39.75 74.21875 46.484375 68.546875 
Q 53.21875 62.890625 53.21875 53.421875 
Q 53.21875 48.921875 51.53125 44.890625 
Q 49.859375 40.875 45.40625 35.40625 
Q 44.1875 33.984375 37.640625 27.21875 
Q 31.109375 20.453125 19.1875 8.296875 
z
" id="DejaVuSans-50"/>
       </defs>
       <use xlink:href="#DejaVuSans-8722"/>
       <use x="83.789062" xlink:href="#DejaVuSans-50"/>
       <use x="147.412109" xlink:href="#DejaVuSans-46"/>
       <use x="179.199219" xlink:href="#DejaVuSans-53"/>
      </g>
     </g>
    </g>
    <g id="xtick_4">
     <g id="line2d_7">
      <path clip-path="url(#pf7b75e2c14)" d="M 403.2 720.9 
L 403.2 56.7 
" style="fill:none;stroke:#e6e6e6;stroke-linecap:square;stroke-width:0.8;"/>
     </g>
     <g id="line2d_8">
      <g>
       <use style="stroke:#000000;stroke-width:0.8;" x="403.2" xlink:href="#md585e227fd" y="720.9"/>
      </g>
     </g>
     <g id="text_4">
      <!-- 0.0 -->
      <g transform="translate(391.272656 735.797656)scale(0.15 -0.15)">
       <use xlink:href="#DejaVuSans-48"/>
       <use x="63.623047" xlink:href="#DejaVuSans-46"/>
       <use x="95.410156" xlink:href="#DejaVuSans-48"/>
      </g>
     </g>
    </g>
    <g id="xtick_5">
     <g id="line2d_9">
      <path clip-path="url(#pf7b75e2c14)" d="M 479.347212 720.9 
L 479.347212 56.7 
" style="fill:none;stroke:#e6e6e6;stroke-linecap:square;stroke-width:0.8;"/>
     </g>
     <g id="line2d_10">
      <g>
       <use style="stroke:#000000;stroke-width:0.8;" x="479.347212" xlink:href="#md585e227fd" y="720.9"/>
      </g>
     </g>
     <g id="text_5">
      <!-- 2.5 -->
      <g transform="translate(467.419868 735.797656)scale(0.15 -0.15)">
       <use xlink:href="#DejaVuSans-50"/>
       <use x="63.623047" xlink:href="#DejaVuSans-46"/>
       <use x="95.410156" xlink:href="#DejaVuSans-53"/>
      </g>
     </g>
    </g>
    <g id="xtick_6">
     <g id="line2d_11">
      <path clip-path="url(#pf7b75e2c14)" d="M 555.494423 720.9 
L 555.494423 56.7 
" style="fill:none;stroke:#e6e6e6;stroke-linecap:square;stroke-width:0.8;"/>
     </g>
     <g id="line2d_12">
      <g>
       <use style="stroke:#000000;stroke-width:0.8;" x="555.494423" xlink:href="#md585e227fd" y="720.9"/>
      </g>
     </g>
     <g id="text_6">
      <!-- 5.0 -->
      <g transform="translate(543.56708 735.797656)scale(0.15 -0.15)">
       <use xlink:href="#DejaVuSans-53"/>
       <use x="63.623047" xlink:href="#DejaVuSans-46"/>
       <use x="95.410156" xlink:href="#DejaVuSans-48"/>
      </g>
     </g>
    </g>
    <g id="xtick_7">
     <g id="line2d_13">
      <path clip-path="url(#pf7b75e2c14)" d="M 631.641635 720.9 
L 631.641635 56.7 
" style="fill:none;stroke:#e6e6e6;stroke-linecap:square;stroke-width:0.8;"/>
     </g>
     <g id="line2d_14">
      <g>
       <use style="stroke:#000000;stroke-width:0.8;" x="631.641635" xlink:href="#md585e227fd" y="720.9"/>
      </g>
     </g>
     <g id="text_7">
      <!-- 7.5 -->
      <g transform="translate(619.714291 735.797656)scale(0.15 -0.15)">
       <use xlink:href="#DejaVuSans-55"/>
       <use x="63.623047" xlink:href="#DejaVuSans-46"/>
       <use x="95.410156" xlink:href="#DejaVuSans-53"/>
      </g>
     </g>
    </g>
    <g id="text_8">
     <!-- $x$ -->
     <g transform="translate(395.7 761.913281)scale(0.25 -0.25)">
      <defs>
       <path d="M 60.015625 54.6875 
L 34.90625 27.875 
L 50.296875 0 
L 39.984375 0 
L 28.421875 21.6875 
L 8.296875 0 
L -2.59375 0 
L 24.3125 28.8125 
L 10.015625 54.6875 
L 20.3125 54.6875 
L 30.8125 34.90625 
L 49.125 54.6875 
z
" id="DejaVuSans-Oblique-120"/>
      </defs>
      <use transform="translate(0 0.3125)" xlink:href="#DejaVuSans-Oblique-120"/>
     </g>
    </g>
   </g>
   <g id="matplotlib.axis_2">
    <g id="ytick_1">
     <g id="line2d_15">
      <path clip-path="url(#pf7b75e2c14)" d="M 108 646.925448 
L 698.4 646.925448 
" style="fill:none;stroke:#e6e6e6;stroke-linecap:square;stroke-width:0.8;"/>
     </g>
     <g id="line2d_16">
      <defs>
       <path d="M 0 0 
L 3.5 0 
" id="m9c070592dd" style="stroke:#000000;stroke-width:0.8;"/>
      </defs>
      <g>
       <use style="stroke:#000000;stroke-width:0.8;" x="108" xlink:href="#m9c070592dd" y="646.925448"/>
      </g>
     </g>
     <g id="text_9">
      <!-- −0.75 -->
      <g transform="translate(58.532031 652.624276)scale(0.15 -0.15)">
       <use xlink:href="#DejaVuSans-8722"/>
       <use x="83.789062" xlink:href="#DejaVuSans-48"/>
       <use x="147.412109" xlink:href="#DejaVuSans-46"/>
       <use x="179.199219" xlink:href="#DejaVuSans-55"/>
       <use x="242.822266" xlink:href="#DejaVuSans-53"/>
      </g>
     </g>
    </g>
    <g id="ytick_2">
     <g id="line2d_17">
      <path clip-path="url(#pf7b75e2c14)" d="M 108 560.883569 
L 698.4 560.883569 
" style="fill:none;stroke:#e6e6e6;stroke-linecap:square;stroke-width:0.8;"/>
     </g>
     <g id="line2d_18">
      <g>
       <use style="stroke:#000000;stroke-width:0.8;" x="108" xlink:href="#m9c070592dd" y="560.883569"/>
      </g>
     </g>
     <g id="text_10">
      <!-- −0.50 -->
      <g transform="translate(58.532031 566.582397)scale(0.15 -0.15)">
       <use xlink:href="#DejaVuSans-8722"/>
       <use x="83.789062" xlink:href="#DejaVuSans-48"/>
       <use x="147.412109" xlink:href="#DejaVuSans-46"/>
       <use x="179.199219" xlink:href="#DejaVuSans-53"/>
       <use x="242.822266" xlink:href="#DejaVuSans-48"/>
      </g>
     </g>
    </g>
    <g id="ytick_3">
     <g id="line2d_19">
      <path clip-path="url(#pf7b75e2c14)" d="M 108 474.841691 
L 698.4 474.841691 
" style="fill:none;stroke:#e6e6e6;stroke-linecap:square;stroke-width:0.8;"/>
     </g>
     <g id="line2d_20">
      <g>
       <use style="stroke:#000000;stroke-width:0.8;" x="108" xlink:href="#m9c070592dd" y="474.841691"/>
      </g>
     </g>
     <g id="text_11">
      <!-- −0.25 -->
      <g transform="translate(58.532031 480.540519)scale(0.15 -0.15)">
       <use xlink:href="#DejaVuSans-8722"/>
       <use x="83.789062" xlink:href="#DejaVuSans-48"/>
       <use x="147.412109" xlink:href="#DejaVuSans-46"/>
       <use x="179.199219" xlink:href="#DejaVuSans-50"/>
       <use x="242.822266" xlink:href="#DejaVuSans-53"/>
      </g>
     </g>
    </g>
    <g id="ytick_4">
     <g id="line2d_21">
      <path clip-path="url(#pf7b75e2c14)" d="M 108 388.799812 
L 698.4 388.799812 
" style="fill:none;stroke:#e6e6e6;stroke-linecap:square;stroke-width:0.8;"/>
     </g>
     <g id="line2d_22">
      <g>
       <use style="stroke:#000000;stroke-width:0.8;" x="108" xlink:href="#m9c070592dd" y="388.799812"/>
      </g>
     </g>
     <g id="text_12">
      <!-- 0.00 -->
      <g transform="translate(71.101562 394.49864)scale(0.15 -0.15)">
       <use xlink:href="#DejaVuSans-48"/>
       <use x="63.623047" xlink:href="#DejaVuSans-46"/>
       <use x="95.410156" xlink:href="#DejaVuSans-48"/>
       <use x="159.033203" xlink:href="#DejaVuSans-48"/>
      </g>
     </g>
    </g>
    <g id="ytick_5">
     <g id="line2d_23">
      <path clip-path="url(#pf7b75e2c14)" d="M 108 302.757933 
L 698.4 302.757933 
" style="fill:none;stroke:#e6e6e6;stroke-linecap:square;stroke-width:0.8;"/>
     </g>
     <g id="line2d_24">
      <g>
       <use style="stroke:#000000;stroke-width:0.8;" x="108" xlink:href="#m9c070592dd" y="302.757933"/>
      </g>
     </g>
     <g id="text_13">
      <!-- 0.25 -->
      <g transform="translate(71.101562 308.456762)scale(0.15 -0.15)">
       <use xlink:href="#DejaVuSans-48"/>
       <use x="63.623047" xlink:href="#DejaVuSans-46"/>
       <use x="95.410156" xlink:href="#DejaVuSans-50"/>
       <use x="159.033203" xlink:href="#DejaVuSans-53"/>
      </g>
     </g>
    </g>
    <g id="ytick_6">
     <g id="line2d_25">
      <path clip-path="url(#pf7b75e2c14)" d="M 108 216.716055 
L 698.4 216.716055 
" style="fill:none;stroke:#e6e6e6;stroke-linecap:square;stroke-width:0.8;"/>
     </g>
     <g id="line2d_26">
      <g>
       <use style="stroke:#000000;stroke-width:0.8;" x="108" xlink:href="#m9c070592dd" y="216.716055"/>
      </g>
     </g>
     <g id="text_14">
      <!-- 0.50 -->
      <g transform="translate(71.101562 222.414883)scale(0.15 -0.15)">
       <use xlink:href="#DejaVuSans-48"/>
       <use x="63.623047" xlink:href="#DejaVuSans-46"/>
       <use x="95.410156" xlink:href="#DejaVuSans-53"/>
       <use x="159.033203" xlink:href="#DejaVuSans-48"/>
      </g>
     </g>
    </g>
    <g id="ytick_7">
     <g id="line2d_27">
      <path clip-path="url(#pf7b75e2c14)" d="M 108 130.674176 
L 698.4 130.674176 
" style="fill:none;stroke:#e6e6e6;stroke-linecap:square;stroke-width:0.8;"/>
     </g>
     <g id="line2d_28">
      <g>
       <use style="stroke:#000000;stroke-width:0.8;" x="108" xlink:href="#m9c070592dd" y="130.674176"/>
      </g>
     </g>
     <g id="text_15">
      <!-- 0.75 -->
      <g transform="translate(71.101562 136.373004)scale(0.15 -0.15)">
       <use xlink:href="#DejaVuSans-48"/>
       <use x="63.623047" xlink:href="#DejaVuSans-46"/>
       <use x="95.410156" xlink:href="#DejaVuSans-55"/>
       <use x="159.033203" xlink:href="#DejaVuSans-53"/>
      </g>
     </g>
    </g>
    <g id="text_16">
     <!-- $Fresnel Propagator$ -->
     <g transform="translate(49.282031 503.675)rotate(-90)scale(0.25 -0.25)">
      <defs>
       <path d="M 16.890625 72.90625 
L 58.6875 72.90625 
L 57.078125 64.59375 
L 25.09375 64.59375 
L 20.90625 43.109375 
L 49.8125 43.109375 
L 48.1875 34.8125 
L 19.28125 34.8125 
L 12.5 0 
L 2.6875 0 
z
" id="DejaVuSans-Oblique-70"/>
       <path d="M 44.578125 46.390625 
Q 43.21875 47.125 41.453125 47.515625 
Q 39.703125 47.90625 37.703125 47.90625 
Q 30.515625 47.90625 25.140625 42.453125 
Q 19.78125 37.015625 18.015625 27.875 
L 12.5 0 
L 3.515625 0 
L 14.203125 54.6875 
L 23.1875 54.6875 
L 21.484375 46.1875 
Q 25.046875 50.921875 30 53.453125 
Q 34.96875 56 40.578125 56 
Q 42.046875 56 43.453125 55.828125 
Q 44.875 55.671875 46.296875 55.28125 
z
" id="DejaVuSans-Oblique-114"/>
       <path d="M 48.09375 32.234375 
Q 48.25 33.015625 48.3125 33.84375 
Q 48.390625 34.671875 48.390625 35.5 
Q 48.390625 41.453125 44.890625 44.921875 
Q 41.40625 48.390625 35.40625 48.390625 
Q 28.71875 48.390625 23.578125 44.15625 
Q 18.453125 39.9375 15.828125 32.171875 
z
M 55.90625 25.203125 
L 14.109375 25.203125 
Q 13.8125 23.34375 13.71875 22.265625 
Q 13.625 21.1875 13.625 20.40625 
Q 13.625 13.625 17.796875 9.90625 
Q 21.96875 6.203125 29.59375 6.203125 
Q 35.453125 6.203125 40.671875 7.515625 
Q 45.90625 8.84375 50.390625 11.375 
L 48.6875 2.484375 
Q 43.84375 0.53125 38.6875 -0.4375 
Q 33.546875 -1.421875 28.21875 -1.421875 
Q 16.84375 -1.421875 10.71875 4.015625 
Q 4.59375 9.46875 4.59375 19.484375 
Q 4.59375 28.03125 7.640625 35.375 
Q 10.6875 42.71875 16.609375 48.484375 
Q 20.40625 52.09375 25.65625 54.046875 
Q 30.90625 56 36.8125 56 
Q 46.09375 56 51.578125 50.4375 
Q 57.078125 44.875 57.078125 35.5 
Q 57.078125 33.25 56.78125 30.6875 
Q 56.5 28.125 55.90625 25.203125 
z
" id="DejaVuSans-Oblique-101"/>
       <path d="M 50 53.078125 
L 48.296875 44.578125 
Q 44.734375 46.53125 40.765625 47.5 
Q 36.8125 48.484375 32.625 48.484375 
Q 25.53125 48.484375 21.453125 46.0625 
Q 17.390625 43.65625 17.390625 39.5 
Q 17.390625 34.671875 26.859375 32.078125 
Q 27.59375 31.890625 27.9375 31.78125 
L 30.8125 30.90625 
Q 39.796875 28.421875 42.796875 25.6875 
Q 45.796875 22.953125 45.796875 18.21875 
Q 45.796875 9.515625 38.890625 4.046875 
Q 31.984375 -1.421875 20.796875 -1.421875 
Q 16.453125 -1.421875 11.671875 -0.578125 
Q 6.890625 0.25 1.125 2 
L 2.875 11.28125 
Q 7.8125 8.734375 12.59375 7.421875 
Q 17.390625 6.109375 21.78125 6.109375 
Q 28.375 6.109375 32.5 8.9375 
Q 36.625 11.765625 36.625 16.109375 
Q 36.625 20.796875 25.78125 23.6875 
L 24.859375 23.921875 
L 21.78125 24.703125 
Q 14.9375 26.515625 11.765625 29.46875 
Q 8.59375 32.421875 8.59375 37.015625 
Q 8.59375 45.75 15.15625 50.875 
Q 21.734375 56 33.015625 56 
Q 37.453125 56 41.671875 55.265625 
Q 45.90625 54.546875 50 53.078125 
z
" id="DejaVuSans-Oblique-115"/>
       <path d="M 55.71875 33.015625 
L 49.3125 0 
L 40.28125 0 
L 46.6875 32.671875 
Q 47.125 34.96875 47.359375 36.71875 
Q 47.609375 38.484375 47.609375 39.5 
Q 47.609375 43.609375 45.015625 45.890625 
Q 42.4375 48.1875 37.796875 48.1875 
Q 30.5625 48.1875 25.34375 43.375 
Q 20.125 38.578125 18.5 30.328125 
L 12.5 0 
L 3.515625 0 
L 14.109375 54.6875 
L 23.09375 54.6875 
L 21.296875 46.09375 
Q 25.046875 50.828125 30.3125 53.40625 
Q 35.59375 56 41.40625 56 
Q 48.640625 56 52.609375 52.09375 
Q 56.59375 48.1875 56.59375 41.109375 
Q 56.59375 39.359375 56.375 37.359375 
Q 56.15625 35.359375 55.71875 33.015625 
z
" id="DejaVuSans-Oblique-110"/>
       <path d="M 18.3125 75.984375 
L 27.296875 75.984375 
L 12.5 0 
L 3.515625 0 
z
" id="DejaVuSans-Oblique-108"/>
       <path d="M 16.890625 72.90625 
L 39.703125 72.90625 
Q 49.65625 72.90625 54.875 68.265625 
Q 60.109375 63.625 60.109375 54.6875 
Q 60.109375 42.671875 52.390625 35.984375 
Q 44.671875 29.296875 30.71875 29.296875 
L 18.3125 29.296875 
L 12.59375 0 
L 2.6875 0 
z
M 25.203125 64.796875 
L 19.921875 37.40625 
L 32.328125 37.40625 
Q 40.71875 37.40625 45.203125 41.703125 
Q 49.703125 46 49.703125 54 
Q 49.703125 59.125 46.65625 61.953125 
Q 43.609375 64.796875 38.09375 64.796875 
z
" id="DejaVuSans-Oblique-80"/>
       <path d="M 25.390625 -1.421875 
Q 15.765625 -1.421875 10.171875 4.515625 
Q 4.59375 10.453125 4.59375 20.703125 
Q 4.59375 26.65625 6.515625 32.828125 
Q 8.453125 39.015625 11.53125 43.21875 
Q 16.359375 49.75 22.3125 52.875 
Q 28.265625 56 35.796875 56 
Q 45.125 56 50.859375 50.1875 
Q 56.59375 44.390625 56.59375 35.015625 
Q 56.59375 28.515625 54.6875 22.0625 
Q 52.78125 15.625 49.703125 11.375 
Q 44.921875 4.828125 38.96875 1.703125 
Q 33.015625 -1.421875 25.390625 -1.421875 
z
M 13.921875 21 
Q 13.921875 13.578125 17.015625 9.890625 
Q 20.125 6.203125 26.421875 6.203125 
Q 35.453125 6.203125 41.375 14.078125 
Q 47.3125 21.96875 47.3125 34.078125 
Q 47.3125 41.15625 44.140625 44.765625 
Q 40.96875 48.390625 34.8125 48.390625 
Q 29.734375 48.390625 25.78125 46.015625 
Q 21.828125 43.65625 18.703125 38.8125 
Q 16.40625 35.203125 15.15625 30.5625 
Q 13.921875 25.921875 13.921875 21 
z
" id="DejaVuSans-Oblique-111"/>
       <path d="M 49.609375 33.6875 
Q 49.609375 40.875 46.484375 44.671875 
Q 43.359375 48.484375 37.5 48.484375 
Q 33.5 48.484375 29.859375 46.4375 
Q 26.21875 44.390625 23.390625 40.484375 
Q 20.609375 36.625 18.9375 31.15625 
Q 17.28125 25.6875 17.28125 20.3125 
Q 17.28125 13.484375 20.40625 9.796875 
Q 23.53125 6.109375 29.296875 6.109375 
Q 33.546875 6.109375 37.1875 8.109375 
Q 40.828125 10.109375 43.40625 13.921875 
Q 46.1875 17.921875 47.890625 23.34375 
Q 49.609375 28.765625 49.609375 33.6875 
z
M 21.78125 46.390625 
Q 25.390625 51.125 30.296875 53.5625 
Q 35.203125 56 41.21875 56 
Q 49.609375 56 54.25 50.5 
Q 58.890625 45.015625 58.890625 35.109375 
Q 58.890625 27 56 19.65625 
Q 53.125 12.3125 47.703125 6.5 
Q 44.09375 2.640625 39.546875 0.609375 
Q 35.015625 -1.421875 29.984375 -1.421875 
Q 24.171875 -1.421875 20.21875 1 
Q 16.265625 3.421875 14.3125 8.203125 
L 8.6875 -20.796875 
L -0.296875 -20.796875 
L 14.40625 54.6875 
L 23.390625 54.6875 
z
" id="DejaVuSans-Oblique-112"/>
       <path d="M 53.71875 31.203125 
L 47.609375 0 
L 38.625 0 
L 40.28125 8.296875 
Q 36.328125 3.421875 31.265625 1 
Q 26.21875 -1.421875 20.015625 -1.421875 
Q 13.03125 -1.421875 8.5625 2.84375 
Q 4.109375 7.125 4.109375 13.8125 
Q 4.109375 23.390625 11.75 28.953125 
Q 19.390625 34.515625 32.8125 34.515625 
L 45.3125 34.515625 
L 45.796875 36.921875 
Q 45.90625 37.3125 45.953125 37.765625 
Q 46 38.234375 46 39.203125 
Q 46 43.5625 42.453125 45.96875 
Q 38.921875 48.390625 32.515625 48.390625 
Q 28.125 48.390625 23.5 47.265625 
Q 18.890625 46.140625 14.015625 43.890625 
L 15.578125 52.203125 
Q 20.65625 54.109375 25.515625 55.046875 
Q 30.375 56 34.90625 56 
Q 44.578125 56 49.625 51.796875 
Q 54.6875 47.609375 54.6875 39.59375 
Q 54.6875 37.984375 54.4375 35.8125 
Q 54.203125 33.640625 53.71875 31.203125 
z
M 44 27.484375 
L 35.015625 27.484375 
Q 23.96875 27.484375 18.671875 24.53125 
Q 13.375 21.578125 13.375 15.375 
Q 13.375 11.078125 16.078125 8.640625 
Q 18.796875 6.203125 23.578125 6.203125 
Q 30.90625 6.203125 36.375 11.453125 
Q 41.84375 16.703125 43.609375 25.484375 
z
" id="DejaVuSans-Oblique-97"/>
       <path d="M 59.625 54.6875 
L 50.296875 6.78125 
Q 47.609375 -7.125 40.015625 -13.953125 
Q 32.421875 -20.796875 19.578125 -20.796875 
Q 14.84375 -20.796875 10.78125 -20.09375 
Q 6.734375 -19.390625 3.21875 -17.921875 
L 4.890625 -9.1875 
Q 8.203125 -11.328125 11.90625 -12.34375 
Q 15.625 -13.375 19.828125 -13.375 
Q 28.375 -13.375 33.859375 -8.703125 
Q 39.359375 -4.046875 41.109375 4.6875 
L 41.890625 8.796875 
Q 38.140625 4.5 33.15625 2.25 
Q 28.171875 0 22.40625 0 
Q 14.109375 0 9.34375 5.484375 
Q 4.59375 10.984375 4.59375 20.609375 
Q 4.59375 28.171875 7.46875 35.421875 
Q 10.359375 42.671875 15.578125 48.296875 
Q 19.046875 52 23.65625 54 
Q 28.265625 56 33.296875 56 
Q 38.8125 56 42.90625 53.4375 
Q 47.015625 50.875 49.03125 46.1875 
L 50.59375 54.6875 
z
M 46.09375 34.625 
Q 46.09375 41.265625 42.96875 44.875 
Q 39.84375 48.484375 34.078125 48.484375 
Q 30.515625 48.484375 27.296875 47.0625 
Q 24.078125 45.65625 21.78125 43.109375 
Q 18.0625 38.921875 15.984375 33.234375 
Q 13.921875 27.546875 13.921875 21.484375 
Q 13.921875 14.75 17.0625 11.125 
Q 20.21875 7.515625 26.125 7.515625 
Q 34.671875 7.515625 40.375 15.25 
Q 46.09375 23 46.09375 34.625 
z
" id="DejaVuSans-Oblique-103"/>
       <path d="M 42.28125 54.6875 
L 40.921875 47.703125 
L 23 47.703125 
L 17.1875 18.015625 
Q 16.890625 16.359375 16.75 15.234375 
Q 16.609375 14.109375 16.609375 13.484375 
Q 16.609375 10.359375 18.484375 8.9375 
Q 20.359375 7.515625 24.515625 7.515625 
L 33.59375 7.515625 
L 32.078125 0 
L 23.484375 0 
Q 15.484375 0 11.546875 3.125 
Q 7.625 6.25 7.625 12.59375 
Q 7.625 13.71875 7.765625 15.0625 
Q 7.90625 16.40625 8.203125 18.015625 
L 14.015625 47.703125 
L 6.390625 47.703125 
L 7.8125 54.6875 
L 15.28125 54.6875 
L 18.3125 70.21875 
L 27.296875 70.21875 
L 24.3125 54.6875 
z
" id="DejaVuSans-Oblique-116"/>
      </defs>
      <use transform="translate(0 0.015625)" xlink:href="#DejaVuSans-Oblique-70"/>
      <use transform="translate(57.519531 0.015625)" xlink:href="#DejaVuSans-Oblique-114"/>
      <use transform="translate(98.632812 0.015625)" xlink:href="#DejaVuSans-Oblique-101"/>
      <use transform="translate(160.15625 0.015625)" xlink:href="#DejaVuSans-Oblique-115"/>
      <use transform="translate(212.255859 0.015625)" xlink:href="#DejaVuSans-Oblique-110"/>
      <use transform="translate(275.634766 0.015625)" xlink:href="#DejaVuSans-Oblique-101"/>
      <use transform="translate(337.158203 0.015625)" xlink:href="#DejaVuSans-Oblique-108"/>
      <use transform="translate(364.941406 0.015625)" xlink:href="#DejaVuSans-Oblique-80"/>
      <use transform="translate(425.244141 0.015625)" xlink:href="#DejaVuSans-Oblique-114"/>
      <use transform="translate(466.357422 0.015625)" xlink:href="#DejaVuSans-Oblique-111"/>
      <use transform="translate(527.539062 0.015625)" xlink:href="#DejaVuSans-Oblique-112"/>
      <use transform="translate(591.015625 0.015625)" xlink:href="#DejaVuSans-Oblique-97"/>
      <use transform="translate(652.294922 0.015625)" xlink:href="#DejaVuSans-Oblique-103"/>
      <use transform="translate(715.771484 0.015625)" xlink:href="#DejaVuSans-Oblique-97"/>
      <use transform="translate(777.050781 0.015625)" xlink:href="#DejaVuSans-Oblique-116"/>
      <use transform="translate(816.259766 0.015625)" xlink:href="#DejaVuSans-Oblique-111"/>
      <use transform="translate(877.441406 0.015625)" xlink:href="#DejaVuSans-Oblique-114"/>
     </g>
    </g>
   </g>
   <g id="line2d_29">
    <path clip-path="url(#pf7b75e2c14)" d="M 159.233058 522.566154 
L 160.550611 130.836257 
L 160.794602 114.451489 
L 160.843401 114.50464 
L 160.940997 117.961275 
L 161.13619 137.965759 
L 161.42898 197.685162 
L 161.916963 352.2119 
L 162.746533 611.329441 
L 163.088121 658.728851 
L 163.234516 663.254519 
L 163.332112 660.793739 
L 163.527305 642.964498 
L 163.820095 586.645342 
L 164.308078 436.52359 
L 165.186447 164.522927 
L 165.528034 118.555572 
L 165.674429 114.357581 
L 165.772026 116.926419 
L 165.967219 134.70462 
L 166.260008 190.348845 
L 166.747991 338.478582 
L 167.62636 609.673619 
L 167.967948 657.723247 
L 168.114343 663.230592 
L 168.163141 662.964486 
L 168.260737 659.283422 
L 168.455931 639.624747 
L 168.74872 582.165809 
L 169.236703 433.742875 
L 170.115072 166.614999 
L 170.45666 119.686013 
L 170.603054 114.362912 
L 170.651853 114.646452 
L 170.749449 118.295938 
L 170.944642 137.635146 
L 171.237432 194.0761 
L 171.725415 340.19115 
L 172.603783 606.827233 
L 172.945371 656.178062 
L 173.140564 663.232222 
L 173.238161 660.722139 
L 173.433354 643.836581 
L 173.726144 591.185395 
L 174.214126 450.047404 
L 175.190092 160.953359 
L 175.531679 118.343438 
L 175.678074 114.34762 
L 175.775671 116.609449 
L 175.970864 132.754822 
L 176.263653 183.823838 
L 176.751636 322.009264 
L 177.727602 611.289612 
L 178.069189 657.238658 
L 178.264382 663.160307 
L 178.361979 660.347934 
L 178.557172 643.398249 
L 178.849962 591.88911 
L 179.337944 454.668557 
L 180.31391 167.95617 
L 180.655498 121.245467 
L 180.850691 114.349624 
L 180.948287 116.541621 
L 181.14348 132.031145 
L 181.43627 181.006631 
L 181.875454 298.993448 
L 182.997814 620.471242 
L 183.339402 659.757206 
L 183.485797 663.236757 
L 183.583394 660.962273 
L 183.778587 645.573315 
L 184.071376 597.347264 
L 184.510561 481.315946 
L 185.681719 152.693107 
L 185.974509 119.343667 
L 186.120904 114.389569 
L 186.169702 114.53079 
L 186.267298 117.500128 
L 186.462492 133.973077 
L 186.755281 183.012455 
L 187.243264 313.497701 
L 188.316826 615.374256 
L 188.658414 657.596207 
L 188.853607 663.193251 
L 188.951203 660.74808 
L 189.146396 645.549317 
L 189.439186 598.810584 
L 189.87837 486.714674 
L 191.098327 152.556001 
L 191.439915 117.141 
L 191.58631 114.417868 
L 191.683906 116.864491 
L 191.879099 131.805512 
L 192.171889 177.582945 
L 192.611073 287.474544 
L 193.879828 628.305916 
L 194.172618 658.855404 
L 194.319013 663.234986 
L 194.367811 663.034336 
L 194.465408 660.145624 
L 194.660601 644.609084 
L 194.95339 598.659963 
L 195.441373 475.723437 
L 196.612531 159.616124 
L 196.954119 119.906524 
L 197.149312 114.36988 
L 197.246909 116.447851 
L 197.442102 130.151625 
L 197.734892 173.034398 
L 198.174076 277.463144 
L 199.540427 632.17896 
L 199.833217 659.813067 
L 199.979612 663.26225 
L 200.077208 661.630582 
L 200.223603 653.344323 
L 200.467595 624.635135 
L 200.857981 545.30701 
L 201.638753 322.275746 
L 202.27313 168.077858 
L 202.614718 123.99718 
L 202.85871 114.33733 
L 202.956306 115.809431 
L 203.102701 123.696335 
L 203.346692 151.358985 
L 203.737079 228.344827 
L 204.469053 433.255062 
L 205.152228 602.886442 
L 205.542614 654.112799 
L 205.786606 663.262553 
L 205.884202 661.739696 
L 206.030597 653.942438 
L 206.274588 626.845401 
L 206.664975 551.602346 
L 207.396949 350.356214 
L 208.128923 171.579887 
L 208.519309 122.650482 
L 208.714502 114.574558 
L 208.7633 114.349529 
L 208.860897 116.059185 
L 209.05609 128.00017 
L 209.348879 166.001503 
L 209.788064 260.146753 
L 211.349608 637.810196 
L 211.642398 660.914093 
L 211.788793 663.205242 
L 211.886389 661.244419 
L 212.081582 649.075383 
L 212.374372 611.391546 
L 212.813556 518.878322 
L 214.423899 137.712889 
L 214.716689 116.226876 
L 214.814285 114.381769 
L 214.863084 114.473351 
L 214.96068 116.681034 
L 215.155873 129.069315 
L 215.448663 166.423298 
L 215.887847 257.284871 
L 217.546988 641.654106 
L 217.839778 661.718873 
L 217.937375 663.253036 
L 217.986173 663.039068 
L 218.132568 658.489922 
L 218.376559 638.222248 
L 218.718147 585.621254 
L 219.254928 460.843307 
L 220.474885 166.772226 
L 220.865271 122.438446 
L 221.109262 114.338458 
L 221.15806 114.608812 
L 221.304455 119.193381 
L 221.548446 139.086701 
L 221.890034 190.379141 
L 222.426815 312.108583 
L 223.69557 612.242517 
L 224.085956 655.295238 
L 224.329948 663.258396 
L 224.378746 663.026902 
L 224.525141 658.690164 
L 224.769132 639.622706 
L 225.11072 590.190192 
L 225.647501 472.088347 
L 226.965054 165.475811 
L 227.35544 122.813593 
L 227.599432 114.379406 
L 227.64823 114.4495 
L 227.745826 116.349059 
L 227.94102 127.089109 
L 228.233809 159.664914 
L 228.672994 239.915307 
L 229.551362 457.370119 
L 230.234538 602.417307 
L 230.624924 649.796425 
L 230.868916 662.21767 
L 230.966512 663.261115 
L 231.01531 662.93471 
L 231.161705 658.580281 
L 231.405697 640.347879 
L 231.747284 593.66001 
L 232.284065 481.973859 
L 233.699215 164.822617 
L 234.089601 123.510258 
L 234.333593 114.520466 
L 234.382391 114.345411 
L 234.479988 115.623673 
L 234.675181 124.622815 
L 234.96797 153.517633 
L 235.358356 217.159779 
L 236.041532 373.008731 
L 237.017497 589.653526 
L 237.456682 646.037699 
L 237.749471 662.043309 
L 237.847068 663.255857 
L 237.895866 663.080456 
L 238.042261 659.440028 
L 238.286252 643.215339 
L 238.62784 600.738841 
L 239.115823 507.982745 
L 240.823762 149.84075 
L 241.16535 120.658307 
L 241.409342 114.3372 
L 241.506938 115.294882 
L 241.653333 120.444918 
L 241.897324 138.650155 
L 242.238912 182.702536 
L 242.775693 286.084919 
L 244.386036 620.443649 
L 244.776422 655.929652 
L 245.020413 663.18974 
L 245.069212 663.215299 
L 245.166808 661.838154 
L 245.362001 653.433744 
L 245.654791 627.284381 
L 246.045177 570.032323 
L 246.679555 438.98476 
L 247.899511 183.803011 
L 248.338696 131.887888 
L 248.631485 116.146602 
L 248.77788 114.344032 
L 248.875477 115.413948 
L 249.07067 122.951728 
L 249.363459 147.243122 
L 249.753845 201.285092 
L 250.388223 326.898743 
L 251.705776 595.941855 
L 252.144961 645.981634 
L 252.43775 661.350489 
L 252.584145 663.262665 
L 252.681742 662.376328 
L 252.828136 657.827448 
L 253.072128 641.880314 
L 253.413716 603.247493 
L 253.950497 511.466835 
L 255.853629 149.241488 
L 256.244015 119.784664 
L 256.488006 114.34189 
L 256.536805 114.482454 
L 256.6832 117.356786 
L 256.927191 130.176648 
L 257.268779 163.984283 
L 257.756761 239.331514 
L 258.63513 419.476118 
L 259.513499 584.869527 
L 260.001482 641.914813 
L 260.34307 660.833559 
L 260.538263 663.221488 
L 260.635859 662.088819 
L 260.831052 655.217968 
L 261.123842 633.797924 
L 261.514228 586.457161 
L 262.099807 484.678098 
L 263.807747 167.669058 
L 264.246931 126.909433 
L 264.539721 115.312637 
L 264.637317 114.354297 
L 264.686116 114.424132 
L 264.783712 115.659414 
L 264.978905 122.468522 
L 265.271695 143.156089 
L 265.662081 188.497627 
L 266.24766 285.985833 
L 268.101994 616.485774 
L 268.541179 653.133126 
L 268.833968 662.771834 
L 268.931565 663.246275 
L 269.029161 662.346751 
L 269.224355 656.46256 
L 269.517144 637.737323 
L 269.90753 595.83875 
L 270.493109 504.217224 
L 272.542637 154.411022 
L 272.981821 122.060071 
L 273.225812 114.940817 
L 273.323409 114.337437 
L 273.372207 114.518152 
L 273.518602 116.981918 
L 273.762593 127.39229 
L 274.104181 154.549306 
L 274.592164 215.570297 
L 275.324138 340.725827 
L 276.739288 584.900363 
L 277.276069 640.618247 
L 277.617657 658.971763 
L 277.861648 663.24392 
L 277.910446 663.200584 
L 278.008043 662.217355 
L 278.203236 656.696182 
L 278.496025 639.786251 
L 278.886412 602.364052 
L 279.471991 520.2464 
L 280.740746 296.219853 
L 281.521518 181.013354 
L 282.009501 135.149481 
L 282.351089 118.231918 
L 282.59508 114.349417 
L 282.643878 114.404422 
L 282.741475 115.344486 
L 282.936668 120.516373 
L 283.229457 136.275738 
L 283.619844 171.151867 
L 284.156625 240.733787 
L 285.083792 395.38034 
L 286.206152 573.170107 
L 286.791731 634.103045 
L 287.182117 656.64059 
L 287.474907 663.076121 
L 287.523705 663.257203 
L 287.572503 663.183185 
L 287.6701 662.271654 
L 287.865293 657.420359 
L 288.158083 642.77275 
L 288.548469 610.411844 
L 289.08525 545.623192 
L 289.963619 407.699491 
L 291.281172 205.322633 
L 291.866751 146.063333 
L 292.305935 121.073492 
L 292.598725 114.638484 
L 292.696322 114.354596 
L 292.793918 115.001413 
L 292.989111 119.065433 
L 293.281901 131.92516 
L 293.672287 160.933848 
L 294.209068 219.924736 
L 295.038638 340.664958 
L 296.600183 571.693764 
L 297.23456 632.585871 
L 297.673745 656.253057 
L 297.966535 662.771354 
L 298.064131 663.260143 
L 298.112929 663.188349 
L 298.259324 661.712876 
L 298.503315 655.103063 
L 298.844903 637.436609 
L 299.284088 601.471046 
L 299.918465 527.916365 
L 300.992027 371.195098 
L 302.163186 210.52516 
L 302.797563 150.44269 
L 303.285546 123.195369 
L 303.627134 115.02333 
L 303.773528 114.345437 
L 303.871125 114.835809 
L 304.066318 118.060912 
L 304.359108 128.395465 
L 304.749494 151.913565 
L 305.286275 200.370601 
L 306.018249 289.273569 
L 308.409364 598.31445 
L 308.994943 641.22882 
L 309.434128 658.803993 
L 309.726917 663.118272 
L 309.775715 663.254404 
L 309.824514 663.224127 
L 309.92211 662.665556 
L 310.117303 659.570447 
L 310.410093 650.081343 
L 310.800479 628.815655 
L 311.33726 585.168858 
L 312.069234 504.604695 
L 314.899534 167.831815 
L 315.436315 133.890488 
L 315.875499 118.391291 
L 316.168289 114.497698 
L 316.265885 114.355306 
L 316.363482 114.788932 
L 316.558675 117.371663 
L 316.851464 125.456445 
L 317.24185 143.759284 
L 317.778631 181.68 
L 318.461807 247.411769 
L 319.584167 380.315884 
L 321.096914 554.039191 
L 321.828888 615.07525 
L 322.414467 647.073486 
L 322.853651 660.01135 
L 323.146441 663.160867 
L 323.195239 663.257596 
L 323.244037 663.232282 
L 323.341634 662.816522 
L 323.536827 660.534398 
L 323.829617 653.54769 
L 324.220003 637.840967 
L 324.756784 605.288091 
L 325.43996 548.413083 
L 326.464723 441.467586 
L 328.51425 223.799759 
L 329.295023 164.235727 
L 329.880602 133.887554 
L 330.319786 120.158411 
L 330.661374 115.05169 
L 330.856567 114.339209 
L 330.954164 114.582148 
L 331.149357 116.256563 
L 331.442147 121.69317 
L 331.832533 134.21552 
L 332.320515 157.78589 
L 332.954893 199.98465 
L 333.833262 275.009625 
L 337.346737 595.985707 
L 338.029913 633.052396 
L 338.566694 652.156639 
L 339.005878 660.851191 
L 339.298668 663.127676 
L 339.396264 663.262099 
L 339.445063 663.212826 
L 339.591457 662.601436 
L 339.835449 660.052575 
L 340.177037 653.342557 
L 340.616221 639.559738 
L 341.2018 612.870088 
L 341.933774 568.013887 
L 342.958538 489.389032 
L 346.520811 201.814248 
L 347.350382 157.61089 
L 348.033558 132.35766 
L 348.570339 120.096928 
L 348.960725 115.459098 
L 349.204716 114.387134 
L 349.302313 114.348649 
L 349.448708 114.705577 
L 349.643901 115.947969 
L 349.93669 119.425568 
L 350.327076 126.983941 
L 350.863857 142.533716 
L 351.498235 167.916976 
L 352.327805 210.829744 
L 353.450166 281.78047 
L 357.695615 563.824165 
L 358.67158 608.616241 
L 359.452353 635.232837 
L 360.08673 650.423547 
L 360.623511 658.686465 
L 361.062695 662.331615 
L 361.355485 663.227694 
L 361.50188 663.223009 
L 361.648275 662.920601 
L 361.892266 661.764521 
L 362.233854 658.807377 
L 362.673038 652.79434 
L 363.209819 642.255474 
L 363.892995 624.196806 
L 364.771364 594.330681 
L 365.893724 547.551904 
L 367.504067 469.730106 
L 371.261533 285.224737 
L 372.676683 228.065706 
L 373.847842 189.061562 
L 374.872605 161.681465 
L 375.799772 142.456801 
L 376.629343 129.65911 
L 377.312519 122.134501 
L 377.898098 117.755251 
L 378.386081 115.496315 
L 378.776467 114.556851 
L 379.069256 114.33719 
L 379.313248 114.460174 
L 379.606037 114.962287 
L 379.996423 116.208721 
L 380.484406 118.642829 
L 381.069985 122.75318 
L 381.801959 129.533336 
L 382.729126 140.380336 
L 383.900285 156.982115 
L 385.461829 182.659803 
L 388.292129 233.790101 
L 391.171227 284.266483 
L 393.074359 313.775566 
L 394.684702 335.399908 
L 396.099852 351.551025 
L 397.368607 363.631523 
L 398.539765 372.7124 
L 399.564529 379.006068 
L 400.491696 383.36373 
L 401.272468 386.04612 
L 401.955644 387.652167 
L 402.492425 388.428735 
L 402.93161 388.746423 
L 403.321996 388.788781 
L 403.712382 388.605228 
L 404.151566 388.128697 
L 404.688347 387.157992 
L 405.273926 385.611972 
L 405.957102 383.166098 
L 406.737874 379.524645 
L 407.616243 374.351245 
L 408.641007 366.881079 
L 409.763367 356.94368 
L 410.983324 344.099463 
L 412.349675 327.278543 
L 413.91122 305.118766 
L 415.716756 276.114075 
L 418.107871 233.790101 
L 421.962934 165.437811 
L 423.426882 143.598464 
L 424.500444 130.563212 
L 425.378813 122.363901 
L 426.061989 117.814165 
L 426.59877 115.504962 
L 426.989156 114.585214 
L 427.281945 114.339843 
L 427.477138 114.396139 
L 427.72113 114.721403 
L 428.062718 115.667147 
L 428.453104 117.473582 
L 428.941087 120.864315 
L 429.526666 126.665643 
L 430.209841 135.924225 
L 430.990614 149.910818 
L 431.868983 170.093551 
L 432.844948 198.05648 
L 433.967308 237.178579 
L 435.236063 289.524748 
L 436.895204 368.071873 
L 441.189452 577.02399 
L 442.263014 616.598676 
L 443.092584 639.982332 
L 443.77576 653.581651 
L 444.312541 660.263138 
L 444.702927 662.754228 
L 444.946918 663.257813 
L 445.093313 663.162542 
L 445.288506 662.565485 
L 445.581296 660.650269 
L 445.971682 656.168761 
L 446.459665 647.438722 
L 447.045244 632.377923 
L 447.72842 608.616241 
L 448.55799 571.303825 
L 449.582754 513.968256 
L 450.949105 423.352242 
L 454.120993 208.043093 
L 455.04816 161.434786 
L 455.780134 134.752118 
L 456.316915 121.875492 
L 456.756099 115.947969 
L 457.048889 114.412501 
L 457.146486 114.340143 
L 457.195284 114.387134 
L 457.341679 114.862448 
L 457.58567 116.775532 
L 457.927258 121.820424 
L 458.366442 132.35766 
L 458.903223 151.314263 
L 459.537601 181.92185 
L 460.367171 233.943401 
L 461.440733 316.940699 
L 464.856612 593.373953 
L 465.588586 631.67116 
L 466.174165 652.092037 
L 466.61335 660.713944 
L 466.906139 663.086145 
L 467.003736 663.262099 
L 467.052534 663.233772 
L 467.198929 662.681603 
L 467.394122 660.851191 
L 467.686912 655.756981 
L 468.077298 644.611363 
L 468.56528 623.867899 
L 469.199658 586.325367 
L 469.98043 525.980085 
L 471.151589 415.455496 
L 473.249914 215.217918 
L 474.079485 157.78589 
L 474.665064 130.536337 
L 475.104248 118.54099 
L 475.397038 114.852646 
L 475.543433 114.339209 
L 475.592231 114.367261 
L 475.738626 115.05169 
L 475.933819 117.368305 
L 476.226608 123.846791 
L 476.616995 138.011509 
L 477.104977 164.235727 
L 477.739355 211.155375 
L 478.617724 295.134159 
L 481.692014 608.730536 
L 482.277594 642.429146 
L 482.716778 657.568847 
L 483.058366 662.816522 
L 483.204761 663.257596 
L 483.302357 662.941916 
L 483.49755 660.842199 
L 483.79034 654.029817 
L 484.180726 638.225943 
L 484.668709 608.202352 
L 485.303086 554.039191 
L 486.181455 457.894377 
L 488.523772 189.990971 
L 489.15815 143.759284 
L 489.646132 122.208946 
L 489.98772 115.220909 
L 490.182913 114.354369 
L 490.28051 114.785461 
L 490.475703 117.381525 
L 490.768492 125.588933 
L 491.158879 144.393442 
L 491.646861 179.737054 
L 492.330037 248.077407 
L 493.354801 377.218132 
L 494.867547 565.729369 
L 495.550723 625.503798 
L 496.038705 652.058604 
L 496.380293 661.445991 
L 496.575486 663.224127 
L 496.624285 663.254404 
L 496.721881 662.81555 
L 496.917074 659.93877 
L 497.209864 650.659641 
L 497.60025 629.288274 
L 498.088233 589.193294 
L 498.771408 512.398979 
L 499.991365 343.288293 
L 501.113725 200.370601 
L 501.748103 145.039005 
L 502.187287 122.416553 
L 502.480077 115.362542 
L 502.626472 114.345437 
L 502.67527 114.38269 
L 502.772866 115.02333 
L 502.968059 118.568006 
L 503.260849 129.487434 
L 503.651235 154.127322 
L 504.188016 205.033407 
L 504.91999 299.104965 
L 507.164711 606.143397 
L 507.701491 646.175587 
L 508.091878 660.80325 
L 508.287071 663.188349 
L 508.335869 663.260143 
L 508.433465 662.771354 
L 508.628659 659.264739 
L 508.921448 647.747944 
L 509.311834 621.170572 
L 509.848615 565.871514 
L 510.580589 464.165366 
L 512.53252 180.05916 
L 513.069301 134.83239 
L 513.459687 117.705678 
L 513.703678 114.354596 
L 513.752477 114.380034 
L 513.850073 115.130036 
L 514.045266 119.422068 
L 514.338056 132.743274 
L 514.728442 162.749573 
L 515.265223 224.092497 
L 516.045995 342.521099 
L 517.60754 583.547799 
L 518.193119 639.502261 
L 518.583505 659.008541 
L 518.827497 663.183185 
L 518.876295 663.257203 
L 518.973891 662.639787 
L 519.169085 658.347164 
L 519.461874 644.374057 
L 519.85226 612.38579 
L 520.389041 546.733579 
L 521.218612 412.432699 
L 522.536165 200.056472 
L 523.121744 139.800442 
L 523.51213 118.815504 
L 523.756122 114.404422 
L 523.80492 114.349417 
L 523.902517 115.071421 
L 524.09771 119.836763 
L 524.390499 135.149481 
L 524.780885 169.951712 
L 525.317666 240.767313 
L 526.196035 392.02145 
L 527.318395 578.024702 
L 527.855176 636.001792 
L 528.245562 658.516797 
L 528.489554 663.200584 
L 528.538352 663.24392 
L 528.635949 662.43205 
L 528.831142 657.223671 
L 529.123931 640.618247 
L 529.514317 603.079411 
L 530.051098 527.276751 
L 531.027064 349.856674 
L 531.954231 194.843507 
L 532.491012 137.298834 
L 532.8326 118.43931 
L 533.076591 114.337437 
L 533.174188 114.940817 
L 533.320582 118.255206 
L 533.564574 130.122623 
L 533.906162 159.467336 
L 534.394144 224.003524 
L 535.174916 364.359453 
L 536.394873 582.683979 
L 536.931654 641.655071 
L 537.273242 660.080749 
L 537.468435 663.246275 
L 537.517233 663.181 
L 537.61483 662.018914 
L 537.810023 655.587605 
L 538.102813 635.922346 
L 538.493199 592.407352 
L 539.078778 497.44725 
L 541.030709 152.694623 
L 541.421095 122.468522 
L 541.665086 114.859493 
L 541.762683 114.354297 
L 541.860279 115.312637 
L 542.055472 121.603977 
L 542.348262 141.712799 
L 542.738648 186.903151 
L 543.324227 285.895015 
L 545.129763 618.39399 
L 545.568948 655.217968 
L 545.812939 662.848612 
L 545.861737 663.221488 
L 545.910536 663.206523 
L 546.008132 662.01211 
L 546.203325 654.989461 
L 546.496115 633.187978 
L 546.886501 584.869527 
L 547.47208 480.426755 
L 549.131221 163.984283 
L 549.570406 123.865188 
L 549.814397 115.032713 
L 549.911994 114.34189 
L 549.960792 114.611639 
L 550.107187 117.879752 
L 550.351178 131.412567 
L 550.692766 166.444378 
L 551.180748 244.164853 
L 552.059117 429.561141 
L 552.888688 589.073913 
L 553.376671 645.884086 
L 553.66946 661.287155 
L 553.815855 663.262665 
L 553.913452 662.420006 
L 554.059846 657.921426 
L 554.303838 641.962228 
L 554.645426 602.96306 
L 555.133408 519.265349 
L 557.134137 137.479055 
L 557.475725 116.627576 
L 557.62212 114.344032 
L 557.670918 114.490375 
L 557.817313 117.654599 
L 558.061304 131.887888 
L 558.402892 169.570912 
L 558.890875 253.488901 
L 560.891604 642.321009 
L 561.184393 660.43872 
L 561.330788 663.215299 
L 561.379587 663.18974 
L 561.477183 661.708375 
L 561.672376 653.065816 
L 561.965166 626.399763 
L 562.355552 567.989077 
L 562.989929 433.876546 
L 564.161088 182.702536 
L 564.600272 129.960523 
L 564.893062 115.294882 
L 564.990658 114.3372 
L 565.039457 114.606372 
L 565.185851 118.402747 
L 565.429843 134.52732 
L 565.771431 176.349939 
L 566.259413 267.908514 
L 568.016151 633.318327 
L 568.357739 659.440028 
L 568.552932 663.255857 
L 568.650529 662.043309 
L 568.845722 653.404979 
L 569.138511 625.46983 
L 569.528897 563.40328 
L 570.163275 421.261849 
L 571.236837 182.122578 
L 571.676021 128.187736 
L 571.968811 114.713546 
L 572.017609 114.345411 
L 572.066407 114.520466 
L 572.212802 118.300631 
L 572.456793 135.264856 
L 572.798381 179.874754 
L 573.286364 277.497481 
L 574.896707 629.392391 
L 575.238295 658.580281 
L 575.433488 663.261115 
L 575.482286 663.022097 
L 575.628681 658.91847 
L 575.872672 641.000745 
L 576.21426 594.341156 
L 576.702243 493.083732 
L 578.214989 152.942987 
L 578.556577 120.57558 
L 578.75177 114.4495 
L 578.800568 114.379406 
L 578.898165 116.001787 
L 579.093358 126.235416 
L 579.386148 158.309571 
L 579.825332 238.741984 
L 580.654903 447.290901 
L 581.386877 606.786695 
L 581.777263 652.804139 
L 582.021254 663.026902 
L 582.070052 663.258396 
L 582.167649 661.892163 
L 582.362842 651.899842 
L 582.655632 619.529076 
L 583.094816 537.441685 
L 583.924386 324.74468 
L 584.607562 173.18495 
L 584.997948 125.350607 
L 585.24194 114.608812 
L 585.290738 114.338458 
L 585.388335 115.693446 
L 585.534729 122.438446 
L 585.778721 145.862939 
L 586.169107 211.688474 
L 586.803484 368.661109 
L 587.730651 594.686793 
L 588.121038 648.182493 
L 588.365029 662.171915 
L 588.462625 663.253036 
L 588.511424 662.812793 
L 588.657819 657.579935 
L 588.90181 636.129773 
L 589.243398 581.722962 
L 589.780179 453.86608 
L 590.951337 166.423298 
L 591.341723 121.563731 
L 591.536916 114.473351 
L 591.585715 114.381769 
L 591.683311 116.226876 
L 591.878504 127.946202 
L 592.171294 164.597868 
L 592.610478 255.481207 
L 594.269619 644.360493 
L 594.562409 662.572821 
L 594.611207 663.205242 
L 594.660006 663.139543 
L 594.757602 660.914093 
L 594.952795 648.188675 
L 595.245585 609.530921 
L 595.684769 515.133437 
L 597.246314 138.098017 
L 597.539103 116.059185 
L 597.6367 114.349529 
L 597.685498 114.574558 
L 597.831893 119.562796 
L 598.075884 141.911288 
L 598.417472 199.942982 
L 598.954253 336.39138 
L 599.979017 602.790036 
L 600.369403 653.942438 
L 600.613394 663.262553 
L 600.710991 661.816191 
L 600.857386 654.112799 
L 601.101377 627.043047 
L 601.491763 551.285688 
L 602.174939 361.57556 
L 602.906913 175.970177 
L 603.297299 123.696335 
L 603.54129 114.33733 
L 603.638887 115.923139 
L 603.785282 123.99718 
L 604.029273 152.073209 
L 604.419659 230.141641 
L 605.151633 438.091552 
L 605.834809 608.319404 
L 606.225195 656.875829 
L 606.420388 663.26225 
L 606.517985 661.747629 
L 606.664379 653.614395 
L 606.908371 625.020915 
L 607.298757 545.278435 
L 608.030731 333.827638 
L 608.713907 164.168332 
L 609.055495 121.730657 
L 609.250688 114.36988 
L 609.299486 114.543269 
L 609.397083 117.31511 
L 609.592276 132.410684 
L 609.885065 177.389987 
L 610.32425 284.837047 
L 611.641803 632.157902 
L 611.934592 660.145624 
L 612.080987 663.234986 
L 612.178584 661.14293 
L 612.373777 647.110638 
L 612.666566 602.940582 
L 613.105751 495.08378 
L 614.423304 144.105472 
L 614.716094 116.864491 
L 614.81369 114.417868 
L 614.862489 114.472751 
L 614.960085 117.141 
L 615.155278 132.556143 
L 615.448068 179.200276 
L 615.887252 290.827911 
L 617.107209 625.550022 
L 617.448797 660.74808 
L 617.546393 663.193251 
L 617.595192 663.104334 
L 617.692788 660.301933 
L 617.887981 644.36583 
L 618.180771 596.410272 
L 618.619955 482.235689 
L 619.791114 155.082249 
L 620.132702 117.500128 
L 620.279096 114.389569 
L 620.376693 116.799349 
L 620.571886 132.232834 
L 620.864676 180.135798 
L 621.30386 295.487152 
L 622.475018 624.993198 
L 622.767808 658.455421 
L 622.914203 663.236757 
L 622.963001 662.995546 
L 623.060598 659.757206 
L 623.255791 642.456191 
L 623.54858 591.464624 
L 624.036563 456.522334 
L 625.061327 161.50827 
L 625.402915 119.040753 
L 625.549309 114.349624 
L 625.598108 114.665516 
L 625.744502 121.245467 
L 625.988494 150.379925 
L 626.330082 224.629129 
L 627.013257 438.84478 
L 627.647635 612.256566 
L 627.989223 657.509042 
L 628.135618 663.160307 
L 628.184416 663.122663 
L 628.282012 660.157249 
L 628.477205 642.865104 
L 628.769995 590.659951 
L 629.257978 451.697716 
L 630.233943 163.503117 
L 630.575531 119.209301 
L 630.721926 114.34762 
L 630.770724 114.695034 
L 630.917119 121.632563 
L 631.16111 152.175468 
L 631.502698 229.64147 
L 632.234672 466.07401 
L 632.820251 621.324319 
L 633.113041 657.966465 
L 633.259436 663.232222 
L 633.308234 662.976131 
L 633.405831 659.44319 
L 633.601024 640.535511 
L 633.893813 584.999425 
L 634.381796 440.031147 
L 635.308963 162.056822 
L 635.650551 118.295938 
L 635.796946 114.362912 
L 635.894542 116.886789 
L 636.089735 134.102815 
L 636.382525 188.041838 
L 636.870508 332.860726 
L 637.797675 614.762486 
L 638.139263 659.283422 
L 638.285657 663.230592 
L 638.383254 660.605586 
L 638.578447 642.93384 
L 638.871237 587.789149 
L 639.359219 440.442918 
L 640.237588 168.272485 
L 640.579176 119.810328 
L 640.725571 114.357581 
L 640.774369 114.684029 
L 640.871966 118.555572 
L 641.067159 138.891627 
L 641.359948 198.091552 
L 641.847931 350.534257 
L 642.677501 609.015987 
L 643.019089 657.930162 
L 643.165484 663.254519 
L 643.214282 662.840554 
L 643.360677 655.04624 
L 643.604669 621.0562 
L 643.946256 535.75623 
L 645.361406 125.826068 
L 645.556599 114.50464 
L 645.605398 114.451489 
L 645.702994 117.69997 
L 645.898187 137.354167 
L 646.190977 196.887395 
L 646.678959 352.33256 
L 647.166942 522.566154 
L 647.166942 522.566154 
" style="fill:none;stroke:#0000ff;stroke-linecap:square;stroke-width:2;"/>
   </g>
   <g id="line2d_30">
    <path clip-path="url(#pf7b75e2c14)" d="M 159.233058 149.140673 
L 159.525847 116.427952 
L 159.623444 114.340104 
L 159.672242 114.99153 
L 159.818637 123.673044 
L 160.062628 159.543603 
L 160.453015 262.927858 
L 161.72177 642.843348 
L 161.965761 662.588334 
L 162.014559 663.256925 
L 162.063357 662.816902 
L 162.209752 654.891922 
L 162.453744 620.605223 
L 162.795331 535.042444 
L 164.210481 126.653488 
L 164.405674 114.664531 
L 164.454473 114.363928 
L 164.552069 117.017391 
L 164.747262 135.088575 
L 165.040052 191.416184 
L 165.528034 340.862479 
L 166.406403 612.03122 
L 166.747991 658.610322 
L 166.894386 663.261946 
L 166.991983 661.050928 
L 167.138377 649.864768 
L 167.382369 611.433872 
L 167.772755 508.019212 
L 169.04151 137.220036 
L 169.285501 115.786742 
L 169.383098 114.394138 
L 169.480694 117.164143 
L 169.675887 134.941044 
L 169.968677 189.669034 
L 170.45666 334.876718 
L 171.383827 614.483459 
L 171.725415 658.924108 
L 171.871809 663.259492 
L 171.969406 661.058416 
L 172.164599 644.640448 
L 172.457389 592.294175 
L 172.945371 450.757932 
L 173.921337 160.338356 
L 174.262924 118.051202 
L 174.409319 114.373046 
L 174.506916 116.90177 
L 174.702109 133.693399 
L 174.994898 185.915593 
L 175.482881 325.938073 
L 176.458847 614.68063 
L 176.800434 658.521556 
L 176.946829 663.255705 
L 176.995627 662.885683 
L 177.142022 655.958549 
L 177.386014 625.753424 
L 177.727602 549.511436 
L 178.459576 317.085183 
L 179.045155 161.748177 
L 179.386743 118.937924 
L 179.533137 114.342542 
L 179.581936 114.714704 
L 179.728331 121.516319 
L 179.972322 151.101738 
L 180.31391 225.833488 
L 180.997085 439.39613 
L 181.631463 611.353011 
L 181.973051 656.843127 
L 182.168244 663.225866 
L 182.26584 660.842903 
L 182.461034 645.11361 
L 182.753823 596.129789 
L 183.193008 478.747722 
L 184.315368 158.392506 
L 184.656956 118.338077 
L 184.80335 114.337246 
L 184.900947 116.208965 
L 185.047342 125.75105 
L 185.291333 158.730317 
L 185.681719 248.858535 
L 187.194466 648.01916 
L 187.438457 662.914801 
L 187.487255 663.257021 
L 187.584852 661.283342 
L 187.780045 646.868939 
L 188.072834 600.863263 
L 188.512019 488.87952 
L 189.731976 152.47978 
L 190.073563 117.022272 
L 190.17116 114.442011 
L 190.219958 114.447886 
L 190.317555 117.048589 
L 190.512748 132.41837 
L 190.805537 179.074667 
L 191.244722 290.468133 
L 192.464679 623.545356 
L 192.806266 659.920564 
L 192.952661 663.248884 
L 193.050258 661.260321 
L 193.245451 647.338798 
L 193.53824 603.231502 
L 193.977425 495.659216 
L 195.294978 146.19148 
L 195.587768 117.75743 
L 195.734163 114.341837 
L 195.831759 116.161721 
L 196.026952 129.494069 
L 196.319742 172.189395 
L 196.758926 277.051733 
L 198.125278 633.286317 
L 198.418067 660.275463 
L 198.564462 663.235219 
L 198.662059 661.222158 
L 198.857252 647.775151 
L 199.150041 605.54863 
L 199.589226 502.433598 
L 200.955577 147.956402 
L 201.248367 118.799328 
L 201.394762 114.397074 
L 201.44356 114.47931 
L 201.541156 116.966792 
L 201.73635 131.074418 
L 202.029139 173.564893 
L 202.468324 275.69362 
L 203.883473 633.904452 
L 204.176263 660.106557 
L 204.322658 663.258657 
L 204.420254 661.594762 
L 204.615447 649.350541 
L 204.908237 609.997184 
L 205.347421 512.467615 
L 206.860168 139.082604 
L 207.152957 116.234246 
L 207.250554 114.36504 
L 207.299352 114.527673 
L 207.396949 117.042518 
L 207.592142 130.68127 
L 207.884931 171.293911 
L 208.324116 268.89988 
L 209.836862 637.481766 
L 210.129652 660.898141 
L 210.276046 663.20094 
L 210.373643 661.192629 
L 210.568836 648.800275 
L 210.861626 610.499242 
L 211.30081 516.667821 
L 212.862355 140.899905 
L 213.155144 117.131742 
L 213.301539 114.34427 
L 213.399136 115.91947 
L 213.594329 127.205235 
L 213.887118 163.370417 
L 214.326303 253.559569 
L 215.985444 641.489667 
L 216.278233 661.745838 
L 216.37583 663.256678 
L 216.424628 663.014421 
L 216.571023 658.315042 
L 216.815014 637.593318 
L 217.156602 584.019164 
L 217.693383 457.429848 
L 218.864542 170.945111 
L 219.254928 123.960857 
L 219.498919 114.411721 
L 219.547717 114.422888 
L 219.645314 116.370961 
L 219.840507 127.860753 
L 220.133297 163.045199 
L 220.572481 249.54373 
L 222.329219 643.835724 
L 222.622008 662.083836 
L 222.719605 663.261995 
L 222.768403 662.919845 
L 222.914798 658.187977 
L 223.158789 638.275719 
L 223.500377 587.389754 
L 224.037158 466.955499 
L 225.305913 168.03295 
L 225.696299 123.670034 
L 225.940291 114.44275 
L 225.989089 114.38597 
L 226.086685 116.065969 
L 226.281878 126.508096 
L 226.574668 158.989922 
L 227.013852 239.78912 
L 227.892221 459.314567 
L 228.575397 604.714969 
L 228.965783 651.197672 
L 229.209775 662.625381 
L 229.258573 663.194463 
L 229.307371 663.186903 
L 229.404968 661.445075 
L 229.600161 651.144362 
L 229.89295 619.491282 
L 230.332135 540.970714 
L 231.161705 338.31778 
L 231.893679 180.146396 
L 232.332864 126.702773 
L 232.576855 115.135746 
L 232.674452 114.362167 
L 232.772048 115.804196 
L 232.967241 125.255701 
L 233.260031 155.097756 
L 233.699215 230.16768 
L 234.479988 415.346641 
L 235.309558 595.171029 
L 235.748742 649.145339 
L 236.041532 662.808168 
L 236.09033 663.237736 
L 236.139129 663.135004 
L 236.236725 661.33633 
L 236.431918 651.449255 
L 236.724708 621.638636 
L 237.163892 547.935294 
L 237.944665 366.862071 
L 238.774235 188.395183 
L 239.21342 132.195715 
L 239.506209 115.809693 
L 239.603806 114.378299 
L 239.652604 114.427612 
L 239.7502 116.053524 
L 239.945394 125.339885 
L 240.238183 153.67897 
L 240.677368 224.290754 
L 241.409342 388.339688 
L 242.336509 586.864384 
L 242.775693 643.318157 
L 243.068483 660.942417 
L 243.214878 663.261058 
L 243.263676 663.058518 
L 243.410071 659.535892 
L 243.654062 644.150553 
L 243.99565 604.02909 
L 244.483632 516.13275 
L 246.337967 144.466171 
L 246.679555 118.963921 
L 246.874748 114.386242 
L 246.923546 114.404537 
L 247.021142 115.83589 
L 247.216336 124.215147 
L 247.509125 150.00933 
L 247.94831 214.8395 
L 248.631485 357.332935 
L 249.753845 589.219789 
L 250.241828 646.775655 
L 250.534618 661.701119 
L 250.681013 663.236214 
L 250.778609 662.043649 
L 250.973802 654.396429 
L 251.266592 630.271717 
L 251.656978 576.987357 
L 252.291355 453.340418 
L 253.657707 178.804584 
L 254.096891 130.545416 
L 254.389681 115.990776 
L 254.536076 114.345083 
L 254.633672 115.353485 
L 254.828865 122.37514 
L 255.121655 144.974516 
L 255.512041 195.388613 
L 256.09762 303.551189 
L 257.659165 606.865462 
L 258.098349 650.356776 
L 258.391139 662.414103 
L 258.488735 663.262047 
L 258.537534 663.087189 
L 258.683929 660.176917 
L 258.92792 647.516724 
L 259.269508 614.354829 
L 259.75749 540.559285 
L 260.635859 363.441265 
L 261.563026 191.130049 
L 262.051009 135.371235 
L 262.392597 116.795884 
L 262.58779 114.365176 
L 262.685387 115.410178 
L 262.88058 121.976673 
L 263.173369 142.642503 
L 263.563755 188.537304 
L 264.149335 287.730822 
L 265.954871 615.205481 
L 266.394055 652.894649 
L 266.686845 662.774877 
L 266.784441 663.242068 
L 266.882038 662.291053 
L 267.077231 656.173442 
L 267.37002 636.791973 
L 267.760406 593.545683 
L 268.345986 499.358436 
L 270.297916 158.327025 
L 270.737101 123.512384 
L 271.02989 114.680743 
L 271.078689 114.368685 
L 271.127487 114.389398 
L 271.225084 115.427162 
L 271.420277 121.451809 
L 271.713066 140.053752 
L 272.103452 181.225479 
L 272.689032 270.917518 
L 274.787357 623.134519 
L 275.226541 655.166504 
L 275.519331 663.028103 
L 275.568129 663.254643 
L 275.616928 663.170636 
L 275.714524 662.073137 
L 275.909717 656.194754 
L 276.202507 638.449518 
L 276.592893 599.453273 
L 277.178472 514.434931 
L 279.471991 147.860543 
L 279.862377 122.136184 
L 280.155167 114.604396 
L 280.203965 114.355723 
L 280.252763 114.395452 
L 280.35036 115.338282 
L 280.545553 120.647727 
L 280.838342 136.929512 
L 281.228728 173.017705 
L 281.765509 244.919898 
L 282.741475 412.297088 
L 283.766238 575.799197 
L 284.351818 636.60162 
L 284.742204 658.101062 
L 284.986195 663.061452 
L 285.034993 663.255778 
L 285.083792 663.183911 
L 285.181388 662.243451 
L 285.376581 657.202916 
L 285.669371 641.957547 
L 286.059757 608.286881 
L 286.596538 541.036227 
L 287.523705 390.55421 
L 288.694864 207.494913 
L 289.280443 146.373037 
L 289.719627 120.850374 
L 290.012417 114.546348 
L 290.061215 114.348563 
L 290.110013 114.394815 
L 290.20761 115.217785 
L 290.402803 119.762066 
L 290.695593 133.641504 
L 291.085979 164.482321 
L 291.62276 226.558284 
L 292.45233 352.024 
L 293.916278 572.944284 
L 294.501857 630.885011 
L 294.941042 655.825459 
L 295.233831 662.729196 
L 295.331428 663.258684 
L 295.380226 663.190598 
L 295.526621 661.659821 
L 295.721814 656.555043 
L 296.014604 642.520842 
L 296.453788 608.125191 
L 297.039367 541.302688 
L 297.966535 405.21722 
L 299.332886 209.546346 
L 299.967264 148.508405 
L 300.406448 123.560662 
L 300.699238 115.644862 
L 300.894431 114.351333 
L 300.992027 114.902 
L 301.18722 118.378831 
L 301.48001 129.406729 
L 301.870396 154.380544 
L 302.407177 205.598151 
L 303.187949 305.739152 
L 305.286275 588.360253 
L 305.871854 636.180412 
L 306.311038 656.788456 
L 306.603828 662.689373 
L 306.750223 663.244141 
L 306.847819 662.727309 
L 307.043012 659.582303 
L 307.335802 649.692272 
L 307.726188 627.326064 
L 308.262969 581.296421 
L 308.994943 496.547355 
L 311.63005 170.679872 
L 312.166831 134.693247 
L 312.606015 118.394048 
L 312.898805 114.453253 
L 312.947603 114.340723 
L 312.996401 114.383491 
L 313.142796 115.440393 
L 313.337989 118.997127 
L 313.630779 128.828796 
L 314.021165 149.916625 
L 314.557946 192.259598 
L 315.28992 269.615287 
L 318.315412 614.040307 
L 318.852193 645.385192 
L 319.291378 659.608214 
L 319.584167 663.131655 
L 319.681764 663.239141 
L 319.77936 662.815023 
L 319.974553 660.383717 
L 320.267343 652.849351 
L 320.657729 635.844512 
L 321.19451 600.598325 
L 321.877686 539.249594 
L 322.951248 419.408059 
L 324.707986 224.603545 
L 325.488758 162.297746 
L 326.074337 131.478646 
L 326.513521 118.427834 
L 326.806311 114.705514 
L 326.952706 114.34674 
L 327.050302 114.661813 
L 327.245495 116.611846 
L 327.538285 122.782659 
L 327.928671 136.848197 
L 328.416654 163.143428 
L 329.051031 209.878175 
L 329.978198 296.984975 
L 332.808498 577.194976 
L 333.540472 624.57275 
L 334.126051 649.498997 
L 334.565236 659.984578 
L 334.858025 662.967278 
L 335.00442 663.254952 
L 335.102017 663.003317 
L 335.29721 661.444399 
L 335.589999 656.50786 
L 335.980385 645.235092 
L 336.468368 624.071113 
L 337.102746 586.121001 
L 337.981114 518.160264 
L 339.445063 383.56198 
L 341.055405 241.482439 
L 341.982572 178.058831 
L 342.714546 142.234348 
L 343.251327 125.0415 
L 343.690512 116.966233 
L 343.983301 114.610475 
L 344.129696 114.337421 
L 344.227293 114.488187 
L 344.422486 115.58172 
L 344.715275 119.172638 
L 345.105662 127.494564 
L 345.593644 143.277666 
L 346.228022 171.916803 
L 347.057592 221.010414 
L 348.179953 302.246853 
L 351.498235 551.713009 
L 352.425402 602.433592 
L 353.206174 633.964589 
L 353.840552 651.321474 
L 354.328534 659.461813 
L 354.71892 662.701109 
L 354.962912 663.262801 
L 355.060508 663.176092 
L 355.255701 662.475014 
L 355.548491 660.124474 
L 355.938877 654.6332 
L 356.42686 644.155181 
L 357.061237 624.980096 
L 357.84201 593.793038 
L 358.817975 545.322785 
L 360.233125 462.813988 
L 363.600205 262.619149 
L 364.820162 204.830542 
L 365.796127 168.076684 
L 366.625698 144.189526 
L 367.357672 128.933357 
L 367.943251 120.665762 
L 368.431234 116.40667 
L 368.82162 114.679737 
L 369.065611 114.340045 
L 369.212006 114.40371 
L 369.407199 114.795266 
L 369.699989 116.026302 
L 370.090375 118.831963 
L 370.578358 124.123781 
L 371.212735 133.766817 
L 371.993507 149.50187 
L 372.920675 172.942369 
L 374.140631 209.98121 
L 375.848571 269.563547 
L 381.021187 454.69247 
L 382.680328 504.151156 
L 384.144276 541.547768 
L 385.510628 570.967916 
L 386.779383 593.662735 
L 387.950541 610.899909 
L 389.072901 624.358319 
L 390.146463 634.71572 
L 391.171227 642.576723 
L 392.147192 648.462408 
L 393.074359 652.809849 
L 394.001526 656.129383 
L 394.879895 658.481185 
L 395.709466 660.118354 
L 396.539036 661.295132 
L 397.368607 662.106406 
L 398.246976 662.660738 
L 399.222941 663.012483 
L 400.442898 663.204984 
L 402.492425 663.262559 
L 406.396287 663.158367 
L 407.567445 662.898778 
L 408.494612 662.476752 
L 409.324183 661.856287 
L 410.104955 660.991017 
L 410.885727 659.77828 
L 411.6665 658.136741 
L 412.447272 655.977481 
L 413.276842 653.008645 
L 414.155211 648.973752 
L 415.03358 643.871439 
L 415.960747 637.151994 
L 416.936713 628.393859 
L 417.961476 617.101621 
L 419.035038 602.708649 
L 420.157398 584.589265 
L 421.377355 561.065149 
L 422.64611 532.168894 
L 424.06126 494.562986 
L 425.622804 446.835293 
L 427.525937 381.336172 
L 433.137738 182.686465 
L 434.260098 152.882698 
L 435.187265 133.766817 
L 435.919239 122.912168 
L 436.504818 117.265894 
L 436.944002 114.947241 
L 437.236792 114.360418 
L 437.383187 114.363155 
L 437.57838 114.679737 
L 437.822371 115.586336 
L 438.163959 117.827021 
L 438.603144 122.40712 
L 439.139925 130.650531 
L 439.774302 144.189526 
L 440.506276 164.907627 
L 441.384645 196.762524 
L 442.409409 242.827398 
L 443.678164 310.907297 
L 445.678893 432.649045 
L 447.72842 553.149058 
L 448.801982 604.356321 
L 449.631552 634.572109 
L 450.314728 651.901174 
L 450.802711 659.583612 
L 451.193097 662.715848 
L 451.437088 663.262801 
L 451.534685 663.172077 
L 451.729878 662.454373 
L 451.973869 660.543497 
L 452.315457 655.961118 
L 452.754641 646.791535 
L 453.291422 630.625008 
L 453.974598 602.433592 
L 454.804169 557.665804 
L 455.828932 489.141297 
L 457.439275 364.004828 
L 459.293609 224.241096 
L 460.269575 166.960034 
L 461.001549 136.273873 
L 461.53833 121.828271 
L 461.928716 116.018786 
L 462.221505 114.379635 
L 462.319102 114.36172 
L 462.465497 114.835201 
L 462.709488 116.966233 
L 463.051076 122.776769 
L 463.49026 135.063742 
L 464.027041 157.239806 
L 464.710217 196.085887 
L 465.539788 256.983855 
L 466.759744 365.172094 
L 468.955666 561.517453 
L 469.785237 616.298574 
L 470.419615 645.235092 
L 470.907597 658.495433 
L 471.249185 662.745124 
L 471.444378 663.247932 
L 471.541975 662.967278 
L 471.737168 661.336061 
L 472.029957 656.211116 
L 472.420344 644.419597 
L 472.908326 621.952728 
L 473.542704 580.863922 
L 474.372274 510.171751 
L 475.641029 379.475095 
L 477.251372 218.141785 
L 478.032144 160.107185 
L 478.617724 130.813994 
L 479.056908 118.240295 
L 479.349698 114.661813 
L 479.496092 114.355271 
L 479.593689 114.705514 
L 479.788882 116.741752 
L 480.081672 123.130615 
L 480.472058 137.781946 
L 480.96004 165.520747 
L 481.594418 215.652758 
L 482.472787 305.419422 
L 485.20549 600.598325 
L 485.839867 640.814556 
L 486.279052 657.192048 
L 486.571841 662.404412 
L 486.767034 663.251976 
L 486.864631 662.878003 
L 487.059824 660.528863 
L 487.352614 653.016551 
L 487.743 635.706393 
L 488.230982 603.005298 
L 488.86536 544.445292 
L 489.792527 435.687447 
L 491.744458 201.416941 
L 492.427634 146.805635 
L 492.915616 123.249154 
L 493.257204 115.440393 
L 493.452397 114.340723 
L 493.549994 114.72127 
L 493.745187 117.348875 
L 494.037976 125.931121 
L 494.428363 145.815149 
L 494.916345 183.312883 
L 495.599521 255.674561 
L 496.673083 397.705989 
L 497.990636 566.094916 
L 498.673812 627.326064 
L 499.161795 653.666298 
L 499.503382 662.204026 
L 499.649777 663.244141 
L 499.698575 663.236818 
L 499.796172 662.689373 
L 499.991365 659.463143 
L 500.284155 649.340176 
L 500.674541 626.300991 
L 501.211322 578.368684 
L 501.943296 488.951606 
L 504.432007 162.331748 
L 504.91999 129.406729 
L 505.261578 117.214702 
L 505.505569 114.351333 
L 505.554368 114.37501 
L 505.651964 115.021725 
L 505.847157 118.710919 
L 506.139947 130.169655 
L 506.530333 156.081141 
L 507.067114 209.546346 
L 507.799088 307.79202 
L 509.848615 598.503292 
L 510.385396 642.520842 
L 510.775782 659.541424 
L 511.019774 663.190598 
L 511.068572 663.258684 
L 511.166169 662.729196 
L 511.361362 659.00894 
L 511.654151 646.851739 
L 512.044537 618.881951 
L 512.581318 560.916133 
L 513.362091 447.338168 
L 515.07003 190.175908 
L 515.606811 140.079843 
L 515.997197 119.762066 
L 516.241188 114.684747 
L 516.338785 114.348563 
L 516.436381 114.988309 
L 516.631575 119.193075 
L 516.924364 132.712227 
L 517.31475 163.552471 
L 517.851531 226.879941 
L 518.681102 357.182605 
L 520.096252 580.372087 
L 520.681831 638.553192 
L 521.072217 658.854616 
L 521.316208 663.183911 
L 521.365007 663.255778 
L 521.462603 662.600792 
L 521.657796 658.101062 
L 521.950586 643.500335 
L 522.340972 610.154177 
L 522.877753 541.962627 
L 523.756122 394.89137 
L 524.976078 196.528257 
L 525.512859 140.575767 
L 525.903246 118.89616 
L 526.147237 114.395452 
L 526.196035 114.355723 
L 526.293632 115.141556 
L 526.488825 120.166029 
L 526.781614 136.180199 
L 527.172001 172.420049 
L 527.708781 245.814925 
L 528.635949 410.138407 
L 529.660712 580.827183 
L 530.197493 638.449518 
L 530.587879 659.743401 
L 530.783072 663.170636 
L 530.831871 663.254643 
L 530.929467 662.490918 
L 531.12466 657.246066 
L 531.41745 640.26374 
L 531.807836 601.688215 
L 532.344617 523.773653 
L 533.369381 333.33701 
L 534.247749 187.551021 
L 534.735732 136.183451 
L 535.07732 117.786072 
L 535.272513 114.389398 
L 535.321311 114.368685 
L 535.418908 115.325562 
L 535.614101 121.21808 
L 535.906891 139.784234 
L 536.297277 181.417009 
L 536.882856 273.214118 
L 538.932383 627.74744 
L 539.322769 656.173442 
L 539.566761 662.94351 
L 539.615559 663.242068 
L 539.664357 663.185959 
L 539.761954 662.008972 
L 539.957147 655.416277 
L 540.249936 635.196683 
L 540.640323 590.451348 
L 541.225902 493.056472 
L 543.080236 157.553618 
L 543.470622 124.536271 
L 543.763412 114.6997 
L 543.81221 114.365176 
L 543.861008 114.407458 
L 543.958605 115.623256 
L 544.153798 122.556438 
L 544.446587 143.908286 
L 544.836974 191.130049 
L 545.422553 293.341476 
L 547.130492 614.354829 
L 547.569677 653.732075 
L 547.813668 662.513795 
L 547.911265 663.262047 
L 547.960063 663.037711 
L 548.106458 659.971676 
L 548.350449 646.984967 
L 548.692037 613.095407 
L 549.180019 537.479224 
L 550.058388 355.360415 
L 550.936757 187.95596 
L 551.42474 131.918285 
L 551.717529 116.486752 
L 551.863924 114.345083 
L 551.912723 114.472323 
L 552.010319 115.990776 
L 552.205512 124.04888 
L 552.498302 148.289058 
L 552.888688 201.129299 
L 553.523065 323.833777 
L 554.889417 599.52957 
L 555.328601 647.997717 
L 555.621391 662.043649 
L 555.718987 663.236214 
L 555.767786 663.168023 
L 555.865382 661.701119 
L 556.060575 653.481639 
L 556.353365 628.372464 
L 556.743751 573.40916 
L 557.378129 446.171245 
L 558.695682 175.310069 
L 559.134866 127.437198 
L 559.427656 114.888172 
L 559.525252 114.386242 
L 559.622849 115.746745 
L 559.818042 124.019345 
L 560.110832 149.843039 
L 560.501218 206.744065 
L 561.135595 338.257115 
L 562.355552 596.696769 
L 562.794736 648.155469 
L 563.087526 662.368886 
L 563.185122 663.261058 
L 563.233921 662.975703 
L 563.380316 659.197216 
L 563.624307 643.318157 
L 563.965895 602.239719 
L 564.453877 512.265779 
L 566.259413 142.395203 
L 566.601001 117.626194 
L 566.796194 114.378299 
L 566.893791 115.809693 
L 567.088984 124.74812 
L 567.381774 152.787432 
L 567.77216 214.410061 
L 568.406537 354.972743 
L 569.480099 592.708963 
L 569.919283 647.696201 
L 570.212073 662.500637 
L 570.30967 663.237736 
L 570.407266 661.846667 
L 570.602459 652.724859 
L 570.895249 623.791363 
L 571.285635 560.066004 
L 571.968811 403.175345 
L 572.944776 184.465627 
L 573.383961 128.957899 
L 573.67675 114.806777 
L 573.725548 114.362167 
L 573.774347 114.471738 
L 573.871943 116.353324 
L 574.067136 126.702773 
L 574.359926 157.988758 
L 574.79911 235.521538 
L 575.579883 425.12019 
L 576.360655 597.027083 
L 576.799839 651.144362 
L 577.043831 662.603204 
L 577.141427 663.194463 
L 577.239024 661.48037 
L 577.434217 651.197672 
L 577.727006 619.371582 
L 578.166191 539.886329 
L 578.995761 333.508303 
L 579.727735 173.931102 
L 580.118122 126.508096 
L 580.362113 114.927601 
L 580.410911 114.38597 
L 580.459709 114.44275 
L 580.557306 116.351719 
L 580.752499 127.27934 
L 581.045289 160.633816 
L 581.484473 243.216654 
L 582.362842 466.955499 
L 583.046018 612.225042 
L 583.436404 655.389088 
L 583.680395 663.261995 
L 583.777992 662.083836 
L 583.924386 655.683452 
L 584.168378 633.019433 
L 584.509966 578.428857 
L 585.095545 440.203212 
L 586.217905 170.835062 
L 586.608291 124.054403 
L 586.852283 114.422888 
L 586.901081 114.411721 
L 586.998677 116.317811 
L 587.19387 127.763829 
L 587.48666 163.095958 
L 587.925844 250.552665 
L 589.682582 647.763778 
L 589.926573 662.107987 
L 590.02417 663.256678 
L 590.072968 662.833648 
L 590.219363 657.585964 
L 590.463354 635.897372 
L 590.804942 580.77779 
L 591.341723 451.368286 
L 592.464083 171.458156 
L 592.85447 123.382665 
L 593.098461 114.34427 
L 593.147259 114.586803 
L 593.293654 119.428823 
L 593.537645 140.899905 
L 593.879233 196.607828 
L 594.416014 328.323295 
L 595.538374 610.499242 
L 595.92876 656.37443 
L 596.123954 663.20094 
L 596.172752 663.142428 
L 596.270348 660.898141 
L 596.465541 648.005201 
L 596.758331 608.805913 
L 597.197515 513.175344 
L 598.75906 135.831272 
L 599.05185 115.421141 
L 599.149446 114.36504 
L 599.247043 116.234246 
L 599.442236 128.655112 
L 599.735025 167.835398 
L 600.17421 264.717387 
L 601.686956 638.912989 
L 601.979746 661.594762 
L 602.077342 663.258657 
L 602.126141 662.960751 
L 602.272535 657.557013 
L 602.516527 633.904452 
L 602.858115 573.057047 
L 603.443694 417.193281 
L 604.370861 173.564893 
L 604.761247 122.52085 
L 604.95644 114.47931 
L 605.005238 114.397074 
L 605.102835 116.559581 
L 605.298028 130.076623 
L 605.590818 171.996553 
L 606.030002 274.362866 
L 607.445152 636.506031 
L 607.737941 661.222158 
L 607.835538 663.235219 
L 607.884336 663.045899 
L 607.981933 660.275463 
L 608.177126 645.312897 
L 608.469915 600.82189 
L 608.9091 494.503171 
L 610.226653 147.625422 
L 610.519443 118.294535 
L 610.665837 114.341837 
L 610.714636 114.661356 
L 610.861031 120.525872 
L 611.105022 146.19148 
L 611.44661 211.91382 
L 612.032189 377.603248 
L 612.86176 603.231502 
L 613.252146 655.933672 
L 613.447339 663.248884 
L 613.496137 662.980695 
L 613.642532 657.136859 
L 613.886523 631.077025 
L 614.228111 564.063534 
L 614.81369 395.46958 
L 615.643261 169.496687 
L 615.984849 123.065513 
L 616.180042 114.447886 
L 616.22884 114.442011 
L 616.326437 117.022272 
L 616.52163 132.396581 
L 616.814419 179.295019 
L 617.253604 291.796571 
L 618.47356 627.304894 
L 618.76635 658.975016 
L 618.912745 663.257021 
L 618.961543 662.914801 
L 619.107938 656.586567 
L 619.351929 628.910606 
L 619.693517 558.37835 
L 620.327895 367.734767 
L 621.059869 167.698923 
L 621.401457 121.684305 
L 621.59665 114.337246 
L 621.694246 116.098757 
L 621.840641 125.499756 
L 622.084632 158.392506 
L 622.475018 249.004885 
L 623.987765 650.387267 
L 624.231756 663.225866 
L 624.280554 663.022467 
L 624.378151 659.826283 
L 624.573344 642.477001 
L 624.866134 591.115393 
L 625.354116 455.096429 
L 626.37888 159.580425 
L 626.720468 118.308448 
L 626.866863 114.342542 
L 626.964459 116.457205 
L 627.159652 131.967746 
L 627.452442 181.512748 
L 627.891626 301.529747 
L 629.013986 625.753424 
L 629.306776 659.229987 
L 629.453171 663.255705 
L 629.550767 661.070385 
L 629.74596 645.161961 
L 630.03875 594.475041 
L 630.477934 472.144129 
L 631.551496 156.029144 
L 631.844286 119.650122 
L 631.990681 114.373046 
L 632.039479 114.603132 
L 632.137076 118.051202 
L 632.332269 136.665581 
L 632.625058 191.515891 
L 633.113041 335.141166 
L 634.040208 613.140166 
L 634.381796 658.438992 
L 634.528191 663.259492 
L 634.576989 662.831685 
L 634.723384 655.457591 
L 634.967375 623.598436 
L 635.308963 543.452822 
L 636.138534 271.09645 
L 636.626516 149.668742 
L 636.919306 117.164143 
L 637.016902 114.394138 
L 637.065701 114.569627 
L 637.163297 118.04151 
L 637.35849 137.220036 
L 637.65128 194.019094 
L 638.139263 342.232074 
L 639.017631 611.433872 
L 639.359219 658.36043 
L 639.505614 663.261946 
L 639.603211 661.220255 
L 639.749605 650.259645 
L 639.993597 612.03122 
L 640.383983 508.229384 
L 641.652738 135.088575 
L 641.896729 115.149472 
L 641.945527 114.363928 
L 641.994326 114.664531 
L 642.091922 118.517778 
L 642.287115 138.947931 
L 642.579905 198.570783 
L 643.067888 352.067799 
L 643.897458 610.821718 
L 644.239046 658.625276 
L 644.385441 663.256925 
L 644.483037 660.813161 
L 644.67823 642.843348 
L 644.97102 585.789984 
L 645.459003 433.256805 
L 646.337372 159.543603 
L 646.630161 119.668297 
L 646.776556 114.340104 
L 646.825354 114.819343 
L 646.971749 123.004819 
L 647.166942 149.140673 
L 647.166942 149.140673 
" style="fill:none;stroke:#ff0000;stroke-linecap:square;stroke-width:2;"/>
   </g>
   <g id="patch_3">
    <path d="M 108 720.9 
L 108 56.7 
" style="fill:none;stroke:#000000;stroke-linecap:square;stroke-linejoin:miter;stroke-width:0.8;"/>
   </g>
   <g id="patch_4">
    <path d="M 698.4 720.9 
L 698.4 56.7 
" style="fill:none;stroke:#000000;stroke-linecap:square;stroke-linejoin:miter;stroke-width:0.8;"/>
   </g>
   <g id="patch_5">
    <path d="M 108 720.9 
L 698.4 720.9 
" style="fill:none;stroke:#000000;stroke-linecap:square;stroke-linejoin:miter;stroke-width:0.8;"/>
   </g>
   <g id="patch_6">
    <path d="M 108 56.7 
L 698.4 56.7 
" style="fill:none;stroke:#000000;stroke-linecap:square;stroke-linejoin:miter;stroke-width:0.8;"/>
   </g>
   <g id="legend_1">
    <g id="patch_7">
     <path d="M 602 421.15625 
L 684.4 421.15625 
Q 688.4 421.15625 688.4 417.15625 
L 688.4 360.44375 
Q 688.4 356.44375 684.4 356.44375 
L 602 356.44375 
Q 598 356.44375 598 360.44375 
L 598 417.15625 
Q 598 421.15625 602 421.15625 
z
" style="fill:#ffffff;opacity:0.8;stroke:#cccccc;stroke-linejoin:miter;"/>
    </g>
    <g id="line2d_31">
     <path d="M 606 372.640625 
L 646 372.640625 
" style="fill:none;stroke:#0000ff;stroke-linecap:square;stroke-width:2;"/>
    </g>
    <g id="line2d_32"/>
    <g id="text_17">
     <!-- $P_r$ -->
     <g transform="translate(662 379.640625)scale(0.2 -0.2)">
      <use transform="translate(0 0.09375)" xlink:href="#DejaVuSans-Oblique-80"/>
      <use transform="translate(60.302734 -16.3125)scale(0.7)" xlink:href="#DejaVuSans-Oblique-114"/>
     </g>
    </g>
    <g id="line2d_33">
     <path d="M 606 401.996875 
L 646 401.996875 
" style="fill:none;stroke:#ff0000;stroke-linecap:square;stroke-width:2;"/>
    </g>
    <g id="line2d_34"/>
    <g id="text_18">
     <!-- $P_i$ -->
     <g transform="translate(662 408.996875)scale(0.2 -0.2)">
      <defs>
       <path d="M 18.3125 75.984375 
L 27.296875 75.984375 
L 25.09375 64.59375 
L 16.109375 64.59375 
z
M 14.203125 54.6875 
L 23.1875 54.6875 
L 12.5 0 
L 3.515625 0 
z
" id="DejaVuSans-Oblique-105"/>
      </defs>
      <use transform="translate(0 0.09375)" xlink:href="#DejaVuSans-Oblique-80"/>
      <use transform="translate(60.302734 -16.3125)scale(0.7)" xlink:href="#DejaVuSans-Oblique-105"/>
     </g>
    </g>
   </g>
  </g>
 </g>
 <defs>
  <clipPath id="pf7b75e2c14">
   <rect height="664.2" width="590.4" x="108" y="56.7"/>
  </clipPath>
 </defs>
</svg>
