<?xml version="1.0" encoding="utf-8" standalone="no"?>
<!DOCTYPE svg PUBLIC "-//W3C//DTD SVG 1.1//EN"
  "http://www.w3.org/Graphics/SVG/1.1/DTD/svg11.dtd">
<!-- Created with matplotlib (https://matplotlib.org/) -->
<svg height="576pt" version="1.1" viewBox="0 0 512.25 576" width="512.25pt" xmlns="http://www.w3.org/2000/svg" xmlns:xlink="http://www.w3.org/1999/xlink">
 <defs>
  <style type="text/css">
*{stroke-linecap:butt;stroke-linejoin:round;}
  </style>
 </defs>
 <g id="figure_1">
  <g id="patch_1">
   <path d="M 0 576 
L 512.25 576 
L 512.25 0 
L 0 0 
z
" style="fill:#ffffff;"/>
  </g>
  <g id="axes_1">
   <g id="patch_2">
    <path d="M 76.8375 512.64 
L 496.8825 512.64 
L 496.8825 40.32 
L 76.8375 40.32 
z
" style="fill:#ffffff;"/>
   </g>
   <g id="matplotlib.axis_1">
    <g id="xtick_1">
     <g id="line2d_1">
      <path clip-path="url(#pd0c87d7a34)" d="M 113.287686 512.64 
L 113.287686 40.32 
" style="fill:none;stroke:#e6e6e6;stroke-linecap:square;stroke-width:0.8;"/>
     </g>
     <g id="line2d_2">
      <defs>
       <path d="M 0 0 
L 0 -3.5 
" id="m2eb18157d5" style="stroke:#000000;stroke-width:0.8;"/>
      </defs>
      <g>
       <use style="stroke:#000000;stroke-width:0.8;" x="113.287686" xlink:href="#m2eb18157d5" y="512.64"/>
      </g>
     </g>
     <g id="text_1">
      <!-- 0 -->
      <defs>
       <path d="M 31.78125 66.40625 
Q 24.171875 66.40625 20.328125 58.90625 
Q 16.5 51.421875 16.5 36.375 
Q 16.5 21.390625 20.328125 13.890625 
Q 24.171875 6.390625 31.78125 6.390625 
Q 39.453125 6.390625 43.28125 13.890625 
Q 47.125 21.390625 47.125 36.375 
Q 47.125 51.421875 43.28125 58.90625 
Q 39.453125 66.40625 31.78125 66.40625 
z
M 31.78125 74.21875 
Q 44.046875 74.21875 50.515625 64.515625 
Q 56.984375 54.828125 56.984375 36.375 
Q 56.984375 17.96875 50.515625 8.265625 
Q 44.046875 -1.421875 31.78125 -1.421875 
Q 19.53125 -1.421875 13.0625 8.265625 
Q 6.59375 17.96875 6.59375 36.375 
Q 6.59375 54.828125 13.0625 64.515625 
Q 19.53125 74.21875 31.78125 74.21875 
z
" id="DejaVuSans-48"/>
      </defs>
      <g transform="translate(108.515811 527.537656)scale(0.15 -0.15)">
       <use xlink:href="#DejaVuSans-48"/>
      </g>
     </g>
    </g>
    <g id="xtick_2">
     <g id="line2d_3">
      <path clip-path="url(#pd0c87d7a34)" d="M 200.243679 512.64 
L 200.243679 40.32 
" style="fill:none;stroke:#e6e6e6;stroke-linecap:square;stroke-width:0.8;"/>
     </g>
     <g id="line2d_4">
      <g>
       <use style="stroke:#000000;stroke-width:0.8;" x="200.243679" xlink:href="#m2eb18157d5" y="512.64"/>
      </g>
     </g>
     <g id="text_2">
      <!-- 5 -->
      <defs>
       <path d="M 10.796875 72.90625 
L 49.515625 72.90625 
L 49.515625 64.59375 
L 19.828125 64.59375 
L 19.828125 46.734375 
Q 21.96875 47.46875 24.109375 47.828125 
Q 26.265625 48.1875 28.421875 48.1875 
Q 40.625 48.1875 47.75 41.5 
Q 54.890625 34.8125 54.890625 23.390625 
Q 54.890625 11.625 47.5625 5.09375 
Q 40.234375 -1.421875 26.90625 -1.421875 
Q 22.3125 -1.421875 17.546875 -0.640625 
Q 12.796875 0.140625 7.71875 1.703125 
L 7.71875 11.625 
Q 12.109375 9.234375 16.796875 8.0625 
Q 21.484375 6.890625 26.703125 6.890625 
Q 35.15625 6.890625 40.078125 11.328125 
Q 45.015625 15.765625 45.015625 23.390625 
Q 45.015625 31 40.078125 35.4375 
Q 35.15625 39.890625 26.703125 39.890625 
Q 22.75 39.890625 18.8125 39.015625 
Q 14.890625 38.140625 10.796875 36.28125 
z
" id="DejaVuSans-53"/>
      </defs>
      <g transform="translate(195.471804 527.537656)scale(0.15 -0.15)">
       <use xlink:href="#DejaVuSans-53"/>
      </g>
     </g>
    </g>
    <g id="xtick_3">
     <g id="line2d_5">
      <path clip-path="url(#pd0c87d7a34)" d="M 287.199672 512.64 
L 287.199672 40.32 
" style="fill:none;stroke:#e6e6e6;stroke-linecap:square;stroke-width:0.8;"/>
     </g>
     <g id="line2d_6">
      <g>
       <use style="stroke:#000000;stroke-width:0.8;" x="287.199672" xlink:href="#m2eb18157d5" y="512.64"/>
      </g>
     </g>
     <g id="text_3">
      <!-- 10 -->
      <defs>
       <path d="M 12.40625 8.296875 
L 28.515625 8.296875 
L 28.515625 63.921875 
L 10.984375 60.40625 
L 10.984375 69.390625 
L 28.421875 72.90625 
L 38.28125 72.90625 
L 38.28125 8.296875 
L 54.390625 8.296875 
L 54.390625 0 
L 12.40625 0 
z
" id="DejaVuSans-49"/>
      </defs>
      <g transform="translate(277.655922 527.537656)scale(0.15 -0.15)">
       <use xlink:href="#DejaVuSans-49"/>
       <use x="63.623047" xlink:href="#DejaVuSans-48"/>
      </g>
     </g>
    </g>
    <g id="xtick_4">
     <g id="line2d_7">
      <path clip-path="url(#pd0c87d7a34)" d="M 374.155665 512.64 
L 374.155665 40.32 
" style="fill:none;stroke:#e6e6e6;stroke-linecap:square;stroke-width:0.8;"/>
     </g>
     <g id="line2d_8">
      <g>
       <use style="stroke:#000000;stroke-width:0.8;" x="374.155665" xlink:href="#m2eb18157d5" y="512.64"/>
      </g>
     </g>
     <g id="text_4">
      <!-- 15 -->
      <g transform="translate(364.611915 527.537656)scale(0.15 -0.15)">
       <use xlink:href="#DejaVuSans-49"/>
       <use x="63.623047" xlink:href="#DejaVuSans-53"/>
      </g>
     </g>
    </g>
    <g id="xtick_5">
     <g id="line2d_9">
      <path clip-path="url(#pd0c87d7a34)" d="M 461.111658 512.64 
L 461.111658 40.32 
" style="fill:none;stroke:#e6e6e6;stroke-linecap:square;stroke-width:0.8;"/>
     </g>
     <g id="line2d_10">
      <g>
       <use style="stroke:#000000;stroke-width:0.8;" x="461.111658" xlink:href="#m2eb18157d5" y="512.64"/>
      </g>
     </g>
     <g id="text_5">
      <!-- 20 -->
      <defs>
       <path d="M 19.1875 8.296875 
L 53.609375 8.296875 
L 53.609375 0 
L 7.328125 0 
L 7.328125 8.296875 
Q 12.9375 14.109375 22.625 23.890625 
Q 32.328125 33.6875 34.8125 36.53125 
Q 39.546875 41.84375 41.421875 45.53125 
Q 43.3125 49.21875 43.3125 52.78125 
Q 43.3125 58.59375 39.234375 62.25 
Q 35.15625 65.921875 28.609375 65.921875 
Q 23.96875 65.921875 18.8125 64.3125 
Q 13.671875 62.703125 7.8125 59.421875 
L 7.8125 69.390625 
Q 13.765625 71.78125 18.9375 73 
Q 24.125 74.21875 28.421875 74.21875 
Q 39.75 74.21875 46.484375 68.546875 
Q 53.21875 62.890625 53.21875 53.421875 
Q 53.21875 48.921875 51.53125 44.890625 
Q 49.859375 40.875 45.40625 35.40625 
Q 44.1875 33.984375 37.640625 27.21875 
Q 31.109375 20.453125 19.1875 8.296875 
z
" id="DejaVuSans-50"/>
      </defs>
      <g transform="translate(451.567908 527.537656)scale(0.15 -0.15)">
       <use xlink:href="#DejaVuSans-50"/>
       <use x="63.623047" xlink:href="#DejaVuSans-48"/>
      </g>
     </g>
    </g>
    <g id="text_6">
     <!-- $x$ -->
     <defs>
      <path d="M 60.015625 54.6875 
L 34.90625 27.875 
L 50.296875 0 
L 39.984375 0 
L 28.421875 21.6875 
L 8.296875 0 
L -2.59375 0 
L 24.3125 28.8125 
L 10.015625 54.6875 
L 20.3125 54.6875 
L 30.8125 34.90625 
L 49.125 54.6875 
z
" id="DejaVuSans-Oblique-120"/>
     </defs>
     <g transform="translate(279.36 553.653281)scale(0.25 -0.25)">
      <use transform="translate(0 0.3125)" xlink:href="#DejaVuSans-Oblique-120"/>
     </g>
    </g>
   </g>
   <g id="matplotlib.axis_2">
    <g id="ytick_1">
     <g id="line2d_11">
      <path clip-path="url(#pd0c87d7a34)" d="M 76.8375 460.057654 
L 496.8825 460.057654 
" style="fill:none;stroke:#e6e6e6;stroke-linecap:square;stroke-width:0.8;"/>
     </g>
     <g id="line2d_12">
      <defs>
       <path d="M 0 0 
L 3.5 0 
" id="m945f861543" style="stroke:#000000;stroke-width:0.8;"/>
      </defs>
      <g>
       <use style="stroke:#000000;stroke-width:0.8;" x="76.8375" xlink:href="#m945f861543" y="460.057654"/>
      </g>
     </g>
     <g id="text_7">
      <!-- 0.0 -->
      <defs>
       <path d="M 10.6875 12.40625 
L 21 12.40625 
L 21 0 
L 10.6875 0 
z
" id="DejaVuSans-46"/>
      </defs>
      <g transform="translate(49.482812 465.756482)scale(0.15 -0.15)">
       <use xlink:href="#DejaVuSans-48"/>
       <use x="63.623047" xlink:href="#DejaVuSans-46"/>
       <use x="95.410156" xlink:href="#DejaVuSans-48"/>
      </g>
     </g>
    </g>
    <g id="ytick_2">
     <g id="line2d_13">
      <path clip-path="url(#pd0c87d7a34)" d="M 76.8375 403.197539 
L 496.8825 403.197539 
" style="fill:none;stroke:#e6e6e6;stroke-linecap:square;stroke-width:0.8;"/>
     </g>
     <g id="line2d_14">
      <g>
       <use style="stroke:#000000;stroke-width:0.8;" x="76.8375" xlink:href="#m945f861543" y="403.197539"/>
      </g>
     </g>
     <g id="text_8">
      <!-- 0.2 -->
      <g transform="translate(49.482812 408.896367)scale(0.15 -0.15)">
       <use xlink:href="#DejaVuSans-48"/>
       <use x="63.623047" xlink:href="#DejaVuSans-46"/>
       <use x="95.410156" xlink:href="#DejaVuSans-50"/>
      </g>
     </g>
    </g>
    <g id="ytick_3">
     <g id="line2d_15">
      <path clip-path="url(#pd0c87d7a34)" d="M 76.8375 346.337424 
L 496.8825 346.337424 
" style="fill:none;stroke:#e6e6e6;stroke-linecap:square;stroke-width:0.8;"/>
     </g>
     <g id="line2d_16">
      <g>
       <use style="stroke:#000000;stroke-width:0.8;" x="76.8375" xlink:href="#m945f861543" y="346.337424"/>
      </g>
     </g>
     <g id="text_9">
      <!-- 0.4 -->
      <defs>
       <path d="M 37.796875 64.3125 
L 12.890625 25.390625 
L 37.796875 25.390625 
z
M 35.203125 72.90625 
L 47.609375 72.90625 
L 47.609375 25.390625 
L 58.015625 25.390625 
L 58.015625 17.1875 
L 47.609375 17.1875 
L 47.609375 0 
L 37.796875 0 
L 37.796875 17.1875 
L 4.890625 17.1875 
L 4.890625 26.703125 
z
" id="DejaVuSans-52"/>
      </defs>
      <g transform="translate(49.482812 352.036252)scale(0.15 -0.15)">
       <use xlink:href="#DejaVuSans-48"/>
       <use x="63.623047" xlink:href="#DejaVuSans-46"/>
       <use x="95.410156" xlink:href="#DejaVuSans-52"/>
      </g>
     </g>
    </g>
    <g id="ytick_4">
     <g id="line2d_17">
      <path clip-path="url(#pd0c87d7a34)" d="M 76.8375 289.477309 
L 496.8825 289.477309 
" style="fill:none;stroke:#e6e6e6;stroke-linecap:square;stroke-width:0.8;"/>
     </g>
     <g id="line2d_18">
      <g>
       <use style="stroke:#000000;stroke-width:0.8;" x="76.8375" xlink:href="#m945f861543" y="289.477309"/>
      </g>
     </g>
     <g id="text_10">
      <!-- 0.6 -->
      <defs>
       <path d="M 33.015625 40.375 
Q 26.375 40.375 22.484375 35.828125 
Q 18.609375 31.296875 18.609375 23.390625 
Q 18.609375 15.53125 22.484375 10.953125 
Q 26.375 6.390625 33.015625 6.390625 
Q 39.65625 6.390625 43.53125 10.953125 
Q 47.40625 15.53125 47.40625 23.390625 
Q 47.40625 31.296875 43.53125 35.828125 
Q 39.65625 40.375 33.015625 40.375 
z
M 52.59375 71.296875 
L 52.59375 62.3125 
Q 48.875 64.0625 45.09375 64.984375 
Q 41.3125 65.921875 37.59375 65.921875 
Q 27.828125 65.921875 22.671875 59.328125 
Q 17.53125 52.734375 16.796875 39.40625 
Q 19.671875 43.65625 24.015625 45.921875 
Q 28.375 48.1875 33.59375 48.1875 
Q 44.578125 48.1875 50.953125 41.515625 
Q 57.328125 34.859375 57.328125 23.390625 
Q 57.328125 12.15625 50.6875 5.359375 
Q 44.046875 -1.421875 33.015625 -1.421875 
Q 20.359375 -1.421875 13.671875 8.265625 
Q 6.984375 17.96875 6.984375 36.375 
Q 6.984375 53.65625 15.1875 63.9375 
Q 23.390625 74.21875 37.203125 74.21875 
Q 40.921875 74.21875 44.703125 73.484375 
Q 48.484375 72.75 52.59375 71.296875 
z
" id="DejaVuSans-54"/>
      </defs>
      <g transform="translate(49.482812 295.176137)scale(0.15 -0.15)">
       <use xlink:href="#DejaVuSans-48"/>
       <use x="63.623047" xlink:href="#DejaVuSans-46"/>
       <use x="95.410156" xlink:href="#DejaVuSans-54"/>
      </g>
     </g>
    </g>
    <g id="ytick_5">
     <g id="line2d_19">
      <path clip-path="url(#pd0c87d7a34)" d="M 76.8375 232.617194 
L 496.8825 232.617194 
" style="fill:none;stroke:#e6e6e6;stroke-linecap:square;stroke-width:0.8;"/>
     </g>
     <g id="line2d_20">
      <g>
       <use style="stroke:#000000;stroke-width:0.8;" x="76.8375" xlink:href="#m945f861543" y="232.617194"/>
      </g>
     </g>
     <g id="text_11">
      <!-- 0.8 -->
      <defs>
       <path d="M 31.78125 34.625 
Q 24.75 34.625 20.71875 30.859375 
Q 16.703125 27.09375 16.703125 20.515625 
Q 16.703125 13.921875 20.71875 10.15625 
Q 24.75 6.390625 31.78125 6.390625 
Q 38.8125 6.390625 42.859375 10.171875 
Q 46.921875 13.96875 46.921875 20.515625 
Q 46.921875 27.09375 42.890625 30.859375 
Q 38.875 34.625 31.78125 34.625 
z
M 21.921875 38.8125 
Q 15.578125 40.375 12.03125 44.71875 
Q 8.5 49.078125 8.5 55.328125 
Q 8.5 64.0625 14.71875 69.140625 
Q 20.953125 74.21875 31.78125 74.21875 
Q 42.671875 74.21875 48.875 69.140625 
Q 55.078125 64.0625 55.078125 55.328125 
Q 55.078125 49.078125 51.53125 44.71875 
Q 48 40.375 41.703125 38.8125 
Q 48.828125 37.15625 52.796875 32.3125 
Q 56.78125 27.484375 56.78125 20.515625 
Q 56.78125 9.90625 50.3125 4.234375 
Q 43.84375 -1.421875 31.78125 -1.421875 
Q 19.734375 -1.421875 13.25 4.234375 
Q 6.78125 9.90625 6.78125 20.515625 
Q 6.78125 27.484375 10.78125 32.3125 
Q 14.796875 37.15625 21.921875 38.8125 
z
M 18.3125 54.390625 
Q 18.3125 48.734375 21.84375 45.5625 
Q 25.390625 42.390625 31.78125 42.390625 
Q 38.140625 42.390625 41.71875 45.5625 
Q 45.3125 48.734375 45.3125 54.390625 
Q 45.3125 60.0625 41.71875 63.234375 
Q 38.140625 66.40625 31.78125 66.40625 
Q 25.390625 66.40625 21.84375 63.234375 
Q 18.3125 60.0625 18.3125 54.390625 
z
" id="DejaVuSans-56"/>
      </defs>
      <g transform="translate(49.482812 238.316022)scale(0.15 -0.15)">
       <use xlink:href="#DejaVuSans-48"/>
       <use x="63.623047" xlink:href="#DejaVuSans-46"/>
       <use x="95.410156" xlink:href="#DejaVuSans-56"/>
      </g>
     </g>
    </g>
    <g id="ytick_6">
     <g id="line2d_21">
      <path clip-path="url(#pd0c87d7a34)" d="M 76.8375 175.757079 
L 496.8825 175.757079 
" style="fill:none;stroke:#e6e6e6;stroke-linecap:square;stroke-width:0.8;"/>
     </g>
     <g id="line2d_22">
      <g>
       <use style="stroke:#000000;stroke-width:0.8;" x="76.8375" xlink:href="#m945f861543" y="175.757079"/>
      </g>
     </g>
     <g id="text_12">
      <!-- 1.0 -->
      <g transform="translate(49.482812 181.455907)scale(0.15 -0.15)">
       <use xlink:href="#DejaVuSans-49"/>
       <use x="63.623047" xlink:href="#DejaVuSans-46"/>
       <use x="95.410156" xlink:href="#DejaVuSans-48"/>
      </g>
     </g>
    </g>
    <g id="ytick_7">
     <g id="line2d_23">
      <path clip-path="url(#pd0c87d7a34)" d="M 76.8375 118.896964 
L 496.8825 118.896964 
" style="fill:none;stroke:#e6e6e6;stroke-linecap:square;stroke-width:0.8;"/>
     </g>
     <g id="line2d_24">
      <g>
       <use style="stroke:#000000;stroke-width:0.8;" x="76.8375" xlink:href="#m945f861543" y="118.896964"/>
      </g>
     </g>
     <g id="text_13">
      <!-- 1.2 -->
      <g transform="translate(49.482812 124.595792)scale(0.15 -0.15)">
       <use xlink:href="#DejaVuSans-49"/>
       <use x="63.623047" xlink:href="#DejaVuSans-46"/>
       <use x="95.410156" xlink:href="#DejaVuSans-50"/>
      </g>
     </g>
    </g>
    <g id="ytick_8">
     <g id="line2d_25">
      <path clip-path="url(#pd0c87d7a34)" d="M 76.8375 62.036849 
L 496.8825 62.036849 
" style="fill:none;stroke:#e6e6e6;stroke-linecap:square;stroke-width:0.8;"/>
     </g>
     <g id="line2d_26">
      <g>
       <use style="stroke:#000000;stroke-width:0.8;" x="76.8375" xlink:href="#m945f861543" y="62.036849"/>
      </g>
     </g>
     <g id="text_14">
      <!-- 1.4 -->
      <g transform="translate(49.482812 67.735677)scale(0.15 -0.15)">
       <use xlink:href="#DejaVuSans-49"/>
       <use x="63.623047" xlink:href="#DejaVuSans-46"/>
       <use x="95.410156" xlink:href="#DejaVuSans-52"/>
      </g>
     </g>
    </g>
    <g id="text_15">
     <!-- $\Psi(x)$ -->
     <defs>
      <path d="M 34.46875 0 
Q 34.515625 6.546875 34.46875 15.140625 
Q 24.03125 15.140625 14.84375 25.390625 
Q 5.859375 35.359375 5.609375 52.9375 
L 5.609375 72.90625 
L 16.015625 72.90625 
L 16.015625 52.9375 
Q 16.015625 39.15625 22.359375 31.15625 
Q 27.734375 24.3125 34.46875 23.640625 
L 34.46875 72.90625 
L 44.34375 72.90625 
L 44.34375 23.640625 
Q 51.078125 24.3125 56.453125 31.15625 
Q 62.796875 39.15625 62.796875 52.9375 
L 62.796875 72.90625 
L 73.1875 72.90625 
L 73.1875 52.9375 
Q 72.953125 35.359375 63.96875 25.390625 
Q 54.78125 15.140625 44.34375 15.140625 
Q 44.28125 11.625 44.34375 0 
z
" id="DejaVuSans-936"/>
      <path d="M 31 75.875 
Q 24.46875 64.65625 21.28125 53.65625 
Q 18.109375 42.671875 18.109375 31.390625 
Q 18.109375 20.125 21.3125 9.0625 
Q 24.515625 -2 31 -13.1875 
L 23.1875 -13.1875 
Q 15.875 -1.703125 12.234375 9.375 
Q 8.59375 20.453125 8.59375 31.390625 
Q 8.59375 42.28125 12.203125 53.3125 
Q 15.828125 64.359375 23.1875 75.875 
z
" id="DejaVuSans-40"/>
      <path d="M 8.015625 75.875 
L 15.828125 75.875 
Q 23.140625 64.359375 26.78125 53.3125 
Q 30.421875 42.28125 30.421875 31.390625 
Q 30.421875 20.453125 26.78125 9.375 
Q 23.140625 -1.703125 15.828125 -13.1875 
L 8.015625 -13.1875 
Q 14.5 -2 17.703125 9.0625 
Q 20.90625 20.125 20.90625 31.390625 
Q 20.90625 42.671875 17.703125 53.65625 
Q 14.5 64.65625 8.015625 75.875 
z
" id="DejaVuSans-41"/>
     </defs>
     <g transform="translate(40.283594 303.48)rotate(-90)scale(0.25 -0.25)">
      <use transform="translate(0 0.125)" xlink:href="#DejaVuSans-936"/>
      <use transform="translate(78.710938 0.125)" xlink:href="#DejaVuSans-40"/>
      <use transform="translate(117.724609 0.125)" xlink:href="#DejaVuSans-Oblique-120"/>
      <use transform="translate(176.904297 0.125)" xlink:href="#DejaVuSans-41"/>
     </g>
    </g>
   </g>
   <g id="line2d_27">
    <path clip-path="url(#pd0c87d7a34)" d="M 113.287686 175.757079 
L 195.488273 175.860675 
L 196.84696 176.03131 
L 198.205648 176.383735 
L 199.564335 177.001928 
L 200.923023 177.920024 
L 204.319741 180.612849 
L 204.999085 180.894107 
L 205.678428 180.96905 
L 206.357772 180.798332 
L 207.037116 180.36378 
L 207.71646 179.6764 
L 209.075147 177.756473 
L 210.433834 175.752364 
L 211.113178 175.005885 
L 211.792522 174.559356 
L 212.471865 174.464383 
L 213.151209 174.721602 
L 213.830553 175.277612 
L 215.868584 177.576287 
L 216.547928 178.081754 
L 217.227271 178.257071 
L 217.906615 178.045984 
L 218.585959 177.451893 
L 219.265302 176.538734 
L 221.303333 173.205598 
L 221.982677 172.429251 
L 222.662021 172.05329 
L 223.341365 172.1545 
L 224.020708 172.748841 
L 224.700052 173.788302 
L 226.058739 176.7293 
L 227.417427 179.682783 
L 228.09677 180.714663 
L 228.776114 181.256977 
L 229.455458 181.22479 
L 230.134801 180.593559 
L 230.814145 179.401808 
L 231.493489 177.747011 
L 234.210864 169.823622 
L 234.890207 168.454699 
L 235.569551 167.648903 
L 236.248895 167.495524 
L 236.928238 168.029384 
L 237.607582 169.228964 
L 238.286926 171.019369 
L 239.645613 175.852875 
L 241.683644 183.627492 
L 242.362988 185.638789 
L 243.042332 187.108881 
L 243.721675 187.936283 
L 244.401019 188.060706 
L 245.080363 187.465039 
L 245.759706 186.17441 
L 246.43905 184.252668 
L 247.797738 178.929463 
L 251.194456 163.50166 
L 251.8738 161.172004 
L 252.553143 159.351371 
L 253.232487 158.105421 
L 253.911831 157.474063 
L 254.591174 157.471775 
L 255.270518 158.08906 
L 255.949862 159.294829 
L 256.629206 161.03947 
L 257.308549 163.258381 
L 258.667237 168.808261 
L 261.384611 181.960272 
L 263.422643 191.131101 
L 264.78133 196.036637 
L 266.140017 199.680609 
L 266.819361 200.999027 
L 267.498705 201.982423 
L 268.178048 202.640214 
L 268.857392 202.987643 
L 269.536736 203.044688 
L 270.216079 202.835001 
L 270.895423 202.384906 
L 271.574767 201.72248 
L 272.933454 199.876877 
L 274.292142 197.529198 
L 277.68886 190.824918 
L 279.726891 187.050851 
L 281.085579 184.8819 
L 282.444266 183.077556 
L 283.802953 181.687552 
L 285.161641 180.744709 
L 286.520328 180.268708 
L 287.199672 180.208999 
L 287.879016 180.268708 
L 288.558359 180.447557 
L 289.917047 181.158734 
L 291.275734 182.328363 
L 292.634421 183.930596 
L 293.993109 185.924691 
L 296.03114 189.513139 
L 301.465889 199.876877 
L 302.824577 201.72248 
L 303.503921 202.384906 
L 304.183264 202.835001 
L 304.862608 203.044688 
L 305.541952 202.987643 
L 306.221295 202.640214 
L 306.900639 201.982423 
L 307.579983 200.999027 
L 308.259326 199.680609 
L 308.93867 198.024667 
L 310.297357 193.730815 
L 311.656045 188.271511 
L 313.694076 178.627303 
L 315.732107 168.808261 
L 317.090794 163.258381 
L 317.770138 161.03947 
L 318.449482 159.294829 
L 319.128826 158.08906 
L 319.808169 157.471775 
L 320.487513 157.474063 
L 321.166857 158.105421 
L 321.8462 159.351371 
L 322.525544 161.172004 
L 323.204888 163.50166 
L 324.563575 169.303986 
L 327.28095 181.796741 
L 327.960294 184.252668 
L 328.639637 186.17441 
L 329.318981 187.465039 
L 329.998325 188.060706 
L 330.677668 187.936283 
L 331.357012 187.108881 
L 332.036356 185.638789 
L 332.715699 183.627492 
L 334.074387 178.559979 
L 335.433074 173.279547 
L 336.112418 171.019369 
L 336.791762 169.228964 
L 337.471105 168.029384 
L 338.150449 167.495524 
L 338.829793 167.648903 
L 339.509136 168.454699 
L 340.18848 169.823622 
L 341.547167 173.667252 
L 342.905855 177.747011 
L 343.585199 179.401808 
L 344.264542 180.593559 
L 344.943886 181.22479 
L 345.62323 181.256977 
L 346.302573 180.714663 
L 346.981917 179.682783 
L 348.340604 176.7293 
L 349.699292 173.788302 
L 350.378635 172.748841 
L 351.057979 172.1545 
L 351.737323 172.05329 
L 352.416667 172.429251 
L 353.09601 173.205598 
L 355.813385 177.451893 
L 356.492729 178.045984 
L 357.172072 178.257071 
L 357.851416 178.081754 
L 358.53076 177.576287 
L 361.248135 174.721602 
L 361.927478 174.464383 
L 362.606822 174.559356 
L 363.286166 175.005885 
L 363.965509 175.752364 
L 367.362228 180.36378 
L 368.041572 180.798332 
L 368.720915 180.96905 
L 369.400259 180.894107 
L 370.079603 180.612849 
L 371.43829 179.640933 
L 374.155665 177.425117 
L 375.514352 176.65554 
L 376.87304 176.179121 
L 378.231727 175.928839 
L 380.269758 175.790559 
L 386.383851 175.75708 
L 460.432314 175.757079 
L 460.432314 175.757079 
" style="fill:none;stroke:#0000ff;stroke-linecap:square;stroke-width:2;"/>
   </g>
   <g id="line2d_28">
    <path clip-path="url(#pd0c87d7a34)" d="M 113.287686 113.447886 
L 193.450242 113.548575 
L 195.488273 113.831514 
L 196.84696 114.247545 
L 198.205648 114.912735 
L 202.28171 117.347502 
L 202.961054 117.437295 
L 203.640397 117.326156 
L 204.319741 116.99634 
L 204.999085 116.453644 
L 206.357772 114.889395 
L 207.71646 113.197344 
L 208.395803 112.543661 
L 209.075147 112.134938 
L 209.754491 112.024637 
L 210.433834 112.223877 
L 211.113178 112.695829 
L 213.830553 115.261403 
L 214.509896 115.462751 
L 215.18924 115.319654 
L 215.868584 114.83195 
L 216.547928 114.057295 
L 218.585959 111.241767 
L 219.265302 110.633636 
L 219.944646 110.400401 
L 220.62399 110.602869 
L 221.303333 111.240968 
L 221.982677 112.252308 
L 224.700052 117.209625 
L 225.379396 117.847041 
L 226.058739 117.982796 
L 226.738083 117.57213 
L 227.417427 116.634226 
L 228.09677 115.25046 
L 230.814145 108.408113 
L 231.493489 107.288516 
L 232.172833 106.715017 
L 232.852176 106.767382 
L 233.53152 107.466469 
L 234.210864 108.772778 
L 234.890207 110.590784 
L 236.248895 115.159842 
L 237.607582 119.730757 
L 238.286926 121.546198 
L 238.96627 122.837598 
L 239.645613 123.493839 
L 240.324957 123.450814 
L 241.004301 122.694742 
L 241.683644 121.261543 
L 242.362988 119.232623 
L 243.721675 113.895356 
L 245.759706 105.125427 
L 246.43905 102.667113 
L 247.118394 100.6814 
L 247.797738 99.273729 
L 248.477081 98.516976 
L 249.156425 98.449489 
L 249.835769 99.075206 
L 250.515112 100.365624 
L 251.194456 102.263303 
L 251.8738 104.686545 
L 253.232487 110.694803 
L 256.629206 127.007993 
L 257.987893 131.83272 
L 258.667237 133.583271 
L 259.34658 134.842898 
L 260.025924 135.595335 
L 260.705268 135.839882 
L 261.384611 135.589827 
L 262.063955 134.870553 
L 262.743299 133.717455 
L 263.422643 132.173766 
L 264.78133 128.11387 
L 266.140017 123.11417 
L 271.574767 101.444837 
L 272.933454 96.968245 
L 274.292142 93.138748 
L 275.650829 89.972856 
L 277.009516 87.440547 
L 278.368204 85.480394 
L 279.726891 84.013371 
L 281.085579 82.954366 
L 282.444266 82.221115 
L 283.802953 81.74082 
L 285.161641 81.454925 
L 287.199672 81.306446 
L 289.237703 81.454925 
L 290.59639 81.74082 
L 291.955078 82.221115 
L 293.313765 82.954366 
L 294.672452 84.013371 
L 296.03114 85.480394 
L 297.389827 87.440547 
L 298.748515 89.972856 
L 300.107202 93.138748 
L 301.465889 96.968245 
L 302.824577 101.444837 
L 304.862608 109.182498 
L 309.618014 128.11387 
L 310.976701 132.173766 
L 311.656045 133.717455 
L 312.335389 134.870553 
L 313.014732 135.589827 
L 313.694076 135.839882 
L 314.37342 135.595335 
L 315.052763 134.842898 
L 315.732107 133.583271 
L 316.411451 131.83272 
L 317.090794 129.624213 
L 318.449482 124.051453 
L 322.525544 104.686545 
L 323.204888 102.263303 
L 323.884231 100.365624 
L 324.563575 99.075206 
L 325.242919 98.449489 
L 325.922262 98.516976 
L 326.601606 99.273729 
L 327.28095 100.6814 
L 327.960294 102.667113 
L 329.318981 107.922498 
L 331.357012 116.72769 
L 332.036356 119.232623 
L 332.715699 121.261543 
L 333.395043 122.694742 
L 334.074387 123.450814 
L 334.75373 123.493839 
L 335.433074 122.837598 
L 336.112418 121.546198 
L 336.791762 119.730757 
L 338.150449 115.159842 
L 339.509136 110.590784 
L 340.18848 108.772778 
L 340.867824 107.466469 
L 341.547167 106.767382 
L 342.226511 106.715017 
L 342.905855 107.288516 
L 343.585199 108.408113 
L 344.943886 111.72202 
L 346.302573 115.25046 
L 346.981917 116.634226 
L 347.661261 117.57213 
L 348.340604 117.982796 
L 349.019948 117.847041 
L 349.699292 117.209625 
L 350.378635 116.173269 
L 353.09601 111.240968 
L 353.775354 110.602869 
L 354.454698 110.400401 
L 355.134041 110.633636 
L 355.813385 111.241767 
L 357.172072 113.10361 
L 358.53076 114.83195 
L 359.210104 115.319654 
L 359.889447 115.462751 
L 360.568791 115.261403 
L 361.248135 114.771682 
L 363.286166 112.695829 
L 363.965509 112.223877 
L 364.644853 112.024637 
L 365.324197 112.134938 
L 366.00354 112.543661 
L 366.682884 113.197344 
L 369.400259 116.453644 
L 370.079603 116.99634 
L 370.758946 117.326156 
L 371.43829 117.437295 
L 372.117634 117.347502 
L 372.796977 117.091992 
L 374.155665 116.268955 
L 376.193696 114.912735 
L 377.552383 114.247545 
L 378.911071 113.831514 
L 380.949102 113.548575 
L 384.34582 113.453749 
L 412.198912 113.447886 
L 460.432314 113.447886 
L 460.432314 113.447886 
" style="fill:none;stroke:#ff0000;stroke-linecap:square;stroke-width:2;"/>
   </g>
   <g id="line2d_29">
    <path clip-path="url(#pd0c87d7a34)" d="M 113.287686 175.757079 
L 230.134801 175.849663 
L 231.493489 175.900402 
L 233.53152 175.636837 
L 234.890207 175.498859 
L 236.248895 175.65122 
L 238.286926 176.163393 
L 238.96627 176.226093 
L 239.645613 176.168972 
L 241.004301 175.70746 
L 242.362988 175.090599 
L 243.042332 174.900854 
L 243.721675 174.876001 
L 244.401019 175.047989 
L 245.080363 175.410513 
L 247.797738 177.397419 
L 248.477081 177.540951 
L 249.156425 177.386191 
L 249.835769 176.918156 
L 250.515112 176.171814 
L 253.232487 172.514163 
L 253.911831 172.10579 
L 254.591174 172.124678 
L 255.270518 172.614919 
L 255.949862 173.566375 
L 256.629206 174.914816 
L 259.34658 181.604788 
L 260.025924 182.79066 
L 260.705268 183.491439 
L 261.384611 183.617614 
L 262.063955 183.125302 
L 262.743299 182.018215 
L 263.422643 180.345286 
L 264.78133 175.684751 
L 267.498705 164.898242 
L 268.178048 162.702338 
L 268.857392 160.926291 
L 269.536736 159.637428 
L 270.216079 158.875536 
L 270.895423 158.653743 
L 271.574767 158.96091 
L 272.254111 159.765119 
L 272.933454 161.017838 
L 273.612798 162.658383 
L 274.971485 166.825688 
L 277.68886 176.745699 
L 279.726891 183.760184 
L 281.085579 187.680312 
L 282.444266 190.837569 
L 283.802953 193.189264 
L 284.482297 194.063093 
L 285.161641 194.738637 
L 285.840984 195.218669 
L 286.520328 195.505602 
L 287.199672 195.601056 
L 287.879016 195.505602 
L 288.558359 195.218669 
L 289.237703 194.738637 
L 289.917047 194.063093 
L 290.59639 193.189264 
L 291.955078 190.837569 
L 293.313765 187.680312 
L 294.672452 183.760184 
L 296.710484 176.745699 
L 299.427858 166.825688 
L 300.786546 162.658383 
L 301.465889 161.017838 
L 302.145233 159.765119 
L 302.824577 158.96091 
L 303.503921 158.653743 
L 304.183264 158.875536 
L 304.862608 159.637428 
L 305.541952 160.926291 
L 306.221295 162.702338 
L 307.579983 167.420113 
L 310.297357 178.194624 
L 310.976701 180.345286 
L 311.656045 182.018215 
L 312.335389 183.125302 
L 313.014732 183.617614 
L 313.694076 183.491439 
L 314.37342 182.79066 
L 315.052763 181.604788 
L 316.411451 178.320174 
L 317.770138 174.914816 
L 318.449482 173.566375 
L 319.128826 172.614919 
L 319.808169 172.124678 
L 320.487513 172.10579 
L 321.166857 172.514163 
L 321.8462 173.258113 
L 324.563575 176.918156 
L 325.242919 177.386191 
L 325.922262 177.540951 
L 326.601606 177.397419 
L 327.28095 177.01518 
L 329.318981 175.410513 
L 329.998325 175.047989 
L 330.677668 174.876001 
L 331.357012 174.900854 
L 332.715699 175.384452 
L 334.074387 175.987207 
L 334.75373 176.168972 
L 335.433074 176.226093 
L 336.791762 176.013138 
L 338.829793 175.53512 
L 340.18848 175.540524 
L 342.905855 175.900402 
L 344.264542 175.849663 
L 346.981917 175.671754 
L 351.057979 175.782968 
L 353.775354 175.732708 
L 357.851416 175.749694 
L 367.362228 175.759222 
L 390.459913 175.756984 
L 460.432314 175.757079 
L 460.432314 175.757079 
" style="fill:none;stroke:#0000ff;stroke-dasharray:7.4,3.2;stroke-dashoffset:0;stroke-width:2;"/>
   </g>
   <g id="line2d_30">
    <path clip-path="url(#pd0c87d7a34)" d="M 113.287686 460.057654 
L 228.776114 459.962015 
L 230.134801 459.96798 
L 233.53152 460.233984 
L 234.890207 460.019646 
L 236.248895 459.756672 
L 237.607582 459.763756 
L 238.96627 460.138041 
L 240.324957 460.590367 
L 241.004301 460.696233 
L 241.683644 460.658115 
L 242.362988 460.46165 
L 243.721675 459.711913 
L 245.080363 458.964545 
L 245.759706 458.806889 
L 246.43905 458.87947 
L 247.118394 459.202744 
L 247.797738 459.75225 
L 249.835769 461.914344 
L 250.515112 462.414079 
L 251.194456 462.615149 
L 251.8738 462.448065 
L 252.553143 461.891487 
L 253.232487 460.977513 
L 254.591174 458.452669 
L 255.949862 455.952244 
L 256.629206 455.102095 
L 257.308549 454.693665 
L 257.987893 454.810103 
L 258.667237 455.484446 
L 259.34658 456.696486 
L 260.025924 458.375323 
L 261.384611 462.645257 
L 262.743299 467.081774 
L 263.422643 468.953467 
L 264.101986 470.404383 
L 264.78133 471.327931 
L 265.460674 471.653554 
L 266.140017 471.349045 
L 266.819361 470.419749 
L 267.498705 468.90509 
L 268.178048 466.873082 
L 269.536736 461.630529 
L 273.612798 444.067983 
L 274.971485 439.831797 
L 275.650829 438.210834 
L 276.330173 436.926224 
L 277.009516 435.965761 
L 277.68886 435.307203 
L 278.368204 434.920607 
L 279.047548 434.770598 
L 279.726891 434.818462 
L 280.406235 435.024015 
L 281.764922 435.749302 
L 284.482297 437.474424 
L 285.840984 438.043685 
L 287.199672 438.245776 
L 288.558359 438.043685 
L 289.917047 437.474424 
L 291.955078 436.194159 
L 293.313765 435.347182 
L 294.672452 434.818462 
L 295.351796 434.770598 
L 296.03114 434.920607 
L 296.710484 435.307203 
L 297.389827 435.965761 
L 298.069171 436.926224 
L 298.748515 438.210834 
L 299.427858 439.831797 
L 300.786546 444.067983 
L 302.145233 449.452534 
L 305.541952 464.413516 
L 306.221295 466.873082 
L 306.900639 468.90509 
L 307.579983 470.419749 
L 308.259326 471.349045 
L 308.93867 471.653554 
L 309.618014 471.327931 
L 310.297357 470.404383 
L 310.976701 468.953467 
L 312.335389 464.926248 
L 314.37342 458.375323 
L 315.052763 456.696486 
L 315.732107 455.484446 
L 316.411451 454.810103 
L 317.090794 454.693665 
L 317.770138 455.102095 
L 318.449482 455.952244 
L 319.808169 458.452669 
L 321.166857 460.977513 
L 321.8462 461.891487 
L 322.525544 462.448065 
L 323.204888 462.615149 
L 323.884231 462.414079 
L 324.563575 461.914344 
L 327.28095 459.202744 
L 327.960294 458.87947 
L 328.639637 458.806889 
L 329.318981 458.964545 
L 330.677668 459.711913 
L 332.036356 460.46165 
L 332.715699 460.658115 
L 333.395043 460.696233 
L 334.75373 460.384094 
L 336.791762 459.763756 
L 338.150449 459.756672 
L 341.547167 460.250555 
L 346.302573 460.011205 
L 348.340604 460.127193 
L 357.172072 460.039823 
L 391.139257 460.057758 
L 460.432314 460.057654 
L 460.432314 460.057654 
" style="fill:none;stroke:#ff0000;stroke-dasharray:7.4,3.2;stroke-dashoffset:0;stroke-width:2;"/>
   </g>
   <g id="patch_3">
    <path d="M 76.8375 512.64 
L 76.8375 40.32 
" style="fill:none;stroke:#000000;stroke-linecap:square;stroke-linejoin:miter;stroke-width:0.8;"/>
   </g>
   <g id="patch_4">
    <path d="M 496.8825 512.64 
L 496.8825 40.32 
" style="fill:none;stroke:#000000;stroke-linecap:square;stroke-linejoin:miter;stroke-width:0.8;"/>
   </g>
   <g id="patch_5">
    <path d="M 76.8375 512.64 
L 496.8825 512.64 
" style="fill:none;stroke:#000000;stroke-linecap:square;stroke-linejoin:miter;stroke-width:0.8;"/>
   </g>
   <g id="patch_6">
    <path d="M 76.8375 40.32 
L 496.8825 40.32 
" style="fill:none;stroke:#000000;stroke-linecap:square;stroke-linejoin:miter;stroke-width:0.8;"/>
   </g>
   <g id="legend_1">
    <g id="patch_7">
     <path d="M 355.166875 338.1925 
L 482.8825 338.1925 
Q 486.8825 338.1925 486.8825 334.1925 
L 486.8825 218.7675 
Q 486.8825 214.7675 482.8825 214.7675 
L 355.166875 214.7675 
Q 351.166875 214.7675 351.166875 218.7675 
L 351.166875 334.1925 
Q 351.166875 338.1925 355.166875 338.1925 
z
" style="fill:#ffffff;opacity:0.8;stroke:#cccccc;stroke-linejoin:miter;"/>
    </g>
    <g id="line2d_31">
     <path d="M 359.166875 230.964375 
L 399.166875 230.964375 
" style="fill:none;stroke:#0000ff;stroke-linecap:square;stroke-width:2;"/>
    </g>
    <g id="line2d_32"/>
    <g id="text_16">
     <!-- frr -->
     <defs>
      <path d="M 37.109375 75.984375 
L 37.109375 68.5 
L 28.515625 68.5 
Q 23.6875 68.5 21.796875 66.546875 
Q 19.921875 64.59375 19.921875 59.515625 
L 19.921875 54.6875 
L 34.71875 54.6875 
L 34.71875 47.703125 
L 19.921875 47.703125 
L 19.921875 0 
L 10.890625 0 
L 10.890625 47.703125 
L 2.296875 47.703125 
L 2.296875 54.6875 
L 10.890625 54.6875 
L 10.890625 58.5 
Q 10.890625 67.625 15.140625 71.796875 
Q 19.390625 75.984375 28.609375 75.984375 
z
" id="DejaVuSans-102"/>
      <path d="M 41.109375 46.296875 
Q 39.59375 47.171875 37.8125 47.578125 
Q 36.03125 48 33.890625 48 
Q 26.265625 48 22.1875 43.046875 
Q 18.109375 38.09375 18.109375 28.8125 
L 18.109375 0 
L 9.078125 0 
L 9.078125 54.6875 
L 18.109375 54.6875 
L 18.109375 46.1875 
Q 20.953125 51.171875 25.484375 53.578125 
Q 30.03125 56 36.53125 56 
Q 37.453125 56 38.578125 55.875 
Q 39.703125 55.765625 41.0625 55.515625 
z
" id="DejaVuSans-114"/>
     </defs>
     <g transform="translate(415.166875 237.964375)scale(0.2 -0.2)">
      <use xlink:href="#DejaVuSans-102"/>
      <use x="35.205078" xlink:href="#DejaVuSans-114"/>
      <use x="76.302734" xlink:href="#DejaVuSans-114"/>
     </g>
    </g>
    <g id="line2d_33">
     <path d="M 359.166875 260.320625 
L 399.166875 260.320625 
" style="fill:none;stroke:#ff0000;stroke-linecap:square;stroke-width:2;"/>
    </g>
    <g id="line2d_34"/>
    <g id="text_17">
     <!-- fri -->
     <defs>
      <path d="M 9.421875 54.6875 
L 18.40625 54.6875 
L 18.40625 0 
L 9.421875 0 
z
M 9.421875 75.984375 
L 18.40625 75.984375 
L 18.40625 64.59375 
L 9.421875 64.59375 
z
" id="DejaVuSans-105"/>
     </defs>
     <g transform="translate(415.166875 267.320625)scale(0.2 -0.2)">
      <use xlink:href="#DejaVuSans-102"/>
      <use x="35.205078" xlink:href="#DejaVuSans-114"/>
      <use x="76.318359" xlink:href="#DejaVuSans-105"/>
     </g>
    </g>
    <g id="line2d_35">
     <path d="M 359.166875 289.676875 
L 399.166875 289.676875 
" style="fill:none;stroke:#0000ff;stroke-dasharray:7.4,3.2;stroke-dashoffset:0;stroke-width:2;"/>
    </g>
    <g id="line2d_36"/>
    <g id="text_18">
     <!-- Re(fft) -->
     <defs>
      <path d="M 44.390625 34.1875 
Q 47.5625 33.109375 50.5625 29.59375 
Q 53.5625 26.078125 56.59375 19.921875 
L 66.609375 0 
L 56 0 
L 46.6875 18.703125 
Q 43.0625 26.03125 39.671875 28.421875 
Q 36.28125 30.8125 30.421875 30.8125 
L 19.671875 30.8125 
L 19.671875 0 
L 9.8125 0 
L 9.8125 72.90625 
L 32.078125 72.90625 
Q 44.578125 72.90625 50.734375 67.671875 
Q 56.890625 62.453125 56.890625 51.90625 
Q 56.890625 45.015625 53.6875 40.46875 
Q 50.484375 35.9375 44.390625 34.1875 
z
M 19.671875 64.796875 
L 19.671875 38.921875 
L 32.078125 38.921875 
Q 39.203125 38.921875 42.84375 42.21875 
Q 46.484375 45.515625 46.484375 51.90625 
Q 46.484375 58.296875 42.84375 61.546875 
Q 39.203125 64.796875 32.078125 64.796875 
z
" id="DejaVuSans-82"/>
      <path d="M 56.203125 29.59375 
L 56.203125 25.203125 
L 14.890625 25.203125 
Q 15.484375 15.921875 20.484375 11.0625 
Q 25.484375 6.203125 34.421875 6.203125 
Q 39.59375 6.203125 44.453125 7.46875 
Q 49.3125 8.734375 54.109375 11.28125 
L 54.109375 2.78125 
Q 49.265625 0.734375 44.1875 -0.34375 
Q 39.109375 -1.421875 33.890625 -1.421875 
Q 20.796875 -1.421875 13.15625 6.1875 
Q 5.515625 13.8125 5.515625 26.8125 
Q 5.515625 40.234375 12.765625 48.109375 
Q 20.015625 56 32.328125 56 
Q 43.359375 56 49.78125 48.890625 
Q 56.203125 41.796875 56.203125 29.59375 
z
M 47.21875 32.234375 
Q 47.125 39.59375 43.09375 43.984375 
Q 39.0625 48.390625 32.421875 48.390625 
Q 24.90625 48.390625 20.390625 44.140625 
Q 15.875 39.890625 15.1875 32.171875 
z
" id="DejaVuSans-101"/>
      <path d="M 18.3125 70.21875 
L 18.3125 54.6875 
L 36.8125 54.6875 
L 36.8125 47.703125 
L 18.3125 47.703125 
L 18.3125 18.015625 
Q 18.3125 11.328125 20.140625 9.421875 
Q 21.96875 7.515625 27.59375 7.515625 
L 36.8125 7.515625 
L 36.8125 0 
L 27.59375 0 
Q 17.1875 0 13.234375 3.875 
Q 9.28125 7.765625 9.28125 18.015625 
L 9.28125 47.703125 
L 2.6875 47.703125 
L 2.6875 54.6875 
L 9.28125 54.6875 
L 9.28125 70.21875 
z
" id="DejaVuSans-116"/>
     </defs>
     <g transform="translate(415.166875 296.676875)scale(0.2 -0.2)">
      <use xlink:href="#DejaVuSans-82"/>
      <use x="69.419922" xlink:href="#DejaVuSans-101"/>
      <use x="130.943359" xlink:href="#DejaVuSans-40"/>
      <use x="169.957031" xlink:href="#DejaVuSans-102"/>
      <use x="205.162109" xlink:href="#DejaVuSans-102"/>
      <use x="240.351562" xlink:href="#DejaVuSans-116"/>
      <use x="279.560547" xlink:href="#DejaVuSans-41"/>
     </g>
    </g>
    <g id="line2d_37">
     <path d="M 359.166875 319.033125 
L 399.166875 319.033125 
" style="fill:none;stroke:#ff0000;stroke-dasharray:7.4,3.2;stroke-dashoffset:0;stroke-width:2;"/>
    </g>
    <g id="line2d_38"/>
    <g id="text_19">
     <!-- Im(fft) -->
     <defs>
      <path d="M 9.8125 72.90625 
L 19.671875 72.90625 
L 19.671875 0 
L 9.8125 0 
z
" id="DejaVuSans-73"/>
      <path d="M 52 44.1875 
Q 55.375 50.25 60.0625 53.125 
Q 64.75 56 71.09375 56 
Q 79.640625 56 84.28125 50.015625 
Q 88.921875 44.046875 88.921875 33.015625 
L 88.921875 0 
L 79.890625 0 
L 79.890625 32.71875 
Q 79.890625 40.578125 77.09375 44.375 
Q 74.3125 48.1875 68.609375 48.1875 
Q 61.625 48.1875 57.5625 43.546875 
Q 53.515625 38.921875 53.515625 30.90625 
L 53.515625 0 
L 44.484375 0 
L 44.484375 32.71875 
Q 44.484375 40.625 41.703125 44.40625 
Q 38.921875 48.1875 33.109375 48.1875 
Q 26.21875 48.1875 22.15625 43.53125 
Q 18.109375 38.875 18.109375 30.90625 
L 18.109375 0 
L 9.078125 0 
L 9.078125 54.6875 
L 18.109375 54.6875 
L 18.109375 46.1875 
Q 21.1875 51.21875 25.484375 53.609375 
Q 29.78125 56 35.6875 56 
Q 41.65625 56 45.828125 52.96875 
Q 50 49.953125 52 44.1875 
z
" id="DejaVuSans-109"/>
     </defs>
     <g transform="translate(415.166875 326.033125)scale(0.2 -0.2)">
      <use xlink:href="#DejaVuSans-73"/>
      <use x="29.492188" xlink:href="#DejaVuSans-109"/>
      <use x="126.904297" xlink:href="#DejaVuSans-40"/>
      <use x="165.917969" xlink:href="#DejaVuSans-102"/>
      <use x="201.123047" xlink:href="#DejaVuSans-102"/>
      <use x="236.3125" xlink:href="#DejaVuSans-116"/>
      <use x="275.521484" xlink:href="#DejaVuSans-41"/>
     </g>
    </g>
   </g>
  </g>
 </g>
 <defs>
  <clipPath id="pd0c87d7a34">
   <rect height="472.32" width="420.045" x="76.8375" y="40.32"/>
  </clipPath>
 </defs>
</svg>
