<?xml version="1.0" encoding="utf-8" standalone="no"?>
<!DOCTYPE svg PUBLIC "-//W3C//DTD SVG 1.1//EN"
  "http://www.w3.org/Graphics/SVG/1.1/DTD/svg11.dtd">
<!-- Created with matplotlib (https://matplotlib.org/) -->
<svg height="576pt" version="1.1" viewBox="0 0 512.25 576" width="512.25pt" xmlns="http://www.w3.org/2000/svg" xmlns:xlink="http://www.w3.org/1999/xlink">
 <defs>
  <style type="text/css">
*{stroke-linecap:butt;stroke-linejoin:round;}
  </style>
 </defs>
 <g id="figure_1">
  <g id="patch_1">
   <path d="M 0 576 
L 512.25 576 
L 512.25 0 
L 0 0 
z
" style="fill:#ffffff;"/>
  </g>
  <g id="axes_1">
   <g id="patch_2">
    <path d="M 76.8375 512.64 
L 496.8825 512.64 
L 496.8825 40.32 
L 76.8375 40.32 
z
" style="fill:#ffffff;"/>
   </g>
   <g id="matplotlib.axis_1">
    <g id="xtick_1">
     <g id="line2d_1">
      <path clip-path="url(#p8dc206ebcb)" d="M 142.108547 512.64 
L 142.108547 40.32 
" style="fill:none;stroke:#e6e6e6;stroke-linecap:square;stroke-width:0.8;"/>
     </g>
     <g id="line2d_2">
      <defs>
       <path d="M 0 0 
L 0 -3.5 
" id="m408772be5e" style="stroke:#000000;stroke-width:0.8;"/>
      </defs>
      <g>
       <use style="stroke:#000000;stroke-width:0.8;" x="142.108547" xlink:href="#m408772be5e" y="512.64"/>
      </g>
     </g>
     <g id="text_1">
      <!-- −4 -->
      <defs>
       <path d="M 10.59375 35.5 
L 73.1875 35.5 
L 73.1875 27.203125 
L 10.59375 27.203125 
z
" id="DejaVuSans-8722"/>
       <path d="M 37.796875 64.3125 
L 12.890625 25.390625 
L 37.796875 25.390625 
z
M 35.203125 72.90625 
L 47.609375 72.90625 
L 47.609375 25.390625 
L 58.015625 25.390625 
L 58.015625 17.1875 
L 47.609375 17.1875 
L 47.609375 0 
L 37.796875 0 
L 37.796875 17.1875 
L 4.890625 17.1875 
L 4.890625 26.703125 
z
" id="DejaVuSans-52"/>
      </defs>
      <g transform="translate(131.051906 527.537656)scale(0.15 -0.15)">
       <use xlink:href="#DejaVuSans-8722"/>
       <use x="83.789062" xlink:href="#DejaVuSans-52"/>
      </g>
     </g>
    </g>
    <g id="xtick_2">
     <g id="line2d_3">
      <path clip-path="url(#p8dc206ebcb)" d="M 214.484273 512.64 
L 214.484273 40.32 
" style="fill:none;stroke:#e6e6e6;stroke-linecap:square;stroke-width:0.8;"/>
     </g>
     <g id="line2d_4">
      <g>
       <use style="stroke:#000000;stroke-width:0.8;" x="214.484273" xlink:href="#m408772be5e" y="512.64"/>
      </g>
     </g>
     <g id="text_2">
      <!-- −2 -->
      <defs>
       <path d="M 19.1875 8.296875 
L 53.609375 8.296875 
L 53.609375 0 
L 7.328125 0 
L 7.328125 8.296875 
Q 12.9375 14.109375 22.625 23.890625 
Q 32.328125 33.6875 34.8125 36.53125 
Q 39.546875 41.84375 41.421875 45.53125 
Q 43.3125 49.21875 43.3125 52.78125 
Q 43.3125 58.59375 39.234375 62.25 
Q 35.15625 65.921875 28.609375 65.921875 
Q 23.96875 65.921875 18.8125 64.3125 
Q 13.671875 62.703125 7.8125 59.421875 
L 7.8125 69.390625 
Q 13.765625 71.78125 18.9375 73 
Q 24.125 74.21875 28.421875 74.21875 
Q 39.75 74.21875 46.484375 68.546875 
Q 53.21875 62.890625 53.21875 53.421875 
Q 53.21875 48.921875 51.53125 44.890625 
Q 49.859375 40.875 45.40625 35.40625 
Q 44.1875 33.984375 37.640625 27.21875 
Q 31.109375 20.453125 19.1875 8.296875 
z
" id="DejaVuSans-50"/>
      </defs>
      <g transform="translate(203.427633 527.537656)scale(0.15 -0.15)">
       <use xlink:href="#DejaVuSans-8722"/>
       <use x="83.789062" xlink:href="#DejaVuSans-50"/>
      </g>
     </g>
    </g>
    <g id="xtick_3">
     <g id="line2d_5">
      <path clip-path="url(#p8dc206ebcb)" d="M 286.86 512.64 
L 286.86 40.32 
" style="fill:none;stroke:#e6e6e6;stroke-linecap:square;stroke-width:0.8;"/>
     </g>
     <g id="line2d_6">
      <g>
       <use style="stroke:#000000;stroke-width:0.8;" x="286.86" xlink:href="#m408772be5e" y="512.64"/>
      </g>
     </g>
     <g id="text_3">
      <!-- 0 -->
      <defs>
       <path d="M 31.78125 66.40625 
Q 24.171875 66.40625 20.328125 58.90625 
Q 16.5 51.421875 16.5 36.375 
Q 16.5 21.390625 20.328125 13.890625 
Q 24.171875 6.390625 31.78125 6.390625 
Q 39.453125 6.390625 43.28125 13.890625 
Q 47.125 21.390625 47.125 36.375 
Q 47.125 51.421875 43.28125 58.90625 
Q 39.453125 66.40625 31.78125 66.40625 
z
M 31.78125 74.21875 
Q 44.046875 74.21875 50.515625 64.515625 
Q 56.984375 54.828125 56.984375 36.375 
Q 56.984375 17.96875 50.515625 8.265625 
Q 44.046875 -1.421875 31.78125 -1.421875 
Q 19.53125 -1.421875 13.0625 8.265625 
Q 6.59375 17.96875 6.59375 36.375 
Q 6.59375 54.828125 13.0625 64.515625 
Q 19.53125 74.21875 31.78125 74.21875 
z
" id="DejaVuSans-48"/>
      </defs>
      <g transform="translate(282.088125 527.537656)scale(0.15 -0.15)">
       <use xlink:href="#DejaVuSans-48"/>
      </g>
     </g>
    </g>
    <g id="xtick_4">
     <g id="line2d_7">
      <path clip-path="url(#p8dc206ebcb)" d="M 359.235727 512.64 
L 359.235727 40.32 
" style="fill:none;stroke:#e6e6e6;stroke-linecap:square;stroke-width:0.8;"/>
     </g>
     <g id="line2d_8">
      <g>
       <use style="stroke:#000000;stroke-width:0.8;" x="359.235727" xlink:href="#m408772be5e" y="512.64"/>
      </g>
     </g>
     <g id="text_4">
      <!-- 2 -->
      <g transform="translate(354.463852 527.537656)scale(0.15 -0.15)">
       <use xlink:href="#DejaVuSans-50"/>
      </g>
     </g>
    </g>
    <g id="xtick_5">
     <g id="line2d_9">
      <path clip-path="url(#p8dc206ebcb)" d="M 431.611453 512.64 
L 431.611453 40.32 
" style="fill:none;stroke:#e6e6e6;stroke-linecap:square;stroke-width:0.8;"/>
     </g>
     <g id="line2d_10">
      <g>
       <use style="stroke:#000000;stroke-width:0.8;" x="431.611453" xlink:href="#m408772be5e" y="512.64"/>
      </g>
     </g>
     <g id="text_5">
      <!-- 4 -->
      <g transform="translate(426.839578 527.537656)scale(0.15 -0.15)">
       <use xlink:href="#DejaVuSans-52"/>
      </g>
     </g>
    </g>
    <g id="text_6">
     <!-- $x$ -->
     <defs>
      <path d="M 60.015625 54.6875 
L 34.90625 27.875 
L 50.296875 0 
L 39.984375 0 
L 28.421875 21.6875 
L 8.296875 0 
L -2.59375 0 
L 24.3125 28.8125 
L 10.015625 54.6875 
L 20.3125 54.6875 
L 30.8125 34.90625 
L 49.125 54.6875 
z
" id="DejaVuSans-Oblique-120"/>
     </defs>
     <g transform="translate(279.36 553.653281)scale(0.25 -0.25)">
      <use transform="translate(0 0.3125)" xlink:href="#DejaVuSans-Oblique-120"/>
     </g>
    </g>
   </g>
   <g id="matplotlib.axis_2">
    <g id="ytick_1">
     <g id="line2d_11">
      <path clip-path="url(#p8dc206ebcb)" d="M 76.8375 471.654307 
L 496.8825 471.654307 
" style="fill:none;stroke:#e6e6e6;stroke-linecap:square;stroke-width:0.8;"/>
     </g>
     <g id="line2d_12">
      <defs>
       <path d="M 0 0 
L 3.5 0 
" id="ma41a08c76e" style="stroke:#000000;stroke-width:0.8;"/>
      </defs>
      <g>
       <use style="stroke:#000000;stroke-width:0.8;" x="76.8375" xlink:href="#ma41a08c76e" y="471.654307"/>
      </g>
     </g>
     <g id="text_7">
      <!-- −1.0 -->
      <defs>
       <path d="M 12.40625 8.296875 
L 28.515625 8.296875 
L 28.515625 63.921875 
L 10.984375 60.40625 
L 10.984375 69.390625 
L 28.421875 72.90625 
L 38.28125 72.90625 
L 38.28125 8.296875 
L 54.390625 8.296875 
L 54.390625 0 
L 12.40625 0 
z
" id="DejaVuSans-49"/>
       <path d="M 10.6875 12.40625 
L 21 12.40625 
L 21 0 
L 10.6875 0 
z
" id="DejaVuSans-46"/>
      </defs>
      <g transform="translate(36.913281 477.353135)scale(0.15 -0.15)">
       <use xlink:href="#DejaVuSans-8722"/>
       <use x="83.789062" xlink:href="#DejaVuSans-49"/>
       <use x="147.412109" xlink:href="#DejaVuSans-46"/>
       <use x="179.199219" xlink:href="#DejaVuSans-48"/>
      </g>
     </g>
    </g>
    <g id="ytick_2">
     <g id="line2d_13">
      <path clip-path="url(#p8dc206ebcb)" d="M 76.8375 374.067342 
L 496.8825 374.067342 
" style="fill:none;stroke:#e6e6e6;stroke-linecap:square;stroke-width:0.8;"/>
     </g>
     <g id="line2d_14">
      <g>
       <use style="stroke:#000000;stroke-width:0.8;" x="76.8375" xlink:href="#ma41a08c76e" y="374.067342"/>
      </g>
     </g>
     <g id="text_8">
      <!-- −0.5 -->
      <defs>
       <path d="M 10.796875 72.90625 
L 49.515625 72.90625 
L 49.515625 64.59375 
L 19.828125 64.59375 
L 19.828125 46.734375 
Q 21.96875 47.46875 24.109375 47.828125 
Q 26.265625 48.1875 28.421875 48.1875 
Q 40.625 48.1875 47.75 41.5 
Q 54.890625 34.8125 54.890625 23.390625 
Q 54.890625 11.625 47.5625 5.09375 
Q 40.234375 -1.421875 26.90625 -1.421875 
Q 22.3125 -1.421875 17.546875 -0.640625 
Q 12.796875 0.140625 7.71875 1.703125 
L 7.71875 11.625 
Q 12.109375 9.234375 16.796875 8.0625 
Q 21.484375 6.890625 26.703125 6.890625 
Q 35.15625 6.890625 40.078125 11.328125 
Q 45.015625 15.765625 45.015625 23.390625 
Q 45.015625 31 40.078125 35.4375 
Q 35.15625 39.890625 26.703125 39.890625 
Q 22.75 39.890625 18.8125 39.015625 
Q 14.890625 38.140625 10.796875 36.28125 
z
" id="DejaVuSans-53"/>
      </defs>
      <g transform="translate(36.913281 379.76617)scale(0.15 -0.15)">
       <use xlink:href="#DejaVuSans-8722"/>
       <use x="83.789062" xlink:href="#DejaVuSans-48"/>
       <use x="147.412109" xlink:href="#DejaVuSans-46"/>
       <use x="179.199219" xlink:href="#DejaVuSans-53"/>
      </g>
     </g>
    </g>
    <g id="ytick_3">
     <g id="line2d_15">
      <path clip-path="url(#p8dc206ebcb)" d="M 76.8375 276.480377 
L 496.8825 276.480377 
" style="fill:none;stroke:#e6e6e6;stroke-linecap:square;stroke-width:0.8;"/>
     </g>
     <g id="line2d_16">
      <g>
       <use style="stroke:#000000;stroke-width:0.8;" x="76.8375" xlink:href="#ma41a08c76e" y="276.480377"/>
      </g>
     </g>
     <g id="text_9">
      <!-- 0.0 -->
      <g transform="translate(49.482812 282.179205)scale(0.15 -0.15)">
       <use xlink:href="#DejaVuSans-48"/>
       <use x="63.623047" xlink:href="#DejaVuSans-46"/>
       <use x="95.410156" xlink:href="#DejaVuSans-48"/>
      </g>
     </g>
    </g>
    <g id="ytick_4">
     <g id="line2d_17">
      <path clip-path="url(#p8dc206ebcb)" d="M 76.8375 178.893411 
L 496.8825 178.893411 
" style="fill:none;stroke:#e6e6e6;stroke-linecap:square;stroke-width:0.8;"/>
     </g>
     <g id="line2d_18">
      <g>
       <use style="stroke:#000000;stroke-width:0.8;" x="76.8375" xlink:href="#ma41a08c76e" y="178.893411"/>
      </g>
     </g>
     <g id="text_10">
      <!-- 0.5 -->
      <g transform="translate(49.482812 184.592239)scale(0.15 -0.15)">
       <use xlink:href="#DejaVuSans-48"/>
       <use x="63.623047" xlink:href="#DejaVuSans-46"/>
       <use x="95.410156" xlink:href="#DejaVuSans-53"/>
      </g>
     </g>
    </g>
    <g id="ytick_5">
     <g id="line2d_19">
      <path clip-path="url(#p8dc206ebcb)" d="M 76.8375 81.306446 
L 496.8825 81.306446 
" style="fill:none;stroke:#e6e6e6;stroke-linecap:square;stroke-width:0.8;"/>
     </g>
     <g id="line2d_20">
      <g>
       <use style="stroke:#000000;stroke-width:0.8;" x="76.8375" xlink:href="#ma41a08c76e" y="81.306446"/>
      </g>
     </g>
     <g id="text_11">
      <!-- 1.0 -->
      <g transform="translate(49.482812 87.005274)scale(0.15 -0.15)">
       <use xlink:href="#DejaVuSans-49"/>
       <use x="63.623047" xlink:href="#DejaVuSans-46"/>
       <use x="95.410156" xlink:href="#DejaVuSans-48"/>
      </g>
     </g>
    </g>
    <g id="text_12">
     <!-- $Fresnel Propagator$ -->
     <defs>
      <path d="M 16.890625 72.90625 
L 58.6875 72.90625 
L 57.078125 64.59375 
L 25.09375 64.59375 
L 20.90625 43.109375 
L 49.8125 43.109375 
L 48.1875 34.8125 
L 19.28125 34.8125 
L 12.5 0 
L 2.6875 0 
z
" id="DejaVuSans-Oblique-70"/>
      <path d="M 44.578125 46.390625 
Q 43.21875 47.125 41.453125 47.515625 
Q 39.703125 47.90625 37.703125 47.90625 
Q 30.515625 47.90625 25.140625 42.453125 
Q 19.78125 37.015625 18.015625 27.875 
L 12.5 0 
L 3.515625 0 
L 14.203125 54.6875 
L 23.1875 54.6875 
L 21.484375 46.1875 
Q 25.046875 50.921875 30 53.453125 
Q 34.96875 56 40.578125 56 
Q 42.046875 56 43.453125 55.828125 
Q 44.875 55.671875 46.296875 55.28125 
z
" id="DejaVuSans-Oblique-114"/>
      <path d="M 48.09375 32.234375 
Q 48.25 33.015625 48.3125 33.84375 
Q 48.390625 34.671875 48.390625 35.5 
Q 48.390625 41.453125 44.890625 44.921875 
Q 41.40625 48.390625 35.40625 48.390625 
Q 28.71875 48.390625 23.578125 44.15625 
Q 18.453125 39.9375 15.828125 32.171875 
z
M 55.90625 25.203125 
L 14.109375 25.203125 
Q 13.8125 23.34375 13.71875 22.265625 
Q 13.625 21.1875 13.625 20.40625 
Q 13.625 13.625 17.796875 9.90625 
Q 21.96875 6.203125 29.59375 6.203125 
Q 35.453125 6.203125 40.671875 7.515625 
Q 45.90625 8.84375 50.390625 11.375 
L 48.6875 2.484375 
Q 43.84375 0.53125 38.6875 -0.4375 
Q 33.546875 -1.421875 28.21875 -1.421875 
Q 16.84375 -1.421875 10.71875 4.015625 
Q 4.59375 9.46875 4.59375 19.484375 
Q 4.59375 28.03125 7.640625 35.375 
Q 10.6875 42.71875 16.609375 48.484375 
Q 20.40625 52.09375 25.65625 54.046875 
Q 30.90625 56 36.8125 56 
Q 46.09375 56 51.578125 50.4375 
Q 57.078125 44.875 57.078125 35.5 
Q 57.078125 33.25 56.78125 30.6875 
Q 56.5 28.125 55.90625 25.203125 
z
" id="DejaVuSans-Oblique-101"/>
      <path d="M 50 53.078125 
L 48.296875 44.578125 
Q 44.734375 46.53125 40.765625 47.5 
Q 36.8125 48.484375 32.625 48.484375 
Q 25.53125 48.484375 21.453125 46.0625 
Q 17.390625 43.65625 17.390625 39.5 
Q 17.390625 34.671875 26.859375 32.078125 
Q 27.59375 31.890625 27.9375 31.78125 
L 30.8125 30.90625 
Q 39.796875 28.421875 42.796875 25.6875 
Q 45.796875 22.953125 45.796875 18.21875 
Q 45.796875 9.515625 38.890625 4.046875 
Q 31.984375 -1.421875 20.796875 -1.421875 
Q 16.453125 -1.421875 11.671875 -0.578125 
Q 6.890625 0.25 1.125 2 
L 2.875 11.28125 
Q 7.8125 8.734375 12.59375 7.421875 
Q 17.390625 6.109375 21.78125 6.109375 
Q 28.375 6.109375 32.5 8.9375 
Q 36.625 11.765625 36.625 16.109375 
Q 36.625 20.796875 25.78125 23.6875 
L 24.859375 23.921875 
L 21.78125 24.703125 
Q 14.9375 26.515625 11.765625 29.46875 
Q 8.59375 32.421875 8.59375 37.015625 
Q 8.59375 45.75 15.15625 50.875 
Q 21.734375 56 33.015625 56 
Q 37.453125 56 41.671875 55.265625 
Q 45.90625 54.546875 50 53.078125 
z
" id="DejaVuSans-Oblique-115"/>
      <path d="M 55.71875 33.015625 
L 49.3125 0 
L 40.28125 0 
L 46.6875 32.671875 
Q 47.125 34.96875 47.359375 36.71875 
Q 47.609375 38.484375 47.609375 39.5 
Q 47.609375 43.609375 45.015625 45.890625 
Q 42.4375 48.1875 37.796875 48.1875 
Q 30.5625 48.1875 25.34375 43.375 
Q 20.125 38.578125 18.5 30.328125 
L 12.5 0 
L 3.515625 0 
L 14.109375 54.6875 
L 23.09375 54.6875 
L 21.296875 46.09375 
Q 25.046875 50.828125 30.3125 53.40625 
Q 35.59375 56 41.40625 56 
Q 48.640625 56 52.609375 52.09375 
Q 56.59375 48.1875 56.59375 41.109375 
Q 56.59375 39.359375 56.375 37.359375 
Q 56.15625 35.359375 55.71875 33.015625 
z
" id="DejaVuSans-Oblique-110"/>
      <path d="M 18.3125 75.984375 
L 27.296875 75.984375 
L 12.5 0 
L 3.515625 0 
z
" id="DejaVuSans-Oblique-108"/>
      <path d="M 16.890625 72.90625 
L 39.703125 72.90625 
Q 49.65625 72.90625 54.875 68.265625 
Q 60.109375 63.625 60.109375 54.6875 
Q 60.109375 42.671875 52.390625 35.984375 
Q 44.671875 29.296875 30.71875 29.296875 
L 18.3125 29.296875 
L 12.59375 0 
L 2.6875 0 
z
M 25.203125 64.796875 
L 19.921875 37.40625 
L 32.328125 37.40625 
Q 40.71875 37.40625 45.203125 41.703125 
Q 49.703125 46 49.703125 54 
Q 49.703125 59.125 46.65625 61.953125 
Q 43.609375 64.796875 38.09375 64.796875 
z
" id="DejaVuSans-Oblique-80"/>
      <path d="M 25.390625 -1.421875 
Q 15.765625 -1.421875 10.171875 4.515625 
Q 4.59375 10.453125 4.59375 20.703125 
Q 4.59375 26.65625 6.515625 32.828125 
Q 8.453125 39.015625 11.53125 43.21875 
Q 16.359375 49.75 22.3125 52.875 
Q 28.265625 56 35.796875 56 
Q 45.125 56 50.859375 50.1875 
Q 56.59375 44.390625 56.59375 35.015625 
Q 56.59375 28.515625 54.6875 22.0625 
Q 52.78125 15.625 49.703125 11.375 
Q 44.921875 4.828125 38.96875 1.703125 
Q 33.015625 -1.421875 25.390625 -1.421875 
z
M 13.921875 21 
Q 13.921875 13.578125 17.015625 9.890625 
Q 20.125 6.203125 26.421875 6.203125 
Q 35.453125 6.203125 41.375 14.078125 
Q 47.3125 21.96875 47.3125 34.078125 
Q 47.3125 41.15625 44.140625 44.765625 
Q 40.96875 48.390625 34.8125 48.390625 
Q 29.734375 48.390625 25.78125 46.015625 
Q 21.828125 43.65625 18.703125 38.8125 
Q 16.40625 35.203125 15.15625 30.5625 
Q 13.921875 25.921875 13.921875 21 
z
" id="DejaVuSans-Oblique-111"/>
      <path d="M 49.609375 33.6875 
Q 49.609375 40.875 46.484375 44.671875 
Q 43.359375 48.484375 37.5 48.484375 
Q 33.5 48.484375 29.859375 46.4375 
Q 26.21875 44.390625 23.390625 40.484375 
Q 20.609375 36.625 18.9375 31.15625 
Q 17.28125 25.6875 17.28125 20.3125 
Q 17.28125 13.484375 20.40625 9.796875 
Q 23.53125 6.109375 29.296875 6.109375 
Q 33.546875 6.109375 37.1875 8.109375 
Q 40.828125 10.109375 43.40625 13.921875 
Q 46.1875 17.921875 47.890625 23.34375 
Q 49.609375 28.765625 49.609375 33.6875 
z
M 21.78125 46.390625 
Q 25.390625 51.125 30.296875 53.5625 
Q 35.203125 56 41.21875 56 
Q 49.609375 56 54.25 50.5 
Q 58.890625 45.015625 58.890625 35.109375 
Q 58.890625 27 56 19.65625 
Q 53.125 12.3125 47.703125 6.5 
Q 44.09375 2.640625 39.546875 0.609375 
Q 35.015625 -1.421875 29.984375 -1.421875 
Q 24.171875 -1.421875 20.21875 1 
Q 16.265625 3.421875 14.3125 8.203125 
L 8.6875 -20.796875 
L -0.296875 -20.796875 
L 14.40625 54.6875 
L 23.390625 54.6875 
z
" id="DejaVuSans-Oblique-112"/>
      <path d="M 53.71875 31.203125 
L 47.609375 0 
L 38.625 0 
L 40.28125 8.296875 
Q 36.328125 3.421875 31.265625 1 
Q 26.21875 -1.421875 20.015625 -1.421875 
Q 13.03125 -1.421875 8.5625 2.84375 
Q 4.109375 7.125 4.109375 13.8125 
Q 4.109375 23.390625 11.75 28.953125 
Q 19.390625 34.515625 32.8125 34.515625 
L 45.3125 34.515625 
L 45.796875 36.921875 
Q 45.90625 37.3125 45.953125 37.765625 
Q 46 38.234375 46 39.203125 
Q 46 43.5625 42.453125 45.96875 
Q 38.921875 48.390625 32.515625 48.390625 
Q 28.125 48.390625 23.5 47.265625 
Q 18.890625 46.140625 14.015625 43.890625 
L 15.578125 52.203125 
Q 20.65625 54.109375 25.515625 55.046875 
Q 30.375 56 34.90625 56 
Q 44.578125 56 49.625 51.796875 
Q 54.6875 47.609375 54.6875 39.59375 
Q 54.6875 37.984375 54.4375 35.8125 
Q 54.203125 33.640625 53.71875 31.203125 
z
M 44 27.484375 
L 35.015625 27.484375 
Q 23.96875 27.484375 18.671875 24.53125 
Q 13.375 21.578125 13.375 15.375 
Q 13.375 11.078125 16.078125 8.640625 
Q 18.796875 6.203125 23.578125 6.203125 
Q 30.90625 6.203125 36.375 11.453125 
Q 41.84375 16.703125 43.609375 25.484375 
z
" id="DejaVuSans-Oblique-97"/>
      <path d="M 59.625 54.6875 
L 50.296875 6.78125 
Q 47.609375 -7.125 40.015625 -13.953125 
Q 32.421875 -20.796875 19.578125 -20.796875 
Q 14.84375 -20.796875 10.78125 -20.09375 
Q 6.734375 -19.390625 3.21875 -17.921875 
L 4.890625 -9.1875 
Q 8.203125 -11.328125 11.90625 -12.34375 
Q 15.625 -13.375 19.828125 -13.375 
Q 28.375 -13.375 33.859375 -8.703125 
Q 39.359375 -4.046875 41.109375 4.6875 
L 41.890625 8.796875 
Q 38.140625 4.5 33.15625 2.25 
Q 28.171875 0 22.40625 0 
Q 14.109375 0 9.34375 5.484375 
Q 4.59375 10.984375 4.59375 20.609375 
Q 4.59375 28.171875 7.46875 35.421875 
Q 10.359375 42.671875 15.578125 48.296875 
Q 19.046875 52 23.65625 54 
Q 28.265625 56 33.296875 56 
Q 38.8125 56 42.90625 53.4375 
Q 47.015625 50.875 49.03125 46.1875 
L 50.59375 54.6875 
z
M 46.09375 34.625 
Q 46.09375 41.265625 42.96875 44.875 
Q 39.84375 48.484375 34.078125 48.484375 
Q 30.515625 48.484375 27.296875 47.0625 
Q 24.078125 45.65625 21.78125 43.109375 
Q 18.0625 38.921875 15.984375 33.234375 
Q 13.921875 27.546875 13.921875 21.484375 
Q 13.921875 14.75 17.0625 11.125 
Q 20.21875 7.515625 26.125 7.515625 
Q 34.671875 7.515625 40.375 15.25 
Q 46.09375 23 46.09375 34.625 
z
" id="DejaVuSans-Oblique-103"/>
      <path d="M 42.28125 54.6875 
L 40.921875 47.703125 
L 23 47.703125 
L 17.1875 18.015625 
Q 16.890625 16.359375 16.75 15.234375 
Q 16.609375 14.109375 16.609375 13.484375 
Q 16.609375 10.359375 18.484375 8.9375 
Q 20.359375 7.515625 24.515625 7.515625 
L 33.59375 7.515625 
L 32.078125 0 
L 23.484375 0 
Q 15.484375 0 11.546875 3.125 
Q 7.625 6.25 7.625 12.59375 
Q 7.625 13.71875 7.765625 15.0625 
Q 7.90625 16.40625 8.203125 18.015625 
L 14.015625 47.703125 
L 6.390625 47.703125 
L 7.8125 54.6875 
L 15.28125 54.6875 
L 18.3125 70.21875 
L 27.296875 70.21875 
L 24.3125 54.6875 
z
" id="DejaVuSans-Oblique-116"/>
     </defs>
     <g transform="translate(27.663281 391.355)rotate(-90)scale(0.25 -0.25)">
      <use transform="translate(0 0.015625)" xlink:href="#DejaVuSans-Oblique-70"/>
      <use transform="translate(57.519531 0.015625)" xlink:href="#DejaVuSans-Oblique-114"/>
      <use transform="translate(98.632812 0.015625)" xlink:href="#DejaVuSans-Oblique-101"/>
      <use transform="translate(160.15625 0.015625)" xlink:href="#DejaVuSans-Oblique-115"/>
      <use transform="translate(212.255859 0.015625)" xlink:href="#DejaVuSans-Oblique-110"/>
      <use transform="translate(275.634766 0.015625)" xlink:href="#DejaVuSans-Oblique-101"/>
      <use transform="translate(337.158203 0.015625)" xlink:href="#DejaVuSans-Oblique-108"/>
      <use transform="translate(364.941406 0.015625)" xlink:href="#DejaVuSans-Oblique-80"/>
      <use transform="translate(425.244141 0.015625)" xlink:href="#DejaVuSans-Oblique-114"/>
      <use transform="translate(466.357422 0.015625)" xlink:href="#DejaVuSans-Oblique-111"/>
      <use transform="translate(527.539062 0.015625)" xlink:href="#DejaVuSans-Oblique-112"/>
      <use transform="translate(591.015625 0.015625)" xlink:href="#DejaVuSans-Oblique-97"/>
      <use transform="translate(652.294922 0.015625)" xlink:href="#DejaVuSans-Oblique-103"/>
      <use transform="translate(715.771484 0.015625)" xlink:href="#DejaVuSans-Oblique-97"/>
      <use transform="translate(777.050781 0.015625)" xlink:href="#DejaVuSans-Oblique-116"/>
      <use transform="translate(816.259766 0.015625)" xlink:href="#DejaVuSans-Oblique-111"/>
      <use transform="translate(877.441406 0.015625)" xlink:href="#DejaVuSans-Oblique-114"/>
     </g>
    </g>
   </g>
   <g id="line2d_21">
    <path clip-path="url(#p8dc206ebcb)" d="M 113.287686 443.480296 
L 113.98267 462.130582 
L 114.330162 467.807487 
L 114.677654 470.961372 
L 115.025147 471.566142 
L 115.372639 469.629284 
L 115.720131 465.191296 
L 116.067623 458.3247 
L 116.762607 437.747158 
L 117.457591 409.055348 
L 118.500068 354.269831 
L 122.322481 135.491435 
L 123.017465 109.60827 
L 123.71245 91.704061 
L 124.059942 85.991039 
L 124.407434 82.516841 
L 124.754926 81.307674 
L 125.102418 82.363092 
L 125.44991 85.656396 
L 125.797402 91.135337 
L 126.492387 108.319524 
L 127.187371 133.030469 
L 128.229847 181.501025 
L 129.967308 279.632338 
L 131.704768 375.948452 
L 132.747245 422.226285 
L 133.442229 445.545498 
L 134.137213 461.766326 
L 134.484705 467.023842 
L 134.832197 470.318124 
L 135.17969 471.628918 
L 135.527182 470.956447 
L 135.874674 468.321092 
L 136.222166 463.762861 
L 136.91715 449.131451 
L 137.612134 427.743207 
L 138.654611 385.087794 
L 140.044579 314.848416 
L 142.824516 170.248967 
L 143.866993 128.344977 
L 144.561977 107.044142 
L 145.256961 91.878175 
L 145.604453 86.744842 
L 145.951945 83.29392 
L 146.299437 81.543323 
L 146.646929 81.495811 
L 146.994422 83.139213 
L 147.341914 86.446797 
L 148.036898 97.877767 
L 148.731882 115.304703 
L 149.426866 138.052538 
L 150.469343 180.284674 
L 152.206803 263.818463 
L 154.291756 364.526534 
L 155.334232 406.834413 
L 156.376709 439.932574 
L 157.071693 455.85482 
L 157.766677 466.378813 
L 158.114169 469.539912 
L 158.461662 471.281036 
L 158.809154 471.60094 
L 159.156646 470.508797 
L 159.504138 468.023936 
L 159.85163 464.175516 
L 160.546614 452.551309 
L 161.241599 436.049384 
L 162.284075 403.359833 
L 163.326551 363.177311 
L 165.411504 270.958111 
L 167.496457 181.44554 
L 168.538933 144.0749 
L 169.581409 114.333014 
L 170.276394 99.467611 
L 170.971378 88.921892 
L 171.666362 82.869617 
L 172.013854 81.552161 
L 172.361346 81.372659 
L 172.708839 82.321866 
L 173.056331 84.384066 
L 173.403823 87.537296 
L 174.098807 96.999377 
L 174.793791 110.418145 
L 175.836268 137.135707 
L 176.878744 170.380084 
L 178.616205 235.401327 
L 182.091126 369.36261 
L 183.481094 412.729716 
L 184.523571 438.33929 
L 185.218555 451.597207 
L 185.913539 461.582921 
L 186.608523 468.182507 
L 186.956015 470.19488 
L 187.303508 471.347609 
L 187.651 471.644548 
L 187.998492 471.093318 
L 188.345984 469.705193 
L 188.693476 467.494951 
L 189.38846 460.683868 
L 190.083445 450.842478 
L 190.778429 438.198586 
L 191.820905 414.571357 
L 193.210874 376.007966 
L 194.948334 320.352537 
L 198.770748 194.866103 
L 200.160716 156.228574 
L 201.203192 131.708862 
L 202.245669 111.672112 
L 203.288145 96.531959 
L 203.983129 89.28705 
L 204.678114 84.363528 
L 205.025606 82.773983 
L 205.373098 81.763108 
L 205.72059 81.326582 
L 206.068082 81.458382 
L 206.415574 82.150854 
L 206.763066 83.394784 
L 207.458051 87.492811 
L 208.153035 93.650432 
L 208.848019 101.745654 
L 209.890495 117.212719 
L 210.932972 136.193756 
L 212.32294 165.956714 
L 214.060401 208.251979 
L 220.315259 366.016677 
L 222.05272 401.450789 
L 223.442688 425.074 
L 224.485164 439.737992 
L 225.527641 451.658021 
L 226.570117 460.782552 
L 227.265101 465.311168 
L 227.960086 468.609362 
L 228.65507 470.698203 
L 229.002562 471.297882 
L 229.350054 471.60666 
L 229.697546 471.629264 
L 230.045038 471.370812 
L 230.39253 470.836795 
L 231.087515 468.965719 
L 231.782499 466.066404 
L 232.477483 462.193562 
L 233.51996 454.687284 
L 234.562436 445.33057 
L 235.952404 430.353146 
L 237.689865 408.351364 
L 239.774818 378.476992 
L 243.249739 324.469084 
L 247.419644 260.330242 
L 249.852089 226.169427 
L 251.937042 199.726232 
L 254.021995 176.249164 
L 255.759455 159.051883 
L 257.496916 144.004898 
L 259.234376 131.043781 
L 260.624345 122.103571 
L 262.014313 114.355258 
L 263.404282 107.715691 
L 264.79425 102.094686 
L 266.184219 97.397903 
L 267.574187 93.529324 
L 268.964156 90.393378 
L 270.354124 87.896707 
L 271.744093 85.949621 
L 273.134061 84.467269 
L 274.52403 83.370561 
L 275.913998 82.586872 
L 277.303967 82.050565 
L 279.041427 81.640021 
L 281.12638 81.402937 
L 284.253809 81.310566 
L 291.898636 81.363995 
L 294.331081 81.58457 
L 296.068541 81.948147 
L 297.45851 82.432007 
L 298.848478 83.14798 
L 300.238447 84.15989 
L 301.280923 85.15544 
L 302.323399 86.389601 
L 303.365876 87.896707 
L 304.408352 89.712855 
L 305.450828 91.875678 
L 306.840797 95.366094 
L 308.230765 99.636755 
L 309.620734 104.783698 
L 311.010702 110.902389 
L 312.400671 118.085423 
L 313.790639 126.419852 
L 315.180608 135.984119 
L 316.918068 149.768606 
L 318.655529 165.671004 
L 320.39299 183.733579 
L 322.13045 203.933602 
L 324.215403 230.845575 
L 326.647848 265.457521 
L 329.775277 313.513742 
L 334.640167 388.761451 
L 336.725119 417.531841 
L 338.46258 438.171904 
L 339.852548 451.763388 
L 340.895025 459.910169 
L 341.937501 466.066404 
L 342.632485 468.965719 
L 343.32747 470.836795 
L 343.674962 471.370812 
L 344.022454 471.629264 
L 344.369946 471.60666 
L 344.717438 471.297882 
L 345.06493 470.698203 
L 345.759914 468.609362 
L 346.454899 465.311168 
L 347.149883 460.782552 
L 347.844867 455.011115 
L 348.887343 444.019906 
L 349.92982 430.26138 
L 350.972296 413.82493 
L 352.362265 388.011325 
L 354.099725 350.259035 
L 356.184678 298.932597 
L 361.744552 158.106664 
L 363.13452 129.511361 
L 364.176997 111.639183 
L 365.219473 97.464175 
L 365.914457 90.32136 
L 366.609442 85.179473 
L 367.304426 82.150854 
L 367.651918 81.458382 
L 367.99941 81.326582 
L 368.346902 81.763108 
L 368.694394 82.773983 
L 369.041886 84.363528 
L 369.736871 89.28705 
L 370.431855 96.531959 
L 371.126839 106.065767 
L 372.169316 124.507933 
L 373.211792 147.589715 
L 374.60176 184.649576 
L 376.339221 238.598999 
L 381.204111 396.159318 
L 382.246587 423.01924 
L 383.289063 444.854999 
L 383.984048 456.128717 
L 384.679032 464.480731 
L 385.374016 469.705193 
L 385.721508 471.093318 
L 386.069 471.644548 
L 386.416492 471.347609 
L 386.763985 470.19488 
L 387.111477 468.182507 
L 387.806461 461.582921 
L 388.501445 451.597207 
L 389.196429 438.33929 
L 390.238906 412.729716 
L 391.281382 381.064389 
L 392.671351 331.541193 
L 397.53624 147.575475 
L 398.578717 118.498361 
L 399.273701 103.235573 
L 399.968685 91.753613 
L 400.663669 84.384066 
L 401.011161 82.321866 
L 401.358654 81.372659 
L 401.706146 81.552161 
L 402.053638 82.869617 
L 402.40113 85.327607 
L 403.096114 93.641291 
L 403.791098 106.375611 
L 404.486083 123.300568 
L 405.528559 155.769469 
L 406.918528 209.665758 
L 409.350972 318.111467 
L 411.088433 390.675162 
L 412.130909 426.133382 
L 412.825894 444.879093 
L 413.520878 459.002121 
L 414.215862 468.023936 
L 414.563354 470.508797 
L 414.910846 471.60094 
L 415.258338 471.281036 
L 415.605831 469.539912 
L 415.953323 466.378813 
L 416.648307 455.85482 
L 417.343291 439.932574 
L 418.038275 419.005983 
L 419.080752 379.496781 
L 420.47072 315.750199 
L 423.598149 165.284559 
L 424.640626 126.06239 
L 425.33561 105.879774 
L 426.030594 91.377748 
L 426.378086 86.446797 
L 426.725578 83.139213 
L 427.073071 81.495811 
L 427.420563 81.543323 
L 427.768055 83.29392 
L 428.115547 86.744842 
L 428.463039 91.878175 
L 429.158023 107.044142 
L 429.853007 128.344977 
L 430.895484 170.248967 
L 432.285452 239.489024 
L 435.065389 385.087794 
L 436.107866 427.743207 
L 436.80285 449.131451 
L 437.497834 463.762861 
L 437.845326 468.321092 
L 438.192818 470.956447 
L 438.54031 471.628918 
L 438.887803 470.318124 
L 439.235295 467.023842 
L 439.582787 461.766326 
L 440.277771 445.545498 
L 440.972755 422.226285 
L 442.015232 375.948452 
L 443.4052 299.909992 
L 445.837645 164.062927 
L 446.880121 119.80267 
L 447.575106 98.723092 
L 448.27009 85.656396 
L 448.617582 82.363092 
L 448.965074 81.307674 
L 449.312566 82.516841 
L 449.660058 85.991039 
L 450.00755 91.704061 
L 450.702535 109.60827 
L 451.397519 135.491435 
L 452.439995 186.691738 
L 453.829964 269.47614 
L 455.567424 373.795378 
L 456.609901 424.327015 
L 457.304885 449.132647 
L 457.999869 465.191296 
L 458.347361 469.629284 
L 458.694853 471.566142 
L 459.042346 470.961372 
L 459.389838 467.807487 
L 459.73733 462.130582 
L 460.432314 443.480296 
L 460.432314 443.480296 
" style="fill:none;stroke:#0000ff;stroke-linecap:square;stroke-width:2;"/>
   </g>
   <g id="line2d_22">
    <path clip-path="url(#p8dc206ebcb)" d="M 113.287686 377.494682 
L 114.677654 292.912224 
L 116.415115 185.463584 
L 117.457591 133.243719 
L 118.152576 107.298068 
L 118.84756 89.916832 
L 119.195052 84.693312 
L 119.542544 81.858341 
L 119.890036 81.432168 
L 120.237528 83.405093 
L 120.58502 87.738015 
L 120.932513 94.363342 
L 121.627497 114.086112 
L 122.322481 141.517487 
L 123.364957 193.974368 
L 127.187371 408.824575 
L 127.882355 436.027173 
L 128.577339 456.026372 
L 129.272323 468.033837 
L 129.619816 470.894518 
L 129.967308 471.628854 
L 130.3148 470.242902 
L 130.662292 466.765694 
L 131.009784 461.24857 
L 131.704768 444.405851 
L 132.399753 420.532166 
L 133.442229 373.998824 
L 134.832197 299.279292 
L 136.91715 185.461316 
L 137.959626 138.780903 
L 138.654611 114.315979 
L 139.349595 96.225801 
L 140.044579 85.114871 
L 140.392071 82.289058 
L 140.739563 81.307404 
L 141.087056 82.166096 
L 141.434548 84.843995 
L 141.78204 89.303115 
L 142.477024 103.332827 
L 143.172008 123.642089 
L 144.214485 164.018433 
L 145.604453 230.727889 
L 148.38439 371.287009 
L 149.426866 414.068881 
L 150.121851 436.880979 
L 150.816835 454.304923 
L 151.511819 465.853592 
L 151.859311 469.327953 
L 152.206803 471.243153 
L 152.554296 471.59583 
L 152.901788 470.395223 
L 153.24928 467.662866 
L 153.596772 463.432203 
L 154.291756 450.666304 
L 154.98674 432.582959 
L 156.029217 396.917228 
L 157.419185 337.684501 
L 161.241599 164.094457 
L 162.284075 128.175061 
L 162.979059 109.331807 
L 163.674043 95.104783 
L 164.369028 85.79814 
L 164.71652 83.046698 
L 165.064012 81.575923 
L 165.411504 81.384586 
L 165.758996 82.463027 
L 166.106488 84.793389 
L 166.45398 88.349892 
L 167.148965 99.0006 
L 167.843949 114.06395 
L 168.886425 143.917911 
L 169.928902 180.786951 
L 171.666362 251.828059 
L 174.446299 366.364197 
L 175.836268 413.140269 
L 176.878744 440.296099 
L 177.573728 453.969953 
L 178.268712 463.828737 
L 178.963697 469.738831 
L 179.311189 471.195198 
L 179.658681 471.653554 
L 180.006173 471.121194 
L 180.353665 469.610413 
L 180.701157 467.138321 
L 181.396142 459.401564 
L 182.091126 448.136293 
L 182.78611 433.63056 
L 183.828586 406.557056 
L 185.218555 362.660181 
L 187.303508 287.417681 
L 189.735952 200.195799 
L 191.125921 157.127813 
L 192.168397 130.125001 
L 193.210874 108.590168 
L 193.905858 97.565418 
L 194.600842 89.341556 
L 195.295826 83.980879 
L 195.643318 82.380963 
L 195.990811 81.499285 
L 196.338303 81.33092 
L 196.685795 81.868337 
L 197.033287 83.101494 
L 197.380779 85.017941 
L 198.075763 90.839536 
L 198.770748 99.18973 
L 199.465732 109.89425 
L 200.508208 129.919603 
L 201.898177 162.80985 
L 203.635637 210.994087 
L 209.195511 372.353699 
L 210.58548 404.905341 
L 211.975448 431.659393 
L 213.017924 447.447344 
L 214.060401 459.340293 
L 214.755385 465.054834 
L 215.450369 468.991231 
L 215.797861 470.296478 
L 216.145354 471.163953 
L 216.492846 471.598072 
L 216.840338 471.60421 
L 217.18783 471.18866 
L 217.535322 470.358588 
L 218.230306 467.487609 
L 218.92529 463.06423 
L 219.620275 457.172304 
L 220.662751 445.786962 
L 221.705227 431.654889 
L 223.095196 409.188862 
L 224.832657 376.597153 
L 227.265101 325.834152 
L 232.129991 223.224925 
L 234.214944 184.538491 
L 235.952404 156.413587 
L 237.342373 136.997754 
L 238.732341 120.497512 
L 240.12231 106.979141 
L 241.164786 98.79282 
L 242.207263 92.24858 
L 243.249739 87.298065 
L 243.944723 84.852109 
L 244.639707 83.06408 
L 245.334692 81.909527 
L 246.029676 81.362111 
L 246.377168 81.307411 
L 246.72466 81.393924 
L 247.072152 81.617964 
L 247.767136 82.463585 
L 248.462121 83.813701 
L 249.157105 85.637138 
L 250.199581 89.190721 
L 251.242058 93.631387 
L 252.632026 100.748933 
L 254.021995 109.009283 
L 255.759455 120.58486 
L 258.1919 138.367765 
L 267.226695 206.135748 
L 269.65914 221.97782 
L 271.744093 234.16142 
L 273.829045 244.917916 
L 275.566506 252.727923 
L 277.303967 259.453593 
L 278.693935 264.039218 
L 280.083904 267.911 
L 281.473872 271.065017 
L 282.516348 272.95816 
L 283.558825 274.44587 
L 284.601301 275.527921 
L 285.643778 276.20422 
L 286.338762 276.429654 
L 287.033746 276.474741 
L 287.72873 276.33948 
L 288.423715 276.023873 
L 289.118699 275.527921 
L 290.161175 274.44587 
L 291.203652 272.95816 
L 292.246128 271.065017 
L 293.288604 268.766903 
L 294.678573 265.074277 
L 296.068541 260.666619 
L 297.45851 255.549696 
L 299.19597 248.170266 
L 300.933431 239.724353 
L 302.670891 230.253375 
L 304.755844 217.620439 
L 307.188289 201.324636 
L 309.968226 181.066619 
L 319.003021 113.494018 
L 320.740482 102.716277 
L 322.13045 95.290342 
L 323.520419 89.190721 
L 324.562895 85.637138 
L 325.257879 83.813701 
L 325.952864 82.463585 
L 326.647848 81.617964 
L 326.99534 81.393924 
L 327.342832 81.307411 
L 327.690324 81.362111 
L 328.037816 81.561637 
L 328.7328 82.409225 
L 329.427785 83.877334 
L 330.122769 85.9914 
L 330.817753 88.774812 
L 331.86023 94.250178 
L 332.902706 101.337253 
L 333.945182 110.078593 
L 334.987659 120.497512 
L 336.377627 136.997754 
L 337.767596 156.413587 
L 339.505056 184.538491 
L 341.242517 216.451419 
L 343.674962 265.964615 
L 349.92982 396.664677 
L 351.319788 420.891493 
L 352.709757 441.363459 
L 353.752233 453.704441 
L 354.79471 463.06423 
L 355.489694 467.487609 
L 356.184678 470.358588 
L 356.53217 471.18866 
L 356.879662 471.60421 
L 357.227154 471.598072 
L 357.574646 471.163953 
L 357.922139 470.296478 
L 358.269631 468.991231 
L 358.964615 465.054834 
L 359.659599 459.340293 
L 360.354583 451.851122 
L 361.39706 437.344863 
L 362.439536 419.06294 
L 363.482013 397.273501 
L 364.871981 363.432317 
L 366.609442 315.169231 
L 372.169316 154.01716 
L 373.559284 122.752152 
L 374.60176 104.259683 
L 375.296745 94.708775 
L 375.991729 87.60293 
L 376.686713 83.101494 
L 377.034205 81.868337 
L 377.381697 81.33092 
L 377.729189 81.499285 
L 378.076682 82.380963 
L 378.424174 83.980879 
L 379.119158 89.341556 
L 379.814142 97.565418 
L 380.509126 108.590168 
L 381.551603 130.125001 
L 382.594079 157.127813 
L 383.984048 200.195799 
L 386.069 274.528614 
L 388.848937 374.306664 
L 390.238906 416.226506 
L 391.281382 441.268263 
L 391.976366 454.193362 
L 392.671351 463.726657 
L 393.366335 469.610413 
L 393.713827 471.121194 
L 394.061319 471.653554 
L 394.408811 471.195198 
L 394.756303 469.738831 
L 395.103795 467.282302 
L 395.79878 459.386638 
L 396.493764 447.598125 
L 397.188748 432.09431 
L 398.231225 402.47569 
L 399.273701 366.364197 
L 401.011161 296.363436 
L 404.138591 167.847527 
L 405.181067 133.087026 
L 406.223543 106.006792 
L 406.918528 93.099162 
L 407.613512 84.793389 
L 407.961004 82.463027 
L 408.308496 81.384586 
L 408.655988 81.575923 
L 409.00348 83.046698 
L 409.350972 85.79814 
L 410.045957 95.104783 
L 410.740941 109.331807 
L 411.435925 128.175061 
L 412.478401 164.094457 
L 413.86837 222.969652 
L 417.690783 396.917228 
L 418.73326 432.582959 
L 419.428244 450.666304 
L 420.123228 463.432203 
L 420.47072 467.662866 
L 420.818212 470.395223 
L 421.165704 471.59583 
L 421.513197 471.243153 
L 421.860689 469.327953 
L 422.208181 465.853592 
L 422.903165 454.304923 
L 423.598149 436.880979 
L 424.293134 414.068881 
L 425.33561 371.287009 
L 426.725578 303.164782 
L 429.505515 164.018433 
L 430.547992 123.642089 
L 431.242976 103.332827 
L 431.93796 89.303115 
L 432.285452 84.843995 
L 432.632944 82.166096 
L 432.980437 81.307404 
L 433.327929 82.289058 
L 433.675421 85.114871 
L 434.022913 89.771003 
L 434.717897 104.429812 
L 435.412881 125.800003 
L 436.455358 168.75053 
L 437.845326 240.563767 
L 440.625263 390.72346 
L 441.66774 433.285313 
L 442.362724 453.764276 
L 443.057708 466.765694 
L 443.4052 470.242902 
L 443.752692 471.628854 
L 444.100184 470.894518 
L 444.447677 468.033837 
L 444.795169 463.064152 
L 445.490153 446.98488 
L 446.185137 423.263221 
L 447.227613 375.550002 
L 448.617582 296.761963 
L 450.702535 175.255068 
L 451.745011 126.918593 
L 452.439995 103.186224 
L 453.13498 87.738015 
L 453.482472 83.405093 
L 453.829964 81.432168 
L 454.177456 81.858341 
L 454.524948 84.693312 
L 454.87244 89.916832 
L 455.567424 107.298068 
L 456.262409 133.243719 
L 457.304885 185.463584 
L 458.694853 270.614603 
L 460.432314 377.494682 
L 460.432314 377.494682 
" style="fill:none;stroke:#ff0000;stroke-linecap:square;stroke-width:2;"/>
   </g>
   <g id="patch_3">
    <path d="M 76.8375 512.64 
L 76.8375 40.32 
" style="fill:none;stroke:#000000;stroke-linecap:square;stroke-linejoin:miter;stroke-width:0.8;"/>
   </g>
   <g id="patch_4">
    <path d="M 496.8825 512.64 
L 496.8825 40.32 
" style="fill:none;stroke:#000000;stroke-linecap:square;stroke-linejoin:miter;stroke-width:0.8;"/>
   </g>
   <g id="patch_5">
    <path d="M 76.8375 512.64 
L 496.8825 512.64 
" style="fill:none;stroke:#000000;stroke-linecap:square;stroke-linejoin:miter;stroke-width:0.8;"/>
   </g>
   <g id="patch_6">
    <path d="M 76.8375 40.32 
L 496.8825 40.32 
" style="fill:none;stroke:#000000;stroke-linecap:square;stroke-linejoin:miter;stroke-width:0.8;"/>
   </g>
   <g id="legend_1">
    <g id="patch_7">
     <path d="M 245.66 502.64 
L 328.06 502.64 
Q 332.06 502.64 332.06 498.64 
L 332.06 441.9275 
Q 332.06 437.9275 328.06 437.9275 
L 245.66 437.9275 
Q 241.66 437.9275 241.66 441.9275 
L 241.66 498.64 
Q 241.66 502.64 245.66 502.64 
z
" style="fill:#ffffff;opacity:0.8;stroke:#cccccc;stroke-linejoin:miter;"/>
    </g>
    <g id="line2d_23">
     <path d="M 249.66 454.124375 
L 289.66 454.124375 
" style="fill:none;stroke:#0000ff;stroke-linecap:square;stroke-width:2;"/>
    </g>
    <g id="line2d_24"/>
    <g id="text_13">
     <!-- $P_r$ -->
     <g transform="translate(305.66 461.124375)scale(0.2 -0.2)">
      <use transform="translate(0 0.09375)" xlink:href="#DejaVuSans-Oblique-80"/>
      <use transform="translate(60.302734 -16.3125)scale(0.7)" xlink:href="#DejaVuSans-Oblique-114"/>
     </g>
    </g>
    <g id="line2d_25">
     <path d="M 249.66 483.480625 
L 289.66 483.480625 
" style="fill:none;stroke:#ff0000;stroke-linecap:square;stroke-width:2;"/>
    </g>
    <g id="line2d_26"/>
    <g id="text_14">
     <!-- $P_i$ -->
     <defs>
      <path d="M 18.3125 75.984375 
L 27.296875 75.984375 
L 25.09375 64.59375 
L 16.109375 64.59375 
z
M 14.203125 54.6875 
L 23.1875 54.6875 
L 12.5 0 
L 3.515625 0 
z
" id="DejaVuSans-Oblique-105"/>
     </defs>
     <g transform="translate(305.66 490.480625)scale(0.2 -0.2)">
      <use transform="translate(0 0.09375)" xlink:href="#DejaVuSans-Oblique-80"/>
      <use transform="translate(60.302734 -16.3125)scale(0.7)" xlink:href="#DejaVuSans-Oblique-105"/>
     </g>
    </g>
   </g>
  </g>
 </g>
 <defs>
  <clipPath id="p8dc206ebcb">
   <rect height="472.32" width="420.045" x="76.8375" y="40.32"/>
  </clipPath>
 </defs>
</svg>
