<?xml version="1.0" encoding="utf-8" standalone="no"?>
<!DOCTYPE svg PUBLIC "-//W3C//DTD SVG 1.1//EN"
  "http://www.w3.org/Graphics/SVG/1.1/DTD/svg11.dtd">
<!-- Created with matplotlib (https://matplotlib.org/) -->
<svg height="576pt" version="1.1" viewBox="0 0 512.25 576" width="512.25pt" xmlns="http://www.w3.org/2000/svg" xmlns:xlink="http://www.w3.org/1999/xlink">
 <defs>
  <style type="text/css">
*{stroke-linecap:butt;stroke-linejoin:round;}
  </style>
 </defs>
 <g id="figure_1">
  <g id="patch_1">
   <path d="M 0 576 
L 512.25 576 
L 512.25 0 
L 0 0 
z
" style="fill:#ffffff;"/>
  </g>
  <g id="axes_1">
   <g id="patch_2">
    <path d="M 76.8375 512.64 
L 496.8825 512.64 
L 496.8825 40.32 
L 76.8375 40.32 
z
" style="fill:#ffffff;"/>
   </g>
   <g id="matplotlib.axis_1">
    <g id="xtick_1">
     <g id="line2d_1">
      <path clip-path="url(#p48138847eb)" d="M 76.8375 512.64 
L 76.8375 40.32 
" style="fill:none;stroke:#e6e6e6;stroke-linecap:square;stroke-width:0.8;"/>
     </g>
     <g id="line2d_2">
      <defs>
       <path d="M 0 0 
L 0 3.5 
" id="m20e2c8fd31" style="stroke:#000000;stroke-width:0.8;"/>
      </defs>
      <g>
       <use style="stroke:#000000;stroke-width:0.8;" x="76.8375" xlink:href="#m20e2c8fd31" y="512.64"/>
      </g>
     </g>
     <g id="text_1">
      <!-- 0 -->
      <defs>
       <path d="M 31.78125 66.40625 
Q 24.171875 66.40625 20.328125 58.90625 
Q 16.5 51.421875 16.5 36.375 
Q 16.5 21.390625 20.328125 13.890625 
Q 24.171875 6.390625 31.78125 6.390625 
Q 39.453125 6.390625 43.28125 13.890625 
Q 47.125 21.390625 47.125 36.375 
Q 47.125 51.421875 43.28125 58.90625 
Q 39.453125 66.40625 31.78125 66.40625 
z
M 31.78125 74.21875 
Q 44.046875 74.21875 50.515625 64.515625 
Q 56.984375 54.828125 56.984375 36.375 
Q 56.984375 17.96875 50.515625 8.265625 
Q 44.046875 -1.421875 31.78125 -1.421875 
Q 19.53125 -1.421875 13.0625 8.265625 
Q 6.59375 17.96875 6.59375 36.375 
Q 6.59375 54.828125 13.0625 64.515625 
Q 19.53125 74.21875 31.78125 74.21875 
z
" id="DejaVuSans-48"/>
      </defs>
      <g transform="translate(72.065625 531.037656)scale(0.15 -0.15)">
       <use xlink:href="#DejaVuSans-48"/>
      </g>
     </g>
    </g>
    <g id="xtick_2">
     <g id="line2d_3">
      <path clip-path="url(#p48138847eb)" d="M 135.965456 512.64 
L 135.965456 40.32 
" style="fill:none;stroke:#e6e6e6;stroke-linecap:square;stroke-width:0.8;"/>
     </g>
     <g id="line2d_4">
      <g>
       <use style="stroke:#000000;stroke-width:0.8;" x="135.965456" xlink:href="#m20e2c8fd31" y="512.64"/>
      </g>
     </g>
     <g id="text_2">
      <!-- 500 -->
      <defs>
       <path d="M 10.796875 72.90625 
L 49.515625 72.90625 
L 49.515625 64.59375 
L 19.828125 64.59375 
L 19.828125 46.734375 
Q 21.96875 47.46875 24.109375 47.828125 
Q 26.265625 48.1875 28.421875 48.1875 
Q 40.625 48.1875 47.75 41.5 
Q 54.890625 34.8125 54.890625 23.390625 
Q 54.890625 11.625 47.5625 5.09375 
Q 40.234375 -1.421875 26.90625 -1.421875 
Q 22.3125 -1.421875 17.546875 -0.640625 
Q 12.796875 0.140625 7.71875 1.703125 
L 7.71875 11.625 
Q 12.109375 9.234375 16.796875 8.0625 
Q 21.484375 6.890625 26.703125 6.890625 
Q 35.15625 6.890625 40.078125 11.328125 
Q 45.015625 15.765625 45.015625 23.390625 
Q 45.015625 31 40.078125 35.4375 
Q 35.15625 39.890625 26.703125 39.890625 
Q 22.75 39.890625 18.8125 39.015625 
Q 14.890625 38.140625 10.796875 36.28125 
z
" id="DejaVuSans-53"/>
      </defs>
      <g transform="translate(121.649831 531.037656)scale(0.15 -0.15)">
       <use xlink:href="#DejaVuSans-53"/>
       <use x="63.623047" xlink:href="#DejaVuSans-48"/>
       <use x="127.246094" xlink:href="#DejaVuSans-48"/>
      </g>
     </g>
    </g>
    <g id="xtick_3">
     <g id="line2d_5">
      <path clip-path="url(#p48138847eb)" d="M 195.093412 512.64 
L 195.093412 40.32 
" style="fill:none;stroke:#e6e6e6;stroke-linecap:square;stroke-width:0.8;"/>
     </g>
     <g id="line2d_6">
      <g>
       <use style="stroke:#000000;stroke-width:0.8;" x="195.093412" xlink:href="#m20e2c8fd31" y="512.64"/>
      </g>
     </g>
     <g id="text_3">
      <!-- 1000 -->
      <defs>
       <path d="M 12.40625 8.296875 
L 28.515625 8.296875 
L 28.515625 63.921875 
L 10.984375 60.40625 
L 10.984375 69.390625 
L 28.421875 72.90625 
L 38.28125 72.90625 
L 38.28125 8.296875 
L 54.390625 8.296875 
L 54.390625 0 
L 12.40625 0 
z
" id="DejaVuSans-49"/>
      </defs>
      <g transform="translate(176.005912 531.037656)scale(0.15 -0.15)">
       <use xlink:href="#DejaVuSans-49"/>
       <use x="63.623047" xlink:href="#DejaVuSans-48"/>
       <use x="127.246094" xlink:href="#DejaVuSans-48"/>
       <use x="190.869141" xlink:href="#DejaVuSans-48"/>
      </g>
     </g>
    </g>
    <g id="xtick_4">
     <g id="line2d_7">
      <path clip-path="url(#p48138847eb)" d="M 254.221368 512.64 
L 254.221368 40.32 
" style="fill:none;stroke:#e6e6e6;stroke-linecap:square;stroke-width:0.8;"/>
     </g>
     <g id="line2d_8">
      <g>
       <use style="stroke:#000000;stroke-width:0.8;" x="254.221368" xlink:href="#m20e2c8fd31" y="512.64"/>
      </g>
     </g>
     <g id="text_4">
      <!-- 1500 -->
      <g transform="translate(235.133868 531.037656)scale(0.15 -0.15)">
       <use xlink:href="#DejaVuSans-49"/>
       <use x="63.623047" xlink:href="#DejaVuSans-53"/>
       <use x="127.246094" xlink:href="#DejaVuSans-48"/>
       <use x="190.869141" xlink:href="#DejaVuSans-48"/>
      </g>
     </g>
    </g>
    <g id="xtick_5">
     <g id="line2d_9">
      <path clip-path="url(#p48138847eb)" d="M 313.349324 512.64 
L 313.349324 40.32 
" style="fill:none;stroke:#e6e6e6;stroke-linecap:square;stroke-width:0.8;"/>
     </g>
     <g id="line2d_10">
      <g>
       <use style="stroke:#000000;stroke-width:0.8;" x="313.349324" xlink:href="#m20e2c8fd31" y="512.64"/>
      </g>
     </g>
     <g id="text_5">
      <!-- 2000 -->
      <defs>
       <path d="M 19.1875 8.296875 
L 53.609375 8.296875 
L 53.609375 0 
L 7.328125 0 
L 7.328125 8.296875 
Q 12.9375 14.109375 22.625 23.890625 
Q 32.328125 33.6875 34.8125 36.53125 
Q 39.546875 41.84375 41.421875 45.53125 
Q 43.3125 49.21875 43.3125 52.78125 
Q 43.3125 58.59375 39.234375 62.25 
Q 35.15625 65.921875 28.609375 65.921875 
Q 23.96875 65.921875 18.8125 64.3125 
Q 13.671875 62.703125 7.8125 59.421875 
L 7.8125 69.390625 
Q 13.765625 71.78125 18.9375 73 
Q 24.125 74.21875 28.421875 74.21875 
Q 39.75 74.21875 46.484375 68.546875 
Q 53.21875 62.890625 53.21875 53.421875 
Q 53.21875 48.921875 51.53125 44.890625 
Q 49.859375 40.875 45.40625 35.40625 
Q 44.1875 33.984375 37.640625 27.21875 
Q 31.109375 20.453125 19.1875 8.296875 
z
" id="DejaVuSans-50"/>
      </defs>
      <g transform="translate(294.261824 531.037656)scale(0.15 -0.15)">
       <use xlink:href="#DejaVuSans-50"/>
       <use x="63.623047" xlink:href="#DejaVuSans-48"/>
       <use x="127.246094" xlink:href="#DejaVuSans-48"/>
       <use x="190.869141" xlink:href="#DejaVuSans-48"/>
      </g>
     </g>
    </g>
    <g id="xtick_6">
     <g id="line2d_11">
      <path clip-path="url(#p48138847eb)" d="M 372.47728 512.64 
L 372.47728 40.32 
" style="fill:none;stroke:#e6e6e6;stroke-linecap:square;stroke-width:0.8;"/>
     </g>
     <g id="line2d_12">
      <g>
       <use style="stroke:#000000;stroke-width:0.8;" x="372.47728" xlink:href="#m20e2c8fd31" y="512.64"/>
      </g>
     </g>
     <g id="text_6">
      <!-- 2500 -->
      <g transform="translate(353.38978 531.037656)scale(0.15 -0.15)">
       <use xlink:href="#DejaVuSans-50"/>
       <use x="63.623047" xlink:href="#DejaVuSans-53"/>
       <use x="127.246094" xlink:href="#DejaVuSans-48"/>
       <use x="190.869141" xlink:href="#DejaVuSans-48"/>
      </g>
     </g>
    </g>
    <g id="xtick_7">
     <g id="line2d_13">
      <path clip-path="url(#p48138847eb)" d="M 431.605236 512.64 
L 431.605236 40.32 
" style="fill:none;stroke:#e6e6e6;stroke-linecap:square;stroke-width:0.8;"/>
     </g>
     <g id="line2d_14">
      <g>
       <use style="stroke:#000000;stroke-width:0.8;" x="431.605236" xlink:href="#m20e2c8fd31" y="512.64"/>
      </g>
     </g>
     <g id="text_7">
      <!-- 3000 -->
      <defs>
       <path d="M 40.578125 39.3125 
Q 47.65625 37.796875 51.625 33 
Q 55.609375 28.21875 55.609375 21.1875 
Q 55.609375 10.40625 48.1875 4.484375 
Q 40.765625 -1.421875 27.09375 -1.421875 
Q 22.515625 -1.421875 17.65625 -0.515625 
Q 12.796875 0.390625 7.625 2.203125 
L 7.625 11.71875 
Q 11.71875 9.328125 16.59375 8.109375 
Q 21.484375 6.890625 26.8125 6.890625 
Q 36.078125 6.890625 40.9375 10.546875 
Q 45.796875 14.203125 45.796875 21.1875 
Q 45.796875 27.640625 41.28125 31.265625 
Q 36.765625 34.90625 28.71875 34.90625 
L 20.21875 34.90625 
L 20.21875 43.015625 
L 29.109375 43.015625 
Q 36.375 43.015625 40.234375 45.921875 
Q 44.09375 48.828125 44.09375 54.296875 
Q 44.09375 59.90625 40.109375 62.90625 
Q 36.140625 65.921875 28.71875 65.921875 
Q 24.65625 65.921875 20.015625 65.03125 
Q 15.375 64.15625 9.8125 62.3125 
L 9.8125 71.09375 
Q 15.4375 72.65625 20.34375 73.4375 
Q 25.25 74.21875 29.59375 74.21875 
Q 40.828125 74.21875 47.359375 69.109375 
Q 53.90625 64.015625 53.90625 55.328125 
Q 53.90625 49.265625 50.4375 45.09375 
Q 46.96875 40.921875 40.578125 39.3125 
z
" id="DejaVuSans-51"/>
      </defs>
      <g transform="translate(412.517736 531.037656)scale(0.15 -0.15)">
       <use xlink:href="#DejaVuSans-51"/>
       <use x="63.623047" xlink:href="#DejaVuSans-48"/>
       <use x="127.246094" xlink:href="#DejaVuSans-48"/>
       <use x="190.869141" xlink:href="#DejaVuSans-48"/>
      </g>
     </g>
    </g>
    <g id="xtick_8">
     <g id="line2d_15">
      <path clip-path="url(#p48138847eb)" d="M 490.733193 512.64 
L 490.733193 40.32 
" style="fill:none;stroke:#e6e6e6;stroke-linecap:square;stroke-width:0.8;"/>
     </g>
     <g id="line2d_16">
      <g>
       <use style="stroke:#000000;stroke-width:0.8;" x="490.733193" xlink:href="#m20e2c8fd31" y="512.64"/>
      </g>
     </g>
     <g id="text_8">
      <!-- 3500 -->
      <g transform="translate(471.645693 531.037656)scale(0.15 -0.15)">
       <use xlink:href="#DejaVuSans-51"/>
       <use x="63.623047" xlink:href="#DejaVuSans-53"/>
       <use x="127.246094" xlink:href="#DejaVuSans-48"/>
       <use x="190.869141" xlink:href="#DejaVuSans-48"/>
      </g>
     </g>
    </g>
    <g id="text_9">
     <!-- $thickness$ ($A$) -->
     <defs>
      <path d="M 42.28125 54.6875 
L 40.921875 47.703125 
L 23 47.703125 
L 17.1875 18.015625 
Q 16.890625 16.359375 16.75 15.234375 
Q 16.609375 14.109375 16.609375 13.484375 
Q 16.609375 10.359375 18.484375 8.9375 
Q 20.359375 7.515625 24.515625 7.515625 
L 33.59375 7.515625 
L 32.078125 0 
L 23.484375 0 
Q 15.484375 0 11.546875 3.125 
Q 7.625 6.25 7.625 12.59375 
Q 7.625 13.71875 7.765625 15.0625 
Q 7.90625 16.40625 8.203125 18.015625 
L 14.015625 47.703125 
L 6.390625 47.703125 
L 7.8125 54.6875 
L 15.28125 54.6875 
L 18.3125 70.21875 
L 27.296875 70.21875 
L 24.3125 54.6875 
z
" id="DejaVuSans-Oblique-116"/>
      <path d="M 55.71875 33.015625 
L 49.3125 0 
L 40.28125 0 
L 46.6875 32.671875 
Q 47.125 34.96875 47.359375 36.71875 
Q 47.609375 38.484375 47.609375 39.5 
Q 47.609375 43.609375 45.015625 45.890625 
Q 42.4375 48.1875 37.796875 48.1875 
Q 30.5625 48.1875 25.265625 43.296875 
Q 19.96875 38.421875 18.40625 30.328125 
L 12.5 0 
L 3.515625 0 
L 18.3125 75.984375 
L 27.296875 75.984375 
L 21.484375 46.09375 
Q 24.90625 50.6875 30.21875 53.34375 
Q 35.546875 56 41.40625 56 
Q 48.640625 56 52.609375 52.09375 
Q 56.59375 48.1875 56.59375 41.109375 
Q 56.59375 39.359375 56.375 37.359375 
Q 56.15625 35.359375 55.71875 33.015625 
z
" id="DejaVuSans-Oblique-104"/>
      <path d="M 18.3125 75.984375 
L 27.296875 75.984375 
L 25.09375 64.59375 
L 16.109375 64.59375 
z
M 14.203125 54.6875 
L 23.1875 54.6875 
L 12.5 0 
L 3.515625 0 
z
" id="DejaVuSans-Oblique-105"/>
      <path d="M 53.609375 52.59375 
L 51.8125 43.703125 
Q 48.578125 46.046875 44.9375 47.21875 
Q 41.3125 48.390625 37.40625 48.390625 
Q 33.109375 48.390625 29.21875 46.875 
Q 25.34375 45.359375 22.703125 42.578125 
Q 18.5 38.328125 16.203125 32.609375 
Q 13.921875 26.90625 13.921875 20.796875 
Q 13.921875 13.421875 17.609375 9.8125 
Q 21.296875 6.203125 28.8125 6.203125 
Q 32.515625 6.203125 36.6875 7.328125 
Q 40.875 8.453125 45.40625 10.6875 
L 43.703125 1.8125 
Q 39.796875 0.203125 35.671875 -0.609375 
Q 31.546875 -1.421875 27.203125 -1.421875 
Q 16.3125 -1.421875 10.453125 4.015625 
Q 4.59375 9.46875 4.59375 19.578125 
Q 4.59375 28.078125 7.640625 35.234375 
Q 10.6875 42.390625 16.703125 48.09375 
Q 20.796875 52 26.3125 54 
Q 31.84375 56 38.375 56 
Q 42.1875 56 45.9375 55.140625 
Q 49.703125 54.296875 53.609375 52.59375 
z
" id="DejaVuSans-Oblique-99"/>
      <path d="M 18.3125 75.984375 
L 27.296875 75.984375 
L 18.703125 31.6875 
L 49.515625 54.6875 
L 61.1875 54.6875 
L 26.8125 28.515625 
L 51.90625 0 
L 41.015625 0 
L 17.671875 26.703125 
L 12.5 0 
L 3.515625 0 
z
" id="DejaVuSans-Oblique-107"/>
      <path d="M 55.71875 33.015625 
L 49.3125 0 
L 40.28125 0 
L 46.6875 32.671875 
Q 47.125 34.96875 47.359375 36.71875 
Q 47.609375 38.484375 47.609375 39.5 
Q 47.609375 43.609375 45.015625 45.890625 
Q 42.4375 48.1875 37.796875 48.1875 
Q 30.5625 48.1875 25.34375 43.375 
Q 20.125 38.578125 18.5 30.328125 
L 12.5 0 
L 3.515625 0 
L 14.109375 54.6875 
L 23.09375 54.6875 
L 21.296875 46.09375 
Q 25.046875 50.828125 30.3125 53.40625 
Q 35.59375 56 41.40625 56 
Q 48.640625 56 52.609375 52.09375 
Q 56.59375 48.1875 56.59375 41.109375 
Q 56.59375 39.359375 56.375 37.359375 
Q 56.15625 35.359375 55.71875 33.015625 
z
" id="DejaVuSans-Oblique-110"/>
      <path d="M 48.09375 32.234375 
Q 48.25 33.015625 48.3125 33.84375 
Q 48.390625 34.671875 48.390625 35.5 
Q 48.390625 41.453125 44.890625 44.921875 
Q 41.40625 48.390625 35.40625 48.390625 
Q 28.71875 48.390625 23.578125 44.15625 
Q 18.453125 39.9375 15.828125 32.171875 
z
M 55.90625 25.203125 
L 14.109375 25.203125 
Q 13.8125 23.34375 13.71875 22.265625 
Q 13.625 21.1875 13.625 20.40625 
Q 13.625 13.625 17.796875 9.90625 
Q 21.96875 6.203125 29.59375 6.203125 
Q 35.453125 6.203125 40.671875 7.515625 
Q 45.90625 8.84375 50.390625 11.375 
L 48.6875 2.484375 
Q 43.84375 0.53125 38.6875 -0.4375 
Q 33.546875 -1.421875 28.21875 -1.421875 
Q 16.84375 -1.421875 10.71875 4.015625 
Q 4.59375 9.46875 4.59375 19.484375 
Q 4.59375 28.03125 7.640625 35.375 
Q 10.6875 42.71875 16.609375 48.484375 
Q 20.40625 52.09375 25.65625 54.046875 
Q 30.90625 56 36.8125 56 
Q 46.09375 56 51.578125 50.4375 
Q 57.078125 44.875 57.078125 35.5 
Q 57.078125 33.25 56.78125 30.6875 
Q 56.5 28.125 55.90625 25.203125 
z
" id="DejaVuSans-Oblique-101"/>
      <path d="M 50 53.078125 
L 48.296875 44.578125 
Q 44.734375 46.53125 40.765625 47.5 
Q 36.8125 48.484375 32.625 48.484375 
Q 25.53125 48.484375 21.453125 46.0625 
Q 17.390625 43.65625 17.390625 39.5 
Q 17.390625 34.671875 26.859375 32.078125 
Q 27.59375 31.890625 27.9375 31.78125 
L 30.8125 30.90625 
Q 39.796875 28.421875 42.796875 25.6875 
Q 45.796875 22.953125 45.796875 18.21875 
Q 45.796875 9.515625 38.890625 4.046875 
Q 31.984375 -1.421875 20.796875 -1.421875 
Q 16.453125 -1.421875 11.671875 -0.578125 
Q 6.890625 0.25 1.125 2 
L 2.875 11.28125 
Q 7.8125 8.734375 12.59375 7.421875 
Q 17.390625 6.109375 21.78125 6.109375 
Q 28.375 6.109375 32.5 8.9375 
Q 36.625 11.765625 36.625 16.109375 
Q 36.625 20.796875 25.78125 23.6875 
L 24.859375 23.921875 
L 21.78125 24.703125 
Q 14.9375 26.515625 11.765625 29.46875 
Q 8.59375 32.421875 8.59375 37.015625 
Q 8.59375 45.75 15.15625 50.875 
Q 21.734375 56 33.015625 56 
Q 37.453125 56 41.671875 55.265625 
Q 45.90625 54.546875 50 53.078125 
z
" id="DejaVuSans-Oblique-115"/>
      <path id="DejaVuSans-32"/>
      <path d="M 31 75.875 
Q 24.46875 64.65625 21.28125 53.65625 
Q 18.109375 42.671875 18.109375 31.390625 
Q 18.109375 20.125 21.3125 9.0625 
Q 24.515625 -2 31 -13.1875 
L 23.1875 -13.1875 
Q 15.875 -1.703125 12.234375 9.375 
Q 8.59375 20.453125 8.59375 31.390625 
Q 8.59375 42.28125 12.203125 53.3125 
Q 15.828125 64.359375 23.1875 75.875 
z
" id="DejaVuSans-40"/>
      <path d="M 36.8125 72.90625 
L 48 72.90625 
L 61.53125 0 
L 51.21875 0 
L 48.1875 18.703125 
L 15.375 18.703125 
L 5.078125 0 
L -5.328125 0 
z
M 40.375 63.1875 
L 19.921875 26.90625 
L 46.6875 26.90625 
z
" id="DejaVuSans-Oblique-65"/>
      <path d="M 8.015625 75.875 
L 15.828125 75.875 
Q 23.140625 64.359375 26.78125 53.3125 
Q 30.421875 42.28125 30.421875 31.390625 
Q 30.421875 20.453125 26.78125 9.375 
Q 23.140625 -1.703125 15.828125 -13.1875 
L 8.015625 -13.1875 
Q 14.5 -2 17.703125 9.0625 
Q 20.90625 20.125 20.90625 31.390625 
Q 20.90625 42.671875 17.703125 53.65625 
Q 14.5 64.65625 8.015625 75.875 
z
" id="DejaVuSans-41"/>
     </defs>
     <g transform="translate(189.21 560.9525)scale(0.3 -0.3)">
      <use transform="translate(0 0.015625)" xlink:href="#DejaVuSans-Oblique-116"/>
      <use transform="translate(39.208984 0.015625)" xlink:href="#DejaVuSans-Oblique-104"/>
      <use transform="translate(102.587891 0.015625)" xlink:href="#DejaVuSans-Oblique-105"/>
      <use transform="translate(130.371094 0.015625)" xlink:href="#DejaVuSans-Oblique-99"/>
      <use transform="translate(185.351562 0.015625)" xlink:href="#DejaVuSans-Oblique-107"/>
      <use transform="translate(243.261719 0.015625)" xlink:href="#DejaVuSans-Oblique-110"/>
      <use transform="translate(306.640625 0.015625)" xlink:href="#DejaVuSans-Oblique-101"/>
      <use transform="translate(368.164062 0.015625)" xlink:href="#DejaVuSans-Oblique-115"/>
      <use transform="translate(420.263672 0.015625)" xlink:href="#DejaVuSans-Oblique-115"/>
      <use transform="translate(472.363281 0.015625)" xlink:href="#DejaVuSans-32"/>
      <use transform="translate(504.150391 0.015625)" xlink:href="#DejaVuSans-40"/>
      <use transform="translate(543.164062 0.015625)" xlink:href="#DejaVuSans-Oblique-65"/>
      <use transform="translate(611.572266 0.015625)" xlink:href="#DejaVuSans-41"/>
     </g>
    </g>
   </g>
   <g id="matplotlib.axis_2">
    <g id="ytick_1">
     <g id="line2d_17">
      <path clip-path="url(#p48138847eb)" d="M 76.8375 512.64 
L 496.8825 512.64 
" style="fill:none;stroke:#e6e6e6;stroke-linecap:square;stroke-width:0.8;"/>
     </g>
     <g id="line2d_18">
      <defs>
       <path d="M 0 0 
L -3.5 0 
" id="maf2e60086c" style="stroke:#000000;stroke-width:0.8;"/>
      </defs>
      <g>
       <use style="stroke:#000000;stroke-width:0.8;" x="76.8375" xlink:href="#maf2e60086c" y="512.64"/>
      </g>
     </g>
     <g id="text_10">
      <!-- 0.00 -->
      <defs>
       <path d="M 10.6875 12.40625 
L 21 12.40625 
L 21 0 
L 10.6875 0 
z
" id="DejaVuSans-46"/>
      </defs>
      <g transform="translate(36.439062 518.338828)scale(0.15 -0.15)">
       <use xlink:href="#DejaVuSans-48"/>
       <use x="63.623047" xlink:href="#DejaVuSans-46"/>
       <use x="95.410156" xlink:href="#DejaVuSans-48"/>
       <use x="159.033203" xlink:href="#DejaVuSans-48"/>
      </g>
     </g>
    </g>
    <g id="ytick_2">
     <g id="line2d_19">
      <path clip-path="url(#p48138847eb)" d="M 76.8375 419.395706 
L 496.8825 419.395706 
" style="fill:none;stroke:#e6e6e6;stroke-linecap:square;stroke-width:0.8;"/>
     </g>
     <g id="line2d_20">
      <g>
       <use style="stroke:#000000;stroke-width:0.8;" x="76.8375" xlink:href="#maf2e60086c" y="419.395706"/>
      </g>
     </g>
     <g id="text_11">
      <!-- 0.02 -->
      <g transform="translate(36.439062 425.094534)scale(0.15 -0.15)">
       <use xlink:href="#DejaVuSans-48"/>
       <use x="63.623047" xlink:href="#DejaVuSans-46"/>
       <use x="95.410156" xlink:href="#DejaVuSans-48"/>
       <use x="159.033203" xlink:href="#DejaVuSans-50"/>
      </g>
     </g>
    </g>
    <g id="ytick_3">
     <g id="line2d_21">
      <path clip-path="url(#p48138847eb)" d="M 76.8375 326.151412 
L 496.8825 326.151412 
" style="fill:none;stroke:#e6e6e6;stroke-linecap:square;stroke-width:0.8;"/>
     </g>
     <g id="line2d_22">
      <g>
       <use style="stroke:#000000;stroke-width:0.8;" x="76.8375" xlink:href="#maf2e60086c" y="326.151412"/>
      </g>
     </g>
     <g id="text_12">
      <!-- 0.04 -->
      <defs>
       <path d="M 37.796875 64.3125 
L 12.890625 25.390625 
L 37.796875 25.390625 
z
M 35.203125 72.90625 
L 47.609375 72.90625 
L 47.609375 25.390625 
L 58.015625 25.390625 
L 58.015625 17.1875 
L 47.609375 17.1875 
L 47.609375 0 
L 37.796875 0 
L 37.796875 17.1875 
L 4.890625 17.1875 
L 4.890625 26.703125 
z
" id="DejaVuSans-52"/>
      </defs>
      <g transform="translate(36.439062 331.85024)scale(0.15 -0.15)">
       <use xlink:href="#DejaVuSans-48"/>
       <use x="63.623047" xlink:href="#DejaVuSans-46"/>
       <use x="95.410156" xlink:href="#DejaVuSans-48"/>
       <use x="159.033203" xlink:href="#DejaVuSans-52"/>
      </g>
     </g>
    </g>
    <g id="ytick_4">
     <g id="line2d_23">
      <path clip-path="url(#p48138847eb)" d="M 76.8375 232.907118 
L 496.8825 232.907118 
" style="fill:none;stroke:#e6e6e6;stroke-linecap:square;stroke-width:0.8;"/>
     </g>
     <g id="line2d_24">
      <g>
       <use style="stroke:#000000;stroke-width:0.8;" x="76.8375" xlink:href="#maf2e60086c" y="232.907118"/>
      </g>
     </g>
     <g id="text_13">
      <!-- 0.06 -->
      <defs>
       <path d="M 33.015625 40.375 
Q 26.375 40.375 22.484375 35.828125 
Q 18.609375 31.296875 18.609375 23.390625 
Q 18.609375 15.53125 22.484375 10.953125 
Q 26.375 6.390625 33.015625 6.390625 
Q 39.65625 6.390625 43.53125 10.953125 
Q 47.40625 15.53125 47.40625 23.390625 
Q 47.40625 31.296875 43.53125 35.828125 
Q 39.65625 40.375 33.015625 40.375 
z
M 52.59375 71.296875 
L 52.59375 62.3125 
Q 48.875 64.0625 45.09375 64.984375 
Q 41.3125 65.921875 37.59375 65.921875 
Q 27.828125 65.921875 22.671875 59.328125 
Q 17.53125 52.734375 16.796875 39.40625 
Q 19.671875 43.65625 24.015625 45.921875 
Q 28.375 48.1875 33.59375 48.1875 
Q 44.578125 48.1875 50.953125 41.515625 
Q 57.328125 34.859375 57.328125 23.390625 
Q 57.328125 12.15625 50.6875 5.359375 
Q 44.046875 -1.421875 33.015625 -1.421875 
Q 20.359375 -1.421875 13.671875 8.265625 
Q 6.984375 17.96875 6.984375 36.375 
Q 6.984375 53.65625 15.1875 63.9375 
Q 23.390625 74.21875 37.203125 74.21875 
Q 40.921875 74.21875 44.703125 73.484375 
Q 48.484375 72.75 52.59375 71.296875 
z
" id="DejaVuSans-54"/>
      </defs>
      <g transform="translate(36.439062 238.605946)scale(0.15 -0.15)">
       <use xlink:href="#DejaVuSans-48"/>
       <use x="63.623047" xlink:href="#DejaVuSans-46"/>
       <use x="95.410156" xlink:href="#DejaVuSans-48"/>
       <use x="159.033203" xlink:href="#DejaVuSans-54"/>
      </g>
     </g>
    </g>
    <g id="ytick_5">
     <g id="line2d_25">
      <path clip-path="url(#p48138847eb)" d="M 76.8375 139.662824 
L 496.8825 139.662824 
" style="fill:none;stroke:#e6e6e6;stroke-linecap:square;stroke-width:0.8;"/>
     </g>
     <g id="line2d_26">
      <g>
       <use style="stroke:#000000;stroke-width:0.8;" x="76.8375" xlink:href="#maf2e60086c" y="139.662824"/>
      </g>
     </g>
     <g id="text_14">
      <!-- 0.08 -->
      <defs>
       <path d="M 31.78125 34.625 
Q 24.75 34.625 20.71875 30.859375 
Q 16.703125 27.09375 16.703125 20.515625 
Q 16.703125 13.921875 20.71875 10.15625 
Q 24.75 6.390625 31.78125 6.390625 
Q 38.8125 6.390625 42.859375 10.171875 
Q 46.921875 13.96875 46.921875 20.515625 
Q 46.921875 27.09375 42.890625 30.859375 
Q 38.875 34.625 31.78125 34.625 
z
M 21.921875 38.8125 
Q 15.578125 40.375 12.03125 44.71875 
Q 8.5 49.078125 8.5 55.328125 
Q 8.5 64.0625 14.71875 69.140625 
Q 20.953125 74.21875 31.78125 74.21875 
Q 42.671875 74.21875 48.875 69.140625 
Q 55.078125 64.0625 55.078125 55.328125 
Q 55.078125 49.078125 51.53125 44.71875 
Q 48 40.375 41.703125 38.8125 
Q 48.828125 37.15625 52.796875 32.3125 
Q 56.78125 27.484375 56.78125 20.515625 
Q 56.78125 9.90625 50.3125 4.234375 
Q 43.84375 -1.421875 31.78125 -1.421875 
Q 19.734375 -1.421875 13.25 4.234375 
Q 6.78125 9.90625 6.78125 20.515625 
Q 6.78125 27.484375 10.78125 32.3125 
Q 14.796875 37.15625 21.921875 38.8125 
z
M 18.3125 54.390625 
Q 18.3125 48.734375 21.84375 45.5625 
Q 25.390625 42.390625 31.78125 42.390625 
Q 38.140625 42.390625 41.71875 45.5625 
Q 45.3125 48.734375 45.3125 54.390625 
Q 45.3125 60.0625 41.71875 63.234375 
Q 38.140625 66.40625 31.78125 66.40625 
Q 25.390625 66.40625 21.84375 63.234375 
Q 18.3125 60.0625 18.3125 54.390625 
z
" id="DejaVuSans-56"/>
      </defs>
      <g transform="translate(36.439062 145.361653)scale(0.15 -0.15)">
       <use xlink:href="#DejaVuSans-48"/>
       <use x="63.623047" xlink:href="#DejaVuSans-46"/>
       <use x="95.410156" xlink:href="#DejaVuSans-48"/>
       <use x="159.033203" xlink:href="#DejaVuSans-56"/>
      </g>
     </g>
    </g>
    <g id="ytick_6">
     <g id="line2d_27">
      <path clip-path="url(#p48138847eb)" d="M 76.8375 46.418531 
L 496.8825 46.418531 
" style="fill:none;stroke:#e6e6e6;stroke-linecap:square;stroke-width:0.8;"/>
     </g>
     <g id="line2d_28">
      <g>
       <use style="stroke:#000000;stroke-width:0.8;" x="76.8375" xlink:href="#maf2e60086c" y="46.418531"/>
      </g>
     </g>
     <g id="text_15">
      <!-- 0.10 -->
      <g transform="translate(36.439062 52.117359)scale(0.15 -0.15)">
       <use xlink:href="#DejaVuSans-48"/>
       <use x="63.623047" xlink:href="#DejaVuSans-46"/>
       <use x="95.410156" xlink:href="#DejaVuSans-49"/>
       <use x="159.033203" xlink:href="#DejaVuSans-48"/>
      </g>
     </g>
    </g>
    <g id="text_16">
     <!-- $I_{beams}$ -->
     <defs>
      <path d="M 16.890625 72.90625 
L 26.8125 72.90625 
L 12.59375 0 
L 2.6875 0 
z
" id="DejaVuSans-Oblique-73"/>
      <path d="M 49.515625 33.40625 
Q 49.515625 40.484375 46.265625 44.484375 
Q 43.015625 48.484375 37.3125 48.484375 
Q 33.15625 48.484375 29.515625 46.453125 
Q 25.875 44.4375 23.1875 40.578125 
Q 20.359375 36.53125 18.71875 31.171875 
Q 17.09375 25.828125 17.09375 20.515625 
Q 17.09375 13.765625 20.28125 9.9375 
Q 23.484375 6.109375 29.109375 6.109375 
Q 33.34375 6.109375 36.953125 8.078125 
Q 40.578125 10.0625 43.3125 13.921875 
Q 46.09375 17.921875 47.796875 23.234375 
Q 49.515625 28.5625 49.515625 33.40625 
z
M 21.578125 46.390625 
Q 24.90625 50.875 29.90625 53.4375 
Q 34.90625 56 40.375 56 
Q 48.78125 56 53.734375 50.328125 
Q 58.6875 44.671875 58.6875 35.015625 
Q 58.6875 27.09375 55.78125 19.671875 
Q 52.875 12.25 47.515625 6.5 
Q 44 2.6875 39.40625 0.625 
Q 34.8125 -1.421875 29.78125 -1.421875 
Q 24.46875 -1.421875 20.5625 1.015625 
Q 16.65625 3.46875 14.203125 8.296875 
L 12.59375 0 
L 3.609375 0 
L 18.40625 75.984375 
L 27.390625 75.984375 
z
" id="DejaVuSans-Oblique-98"/>
      <path d="M 53.71875 31.203125 
L 47.609375 0 
L 38.625 0 
L 40.28125 8.296875 
Q 36.328125 3.421875 31.265625 1 
Q 26.21875 -1.421875 20.015625 -1.421875 
Q 13.03125 -1.421875 8.5625 2.84375 
Q 4.109375 7.125 4.109375 13.8125 
Q 4.109375 23.390625 11.75 28.953125 
Q 19.390625 34.515625 32.8125 34.515625 
L 45.3125 34.515625 
L 45.796875 36.921875 
Q 45.90625 37.3125 45.953125 37.765625 
Q 46 38.234375 46 39.203125 
Q 46 43.5625 42.453125 45.96875 
Q 38.921875 48.390625 32.515625 48.390625 
Q 28.125 48.390625 23.5 47.265625 
Q 18.890625 46.140625 14.015625 43.890625 
L 15.578125 52.203125 
Q 20.65625 54.109375 25.515625 55.046875 
Q 30.375 56 34.90625 56 
Q 44.578125 56 49.625 51.796875 
Q 54.6875 47.609375 54.6875 39.59375 
Q 54.6875 37.984375 54.4375 35.8125 
Q 54.203125 33.640625 53.71875 31.203125 
z
M 44 27.484375 
L 35.015625 27.484375 
Q 23.96875 27.484375 18.671875 24.53125 
Q 13.375 21.578125 13.375 15.375 
Q 13.375 11.078125 16.078125 8.640625 
Q 18.796875 6.203125 23.578125 6.203125 
Q 30.90625 6.203125 36.375 11.453125 
Q 41.84375 16.703125 43.609375 25.484375 
z
" id="DejaVuSans-Oblique-97"/>
      <path d="M 89.796875 33.015625 
L 83.40625 0 
L 74.421875 0 
L 80.71875 32.71875 
Q 81.109375 34.8125 81.296875 36.328125 
Q 81.5 37.84375 81.5 38.921875 
Q 81.5 43.3125 79.046875 45.75 
Q 76.609375 48.1875 72.21875 48.1875 
Q 65.671875 48.1875 60.546875 43.28125 
Q 55.421875 38.375 53.90625 30.515625 
L 47.90625 0 
L 38.921875 0 
L 45.3125 32.71875 
Q 45.703125 34.515625 45.890625 36.046875 
Q 46.09375 37.59375 46.09375 38.8125 
Q 46.09375 43.265625 43.65625 45.71875 
Q 41.21875 48.1875 36.921875 48.1875 
Q 30.28125 48.1875 25.140625 43.28125 
Q 20.015625 38.375 18.5 30.515625 
L 12.5 0 
L 3.515625 0 
L 14.203125 54.6875 
L 23.1875 54.6875 
L 21.484375 46.1875 
Q 25.140625 50.984375 30.046875 53.484375 
Q 34.96875 56 40.578125 56 
Q 46.53125 56 50.359375 52.875 
Q 54.203125 49.75 54.984375 44.1875 
Q 59.078125 49.953125 64.46875 52.96875 
Q 69.875 56 75.875 56 
Q 82.90625 56 86.734375 51.953125 
Q 90.578125 47.90625 90.578125 40.484375 
Q 90.578125 38.875 90.375 36.9375 
Q 90.1875 35.015625 89.796875 33.015625 
z
" id="DejaVuSans-Oblique-109"/>
     </defs>
     <g transform="translate(26.2 316.68)rotate(-90)scale(0.3 -0.3)">
      <use transform="translate(0 0.09375)" xlink:href="#DejaVuSans-Oblique-73"/>
      <use transform="translate(29.492188 -16.3125)scale(0.7)" xlink:href="#DejaVuSans-Oblique-98"/>
      <use transform="translate(73.925781 -16.3125)scale(0.7)" xlink:href="#DejaVuSans-Oblique-101"/>
      <use transform="translate(116.992187 -16.3125)scale(0.7)" xlink:href="#DejaVuSans-Oblique-97"/>
      <use transform="translate(159.887695 -16.3125)scale(0.7)" xlink:href="#DejaVuSans-Oblique-109"/>
      <use transform="translate(228.076172 -16.3125)scale(0.7)" xlink:href="#DejaVuSans-Oblique-115"/>
     </g>
    </g>
   </g>
   <g id="line2d_29">
    <path clip-path="url(#p48138847eb)" d="M 76.8375 512.619337 
L 77.192268 512.453605 
L 78.079187 511.616305 
L 78.611339 510.537146 
L 78.788723 510.089023 
L 78.966106 510.089032 
L 79.675642 507.852648 
L 80.03041 506.46539 
L 80.207793 506.465401 
L 81.094713 502.201949 
L 81.272097 501.211235 
L 81.449481 501.211245 
L 82.3364 495.581466 
L 82.691168 493.014574 
L 82.868552 493.014592 
L 84.819774 477.554104 
L 85.174542 473.959601 
L 85.351926 473.959614 
L 86.416229 462.276351 
L 86.593613 462.276229 
L 87.657916 449.399528 
L 87.8353 449.399908 
L 88.899603 435.583024 
L 89.076987 435.582689 
L 90.14129 421.023249 
L 90.318674 421.023363 
L 91.382977 405.870597 
L 91.560361 405.870183 
L 92.624664 390.164619 
L 92.802048 390.163819 
L 94.043735 371.466658 
L 94.221119 371.466814 
L 95.285422 355.354276 
L 95.462806 355.354353 
L 96.527109 339.378996 
L 96.704493 339.380219 
L 97.768796 323.892571 
L 97.94618 323.893268 
L 99.010484 309.291607 
L 99.187867 309.291279 
L 100.252171 295.946102 
L 100.429554 295.947666 
L 101.493858 284.0665 
L 101.671242 284.06679 
L 102.735545 273.966332 
L 102.912929 273.967385 
L 103.799848 267.076709 
L 103.977232 265.897781 
L 104.154616 265.895827 
L 105.041535 260.842643 
L 105.396303 259.254002 
L 105.573687 259.25485 
L 106.283222 256.851757 
L 106.63799 256.017262 
L 106.815374 256.017565 
L 107.347525 255.27011 
L 107.702293 255.084932 
L 108.234445 255.137446 
L 108.589212 255.42466 
L 108.94398 255.974543 
L 109.121364 256.322604 
L 109.298748 256.32342 
L 110.008283 258.319715 
L 110.363051 259.654628 
L 110.540435 259.655435 
L 111.24997 262.967061 
L 111.604738 264.955705 
L 111.782122 264.95563 
L 113.555961 276.273694 
L 114.088112 280.797098 
L 114.265496 280.797772 
L 115.329799 290.779809 
L 115.507183 290.780214 
L 116.571486 301.811418 
L 116.74887 301.812988 
L 117.990557 315.927194 
L 118.167941 315.926582 
L 119.232245 328.749982 
L 119.409628 328.749851 
L 120.473932 342.104133 
L 120.651315 342.105361 
L 121.715619 356.057469 
L 121.893003 356.057516 
L 122.957306 370.454378 
L 123.13469 370.45458 
L 124.198993 385.077348 
L 124.376377 385.077197 
L 125.44068 399.631168 
L 125.618064 399.630638 
L 126.682367 413.899585 
L 126.859751 413.899442 
L 127.924054 427.673833 
L 128.101438 427.673472 
L 129.343125 442.921431 
L 129.520509 442.921541 
L 130.584812 455.078185 
L 130.762196 455.07838 
L 131.826499 466.271872 
L 132.003883 466.271853 
L 133.068186 476.398664 
L 133.24557 476.398708 
L 134.309873 485.446767 
L 134.487257 485.446733 
L 135.55156 493.486204 
L 135.728944 493.486223 
L 136.793247 500.357598 
L 136.970631 500.3576 
L 138.034935 505.855942 
L 138.212318 505.855975 
L 139.099238 509.25095 
L 139.276622 509.789561 
L 139.454005 509.789575 
L 140.163541 511.464491 
L 140.695693 512.19585 
L 140.873076 512.19585 
L 141.227844 512.422139 
L 141.582612 512.437886 
L 142.292147 512.059996 
L 142.824299 511.192438 
L 143.179067 510.342735 
L 143.356451 510.342742 
L 144.065986 508.002016 
L 144.420754 506.511568 
L 144.598138 506.511574 
L 145.485057 501.900469 
L 145.662441 500.812253 
L 145.839825 500.812226 
L 146.726744 494.736598 
L 146.904128 493.361256 
L 147.081512 493.361237 
L 149.032734 477.311543 
L 149.387502 473.584735 
L 149.564886 473.584737 
L 151.870876 447.960617 
L 152.04826 445.63693 
L 152.225644 445.636566 
L 153.289947 430.874384 
L 153.467331 430.874673 
L 154.531634 415.25648 
L 154.709018 415.256417 
L 155.773321 399.139991 
L 155.950705 399.139508 
L 157.015008 382.909859 
L 157.192392 382.911007 
L 158.256696 366.909221 
L 158.434079 366.909351 
L 159.498383 351.40141 
L 159.675766 351.401176 
L 160.74007 336.810708 
L 160.917454 336.811648 
L 161.981757 323.389084 
L 162.159141 323.388806 
L 163.400828 309.442023 
L 163.578212 309.441596 
L 164.642515 299.03099 
L 164.819899 299.030479 
L 165.884202 290.16413 
L 166.061586 290.164312 
L 167.125889 282.864198 
L 167.303273 282.864591 
L 168.367576 277.164925 
L 168.54496 277.164263 
L 169.431879 273.699063 
L 169.609263 273.117454 
L 169.786647 273.118436 
L 170.496182 271.292398 
L 170.85095 270.659529 
L 171.028334 270.660112 
L 171.73787 269.851264 
L 172.624789 269.693769 
L 173.511708 270.137571 
L 174.221244 271.183719 
L 174.753395 272.50116 
L 174.930779 272.500274 
L 175.462931 273.98234 
L 175.995082 275.909051 
L 176.172466 275.908625 
L 176.704618 278.023232 
L 177.236769 280.572881 
L 177.414153 280.571255 
L 178.123689 284.413377 
L 178.478457 286.587136 
L 178.65584 286.58846 
L 179.54276 292.671499 
L 179.720144 294.083262 
L 179.897527 294.082195 
L 180.784447 301.30136 
L 180.961831 302.919304 
L 181.139215 302.920181 
L 183.267821 321.944271 
L 183.445205 323.892518 
L 183.622589 323.89291 
L 184.686892 335.731349 
L 184.864276 335.731111 
L 186.105963 350.445738 
L 186.283347 350.444776 
L 187.34765 363.578215 
L 187.525034 363.578132 
L 188.589337 376.97514 
L 188.766721 376.974963 
L 189.831024 390.474796 
L 190.008408 390.475625 
L 191.072711 404.024278 
L 191.250095 404.023976 
L 192.314398 417.722404 
L 192.491782 417.721785 
L 193.556085 431.526977 
L 193.733469 431.526821 
L 194.797772 445.094456 
L 194.975156 445.094707 
L 196.039459 458.144887 
L 196.216843 458.145262 
L 197.45853 472.293551 
L 197.635914 472.293466 
L 198.700217 483.199942 
L 198.877601 483.199977 
L 199.941905 492.653243 
L 200.119288 492.653256 
L 201.183592 500.388049 
L 201.360976 500.388051 
L 202.247895 505.391562 
L 202.425279 506.235874 
L 202.602663 506.235876 
L 203.312198 509.047283 
L 203.666966 510.128522 
L 203.84435 510.128513 
L 204.376501 511.333391 
L 204.908653 512.050582 
L 205.086037 512.050582 
L 205.440804 512.25323 
L 205.795572 512.238817 
L 206.505108 511.813305 
L 207.037259 510.888922 
L 207.392027 510.005322 
L 207.569411 510.005324 
L 208.101562 508.284302 
L 209.520633 502.392207 
L 210.052785 499.105593 
L 210.230169 499.105554 
L 212.004008 486.581865 
L 212.536159 481.626737 
L 212.713543 481.626773 
L 213.777846 470.700303 
L 213.95523 470.700327 
L 215.019533 458.650464 
L 215.196917 458.650501 
L 216.26122 445.72411 
L 216.438604 445.724283 
L 217.502908 432.247235 
L 217.680291 432.24727 
L 218.744595 418.509048 
L 218.921978 418.508848 
L 220.163666 402.454352 
L 220.341049 402.455359 
L 221.405353 388.717662 
L 221.582736 388.71858 
L 222.64704 375.190345 
L 222.824424 375.189826 
L 223.888727 361.982586 
L 224.066111 361.981576 
L 225.130414 349.234368 
L 225.307798 349.234388 
L 226.372101 337.057878 
L 226.549485 337.056638 
L 227.613788 325.576158 
L 227.791172 325.575797 
L 228.855475 314.840692 
L 229.032859 314.839264 
L 230.097162 304.922973 
L 230.274546 304.923208 
L 231.338849 295.90507 
L 231.516233 295.903674 
L 232.75792 286.809708 
L 232.935304 286.809198 
L 233.999607 280.14454 
L 234.176991 280.143588 
L 235.06391 275.501383 
L 235.241294 274.7203 
L 235.418678 274.720726 
L 236.128214 271.947213 
L 236.482981 270.880909 
L 236.660365 270.881539 
L 237.192517 269.542513 
L 237.724668 268.719595 
L 237.902052 268.71937 
L 238.25682 268.351938 
L 238.611588 268.194622 
L 239.143739 268.242208 
L 239.498507 268.412147 
L 239.853275 268.798279 
L 240.740194 270.139898 
L 241.272346 271.635448 
L 241.44973 272.260353 
L 241.627114 272.261114 
L 242.336649 275.109488 
L 242.691417 276.857012 
L 242.868801 276.856266 
L 243.75572 281.96915 
L 244.110488 284.317155 
L 244.287872 284.318146 
L 246.239094 298.049869 
L 246.593862 301.261655 
L 246.771246 301.261356 
L 247.835549 311.604468 
L 248.012933 311.603379 
L 251.028459 343.772099 
L 251.56061 351.213257 
L 251.737994 351.212388 
L 252.802297 366.745712 
L 252.979681 366.744521 
L 254.043984 382.893167 
L 254.221368 382.89218 
L 255.463055 402.12909 
L 255.640439 402.128966 
L 256.704742 418.491722 
L 256.882126 418.492032 
L 257.946429 434.237358 
L 258.123813 434.237783 
L 259.188117 448.908342 
L 259.3655 448.908353 
L 260.429804 462.335129 
L 260.607188 462.335108 
L 261.671491 474.328005 
L 261.848875 474.327998 
L 262.913178 484.818806 
L 263.090562 484.818849 
L 264.154865 493.770356 
L 264.332249 493.770354 
L 265.396552 501.086865 
L 265.573936 501.086888 
L 266.460855 505.851667 
L 266.815623 507.408965 
L 266.993007 507.408958 
L 267.702542 509.911866 
L 268.05731 510.851268 
L 268.234694 510.851272 
L 268.766845 511.865731 
L 269.298997 512.40996 
L 270.185916 512.400522 
L 270.895452 511.853859 
L 271.427603 510.857832 
L 271.782371 509.950675 
L 271.959755 509.950675 
L 272.669291 507.570968 
L 273.024058 506.113626 
L 273.201442 506.113615 
L 274.088361 501.719617 
L 274.265745 500.714629 
L 274.443129 500.714609 
L 276.394352 488.751787 
L 276.74912 485.972832 
L 276.926503 485.972839 
L 279.232494 466.685392 
L 279.409878 464.918557 
L 279.587261 464.918559 
L 280.651565 453.619022 
L 280.828948 453.619072 
L 281.893252 441.446531 
L 282.070636 441.445952 
L 283.134939 428.547218 
L 283.312323 428.546808 
L 284.376626 415.002723 
L 284.55401 415.003056 
L 285.618313 400.955915 
L 285.795697 400.955765 
L 286.86 386.576286 
L 287.037384 386.576142 
L 288.101687 371.94 
L 288.279071 371.939692 
L 289.520758 354.946216 
L 289.698142 354.947203 
L 290.762445 340.495357 
L 290.939829 340.495539 
L 292.004132 326.421647 
L 292.181516 326.421446 
L 293.245819 313.032533 
L 293.423203 313.031981 
L 294.487506 300.736775 
L 294.66489 300.736739 
L 295.729193 289.618038 
L 295.906577 289.616612 
L 296.97088 279.84884 
L 297.148264 279.849792 
L 298.212568 271.638387 
L 298.389951 271.638924 
L 299.454255 265.25005 
L 299.631639 265.251224 
L 300.518558 261.436061 
L 300.873326 260.269083 
L 301.050709 260.268071 
L 301.582861 258.784558 
L 302.115013 257.785227 
L 302.292397 257.785419 
L 302.647164 257.3382 
L 303.001932 257.10221 
L 303.179316 257.038044 
L 304.066235 257.393092 
L 304.953155 258.561326 
L 305.66269 260.675096 
L 305.840074 261.408792 
L 306.017458 261.408541 
L 306.549609 263.842099 
L 307.081761 266.992667 
L 307.259145 266.991679 
L 307.96868 272.069309 
L 308.323448 274.949226 
L 308.500832 274.948196 
L 309.387751 283.119832 
L 309.565135 284.973045 
L 309.742519 284.973602 
L 311.693742 305.847488 
L 312.225893 312.950679 
L 312.403277 312.951905 
L 313.46758 328.186843 
L 313.644964 328.187868 
L 314.709267 344.156395 
L 314.886651 344.155824 
L 315.950954 360.320873 
L 316.128338 360.321522 
L 317.192641 376.343348 
L 317.370025 376.34317 
L 318.434329 392.067357 
L 318.611712 392.066352 
L 319.676016 407.336985 
L 319.853399 407.33678 
L 320.917703 422.090857 
L 321.095087 422.090571 
L 322.15939 436.320842 
L 322.336774 436.320483 
L 323.578461 451.95552 
L 323.755845 451.955564 
L 324.820148 464.373811 
L 324.997532 464.373865 
L 326.061835 475.650941 
L 326.239219 475.650945 
L 327.303522 485.617774 
L 327.480906 485.617743 
L 328.545209 494.066009 
L 328.722593 494.066027 
L 329.786896 500.957044 
L 329.96428 500.957067 
L 331.028583 506.246208 
L 331.205967 506.246192 
L 332.092886 509.419243 
L 332.27027 509.927801 
L 332.447654 509.927812 
L 333.15719 511.507567 
L 333.511957 512.041922 
L 333.689341 512.041923 
L 334.221493 512.524774 
L 334.576261 512.637479 
L 335.108412 512.581815 
L 335.46318 512.355157 
L 335.995332 511.68768 
L 336.172715 511.382188 
L 336.350099 511.382191 
L 337.059635 509.710502 
L 337.414402 508.611344 
L 337.591786 508.611355 
L 338.301322 505.87628 
L 338.65609 504.240076 
L 338.833473 504.240062 
L 339.720393 499.370243 
L 339.897777 498.273952 
L 340.07516 498.27395 
L 342.026383 484.793866 
L 342.381151 481.585152 
L 342.558535 481.585118 
L 343.622838 470.990847 
L 343.800222 470.990857 
L 344.864525 459.02059 
L 345.041909 459.020619 
L 346.283596 443.504183 
L 346.46098 443.504168 
L 347.525283 429.067785 
L 347.702667 429.067485 
L 348.76697 413.711849 
L 348.944354 413.712221 
L 350.008657 397.728036 
L 350.186041 397.727883 
L 351.250344 381.515033 
L 351.427728 381.515815 
L 352.492031 365.33103 
L 352.669415 365.331263 
L 353.733718 349.39987 
L 353.911102 349.401819 
L 354.975405 333.97631 
L 355.152789 333.976929 
L 356.217092 319.493472 
L 356.394476 319.49296 
L 357.45878 306.195706 
L 357.636163 306.194769 
L 358.877851 292.308776 
L 359.055234 292.309832 
L 360.119538 281.646442 
L 360.296921 281.646129 
L 361.361225 272.527985 
L 361.538609 272.528826 
L 362.425528 266.186989 
L 362.602912 265.122224 
L 362.780296 265.122837 
L 363.489831 261.394963 
L 363.844599 259.945844 
L 364.021983 259.946459 
L 364.554134 258.246115 
L 365.086286 257.209925 
L 365.26367 257.210883 
L 365.618437 256.826684 
L 365.973205 256.694391 
L 366.505357 256.815553 
L 366.860125 257.207192 
L 367.214892 257.858741 
L 367.56966 258.774814 
L 367.747044 258.774587 
L 368.279196 260.600973 
L 368.811347 263.029418 
L 368.988731 263.03028 
L 369.698266 267.144597 
L 370.230418 270.816966 
L 370.407802 270.816122 
L 372.536408 287.356698 
L 372.713792 289.044866 
L 372.891176 289.045187 
L 373.955479 299.468669 
L 374.132863 299.467576 
L 375.197166 310.64245 
L 375.37455 310.641578 
L 376.438853 322.399317 
L 376.616237 322.400198 
L 377.680541 334.742404 
L 377.857924 334.742185 
L 378.922228 347.774531 
L 379.099611 347.775222 
L 380.163915 361.393012 
L 380.341299 361.393721 
L 381.582986 377.867994 
L 381.76037 377.867944 
L 382.824673 392.236632 
L 383.002057 392.23629 
L 384.06636 406.583014 
L 384.243744 406.582296 
L 385.308047 420.567361 
L 385.485431 420.567266 
L 386.549734 433.991087 
L 386.727118 433.991134 
L 387.791421 446.675548 
L 387.968805 446.675558 
L 389.033108 458.497819 
L 389.210492 458.497773 
L 390.274795 469.335666 
L 390.452179 469.335659 
L 391.516482 479.20055 
L 391.693866 479.200565 
L 392.935553 489.45337 
L 393.112937 489.453313 
L 394.17724 497.037387 
L 394.354624 497.037411 
L 395.418927 503.277338 
L 395.596311 503.277339 
L 396.483231 507.341154 
L 396.660614 508.024091 
L 396.837998 508.024097 
L 397.547534 510.274332 
L 397.902302 511.115213 
L 398.079685 511.115207 
L 398.611837 512.001454 
L 399.143989 512.433562 
L 399.853524 512.39026 
L 400.208292 512.098454 
L 400.385676 511.872775 
L 400.56306 511.872774 
L 401.095211 510.873152 
L 402.159514 508.132048 
L 403.578585 502.068317 
L 404.288121 497.461018 
L 404.465505 497.461042 
L 406.239343 484.12058 
L 406.771495 478.836522 
L 406.948879 478.836519 
L 408.013182 467.162065 
L 408.190566 467.16203 
L 409.254869 454.259361 
L 409.432253 454.259362 
L 410.496556 440.272792 
L 410.67394 440.272879 
L 411.738243 425.475307 
L 411.915627 425.47456 
L 412.97993 410.20906 
L 413.157314 410.208953 
L 414.221617 394.832822 
L 414.399001 394.833686 
L 415.640688 376.997134 
L 415.818072 376.995792 
L 416.882375 361.7148 
L 417.059759 361.713602 
L 418.124062 346.837535 
L 418.301446 346.837272 
L 419.36575 332.56917 
L 419.543133 332.568801 
L 420.607437 319.426897 
L 420.784821 319.428667 
L 421.849124 307.743343 
L 422.026508 307.743893 
L 423.090811 297.641349 
L 423.268195 297.641041 
L 424.332498 289.205645 
L 424.509882 289.205581 
L 425.574185 282.644823 
L 425.751569 282.64534 
L 426.638488 278.72701 
L 426.993256 277.539346 
L 427.17064 277.538326 
L 427.702791 276.052876 
L 428.234943 275.057818 
L 428.412327 275.057992 
L 428.944478 274.246987 
L 429.47663 273.895164 
L 429.654014 273.893991 
L 430.008782 273.717919 
L 430.363549 273.650968 
L 430.540933 273.625706 
L 430.895701 273.714347 
L 431.073085 273.704632 
L 431.78262 274.252454 
L 431.960004 274.535644 
L 432.137388 274.536639 
L 432.492156 275.029328 
L 432.846924 275.683082 
L 433.911227 277.737521 
L 434.443378 279.489957 
L 434.620762 279.489839 
L 435.152914 281.421059 
L 435.685065 283.862322 
L 435.862449 283.862216 
L 436.571985 287.615651 
L 436.926753 289.777818 
L 437.104136 289.778375 
L 437.991056 295.814673 
L 438.345823 298.577465 
L 438.523207 298.578035 
L 439.587511 307.78313 
L 439.764894 307.784651 
L 440.829198 318.243939 
L 441.006582 318.244536 
L 442.070885 329.791575 
L 442.248269 329.791349 
L 443.312572 342.015993 
L 443.489956 342.01687 
L 444.554259 354.838962 
L 444.731643 354.838602 
L 445.795946 367.988324 
L 445.97333 367.988222 
L 447.037633 381.351482 
L 447.215017 381.351151 
L 448.27932 394.894525 
L 448.456704 394.89511 
L 449.698391 411.000024 
L 449.875775 411.000447 
L 450.940078 424.999928 
L 451.117462 425.000398 
L 452.181765 438.804606 
L 452.359149 438.804326 
L 453.423452 452.177989 
L 453.600836 452.177965 
L 454.665139 464.78353 
L 454.842523 464.783543 
L 455.906826 476.416092 
L 456.08421 476.416077 
L 457.148514 486.733096 
L 457.325897 486.733149 
L 458.390201 495.502981 
L 458.567584 495.502949 
L 459.631888 502.548353 
L 459.809272 502.548331 
L 460.696191 506.995697 
L 461.050959 508.411159 
L 461.228342 508.411133 
L 461.937878 510.580847 
L 462.292646 511.338943 
L 462.47003 511.338936 
L 463.002181 512.058441 
L 463.356949 512.252999 
L 463.889101 512.222289 
L 464.243868 511.967444 
L 465.130788 510.792214 
L 465.662939 509.346987 
L 466.017707 508.117039 
L 466.195091 508.117044 
L 466.904626 505.032384 
L 467.259394 503.188363 
L 467.436778 503.188389 
L 469.210617 492.545537 
L 469.742768 488.241262 
L 469.920152 488.241237 
L 470.984455 478.6429 
L 471.161839 478.64289 
L 472.403526 465.991583 
L 472.58091 465.991569 
L 473.645213 453.972083 
L 473.822597 453.972119 
L 474.8869 440.996245 
L 475.064284 440.996356 
L 476.128587 427.359382 
L 476.305971 427.359694 
L 477.370274 413.321997 
L 477.547658 413.32249 
L 478.611962 399.284727 
L 478.789345 399.284499 
L 479.853649 385.385135 
L 480.031033 385.384346 
L 481.095336 371.821967 
L 481.27272 371.820888 
L 482.337023 358.849732 
L 482.514407 358.849628 
L 483.57871 346.704671 
L 483.756094 346.705475 
L 484.997781 333.762223 
L 485.175165 333.763827 
L 486.239468 323.284266 
L 486.416852 323.284037 
L 487.481155 313.236712 
L 487.658539 313.237092 
L 488.722842 303.544798 
L 488.900226 303.544924 
L 489.964529 294.59305 
L 490.141913 294.594211 
L 491.206216 286.425573 
L 491.3836 286.425204 
L 492.270519 280.40867 
L 492.447903 279.380468 
L 492.625287 279.382082 
L 493.512207 274.623643 
L 493.68959 273.861679 
L 493.866974 273.861091 
L 494.57651 271.148379 
L 494.931277 270.10752 
L 495.108661 270.108818 
L 495.640813 268.937677 
L 496.172965 268.321097 
L 496.527732 268.189342 
L 497.059884 268.220058 
L 497.059884 268.220058 
" style="fill:none;stroke:#31688e;stroke-linecap:square;stroke-width:2;"/>
   </g>
   <g id="line2d_30">
    <path clip-path="url(#p48138847eb)" d="M 76.8375 512.631554 
L 78.611339 512.428027 
L 80.03041 511.948754 
L 80.739945 511.604122 
L 81.094713 511.604127 
L 82.513784 510.699804 
L 83.223319 510.139275 
L 83.578087 510.139291 
L 84.997158 508.795172 
L 85.706693 508.01144 
L 86.061461 508.01145 
L 87.480532 506.213167 
L 88.544835 504.66397 
L 88.899603 504.663988 
L 90.673442 501.684448 
L 91.028209 501.030266 
L 91.382977 501.03029 
L 93.156816 497.448663 
L 93.511584 496.673359 
L 93.866351 496.673342 
L 95.64019 492.481279 
L 95.994958 491.582663 
L 96.349726 491.582637 
L 98.478332 485.746663 
L 98.8331 485.746653 
L 100.961706 479.170326 
L 101.316474 479.170321 
L 103.44508 471.861611 
L 103.799848 471.86165 
L 105.928454 463.820876 
L 106.283222 463.820817 
L 108.411829 455.046812 
L 108.766596 455.046202 
L 111.24997 443.927499 
L 111.604738 443.927496 
L 113.733345 433.684415 
L 114.088112 433.683704 
L 116.216719 422.826955 
L 116.571486 422.826863 
L 118.700093 411.399206 
L 119.054861 411.399989 
L 121.183467 399.468565 
L 121.538235 399.469117 
L 123.666841 387.103575 
L 124.021609 387.103033 
L 126.150215 374.330936 
L 126.504983 374.330239 
L 128.63359 361.203337 
L 128.988357 361.202039 
L 131.116964 347.762871 
L 131.471731 347.762603 
L 133.955106 331.723385 
L 134.309873 331.722649 
L 136.43848 317.612086 
L 136.793247 317.613089 
L 138.921854 303.194947 
L 139.276622 303.193438 
L 141.405228 288.526998 
L 141.759996 288.52617 
L 143.888602 273.663697 
L 144.24337 273.664993 
L 146.371976 258.670738 
L 146.726744 258.671306 
L 148.855351 243.607926 
L 149.210118 243.60928 
L 151.338725 228.517954 
L 151.693492 228.517134 
L 153.822099 213.427962 
L 154.176867 213.428688 
L 156.305473 198.440706 
L 156.660241 198.439334 
L 159.143615 181.254141 
L 159.498383 181.253928 
L 161.626989 166.850596 
L 161.981757 166.851051 
L 164.110363 152.85752 
L 164.465131 152.85569 
L 166.593737 139.376683 
L 166.948505 139.375368 
L 169.077111 126.489059 
L 169.431879 126.48908 
L 171.560486 114.267252 
L 171.915253 114.267536 
L 174.04386 102.744667 
L 174.398628 102.747187 
L 176.527234 91.989713 
L 176.882002 91.991032 
L 179.010608 82.136302 
L 179.365376 82.136474 
L 181.139215 74.633961 
L 181.84875 71.863462 
L 182.203518 71.862478 
L 184.332124 64.14208 
L 184.686892 64.140321 
L 186.460731 58.510584 
L 186.815498 57.470047 
L 187.170266 57.469514 
L 188.944105 52.745405 
L 189.298872 51.887765 
L 189.65364 51.889603 
L 191.427479 48.080436 
L 191.782247 47.408174 
L 192.137014 47.410698 
L 193.556085 45.0074 
L 194.265621 44.027751 
L 194.620389 44.026405 
L 196.039459 42.352946 
L 196.748995 41.736308 
L 197.103763 41.737394 
L 198.168066 40.990587 
L 198.877601 40.671623 
L 199.232369 40.545959 
L 199.941905 40.454891 
L 200.65144 40.335437 
L 201.360976 40.364843 
L 203.134814 40.723852 
L 203.84435 41.095773 
L 204.553885 41.606696 
L 204.908653 41.605127 
L 205.972956 42.489146 
L 207.037259 43.700041 
L 207.392027 43.701 
L 208.45633 45.040706 
L 209.520633 46.692821 
L 209.875401 46.691412 
L 210.939704 48.450596 
L 212.004008 50.527482 
L 212.358775 50.529307 
L 213.777846 53.52159 
L 214.487382 55.207871 
L 214.842149 55.207878 
L 216.26122 58.759786 
L 216.970756 60.705076 
L 217.325524 60.705455 
L 219.099362 65.840386 
L 219.45413 66.961887 
L 219.808898 66.961171 
L 221.582736 72.673766 
L 221.937504 73.902169 
L 222.292272 73.902036 
L 224.066111 80.104522 
L 224.420878 81.428905 
L 224.775646 81.429507 
L 226.904253 89.518195 
L 227.25902 90.927362 
L 227.613788 90.926242 
L 229.742394 99.555725 
L 230.097162 99.557667 
L 232.225769 108.519786 
L 232.580536 108.520364 
L 234.709143 117.83584 
L 235.06391 117.836376 
L 237.192517 127.519839 
L 237.547285 127.520065 
L 239.675891 137.531677 
L 240.030659 137.532774 
L 242.159265 147.821816 
L 242.514033 147.819995 
L 244.642639 158.37508 
L 244.997407 158.374297 
L 247.126014 169.1749 
L 247.480781 169.174034 
L 249.964155 182.109702 
L 250.318923 182.109989 
L 252.44753 193.534448 
L 252.802297 193.53524 
L 254.930904 205.283746 
L 255.285671 205.283221 
L 257.414278 217.312111 
L 257.769046 217.3123 
L 259.897652 229.55817 
L 260.25242 229.558547 
L 262.381026 242.019769 
L 262.735794 242.01889 
L 264.8644 254.615525 
L 265.219168 254.614922 
L 267.347774 267.266442 
L 267.702542 267.266962 
L 269.831149 279.915558 
L 270.185916 279.91565 
L 272.669291 294.620981 
L 273.024058 294.620563 
L 275.152665 307.139148 
L 275.507432 307.139374 
L 277.636039 319.498911 
L 277.990807 319.499729 
L 280.119413 331.677302 
L 280.474181 331.677809 
L 282.602787 343.676797 
L 282.957555 343.676664 
L 285.086161 355.446936 
L 285.440929 355.446148 
L 287.569535 366.916825 
L 287.924303 366.917383 
L 290.05291 378.073033 
L 290.407677 378.073639 
L 292.536284 388.910443 
L 292.891052 388.91027 
L 295.374426 401.152922 
L 295.729193 401.153292 
L 297.8578 411.257892 
L 298.212568 411.257805 
L 300.341174 420.999634 
L 300.695942 420.999534 
L 302.824548 430.378284 
L 303.179316 430.378546 
L 305.307922 439.397397 
L 305.66269 439.397343 
L 307.791296 448.121067 
L 308.146064 448.121079 
L 310.274671 456.559762 
L 310.629438 456.559798 
L 312.758045 464.634459 
L 313.112813 464.634432 
L 315.241419 472.275563 
L 315.596187 472.27558 
L 318.079561 480.544192 
L 318.434329 480.544163 
L 320.562935 487.021071 
L 320.917703 487.021113 
L 323.046309 492.85593 
L 323.401077 492.855957 
L 325.174916 497.186847 
L 325.529683 497.987567 
L 325.884451 497.987544 
L 327.65829 501.693167 
L 328.013057 502.365551 
L 328.367825 502.365562 
L 329.786896 504.845233 
L 330.496432 505.945209 
L 330.851199 505.945209 
L 332.27027 507.868578 
L 332.979806 508.685353 
L 333.334573 508.685351 
L 334.753644 510.028425 
L 335.46318 510.550593 
L 335.817948 510.550584 
L 336.882251 511.148515 
L 337.946554 511.515284 
L 338.65609 511.587321 
L 339.720393 511.646638 
L 341.139464 511.473836 
L 342.203767 511.069016 
L 344.332373 509.876434 
L 345.396677 508.853766 
L 345.751444 508.460927 
L 346.106212 508.460919 
L 347.525283 506.637828 
L 348.234818 505.57736 
L 348.589586 505.577344 
L 350.008657 503.158345 
L 350.718193 501.80469 
L 351.07296 501.804665 
L 352.846799 498.004535 
L 353.201567 497.17177 
L 353.556334 497.171819 
L 355.330173 492.668266 
L 355.684941 491.696594 
L 356.039709 491.696592 
L 357.813547 486.516793 
L 358.168315 485.412394 
L 358.523083 485.41236 
L 360.651689 478.339584 
L 361.006457 478.339578 
L 363.135063 470.495184 
L 363.489831 469.121659 
L 363.844599 469.121619 
L 365.973205 460.358008 
L 366.327973 460.358053 
L 368.456579 450.847004 
L 368.811347 450.846968 
L 370.939954 440.633073 
L 371.294721 440.633009 
L 373.423328 429.772446 
L 373.778095 429.77253 
L 375.906702 418.30996 
L 376.26147 418.309682 
L 378.390076 406.283245 
L 378.744844 406.283514 
L 380.87345 393.751295 
L 381.228218 393.751446 
L 383.356824 380.753293 
L 383.711592 380.754008 
L 385.840198 367.372254 
L 386.194966 367.371814 
L 388.67834 351.373479 
L 389.033108 351.373908 
L 391.161715 337.428166 
L 391.516482 337.427635 
L 393.645089 323.362115 
L 393.999856 323.361789 
L 396.128463 309.257923 
L 396.483231 309.258374 
L 398.611837 295.197187 
L 398.966605 295.196536 
L 401.095211 281.247644 
L 401.449979 281.247365 
L 403.578585 267.462032 
L 403.933353 267.462083 
L 406.061959 253.915143 
L 406.416727 253.915224 
L 408.545334 240.726571 
L 408.900101 240.725449 
L 411.383476 225.883833 
L 411.738243 225.883269 
L 413.86685 213.612083 
L 414.221617 213.612744 
L 416.350224 201.830427 
L 416.704992 201.830754 
L 418.833598 190.594743 
L 419.188366 190.59721 
L 421.316972 179.907521 
L 421.67174 179.908052 
L 423.800346 169.752717 
L 424.155114 169.751892 
L 426.28372 160.149967 
L 426.638488 160.148049 
L 428.767095 151.141495 
L 429.121862 151.140835 
L 431.250469 142.70214 
L 431.605236 142.701722 
L 433.733843 134.834923 
L 434.088611 133.590957 
L 434.443378 133.592571 
L 436.571985 126.36761 
L 436.926753 126.367205 
L 439.055359 119.646165 
L 439.410127 119.64535 
L 441.538733 113.422901 
L 441.893501 113.421705 
L 444.022107 107.728039 
L 444.376875 107.727825 
L 446.505481 102.564163 
L 446.860249 102.56532 
L 448.634088 98.655651 
L 448.988856 97.928151 
L 449.343623 97.926012 
L 451.117462 94.418332 
L 451.47223 93.762437 
L 451.826997 93.765138 
L 453.600836 90.613768 
L 453.955604 90.035367 
L 454.310372 90.036489 
L 456.08421 87.276367 
L 456.793746 86.314186 
L 457.148514 86.31308 
L 458.567584 84.349547 
L 459.27712 83.493993 
L 459.631888 83.493796 
L 461.050959 81.745406 
L 461.760494 81.014564 
L 462.115262 81.014533 
L 463.534333 79.54012 
L 464.243868 78.962989 
L 464.598636 78.963507 
L 465.662939 78.071354 
L 466.727242 77.430551 
L 467.08201 77.432937 
L 468.146313 76.803537 
L 469.210617 76.394923 
L 469.565384 76.396016 
L 470.629687 76.008713 
L 471.693991 75.854482 
L 474.8869 75.917735 
L 475.951204 76.194486 
L 478.434578 77.249821 
L 479.498881 78.098269 
L 479.853649 78.098887 
L 480.917952 79.047253 
L 481.982255 80.270539 
L 482.337023 80.270845 
L 483.401326 81.609413 
L 484.465629 83.219262 
L 484.820397 83.220277 
L 486.239468 85.551629 
L 486.949003 86.906846 
L 487.303771 86.907661 
L 488.722842 89.726285 
L 489.432378 91.327844 
L 489.787145 91.328045 
L 491.560984 95.579198 
L 491.915752 96.494944 
L 492.270519 96.495536 
L 494.044358 101.315307 
L 494.399126 102.34654 
L 494.753894 102.347579 
L 496.527732 107.715986 
L 496.8825 108.853501 
L 497.237268 108.853091 
L 497.237268 108.853091 
" style="fill:none;stroke:#35b779;stroke-linecap:square;stroke-width:2;"/>
   </g>
   <g id="line2d_31">
    <path clip-path="url(#p48138847eb)" d="M 76.8375 512.638846 
L 85.351926 512.498264 
L 93.156816 512.111489 
L 103.799848 511.208377 
L 117.281022 509.412566 
L 120.119164 508.837349 
L 120.828699 508.837358 
L 133.600338 505.993673 
L 135.019409 505.575665 
L 135.728944 505.575671 
L 139.986157 504.233641 
L 140.695693 504.233643 
L 145.662441 502.501776 
L 146.371976 502.501776 
L 150.629189 500.872449 
L 151.338725 500.872456 
L 155.595937 499.104842 
L 156.305473 499.104835 
L 160.562686 497.197018 
L 161.272221 497.197005 
L 165.529434 495.149877 
L 166.23897 495.149858 
L 170.496182 492.963335 
L 171.205718 492.96337 
L 175.462931 490.637697 
L 176.172466 490.637663 
L 180.429679 488.173764 
L 181.139215 488.173725 
L 185.396427 485.569249 
L 186.105963 485.569214 
L 191.072711 482.350346 
L 191.782247 482.350349 
L 196.039459 479.429102 
L 196.748995 479.429089 
L 201.006208 476.359694 
L 201.715743 476.359696 
L 205.972956 473.144961 
L 206.682492 473.145001 
L 210.939704 469.787914 
L 211.64924 469.787908 
L 215.906453 466.295701 
L 216.615988 466.295738 
L 220.873201 462.67421 
L 221.582736 462.674216 
L 225.839949 458.926327 
L 226.549485 458.926919 
L 230.806698 455.057793 
L 231.516233 455.057597 
L 235.773446 451.073309 
L 236.482981 451.07295 
L 241.44973 446.28724 
L 242.159265 446.286724 
L 246.416478 442.072523 
L 247.126014 442.07326 
L 251.383226 437.767292 
L 252.092762 437.766605 
L 256.349975 433.379671 
L 257.05951 433.379551 
L 261.316723 428.918675 
L 262.026258 428.918808 
L 266.283471 424.383905 
L 266.993007 424.384053 
L 271.25022 419.775947 
L 271.959755 419.775824 
L 276.216968 415.099249 
L 276.926503 415.098575 
L 281.183716 410.361868 
L 281.893252 410.361742 
L 286.86 404.76224 
L 287.569535 404.762652 
L 291.826748 399.902045 
L 292.536284 399.902662 
L 296.793497 394.983557 
L 297.503032 394.984246 
L 301.760245 390.002398 
L 302.46978 390.003063 
L 306.726993 384.941331 
L 307.436529 384.940408 
L 311.693742 379.772682 
L 312.403277 379.772987 
L 316.66049 374.502581 
L 317.370025 374.502314 
L 321.627238 369.129942 
L 322.336774 369.130343 
L 326.593986 363.665343 
L 327.303522 363.664471 
L 332.27027 357.179944 
L 332.979806 357.180657 
L 337.237019 351.534516 
L 337.946554 351.534711 
L 342.203767 345.805763 
L 342.913302 345.80671 
L 347.170515 340.006958 
L 347.880051 340.006553 
L 352.137264 334.14308 
L 352.846799 334.142562 
L 357.104012 328.214297 
L 357.813547 328.215059 
L 362.07076 322.228833 
L 362.780296 322.22867 
L 367.037508 316.181841 
L 367.747044 316.182126 
L 372.004257 310.075247 
L 372.713792 310.075519 
L 377.680541 302.876793 
L 378.390076 302.876155 
L 382.647289 296.640016 
L 383.356824 296.638325 
L 387.614037 290.340702 
L 388.323573 290.341175 
L 392.580785 284.009425 
L 393.290321 284.009513 
L 397.547534 277.658341 
L 398.257069 277.659435 
L 402.514282 271.307365 
L 403.223818 271.306927 
L 407.48103 264.963875 
L 408.190566 264.965343 
L 412.447779 258.643914 
L 413.157314 258.644768 
L 417.414527 252.356965 
L 418.124062 252.358717 
L 423.090811 245.095177 
L 423.800346 245.094172 
L 428.057559 238.943809 
L 428.767095 238.945087 
L 433.024307 232.867057 
L 433.733843 232.86817 
L 437.991056 226.873659 
L 438.700591 226.872588 
L 442.957804 220.976881 
L 443.66734 220.976934 
L 447.924552 215.189737 
L 448.634088 215.191274 
L 452.891301 209.508531 
L 453.600836 209.508818 
L 457.858049 203.934741 
L 458.567584 203.935256 
L 462.824797 198.465271 
L 463.534333 198.465509 
L 468.501081 192.229909 
L 469.210617 192.230078 
L 473.467829 187.013943 
L 474.177365 187.013644 
L 478.434578 181.938253 
L 479.144113 181.939015 
L 483.401326 177.028219 
L 484.110861 177.030596 
L 488.368074 172.303039 
L 489.07761 172.303093 
L 493.334823 167.75076 
L 494.044358 167.750511 
L 496.8825 164.802907 
L 496.8825 164.802907 
" style="fill:none;stroke:#fde725;stroke-linecap:square;stroke-width:2;"/>
   </g>
   <g id="patch_3">
    <path d="M 76.8375 512.64 
L 76.8375 40.32 
" style="fill:none;stroke:#000000;stroke-linecap:square;stroke-linejoin:miter;stroke-width:0.8;"/>
   </g>
   <g id="patch_4">
    <path d="M 496.8825 512.64 
L 496.8825 40.32 
" style="fill:none;stroke:#000000;stroke-linecap:square;stroke-linejoin:miter;stroke-width:0.8;"/>
   </g>
   <g id="patch_5">
    <path d="M 76.8375 512.64 
L 496.8825 512.64 
" style="fill:none;stroke:#000000;stroke-linecap:square;stroke-linejoin:miter;stroke-width:0.8;"/>
   </g>
   <g id="patch_6">
    <path d="M 76.8375 40.32 
L 496.8825 40.32 
" style="fill:none;stroke:#000000;stroke-linecap:square;stroke-linejoin:miter;stroke-width:0.8;"/>
   </g>
   <g id="legend_1">
    <g id="patch_7">
     <path d="M 94.3375 201.32 
L 227.3375 201.32 
Q 232.3375 201.32 232.3375 196.32 
L 232.3375 57.82 
Q 232.3375 52.82 227.3375 52.82 
L 94.3375 52.82 
Q 89.3375 52.82 89.3375 57.82 
L 89.3375 196.32 
Q 89.3375 201.32 94.3375 201.32 
z
" style="fill:#ffffff;opacity:0.8;stroke:#cccccc;stroke-linejoin:miter;"/>
    </g>
    <g id="line2d_32">
     <path d="M 99.3375 79.32 
L 149.3375 79.32 
" style="fill:none;stroke:#31688e;stroke-linecap:square;stroke-width:2;"/>
    </g>
    <g id="line2d_33"/>
    <g id="text_17">
     <!-- $I_{(1,1)}^{(0)}$ -->
     <defs>
      <path d="M 11.71875 12.40625 
L 22.015625 12.40625 
L 22.015625 4 
L 14.015625 -11.625 
L 7.71875 -11.625 
L 11.71875 4 
z
" id="DejaVuSans-44"/>
     </defs>
     <g transform="translate(169.3375 88.07)scale(0.25 -0.25)">
      <use transform="translate(0 0.3875)" xlink:href="#DejaVuSans-Oblique-73"/>
      <use transform="translate(36.508958 47.8875)scale(0.7)" xlink:href="#DejaVuSans-40"/>
      <use transform="translate(63.818529 47.8875)scale(0.7)" xlink:href="#DejaVuSans-48"/>
      <use transform="translate(108.354661 47.8875)scale(0.7)" xlink:href="#DejaVuSans-41"/>
      <use transform="translate(29.492188 -26.95625)scale(0.7)" xlink:href="#DejaVuSans-40"/>
      <use transform="translate(56.801758 -26.95625)scale(0.7)" xlink:href="#DejaVuSans-49"/>
      <use transform="translate(101.337891 -26.95625)scale(0.7)" xlink:href="#DejaVuSans-44"/>
      <use transform="translate(137.226562 -26.95625)scale(0.7)" xlink:href="#DejaVuSans-49"/>
      <use transform="translate(181.762695 -26.95625)scale(0.7)" xlink:href="#DejaVuSans-41"/>
     </g>
    </g>
    <g id="line2d_34">
     <path d="M 99.3375 126.32 
L 149.3375 126.32 
" style="fill:none;stroke:#35b779;stroke-linecap:square;stroke-width:2;"/>
    </g>
    <g id="line2d_35"/>
    <g id="text_18">
     <!-- $I_{(1,1)}^{(1)}$ -->
     <g transform="translate(169.3375 135.07)scale(0.25 -0.25)">
      <use transform="translate(0 0.3875)" xlink:href="#DejaVuSans-Oblique-73"/>
      <use transform="translate(36.508958 47.8875)scale(0.7)" xlink:href="#DejaVuSans-40"/>
      <use transform="translate(63.818529 47.8875)scale(0.7)" xlink:href="#DejaVuSans-49"/>
      <use transform="translate(108.354661 47.8875)scale(0.7)" xlink:href="#DejaVuSans-41"/>
      <use transform="translate(29.492188 -26.95625)scale(0.7)" xlink:href="#DejaVuSans-40"/>
      <use transform="translate(56.801758 -26.95625)scale(0.7)" xlink:href="#DejaVuSans-49"/>
      <use transform="translate(101.337891 -26.95625)scale(0.7)" xlink:href="#DejaVuSans-44"/>
      <use transform="translate(137.226562 -26.95625)scale(0.7)" xlink:href="#DejaVuSans-49"/>
      <use transform="translate(181.762695 -26.95625)scale(0.7)" xlink:href="#DejaVuSans-41"/>
     </g>
    </g>
    <g id="line2d_36">
     <path d="M 99.3375 173.32 
L 149.3375 173.32 
" style="fill:none;stroke:#fde725;stroke-linecap:square;stroke-width:2;"/>
    </g>
    <g id="line2d_37"/>
    <g id="text_19">
     <!-- $I_{(1,1)}^{(2)}$ -->
     <g transform="translate(169.3375 182.07)scale(0.25 -0.25)">
      <use transform="translate(0 0.3875)" xlink:href="#DejaVuSans-Oblique-73"/>
      <use transform="translate(36.508958 47.8875)scale(0.7)" xlink:href="#DejaVuSans-40"/>
      <use transform="translate(63.818529 47.8875)scale(0.7)" xlink:href="#DejaVuSans-50"/>
      <use transform="translate(108.354661 47.8875)scale(0.7)" xlink:href="#DejaVuSans-41"/>
      <use transform="translate(29.492188 -26.95625)scale(0.7)" xlink:href="#DejaVuSans-40"/>
      <use transform="translate(56.801758 -26.95625)scale(0.7)" xlink:href="#DejaVuSans-49"/>
      <use transform="translate(101.337891 -26.95625)scale(0.7)" xlink:href="#DejaVuSans-44"/>
      <use transform="translate(137.226562 -26.95625)scale(0.7)" xlink:href="#DejaVuSans-49"/>
      <use transform="translate(181.762695 -26.95625)scale(0.7)" xlink:href="#DejaVuSans-41"/>
     </g>
    </g>
   </g>
  </g>
 </g>
 <defs>
  <clipPath id="p48138847eb">
   <rect height="472.32" width="420.045" x="76.8375" y="40.32"/>
  </clipPath>
 </defs>
</svg>
