<?xml version="1.0" encoding="UTF-8" standalone="no"?>
<svg
   xmlns:dc="http://purl.org/dc/elements/1.1/"
   xmlns:cc="http://creativecommons.org/ns#"
   xmlns:rdf="http://www.w3.org/1999/02/22-rdf-syntax-ns#"
   xmlns:svg="http://www.w3.org/2000/svg"
   xmlns="http://www.w3.org/2000/svg"
   xmlns:xlink="http://www.w3.org/1999/xlink"
   xmlns:sodipodi="http://sodipodi.sourceforge.net/DTD/sodipodi-0.dtd"
   xmlns:inkscape="http://www.inkscape.org/namespaces/inkscape"
   version="1.1"
   width="364"
   height="402"
   viewBox="-40 -1380 364 402"
   id="svg185"
   sodipodi:docname="Visualisation_of_a_diamond_cubic_unit_cell.svg"
   inkscape:version="0.92.4 (5da689c313, 2019-01-14)">
  <metadata
     id="metadata189">
    <rdf:RDF>
      <cc:Work
         rdf:about="">
        <dc:format>image/svg+xml</dc:format>
        <dc:type
           rdf:resource="http://purl.org/dc/dcmitype/StillImage" />
      </cc:Work>
    </rdf:RDF>
  </metadata>
  <sodipodi:namedview
     pagecolor="#ffffff"
     bordercolor="#666666"
     borderopacity="1"
     objecttolerance="10"
     gridtolerance="10"
     guidetolerance="10"
     inkscape:pageopacity="0"
     inkscape:pageshadow="2"
     inkscape:window-width="1366"
     inkscape:window-height="731"
     id="namedview187"
     showgrid="false"
     inkscape:zoom="0.67045454"
     inkscape:cx="146.97993"
     inkscape:cy="124.93874"
     inkscape:window-x="0"
     inkscape:window-y="0"
     inkscape:window-maximized="1"
     inkscape:current-layer="svg185" />
  <title
     id="title2">Visualisation of a diamond cubic unit cell</title>
  <desc
     id="desc4">Visualisation of a diamond cubic unit cell: 1. Components of a unit cell, 2. One unit cell, 3. A lattice of 3 x 3 x 3 unit cells; by CMG Lee.</desc>
  <defs
     id="defs145">
    <linearGradient
       id="grad_bond_1"
       x1="0"
       x2="1"
       y1="0"
       y2="1">
      <stop
         offset="30%"
         stop-color="#000000"
         id="stop6" />
      <stop
         offset="48%"
         stop-color="#ffffff"
         id="stop8" />
      <stop
         offset="60%"
         stop-color="#000000"
         id="stop10" />
    </linearGradient>
    <linearGradient
       id="grad_bond_2"
       x1="0.85000002"
       x2="0.2"
       y1="0"
       y2="1">
      <stop
         offset="20%"
         stop-color="#000000"
         id="stop13" />
      <stop
         offset="50%"
         stop-color="#ffffff"
         id="stop15" />
      <stop
         offset="70%"
         stop-color="#000000"
         id="stop17" />
    </linearGradient>
    <linearGradient
       id="grad_bond_3"
       x1="0"
       x2="1"
       y1="0.80000001"
       y2="0.2">
      <stop
         offset="20%"
         stop-color="#000000"
         id="stop20" />
      <stop
         offset="50%"
         stop-color="#ffffff"
         id="stop22" />
      <stop
         offset="80%"
         stop-color="#000000"
         id="stop24" />
    </linearGradient>
    <radialGradient
       id="grad_atom_1"
       cx="0.5"
       cy="0.5"
       r="0.5"
       fx="0.33000001"
       fy="0.33000001">
      <stop
         offset="10%"
         stop-color="#ffffff"
         id="stop27" />
      <stop
         offset="90%"
         stop-color="#000000"
         id="stop29" />
    </radialGradient>
    <radialGradient
       id="grad_atom_2"
       cx="0.5"
       cy="0.5"
       r="0.5"
       fx="0.33000001"
       fy="0.33000001">
      <stop
         offset="10%"
         stop-color="#ffff00"
         id="stop32" />
      <stop
         offset="90%"
         stop-color="#000000"
         id="stop34" />
    </radialGradient>
    <circle
       id="atom"
       cx="0"
       cy="0"
       r="20"
       style="fill-opacity:1" />
    <use
       id="atom_1"
       xlink:href="#atom"
       style="fill:url(#grad_atom_1)"
       x="0"
       y="0"
       width="100%"
       height="100%" />
    <use
       id="atom_2"
       xlink:href="#atom"
       style="fill:url(#grad_atom_2)"
       x="0"
       y="0"
       width="100%"
       height="100%" />
    <g
       id="bonds"
       style="fill-opacity:1;stroke:#000000">
      <path
         d="m 65,-65 -55,50 q 0,10 10,10 l 55,-50"
         id="path40"
         inkscape:connector-curvature="0"
         style="fill:url(#grad_bond_1)" />
      <path
         d="m -60,-30 50,20 q 5,13 -5,13 l -50,-20"
         id="path42"
         inkscape:connector-curvature="0"
         style="fill:url(#grad_bond_2)" />
      <path
         d="M 10,75 -2,15 Q 3,5 11,12 l 12,60"
         id="path44"
         inkscape:connector-curvature="0"
         style="fill:url(#grad_bond_3)" />
    </g>
    <g
       id="tetrahedron"
       style="stroke:#ff0000">
      <!-- <path d="M -20,10 l 40,80 z l 100,-80 z l -60,-40 z" stroke-opacity="0.5"/> -->
      <path
         d="M 20,90 80,-70 -80,-30 Z"
         id="path47"
         inkscape:connector-curvature="0"
         style="fill:#ff0000;fill-opacity:0.15" />
    </g>
    <path
       id="face_top"
       d="M 20,-10 80,-70 -20,-90 -80,-30 Z"
       inkscape:connector-curvature="0" />
    <path
       id="face_left"
       d="M 20,-10 V 90 L -80,70 V -30 Z"
       inkscape:connector-curvature="0" />
    <path
       id="face_right"
       d="M 20,-10 V 90 L 80,30 V -70 Z"
       inkscape:connector-curvature="0" />
    <g
       id="faces_back"
       style="fill:none;stroke:#0000ff;stroke-opacity:0.2">
      <use
         xlink:href="#face_top"
         transform="translate(0,100)"
         id="use53"
         x="0"
         y="0"
         width="100%"
         height="100%" />
      <use
         xlink:href="#face_left"
         transform="translate(60,-60)"
         id="use55"
         x="0"
         y="0"
         width="100%"
         height="100%" />
      <use
         xlink:href="#face_right"
         transform="translate(-100,-20)"
         id="use57"
         x="0"
         y="0"
         width="100%"
         height="100%" />
    </g>
    <g
       id="faces_front"
       style="fill:#0099ff;stroke:#0000ff">
      <use
         xlink:href="#face_top"
         id="use60"
         style="opacity:0.1"
         x="0"
         y="0"
         width="100%"
         height="100%" />
      <use
         xlink:href="#face_left"
         id="use62"
         style="opacity:0.2"
         x="0"
         y="0"
         width="100%"
         height="100%" />
      <use
         xlink:href="#face_right"
         id="use64"
         style="opacity:0.3"
         x="0"
         y="0"
         width="100%"
         height="100%" />
    </g>
    <g
       id="subcell_0">
      <use
         xlink:href="#faces_back"
         id="use67"
         x="0"
         y="0"
         width="100%"
         height="100%" />
      <use
         xlink:href="#faces_front"
         id="use69"
         x="0"
         y="0"
         width="100%"
         height="100%" />
    </g>
    <g
       id="subcell_1">
      <use
         xlink:href="#faces_back"
         id="use72"
         x="0"
         y="0"
         width="100%"
         height="100%" />
      <use
         xlink:href="#atom_1"
         transform="translate(-20,10)"
         id="use74"
         x="0"
         y="0"
         width="100%"
         height="100%" />
      <use
         xlink:href="#tetrahedron"
         id="use76"
         x="0"
         y="0"
         width="100%"
         height="100%" />
      <use
         xlink:href="#atom_2"
         id="use78"
         x="0"
         y="0"
         width="100%"
         height="100%" />
      <use
         xlink:href="#bonds"
         id="use80"
         x="0"
         y="0"
         width="100%"
         height="100%" />
      <use
         xlink:href="#tetrahedron"
         id="use82"
         x="0"
         y="0"
         width="100%"
         height="100%" />
      <use
         xlink:href="#faces_front"
         id="use84"
         x="0"
         y="0"
         width="100%"
         height="100%" />
      <use
         xlink:href="#atom_1"
         transform="translate(-80,-30)"
         id="use86"
         x="0"
         y="0"
         width="100%"
         height="100%" />
      <use
         xlink:href="#atom_1"
         transform="translate(80,-70)"
         id="use88"
         x="0"
         y="0"
         width="100%"
         height="100%" />
      <use
         xlink:href="#atom_1"
         transform="translate(20,90)"
         id="use90"
         x="0"
         y="0"
         width="100%"
         height="100%" />
    </g>
    <g
       id="cell_diamond"
       style="fill-opacity:0">
      <use
         xlink:href="#faces_front"
         transform="scale(2)"
         id="use93"
         style="fill-opacity:1"
         x="0"
         y="0"
         width="100%"
         height="100%" />
      <use
         xlink:href="#subcell_1"
         transform="translate(-20,10)"
         id="use95"
         x="0"
         y="0"
         width="100%"
         height="100%" />
      <use
         xlink:href="#subcell_0"
         transform="translate(80,30)"
         id="use97"
         x="0"
         y="0"
         width="100%"
         height="100%" />
      <use
         xlink:href="#subcell_0"
         transform="translate(-80,70)"
         id="use99"
         x="0"
         y="0"
         width="100%"
         height="100%" />
      <use
         xlink:href="#subcell_1"
         transform="translate(20,90)"
         id="use101"
         x="0"
         y="0"
         width="100%"
         height="100%" />
      <use
         xlink:href="#subcell_0"
         transform="translate(-20,-90)"
         id="use103"
         x="0"
         y="0"
         width="100%"
         height="100%" />
      <use
         xlink:href="#subcell_1"
         transform="translate(80,-70)"
         id="use105"
         x="0"
         y="0"
         width="100%"
         height="100%" />
      <use
         xlink:href="#subcell_1"
         transform="translate(-80,-30)"
         id="use107"
         x="0"
         y="0"
         width="100%"
         height="100%" />
      <use
         xlink:href="#subcell_0"
         transform="translate(20,-10)"
         id="use109"
         x="0"
         y="0"
         width="100%"
         height="100%" />
      <g
         id="g119"
         style="fill:none;stroke:#000000;stroke-width:4;stroke-dasharray:1, 8">
        <use
           xlink:href="#atom"
           transform="translate(40,-20)"
           id="use111"
           x="0"
           y="0"
           width="100%"
           height="100%" />
        <use
           xlink:href="#atom"
           transform="translate(-40,-180)"
           id="use113"
           x="0"
           y="0"
           width="100%"
           height="100%" />
        <use
           xlink:href="#atom"
           transform="translate(160,60)"
           id="use115"
           x="0"
           y="0"
           width="100%"
           height="100%" />
        <use
           xlink:href="#atom"
           transform="translate(-160,140)"
           id="use117"
           x="0"
           y="0"
           width="100%"
           height="100%" />
      </g>
      <g
         id="g123"
         style="stroke-width:4">
        <path
           d="M 40,180 160,60 V -140 L -40,-180 -160,-60 V 140 L 40,180 V -20 L 160,-140 M 40,-20 -160,-60"
           id="path121"
           inkscape:connector-curvature="0"
           style="stroke:#009900" />
        <!-- <path d="M 40,180 l 120,-320 l -320,80 z" stroke="#cc00ff"/> -->
      </g>
    </g>
    <!--
  <g id="cell_fcc">
   <use xlink:href="#subcell_1" transform="translate(-20,10)"/>
   <use xlink:href="#subcell_1" transform="translate(80,30)"/>
   <use xlink:href="#subcell_1" transform="translate(-80,70)"/>
   <use xlink:href="#subcell_1" transform="translate(20,90)"/>
   <use xlink:href="#subcell_1" transform="translate(-20,-90)"/>
   <use xlink:href="#subcell_1" transform="translate(80,-70)"/>
   <use xlink:href="#subcell_1" transform="translate(-80,-30)"/>
   <use xlink:href="#subcell_1" transform="translate(20,-10)"/>
  </g>
 -->
    <g
       id="layer_diamond">
      <use
         xlink:href="#cell_diamond"
         id="use126"
         x="0"
         y="0"
         width="100%"
         height="100%" />
      <use
         xlink:href="#cell_diamond"
         transform="translate(200,40)"
         id="use128"
         x="0"
         y="0"
         width="100%"
         height="100%" />
      <use
         xlink:href="#cell_diamond"
         transform="translate(-120,120)"
         id="use130"
         x="0"
         y="0"
         width="100%"
         height="100%" />
      <use
         xlink:href="#cell_diamond"
         transform="translate(-240,240)"
         id="use132"
         x="0"
         y="0"
         width="100%"
         height="100%" />
      <use
         xlink:href="#cell_diamond"
         transform="translate(80,160)"
         id="use134"
         x="0"
         y="0"
         width="100%"
         height="100%" />
      <use
         xlink:href="#cell_diamond"
         transform="translate(400,80)"
         id="use136"
         x="0"
         y="0"
         width="100%"
         height="100%" />
      <use
         xlink:href="#cell_diamond"
         transform="translate(280,200)"
         id="use138"
         x="0"
         y="0"
         width="100%"
         height="100%" />
      <use
         xlink:href="#cell_diamond"
         transform="translate(-40,280)"
         id="use140"
         x="0"
         y="0"
         width="100%"
         height="100%" />
      <use
         xlink:href="#cell_diamond"
         transform="translate(160,320)"
         id="use142"
         x="0"
         y="0"
         width="100%"
         height="100%" />
    </g>
  </defs>
  <use
     style="font-size:80px;font-family:sans-serif;text-anchor:middle;fill:#000000;stroke:none;stroke-linecap:round;stroke-linejoin:round"
     xlink:href="#cell_diamond"
     id="use171"
     x="0"
     y="0"
     width="100%"
     height="100%"
     transform="translate(142,-1178)" />
</svg>
