<?xml version="1.0" encoding="utf-8" standalone="no"?>
<!DOCTYPE svg PUBLIC "-//W3C//DTD SVG 1.1//EN"
  "http://www.w3.org/Graphics/SVG/1.1/DTD/svg11.dtd">
<!-- Created with matplotlib (https://matplotlib.org/) -->
<svg height="576pt" version="1.1" viewBox="0 0 1024.5 576" width="1024.5pt" xmlns="http://www.w3.org/2000/svg" xmlns:xlink="http://www.w3.org/1999/xlink">
 <defs>
  <style type="text/css">
*{stroke-linecap:butt;stroke-linejoin:round;}
  </style>
 </defs>
 <g id="figure_1">
  <g id="patch_1">
   <path d="M 0 576 
L 1024.5 576 
L 1024.5 0 
L 0 0 
z
" style="fill:#ffffff;"/>
  </g>
  <g id="axes_1">
   <g id="patch_2">
    <path d="M 128.0625 512.64 
L 922.05 512.64 
L 922.05 69.12 
L 128.0625 69.12 
z
" style="fill:#ffffff;"/>
   </g>
   <g id="matplotlib.axis_1">
    <g id="xtick_1">
     <g id="line2d_1">
      <path clip-path="url(#p839b1d087a)" d="M 164.152841 512.64 
L 164.152841 69.12 
" style="fill:none;stroke:#e6e6e6;stroke-linecap:square;stroke-width:0.8;"/>
     </g>
     <g id="line2d_2">
      <defs>
       <path d="M 0 0 
L 0 3.5 
" id="m42b69d019d" style="stroke:#000000;stroke-width:0.8;"/>
      </defs>
      <g>
       <use style="stroke:#000000;stroke-width:0.8;" x="164.152841" xlink:href="#m42b69d019d" y="512.64"/>
      </g>
     </g>
     <g id="text_1">
      <!-- 0 -->
      <defs>
       <path d="M 31.78125 66.40625 
Q 24.171875 66.40625 20.328125 58.90625 
Q 16.5 51.421875 16.5 36.375 
Q 16.5 21.390625 20.328125 13.890625 
Q 24.171875 6.390625 31.78125 6.390625 
Q 39.453125 6.390625 43.28125 13.890625 
Q 47.125 21.390625 47.125 36.375 
Q 47.125 51.421875 43.28125 58.90625 
Q 39.453125 66.40625 31.78125 66.40625 
z
M 31.78125 74.21875 
Q 44.046875 74.21875 50.515625 64.515625 
Q 56.984375 54.828125 56.984375 36.375 
Q 56.984375 17.96875 50.515625 8.265625 
Q 44.046875 -1.421875 31.78125 -1.421875 
Q 19.53125 -1.421875 13.0625 8.265625 
Q 6.59375 17.96875 6.59375 36.375 
Q 6.59375 54.828125 13.0625 64.515625 
Q 19.53125 74.21875 31.78125 74.21875 
z
" id="DejaVuSans-48"/>
      </defs>
      <g transform="translate(159.380966 531.037656)scale(0.15 -0.15)">
       <use xlink:href="#DejaVuSans-48"/>
      </g>
     </g>
    </g>
    <g id="xtick_2">
     <g id="line2d_3">
      <path clip-path="url(#p839b1d087a)" d="M 284.453977 512.64 
L 284.453977 69.12 
" style="fill:none;stroke:#e6e6e6;stroke-linecap:square;stroke-width:0.8;"/>
     </g>
     <g id="line2d_4">
      <g>
       <use style="stroke:#000000;stroke-width:0.8;" x="284.453977" xlink:href="#m42b69d019d" y="512.64"/>
      </g>
     </g>
     <g id="text_2">
      <!-- 5 -->
      <defs>
       <path d="M 10.796875 72.90625 
L 49.515625 72.90625 
L 49.515625 64.59375 
L 19.828125 64.59375 
L 19.828125 46.734375 
Q 21.96875 47.46875 24.109375 47.828125 
Q 26.265625 48.1875 28.421875 48.1875 
Q 40.625 48.1875 47.75 41.5 
Q 54.890625 34.8125 54.890625 23.390625 
Q 54.890625 11.625 47.5625 5.09375 
Q 40.234375 -1.421875 26.90625 -1.421875 
Q 22.3125 -1.421875 17.546875 -0.640625 
Q 12.796875 0.140625 7.71875 1.703125 
L 7.71875 11.625 
Q 12.109375 9.234375 16.796875 8.0625 
Q 21.484375 6.890625 26.703125 6.890625 
Q 35.15625 6.890625 40.078125 11.328125 
Q 45.015625 15.765625 45.015625 23.390625 
Q 45.015625 31 40.078125 35.4375 
Q 35.15625 39.890625 26.703125 39.890625 
Q 22.75 39.890625 18.8125 39.015625 
Q 14.890625 38.140625 10.796875 36.28125 
z
" id="DejaVuSans-53"/>
      </defs>
      <g transform="translate(279.682102 531.037656)scale(0.15 -0.15)">
       <use xlink:href="#DejaVuSans-53"/>
      </g>
     </g>
    </g>
    <g id="xtick_3">
     <g id="line2d_5">
      <path clip-path="url(#p839b1d087a)" d="M 404.755114 512.64 
L 404.755114 69.12 
" style="fill:none;stroke:#e6e6e6;stroke-linecap:square;stroke-width:0.8;"/>
     </g>
     <g id="line2d_6">
      <g>
       <use style="stroke:#000000;stroke-width:0.8;" x="404.755114" xlink:href="#m42b69d019d" y="512.64"/>
      </g>
     </g>
     <g id="text_3">
      <!-- 10 -->
      <defs>
       <path d="M 12.40625 8.296875 
L 28.515625 8.296875 
L 28.515625 63.921875 
L 10.984375 60.40625 
L 10.984375 69.390625 
L 28.421875 72.90625 
L 38.28125 72.90625 
L 38.28125 8.296875 
L 54.390625 8.296875 
L 54.390625 0 
L 12.40625 0 
z
" id="DejaVuSans-49"/>
      </defs>
      <g transform="translate(395.211364 531.037656)scale(0.15 -0.15)">
       <use xlink:href="#DejaVuSans-49"/>
       <use x="63.623047" xlink:href="#DejaVuSans-48"/>
      </g>
     </g>
    </g>
    <g id="xtick_4">
     <g id="line2d_7">
      <path clip-path="url(#p839b1d087a)" d="M 525.05625 512.64 
L 525.05625 69.12 
" style="fill:none;stroke:#e6e6e6;stroke-linecap:square;stroke-width:0.8;"/>
     </g>
     <g id="line2d_8">
      <g>
       <use style="stroke:#000000;stroke-width:0.8;" x="525.05625" xlink:href="#m42b69d019d" y="512.64"/>
      </g>
     </g>
     <g id="text_4">
      <!-- 15 -->
      <g transform="translate(515.5125 531.037656)scale(0.15 -0.15)">
       <use xlink:href="#DejaVuSans-49"/>
       <use x="63.623047" xlink:href="#DejaVuSans-53"/>
      </g>
     </g>
    </g>
    <g id="xtick_5">
     <g id="line2d_9">
      <path clip-path="url(#p839b1d087a)" d="M 645.357386 512.64 
L 645.357386 69.12 
" style="fill:none;stroke:#e6e6e6;stroke-linecap:square;stroke-width:0.8;"/>
     </g>
     <g id="line2d_10">
      <g>
       <use style="stroke:#000000;stroke-width:0.8;" x="645.357386" xlink:href="#m42b69d019d" y="512.64"/>
      </g>
     </g>
     <g id="text_5">
      <!-- 20 -->
      <defs>
       <path d="M 19.1875 8.296875 
L 53.609375 8.296875 
L 53.609375 0 
L 7.328125 0 
L 7.328125 8.296875 
Q 12.9375 14.109375 22.625 23.890625 
Q 32.328125 33.6875 34.8125 36.53125 
Q 39.546875 41.84375 41.421875 45.53125 
Q 43.3125 49.21875 43.3125 52.78125 
Q 43.3125 58.59375 39.234375 62.25 
Q 35.15625 65.921875 28.609375 65.921875 
Q 23.96875 65.921875 18.8125 64.3125 
Q 13.671875 62.703125 7.8125 59.421875 
L 7.8125 69.390625 
Q 13.765625 71.78125 18.9375 73 
Q 24.125 74.21875 28.421875 74.21875 
Q 39.75 74.21875 46.484375 68.546875 
Q 53.21875 62.890625 53.21875 53.421875 
Q 53.21875 48.921875 51.53125 44.890625 
Q 49.859375 40.875 45.40625 35.40625 
Q 44.1875 33.984375 37.640625 27.21875 
Q 31.109375 20.453125 19.1875 8.296875 
z
" id="DejaVuSans-50"/>
      </defs>
      <g transform="translate(635.813636 531.037656)scale(0.15 -0.15)">
       <use xlink:href="#DejaVuSans-50"/>
       <use x="63.623047" xlink:href="#DejaVuSans-48"/>
      </g>
     </g>
    </g>
    <g id="xtick_6">
     <g id="line2d_11">
      <path clip-path="url(#p839b1d087a)" d="M 765.658523 512.64 
L 765.658523 69.12 
" style="fill:none;stroke:#e6e6e6;stroke-linecap:square;stroke-width:0.8;"/>
     </g>
     <g id="line2d_12">
      <g>
       <use style="stroke:#000000;stroke-width:0.8;" x="765.658523" xlink:href="#m42b69d019d" y="512.64"/>
      </g>
     </g>
     <g id="text_6">
      <!-- 25 -->
      <g transform="translate(756.114773 531.037656)scale(0.15 -0.15)">
       <use xlink:href="#DejaVuSans-50"/>
       <use x="63.623047" xlink:href="#DejaVuSans-53"/>
      </g>
     </g>
    </g>
    <g id="xtick_7">
     <g id="line2d_13">
      <path clip-path="url(#p839b1d087a)" d="M 885.959659 512.64 
L 885.959659 69.12 
" style="fill:none;stroke:#e6e6e6;stroke-linecap:square;stroke-width:0.8;"/>
     </g>
     <g id="line2d_14">
      <g>
       <use style="stroke:#000000;stroke-width:0.8;" x="885.959659" xlink:href="#m42b69d019d" y="512.64"/>
      </g>
     </g>
     <g id="text_7">
      <!-- 30 -->
      <defs>
       <path d="M 40.578125 39.3125 
Q 47.65625 37.796875 51.625 33 
Q 55.609375 28.21875 55.609375 21.1875 
Q 55.609375 10.40625 48.1875 4.484375 
Q 40.765625 -1.421875 27.09375 -1.421875 
Q 22.515625 -1.421875 17.65625 -0.515625 
Q 12.796875 0.390625 7.625 2.203125 
L 7.625 11.71875 
Q 11.71875 9.328125 16.59375 8.109375 
Q 21.484375 6.890625 26.8125 6.890625 
Q 36.078125 6.890625 40.9375 10.546875 
Q 45.796875 14.203125 45.796875 21.1875 
Q 45.796875 27.640625 41.28125 31.265625 
Q 36.765625 34.90625 28.71875 34.90625 
L 20.21875 34.90625 
L 20.21875 43.015625 
L 29.109375 43.015625 
Q 36.375 43.015625 40.234375 45.921875 
Q 44.09375 48.828125 44.09375 54.296875 
Q 44.09375 59.90625 40.109375 62.90625 
Q 36.140625 65.921875 28.71875 65.921875 
Q 24.65625 65.921875 20.015625 65.03125 
Q 15.375 64.15625 9.8125 62.3125 
L 9.8125 71.09375 
Q 15.4375 72.65625 20.34375 73.4375 
Q 25.25 74.21875 29.59375 74.21875 
Q 40.828125 74.21875 47.359375 69.109375 
Q 53.90625 64.015625 53.90625 55.328125 
Q 53.90625 49.265625 50.4375 45.09375 
Q 46.96875 40.921875 40.578125 39.3125 
z
" id="DejaVuSans-51"/>
      </defs>
      <g transform="translate(876.415909 531.037656)scale(0.15 -0.15)">
       <use xlink:href="#DejaVuSans-51"/>
       <use x="63.623047" xlink:href="#DejaVuSans-48"/>
      </g>
     </g>
    </g>
    <g id="text_8">
     <!-- $q(A)$ -->
     <defs>
      <path d="M 41.703125 8.203125 
Q 38.09375 3.46875 33.171875 1.015625 
Q 28.265625 -1.421875 22.3125 -1.421875 
Q 14.015625 -1.421875 9.296875 4.171875 
Q 4.59375 9.765625 4.59375 19.578125 
Q 4.59375 27.484375 7.5 34.859375 
Q 10.40625 42.234375 15.828125 48.09375 
Q 19.34375 51.90625 23.90625 53.953125 
Q 28.46875 56 33.5 56 
Q 39.546875 56 43.453125 53.609375 
Q 47.359375 51.21875 49.125 46.390625 
L 50.6875 54.59375 
L 59.71875 54.59375 
L 45.125 -20.609375 
L 36.078125 -20.609375 
z
M 13.921875 20.90625 
Q 13.921875 13.671875 16.9375 9.890625 
Q 19.96875 6.109375 25.6875 6.109375 
Q 34.1875 6.109375 40.1875 14.234375 
Q 46.1875 22.359375 46.1875 33.984375 
Q 46.1875 41.015625 43.078125 44.75 
Q 39.984375 48.484375 34.1875 48.484375 
Q 29.9375 48.484375 26.3125 46.5 
Q 22.703125 44.53125 20.015625 40.71875 
Q 17.1875 36.71875 15.546875 31.34375 
Q 13.921875 25.984375 13.921875 20.90625 
z
" id="DejaVuSans-Oblique-113"/>
      <path d="M 31 75.875 
Q 24.46875 64.65625 21.28125 53.65625 
Q 18.109375 42.671875 18.109375 31.390625 
Q 18.109375 20.125 21.3125 9.0625 
Q 24.515625 -2 31 -13.1875 
L 23.1875 -13.1875 
Q 15.875 -1.703125 12.234375 9.375 
Q 8.59375 20.453125 8.59375 31.390625 
Q 8.59375 42.28125 12.203125 53.3125 
Q 15.828125 64.359375 23.1875 75.875 
z
" id="DejaVuSans-40"/>
      <path d="M 36.8125 72.90625 
L 48 72.90625 
L 61.53125 0 
L 51.21875 0 
L 48.1875 18.703125 
L 15.375 18.703125 
L 5.078125 0 
L -5.328125 0 
z
M 40.375 63.1875 
L 19.921875 26.90625 
L 46.6875 26.90625 
z
" id="DejaVuSans-Oblique-65"/>
      <path d="M 8.015625 75.875 
L 15.828125 75.875 
Q 23.140625 64.359375 26.78125 53.3125 
Q 30.421875 42.28125 30.421875 31.390625 
Q 30.421875 20.453125 26.78125 9.375 
Q 23.140625 -1.703125 15.828125 -13.1875 
L 8.015625 -13.1875 
Q 14.5 -2 17.703125 9.0625 
Q 20.90625 20.125 20.90625 31.390625 
Q 20.90625 42.671875 17.703125 53.65625 
Q 14.5 64.65625 8.015625 75.875 
z
" id="DejaVuSans-41"/>
     </defs>
     <g transform="translate(493.55625 560.957188)scale(0.3 -0.3)">
      <use transform="translate(0 0.125)" xlink:href="#DejaVuSans-Oblique-113"/>
      <use transform="translate(63.476562 0.125)" xlink:href="#DejaVuSans-40"/>
      <use transform="translate(102.490234 0.125)" xlink:href="#DejaVuSans-Oblique-65"/>
      <use transform="translate(170.898438 0.125)" xlink:href="#DejaVuSans-41"/>
     </g>
    </g>
   </g>
   <g id="matplotlib.axis_2">
    <g id="ytick_1">
     <g id="line2d_15">
      <path clip-path="url(#p839b1d087a)" d="M 128.0625 492.512894 
L 922.05 492.512894 
" style="fill:none;stroke:#e6e6e6;stroke-linecap:square;stroke-width:0.8;"/>
     </g>
     <g id="line2d_16">
      <defs>
       <path d="M 0 0 
L -3.5 0 
" id="m655466c315" style="stroke:#000000;stroke-width:0.8;"/>
      </defs>
      <g>
       <use style="stroke:#000000;stroke-width:0.8;" x="128.0625" xlink:href="#m655466c315" y="492.512894"/>
      </g>
     </g>
     <g id="text_9">
      <!-- 0 -->
      <g transform="translate(111.51875 498.211722)scale(0.15 -0.15)">
       <use xlink:href="#DejaVuSans-48"/>
      </g>
     </g>
    </g>
    <g id="ytick_2">
     <g id="line2d_17">
      <path clip-path="url(#p839b1d087a)" d="M 128.0625 442.108152 
L 922.05 442.108152 
" style="fill:none;stroke:#e6e6e6;stroke-linecap:square;stroke-width:0.8;"/>
     </g>
     <g id="line2d_18">
      <g>
       <use style="stroke:#000000;stroke-width:0.8;" x="128.0625" xlink:href="#m655466c315" y="442.108152"/>
      </g>
     </g>
     <g id="text_10">
      <!-- 2 -->
      <g transform="translate(111.51875 447.80698)scale(0.15 -0.15)">
       <use xlink:href="#DejaVuSans-50"/>
      </g>
     </g>
    </g>
    <g id="ytick_3">
     <g id="line2d_19">
      <path clip-path="url(#p839b1d087a)" d="M 128.0625 391.70341 
L 922.05 391.70341 
" style="fill:none;stroke:#e6e6e6;stroke-linecap:square;stroke-width:0.8;"/>
     </g>
     <g id="line2d_20">
      <g>
       <use style="stroke:#000000;stroke-width:0.8;" x="128.0625" xlink:href="#m655466c315" y="391.70341"/>
      </g>
     </g>
     <g id="text_11">
      <!-- 4 -->
      <defs>
       <path d="M 37.796875 64.3125 
L 12.890625 25.390625 
L 37.796875 25.390625 
z
M 35.203125 72.90625 
L 47.609375 72.90625 
L 47.609375 25.390625 
L 58.015625 25.390625 
L 58.015625 17.1875 
L 47.609375 17.1875 
L 47.609375 0 
L 37.796875 0 
L 37.796875 17.1875 
L 4.890625 17.1875 
L 4.890625 26.703125 
z
" id="DejaVuSans-52"/>
      </defs>
      <g transform="translate(111.51875 397.402238)scale(0.15 -0.15)">
       <use xlink:href="#DejaVuSans-52"/>
      </g>
     </g>
    </g>
    <g id="ytick_4">
     <g id="line2d_21">
      <path clip-path="url(#p839b1d087a)" d="M 128.0625 341.298668 
L 922.05 341.298668 
" style="fill:none;stroke:#e6e6e6;stroke-linecap:square;stroke-width:0.8;"/>
     </g>
     <g id="line2d_22">
      <g>
       <use style="stroke:#000000;stroke-width:0.8;" x="128.0625" xlink:href="#m655466c315" y="341.298668"/>
      </g>
     </g>
     <g id="text_12">
      <!-- 6 -->
      <defs>
       <path d="M 33.015625 40.375 
Q 26.375 40.375 22.484375 35.828125 
Q 18.609375 31.296875 18.609375 23.390625 
Q 18.609375 15.53125 22.484375 10.953125 
Q 26.375 6.390625 33.015625 6.390625 
Q 39.65625 6.390625 43.53125 10.953125 
Q 47.40625 15.53125 47.40625 23.390625 
Q 47.40625 31.296875 43.53125 35.828125 
Q 39.65625 40.375 33.015625 40.375 
z
M 52.59375 71.296875 
L 52.59375 62.3125 
Q 48.875 64.0625 45.09375 64.984375 
Q 41.3125 65.921875 37.59375 65.921875 
Q 27.828125 65.921875 22.671875 59.328125 
Q 17.53125 52.734375 16.796875 39.40625 
Q 19.671875 43.65625 24.015625 45.921875 
Q 28.375 48.1875 33.59375 48.1875 
Q 44.578125 48.1875 50.953125 41.515625 
Q 57.328125 34.859375 57.328125 23.390625 
Q 57.328125 12.15625 50.6875 5.359375 
Q 44.046875 -1.421875 33.015625 -1.421875 
Q 20.359375 -1.421875 13.671875 8.265625 
Q 6.984375 17.96875 6.984375 36.375 
Q 6.984375 53.65625 15.1875 63.9375 
Q 23.390625 74.21875 37.203125 74.21875 
Q 40.921875 74.21875 44.703125 73.484375 
Q 48.484375 72.75 52.59375 71.296875 
z
" id="DejaVuSans-54"/>
      </defs>
      <g transform="translate(111.51875 346.997496)scale(0.15 -0.15)">
       <use xlink:href="#DejaVuSans-54"/>
      </g>
     </g>
    </g>
    <g id="ytick_5">
     <g id="line2d_23">
      <path clip-path="url(#p839b1d087a)" d="M 128.0625 290.893927 
L 922.05 290.893927 
" style="fill:none;stroke:#e6e6e6;stroke-linecap:square;stroke-width:0.8;"/>
     </g>
     <g id="line2d_24">
      <g>
       <use style="stroke:#000000;stroke-width:0.8;" x="128.0625" xlink:href="#m655466c315" y="290.893927"/>
      </g>
     </g>
     <g id="text_13">
      <!-- 8 -->
      <defs>
       <path d="M 31.78125 34.625 
Q 24.75 34.625 20.71875 30.859375 
Q 16.703125 27.09375 16.703125 20.515625 
Q 16.703125 13.921875 20.71875 10.15625 
Q 24.75 6.390625 31.78125 6.390625 
Q 38.8125 6.390625 42.859375 10.171875 
Q 46.921875 13.96875 46.921875 20.515625 
Q 46.921875 27.09375 42.890625 30.859375 
Q 38.875 34.625 31.78125 34.625 
z
M 21.921875 38.8125 
Q 15.578125 40.375 12.03125 44.71875 
Q 8.5 49.078125 8.5 55.328125 
Q 8.5 64.0625 14.71875 69.140625 
Q 20.953125 74.21875 31.78125 74.21875 
Q 42.671875 74.21875 48.875 69.140625 
Q 55.078125 64.0625 55.078125 55.328125 
Q 55.078125 49.078125 51.53125 44.71875 
Q 48 40.375 41.703125 38.8125 
Q 48.828125 37.15625 52.796875 32.3125 
Q 56.78125 27.484375 56.78125 20.515625 
Q 56.78125 9.90625 50.3125 4.234375 
Q 43.84375 -1.421875 31.78125 -1.421875 
Q 19.734375 -1.421875 13.25 4.234375 
Q 6.78125 9.90625 6.78125 20.515625 
Q 6.78125 27.484375 10.78125 32.3125 
Q 14.796875 37.15625 21.921875 38.8125 
z
M 18.3125 54.390625 
Q 18.3125 48.734375 21.84375 45.5625 
Q 25.390625 42.390625 31.78125 42.390625 
Q 38.140625 42.390625 41.71875 45.5625 
Q 45.3125 48.734375 45.3125 54.390625 
Q 45.3125 60.0625 41.71875 63.234375 
Q 38.140625 66.40625 31.78125 66.40625 
Q 25.390625 66.40625 21.84375 63.234375 
Q 18.3125 60.0625 18.3125 54.390625 
z
" id="DejaVuSans-56"/>
      </defs>
      <g transform="translate(111.51875 296.592755)scale(0.15 -0.15)">
       <use xlink:href="#DejaVuSans-56"/>
      </g>
     </g>
    </g>
    <g id="ytick_6">
     <g id="line2d_25">
      <path clip-path="url(#p839b1d087a)" d="M 128.0625 240.489185 
L 922.05 240.489185 
" style="fill:none;stroke:#e6e6e6;stroke-linecap:square;stroke-width:0.8;"/>
     </g>
     <g id="line2d_26">
      <g>
       <use style="stroke:#000000;stroke-width:0.8;" x="128.0625" xlink:href="#m655466c315" y="240.489185"/>
      </g>
     </g>
     <g id="text_14">
      <!-- 10 -->
      <g transform="translate(101.975 246.188013)scale(0.15 -0.15)">
       <use xlink:href="#DejaVuSans-49"/>
       <use x="63.623047" xlink:href="#DejaVuSans-48"/>
      </g>
     </g>
    </g>
    <g id="ytick_7">
     <g id="line2d_27">
      <path clip-path="url(#p839b1d087a)" d="M 128.0625 190.084443 
L 922.05 190.084443 
" style="fill:none;stroke:#e6e6e6;stroke-linecap:square;stroke-width:0.8;"/>
     </g>
     <g id="line2d_28">
      <g>
       <use style="stroke:#000000;stroke-width:0.8;" x="128.0625" xlink:href="#m655466c315" y="190.084443"/>
      </g>
     </g>
     <g id="text_15">
      <!-- 12 -->
      <g transform="translate(101.975 195.783271)scale(0.15 -0.15)">
       <use xlink:href="#DejaVuSans-49"/>
       <use x="63.623047" xlink:href="#DejaVuSans-50"/>
      </g>
     </g>
    </g>
    <g id="ytick_8">
     <g id="line2d_29">
      <path clip-path="url(#p839b1d087a)" d="M 128.0625 139.679701 
L 922.05 139.679701 
" style="fill:none;stroke:#e6e6e6;stroke-linecap:square;stroke-width:0.8;"/>
     </g>
     <g id="line2d_30">
      <g>
       <use style="stroke:#000000;stroke-width:0.8;" x="128.0625" xlink:href="#m655466c315" y="139.679701"/>
      </g>
     </g>
     <g id="text_16">
      <!-- 14 -->
      <g transform="translate(101.975 145.378529)scale(0.15 -0.15)">
       <use xlink:href="#DejaVuSans-49"/>
       <use x="63.623047" xlink:href="#DejaVuSans-52"/>
      </g>
     </g>
    </g>
    <g id="ytick_9">
     <g id="line2d_31">
      <path clip-path="url(#p839b1d087a)" d="M 128.0625 89.27496 
L 922.05 89.27496 
" style="fill:none;stroke:#e6e6e6;stroke-linecap:square;stroke-width:0.8;"/>
     </g>
     <g id="line2d_32">
      <g>
       <use style="stroke:#000000;stroke-width:0.8;" x="128.0625" xlink:href="#m655466c315" y="89.27496"/>
      </g>
     </g>
     <g id="text_17">
      <!-- 16 -->
      <g transform="translate(101.975 94.973788)scale(0.15 -0.15)">
       <use xlink:href="#DejaVuSans-49"/>
       <use x="63.623047" xlink:href="#DejaVuSans-54"/>
      </g>
     </g>
    </g>
    <g id="text_18">
     <!-- $f^e(A)$ -->
     <defs>
      <path d="M 47.796875 75.984375 
L 46.390625 68.5 
L 37.796875 68.5 
Q 32.90625 68.5 30.6875 66.578125 
Q 28.46875 64.65625 27.390625 59.515625 
L 26.421875 54.6875 
L 41.21875 54.6875 
L 39.890625 47.703125 
L 25.09375 47.703125 
L 15.828125 0 
L 6.78125 0 
L 16.109375 47.703125 
L 7.515625 47.703125 
L 8.796875 54.6875 
L 17.390625 54.6875 
L 18.109375 58.5 
Q 19.96875 68.171875 24.625 72.078125 
Q 29.296875 75.984375 39.3125 75.984375 
z
" id="DejaVuSans-Oblique-102"/>
      <path d="M 48.09375 32.234375 
Q 48.25 33.015625 48.3125 33.84375 
Q 48.390625 34.671875 48.390625 35.5 
Q 48.390625 41.453125 44.890625 44.921875 
Q 41.40625 48.390625 35.40625 48.390625 
Q 28.71875 48.390625 23.578125 44.15625 
Q 18.453125 39.9375 15.828125 32.171875 
z
M 55.90625 25.203125 
L 14.109375 25.203125 
Q 13.8125 23.34375 13.71875 22.265625 
Q 13.625 21.1875 13.625 20.40625 
Q 13.625 13.625 17.796875 9.90625 
Q 21.96875 6.203125 29.59375 6.203125 
Q 35.453125 6.203125 40.671875 7.515625 
Q 45.90625 8.84375 50.390625 11.375 
L 48.6875 2.484375 
Q 43.84375 0.53125 38.6875 -0.4375 
Q 33.546875 -1.421875 28.21875 -1.421875 
Q 16.84375 -1.421875 10.71875 4.015625 
Q 4.59375 9.46875 4.59375 19.484375 
Q 4.59375 28.03125 7.640625 35.375 
Q 10.6875 42.71875 16.609375 48.484375 
Q 20.40625 52.09375 25.65625 54.046875 
Q 30.90625 56 36.8125 56 
Q 46.09375 56 51.578125 50.4375 
Q 57.078125 44.875 57.078125 35.5 
Q 57.078125 33.25 56.78125 30.6875 
Q 56.5 28.125 55.90625 25.203125 
z
" id="DejaVuSans-Oblique-101"/>
     </defs>
     <g transform="translate(91.735937 326.13)rotate(-90)scale(0.3 -0.3)">
      <use transform="translate(0 0.51875)" xlink:href="#DejaVuSans-Oblique-102"/>
      <use transform="translate(42.652786 38.8)scale(0.7)" xlink:href="#DejaVuSans-Oblique-101"/>
      <use transform="translate(88.453568 0.51875)" xlink:href="#DejaVuSans-40"/>
      <use transform="translate(127.46724 0.51875)" xlink:href="#DejaVuSans-Oblique-65"/>
      <use transform="translate(195.875443 0.51875)" xlink:href="#DejaVuSans-41"/>
     </g>
    </g>
   </g>
   <g id="line2d_33">
    <path clip-path="url(#p839b1d087a)" d="M 164.152841 467.313749 
L 171.443819 467.633307 
L 178.734797 468.557141 
L 186.025775 469.988434 
L 193.316753 471.788895 
L 200.607731 473.805382 
L 207.898709 475.894785 
L 215.189687 477.941285 
L 222.480665 479.86371 
L 229.771643 481.614311 
L 237.062621 483.172283 
L 244.353598 484.535614 
L 251.644576 485.713769 
L 258.935554 486.722323 
L 266.226532 487.579527 
L 273.51751 488.304293 
L 280.808488 488.915028 
L 288.099466 489.428913 
L 295.390444 489.86144 
L 302.681422 490.226155 
L 309.9724 490.534581 
L 317.263378 490.796299 
L 324.554356 491.019142 
L 331.845334 491.209464 
L 339.136312 491.372414 
L 346.42729 491.512194 
L 353.718268 491.632275 
L 361.009246 491.735565 
L 368.300224 491.824532 
L 375.591202 491.901293 
L 382.88218 491.967668 
L 390.173158 492.025228 
L 397.464136 492.075318 
L 404.755114 492.119089 
L 412.046092 492.157513 
L 419.33707 492.191408 
L 426.628048 492.221454 
L 433.919025 492.248213 
L 441.210003 492.272148 
L 448.500981 492.293638 
L 455.791959 492.312991 
L 463.082937 492.330461 
L 470.373915 492.346257 
L 477.664893 492.360553 
L 484.955871 492.373494 
L 492.246849 492.385205 
L 499.537827 492.395795 
L 506.828805 492.405358 
L 514.119783 492.41398 
L 521.410761 492.42174 
L 528.701739 492.428708 
L 535.992717 492.434951 
L 543.283695 492.44053 
L 550.574673 492.445504 
L 557.865651 492.449926 
L 565.156629 492.453847 
L 572.447607 492.457314 
L 579.738585 492.460371 
L 587.029563 492.46306 
L 594.320541 492.465418 
L 601.611519 492.467479 
L 608.902497 492.469277 
L 616.193475 492.47084 
L 623.484452 492.472195 
L 630.77543 492.473367 
L 638.066408 492.474378 
L 645.357386 492.475246 
L 652.648364 492.475991 
L 659.939342 492.476628 
L 667.23032 492.477171 
L 674.521298 492.477633 
L 681.812276 492.478025 
L 689.103254 492.478356 
L 696.394232 492.478635 
L 703.68521 492.47887 
L 710.976188 492.479067 
L 718.267166 492.479232 
L 725.558144 492.479369 
L 732.849122 492.479484 
L 740.1401 492.479578 
L 747.431078 492.479657 
L 754.722056 492.479722 
L 762.013034 492.479775 
L 769.304012 492.479819 
L 776.59499 492.479854 
L 783.885968 492.479884 
L 791.176946 492.479907 
L 798.467924 492.479927 
L 805.758902 492.479942 
L 813.049879 492.479955 
L 820.340857 492.479965 
L 827.631835 492.479973 
L 834.922813 492.47998 
L 842.213791 492.479985 
L 849.504769 492.479989 
L 856.795747 492.479992 
L 864.086725 492.479995 
L 871.377703 492.479997 
L 878.668681 492.479999 
L 885.959659 492.48 
" style="fill:none;stroke:#cccccc;stroke-linecap:square;stroke-width:2;"/>
   </g>
   <g id="line2d_34">
    <path clip-path="url(#p839b1d087a)" d="M 164.152841 341.31883 
L 171.443819 342.830622 
L 178.734797 347.198023 
L 186.025775 353.955329 
L 193.316753 362.440278 
L 200.607731 371.924069 
L 207.898709 381.730919 
L 215.189687 391.318453 
L 222.480665 400.309365 
L 229.771643 408.482452 
L 237.062621 415.740396 
L 244.353598 422.071616 
L 251.644576 427.517487 
L 258.935554 432.149048 
L 266.226532 436.052335 
L 273.51751 439.319466 
L 280.808488 442.042869 
L 288.099466 444.311104 
L 295.390444 446.205743 
L 302.681422 447.799275 
L 309.9724 449.154046 
L 317.263378 450.322169 
L 324.554356 451.346173 
L 331.845334 452.260113 
L 339.136312 453.090871 
L 346.42729 453.859455 
L 353.718268 454.582157 
L 361.009246 455.271546 
L 368.300224 455.937252 
L 375.591202 456.586594 
L 382.88218 457.225068 
L 390.173158 457.856725 
L 397.464136 458.484472 
L 404.755114 459.110308 
L 412.046092 459.735527 
L 419.33707 460.360867 
L 426.628048 460.986644 
L 433.919025 461.612857 
L 441.210003 462.239268 
L 448.500981 462.865474 
L 455.791959 463.490952 
L 463.082937 464.115105 
L 470.373915 464.737289 
L 477.664893 465.356837 
L 484.955871 465.973073 
L 492.246849 466.585326 
L 499.537827 467.192939 
L 506.828805 467.795273 
L 514.119783 468.391713 
L 521.410761 468.981672 
L 528.701739 469.564589 
L 535.992717 470.139935 
L 543.283695 470.707212 
L 550.574673 471.265953 
L 557.865651 471.815724 
L 565.156629 472.356122 
L 572.447607 472.886777 
L 579.738585 473.407352 
L 587.029563 473.917541 
L 594.320541 474.417068 
L 601.611519 474.905691 
L 608.902497 475.383197 
L 616.193475 475.849403 
L 623.484452 476.304155 
L 630.77543 476.747328 
L 638.066408 477.178823 
L 645.357386 477.598571 
L 652.648364 478.006525 
L 659.939342 478.402666 
L 667.23032 478.786996 
L 674.521298 479.159542 
L 681.812276 479.520352 
L 689.103254 479.869494 
L 696.394232 480.207057 
L 703.68521 480.533145 
L 710.976188 480.847884 
L 718.267166 481.151412 
L 725.558144 481.443883 
L 732.849122 481.725467 
L 740.1401 481.996343 
L 747.431078 482.256706 
L 754.722056 482.506757 
L 762.013034 482.746709 
L 769.304012 482.976783 
L 776.59499 483.197209 
L 783.885968 483.408219 
L 791.176946 483.610056 
L 798.467924 483.802963 
L 805.758902 483.987189 
L 813.049879 484.162985 
L 820.340857 484.330605 
L 827.631835 484.490304 
L 834.922813 484.642337 
L 842.213791 484.786958 
L 849.504769 484.924423 
L 856.795747 485.054983 
L 864.086725 485.17889 
L 871.377703 485.296392 
L 878.668681 485.407735 
L 885.959659 485.51316 
" style="fill:none;stroke:#999999;stroke-linecap:square;stroke-width:2;"/>
   </g>
   <g id="line2d_35">
    <path clip-path="url(#p839b1d087a)" d="M 164.152841 316.23239 
L 171.443819 317.544272 
L 178.734797 321.380231 
L 186.025775 327.455855 
L 193.316753 335.342751 
L 200.607731 344.526728 
L 207.898709 354.471724 
L 215.189687 364.677741 
L 222.480665 374.723896 
L 229.771643 384.292135 
L 237.062621 393.171869 
L 244.353598 401.249494 
L 251.644576 408.488661 
L 258.935554 414.907334 
L 266.226532 420.556385 
L 273.51751 425.502617 
L 280.808488 429.8172 
L 288.099466 433.569063 
L 295.390444 436.822058 
L 302.681422 439.634429 
L 309.9724 442.059396 
L 317.263378 444.14599 
L 324.554356 445.939691 
L 331.845334 447.482728 
L 339.136312 448.814074 
L 346.42729 449.969279 
L 353.718268 450.980251 
L 361.009246 451.875105 
L 368.300224 452.678125 
L 375.591202 453.409859 
L 382.88218 454.087338 
L 390.173158 454.724385 
L 397.464136 455.331984 
L 404.755114 455.918671 
L 412.046092 456.490931 
L 419.33707 457.053563 
L 426.628048 457.610014 
L 433.919025 458.162672 
L 441.210003 458.713111 
L 448.500981 459.262288 
L 455.791959 459.81071 
L 463.082937 460.358557 
L 470.373915 460.90578 
L 477.664893 461.452175 
L 484.955871 461.997434 
L 492.246849 462.541188 
L 499.537827 463.083032 
L 506.828805 463.622546 
L 514.119783 464.159309 
L 521.410761 464.692906 
L 528.701739 465.222938 
L 535.992717 465.749022 
L 543.283695 466.270797 
L 550.574673 466.787925 
L 557.865651 467.30009 
L 565.156629 467.807 
L 572.447607 468.30839 
L 579.738585 468.804015 
L 587.029563 469.293658 
L 594.320541 469.777124 
L 601.611519 470.254242 
L 608.902497 470.724865 
L 616.193475 471.188866 
L 623.484452 471.646143 
L 630.77543 472.096613 
L 638.066408 472.540216 
L 645.357386 472.976911 
L 652.648364 473.406675 
L 659.939342 473.829505 
L 667.23032 474.245415 
L 674.521298 474.654436 
L 681.812276 475.056616 
L 689.103254 475.452015 
L 696.394232 475.840711 
L 703.68521 476.222794 
L 710.976188 476.598364 
L 718.267166 476.967536 
L 725.558144 477.330434 
L 732.849122 477.687192 
L 740.1401 478.037953 
L 747.431078 478.382869 
L 754.722056 478.722098 
L 762.013034 479.055804 
L 769.304012 479.384158 
L 776.59499 479.707337 
L 783.885968 480.025519 
L 791.176946 480.338888 
L 798.467924 480.64763 
L 805.758902 480.951932 
L 813.049879 481.251985 
L 820.340857 481.547978 
L 827.631835 481.840103 
L 834.922813 482.128551 
L 842.213791 482.413511 
L 849.504769 482.695171 
L 856.795747 482.97372 
L 864.086725 483.249341 
L 871.377703 483.522219 
L 878.668681 483.792533 
L 885.959659 484.060459 
" style="fill:none;stroke:#0000ff;stroke-linecap:square;stroke-width:2;"/>
   </g>
   <g id="line2d_36">
    <path clip-path="url(#p839b1d087a)" d="M 164.152841 290.909048 
L 171.443819 292.112196 
L 178.734797 295.644215 
L 186.025775 301.283613 
L 193.316753 308.69477 
L 200.607731 317.470502 
L 207.898709 327.178581 
L 215.189687 337.403788 
L 222.480665 347.779433 
L 229.771643 358.005625 
L 237.062621 367.854921 
L 244.353598 377.168289 
L 251.644576 385.845283 
L 258.935554 393.832063 
L 266.226532 401.109866 
L 273.51751 407.685324 
L 280.808488 413.582963 
L 288.099466 418.839618 
L 295.390444 423.50026 
L 302.681422 427.614747 
L 309.9724 431.235202 
L 317.263378 434.413861 
L 324.554356 437.201354 
L 331.845334 439.645424 
L 339.136312 441.79007 
L 346.42729 443.675097 
L 353.718268 445.335989 
L 361.009246 446.804037 
L 368.300224 448.106635 
L 375.591202 449.267659 
L 382.88218 450.307875 
L 390.173158 451.245338 
L 397.464136 452.095744 
L 404.755114 452.87274 
L 412.046092 453.588185 
L 419.33707 454.252362 
L 426.628048 454.874162 
L 433.919025 455.46123 
L 441.210003 456.020103 
L 448.500981 456.556327 
L 455.791959 457.074562 
L 463.082937 457.578683 
L 470.373915 458.071879 
L 477.664893 458.556732 
L 484.955871 459.035305 
L 492.246849 459.509216 
L 499.537827 459.979706 
L 506.828805 460.447697 
L 514.119783 460.913853 
L 521.410761 461.378622 
L 528.701739 461.842281 
L 535.992717 462.304968 
L 543.283695 462.766713 
L 550.574673 463.22746 
L 557.865651 463.687093 
L 565.156629 464.145445 
L 572.447607 464.602315 
L 579.738585 465.057478 
L 587.029563 465.510693 
L 594.320541 465.96171 
L 601.611519 466.410272 
L 608.902497 466.856123 
L 616.193475 467.299009 
L 623.484452 467.738679 
L 630.77543 468.17489 
L 638.066408 468.607404 
L 645.357386 469.035991 
L 652.648364 469.460432 
L 659.939342 469.880514 
L 667.23032 470.296037 
L 674.521298 470.706807 
L 681.812276 471.112643 
L 689.103254 471.513373 
L 696.394232 471.908835 
L 703.68521 472.298878 
L 710.976188 472.683358 
L 718.267166 473.062145 
L 725.558144 473.435118 
L 732.849122 473.802164 
L 740.1401 474.163181 
L 747.431078 474.518078 
L 754.722056 474.86677 
L 762.013034 475.209186 
L 769.304012 475.545261 
L 776.59499 475.874939 
L 783.885968 476.198173 
L 791.176946 476.514928 
L 798.467924 476.825171 
L 805.758902 477.128884 
L 813.049879 477.426052 
L 820.340857 477.716669 
L 827.631835 478.000738 
L 834.922813 478.278268 
L 842.213791 478.549274 
L 849.504769 478.81378 
L 856.795747 479.071815 
L 864.086725 479.323413 
L 871.377703 479.568617 
L 878.668681 479.807473 
L 885.959659 480.040033 
" style="fill:none;stroke:#ff0000;stroke-linecap:square;stroke-width:2;"/>
   </g>
   <g id="line2d_37">
    <path clip-path="url(#p839b1d087a)" d="M 164.152841 89.28 
L 171.443819 92.401767 
L 178.734797 101.395325 
L 186.025775 115.236327 
L 193.316753 132.486121 
L 200.607731 151.59176 
L 207.898709 171.152048 
L 215.189687 190.084645 
L 222.480665 207.67874 
L 229.771643 223.559444 
L 237.062621 237.60783 
L 244.353598 249.875338 
L 251.644576 260.514255 
L 258.935554 269.72948 
L 266.226532 277.747376 
L 273.51751 284.795348 
L 280.808488 291.087588 
L 288.099466 296.815039 
L 295.390444 302.139122 
L 302.681422 307.189157 
L 309.9724 312.063044 
L 317.263378 316.830385 
L 324.554356 321.537037 
L 331.845334 326.210134 
L 339.136312 330.862876 
L 346.42729 335.498666 
L 353.718268 340.114416 
L 361.009246 344.703035 
L 368.300224 349.255202 
L 375.591202 353.760575 
L 382.88218 358.20858 
L 390.173158 362.588908 
L 397.464136 366.89182 
L 404.755114 371.108318 
L 412.046092 375.230246 
L 419.33707 379.250338 
L 426.628048 383.162237 
L 433.919025 386.960495 
L 441.210003 390.640556 
L 448.500981 394.198739 
L 455.791959 397.632203 
L 463.082937 400.938912 
L 470.373915 404.117596 
L 477.664893 407.167707 
L 484.955871 410.089373 
L 492.246849 412.883342 
L 499.537827 415.550942 
L 506.828805 418.094018 
L 514.119783 420.514889 
L 521.410761 422.816286 
L 528.701739 425.001311 
L 535.992717 427.073376 
L 543.283695 429.036164 
L 550.574673 430.893572 
L 557.865651 432.649674 
L 565.156629 434.308673 
L 572.447607 435.874865 
L 579.738585 437.352599 
L 587.029563 438.746244 
L 594.320541 440.060158 
L 601.611519 441.29866 
L 608.902497 442.466003 
L 616.193475 443.566354 
L 623.484452 444.603774 
L 630.77543 445.582203 
L 638.066408 446.50544 
L 645.357386 447.377141 
L 652.648364 448.200803 
L 659.939342 448.979762 
L 667.23032 449.717184 
L 674.521298 450.416067 
L 681.812276 451.079235 
L 689.103254 451.709345 
L 696.394232 452.308882 
L 703.68521 452.880167 
L 710.976188 453.42536 
L 718.267166 453.946463 
L 725.558144 454.445327 
L 732.849122 454.923662 
L 740.1401 455.383035 
L 747.431078 455.824885 
L 754.722056 456.250528 
L 762.013034 456.66116 
L 769.304012 457.057873 
L 776.59499 457.441653 
L 783.885968 457.813394 
L 791.176946 458.173901 
L 798.467924 458.523899 
L 805.758902 458.86404 
L 813.049879 459.194906 
L 820.340857 459.517019 
L 827.631835 459.830845 
L 834.922813 460.136798 
L 842.213791 460.435246 
L 849.504769 460.726519 
L 856.795747 461.010905 
L 864.086725 461.288665 
L 871.377703 461.560028 
L 878.668681 461.825196 
L 885.959659 462.084352 
" style="fill:none;stroke:#00ffff;stroke-linecap:square;stroke-width:2;"/>
   </g>
   <g id="line2d_38">
    <path clip-path="url(#p839b1d087a)" d="M 164.152841 114.494972 
L 171.443819 117.798715 
L 178.734797 127.223477 
L 186.025775 141.455866 
L 193.316753 158.726889 
L 200.607731 177.248826 
L 207.898709 195.556028 
L 215.189687 212.664442 
L 222.480665 228.060807 
L 229.771643 241.592548 
L 237.062621 253.335305 
L 244.353598 263.485538 
L 251.644576 272.290904 
L 258.935554 280.010389 
L 266.226532 286.891533 
L 273.51751 293.156233 
L 280.808488 298.991792 
L 288.099466 304.546641 
L 295.390444 309.93051 
L 302.681422 315.218198 
L 309.9724 320.455529 
L 317.263378 325.666072 
L 324.554356 330.85748 
L 331.845334 336.026839 
L 339.136312 341.164786 
L 346.42729 346.258458 
L 353.718268 351.293489 
L 361.009246 356.255284 
L 368.300224 361.129795 
L 375.591202 365.90397 
L 382.88218 370.566001 
L 390.173158 375.105448 
L 397.464136 379.513282 
L 404.755114 383.781895 
L 412.046092 387.905075 
L 419.33707 391.877955 
L 426.628048 395.696963 
L 433.919025 399.359749 
L 441.210003 402.865107 
L 448.500981 406.212894 
L 455.791959 409.403943 
L 463.082937 412.439968 
L 470.373915 415.323474 
L 477.664893 418.057666 
L 484.955871 420.646352 
L 492.246849 423.093858 
L 499.537827 425.404938 
L 506.828805 427.584694 
L 514.119783 429.638493 
L 521.410761 431.571897 
L 528.701739 433.390594 
L 535.992717 435.100336 
L 543.283695 436.706882 
L 550.574673 438.215949 
L 557.865651 439.633167 
L 565.156629 440.96404 
L 572.447607 442.213917 
L 579.738585 443.387962 
L 587.029563 444.491134 
L 594.320541 445.528169 
L 601.611519 446.50357 
L 608.902497 447.421594 
L 616.193475 448.286257 
L 623.484452 449.101321 
L 630.77543 449.870305 
L 638.066408 450.596486 
L 645.357386 451.282905 
L 652.648364 451.932376 
L 659.939342 452.547493 
L 667.23032 453.130645 
L 674.521298 453.684023 
L 681.812276 454.209635 
L 689.103254 454.709316 
L 696.394232 455.184741 
L 703.68521 455.637438 
L 710.976188 456.068798 
L 718.267166 456.480087 
L 725.558144 456.872461 
L 732.849122 457.24697 
L 740.1401 457.604573 
L 747.431078 457.946143 
L 754.722056 458.272482 
L 762.013034 458.584324 
L 769.304012 458.882342 
L 776.59499 459.167158 
L 783.885968 459.439348 
L 791.176946 459.699446 
L 798.467924 459.94795 
L 805.758902 460.185328 
L 813.049879 460.412017 
L 820.340857 460.628432 
L 827.631835 460.834967 
L 834.922813 461.031996 
L 842.213791 461.219876 
L 849.504769 461.398951 
L 856.795747 461.569549 
L 864.086725 461.731989 
L 871.377703 461.886579 
L 878.668681 462.033616 
L 885.959659 462.173389 
" style="fill:none;stroke:#ff00ff;stroke-linecap:square;stroke-width:2;"/>
   </g>
   <g id="patch_3">
    <path d="M 128.0625 512.64 
L 128.0625 69.12 
" style="fill:none;stroke:#000000;stroke-linecap:square;stroke-linejoin:miter;stroke-width:0.8;"/>
   </g>
   <g id="patch_4">
    <path d="M 922.05 512.64 
L 922.05 69.12 
" style="fill:none;stroke:#000000;stroke-linecap:square;stroke-linejoin:miter;stroke-width:0.8;"/>
   </g>
   <g id="patch_5">
    <path d="M 128.0625 512.64 
L 922.05 512.64 
" style="fill:none;stroke:#000000;stroke-linecap:square;stroke-linejoin:miter;stroke-width:0.8;"/>
   </g>
   <g id="patch_6">
    <path d="M 128.0625 69.12 
L 922.05 69.12 
" style="fill:none;stroke:#000000;stroke-linecap:square;stroke-linejoin:miter;stroke-width:0.8;"/>
   </g>
   <g id="legend_1">
    <g id="patch_7">
     <path d="M 804.8 309.291875 
L 904.55 309.291875 
Q 909.55 309.291875 909.55 304.291875 
L 909.55 86.62 
Q 909.55 81.62 904.55 81.62 
L 804.8 81.62 
Q 799.8 81.62 799.8 86.62 
L 799.8 304.291875 
Q 799.8 309.291875 804.8 309.291875 
z
" style="fill:#ffffff;opacity:0.8;stroke:#cccccc;stroke-linejoin:miter;"/>
    </g>
    <g id="line2d_39">
     <path d="M 809.8 101.866094 
L 859.8 101.866094 
" style="fill:none;stroke:#cccccc;stroke-linecap:square;stroke-width:2;"/>
    </g>
    <g id="line2d_40"/>
    <g id="text_19">
     <!-- $H$ -->
     <defs>
      <path d="M 16.890625 72.90625 
L 26.8125 72.90625 
L 21 43.015625 
L 56.78125 43.015625 
L 62.59375 72.90625 
L 72.515625 72.90625 
L 58.296875 0 
L 48.390625 0 
L 55.171875 34.71875 
L 19.390625 34.71875 
L 12.59375 0 
L 2.6875 0 
z
" id="DejaVuSans-Oblique-72"/>
     </defs>
     <g transform="translate(879.8 110.616094)scale(0.25 -0.25)">
      <use transform="translate(0 0.09375)" xlink:href="#DejaVuSans-Oblique-72"/>
     </g>
    </g>
    <g id="line2d_41">
     <path d="M 809.8 138.561406 
L 859.8 138.561406 
" style="fill:none;stroke:#999999;stroke-linecap:square;stroke-width:2;"/>
    </g>
    <g id="line2d_42"/>
    <g id="text_20">
     <!-- $C$ -->
     <defs>
      <path d="M 69.484375 67.28125 
L 67.484375 56.890625 
Q 62.796875 61.625 57.546875 63.921875 
Q 52.296875 66.21875 46.1875 66.21875 
Q 37.84375 66.21875 31.515625 62.203125 
Q 25.203125 58.203125 20.609375 50 
Q 17.671875 44.734375 16.125 38.84375 
Q 14.59375 32.953125 14.59375 27 
Q 14.59375 17.046875 19.75 11.8125 
Q 24.90625 6.59375 34.71875 6.59375 
Q 41.5 6.59375 47.75 8.765625 
Q 54 10.9375 59.90625 15.28125 
L 57.625 3.609375 
Q 51.8125 1.125 45.875 -0.140625 
Q 39.9375 -1.421875 33.984375 -1.421875 
Q 19.96875 -1.421875 12.078125 6.1875 
Q 4.203125 13.8125 4.203125 27.390625 
Q 4.203125 36.078125 7.203125 44.46875 
Q 10.203125 52.875 15.828125 59.8125 
Q 21.78125 67.1875 29.421875 70.703125 
Q 37.0625 74.21875 47.21875 74.21875 
Q 53.46875 74.21875 59.0625 72.484375 
Q 64.65625 70.75 69.484375 67.28125 
z
" id="DejaVuSans-Oblique-67"/>
     </defs>
     <g transform="translate(879.8 147.311406)scale(0.25 -0.25)">
      <use transform="translate(0 0.78125)" xlink:href="#DejaVuSans-Oblique-67"/>
     </g>
    </g>
    <g id="line2d_43">
     <path d="M 809.8 175.256719 
L 859.8 175.256719 
" style="fill:none;stroke:#0000ff;stroke-linecap:square;stroke-width:2;"/>
    </g>
    <g id="line2d_44"/>
    <g id="text_21">
     <!-- $N$ -->
     <defs>
      <path d="M 16.890625 72.90625 
L 30.171875 72.90625 
L 50.296875 10.40625 
L 62.5 72.90625 
L 72.125 72.90625 
L 57.90625 0 
L 44.578125 0 
L 24.515625 62.890625 
L 12.3125 0 
L 2.6875 0 
z
" id="DejaVuSans-Oblique-78"/>
     </defs>
     <g transform="translate(879.8 184.006719)scale(0.25 -0.25)">
      <use transform="translate(0 0.09375)" xlink:href="#DejaVuSans-Oblique-78"/>
     </g>
    </g>
    <g id="line2d_45">
     <path d="M 809.8 211.952031 
L 859.8 211.952031 
" style="fill:none;stroke:#ff0000;stroke-linecap:square;stroke-width:2;"/>
    </g>
    <g id="line2d_46"/>
    <g id="text_22">
     <!-- $O$ -->
     <defs>
      <path d="M 45.609375 66.21875 
Q 37.5 66.21875 31.296875 62.28125 
Q 25.09375 58.34375 20.515625 50.296875 
Q 17.578125 45.171875 16.03125 39.40625 
Q 14.5 33.640625 14.5 27.78125 
Q 14.5 17.625 19.359375 12.109375 
Q 24.21875 6.59375 33.109375 6.59375 
Q 41.109375 6.59375 47.375 10.5625 
Q 53.65625 14.546875 58.109375 22.40625 
Q 61.078125 27.6875 62.640625 33.46875 
Q 64.203125 39.265625 64.203125 45.015625 
Q 64.203125 55.125 59.3125 60.671875 
Q 54.4375 66.21875 45.609375 66.21875 
z
M 32.8125 -1.421875 
Q 19.390625 -1.421875 11.6875 6.53125 
Q 4 14.5 4 28.328125 
Q 4 36.234375 7 44.484375 
Q 10.015625 52.734375 15.28125 59.1875 
Q 21.484375 66.75 29.09375 70.484375 
Q 36.71875 74.21875 45.90625 74.21875 
Q 59.28125 74.21875 66.984375 66.328125 
Q 74.703125 58.453125 74.703125 44.828125 
Q 74.703125 36.421875 71.765625 28.3125 
Q 68.84375 20.21875 63.375 13.625 
Q 57.125 6 49.578125 2.28125 
Q 42.046875 -1.421875 32.8125 -1.421875 
z
" id="DejaVuSans-Oblique-79"/>
     </defs>
     <g transform="translate(879.8 220.702031)scale(0.25 -0.25)">
      <use transform="translate(0 0.78125)" xlink:href="#DejaVuSans-Oblique-79"/>
     </g>
    </g>
    <g id="line2d_47">
     <path d="M 809.8 248.647344 
L 859.8 248.647344 
" style="fill:none;stroke:#00ffff;stroke-linecap:square;stroke-width:2;"/>
    </g>
    <g id="line2d_48"/>
    <g id="text_23">
     <!-- $S$ -->
     <defs>
      <path d="M 60.296875 70.515625 
L 58.40625 60.890625 
Q 53.46875 63.53125 48.609375 64.875 
Q 43.75 66.21875 39.203125 66.21875 
Q 30.375 66.21875 25.140625 62.359375 
Q 19.921875 58.5 19.921875 52.09375 
Q 19.921875 48.578125 21.84375 46.703125 
Q 23.78125 44.828125 31.78125 42.671875 
L 37.703125 41.21875 
Q 47.703125 38.625 51.609375 34.640625 
Q 55.515625 30.671875 55.515625 23.484375 
Q 55.515625 12.453125 46.84375 5.515625 
Q 38.1875 -1.421875 24.03125 -1.421875 
Q 18.21875 -1.421875 12.359375 -0.265625 
Q 6.5 0.875 0.59375 3.21875 
L 2.59375 13.375 
Q 8.015625 10.015625 13.453125 8.296875 
Q 18.890625 6.59375 24.3125 6.59375 
Q 33.546875 6.59375 39.109375 10.6875 
Q 44.671875 14.796875 44.671875 21.390625 
Q 44.671875 25.78125 42.453125 28.046875 
Q 40.234375 30.328125 32.90625 32.171875 
L 27 33.6875 
Q 16.890625 36.328125 13.203125 39.765625 
Q 9.515625 43.21875 9.515625 49.421875 
Q 9.515625 60.296875 17.890625 67.25 
Q 26.265625 74.21875 39.703125 74.21875 
Q 44.921875 74.21875 50.046875 73.28125 
Q 55.171875 72.359375 60.296875 70.515625 
z
" id="DejaVuSans-Oblique-83"/>
     </defs>
     <g transform="translate(879.8 257.397344)scale(0.25 -0.25)">
      <use transform="translate(0 0.78125)" xlink:href="#DejaVuSans-Oblique-83"/>
     </g>
    </g>
    <g id="line2d_49">
     <path d="M 809.8 285.342656 
L 859.8 285.342656 
" style="fill:none;stroke:#ff00ff;stroke-linecap:square;stroke-width:2;"/>
    </g>
    <g id="line2d_50"/>
    <g id="text_24">
     <!-- $P$ -->
     <defs>
      <path d="M 16.890625 72.90625 
L 39.703125 72.90625 
Q 49.65625 72.90625 54.875 68.265625 
Q 60.109375 63.625 60.109375 54.6875 
Q 60.109375 42.671875 52.390625 35.984375 
Q 44.671875 29.296875 30.71875 29.296875 
L 18.3125 29.296875 
L 12.59375 0 
L 2.6875 0 
z
M 25.203125 64.796875 
L 19.921875 37.40625 
L 32.328125 37.40625 
Q 40.71875 37.40625 45.203125 41.703125 
Q 49.703125 46 49.703125 54 
Q 49.703125 59.125 46.65625 61.953125 
Q 43.609375 64.796875 38.09375 64.796875 
z
" id="DejaVuSans-Oblique-80"/>
     </defs>
     <g transform="translate(879.8 294.092656)scale(0.25 -0.25)">
      <use transform="translate(0 0.09375)" xlink:href="#DejaVuSans-Oblique-80"/>
     </g>
    </g>
   </g>
  </g>
 </g>
 <defs>
  <clipPath id="p839b1d087a">
   <rect height="443.52" width="793.9875" x="128.0625" y="69.12"/>
  </clipPath>
 </defs>
</svg>
