<?xml version="1.0" encoding="utf-8" standalone="no"?>
<!DOCTYPE svg PUBLIC "-//W3C//DTD SVG 1.1//EN"
  "http://www.w3.org/Graphics/SVG/1.1/DTD/svg11.dtd">
<!-- Created with matplotlib (https://matplotlib.org/) -->
<svg height="810pt" version="1.1" viewBox="0 0 1440 810" width="1440pt" xmlns="http://www.w3.org/2000/svg" xmlns:xlink="http://www.w3.org/1999/xlink">
 <defs>
  <style type="text/css">
*{stroke-linecap:butt;stroke-linejoin:round;}
  </style>
 </defs>
 <g id="figure_1">
  <g id="patch_1">
   <path d="M 0 810 
L 1440 810 
L 1440 0 
L 0 0 
z
" style="fill:#ffffff;"/>
  </g>
  <g id="axes_1">
   <g id="patch_2">
    <path d="M 180 720.9 
L 1296 720.9 
L 1296 97.2 
L 180 97.2 
z
" style="fill:#ffffff;"/>
   </g>
   <g id="matplotlib.axis_1">
    <g id="xtick_1">
     <g id="line2d_1">
      <path clip-path="url(#p288257178f)" d="M 230.727273 720.9 
L 230.727273 97.2 
" style="fill:none;stroke:#e6e6e6;stroke-linecap:square;stroke-width:0.8;"/>
     </g>
     <g id="line2d_2">
      <defs>
       <path d="M 0 0 
L 0 3.5 
" id="m55188d9c6f" style="stroke:#000000;stroke-width:0.8;"/>
      </defs>
      <g>
       <use style="stroke:#000000;stroke-width:0.8;" x="230.727273" xlink:href="#m55188d9c6f" y="720.9"/>
      </g>
     </g>
     <g id="text_1">
      <!-- 0 -->
      <defs>
       <path d="M 31.78125 66.40625 
Q 24.171875 66.40625 20.328125 58.90625 
Q 16.5 51.421875 16.5 36.375 
Q 16.5 21.390625 20.328125 13.890625 
Q 24.171875 6.390625 31.78125 6.390625 
Q 39.453125 6.390625 43.28125 13.890625 
Q 47.125 21.390625 47.125 36.375 
Q 47.125 51.421875 43.28125 58.90625 
Q 39.453125 66.40625 31.78125 66.40625 
z
M 31.78125 74.21875 
Q 44.046875 74.21875 50.515625 64.515625 
Q 56.984375 54.828125 56.984375 36.375 
Q 56.984375 17.96875 50.515625 8.265625 
Q 44.046875 -1.421875 31.78125 -1.421875 
Q 19.53125 -1.421875 13.0625 8.265625 
Q 6.59375 17.96875 6.59375 36.375 
Q 6.59375 54.828125 13.0625 64.515625 
Q 19.53125 74.21875 31.78125 74.21875 
z
" id="DejaVuSans-48"/>
      </defs>
      <g transform="translate(225.955398 739.297656)scale(0.15 -0.15)">
       <use xlink:href="#DejaVuSans-48"/>
      </g>
     </g>
    </g>
    <g id="xtick_2">
     <g id="line2d_3">
      <path clip-path="url(#p288257178f)" d="M 399.818182 720.9 
L 399.818182 97.2 
" style="fill:none;stroke:#e6e6e6;stroke-linecap:square;stroke-width:0.8;"/>
     </g>
     <g id="line2d_4">
      <g>
       <use style="stroke:#000000;stroke-width:0.8;" x="399.818182" xlink:href="#m55188d9c6f" y="720.9"/>
      </g>
     </g>
     <g id="text_2">
      <!-- 5 -->
      <defs>
       <path d="M 10.796875 72.90625 
L 49.515625 72.90625 
L 49.515625 64.59375 
L 19.828125 64.59375 
L 19.828125 46.734375 
Q 21.96875 47.46875 24.109375 47.828125 
Q 26.265625 48.1875 28.421875 48.1875 
Q 40.625 48.1875 47.75 41.5 
Q 54.890625 34.8125 54.890625 23.390625 
Q 54.890625 11.625 47.5625 5.09375 
Q 40.234375 -1.421875 26.90625 -1.421875 
Q 22.3125 -1.421875 17.546875 -0.640625 
Q 12.796875 0.140625 7.71875 1.703125 
L 7.71875 11.625 
Q 12.109375 9.234375 16.796875 8.0625 
Q 21.484375 6.890625 26.703125 6.890625 
Q 35.15625 6.890625 40.078125 11.328125 
Q 45.015625 15.765625 45.015625 23.390625 
Q 45.015625 31 40.078125 35.4375 
Q 35.15625 39.890625 26.703125 39.890625 
Q 22.75 39.890625 18.8125 39.015625 
Q 14.890625 38.140625 10.796875 36.28125 
z
" id="DejaVuSans-53"/>
      </defs>
      <g transform="translate(395.046307 739.297656)scale(0.15 -0.15)">
       <use xlink:href="#DejaVuSans-53"/>
      </g>
     </g>
    </g>
    <g id="xtick_3">
     <g id="line2d_5">
      <path clip-path="url(#p288257178f)" d="M 568.909091 720.9 
L 568.909091 97.2 
" style="fill:none;stroke:#e6e6e6;stroke-linecap:square;stroke-width:0.8;"/>
     </g>
     <g id="line2d_6">
      <g>
       <use style="stroke:#000000;stroke-width:0.8;" x="568.909091" xlink:href="#m55188d9c6f" y="720.9"/>
      </g>
     </g>
     <g id="text_3">
      <!-- 10 -->
      <defs>
       <path d="M 12.40625 8.296875 
L 28.515625 8.296875 
L 28.515625 63.921875 
L 10.984375 60.40625 
L 10.984375 69.390625 
L 28.421875 72.90625 
L 38.28125 72.90625 
L 38.28125 8.296875 
L 54.390625 8.296875 
L 54.390625 0 
L 12.40625 0 
z
" id="DejaVuSans-49"/>
      </defs>
      <g transform="translate(559.365341 739.297656)scale(0.15 -0.15)">
       <use xlink:href="#DejaVuSans-49"/>
       <use x="63.623047" xlink:href="#DejaVuSans-48"/>
      </g>
     </g>
    </g>
    <g id="xtick_4">
     <g id="line2d_7">
      <path clip-path="url(#p288257178f)" d="M 738 720.9 
L 738 97.2 
" style="fill:none;stroke:#e6e6e6;stroke-linecap:square;stroke-width:0.8;"/>
     </g>
     <g id="line2d_8">
      <g>
       <use style="stroke:#000000;stroke-width:0.8;" x="738" xlink:href="#m55188d9c6f" y="720.9"/>
      </g>
     </g>
     <g id="text_4">
      <!-- 15 -->
      <g transform="translate(728.45625 739.297656)scale(0.15 -0.15)">
       <use xlink:href="#DejaVuSans-49"/>
       <use x="63.623047" xlink:href="#DejaVuSans-53"/>
      </g>
     </g>
    </g>
    <g id="xtick_5">
     <g id="line2d_9">
      <path clip-path="url(#p288257178f)" d="M 907.090909 720.9 
L 907.090909 97.2 
" style="fill:none;stroke:#e6e6e6;stroke-linecap:square;stroke-width:0.8;"/>
     </g>
     <g id="line2d_10">
      <g>
       <use style="stroke:#000000;stroke-width:0.8;" x="907.090909" xlink:href="#m55188d9c6f" y="720.9"/>
      </g>
     </g>
     <g id="text_5">
      <!-- 20 -->
      <defs>
       <path d="M 19.1875 8.296875 
L 53.609375 8.296875 
L 53.609375 0 
L 7.328125 0 
L 7.328125 8.296875 
Q 12.9375 14.109375 22.625 23.890625 
Q 32.328125 33.6875 34.8125 36.53125 
Q 39.546875 41.84375 41.421875 45.53125 
Q 43.3125 49.21875 43.3125 52.78125 
Q 43.3125 58.59375 39.234375 62.25 
Q 35.15625 65.921875 28.609375 65.921875 
Q 23.96875 65.921875 18.8125 64.3125 
Q 13.671875 62.703125 7.8125 59.421875 
L 7.8125 69.390625 
Q 13.765625 71.78125 18.9375 73 
Q 24.125 74.21875 28.421875 74.21875 
Q 39.75 74.21875 46.484375 68.546875 
Q 53.21875 62.890625 53.21875 53.421875 
Q 53.21875 48.921875 51.53125 44.890625 
Q 49.859375 40.875 45.40625 35.40625 
Q 44.1875 33.984375 37.640625 27.21875 
Q 31.109375 20.453125 19.1875 8.296875 
z
" id="DejaVuSans-50"/>
      </defs>
      <g transform="translate(897.547159 739.297656)scale(0.15 -0.15)">
       <use xlink:href="#DejaVuSans-50"/>
       <use x="63.623047" xlink:href="#DejaVuSans-48"/>
      </g>
     </g>
    </g>
    <g id="xtick_6">
     <g id="line2d_11">
      <path clip-path="url(#p288257178f)" d="M 1076.181818 720.9 
L 1076.181818 97.2 
" style="fill:none;stroke:#e6e6e6;stroke-linecap:square;stroke-width:0.8;"/>
     </g>
     <g id="line2d_12">
      <g>
       <use style="stroke:#000000;stroke-width:0.8;" x="1076.181818" xlink:href="#m55188d9c6f" y="720.9"/>
      </g>
     </g>
     <g id="text_6">
      <!-- 25 -->
      <g transform="translate(1066.638068 739.297656)scale(0.15 -0.15)">
       <use xlink:href="#DejaVuSans-50"/>
       <use x="63.623047" xlink:href="#DejaVuSans-53"/>
      </g>
     </g>
    </g>
    <g id="xtick_7">
     <g id="line2d_13">
      <path clip-path="url(#p288257178f)" d="M 1245.272727 720.9 
L 1245.272727 97.2 
" style="fill:none;stroke:#e6e6e6;stroke-linecap:square;stroke-width:0.8;"/>
     </g>
     <g id="line2d_14">
      <g>
       <use style="stroke:#000000;stroke-width:0.8;" x="1245.272727" xlink:href="#m55188d9c6f" y="720.9"/>
      </g>
     </g>
     <g id="text_7">
      <!-- 30 -->
      <defs>
       <path d="M 40.578125 39.3125 
Q 47.65625 37.796875 51.625 33 
Q 55.609375 28.21875 55.609375 21.1875 
Q 55.609375 10.40625 48.1875 4.484375 
Q 40.765625 -1.421875 27.09375 -1.421875 
Q 22.515625 -1.421875 17.65625 -0.515625 
Q 12.796875 0.390625 7.625 2.203125 
L 7.625 11.71875 
Q 11.71875 9.328125 16.59375 8.109375 
Q 21.484375 6.890625 26.8125 6.890625 
Q 36.078125 6.890625 40.9375 10.546875 
Q 45.796875 14.203125 45.796875 21.1875 
Q 45.796875 27.640625 41.28125 31.265625 
Q 36.765625 34.90625 28.71875 34.90625 
L 20.21875 34.90625 
L 20.21875 43.015625 
L 29.109375 43.015625 
Q 36.375 43.015625 40.234375 45.921875 
Q 44.09375 48.828125 44.09375 54.296875 
Q 44.09375 59.90625 40.109375 62.90625 
Q 36.140625 65.921875 28.71875 65.921875 
Q 24.65625 65.921875 20.015625 65.03125 
Q 15.375 64.15625 9.8125 62.3125 
L 9.8125 71.09375 
Q 15.4375 72.65625 20.34375 73.4375 
Q 25.25 74.21875 29.59375 74.21875 
Q 40.828125 74.21875 47.359375 69.109375 
Q 53.90625 64.015625 53.90625 55.328125 
Q 53.90625 49.265625 50.4375 45.09375 
Q 46.96875 40.921875 40.578125 39.3125 
z
" id="DejaVuSans-51"/>
      </defs>
      <g transform="translate(1235.728977 739.297656)scale(0.15 -0.15)">
       <use xlink:href="#DejaVuSans-51"/>
       <use x="63.623047" xlink:href="#DejaVuSans-48"/>
      </g>
     </g>
    </g>
    <g id="text_8">
     <!-- $q(A)$ -->
     <defs>
      <path d="M 41.703125 8.203125 
Q 38.09375 3.46875 33.171875 1.015625 
Q 28.265625 -1.421875 22.3125 -1.421875 
Q 14.015625 -1.421875 9.296875 4.171875 
Q 4.59375 9.765625 4.59375 19.578125 
Q 4.59375 27.484375 7.5 34.859375 
Q 10.40625 42.234375 15.828125 48.09375 
Q 19.34375 51.90625 23.90625 53.953125 
Q 28.46875 56 33.5 56 
Q 39.546875 56 43.453125 53.609375 
Q 47.359375 51.21875 49.125 46.390625 
L 50.6875 54.59375 
L 59.71875 54.59375 
L 45.125 -20.609375 
L 36.078125 -20.609375 
z
M 13.921875 20.90625 
Q 13.921875 13.671875 16.9375 9.890625 
Q 19.96875 6.109375 25.6875 6.109375 
Q 34.1875 6.109375 40.1875 14.234375 
Q 46.1875 22.359375 46.1875 33.984375 
Q 46.1875 41.015625 43.078125 44.75 
Q 39.984375 48.484375 34.1875 48.484375 
Q 29.9375 48.484375 26.3125 46.5 
Q 22.703125 44.53125 20.015625 40.71875 
Q 17.1875 36.71875 15.546875 31.34375 
Q 13.921875 25.984375 13.921875 20.90625 
z
" id="DejaVuSans-Oblique-113"/>
      <path d="M 31 75.875 
Q 24.46875 64.65625 21.28125 53.65625 
Q 18.109375 42.671875 18.109375 31.390625 
Q 18.109375 20.125 21.3125 9.0625 
Q 24.515625 -2 31 -13.1875 
L 23.1875 -13.1875 
Q 15.875 -1.703125 12.234375 9.375 
Q 8.59375 20.453125 8.59375 31.390625 
Q 8.59375 42.28125 12.203125 53.3125 
Q 15.828125 64.359375 23.1875 75.875 
z
" id="DejaVuSans-40"/>
      <path d="M 36.8125 72.90625 
L 48 72.90625 
L 61.53125 0 
L 51.21875 0 
L 48.1875 18.703125 
L 15.375 18.703125 
L 5.078125 0 
L -5.328125 0 
z
M 40.375 63.1875 
L 19.921875 26.90625 
L 46.6875 26.90625 
z
" id="DejaVuSans-Oblique-65"/>
      <path d="M 8.015625 75.875 
L 15.828125 75.875 
Q 23.140625 64.359375 26.78125 53.3125 
Q 30.421875 42.28125 30.421875 31.390625 
Q 30.421875 20.453125 26.78125 9.375 
Q 23.140625 -1.703125 15.828125 -13.1875 
L 8.015625 -13.1875 
Q 14.5 -2 17.703125 9.0625 
Q 20.90625 20.125 20.90625 31.390625 
Q 20.90625 42.671875 17.703125 53.65625 
Q 14.5 64.65625 8.015625 75.875 
z
" id="DejaVuSans-41"/>
     </defs>
     <g transform="translate(706.5 769.217188)scale(0.3 -0.3)">
      <use transform="translate(0 0.125)" xlink:href="#DejaVuSans-Oblique-113"/>
      <use transform="translate(63.476562 0.125)" xlink:href="#DejaVuSans-40"/>
      <use transform="translate(102.490234 0.125)" xlink:href="#DejaVuSans-Oblique-65"/>
      <use transform="translate(170.898438 0.125)" xlink:href="#DejaVuSans-41"/>
     </g>
    </g>
   </g>
   <g id="matplotlib.axis_2">
    <g id="ytick_1">
     <g id="line2d_15">
      <path clip-path="url(#p288257178f)" d="M 180 692.596257 
L 1296 692.596257 
" style="fill:none;stroke:#e6e6e6;stroke-linecap:square;stroke-width:0.8;"/>
     </g>
     <g id="line2d_16">
      <defs>
       <path d="M 0 0 
L -3.5 0 
" id="m9809cee653" style="stroke:#000000;stroke-width:0.8;"/>
      </defs>
      <g>
       <use style="stroke:#000000;stroke-width:0.8;" x="180" xlink:href="#m9809cee653" y="692.596257"/>
      </g>
     </g>
     <g id="text_9">
      <!-- 0 -->
      <g transform="translate(163.45625 698.295085)scale(0.15 -0.15)">
       <use xlink:href="#DejaVuSans-48"/>
      </g>
     </g>
    </g>
    <g id="ytick_2">
     <g id="line2d_17">
      <path clip-path="url(#p288257178f)" d="M 180 621.714588 
L 1296 621.714588 
" style="fill:none;stroke:#e6e6e6;stroke-linecap:square;stroke-width:0.8;"/>
     </g>
     <g id="line2d_18">
      <g>
       <use style="stroke:#000000;stroke-width:0.8;" x="180" xlink:href="#m9809cee653" y="621.714588"/>
      </g>
     </g>
     <g id="text_10">
      <!-- 2 -->
      <g transform="translate(163.45625 627.413417)scale(0.15 -0.15)">
       <use xlink:href="#DejaVuSans-50"/>
      </g>
     </g>
    </g>
    <g id="ytick_3">
     <g id="line2d_19">
      <path clip-path="url(#p288257178f)" d="M 180 550.83292 
L 1296 550.83292 
" style="fill:none;stroke:#e6e6e6;stroke-linecap:square;stroke-width:0.8;"/>
     </g>
     <g id="line2d_20">
      <g>
       <use style="stroke:#000000;stroke-width:0.8;" x="180" xlink:href="#m9809cee653" y="550.83292"/>
      </g>
     </g>
     <g id="text_11">
      <!-- 4 -->
      <defs>
       <path d="M 37.796875 64.3125 
L 12.890625 25.390625 
L 37.796875 25.390625 
z
M 35.203125 72.90625 
L 47.609375 72.90625 
L 47.609375 25.390625 
L 58.015625 25.390625 
L 58.015625 17.1875 
L 47.609375 17.1875 
L 47.609375 0 
L 37.796875 0 
L 37.796875 17.1875 
L 4.890625 17.1875 
L 4.890625 26.703125 
z
" id="DejaVuSans-52"/>
      </defs>
      <g transform="translate(163.45625 556.531749)scale(0.15 -0.15)">
       <use xlink:href="#DejaVuSans-52"/>
      </g>
     </g>
    </g>
    <g id="ytick_4">
     <g id="line2d_21">
      <path clip-path="url(#p288257178f)" d="M 180 479.951252 
L 1296 479.951252 
" style="fill:none;stroke:#e6e6e6;stroke-linecap:square;stroke-width:0.8;"/>
     </g>
     <g id="line2d_22">
      <g>
       <use style="stroke:#000000;stroke-width:0.8;" x="180" xlink:href="#m9809cee653" y="479.951252"/>
      </g>
     </g>
     <g id="text_12">
      <!-- 6 -->
      <defs>
       <path d="M 33.015625 40.375 
Q 26.375 40.375 22.484375 35.828125 
Q 18.609375 31.296875 18.609375 23.390625 
Q 18.609375 15.53125 22.484375 10.953125 
Q 26.375 6.390625 33.015625 6.390625 
Q 39.65625 6.390625 43.53125 10.953125 
Q 47.40625 15.53125 47.40625 23.390625 
Q 47.40625 31.296875 43.53125 35.828125 
Q 39.65625 40.375 33.015625 40.375 
z
M 52.59375 71.296875 
L 52.59375 62.3125 
Q 48.875 64.0625 45.09375 64.984375 
Q 41.3125 65.921875 37.59375 65.921875 
Q 27.828125 65.921875 22.671875 59.328125 
Q 17.53125 52.734375 16.796875 39.40625 
Q 19.671875 43.65625 24.015625 45.921875 
Q 28.375 48.1875 33.59375 48.1875 
Q 44.578125 48.1875 50.953125 41.515625 
Q 57.328125 34.859375 57.328125 23.390625 
Q 57.328125 12.15625 50.6875 5.359375 
Q 44.046875 -1.421875 33.015625 -1.421875 
Q 20.359375 -1.421875 13.671875 8.265625 
Q 6.984375 17.96875 6.984375 36.375 
Q 6.984375 53.65625 15.1875 63.9375 
Q 23.390625 74.21875 37.203125 74.21875 
Q 40.921875 74.21875 44.703125 73.484375 
Q 48.484375 72.75 52.59375 71.296875 
z
" id="DejaVuSans-54"/>
      </defs>
      <g transform="translate(163.45625 485.65008)scale(0.15 -0.15)">
       <use xlink:href="#DejaVuSans-54"/>
      </g>
     </g>
    </g>
    <g id="ytick_5">
     <g id="line2d_23">
      <path clip-path="url(#p288257178f)" d="M 180 409.069584 
L 1296 409.069584 
" style="fill:none;stroke:#e6e6e6;stroke-linecap:square;stroke-width:0.8;"/>
     </g>
     <g id="line2d_24">
      <g>
       <use style="stroke:#000000;stroke-width:0.8;" x="180" xlink:href="#m9809cee653" y="409.069584"/>
      </g>
     </g>
     <g id="text_13">
      <!-- 8 -->
      <defs>
       <path d="M 31.78125 34.625 
Q 24.75 34.625 20.71875 30.859375 
Q 16.703125 27.09375 16.703125 20.515625 
Q 16.703125 13.921875 20.71875 10.15625 
Q 24.75 6.390625 31.78125 6.390625 
Q 38.8125 6.390625 42.859375 10.171875 
Q 46.921875 13.96875 46.921875 20.515625 
Q 46.921875 27.09375 42.890625 30.859375 
Q 38.875 34.625 31.78125 34.625 
z
M 21.921875 38.8125 
Q 15.578125 40.375 12.03125 44.71875 
Q 8.5 49.078125 8.5 55.328125 
Q 8.5 64.0625 14.71875 69.140625 
Q 20.953125 74.21875 31.78125 74.21875 
Q 42.671875 74.21875 48.875 69.140625 
Q 55.078125 64.0625 55.078125 55.328125 
Q 55.078125 49.078125 51.53125 44.71875 
Q 48 40.375 41.703125 38.8125 
Q 48.828125 37.15625 52.796875 32.3125 
Q 56.78125 27.484375 56.78125 20.515625 
Q 56.78125 9.90625 50.3125 4.234375 
Q 43.84375 -1.421875 31.78125 -1.421875 
Q 19.734375 -1.421875 13.25 4.234375 
Q 6.78125 9.90625 6.78125 20.515625 
Q 6.78125 27.484375 10.78125 32.3125 
Q 14.796875 37.15625 21.921875 38.8125 
z
M 18.3125 54.390625 
Q 18.3125 48.734375 21.84375 45.5625 
Q 25.390625 42.390625 31.78125 42.390625 
Q 38.140625 42.390625 41.71875 45.5625 
Q 45.3125 48.734375 45.3125 54.390625 
Q 45.3125 60.0625 41.71875 63.234375 
Q 38.140625 66.40625 31.78125 66.40625 
Q 25.390625 66.40625 21.84375 63.234375 
Q 18.3125 60.0625 18.3125 54.390625 
z
" id="DejaVuSans-56"/>
      </defs>
      <g transform="translate(163.45625 414.768412)scale(0.15 -0.15)">
       <use xlink:href="#DejaVuSans-56"/>
      </g>
     </g>
    </g>
    <g id="ytick_6">
     <g id="line2d_25">
      <path clip-path="url(#p288257178f)" d="M 180 338.187916 
L 1296 338.187916 
" style="fill:none;stroke:#e6e6e6;stroke-linecap:square;stroke-width:0.8;"/>
     </g>
     <g id="line2d_26">
      <g>
       <use style="stroke:#000000;stroke-width:0.8;" x="180" xlink:href="#m9809cee653" y="338.187916"/>
      </g>
     </g>
     <g id="text_14">
      <!-- 10 -->
      <g transform="translate(153.9125 343.886744)scale(0.15 -0.15)">
       <use xlink:href="#DejaVuSans-49"/>
       <use x="63.623047" xlink:href="#DejaVuSans-48"/>
      </g>
     </g>
    </g>
    <g id="ytick_7">
     <g id="line2d_27">
      <path clip-path="url(#p288257178f)" d="M 180 267.306248 
L 1296 267.306248 
" style="fill:none;stroke:#e6e6e6;stroke-linecap:square;stroke-width:0.8;"/>
     </g>
     <g id="line2d_28">
      <g>
       <use style="stroke:#000000;stroke-width:0.8;" x="180" xlink:href="#m9809cee653" y="267.306248"/>
      </g>
     </g>
     <g id="text_15">
      <!-- 12 -->
      <g transform="translate(153.9125 273.005076)scale(0.15 -0.15)">
       <use xlink:href="#DejaVuSans-49"/>
       <use x="63.623047" xlink:href="#DejaVuSans-50"/>
      </g>
     </g>
    </g>
    <g id="ytick_8">
     <g id="line2d_29">
      <path clip-path="url(#p288257178f)" d="M 180 196.42458 
L 1296 196.42458 
" style="fill:none;stroke:#e6e6e6;stroke-linecap:square;stroke-width:0.8;"/>
     </g>
     <g id="line2d_30">
      <g>
       <use style="stroke:#000000;stroke-width:0.8;" x="180" xlink:href="#m9809cee653" y="196.42458"/>
      </g>
     </g>
     <g id="text_16">
      <!-- 14 -->
      <g transform="translate(153.9125 202.123408)scale(0.15 -0.15)">
       <use xlink:href="#DejaVuSans-49"/>
       <use x="63.623047" xlink:href="#DejaVuSans-52"/>
      </g>
     </g>
    </g>
    <g id="ytick_9">
     <g id="line2d_31">
      <path clip-path="url(#p288257178f)" d="M 180 125.542912 
L 1296 125.542912 
" style="fill:none;stroke:#e6e6e6;stroke-linecap:square;stroke-width:0.8;"/>
     </g>
     <g id="line2d_32">
      <g>
       <use style="stroke:#000000;stroke-width:0.8;" x="180" xlink:href="#m9809cee653" y="125.542912"/>
      </g>
     </g>
     <g id="text_17">
      <!-- 16 -->
      <g transform="translate(153.9125 131.24174)scale(0.15 -0.15)">
       <use xlink:href="#DejaVuSans-49"/>
       <use x="63.623047" xlink:href="#DejaVuSans-54"/>
      </g>
     </g>
    </g>
    <g id="text_18">
     <!-- $f^x(A)$ -->
     <defs>
      <path d="M 47.796875 75.984375 
L 46.390625 68.5 
L 37.796875 68.5 
Q 32.90625 68.5 30.6875 66.578125 
Q 28.46875 64.65625 27.390625 59.515625 
L 26.421875 54.6875 
L 41.21875 54.6875 
L 39.890625 47.703125 
L 25.09375 47.703125 
L 15.828125 0 
L 6.78125 0 
L 16.109375 47.703125 
L 7.515625 47.703125 
L 8.796875 54.6875 
L 17.390625 54.6875 
L 18.109375 58.5 
Q 19.96875 68.171875 24.625 72.078125 
Q 29.296875 75.984375 39.3125 75.984375 
z
" id="DejaVuSans-Oblique-102"/>
      <path d="M 60.015625 54.6875 
L 34.90625 27.875 
L 50.296875 0 
L 39.984375 0 
L 28.421875 21.6875 
L 8.296875 0 
L -2.59375 0 
L 24.3125 28.8125 
L 10.015625 54.6875 
L 20.3125 54.6875 
L 30.8125 34.90625 
L 49.125 54.6875 
z
" id="DejaVuSans-Oblique-120"/>
     </defs>
     <g transform="translate(143.673437 444.15)rotate(-90)scale(0.3 -0.3)">
      <use transform="translate(0 0.4375)" xlink:href="#DejaVuSans-Oblique-102"/>
      <use transform="translate(42.652786 38.71875)scale(0.7)" xlink:href="#DejaVuSans-Oblique-120"/>
      <use transform="translate(86.812943 0.4375)" xlink:href="#DejaVuSans-40"/>
      <use transform="translate(125.826615 0.4375)" xlink:href="#DejaVuSans-Oblique-65"/>
      <use transform="translate(194.234818 0.4375)" xlink:href="#DejaVuSans-41"/>
     </g>
    </g>
   </g>
   <g id="line2d_33">
    <path clip-path="url(#p288257178f)" d="M 230.727273 657.159959 
L 240.975207 657.609339 
L 251.22314 658.90848 
L 261.471074 660.921235 
L 271.719008 663.453134 
L 281.966942 666.288819 
L 292.214876 669.227042 
L 302.46281 672.104932 
L 312.710744 674.808343 
L 322.958678 677.270125 
L 333.206612 679.461023 
L 343.454545 681.378207 
L 353.702479 683.034988 
L 363.950413 684.453267 
L 374.198347 685.658709 
L 384.446281 686.677911 
L 394.694215 687.536758 
L 404.942149 688.259408 
L 415.190083 688.867649 
L 425.438017 689.38053 
L 435.68595 689.814255 
L 445.933884 690.182295 
L 456.181818 690.495669 
L 466.429752 690.763309 
L 476.677686 690.992458 
L 486.92562 691.189023 
L 497.173554 691.357886 
L 507.421488 691.503138 
L 517.669421 691.628248 
L 527.917355 691.736193 
L 538.165289 691.829533 
L 548.413223 691.910476 
L 558.661157 691.980916 
L 568.909091 692.042469 
L 579.157025 692.096503 
L 589.404959 692.144167 
L 599.652893 692.186419 
L 609.900826 692.22405 
L 620.14876 692.257709 
L 630.396694 692.287928 
L 640.644628 692.315143 
L 650.892562 692.339711 
L 661.140496 692.361924 
L 671.38843 692.382027 
L 681.636364 692.400226 
L 691.884298 692.416695 
L 702.132231 692.431586 
L 712.380165 692.445034 
L 722.628099 692.45716 
L 732.876033 692.468071 
L 743.123967 692.47787 
L 753.371901 692.486649 
L 763.619835 692.494495 
L 773.867769 692.501489 
L 784.115702 692.507708 
L 794.363636 692.513222 
L 804.61157 692.518098 
L 814.859504 692.522397 
L 825.107438 692.526178 
L 835.355372 692.529494 
L 845.603306 692.532393 
L 855.85124 692.534921 
L 866.099174 692.537119 
L 876.347107 692.539025 
L 886.595041 692.540672 
L 896.842975 692.542093 
L 907.090909 692.543315 
L 917.338843 692.544363 
L 927.586777 692.545259 
L 937.834711 692.546022 
L 948.082645 692.546672 
L 958.330579 692.547222 
L 968.578512 692.547688 
L 978.826446 692.548081 
L 989.07438 692.548411 
L 999.322314 692.548688 
L 1009.570248 692.54892 
L 1019.818182 692.549113 
L 1030.066116 692.549274 
L 1040.31405 692.549407 
L 1050.561983 692.549518 
L 1060.809917 692.549609 
L 1071.057851 692.549684 
L 1081.305785 692.549745 
L 1091.553719 692.549795 
L 1101.801653 692.549836 
L 1112.049587 692.54987 
L 1122.297521 692.549897 
L 1132.545455 692.549919 
L 1142.793388 692.549937 
L 1153.041322 692.549951 
L 1163.289256 692.549962 
L 1173.53719 692.549971 
L 1183.785124 692.549979 
L 1194.033058 692.549985 
L 1204.280992 692.549989 
L 1214.528926 692.549993 
L 1224.77686 692.549996 
L 1235.024793 692.549998 
L 1245.272727 692.55 
" style="fill:none;stroke:#cccccc;stroke-linecap:square;stroke-width:2;"/>
   </g>
   <g id="line2d_34">
    <path clip-path="url(#p288257178f)" d="M 230.727273 479.979605 
L 240.975207 482.105562 
L 251.22314 488.247219 
L 261.471074 497.749682 
L 271.719008 509.68164 
L 281.966942 523.018221 
L 292.214876 536.809105 
L 302.46281 550.291574 
L 312.710744 562.935045 
L 322.958678 574.428449 
L 333.206612 584.634931 
L 343.454545 593.53821 
L 353.702479 601.196466 
L 363.950413 607.709599 
L 374.198347 613.198595 
L 384.446281 617.792999 
L 394.694215 621.622785 
L 404.942149 624.81249 
L 415.190083 627.476826 
L 425.438017 629.717731 
L 435.68595 631.622877 
L 445.933884 633.26555 
L 456.181818 634.705555 
L 466.429752 635.990783 
L 476.677686 637.159038 
L 486.92562 638.239858 
L 497.173554 639.256159 
L 507.421488 640.225612 
L 517.669421 641.16176 
L 527.917355 642.074897 
L 538.165289 642.972752 
L 548.413223 643.86102 
L 558.661157 644.743788 
L 568.909091 645.623871 
L 579.157025 646.503085 
L 589.404959 647.382469 
L 599.652893 648.262469 
L 609.900826 649.14308 
L 620.14876 650.023971 
L 630.396694 650.904572 
L 640.644628 651.784151 
L 650.892562 652.661866 
L 661.140496 653.536813 
L 671.38843 654.408052 
L 681.636364 655.274634 
L 691.884298 656.135615 
L 702.132231 656.99007 
L 712.380165 657.837102 
L 722.628099 658.675847 
L 732.876033 659.505476 
L 743.123967 660.325203 
L 753.371901 661.134284 
L 763.619835 661.932017 
L 773.867769 662.717747 
L 784.115702 663.490862 
L 794.363636 664.250796 
L 804.61157 664.997031 
L 814.859504 665.729089 
L 825.107438 666.446542 
L 835.355372 667.149002 
L 845.603306 667.836129 
L 855.85124 668.507621 
L 866.099174 669.163223 
L 876.347107 669.802718 
L 886.595041 670.42593 
L 896.842975 671.03272 
L 907.090909 671.62299 
L 917.338843 672.196676 
L 927.586777 672.753748 
L 937.834711 673.294213 
L 948.082645 673.818106 
L 958.330579 674.325495 
L 968.578512 674.816477 
L 978.826446 675.291174 
L 989.07438 675.749736 
L 999.322314 676.192337 
L 1009.570248 676.619172 
L 1019.818182 677.030461 
L 1030.066116 677.426437 
L 1040.31405 677.807358 
L 1050.561983 678.173492 
L 1060.809917 678.525126 
L 1071.057851 678.862559 
L 1081.305785 679.186102 
L 1091.553719 679.496075 
L 1101.801653 679.792808 
L 1112.049587 680.076641 
L 1122.297521 680.347916 
L 1132.545455 680.606984 
L 1142.793388 680.854198 
L 1153.041322 681.089914 
L 1163.289256 681.31449 
L 1173.53719 681.528286 
L 1183.785124 681.73166 
L 1194.033058 681.924969 
L 1204.280992 682.10857 
L 1214.528926 682.282814 
L 1224.77686 682.448051 
L 1235.024793 682.604627 
L 1245.272727 682.752882 
" style="fill:none;stroke:#999999;stroke-linecap:square;stroke-width:2;"/>
   </g>
   <g id="line2d_35">
    <path clip-path="url(#p288257178f)" d="M 230.727273 444.701799 
L 240.975207 446.546632 
L 251.22314 451.940949 
L 261.471074 460.484797 
L 271.719008 471.575743 
L 281.966942 484.490711 
L 292.214876 498.475861 
L 302.46281 512.828073 
L 312.710744 526.955479 
L 322.958678 540.410815 
L 333.206612 552.897941 
L 343.454545 564.2571 
L 353.702479 574.437179 
L 363.950413 583.463438 
L 374.198347 591.407416 
L 384.446281 598.363056 
L 394.694215 604.430437 
L 404.942149 609.706495 
L 415.190083 614.281019 
L 425.438017 618.235916 
L 435.68595 621.646026 
L 445.933884 624.580298 
L 456.181818 627.102691 
L 466.429752 629.272586 
L 476.677686 631.144792 
L 486.92562 632.769299 
L 497.173554 634.190978 
L 507.421488 635.449367 
L 517.669421 636.578613 
L 527.917355 637.607614 
L 538.165289 638.560319 
L 548.413223 639.456167 
L 558.661157 640.310602 
L 568.909091 641.135632 
L 579.157025 641.940372 
L 589.404959 642.731572 
L 599.652893 643.514082 
L 609.900826 644.291258 
L 620.14876 645.065312 
L 630.396694 645.837593 
L 640.644628 646.608811 
L 650.892562 647.379221 
L 661.140496 648.148754 
L 671.38843 648.917121 
L 681.636364 649.683892 
L 691.884298 650.448546 
L 702.132231 651.210514 
L 712.380165 651.969206 
L 722.628099 652.724028 
L 732.876033 653.474399 
L 743.123967 654.219756 
L 753.371901 654.959562 
L 763.619835 655.693308 
L 773.867769 656.420519 
L 784.115702 657.140751 
L 794.363636 657.853594 
L 804.61157 658.558673 
L 814.859504 659.255646 
L 825.107438 659.944207 
L 835.355372 660.624081 
L 845.603306 661.295028 
L 855.85124 661.956841 
L 866.099174 662.609343 
L 876.347107 663.252388 
L 886.595041 663.885862 
L 896.842975 664.509679 
L 907.090909 665.123781 
L 917.338843 665.728136 
L 927.586777 666.322741 
L 937.834711 666.907615 
L 948.082645 667.482801 
L 958.330579 668.048366 
L 968.578512 668.604397 
L 978.826446 669.151 
L 989.07438 669.688304 
L 999.322314 670.216449 
L 1009.570248 670.735597 
L 1019.818182 671.245923 
L 1030.066116 671.747614 
L 1040.31405 672.240872 
L 1050.561983 672.72591 
L 1060.809917 673.20295 
L 1071.057851 673.672224 
L 1081.305785 674.133973 
L 1091.553719 674.588443 
L 1101.801653 675.035886 
L 1112.049587 675.476561 
L 1122.297521 675.910729 
L 1132.545455 676.338654 
L 1142.793388 676.760604 
L 1153.041322 677.176844 
L 1163.289256 677.587646 
L 1173.53719 677.993275 
L 1183.785124 678.393999 
L 1194.033058 678.790084 
L 1204.280992 679.181793 
L 1214.528926 679.569386 
L 1224.77686 679.95312 
L 1235.024793 680.333249 
L 1245.272727 680.710021 
" style="fill:none;stroke:#0000ff;stroke-linecap:square;stroke-width:2;"/>
   </g>
   <g id="line2d_36">
    <path clip-path="url(#p288257178f)" d="M 230.727273 409.090849 
L 240.975207 410.782776 
L 251.22314 415.749677 
L 261.471074 423.68008 
L 271.719008 434.10202 
L 281.966942 446.442894 
L 292.214876 460.094879 
L 302.46281 474.474077 
L 312.710744 489.064828 
L 322.958678 503.44541 
L 333.206612 517.295982 
L 343.454545 530.392906 
L 353.702479 542.59493 
L 363.950413 553.826338 
L 374.198347 564.060749 
L 384.446281 573.307487 
L 394.694215 581.601041 
L 404.942149 588.993213 
L 415.190083 595.547241 
L 425.438017 601.333238 
L 435.68595 606.424503 
L 445.933884 610.894492 
L 456.181818 614.814405 
L 466.429752 618.251378 
L 476.677686 621.267287 
L 486.92562 623.918106 
L 497.173554 626.253734 
L 507.421488 628.318177 
L 517.669421 630.149955 
L 527.917355 631.782645 
L 538.165289 633.245449 
L 548.413223 634.563756 
L 558.661157 635.759639 
L 568.909091 636.85229 
L 579.157025 637.858385 
L 589.404959 638.792384 
L 599.652893 639.66679 
L 609.900826 640.492354 
L 620.14876 641.27827 
L 630.396694 642.032335 
L 640.644628 642.761102 
L 650.892562 643.470023 
L 661.140496 644.163579 
L 671.38843 644.845404 
L 681.636364 645.518398 
L 691.884298 646.184835 
L 702.132231 646.846461 
L 712.380165 647.504574 
L 722.628099 648.160105 
L 732.876033 648.813687 
L 743.123967 649.465708 
L 753.371901 650.116361 
L 763.619835 650.765689 
L 773.867769 651.413616 
L 784.115702 652.059975 
L 794.363636 652.704532 
L 804.61157 653.347006 
L 814.859504 653.987079 
L 825.107438 654.624412 
L 835.355372 655.258654 
L 845.603306 655.889444 
L 855.85124 656.516423 
L 866.099174 657.139231 
L 876.347107 657.757518 
L 886.595041 658.370939 
L 896.842975 658.979162 
L 907.090909 659.581863 
L 917.338843 660.178733 
L 927.586777 660.769473 
L 937.834711 661.353802 
L 948.082645 661.931448 
L 958.330579 662.502155 
L 968.578512 663.065681 
L 978.826446 663.6218 
L 989.07438 664.170297 
L 999.322314 664.710972 
L 1009.570248 665.243642 
L 1019.818182 665.768135 
L 1030.066116 666.284293 
L 1040.31405 666.791974 
L 1050.561983 667.291047 
L 1060.809917 667.781396 
L 1071.057851 668.262918 
L 1081.305785 668.735523 
L 1091.553719 669.199132 
L 1101.801653 669.653681 
L 1112.049587 670.099117 
L 1122.297521 670.535397 
L 1132.545455 670.962493 
L 1142.793388 671.380385 
L 1153.041322 671.789066 
L 1163.289256 672.188538 
L 1173.53719 672.578814 
L 1183.785124 672.959917 
L 1194.033058 673.331879 
L 1204.280992 673.69474 
L 1214.528926 674.04855 
L 1224.77686 674.393368 
L 1235.024793 674.729259 
L 1245.272727 675.056297 
" style="fill:none;stroke:#ff0000;stroke-linecap:square;stroke-width:2;"/>
   </g>
   <g id="line2d_37">
    <path clip-path="url(#p288257178f)" d="M 230.727273 125.55 
L 240.975207 129.939985 
L 251.22314 142.587175 
L 261.471074 162.051085 
L 271.719008 186.308608 
L 281.966942 213.175912 
L 292.214876 240.682568 
L 302.46281 267.306532 
L 312.710744 292.048228 
L 322.958678 314.380468 
L 333.206612 334.136011 
L 343.454545 351.387194 
L 353.702479 366.348172 
L 363.950413 379.307081 
L 374.198347 390.582248 
L 384.446281 400.493458 
L 394.694215 409.341921 
L 404.942149 417.396148 
L 415.190083 424.88314 
L 425.438017 431.984753 
L 435.68595 438.838655 
L 445.933884 445.542728 
L 456.181818 452.161458 
L 466.429752 458.733001 
L 476.677686 465.27592 
L 486.92562 471.794999 
L 497.173554 478.285898 
L 507.421488 484.738643 
L 517.669421 491.140128 
L 527.917355 497.475808 
L 538.165289 503.730815 
L 548.413223 509.890652 
L 558.661157 515.941622 
L 568.909091 521.871072 
L 579.157025 527.667533 
L 589.404959 533.320788 
L 599.652893 538.821896 
L 609.900826 544.163196 
L 620.14876 549.338282 
L 630.396694 554.341977 
L 640.644628 559.170285 
L 650.892562 563.820345 
L 661.140496 568.290369 
L 671.38843 572.579589 
L 681.636364 576.68818 
L 691.884298 580.6172 
L 702.132231 584.368512 
L 712.380165 587.944713 
L 722.628099 591.349062 
L 732.876033 594.585402 
L 743.123967 597.658093 
L 753.371901 600.571936 
L 763.619835 603.332105 
L 773.867769 605.944086 
L 784.115702 608.413604 
L 794.363636 610.746571 
L 804.61157 612.949029 
L 814.859504 615.027092 
L 825.107438 616.986905 
L 835.355372 618.834597 
L 845.603306 620.57624 
L 855.85124 622.217816 
L 866.099174 623.765185 
L 876.347107 625.224058 
L 886.595041 626.599972 
L 896.842975 627.898275 
L 907.090909 629.124104 
L 917.338843 630.28238 
L 927.586777 631.377791 
L 937.834711 632.41479 
L 948.082645 633.397594 
L 958.330579 634.330175 
L 968.578512 635.216266 
L 978.826446 636.059365 
L 989.07438 636.862735 
L 999.322314 637.629412 
L 1009.570248 638.362213 
L 1019.818182 639.063742 
L 1030.066116 639.736399 
L 1040.31405 640.382393 
L 1050.561983 641.003745 
L 1060.809917 641.602305 
L 1071.057851 642.179757 
L 1081.305785 642.737634 
L 1091.553719 643.277325 
L 1101.801653 643.800085 
L 1112.049587 644.307048 
L 1122.297521 644.799233 
L 1132.545455 645.277556 
L 1142.793388 645.742837 
L 1153.041322 646.195808 
L 1163.289256 646.637126 
L 1173.53719 647.067372 
L 1183.785124 647.487065 
L 1194.033058 647.896667 
L 1204.280992 648.296586 
L 1214.528926 648.687186 
L 1224.77686 649.068789 
L 1235.024793 649.441682 
L 1245.272727 649.80612 
" style="fill:none;stroke:#00ffff;stroke-linecap:square;stroke-width:2;"/>
   </g>
   <g id="line2d_38">
    <path clip-path="url(#p288257178f)" d="M 230.727273 161.008554 
L 240.975207 165.654443 
L 251.22314 178.908014 
L 261.471074 198.922311 
L 271.719008 223.209687 
L 281.966942 249.256161 
L 292.214876 275.000665 
L 302.46281 299.059372 
L 312.710744 320.71051 
L 322.958678 339.73952 
L 333.206612 356.252773 
L 343.454545 370.526538 
L 353.702479 382.909084 
L 363.950413 393.764609 
L 374.198347 403.441218 
L 384.446281 412.250953 
L 394.694215 420.457208 
L 404.942149 428.268714 
L 415.190083 435.83978 
L 425.438017 443.27559 
L 435.68595 450.640588 
L 445.933884 457.967913 
L 456.181818 465.268331 
L 466.429752 472.537743 
L 476.677686 479.76298 
L 486.92562 486.925956 
L 497.173554 494.006468 
L 507.421488 500.983993 
L 517.669421 507.838774 
L 527.917355 514.552458 
L 538.165289 521.10844 
L 548.413223 527.492036 
L 558.661157 533.690552 
L 568.909091 539.69329 
L 579.157025 545.491511 
L 589.404959 551.078374 
L 599.652893 556.448854 
L 609.900826 561.599647 
L 620.14876 566.529056 
L 630.396694 571.236883 
L 640.644628 575.724295 
L 650.892562 579.993705 
L 661.140496 584.048636 
L 671.38843 587.893593 
L 681.636364 591.533933 
L 691.884298 594.975738 
L 702.132231 598.225695 
L 712.380165 601.290976 
L 722.628099 604.17913 
L 732.876033 606.89798 
L 743.123967 609.455523 
L 753.371901 611.859847 
L 763.619835 614.119053 
L 773.867769 616.241178 
L 784.115702 618.23414 
L 794.363636 620.105681 
L 804.61157 621.863321 
L 814.859504 623.514322 
L 825.107438 625.065658 
L 835.355372 626.523988 
L 845.603306 627.895645 
L 855.85124 629.186617 
L 866.099174 630.402548 
L 876.347107 631.548732 
L 886.595041 632.630116 
L 896.842975 633.651309 
L 907.090909 634.616586 
L 917.338843 635.529904 
L 927.586777 636.394912 
L 937.834711 637.21497 
L 948.082645 637.993158 
L 958.330579 638.732299 
L 968.578512 639.434976 
L 978.826446 640.103542 
L 989.07438 640.740147 
L 999.322314 641.346747 
L 1009.570248 641.925123 
L 1019.818182 642.476899 
L 1030.066116 643.003552 
L 1040.31405 643.50643 
L 1050.561983 643.986764 
L 1060.809917 644.445679 
L 1071.057851 644.884206 
L 1081.305785 645.303293 
L 1091.553719 645.703816 
L 1101.801653 646.086583 
L 1112.049587 646.452346 
L 1122.297521 646.801805 
L 1132.545455 647.135617 
L 1142.793388 647.454399 
L 1153.041322 647.758733 
L 1163.289256 648.049173 
L 1173.53719 648.326245 
L 1183.785124 648.590451 
L 1194.033058 648.842274 
L 1204.280992 649.082178 
L 1214.528926 649.31061 
L 1224.77686 649.528002 
L 1235.024793 649.734772 
L 1245.272727 649.931328 
" style="fill:none;stroke:#ff00ff;stroke-linecap:square;stroke-width:2;"/>
   </g>
   <g id="patch_3">
    <path d="M 180 720.9 
L 180 97.2 
" style="fill:none;stroke:#000000;stroke-linecap:square;stroke-linejoin:miter;stroke-width:0.8;"/>
   </g>
   <g id="patch_4">
    <path d="M 1296 720.9 
L 1296 97.2 
" style="fill:none;stroke:#000000;stroke-linecap:square;stroke-linejoin:miter;stroke-width:0.8;"/>
   </g>
   <g id="patch_5">
    <path d="M 180 720.9 
L 1296 720.9 
" style="fill:none;stroke:#000000;stroke-linecap:square;stroke-linejoin:miter;stroke-width:0.8;"/>
   </g>
   <g id="patch_6">
    <path d="M 180 97.2 
L 1296 97.2 
" style="fill:none;stroke:#000000;stroke-linecap:square;stroke-linejoin:miter;stroke-width:0.8;"/>
   </g>
   <g id="legend_1">
    <g id="patch_7">
     <path d="M 1178.75 337.371875 
L 1278.5 337.371875 
Q 1283.5 337.371875 1283.5 332.371875 
L 1283.5 114.7 
Q 1283.5 109.7 1278.5 109.7 
L 1178.75 109.7 
Q 1173.75 109.7 1173.75 114.7 
L 1173.75 332.371875 
Q 1173.75 337.371875 1178.75 337.371875 
z
" style="fill:#ffffff;opacity:0.8;stroke:#cccccc;stroke-linejoin:miter;"/>
    </g>
    <g id="line2d_39">
     <path d="M 1183.75 129.946094 
L 1233.75 129.946094 
" style="fill:none;stroke:#cccccc;stroke-linecap:square;stroke-width:2;"/>
    </g>
    <g id="line2d_40"/>
    <g id="text_19">
     <!-- $H$ -->
     <defs>
      <path d="M 16.890625 72.90625 
L 26.8125 72.90625 
L 21 43.015625 
L 56.78125 43.015625 
L 62.59375 72.90625 
L 72.515625 72.90625 
L 58.296875 0 
L 48.390625 0 
L 55.171875 34.71875 
L 19.390625 34.71875 
L 12.59375 0 
L 2.6875 0 
z
" id="DejaVuSans-Oblique-72"/>
     </defs>
     <g transform="translate(1253.75 138.696094)scale(0.25 -0.25)">
      <use transform="translate(0 0.09375)" xlink:href="#DejaVuSans-Oblique-72"/>
     </g>
    </g>
    <g id="line2d_41">
     <path d="M 1183.75 166.641406 
L 1233.75 166.641406 
" style="fill:none;stroke:#999999;stroke-linecap:square;stroke-width:2;"/>
    </g>
    <g id="line2d_42"/>
    <g id="text_20">
     <!-- $C$ -->
     <defs>
      <path d="M 69.484375 67.28125 
L 67.484375 56.890625 
Q 62.796875 61.625 57.546875 63.921875 
Q 52.296875 66.21875 46.1875 66.21875 
Q 37.84375 66.21875 31.515625 62.203125 
Q 25.203125 58.203125 20.609375 50 
Q 17.671875 44.734375 16.125 38.84375 
Q 14.59375 32.953125 14.59375 27 
Q 14.59375 17.046875 19.75 11.8125 
Q 24.90625 6.59375 34.71875 6.59375 
Q 41.5 6.59375 47.75 8.765625 
Q 54 10.9375 59.90625 15.28125 
L 57.625 3.609375 
Q 51.8125 1.125 45.875 -0.140625 
Q 39.9375 -1.421875 33.984375 -1.421875 
Q 19.96875 -1.421875 12.078125 6.1875 
Q 4.203125 13.8125 4.203125 27.390625 
Q 4.203125 36.078125 7.203125 44.46875 
Q 10.203125 52.875 15.828125 59.8125 
Q 21.78125 67.1875 29.421875 70.703125 
Q 37.0625 74.21875 47.21875 74.21875 
Q 53.46875 74.21875 59.0625 72.484375 
Q 64.65625 70.75 69.484375 67.28125 
z
" id="DejaVuSans-Oblique-67"/>
     </defs>
     <g transform="translate(1253.75 175.391406)scale(0.25 -0.25)">
      <use transform="translate(0 0.78125)" xlink:href="#DejaVuSans-Oblique-67"/>
     </g>
    </g>
    <g id="line2d_43">
     <path d="M 1183.75 203.336719 
L 1233.75 203.336719 
" style="fill:none;stroke:#0000ff;stroke-linecap:square;stroke-width:2;"/>
    </g>
    <g id="line2d_44"/>
    <g id="text_21">
     <!-- $N$ -->
     <defs>
      <path d="M 16.890625 72.90625 
L 30.171875 72.90625 
L 50.296875 10.40625 
L 62.5 72.90625 
L 72.125 72.90625 
L 57.90625 0 
L 44.578125 0 
L 24.515625 62.890625 
L 12.3125 0 
L 2.6875 0 
z
" id="DejaVuSans-Oblique-78"/>
     </defs>
     <g transform="translate(1253.75 212.086719)scale(0.25 -0.25)">
      <use transform="translate(0 0.09375)" xlink:href="#DejaVuSans-Oblique-78"/>
     </g>
    </g>
    <g id="line2d_45">
     <path d="M 1183.75 240.032031 
L 1233.75 240.032031 
" style="fill:none;stroke:#ff0000;stroke-linecap:square;stroke-width:2;"/>
    </g>
    <g id="line2d_46"/>
    <g id="text_22">
     <!-- $O$ -->
     <defs>
      <path d="M 45.609375 66.21875 
Q 37.5 66.21875 31.296875 62.28125 
Q 25.09375 58.34375 20.515625 50.296875 
Q 17.578125 45.171875 16.03125 39.40625 
Q 14.5 33.640625 14.5 27.78125 
Q 14.5 17.625 19.359375 12.109375 
Q 24.21875 6.59375 33.109375 6.59375 
Q 41.109375 6.59375 47.375 10.5625 
Q 53.65625 14.546875 58.109375 22.40625 
Q 61.078125 27.6875 62.640625 33.46875 
Q 64.203125 39.265625 64.203125 45.015625 
Q 64.203125 55.125 59.3125 60.671875 
Q 54.4375 66.21875 45.609375 66.21875 
z
M 32.8125 -1.421875 
Q 19.390625 -1.421875 11.6875 6.53125 
Q 4 14.5 4 28.328125 
Q 4 36.234375 7 44.484375 
Q 10.015625 52.734375 15.28125 59.1875 
Q 21.484375 66.75 29.09375 70.484375 
Q 36.71875 74.21875 45.90625 74.21875 
Q 59.28125 74.21875 66.984375 66.328125 
Q 74.703125 58.453125 74.703125 44.828125 
Q 74.703125 36.421875 71.765625 28.3125 
Q 68.84375 20.21875 63.375 13.625 
Q 57.125 6 49.578125 2.28125 
Q 42.046875 -1.421875 32.8125 -1.421875 
z
" id="DejaVuSans-Oblique-79"/>
     </defs>
     <g transform="translate(1253.75 248.782031)scale(0.25 -0.25)">
      <use transform="translate(0 0.78125)" xlink:href="#DejaVuSans-Oblique-79"/>
     </g>
    </g>
    <g id="line2d_47">
     <path d="M 1183.75 276.727344 
L 1233.75 276.727344 
" style="fill:none;stroke:#00ffff;stroke-linecap:square;stroke-width:2;"/>
    </g>
    <g id="line2d_48"/>
    <g id="text_23">
     <!-- $S$ -->
     <defs>
      <path d="M 60.296875 70.515625 
L 58.40625 60.890625 
Q 53.46875 63.53125 48.609375 64.875 
Q 43.75 66.21875 39.203125 66.21875 
Q 30.375 66.21875 25.140625 62.359375 
Q 19.921875 58.5 19.921875 52.09375 
Q 19.921875 48.578125 21.84375 46.703125 
Q 23.78125 44.828125 31.78125 42.671875 
L 37.703125 41.21875 
Q 47.703125 38.625 51.609375 34.640625 
Q 55.515625 30.671875 55.515625 23.484375 
Q 55.515625 12.453125 46.84375 5.515625 
Q 38.1875 -1.421875 24.03125 -1.421875 
Q 18.21875 -1.421875 12.359375 -0.265625 
Q 6.5 0.875 0.59375 3.21875 
L 2.59375 13.375 
Q 8.015625 10.015625 13.453125 8.296875 
Q 18.890625 6.59375 24.3125 6.59375 
Q 33.546875 6.59375 39.109375 10.6875 
Q 44.671875 14.796875 44.671875 21.390625 
Q 44.671875 25.78125 42.453125 28.046875 
Q 40.234375 30.328125 32.90625 32.171875 
L 27 33.6875 
Q 16.890625 36.328125 13.203125 39.765625 
Q 9.515625 43.21875 9.515625 49.421875 
Q 9.515625 60.296875 17.890625 67.25 
Q 26.265625 74.21875 39.703125 74.21875 
Q 44.921875 74.21875 50.046875 73.28125 
Q 55.171875 72.359375 60.296875 70.515625 
z
" id="DejaVuSans-Oblique-83"/>
     </defs>
     <g transform="translate(1253.75 285.477344)scale(0.25 -0.25)">
      <use transform="translate(0 0.78125)" xlink:href="#DejaVuSans-Oblique-83"/>
     </g>
    </g>
    <g id="line2d_49">
     <path d="M 1183.75 313.422656 
L 1233.75 313.422656 
" style="fill:none;stroke:#ff00ff;stroke-linecap:square;stroke-width:2;"/>
    </g>
    <g id="line2d_50"/>
    <g id="text_24">
     <!-- $P$ -->
     <defs>
      <path d="M 16.890625 72.90625 
L 39.703125 72.90625 
Q 49.65625 72.90625 54.875 68.265625 
Q 60.109375 63.625 60.109375 54.6875 
Q 60.109375 42.671875 52.390625 35.984375 
Q 44.671875 29.296875 30.71875 29.296875 
L 18.3125 29.296875 
L 12.59375 0 
L 2.6875 0 
z
M 25.203125 64.796875 
L 19.921875 37.40625 
L 32.328125 37.40625 
Q 40.71875 37.40625 45.203125 41.703125 
Q 49.703125 46 49.703125 54 
Q 49.703125 59.125 46.65625 61.953125 
Q 43.609375 64.796875 38.09375 64.796875 
z
" id="DejaVuSans-Oblique-80"/>
     </defs>
     <g transform="translate(1253.75 322.172656)scale(0.25 -0.25)">
      <use transform="translate(0 0.09375)" xlink:href="#DejaVuSans-Oblique-80"/>
     </g>
    </g>
   </g>
  </g>
 </g>
 <defs>
  <clipPath id="p288257178f">
   <rect height="623.7" width="1116" x="180" y="97.2"/>
  </clipPath>
 </defs>
</svg>
