<?xml version="1.0" encoding="utf-8" standalone="no"?>
<!DOCTYPE svg PUBLIC "-//W3C//DTD SVG 1.1//EN"
  "http://www.w3.org/Graphics/SVG/1.1/DTD/svg11.dtd">
<!-- Created with matplotlib (https://matplotlib.org/) -->
<svg height="810pt" version="1.1" viewBox="0 0 1440 810" width="1440pt" xmlns="http://www.w3.org/2000/svg" xmlns:xlink="http://www.w3.org/1999/xlink">
 <defs>
  <style type="text/css">
*{stroke-linecap:butt;stroke-linejoin:round;}
  </style>
 </defs>
 <g id="figure_1">
  <g id="patch_1">
   <path d="M 0 810 
L 1440 810 
L 1440 0 
L 0 0 
z
" style="fill:#ffffff;"/>
  </g>
  <g id="axes_1">
   <g id="patch_2">
    <path d="M 180 720.9 
L 1296 720.9 
L 1296 97.2 
L 180 97.2 
z
" style="fill:#ffffff;"/>
   </g>
   <g id="matplotlib.axis_1">
    <g id="xtick_1">
     <g id="line2d_1">
      <path clip-path="url(#paf964158b9)" d="M 230.727273 720.9 
L 230.727273 97.2 
" style="fill:none;stroke:#e6e6e6;stroke-linecap:square;stroke-width:0.8;"/>
     </g>
     <g id="line2d_2">
      <defs>
       <path d="M 0 0 
L 0 3.5 
" id="m1210694d61" style="stroke:#000000;stroke-width:0.8;"/>
      </defs>
      <g>
       <use style="stroke:#000000;stroke-width:0.8;" x="230.727273" xlink:href="#m1210694d61" y="720.9"/>
      </g>
     </g>
     <g id="text_1">
      <!-- 0.00 -->
      <defs>
       <path d="M 31.78125 66.40625 
Q 24.171875 66.40625 20.328125 58.90625 
Q 16.5 51.421875 16.5 36.375 
Q 16.5 21.390625 20.328125 13.890625 
Q 24.171875 6.390625 31.78125 6.390625 
Q 39.453125 6.390625 43.28125 13.890625 
Q 47.125 21.390625 47.125 36.375 
Q 47.125 51.421875 43.28125 58.90625 
Q 39.453125 66.40625 31.78125 66.40625 
z
M 31.78125 74.21875 
Q 44.046875 74.21875 50.515625 64.515625 
Q 56.984375 54.828125 56.984375 36.375 
Q 56.984375 17.96875 50.515625 8.265625 
Q 44.046875 -1.421875 31.78125 -1.421875 
Q 19.53125 -1.421875 13.0625 8.265625 
Q 6.59375 17.96875 6.59375 36.375 
Q 6.59375 54.828125 13.0625 64.515625 
Q 19.53125 74.21875 31.78125 74.21875 
z
" id="DejaVuSans-48"/>
       <path d="M 10.6875 12.40625 
L 21 12.40625 
L 21 0 
L 10.6875 0 
z
" id="DejaVuSans-46"/>
      </defs>
      <g transform="translate(214.028054 739.297656)scale(0.15 -0.15)">
       <use xlink:href="#DejaVuSans-48"/>
       <use x="63.623047" xlink:href="#DejaVuSans-46"/>
       <use x="95.410156" xlink:href="#DejaVuSans-48"/>
       <use x="159.033203" xlink:href="#DejaVuSans-48"/>
      </g>
     </g>
    </g>
    <g id="xtick_2">
     <g id="line2d_3">
      <path clip-path="url(#paf964158b9)" d="M 357.545455 720.9 
L 357.545455 97.2 
" style="fill:none;stroke:#e6e6e6;stroke-linecap:square;stroke-width:0.8;"/>
     </g>
     <g id="line2d_4">
      <g>
       <use style="stroke:#000000;stroke-width:0.8;" x="357.545455" xlink:href="#m1210694d61" y="720.9"/>
      </g>
     </g>
     <g id="text_2">
      <!-- 0.25 -->
      <defs>
       <path d="M 19.1875 8.296875 
L 53.609375 8.296875 
L 53.609375 0 
L 7.328125 0 
L 7.328125 8.296875 
Q 12.9375 14.109375 22.625 23.890625 
Q 32.328125 33.6875 34.8125 36.53125 
Q 39.546875 41.84375 41.421875 45.53125 
Q 43.3125 49.21875 43.3125 52.78125 
Q 43.3125 58.59375 39.234375 62.25 
Q 35.15625 65.921875 28.609375 65.921875 
Q 23.96875 65.921875 18.8125 64.3125 
Q 13.671875 62.703125 7.8125 59.421875 
L 7.8125 69.390625 
Q 13.765625 71.78125 18.9375 73 
Q 24.125 74.21875 28.421875 74.21875 
Q 39.75 74.21875 46.484375 68.546875 
Q 53.21875 62.890625 53.21875 53.421875 
Q 53.21875 48.921875 51.53125 44.890625 
Q 49.859375 40.875 45.40625 35.40625 
Q 44.1875 33.984375 37.640625 27.21875 
Q 31.109375 20.453125 19.1875 8.296875 
z
" id="DejaVuSans-50"/>
       <path d="M 10.796875 72.90625 
L 49.515625 72.90625 
L 49.515625 64.59375 
L 19.828125 64.59375 
L 19.828125 46.734375 
Q 21.96875 47.46875 24.109375 47.828125 
Q 26.265625 48.1875 28.421875 48.1875 
Q 40.625 48.1875 47.75 41.5 
Q 54.890625 34.8125 54.890625 23.390625 
Q 54.890625 11.625 47.5625 5.09375 
Q 40.234375 -1.421875 26.90625 -1.421875 
Q 22.3125 -1.421875 17.546875 -0.640625 
Q 12.796875 0.140625 7.71875 1.703125 
L 7.71875 11.625 
Q 12.109375 9.234375 16.796875 8.0625 
Q 21.484375 6.890625 26.703125 6.890625 
Q 35.15625 6.890625 40.078125 11.328125 
Q 45.015625 15.765625 45.015625 23.390625 
Q 45.015625 31 40.078125 35.4375 
Q 35.15625 39.890625 26.703125 39.890625 
Q 22.75 39.890625 18.8125 39.015625 
Q 14.890625 38.140625 10.796875 36.28125 
z
" id="DejaVuSans-53"/>
      </defs>
      <g transform="translate(340.846236 739.297656)scale(0.15 -0.15)">
       <use xlink:href="#DejaVuSans-48"/>
       <use x="63.623047" xlink:href="#DejaVuSans-46"/>
       <use x="95.410156" xlink:href="#DejaVuSans-50"/>
       <use x="159.033203" xlink:href="#DejaVuSans-53"/>
      </g>
     </g>
    </g>
    <g id="xtick_3">
     <g id="line2d_5">
      <path clip-path="url(#paf964158b9)" d="M 484.363636 720.9 
L 484.363636 97.2 
" style="fill:none;stroke:#e6e6e6;stroke-linecap:square;stroke-width:0.8;"/>
     </g>
     <g id="line2d_6">
      <g>
       <use style="stroke:#000000;stroke-width:0.8;" x="484.363636" xlink:href="#m1210694d61" y="720.9"/>
      </g>
     </g>
     <g id="text_3">
      <!-- 0.50 -->
      <g transform="translate(467.664418 739.297656)scale(0.15 -0.15)">
       <use xlink:href="#DejaVuSans-48"/>
       <use x="63.623047" xlink:href="#DejaVuSans-46"/>
       <use x="95.410156" xlink:href="#DejaVuSans-53"/>
       <use x="159.033203" xlink:href="#DejaVuSans-48"/>
      </g>
     </g>
    </g>
    <g id="xtick_4">
     <g id="line2d_7">
      <path clip-path="url(#paf964158b9)" d="M 611.181818 720.9 
L 611.181818 97.2 
" style="fill:none;stroke:#e6e6e6;stroke-linecap:square;stroke-width:0.8;"/>
     </g>
     <g id="line2d_8">
      <g>
       <use style="stroke:#000000;stroke-width:0.8;" x="611.181818" xlink:href="#m1210694d61" y="720.9"/>
      </g>
     </g>
     <g id="text_4">
      <!-- 0.75 -->
      <defs>
       <path d="M 8.203125 72.90625 
L 55.078125 72.90625 
L 55.078125 68.703125 
L 28.609375 0 
L 18.3125 0 
L 43.21875 64.59375 
L 8.203125 64.59375 
z
" id="DejaVuSans-55"/>
      </defs>
      <g transform="translate(594.482599 739.297656)scale(0.15 -0.15)">
       <use xlink:href="#DejaVuSans-48"/>
       <use x="63.623047" xlink:href="#DejaVuSans-46"/>
       <use x="95.410156" xlink:href="#DejaVuSans-55"/>
       <use x="159.033203" xlink:href="#DejaVuSans-53"/>
      </g>
     </g>
    </g>
    <g id="xtick_5">
     <g id="line2d_9">
      <path clip-path="url(#paf964158b9)" d="M 738 720.9 
L 738 97.2 
" style="fill:none;stroke:#e6e6e6;stroke-linecap:square;stroke-width:0.8;"/>
     </g>
     <g id="line2d_10">
      <g>
       <use style="stroke:#000000;stroke-width:0.8;" x="738" xlink:href="#m1210694d61" y="720.9"/>
      </g>
     </g>
     <g id="text_5">
      <!-- 1.00 -->
      <defs>
       <path d="M 12.40625 8.296875 
L 28.515625 8.296875 
L 28.515625 63.921875 
L 10.984375 60.40625 
L 10.984375 69.390625 
L 28.421875 72.90625 
L 38.28125 72.90625 
L 38.28125 8.296875 
L 54.390625 8.296875 
L 54.390625 0 
L 12.40625 0 
z
" id="DejaVuSans-49"/>
      </defs>
      <g transform="translate(721.300781 739.297656)scale(0.15 -0.15)">
       <use xlink:href="#DejaVuSans-49"/>
       <use x="63.623047" xlink:href="#DejaVuSans-46"/>
       <use x="95.410156" xlink:href="#DejaVuSans-48"/>
       <use x="159.033203" xlink:href="#DejaVuSans-48"/>
      </g>
     </g>
    </g>
    <g id="xtick_6">
     <g id="line2d_11">
      <path clip-path="url(#paf964158b9)" d="M 864.818182 720.9 
L 864.818182 97.2 
" style="fill:none;stroke:#e6e6e6;stroke-linecap:square;stroke-width:0.8;"/>
     </g>
     <g id="line2d_12">
      <g>
       <use style="stroke:#000000;stroke-width:0.8;" x="864.818182" xlink:href="#m1210694d61" y="720.9"/>
      </g>
     </g>
     <g id="text_6">
      <!-- 1.25 -->
      <g transform="translate(848.118963 739.297656)scale(0.15 -0.15)">
       <use xlink:href="#DejaVuSans-49"/>
       <use x="63.623047" xlink:href="#DejaVuSans-46"/>
       <use x="95.410156" xlink:href="#DejaVuSans-50"/>
       <use x="159.033203" xlink:href="#DejaVuSans-53"/>
      </g>
     </g>
    </g>
    <g id="xtick_7">
     <g id="line2d_13">
      <path clip-path="url(#paf964158b9)" d="M 991.636364 720.9 
L 991.636364 97.2 
" style="fill:none;stroke:#e6e6e6;stroke-linecap:square;stroke-width:0.8;"/>
     </g>
     <g id="line2d_14">
      <g>
       <use style="stroke:#000000;stroke-width:0.8;" x="991.636364" xlink:href="#m1210694d61" y="720.9"/>
      </g>
     </g>
     <g id="text_7">
      <!-- 1.50 -->
      <g transform="translate(974.937145 739.297656)scale(0.15 -0.15)">
       <use xlink:href="#DejaVuSans-49"/>
       <use x="63.623047" xlink:href="#DejaVuSans-46"/>
       <use x="95.410156" xlink:href="#DejaVuSans-53"/>
       <use x="159.033203" xlink:href="#DejaVuSans-48"/>
      </g>
     </g>
    </g>
    <g id="xtick_8">
     <g id="line2d_15">
      <path clip-path="url(#paf964158b9)" d="M 1118.454545 720.9 
L 1118.454545 97.2 
" style="fill:none;stroke:#e6e6e6;stroke-linecap:square;stroke-width:0.8;"/>
     </g>
     <g id="line2d_16">
      <g>
       <use style="stroke:#000000;stroke-width:0.8;" x="1118.454545" xlink:href="#m1210694d61" y="720.9"/>
      </g>
     </g>
     <g id="text_8">
      <!-- 1.75 -->
      <g transform="translate(1101.755327 739.297656)scale(0.15 -0.15)">
       <use xlink:href="#DejaVuSans-49"/>
       <use x="63.623047" xlink:href="#DejaVuSans-46"/>
       <use x="95.410156" xlink:href="#DejaVuSans-55"/>
       <use x="159.033203" xlink:href="#DejaVuSans-53"/>
      </g>
     </g>
    </g>
    <g id="xtick_9">
     <g id="line2d_17">
      <path clip-path="url(#paf964158b9)" d="M 1245.272727 720.9 
L 1245.272727 97.2 
" style="fill:none;stroke:#e6e6e6;stroke-linecap:square;stroke-width:0.8;"/>
     </g>
     <g id="line2d_18">
      <g>
       <use style="stroke:#000000;stroke-width:0.8;" x="1245.272727" xlink:href="#m1210694d61" y="720.9"/>
      </g>
     </g>
     <g id="text_9">
      <!-- 2.00 -->
      <g transform="translate(1228.573509 739.297656)scale(0.15 -0.15)">
       <use xlink:href="#DejaVuSans-50"/>
       <use x="63.623047" xlink:href="#DejaVuSans-46"/>
       <use x="95.410156" xlink:href="#DejaVuSans-48"/>
       <use x="159.033203" xlink:href="#DejaVuSans-48"/>
      </g>
     </g>
    </g>
    <g id="text_10">
     <!-- $q(A)$ -->
     <defs>
      <path d="M 41.703125 8.203125 
Q 38.09375 3.46875 33.171875 1.015625 
Q 28.265625 -1.421875 22.3125 -1.421875 
Q 14.015625 -1.421875 9.296875 4.171875 
Q 4.59375 9.765625 4.59375 19.578125 
Q 4.59375 27.484375 7.5 34.859375 
Q 10.40625 42.234375 15.828125 48.09375 
Q 19.34375 51.90625 23.90625 53.953125 
Q 28.46875 56 33.5 56 
Q 39.546875 56 43.453125 53.609375 
Q 47.359375 51.21875 49.125 46.390625 
L 50.6875 54.59375 
L 59.71875 54.59375 
L 45.125 -20.609375 
L 36.078125 -20.609375 
z
M 13.921875 20.90625 
Q 13.921875 13.671875 16.9375 9.890625 
Q 19.96875 6.109375 25.6875 6.109375 
Q 34.1875 6.109375 40.1875 14.234375 
Q 46.1875 22.359375 46.1875 33.984375 
Q 46.1875 41.015625 43.078125 44.75 
Q 39.984375 48.484375 34.1875 48.484375 
Q 29.9375 48.484375 26.3125 46.5 
Q 22.703125 44.53125 20.015625 40.71875 
Q 17.1875 36.71875 15.546875 31.34375 
Q 13.921875 25.984375 13.921875 20.90625 
z
" id="DejaVuSans-Oblique-113"/>
      <path d="M 31 75.875 
Q 24.46875 64.65625 21.28125 53.65625 
Q 18.109375 42.671875 18.109375 31.390625 
Q 18.109375 20.125 21.3125 9.0625 
Q 24.515625 -2 31 -13.1875 
L 23.1875 -13.1875 
Q 15.875 -1.703125 12.234375 9.375 
Q 8.59375 20.453125 8.59375 31.390625 
Q 8.59375 42.28125 12.203125 53.3125 
Q 15.828125 64.359375 23.1875 75.875 
z
" id="DejaVuSans-40"/>
      <path d="M 36.8125 72.90625 
L 48 72.90625 
L 61.53125 0 
L 51.21875 0 
L 48.1875 18.703125 
L 15.375 18.703125 
L 5.078125 0 
L -5.328125 0 
z
M 40.375 63.1875 
L 19.921875 26.90625 
L 46.6875 26.90625 
z
" id="DejaVuSans-Oblique-65"/>
      <path d="M 8.015625 75.875 
L 15.828125 75.875 
Q 23.140625 64.359375 26.78125 53.3125 
Q 30.421875 42.28125 30.421875 31.390625 
Q 30.421875 20.453125 26.78125 9.375 
Q 23.140625 -1.703125 15.828125 -13.1875 
L 8.015625 -13.1875 
Q 14.5 -2 17.703125 9.0625 
Q 20.90625 20.125 20.90625 31.390625 
Q 20.90625 42.671875 17.703125 53.65625 
Q 14.5 64.65625 8.015625 75.875 
z
" id="DejaVuSans-41"/>
     </defs>
     <g transform="translate(706.5 769.217188)scale(0.3 -0.3)">
      <use transform="translate(0 0.125)" xlink:href="#DejaVuSans-Oblique-113"/>
      <use transform="translate(63.476562 0.125)" xlink:href="#DejaVuSans-40"/>
      <use transform="translate(102.490234 0.125)" xlink:href="#DejaVuSans-Oblique-65"/>
      <use transform="translate(170.898438 0.125)" xlink:href="#DejaVuSans-41"/>
     </g>
    </g>
   </g>
   <g id="matplotlib.axis_2">
    <g id="ytick_1">
     <g id="line2d_19">
      <path clip-path="url(#paf964158b9)" d="M 180 695.011932 
L 1296 695.011932 
" style="fill:none;stroke:#e6e6e6;stroke-linecap:square;stroke-width:0.8;"/>
     </g>
     <g id="line2d_20">
      <defs>
       <path d="M 0 0 
L -3.5 0 
" id="m64ec3ef669" style="stroke:#000000;stroke-width:0.8;"/>
      </defs>
      <g>
       <use style="stroke:#000000;stroke-width:0.8;" x="180" xlink:href="#m64ec3ef669" y="695.011932"/>
      </g>
     </g>
     <g id="text_11">
      <!-- 0 -->
      <g transform="translate(163.45625 700.71076)scale(0.15 -0.15)">
       <use xlink:href="#DejaVuSans-48"/>
      </g>
     </g>
    </g>
    <g id="ytick_2">
     <g id="line2d_21">
      <path clip-path="url(#paf964158b9)" d="M 180 591.427597 
L 1296 591.427597 
" style="fill:none;stroke:#e6e6e6;stroke-linecap:square;stroke-width:0.8;"/>
     </g>
     <g id="line2d_22">
      <g>
       <use style="stroke:#000000;stroke-width:0.8;" x="180" xlink:href="#m64ec3ef669" y="591.427597"/>
      </g>
     </g>
     <g id="text_12">
      <!-- 1 -->
      <g transform="translate(163.45625 597.126425)scale(0.15 -0.15)">
       <use xlink:href="#DejaVuSans-49"/>
      </g>
     </g>
    </g>
    <g id="ytick_3">
     <g id="line2d_23">
      <path clip-path="url(#paf964158b9)" d="M 180 487.843262 
L 1296 487.843262 
" style="fill:none;stroke:#e6e6e6;stroke-linecap:square;stroke-width:0.8;"/>
     </g>
     <g id="line2d_24">
      <g>
       <use style="stroke:#000000;stroke-width:0.8;" x="180" xlink:href="#m64ec3ef669" y="487.843262"/>
      </g>
     </g>
     <g id="text_13">
      <!-- 2 -->
      <g transform="translate(163.45625 493.54209)scale(0.15 -0.15)">
       <use xlink:href="#DejaVuSans-50"/>
      </g>
     </g>
    </g>
    <g id="ytick_4">
     <g id="line2d_25">
      <path clip-path="url(#paf964158b9)" d="M 180 384.258927 
L 1296 384.258927 
" style="fill:none;stroke:#e6e6e6;stroke-linecap:square;stroke-width:0.8;"/>
     </g>
     <g id="line2d_26">
      <g>
       <use style="stroke:#000000;stroke-width:0.8;" x="180" xlink:href="#m64ec3ef669" y="384.258927"/>
      </g>
     </g>
     <g id="text_14">
      <!-- 3 -->
      <defs>
       <path d="M 40.578125 39.3125 
Q 47.65625 37.796875 51.625 33 
Q 55.609375 28.21875 55.609375 21.1875 
Q 55.609375 10.40625 48.1875 4.484375 
Q 40.765625 -1.421875 27.09375 -1.421875 
Q 22.515625 -1.421875 17.65625 -0.515625 
Q 12.796875 0.390625 7.625 2.203125 
L 7.625 11.71875 
Q 11.71875 9.328125 16.59375 8.109375 
Q 21.484375 6.890625 26.8125 6.890625 
Q 36.078125 6.890625 40.9375 10.546875 
Q 45.796875 14.203125 45.796875 21.1875 
Q 45.796875 27.640625 41.28125 31.265625 
Q 36.765625 34.90625 28.71875 34.90625 
L 20.21875 34.90625 
L 20.21875 43.015625 
L 29.109375 43.015625 
Q 36.375 43.015625 40.234375 45.921875 
Q 44.09375 48.828125 44.09375 54.296875 
Q 44.09375 59.90625 40.109375 62.90625 
Q 36.140625 65.921875 28.71875 65.921875 
Q 24.65625 65.921875 20.015625 65.03125 
Q 15.375 64.15625 9.8125 62.3125 
L 9.8125 71.09375 
Q 15.4375 72.65625 20.34375 73.4375 
Q 25.25 74.21875 29.59375 74.21875 
Q 40.828125 74.21875 47.359375 69.109375 
Q 53.90625 64.015625 53.90625 55.328125 
Q 53.90625 49.265625 50.4375 45.09375 
Q 46.96875 40.921875 40.578125 39.3125 
z
" id="DejaVuSans-51"/>
      </defs>
      <g transform="translate(163.45625 389.957755)scale(0.15 -0.15)">
       <use xlink:href="#DejaVuSans-51"/>
      </g>
     </g>
    </g>
    <g id="ytick_5">
     <g id="line2d_27">
      <path clip-path="url(#paf964158b9)" d="M 180 280.674593 
L 1296 280.674593 
" style="fill:none;stroke:#e6e6e6;stroke-linecap:square;stroke-width:0.8;"/>
     </g>
     <g id="line2d_28">
      <g>
       <use style="stroke:#000000;stroke-width:0.8;" x="180" xlink:href="#m64ec3ef669" y="280.674593"/>
      </g>
     </g>
     <g id="text_15">
      <!-- 4 -->
      <defs>
       <path d="M 37.796875 64.3125 
L 12.890625 25.390625 
L 37.796875 25.390625 
z
M 35.203125 72.90625 
L 47.609375 72.90625 
L 47.609375 25.390625 
L 58.015625 25.390625 
L 58.015625 17.1875 
L 47.609375 17.1875 
L 47.609375 0 
L 37.796875 0 
L 37.796875 17.1875 
L 4.890625 17.1875 
L 4.890625 26.703125 
z
" id="DejaVuSans-52"/>
      </defs>
      <g transform="translate(163.45625 286.373421)scale(0.15 -0.15)">
       <use xlink:href="#DejaVuSans-52"/>
      </g>
     </g>
    </g>
    <g id="ytick_6">
     <g id="line2d_29">
      <path clip-path="url(#paf964158b9)" d="M 180 177.090258 
L 1296 177.090258 
" style="fill:none;stroke:#e6e6e6;stroke-linecap:square;stroke-width:0.8;"/>
     </g>
     <g id="line2d_30">
      <g>
       <use style="stroke:#000000;stroke-width:0.8;" x="180" xlink:href="#m64ec3ef669" y="177.090258"/>
      </g>
     </g>
     <g id="text_16">
      <!-- 5 -->
      <g transform="translate(163.45625 182.789086)scale(0.15 -0.15)">
       <use xlink:href="#DejaVuSans-53"/>
      </g>
     </g>
    </g>
    <g id="text_17">
     <!-- $f^e(A)$ -->
     <defs>
      <path d="M 47.796875 75.984375 
L 46.390625 68.5 
L 37.796875 68.5 
Q 32.90625 68.5 30.6875 66.578125 
Q 28.46875 64.65625 27.390625 59.515625 
L 26.421875 54.6875 
L 41.21875 54.6875 
L 39.890625 47.703125 
L 25.09375 47.703125 
L 15.828125 0 
L 6.78125 0 
L 16.109375 47.703125 
L 7.515625 47.703125 
L 8.796875 54.6875 
L 17.390625 54.6875 
L 18.109375 58.5 
Q 19.96875 68.171875 24.625 72.078125 
Q 29.296875 75.984375 39.3125 75.984375 
z
" id="DejaVuSans-Oblique-102"/>
      <path d="M 48.09375 32.234375 
Q 48.25 33.015625 48.3125 33.84375 
Q 48.390625 34.671875 48.390625 35.5 
Q 48.390625 41.453125 44.890625 44.921875 
Q 41.40625 48.390625 35.40625 48.390625 
Q 28.71875 48.390625 23.578125 44.15625 
Q 18.453125 39.9375 15.828125 32.171875 
z
M 55.90625 25.203125 
L 14.109375 25.203125 
Q 13.8125 23.34375 13.71875 22.265625 
Q 13.625 21.1875 13.625 20.40625 
Q 13.625 13.625 17.796875 9.90625 
Q 21.96875 6.203125 29.59375 6.203125 
Q 35.453125 6.203125 40.671875 7.515625 
Q 45.90625 8.84375 50.390625 11.375 
L 48.6875 2.484375 
Q 43.84375 0.53125 38.6875 -0.4375 
Q 33.546875 -1.421875 28.21875 -1.421875 
Q 16.84375 -1.421875 10.71875 4.015625 
Q 4.59375 9.46875 4.59375 19.484375 
Q 4.59375 28.03125 7.640625 35.375 
Q 10.6875 42.71875 16.609375 48.484375 
Q 20.40625 52.09375 25.65625 54.046875 
Q 30.90625 56 36.8125 56 
Q 46.09375 56 51.578125 50.4375 
Q 57.078125 44.875 57.078125 35.5 
Q 57.078125 33.25 56.78125 30.6875 
Q 56.5 28.125 55.90625 25.203125 
z
" id="DejaVuSans-Oblique-101"/>
     </defs>
     <g transform="translate(153.217188 444.3)rotate(-90)scale(0.3 -0.3)">
      <use transform="translate(0 0.51875)" xlink:href="#DejaVuSans-Oblique-102"/>
      <use transform="translate(42.652786 38.8)scale(0.7)" xlink:href="#DejaVuSans-Oblique-101"/>
      <use transform="translate(88.453568 0.51875)" xlink:href="#DejaVuSans-40"/>
      <use transform="translate(127.46724 0.51875)" xlink:href="#DejaVuSans-Oblique-65"/>
      <use transform="translate(195.875443 0.51875)" xlink:href="#DejaVuSans-41"/>
     </g>
    </g>
   </g>
   <g id="line2d_31">
    <path clip-path="url(#paf964158b9)" d="M 230.727273 640.143605 
L 240.975207 640.238572 
L 251.22314 640.521595 
L 261.471074 640.987125 
L 271.719008 641.626225 
L 281.966942 642.427002 
L 292.214876 643.375154 
L 302.46281 644.454591 
L 312.710744 645.648069 
L 322.958678 646.937818 
L 333.206612 648.306089 
L 343.454545 649.735645 
L 353.702479 651.210136 
L 363.950413 652.714385 
L 374.198347 654.234582 
L 384.446281 655.758384 
L 394.694215 657.274959 
L 404.942149 658.774957 
L 415.190083 660.250455 
L 425.438017 661.694866 
L 435.68595 663.102826 
L 445.933884 664.470081 
L 456.181818 665.793366 
L 466.429752 667.070288 
L 476.677686 668.299214 
L 486.92562 669.479168 
L 497.173554 670.609733 
L 507.421488 671.69097 
L 517.669421 672.723338 
L 527.917355 673.707624 
L 538.165289 674.644886 
L 548.413223 675.536398 
L 558.661157 676.383603 
L 568.909091 677.188072 
L 579.157025 677.951471 
L 589.404959 678.675526 
L 599.652893 679.362002 
L 609.900826 680.012675 
L 620.14876 680.629317 
L 630.396694 681.213678 
L 640.644628 681.767473 
L 650.892562 682.292371 
L 661.140496 682.789985 
L 671.38843 683.26187 
L 681.636364 683.709513 
L 691.884298 684.134332 
L 702.132231 684.537673 
L 712.380165 684.920812 
L 722.628099 685.284951 
L 732.876033 685.631222 
L 743.123967 685.960688 
L 753.371901 686.274345 
L 763.619835 686.573124 
L 773.867769 686.857896 
L 784.115702 687.129474 
L 794.363636 687.388614 
L 804.61157 687.636024 
L 814.859504 687.872361 
L 825.107438 688.09824 
L 835.355372 688.314233 
L 845.603306 688.520873 
L 855.85124 688.71866 
L 866.099174 688.90806 
L 876.347107 689.089508 
L 886.595041 689.263413 
L 896.842975 689.430158 
L 907.090909 689.590102 
L 917.338843 689.743583 
L 927.586777 689.890918 
L 937.834711 690.032408 
L 948.082645 690.168335 
L 958.330579 690.298964 
L 968.578512 690.42455 
L 978.826446 690.545329 
L 989.07438 690.661528 
L 999.322314 690.77336 
L 1009.570248 690.881028 
L 1019.818182 690.984725 
L 1030.066116 691.084633 
L 1040.31405 691.180925 
L 1050.561983 691.273766 
L 1060.809917 691.363312 
L 1071.057851 691.44971 
L 1081.305785 691.533103 
L 1091.553719 691.613624 
L 1101.801653 691.6914 
L 1112.049587 691.766552 
L 1122.297521 691.839195 
L 1132.545455 691.909438 
L 1142.793388 691.977385 
L 1153.041322 692.043135 
L 1163.289256 692.10678 
L 1173.53719 692.168411 
L 1183.785124 692.228111 
L 1194.033058 692.285961 
L 1204.280992 692.342037 
L 1214.528926 692.396411 
L 1224.77686 692.449154 
L 1235.024793 692.500329 
L 1245.272727 692.55 
" style="fill:none;stroke:#d9d9d9;stroke-linecap:square;stroke-width:2;"/>
   </g>
   <g id="line2d_32">
    <path clip-path="url(#paf964158b9)" d="M 230.727273 434.874566 
L 240.975207 435.340678 
L 251.22314 436.729142 
L 261.471074 439.010881 
L 271.719008 442.139193 
L 281.966942 446.052204 
L 292.214876 450.675943 
L 302.46281 455.927773 
L 312.710744 461.719888 
L 322.958678 467.96262 
L 333.206612 474.567371 
L 343.454545 481.449045 
L 353.702479 488.527906 
L 363.950413 495.730891 
L 374.198347 502.992391 
L 384.446281 510.254597 
L 394.694215 517.467487 
L 404.942149 524.588544 
L 415.190083 531.582283 
L 425.438017 538.419667 
L 435.68595 545.07746 
L 445.933884 551.537569 
L 456.181818 557.786397 
L 466.429752 563.814234 
L 476.677686 569.614704 
L 486.92562 575.184255 
L 497.173554 580.521718 
L 507.421488 585.62791 
L 517.669421 590.505296 
L 527.917355 595.157692 
L 538.165289 599.59001 
L 548.413223 603.808042 
L 558.661157 607.818267 
L 568.909091 611.627696 
L 579.157025 615.243728 
L 589.404959 618.674035 
L 599.652893 621.926457 
L 609.900826 625.008919 
L 620.14876 627.929349 
L 630.396694 630.695622 
L 640.644628 633.315497 
L 650.892562 635.79658 
L 661.140496 638.146281 
L 671.38843 640.371782 
L 681.636364 642.480017 
L 691.884298 644.477648 
L 702.132231 646.371056 
L 712.380165 648.166327 
L 722.628099 649.869249 
L 732.876033 651.485308 
L 743.123967 653.019695 
L 753.371901 654.477303 
L 763.619835 655.862738 
L 773.867769 657.180325 
L 784.115702 658.434121 
L 794.363636 659.627922 
L 804.61157 660.765279 
L 814.859504 661.849506 
L 825.107438 662.883698 
L 835.355372 663.870741 
L 845.603306 664.813327 
L 855.85124 665.713963 
L 866.099174 666.57499 
L 876.347107 667.39859 
L 886.595041 668.186797 
L 896.842975 668.941515 
L 907.090909 669.664518 
L 917.338843 670.357469 
L 927.586777 671.021923 
L 937.834711 671.659338 
L 948.082645 672.271081 
L 958.330579 672.858439 
L 968.578512 673.422618 
L 978.826446 673.964758 
L 989.07438 674.485929 
L 999.322314 674.987145 
L 1009.570248 675.469361 
L 1019.818182 675.93348 
L 1030.066116 676.380356 
L 1040.31405 676.810801 
L 1050.561983 677.225579 
L 1060.809917 677.625419 
L 1071.057851 678.01101 
L 1081.305785 678.383007 
L 1091.553719 678.742031 
L 1101.801653 679.088672 
L 1112.049587 679.423491 
L 1122.297521 679.747019 
L 1132.545455 680.059764 
L 1142.793388 680.362206 
L 1153.041322 680.654801 
L 1163.289256 680.937984 
L 1173.53719 681.212167 
L 1183.785124 681.477741 
L 1194.033058 681.73508 
L 1204.280992 681.984537 
L 1214.528926 682.226449 
L 1224.77686 682.461134 
L 1235.024793 682.688896 
L 1245.272727 682.910024 
" style="fill:none;stroke:#666666;stroke-linecap:square;stroke-width:2;"/>
   </g>
   <g id="line2d_33">
    <path clip-path="url(#paf964158b9)" d="M 230.727273 465.174049 
L 240.975207 465.475101 
L 251.22314 466.373587 
L 261.471074 467.855694 
L 271.719008 469.89901 
L 281.966942 472.47339 
L 292.214876 475.542079 
L 302.46281 479.063016 
L 312.710744 482.990231 
L 322.958678 487.275255 
L 333.206612 491.868472 
L 343.454545 496.720349 
L 353.702479 501.782511 
L 363.950413 507.008621 
L 374.198347 512.355075 
L 384.446281 517.781494 
L 394.694215 523.251046 
L 404.942149 528.730613 
L 415.190083 534.19082 
L 425.438017 539.605966 
L 435.68595 544.953868 
L 445.933884 550.215655 
L 456.181818 555.375522 
L 466.429752 560.420462 
L 476.677686 565.339991 
L 486.92562 570.12588 
L 497.173554 574.771895 
L 507.421488 579.27355 
L 517.669421 583.62788 
L 527.917355 587.833236 
L 538.165289 591.889097 
L 548.413223 595.795903 
L 558.661157 599.554907 
L 568.909091 603.168044 
L 579.157025 606.637814 
L 589.404959 609.967186 
L 599.652893 613.159507 
L 609.900826 616.218426 
L 620.14876 619.147826 
L 630.396694 621.951773 
L 640.644628 624.634457 
L 650.892562 627.200154 
L 661.140496 629.65319 
L 671.38843 631.997903 
L 681.636364 634.23862 
L 691.884298 636.379631 
L 702.132231 638.425167 
L 712.380165 640.379388 
L 722.628099 642.246361 
L 732.876033 644.030052 
L 743.123967 645.734318 
L 753.371901 647.362893 
L 763.619835 648.919386 
L 773.867769 650.407277 
L 784.115702 651.82991 
L 794.363636 653.190493 
L 804.61157 654.492101 
L 814.859504 655.737667 
L 825.107438 656.929994 
L 835.355372 658.071749 
L 845.603306 659.165468 
L 855.85124 660.213562 
L 866.099174 661.218315 
L 876.347107 662.181894 
L 886.595041 663.10635 
L 896.842975 663.993621 
L 907.090909 664.845541 
L 917.338843 665.663844 
L 927.586777 666.450166 
L 937.834711 667.20605 
L 948.082645 667.932957 
L 958.330579 668.632263 
L 968.578512 669.305267 
L 978.826446 669.953197 
L 989.07438 670.577212 
L 999.322314 671.178407 
L 1009.570248 671.757817 
L 1019.818182 672.316422 
L 1030.066116 672.855146 
L 1040.31405 673.374867 
L 1050.561983 673.876417 
L 1060.809917 674.360581 
L 1071.057851 674.828107 
L 1081.305785 675.279705 
L 1091.553719 675.716047 
L 1101.801653 676.137775 
L 1112.049587 676.545497 
L 1122.297521 676.939793 
L 1132.545455 677.321216 
L 1142.793388 677.690291 
L 1153.041322 678.047521 
L 1163.289256 678.393384 
L 1173.53719 678.728338 
L 1183.785124 679.052818 
L 1194.033058 679.367241 
L 1204.280992 679.672005 
L 1214.528926 679.967492 
L 1224.77686 680.254064 
L 1235.024793 680.532071 
L 1245.272727 680.801844 
" style="fill:none;stroke:#0000ff;stroke-linecap:square;stroke-width:2;"/>
   </g>
   <g id="line2d_34">
    <path clip-path="url(#paf964158b9)" d="M 230.727273 488.905595 
L 240.975207 489.113498 
L 251.22314 489.734712 
L 261.471074 490.761837 
L 271.719008 492.182787 
L 281.966942 493.981158 
L 292.214876 496.136706 
L 302.46281 498.625916 
L 312.710744 501.422632 
L 322.958678 504.498717 
L 333.206612 507.824716 
L 343.454545 511.370489 
L 353.702479 515.105808 
L 363.950413 519.000879 
L 374.198347 523.026799 
L 384.446281 527.155927 
L 394.694215 531.362182 
L 404.942149 535.621256 
L 415.190083 539.910757 
L 425.438017 544.210288 
L 435.68595 548.501473 
L 445.933884 552.767933 
L 456.181818 556.995225 
L 466.429752 561.170756 
L 476.677686 565.283677 
L 486.92562 569.324759 
L 497.173554 573.286269 
L 507.421488 577.161833 
L 517.669421 580.946313 
L 527.917355 584.635673 
L 538.165289 588.226867 
L 548.413223 591.717716 
L 558.661157 595.106815 
L 568.909091 598.393424 
L 579.157025 601.577389 
L 589.404959 604.659059 
L 599.652893 607.639214 
L 609.900826 610.519004 
L 620.14876 613.299888 
L 630.396694 615.983587 
L 640.644628 618.572037 
L 650.892562 621.067353 
L 661.140496 623.47179 
L 671.38843 625.787717 
L 681.636364 628.017588 
L 691.884298 630.163919 
L 702.132231 632.22927 
L 712.380165 634.216224 
L 722.628099 636.127374 
L 732.876033 637.965308 
L 743.123967 639.732601 
L 753.371901 641.431799 
L 763.619835 643.065417 
L 773.867769 644.635927 
L 784.115702 646.145752 
L 794.363636 647.597265 
L 804.61157 648.99278 
L 814.859504 650.334549 
L 825.107438 651.624763 
L 835.355372 652.865546 
L 845.603306 654.058952 
L 855.85124 655.20697 
L 866.099174 656.311516 
L 876.347107 657.37444 
L 886.595041 658.397519 
L 896.842975 659.382463 
L 907.090909 660.330912 
L 917.338843 661.244442 
L 927.586777 662.124558 
L 937.834711 662.972705 
L 948.082645 663.790261 
L 958.330579 664.578546 
L 968.578512 665.338817 
L 978.826446 666.072278 
L 989.07438 666.780073 
L 999.322314 667.463294 
L 1009.570248 668.122984 
L 1019.818182 668.760133 
L 1030.066116 669.375687 
L 1040.31405 669.970544 
L 1050.561983 670.545562 
L 1060.809917 671.101555 
L 1071.057851 671.6393 
L 1081.305785 672.159537 
L 1091.553719 672.66297 
L 1101.801653 673.150269 
L 1112.049587 673.622073 
L 1122.297521 674.078993 
L 1132.545455 674.521608 
L 1142.793388 674.950473 
L 1153.041322 675.366116 
L 1163.289256 675.769041 
L 1173.53719 676.15973 
L 1183.785124 676.538644 
L 1194.033058 676.906222 
L 1204.280992 677.262884 
L 1214.528926 677.609034 
L 1224.77686 677.945055 
L 1235.024793 678.271318 
L 1245.272727 678.588174 
" style="fill:none;stroke:#ff0000;stroke-linecap:square;stroke-width:2;"/>
   </g>
   <g id="line2d_35">
    <path clip-path="url(#paf964158b9)" d="M 230.727273 125.55 
L 240.975207 126.893689 
L 251.22314 130.887074 
L 261.471074 137.420027 
L 271.719008 146.318277 
L 281.966942 157.355821 
L 292.214876 170.269692 
L 302.46281 184.775247 
L 312.710744 200.580384 
L 322.958678 217.397593 
L 333.206612 234.953294 
L 343.454545 252.994395 
L 353.702479 271.292326 
L 363.950413 289.645012 
L 374.198347 307.877289 
L 384.446281 325.84023 
L 394.694215 343.409772 
L 404.942149 360.484938 
L 415.190083 376.985863 
L 425.438017 392.851737 
L 435.68595 408.038768 
L 445.933884 422.518188 
L 456.181818 436.274344 
L 466.429752 449.302868 
L 476.677686 461.608953 
L 486.92562 473.205732 
L 497.173554 484.112767 
L 507.421488 494.354658 
L 517.669421 503.95979 
L 527.917355 512.959195 
L 538.165289 521.385571 
L 548.413223 529.272425 
L 558.661157 536.653358 
L 568.909091 543.561477 
L 579.157025 550.028939 
L 589.404959 556.086596 
L 599.652893 561.76375 
L 609.900826 567.087994 
L 620.14876 572.085129 
L 630.396694 576.779138 
L 640.644628 581.192216 
L 650.892562 585.34483 
L 661.140496 589.255813 
L 671.38843 592.942466 
L 681.636364 596.420679 
L 691.884298 599.705043 
L 702.132231 602.808977 
L 712.380165 605.744832 
L 722.628099 608.523998 
L 732.876033 611.157 
L 743.123967 613.653582 
L 753.371901 616.022785 
L 763.619835 618.273007 
L 773.867769 620.412065 
L 784.115702 622.447245 
L 794.363636 624.385338 
L 804.61157 626.232685 
L 814.859504 627.9952 
L 825.107438 629.678405 
L 835.355372 631.287448 
L 845.603306 632.827131 
L 855.85124 634.301925 
L 866.099174 635.715993 
L 876.347107 637.073203 
L 886.595041 638.377147 
L 896.842975 639.63116 
L 907.090909 640.838328 
L 917.338843 642.001511 
L 927.586777 643.123353 
L 937.834711 644.206295 
L 948.082645 645.252593 
L 958.330579 646.264329 
L 968.578512 647.243422 
L 978.826446 648.191643 
L 989.07438 649.110626 
L 999.322314 650.001877 
L 1009.570248 650.866787 
L 1019.818182 651.706638 
L 1030.066116 652.522619 
L 1040.31405 653.315826 
L 1050.561983 654.087277 
L 1060.809917 654.837915 
L 1071.057851 655.568616 
L 1081.305785 656.280195 
L 1091.553719 656.973413 
L 1101.801653 657.64898 
L 1112.049587 658.307559 
L 1122.297521 658.949776 
L 1132.545455 659.576215 
L 1142.793388 660.187428 
L 1153.041322 660.783935 
L 1163.289256 661.366229 
L 1173.53719 661.934777 
L 1183.785124 662.49002 
L 1194.033058 663.032379 
L 1204.280992 663.562257 
L 1214.528926 664.080034 
L 1224.77686 664.586077 
L 1235.024793 665.080734 
L 1245.272727 665.564342 
" style="fill:none;stroke:#00ffff;stroke-linecap:square;stroke-width:2;"/>
   </g>
   <g id="line2d_36">
    <path clip-path="url(#paf964158b9)" d="M 230.727273 159.263344 
L 240.975207 160.265844 
L 251.22314 163.251551 
L 261.471074 168.156378 
L 271.719008 174.877627 
L 281.966942 183.279676 
L 292.214876 193.201014 
L 302.46281 204.461942 
L 312.710744 216.872256 
L 322.958678 230.23834 
L 333.206612 244.369297 
L 343.454545 259.081872 
L 353.702479 274.204149 
L 363.950413 289.578057 
L 374.198347 305.06086 
L 384.446281 320.525805 
L 394.694215 335.862132 
L 404.942149 350.974605 
L 415.190083 365.782741 
L 425.438017 380.219834 
L 435.68595 394.231871 
L 445.933884 407.776406 
L 456.181818 420.821424 
L 466.429752 433.344237 
L 476.677686 445.330412 
L 486.92562 456.772751 
L 497.173554 467.670325 
L 507.421488 478.02757 
L 517.669421 487.85343 
L 527.917355 497.16058 
L 538.165289 505.964693 
L 548.413223 514.283785 
L 558.661157 522.137614 
L 568.909091 529.547155 
L 579.157025 536.534125 
L 589.404959 543.120585 
L 599.652893 549.328592 
L 609.900826 555.179916 
L 620.14876 560.695806 
L 630.396694 565.896811 
L 640.644628 570.802642 
L 650.892562 575.432076 
L 661.140496 579.802898 
L 671.38843 583.931865 
L 681.636364 587.834707 
L 691.884298 591.526133 
L 702.132231 595.019867 
L 712.380165 598.328686 
L 722.628099 601.464471 
L 732.876033 604.43826 
L 743.123967 607.260306 
L 753.371901 609.940133 
L 763.619835 612.486597 
L 773.867769 614.907932 
L 784.115702 617.211808 
L 794.363636 619.405375 
L 804.61157 621.495306 
L 814.859504 623.487838 
L 825.107438 625.388805 
L 835.355372 627.20367 
L 845.603306 628.937553 
L 855.85124 630.595255 
L 866.099174 632.181283 
L 876.347107 633.699866 
L 886.595041 635.154971 
L 896.842975 636.550326 
L 907.090909 637.889425 
L 917.338843 639.175548 
L 927.586777 640.41177 
L 937.834711 641.60097 
L 948.082645 642.745848 
L 958.330579 643.848927 
L 968.578512 644.912568 
L 978.826446 645.938977 
L 989.07438 646.930214 
L 999.322314 647.888201 
L 1009.570248 648.814732 
L 1019.818182 649.711479 
L 1030.066116 650.579998 
L 1040.31405 651.42174 
L 1050.561983 652.238057 
L 1060.809917 653.030207 
L 1071.057851 653.799361 
L 1081.305785 654.546611 
L 1091.553719 655.272973 
L 1101.801653 655.979395 
L 1112.049587 656.666759 
L 1122.297521 657.33589 
L 1132.545455 657.987558 
L 1142.793388 658.622482 
L 1153.041322 659.241335 
L 1163.289256 659.844747 
L 1173.53719 660.43331 
L 1183.785124 661.007579 
L 1194.033058 661.568076 
L 1204.280992 662.115293 
L 1214.528926 662.649692 
L 1224.77686 663.171712 
L 1235.024793 663.681767 
L 1245.272727 664.180248 
" style="fill:none;stroke:#ff00ff;stroke-linecap:square;stroke-width:2;"/>
   </g>
   <g id="patch_3">
    <path d="M 180 720.9 
L 180 97.2 
" style="fill:none;stroke:#000000;stroke-linecap:square;stroke-linejoin:miter;stroke-width:0.8;"/>
   </g>
   <g id="patch_4">
    <path d="M 1296 720.9 
L 1296 97.2 
" style="fill:none;stroke:#000000;stroke-linecap:square;stroke-linejoin:miter;stroke-width:0.8;"/>
   </g>
   <g id="patch_5">
    <path d="M 180 720.9 
L 1296 720.9 
" style="fill:none;stroke:#000000;stroke-linecap:square;stroke-linejoin:miter;stroke-width:0.8;"/>
   </g>
   <g id="patch_6">
    <path d="M 180 97.2 
L 1296 97.2 
" style="fill:none;stroke:#000000;stroke-linecap:square;stroke-linejoin:miter;stroke-width:0.8;"/>
   </g>
   <g id="legend_1">
    <g id="patch_7">
     <path d="M 1178.75 337.371875 
L 1278.5 337.371875 
Q 1283.5 337.371875 1283.5 332.371875 
L 1283.5 114.7 
Q 1283.5 109.7 1278.5 109.7 
L 1178.75 109.7 
Q 1173.75 109.7 1173.75 114.7 
L 1173.75 332.371875 
Q 1173.75 337.371875 1178.75 337.371875 
z
" style="fill:#ffffff;opacity:0.8;stroke:#cccccc;stroke-linejoin:miter;"/>
    </g>
    <g id="line2d_37">
     <path d="M 1183.75 129.946094 
L 1233.75 129.946094 
" style="fill:none;stroke:#d9d9d9;stroke-linecap:square;stroke-width:2;"/>
    </g>
    <g id="line2d_38"/>
    <g id="text_18">
     <!-- $H$ -->
     <defs>
      <path d="M 16.890625 72.90625 
L 26.8125 72.90625 
L 21 43.015625 
L 56.78125 43.015625 
L 62.59375 72.90625 
L 72.515625 72.90625 
L 58.296875 0 
L 48.390625 0 
L 55.171875 34.71875 
L 19.390625 34.71875 
L 12.59375 0 
L 2.6875 0 
z
" id="DejaVuSans-Oblique-72"/>
     </defs>
     <g transform="translate(1253.75 138.696094)scale(0.25 -0.25)">
      <use transform="translate(0 0.09375)" xlink:href="#DejaVuSans-Oblique-72"/>
     </g>
    </g>
    <g id="line2d_39">
     <path d="M 1183.75 166.641406 
L 1233.75 166.641406 
" style="fill:none;stroke:#666666;stroke-linecap:square;stroke-width:2;"/>
    </g>
    <g id="line2d_40"/>
    <g id="text_19">
     <!-- $C$ -->
     <defs>
      <path d="M 69.484375 67.28125 
L 67.484375 56.890625 
Q 62.796875 61.625 57.546875 63.921875 
Q 52.296875 66.21875 46.1875 66.21875 
Q 37.84375 66.21875 31.515625 62.203125 
Q 25.203125 58.203125 20.609375 50 
Q 17.671875 44.734375 16.125 38.84375 
Q 14.59375 32.953125 14.59375 27 
Q 14.59375 17.046875 19.75 11.8125 
Q 24.90625 6.59375 34.71875 6.59375 
Q 41.5 6.59375 47.75 8.765625 
Q 54 10.9375 59.90625 15.28125 
L 57.625 3.609375 
Q 51.8125 1.125 45.875 -0.140625 
Q 39.9375 -1.421875 33.984375 -1.421875 
Q 19.96875 -1.421875 12.078125 6.1875 
Q 4.203125 13.8125 4.203125 27.390625 
Q 4.203125 36.078125 7.203125 44.46875 
Q 10.203125 52.875 15.828125 59.8125 
Q 21.78125 67.1875 29.421875 70.703125 
Q 37.0625 74.21875 47.21875 74.21875 
Q 53.46875 74.21875 59.0625 72.484375 
Q 64.65625 70.75 69.484375 67.28125 
z
" id="DejaVuSans-Oblique-67"/>
     </defs>
     <g transform="translate(1253.75 175.391406)scale(0.25 -0.25)">
      <use transform="translate(0 0.78125)" xlink:href="#DejaVuSans-Oblique-67"/>
     </g>
    </g>
    <g id="line2d_41">
     <path d="M 1183.75 203.336719 
L 1233.75 203.336719 
" style="fill:none;stroke:#0000ff;stroke-linecap:square;stroke-width:2;"/>
    </g>
    <g id="line2d_42"/>
    <g id="text_20">
     <!-- $N$ -->
     <defs>
      <path d="M 16.890625 72.90625 
L 30.171875 72.90625 
L 50.296875 10.40625 
L 62.5 72.90625 
L 72.125 72.90625 
L 57.90625 0 
L 44.578125 0 
L 24.515625 62.890625 
L 12.3125 0 
L 2.6875 0 
z
" id="DejaVuSans-Oblique-78"/>
     </defs>
     <g transform="translate(1253.75 212.086719)scale(0.25 -0.25)">
      <use transform="translate(0 0.09375)" xlink:href="#DejaVuSans-Oblique-78"/>
     </g>
    </g>
    <g id="line2d_43">
     <path d="M 1183.75 240.032031 
L 1233.75 240.032031 
" style="fill:none;stroke:#ff0000;stroke-linecap:square;stroke-width:2;"/>
    </g>
    <g id="line2d_44"/>
    <g id="text_21">
     <!-- $O$ -->
     <defs>
      <path d="M 45.609375 66.21875 
Q 37.5 66.21875 31.296875 62.28125 
Q 25.09375 58.34375 20.515625 50.296875 
Q 17.578125 45.171875 16.03125 39.40625 
Q 14.5 33.640625 14.5 27.78125 
Q 14.5 17.625 19.359375 12.109375 
Q 24.21875 6.59375 33.109375 6.59375 
Q 41.109375 6.59375 47.375 10.5625 
Q 53.65625 14.546875 58.109375 22.40625 
Q 61.078125 27.6875 62.640625 33.46875 
Q 64.203125 39.265625 64.203125 45.015625 
Q 64.203125 55.125 59.3125 60.671875 
Q 54.4375 66.21875 45.609375 66.21875 
z
M 32.8125 -1.421875 
Q 19.390625 -1.421875 11.6875 6.53125 
Q 4 14.5 4 28.328125 
Q 4 36.234375 7 44.484375 
Q 10.015625 52.734375 15.28125 59.1875 
Q 21.484375 66.75 29.09375 70.484375 
Q 36.71875 74.21875 45.90625 74.21875 
Q 59.28125 74.21875 66.984375 66.328125 
Q 74.703125 58.453125 74.703125 44.828125 
Q 74.703125 36.421875 71.765625 28.3125 
Q 68.84375 20.21875 63.375 13.625 
Q 57.125 6 49.578125 2.28125 
Q 42.046875 -1.421875 32.8125 -1.421875 
z
" id="DejaVuSans-Oblique-79"/>
     </defs>
     <g transform="translate(1253.75 248.782031)scale(0.25 -0.25)">
      <use transform="translate(0 0.78125)" xlink:href="#DejaVuSans-Oblique-79"/>
     </g>
    </g>
    <g id="line2d_45">
     <path d="M 1183.75 276.727344 
L 1233.75 276.727344 
" style="fill:none;stroke:#00ffff;stroke-linecap:square;stroke-width:2;"/>
    </g>
    <g id="line2d_46"/>
    <g id="text_22">
     <!-- $S$ -->
     <defs>
      <path d="M 60.296875 70.515625 
L 58.40625 60.890625 
Q 53.46875 63.53125 48.609375 64.875 
Q 43.75 66.21875 39.203125 66.21875 
Q 30.375 66.21875 25.140625 62.359375 
Q 19.921875 58.5 19.921875 52.09375 
Q 19.921875 48.578125 21.84375 46.703125 
Q 23.78125 44.828125 31.78125 42.671875 
L 37.703125 41.21875 
Q 47.703125 38.625 51.609375 34.640625 
Q 55.515625 30.671875 55.515625 23.484375 
Q 55.515625 12.453125 46.84375 5.515625 
Q 38.1875 -1.421875 24.03125 -1.421875 
Q 18.21875 -1.421875 12.359375 -0.265625 
Q 6.5 0.875 0.59375 3.21875 
L 2.59375 13.375 
Q 8.015625 10.015625 13.453125 8.296875 
Q 18.890625 6.59375 24.3125 6.59375 
Q 33.546875 6.59375 39.109375 10.6875 
Q 44.671875 14.796875 44.671875 21.390625 
Q 44.671875 25.78125 42.453125 28.046875 
Q 40.234375 30.328125 32.90625 32.171875 
L 27 33.6875 
Q 16.890625 36.328125 13.203125 39.765625 
Q 9.515625 43.21875 9.515625 49.421875 
Q 9.515625 60.296875 17.890625 67.25 
Q 26.265625 74.21875 39.703125 74.21875 
Q 44.921875 74.21875 50.046875 73.28125 
Q 55.171875 72.359375 60.296875 70.515625 
z
" id="DejaVuSans-Oblique-83"/>
     </defs>
     <g transform="translate(1253.75 285.477344)scale(0.25 -0.25)">
      <use transform="translate(0 0.78125)" xlink:href="#DejaVuSans-Oblique-83"/>
     </g>
    </g>
    <g id="line2d_47">
     <path d="M 1183.75 313.422656 
L 1233.75 313.422656 
" style="fill:none;stroke:#ff00ff;stroke-linecap:square;stroke-width:2;"/>
    </g>
    <g id="line2d_48"/>
    <g id="text_23">
     <!-- $P$ -->
     <defs>
      <path d="M 16.890625 72.90625 
L 39.703125 72.90625 
Q 49.65625 72.90625 54.875 68.265625 
Q 60.109375 63.625 60.109375 54.6875 
Q 60.109375 42.671875 52.390625 35.984375 
Q 44.671875 29.296875 30.71875 29.296875 
L 18.3125 29.296875 
L 12.59375 0 
L 2.6875 0 
z
M 25.203125 64.796875 
L 19.921875 37.40625 
L 32.328125 37.40625 
Q 40.71875 37.40625 45.203125 41.703125 
Q 49.703125 46 49.703125 54 
Q 49.703125 59.125 46.65625 61.953125 
Q 43.609375 64.796875 38.09375 64.796875 
z
" id="DejaVuSans-Oblique-80"/>
     </defs>
     <g transform="translate(1253.75 322.172656)scale(0.25 -0.25)">
      <use transform="translate(0 0.09375)" xlink:href="#DejaVuSans-Oblique-80"/>
     </g>
    </g>
   </g>
  </g>
 </g>
 <defs>
  <clipPath id="paf964158b9">
   <rect height="623.7" width="1116" x="180" y="97.2"/>
  </clipPath>
 </defs>
</svg>
