<?xml version="1.0" encoding="utf-8" standalone="no"?>
<!DOCTYPE svg PUBLIC "-//W3C//DTD SVG 1.1//EN"
  "http://www.w3.org/Graphics/SVG/1.1/DTD/svg11.dtd">
<!-- Created with matplotlib (https://matplotlib.org/) -->
<svg height="576pt" version="1.1" viewBox="0 0 1024.5 576" width="1024.5pt" xmlns="http://www.w3.org/2000/svg" xmlns:xlink="http://www.w3.org/1999/xlink">
 <defs>
  <style type="text/css">
*{stroke-linecap:butt;stroke-linejoin:round;}
  </style>
 </defs>
 <g id="figure_1">
  <g id="patch_1">
   <path d="M 0 576 
L 1024.5 576 
L 1024.5 0 
L 0 0 
z
" style="fill:#ffffff;"/>
  </g>
  <g id="axes_1">
   <g id="patch_2">
    <path d="M 128.0625 512.64 
L 922.05 512.64 
L 922.05 69.12 
L 128.0625 69.12 
z
" style="fill:#ffffff;"/>
   </g>
   <g id="matplotlib.axis_1">
    <g id="xtick_1">
     <g id="line2d_1">
      <path clip-path="url(#p25ddd16145)" d="M 164.152841 512.64 
L 164.152841 69.12 
" style="fill:none;stroke:#e6e6e6;stroke-linecap:square;stroke-width:0.8;"/>
     </g>
     <g id="line2d_2">
      <defs>
       <path d="M 0 0 
L 0 3.5 
" id="m29e86abb9c" style="stroke:#000000;stroke-width:0.8;"/>
      </defs>
      <g>
       <use style="stroke:#000000;stroke-width:0.8;" x="164.152841" xlink:href="#m29e86abb9c" y="512.64"/>
      </g>
     </g>
     <g id="text_1">
      <!-- 0.0 -->
      <defs>
       <path d="M 31.78125 66.40625 
Q 24.171875 66.40625 20.328125 58.90625 
Q 16.5 51.421875 16.5 36.375 
Q 16.5 21.390625 20.328125 13.890625 
Q 24.171875 6.390625 31.78125 6.390625 
Q 39.453125 6.390625 43.28125 13.890625 
Q 47.125 21.390625 47.125 36.375 
Q 47.125 51.421875 43.28125 58.90625 
Q 39.453125 66.40625 31.78125 66.40625 
z
M 31.78125 74.21875 
Q 44.046875 74.21875 50.515625 64.515625 
Q 56.984375 54.828125 56.984375 36.375 
Q 56.984375 17.96875 50.515625 8.265625 
Q 44.046875 -1.421875 31.78125 -1.421875 
Q 19.53125 -1.421875 13.0625 8.265625 
Q 6.59375 17.96875 6.59375 36.375 
Q 6.59375 54.828125 13.0625 64.515625 
Q 19.53125 74.21875 31.78125 74.21875 
z
" id="DejaVuSans-48"/>
       <path d="M 10.6875 12.40625 
L 21 12.40625 
L 21 0 
L 10.6875 0 
z
" id="DejaVuSans-46"/>
      </defs>
      <g transform="translate(152.225497 531.037656)scale(0.15 -0.15)">
       <use xlink:href="#DejaVuSans-48"/>
       <use x="63.623047" xlink:href="#DejaVuSans-46"/>
       <use x="95.410156" xlink:href="#DejaVuSans-48"/>
      </g>
     </g>
    </g>
    <g id="xtick_2">
     <g id="line2d_3">
      <path clip-path="url(#p25ddd16145)" d="M 284.453977 512.64 
L 284.453977 69.12 
" style="fill:none;stroke:#e6e6e6;stroke-linecap:square;stroke-width:0.8;"/>
     </g>
     <g id="line2d_4">
      <g>
       <use style="stroke:#000000;stroke-width:0.8;" x="284.453977" xlink:href="#m29e86abb9c" y="512.64"/>
      </g>
     </g>
     <g id="text_2">
      <!-- 0.5 -->
      <defs>
       <path d="M 10.796875 72.90625 
L 49.515625 72.90625 
L 49.515625 64.59375 
L 19.828125 64.59375 
L 19.828125 46.734375 
Q 21.96875 47.46875 24.109375 47.828125 
Q 26.265625 48.1875 28.421875 48.1875 
Q 40.625 48.1875 47.75 41.5 
Q 54.890625 34.8125 54.890625 23.390625 
Q 54.890625 11.625 47.5625 5.09375 
Q 40.234375 -1.421875 26.90625 -1.421875 
Q 22.3125 -1.421875 17.546875 -0.640625 
Q 12.796875 0.140625 7.71875 1.703125 
L 7.71875 11.625 
Q 12.109375 9.234375 16.796875 8.0625 
Q 21.484375 6.890625 26.703125 6.890625 
Q 35.15625 6.890625 40.078125 11.328125 
Q 45.015625 15.765625 45.015625 23.390625 
Q 45.015625 31 40.078125 35.4375 
Q 35.15625 39.890625 26.703125 39.890625 
Q 22.75 39.890625 18.8125 39.015625 
Q 14.890625 38.140625 10.796875 36.28125 
z
" id="DejaVuSans-53"/>
      </defs>
      <g transform="translate(272.526634 531.037656)scale(0.15 -0.15)">
       <use xlink:href="#DejaVuSans-48"/>
       <use x="63.623047" xlink:href="#DejaVuSans-46"/>
       <use x="95.410156" xlink:href="#DejaVuSans-53"/>
      </g>
     </g>
    </g>
    <g id="xtick_3">
     <g id="line2d_5">
      <path clip-path="url(#p25ddd16145)" d="M 404.755114 512.64 
L 404.755114 69.12 
" style="fill:none;stroke:#e6e6e6;stroke-linecap:square;stroke-width:0.8;"/>
     </g>
     <g id="line2d_6">
      <g>
       <use style="stroke:#000000;stroke-width:0.8;" x="404.755114" xlink:href="#m29e86abb9c" y="512.64"/>
      </g>
     </g>
     <g id="text_3">
      <!-- 1.0 -->
      <defs>
       <path d="M 12.40625 8.296875 
L 28.515625 8.296875 
L 28.515625 63.921875 
L 10.984375 60.40625 
L 10.984375 69.390625 
L 28.421875 72.90625 
L 38.28125 72.90625 
L 38.28125 8.296875 
L 54.390625 8.296875 
L 54.390625 0 
L 12.40625 0 
z
" id="DejaVuSans-49"/>
      </defs>
      <g transform="translate(392.82777 531.037656)scale(0.15 -0.15)">
       <use xlink:href="#DejaVuSans-49"/>
       <use x="63.623047" xlink:href="#DejaVuSans-46"/>
       <use x="95.410156" xlink:href="#DejaVuSans-48"/>
      </g>
     </g>
    </g>
    <g id="xtick_4">
     <g id="line2d_7">
      <path clip-path="url(#p25ddd16145)" d="M 525.05625 512.64 
L 525.05625 69.12 
" style="fill:none;stroke:#e6e6e6;stroke-linecap:square;stroke-width:0.8;"/>
     </g>
     <g id="line2d_8">
      <g>
       <use style="stroke:#000000;stroke-width:0.8;" x="525.05625" xlink:href="#m29e86abb9c" y="512.64"/>
      </g>
     </g>
     <g id="text_4">
      <!-- 1.5 -->
      <g transform="translate(513.128906 531.037656)scale(0.15 -0.15)">
       <use xlink:href="#DejaVuSans-49"/>
       <use x="63.623047" xlink:href="#DejaVuSans-46"/>
       <use x="95.410156" xlink:href="#DejaVuSans-53"/>
      </g>
     </g>
    </g>
    <g id="xtick_5">
     <g id="line2d_9">
      <path clip-path="url(#p25ddd16145)" d="M 645.357386 512.64 
L 645.357386 69.12 
" style="fill:none;stroke:#e6e6e6;stroke-linecap:square;stroke-width:0.8;"/>
     </g>
     <g id="line2d_10">
      <g>
       <use style="stroke:#000000;stroke-width:0.8;" x="645.357386" xlink:href="#m29e86abb9c" y="512.64"/>
      </g>
     </g>
     <g id="text_5">
      <!-- 2.0 -->
      <defs>
       <path d="M 19.1875 8.296875 
L 53.609375 8.296875 
L 53.609375 0 
L 7.328125 0 
L 7.328125 8.296875 
Q 12.9375 14.109375 22.625 23.890625 
Q 32.328125 33.6875 34.8125 36.53125 
Q 39.546875 41.84375 41.421875 45.53125 
Q 43.3125 49.21875 43.3125 52.78125 
Q 43.3125 58.59375 39.234375 62.25 
Q 35.15625 65.921875 28.609375 65.921875 
Q 23.96875 65.921875 18.8125 64.3125 
Q 13.671875 62.703125 7.8125 59.421875 
L 7.8125 69.390625 
Q 13.765625 71.78125 18.9375 73 
Q 24.125 74.21875 28.421875 74.21875 
Q 39.75 74.21875 46.484375 68.546875 
Q 53.21875 62.890625 53.21875 53.421875 
Q 53.21875 48.921875 51.53125 44.890625 
Q 49.859375 40.875 45.40625 35.40625 
Q 44.1875 33.984375 37.640625 27.21875 
Q 31.109375 20.453125 19.1875 8.296875 
z
" id="DejaVuSans-50"/>
      </defs>
      <g transform="translate(633.430043 531.037656)scale(0.15 -0.15)">
       <use xlink:href="#DejaVuSans-50"/>
       <use x="63.623047" xlink:href="#DejaVuSans-46"/>
       <use x="95.410156" xlink:href="#DejaVuSans-48"/>
      </g>
     </g>
    </g>
    <g id="xtick_6">
     <g id="line2d_11">
      <path clip-path="url(#p25ddd16145)" d="M 765.658523 512.64 
L 765.658523 69.12 
" style="fill:none;stroke:#e6e6e6;stroke-linecap:square;stroke-width:0.8;"/>
     </g>
     <g id="line2d_12">
      <g>
       <use style="stroke:#000000;stroke-width:0.8;" x="765.658523" xlink:href="#m29e86abb9c" y="512.64"/>
      </g>
     </g>
     <g id="text_6">
      <!-- 2.5 -->
      <g transform="translate(753.731179 531.037656)scale(0.15 -0.15)">
       <use xlink:href="#DejaVuSans-50"/>
       <use x="63.623047" xlink:href="#DejaVuSans-46"/>
       <use x="95.410156" xlink:href="#DejaVuSans-53"/>
      </g>
     </g>
    </g>
    <g id="xtick_7">
     <g id="line2d_13">
      <path clip-path="url(#p25ddd16145)" d="M 885.959659 512.64 
L 885.959659 69.12 
" style="fill:none;stroke:#e6e6e6;stroke-linecap:square;stroke-width:0.8;"/>
     </g>
     <g id="line2d_14">
      <g>
       <use style="stroke:#000000;stroke-width:0.8;" x="885.959659" xlink:href="#m29e86abb9c" y="512.64"/>
      </g>
     </g>
     <g id="text_7">
      <!-- 3.0 -->
      <defs>
       <path d="M 40.578125 39.3125 
Q 47.65625 37.796875 51.625 33 
Q 55.609375 28.21875 55.609375 21.1875 
Q 55.609375 10.40625 48.1875 4.484375 
Q 40.765625 -1.421875 27.09375 -1.421875 
Q 22.515625 -1.421875 17.65625 -0.515625 
Q 12.796875 0.390625 7.625 2.203125 
L 7.625 11.71875 
Q 11.71875 9.328125 16.59375 8.109375 
Q 21.484375 6.890625 26.8125 6.890625 
Q 36.078125 6.890625 40.9375 10.546875 
Q 45.796875 14.203125 45.796875 21.1875 
Q 45.796875 27.640625 41.28125 31.265625 
Q 36.765625 34.90625 28.71875 34.90625 
L 20.21875 34.90625 
L 20.21875 43.015625 
L 29.109375 43.015625 
Q 36.375 43.015625 40.234375 45.921875 
Q 44.09375 48.828125 44.09375 54.296875 
Q 44.09375 59.90625 40.109375 62.90625 
Q 36.140625 65.921875 28.71875 65.921875 
Q 24.65625 65.921875 20.015625 65.03125 
Q 15.375 64.15625 9.8125 62.3125 
L 9.8125 71.09375 
Q 15.4375 72.65625 20.34375 73.4375 
Q 25.25 74.21875 29.59375 74.21875 
Q 40.828125 74.21875 47.359375 69.109375 
Q 53.90625 64.015625 53.90625 55.328125 
Q 53.90625 49.265625 50.4375 45.09375 
Q 46.96875 40.921875 40.578125 39.3125 
z
" id="DejaVuSans-51"/>
      </defs>
      <g transform="translate(874.032315 531.037656)scale(0.15 -0.15)">
       <use xlink:href="#DejaVuSans-51"/>
       <use x="63.623047" xlink:href="#DejaVuSans-46"/>
       <use x="95.410156" xlink:href="#DejaVuSans-48"/>
      </g>
     </g>
    </g>
    <g id="text_8">
     <!-- $q(A)$ -->
     <defs>
      <path d="M 41.703125 8.203125 
Q 38.09375 3.46875 33.171875 1.015625 
Q 28.265625 -1.421875 22.3125 -1.421875 
Q 14.015625 -1.421875 9.296875 4.171875 
Q 4.59375 9.765625 4.59375 19.578125 
Q 4.59375 27.484375 7.5 34.859375 
Q 10.40625 42.234375 15.828125 48.09375 
Q 19.34375 51.90625 23.90625 53.953125 
Q 28.46875 56 33.5 56 
Q 39.546875 56 43.453125 53.609375 
Q 47.359375 51.21875 49.125 46.390625 
L 50.6875 54.59375 
L 59.71875 54.59375 
L 45.125 -20.609375 
L 36.078125 -20.609375 
z
M 13.921875 20.90625 
Q 13.921875 13.671875 16.9375 9.890625 
Q 19.96875 6.109375 25.6875 6.109375 
Q 34.1875 6.109375 40.1875 14.234375 
Q 46.1875 22.359375 46.1875 33.984375 
Q 46.1875 41.015625 43.078125 44.75 
Q 39.984375 48.484375 34.1875 48.484375 
Q 29.9375 48.484375 26.3125 46.5 
Q 22.703125 44.53125 20.015625 40.71875 
Q 17.1875 36.71875 15.546875 31.34375 
Q 13.921875 25.984375 13.921875 20.90625 
z
" id="DejaVuSans-Oblique-113"/>
      <path d="M 31 75.875 
Q 24.46875 64.65625 21.28125 53.65625 
Q 18.109375 42.671875 18.109375 31.390625 
Q 18.109375 20.125 21.3125 9.0625 
Q 24.515625 -2 31 -13.1875 
L 23.1875 -13.1875 
Q 15.875 -1.703125 12.234375 9.375 
Q 8.59375 20.453125 8.59375 31.390625 
Q 8.59375 42.28125 12.203125 53.3125 
Q 15.828125 64.359375 23.1875 75.875 
z
" id="DejaVuSans-40"/>
      <path d="M 36.8125 72.90625 
L 48 72.90625 
L 61.53125 0 
L 51.21875 0 
L 48.1875 18.703125 
L 15.375 18.703125 
L 5.078125 0 
L -5.328125 0 
z
M 40.375 63.1875 
L 19.921875 26.90625 
L 46.6875 26.90625 
z
" id="DejaVuSans-Oblique-65"/>
      <path d="M 8.015625 75.875 
L 15.828125 75.875 
Q 23.140625 64.359375 26.78125 53.3125 
Q 30.421875 42.28125 30.421875 31.390625 
Q 30.421875 20.453125 26.78125 9.375 
Q 23.140625 -1.703125 15.828125 -13.1875 
L 8.015625 -13.1875 
Q 14.5 -2 17.703125 9.0625 
Q 20.90625 20.125 20.90625 31.390625 
Q 20.90625 42.671875 17.703125 53.65625 
Q 14.5 64.65625 8.015625 75.875 
z
" id="DejaVuSans-41"/>
     </defs>
     <g transform="translate(493.55625 560.957188)scale(0.3 -0.3)">
      <use transform="translate(0 0.125)" xlink:href="#DejaVuSans-Oblique-113"/>
      <use transform="translate(63.476562 0.125)" xlink:href="#DejaVuSans-40"/>
      <use transform="translate(102.490234 0.125)" xlink:href="#DejaVuSans-Oblique-65"/>
      <use transform="translate(170.898438 0.125)" xlink:href="#DejaVuSans-41"/>
     </g>
    </g>
   </g>
   <g id="matplotlib.axis_2">
    <g id="ytick_1">
     <g id="line2d_15">
      <path clip-path="url(#p25ddd16145)" d="M 128.0625 493.260117 
L 922.05 493.260117 
" style="fill:none;stroke:#e6e6e6;stroke-linecap:square;stroke-width:0.8;"/>
     </g>
     <g id="line2d_16">
      <defs>
       <path d="M 0 0 
L -3.5 0 
" id="m549238af8b" style="stroke:#000000;stroke-width:0.8;"/>
      </defs>
      <g>
       <use style="stroke:#000000;stroke-width:0.8;" x="128.0625" xlink:href="#m549238af8b" y="493.260117"/>
      </g>
     </g>
     <g id="text_9">
      <!-- 0 -->
      <g transform="translate(111.51875 498.958946)scale(0.15 -0.15)">
       <use xlink:href="#DejaVuSans-48"/>
      </g>
     </g>
    </g>
    <g id="ytick_2">
     <g id="line2d_17">
      <path clip-path="url(#p25ddd16145)" d="M 128.0625 419.776695 
L 922.05 419.776695 
" style="fill:none;stroke:#e6e6e6;stroke-linecap:square;stroke-width:0.8;"/>
     </g>
     <g id="line2d_18">
      <g>
       <use style="stroke:#000000;stroke-width:0.8;" x="128.0625" xlink:href="#m549238af8b" y="419.776695"/>
      </g>
     </g>
     <g id="text_10">
      <!-- 1 -->
      <g transform="translate(111.51875 425.475523)scale(0.15 -0.15)">
       <use xlink:href="#DejaVuSans-49"/>
      </g>
     </g>
    </g>
    <g id="ytick_3">
     <g id="line2d_19">
      <path clip-path="url(#p25ddd16145)" d="M 128.0625 346.293272 
L 922.05 346.293272 
" style="fill:none;stroke:#e6e6e6;stroke-linecap:square;stroke-width:0.8;"/>
     </g>
     <g id="line2d_20">
      <g>
       <use style="stroke:#000000;stroke-width:0.8;" x="128.0625" xlink:href="#m549238af8b" y="346.293272"/>
      </g>
     </g>
     <g id="text_11">
      <!-- 2 -->
      <g transform="translate(111.51875 351.992101)scale(0.15 -0.15)">
       <use xlink:href="#DejaVuSans-50"/>
      </g>
     </g>
    </g>
    <g id="ytick_4">
     <g id="line2d_21">
      <path clip-path="url(#p25ddd16145)" d="M 128.0625 272.80985 
L 922.05 272.80985 
" style="fill:none;stroke:#e6e6e6;stroke-linecap:square;stroke-width:0.8;"/>
     </g>
     <g id="line2d_22">
      <g>
       <use style="stroke:#000000;stroke-width:0.8;" x="128.0625" xlink:href="#m549238af8b" y="272.80985"/>
      </g>
     </g>
     <g id="text_12">
      <!-- 3 -->
      <g transform="translate(111.51875 278.508678)scale(0.15 -0.15)">
       <use xlink:href="#DejaVuSans-51"/>
      </g>
     </g>
    </g>
    <g id="ytick_5">
     <g id="line2d_23">
      <path clip-path="url(#p25ddd16145)" d="M 128.0625 199.326427 
L 922.05 199.326427 
" style="fill:none;stroke:#e6e6e6;stroke-linecap:square;stroke-width:0.8;"/>
     </g>
     <g id="line2d_24">
      <g>
       <use style="stroke:#000000;stroke-width:0.8;" x="128.0625" xlink:href="#m549238af8b" y="199.326427"/>
      </g>
     </g>
     <g id="text_13">
      <!-- 4 -->
      <defs>
       <path d="M 37.796875 64.3125 
L 12.890625 25.390625 
L 37.796875 25.390625 
z
M 35.203125 72.90625 
L 47.609375 72.90625 
L 47.609375 25.390625 
L 58.015625 25.390625 
L 58.015625 17.1875 
L 47.609375 17.1875 
L 47.609375 0 
L 37.796875 0 
L 37.796875 17.1875 
L 4.890625 17.1875 
L 4.890625 26.703125 
z
" id="DejaVuSans-52"/>
      </defs>
      <g transform="translate(111.51875 205.025256)scale(0.15 -0.15)">
       <use xlink:href="#DejaVuSans-52"/>
      </g>
     </g>
    </g>
    <g id="ytick_6">
     <g id="line2d_25">
      <path clip-path="url(#p25ddd16145)" d="M 128.0625 125.843005 
L 922.05 125.843005 
" style="fill:none;stroke:#e6e6e6;stroke-linecap:square;stroke-width:0.8;"/>
     </g>
     <g id="line2d_26">
      <g>
       <use style="stroke:#000000;stroke-width:0.8;" x="128.0625" xlink:href="#m549238af8b" y="125.843005"/>
      </g>
     </g>
     <g id="text_14">
      <!-- 5 -->
      <g transform="translate(111.51875 131.541833)scale(0.15 -0.15)">
       <use xlink:href="#DejaVuSans-53"/>
      </g>
     </g>
    </g>
    <g id="text_15">
     <!-- $f^e(A)$ -->
     <defs>
      <path d="M 47.796875 75.984375 
L 46.390625 68.5 
L 37.796875 68.5 
Q 32.90625 68.5 30.6875 66.578125 
Q 28.46875 64.65625 27.390625 59.515625 
L 26.421875 54.6875 
L 41.21875 54.6875 
L 39.890625 47.703125 
L 25.09375 47.703125 
L 15.828125 0 
L 6.78125 0 
L 16.109375 47.703125 
L 7.515625 47.703125 
L 8.796875 54.6875 
L 17.390625 54.6875 
L 18.109375 58.5 
Q 19.96875 68.171875 24.625 72.078125 
Q 29.296875 75.984375 39.3125 75.984375 
z
" id="DejaVuSans-Oblique-102"/>
      <path d="M 48.09375 32.234375 
Q 48.25 33.015625 48.3125 33.84375 
Q 48.390625 34.671875 48.390625 35.5 
Q 48.390625 41.453125 44.890625 44.921875 
Q 41.40625 48.390625 35.40625 48.390625 
Q 28.71875 48.390625 23.578125 44.15625 
Q 18.453125 39.9375 15.828125 32.171875 
z
M 55.90625 25.203125 
L 14.109375 25.203125 
Q 13.8125 23.34375 13.71875 22.265625 
Q 13.625 21.1875 13.625 20.40625 
Q 13.625 13.625 17.796875 9.90625 
Q 21.96875 6.203125 29.59375 6.203125 
Q 35.453125 6.203125 40.671875 7.515625 
Q 45.90625 8.84375 50.390625 11.375 
L 48.6875 2.484375 
Q 43.84375 0.53125 38.6875 -0.4375 
Q 33.546875 -1.421875 28.21875 -1.421875 
Q 16.84375 -1.421875 10.71875 4.015625 
Q 4.59375 9.46875 4.59375 19.484375 
Q 4.59375 28.03125 7.640625 35.375 
Q 10.6875 42.71875 16.609375 48.484375 
Q 20.40625 52.09375 25.65625 54.046875 
Q 30.90625 56 36.8125 56 
Q 46.09375 56 51.578125 50.4375 
Q 57.078125 44.875 57.078125 35.5 
Q 57.078125 33.25 56.78125 30.6875 
Q 56.5 28.125 55.90625 25.203125 
z
" id="DejaVuSans-Oblique-101"/>
     </defs>
     <g transform="translate(101.279687 326.13)rotate(-90)scale(0.3 -0.3)">
      <use transform="translate(0 0.51875)" xlink:href="#DejaVuSans-Oblique-102"/>
      <use transform="translate(42.652786 38.8)scale(0.7)" xlink:href="#DejaVuSans-Oblique-101"/>
      <use transform="translate(88.453568 0.51875)" xlink:href="#DejaVuSans-40"/>
      <use transform="translate(127.46724 0.51875)" xlink:href="#DejaVuSans-Oblique-65"/>
      <use transform="translate(195.875443 0.51875)" xlink:href="#DejaVuSans-41"/>
     </g>
    </g>
   </g>
   <g id="line2d_27">
    <path clip-path="url(#p25ddd16145)" d="M 164.152841 454.336158 
L 171.443819 454.487429 
L 178.734797 454.934557 
L 186.025775 455.658239 
L 193.316753 456.628641 
L 200.607731 457.808402 
L 207.898709 459.156018 
L 215.189687 460.629056 
L 222.480665 462.18683 
L 229.771643 463.792331 
L 237.062621 465.413387 
L 244.353598 467.023154 
L 251.644576 468.600093 
L 258.935554 470.127614 
L 266.226532 471.593523 
L 273.51751 472.989395 
L 280.808488 474.309937 
L 288.099466 475.552403 
L 295.390444 476.716071 
L 302.681422 477.80179 
L 309.9724 478.811599 
L 317.263378 479.748411 
L 324.554356 480.615752 
L 331.845334 481.417548 
L 339.136312 482.157952 
L 346.42729 482.841209 
L 353.718268 483.471544 
L 361.009246 484.053083 
L 368.300224 484.589787 
L 375.591202 485.085411 
L 382.88218 485.543475 
L 390.173158 485.967246 
L 397.464136 486.359732 
L 404.755114 486.723687 
L 412.046092 487.061615 
L 419.33707 487.375786 
L 426.628048 487.668249 
L 433.919025 487.940852 
L 441.210003 488.195258 
L 448.500981 488.432964 
L 455.791959 488.655317 
L 463.082937 488.863533 
L 470.373915 489.058711 
L 477.664893 489.241844 
L 484.955871 489.413835 
L 492.246849 489.575507 
L 499.537827 489.72761 
L 506.828805 489.87083 
L 514.119783 490.005798 
L 521.410761 490.133092 
L 528.701739 490.253246 
L 535.992717 490.366752 
L 543.283695 490.474066 
L 550.574673 490.575606 
L 557.865651 490.671762 
L 565.156629 490.762894 
L 572.447607 490.849335 
L 579.738585 490.931394 
L 587.029563 491.009357 
L 594.320541 491.083488 
L 601.611519 491.154033 
L 608.902497 491.221219 
L 616.193475 491.285256 
L 623.484452 491.34634 
L 630.77543 491.40465 
L 638.066408 491.460354 
L 645.357386 491.513607 
L 652.648364 491.564552 
L 659.939342 491.613323 
L 667.23032 491.660043 
L 674.521298 491.704828 
L 681.812276 491.747783 
L 689.103254 491.789008 
L 696.394232 491.828594 
L 703.68521 491.866629 
L 710.976188 491.903193 
L 718.267166 491.938359 
L 725.558144 491.972198 
L 732.849122 492.004775 
L 740.1401 492.036152 
L 747.431078 492.066385 
L 754.722056 492.09553 
L 762.013034 492.123635 
L 769.304012 492.150751 
L 776.59499 492.17692 
L 783.885968 492.202185 
L 791.176946 492.226587 
L 798.467924 492.250163 
L 805.758902 492.272949 
L 813.049879 492.294979 
L 820.340857 492.316285 
L 827.631835 492.336897 
L 834.922813 492.356844 
L 842.213791 492.376154 
L 849.504769 492.394852 
L 856.795747 492.412964 
L 864.086725 492.430512 
L 871.377703 492.447521 
L 878.668681 492.46401 
L 885.959659 492.48 
" style="fill:none;stroke:#d9d9d9;stroke-linecap:square;stroke-width:2;"/>
   </g>
   <g id="line2d_28">
    <path clip-path="url(#p25ddd16145)" d="M 164.152841 308.716924 
L 171.443819 309.459269 
L 178.734797 311.651253 
L 186.025775 315.19198 
L 193.316753 319.926527 
L 200.607731 325.662753 
L 207.898709 332.189811 
L 215.189687 339.2953 
L 222.480665 346.778964 
L 229.771643 354.461993 
L 237.062621 362.192023 
L 244.353598 369.844588 
L 251.644576 377.322027 
L 258.935554 384.550863 
L 266.226532 391.478442 
L 273.51751 398.069426 
L 280.808488 404.302482 
L 288.099466 410.167349 
L 295.390444 415.662358 
L 302.681422 420.792378 
L 309.9724 425.567166 
L 317.263378 430.00003 
L 324.554356 434.106781 
L 331.845334 437.904883 
L 339.136312 441.412791 
L 346.42729 444.649414 
L 353.718268 447.633695 
L 361.009246 450.384277 
L 368.300224 452.919243 
L 375.591202 455.255925 
L 382.88218 457.410758 
L 390.173158 459.399183 
L 397.464136 461.235595 
L 404.755114 462.933311 
L 412.046092 464.50458 
L 419.33707 465.960601 
L 426.628048 467.311573 
L 433.919025 468.566742 
L 441.210003 469.73447 
L 448.500981 470.822299 
L 455.791959 471.837024 
L 463.082937 472.784764 
L 470.373915 473.671027 
L 477.664893 474.500777 
L 484.955871 475.278492 
L 492.246849 476.008221 
L 499.537827 476.693631 
L 506.828805 477.338051 
L 514.119783 477.944514 
L 521.410761 478.515786 
L 528.701739 479.0544 
L 535.992717 479.562677 
L 543.283695 480.042753 
L 550.574673 480.496592 
L 557.865651 480.926009 
L 565.156629 481.332675 
L 572.447607 481.71814 
L 579.738585 482.083836 
L 587.029563 482.431086 
L 594.320541 482.76112 
L 601.611519 483.075073 
L 608.902497 483.373998 
L 616.193475 483.658872 
L 623.484452 483.930597 
L 630.77543 484.19001 
L 638.066408 484.437886 
L 645.357386 484.674943 
L 652.648364 484.901844 
L 659.939342 485.119206 
L 667.23032 485.327598 
L 674.521298 485.527548 
L 681.812276 485.719546 
L 689.103254 485.904044 
L 696.394232 486.081462 
L 703.68521 486.252192 
L 710.976188 486.416594 
L 718.267166 486.575006 
L 725.558144 486.72774 
L 732.849122 486.875087 
L 740.1401 487.017319 
L 747.431078 487.154687 
L 754.722056 487.287428 
L 762.013034 487.415764 
L 769.304012 487.539898 
L 776.59499 487.660026 
L 783.885968 487.776329 
L 791.176946 487.888975 
L 798.467924 487.998126 
L 805.758902 488.103932 
L 813.049879 488.206534 
L 820.340857 488.306066 
L 827.631835 488.402654 
L 834.922813 488.496419 
L 842.213791 488.587471 
L 849.504769 488.67592 
L 856.795747 488.761865 
L 864.086725 488.845404 
L 871.377703 488.926627 
L 878.668681 489.005622 
L 885.959659 489.082471 
" style="fill:none;stroke:#666666;stroke-linecap:square;stroke-width:2;"/>
   </g>
   <g id="line2d_29">
    <path clip-path="url(#p25ddd16145)" d="M 164.152841 330.211581 
L 171.443819 330.69133 
L 178.734797 332.113958 
L 186.025775 334.431078 
L 193.316753 337.56673 
L 200.607731 341.423595 
L 207.898709 345.890324 
L 215.189687 350.848995 
L 222.480665 356.181869 
L 229.771643 361.776888 
L 237.062621 367.531655 
L 244.353598 373.355889 
L 251.644576 379.172541 
L 258.935554 384.917853 
L 266.226532 390.540667 
L 273.51751 396.001264 
L 280.808488 401.269972 
L 288.099466 406.325701 
L 295.390444 411.154532 
L 302.681422 415.748428 
L 309.9724 420.104086 
L 317.263378 424.221963 
L 324.554356 428.105447 
L 331.845334 431.760172 
L 339.136312 435.193458 
L 346.42729 438.413851 
L 353.718268 441.43075 
L 361.009246 444.254108 
L 368.300224 446.894187 
L 375.591202 449.361363 
L 382.88218 451.665969 
L 390.173158 453.818171 
L 397.464136 455.827867 
L 404.755114 457.704614 
L 412.046092 459.457569 
L 419.33707 461.095449 
L 426.628048 462.626501 
L 433.919025 464.05849 
L 441.210003 465.39869 
L 448.500981 466.653889 
L 455.791959 467.830396 
L 463.082937 468.934055 
L 470.373915 469.970269 
L 477.664893 470.944016 
L 484.955871 471.859878 
L 492.246849 472.722064 
L 499.537827 473.534439 
L 506.828805 474.300546 
L 514.119783 475.023637 
L 521.410761 475.706694 
L 528.701739 476.352455 
L 535.992717 476.963434 
L 543.283695 477.541945 
L 550.574673 478.090116 
L 557.865651 478.60991 
L 565.156629 479.103142 
L 572.447607 479.571487 
L 579.738585 480.0165 
L 587.029563 480.439621 
L 594.320541 480.842189 
L 601.611519 481.225451 
L 608.902497 481.590565 
L 616.193475 481.938615 
L 623.484452 482.270609 
L 630.77543 482.587491 
L 638.066408 482.890142 
L 645.357386 483.179386 
L 652.648364 483.455994 
L 659.939342 483.720689 
L 667.23032 483.974146 
L 674.521298 484.216997 
L 681.812276 484.449834 
L 689.103254 484.673213 
L 696.394232 484.887653 
L 703.68521 485.093639 
L 710.976188 485.291629 
L 718.267166 485.482048 
L 725.558144 485.665296 
L 732.849122 485.841748 
L 740.1401 486.011754 
L 747.431078 486.175644 
L 754.722056 486.333725 
L 762.013034 486.486287 
L 769.304012 486.6336 
L 776.59499 486.775918 
L 783.885968 486.913481 
L 791.176946 487.046512 
L 798.467924 487.175221 
L 805.758902 487.299806 
L 813.049879 487.420454 
L 820.340857 487.537339 
L 827.631835 487.650626 
L 834.922813 487.760471 
L 842.213791 487.867019 
L 849.504769 487.97041 
L 856.795747 488.070774 
L 864.086725 488.168234 
L 871.377703 488.262907 
L 878.668681 488.354903 
L 885.959659 488.444327 
" style="fill:none;stroke:#0000ff;stroke-linecap:square;stroke-width:2;"/>
   </g>
   <g id="line2d_30">
    <path clip-path="url(#p25ddd16145)" d="M 164.152841 347.046899 
L 171.443819 347.37833 
L 178.734797 348.363729 
L 186.025775 349.977019 
L 193.316753 352.176697 
L 200.607731 354.908516 
L 207.898709 358.108764 
L 215.189687 361.707802 
L 222.480665 365.633506 
L 229.771643 369.814349 
L 237.062621 374.181941 
L 244.353598 378.672936 
L 251.644576 383.230303 
L 258.935554 387.804016 
L 266.226532 392.35127 
L 273.51751 396.836313 
L 280.808488 401.230022 
L 288.099466 405.509314 
L 295.390444 409.656466 
L 302.681422 413.658416 
L 309.9724 417.506075 
L 317.263378 421.193698 
L 324.554356 424.718299 
L 331.845334 428.079147 
L 339.136312 431.277325 
L 346.42729 434.315355 
L 353.718268 437.196879 
L 361.009246 439.926401 
L 368.300224 442.509061 
L 375.591202 444.950458 
L 382.88218 447.256502 
L 390.173158 449.433292 
L 397.464136 451.487017 
L 404.755114 453.423875 
L 412.046092 455.250012 
L 419.33707 456.971464 
L 426.628048 458.594122 
L 433.919025 460.123693 
L 441.210003 461.565682 
L 448.500981 462.92537 
L 455.791959 464.207799 
L 463.082937 465.417768 
L 470.373915 466.559828 
L 477.664893 467.638278 
L 484.955871 468.65717 
L 492.246849 469.620312 
L 499.537827 470.531275 
L 506.828805 471.393401 
L 514.119783 472.209811 
L 521.410761 472.983416 
L 528.701739 473.716929 
L 535.992717 474.412873 
L 543.283695 475.073593 
L 550.574673 475.701272 
L 557.865651 476.297936 
L 565.156629 476.865466 
L 572.447607 477.405614 
L 579.738585 477.920004 
L 587.029563 478.41015 
L 594.320541 478.87746 
L 601.611519 479.323244 
L 608.902497 479.748725 
L 616.193475 480.155043 
L 623.484452 480.543264 
L 630.77543 480.914385 
L 638.066408 481.269337 
L 645.357386 481.608993 
L 652.648364 481.934175 
L 659.939342 482.24565 
L 667.23032 482.54414 
L 674.521298 482.830327 
L 681.812276 483.104848 
L 689.103254 483.368305 
L 696.394232 483.621266 
L 703.68521 483.864266 
L 710.976188 484.097807 
L 718.267166 484.322366 
L 725.558144 484.538391 
L 732.849122 484.746305 
L 740.1401 484.946508 
L 747.431078 485.139377 
L 754.722056 485.325269 
L 762.013034 485.504521 
L 769.304012 485.677449 
L 776.59499 485.844354 
L 783.885968 486.005519 
L 791.176946 486.161213 
L 798.467924 486.311689 
L 805.758902 486.457186 
L 813.049879 486.59793 
L 820.340857 486.734134 
L 827.631835 486.866 
L 834.922813 486.99372 
L 842.213791 487.117475 
L 849.504769 487.237434 
L 856.795747 487.35376 
L 864.086725 487.466605 
L 871.377703 487.576115 
L 878.668681 487.682427 
L 885.959659 487.785671 
" style="fill:none;stroke:#ff0000;stroke-linecap:square;stroke-width:2;"/>
   </g>
   <g id="line2d_31">
    <path clip-path="url(#p25ddd16145)" d="M 164.152841 113.196473 
L 171.443819 114.792992 
L 178.734797 119.50525 
L 186.025775 127.111332 
L 193.316753 137.272083 
L 200.607731 149.569302 
L 207.898709 163.546612 
L 215.189687 178.746067 
L 222.480665 194.736251 
L 229.771643 211.130638 
L 237.062621 227.597145 
L 244.353598 243.86094 
L 251.644576 259.702719 
L 258.935554 274.954364 
L 266.226532 289.493307 
L 273.51751 303.23649 
L 280.808488 316.134371 
L 288.099466 328.165242 
L 295.390444 339.329954 
L 302.681422 349.647109 
L 309.9724 359.148737 
L 317.263378 367.87648 
L 324.554356 375.878294 
L 331.845334 383.205672 
L 339.136312 389.911378 
L 346.42729 396.047672 
L 353.718268 401.664984 
L 361.009246 406.810993 
L 368.300224 411.530055 
L 375.591202 415.862906 
L 382.88218 419.846597 
L 390.173158 423.514581 
L 397.464136 426.896921 
L 404.755114 430.020558 
L 412.046092 432.909613 
L 419.33707 435.585693 
L 426.628048 438.068187 
L 433.919025 440.374531 
L 441.210003 442.520445 
L 448.500981 444.520145 
L 455.791959 446.386509 
L 463.082937 448.131228 
L 470.373915 449.764926 
L 477.664893 451.297264 
L 484.955871 452.737028 
L 492.246849 454.092198 
L 499.537827 455.370023 
L 506.828805 456.577072 
L 514.119783 457.719292 
L 521.410761 458.80206 
L 528.701739 459.830227 
L 535.992717 460.808163 
L 543.283695 461.739805 
L 550.574673 462.628691 
L 557.865651 463.478 
L 565.156629 464.290592 
L 572.447607 465.069033 
L 579.738585 465.815636 
L 587.029563 466.53248 
L 594.320541 467.221442 
L 601.611519 467.884216 
L 608.902497 468.522338 
L 616.193475 469.137202 
L 623.484452 469.730078 
L 630.77543 470.302128 
L 638.066408 470.854413 
L 645.357386 471.387914 
L 652.648364 471.903533 
L 659.939342 472.402106 
L 667.23032 472.88441 
L 674.521298 473.351169 
L 681.812276 473.803058 
L 689.103254 474.240712 
L 696.394232 474.664725 
L 703.68521 475.075659 
L 710.976188 475.474041 
L 718.267166 475.860372 
L 725.558144 476.235123 
L 732.849122 476.598745 
L 740.1401 476.951661 
L 747.431078 477.294277 
L 754.722056 477.626977 
L 762.013034 477.950128 
L 769.304012 478.264078 
L 776.59499 478.569162 
L 783.885968 478.865697 
L 791.176946 479.153987 
L 798.467924 479.434321 
L 805.758902 479.706977 
L 813.049879 479.97222 
L 820.340857 480.230305 
L 827.631835 480.481475 
L 834.922813 480.725961 
L 842.213791 480.963988 
L 849.504769 481.19577 
L 856.795747 481.421512 
L 864.086725 481.64141 
L 871.377703 481.855653 
L 878.668681 482.064424 
L 885.959659 482.267896 
" style="fill:none;stroke:#00ffff;stroke-linecap:square;stroke-width:2;"/>
   </g>
   <g id="line2d_32">
    <path clip-path="url(#p25ddd16145)" d="M 164.152841 89.28 
L 171.443819 91.418455 
L 178.734797 97.700677 
L 186.025775 107.749679 
L 193.316753 121.004449 
L 200.607731 136.798593 
L 207.898709 154.437299 
L 215.189687 173.258192 
L 222.480665 192.670584 
L 229.771643 212.17486 
L 237.062621 231.367234 
L 244.353598 249.935518 
L 251.644576 267.650289 
L 258.935554 284.354244 
L 266.226532 299.951227 
L 273.51751 314.395635 
L 280.808488 327.682478 
L 288.099466 339.838218 
L 295.390444 350.912501 
L 302.681422 360.970848 
L 309.9724 370.088412 
L 317.263378 378.344823 
L 324.554356 385.820148 
L 331.845334 392.591893 
L 339.136312 398.732962 
L 346.42729 404.310431 
L 353.718268 409.38498 
L 361.009246 414.010828 
L 368.300224 418.236017 
L 375.591202 422.102903 
L 382.88218 425.648771 
L 390.173158 428.906464 
L 397.464136 431.904996 
L 404.755114 434.670097 
L 412.046092 437.224686 
L 419.33707 439.589266 
L 426.628048 441.782241 
L 433.919025 443.820176 
L 441.210003 445.717998 
L 448.500981 447.489166 
L 455.791959 449.145802 
L 463.082937 450.698815 
L 470.373915 452.157994 
L 477.664893 453.53211 
L 484.955871 454.828999 
L 492.246849 456.055645 
L 499.537827 457.218257 
L 506.828805 458.322352 
L 514.119783 459.372816 
L 521.410761 460.373981 
L 528.701739 461.329683 
L 535.992717 462.243321 
L 543.283695 463.117914 
L 550.574673 463.956143 
L 557.865651 464.7604 
L 565.156629 465.532825 
L 572.447607 466.275337 
L 579.738585 466.989667 
L 587.029563 467.677382 
L 594.320541 468.339908 
L 601.611519 468.978547 
L 608.902497 469.594495 
L 616.193475 470.188855 
L 623.484452 470.762647 
L 630.77543 471.316822 
L 638.066408 471.852263 
L 645.357386 472.3698 
L 652.648364 472.870209 
L 659.939342 473.354223 
L 667.23032 473.82253 
L 674.521298 474.275782 
L 681.812276 474.714596 
L 689.103254 475.139555 
L 696.394232 475.551212 
L 703.68521 475.950095 
L 710.976188 476.336703 
L 718.267166 476.711511 
L 725.558144 477.074973 
L 732.849122 477.42752 
L 740.1401 477.769562 
L 747.431078 478.101492 
L 754.722056 478.423684 
L 762.013034 478.736496 
L 769.304012 479.040267 
L 776.59499 479.335324 
L 783.885968 479.621979 
L 791.176946 479.90053 
L 798.467924 480.17126 
L 805.758902 480.434444 
L 813.049879 480.690342 
L 820.340857 480.939204 
L 827.631835 481.181269 
L 834.922813 481.416768 
L 842.213791 481.64592 
L 849.504769 481.868938 
L 856.795747 482.086022 
L 864.086725 482.297368 
L 871.377703 482.503163 
L 878.668681 482.703586 
L 885.959659 482.898809 
" style="fill:none;stroke:#ff00ff;stroke-linecap:square;stroke-width:2;"/>
   </g>
   <g id="patch_3">
    <path d="M 128.0625 512.64 
L 128.0625 69.12 
" style="fill:none;stroke:#000000;stroke-linecap:square;stroke-linejoin:miter;stroke-width:0.8;"/>
   </g>
   <g id="patch_4">
    <path d="M 922.05 512.64 
L 922.05 69.12 
" style="fill:none;stroke:#000000;stroke-linecap:square;stroke-linejoin:miter;stroke-width:0.8;"/>
   </g>
   <g id="patch_5">
    <path d="M 128.0625 512.64 
L 922.05 512.64 
" style="fill:none;stroke:#000000;stroke-linecap:square;stroke-linejoin:miter;stroke-width:0.8;"/>
   </g>
   <g id="patch_6">
    <path d="M 128.0625 69.12 
L 922.05 69.12 
" style="fill:none;stroke:#000000;stroke-linecap:square;stroke-linejoin:miter;stroke-width:0.8;"/>
   </g>
   <g id="legend_1">
    <g id="patch_7">
     <path d="M 804.8 309.291875 
L 904.55 309.291875 
Q 909.55 309.291875 909.55 304.291875 
L 909.55 86.62 
Q 909.55 81.62 904.55 81.62 
L 804.8 81.62 
Q 799.8 81.62 799.8 86.62 
L 799.8 304.291875 
Q 799.8 309.291875 804.8 309.291875 
z
" style="fill:#ffffff;opacity:0.8;stroke:#cccccc;stroke-linejoin:miter;"/>
    </g>
    <g id="line2d_33">
     <path d="M 809.8 101.866094 
L 859.8 101.866094 
" style="fill:none;stroke:#d9d9d9;stroke-linecap:square;stroke-width:2;"/>
    </g>
    <g id="line2d_34"/>
    <g id="text_16">
     <!-- $H$ -->
     <defs>
      <path d="M 16.890625 72.90625 
L 26.8125 72.90625 
L 21 43.015625 
L 56.78125 43.015625 
L 62.59375 72.90625 
L 72.515625 72.90625 
L 58.296875 0 
L 48.390625 0 
L 55.171875 34.71875 
L 19.390625 34.71875 
L 12.59375 0 
L 2.6875 0 
z
" id="DejaVuSans-Oblique-72"/>
     </defs>
     <g transform="translate(879.8 110.616094)scale(0.25 -0.25)">
      <use transform="translate(0 0.09375)" xlink:href="#DejaVuSans-Oblique-72"/>
     </g>
    </g>
    <g id="line2d_35">
     <path d="M 809.8 138.561406 
L 859.8 138.561406 
" style="fill:none;stroke:#666666;stroke-linecap:square;stroke-width:2;"/>
    </g>
    <g id="line2d_36"/>
    <g id="text_17">
     <!-- $C$ -->
     <defs>
      <path d="M 69.484375 67.28125 
L 67.484375 56.890625 
Q 62.796875 61.625 57.546875 63.921875 
Q 52.296875 66.21875 46.1875 66.21875 
Q 37.84375 66.21875 31.515625 62.203125 
Q 25.203125 58.203125 20.609375 50 
Q 17.671875 44.734375 16.125 38.84375 
Q 14.59375 32.953125 14.59375 27 
Q 14.59375 17.046875 19.75 11.8125 
Q 24.90625 6.59375 34.71875 6.59375 
Q 41.5 6.59375 47.75 8.765625 
Q 54 10.9375 59.90625 15.28125 
L 57.625 3.609375 
Q 51.8125 1.125 45.875 -0.140625 
Q 39.9375 -1.421875 33.984375 -1.421875 
Q 19.96875 -1.421875 12.078125 6.1875 
Q 4.203125 13.8125 4.203125 27.390625 
Q 4.203125 36.078125 7.203125 44.46875 
Q 10.203125 52.875 15.828125 59.8125 
Q 21.78125 67.1875 29.421875 70.703125 
Q 37.0625 74.21875 47.21875 74.21875 
Q 53.46875 74.21875 59.0625 72.484375 
Q 64.65625 70.75 69.484375 67.28125 
z
" id="DejaVuSans-Oblique-67"/>
     </defs>
     <g transform="translate(879.8 147.311406)scale(0.25 -0.25)">
      <use transform="translate(0 0.78125)" xlink:href="#DejaVuSans-Oblique-67"/>
     </g>
    </g>
    <g id="line2d_37">
     <path d="M 809.8 175.256719 
L 859.8 175.256719 
" style="fill:none;stroke:#0000ff;stroke-linecap:square;stroke-width:2;"/>
    </g>
    <g id="line2d_38"/>
    <g id="text_18">
     <!-- $N$ -->
     <defs>
      <path d="M 16.890625 72.90625 
L 30.171875 72.90625 
L 50.296875 10.40625 
L 62.5 72.90625 
L 72.125 72.90625 
L 57.90625 0 
L 44.578125 0 
L 24.515625 62.890625 
L 12.3125 0 
L 2.6875 0 
z
" id="DejaVuSans-Oblique-78"/>
     </defs>
     <g transform="translate(879.8 184.006719)scale(0.25 -0.25)">
      <use transform="translate(0 0.09375)" xlink:href="#DejaVuSans-Oblique-78"/>
     </g>
    </g>
    <g id="line2d_39">
     <path d="M 809.8 211.952031 
L 859.8 211.952031 
" style="fill:none;stroke:#ff0000;stroke-linecap:square;stroke-width:2;"/>
    </g>
    <g id="line2d_40"/>
    <g id="text_19">
     <!-- $O$ -->
     <defs>
      <path d="M 45.609375 66.21875 
Q 37.5 66.21875 31.296875 62.28125 
Q 25.09375 58.34375 20.515625 50.296875 
Q 17.578125 45.171875 16.03125 39.40625 
Q 14.5 33.640625 14.5 27.78125 
Q 14.5 17.625 19.359375 12.109375 
Q 24.21875 6.59375 33.109375 6.59375 
Q 41.109375 6.59375 47.375 10.5625 
Q 53.65625 14.546875 58.109375 22.40625 
Q 61.078125 27.6875 62.640625 33.46875 
Q 64.203125 39.265625 64.203125 45.015625 
Q 64.203125 55.125 59.3125 60.671875 
Q 54.4375 66.21875 45.609375 66.21875 
z
M 32.8125 -1.421875 
Q 19.390625 -1.421875 11.6875 6.53125 
Q 4 14.5 4 28.328125 
Q 4 36.234375 7 44.484375 
Q 10.015625 52.734375 15.28125 59.1875 
Q 21.484375 66.75 29.09375 70.484375 
Q 36.71875 74.21875 45.90625 74.21875 
Q 59.28125 74.21875 66.984375 66.328125 
Q 74.703125 58.453125 74.703125 44.828125 
Q 74.703125 36.421875 71.765625 28.3125 
Q 68.84375 20.21875 63.375 13.625 
Q 57.125 6 49.578125 2.28125 
Q 42.046875 -1.421875 32.8125 -1.421875 
z
" id="DejaVuSans-Oblique-79"/>
     </defs>
     <g transform="translate(879.8 220.702031)scale(0.25 -0.25)">
      <use transform="translate(0 0.78125)" xlink:href="#DejaVuSans-Oblique-79"/>
     </g>
    </g>
    <g id="line2d_41">
     <path d="M 809.8 248.647344 
L 859.8 248.647344 
" style="fill:none;stroke:#00ffff;stroke-linecap:square;stroke-width:2;"/>
    </g>
    <g id="line2d_42"/>
    <g id="text_20">
     <!-- $S$ -->
     <defs>
      <path d="M 60.296875 70.515625 
L 58.40625 60.890625 
Q 53.46875 63.53125 48.609375 64.875 
Q 43.75 66.21875 39.203125 66.21875 
Q 30.375 66.21875 25.140625 62.359375 
Q 19.921875 58.5 19.921875 52.09375 
Q 19.921875 48.578125 21.84375 46.703125 
Q 23.78125 44.828125 31.78125 42.671875 
L 37.703125 41.21875 
Q 47.703125 38.625 51.609375 34.640625 
Q 55.515625 30.671875 55.515625 23.484375 
Q 55.515625 12.453125 46.84375 5.515625 
Q 38.1875 -1.421875 24.03125 -1.421875 
Q 18.21875 -1.421875 12.359375 -0.265625 
Q 6.5 0.875 0.59375 3.21875 
L 2.59375 13.375 
Q 8.015625 10.015625 13.453125 8.296875 
Q 18.890625 6.59375 24.3125 6.59375 
Q 33.546875 6.59375 39.109375 10.6875 
Q 44.671875 14.796875 44.671875 21.390625 
Q 44.671875 25.78125 42.453125 28.046875 
Q 40.234375 30.328125 32.90625 32.171875 
L 27 33.6875 
Q 16.890625 36.328125 13.203125 39.765625 
Q 9.515625 43.21875 9.515625 49.421875 
Q 9.515625 60.296875 17.890625 67.25 
Q 26.265625 74.21875 39.703125 74.21875 
Q 44.921875 74.21875 50.046875 73.28125 
Q 55.171875 72.359375 60.296875 70.515625 
z
" id="DejaVuSans-Oblique-83"/>
     </defs>
     <g transform="translate(879.8 257.397344)scale(0.25 -0.25)">
      <use transform="translate(0 0.78125)" xlink:href="#DejaVuSans-Oblique-83"/>
     </g>
    </g>
    <g id="line2d_43">
     <path d="M 809.8 285.342656 
L 859.8 285.342656 
" style="fill:none;stroke:#ff00ff;stroke-linecap:square;stroke-width:2;"/>
    </g>
    <g id="line2d_44"/>
    <g id="text_21">
     <!-- $P$ -->
     <defs>
      <path d="M 16.890625 72.90625 
L 39.703125 72.90625 
Q 49.65625 72.90625 54.875 68.265625 
Q 60.109375 63.625 60.109375 54.6875 
Q 60.109375 42.671875 52.390625 35.984375 
Q 44.671875 29.296875 30.71875 29.296875 
L 18.3125 29.296875 
L 12.59375 0 
L 2.6875 0 
z
M 25.203125 64.796875 
L 19.921875 37.40625 
L 32.328125 37.40625 
Q 40.71875 37.40625 45.203125 41.703125 
Q 49.703125 46 49.703125 54 
Q 49.703125 59.125 46.65625 61.953125 
Q 43.609375 64.796875 38.09375 64.796875 
z
" id="DejaVuSans-Oblique-80"/>
     </defs>
     <g transform="translate(879.8 294.092656)scale(0.25 -0.25)">
      <use transform="translate(0 0.09375)" xlink:href="#DejaVuSans-Oblique-80"/>
     </g>
    </g>
   </g>
  </g>
 </g>
 <defs>
  <clipPath id="p25ddd16145">
   <rect height="443.52" width="793.9875" x="128.0625" y="69.12"/>
  </clipPath>
 </defs>
</svg>
