<?xml version="1.0" encoding="utf-8" standalone="no"?>
<!DOCTYPE svg PUBLIC "-//W3C//DTD SVG 1.1//EN"
  "http://www.w3.org/Graphics/SVG/1.1/DTD/svg11.dtd">
<!-- Created with matplotlib (https://matplotlib.org/) -->
<svg height="810pt" version="1.1" viewBox="0 0 720 810" width="720pt" xmlns="http://www.w3.org/2000/svg" xmlns:xlink="http://www.w3.org/1999/xlink">
 <metadata>
  <rdf:RDF xmlns:cc="http://creativecommons.org/ns#" xmlns:dc="http://purl.org/dc/elements/1.1/" xmlns:rdf="http://www.w3.org/1999/02/22-rdf-syntax-ns#">
   <cc:Work>
    <dc:type rdf:resource="http://purl.org/dc/dcmitype/StillImage"/>
    <dc:date>2021-01-26T10:51:18.631964</dc:date>
    <dc:format>image/svg+xml</dc:format>
    <dc:creator>
     <cc:Agent>
      <dc:title>Matplotlib v3.3.1, https://matplotlib.org/</dc:title>
     </cc:Agent>
    </dc:creator>
   </cc:Work>
  </rdf:RDF>
 </metadata>
 <defs>
  <style type="text/css">*{stroke-linecap:butt;stroke-linejoin:round;}</style>
 </defs>
 <g id="figure_1">
  <g id="patch_1">
   <path d="M 0 810 
L 720 810 
L 720 0 
L 0 0 
z
" style="fill:#ffffff;"/>
  </g>
  <g id="axes_1">
   <g id="patch_2">
    <path d="M 108 720.9 
L 698.4 720.9 
L 698.4 56.7 
L 108 56.7 
z
" style="fill:#ffffff;"/>
   </g>
   <g id="matplotlib.axis_1">
    <g id="xtick_1">
     <g id="line2d_1">
      <path clip-path="url(#p26701e2dc6)" d="M 167.04 720.9 
L 167.04 56.7 
" style="fill:none;stroke:#e6e6e6;stroke-linecap:square;stroke-width:0.8;"/>
     </g>
     <g id="line2d_2">
      <defs>
       <path d="M 0 0 
L 0 3.5 
" id="me793282d22" style="stroke:#000000;stroke-width:0.8;"/>
      </defs>
      <g>
       <use style="stroke:#000000;stroke-width:0.8;" x="167.04" xlink:href="#me793282d22" y="720.9"/>
      </g>
     </g>
     <g id="text_1">
      <!-- $\mathdefault{−0.004}$ -->
      <g transform="translate(144.563678 738.277725)scale(0.15 -0.15)">
       <defs>
        <path d="M 65.90625 23 
C 67.59375 23 69.40625 23 69.40625 25 
C 69.40625 27 67.59375 27 65.90625 27 
L 11.796875 27 
C 10.09375 27 8.296875 27 8.296875 25 
C 8.296875 23 10.09375 23 11.796875 23 
z
" id="CMSY10-0"/>
        <path d="M 42 31.640625 
C 42 37.75 41.90625 48.125 37.703125 56.109375 
C 34 63.109375 28.09375 65.59375 22.90625 65.59375 
C 18.09375 65.59375 12 63.40625 8.203125 56.203125 
C 4.203125 48.71875 3.796875 39.4375 3.796875 31.640625 
C 3.796875 25.953125 3.90625 17.28125 7 9.671875 
C 11.296875 -0.609375 19 -2 22.90625 -2 
C 27.5 -2 34.5 -0.109375 38.59375 9.375 
C 41.59375 16.28125 42 24.359375 42 31.640625 
z
M 22.90625 -0.40625 
C 16.5 -0.40625 12.703125 5.078125 11.296875 12.6875 
C 10.203125 18.5625 10.203125 27.15625 10.203125 32.75 
C 10.203125 40.4375 10.203125 46.828125 11.5 52.921875 
C 13.40625 61.390625 19 64 22.90625 64 
C 27 64 32.296875 61.296875 34.203125 53.125 
C 35.5 47.4375 35.59375 40.734375 35.59375 32.75 
C 35.59375 26.25 35.59375 18.265625 34.40625 12.375 
C 32.296875 1.484375 26.40625 -0.40625 22.90625 -0.40625 
z
" id="CMR17-48"/>
        <path d="M 18.40625 4.796875 
C 18.40625 7.6875 16 9.671875 13.59375 9.671875 
C 10.703125 9.671875 8.703125 7.28125 8.703125 4.890625 
C 8.703125 2 11.09375 0 13.5 0 
C 16.40625 0 18.40625 2.390625 18.40625 4.796875 
z
" id="CMMI12-58"/>
        <path d="M 33.59375 64.40625 
C 33.59375 66.5 33.5 66.5 31.703125 66.5 
L 2 19.59375 
L 2 17 
L 27.796875 17 
L 27.796875 7.140625 
C 27.796875 3.5 27.59375 2.5 20.59375 2.5 
L 18.703125 2.5 
L 18.703125 0 
C 21.90625 0 27.296875 0 30.703125 0 
C 34.09375 0 39.5 0 42.703125 0 
L 42.703125 2.5 
L 40.796875 2.5 
C 33.796875 2.5 33.59375 3.5 33.59375 7.140625 
L 33.59375 17 
L 43.796875 17 
L 43.796875 19.59375 
L 33.59375 19.59375 
z
M 28.09375 57.859375 
L 28.09375 19.59375 
L 4 19.59375 
z
" id="CMR17-52"/>
       </defs>
       <use transform="scale(0.996264)" xlink:href="#CMSY10-0"/>
       <use transform="translate(77.487468 0)scale(0.996264)" xlink:href="#CMR17-48"/>
       <use transform="translate(123.177945 0)scale(0.996264)" xlink:href="#CMMI12-58"/>
       <use transform="translate(150.275122 0)scale(0.996264)" xlink:href="#CMR17-48"/>
       <use transform="translate(195.965599 0)scale(0.996264)" xlink:href="#CMR17-48"/>
       <use transform="translate(241.656076 0)scale(0.996264)" xlink:href="#CMR17-52"/>
      </g>
     </g>
    </g>
    <g id="xtick_2">
     <g id="line2d_3">
      <path clip-path="url(#p26701e2dc6)" d="M 285.12 720.9 
L 285.12 56.7 
" style="fill:none;stroke:#e6e6e6;stroke-linecap:square;stroke-width:0.8;"/>
     </g>
     <g id="line2d_4">
      <g>
       <use style="stroke:#000000;stroke-width:0.8;" x="285.12" xlink:href="#me793282d22" y="720.9"/>
      </g>
     </g>
     <g id="text_2">
      <!-- $\mathdefault{−0.002}$ -->
      <g transform="translate(262.643678 738.277725)scale(0.15 -0.15)">
       <defs>
        <path d="M 41.703125 15.453125 
L 39.90625 15.453125 
C 38.90625 8.375 38.09375 7.171875 37.703125 6.5625 
C 37.203125 5.765625 30 5.765625 28.59375 5.765625 
L 9.40625 5.765625 
C 13 9.671875 20 16.75 28.5 24.953125 
C 34.59375 30.734375 41.703125 37.53125 41.703125 47.421875 
C 41.703125 59.21875 32.296875 66 21.796875 66 
C 10.796875 66 4.09375 56.3125 4.09375 47.34375 
C 4.09375 43.4375 7 42.9375 8.203125 42.9375 
C 9.203125 42.9375 12.203125 43.546875 12.203125 47.03125 
C 12.203125 50.109375 9.59375 51 8.203125 51 
C 7.59375 51 7 50.90625 6.59375 50.703125 
C 8.5 59.21875 14.296875 63.40625 20.40625 63.40625 
C 29.09375 63.40625 34.796875 56.515625 34.796875 47.421875 
C 34.796875 38.734375 29.703125 31.25 24 24.75 
L 4.09375 2.28125 
L 4.09375 0 
L 39.296875 0 
z
" id="CMR17-50"/>
       </defs>
       <use transform="scale(0.996264)" xlink:href="#CMSY10-0"/>
       <use transform="translate(77.487468 0)scale(0.996264)" xlink:href="#CMR17-48"/>
       <use transform="translate(123.177945 0)scale(0.996264)" xlink:href="#CMMI12-58"/>
       <use transform="translate(150.275122 0)scale(0.996264)" xlink:href="#CMR17-48"/>
       <use transform="translate(195.965599 0)scale(0.996264)" xlink:href="#CMR17-48"/>
       <use transform="translate(241.656076 0)scale(0.996264)" xlink:href="#CMR17-50"/>
      </g>
     </g>
    </g>
    <g id="xtick_3">
     <g id="line2d_5">
      <path clip-path="url(#p26701e2dc6)" d="M 403.2 720.9 
L 403.2 56.7 
" style="fill:none;stroke:#e6e6e6;stroke-linecap:square;stroke-width:0.8;"/>
     </g>
     <g id="line2d_6">
      <g>
       <use style="stroke:#000000;stroke-width:0.8;" x="403.2" xlink:href="#me793282d22" y="720.9"/>
      </g>
     </g>
     <g id="text_3">
      <!-- $\mathdefault{0.000}$ -->
      <g transform="translate(386.535236 738.277725)scale(0.15 -0.15)">
       <use transform="scale(0.996264)" xlink:href="#CMR17-48"/>
       <use transform="translate(45.690477 0)scale(0.996264)" xlink:href="#CMMI12-58"/>
       <use transform="translate(72.787654 0)scale(0.996264)" xlink:href="#CMR17-48"/>
       <use transform="translate(118.478131 0)scale(0.996264)" xlink:href="#CMR17-48"/>
       <use transform="translate(164.168608 0)scale(0.996264)" xlink:href="#CMR17-48"/>
      </g>
     </g>
    </g>
    <g id="xtick_4">
     <g id="line2d_7">
      <path clip-path="url(#p26701e2dc6)" d="M 521.28 720.9 
L 521.28 56.7 
" style="fill:none;stroke:#e6e6e6;stroke-linecap:square;stroke-width:0.8;"/>
     </g>
     <g id="line2d_8">
      <g>
       <use style="stroke:#000000;stroke-width:0.8;" x="521.28" xlink:href="#me793282d22" y="720.9"/>
      </g>
     </g>
     <g id="text_4">
      <!-- $\mathdefault{0.002}$ -->
      <g transform="translate(504.615236 738.277725)scale(0.15 -0.15)">
       <use transform="scale(0.996264)" xlink:href="#CMR17-48"/>
       <use transform="translate(45.690477 0)scale(0.996264)" xlink:href="#CMMI12-58"/>
       <use transform="translate(72.787654 0)scale(0.996264)" xlink:href="#CMR17-48"/>
       <use transform="translate(118.478131 0)scale(0.996264)" xlink:href="#CMR17-48"/>
       <use transform="translate(164.168608 0)scale(0.996264)" xlink:href="#CMR17-50"/>
      </g>
     </g>
    </g>
    <g id="xtick_5">
     <g id="line2d_9">
      <path clip-path="url(#p26701e2dc6)" d="M 639.36 720.9 
L 639.36 56.7 
" style="fill:none;stroke:#e6e6e6;stroke-linecap:square;stroke-width:0.8;"/>
     </g>
     <g id="line2d_10">
      <g>
       <use style="stroke:#000000;stroke-width:0.8;" x="639.36" xlink:href="#me793282d22" y="720.9"/>
      </g>
     </g>
     <g id="text_5">
      <!-- $\mathdefault{0.004}$ -->
      <g transform="translate(622.695236 738.277725)scale(0.15 -0.15)">
       <use transform="scale(0.996264)" xlink:href="#CMR17-48"/>
       <use transform="translate(45.690477 0)scale(0.996264)" xlink:href="#CMMI12-58"/>
       <use transform="translate(72.787654 0)scale(0.996264)" xlink:href="#CMR17-48"/>
       <use transform="translate(118.478131 0)scale(0.996264)" xlink:href="#CMR17-48"/>
       <use transform="translate(164.168608 0)scale(0.996264)" xlink:href="#CMR17-52"/>
      </g>
     </g>
    </g>
    <g id="text_6">
     <!-- $s_g$ -->
     <g transform="translate(393.369068 760.198255)scale(0.25 -0.25)">
      <defs>
       <path d="M 22.796875 20 
C 24.5 19.703125 27.203125 19.109375 27.796875 19 
C 29.09375 18.625 33.59375 17.03125 33.59375 12.234375 
C 33.59375 9.15625 30.796875 1.09375 19.203125 1.09375 
C 17.09375 1.09375 9.59375 1.09375 7.59375 6.8125 
C 11.59375 6.3125 13.59375 9.421875 13.59375 11.640625 
C 13.59375 13.75 12.203125 14.84375 10.203125 14.84375 
C 8 14.84375 5.09375 13.140625 5.09375 8.625 
C 5.09375 2.703125 11.09375 -1 19.09375 -1 
C 34.296875 -1 38.796875 10.171875 38.796875 15.375 
C 38.796875 16.859375 38.796875 19.65625 35.59375 22.84375 
C 33.09375 25.25 30.703125 25.75 25.296875 26.84375 
C 22.59375 27.4375 18.296875 28.34375 18.296875 32.828125 
C 18.296875 34.828125 20.09375 42.015625 29.59375 42.015625 
C 33.796875 42.015625 37.90625 40.453125 38.90625 37 
C 34.5 37 34.296875 33.203125 34.296875 33.109375 
C 34.296875 31 36.203125 30.40625 37.09375 30.40625 
C 38.5 30.40625 41.296875 31.484375 41.296875 35.640625 
C 41.296875 39.765625 37.5 44 29.703125 44 
C 16.59375 44 13.09375 33.75 13.09375 29.671875 
C 13.09375 22.09375 20.5 20.5 22.796875 20 
z
" id="CMMI12-115"/>
       <path d="M 33.796875 12.671875 
C 33.40625 11.078125 33.203125 10.671875 31.90625 9.1875 
C 27.796875 3.890625 23.59375 2 20.5 2 
C 17.203125 2 14.09375 4.59375 14.09375 11.46875 
C 14.09375 16.765625 17.09375 27.9375 19.296875 32.4375 
C 22.203125 38.015625 26.703125 42.015625 30.90625 42.015625 
C 37.5 42.015625 38.796875 33.828125 38.796875 33.234375 
L 38.5 31.828125 
z
M 40 37.421875 
C 38.703125 40.3125 35.90625 44 30.90625 44 
C 20 44 7.59375 30.328125 7.59375 15.46875 
C 7.59375 5.09375 13.90625 0 20.296875 0 
C 25.59375 0 30.296875 4.1875 32.09375 6.1875 
L 29.90625 -2.671875 
C 28.5 -8.0625 27.90625 -10.53125 24.296875 -13.96875 
C 20.203125 -18 16.40625 -18 14.203125 -18 
C 11.203125 -18 8.703125 -17.796875 6.203125 -17.015625 
C 9.40625 -16.140625 10.203125 -13.40625 10.203125 -12.328125 
C 10.203125 -10.765625 9 -9.1875 6.796875 -9.1875 
C 4.40625 -9.1875 1.796875 -11.15625 1.796875 -14.40625 
C 1.796875 -18.4375 5.90625 -20 14.40625 -20 
C 27.296875 -20 34 -11.765625 35.296875 -6.40625 
L 46.40625 38.046875 
C 46.703125 39.234375 46.703125 39.4375 46.703125 39.625 
C 46.703125 41.015625 45.59375 42.109375 44.09375 42.109375 
C 41.703125 42.109375 40.296875 40.109375 40 37.421875 
z
" id="CMMI12-103"/>
      </defs>
      <use transform="scale(0.996264)" xlink:href="#CMMI12-115"/>
      <use transform="translate(45.950048 -14.943915)scale(0.697382)" xlink:href="#CMMI12-103"/>
     </g>
    </g>
   </g>
   <g id="matplotlib.axis_2">
    <g id="ytick_1">
     <g id="line2d_11">
      <path clip-path="url(#p26701e2dc6)" d="M 108 720.9 
L 698.4 720.9 
" style="fill:none;stroke:#e6e6e6;stroke-linecap:square;stroke-width:0.8;"/>
     </g>
     <g id="line2d_12">
      <defs>
       <path d="M 0 0 
L -3.5 0 
" id="m05d77c3936" style="stroke:#000000;stroke-width:0.8;"/>
      </defs>
      <g>
       <use style="stroke:#000000;stroke-width:0.8;" x="108" xlink:href="#m05d77c3936" y="720.9"/>
      </g>
     </g>
     <g id="text_7">
      <!-- $\mathdefault{0.0}$ -->
      <g transform="translate(82.302948 726.088862)scale(0.15 -0.15)">
       <use transform="scale(0.996264)" xlink:href="#CMR17-48"/>
       <use transform="translate(45.690477 0)scale(0.996264)" xlink:href="#CMMI12-58"/>
       <use transform="translate(72.787654 0)scale(0.996264)" xlink:href="#CMR17-48"/>
      </g>
     </g>
    </g>
    <g id="ytick_2">
     <g id="line2d_13">
      <path clip-path="url(#p26701e2dc6)" d="M 108 588.06 
L 698.4 588.06 
" style="fill:none;stroke:#e6e6e6;stroke-linecap:square;stroke-width:0.8;"/>
     </g>
     <g id="line2d_14">
      <g>
       <use style="stroke:#000000;stroke-width:0.8;" x="108" xlink:href="#m05d77c3936" y="588.06"/>
      </g>
     </g>
     <g id="text_8">
      <!-- $\mathdefault{0.2}$ -->
      <g transform="translate(82.302948 593.248862)scale(0.15 -0.15)">
       <use transform="scale(0.996264)" xlink:href="#CMR17-48"/>
       <use transform="translate(45.690477 0)scale(0.996264)" xlink:href="#CMMI12-58"/>
       <use transform="translate(72.787654 0)scale(0.996264)" xlink:href="#CMR17-50"/>
      </g>
     </g>
    </g>
    <g id="ytick_3">
     <g id="line2d_15">
      <path clip-path="url(#p26701e2dc6)" d="M 108 455.22 
L 698.4 455.22 
" style="fill:none;stroke:#e6e6e6;stroke-linecap:square;stroke-width:0.8;"/>
     </g>
     <g id="line2d_16">
      <g>
       <use style="stroke:#000000;stroke-width:0.8;" x="108" xlink:href="#m05d77c3936" y="455.22"/>
      </g>
     </g>
     <g id="text_9">
      <!-- $\mathdefault{0.4}$ -->
      <g transform="translate(82.302948 460.408862)scale(0.15 -0.15)">
       <use transform="scale(0.996264)" xlink:href="#CMR17-48"/>
       <use transform="translate(45.690477 0)scale(0.996264)" xlink:href="#CMMI12-58"/>
       <use transform="translate(72.787654 0)scale(0.996264)" xlink:href="#CMR17-52"/>
      </g>
     </g>
    </g>
    <g id="ytick_4">
     <g id="line2d_17">
      <path clip-path="url(#p26701e2dc6)" d="M 108 322.38 
L 698.4 322.38 
" style="fill:none;stroke:#e6e6e6;stroke-linecap:square;stroke-width:0.8;"/>
     </g>
     <g id="line2d_18">
      <g>
       <use style="stroke:#000000;stroke-width:0.8;" x="108" xlink:href="#m05d77c3936" y="322.38"/>
      </g>
     </g>
     <g id="text_10">
      <!-- $\mathdefault{0.6}$ -->
      <g transform="translate(82.302948 327.568862)scale(0.15 -0.15)">
       <defs>
        <path d="M 10.59375 34 
C 10.59375 57.65625 21.796875 63 28.296875 63 
C 30.40625 63 35.5 62.640625 37.5 59 
C 35.90625 59 32.90625 59 32.90625 55.515625 
C 32.90625 52.828125 35.09375 51.921875 36.5 51.921875 
C 37.40625 51.921875 40.09375 52.3125 40.09375 55.625 
C 40.09375 61.78125 35.09375 65.296875 28.203125 65.296875 
C 16.296875 65.296875 3.796875 52.96875 3.796875 31 
C 3.796875 3.953125 15.09375 -2 23.09375 -2 
C 32.796875 -2 42 6.671875 42 20.046875 
C 42 32.515625 33.90625 41.59375 23.703125 41.59375 
C 17.59375 41.59375 13.09375 37.609375 10.59375 30.625 
z
M 23.09375 0.390625 
C 10.796875 0.390625 10.796875 18.75 10.796875 22.4375 
C 10.796875 29.625 14.203125 40 23.5 40 
C 25.203125 40 30.09375 40 33.40625 33.125 
C 35.203125 29.21875 35.203125 25.140625 35.203125 20.140625 
C 35.203125 14.75 35.203125 10.78125 33.09375 6.78125 
C 30.90625 2.671875 27.703125 0.390625 23.09375 0.390625 
z
" id="CMR17-54"/>
       </defs>
       <use transform="scale(0.996264)" xlink:href="#CMR17-48"/>
       <use transform="translate(45.690477 0)scale(0.996264)" xlink:href="#CMMI12-58"/>
       <use transform="translate(72.787654 0)scale(0.996264)" xlink:href="#CMR17-54"/>
      </g>
     </g>
    </g>
    <g id="ytick_5">
     <g id="line2d_19">
      <path clip-path="url(#p26701e2dc6)" d="M 108 189.54 
L 698.4 189.54 
" style="fill:none;stroke:#e6e6e6;stroke-linecap:square;stroke-width:0.8;"/>
     </g>
     <g id="line2d_20">
      <g>
       <use style="stroke:#000000;stroke-width:0.8;" x="108" xlink:href="#m05d77c3936" y="189.54"/>
      </g>
     </g>
     <g id="text_11">
      <!-- $\mathdefault{0.8}$ -->
      <g transform="translate(82.302948 194.728862)scale(0.15 -0.15)">
       <defs>
        <path d="M 27.203125 35.375 
C 33.5 38.546875 39.90625 43.328125 39.90625 50.984375 
C 39.90625 60.015625 31.09375 65.296875 23 65.296875 
C 13.90625 65.296875 5.90625 58.734375 5.90625 49.6875 
C 5.90625 47.203125 6.5 42.921875 10.40625 39.140625 
C 11.40625 38.15625 15.59375 35.171875 18.296875 33.28125 
C 13.796875 30.984375 3.296875 25.53125 3.296875 14.59375 
C 3.296875 4.359375 13.09375 -2 22.796875 -2 
C 33.5 -2 42.5 5.65625 42.5 15.78125 
C 42.5 24.84375 36.40625 29.015625 32.40625 31.703125 
z
M 14.09375 44.09375 
C 13.296875 44.59375 9.296875 47.671875 9.296875 52.359375 
C 9.296875 58.421875 15.59375 63 22.796875 63 
C 30.703125 63 36.5 57.4375 36.5 50.96875 
C 36.5 41.703125 26.09375 36.421875 25.59375 36.421875 
C 25.5 36.421875 25.40625 36.421875 24.59375 37.03125 
z
M 32.5 23.734375 
C 34 22.640625 38.796875 19.375 38.796875 13.296875 
C 38.796875 5.953125 31.40625 0.390625 23 0.390625 
C 13.90625 0.390625 7 6.84375 7 14.6875 
C 7 22.546875 13.09375 29.09375 20 32.1875 
z
" id="CMR17-56"/>
       </defs>
       <use transform="scale(0.996264)" xlink:href="#CMR17-48"/>
       <use transform="translate(45.690477 0)scale(0.996264)" xlink:href="#CMMI12-58"/>
       <use transform="translate(72.787654 0)scale(0.996264)" xlink:href="#CMR17-56"/>
      </g>
     </g>
    </g>
    <g id="ytick_6">
     <g id="line2d_21">
      <path clip-path="url(#p26701e2dc6)" d="M 108 56.7 
L 698.4 56.7 
" style="fill:none;stroke:#e6e6e6;stroke-linecap:square;stroke-width:0.8;"/>
     </g>
     <g id="line2d_22">
      <g>
       <use style="stroke:#000000;stroke-width:0.8;" x="108" xlink:href="#m05d77c3936" y="56.7"/>
      </g>
     </g>
     <g id="text_12">
      <!-- $\mathdefault{1.0}$ -->
      <g transform="translate(82.302948 61.888862)scale(0.15 -0.15)">
       <defs>
        <path d="M 26.59375 63.40625 
C 26.59375 65.5 26.5 65.5 25.09375 65.5 
C 21.203125 61.1875 15.296875 59.796875 9.703125 59.796875 
C 9.40625 59.796875 8.90625 59.796875 8.796875 59.5 
C 8.703125 59.296875 8.703125 59.09375 8.703125 57 
C 11.796875 57 17 57.59375 21 59.984375 
L 21 7.203125 
C 21 3.6875 20.796875 2.5 12.203125 2.5 
L 9.203125 2.5 
L 9.203125 0 
C 14 0 19 0 23.796875 0 
C 28.59375 0 33.59375 0 38.40625 0 
L 38.40625 2.5 
L 35.40625 2.5 
C 26.796875 2.5 26.59375 3.59375 26.59375 7.15625 
z
" id="CMR17-49"/>
       </defs>
       <use transform="scale(0.996264)" xlink:href="#CMR17-49"/>
       <use transform="translate(45.690477 0)scale(0.996264)" xlink:href="#CMMI12-58"/>
       <use transform="translate(72.787654 0)scale(0.996264)" xlink:href="#CMR17-48"/>
      </g>
     </g>
    </g>
    <g id="text_13">
     <!-- $I$ -->
     <g transform="translate(73.458413 394.178018)rotate(-90)scale(0.25 -0.25)">
      <defs>
       <path d="M 36.796875 60.625 
C 37.703125 64.109375 37.90625 65.109375 45.203125 65.109375 
C 47.40625 65.109375 48.203125 65.109375 48.203125 67 
C 48.203125 68 47.09375 68 46.796875 68 
C 45 68 42.796875 68 41 68 
L 28.703125 68 
C 26.703125 68 24.40625 68 22.40625 68 
C 21.59375 68 20.5 68 20.5 66.109375 
C 20.5 65.109375 21.296875 65.109375 23.296875 65.109375 
C 29.5 65.109375 29.5 64.3125 29.5 63.21875 
C 29.5 62.53125 29.296875 61.921875 29.09375 61.03125 
L 15.59375 7.375 
C 14.703125 3.890625 14.5 2.890625 7.203125 2.890625 
C 5 2.890625 4.09375 2.890625 4.09375 1 
C 4.09375 0 5.09375 0 5.59375 0 
C 7.40625 0 9.59375 0 11.40625 0 
L 23.703125 0 
C 25.703125 0 27.90625 0 29.90625 0 
C 30.703125 0 31.90625 0 31.90625 1.796875 
C 31.90625 2.890625 31.296875 2.890625 29.09375 2.890625 
C 22.90625 2.890625 22.90625 3.6875 22.90625 4.875 
C 22.90625 5.078125 22.90625 5.578125 23.296875 7.171875 
z
" id="CMMI12-73"/>
      </defs>
      <use transform="scale(0.996264)" xlink:href="#CMMI12-73"/>
     </g>
    </g>
   </g>
   <g id="line2d_23">
    <path clip-path="url(#p26701e2dc6)" d="M 108 720.55883 
L 109.772973 720.826257 
L 111.545946 720.898039 
L 113.318919 720.76815 
L 115.091892 720.431276 
L 116.864865 719.88285 
L 118.637838 719.119081 
L 120.410811 718.136979 
L 122.183784 716.93438 
L 123.956757 715.509965 
L 126.320721 713.265035 
L 128.684685 710.626406 
L 131.048649 707.598239 
L 133.412613 704.187527 
L 135.776577 700.404099 
L 138.140541 696.260602 
L 141.095495 690.598637 
L 144.05045 684.434433 
L 147.596396 676.43463 
L 151.142342 667.857821 
L 155.279279 657.251299 
L 160.598198 642.929564 
L 177.145946 597.781951 
L 181.282883 587.445471 
L 184.828829 579.211137 
L 187.783784 572.884524 
L 190.738739 567.116376 
L 193.102703 562.946206 
L 195.466667 559.203313 
L 197.830631 555.914984 
L 199.603604 553.761995 
L 201.376577 551.888015 
L 203.14955 550.301487 
L 204.922523 549.00987 
L 206.695495 548.019603 
L 208.468468 547.336069 
L 210.241441 546.963562 
L 212.014414 546.90526 
L 213.787387 547.1632 
L 215.56036 547.738257 
L 217.333333 548.63013 
L 219.106306 549.83733 
L 220.879279 551.35717 
L 222.652252 553.185768 
L 224.425225 555.318044 
L 226.198198 557.74773 
L 228.562162 561.436908 
L 230.926126 565.620583 
L 233.29009 570.274312 
L 235.654054 575.370183 
L 238.609009 582.313885 
L 241.563964 589.831455 
L 245.10991 599.50386 
L 249.246847 611.505647 
L 254.565766 627.691286 
L 266.385586 663.972894 
L 270.522523 675.848468 
L 274.068468 685.338711 
L 277.023423 692.632441 
L 279.978378 699.267665 
L 282.342342 704.04229 
L 284.706306 708.29652 
L 286.479279 711.121702 
L 288.252252 713.616148 
L 290.025225 715.765246 
L 291.798198 717.555469 
L 293.571171 718.97443 
L 295.344144 720.010934 
L 296.526126 720.484493 
L 297.708108 720.78099 
L 298.89009 720.89805 
L 300.072072 720.833566 
L 301.254054 720.585699 
L 302.436036 720.152883 
L 303.618018 719.533832 
L 304.8 718.727537 
L 306.572973 717.165509 
L 308.345946 715.17939 
L 310.118919 712.769409 
L 311.891892 709.937267 
L 313.664865 706.68614 
L 315.437838 703.020676 
L 317.801802 697.499648 
L 320.165766 691.271576 
L 322.52973 684.359488 
L 324.893694 676.790827 
L 327.848649 666.455406 
L 330.803604 655.214876 
L 333.758559 643.149601 
L 337.304505 627.708647 
L 341.441441 608.582091 
L 346.169369 585.616969 
L 353.852252 546.964347 
L 362.126126 505.650662 
L 366.854054 483.207055 
L 370.4 467.308969 
L 373.945946 452.431755 
L 376.900901 440.948042 
L 379.855856 430.402045 
L 382.21982 422.702488 
L 384.583784 415.705186 
L 386.947748 409.449382 
L 388.720721 405.265439 
L 390.493694 401.531687 
L 392.266667 398.259957 
L 394.03964 395.460622 
L 395.812613 393.142565 
L 397.585586 391.313147 
L 398.767568 390.367935 
L 399.94955 389.643847 
L 401.131532 389.141904 
L 402.313514 388.862817 
L 403.495495 388.80698 
L 404.677477 388.974472 
L 405.859459 389.365055 
L 407.041441 389.978179 
L 408.223423 390.812977 
L 409.405405 391.868269 
L 410.587387 393.142565 
L 412.36036 395.460622 
L 414.133333 398.259957 
L 415.906306 401.531687 
L 417.679279 405.265439 
L 419.452252 409.449382 
L 421.816216 415.705186 
L 424.18018 422.702488 
L 426.544144 430.402045 
L 428.908108 438.760763 
L 431.863063 450.06468 
L 434.818018 462.227048 
L 438.363964 477.806214 
L 442.500901 497.093443 
L 447.81982 523.149581 
L 465.54955 611.377749 
L 469.686486 630.348693 
L 473.232432 645.624478 
L 476.187387 657.531664 
L 479.142342 668.597309 
L 482.097297 678.742883 
L 484.461261 686.15021 
L 486.825225 692.893696 
L 489.189189 698.946992 
L 491.553153 704.288187 
L 493.326126 707.816146 
L 495.099099 710.928056 
L 496.872072 713.619757 
L 498.645045 715.888567 
L 500.418018 717.733275 
L 502.190991 719.154142 
L 503.372973 719.866707 
L 504.554955 720.392497 
L 505.736937 720.73266 
L 506.918919 720.888622 
L 508.100901 720.862087 
L 509.282883 720.655029 
L 510.464865 720.269688 
L 511.646847 719.708568 
L 513.41982 718.54341 
L 515.192793 716.999392 
L 516.965766 715.08811 
L 518.738739 712.822338 
L 520.511712 710.215971 
L 522.284685 707.283969 
L 524.648649 702.895809 
L 527.012613 697.997612 
L 529.376577 692.632441 
L 532.331532 685.338711 
L 535.286486 677.479633 
L 538.832432 667.43953 
L 543.56036 653.304571 
L 560.699099 601.175937 
L 564.245045 591.397344 
L 567.790991 582.313885 
L 570.745946 575.370183 
L 573.700901 569.06828 
L 576.064865 564.529582 
L 578.428829 560.467378 
L 580.792793 556.905225 
L 582.565766 554.573906 
L 584.338739 552.542218 
L 586.111712 550.816034 
L 587.884685 549.400035 
L 589.657658 548.297705 
L 591.430631 547.51133 
L 593.203604 547.042004 
L 594.976577 546.889633 
L 596.74955 547.052953 
L 598.522523 547.529544 
L 600.295495 548.315854 
L 602.068468 549.407223 
L 603.841441 550.79791 
L 605.614414 552.481133 
L 607.387387 554.449101 
L 609.16036 556.693055 
L 611.524324 560.097444 
L 613.888288 563.949812 
L 616.252252 568.222251 
L 619.207207 574.107258 
L 622.162162 580.537639 
L 625.708108 588.878096 
L 629.254054 597.781951 
L 633.981982 610.306301 
L 641.073874 629.851513 
L 649.347748 652.547091 
L 654.075676 664.886992 
L 658.212613 675.042768 
L 661.758559 683.14495 
L 664.713514 689.404707 
L 667.668468 695.170213 
L 670.623423 700.404099 
L 672.987387 704.187527 
L 675.351351 707.598239 
L 677.715315 710.626406 
L 680.079279 713.265035 
L 682.443243 715.509965 
L 684.216216 716.93438 
L 685.989189 718.136979 
L 687.762162 719.119081 
L 689.535135 719.88285 
L 691.308108 720.431276 
L 693.081081 720.76815 
L 694.854054 720.898039 
L 696.627027 720.826257 
L 698.4 720.55883 
L 698.4 720.55883 
" style="fill:none;stroke:#3b528b;stroke-linecap:square;stroke-width:2;"/>
   </g>
   <g id="line2d_24">
    <path clip-path="url(#p26701e2dc6)" d="M 108 658.923706 
L 113.318919 646.053692 
L 116.864865 638.079612 
L 119.81982 632.00495 
L 122.183784 627.610856 
L 124.547748 623.696412 
L 126.320721 621.108772 
L 128.093694 618.843187 
L 129.866667 616.918635 
L 131.63964 615.351816 
L 133.412613 614.156996 
L 134.594595 613.572997 
L 135.776577 613.162382 
L 136.958559 612.927403 
L 138.140541 612.86975 
L 139.322523 612.990543 
L 140.504505 613.290319 
L 141.686486 613.769024 
L 142.868468 614.426012 
L 144.641441 615.742883 
L 146.414414 617.451205 
L 148.187387 619.541202 
L 149.96036 622.000087 
L 151.733333 624.812111 
L 154.097297 629.078177 
L 156.461261 633.886691 
L 158.825225 639.177399 
L 161.78018 646.364567 
L 165.326126 655.633091 
L 171.236036 671.893606 
L 176.554955 686.361982 
L 180.100901 695.352379 
L 183.055856 702.166665 
L 185.41982 707.042711 
L 187.192793 710.305302 
L 188.965766 713.189928 
L 190.738739 715.662712 
L 192.511712 717.691893 
L 193.693694 718.783607 
L 194.875676 719.656955 
L 196.057658 720.304387 
L 197.23964 720.718918 
L 198.421622 720.89415 
L 199.603604 720.824293 
L 200.785586 720.504194 
L 201.967568 719.929348 
L 203.14955 719.09592 
L 204.331532 718.000759 
L 205.513514 716.641414 
L 206.695495 715.016144 
L 208.468468 712.077592 
L 210.241441 708.538207 
L 212.014414 704.401334 
L 213.787387 699.674048 
L 215.56036 694.367141 
L 217.924324 686.41517 
L 220.288288 677.503182 
L 222.652252 667.686497 
L 225.016216 657.030966 
L 227.971171 642.648203 
L 231.517117 624.053516 
L 235.654054 600.935094 
L 241.563964 566.350452 
L 249.246847 521.373851 
L 253.383784 498.448184 
L 256.92973 480.124327 
L 259.884685 466.064361 
L 262.248649 455.745674 
L 264.612613 446.348862 
L 266.976577 437.953036 
L 268.74955 432.355222 
L 270.522523 427.385239 
L 272.295495 423.065165 
L 274.068468 419.413549 
L 275.25045 417.358021 
L 276.432432 415.6098 
L 277.614414 414.17166 
L 278.796396 413.045634 
L 279.978378 412.23301 
L 281.16036 411.734337 
L 282.342342 411.549421 
L 283.524324 411.677336 
L 284.706306 412.116425 
L 285.888288 412.864312 
L 287.07027 413.917914 
L 288.252252 415.273451 
L 289.434234 416.926463 
L 290.616216 418.871825 
L 292.389189 422.325236 
L 294.162162 426.401229 
L 295.935135 431.074739 
L 297.708108 436.317903 
L 300.072072 444.141943 
L 302.436036 452.845686 
L 304.8 462.344059 
L 307.754955 475.196217 
L 311.300901 491.808573 
L 315.437838 512.407469 
L 321.938739 546.186708 
L 329.621622 585.905364 
L 333.758559 606.221354 
L 337.304505 622.652654 
L 340.85045 637.969551 
L 343.805405 649.770576 
L 346.76036 660.625106 
L 349.715315 670.488908 
L 352.079279 677.650315 
L 354.443243 684.159868 
L 356.807207 690.022983 
L 359.171171 695.252542 
L 361.535135 699.868319 
L 363.899099 703.896324 
L 366.263063 707.368069 
L 368.036036 709.62846 
L 369.809009 711.612978 
L 371.581982 713.339368 
L 373.354955 714.826161 
L 375.127928 716.092461 
L 377.491892 717.471519 
L 379.855856 718.539556 
L 382.21982 719.342437 
L 384.583784 719.924628 
L 387.538739 720.406074 
L 391.084685 720.721225 
L 395.812613 720.87504 
L 407.041441 720.898167 
L 414.133333 720.78108 
L 417.679279 720.537747 
L 420.634234 720.146271 
L 423.589189 719.50698 
L 425.953153 718.763367 
L 428.317117 717.765879 
L 430.681081 716.468919 
L 432.454054 715.271804 
L 434.227027 713.860654 
L 436 712.216222 
L 437.772973 710.319761 
L 439.545946 708.153241 
L 441.318919 705.699566 
L 443.091892 702.94279 
L 444.864865 699.868319 
L 447.228829 695.252542 
L 449.592793 690.022983 
L 451.956757 684.159868 
L 454.320721 677.650315 
L 456.684685 670.488908 
L 459.048649 662.678167 
L 462.003604 652.018923 
L 464.958559 640.402638 
L 467.913514 627.890555 
L 471.459459 611.811073 
L 475.596396 591.816814 
L 480.324324 567.779927 
L 494.508108 494.681946 
L 498.054054 477.882434 
L 501.009009 464.832313 
L 503.963964 452.845686 
L 506.327928 444.141943 
L 508.691892 436.317903 
L 510.464865 431.074739 
L 512.237838 426.401229 
L 514.010811 422.325236 
L 515.783784 418.871825 
L 517.556757 416.063078 
L 518.738739 414.558204 
L 519.920721 413.353119 
L 521.102703 412.451945 
L 522.284685 411.858115 
L 523.466667 411.574361 
L 524.648649 411.6027 
L 525.830631 411.944424 
L 527.012613 412.600095 
L 528.194595 413.569535 
L 529.376577 414.851826 
L 530.558559 416.445306 
L 531.740541 418.347573 
L 533.513514 421.772875 
L 535.286486 425.872012 
L 537.059459 430.62764 
L 538.832432 436.018844 
L 540.605405 442.02125 
L 542.969369 450.926871 
L 545.333333 460.795083 
L 547.697297 471.542241 
L 550.652252 486.071235 
L 554.198198 504.851377 
L 558.335135 528.150958 
L 564.836036 566.350452 
L 571.927928 607.666995 
L 576.064865 630.39605 
L 579.610811 648.534041 
L 582.565766 662.459077 
L 584.92973 672.704051 
L 587.293694 682.075974 
L 589.657658 690.514188 
L 592.021622 697.968841 
L 593.794595 702.890717 
L 595.567568 707.225364 
L 597.340541 710.964468 
L 599.113514 714.103439 
L 600.886486 716.641414 
L 602.068468 718.000759 
L 603.25045 719.09592 
L 604.432432 719.929348 
L 605.614414 720.504194 
L 606.796396 720.824293 
L 607.978378 720.89415 
L 609.16036 720.718918 
L 610.342342 720.304387 
L 611.524324 719.656955 
L 612.706306 718.783607 
L 613.888288 717.691893 
L 615.661261 715.662712 
L 617.434234 713.189928 
L 619.207207 710.305302 
L 620.98018 707.042711 
L 623.344144 702.166665 
L 625.708108 696.771468 
L 628.663063 689.439371 
L 632.209009 680.026312 
L 644.61982 646.364567 
L 647.574775 639.177399 
L 649.938739 633.886691 
L 652.302703 629.078177 
L 654.666667 624.812111 
L 656.43964 622.000087 
L 658.212613 619.541202 
L 659.985586 617.451205 
L 661.758559 615.742883 
L 663.531532 614.426012 
L 664.713514 613.769024 
L 665.895495 613.290319 
L 667.077477 612.990543 
L 668.259459 612.86975 
L 669.441441 612.927403 
L 670.623423 613.162382 
L 671.805405 613.572997 
L 672.987387 614.156996 
L 674.76036 615.351816 
L 676.533333 616.918635 
L 678.306306 618.843187 
L 680.079279 621.108772 
L 681.852252 623.696412 
L 684.216216 627.610856 
L 686.58018 632.00495 
L 689.535135 638.079612 
L 692.49009 644.681745 
L 696.627027 654.552892 
L 698.4 658.923706 
L 698.4 658.923706 
" style="fill:none;stroke:#21918c;stroke-linecap:square;stroke-width:2;"/>
   </g>
   <g id="line2d_25">
    <path clip-path="url(#p26701e2dc6)" d="M 108 644.643606 
L 109.772973 647.809168 
L 111.545946 651.366287 
L 113.90991 656.64617 
L 116.864865 663.950148 
L 120.410811 673.4184 
L 128.684685 695.871959 
L 131.63964 703.076339 
L 134.003604 708.208935 
L 135.776577 711.598916 
L 137.54955 714.534435 
L 139.322523 716.965457 
L 140.504505 718.283341 
L 141.686486 719.344761 
L 142.868468 720.138809 
L 144.05045 720.655795 
L 145.232432 720.887304 
L 146.414414 720.826255 
L 147.596396 720.466944 
L 148.778378 719.805092 
L 149.96036 718.837873 
L 151.142342 717.563947 
L 152.324324 715.983479 
L 153.506306 714.098151 
L 155.279279 710.705976 
L 157.052252 706.652665 
L 158.825225 701.963054 
L 160.598198 696.669413 
L 162.962162 688.740786 
L 165.326126 679.921432 
L 168.281081 667.847326 
L 171.827027 652.213415 
L 184.237838 596.075736 
L 186.601802 586.650329 
L 188.965766 578.070051 
L 190.738739 572.28725 
L 192.511712 567.133433 
L 194.284685 562.665138 
L 196.057658 558.9324 
L 197.23964 556.874062 
L 198.421622 555.17273 
L 199.603604 553.837688 
L 200.785586 552.87659 
L 201.967568 552.295415 
L 203.14955 552.098429 
L 204.331532 552.288148 
L 205.513514 552.865317 
L 206.695495 553.828894 
L 207.877477 555.176041 
L 209.059459 556.902124 
L 210.241441 559.000721 
L 211.423423 561.46364 
L 213.196396 565.818918 
L 214.969369 570.930447 
L 216.742342 576.749176 
L 218.515315 583.218137 
L 220.879279 592.742596 
L 223.834234 605.848894 
L 227.38018 622.837031 
L 238.018018 674.910051 
L 240.381982 685.234477 
L 242.745946 694.61649 
L 244.518919 700.908313 
L 246.291892 706.469439 
L 248.064865 711.222659 
L 249.246847 713.907326 
L 250.428829 716.181918 
L 251.610811 718.02855 
L 252.792793 719.43086 
L 253.974775 720.374076 
L 255.156757 720.84507 
L 255.747748 720.899847 
L 256.338739 720.832419 
L 256.92973 720.641632 
L 258.111712 719.885919 
L 259.293694 718.625712 
L 260.475676 716.85584 
L 261.657658 714.572972 
L 262.83964 711.775629 
L 264.021622 708.464182 
L 265.203604 704.640853 
L 266.976577 697.955436 
L 268.74955 690.149106 
L 270.522523 681.252075 
L 272.295495 671.303163 
L 274.659459 656.48411 
L 277.023423 640.012232 
L 279.387387 622.042357 
L 282.342342 597.740702 
L 285.888288 566.382284 
L 290.025225 527.667739 
L 303.618018 398.646436 
L 307.163964 367.994684 
L 310.118919 344.30473 
L 313.073874 322.603855 
L 315.437838 306.834285 
L 317.801802 292.584385 
L 320.165766 279.928078 
L 321.938739 271.513611 
L 323.711712 264.038808 
L 325.484685 257.510518 
L 327.257658 251.928909 
L 329.030631 247.287693 
L 330.212613 244.71008 
L 331.394595 242.53985 
L 332.576577 240.770739 
L 333.758559 239.395426 
L 334.940541 238.405582 
L 336.122523 237.791927 
L 337.304505 237.544291 
L 338.486486 237.651669 
L 339.668468 238.102287 
L 340.85045 238.883661 
L 342.032432 239.982663 
L 343.214414 241.385586 
L 344.396396 243.078205 
L 346.169369 246.128105 
L 347.942342 249.74561 
L 349.715315 253.878135 
L 352.079279 260.096558 
L 354.443243 267.006725 
L 357.398198 276.421517 
L 360.944144 288.533534 
L 368.036036 313.87527 
L 372.763964 330.422756 
L 376.30991 342.114425 
L 379.264865 351.1707 
L 382.21982 359.461927 
L 384.583784 365.468107 
L 386.947748 370.863468 
L 389.311712 375.605978 
L 391.084685 378.712919 
L 392.857658 381.420043 
L 394.630631 383.71669 
L 396.403604 385.594025 
L 398.176577 387.044974 
L 399.358559 387.772668 
L 400.540541 388.307246 
L 401.722523 388.647844 
L 402.904505 388.793913 
L 404.086486 388.745217 
L 405.268468 388.501835 
L 406.45045 388.064158 
L 407.632432 387.432894 
L 408.814414 386.609067 
L 410.587387 385.015309 
L 412.36036 382.997331 
L 414.133333 380.562789 
L 415.906306 377.721115 
L 417.679279 374.483599 
L 419.452252 370.863468 
L 421.816216 365.468107 
L 424.18018 359.461927 
L 426.544144 352.894004 
L 429.499099 343.980874 
L 433.045045 332.424046 
L 437.181982 318.081931 
L 449.001802 276.421517 
L 451.956757 267.006725 
L 454.320721 260.096558 
L 456.684685 253.878135 
L 458.457658 249.74561 
L 460.230631 246.128105 
L 462.003604 243.078205 
L 463.185586 241.385586 
L 464.367568 239.982663 
L 465.54955 238.883661 
L 466.731532 238.102287 
L 467.913514 237.651669 
L 469.095495 237.544291 
L 470.277477 237.791927 
L 471.459459 238.405582 
L 472.641441 239.395426 
L 473.823423 240.770739 
L 475.005405 242.53985 
L 476.187387 244.71008 
L 477.369369 247.287693 
L 478.551351 250.27784 
L 480.324324 255.544975 
L 482.097297 261.7574 
L 483.87027 268.917125 
L 485.643243 277.019551 
L 487.416216 286.053278 
L 489.78018 299.514237 
L 492.144144 314.534594 
L 494.508108 331.029397 
L 497.463063 353.556818 
L 500.418018 377.965751 
L 503.963964 409.312476 
L 508.100901 447.951333 
L 521.693694 577.062842 
L 525.23964 607.686123 
L 528.194595 631.204071 
L 530.558559 648.445587 
L 532.922523 664.10908 
L 535.286486 678.050488 
L 537.059459 687.302875 
L 538.832432 695.476561 
L 540.605405 702.538427 
L 542.378378 708.464182 
L 543.56036 711.775629 
L 544.742342 714.572972 
L 545.924324 716.85584 
L 547.106306 718.625712 
L 548.288288 719.885919 
L 549.47027 720.641632 
L 550.061261 720.832419 
L 550.652252 720.899847 
L 551.243243 720.84507 
L 551.834234 720.669355 
L 553.016216 719.960715 
L 554.198198 718.786207 
L 555.38018 717.159788 
L 556.562162 715.097034 
L 557.744144 712.615076 
L 558.926126 709.732535 
L 560.699099 704.701807 
L 562.472072 698.888248 
L 564.245045 692.370995 
L 566.609009 682.733279 
L 569.563964 669.46298 
L 573.10991 652.323653 
L 582.565766 605.848894 
L 585.520721 592.742596 
L 587.884685 583.218137 
L 590.248649 574.73438 
L 592.021622 569.145436 
L 593.794595 564.280945 
L 595.567568 560.18722 
L 596.74955 557.905329 
L 597.931532 555.992075 
L 599.113514 554.454769 
L 600.295495 553.29894 
L 601.477477 552.528324 
L 602.659459 552.144862 
L 603.841441 552.1487 
L 605.023423 552.538205 
L 606.205405 553.309983 
L 607.387387 554.458906 
L 608.569369 555.978152 
L 609.751351 557.859247 
L 610.933333 560.092115 
L 612.706306 564.075171 
L 614.479279 568.777867 
L 616.252252 574.14793 
L 618.025225 580.126801 
L 620.389189 588.934071 
L 623.344144 601.051257 
L 626.89009 616.754805 
L 638.70991 670.343271 
L 641.664865 682.202879 
L 644.028829 690.811184 
L 646.392793 698.498784 
L 648.165766 703.595117 
L 649.938739 708.075851 
L 651.711712 711.911169 
L 653.484685 715.078758 
L 654.666667 716.811961 
L 655.848649 718.239273 
L 657.030631 719.359772 
L 658.212613 720.174047 
L 659.394595 720.684184 
L 660.576577 720.893739 
L 661.758559 720.807708 
L 662.940541 720.432491 
L 664.122523 719.775841 
L 665.304505 718.846818 
L 666.486486 717.65573 
L 667.668468 716.214067 
L 669.441441 713.609607 
L 671.214414 710.516819 
L 672.987387 706.98722 
L 675.351351 701.698072 
L 677.715315 695.871959 
L 681.261261 686.450883 
L 690.126126 662.436977 
L 693.081081 655.273705 
L 695.445045 650.139515 
L 697.218018 646.708588 
L 698.4 644.643606 
L 698.4 644.643606 
" style="fill:none;stroke:#5ec962;stroke-linecap:square;stroke-width:2;"/>
   </g>
   <g id="line2d_26">
    <path clip-path="url(#p26701e2dc6)" d="M 108 719.540403 
L 109.181982 720.335009 
L 110.363964 720.788972 
L 111.545946 720.892157 
L 112.727928 720.636974 
L 113.90991 720.018451 
L 115.091892 719.034304 
L 116.273874 717.684981 
L 117.455856 715.97368 
L 118.637838 713.906357 
L 119.81982 711.491705 
L 121.592793 707.244136 
L 123.365766 702.290838 
L 125.138739 696.694019 
L 127.502703 688.360102 
L 129.866667 679.219677 
L 133.412613 664.512953 
L 140.504505 634.787618 
L 142.868468 625.793542 
L 145.232432 617.698178 
L 147.005405 612.360555 
L 148.778378 607.752988 
L 149.96036 605.126578 
L 151.142342 602.880791 
L 152.324324 601.033645 
L 153.506306 599.600432 
L 154.688288 598.593571 
L 155.87027 598.0225 
L 157.052252 597.893574 
L 158.234234 598.209991 
L 159.416216 598.971739 
L 160.598198 600.175566 
L 161.78018 601.814971 
L 162.962162 603.880223 
L 164.144144 606.358397 
L 165.326126 609.233439 
L 167.099099 614.247539 
L 168.872072 620.034205 
L 170.645045 626.502882 
L 173.009009 636.008794 
L 175.963964 648.915649 
L 184.828829 688.541484 
L 187.192793 697.762085 
L 188.965766 703.916728 
L 190.738739 709.281459 
L 192.511712 713.742823 
L 193.693694 716.164422 
L 194.875676 718.112134 
L 196.057658 719.561915 
L 197.23964 720.492753 
L 197.830631 720.757874 
L 198.421622 720.886837 
L 199.012613 720.877939 
L 199.603604 720.729692 
L 200.194595 720.440831 
L 200.785586 720.010309 
L 201.967568 718.721233 
L 203.14955 716.858643 
L 204.331532 714.422404 
L 205.513514 711.416087 
L 206.695495 707.846975 
L 207.877477 703.726038 
L 209.65045 696.542898 
L 211.423423 688.216115 
L 213.196396 678.827207 
L 215.56036 664.827602 
L 217.924324 649.387647 
L 220.879279 628.542445 
L 225.607207 593.255233 
L 230.335135 558.269125 
L 233.29009 537.938541 
L 235.654054 523.11748 
L 237.427027 513.068106 
L 239.2 504.078199 
L 240.972973 496.264567 
L 242.745946 489.729308 
L 243.927928 486.125828 
L 245.10991 483.150312 
L 246.291892 480.820435 
L 247.473874 479.150205 
L 248.064865 478.56581 
L 248.655856 478.149875 
L 249.246847 477.903085 
L 249.837838 477.825883 
L 250.428829 477.91847 
L 251.01982 478.180806 
L 251.610811 478.612607 
L 252.201802 479.213349 
L 253.383784 480.918347 
L 254.565766 483.286802 
L 255.747748 486.305927 
L 256.92973 489.959228 
L 258.111712 494.226601 
L 259.884685 501.726499 
L 261.657658 510.46054 
L 263.430631 520.319356 
L 265.794595 534.998473 
L 268.158559 551.128371 
L 271.113514 572.779832 
L 282.342342 656.973479 
L 284.706306 672.406045 
L 287.07027 686.203092 
L 288.843243 695.283717 
L 290.616216 703.142545 
L 291.798198 707.6492 
L 292.98018 711.536226 
L 294.162162 714.778135 
L 295.344144 717.352467 
L 296.526126 719.239862 
L 297.117117 719.920769 
L 297.708108 720.424112 
L 298.299099 720.748365 
L 298.89009 720.8922 
L 299.481081 720.854491 
L 300.072072 720.634311 
L 300.663063 720.230934 
L 301.254054 719.643834 
L 301.845045 718.872681 
L 303.027027 716.777884 
L 304.209009 713.947823 
L 305.390991 710.386841 
L 306.572973 706.102268 
L 307.754955 701.104332 
L 309.527928 692.299094 
L 311.300901 681.973812 
L 313.073874 670.196116 
L 314.846847 657.045047 
L 317.210811 637.529474 
L 319.574775 615.967541 
L 322.52973 586.532011 
L 325.484685 554.841648 
L 329.621622 507.75595 
L 337.304505 416.723998 
L 342.623423 354.901158 
L 346.76036 309.370024 
L 350.306306 272.88054 
L 353.261261 244.585512 
L 356.216216 218.394013 
L 359.171171 194.412539 
L 361.535135 176.853456 
L 363.899099 160.742489 
L 366.263063 146.061938 
L 368.627027 132.777648 
L 370.990991 120.841569 
L 373.354955 110.194402 
L 375.718919 100.768243 
L 378.082883 92.489191 
L 379.855856 86.986205 
L 381.628829 82.051808 
L 383.401802 77.65304 
L 385.174775 73.757632 
L 386.947748 70.334476 
L 388.720721 67.354053 
L 390.493694 64.788825 
L 392.266667 62.613588 
L 394.03964 60.80578 
L 395.812613 59.345752 
L 397.585586 58.216999 
L 399.358559 57.406347 
L 401.131532 56.904103 
L 402.904505 56.70416 
L 404.677477 56.804063 
L 406.45045 57.205041 
L 408.223423 57.911988 
L 409.996396 58.933413 
L 411.769369 60.281343 
L 413.542342 61.971193 
L 415.315315 64.021585 
L 417.088288 66.45414 
L 418.861261 69.293213 
L 420.634234 72.565602 
L 422.407207 76.300206 
L 424.18018 80.52765 
L 425.953153 85.279866 
L 427.726126 90.589637 
L 429.499099 96.490112 
L 431.272072 103.014276 
L 433.636036 112.73895 
L 436 123.70227 
L 438.363964 135.970236 
L 440.727928 149.599585 
L 443.091892 164.635137 
L 445.455856 181.107172 
L 447.81982 199.028886 
L 450.183784 218.394013 
L 453.138739 244.585512 
L 456.093694 272.88054 
L 459.63964 309.370024 
L 463.185586 348.230379 
L 467.913514 402.769167 
L 480.915315 554.841648 
L 484.461261 592.617167 
L 487.416216 621.536093 
L 489.78018 642.609841 
L 492.144144 661.576021 
L 493.917117 674.278737 
L 495.69009 685.580538 
L 497.463063 695.406056 
L 499.236036 703.691721 
L 500.418018 708.334431 
L 501.6 712.258308 
L 502.781982 715.454561 
L 503.963964 717.917343 
L 505.145946 719.643834 
L 505.736937 720.230934 
L 506.327928 720.634311 
L 506.918919 720.854491 
L 507.50991 720.8922 
L 508.100901 720.748365 
L 508.691892 720.424112 
L 509.282883 719.920769 
L 509.873874 719.239862 
L 511.055856 717.352467 
L 512.237838 714.778135 
L 513.41982 711.536226 
L 514.601802 707.6492 
L 515.783784 703.142545 
L 517.556757 695.283717 
L 519.32973 686.203092 
L 521.102703 676.021737 
L 523.466667 660.966173 
L 526.421622 640.257779 
L 529.967568 613.610605 
L 537.65045 555.345932 
L 540.605405 534.998473 
L 542.969369 520.319356 
L 544.742342 510.46054 
L 546.515315 501.726499 
L 548.288288 494.226601 
L 549.47027 489.959228 
L 550.652252 486.305927 
L 551.834234 483.286802 
L 553.016216 480.918347 
L 554.198198 479.213349 
L 554.789189 478.612607 
L 555.38018 478.180806 
L 555.971171 477.91847 
L 556.562162 477.825883 
L 557.153153 477.903085 
L 557.744144 478.149875 
L 558.335135 478.56581 
L 558.926126 479.150205 
L 560.108108 480.820435 
L 561.29009 483.150312 
L 562.472072 486.125828 
L 563.654054 489.729308 
L 564.836036 493.939517 
L 566.609009 501.337599 
L 568.381982 509.947698 
L 570.154955 519.657738 
L 572.518919 534.096429 
L 574.882883 549.935678 
L 578.428829 575.528721 
L 587.884685 645.338502 
L 590.83964 664.827602 
L 593.203604 678.827207 
L 594.976577 688.216115 
L 596.74955 696.542898 
L 598.522523 703.726038 
L 600.295495 709.701281 
L 601.477477 712.990137 
L 602.659459 715.712094 
L 603.841441 717.861722 
L 605.023423 719.437307 
L 606.205405 720.440831 
L 606.796396 720.729692 
L 607.387387 720.877939 
L 607.978378 720.886837 
L 608.569369 720.757874 
L 609.16036 720.492753 
L 610.342342 719.561915 
L 611.524324 718.112134 
L 612.706306 716.164422 
L 613.888288 713.742823 
L 615.07027 710.874237 
L 616.843243 705.798564 
L 618.616216 699.89397 
L 620.389189 693.280707 
L 622.753153 683.584281 
L 626.299099 667.816818 
L 632.8 638.514379 
L 635.163964 628.793175 
L 637.527928 620.034205 
L 639.300901 614.247539 
L 641.073874 609.233439 
L 642.846847 605.068626 
L 644.028829 602.7951 
L 645.210811 600.941354 
L 646.392793 599.518723 
L 647.574775 598.535326 
L 648.756757 597.99604 
L 649.938739 597.902494 
L 651.120721 598.253091 
L 652.302703 599.043046 
L 653.484685 600.264452 
L 654.666667 601.906367 
L 655.848649 603.954918 
L 657.030631 606.393434 
L 658.803604 610.739424 
L 660.576577 615.843213 
L 662.34955 621.618066 
L 664.713514 630.194028 
L 667.668468 641.967672 
L 672.987387 664.512953 
L 677.124324 681.568074 
L 679.488288 690.527717 
L 681.852252 698.62679 
L 683.625225 704.016764 
L 685.398198 708.74112 
L 687.171171 712.741798 
L 688.353153 714.984041 
L 689.535135 716.87427 
L 690.717117 718.405154 
L 691.899099 719.572117 
L 693.081081 720.373336 
L 694.263063 720.809735 
L 695.445045 720.884947 
L 696.627027 720.605263 
L 697.809009 719.979557 
L 698.4 719.540403 
L 698.4 719.540403 
" style="fill:none;stroke:#fde725;stroke-linecap:square;stroke-width:2;"/>
   </g>
   <g id="patch_3">
    <path d="M 108 720.9 
L 108 56.7 
" style="fill:none;stroke:#000000;stroke-linecap:square;stroke-linejoin:miter;stroke-width:0.8;"/>
   </g>
   <g id="patch_4">
    <path d="M 698.4 720.9 
L 698.4 56.7 
" style="fill:none;stroke:#000000;stroke-linecap:square;stroke-linejoin:miter;stroke-width:0.8;"/>
   </g>
   <g id="patch_5">
    <path d="M 108 720.9 
L 698.4 720.9 
" style="fill:none;stroke:#000000;stroke-linecap:square;stroke-linejoin:miter;stroke-width:0.8;"/>
   </g>
   <g id="patch_6">
    <path d="M 108 56.7 
L 698.4 56.7 
" style="fill:none;stroke:#000000;stroke-linecap:square;stroke-linejoin:miter;stroke-width:0.8;"/>
   </g>
   <g id="legend_1">
    <g id="patch_7">
     <path d="M 528.439143 189.841259 
L 684.4 189.841259 
Q 688.4 189.841259 688.4 185.841259 
L 688.4 70.7 
Q 688.4 66.7 684.4 66.7 
L 528.439143 66.7 
Q 524.439143 66.7 524.439143 70.7 
L 524.439143 185.841259 
Q 524.439143 189.841259 528.439143 189.841259 
z
" style="fill:#ffffff;opacity:0.8;stroke:#cccccc;stroke-linejoin:miter;"/>
    </g>
    <g id="line2d_27">
     <path d="M 532.439143 82.896875 
L 572.439143 82.896875 
" style="fill:none;stroke:#3b528b;stroke-linecap:square;stroke-width:2;"/>
    </g>
    <g id="line2d_28"/>
    <g id="text_14">
     <!-- $z=375.0\AA$ -->
     <g transform="translate(588.439143 89.896875)scale(0.2 -0.2)">
      <defs>
       <path d="M 12.703125 7.59375 
C 17 12.546875 20.5 15.6875 25.5 20.25 
C 31.5 25.5 34.09375 28.015625 35.5 29.546875 
C 42.5 36.53125 46 42.390625 46 43.1875 
C 46 44 45.203125 44 45 44 
C 44.296875 44 44.09375 43.640625 43.59375 42.96875 
C 41.09375 38.96875 38.703125 36.984375 36.09375 36.984375 
C 34 36.984375 32.90625 37.828125 31 40.078125 
C 28.90625 42.421875 27.203125 44 24.296875 44 
C 17 44 12.59375 35.265625 12.59375 33.25 
C 12.59375 32.9375 12.703125 32.3125 13.59375 32.3125 
C 14.40625 32.3125 14.5 32.671875 14.796875 33.328125 
C 16.5 37.0625 21.296875 37.71875 23.203125 37.71875 
C 25.296875 37.71875 27.296875 37.125 29.40625 36.359375 
C 33.203125 35 34.796875 35 35.796875 35 
C 36.5 35 36.90625 35 37.40625 35.09375 
C 34.09375 31.15625 28.703125 26.296875 24.203125 22.15625 
L 14.09375 12.75 
C 8 6.484375 4.296875 0.515625 4.296875 -0.1875 
C 4.296875 -0.796875 4.796875 -1 5.40625 -1 
C 6 -1 6.09375 -0.890625 6.796875 0.21875 
C 8.40625 2.546875 11.59375 6 15.296875 6 
C 17.40625 6 18.40625 5.34375 20.40625 3.015625 
C 22.296875 0.953125 24 -1 27.203125 -1 
C 37 -1 42.59375 11.4375 42.59375 13.6875 
C 42.59375 14.109375 42.5 14.71875 41.5 14.71875 
C 40.703125 14.71875 40.59375 14.328125 40.296875 13.359375 
C 38.09375 7.625 32.203125 5.28125 28.296875 5.28125 
C 26.203125 5.28125 24.203125 5.875 22.09375 6.640625 
C 18.09375 8 17 8 15.703125 8 
C 14.703125 8 13.59375 8 12.703125 7.59375 
z
" id="CMMI12-122"/>
       <path d="M 64.296875 31.515625 
C 65.796875 31.515625 67.296875 31.515625 67.296875 33.203125 
C 67.296875 35 65.59375 35 63.90625 35 
L 8 35 
C 6.296875 35 4.59375 35 4.59375 33.203125 
C 4.59375 31.515625 6.09375 31.515625 7.59375 31.515625 
z
M 63.90625 14 
C 65.59375 14 67.296875 14 67.296875 15.796875 
C 67.296875 17.484375 65.796875 17.484375 64.296875 17.484375 
L 7.59375 17.484375 
C 6.09375 17.484375 4.59375 17.484375 4.59375 15.796875 
C 4.59375 14 6.296875 14 8 14 
z
" id="CMR17-61"/>
       <path d="M 22.09375 33.703125 
C 31 33.703125 34.90625 25.96875 34.90625 17.03125 
C 34.90625 5 28.5 0.390625 22.703125 0.390625 
C 17.40625 0.390625 8.796875 3.03125 6.09375 10.828125 
C 6.59375 10.625 7.09375 10.625 7.59375 10.625 
C 10 10.625 11.796875 12.21875 11.796875 14.8125 
C 11.796875 17.703125 9.59375 19 7.59375 19 
C 5.90625 19 3.296875 18.203125 3.296875 14.46875 
C 3.296875 5.234375 12.296875 -2 22.90625 -2 
C 34 -2 42.5 6.71875 42.5 16.953125 
C 42.5 26.671875 34.5 33.703125 25 34.796875 
C 32.59375 36.375 39.90625 43.0625 39.90625 52.015625 
C 39.90625 59.6875 32 65.296875 23 65.296875 
C 13.90625 65.296875 5.90625 59.828125 5.90625 52.015625 
C 5.90625 48.59375 8.5 48 9.796875 48 
C 11.90625 48 13.703125 49.296875 13.703125 51.890625 
C 13.703125 54.46875 11.90625 55.765625 9.796875 55.765625 
C 9.40625 55.765625 8.90625 55.765625 8.5 55.578125 
C 11.40625 61.859375 19.296875 63 22.796875 63 
C 26.296875 63 32.90625 61.328125 32.90625 51.875 
C 32.90625 49.109375 32.5 44.1875 29.09375 39.84375 
C 26.09375 36 22.703125 36 19.40625 35.6875 
C 18.90625 35.6875 16.59375 35.453125 16.203125 35.453125 
C 15.5 35.359375 15.09375 35.265625 15.09375 34.5 
C 15.09375 33.796875 15.203125 33.703125 17.203125 33.703125 
z
" id="CMR17-51"/>
       <path d="M 45.09375 61.578125 
L 45.09375 63.765625 
L 21.59375 63.765625 
C 9.90625 63.765625 9.703125 65.078125 9.296875 67 
L 7.5 67 
L 4.59375 48.34375 
L 6.40625 48.34375 
C 6.703125 50.234375 7.40625 55.3125 8.59375 57.203125 
C 9.203125 58 16.59375 58 18.296875 58 
L 40.296875 58 
L 29.203125 41.578125 
C 21.796875 30.53125 16.703125 15.609375 16.703125 2.578125 
C 16.703125 1.390625 16.703125 -2 20.296875 -2 
C 23.90625 -2 23.90625 1.390625 23.90625 2.671875 
L 23.90625 7.265625 
C 23.90625 23.5625 26.703125 34.3125 31.296875 41.1875 
z
" id="CMR17-55"/>
       <path d="M 11.40625 57.6875 
C 12.40625 57.28125 16.5 56 20.703125 56 
C 30 56 35.09375 61.109375 38 64.0625 
C 38 64.953125 38 65.5 37.40625 65.5 
C 37.296875 65.5 37.09375 65.5 36.296875 65.046875 
C 32.796875 63.40625 28.703125 62.078125 23.703125 62.078125 
C 20.703125 62.078125 16.203125 62.484375 11.296875 64.671875 
C 10.203125 65.171875 10 65.171875 9.90625 65.171875 
C 9.40625 65.171875 9.296875 65.0625 9.296875 63.078125 
L 9.296875 34.421875 
C 9.296875 32.640625 9.296875 32.140625 10.296875 32.140625 
C 10.796875 32.140625 11 32.34375 11.5 33.03125 
C 14.703125 37.515625 19.09375 39.40625 24.09375 39.40625 
C 27.59375 39.40625 35.09375 37.21875 35.09375 20.140625 
C 35.09375 16.953125 35.09375 11.171875 32.09375 6.578125 
C 29.59375 2.484375 25.703125 0.390625 21.40625 0.390625 
C 14.796875 0.390625 8.09375 5 6.296875 12.71875 
C 6.703125 12.609375 7.5 12.421875 7.90625 12.421875 
C 9.203125 12.421875 11.703125 13.125 11.703125 16.21875 
C 11.703125 18.90625 9.796875 20 7.90625 20 
C 5.59375 20 4.09375 18.59375 4.09375 15.796875 
C 4.09375 7.09375 11 -2 21.59375 -2 
C 31.90625 -2 41.703125 6.875 41.703125 19.75 
C 41.703125 31.71875 33.90625 41 24.203125 41 
C 19.09375 41 14.796875 39.109375 11.40625 35.53125 
z
" id="CMR17-53"/>
       <path d="M 41.703125 60.75 
C 41.703125 65.3125 37.203125 69.46875 31.203125 69.46875 
C 25.203125 69.46875 20.703125 65.3125 20.703125 60.75 
C 20.703125 56.171875 25.203125 52 31.203125 52 
C 37.203125 52 41.703125 56.171875 41.703125 60.75 
z
M 31.203125 56.484375 
C 29 56.484375 26 57.171875 26 60.734375 
C 26 64.09375 28.703125 65 31.203125 65 
C 33.40625 65 36.40625 64.296875 36.40625 60.734375 
C 36.40625 57.375 33.703125 56.484375 31.203125 56.484375 
z
" id="CMSS17-23"/>
       <path d="M 17 10.796875 
C 13.5 4.90625 10.09375 2.90625 5.296875 2.90625 
C 4.203125 2.8125 3.40625 2.8125 3.40625 0.90625 
C 3.40625 0.375 3.90625 0 4.59375 0 
C 6.40625 0 10.90625 0 12.703125 0 
C 15.59375 0 18.796875 0 21.59375 0 
C 22.203125 0 23.40625 0 23.40625 1.90625 
C 23.40625 2.8125 22.59375 2.90625 22 2.90625 
C 19.703125 2.90625 17.796875 3.6875 17.796875 6.0625 
C 17.796875 7.4375 18.40625 8.53125 19.703125 10.703125 
L 27.296875 23.109375 
L 52.796875 23.109375 
C 52.90625 22.234375 52.90625 21.453125 53 20.5625 
C 53.296875 18 54.5 7.734375 54.5 5.875 
C 54.5 2.90625 49.40625 2.90625 47.796875 2.90625 
C 46.703125 2.90625 45.59375 2.90625 45.59375 1.09375 
C 45.59375 0 46.5 0 47.09375 0 
C 48.796875 0 50.796875 0 52.5 0 
L 58.203125 0 
C 64.296875 0 68.703125 0 68.796875 0 
C 69.5 0 70.59375 0 70.59375 1.90625 
C 70.59375 2.90625 69.703125 2.90625 68.203125 2.90625 
C 62.703125 2.90625 62.59375 3.8125 62.296875 6.78125 
L 56.203125 68.8125 
C 56 70.796875 55.59375 71 54.5 71 
C 53.5 71 52.90625 70.796875 52 69.296875 
z
M 29 26 
L 49.09375 59.671875 
L 52.5 26 
z
" id="CMMI12-65"/>
      </defs>
      <use transform="scale(0.996264)" xlink:href="#CMMI12-122"/>
      <use transform="translate(77.429154 0)scale(0.996264)" xlink:href="#CMR17-61"/>
      <use transform="translate(176.817951 0)scale(0.996264)" xlink:href="#CMR17-51"/>
      <use transform="translate(222.508428 0)scale(0.996264)" xlink:href="#CMR17-55"/>
      <use transform="translate(268.198905 0)scale(0.996264)" xlink:href="#CMR17-53"/>
      <use transform="translate(313.889382 0)scale(0.996264)" xlink:href="#CMMI12-58"/>
      <use transform="translate(340.986559 0)scale(0.996264)" xlink:href="#CMR17-48"/>
      <use transform="translate(386.677036 17.618744)scale(0.996264)" xlink:href="#CMSS17-23"/>
      <use transform="translate(386.677036 0)scale(0.996264)" xlink:href="#CMMI12-65"/>
     </g>
    </g>
    <g id="line2d_29">
     <path d="M 532.439143 112.253125 
L 572.439143 112.253125 
" style="fill:none;stroke:#21918c;stroke-linecap:square;stroke-width:2;"/>
    </g>
    <g id="line2d_30"/>
    <g id="text_15">
     <!-- $z=500.0\AA$ -->
     <g transform="translate(588.439143 119.253125)scale(0.2 -0.2)">
      <use transform="scale(0.996264)" xlink:href="#CMMI12-122"/>
      <use transform="translate(77.429154 0)scale(0.996264)" xlink:href="#CMR17-61"/>
      <use transform="translate(176.817951 0)scale(0.996264)" xlink:href="#CMR17-53"/>
      <use transform="translate(222.508428 0)scale(0.996264)" xlink:href="#CMR17-48"/>
      <use transform="translate(268.198905 0)scale(0.996264)" xlink:href="#CMR17-48"/>
      <use transform="translate(313.889382 0)scale(0.996264)" xlink:href="#CMMI12-58"/>
      <use transform="translate(340.986559 0)scale(0.996264)" xlink:href="#CMR17-48"/>
      <use transform="translate(386.677036 17.618744)scale(0.996264)" xlink:href="#CMSS17-23"/>
      <use transform="translate(386.677036 0)scale(0.996264)" xlink:href="#CMMI12-65"/>
     </g>
    </g>
    <g id="line2d_31">
     <path d="M 532.439143 141.609375 
L 572.439143 141.609375 
" style="fill:none;stroke:#5ec962;stroke-linecap:square;stroke-width:2;"/>
    </g>
    <g id="line2d_32"/>
    <g id="text_16">
     <!-- $z=625.0\AA$ -->
     <g transform="translate(588.439143 148.609375)scale(0.2 -0.2)">
      <use transform="scale(0.996264)" xlink:href="#CMMI12-122"/>
      <use transform="translate(77.429154 0)scale(0.996264)" xlink:href="#CMR17-61"/>
      <use transform="translate(176.817951 0)scale(0.996264)" xlink:href="#CMR17-54"/>
      <use transform="translate(222.508428 0)scale(0.996264)" xlink:href="#CMR17-50"/>
      <use transform="translate(268.198905 0)scale(0.996264)" xlink:href="#CMR17-53"/>
      <use transform="translate(313.889382 0)scale(0.996264)" xlink:href="#CMMI12-58"/>
      <use transform="translate(340.986559 0)scale(0.996264)" xlink:href="#CMR17-48"/>
      <use transform="translate(386.677036 17.618744)scale(0.996264)" xlink:href="#CMSS17-23"/>
      <use transform="translate(386.677036 0)scale(0.996264)" xlink:href="#CMMI12-65"/>
     </g>
    </g>
    <g id="line2d_33">
     <path d="M 532.439143 170.965625 
L 572.439143 170.965625 
" style="fill:none;stroke:#fde725;stroke-linecap:square;stroke-width:2;"/>
    </g>
    <g id="line2d_34"/>
    <g id="text_17">
     <!-- $z=750.0\AA$ -->
     <g transform="translate(588.439143 177.965625)scale(0.2 -0.2)">
      <use transform="scale(0.996264)" xlink:href="#CMMI12-122"/>
      <use transform="translate(77.429154 0)scale(0.996264)" xlink:href="#CMR17-61"/>
      <use transform="translate(176.817951 0)scale(0.996264)" xlink:href="#CMR17-55"/>
      <use transform="translate(222.508428 0)scale(0.996264)" xlink:href="#CMR17-53"/>
      <use transform="translate(268.198905 0)scale(0.996264)" xlink:href="#CMR17-48"/>
      <use transform="translate(313.889382 0)scale(0.996264)" xlink:href="#CMMI12-58"/>
      <use transform="translate(340.986559 0)scale(0.996264)" xlink:href="#CMR17-48"/>
      <use transform="translate(386.677036 17.618744)scale(0.996264)" xlink:href="#CMSS17-23"/>
      <use transform="translate(386.677036 0)scale(0.996264)" xlink:href="#CMMI12-65"/>
     </g>
    </g>
   </g>
  </g>
 </g>
 <defs>
  <clipPath id="p26701e2dc6">
   <rect height="664.2" width="590.4" x="108" y="56.7"/>
  </clipPath>
 </defs>
</svg>
