<?xml version="1.0" encoding="utf-8" standalone="no"?>
<!DOCTYPE svg PUBLIC "-//W3C//DTD SVG 1.1//EN"
  "http://www.w3.org/Graphics/SVG/1.1/DTD/svg11.dtd">
<!-- Created with matplotlib (https://matplotlib.org/) -->
<svg height="576pt" version="1.1" viewBox="0 0 512.25 576" width="512.25pt" xmlns="http://www.w3.org/2000/svg" xmlns:xlink="http://www.w3.org/1999/xlink">
 <defs>
  <style type="text/css">
*{stroke-linecap:butt;stroke-linejoin:round;}
  </style>
 </defs>
 <g id="figure_1">
  <g id="patch_1">
   <path d="M 0 576 
L 512.25 576 
L 512.25 0 
L 0 0 
z
" style="fill:#ffffff;"/>
  </g>
  <g id="axes_1">
   <g id="patch_2">
    <path d="M 64.03125 512.64 
L 461.025 512.64 
L 461.025 69.12 
L 64.03125 69.12 
z
" style="fill:#ffffff;"/>
   </g>
   <g id="matplotlib.axis_1">
    <g id="xtick_1">
     <g id="line2d_1">
      <path clip-path="url(#p84a40a7535)" d="M 64.03125 512.64 
L 64.03125 69.12 
" style="fill:none;stroke:#e6e6e6;stroke-linecap:square;stroke-width:0.8;"/>
     </g>
     <g id="line2d_2">
      <defs>
       <path d="M 0 0 
L 0 3.5 
" id="m9e15781c15" style="stroke:#000000;stroke-width:0.8;"/>
      </defs>
      <g>
       <use style="stroke:#000000;stroke-width:0.8;" x="64.03125" xlink:href="#m9e15781c15" y="512.64"/>
      </g>
     </g>
     <g id="text_1">
      <!-- 0.0 -->
      <defs>
       <path d="M 31.78125 66.40625 
Q 24.171875 66.40625 20.328125 58.90625 
Q 16.5 51.421875 16.5 36.375 
Q 16.5 21.390625 20.328125 13.890625 
Q 24.171875 6.390625 31.78125 6.390625 
Q 39.453125 6.390625 43.28125 13.890625 
Q 47.125 21.390625 47.125 36.375 
Q 47.125 51.421875 43.28125 58.90625 
Q 39.453125 66.40625 31.78125 66.40625 
z
M 31.78125 74.21875 
Q 44.046875 74.21875 50.515625 64.515625 
Q 56.984375 54.828125 56.984375 36.375 
Q 56.984375 17.96875 50.515625 8.265625 
Q 44.046875 -1.421875 31.78125 -1.421875 
Q 19.53125 -1.421875 13.0625 8.265625 
Q 6.59375 17.96875 6.59375 36.375 
Q 6.59375 54.828125 13.0625 64.515625 
Q 19.53125 74.21875 31.78125 74.21875 
z
" id="DejaVuSans-48"/>
       <path d="M 10.6875 12.40625 
L 21 12.40625 
L 21 0 
L 10.6875 0 
z
" id="DejaVuSans-46"/>
      </defs>
      <g transform="translate(52.103906 531.037656)scale(0.15 -0.15)">
       <use xlink:href="#DejaVuSans-48"/>
       <use x="63.623047" xlink:href="#DejaVuSans-46"/>
       <use x="95.410156" xlink:href="#DejaVuSans-48"/>
      </g>
     </g>
    </g>
    <g id="xtick_2">
     <g id="line2d_3">
      <path clip-path="url(#p84a40a7535)" d="M 130.196875 512.64 
L 130.196875 69.12 
" style="fill:none;stroke:#e6e6e6;stroke-linecap:square;stroke-width:0.8;"/>
     </g>
     <g id="line2d_4">
      <g>
       <use style="stroke:#000000;stroke-width:0.8;" x="130.196875" xlink:href="#m9e15781c15" y="512.64"/>
      </g>
     </g>
     <g id="text_2">
      <!-- 0.5 -->
      <defs>
       <path d="M 10.796875 72.90625 
L 49.515625 72.90625 
L 49.515625 64.59375 
L 19.828125 64.59375 
L 19.828125 46.734375 
Q 21.96875 47.46875 24.109375 47.828125 
Q 26.265625 48.1875 28.421875 48.1875 
Q 40.625 48.1875 47.75 41.5 
Q 54.890625 34.8125 54.890625 23.390625 
Q 54.890625 11.625 47.5625 5.09375 
Q 40.234375 -1.421875 26.90625 -1.421875 
Q 22.3125 -1.421875 17.546875 -0.640625 
Q 12.796875 0.140625 7.71875 1.703125 
L 7.71875 11.625 
Q 12.109375 9.234375 16.796875 8.0625 
Q 21.484375 6.890625 26.703125 6.890625 
Q 35.15625 6.890625 40.078125 11.328125 
Q 45.015625 15.765625 45.015625 23.390625 
Q 45.015625 31 40.078125 35.4375 
Q 35.15625 39.890625 26.703125 39.890625 
Q 22.75 39.890625 18.8125 39.015625 
Q 14.890625 38.140625 10.796875 36.28125 
z
" id="DejaVuSans-53"/>
      </defs>
      <g transform="translate(118.269531 531.037656)scale(0.15 -0.15)">
       <use xlink:href="#DejaVuSans-48"/>
       <use x="63.623047" xlink:href="#DejaVuSans-46"/>
       <use x="95.410156" xlink:href="#DejaVuSans-53"/>
      </g>
     </g>
    </g>
    <g id="xtick_3">
     <g id="line2d_5">
      <path clip-path="url(#p84a40a7535)" d="M 196.3625 512.64 
L 196.3625 69.12 
" style="fill:none;stroke:#e6e6e6;stroke-linecap:square;stroke-width:0.8;"/>
     </g>
     <g id="line2d_6">
      <g>
       <use style="stroke:#000000;stroke-width:0.8;" x="196.3625" xlink:href="#m9e15781c15" y="512.64"/>
      </g>
     </g>
     <g id="text_3">
      <!-- 1.0 -->
      <defs>
       <path d="M 12.40625 8.296875 
L 28.515625 8.296875 
L 28.515625 63.921875 
L 10.984375 60.40625 
L 10.984375 69.390625 
L 28.421875 72.90625 
L 38.28125 72.90625 
L 38.28125 8.296875 
L 54.390625 8.296875 
L 54.390625 0 
L 12.40625 0 
z
" id="DejaVuSans-49"/>
      </defs>
      <g transform="translate(184.435156 531.037656)scale(0.15 -0.15)">
       <use xlink:href="#DejaVuSans-49"/>
       <use x="63.623047" xlink:href="#DejaVuSans-46"/>
       <use x="95.410156" xlink:href="#DejaVuSans-48"/>
      </g>
     </g>
    </g>
    <g id="xtick_4">
     <g id="line2d_7">
      <path clip-path="url(#p84a40a7535)" d="M 262.528125 512.64 
L 262.528125 69.12 
" style="fill:none;stroke:#e6e6e6;stroke-linecap:square;stroke-width:0.8;"/>
     </g>
     <g id="line2d_8">
      <g>
       <use style="stroke:#000000;stroke-width:0.8;" x="262.528125" xlink:href="#m9e15781c15" y="512.64"/>
      </g>
     </g>
     <g id="text_4">
      <!-- 1.5 -->
      <g transform="translate(250.600781 531.037656)scale(0.15 -0.15)">
       <use xlink:href="#DejaVuSans-49"/>
       <use x="63.623047" xlink:href="#DejaVuSans-46"/>
       <use x="95.410156" xlink:href="#DejaVuSans-53"/>
      </g>
     </g>
    </g>
    <g id="xtick_5">
     <g id="line2d_9">
      <path clip-path="url(#p84a40a7535)" d="M 328.69375 512.64 
L 328.69375 69.12 
" style="fill:none;stroke:#e6e6e6;stroke-linecap:square;stroke-width:0.8;"/>
     </g>
     <g id="line2d_10">
      <g>
       <use style="stroke:#000000;stroke-width:0.8;" x="328.69375" xlink:href="#m9e15781c15" y="512.64"/>
      </g>
     </g>
     <g id="text_5">
      <!-- 2.0 -->
      <defs>
       <path d="M 19.1875 8.296875 
L 53.609375 8.296875 
L 53.609375 0 
L 7.328125 0 
L 7.328125 8.296875 
Q 12.9375 14.109375 22.625 23.890625 
Q 32.328125 33.6875 34.8125 36.53125 
Q 39.546875 41.84375 41.421875 45.53125 
Q 43.3125 49.21875 43.3125 52.78125 
Q 43.3125 58.59375 39.234375 62.25 
Q 35.15625 65.921875 28.609375 65.921875 
Q 23.96875 65.921875 18.8125 64.3125 
Q 13.671875 62.703125 7.8125 59.421875 
L 7.8125 69.390625 
Q 13.765625 71.78125 18.9375 73 
Q 24.125 74.21875 28.421875 74.21875 
Q 39.75 74.21875 46.484375 68.546875 
Q 53.21875 62.890625 53.21875 53.421875 
Q 53.21875 48.921875 51.53125 44.890625 
Q 49.859375 40.875 45.40625 35.40625 
Q 44.1875 33.984375 37.640625 27.21875 
Q 31.109375 20.453125 19.1875 8.296875 
z
" id="DejaVuSans-50"/>
      </defs>
      <g transform="translate(316.766406 531.037656)scale(0.15 -0.15)">
       <use xlink:href="#DejaVuSans-50"/>
       <use x="63.623047" xlink:href="#DejaVuSans-46"/>
       <use x="95.410156" xlink:href="#DejaVuSans-48"/>
      </g>
     </g>
    </g>
    <g id="xtick_6">
     <g id="line2d_11">
      <path clip-path="url(#p84a40a7535)" d="M 394.859375 512.64 
L 394.859375 69.12 
" style="fill:none;stroke:#e6e6e6;stroke-linecap:square;stroke-width:0.8;"/>
     </g>
     <g id="line2d_12">
      <g>
       <use style="stroke:#000000;stroke-width:0.8;" x="394.859375" xlink:href="#m9e15781c15" y="512.64"/>
      </g>
     </g>
     <g id="text_6">
      <!-- 2.5 -->
      <g transform="translate(382.932031 531.037656)scale(0.15 -0.15)">
       <use xlink:href="#DejaVuSans-50"/>
       <use x="63.623047" xlink:href="#DejaVuSans-46"/>
       <use x="95.410156" xlink:href="#DejaVuSans-53"/>
      </g>
     </g>
    </g>
    <g id="xtick_7">
     <g id="line2d_13">
      <path clip-path="url(#p84a40a7535)" d="M 461.025 512.64 
L 461.025 69.12 
" style="fill:none;stroke:#e6e6e6;stroke-linecap:square;stroke-width:0.8;"/>
     </g>
     <g id="line2d_14">
      <g>
       <use style="stroke:#000000;stroke-width:0.8;" x="461.025" xlink:href="#m9e15781c15" y="512.64"/>
      </g>
     </g>
     <g id="text_7">
      <!-- 3.0 -->
      <defs>
       <path d="M 40.578125 39.3125 
Q 47.65625 37.796875 51.625 33 
Q 55.609375 28.21875 55.609375 21.1875 
Q 55.609375 10.40625 48.1875 4.484375 
Q 40.765625 -1.421875 27.09375 -1.421875 
Q 22.515625 -1.421875 17.65625 -0.515625 
Q 12.796875 0.390625 7.625 2.203125 
L 7.625 11.71875 
Q 11.71875 9.328125 16.59375 8.109375 
Q 21.484375 6.890625 26.8125 6.890625 
Q 36.078125 6.890625 40.9375 10.546875 
Q 45.796875 14.203125 45.796875 21.1875 
Q 45.796875 27.640625 41.28125 31.265625 
Q 36.765625 34.90625 28.71875 34.90625 
L 20.21875 34.90625 
L 20.21875 43.015625 
L 29.109375 43.015625 
Q 36.375 43.015625 40.234375 45.921875 
Q 44.09375 48.828125 44.09375 54.296875 
Q 44.09375 59.90625 40.109375 62.90625 
Q 36.140625 65.921875 28.71875 65.921875 
Q 24.65625 65.921875 20.015625 65.03125 
Q 15.375 64.15625 9.8125 62.3125 
L 9.8125 71.09375 
Q 15.4375 72.65625 20.34375 73.4375 
Q 25.25 74.21875 29.59375 74.21875 
Q 40.828125 74.21875 47.359375 69.109375 
Q 53.90625 64.015625 53.90625 55.328125 
Q 53.90625 49.265625 50.4375 45.09375 
Q 46.96875 40.921875 40.578125 39.3125 
z
" id="DejaVuSans-51"/>
      </defs>
      <g transform="translate(449.097656 531.037656)scale(0.15 -0.15)">
       <use xlink:href="#DejaVuSans-51"/>
       <use x="63.623047" xlink:href="#DejaVuSans-46"/>
       <use x="95.410156" xlink:href="#DejaVuSans-48"/>
      </g>
     </g>
    </g>
    <g id="text_8">
     <!-- $q(A^{-1})$ -->
     <defs>
      <path d="M 41.703125 8.203125 
Q 38.09375 3.46875 33.171875 1.015625 
Q 28.265625 -1.421875 22.3125 -1.421875 
Q 14.015625 -1.421875 9.296875 4.171875 
Q 4.59375 9.765625 4.59375 19.578125 
Q 4.59375 27.484375 7.5 34.859375 
Q 10.40625 42.234375 15.828125 48.09375 
Q 19.34375 51.90625 23.90625 53.953125 
Q 28.46875 56 33.5 56 
Q 39.546875 56 43.453125 53.609375 
Q 47.359375 51.21875 49.125 46.390625 
L 50.6875 54.59375 
L 59.71875 54.59375 
L 45.125 -20.609375 
L 36.078125 -20.609375 
z
M 13.921875 20.90625 
Q 13.921875 13.671875 16.9375 9.890625 
Q 19.96875 6.109375 25.6875 6.109375 
Q 34.1875 6.109375 40.1875 14.234375 
Q 46.1875 22.359375 46.1875 33.984375 
Q 46.1875 41.015625 43.078125 44.75 
Q 39.984375 48.484375 34.1875 48.484375 
Q 29.9375 48.484375 26.3125 46.5 
Q 22.703125 44.53125 20.015625 40.71875 
Q 17.1875 36.71875 15.546875 31.34375 
Q 13.921875 25.984375 13.921875 20.90625 
z
" id="DejaVuSans-Oblique-113"/>
      <path d="M 31 75.875 
Q 24.46875 64.65625 21.28125 53.65625 
Q 18.109375 42.671875 18.109375 31.390625 
Q 18.109375 20.125 21.3125 9.0625 
Q 24.515625 -2 31 -13.1875 
L 23.1875 -13.1875 
Q 15.875 -1.703125 12.234375 9.375 
Q 8.59375 20.453125 8.59375 31.390625 
Q 8.59375 42.28125 12.203125 53.3125 
Q 15.828125 64.359375 23.1875 75.875 
z
" id="DejaVuSans-40"/>
      <path d="M 36.8125 72.90625 
L 48 72.90625 
L 61.53125 0 
L 51.21875 0 
L 48.1875 18.703125 
L 15.375 18.703125 
L 5.078125 0 
L -5.328125 0 
z
M 40.375 63.1875 
L 19.921875 26.90625 
L 46.6875 26.90625 
z
" id="DejaVuSans-Oblique-65"/>
      <path d="M 10.59375 35.5 
L 73.1875 35.5 
L 73.1875 27.203125 
L 10.59375 27.203125 
z
" id="DejaVuSans-8722"/>
      <path d="M 8.015625 75.875 
L 15.828125 75.875 
Q 23.140625 64.359375 26.78125 53.3125 
Q 30.421875 42.28125 30.421875 31.390625 
Q 30.421875 20.453125 26.78125 9.375 
Q 23.140625 -1.703125 15.828125 -13.1875 
L 8.015625 -13.1875 
Q 14.5 -2 17.703125 9.0625 
Q 20.90625 20.125 20.90625 31.390625 
Q 20.90625 42.671875 17.703125 53.65625 
Q 14.5 64.65625 8.015625 75.875 
z
" id="DejaVuSans-41"/>
     </defs>
     <g transform="translate(214.078125 565.157187)scale(0.3 -0.3)">
      <use transform="translate(0 0.684375)" xlink:href="#DejaVuSans-Oblique-113"/>
      <use transform="translate(63.476562 0.684375)" xlink:href="#DejaVuSans-40"/>
      <use transform="translate(102.490234 0.684375)" xlink:href="#DejaVuSans-Oblique-65"/>
      <use transform="translate(177.915208 38.965625)scale(0.7)" xlink:href="#DejaVuSans-8722"/>
      <use transform="translate(236.567552 38.965625)scale(0.7)" xlink:href="#DejaVuSans-49"/>
      <use transform="translate(283.83806 0.684375)" xlink:href="#DejaVuSans-41"/>
     </g>
    </g>
   </g>
   <g id="matplotlib.axis_2">
    <g id="ytick_1">
     <g id="line2d_15">
      <path clip-path="url(#p84a40a7535)" d="M 64.03125 512.64 
L 461.025 512.64 
" style="fill:none;stroke:#e6e6e6;stroke-linecap:square;stroke-width:0.8;"/>
     </g>
     <g id="line2d_16">
      <defs>
       <path d="M 0 0 
L -3.5 0 
" id="m1332c49c75" style="stroke:#000000;stroke-width:0.8;"/>
      </defs>
      <g>
       <use style="stroke:#000000;stroke-width:0.8;" x="64.03125" xlink:href="#m1332c49c75" y="512.64"/>
      </g>
     </g>
     <g id="text_9">
      <!-- 0.0 -->
      <g transform="translate(33.176563 518.338828)scale(0.15 -0.15)">
       <use xlink:href="#DejaVuSans-48"/>
       <use x="63.623047" xlink:href="#DejaVuSans-46"/>
       <use x="95.410156" xlink:href="#DejaVuSans-48"/>
      </g>
     </g>
    </g>
    <g id="ytick_2">
     <g id="line2d_17">
      <path clip-path="url(#p84a40a7535)" d="M 64.03125 438.72 
L 461.025 438.72 
" style="fill:none;stroke:#e6e6e6;stroke-linecap:square;stroke-width:0.8;"/>
     </g>
     <g id="line2d_18">
      <g>
       <use style="stroke:#000000;stroke-width:0.8;" x="64.03125" xlink:href="#m1332c49c75" y="438.72"/>
      </g>
     </g>
     <g id="text_10">
      <!-- 0.5 -->
      <g transform="translate(33.176563 444.418828)scale(0.15 -0.15)">
       <use xlink:href="#DejaVuSans-48"/>
       <use x="63.623047" xlink:href="#DejaVuSans-46"/>
       <use x="95.410156" xlink:href="#DejaVuSans-53"/>
      </g>
     </g>
    </g>
    <g id="ytick_3">
     <g id="line2d_19">
      <path clip-path="url(#p84a40a7535)" d="M 64.03125 364.8 
L 461.025 364.8 
" style="fill:none;stroke:#e6e6e6;stroke-linecap:square;stroke-width:0.8;"/>
     </g>
     <g id="line2d_20">
      <g>
       <use style="stroke:#000000;stroke-width:0.8;" x="64.03125" xlink:href="#m1332c49c75" y="364.8"/>
      </g>
     </g>
     <g id="text_11">
      <!-- 1.0 -->
      <g transform="translate(33.176563 370.498828)scale(0.15 -0.15)">
       <use xlink:href="#DejaVuSans-49"/>
       <use x="63.623047" xlink:href="#DejaVuSans-46"/>
       <use x="95.410156" xlink:href="#DejaVuSans-48"/>
      </g>
     </g>
    </g>
    <g id="ytick_4">
     <g id="line2d_21">
      <path clip-path="url(#p84a40a7535)" d="M 64.03125 290.88 
L 461.025 290.88 
" style="fill:none;stroke:#e6e6e6;stroke-linecap:square;stroke-width:0.8;"/>
     </g>
     <g id="line2d_22">
      <g>
       <use style="stroke:#000000;stroke-width:0.8;" x="64.03125" xlink:href="#m1332c49c75" y="290.88"/>
      </g>
     </g>
     <g id="text_12">
      <!-- 1.5 -->
      <g transform="translate(33.176563 296.578828)scale(0.15 -0.15)">
       <use xlink:href="#DejaVuSans-49"/>
       <use x="63.623047" xlink:href="#DejaVuSans-46"/>
       <use x="95.410156" xlink:href="#DejaVuSans-53"/>
      </g>
     </g>
    </g>
    <g id="ytick_5">
     <g id="line2d_23">
      <path clip-path="url(#p84a40a7535)" d="M 64.03125 216.96 
L 461.025 216.96 
" style="fill:none;stroke:#e6e6e6;stroke-linecap:square;stroke-width:0.8;"/>
     </g>
     <g id="line2d_24">
      <g>
       <use style="stroke:#000000;stroke-width:0.8;" x="64.03125" xlink:href="#m1332c49c75" y="216.96"/>
      </g>
     </g>
     <g id="text_13">
      <!-- 2.0 -->
      <g transform="translate(33.176563 222.658828)scale(0.15 -0.15)">
       <use xlink:href="#DejaVuSans-50"/>
       <use x="63.623047" xlink:href="#DejaVuSans-46"/>
       <use x="95.410156" xlink:href="#DejaVuSans-48"/>
      </g>
     </g>
    </g>
    <g id="ytick_6">
     <g id="line2d_25">
      <path clip-path="url(#p84a40a7535)" d="M 64.03125 143.04 
L 461.025 143.04 
" style="fill:none;stroke:#e6e6e6;stroke-linecap:square;stroke-width:0.8;"/>
     </g>
     <g id="line2d_26">
      <g>
       <use style="stroke:#000000;stroke-width:0.8;" x="64.03125" xlink:href="#m1332c49c75" y="143.04"/>
      </g>
     </g>
     <g id="text_14">
      <!-- 2.5 -->
      <g transform="translate(33.176563 148.738828)scale(0.15 -0.15)">
       <use xlink:href="#DejaVuSans-50"/>
       <use x="63.623047" xlink:href="#DejaVuSans-46"/>
       <use x="95.410156" xlink:href="#DejaVuSans-53"/>
      </g>
     </g>
    </g>
    <g id="ytick_7">
     <g id="line2d_27">
      <path clip-path="url(#p84a40a7535)" d="M 64.03125 69.12 
L 461.025 69.12 
" style="fill:none;stroke:#e6e6e6;stroke-linecap:square;stroke-width:0.8;"/>
     </g>
     <g id="line2d_28">
      <g>
       <use style="stroke:#000000;stroke-width:0.8;" x="64.03125" xlink:href="#m1332c49c75" y="69.12"/>
      </g>
     </g>
     <g id="text_15">
      <!-- 3.0 -->
      <g transform="translate(33.176563 74.818828)scale(0.15 -0.15)">
       <use xlink:href="#DejaVuSans-51"/>
       <use x="63.623047" xlink:href="#DejaVuSans-46"/>
       <use x="95.410156" xlink:href="#DejaVuSans-48"/>
      </g>
     </g>
    </g>
    <g id="text_16">
     <!-- $f^e(A)$ -->
     <defs>
      <path d="M 47.796875 75.984375 
L 46.390625 68.5 
L 37.796875 68.5 
Q 32.90625 68.5 30.6875 66.578125 
Q 28.46875 64.65625 27.390625 59.515625 
L 26.421875 54.6875 
L 41.21875 54.6875 
L 39.890625 47.703125 
L 25.09375 47.703125 
L 15.828125 0 
L 6.78125 0 
L 16.109375 47.703125 
L 7.515625 47.703125 
L 8.796875 54.6875 
L 17.390625 54.6875 
L 18.109375 58.5 
Q 19.96875 68.171875 24.625 72.078125 
Q 29.296875 75.984375 39.3125 75.984375 
z
" id="DejaVuSans-Oblique-102"/>
      <path d="M 48.09375 32.234375 
Q 48.25 33.015625 48.3125 33.84375 
Q 48.390625 34.671875 48.390625 35.5 
Q 48.390625 41.453125 44.890625 44.921875 
Q 41.40625 48.390625 35.40625 48.390625 
Q 28.71875 48.390625 23.578125 44.15625 
Q 18.453125 39.9375 15.828125 32.171875 
z
M 55.90625 25.203125 
L 14.109375 25.203125 
Q 13.8125 23.34375 13.71875 22.265625 
Q 13.625 21.1875 13.625 20.40625 
Q 13.625 13.625 17.796875 9.90625 
Q 21.96875 6.203125 29.59375 6.203125 
Q 35.453125 6.203125 40.671875 7.515625 
Q 45.90625 8.84375 50.390625 11.375 
L 48.6875 2.484375 
Q 43.84375 0.53125 38.6875 -0.4375 
Q 33.546875 -1.421875 28.21875 -1.421875 
Q 16.84375 -1.421875 10.71875 4.015625 
Q 4.59375 9.46875 4.59375 19.484375 
Q 4.59375 28.03125 7.640625 35.375 
Q 10.6875 42.71875 16.609375 48.484375 
Q 20.40625 52.09375 25.65625 54.046875 
Q 30.90625 56 36.8125 56 
Q 46.09375 56 51.578125 50.4375 
Q 57.078125 44.875 57.078125 35.5 
Q 57.078125 33.25 56.78125 30.6875 
Q 56.5 28.125 55.90625 25.203125 
z
" id="DejaVuSans-Oblique-101"/>
     </defs>
     <g transform="translate(22.9375 326.13)rotate(-90)scale(0.3 -0.3)">
      <use transform="translate(0 0.51875)" xlink:href="#DejaVuSans-Oblique-102"/>
      <use transform="translate(42.652786 38.8)scale(0.7)" xlink:href="#DejaVuSans-Oblique-101"/>
      <use transform="translate(88.453568 0.51875)" xlink:href="#DejaVuSans-40"/>
      <use transform="translate(127.46724 0.51875)" xlink:href="#DejaVuSans-Oblique-65"/>
      <use transform="translate(195.875443 0.51875)" xlink:href="#DejaVuSans-41"/>
     </g>
    </g>
   </g>
   <g id="line2d_29">
    <path clip-path="url(#p84a40a7535)" d="M 64.03125 141.360808 
L 68.041288 142.854319 
L 72.051326 147.264333 
L 76.061364 154.387859 
L 80.071402 163.91321 
L 84.081439 175.453823 
L 88.091477 188.585495 
L 92.101515 202.880902 
L 96.111553 217.937154 
L 100.121591 233.394504 
L 104.131629 248.946416 
L 108.141667 264.342476 
L 112.151705 279.386204 
L 116.161742 293.92977 
L 120.17178 307.867244 
L 124.181818 321.12753 
L 128.191856 333.667705 
L 132.201894 345.467128 
L 136.211932 356.522438 
L 140.22197 366.843435 
L 144.232008 376.449746 
L 148.242045 385.368148 
L 152.252083 393.630447 
L 156.262121 401.271782 
L 160.272159 408.32928 
L 164.282197 414.840985 
L 168.292235 420.845007 
L 172.302273 426.378853 
L 176.312311 431.478907 
L 180.322348 436.180036 
L 184.332386 440.515306 
L 188.342424 444.515785 
L 192.352462 448.210429 
L 196.3625 451.626034 
L 200.372538 454.787241 
L 204.382576 457.716586 
L 208.392614 460.434582 
L 212.402652 462.959835 
L 216.412689 465.309165 
L 220.422727 467.497749 
L 224.432765 469.539257 
L 228.442803 471.445998 
L 232.452841 473.229055 
L 236.462879 474.898414 
L 240.472917 476.463086 
L 244.482955 477.931214 
L 248.492992 479.310178 
L 252.50303 480.606675 
L 256.513068 481.826807 
L 260.523106 482.976139 
L 264.533144 484.059767 
L 268.543182 485.082362 
L 272.55322 486.048218 
L 276.563258 486.961289 
L 280.573295 487.825224 
L 284.583333 488.64339 
L 288.593371 489.4189 
L 292.603409 490.154636 
L 296.613447 490.853263 
L 300.623485 491.517252 
L 304.633523 492.148888 
L 308.643561 492.750291 
L 312.653598 493.323424 
L 316.663636 493.870102 
L 320.673674 494.392011 
L 324.683712 494.890708 
L 328.69375 495.367638 
L 332.703788 495.824138 
L 336.713826 496.261444 
L 340.723864 496.680705 
L 344.733902 497.082981 
L 348.743939 497.469257 
L 352.753977 497.840445 
L 356.764015 498.197391 
L 360.774053 498.540878 
L 364.784091 498.871637 
L 368.794129 499.190343 
L 372.804167 499.497625 
L 376.814205 499.79407 
L 380.824242 500.080223 
L 384.83428 500.356592 
L 388.844318 500.623652 
L 392.854356 500.881847 
L 396.864394 501.131592 
L 400.874432 501.373276 
L 404.88447 501.607262 
L 408.894508 501.833894 
L 412.904545 502.053493 
L 416.914583 502.266361 
L 420.924621 502.472784 
L 424.934659 502.673031 
L 428.944697 502.867356 
L 432.954735 503.055998 
L 436.964773 503.239186 
L 440.974811 503.417134 
L 444.984848 503.590046 
L 448.994886 503.758116 
L 453.004924 503.921528 
L 457.014962 504.080456 
L 461.025 504.235067 
" style="fill:none;stroke:#0000ff;stroke-linecap:square;stroke-width:2.5;"/>
   </g>
   <g id="line2d_30">
    <defs>
     <path d="M 0 -2.5 
L -0.561285 -0.772542 
L -2.377641 -0.772542 
L -0.908178 0.295085 
L -1.469463 2.022542 
L -0 0.954915 
L 1.469463 2.022542 
L 0.908178 0.295085 
L 2.377641 -0.772542 
L 0.561285 -0.772542 
z
" id="m3cccdccdb5" style="stroke:#ff0000;stroke-linejoin:bevel;"/>
    </defs>
    <g clip-path="url(#p84a40a7535)">
     <use style="fill:#ff0000;stroke:#ff0000;stroke-linejoin:bevel;" x="68.041288" xlink:href="#m3cccdccdb5" y="133.099761"/>
     <use style="fill:#ff0000;stroke:#ff0000;stroke-linejoin:bevel;" x="72.051326" xlink:href="#m3cccdccdb5" y="146.45077"/>
     <use style="fill:#ff0000;stroke:#ff0000;stroke-linejoin:bevel;" x="76.061364" xlink:href="#m3cccdccdb5" y="154.82921"/>
     <use style="fill:#ff0000;stroke:#ff0000;stroke-linejoin:bevel;" x="80.071402" xlink:href="#m3cccdccdb5" y="164.419043"/>
     <use style="fill:#ff0000;stroke:#ff0000;stroke-linejoin:bevel;" x="84.081439" xlink:href="#m3cccdccdb5" y="175.701904"/>
     <use style="fill:#ff0000;stroke:#ff0000;stroke-linejoin:bevel;" x="88.091477" xlink:href="#m3cccdccdb5" y="188.515572"/>
     <use style="fill:#ff0000;stroke:#ff0000;stroke-linejoin:bevel;" x="92.101515" xlink:href="#m3cccdccdb5" y="202.545578"/>
     <use style="fill:#ff0000;stroke:#ff0000;stroke-linejoin:bevel;" x="96.111553" xlink:href="#m3cccdccdb5" y="217.437646"/>
     <use style="fill:#ff0000;stroke:#ff0000;stroke-linejoin:bevel;" x="100.121591" xlink:href="#m3cccdccdb5" y="232.842186"/>
     <use style="fill:#ff0000;stroke:#ff0000;stroke-linejoin:bevel;" x="104.131629" xlink:href="#m3cccdccdb5" y="248.438312"/>
     <use style="fill:#ff0000;stroke:#ff0000;stroke-linejoin:bevel;" x="108.141667" xlink:href="#m3cccdccdb5" y="263.947722"/>
     <use style="fill:#ff0000;stroke:#ff0000;stroke-linejoin:bevel;" x="112.151705" xlink:href="#m3cccdccdb5" y="279.141572"/>
     <use style="fill:#ff0000;stroke:#ff0000;stroke-linejoin:bevel;" x="116.161742" xlink:href="#m3cccdccdb5" y="293.841972"/>
     <use style="fill:#ff0000;stroke:#ff0000;stroke-linejoin:bevel;" x="120.17178" xlink:href="#m3cccdccdb5" y="307.919455"/>
     <use style="fill:#ff0000;stroke:#ff0000;stroke-linejoin:bevel;" x="124.181818" xlink:href="#m3cccdccdb5" y="321.287731"/>
     <use style="fill:#ff0000;stroke:#ff0000;stroke-linejoin:bevel;" x="128.191856" xlink:href="#m3cccdccdb5" y="333.89693"/>
     <use style="fill:#ff0000;stroke:#ff0000;stroke-linejoin:bevel;" x="132.201894" xlink:href="#m3cccdccdb5" y="345.726357"/>
     <use style="fill:#ff0000;stroke:#ff0000;stroke-linejoin:bevel;" x="136.211932" xlink:href="#m3cccdccdb5" y="356.777535"/>
     <use style="fill:#ff0000;stroke:#ff0000;stroke-linejoin:bevel;" x="140.22197" xlink:href="#m3cccdccdb5" y="367.06802"/>
     <use style="fill:#ff0000;stroke:#ff0000;stroke-linejoin:bevel;" x="144.232008" xlink:href="#m3cccdccdb5" y="376.626265"/>
     <use style="fill:#ff0000;stroke:#ff0000;stroke-linejoin:bevel;" x="148.242045" xlink:href="#m3cccdccdb5" y="385.487571"/>
     <use style="fill:#ff0000;stroke:#ff0000;stroke-linejoin:bevel;" x="152.252083" xlink:href="#m3cccdccdb5" y="393.691072"/>
     <use style="fill:#ff0000;stroke:#ff0000;stroke-linejoin:bevel;" x="156.262121" xlink:href="#m3cccdccdb5" y="401.277581"/>
     <use style="fill:#ff0000;stroke:#ff0000;stroke-linejoin:bevel;" x="160.272159" xlink:href="#m3cccdccdb5" y="408.288126"/>
     <use style="fill:#ff0000;stroke:#ff0000;stroke-linejoin:bevel;" x="164.282197" xlink:href="#m3cccdccdb5" y="414.762994"/>
     <use style="fill:#ff0000;stroke:#ff0000;stroke-linejoin:bevel;" x="168.292235" xlink:href="#m3cccdccdb5" y="420.741139"/>
     <use style="fill:#ff0000;stroke:#ff0000;stroke-linejoin:bevel;" x="172.302273" xlink:href="#m3cccdccdb5" y="426.259826"/>
     <use style="fill:#ff0000;stroke:#ff0000;stroke-linejoin:bevel;" x="176.312311" xlink:href="#m3cccdccdb5" y="431.354427"/>
     <use style="fill:#ff0000;stroke:#ff0000;stroke-linejoin:bevel;" x="180.322348" xlink:href="#m3cccdccdb5" y="436.058317"/>
     <use style="fill:#ff0000;stroke:#ff0000;stroke-linejoin:bevel;" x="184.332386" xlink:href="#m3cccdccdb5" y="440.402828"/>
     <use style="fill:#ff0000;stroke:#ff0000;stroke-linejoin:bevel;" x="188.342424" xlink:href="#m3cccdccdb5" y="444.417238"/>
     <use style="fill:#ff0000;stroke:#ff0000;stroke-linejoin:bevel;" x="192.352462" xlink:href="#m3cccdccdb5" y="448.128797"/>
     <use style="fill:#ff0000;stroke:#ff0000;stroke-linejoin:bevel;" x="196.3625" xlink:href="#m3cccdccdb5" y="451.562768"/>
     <use style="fill:#ff0000;stroke:#ff0000;stroke-linejoin:bevel;" x="200.372538" xlink:href="#m3cccdccdb5" y="454.742486"/>
     <use style="fill:#ff0000;stroke:#ff0000;stroke-linejoin:bevel;" x="204.382576" xlink:href="#m3cccdccdb5" y="457.689433"/>
     <use style="fill:#ff0000;stroke:#ff0000;stroke-linejoin:bevel;" x="208.392614" xlink:href="#m3cccdccdb5" y="460.423329"/>
     <use style="fill:#ff0000;stroke:#ff0000;stroke-linejoin:bevel;" x="212.402652" xlink:href="#m3cccdccdb5" y="462.962229"/>
     <use style="fill:#ff0000;stroke:#ff0000;stroke-linejoin:bevel;" x="216.412689" xlink:href="#m3cccdccdb5" y="465.322626"/>
     <use style="fill:#ff0000;stroke:#ff0000;stroke-linejoin:bevel;" x="220.422727" xlink:href="#m3cccdccdb5" y="467.51956"/>
     <use style="fill:#ff0000;stroke:#ff0000;stroke-linejoin:bevel;" x="224.432765" xlink:href="#m3cccdccdb5" y="469.566727"/>
     <use style="fill:#ff0000;stroke:#ff0000;stroke-linejoin:bevel;" x="228.442803" xlink:href="#m3cccdccdb5" y="471.476586"/>
     <use style="fill:#ff0000;stroke:#ff0000;stroke-linejoin:bevel;" x="232.452841" xlink:href="#m3cccdccdb5" y="473.260466"/>
     <use style="fill:#ff0000;stroke:#ff0000;stroke-linejoin:bevel;" x="236.462879" xlink:href="#m3cccdccdb5" y="474.928662"/>
     <use style="fill:#ff0000;stroke:#ff0000;stroke-linejoin:bevel;" x="240.472917" xlink:href="#m3cccdccdb5" y="476.490529"/>
     <use style="fill:#ff0000;stroke:#ff0000;stroke-linejoin:bevel;" x="244.482955" xlink:href="#m3cccdccdb5" y="477.954573"/>
     <use style="fill:#ff0000;stroke:#ff0000;stroke-linejoin:bevel;" x="248.492992" xlink:href="#m3cccdccdb5" y="479.328528"/>
     <use style="fill:#ff0000;stroke:#ff0000;stroke-linejoin:bevel;" x="252.50303" xlink:href="#m3cccdccdb5" y="480.619429"/>
     <use style="fill:#ff0000;stroke:#ff0000;stroke-linejoin:bevel;" x="256.513068" xlink:href="#m3cccdccdb5" y="481.833682"/>
     <use style="fill:#ff0000;stroke:#ff0000;stroke-linejoin:bevel;" x="260.523106" xlink:href="#m3cccdccdb5" y="482.977123"/>
     <use style="fill:#ff0000;stroke:#ff0000;stroke-linejoin:bevel;" x="264.533144" xlink:href="#m3cccdccdb5" y="484.055074"/>
     <use style="fill:#ff0000;stroke:#ff0000;stroke-linejoin:bevel;" x="268.543182" xlink:href="#m3cccdccdb5" y="485.072389"/>
     <use style="fill:#ff0000;stroke:#ff0000;stroke-linejoin:bevel;" x="272.55322" xlink:href="#m3cccdccdb5" y="486.033506"/>
     <use style="fill:#ff0000;stroke:#ff0000;stroke-linejoin:bevel;" x="276.563258" xlink:href="#m3cccdccdb5" y="486.94248"/>
     <use style="fill:#ff0000;stroke:#ff0000;stroke-linejoin:bevel;" x="280.573295" xlink:href="#m3cccdccdb5" y="487.80302"/>
     <use style="fill:#ff0000;stroke:#ff0000;stroke-linejoin:bevel;" x="284.583333" xlink:href="#m3cccdccdb5" y="488.618526"/>
     <use style="fill:#ff0000;stroke:#ff0000;stroke-linejoin:bevel;" x="288.593371" xlink:href="#m3cccdccdb5" y="489.392114"/>
     <use style="fill:#ff0000;stroke:#ff0000;stroke-linejoin:bevel;" x="292.603409" xlink:href="#m3cccdccdb5" y="490.126644"/>
     <use style="fill:#ff0000;stroke:#ff0000;stroke-linejoin:bevel;" x="296.613447" xlink:href="#m3cccdccdb5" y="490.82474"/>
     <use style="fill:#ff0000;stroke:#ff0000;stroke-linejoin:bevel;" x="300.623485" xlink:href="#m3cccdccdb5" y="491.488819"/>
     <use style="fill:#ff0000;stroke:#ff0000;stroke-linejoin:bevel;" x="304.633523" xlink:href="#m3cccdccdb5" y="492.121102"/>
     <use style="fill:#ff0000;stroke:#ff0000;stroke-linejoin:bevel;" x="308.643561" xlink:href="#m3cccdccdb5" y="492.723637"/>
     <use style="fill:#ff0000;stroke:#ff0000;stroke-linejoin:bevel;" x="312.653598" xlink:href="#m3cccdccdb5" y="493.29831"/>
     <use style="fill:#ff0000;stroke:#ff0000;stroke-linejoin:bevel;" x="316.663636" xlink:href="#m3cccdccdb5" y="493.846864"/>
     <use style="fill:#ff0000;stroke:#ff0000;stroke-linejoin:bevel;" x="320.673674" xlink:href="#m3cccdccdb5" y="494.370908"/>
     <use style="fill:#ff0000;stroke:#ff0000;stroke-linejoin:bevel;" x="324.683712" xlink:href="#m3cccdccdb5" y="494.871931"/>
     <use style="fill:#ff0000;stroke:#ff0000;stroke-linejoin:bevel;" x="328.69375" xlink:href="#m3cccdccdb5" y="495.35131"/>
     <use style="fill:#ff0000;stroke:#ff0000;stroke-linejoin:bevel;" x="332.703788" xlink:href="#m3cccdccdb5" y="495.810323"/>
     <use style="fill:#ff0000;stroke:#ff0000;stroke-linejoin:bevel;" x="336.713826" xlink:href="#m3cccdccdb5" y="496.250151"/>
     <use style="fill:#ff0000;stroke:#ff0000;stroke-linejoin:bevel;" x="340.723864" xlink:href="#m3cccdccdb5" y="496.671896"/>
     <use style="fill:#ff0000;stroke:#ff0000;stroke-linejoin:bevel;" x="344.733902" xlink:href="#m3cccdccdb5" y="497.076578"/>
     <use style="fill:#ff0000;stroke:#ff0000;stroke-linejoin:bevel;" x="348.743939" xlink:href="#m3cccdccdb5" y="497.465147"/>
     <use style="fill:#ff0000;stroke:#ff0000;stroke-linejoin:bevel;" x="352.753977" xlink:href="#m3cccdccdb5" y="497.838487"/>
     <use style="fill:#ff0000;stroke:#ff0000;stroke-linejoin:bevel;" x="356.764015" xlink:href="#m3cccdccdb5" y="498.197424"/>
     <use style="fill:#ff0000;stroke:#ff0000;stroke-linejoin:bevel;" x="360.774053" xlink:href="#m3cccdccdb5" y="498.542724"/>
     <use style="fill:#ff0000;stroke:#ff0000;stroke-linejoin:bevel;" x="364.784091" xlink:href="#m3cccdccdb5" y="498.875106"/>
     <use style="fill:#ff0000;stroke:#ff0000;stroke-linejoin:bevel;" x="368.794129" xlink:href="#m3cccdccdb5" y="499.195241"/>
     <use style="fill:#ff0000;stroke:#ff0000;stroke-linejoin:bevel;" x="372.804167" xlink:href="#m3cccdccdb5" y="499.503754"/>
     <use style="fill:#ff0000;stroke:#ff0000;stroke-linejoin:bevel;" x="376.814205" xlink:href="#m3cccdccdb5" y="499.801234"/>
     <use style="fill:#ff0000;stroke:#ff0000;stroke-linejoin:bevel;" x="380.824242" xlink:href="#m3cccdccdb5" y="500.088229"/>
     <use style="fill:#ff0000;stroke:#ff0000;stroke-linejoin:bevel;" x="384.83428" xlink:href="#m3cccdccdb5" y="500.365254"/>
     <use style="fill:#ff0000;stroke:#ff0000;stroke-linejoin:bevel;" x="388.844318" xlink:href="#m3cccdccdb5" y="500.632794"/>
     <use style="fill:#ff0000;stroke:#ff0000;stroke-linejoin:bevel;" x="392.854356" xlink:href="#m3cccdccdb5" y="500.891301"/>
     <use style="fill:#ff0000;stroke:#ff0000;stroke-linejoin:bevel;" x="396.864394" xlink:href="#m3cccdccdb5" y="501.141203"/>
     <use style="fill:#ff0000;stroke:#ff0000;stroke-linejoin:bevel;" x="400.874432" xlink:href="#m3cccdccdb5" y="501.382901"/>
     <use style="fill:#ff0000;stroke:#ff0000;stroke-linejoin:bevel;" x="404.88447" xlink:href="#m3cccdccdb5" y="501.616771"/>
     <use style="fill:#ff0000;stroke:#ff0000;stroke-linejoin:bevel;" x="408.894508" xlink:href="#m3cccdccdb5" y="501.843169"/>
     <use style="fill:#ff0000;stroke:#ff0000;stroke-linejoin:bevel;" x="412.904545" xlink:href="#m3cccdccdb5" y="502.06243"/>
     <use style="fill:#ff0000;stroke:#ff0000;stroke-linejoin:bevel;" x="416.914583" xlink:href="#m3cccdccdb5" y="502.27487"/>
     <use style="fill:#ff0000;stroke:#ff0000;stroke-linejoin:bevel;" x="420.924621" xlink:href="#m3cccdccdb5" y="502.480787"/>
     <use style="fill:#ff0000;stroke:#ff0000;stroke-linejoin:bevel;" x="424.934659" xlink:href="#m3cccdccdb5" y="502.680461"/>
     <use style="fill:#ff0000;stroke:#ff0000;stroke-linejoin:bevel;" x="428.944697" xlink:href="#m3cccdccdb5" y="502.87416"/>
     <use style="fill:#ff0000;stroke:#ff0000;stroke-linejoin:bevel;" x="432.954735" xlink:href="#m3cccdccdb5" y="503.062134"/>
     <use style="fill:#ff0000;stroke:#ff0000;stroke-linejoin:bevel;" x="436.964773" xlink:href="#m3cccdccdb5" y="503.244621"/>
     <use style="fill:#ff0000;stroke:#ff0000;stroke-linejoin:bevel;" x="440.974811" xlink:href="#m3cccdccdb5" y="503.421847"/>
     <use style="fill:#ff0000;stroke:#ff0000;stroke-linejoin:bevel;" x="444.984848" xlink:href="#m3cccdccdb5" y="503.594024"/>
     <use style="fill:#ff0000;stroke:#ff0000;stroke-linejoin:bevel;" x="448.994886" xlink:href="#m3cccdccdb5" y="503.761354"/>
     <use style="fill:#ff0000;stroke:#ff0000;stroke-linejoin:bevel;" x="453.004924" xlink:href="#m3cccdccdb5" y="503.92403"/>
     <use style="fill:#ff0000;stroke:#ff0000;stroke-linejoin:bevel;" x="457.014962" xlink:href="#m3cccdccdb5" y="504.082232"/>
     <use style="fill:#ff0000;stroke:#ff0000;stroke-linejoin:bevel;" x="461.025" xlink:href="#m3cccdccdb5" y="504.236134"/>
    </g>
   </g>
   <g id="patch_3">
    <path d="M 64.03125 512.64 
L 64.03125 69.12 
" style="fill:none;stroke:#000000;stroke-linecap:square;stroke-linejoin:miter;stroke-width:0.8;"/>
   </g>
   <g id="patch_4">
    <path d="M 461.025 512.64 
L 461.025 69.12 
" style="fill:none;stroke:#000000;stroke-linecap:square;stroke-linejoin:miter;stroke-width:0.8;"/>
   </g>
   <g id="patch_5">
    <path d="M 64.03125 512.64 
L 461.025 512.64 
" style="fill:none;stroke:#000000;stroke-linecap:square;stroke-linejoin:miter;stroke-width:0.8;"/>
   </g>
   <g id="patch_6">
    <path d="M 64.03125 69.12 
L 461.025 69.12 
" style="fill:none;stroke:#000000;stroke-linecap:square;stroke-linejoin:miter;stroke-width:0.8;"/>
   </g>
   <g id="text_17">
    <!-- Carbone -->
    <defs>
     <path d="M 64.40625 67.28125 
L 64.40625 56.890625 
Q 59.421875 61.53125 53.78125 63.8125 
Q 48.140625 66.109375 41.796875 66.109375 
Q 29.296875 66.109375 22.65625 58.46875 
Q 16.015625 50.828125 16.015625 36.375 
Q 16.015625 21.96875 22.65625 14.328125 
Q 29.296875 6.6875 41.796875 6.6875 
Q 48.140625 6.6875 53.78125 8.984375 
Q 59.421875 11.28125 64.40625 15.921875 
L 64.40625 5.609375 
Q 59.234375 2.09375 53.4375 0.328125 
Q 47.65625 -1.421875 41.21875 -1.421875 
Q 24.65625 -1.421875 15.125 8.703125 
Q 5.609375 18.84375 5.609375 36.375 
Q 5.609375 53.953125 15.125 64.078125 
Q 24.65625 74.21875 41.21875 74.21875 
Q 47.75 74.21875 53.53125 72.484375 
Q 59.328125 70.75 64.40625 67.28125 
z
" id="DejaVuSans-67"/>
     <path d="M 34.28125 27.484375 
Q 23.390625 27.484375 19.1875 25 
Q 14.984375 22.515625 14.984375 16.5 
Q 14.984375 11.71875 18.140625 8.90625 
Q 21.296875 6.109375 26.703125 6.109375 
Q 34.1875 6.109375 38.703125 11.40625 
Q 43.21875 16.703125 43.21875 25.484375 
L 43.21875 27.484375 
z
M 52.203125 31.203125 
L 52.203125 0 
L 43.21875 0 
L 43.21875 8.296875 
Q 40.140625 3.328125 35.546875 0.953125 
Q 30.953125 -1.421875 24.3125 -1.421875 
Q 15.921875 -1.421875 10.953125 3.296875 
Q 6 8.015625 6 15.921875 
Q 6 25.140625 12.171875 29.828125 
Q 18.359375 34.515625 30.609375 34.515625 
L 43.21875 34.515625 
L 43.21875 35.40625 
Q 43.21875 41.609375 39.140625 45 
Q 35.0625 48.390625 27.6875 48.390625 
Q 23 48.390625 18.546875 47.265625 
Q 14.109375 46.140625 10.015625 43.890625 
L 10.015625 52.203125 
Q 14.9375 54.109375 19.578125 55.046875 
Q 24.21875 56 28.609375 56 
Q 40.484375 56 46.34375 49.84375 
Q 52.203125 43.703125 52.203125 31.203125 
z
" id="DejaVuSans-97"/>
     <path d="M 41.109375 46.296875 
Q 39.59375 47.171875 37.8125 47.578125 
Q 36.03125 48 33.890625 48 
Q 26.265625 48 22.1875 43.046875 
Q 18.109375 38.09375 18.109375 28.8125 
L 18.109375 0 
L 9.078125 0 
L 9.078125 54.6875 
L 18.109375 54.6875 
L 18.109375 46.1875 
Q 20.953125 51.171875 25.484375 53.578125 
Q 30.03125 56 36.53125 56 
Q 37.453125 56 38.578125 55.875 
Q 39.703125 55.765625 41.0625 55.515625 
z
" id="DejaVuSans-114"/>
     <path d="M 48.6875 27.296875 
Q 48.6875 37.203125 44.609375 42.84375 
Q 40.53125 48.484375 33.40625 48.484375 
Q 26.265625 48.484375 22.1875 42.84375 
Q 18.109375 37.203125 18.109375 27.296875 
Q 18.109375 17.390625 22.1875 11.75 
Q 26.265625 6.109375 33.40625 6.109375 
Q 40.53125 6.109375 44.609375 11.75 
Q 48.6875 17.390625 48.6875 27.296875 
z
M 18.109375 46.390625 
Q 20.953125 51.265625 25.265625 53.625 
Q 29.59375 56 35.59375 56 
Q 45.5625 56 51.78125 48.09375 
Q 58.015625 40.1875 58.015625 27.296875 
Q 58.015625 14.40625 51.78125 6.484375 
Q 45.5625 -1.421875 35.59375 -1.421875 
Q 29.59375 -1.421875 25.265625 0.953125 
Q 20.953125 3.328125 18.109375 8.203125 
L 18.109375 0 
L 9.078125 0 
L 9.078125 75.984375 
L 18.109375 75.984375 
z
" id="DejaVuSans-98"/>
     <path d="M 30.609375 48.390625 
Q 23.390625 48.390625 19.1875 42.75 
Q 14.984375 37.109375 14.984375 27.296875 
Q 14.984375 17.484375 19.15625 11.84375 
Q 23.34375 6.203125 30.609375 6.203125 
Q 37.796875 6.203125 41.984375 11.859375 
Q 46.1875 17.53125 46.1875 27.296875 
Q 46.1875 37.015625 41.984375 42.703125 
Q 37.796875 48.390625 30.609375 48.390625 
z
M 30.609375 56 
Q 42.328125 56 49.015625 48.375 
Q 55.71875 40.765625 55.71875 27.296875 
Q 55.71875 13.875 49.015625 6.21875 
Q 42.328125 -1.421875 30.609375 -1.421875 
Q 18.84375 -1.421875 12.171875 6.21875 
Q 5.515625 13.875 5.515625 27.296875 
Q 5.515625 40.765625 12.171875 48.375 
Q 18.84375 56 30.609375 56 
z
" id="DejaVuSans-111"/>
     <path d="M 54.890625 33.015625 
L 54.890625 0 
L 45.90625 0 
L 45.90625 32.71875 
Q 45.90625 40.484375 42.875 44.328125 
Q 39.84375 48.1875 33.796875 48.1875 
Q 26.515625 48.1875 22.3125 43.546875 
Q 18.109375 38.921875 18.109375 30.90625 
L 18.109375 0 
L 9.078125 0 
L 9.078125 54.6875 
L 18.109375 54.6875 
L 18.109375 46.1875 
Q 21.34375 51.125 25.703125 53.5625 
Q 30.078125 56 35.796875 56 
Q 45.21875 56 50.046875 50.171875 
Q 54.890625 44.34375 54.890625 33.015625 
z
" id="DejaVuSans-110"/>
     <path d="M 56.203125 29.59375 
L 56.203125 25.203125 
L 14.890625 25.203125 
Q 15.484375 15.921875 20.484375 11.0625 
Q 25.484375 6.203125 34.421875 6.203125 
Q 39.59375 6.203125 44.453125 7.46875 
Q 49.3125 8.734375 54.109375 11.28125 
L 54.109375 2.78125 
Q 49.265625 0.734375 44.1875 -0.34375 
Q 39.109375 -1.421875 33.890625 -1.421875 
Q 20.796875 -1.421875 13.15625 6.1875 
Q 5.515625 13.8125 5.515625 26.8125 
Q 5.515625 40.234375 12.765625 48.109375 
Q 20.015625 56 32.328125 56 
Q 43.359375 56 49.78125 48.890625 
Q 56.203125 41.796875 56.203125 29.59375 
z
M 47.21875 32.234375 
Q 47.125 39.59375 43.09375 43.984375 
Q 39.0625 48.390625 32.421875 48.390625 
Q 24.90625 48.390625 20.390625 44.140625 
Q 15.875 39.890625 15.1875 32.171875 
z
" id="DejaVuSans-101"/>
    </defs>
    <g transform="translate(199.258594 62.880938)scale(0.3 -0.3)">
     <use xlink:href="#DejaVuSans-67"/>
     <use x="69.824219" xlink:href="#DejaVuSans-97"/>
     <use x="131.103516" xlink:href="#DejaVuSans-114"/>
     <use x="172.216797" xlink:href="#DejaVuSans-98"/>
     <use x="235.693359" xlink:href="#DejaVuSans-111"/>
     <use x="296.875" xlink:href="#DejaVuSans-110"/>
     <use x="360.253906" xlink:href="#DejaVuSans-101"/>
    </g>
   </g>
   <g id="legend_1">
    <g id="patch_7">
     <path d="M 202.775 162.510625 
L 443.525 162.510625 
Q 448.525 162.510625 448.525 157.510625 
L 448.525 86.62 
Q 448.525 81.62 443.525 81.62 
L 202.775 81.62 
Q 197.775 81.62 197.775 86.62 
L 197.775 157.510625 
Q 197.775 162.510625 202.775 162.510625 
z
" style="fill:#ffffff;opacity:0.8;stroke:#cccccc;stroke-linejoin:miter;"/>
    </g>
    <g id="line2d_31">
     <path d="M 207.775 101.866094 
L 257.775 101.866094 
" style="fill:none;stroke:#0000ff;stroke-linecap:square;stroke-width:2.5;"/>
    </g>
    <g id="line2d_32"/>
    <g id="text_18">
     <!-- $Gauss-fit$ -->
     <defs>
      <path d="M 54.59375 10.890625 
L 58.40625 29.984375 
L 42.1875 29.984375 
L 43.703125 38.09375 
L 69.578125 38.09375 
L 63.28125 6 
Q 56.78125 2.4375 49.109375 0.5 
Q 41.453125 -1.421875 33.6875 -1.421875 
Q 19.96875 -1.421875 12.234375 6.1875 
Q 4.5 13.8125 4.5 27.390625 
Q 4.5 38.671875 9.203125 48.84375 
Q 13.921875 59.03125 22.21875 65.828125 
Q 27.4375 70.0625 33.640625 72.140625 
Q 39.84375 74.21875 47.40625 74.21875 
Q 54.25 74.21875 60.515625 72.484375 
Q 66.796875 70.75 72.515625 67.28125 
L 70.515625 56.78125 
Q 66.109375 61.375 60.203125 63.796875 
Q 54.296875 66.21875 47.609375 66.21875 
Q 39.84375 66.21875 33.9375 63.25 
Q 28.03125 60.296875 23.390625 54.109375 
Q 19.4375 48.828125 17.15625 41.671875 
Q 14.890625 34.515625 14.890625 27.09375 
Q 14.890625 16.890625 20.109375 11.734375 
Q 25.34375 6.59375 35.6875 6.59375 
Q 40.875 6.59375 45.703125 7.6875 
Q 50.53125 8.796875 54.59375 10.890625 
z
" id="DejaVuSans-Oblique-71"/>
      <path d="M 53.71875 31.203125 
L 47.609375 0 
L 38.625 0 
L 40.28125 8.296875 
Q 36.328125 3.421875 31.265625 1 
Q 26.21875 -1.421875 20.015625 -1.421875 
Q 13.03125 -1.421875 8.5625 2.84375 
Q 4.109375 7.125 4.109375 13.8125 
Q 4.109375 23.390625 11.75 28.953125 
Q 19.390625 34.515625 32.8125 34.515625 
L 45.3125 34.515625 
L 45.796875 36.921875 
Q 45.90625 37.3125 45.953125 37.765625 
Q 46 38.234375 46 39.203125 
Q 46 43.5625 42.453125 45.96875 
Q 38.921875 48.390625 32.515625 48.390625 
Q 28.125 48.390625 23.5 47.265625 
Q 18.890625 46.140625 14.015625 43.890625 
L 15.578125 52.203125 
Q 20.65625 54.109375 25.515625 55.046875 
Q 30.375 56 34.90625 56 
Q 44.578125 56 49.625 51.796875 
Q 54.6875 47.609375 54.6875 39.59375 
Q 54.6875 37.984375 54.4375 35.8125 
Q 54.203125 33.640625 53.71875 31.203125 
z
M 44 27.484375 
L 35.015625 27.484375 
Q 23.96875 27.484375 18.671875 24.53125 
Q 13.375 21.578125 13.375 15.375 
Q 13.375 11.078125 16.078125 8.640625 
Q 18.796875 6.203125 23.578125 6.203125 
Q 30.90625 6.203125 36.375 11.453125 
Q 41.84375 16.703125 43.609375 25.484375 
z
" id="DejaVuSans-Oblique-97"/>
      <path d="M 6.6875 21.6875 
L 13.09375 54.6875 
L 22.125 54.6875 
L 15.71875 22.015625 
Q 15.234375 19.625 15.015625 17.921875 
Q 14.796875 16.21875 14.796875 15.09375 
Q 14.796875 10.9375 17.328125 8.65625 
Q 19.875 6.390625 24.515625 6.390625 
Q 31.734375 6.390625 37 11.265625 
Q 42.28125 16.15625 43.890625 24.421875 
L 49.90625 54.6875 
L 58.890625 54.6875 
L 48.296875 0 
L 39.3125 0 
L 41.109375 8.59375 
Q 37.3125 3.8125 32.0625 1.1875 
Q 26.8125 -1.421875 20.90625 -1.421875 
Q 13.71875 -1.421875 9.71875 2.515625 
Q 5.71875 6.453125 5.71875 13.484375 
Q 5.71875 14.9375 5.953125 17.140625 
Q 6.203125 19.34375 6.6875 21.6875 
z
" id="DejaVuSans-Oblique-117"/>
      <path d="M 50 53.078125 
L 48.296875 44.578125 
Q 44.734375 46.53125 40.765625 47.5 
Q 36.8125 48.484375 32.625 48.484375 
Q 25.53125 48.484375 21.453125 46.0625 
Q 17.390625 43.65625 17.390625 39.5 
Q 17.390625 34.671875 26.859375 32.078125 
Q 27.59375 31.890625 27.9375 31.78125 
L 30.8125 30.90625 
Q 39.796875 28.421875 42.796875 25.6875 
Q 45.796875 22.953125 45.796875 18.21875 
Q 45.796875 9.515625 38.890625 4.046875 
Q 31.984375 -1.421875 20.796875 -1.421875 
Q 16.453125 -1.421875 11.671875 -0.578125 
Q 6.890625 0.25 1.125 2 
L 2.875 11.28125 
Q 7.8125 8.734375 12.59375 7.421875 
Q 17.390625 6.109375 21.78125 6.109375 
Q 28.375 6.109375 32.5 8.9375 
Q 36.625 11.765625 36.625 16.109375 
Q 36.625 20.796875 25.78125 23.6875 
L 24.859375 23.921875 
L 21.78125 24.703125 
Q 14.9375 26.515625 11.765625 29.46875 
Q 8.59375 32.421875 8.59375 37.015625 
Q 8.59375 45.75 15.15625 50.875 
Q 21.734375 56 33.015625 56 
Q 37.453125 56 41.671875 55.265625 
Q 45.90625 54.546875 50 53.078125 
z
" id="DejaVuSans-Oblique-115"/>
      <path d="M 18.3125 75.984375 
L 27.296875 75.984375 
L 25.09375 64.59375 
L 16.109375 64.59375 
z
M 14.203125 54.6875 
L 23.1875 54.6875 
L 12.5 0 
L 3.515625 0 
z
" id="DejaVuSans-Oblique-105"/>
      <path d="M 42.28125 54.6875 
L 40.921875 47.703125 
L 23 47.703125 
L 17.1875 18.015625 
Q 16.890625 16.359375 16.75 15.234375 
Q 16.609375 14.109375 16.609375 13.484375 
Q 16.609375 10.359375 18.484375 8.9375 
Q 20.359375 7.515625 24.515625 7.515625 
L 33.59375 7.515625 
L 32.078125 0 
L 23.484375 0 
Q 15.484375 0 11.546875 3.125 
Q 7.625 6.25 7.625 12.59375 
Q 7.625 13.71875 7.765625 15.0625 
Q 7.90625 16.40625 8.203125 18.015625 
L 14.015625 47.703125 
L 6.390625 47.703125 
L 7.8125 54.6875 
L 15.28125 54.6875 
L 18.3125 70.21875 
L 27.296875 70.21875 
L 24.3125 54.6875 
z
" id="DejaVuSans-Oblique-116"/>
     </defs>
     <g transform="translate(277.775 110.616094)scale(0.25 -0.25)">
      <use transform="translate(0 0.015625)" xlink:href="#DejaVuSans-Oblique-71"/>
      <use transform="translate(77.490234 0.015625)" xlink:href="#DejaVuSans-Oblique-97"/>
      <use transform="translate(138.769531 0.015625)" xlink:href="#DejaVuSans-Oblique-117"/>
      <use transform="translate(202.148438 0.015625)" xlink:href="#DejaVuSans-Oblique-115"/>
      <use transform="translate(254.248047 0.015625)" xlink:href="#DejaVuSans-Oblique-115"/>
      <use transform="translate(325.830078 0.015625)" xlink:href="#DejaVuSans-8722"/>
      <use transform="translate(429.101562 0.015625)" xlink:href="#DejaVuSans-Oblique-102"/>
      <use transform="translate(464.306641 0.015625)" xlink:href="#DejaVuSans-Oblique-105"/>
      <use transform="translate(492.089844 0.015625)" xlink:href="#DejaVuSans-Oblique-116"/>
     </g>
    </g>
    <g id="line2d_33"/>
    <g id="line2d_34">
     <g>
      <use style="fill:#ff0000;stroke:#ff0000;stroke-linejoin:bevel;" x="232.775" xlink:href="#m3cccdccdb5" y="138.561406"/>
     </g>
    </g>
    <g id="text_19">
     <!-- $Mott-Bethe$ -->
     <defs>
      <path d="M 16.890625 72.90625 
L 31.6875 72.90625 
L 40.1875 23.78125 
L 68.40625 72.90625 
L 83.59375 72.90625 
L 69.390625 0 
L 59.8125 0 
L 72.21875 63.921875 
L 43.609375 14.015625 
L 33.984375 14.015625 
L 24.703125 64.109375 
L 12.3125 0 
L 2.6875 0 
z
" id="DejaVuSans-Oblique-77"/>
      <path d="M 25.390625 -1.421875 
Q 15.765625 -1.421875 10.171875 4.515625 
Q 4.59375 10.453125 4.59375 20.703125 
Q 4.59375 26.65625 6.515625 32.828125 
Q 8.453125 39.015625 11.53125 43.21875 
Q 16.359375 49.75 22.3125 52.875 
Q 28.265625 56 35.796875 56 
Q 45.125 56 50.859375 50.1875 
Q 56.59375 44.390625 56.59375 35.015625 
Q 56.59375 28.515625 54.6875 22.0625 
Q 52.78125 15.625 49.703125 11.375 
Q 44.921875 4.828125 38.96875 1.703125 
Q 33.015625 -1.421875 25.390625 -1.421875 
z
M 13.921875 21 
Q 13.921875 13.578125 17.015625 9.890625 
Q 20.125 6.203125 26.421875 6.203125 
Q 35.453125 6.203125 41.375 14.078125 
Q 47.3125 21.96875 47.3125 34.078125 
Q 47.3125 41.15625 44.140625 44.765625 
Q 40.96875 48.390625 34.8125 48.390625 
Q 29.734375 48.390625 25.78125 46.015625 
Q 21.828125 43.65625 18.703125 38.8125 
Q 16.40625 35.203125 15.15625 30.5625 
Q 13.921875 25.921875 13.921875 21 
z
" id="DejaVuSans-Oblique-111"/>
      <path d="M 16.890625 72.90625 
L 42.09375 72.90625 
Q 52.34375 72.90625 57.421875 69.09375 
Q 62.5 65.28125 62.5 57.625 
Q 62.5 50.59375 58.125 45.484375 
Q 53.765625 40.375 46.6875 39.3125 
Q 52.734375 37.9375 55.765625 34.078125 
Q 58.796875 30.21875 58.796875 23.78125 
Q 58.796875 12.796875 50.65625 6.390625 
Q 42.53125 0 28.421875 0 
L 2.6875 0 
z
M 19.28125 34.8125 
L 14.109375 8.109375 
L 29.984375 8.109375 
Q 38.921875 8.109375 43.75 12.203125 
Q 48.578125 16.3125 48.578125 23.78125 
Q 48.578125 29.546875 45.375 32.171875 
Q 42.1875 34.8125 35.109375 34.8125 
z
M 25.09375 64.796875 
L 20.796875 42.828125 
L 35.5 42.828125 
Q 43.359375 42.828125 47.78125 46.234375 
Q 52.203125 49.65625 52.203125 55.71875 
Q 52.203125 60.453125 49.21875 62.625 
Q 46.234375 64.796875 39.703125 64.796875 
z
" id="DejaVuSans-Oblique-66"/>
      <path d="M 55.71875 33.015625 
L 49.3125 0 
L 40.28125 0 
L 46.6875 32.671875 
Q 47.125 34.96875 47.359375 36.71875 
Q 47.609375 38.484375 47.609375 39.5 
Q 47.609375 43.609375 45.015625 45.890625 
Q 42.4375 48.1875 37.796875 48.1875 
Q 30.5625 48.1875 25.265625 43.296875 
Q 19.96875 38.421875 18.40625 30.328125 
L 12.5 0 
L 3.515625 0 
L 18.3125 75.984375 
L 27.296875 75.984375 
L 21.484375 46.09375 
Q 24.90625 50.6875 30.21875 53.34375 
Q 35.546875 56 41.40625 56 
Q 48.640625 56 52.609375 52.09375 
Q 56.59375 48.1875 56.59375 41.109375 
Q 56.59375 39.359375 56.375 37.359375 
Q 56.15625 35.359375 55.71875 33.015625 
z
" id="DejaVuSans-Oblique-104"/>
     </defs>
     <g transform="translate(277.775 147.311406)scale(0.25 -0.25)">
      <use transform="translate(0 0.015625)" xlink:href="#DejaVuSans-Oblique-77"/>
      <use transform="translate(86.279297 0.015625)" xlink:href="#DejaVuSans-Oblique-111"/>
      <use transform="translate(147.460938 0.015625)" xlink:href="#DejaVuSans-Oblique-116"/>
      <use transform="translate(186.669922 0.015625)" xlink:href="#DejaVuSans-Oblique-116"/>
      <use transform="translate(245.361328 0.015625)" xlink:href="#DejaVuSans-8722"/>
      <use transform="translate(348.632812 0.015625)" xlink:href="#DejaVuSans-Oblique-66"/>
      <use transform="translate(417.236328 0.015625)" xlink:href="#DejaVuSans-Oblique-101"/>
      <use transform="translate(478.759766 0.015625)" xlink:href="#DejaVuSans-Oblique-116"/>
      <use transform="translate(517.96875 0.015625)" xlink:href="#DejaVuSans-Oblique-104"/>
      <use transform="translate(581.347656 0.015625)" xlink:href="#DejaVuSans-Oblique-101"/>
     </g>
    </g>
   </g>
  </g>
 </g>
 <defs>
  <clipPath id="p84a40a7535">
   <rect height="443.52" width="396.99375" x="64.03125" y="69.12"/>
  </clipPath>
 </defs>
</svg>
