<?xml version="1.0" encoding="UTF-8" standalone="no"?>
<!-- Created with Inkscape (http://www.inkscape.org/) -->
<svg xmlns:dc="http://purl.org/dc/elements/1.1/" xmlns:cc="http://creativecommons.org/ns#" xmlns:rdf="http://www.w3.org/1999/02/22-rdf-syntax-ns#" xmlns:svg="http://www.w3.org/2000/svg" xmlns="http://www.w3.org/2000/svg" xmlns:sodipodi="http://sodipodi.sourceforge.net/DTD/sodipodi-0.dtd" xmlns:inkscape="http://www.inkscape.org/namespaces/inkscape" width="152.57759" height="176.01321" id="svg5822" version="1.1" inkscape:version="0.48.2 r9819" sodipodi:docname="Hexagonal_latticeR.svg" inkscape:export-filename="C:\Users\boris.averkiev\Desktop\Hexagonal_latticeFRONT.png" inkscape:export-xdpi="90" inkscape:export-ydpi="90">
  <defs id="defs5824"/>
  <sodipodi:namedview id="base" pagecolor="#ffffff" bordercolor="#666666" borderopacity="1.0" inkscape:pageopacity="0.0" inkscape:pageshadow="2" inkscape:zoom="1.979899" inkscape:cx="119.9157" inkscape:cy="52.228375" inkscape:document-units="px" inkscape:current-layer="layer1" showgrid="false" showborder="true" fit-margin-top="1" fit-margin-right="1" fit-margin-bottom="1" fit-margin-left="1" inkscape:window-width="1920" inkscape:window-height="1018" inkscape:window-x="-8" inkscape:window-y="-8" inkscape:window-maximized="1" objecttolerance="10000">
    <inkscape:grid type="xygrid" id="grid6611" empspacing="5" visible="true" enabled="true" snapvisiblegridlinesonly="true"/>
  </sodipodi:namedview>
  <metadata id="metadata5827">
    <rdf:RDF>
      <cc:Work rdf:about="">
        <dc:format>image/svg+xml</dc:format>
        <dc:type rdf:resource="http://purl.org/dc/dcmitype/StillImage"/>
        <dc:title/>
      </cc:Work>
    </rdf:RDF>
  </metadata>
  <g inkscape:label="Layer 1" inkscape:groupmode="layer" id="layer1" transform="translate(335.58903,-182.7735)">
    <rect style="fill:#000000;fill-opacity:0;fill-rule:evenodd;stroke:#c0c0c0;stroke-width:0.75;stroke-linejoin:round;stroke-miterlimit:4;stroke-opacity:1;stroke-dasharray:none" id="rect3970-3-5-8-1-6-6-9-2-5-9-1" width="71.870331" height="116.92113" x="-287.15402" y="187.41512" inkscape:export-filename="C:\Users\boris.averkiev\Desktop\Boris\Symmetry\HexagonalR.png" inkscape:export-xdpi="90" inkscape:export-ydpi="90"/>
    <rect style="fill:#000000;fill-opacity:0;fill-rule:evenodd;stroke:#c0c0c0;stroke-width:0.87289125;stroke-linejoin:round;stroke-miterlimit:4;stroke-opacity:1;stroke-dasharray:none" id="rect3990-21-8-1-7-3-7-1-7-2-6-4" width="37.620148" height="116.85934" x="-389.02106" y="449.61151" transform="matrix(0.73824792,0.67452947,0,1,0,0)" inkscape:export-filename="C:\Users\boris.averkiev\Desktop\Boris\Symmetry\HexagonalR.png" inkscape:export-xdpi="90" inkscape:export-ydpi="90"/>
    <path style="fill:none;stroke:#c0c0c0;stroke-width:0.75;stroke-linecap:butt;stroke-linejoin:miter;stroke-miterlimit:4;stroke-opacity:1;stroke-dasharray:none" d="m -303.12054,354.18574 87.60809,-49.45849" id="path4676-5-7-7" inkscape:connector-curvature="0"/>
    <path style="fill:none;stroke:#c0c0c0;stroke-width:0.75;stroke-linecap:butt;stroke-linejoin:miter;stroke-miterlimit:4;stroke-opacity:1;stroke-dasharray:none" d="m -286.86045,304.37438 -44.11047,25.1549 27.65845,25.15489 72.00738,0.11922 43.99126,-25.27411 -27.77768,-25.27411 z" id="path4494-5-7-7-1-6" inkscape:connector-curvature="0"/>
    <path style="fill:none;stroke:#787878;stroke-width:1.75;stroke-linecap:butt;stroke-linejoin:miter;stroke-miterlimit:4;stroke-opacity:1;stroke-dasharray:none" d="m -292.89621,242.7088 39.14341,30.93592 32.95623,-30.93592" id="path4364" inkscape:connector-curvature="0"/>
    <path style="fill:none;stroke:#787878;stroke-width:1.75;stroke-linecap:butt;stroke-linejoin:miter;stroke-miterlimit:4;stroke-opacity:1;stroke-dasharray:none" d="m -259.56118,329.7082 5.80838,-56.18975" id="path4366" inkscape:connector-curvature="0"/>
    <rect style="fill:#000000;fill-opacity:0;fill-rule:evenodd;stroke:#c0c0c0;stroke-width:0.75;stroke-linejoin:round;stroke-miterlimit:4;stroke-opacity:1;stroke-dasharray:none" id="rect3970-3-5-8-1-6-6-9-2-6-7-4-2" width="71.870331" height="116.92113" x="-259.45648" y="212.7383" inkscape:export-filename="C:\Users\boris.averkiev\Desktop\Boris\Symmetry\HexagonalR.png" inkscape:export-xdpi="90" inkscape:export-ydpi="90"/>
    <path style="fill:none;stroke:#c0c0c0;stroke-width:1.73457289;stroke-linecap:butt;stroke-linejoin:miter;stroke-miterlimit:4;stroke-opacity:1;stroke-dasharray:none" d="m -259.67068,329.32041 27.49707,25.13667" id="path4782-0-3" inkscape:connector-curvature="0"/>
    <rect style="fill:#000000;fill-opacity:0;fill-rule:evenodd;stroke:#c0c0c0;stroke-width:0.75;stroke-linejoin:round;stroke-miterlimit:4;stroke-opacity:1;stroke-dasharray:none" id="rect3970-3-5-8-1-6-6-9-0-3-6-2" width="71.870331" height="116.92113" x="-331.20892" y="212.7383" inkscape:export-filename="C:\Users\boris.averkiev\Desktop\Boris\Symmetry\HexagonalR.png" inkscape:export-xdpi="90" inkscape:export-ydpi="90"/>
    <path style="fill:none;stroke:#c0c0c0;stroke-width:0.75;stroke-linecap:butt;stroke-linejoin:miter;stroke-miterlimit:4;stroke-opacity:1;stroke-dasharray:none" d="m -286.86045,187.48262 -44.11047,25.15488 27.65845,25.15489 72.00738,0.11922 43.99126,-25.27411 -27.77768,-25.27409 z" id="path4494-5-4-8-2" inkscape:connector-curvature="0"/>
    <rect style="fill:#000000;fill-opacity:0;fill-rule:evenodd;stroke:#c0c0c0;stroke-width:0.87289125;stroke-linejoin:round;stroke-miterlimit:4;stroke-opacity:1;stroke-dasharray:none" id="rect3990-21-8-1-7-3-7-1-7-7-1-1-8" width="37.620148" height="116.85934" x="-291.59979" y="383.8981" transform="matrix(0.73824792,0.67452947,0,1,0,0)" inkscape:export-filename="C:\Users\boris.averkiev\Desktop\Boris\Symmetry\HexagonalR.png" inkscape:export-xdpi="90" inkscape:export-ydpi="90"/>
    <path style="fill:none;stroke:#c0c0c0;stroke-width:0.75;stroke-linecap:butt;stroke-linejoin:miter;stroke-miterlimit:4;stroke-opacity:1;stroke-dasharray:none" d="m -303.11925,237.64932 87.36709,-49.93278" id="path4676-7-2" inkscape:connector-curvature="0"/>
    <rect style="fill:#000000;fill-opacity:0;fill-rule:evenodd;stroke:#c0c0c0;stroke-width:0.87289125;stroke-linejoin:round;stroke-miterlimit:4;stroke-opacity:1;stroke-dasharray:none" id="rect3990-21-8-1-7-3-7-1-7-4-5-1-8-7" width="37.620148" height="116.85934" x="-448.52759" y="515.07458" transform="matrix(0.73824792,0.67452947,0,1,0,0)" inkscape:export-filename="C:\Users\boris.averkiev\Desktop\Boris\Symmetry\HexagonalR.png" inkscape:export-xdpi="90" inkscape:export-ydpi="90"/>
    <text xml:space="preserve" style="font-size:40px;font-style:normal;font-weight:normal;line-height:125%;letter-spacing:0px;word-spacing:0px;fill:#000000;fill-opacity:1;stroke:none;font-family:Sans" x="-268.82251" y="186.44194" id="text6506-3" sodipodi:linespacing="125%"><tspan sodipodi:role="line" id="tspan6508-4" x="-268.82251" y="186.44194"> </tspan></text>
    <path inkscape:connector-curvature="0" id="path3611-2-4-1-0-8-0-3" style="fill:#000000;fill-opacity:1;fill-rule:evenodd;stroke:none;stroke-width:0.75;marker-start:none;marker-end:none" d="m -294.37682,246.15053 c -1.63194,-1.03411 -2.11714,-3.19786 -1.08303,-4.82981 1.03411,-1.63194 3.19786,-2.11714 4.82981,-1.08303 1.63194,1.03411 2.11714,3.19787 1.08303,4.82981 -1.03411,1.63194 -3.19787,2.11714 -4.82981,1.08303 z"/>
    <path inkscape:connector-curvature="0" id="path3611-2-4-1-0-8-4-8-5-2" style="fill:#787878;fill-opacity:1;fill-rule:evenodd;stroke:none;stroke-width:0.75;marker-start:none;marker-end:none" d="m -255.73296,276.18851 c -1.63194,-1.03411 -2.11714,-3.19786 -1.08303,-4.82981 1.03411,-1.63194 3.19786,-2.11714 4.82981,-1.08303 1.63194,1.03411 2.11714,3.19787 1.08303,4.82981 -1.03411,1.63194 -3.19787,2.11715 -4.82981,1.08303 z"/>
    <path inkscape:connector-curvature="0" id="path3611-2-4-1-0-8-0-2-2-7" style="fill:#000000;fill-opacity:1;fill-rule:evenodd;stroke:none;stroke-width:0.75;marker-start:none;marker-end:none" d="m -222.81521,245.97827 c -1.63194,-1.03411 -2.11714,-3.19786 -1.08303,-4.82981 1.03411,-1.63194 3.19786,-2.11714 4.82981,-1.08303 1.63194,1.03411 2.11714,3.19787 1.08303,4.82981 -1.03411,1.63194 -3.19787,2.11714 -4.82981,1.08303 z"/>
    <path style="fill:none;stroke:#000000;stroke-width:1.75;stroke-linecap:butt;stroke-linejoin:round;stroke-miterlimit:4;stroke-opacity:1;stroke-dasharray:none" d="m -259.52757,212.82561 -33.03571,30.17857 -5.53572,55.53573 33.03571,-30.17859 z" id="path4139" inkscape:connector-curvature="0" sodipodi:nodetypes="ccccc"/>
    <path style="fill:none;stroke:#000000;stroke-width:1.75;stroke-linecap:butt;stroke-linejoin:round;stroke-miterlimit:4;stroke-opacity:1;stroke-dasharray:none" d="m -259.52757,212.82561 38.57143,30.17857 -5,56.07144 -39.10715,-30.7143 z" id="path4139-7" inkscape:connector-curvature="0" sodipodi:nodetypes="ccccc"/>
    <path style="fill:none;stroke:#000000;stroke-width:1.75;stroke-linecap:butt;stroke-linejoin:round;stroke-miterlimit:4;stroke-opacity:1;stroke-dasharray:none" d="m -264.97399,268.36132 38.92857,30.71429 -33.57143,30.89286 -38.57144,-31.25 z" id="path4139-7-1" inkscape:connector-curvature="0" sodipodi:nodetypes="ccccc"/>
    <rect style="fill:#000000;fill-opacity:0;fill-rule:evenodd;stroke:#c0c0c0;stroke-width:0.75;stroke-linejoin:round;stroke-miterlimit:4;stroke-opacity:1;stroke-dasharray:none" id="rect3970-1-2-7-9-2-4-9-9-8-9-1-1" width="71.870331" height="116.92113" x="-303.4252" y="237.84245" inkscape:export-filename="C:\Users\boris.averkiev\Desktop\Boris\Symmetry\HexagonalR.png" inkscape:export-xdpi="90" inkscape:export-ydpi="90"/>
    <path style="fill:none;stroke:#c0c0c0;stroke-width:0.75;stroke-linecap:butt;stroke-linejoin:miter;stroke-miterlimit:4;stroke-opacity:1;stroke-dasharray:none" d="m -331.33119,212.75248 71.87031,0 27.7837,25.16613" id="path4381-2-6-0-7-4" inkscape:connector-curvature="0" inkscape:export-filename="C:\Users\boris.averkiev\Desktop\Boris\Symmetry\HexagonalR.png" inkscape:export-xdpi="90" inkscape:export-ydpi="90"/>
    <path inkscape:connector-curvature="0" id="path3611-2-4-1-0-8-0-2-7" style="fill:#000000;fill-opacity:1;fill-rule:evenodd;stroke:none;stroke-width:0.75;marker-start:none;marker-end:none" d="m -266.98908,271.23208 c -1.63194,-1.03411 -2.11714,-3.19786 -1.08303,-4.82981 1.03411,-1.63193 3.19786,-2.11714 4.82981,-1.08303 1.63194,1.03411 2.11714,3.19788 1.08303,4.82981 -1.03411,1.63194 -3.19787,2.11714 -4.82981,1.08303 z"/>
    <path inkscape:connector-curvature="0" id="path6883-1-1-3-3-0-2" style="fill:#000000;fill-opacity:1;fill-rule:evenodd;stroke:none;stroke-width:0.75;marker-start:none;marker-end:none" d="m -256.64991,327.41563 c 1.22237,1.49614 1.00016,3.70247 -0.49599,4.92483 -1.49614,1.22236 -3.70248,1.00016 -4.92484,-0.49599 -1.22236,-1.49615 -1.00016,-3.70247 0.49599,-4.92483 1.49615,-1.22236 3.70248,-1.00016 4.92484,0.49599 z"/>
    <path inkscape:connector-curvature="0" id="path3611-2-4-1-0-8-4-8-8" style="fill:#000000;fill-opacity:1;fill-rule:evenodd;stroke:none;stroke-width:0.75;marker-start:none;marker-end:none" d="m -299.90683,301.44234 c -1.63194,-1.03411 -2.11714,-3.19786 -1.08303,-4.82981 1.03411,-1.63194 3.19786,-2.11714 4.82981,-1.08303 1.63194,1.03411 2.11714,3.19787 1.08303,4.82981 -1.03411,1.63194 -3.19787,2.11714 -4.82981,1.08303 z"/>
    <path inkscape:connector-curvature="0" id="path3611-2-4-1-0-8-4-1-4" style="fill:#000000;fill-opacity:1;fill-rule:evenodd;stroke:none;stroke-width:0.75;marker-start:none;marker-end:none" d="m -227.93345,301.69488 c -1.63194,-1.03411 -2.11714,-3.19786 -1.08303,-4.82981 1.03411,-1.63194 3.19786,-2.11714 4.82981,-1.08303 1.63194,1.03411 2.11714,3.19787 1.08303,4.82981 -1.03411,1.63194 -3.19787,2.11714 -4.82981,1.08303 z"/>
    <path inkscape:connector-curvature="0" id="path3611-42-3-0-6-7-3" style="fill:#000000;fill-opacity:1;fill-rule:evenodd;stroke:none;stroke-width:0.75;marker-start:none;marker-end:none" d="m -261.18606,215.81287 c -1.63194,-1.03411 -2.11714,-3.19786 -1.08303,-4.82981 1.03411,-1.63194 3.19786,-2.11714 4.82982,-1.08303 1.63194,1.03411 2.11714,3.19787 1.08303,4.82981 -1.03411,1.63194 -3.19788,2.11714 -4.82982,1.08303 z"/>
  </g>
</svg>