<?xml version="1.0" encoding="utf-8" standalone="no"?>
<!DOCTYPE svg PUBLIC "-//W3C//DTD SVG 1.1//EN"
  "http://www.w3.org/Graphics/SVG/1.1/DTD/svg11.dtd">
<!-- Created with matplotlib (https://matplotlib.org/) -->
<svg height="576pt" version="1.1" viewBox="0 0 1024.5 576" width="1024.5pt" xmlns="http://www.w3.org/2000/svg" xmlns:xlink="http://www.w3.org/1999/xlink">
 <defs>
  <style type="text/css">
*{stroke-linecap:butt;stroke-linejoin:round;}
  </style>
 </defs>
 <g id="figure_1">
  <g id="patch_1">
   <path d="M 0 576 
L 1024.5 576 
L 1024.5 0 
L 0 0 
z
" style="fill:#ffffff;"/>
  </g>
  <g id="axes_1">
   <g id="patch_2">
    <path d="M 128.0625 512.64 
L 922.05 512.64 
L 922.05 69.12 
L 128.0625 69.12 
z
" style="fill:#ffffff;"/>
   </g>
   <g id="matplotlib.axis_1">
    <g id="xtick_1">
     <g id="line2d_1">
      <path clip-path="url(#p437714b1fe)" d="M 164.152841 512.64 
L 164.152841 69.12 
" style="fill:none;stroke:#e6e6e6;stroke-linecap:square;stroke-width:0.8;"/>
     </g>
     <g id="line2d_2">
      <defs>
       <path d="M 0 0 
L 0 3.5 
" id="mf5ac8e83c7" style="stroke:#000000;stroke-width:0.8;"/>
      </defs>
      <g>
       <use style="stroke:#000000;stroke-width:0.8;" x="164.152841" xlink:href="#mf5ac8e83c7" y="512.64"/>
      </g>
     </g>
     <g id="text_1">
      <!-- 0 -->
      <defs>
       <path d="M 31.78125 66.40625 
Q 24.171875 66.40625 20.328125 58.90625 
Q 16.5 51.421875 16.5 36.375 
Q 16.5 21.390625 20.328125 13.890625 
Q 24.171875 6.390625 31.78125 6.390625 
Q 39.453125 6.390625 43.28125 13.890625 
Q 47.125 21.390625 47.125 36.375 
Q 47.125 51.421875 43.28125 58.90625 
Q 39.453125 66.40625 31.78125 66.40625 
z
M 31.78125 74.21875 
Q 44.046875 74.21875 50.515625 64.515625 
Q 56.984375 54.828125 56.984375 36.375 
Q 56.984375 17.96875 50.515625 8.265625 
Q 44.046875 -1.421875 31.78125 -1.421875 
Q 19.53125 -1.421875 13.0625 8.265625 
Q 6.59375 17.96875 6.59375 36.375 
Q 6.59375 54.828125 13.0625 64.515625 
Q 19.53125 74.21875 31.78125 74.21875 
z
" id="DejaVuSans-48"/>
      </defs>
      <g transform="translate(159.380966 531.037656)scale(0.15 -0.15)">
       <use xlink:href="#DejaVuSans-48"/>
      </g>
     </g>
    </g>
    <g id="xtick_2">
     <g id="line2d_3">
      <path clip-path="url(#p437714b1fe)" d="M 284.453977 512.64 
L 284.453977 69.12 
" style="fill:none;stroke:#e6e6e6;stroke-linecap:square;stroke-width:0.8;"/>
     </g>
     <g id="line2d_4">
      <g>
       <use style="stroke:#000000;stroke-width:0.8;" x="284.453977" xlink:href="#mf5ac8e83c7" y="512.64"/>
      </g>
     </g>
     <g id="text_2">
      <!-- 1 -->
      <defs>
       <path d="M 12.40625 8.296875 
L 28.515625 8.296875 
L 28.515625 63.921875 
L 10.984375 60.40625 
L 10.984375 69.390625 
L 28.421875 72.90625 
L 38.28125 72.90625 
L 38.28125 8.296875 
L 54.390625 8.296875 
L 54.390625 0 
L 12.40625 0 
z
" id="DejaVuSans-49"/>
      </defs>
      <g transform="translate(279.682102 531.037656)scale(0.15 -0.15)">
       <use xlink:href="#DejaVuSans-49"/>
      </g>
     </g>
    </g>
    <g id="xtick_3">
     <g id="line2d_5">
      <path clip-path="url(#p437714b1fe)" d="M 404.755114 512.64 
L 404.755114 69.12 
" style="fill:none;stroke:#e6e6e6;stroke-linecap:square;stroke-width:0.8;"/>
     </g>
     <g id="line2d_6">
      <g>
       <use style="stroke:#000000;stroke-width:0.8;" x="404.755114" xlink:href="#mf5ac8e83c7" y="512.64"/>
      </g>
     </g>
     <g id="text_3">
      <!-- 2 -->
      <defs>
       <path d="M 19.1875 8.296875 
L 53.609375 8.296875 
L 53.609375 0 
L 7.328125 0 
L 7.328125 8.296875 
Q 12.9375 14.109375 22.625 23.890625 
Q 32.328125 33.6875 34.8125 36.53125 
Q 39.546875 41.84375 41.421875 45.53125 
Q 43.3125 49.21875 43.3125 52.78125 
Q 43.3125 58.59375 39.234375 62.25 
Q 35.15625 65.921875 28.609375 65.921875 
Q 23.96875 65.921875 18.8125 64.3125 
Q 13.671875 62.703125 7.8125 59.421875 
L 7.8125 69.390625 
Q 13.765625 71.78125 18.9375 73 
Q 24.125 74.21875 28.421875 74.21875 
Q 39.75 74.21875 46.484375 68.546875 
Q 53.21875 62.890625 53.21875 53.421875 
Q 53.21875 48.921875 51.53125 44.890625 
Q 49.859375 40.875 45.40625 35.40625 
Q 44.1875 33.984375 37.640625 27.21875 
Q 31.109375 20.453125 19.1875 8.296875 
z
" id="DejaVuSans-50"/>
      </defs>
      <g transform="translate(399.983239 531.037656)scale(0.15 -0.15)">
       <use xlink:href="#DejaVuSans-50"/>
      </g>
     </g>
    </g>
    <g id="xtick_4">
     <g id="line2d_7">
      <path clip-path="url(#p437714b1fe)" d="M 525.05625 512.64 
L 525.05625 69.12 
" style="fill:none;stroke:#e6e6e6;stroke-linecap:square;stroke-width:0.8;"/>
     </g>
     <g id="line2d_8">
      <g>
       <use style="stroke:#000000;stroke-width:0.8;" x="525.05625" xlink:href="#mf5ac8e83c7" y="512.64"/>
      </g>
     </g>
     <g id="text_4">
      <!-- 3 -->
      <defs>
       <path d="M 40.578125 39.3125 
Q 47.65625 37.796875 51.625 33 
Q 55.609375 28.21875 55.609375 21.1875 
Q 55.609375 10.40625 48.1875 4.484375 
Q 40.765625 -1.421875 27.09375 -1.421875 
Q 22.515625 -1.421875 17.65625 -0.515625 
Q 12.796875 0.390625 7.625 2.203125 
L 7.625 11.71875 
Q 11.71875 9.328125 16.59375 8.109375 
Q 21.484375 6.890625 26.8125 6.890625 
Q 36.078125 6.890625 40.9375 10.546875 
Q 45.796875 14.203125 45.796875 21.1875 
Q 45.796875 27.640625 41.28125 31.265625 
Q 36.765625 34.90625 28.71875 34.90625 
L 20.21875 34.90625 
L 20.21875 43.015625 
L 29.109375 43.015625 
Q 36.375 43.015625 40.234375 45.921875 
Q 44.09375 48.828125 44.09375 54.296875 
Q 44.09375 59.90625 40.109375 62.90625 
Q 36.140625 65.921875 28.71875 65.921875 
Q 24.65625 65.921875 20.015625 65.03125 
Q 15.375 64.15625 9.8125 62.3125 
L 9.8125 71.09375 
Q 15.4375 72.65625 20.34375 73.4375 
Q 25.25 74.21875 29.59375 74.21875 
Q 40.828125 74.21875 47.359375 69.109375 
Q 53.90625 64.015625 53.90625 55.328125 
Q 53.90625 49.265625 50.4375 45.09375 
Q 46.96875 40.921875 40.578125 39.3125 
z
" id="DejaVuSans-51"/>
      </defs>
      <g transform="translate(520.284375 531.037656)scale(0.15 -0.15)">
       <use xlink:href="#DejaVuSans-51"/>
      </g>
     </g>
    </g>
    <g id="xtick_5">
     <g id="line2d_9">
      <path clip-path="url(#p437714b1fe)" d="M 645.357386 512.64 
L 645.357386 69.12 
" style="fill:none;stroke:#e6e6e6;stroke-linecap:square;stroke-width:0.8;"/>
     </g>
     <g id="line2d_10">
      <g>
       <use style="stroke:#000000;stroke-width:0.8;" x="645.357386" xlink:href="#mf5ac8e83c7" y="512.64"/>
      </g>
     </g>
     <g id="text_5">
      <!-- 4 -->
      <defs>
       <path d="M 37.796875 64.3125 
L 12.890625 25.390625 
L 37.796875 25.390625 
z
M 35.203125 72.90625 
L 47.609375 72.90625 
L 47.609375 25.390625 
L 58.015625 25.390625 
L 58.015625 17.1875 
L 47.609375 17.1875 
L 47.609375 0 
L 37.796875 0 
L 37.796875 17.1875 
L 4.890625 17.1875 
L 4.890625 26.703125 
z
" id="DejaVuSans-52"/>
      </defs>
      <g transform="translate(640.585511 531.037656)scale(0.15 -0.15)">
       <use xlink:href="#DejaVuSans-52"/>
      </g>
     </g>
    </g>
    <g id="xtick_6">
     <g id="line2d_11">
      <path clip-path="url(#p437714b1fe)" d="M 765.658523 512.64 
L 765.658523 69.12 
" style="fill:none;stroke:#e6e6e6;stroke-linecap:square;stroke-width:0.8;"/>
     </g>
     <g id="line2d_12">
      <g>
       <use style="stroke:#000000;stroke-width:0.8;" x="765.658523" xlink:href="#mf5ac8e83c7" y="512.64"/>
      </g>
     </g>
     <g id="text_6">
      <!-- 5 -->
      <defs>
       <path d="M 10.796875 72.90625 
L 49.515625 72.90625 
L 49.515625 64.59375 
L 19.828125 64.59375 
L 19.828125 46.734375 
Q 21.96875 47.46875 24.109375 47.828125 
Q 26.265625 48.1875 28.421875 48.1875 
Q 40.625 48.1875 47.75 41.5 
Q 54.890625 34.8125 54.890625 23.390625 
Q 54.890625 11.625 47.5625 5.09375 
Q 40.234375 -1.421875 26.90625 -1.421875 
Q 22.3125 -1.421875 17.546875 -0.640625 
Q 12.796875 0.140625 7.71875 1.703125 
L 7.71875 11.625 
Q 12.109375 9.234375 16.796875 8.0625 
Q 21.484375 6.890625 26.703125 6.890625 
Q 35.15625 6.890625 40.078125 11.328125 
Q 45.015625 15.765625 45.015625 23.390625 
Q 45.015625 31 40.078125 35.4375 
Q 35.15625 39.890625 26.703125 39.890625 
Q 22.75 39.890625 18.8125 39.015625 
Q 14.890625 38.140625 10.796875 36.28125 
z
" id="DejaVuSans-53"/>
      </defs>
      <g transform="translate(760.886648 531.037656)scale(0.15 -0.15)">
       <use xlink:href="#DejaVuSans-53"/>
      </g>
     </g>
    </g>
    <g id="xtick_7">
     <g id="line2d_13">
      <path clip-path="url(#p437714b1fe)" d="M 885.959659 512.64 
L 885.959659 69.12 
" style="fill:none;stroke:#e6e6e6;stroke-linecap:square;stroke-width:0.8;"/>
     </g>
     <g id="line2d_14">
      <g>
       <use style="stroke:#000000;stroke-width:0.8;" x="885.959659" xlink:href="#mf5ac8e83c7" y="512.64"/>
      </g>
     </g>
     <g id="text_7">
      <!-- 6 -->
      <defs>
       <path d="M 33.015625 40.375 
Q 26.375 40.375 22.484375 35.828125 
Q 18.609375 31.296875 18.609375 23.390625 
Q 18.609375 15.53125 22.484375 10.953125 
Q 26.375 6.390625 33.015625 6.390625 
Q 39.65625 6.390625 43.53125 10.953125 
Q 47.40625 15.53125 47.40625 23.390625 
Q 47.40625 31.296875 43.53125 35.828125 
Q 39.65625 40.375 33.015625 40.375 
z
M 52.59375 71.296875 
L 52.59375 62.3125 
Q 48.875 64.0625 45.09375 64.984375 
Q 41.3125 65.921875 37.59375 65.921875 
Q 27.828125 65.921875 22.671875 59.328125 
Q 17.53125 52.734375 16.796875 39.40625 
Q 19.671875 43.65625 24.015625 45.921875 
Q 28.375 48.1875 33.59375 48.1875 
Q 44.578125 48.1875 50.953125 41.515625 
Q 57.328125 34.859375 57.328125 23.390625 
Q 57.328125 12.15625 50.6875 5.359375 
Q 44.046875 -1.421875 33.015625 -1.421875 
Q 20.359375 -1.421875 13.671875 8.265625 
Q 6.984375 17.96875 6.984375 36.375 
Q 6.984375 53.65625 15.1875 63.9375 
Q 23.390625 74.21875 37.203125 74.21875 
Q 40.921875 74.21875 44.703125 73.484375 
Q 48.484375 72.75 52.59375 71.296875 
z
" id="DejaVuSans-54"/>
      </defs>
      <g transform="translate(881.187784 531.037656)scale(0.15 -0.15)">
       <use xlink:href="#DejaVuSans-54"/>
      </g>
     </g>
    </g>
    <g id="text_8">
     <!-- $q(A^{-1})$ -->
     <defs>
      <path d="M 41.703125 8.203125 
Q 38.09375 3.46875 33.171875 1.015625 
Q 28.265625 -1.421875 22.3125 -1.421875 
Q 14.015625 -1.421875 9.296875 4.171875 
Q 4.59375 9.765625 4.59375 19.578125 
Q 4.59375 27.484375 7.5 34.859375 
Q 10.40625 42.234375 15.828125 48.09375 
Q 19.34375 51.90625 23.90625 53.953125 
Q 28.46875 56 33.5 56 
Q 39.546875 56 43.453125 53.609375 
Q 47.359375 51.21875 49.125 46.390625 
L 50.6875 54.59375 
L 59.71875 54.59375 
L 45.125 -20.609375 
L 36.078125 -20.609375 
z
M 13.921875 20.90625 
Q 13.921875 13.671875 16.9375 9.890625 
Q 19.96875 6.109375 25.6875 6.109375 
Q 34.1875 6.109375 40.1875 14.234375 
Q 46.1875 22.359375 46.1875 33.984375 
Q 46.1875 41.015625 43.078125 44.75 
Q 39.984375 48.484375 34.1875 48.484375 
Q 29.9375 48.484375 26.3125 46.5 
Q 22.703125 44.53125 20.015625 40.71875 
Q 17.1875 36.71875 15.546875 31.34375 
Q 13.921875 25.984375 13.921875 20.90625 
z
" id="DejaVuSans-Oblique-113"/>
      <path d="M 31 75.875 
Q 24.46875 64.65625 21.28125 53.65625 
Q 18.109375 42.671875 18.109375 31.390625 
Q 18.109375 20.125 21.3125 9.0625 
Q 24.515625 -2 31 -13.1875 
L 23.1875 -13.1875 
Q 15.875 -1.703125 12.234375 9.375 
Q 8.59375 20.453125 8.59375 31.390625 
Q 8.59375 42.28125 12.203125 53.3125 
Q 15.828125 64.359375 23.1875 75.875 
z
" id="DejaVuSans-40"/>
      <path d="M 36.8125 72.90625 
L 48 72.90625 
L 61.53125 0 
L 51.21875 0 
L 48.1875 18.703125 
L 15.375 18.703125 
L 5.078125 0 
L -5.328125 0 
z
M 40.375 63.1875 
L 19.921875 26.90625 
L 46.6875 26.90625 
z
" id="DejaVuSans-Oblique-65"/>
      <path d="M 10.59375 35.5 
L 73.1875 35.5 
L 73.1875 27.203125 
L 10.59375 27.203125 
z
" id="DejaVuSans-8722"/>
      <path d="M 8.015625 75.875 
L 15.828125 75.875 
Q 23.140625 64.359375 26.78125 53.3125 
Q 30.421875 42.28125 30.421875 31.390625 
Q 30.421875 20.453125 26.78125 9.375 
Q 23.140625 -1.703125 15.828125 -13.1875 
L 8.015625 -13.1875 
Q 14.5 -2 17.703125 9.0625 
Q 20.90625 20.125 20.90625 31.390625 
Q 20.90625 42.671875 17.703125 53.65625 
Q 14.5 64.65625 8.015625 75.875 
z
" id="DejaVuSans-41"/>
     </defs>
     <g transform="translate(476.60625 565.157187)scale(0.3 -0.3)">
      <use transform="translate(0 0.684375)" xlink:href="#DejaVuSans-Oblique-113"/>
      <use transform="translate(63.476562 0.684375)" xlink:href="#DejaVuSans-40"/>
      <use transform="translate(102.490234 0.684375)" xlink:href="#DejaVuSans-Oblique-65"/>
      <use transform="translate(177.915208 38.965625)scale(0.7)" xlink:href="#DejaVuSans-8722"/>
      <use transform="translate(236.567552 38.965625)scale(0.7)" xlink:href="#DejaVuSans-49"/>
      <use transform="translate(283.83806 0.684375)" xlink:href="#DejaVuSans-41"/>
     </g>
    </g>
   </g>
   <g id="matplotlib.axis_2">
    <g id="ytick_1">
     <g id="line2d_15">
      <path clip-path="url(#p437714b1fe)" d="M 128.0625 492.512889 
L 922.05 492.512889 
" style="fill:none;stroke:#e6e6e6;stroke-linecap:square;stroke-width:0.8;"/>
     </g>
     <g id="line2d_16">
      <defs>
       <path d="M 0 0 
L -3.5 0 
" id="m89a4ca7a07" style="stroke:#000000;stroke-width:0.8;"/>
      </defs>
      <g>
       <use style="stroke:#000000;stroke-width:0.8;" x="128.0625" xlink:href="#m89a4ca7a07" y="492.512889"/>
      </g>
     </g>
     <g id="text_9">
      <!-- 0 -->
      <g transform="translate(111.51875 498.211717)scale(0.15 -0.15)">
       <use xlink:href="#DejaVuSans-48"/>
      </g>
     </g>
    </g>
    <g id="ytick_2">
     <g id="line2d_17">
      <path clip-path="url(#p437714b1fe)" d="M 128.0625 442.108148 
L 922.05 442.108148 
" style="fill:none;stroke:#e6e6e6;stroke-linecap:square;stroke-width:0.8;"/>
     </g>
     <g id="line2d_18">
      <g>
       <use style="stroke:#000000;stroke-width:0.8;" x="128.0625" xlink:href="#m89a4ca7a07" y="442.108148"/>
      </g>
     </g>
     <g id="text_10">
      <!-- 2 -->
      <g transform="translate(111.51875 447.806976)scale(0.15 -0.15)">
       <use xlink:href="#DejaVuSans-50"/>
      </g>
     </g>
    </g>
    <g id="ytick_3">
     <g id="line2d_19">
      <path clip-path="url(#p437714b1fe)" d="M 128.0625 391.703407 
L 922.05 391.703407 
" style="fill:none;stroke:#e6e6e6;stroke-linecap:square;stroke-width:0.8;"/>
     </g>
     <g id="line2d_20">
      <g>
       <use style="stroke:#000000;stroke-width:0.8;" x="128.0625" xlink:href="#m89a4ca7a07" y="391.703407"/>
      </g>
     </g>
     <g id="text_11">
      <!-- 4 -->
      <g transform="translate(111.51875 397.402235)scale(0.15 -0.15)">
       <use xlink:href="#DejaVuSans-52"/>
      </g>
     </g>
    </g>
    <g id="ytick_4">
     <g id="line2d_21">
      <path clip-path="url(#p437714b1fe)" d="M 128.0625 341.298666 
L 922.05 341.298666 
" style="fill:none;stroke:#e6e6e6;stroke-linecap:square;stroke-width:0.8;"/>
     </g>
     <g id="line2d_22">
      <g>
       <use style="stroke:#000000;stroke-width:0.8;" x="128.0625" xlink:href="#m89a4ca7a07" y="341.298666"/>
      </g>
     </g>
     <g id="text_12">
      <!-- 6 -->
      <g transform="translate(111.51875 346.997494)scale(0.15 -0.15)">
       <use xlink:href="#DejaVuSans-54"/>
      </g>
     </g>
    </g>
    <g id="ytick_5">
     <g id="line2d_23">
      <path clip-path="url(#p437714b1fe)" d="M 128.0625 290.893924 
L 922.05 290.893924 
" style="fill:none;stroke:#e6e6e6;stroke-linecap:square;stroke-width:0.8;"/>
     </g>
     <g id="line2d_24">
      <g>
       <use style="stroke:#000000;stroke-width:0.8;" x="128.0625" xlink:href="#m89a4ca7a07" y="290.893924"/>
      </g>
     </g>
     <g id="text_13">
      <!-- 8 -->
      <defs>
       <path d="M 31.78125 34.625 
Q 24.75 34.625 20.71875 30.859375 
Q 16.703125 27.09375 16.703125 20.515625 
Q 16.703125 13.921875 20.71875 10.15625 
Q 24.75 6.390625 31.78125 6.390625 
Q 38.8125 6.390625 42.859375 10.171875 
Q 46.921875 13.96875 46.921875 20.515625 
Q 46.921875 27.09375 42.890625 30.859375 
Q 38.875 34.625 31.78125 34.625 
z
M 21.921875 38.8125 
Q 15.578125 40.375 12.03125 44.71875 
Q 8.5 49.078125 8.5 55.328125 
Q 8.5 64.0625 14.71875 69.140625 
Q 20.953125 74.21875 31.78125 74.21875 
Q 42.671875 74.21875 48.875 69.140625 
Q 55.078125 64.0625 55.078125 55.328125 
Q 55.078125 49.078125 51.53125 44.71875 
Q 48 40.375 41.703125 38.8125 
Q 48.828125 37.15625 52.796875 32.3125 
Q 56.78125 27.484375 56.78125 20.515625 
Q 56.78125 9.90625 50.3125 4.234375 
Q 43.84375 -1.421875 31.78125 -1.421875 
Q 19.734375 -1.421875 13.25 4.234375 
Q 6.78125 9.90625 6.78125 20.515625 
Q 6.78125 27.484375 10.78125 32.3125 
Q 14.796875 37.15625 21.921875 38.8125 
z
M 18.3125 54.390625 
Q 18.3125 48.734375 21.84375 45.5625 
Q 25.390625 42.390625 31.78125 42.390625 
Q 38.140625 42.390625 41.71875 45.5625 
Q 45.3125 48.734375 45.3125 54.390625 
Q 45.3125 60.0625 41.71875 63.234375 
Q 38.140625 66.40625 31.78125 66.40625 
Q 25.390625 66.40625 21.84375 63.234375 
Q 18.3125 60.0625 18.3125 54.390625 
z
" id="DejaVuSans-56"/>
      </defs>
      <g transform="translate(111.51875 296.592752)scale(0.15 -0.15)">
       <use xlink:href="#DejaVuSans-56"/>
      </g>
     </g>
    </g>
    <g id="ytick_6">
     <g id="line2d_25">
      <path clip-path="url(#p437714b1fe)" d="M 128.0625 240.489183 
L 922.05 240.489183 
" style="fill:none;stroke:#e6e6e6;stroke-linecap:square;stroke-width:0.8;"/>
     </g>
     <g id="line2d_26">
      <g>
       <use style="stroke:#000000;stroke-width:0.8;" x="128.0625" xlink:href="#m89a4ca7a07" y="240.489183"/>
      </g>
     </g>
     <g id="text_14">
      <!-- 10 -->
      <g transform="translate(101.975 246.188011)scale(0.15 -0.15)">
       <use xlink:href="#DejaVuSans-49"/>
       <use x="63.623047" xlink:href="#DejaVuSans-48"/>
      </g>
     </g>
    </g>
    <g id="ytick_7">
     <g id="line2d_27">
      <path clip-path="url(#p437714b1fe)" d="M 128.0625 190.084442 
L 922.05 190.084442 
" style="fill:none;stroke:#e6e6e6;stroke-linecap:square;stroke-width:0.8;"/>
     </g>
     <g id="line2d_28">
      <g>
       <use style="stroke:#000000;stroke-width:0.8;" x="128.0625" xlink:href="#m89a4ca7a07" y="190.084442"/>
      </g>
     </g>
     <g id="text_15">
      <!-- 12 -->
      <g transform="translate(101.975 195.78327)scale(0.15 -0.15)">
       <use xlink:href="#DejaVuSans-49"/>
       <use x="63.623047" xlink:href="#DejaVuSans-50"/>
      </g>
     </g>
    </g>
    <g id="ytick_8">
     <g id="line2d_29">
      <path clip-path="url(#p437714b1fe)" d="M 128.0625 139.679701 
L 922.05 139.679701 
" style="fill:none;stroke:#e6e6e6;stroke-linecap:square;stroke-width:0.8;"/>
     </g>
     <g id="line2d_30">
      <g>
       <use style="stroke:#000000;stroke-width:0.8;" x="128.0625" xlink:href="#m89a4ca7a07" y="139.679701"/>
      </g>
     </g>
     <g id="text_16">
      <!-- 14 -->
      <g transform="translate(101.975 145.378529)scale(0.15 -0.15)">
       <use xlink:href="#DejaVuSans-49"/>
       <use x="63.623047" xlink:href="#DejaVuSans-52"/>
      </g>
     </g>
    </g>
    <g id="ytick_9">
     <g id="line2d_31">
      <path clip-path="url(#p437714b1fe)" d="M 128.0625 89.27496 
L 922.05 89.27496 
" style="fill:none;stroke:#e6e6e6;stroke-linecap:square;stroke-width:0.8;"/>
     </g>
     <g id="line2d_32">
      <g>
       <use style="stroke:#000000;stroke-width:0.8;" x="128.0625" xlink:href="#m89a4ca7a07" y="89.27496"/>
      </g>
     </g>
     <g id="text_17">
      <!-- 16 -->
      <g transform="translate(101.975 94.973788)scale(0.15 -0.15)">
       <use xlink:href="#DejaVuSans-49"/>
       <use x="63.623047" xlink:href="#DejaVuSans-54"/>
      </g>
     </g>
    </g>
    <g id="text_18">
     <!-- $f^x(e)$ -->
     <defs>
      <path d="M 47.796875 75.984375 
L 46.390625 68.5 
L 37.796875 68.5 
Q 32.90625 68.5 30.6875 66.578125 
Q 28.46875 64.65625 27.390625 59.515625 
L 26.421875 54.6875 
L 41.21875 54.6875 
L 39.890625 47.703125 
L 25.09375 47.703125 
L 15.828125 0 
L 6.78125 0 
L 16.109375 47.703125 
L 7.515625 47.703125 
L 8.796875 54.6875 
L 17.390625 54.6875 
L 18.109375 58.5 
Q 19.96875 68.171875 24.625 72.078125 
Q 29.296875 75.984375 39.3125 75.984375 
z
" id="DejaVuSans-Oblique-102"/>
      <path d="M 60.015625 54.6875 
L 34.90625 27.875 
L 50.296875 0 
L 39.984375 0 
L 28.421875 21.6875 
L 8.296875 0 
L -2.59375 0 
L 24.3125 28.8125 
L 10.015625 54.6875 
L 20.3125 54.6875 
L 30.8125 34.90625 
L 49.125 54.6875 
z
" id="DejaVuSans-Oblique-120"/>
      <path d="M 48.09375 32.234375 
Q 48.25 33.015625 48.3125 33.84375 
Q 48.390625 34.671875 48.390625 35.5 
Q 48.390625 41.453125 44.890625 44.921875 
Q 41.40625 48.390625 35.40625 48.390625 
Q 28.71875 48.390625 23.578125 44.15625 
Q 18.453125 39.9375 15.828125 32.171875 
z
M 55.90625 25.203125 
L 14.109375 25.203125 
Q 13.8125 23.34375 13.71875 22.265625 
Q 13.625 21.1875 13.625 20.40625 
Q 13.625 13.625 17.796875 9.90625 
Q 21.96875 6.203125 29.59375 6.203125 
Q 35.453125 6.203125 40.671875 7.515625 
Q 45.90625 8.84375 50.390625 11.375 
L 48.6875 2.484375 
Q 43.84375 0.53125 38.6875 -0.4375 
Q 33.546875 -1.421875 28.21875 -1.421875 
Q 16.84375 -1.421875 10.71875 4.015625 
Q 4.59375 9.46875 4.59375 19.484375 
Q 4.59375 28.03125 7.640625 35.375 
Q 10.6875 42.71875 16.609375 48.484375 
Q 20.40625 52.09375 25.65625 54.046875 
Q 30.90625 56 36.8125 56 
Q 46.09375 56 51.578125 50.4375 
Q 57.078125 44.875 57.078125 35.5 
Q 57.078125 33.25 56.78125 30.6875 
Q 56.5 28.125 55.90625 25.203125 
z
" id="DejaVuSans-Oblique-101"/>
     </defs>
     <g transform="translate(91.735937 324.93)rotate(-90)scale(0.3 -0.3)">
      <use transform="translate(0 0.4375)" xlink:href="#DejaVuSans-Oblique-102"/>
      <use transform="translate(42.652786 38.71875)scale(0.7)" xlink:href="#DejaVuSans-Oblique-120"/>
      <use transform="translate(86.812943 0.4375)" xlink:href="#DejaVuSans-40"/>
      <use transform="translate(125.826615 0.4375)" xlink:href="#DejaVuSans-Oblique-101"/>
      <use transform="translate(187.350052 0.4375)" xlink:href="#DejaVuSans-41"/>
     </g>
    </g>
   </g>
   <g id="line2d_33">
    <path clip-path="url(#p437714b1fe)" d="M 164.152841 467.313744 
L 171.443819 467.815666 
L 178.734797 469.23644 
L 186.025775 471.34993 
L 193.316753 473.860488 
L 200.607731 476.482861 
L 207.898709 478.998221 
L 215.189687 481.273253 
L 222.480665 483.249514 
L 229.771643 484.919674 
L 237.062621 486.304669 
L 244.353598 487.437988 
L 251.644576 488.356873 
L 258.935554 489.097834 
L 266.226532 489.694266 
L 273.51751 490.175138 
L 280.808488 490.564436 
L 288.099466 490.88128 
L 295.390444 491.140518 
L 302.681422 491.353556 
L 309.9724 491.529195 
L 317.263378 491.674341 
L 324.554356 491.794533 
L 331.845334 491.894299 
L 339.136312 491.977385 
L 346.42729 492.046894 
L 353.718268 492.105385 
L 361.009246 492.154946 
L 368.300224 492.19726 
L 375.591202 492.233665 
L 382.88218 492.265215 
L 390.173158 492.292729 
L 397.464136 492.316846 
L 404.755114 492.338062 
L 412.046092 492.356767 
L 419.33707 492.373271 
L 426.628048 492.387829 
L 433.919025 492.400652 
L 441.210003 492.411923 
L 448.500981 492.4218 
L 455.791959 492.430429 
L 463.082937 492.437938 
L 470.373915 492.444448 
L 477.664893 492.450068 
L 484.955871 492.4549 
L 492.246849 492.459035 
L 499.537827 492.462559 
L 506.828805 492.465549 
L 514.119783 492.468075 
L 521.410761 492.470198 
L 528.701739 492.471976 
L 535.992717 492.473458 
L 543.283695 492.474688 
L 550.574673 492.475704 
L 557.865651 492.47654 
L 565.156629 492.477224 
L 572.447607 492.477782 
L 579.738585 492.478235 
L 587.029563 492.478601 
L 594.320541 492.478896 
L 601.611519 492.479132 
L 608.902497 492.47932 
L 616.193475 492.47947 
L 623.484452 492.479588 
L 630.77543 492.479682 
L 638.066408 492.479755 
L 645.357386 492.479812 
L 652.648364 492.479856 
L 659.939342 492.47989 
L 667.23032 492.479917 
L 674.521298 492.479937 
L 681.812276 492.479953 
L 689.103254 492.479965 
L 696.394232 492.479974 
L 703.68521 492.47998 
L 710.976188 492.479986 
L 718.267166 492.479989 
L 725.558144 492.479992 
L 732.849122 492.479994 
L 740.1401 492.479996 
L 747.431078 492.479997 
L 754.722056 492.479998 
L 762.013034 492.479998 
L 769.304012 492.479999 
L 776.59499 492.479999 
L 783.885968 492.479999 
L 791.176946 492.48 
L 798.467924 492.48 
L 805.758902 492.48 
L 813.049879 492.48 
L 820.340857 492.48 
L 827.631835 492.48 
L 834.922813 492.48 
L 842.213791 492.48 
L 849.504769 492.48 
L 856.795747 492.48 
L 864.086725 492.48 
L 871.377703 492.48 
L 878.668681 492.48 
L 885.959659 492.48 
" style="fill:none;stroke:#d9d9d9;stroke-linecap:square;stroke-width:2;"/>
   </g>
   <g id="line2d_34">
    <path clip-path="url(#p437714b1fe)" d="M 164.152841 341.318827 
L 171.443819 343.693105 
L 178.734797 350.406458 
L 186.025775 360.373136 
L 193.316753 372.182984 
L 200.607731 384.487732 
L 207.898709 396.26347 
L 215.189687 406.891399 
L 222.480665 416.099667 
L 229.771643 423.85013 
L 237.062621 430.235362 
L 244.353598 435.410476 
L 251.644576 439.555093 
L 258.935554 442.852203 
L 266.226532 445.474687 
L 273.51751 447.576202 
L 280.808488 449.286126 
L 288.099466 450.708406 
L 295.390444 451.923444 
L 302.681422 452.991692 
L 309.9724 453.957717 
L 317.263378 454.853959 
L 324.554356 455.703804 
L 331.845334 456.523931 
L 339.136312 457.326049 
L 346.42729 458.11816 
L 353.718268 458.905501 
L 361.009246 459.69126 
L 368.300224 460.477119 
L 375.591202 461.263679 
L 382.88218 462.050785 
L 390.173158 462.83777 
L 397.464136 463.623641 
L 404.755114 464.407205 
L 412.046092 465.187167 
L 419.33707 465.962192 
L 426.628048 466.730948 
L 433.919025 467.492133 
L 441.210003 468.244498 
L 448.500981 468.986855 
L 455.791959 469.718088 
L 463.082937 470.437154 
L 470.373915 471.143089 
L 477.664893 471.835009 
L 484.955871 472.512108 
L 492.246849 473.173664 
L 499.537827 473.819033 
L 506.828805 474.447649 
L 514.119783 475.059027 
L 521.410761 475.652753 
L 528.701739 476.228492 
L 535.992717 476.785979 
L 543.283695 477.325016 
L 550.574673 477.845474 
L 557.865651 478.347286 
L 565.156629 478.830448 
L 572.447607 479.295009 
L 579.738585 479.741076 
L 587.029563 480.168802 
L 594.320541 480.57839 
L 601.611519 480.970086 
L 608.902497 481.344175 
L 616.193475 481.700976 
L 623.484452 482.040845 
L 630.77543 482.364163 
L 638.066408 482.671341 
L 645.357386 482.962808 
L 652.648364 483.239015 
L 659.939342 483.500429 
L 667.23032 483.74753 
L 674.521298 483.980807 
L 681.812276 484.200759 
L 689.103254 484.407889 
L 696.394232 484.602702 
L 703.68521 484.785705 
L 710.976188 484.957402 
L 718.267166 485.118295 
L 725.558144 485.26888 
L 732.849122 485.409646 
L 740.1401 485.541074 
L 747.431078 485.663636 
L 754.722056 485.777792 
L 762.013034 485.883992 
L 769.304012 485.982671 
L 776.59499 486.074254 
L 783.885968 486.15915 
L 791.176946 486.237754 
L 798.467924 486.310446 
L 805.758902 486.377592 
L 813.049879 486.439542 
L 820.340857 486.496631 
L 827.631835 486.54918 
L 834.922813 486.597492 
L 842.213791 486.641859 
L 849.504769 486.682554 
L 856.795747 486.719838 
L 864.086725 486.753958 
L 871.377703 486.785147 
L 878.668681 486.813623 
L 885.959659 486.839592 
" style="fill:none;stroke:#666666;stroke-linecap:square;stroke-width:2;"/>
   </g>
   <g id="line2d_35">
    <path clip-path="url(#p437714b1fe)" d="M 164.152841 316.232388 
L 171.443819 318.296338 
L 178.734797 324.243176 
L 186.025775 333.393693 
L 193.316753 344.783249 
L 200.607731 357.355448 
L 207.898709 370.143543 
L 215.189687 382.395086 
L 222.480665 393.621536 
L 229.771643 403.581358 
L 237.062621 412.222028 
L 244.353598 419.609748 
L 251.644576 425.868463 
L 258.935554 431.138386 
L 266.226532 435.554172 
L 273.51751 439.237331 
L 280.808488 442.296209 
L 288.099466 444.828364 
L 295.390444 446.922539 
L 302.681422 448.65937 
L 309.9724 450.111125 
L 317.263378 451.341067 
L 324.554356 452.402998 
L 331.845334 453.341254 
L 339.136312 454.1912 
L 346.42729 454.980134 
L 353.718268 455.728431 
L 361.009246 456.450776 
L 368.300224 457.157351 
L 375.591202 457.854905 
L 382.88218 458.547653 
L 390.173158 459.238001 
L 397.464136 459.927108 
L 404.755114 460.615301 
L 412.046092 461.302372 
L 419.33707 461.987789 
L 426.628048 462.670838 
L 433.919025 463.350713 
L 441.210003 464.026578 
L 448.500981 464.697606 
L 455.791959 465.363 
L 463.082937 466.022006 
L 470.373915 466.673926 
L 477.664893 467.318118 
L 484.955871 467.953999 
L 492.246849 468.581047 
L 499.537827 469.198801 
L 506.828805 469.80686 
L 514.119783 470.40488 
L 521.410761 470.992577 
L 528.701739 471.569723 
L 535.992717 472.136141 
L 543.283695 472.69171 
L 550.574673 473.236354 
L 557.865651 473.770049 
L 565.156629 474.292814 
L 572.447607 474.804708 
L 579.738585 475.305833 
L 587.029563 475.796326 
L 594.320541 476.276358 
L 601.611519 476.746133 
L 608.902497 477.20588 
L 616.193475 477.655858 
L 623.484452 478.096346 
L 630.77543 478.527645 
L 638.066408 478.950073 
L 645.357386 479.363964 
L 652.648364 479.769663 
L 659.939342 480.167529 
L 667.23032 480.557927 
L 674.521298 480.941227 
L 681.812276 481.317806 
L 689.103254 481.688042 
L 696.394232 482.052313 
L 703.68521 482.410997 
L 710.976188 482.764468 
L 718.267166 483.113098 
L 725.558144 483.457251 
L 732.849122 483.797288 
L 740.1401 484.13356 
L 747.431078 484.466411 
L 754.722056 484.796176 
L 762.013034 485.123179 
L 769.304012 485.447735 
L 776.59499 485.770147 
L 783.885968 486.090709 
L 791.176946 486.409701 
L 798.467924 486.727394 
L 805.758902 487.044045 
L 813.049879 487.3599 
L 820.340857 487.675194 
L 827.631835 487.990149 
L 834.922813 488.304977 
L 842.213791 488.619876 
L 849.504769 488.935034 
L 856.795747 489.250631 
L 864.086725 489.566831 
L 871.377703 489.883792 
L 878.668681 490.201659 
L 885.959659 490.520568 
" style="fill:none;stroke:#0000ff;stroke-linecap:square;stroke-width:2;"/>
   </g>
   <g id="line2d_36">
    <path clip-path="url(#p437714b1fe)" d="M 164.152841 290.909046 
L 171.443819 292.803012 
L 178.734797 298.294467 
L 186.025775 306.853156 
L 193.316753 317.718091 
L 200.607731 330.038751 
L 207.898709 343.006901 
L 215.189687 355.948379 
L 222.480665 368.364015 
L 229.771643 379.927191 
L 237.062621 390.455398 
L 244.353598 399.873361 
L 251.644576 408.179459 
L 258.935554 415.420107 
L 266.226532 421.671808 
L 273.51751 427.028603 
L 280.808488 431.592812 
L 288.099466 435.46788 
L 295.390444 438.75296 
L 302.681422 441.539212 
L 309.9724 443.907742 
L 317.263378 445.928946 
L 324.554356 447.662881 
L 331.845334 449.160251 
L 339.136312 450.463647 
L 346.42729 451.608789 
L 353.718268 452.62564 
L 361.009246 453.539326 
L 368.300224 454.370873 
L 375.591202 455.137792 
L 382.88218 455.854558 
L 390.173158 456.533006 
L 397.464136 457.182689 
L 404.755114 457.811189 
L 412.046092 458.424416 
L 419.33707 459.026873 
L 426.628048 459.6219 
L 433.919025 460.21189 
L 441.210003 460.798482 
L 448.500981 461.382724 
L 455.791959 461.965204 
L 463.082937 462.546169 
L 470.373915 463.12561 
L 477.664893 463.703335 
L 484.955871 464.279024 
L 492.246849 464.852271 
L 499.537827 465.422615 
L 506.828805 465.989564 
L 514.119783 466.552613 
L 521.410761 467.111252 
L 528.701739 467.664981 
L 535.992717 468.213312 
L 543.283695 468.755772 
L 550.574673 469.291911 
L 557.865651 469.8213 
L 565.156629 470.343532 
L 572.447607 470.858228 
L 579.738585 471.36503 
L 587.029563 471.863606 
L 594.320541 472.353652 
L 601.611519 472.834885 
L 608.902497 473.307051 
L 616.193475 473.769917 
L 623.484452 474.223278 
L 630.77543 474.666951 
L 638.066408 475.100777 
L 645.357386 475.524621 
L 652.648364 475.938369 
L 659.939342 476.341931 
L 667.23032 476.735237 
L 674.521298 477.118238 
L 681.812276 477.490905 
L 689.103254 477.853229 
L 696.394232 478.205218 
L 703.68521 478.546898 
L 710.976188 478.878314 
L 718.267166 479.199523 
L 725.558144 479.510601 
L 732.849122 479.811637 
L 740.1401 480.102734 
L 747.431078 480.384005 
L 754.722056 480.65558 
L 762.013034 480.917594 
L 769.304012 481.170197 
L 776.59499 481.413546 
L 783.885968 481.647807 
L 791.176946 481.873154 
L 798.467924 482.089767 
L 805.758902 482.297834 
L 813.049879 482.497546 
L 820.340857 482.6891 
L 827.631835 482.872699 
L 834.922813 483.048545 
L 842.213791 483.216846 
L 849.504769 483.377811 
L 856.795747 483.531651 
L 864.086725 483.678577 
L 871.377703 483.818802 
L 878.668681 483.952536 
L 885.959659 484.079992 
" style="fill:none;stroke:#ff0000;stroke-linecap:square;stroke-width:2;"/>
   </g>
   <g id="line2d_37">
    <path clip-path="url(#p437714b1fe)" d="M 164.152841 89.28 
L 171.443819 94.180776 
L 178.734797 107.978473 
L 186.025775 128.297151 
L 193.316753 152.110751 
L 200.607731 176.614931 
L 207.898709 199.779459 
L 215.189687 220.474736 
L 222.480665 238.302945 
L 229.771643 253.335795 
L 237.062621 265.894013 
L 244.353598 276.405305 
L 251.644576 285.321501 
L 258.935554 293.067978 
L 266.226532 300.011449 
L 273.51751 306.442723 
L 280.808488 312.573374 
L 288.099466 318.543336 
L 295.390444 324.434725 
L 302.681422 330.287334 
L 309.9724 336.11264 
L 317.263378 341.904826 
L 324.554356 347.648607 
L 331.845334 353.324336 
L 339.136312 358.911108 
L 346.42729 364.388538 
L 353.718268 369.737714 
L 361.009246 374.941682 
L 368.300224 379.985673 
L 375.591202 384.857175 
L 382.88218 389.545934 
L 390.173158 394.043902 
L 397.464136 398.345154 
L 404.755114 402.445776 
L 412.046092 406.343739 
L 419.33707 410.038761 
L 426.628048 413.532148 
L 433.919025 416.826644 
L 441.210003 419.92626 
L 448.500981 422.836115 
L 455.791959 425.562271 
L 463.082937 428.111573 
L 470.373915 430.491501 
L 477.664893 432.71002 
L 484.955871 434.775446 
L 492.246849 436.696319 
L 499.537827 438.48129 
L 506.828805 440.139016 
L 514.119783 441.67807 
L 521.410761 443.10686 
L 528.701739 444.433563 
L 535.992717 445.666067 
L 543.283695 446.811927 
L 550.574673 447.878327 
L 557.865651 448.872054 
L 565.156629 449.799485 
L 572.447607 450.666571 
L 579.738585 451.478836 
L 587.029563 452.241381 
L 594.320541 452.958893 
L 601.611519 453.635651 
L 608.902497 454.275549 
L 616.193475 454.882111 
L 623.484452 455.458509 
L 630.77543 456.00759 
L 638.066408 456.531893 
L 645.357386 457.033677 
L 652.648364 457.514938 
L 659.939342 457.977439 
L 667.23032 458.422727 
L 674.521298 458.852154 
L 681.812276 459.2669 
L 689.103254 459.66799 
L 696.394232 460.056311 
L 703.68521 460.432631 
L 710.976188 460.797611 
L 718.267166 461.151821 
L 725.558144 461.495753 
L 732.849122 461.829828 
L 740.1401 462.154412 
L 747.431078 462.46982 
L 754.722056 462.776327 
L 762.013034 463.074173 
L 769.304012 463.36357 
L 776.59499 463.644707 
L 783.885968 463.917756 
L 791.176946 464.182871 
L 798.467924 464.440199 
L 805.758902 464.689875 
L 813.049879 464.932029 
L 820.340857 465.166788 
L 827.631835 465.394273 
L 834.922813 465.614607 
L 842.213791 465.827909 
L 849.504769 466.034301 
L 856.795747 466.233903 
L 864.086725 466.426839 
L 871.377703 466.613233 
L 878.668681 466.793209 
L 885.959659 466.966896 
" style="fill:none;stroke:#00ffff;stroke-linecap:square;stroke-width:2;"/>
   </g>
   <g id="line2d_38">
    <path clip-path="url(#p437714b1fe)" d="M 164.152841 114.494972 
L 171.443819 119.674001 
L 178.734797 134.034125 
L 186.025775 154.58057 
L 193.316753 177.74308 
L 200.607731 200.552896 
L 207.898709 221.204898 
L 215.189687 238.988096 
L 222.480665 253.912223 
L 229.771643 266.3445 
L 237.062621 276.780005 
L 244.353598 285.724447 
L 251.644576 293.634522 
L 258.935554 300.88488 
L 266.226532 307.753953 
L 273.51751 314.42675 
L 280.808488 321.009876 
L 288.099466 327.551853 
L 295.390444 334.062817 
L 302.681422 340.530334 
L 309.9724 346.930505 
L 317.263378 353.234999 
L 324.554356 359.415113 
L 331.845334 365.44396 
L 339.136312 371.297543 
L 346.42729 376.955234 
L 353.718268 382.399932 
L 361.009246 387.618047 
L 368.300224 392.599394 
L 375.591202 397.337016 
L 382.88218 401.826968 
L 390.173158 406.068071 
L 397.464136 410.061641 
L 404.755114 413.811207 
L 412.046092 417.322219 
L 419.33707 420.601762 
L 426.628048 423.658268 
L 433.919025 426.501244 
L 441.210003 429.141013 
L 448.500981 431.588474 
L 455.791959 433.854883 
L 463.082937 435.951652 
L 470.373915 437.890182 
L 477.664893 439.681709 
L 484.955871 441.337178 
L 492.246849 442.867141 
L 499.537827 444.281678 
L 506.828805 445.590329 
L 514.119783 446.80206 
L 521.410761 447.92523 
L 528.701739 448.967581 
L 535.992717 449.936241 
L 543.283695 450.83773 
L 550.574673 451.677986 
L 557.865651 452.462385 
L 565.156629 453.195777 
L 572.447607 453.882517 
L 579.738585 454.526505 
L 587.029563 455.131224 
L 594.320541 455.699775 
L 601.611519 456.234917 
L 608.902497 456.739104 
L 616.193475 457.214517 
L 623.484452 457.663097 
L 630.77543 458.086576 
L 638.066408 458.486502 
L 645.357386 458.864264 
L 652.648364 459.221117 
L 659.939342 459.558198 
L 667.23032 459.876543 
L 674.521298 460.177104 
L 681.812276 460.460762 
L 689.103254 460.728334 
L 696.394232 460.980589 
L 703.68521 461.218247 
L 710.976188 461.441995 
L 718.267166 461.652483 
L 725.558144 461.850334 
L 732.849122 462.036147 
L 740.1401 462.210496 
L 747.431078 462.373937 
L 754.722056 462.527005 
L 762.013034 462.670217 
L 769.304012 462.804074 
L 776.59499 462.92906 
L 783.885968 463.045643 
L 791.176946 463.154275 
L 798.467924 463.255393 
L 805.758902 463.349416 
L 813.049879 463.43675 
L 820.340857 463.517785 
L 827.631835 463.592894 
L 834.922813 463.662438 
L 842.213791 463.726759 
L 849.504769 463.786187 
L 856.795747 463.841034 
L 864.086725 463.8916 
L 871.377703 463.938169 
L 878.668681 463.981012 
L 885.959659 464.020384 
" style="fill:none;stroke:#ff00ff;stroke-linecap:square;stroke-width:2;"/>
   </g>
   <g id="patch_3">
    <path d="M 128.0625 512.64 
L 128.0625 69.12 
" style="fill:none;stroke:#000000;stroke-linecap:square;stroke-linejoin:miter;stroke-width:0.8;"/>
   </g>
   <g id="patch_4">
    <path d="M 922.05 512.64 
L 922.05 69.12 
" style="fill:none;stroke:#000000;stroke-linecap:square;stroke-linejoin:miter;stroke-width:0.8;"/>
   </g>
   <g id="patch_5">
    <path d="M 128.0625 512.64 
L 922.05 512.64 
" style="fill:none;stroke:#000000;stroke-linecap:square;stroke-linejoin:miter;stroke-width:0.8;"/>
   </g>
   <g id="patch_6">
    <path d="M 128.0625 69.12 
L 922.05 69.12 
" style="fill:none;stroke:#000000;stroke-linecap:square;stroke-linejoin:miter;stroke-width:0.8;"/>
   </g>
   <g id="legend_1">
    <g id="patch_7">
     <path d="M 804.8 309.291875 
L 904.55 309.291875 
Q 909.55 309.291875 909.55 304.291875 
L 909.55 86.62 
Q 909.55 81.62 904.55 81.62 
L 804.8 81.62 
Q 799.8 81.62 799.8 86.62 
L 799.8 304.291875 
Q 799.8 309.291875 804.8 309.291875 
z
" style="fill:#ffffff;opacity:0.8;stroke:#cccccc;stroke-linejoin:miter;"/>
    </g>
    <g id="line2d_39">
     <path d="M 809.8 101.866094 
L 859.8 101.866094 
" style="fill:none;stroke:#d9d9d9;stroke-linecap:square;stroke-width:2;"/>
    </g>
    <g id="line2d_40"/>
    <g id="text_19">
     <!-- $H$ -->
     <defs>
      <path d="M 16.890625 72.90625 
L 26.8125 72.90625 
L 21 43.015625 
L 56.78125 43.015625 
L 62.59375 72.90625 
L 72.515625 72.90625 
L 58.296875 0 
L 48.390625 0 
L 55.171875 34.71875 
L 19.390625 34.71875 
L 12.59375 0 
L 2.6875 0 
z
" id="DejaVuSans-Oblique-72"/>
     </defs>
     <g transform="translate(879.8 110.616094)scale(0.25 -0.25)">
      <use transform="translate(0 0.09375)" xlink:href="#DejaVuSans-Oblique-72"/>
     </g>
    </g>
    <g id="line2d_41">
     <path d="M 809.8 138.561406 
L 859.8 138.561406 
" style="fill:none;stroke:#666666;stroke-linecap:square;stroke-width:2;"/>
    </g>
    <g id="line2d_42"/>
    <g id="text_20">
     <!-- $C$ -->
     <defs>
      <path d="M 69.484375 67.28125 
L 67.484375 56.890625 
Q 62.796875 61.625 57.546875 63.921875 
Q 52.296875 66.21875 46.1875 66.21875 
Q 37.84375 66.21875 31.515625 62.203125 
Q 25.203125 58.203125 20.609375 50 
Q 17.671875 44.734375 16.125 38.84375 
Q 14.59375 32.953125 14.59375 27 
Q 14.59375 17.046875 19.75 11.8125 
Q 24.90625 6.59375 34.71875 6.59375 
Q 41.5 6.59375 47.75 8.765625 
Q 54 10.9375 59.90625 15.28125 
L 57.625 3.609375 
Q 51.8125 1.125 45.875 -0.140625 
Q 39.9375 -1.421875 33.984375 -1.421875 
Q 19.96875 -1.421875 12.078125 6.1875 
Q 4.203125 13.8125 4.203125 27.390625 
Q 4.203125 36.078125 7.203125 44.46875 
Q 10.203125 52.875 15.828125 59.8125 
Q 21.78125 67.1875 29.421875 70.703125 
Q 37.0625 74.21875 47.21875 74.21875 
Q 53.46875 74.21875 59.0625 72.484375 
Q 64.65625 70.75 69.484375 67.28125 
z
" id="DejaVuSans-Oblique-67"/>
     </defs>
     <g transform="translate(879.8 147.311406)scale(0.25 -0.25)">
      <use transform="translate(0 0.78125)" xlink:href="#DejaVuSans-Oblique-67"/>
     </g>
    </g>
    <g id="line2d_43">
     <path d="M 809.8 175.256719 
L 859.8 175.256719 
" style="fill:none;stroke:#0000ff;stroke-linecap:square;stroke-width:2;"/>
    </g>
    <g id="line2d_44"/>
    <g id="text_21">
     <!-- $N$ -->
     <defs>
      <path d="M 16.890625 72.90625 
L 30.171875 72.90625 
L 50.296875 10.40625 
L 62.5 72.90625 
L 72.125 72.90625 
L 57.90625 0 
L 44.578125 0 
L 24.515625 62.890625 
L 12.3125 0 
L 2.6875 0 
z
" id="DejaVuSans-Oblique-78"/>
     </defs>
     <g transform="translate(879.8 184.006719)scale(0.25 -0.25)">
      <use transform="translate(0 0.09375)" xlink:href="#DejaVuSans-Oblique-78"/>
     </g>
    </g>
    <g id="line2d_45">
     <path d="M 809.8 211.952031 
L 859.8 211.952031 
" style="fill:none;stroke:#ff0000;stroke-linecap:square;stroke-width:2;"/>
    </g>
    <g id="line2d_46"/>
    <g id="text_22">
     <!-- $O$ -->
     <defs>
      <path d="M 45.609375 66.21875 
Q 37.5 66.21875 31.296875 62.28125 
Q 25.09375 58.34375 20.515625 50.296875 
Q 17.578125 45.171875 16.03125 39.40625 
Q 14.5 33.640625 14.5 27.78125 
Q 14.5 17.625 19.359375 12.109375 
Q 24.21875 6.59375 33.109375 6.59375 
Q 41.109375 6.59375 47.375 10.5625 
Q 53.65625 14.546875 58.109375 22.40625 
Q 61.078125 27.6875 62.640625 33.46875 
Q 64.203125 39.265625 64.203125 45.015625 
Q 64.203125 55.125 59.3125 60.671875 
Q 54.4375 66.21875 45.609375 66.21875 
z
M 32.8125 -1.421875 
Q 19.390625 -1.421875 11.6875 6.53125 
Q 4 14.5 4 28.328125 
Q 4 36.234375 7 44.484375 
Q 10.015625 52.734375 15.28125 59.1875 
Q 21.484375 66.75 29.09375 70.484375 
Q 36.71875 74.21875 45.90625 74.21875 
Q 59.28125 74.21875 66.984375 66.328125 
Q 74.703125 58.453125 74.703125 44.828125 
Q 74.703125 36.421875 71.765625 28.3125 
Q 68.84375 20.21875 63.375 13.625 
Q 57.125 6 49.578125 2.28125 
Q 42.046875 -1.421875 32.8125 -1.421875 
z
" id="DejaVuSans-Oblique-79"/>
     </defs>
     <g transform="translate(879.8 220.702031)scale(0.25 -0.25)">
      <use transform="translate(0 0.78125)" xlink:href="#DejaVuSans-Oblique-79"/>
     </g>
    </g>
    <g id="line2d_47">
     <path d="M 809.8 248.647344 
L 859.8 248.647344 
" style="fill:none;stroke:#00ffff;stroke-linecap:square;stroke-width:2;"/>
    </g>
    <g id="line2d_48"/>
    <g id="text_23">
     <!-- $S$ -->
     <defs>
      <path d="M 60.296875 70.515625 
L 58.40625 60.890625 
Q 53.46875 63.53125 48.609375 64.875 
Q 43.75 66.21875 39.203125 66.21875 
Q 30.375 66.21875 25.140625 62.359375 
Q 19.921875 58.5 19.921875 52.09375 
Q 19.921875 48.578125 21.84375 46.703125 
Q 23.78125 44.828125 31.78125 42.671875 
L 37.703125 41.21875 
Q 47.703125 38.625 51.609375 34.640625 
Q 55.515625 30.671875 55.515625 23.484375 
Q 55.515625 12.453125 46.84375 5.515625 
Q 38.1875 -1.421875 24.03125 -1.421875 
Q 18.21875 -1.421875 12.359375 -0.265625 
Q 6.5 0.875 0.59375 3.21875 
L 2.59375 13.375 
Q 8.015625 10.015625 13.453125 8.296875 
Q 18.890625 6.59375 24.3125 6.59375 
Q 33.546875 6.59375 39.109375 10.6875 
Q 44.671875 14.796875 44.671875 21.390625 
Q 44.671875 25.78125 42.453125 28.046875 
Q 40.234375 30.328125 32.90625 32.171875 
L 27 33.6875 
Q 16.890625 36.328125 13.203125 39.765625 
Q 9.515625 43.21875 9.515625 49.421875 
Q 9.515625 60.296875 17.890625 67.25 
Q 26.265625 74.21875 39.703125 74.21875 
Q 44.921875 74.21875 50.046875 73.28125 
Q 55.171875 72.359375 60.296875 70.515625 
z
" id="DejaVuSans-Oblique-83"/>
     </defs>
     <g transform="translate(879.8 257.397344)scale(0.25 -0.25)">
      <use transform="translate(0 0.78125)" xlink:href="#DejaVuSans-Oblique-83"/>
     </g>
    </g>
    <g id="line2d_49">
     <path d="M 809.8 285.342656 
L 859.8 285.342656 
" style="fill:none;stroke:#ff00ff;stroke-linecap:square;stroke-width:2;"/>
    </g>
    <g id="line2d_50"/>
    <g id="text_24">
     <!-- $P$ -->
     <defs>
      <path d="M 16.890625 72.90625 
L 39.703125 72.90625 
Q 49.65625 72.90625 54.875 68.265625 
Q 60.109375 63.625 60.109375 54.6875 
Q 60.109375 42.671875 52.390625 35.984375 
Q 44.671875 29.296875 30.71875 29.296875 
L 18.3125 29.296875 
L 12.59375 0 
L 2.6875 0 
z
M 25.203125 64.796875 
L 19.921875 37.40625 
L 32.328125 37.40625 
Q 40.71875 37.40625 45.203125 41.703125 
Q 49.703125 46 49.703125 54 
Q 49.703125 59.125 46.65625 61.953125 
Q 43.609375 64.796875 38.09375 64.796875 
z
" id="DejaVuSans-Oblique-80"/>
     </defs>
     <g transform="translate(879.8 294.092656)scale(0.25 -0.25)">
      <use transform="translate(0 0.09375)" xlink:href="#DejaVuSans-Oblique-80"/>
     </g>
    </g>
   </g>
  </g>
 </g>
 <defs>
  <clipPath id="p437714b1fe">
   <rect height="443.52" width="793.9875" x="128.0625" y="69.12"/>
  </clipPath>
 </defs>
</svg>
