<?xml version="1.0" encoding="utf-8" standalone="no"?>
<!DOCTYPE svg PUBLIC "-//W3C//DTD SVG 1.1//EN"
  "http://www.w3.org/Graphics/SVG/1.1/DTD/svg11.dtd">
<!-- Created with matplotlib (https://matplotlib.org/) -->
<svg height="576pt" version="1.1" viewBox="0 0 1024.5 576" width="1024.5pt" xmlns="http://www.w3.org/2000/svg" xmlns:xlink="http://www.w3.org/1999/xlink">
 <defs>
  <style type="text/css">
*{stroke-linecap:butt;stroke-linejoin:round;}
  </style>
 </defs>
 <g id="figure_1">
  <g id="patch_1">
   <path d="M 0 576 
L 1024.5 576 
L 1024.5 0 
L 0 0 
z
" style="fill:#ffffff;"/>
  </g>
  <g id="axes_1">
   <g id="patch_2">
    <path d="M 128.0625 512.64 
L 922.05 512.64 
L 922.05 69.12 
L 128.0625 69.12 
z
" style="fill:#ffffff;"/>
   </g>
   <g id="matplotlib.axis_1">
    <g id="xtick_1">
     <g id="line2d_1">
      <path clip-path="url(#p2ccf81ee13)" d="M 164.152841 512.64 
L 164.152841 69.12 
" style="fill:none;stroke:#e6e6e6;stroke-linecap:square;stroke-width:0.8;"/>
     </g>
     <g id="line2d_2">
      <defs>
       <path d="M 0 0 
L 0 3.5 
" id="mfa6b97b6b0" style="stroke:#000000;stroke-width:0.8;"/>
      </defs>
      <g>
       <use style="stroke:#000000;stroke-width:0.8;" x="164.152841" xlink:href="#mfa6b97b6b0" y="512.64"/>
      </g>
     </g>
     <g id="text_1">
      <!-- 0 -->
      <defs>
       <path d="M 31.78125 66.40625 
Q 24.171875 66.40625 20.328125 58.90625 
Q 16.5 51.421875 16.5 36.375 
Q 16.5 21.390625 20.328125 13.890625 
Q 24.171875 6.390625 31.78125 6.390625 
Q 39.453125 6.390625 43.28125 13.890625 
Q 47.125 21.390625 47.125 36.375 
Q 47.125 51.421875 43.28125 58.90625 
Q 39.453125 66.40625 31.78125 66.40625 
z
M 31.78125 74.21875 
Q 44.046875 74.21875 50.515625 64.515625 
Q 56.984375 54.828125 56.984375 36.375 
Q 56.984375 17.96875 50.515625 8.265625 
Q 44.046875 -1.421875 31.78125 -1.421875 
Q 19.53125 -1.421875 13.0625 8.265625 
Q 6.59375 17.96875 6.59375 36.375 
Q 6.59375 54.828125 13.0625 64.515625 
Q 19.53125 74.21875 31.78125 74.21875 
z
" id="DejaVuSans-48"/>
      </defs>
      <g transform="translate(159.380966 531.037656)scale(0.15 -0.15)">
       <use xlink:href="#DejaVuSans-48"/>
      </g>
     </g>
    </g>
    <g id="xtick_2">
     <g id="line2d_3">
      <path clip-path="url(#p2ccf81ee13)" d="M 284.453977 512.64 
L 284.453977 69.12 
" style="fill:none;stroke:#e6e6e6;stroke-linecap:square;stroke-width:0.8;"/>
     </g>
     <g id="line2d_4">
      <g>
       <use style="stroke:#000000;stroke-width:0.8;" x="284.453977" xlink:href="#mfa6b97b6b0" y="512.64"/>
      </g>
     </g>
     <g id="text_2">
      <!-- 1 -->
      <defs>
       <path d="M 12.40625 8.296875 
L 28.515625 8.296875 
L 28.515625 63.921875 
L 10.984375 60.40625 
L 10.984375 69.390625 
L 28.421875 72.90625 
L 38.28125 72.90625 
L 38.28125 8.296875 
L 54.390625 8.296875 
L 54.390625 0 
L 12.40625 0 
z
" id="DejaVuSans-49"/>
      </defs>
      <g transform="translate(279.682102 531.037656)scale(0.15 -0.15)">
       <use xlink:href="#DejaVuSans-49"/>
      </g>
     </g>
    </g>
    <g id="xtick_3">
     <g id="line2d_5">
      <path clip-path="url(#p2ccf81ee13)" d="M 404.755114 512.64 
L 404.755114 69.12 
" style="fill:none;stroke:#e6e6e6;stroke-linecap:square;stroke-width:0.8;"/>
     </g>
     <g id="line2d_6">
      <g>
       <use style="stroke:#000000;stroke-width:0.8;" x="404.755114" xlink:href="#mfa6b97b6b0" y="512.64"/>
      </g>
     </g>
     <g id="text_3">
      <!-- 2 -->
      <defs>
       <path d="M 19.1875 8.296875 
L 53.609375 8.296875 
L 53.609375 0 
L 7.328125 0 
L 7.328125 8.296875 
Q 12.9375 14.109375 22.625 23.890625 
Q 32.328125 33.6875 34.8125 36.53125 
Q 39.546875 41.84375 41.421875 45.53125 
Q 43.3125 49.21875 43.3125 52.78125 
Q 43.3125 58.59375 39.234375 62.25 
Q 35.15625 65.921875 28.609375 65.921875 
Q 23.96875 65.921875 18.8125 64.3125 
Q 13.671875 62.703125 7.8125 59.421875 
L 7.8125 69.390625 
Q 13.765625 71.78125 18.9375 73 
Q 24.125 74.21875 28.421875 74.21875 
Q 39.75 74.21875 46.484375 68.546875 
Q 53.21875 62.890625 53.21875 53.421875 
Q 53.21875 48.921875 51.53125 44.890625 
Q 49.859375 40.875 45.40625 35.40625 
Q 44.1875 33.984375 37.640625 27.21875 
Q 31.109375 20.453125 19.1875 8.296875 
z
" id="DejaVuSans-50"/>
      </defs>
      <g transform="translate(399.983239 531.037656)scale(0.15 -0.15)">
       <use xlink:href="#DejaVuSans-50"/>
      </g>
     </g>
    </g>
    <g id="xtick_4">
     <g id="line2d_7">
      <path clip-path="url(#p2ccf81ee13)" d="M 525.05625 512.64 
L 525.05625 69.12 
" style="fill:none;stroke:#e6e6e6;stroke-linecap:square;stroke-width:0.8;"/>
     </g>
     <g id="line2d_8">
      <g>
       <use style="stroke:#000000;stroke-width:0.8;" x="525.05625" xlink:href="#mfa6b97b6b0" y="512.64"/>
      </g>
     </g>
     <g id="text_4">
      <!-- 3 -->
      <defs>
       <path d="M 40.578125 39.3125 
Q 47.65625 37.796875 51.625 33 
Q 55.609375 28.21875 55.609375 21.1875 
Q 55.609375 10.40625 48.1875 4.484375 
Q 40.765625 -1.421875 27.09375 -1.421875 
Q 22.515625 -1.421875 17.65625 -0.515625 
Q 12.796875 0.390625 7.625 2.203125 
L 7.625 11.71875 
Q 11.71875 9.328125 16.59375 8.109375 
Q 21.484375 6.890625 26.8125 6.890625 
Q 36.078125 6.890625 40.9375 10.546875 
Q 45.796875 14.203125 45.796875 21.1875 
Q 45.796875 27.640625 41.28125 31.265625 
Q 36.765625 34.90625 28.71875 34.90625 
L 20.21875 34.90625 
L 20.21875 43.015625 
L 29.109375 43.015625 
Q 36.375 43.015625 40.234375 45.921875 
Q 44.09375 48.828125 44.09375 54.296875 
Q 44.09375 59.90625 40.109375 62.90625 
Q 36.140625 65.921875 28.71875 65.921875 
Q 24.65625 65.921875 20.015625 65.03125 
Q 15.375 64.15625 9.8125 62.3125 
L 9.8125 71.09375 
Q 15.4375 72.65625 20.34375 73.4375 
Q 25.25 74.21875 29.59375 74.21875 
Q 40.828125 74.21875 47.359375 69.109375 
Q 53.90625 64.015625 53.90625 55.328125 
Q 53.90625 49.265625 50.4375 45.09375 
Q 46.96875 40.921875 40.578125 39.3125 
z
" id="DejaVuSans-51"/>
      </defs>
      <g transform="translate(520.284375 531.037656)scale(0.15 -0.15)">
       <use xlink:href="#DejaVuSans-51"/>
      </g>
     </g>
    </g>
    <g id="xtick_5">
     <g id="line2d_9">
      <path clip-path="url(#p2ccf81ee13)" d="M 645.357386 512.64 
L 645.357386 69.12 
" style="fill:none;stroke:#e6e6e6;stroke-linecap:square;stroke-width:0.8;"/>
     </g>
     <g id="line2d_10">
      <g>
       <use style="stroke:#000000;stroke-width:0.8;" x="645.357386" xlink:href="#mfa6b97b6b0" y="512.64"/>
      </g>
     </g>
     <g id="text_5">
      <!-- 4 -->
      <defs>
       <path d="M 37.796875 64.3125 
L 12.890625 25.390625 
L 37.796875 25.390625 
z
M 35.203125 72.90625 
L 47.609375 72.90625 
L 47.609375 25.390625 
L 58.015625 25.390625 
L 58.015625 17.1875 
L 47.609375 17.1875 
L 47.609375 0 
L 37.796875 0 
L 37.796875 17.1875 
L 4.890625 17.1875 
L 4.890625 26.703125 
z
" id="DejaVuSans-52"/>
      </defs>
      <g transform="translate(640.585511 531.037656)scale(0.15 -0.15)">
       <use xlink:href="#DejaVuSans-52"/>
      </g>
     </g>
    </g>
    <g id="xtick_6">
     <g id="line2d_11">
      <path clip-path="url(#p2ccf81ee13)" d="M 765.658523 512.64 
L 765.658523 69.12 
" style="fill:none;stroke:#e6e6e6;stroke-linecap:square;stroke-width:0.8;"/>
     </g>
     <g id="line2d_12">
      <g>
       <use style="stroke:#000000;stroke-width:0.8;" x="765.658523" xlink:href="#mfa6b97b6b0" y="512.64"/>
      </g>
     </g>
     <g id="text_6">
      <!-- 5 -->
      <defs>
       <path d="M 10.796875 72.90625 
L 49.515625 72.90625 
L 49.515625 64.59375 
L 19.828125 64.59375 
L 19.828125 46.734375 
Q 21.96875 47.46875 24.109375 47.828125 
Q 26.265625 48.1875 28.421875 48.1875 
Q 40.625 48.1875 47.75 41.5 
Q 54.890625 34.8125 54.890625 23.390625 
Q 54.890625 11.625 47.5625 5.09375 
Q 40.234375 -1.421875 26.90625 -1.421875 
Q 22.3125 -1.421875 17.546875 -0.640625 
Q 12.796875 0.140625 7.71875 1.703125 
L 7.71875 11.625 
Q 12.109375 9.234375 16.796875 8.0625 
Q 21.484375 6.890625 26.703125 6.890625 
Q 35.15625 6.890625 40.078125 11.328125 
Q 45.015625 15.765625 45.015625 23.390625 
Q 45.015625 31 40.078125 35.4375 
Q 35.15625 39.890625 26.703125 39.890625 
Q 22.75 39.890625 18.8125 39.015625 
Q 14.890625 38.140625 10.796875 36.28125 
z
" id="DejaVuSans-53"/>
      </defs>
      <g transform="translate(760.886648 531.037656)scale(0.15 -0.15)">
       <use xlink:href="#DejaVuSans-53"/>
      </g>
     </g>
    </g>
    <g id="xtick_7">
     <g id="line2d_13">
      <path clip-path="url(#p2ccf81ee13)" d="M 885.959659 512.64 
L 885.959659 69.12 
" style="fill:none;stroke:#e6e6e6;stroke-linecap:square;stroke-width:0.8;"/>
     </g>
     <g id="line2d_14">
      <g>
       <use style="stroke:#000000;stroke-width:0.8;" x="885.959659" xlink:href="#mfa6b97b6b0" y="512.64"/>
      </g>
     </g>
     <g id="text_7">
      <!-- 6 -->
      <defs>
       <path d="M 33.015625 40.375 
Q 26.375 40.375 22.484375 35.828125 
Q 18.609375 31.296875 18.609375 23.390625 
Q 18.609375 15.53125 22.484375 10.953125 
Q 26.375 6.390625 33.015625 6.390625 
Q 39.65625 6.390625 43.53125 10.953125 
Q 47.40625 15.53125 47.40625 23.390625 
Q 47.40625 31.296875 43.53125 35.828125 
Q 39.65625 40.375 33.015625 40.375 
z
M 52.59375 71.296875 
L 52.59375 62.3125 
Q 48.875 64.0625 45.09375 64.984375 
Q 41.3125 65.921875 37.59375 65.921875 
Q 27.828125 65.921875 22.671875 59.328125 
Q 17.53125 52.734375 16.796875 39.40625 
Q 19.671875 43.65625 24.015625 45.921875 
Q 28.375 48.1875 33.59375 48.1875 
Q 44.578125 48.1875 50.953125 41.515625 
Q 57.328125 34.859375 57.328125 23.390625 
Q 57.328125 12.15625 50.6875 5.359375 
Q 44.046875 -1.421875 33.015625 -1.421875 
Q 20.359375 -1.421875 13.671875 8.265625 
Q 6.984375 17.96875 6.984375 36.375 
Q 6.984375 53.65625 15.1875 63.9375 
Q 23.390625 74.21875 37.203125 74.21875 
Q 40.921875 74.21875 44.703125 73.484375 
Q 48.484375 72.75 52.59375 71.296875 
z
" id="DejaVuSans-54"/>
      </defs>
      <g transform="translate(881.187784 531.037656)scale(0.15 -0.15)">
       <use xlink:href="#DejaVuSans-54"/>
      </g>
     </g>
    </g>
    <g id="text_8">
     <!-- $q(A)$ -->
     <defs>
      <path d="M 41.703125 8.203125 
Q 38.09375 3.46875 33.171875 1.015625 
Q 28.265625 -1.421875 22.3125 -1.421875 
Q 14.015625 -1.421875 9.296875 4.171875 
Q 4.59375 9.765625 4.59375 19.578125 
Q 4.59375 27.484375 7.5 34.859375 
Q 10.40625 42.234375 15.828125 48.09375 
Q 19.34375 51.90625 23.90625 53.953125 
Q 28.46875 56 33.5 56 
Q 39.546875 56 43.453125 53.609375 
Q 47.359375 51.21875 49.125 46.390625 
L 50.6875 54.59375 
L 59.71875 54.59375 
L 45.125 -20.609375 
L 36.078125 -20.609375 
z
M 13.921875 20.90625 
Q 13.921875 13.671875 16.9375 9.890625 
Q 19.96875 6.109375 25.6875 6.109375 
Q 34.1875 6.109375 40.1875 14.234375 
Q 46.1875 22.359375 46.1875 33.984375 
Q 46.1875 41.015625 43.078125 44.75 
Q 39.984375 48.484375 34.1875 48.484375 
Q 29.9375 48.484375 26.3125 46.5 
Q 22.703125 44.53125 20.015625 40.71875 
Q 17.1875 36.71875 15.546875 31.34375 
Q 13.921875 25.984375 13.921875 20.90625 
z
" id="DejaVuSans-Oblique-113"/>
      <path d="M 31 75.875 
Q 24.46875 64.65625 21.28125 53.65625 
Q 18.109375 42.671875 18.109375 31.390625 
Q 18.109375 20.125 21.3125 9.0625 
Q 24.515625 -2 31 -13.1875 
L 23.1875 -13.1875 
Q 15.875 -1.703125 12.234375 9.375 
Q 8.59375 20.453125 8.59375 31.390625 
Q 8.59375 42.28125 12.203125 53.3125 
Q 15.828125 64.359375 23.1875 75.875 
z
" id="DejaVuSans-40"/>
      <path d="M 36.8125 72.90625 
L 48 72.90625 
L 61.53125 0 
L 51.21875 0 
L 48.1875 18.703125 
L 15.375 18.703125 
L 5.078125 0 
L -5.328125 0 
z
M 40.375 63.1875 
L 19.921875 26.90625 
L 46.6875 26.90625 
z
" id="DejaVuSans-Oblique-65"/>
      <path d="M 8.015625 75.875 
L 15.828125 75.875 
Q 23.140625 64.359375 26.78125 53.3125 
Q 30.421875 42.28125 30.421875 31.390625 
Q 30.421875 20.453125 26.78125 9.375 
Q 23.140625 -1.703125 15.828125 -13.1875 
L 8.015625 -13.1875 
Q 14.5 -2 17.703125 9.0625 
Q 20.90625 20.125 20.90625 31.390625 
Q 20.90625 42.671875 17.703125 53.65625 
Q 14.5 64.65625 8.015625 75.875 
z
" id="DejaVuSans-41"/>
     </defs>
     <g transform="translate(493.55625 560.957188)scale(0.3 -0.3)">
      <use transform="translate(0 0.125)" xlink:href="#DejaVuSans-Oblique-113"/>
      <use transform="translate(63.476562 0.125)" xlink:href="#DejaVuSans-40"/>
      <use transform="translate(102.490234 0.125)" xlink:href="#DejaVuSans-Oblique-65"/>
      <use transform="translate(170.898438 0.125)" xlink:href="#DejaVuSans-41"/>
     </g>
    </g>
   </g>
   <g id="matplotlib.axis_2">
    <g id="ytick_1">
     <g id="line2d_15">
      <path clip-path="url(#p2ccf81ee13)" d="M 128.0625 456.199722 
L 922.05 456.199722 
" style="fill:none;stroke:#e6e6e6;stroke-linecap:square;stroke-width:0.8;"/>
     </g>
     <g id="line2d_16">
      <defs>
       <path d="M 0 0 
L -3.5 0 
" id="m3fab2a6fd0" style="stroke:#000000;stroke-width:0.8;"/>
      </defs>
      <g>
       <use style="stroke:#000000;stroke-width:0.8;" x="128.0625" xlink:href="#m3fab2a6fd0" y="456.199722"/>
      </g>
     </g>
     <g id="text_9">
      <!-- 0.0 -->
      <defs>
       <path d="M 10.6875 12.40625 
L 21 12.40625 
L 21 0 
L 10.6875 0 
z
" id="DejaVuSans-46"/>
      </defs>
      <g transform="translate(97.207813 461.89855)scale(0.15 -0.15)">
       <use xlink:href="#DejaVuSans-48"/>
       <use x="63.623047" xlink:href="#DejaVuSans-46"/>
       <use x="95.410156" xlink:href="#DejaVuSans-48"/>
      </g>
     </g>
    </g>
    <g id="ytick_2">
     <g id="line2d_17">
      <path clip-path="url(#p2ccf81ee13)" d="M 128.0625 398.867799 
L 922.05 398.867799 
" style="fill:none;stroke:#e6e6e6;stroke-linecap:square;stroke-width:0.8;"/>
     </g>
     <g id="line2d_18">
      <g>
       <use style="stroke:#000000;stroke-width:0.8;" x="128.0625" xlink:href="#m3fab2a6fd0" y="398.867799"/>
      </g>
     </g>
     <g id="text_10">
      <!-- 2.5 -->
      <g transform="translate(97.207813 404.566627)scale(0.15 -0.15)">
       <use xlink:href="#DejaVuSans-50"/>
       <use x="63.623047" xlink:href="#DejaVuSans-46"/>
       <use x="95.410156" xlink:href="#DejaVuSans-53"/>
      </g>
     </g>
    </g>
    <g id="ytick_3">
     <g id="line2d_19">
      <path clip-path="url(#p2ccf81ee13)" d="M 128.0625 341.535876 
L 922.05 341.535876 
" style="fill:none;stroke:#e6e6e6;stroke-linecap:square;stroke-width:0.8;"/>
     </g>
     <g id="line2d_20">
      <g>
       <use style="stroke:#000000;stroke-width:0.8;" x="128.0625" xlink:href="#m3fab2a6fd0" y="341.535876"/>
      </g>
     </g>
     <g id="text_11">
      <!-- 5.0 -->
      <g transform="translate(97.207813 347.234704)scale(0.15 -0.15)">
       <use xlink:href="#DejaVuSans-53"/>
       <use x="63.623047" xlink:href="#DejaVuSans-46"/>
       <use x="95.410156" xlink:href="#DejaVuSans-48"/>
      </g>
     </g>
    </g>
    <g id="ytick_4">
     <g id="line2d_21">
      <path clip-path="url(#p2ccf81ee13)" d="M 128.0625 284.203952 
L 922.05 284.203952 
" style="fill:none;stroke:#e6e6e6;stroke-linecap:square;stroke-width:0.8;"/>
     </g>
     <g id="line2d_22">
      <g>
       <use style="stroke:#000000;stroke-width:0.8;" x="128.0625" xlink:href="#m3fab2a6fd0" y="284.203952"/>
      </g>
     </g>
     <g id="text_12">
      <!-- 7.5 -->
      <defs>
       <path d="M 8.203125 72.90625 
L 55.078125 72.90625 
L 55.078125 68.703125 
L 28.609375 0 
L 18.3125 0 
L 43.21875 64.59375 
L 8.203125 64.59375 
z
" id="DejaVuSans-55"/>
      </defs>
      <g transform="translate(97.207813 289.90278)scale(0.15 -0.15)">
       <use xlink:href="#DejaVuSans-55"/>
       <use x="63.623047" xlink:href="#DejaVuSans-46"/>
       <use x="95.410156" xlink:href="#DejaVuSans-53"/>
      </g>
     </g>
    </g>
    <g id="ytick_5">
     <g id="line2d_23">
      <path clip-path="url(#p2ccf81ee13)" d="M 128.0625 226.872029 
L 922.05 226.872029 
" style="fill:none;stroke:#e6e6e6;stroke-linecap:square;stroke-width:0.8;"/>
     </g>
     <g id="line2d_24">
      <g>
       <use style="stroke:#000000;stroke-width:0.8;" x="128.0625" xlink:href="#m3fab2a6fd0" y="226.872029"/>
      </g>
     </g>
     <g id="text_13">
      <!-- 10.0 -->
      <g transform="translate(87.664062 232.570857)scale(0.15 -0.15)">
       <use xlink:href="#DejaVuSans-49"/>
       <use x="63.623047" xlink:href="#DejaVuSans-48"/>
       <use x="127.246094" xlink:href="#DejaVuSans-46"/>
       <use x="159.033203" xlink:href="#DejaVuSans-48"/>
      </g>
     </g>
    </g>
    <g id="ytick_6">
     <g id="line2d_25">
      <path clip-path="url(#p2ccf81ee13)" d="M 128.0625 169.540106 
L 922.05 169.540106 
" style="fill:none;stroke:#e6e6e6;stroke-linecap:square;stroke-width:0.8;"/>
     </g>
     <g id="line2d_26">
      <g>
       <use style="stroke:#000000;stroke-width:0.8;" x="128.0625" xlink:href="#m3fab2a6fd0" y="169.540106"/>
      </g>
     </g>
     <g id="text_14">
      <!-- 12.5 -->
      <g transform="translate(87.664062 175.238934)scale(0.15 -0.15)">
       <use xlink:href="#DejaVuSans-49"/>
       <use x="63.623047" xlink:href="#DejaVuSans-50"/>
       <use x="127.246094" xlink:href="#DejaVuSans-46"/>
       <use x="159.033203" xlink:href="#DejaVuSans-53"/>
      </g>
     </g>
    </g>
    <g id="ytick_7">
     <g id="line2d_27">
      <path clip-path="url(#p2ccf81ee13)" d="M 128.0625 112.208183 
L 922.05 112.208183 
" style="fill:none;stroke:#e6e6e6;stroke-linecap:square;stroke-width:0.8;"/>
     </g>
     <g id="line2d_28">
      <g>
       <use style="stroke:#000000;stroke-width:0.8;" x="128.0625" xlink:href="#m3fab2a6fd0" y="112.208183"/>
      </g>
     </g>
     <g id="text_15">
      <!-- 15.0 -->
      <g transform="translate(87.664062 117.907011)scale(0.15 -0.15)">
       <use xlink:href="#DejaVuSans-49"/>
       <use x="63.623047" xlink:href="#DejaVuSans-53"/>
       <use x="127.246094" xlink:href="#DejaVuSans-46"/>
       <use x="159.033203" xlink:href="#DejaVuSans-48"/>
      </g>
     </g>
    </g>
    <g id="text_16">
     <!-- $f^x(e)$ -->
     <defs>
      <path d="M 47.796875 75.984375 
L 46.390625 68.5 
L 37.796875 68.5 
Q 32.90625 68.5 30.6875 66.578125 
Q 28.46875 64.65625 27.390625 59.515625 
L 26.421875 54.6875 
L 41.21875 54.6875 
L 39.890625 47.703125 
L 25.09375 47.703125 
L 15.828125 0 
L 6.78125 0 
L 16.109375 47.703125 
L 7.515625 47.703125 
L 8.796875 54.6875 
L 17.390625 54.6875 
L 18.109375 58.5 
Q 19.96875 68.171875 24.625 72.078125 
Q 29.296875 75.984375 39.3125 75.984375 
z
" id="DejaVuSans-Oblique-102"/>
      <path d="M 60.015625 54.6875 
L 34.90625 27.875 
L 50.296875 0 
L 39.984375 0 
L 28.421875 21.6875 
L 8.296875 0 
L -2.59375 0 
L 24.3125 28.8125 
L 10.015625 54.6875 
L 20.3125 54.6875 
L 30.8125 34.90625 
L 49.125 54.6875 
z
" id="DejaVuSans-Oblique-120"/>
      <path d="M 48.09375 32.234375 
Q 48.25 33.015625 48.3125 33.84375 
Q 48.390625 34.671875 48.390625 35.5 
Q 48.390625 41.453125 44.890625 44.921875 
Q 41.40625 48.390625 35.40625 48.390625 
Q 28.71875 48.390625 23.578125 44.15625 
Q 18.453125 39.9375 15.828125 32.171875 
z
M 55.90625 25.203125 
L 14.109375 25.203125 
Q 13.8125 23.34375 13.71875 22.265625 
Q 13.625 21.1875 13.625 20.40625 
Q 13.625 13.625 17.796875 9.90625 
Q 21.96875 6.203125 29.59375 6.203125 
Q 35.453125 6.203125 40.671875 7.515625 
Q 45.90625 8.84375 50.390625 11.375 
L 48.6875 2.484375 
Q 43.84375 0.53125 38.6875 -0.4375 
Q 33.546875 -1.421875 28.21875 -1.421875 
Q 16.84375 -1.421875 10.71875 4.015625 
Q 4.59375 9.46875 4.59375 19.484375 
Q 4.59375 28.03125 7.640625 35.375 
Q 10.6875 42.71875 16.609375 48.484375 
Q 20.40625 52.09375 25.65625 54.046875 
Q 30.90625 56 36.8125 56 
Q 46.09375 56 51.578125 50.4375 
Q 57.078125 44.875 57.078125 35.5 
Q 57.078125 33.25 56.78125 30.6875 
Q 56.5 28.125 55.90625 25.203125 
z
" id="DejaVuSans-Oblique-101"/>
     </defs>
     <g transform="translate(77.425 324.93)rotate(-90)scale(0.3 -0.3)">
      <use transform="translate(0 0.4375)" xlink:href="#DejaVuSans-Oblique-102"/>
      <use transform="translate(42.652786 38.71875)scale(0.7)" xlink:href="#DejaVuSans-Oblique-120"/>
      <use transform="translate(86.812943 0.4375)" xlink:href="#DejaVuSans-40"/>
      <use transform="translate(125.826615 0.4375)" xlink:href="#DejaVuSans-Oblique-101"/>
      <use transform="translate(187.350052 0.4375)" xlink:href="#DejaVuSans-41"/>
     </g>
    </g>
   </g>
   <g id="line2d_29">
    <path clip-path="url(#p2ccf81ee13)" d="M 164.152841 433.269888 
L 171.443819 435.019436 
L 178.734797 439.227064 
L 186.025775 443.902118 
L 193.316753 447.770561 
L 200.607731 450.550584 
L 207.898709 452.417977 
L 215.189687 453.634931 
L 222.480665 454.426737 
L 229.771643 454.95094 
L 237.062621 455.304614 
L 244.353598 455.546057 
L 251.644576 455.712443 
L 258.935554 455.828916 
L 266.226532 455.912517 
L 273.51751 455.974352 
L 280.808488 456.021334 
L 288.099466 456.05766 
L 295.390444 456.085924 
L 302.681422 456.107848 
L 309.9724 456.124688 
L 317.263378 456.137445 
L 324.554356 456.146955 
L 331.845334 456.153925 
L 339.136312 456.158943 
L 346.42729 456.162494 
L 353.718268 456.164961 
L 361.009246 456.166646 
L 368.300224 456.167776 
L 375.591202 456.168522 
L 382.88218 456.169005 
L 390.173158 456.169312 
L 397.464136 456.169505 
L 404.755114 456.169623 
L 412.046092 456.169695 
L 419.33707 456.169738 
L 426.628048 456.169763 
L 433.919025 456.169777 
L 441.210003 456.169785 
L 448.500981 456.16979 
L 455.791959 456.169792 
L 463.082937 456.169793 
L 470.373915 456.169794 
L 477.664893 456.169794 
L 484.955871 456.169795 
L 492.246849 456.169795 
L 499.537827 456.169795 
L 506.828805 456.169795 
L 514.119783 456.169795 
L 521.410761 456.169795 
L 528.701739 456.169795 
L 535.992717 456.169795 
L 543.283695 456.169795 
L 550.574673 456.169795 
L 557.865651 456.169795 
L 565.156629 456.169795 
L 572.447607 456.169795 
L 579.738585 456.169795 
L 587.029563 456.169795 
L 594.320541 456.169795 
L 601.611519 456.169795 
L 608.902497 456.169795 
L 616.193475 456.169795 
L 623.484452 456.169795 
L 630.77543 456.169795 
L 638.066408 456.169795 
L 645.357386 456.169795 
L 652.648364 456.169795 
L 659.939342 456.169795 
L 667.23032 456.169795 
L 674.521298 456.169795 
L 681.812276 456.169795 
L 689.103254 456.169795 
L 696.394232 456.169795 
L 703.68521 456.169795 
L 710.976188 456.169795 
L 718.267166 456.169795 
L 725.558144 456.169795 
L 732.849122 456.169795 
L 740.1401 456.169795 
L 747.431078 456.169795 
L 754.722056 456.169795 
L 762.013034 456.169795 
L 769.304012 456.169795 
L 776.59499 456.169795 
L 783.885968 456.169795 
L 791.176946 456.169795 
L 798.467924 456.169795 
L 805.758902 456.169795 
L 813.049879 456.169795 
L 820.340857 456.169795 
L 827.631835 456.169795 
L 834.922813 456.169795 
L 842.213791 456.169795 
L 849.504769 456.169795 
L 856.795747 456.169795 
L 864.086725 456.169795 
L 871.377703 456.169795 
L 878.668681 456.169795 
L 885.959659 456.169795 
" style="fill:none;stroke:#d9d9d9;stroke-linecap:square;stroke-width:2;"/>
   </g>
   <g id="line2d_30">
    <path clip-path="url(#p2ccf81ee13)" d="M 164.152841 318.621453 
L 171.443819 326.890696 
L 178.734797 346.706135 
L 186.025775 368.618051 
L 193.316753 386.667898 
L 200.607731 399.530602 
L 207.898709 408.011044 
L 215.189687 413.397548 
L 222.480665 416.865748 
L 229.771643 419.265563 
L 237.062621 421.116639 
L 244.353598 422.705481 
L 251.644576 424.181636 
L 258.935554 425.61885 
L 266.226532 427.048936 
L 273.51751 428.480885 
L 280.808488 429.912097 
L 288.099466 431.33482 
L 295.390444 432.739575 
L 302.681422 434.116823 
L 309.9724 435.457709 
L 317.263378 436.754381 
L 324.554356 438.000113 
L 331.845334 439.189342 
L 339.136312 440.317668 
L 346.42729 441.381818 
L 353.718268 442.379594 
L 361.009246 443.309804 
L 368.300224 444.172179 
L 375.591202 444.967283 
L 382.88218 445.696407 
L 390.173158 446.361477 
L 397.464136 446.964941 
L 404.755114 447.509674 
L 412.046092 447.99888 
L 419.33707 448.435997 
L 426.628048 448.824618 
L 433.919025 449.16841 
L 441.210003 449.471049 
L 448.500981 449.736162 
L 455.791959 449.967279 
L 463.082937 450.16779 
L 470.373915 450.340919 
L 477.664893 450.489695 
L 484.955871 450.616939 
L 492.246849 450.725259 
L 499.537827 450.817037 
L 506.828805 450.894438 
L 514.119783 450.959412 
L 521.410761 451.013703 
L 528.701739 451.05886 
L 535.992717 451.096247 
L 543.283695 451.127059 
L 550.574673 451.152339 
L 557.865651 451.172985 
L 565.156629 451.18977 
L 572.447607 451.203356 
L 579.738585 451.214302 
L 587.029563 451.223082 
L 594.320541 451.230093 
L 601.611519 451.235667 
L 608.902497 451.240078 
L 616.193475 451.243553 
L 623.484452 451.24628 
L 630.77543 451.248409 
L 638.066408 451.250064 
L 645.357386 451.251346 
L 652.648364 451.252333 
L 659.939342 451.253091 
L 667.23032 451.25367 
L 674.521298 451.25411 
L 681.812276 451.254444 
L 689.103254 451.254695 
L 696.394232 451.254884 
L 703.68521 451.255025 
L 710.976188 451.25513 
L 718.267166 451.255207 
L 725.558144 451.255265 
L 732.849122 451.255307 
L 740.1401 451.255338 
L 747.431078 451.25536 
L 754.722056 451.255376 
L 762.013034 451.255388 
L 769.304012 451.255396 
L 776.59499 451.255402 
L 783.885968 451.255407 
L 791.176946 451.25541 
L 798.467924 451.255412 
L 805.758902 451.255414 
L 813.049879 451.255415 
L 820.340857 451.255415 
L 827.631835 451.255416 
L 834.922813 451.255416 
L 842.213791 451.255416 
L 849.504769 451.255417 
L 856.795747 451.255417 
L 864.086725 451.255417 
L 871.377703 451.255417 
L 878.668681 451.255417 
L 885.959659 451.255417 
" style="fill:none;stroke:#666666;stroke-linecap:square;stroke-width:2;"/>
   </g>
   <g id="line2d_31">
    <path clip-path="url(#p2ccf81ee13)" d="M 164.152841 295.794174 
L 171.443819 303.08355 
L 178.734797 321.773885 
L 186.025775 344.850357 
L 193.316753 366.214037 
L 200.607731 383.139461 
L 207.898709 395.556965 
L 215.189687 404.370426 
L 222.480665 410.505308 
L 229.771643 414.715014 
L 237.062621 417.616452 
L 244.353598 419.70193 
L 251.644576 421.329095 
L 258.935554 422.727891 
L 266.226532 424.02813 
L 273.51751 425.293227 
L 280.808488 426.548456 
L 288.099466 427.79987 
L 295.390444 429.045099 
L 302.681422 430.278748 
L 309.9724 431.494818 
L 317.263378 432.687689 
L 324.554356 433.852485 
L 331.845334 434.985186 
L 339.136312 436.082651 
L 346.42729 437.142594 
L 353.718268 438.16354 
L 361.009246 439.14477 
L 368.300224 440.086253 
L 375.591202 440.98857 
L 382.88218 441.852842 
L 390.173158 442.680642 
L 397.464136 443.47392 
L 404.755114 444.234924 
L 412.046092 444.966125 
L 419.33707 445.670147 
L 426.628048 446.349708 
L 433.919025 447.007556 
L 441.210003 447.646429 
L 448.500981 448.269005 
L 455.791959 448.87787 
L 463.082937 449.475493 
L 470.373915 450.064198 
L 477.664893 450.646157 
L 484.955871 451.223375 
L 492.246849 451.797686 
L 499.537827 452.370753 
L 506.828805 452.944071 
L 514.119783 453.518971 
L 521.410761 454.096629 
L 528.701739 454.678075 
L 535.992717 455.264202 
L 543.283695 455.855778 
L 550.574673 456.453458 
L 557.865651 457.057795 
L 565.156629 457.669248 
L 572.447607 458.288198 
L 579.738585 458.91495 
L 587.029563 459.549752 
L 594.320541 460.192793 
L 601.611519 460.84422 
L 608.902497 461.504136 
L 616.193475 462.172612 
L 623.484452 462.849693 
L 630.77543 463.535395 
L 638.066408 464.229718 
L 645.357386 464.932644 
L 652.648364 465.644141 
L 659.939342 466.364166 
L 667.23032 467.092665 
L 674.521298 467.82958 
L 681.812276 468.574842 
L 689.103254 469.328381 
L 696.394232 470.090119 
L 703.68521 470.859979 
L 710.976188 471.637876 
L 718.267166 472.423727 
L 725.558144 473.217445 
L 732.849122 474.01894 
L 740.1401 474.828123 
L 747.431078 475.644904 
L 754.722056 476.469188 
L 762.013034 477.300884 
L 769.304012 478.139898 
L 776.59499 478.986133 
L 783.885968 479.839496 
L 791.176946 480.699889 
L 798.467924 481.567215 
L 805.758902 482.441378 
L 813.049879 483.322279 
L 820.340857 484.209819 
L 827.631835 485.103901 
L 834.922813 486.004424 
L 842.213791 486.911288 
L 849.504769 487.824393 
L 856.795747 488.743639 
L 864.086725 489.668924 
L 871.377703 490.600147 
L 878.668681 491.537207 
L 885.959659 492.48 
" style="fill:none;stroke:#0000ff;stroke-linecap:square;stroke-width:2;"/>
   </g>
   <g id="line2d_32">
    <path clip-path="url(#p2ccf81ee13)" d="M 164.152841 272.751327 
L 171.443819 279.471654 
L 178.734797 297.146082 
L 186.025775 320.157507 
L 193.316753 343.231084 
L 200.607731 363.333026 
L 207.898709 379.460945 
L 215.189687 391.738239 
L 222.480665 400.765807 
L 229.771643 407.281147 
L 237.062621 411.971715 
L 244.353598 415.388684 
L 251.644576 417.937227 
L 258.935554 419.904522 
L 266.226532 421.492588 
L 273.51751 422.84266 
L 280.808488 424.051185 
L 288.099466 425.181089 
L 295.390444 426.270733 
L 302.681422 427.341358 
L 309.9724 428.403011 
L 317.263378 429.458916 
L 324.554356 430.50846 
L 331.845334 431.549064 
L 339.136312 432.5773 
L 346.42729 433.589494 
L 353.718268 434.582054 
L 361.009246 435.551625 
L 368.300224 436.495173 
L 375.591202 437.410012 
L 382.88218 438.293822 
L 390.173158 439.14465 
L 397.464136 439.960901 
L 404.755114 440.741333 
L 412.046092 441.485041 
L 419.33707 442.191438 
L 426.628048 442.860239 
L 433.919025 443.491439 
L 441.210003 444.085292 
L 448.500981 444.642282 
L 455.791959 445.163106 
L 463.082937 445.648642 
L 470.373915 446.099931 
L 477.664893 446.518149 
L 484.955871 446.904584 
L 492.246849 447.260615 
L 499.537827 447.58769 
L 506.828805 447.887304 
L 514.119783 448.160985 
L 521.410761 448.410272 
L 528.701739 448.636705 
L 535.992717 448.841805 
L 543.283695 449.027069 
L 550.574673 449.193954 
L 557.865651 449.343872 
L 565.156629 449.478181 
L 572.447607 449.598181 
L 579.738585 449.705105 
L 587.029563 449.800123 
L 594.320541 449.884334 
L 601.611519 449.958768 
L 608.902497 450.024386 
L 616.193475 450.082078 
L 623.484452 450.132668 
L 630.77543 450.176914 
L 638.066408 450.215509 
L 645.357386 450.249087 
L 652.648364 450.278225 
L 659.939342 450.303443 
L 667.23032 450.325212 
L 674.521298 450.343955 
L 681.812276 450.360052 
L 689.103254 450.373839 
L 696.394232 450.385619 
L 703.68521 450.395658 
L 710.976188 450.40419 
L 718.267166 450.411424 
L 725.558144 450.417542 
L 732.849122 450.422702 
L 740.1401 450.427043 
L 747.431078 450.430687 
L 754.722056 450.433737 
L 762.013034 450.436283 
L 769.304012 450.438404 
L 776.59499 450.440167 
L 783.885968 450.441627 
L 791.176946 450.442834 
L 798.467924 450.443829 
L 805.758902 450.444647 
L 813.049879 450.445319 
L 820.340857 450.445868 
L 827.631835 450.446317 
L 834.922813 450.446682 
L 842.213791 450.446979 
L 849.504769 450.447219 
L 856.795747 450.447413 
L 864.086725 450.44757 
L 871.377703 450.447696 
L 878.668681 450.447797 
L 885.959659 450.447877 
" style="fill:none;stroke:#ff0000;stroke-linecap:square;stroke-width:2;"/>
   </g>
   <g id="line2d_33">
    <path clip-path="url(#p2ccf81ee13)" d="M 164.152841 89.28 
L 171.443819 106.294581 
L 178.734797 146.452524 
L 186.025775 189.828422 
L 193.316753 224.882673 
L 200.607731 249.989025 
L 207.898709 267.666969 
L 215.189687 281.034013 
L 222.480665 292.464673 
L 229.771643 303.257849 
L 237.062621 313.884108 
L 244.353598 324.381204 
L 251.644576 334.629459 
L 258.935554 344.481074 
L 266.226532 353.806153 
L 273.51751 362.505463 
L 280.808488 370.512269 
L 288.099466 377.790541 
L 295.390444 384.331598 
L 302.681422 390.149887 
L 309.9724 395.278346 
L 317.263378 399.763675 
L 324.554356 403.661829 
L 331.845334 407.033942 
L 339.136312 409.942836 
L 346.42729 412.450183 
L 353.718268 414.614363 
L 361.009246 416.488966 
L 368.300224 418.121877 
L 375.591202 419.554868 
L 382.88218 420.823576 
L 390.173158 421.957786 
L 397.464136 422.98191 
L 404.755114 423.915592 
L 412.046092 424.774365 
L 419.33707 425.570307 
L 426.628048 426.312673 
L 433.919025 427.008454 
L 441.210003 427.662877 
L 448.500981 428.279827 
L 455.791959 428.862184 
L 463.082937 429.412112 
L 470.373915 429.931267 
L 477.664893 430.420966 
L 484.955871 430.882311 
L 492.246849 431.316276 
L 499.537827 431.723766 
L 506.828805 432.105665 
L 514.119783 432.462853 
L 521.410761 432.79623 
L 528.701739 433.106714 
L 535.992717 433.395249 
L 543.283695 433.6628 
L 550.574673 433.910348 
L 557.865651 434.138886 
L 565.156629 434.349411 
L 572.447607 434.542919 
L 579.738585 434.720398 
L 587.029563 434.882823 
L 594.320541 435.031149 
L 601.611519 435.16631 
L 608.902497 435.289209 
L 616.193475 435.400721 
L 623.484452 435.501686 
L 630.77543 435.592908 
L 638.066408 435.675154 
L 645.357386 435.749151 
L 652.648364 435.815586 
L 659.939342 435.875109 
L 667.23032 435.928327 
L 674.521298 435.97581 
L 681.812276 436.018087 
L 689.103254 436.055653 
L 696.394232 436.088964 
L 703.68521 436.11844 
L 710.976188 436.14447 
L 718.267166 436.167411 
L 725.558144 436.187587 
L 732.849122 436.205295 
L 740.1401 436.220806 
L 747.431078 436.234366 
L 754.722056 436.246195 
L 762.013034 436.256494 
L 769.304012 436.265442 
L 776.59499 436.273202 
L 783.885968 436.279917 
L 791.176946 436.285717 
L 798.467924 436.290716 
L 805.758902 436.295016 
L 813.049879 436.298708 
L 820.340857 436.301871 
L 827.631835 436.304576 
L 834.922813 436.306884 
L 842.213791 436.30885 
L 849.504769 436.310521 
L 856.795747 436.311939 
L 864.086725 436.31314 
L 871.377703 436.314154 
L 878.668681 436.315009 
L 885.959659 436.31573 
" style="fill:none;stroke:#00ffff;stroke-linecap:square;stroke-width:2;"/>
   </g>
   <g id="line2d_34">
    <path clip-path="url(#p2ccf81ee13)" d="M 164.152841 112.224236 
L 171.443819 130.003789 
L 178.734797 169.776531 
L 186.025775 209.324392 
L 193.316753 239.086256 
L 200.607731 259.894678 
L 207.898709 275.23136 
L 215.189687 288.079266 
L 222.480665 300.141425 
L 229.771643 312.018883 
L 237.062621 323.72777 
L 244.353598 335.088076 
L 251.644576 345.900433 
L 258.935554 356.002995 
L 266.226532 365.283944 
L 273.51751 373.680528 
L 280.808488 381.173627 
L 288.099466 387.780353 
L 295.390444 393.545809 
L 302.681422 398.534805 
L 309.9724 402.824167 
L 317.263378 406.496067 
L 324.554356 409.632643 
L 331.845334 412.311976 
L 339.136312 414.605385 
L 346.42729 416.57589 
L 353.718268 418.277623 
L 361.009246 419.755969 
L 368.300224 421.048211 
L 375.591202 422.184465 
L 382.88218 423.188765 
L 390.173158 424.080147 
L 397.464136 424.873673 
L 404.755114 425.581326 
L 412.046092 426.212768 
L 419.33707 426.775938 
L 426.628048 427.277527 
L 433.919025 427.723321 
L 441.210003 428.118452 
L 448.500981 428.467565 
L 455.791959 428.774936 
L 463.082937 429.044534 
L 470.373915 429.280067 
L 477.664893 429.485 
L 484.955871 429.662567 
L 492.246849 429.815774 
L 499.537827 429.9474 
L 506.828805 430.060005 
L 514.119783 430.155925 
L 521.410761 430.237285 
L 528.701739 430.306 
L 535.992717 430.36379 
L 543.283695 430.412185 
L 550.574673 430.452542 
L 557.865651 430.486054 
L 565.156629 430.513764 
L 572.447607 430.536582 
L 579.738585 430.555292 
L 587.029563 430.57057 
L 594.320541 430.582994 
L 601.611519 430.593055 
L 608.902497 430.601169 
L 616.193475 430.607686 
L 623.484452 430.612898 
L 630.77543 430.617049 
L 638.066408 430.620342 
L 645.357386 430.622944 
L 652.648364 430.624991 
L 659.939342 430.626595 
L 667.23032 430.627847 
L 674.521298 430.62882 
L 681.812276 430.629573 
L 689.103254 430.630153 
L 696.394232 430.630599 
L 703.68521 430.63094 
L 710.976188 430.631199 
L 718.267166 430.631396 
L 725.558144 430.631545 
L 732.849122 430.631657 
L 740.1401 430.631741 
L 747.431078 430.631803 
L 754.722056 430.63185 
L 762.013034 430.631884 
L 769.304012 430.63191 
L 776.59499 430.631929 
L 783.885968 430.631942 
L 791.176946 430.631952 
L 798.467924 430.631959 
L 805.758902 430.631965 
L 813.049879 430.631968 
L 820.340857 430.631971 
L 827.631835 430.631973 
L 834.922813 430.631974 
L 842.213791 430.631975 
L 849.504769 430.631976 
L 856.795747 430.631976 
L 864.086725 430.631977 
L 871.377703 430.631977 
L 878.668681 430.631977 
L 885.959659 430.631977 
" style="fill:none;stroke:#ff00ff;stroke-linecap:square;stroke-width:2;"/>
   </g>
   <g id="patch_3">
    <path d="M 128.0625 512.64 
L 128.0625 69.12 
" style="fill:none;stroke:#000000;stroke-linecap:square;stroke-linejoin:miter;stroke-width:0.8;"/>
   </g>
   <g id="patch_4">
    <path d="M 922.05 512.64 
L 922.05 69.12 
" style="fill:none;stroke:#000000;stroke-linecap:square;stroke-linejoin:miter;stroke-width:0.8;"/>
   </g>
   <g id="patch_5">
    <path d="M 128.0625 512.64 
L 922.05 512.64 
" style="fill:none;stroke:#000000;stroke-linecap:square;stroke-linejoin:miter;stroke-width:0.8;"/>
   </g>
   <g id="patch_6">
    <path d="M 128.0625 69.12 
L 922.05 69.12 
" style="fill:none;stroke:#000000;stroke-linecap:square;stroke-linejoin:miter;stroke-width:0.8;"/>
   </g>
   <g id="legend_1">
    <g id="patch_7">
     <path d="M 804.8 309.291875 
L 904.55 309.291875 
Q 909.55 309.291875 909.55 304.291875 
L 909.55 86.62 
Q 909.55 81.62 904.55 81.62 
L 804.8 81.62 
Q 799.8 81.62 799.8 86.62 
L 799.8 304.291875 
Q 799.8 309.291875 804.8 309.291875 
z
" style="fill:#ffffff;opacity:0.8;stroke:#cccccc;stroke-linejoin:miter;"/>
    </g>
    <g id="line2d_35">
     <path d="M 809.8 101.866094 
L 859.8 101.866094 
" style="fill:none;stroke:#d9d9d9;stroke-linecap:square;stroke-width:2;"/>
    </g>
    <g id="line2d_36"/>
    <g id="text_17">
     <!-- $H$ -->
     <defs>
      <path d="M 16.890625 72.90625 
L 26.8125 72.90625 
L 21 43.015625 
L 56.78125 43.015625 
L 62.59375 72.90625 
L 72.515625 72.90625 
L 58.296875 0 
L 48.390625 0 
L 55.171875 34.71875 
L 19.390625 34.71875 
L 12.59375 0 
L 2.6875 0 
z
" id="DejaVuSans-Oblique-72"/>
     </defs>
     <g transform="translate(879.8 110.616094)scale(0.25 -0.25)">
      <use transform="translate(0 0.09375)" xlink:href="#DejaVuSans-Oblique-72"/>
     </g>
    </g>
    <g id="line2d_37">
     <path d="M 809.8 138.561406 
L 859.8 138.561406 
" style="fill:none;stroke:#666666;stroke-linecap:square;stroke-width:2;"/>
    </g>
    <g id="line2d_38"/>
    <g id="text_18">
     <!-- $C$ -->
     <defs>
      <path d="M 69.484375 67.28125 
L 67.484375 56.890625 
Q 62.796875 61.625 57.546875 63.921875 
Q 52.296875 66.21875 46.1875 66.21875 
Q 37.84375 66.21875 31.515625 62.203125 
Q 25.203125 58.203125 20.609375 50 
Q 17.671875 44.734375 16.125 38.84375 
Q 14.59375 32.953125 14.59375 27 
Q 14.59375 17.046875 19.75 11.8125 
Q 24.90625 6.59375 34.71875 6.59375 
Q 41.5 6.59375 47.75 8.765625 
Q 54 10.9375 59.90625 15.28125 
L 57.625 3.609375 
Q 51.8125 1.125 45.875 -0.140625 
Q 39.9375 -1.421875 33.984375 -1.421875 
Q 19.96875 -1.421875 12.078125 6.1875 
Q 4.203125 13.8125 4.203125 27.390625 
Q 4.203125 36.078125 7.203125 44.46875 
Q 10.203125 52.875 15.828125 59.8125 
Q 21.78125 67.1875 29.421875 70.703125 
Q 37.0625 74.21875 47.21875 74.21875 
Q 53.46875 74.21875 59.0625 72.484375 
Q 64.65625 70.75 69.484375 67.28125 
z
" id="DejaVuSans-Oblique-67"/>
     </defs>
     <g transform="translate(879.8 147.311406)scale(0.25 -0.25)">
      <use transform="translate(0 0.78125)" xlink:href="#DejaVuSans-Oblique-67"/>
     </g>
    </g>
    <g id="line2d_39">
     <path d="M 809.8 175.256719 
L 859.8 175.256719 
" style="fill:none;stroke:#0000ff;stroke-linecap:square;stroke-width:2;"/>
    </g>
    <g id="line2d_40"/>
    <g id="text_19">
     <!-- $N$ -->
     <defs>
      <path d="M 16.890625 72.90625 
L 30.171875 72.90625 
L 50.296875 10.40625 
L 62.5 72.90625 
L 72.125 72.90625 
L 57.90625 0 
L 44.578125 0 
L 24.515625 62.890625 
L 12.3125 0 
L 2.6875 0 
z
" id="DejaVuSans-Oblique-78"/>
     </defs>
     <g transform="translate(879.8 184.006719)scale(0.25 -0.25)">
      <use transform="translate(0 0.09375)" xlink:href="#DejaVuSans-Oblique-78"/>
     </g>
    </g>
    <g id="line2d_41">
     <path d="M 809.8 211.952031 
L 859.8 211.952031 
" style="fill:none;stroke:#ff0000;stroke-linecap:square;stroke-width:2;"/>
    </g>
    <g id="line2d_42"/>
    <g id="text_20">
     <!-- $O$ -->
     <defs>
      <path d="M 45.609375 66.21875 
Q 37.5 66.21875 31.296875 62.28125 
Q 25.09375 58.34375 20.515625 50.296875 
Q 17.578125 45.171875 16.03125 39.40625 
Q 14.5 33.640625 14.5 27.78125 
Q 14.5 17.625 19.359375 12.109375 
Q 24.21875 6.59375 33.109375 6.59375 
Q 41.109375 6.59375 47.375 10.5625 
Q 53.65625 14.546875 58.109375 22.40625 
Q 61.078125 27.6875 62.640625 33.46875 
Q 64.203125 39.265625 64.203125 45.015625 
Q 64.203125 55.125 59.3125 60.671875 
Q 54.4375 66.21875 45.609375 66.21875 
z
M 32.8125 -1.421875 
Q 19.390625 -1.421875 11.6875 6.53125 
Q 4 14.5 4 28.328125 
Q 4 36.234375 7 44.484375 
Q 10.015625 52.734375 15.28125 59.1875 
Q 21.484375 66.75 29.09375 70.484375 
Q 36.71875 74.21875 45.90625 74.21875 
Q 59.28125 74.21875 66.984375 66.328125 
Q 74.703125 58.453125 74.703125 44.828125 
Q 74.703125 36.421875 71.765625 28.3125 
Q 68.84375 20.21875 63.375 13.625 
Q 57.125 6 49.578125 2.28125 
Q 42.046875 -1.421875 32.8125 -1.421875 
z
" id="DejaVuSans-Oblique-79"/>
     </defs>
     <g transform="translate(879.8 220.702031)scale(0.25 -0.25)">
      <use transform="translate(0 0.78125)" xlink:href="#DejaVuSans-Oblique-79"/>
     </g>
    </g>
    <g id="line2d_43">
     <path d="M 809.8 248.647344 
L 859.8 248.647344 
" style="fill:none;stroke:#00ffff;stroke-linecap:square;stroke-width:2;"/>
    </g>
    <g id="line2d_44"/>
    <g id="text_21">
     <!-- $S$ -->
     <defs>
      <path d="M 60.296875 70.515625 
L 58.40625 60.890625 
Q 53.46875 63.53125 48.609375 64.875 
Q 43.75 66.21875 39.203125 66.21875 
Q 30.375 66.21875 25.140625 62.359375 
Q 19.921875 58.5 19.921875 52.09375 
Q 19.921875 48.578125 21.84375 46.703125 
Q 23.78125 44.828125 31.78125 42.671875 
L 37.703125 41.21875 
Q 47.703125 38.625 51.609375 34.640625 
Q 55.515625 30.671875 55.515625 23.484375 
Q 55.515625 12.453125 46.84375 5.515625 
Q 38.1875 -1.421875 24.03125 -1.421875 
Q 18.21875 -1.421875 12.359375 -0.265625 
Q 6.5 0.875 0.59375 3.21875 
L 2.59375 13.375 
Q 8.015625 10.015625 13.453125 8.296875 
Q 18.890625 6.59375 24.3125 6.59375 
Q 33.546875 6.59375 39.109375 10.6875 
Q 44.671875 14.796875 44.671875 21.390625 
Q 44.671875 25.78125 42.453125 28.046875 
Q 40.234375 30.328125 32.90625 32.171875 
L 27 33.6875 
Q 16.890625 36.328125 13.203125 39.765625 
Q 9.515625 43.21875 9.515625 49.421875 
Q 9.515625 60.296875 17.890625 67.25 
Q 26.265625 74.21875 39.703125 74.21875 
Q 44.921875 74.21875 50.046875 73.28125 
Q 55.171875 72.359375 60.296875 70.515625 
z
" id="DejaVuSans-Oblique-83"/>
     </defs>
     <g transform="translate(879.8 257.397344)scale(0.25 -0.25)">
      <use transform="translate(0 0.78125)" xlink:href="#DejaVuSans-Oblique-83"/>
     </g>
    </g>
    <g id="line2d_45">
     <path d="M 809.8 285.342656 
L 859.8 285.342656 
" style="fill:none;stroke:#ff00ff;stroke-linecap:square;stroke-width:2;"/>
    </g>
    <g id="line2d_46"/>
    <g id="text_22">
     <!-- $P$ -->
     <defs>
      <path d="M 16.890625 72.90625 
L 39.703125 72.90625 
Q 49.65625 72.90625 54.875 68.265625 
Q 60.109375 63.625 60.109375 54.6875 
Q 60.109375 42.671875 52.390625 35.984375 
Q 44.671875 29.296875 30.71875 29.296875 
L 18.3125 29.296875 
L 12.59375 0 
L 2.6875 0 
z
M 25.203125 64.796875 
L 19.921875 37.40625 
L 32.328125 37.40625 
Q 40.71875 37.40625 45.203125 41.703125 
Q 49.703125 46 49.703125 54 
Q 49.703125 59.125 46.65625 61.953125 
Q 43.609375 64.796875 38.09375 64.796875 
z
" id="DejaVuSans-Oblique-80"/>
     </defs>
     <g transform="translate(879.8 294.092656)scale(0.25 -0.25)">
      <use transform="translate(0 0.09375)" xlink:href="#DejaVuSans-Oblique-80"/>
     </g>
    </g>
   </g>
  </g>
 </g>
 <defs>
  <clipPath id="p2ccf81ee13">
   <rect height="443.52" width="793.9875" x="128.0625" y="69.12"/>
  </clipPath>
 </defs>
</svg>
