<?xml version="1.0" encoding="utf-8" standalone="no"?>
<!DOCTYPE svg PUBLIC "-//W3C//DTD SVG 1.1//EN"
  "http://www.w3.org/Graphics/SVG/1.1/DTD/svg11.dtd">
<!-- Created with matplotlib (https://matplotlib.org/) -->
<svg height="810pt" version="1.1" viewBox="0 0 720 810" width="720pt" xmlns="http://www.w3.org/2000/svg" xmlns:xlink="http://www.w3.org/1999/xlink">
 <metadata>
  <rdf:RDF xmlns:cc="http://creativecommons.org/ns#" xmlns:dc="http://purl.org/dc/elements/1.1/" xmlns:rdf="http://www.w3.org/1999/02/22-rdf-syntax-ns#">
   <cc:Work>
    <dc:type rdf:resource="http://purl.org/dc/dcmitype/StillImage"/>
    <dc:date>2021-07-11T16:31:48.648441</dc:date>
    <dc:format>image/svg+xml</dc:format>
    <dc:creator>
     <cc:Agent>
      <dc:title>Matplotlib v3.3.1, https://matplotlib.org/</dc:title>
     </cc:Agent>
    </dc:creator>
   </cc:Work>
  </rdf:RDF>
 </metadata>
 <defs>
  <style type="text/css">*{stroke-linecap:butt;stroke-linejoin:round;}</style>
 </defs>
 <g id="figure_1">
  <g id="patch_1">
   <path d="M 0 810 
L 720 810 
L 720 0 
L 0 0 
z
" style="fill:#ffffff;"/>
  </g>
  <g id="axes_1">
   <g id="patch_2">
    <path d="M 108 720.9 
L 698.4 720.9 
L 698.4 56.7 
L 108 56.7 
z
" style="fill:#ffffff;"/>
   </g>
   <g id="matplotlib.axis_1">
    <g id="xtick_1">
     <g id="line2d_1">
      <path clip-path="url(#pe5261104ff)" d="M 159.233058 720.9 
L 159.233058 56.7 
" style="fill:none;stroke:#e6e6e6;stroke-linecap:square;stroke-width:0.8;"/>
     </g>
     <g id="line2d_2">
      <defs>
       <path d="M 0 0 
L 0 3.5 
" id="m382e01318d" style="stroke:#000000;stroke-width:0.8;"/>
      </defs>
      <g>
       <use style="stroke:#000000;stroke-width:0.8;" x="159.233058" xlink:href="#m382e01318d" y="720.9"/>
      </g>
     </g>
     <g id="text_1">
      <!-- 0.0 -->
      <g transform="translate(147.305714 739.297656)scale(0.15 -0.15)">
       <defs>
        <path d="M 31.78125 66.40625 
Q 24.171875 66.40625 20.328125 58.90625 
Q 16.5 51.421875 16.5 36.375 
Q 16.5 21.390625 20.328125 13.890625 
Q 24.171875 6.390625 31.78125 6.390625 
Q 39.453125 6.390625 43.28125 13.890625 
Q 47.125 21.390625 47.125 36.375 
Q 47.125 51.421875 43.28125 58.90625 
Q 39.453125 66.40625 31.78125 66.40625 
z
M 31.78125 74.21875 
Q 44.046875 74.21875 50.515625 64.515625 
Q 56.984375 54.828125 56.984375 36.375 
Q 56.984375 17.96875 50.515625 8.265625 
Q 44.046875 -1.421875 31.78125 -1.421875 
Q 19.53125 -1.421875 13.0625 8.265625 
Q 6.59375 17.96875 6.59375 36.375 
Q 6.59375 54.828125 13.0625 64.515625 
Q 19.53125 74.21875 31.78125 74.21875 
z
" id="DejaVuSans-48"/>
        <path d="M 10.6875 12.40625 
L 21 12.40625 
L 21 0 
L 10.6875 0 
z
" id="DejaVuSans-46"/>
       </defs>
       <use xlink:href="#DejaVuSans-48"/>
       <use x="63.623047" xlink:href="#DejaVuSans-46"/>
       <use x="95.410156" xlink:href="#DejaVuSans-48"/>
      </g>
     </g>
    </g>
    <g id="xtick_2">
     <g id="line2d_3">
      <path clip-path="url(#pe5261104ff)" d="M 256.819835 720.9 
L 256.819835 56.7 
" style="fill:none;stroke:#e6e6e6;stroke-linecap:square;stroke-width:0.8;"/>
     </g>
     <g id="line2d_4">
      <g>
       <use style="stroke:#000000;stroke-width:0.8;" x="256.819835" xlink:href="#m382e01318d" y="720.9"/>
      </g>
     </g>
     <g id="text_2">
      <!-- 0.2 -->
      <g transform="translate(244.892491 739.297656)scale(0.15 -0.15)">
       <defs>
        <path d="M 19.1875 8.296875 
L 53.609375 8.296875 
L 53.609375 0 
L 7.328125 0 
L 7.328125 8.296875 
Q 12.9375 14.109375 22.625 23.890625 
Q 32.328125 33.6875 34.8125 36.53125 
Q 39.546875 41.84375 41.421875 45.53125 
Q 43.3125 49.21875 43.3125 52.78125 
Q 43.3125 58.59375 39.234375 62.25 
Q 35.15625 65.921875 28.609375 65.921875 
Q 23.96875 65.921875 18.8125 64.3125 
Q 13.671875 62.703125 7.8125 59.421875 
L 7.8125 69.390625 
Q 13.765625 71.78125 18.9375 73 
Q 24.125 74.21875 28.421875 74.21875 
Q 39.75 74.21875 46.484375 68.546875 
Q 53.21875 62.890625 53.21875 53.421875 
Q 53.21875 48.921875 51.53125 44.890625 
Q 49.859375 40.875 45.40625 35.40625 
Q 44.1875 33.984375 37.640625 27.21875 
Q 31.109375 20.453125 19.1875 8.296875 
z
" id="DejaVuSans-50"/>
       </defs>
       <use xlink:href="#DejaVuSans-48"/>
       <use x="63.623047" xlink:href="#DejaVuSans-46"/>
       <use x="95.410156" xlink:href="#DejaVuSans-50"/>
      </g>
     </g>
    </g>
    <g id="xtick_3">
     <g id="line2d_5">
      <path clip-path="url(#pe5261104ff)" d="M 354.406612 720.9 
L 354.406612 56.7 
" style="fill:none;stroke:#e6e6e6;stroke-linecap:square;stroke-width:0.8;"/>
     </g>
     <g id="line2d_6">
      <g>
       <use style="stroke:#000000;stroke-width:0.8;" x="354.406612" xlink:href="#m382e01318d" y="720.9"/>
      </g>
     </g>
     <g id="text_3">
      <!-- 0.4 -->
      <g transform="translate(342.479268 739.297656)scale(0.15 -0.15)">
       <defs>
        <path d="M 37.796875 64.3125 
L 12.890625 25.390625 
L 37.796875 25.390625 
z
M 35.203125 72.90625 
L 47.609375 72.90625 
L 47.609375 25.390625 
L 58.015625 25.390625 
L 58.015625 17.1875 
L 47.609375 17.1875 
L 47.609375 0 
L 37.796875 0 
L 37.796875 17.1875 
L 4.890625 17.1875 
L 4.890625 26.703125 
z
" id="DejaVuSans-52"/>
       </defs>
       <use xlink:href="#DejaVuSans-48"/>
       <use x="63.623047" xlink:href="#DejaVuSans-46"/>
       <use x="95.410156" xlink:href="#DejaVuSans-52"/>
      </g>
     </g>
    </g>
    <g id="xtick_4">
     <g id="line2d_7">
      <path clip-path="url(#pe5261104ff)" d="M 451.993388 720.9 
L 451.993388 56.7 
" style="fill:none;stroke:#e6e6e6;stroke-linecap:square;stroke-width:0.8;"/>
     </g>
     <g id="line2d_8">
      <g>
       <use style="stroke:#000000;stroke-width:0.8;" x="451.993388" xlink:href="#m382e01318d" y="720.9"/>
      </g>
     </g>
     <g id="text_4">
      <!-- 0.6 -->
      <g transform="translate(440.066045 739.297656)scale(0.15 -0.15)">
       <defs>
        <path d="M 33.015625 40.375 
Q 26.375 40.375 22.484375 35.828125 
Q 18.609375 31.296875 18.609375 23.390625 
Q 18.609375 15.53125 22.484375 10.953125 
Q 26.375 6.390625 33.015625 6.390625 
Q 39.65625 6.390625 43.53125 10.953125 
Q 47.40625 15.53125 47.40625 23.390625 
Q 47.40625 31.296875 43.53125 35.828125 
Q 39.65625 40.375 33.015625 40.375 
z
M 52.59375 71.296875 
L 52.59375 62.3125 
Q 48.875 64.0625 45.09375 64.984375 
Q 41.3125 65.921875 37.59375 65.921875 
Q 27.828125 65.921875 22.671875 59.328125 
Q 17.53125 52.734375 16.796875 39.40625 
Q 19.671875 43.65625 24.015625 45.921875 
Q 28.375 48.1875 33.59375 48.1875 
Q 44.578125 48.1875 50.953125 41.515625 
Q 57.328125 34.859375 57.328125 23.390625 
Q 57.328125 12.15625 50.6875 5.359375 
Q 44.046875 -1.421875 33.015625 -1.421875 
Q 20.359375 -1.421875 13.671875 8.265625 
Q 6.984375 17.96875 6.984375 36.375 
Q 6.984375 53.65625 15.1875 63.9375 
Q 23.390625 74.21875 37.203125 74.21875 
Q 40.921875 74.21875 44.703125 73.484375 
Q 48.484375 72.75 52.59375 71.296875 
z
" id="DejaVuSans-54"/>
       </defs>
       <use xlink:href="#DejaVuSans-48"/>
       <use x="63.623047" xlink:href="#DejaVuSans-46"/>
       <use x="95.410156" xlink:href="#DejaVuSans-54"/>
      </g>
     </g>
    </g>
    <g id="xtick_5">
     <g id="line2d_9">
      <path clip-path="url(#pe5261104ff)" d="M 549.580165 720.9 
L 549.580165 56.7 
" style="fill:none;stroke:#e6e6e6;stroke-linecap:square;stroke-width:0.8;"/>
     </g>
     <g id="line2d_10">
      <g>
       <use style="stroke:#000000;stroke-width:0.8;" x="549.580165" xlink:href="#m382e01318d" y="720.9"/>
      </g>
     </g>
     <g id="text_5">
      <!-- 0.8 -->
      <g transform="translate(537.652822 739.297656)scale(0.15 -0.15)">
       <defs>
        <path d="M 31.78125 34.625 
Q 24.75 34.625 20.71875 30.859375 
Q 16.703125 27.09375 16.703125 20.515625 
Q 16.703125 13.921875 20.71875 10.15625 
Q 24.75 6.390625 31.78125 6.390625 
Q 38.8125 6.390625 42.859375 10.171875 
Q 46.921875 13.96875 46.921875 20.515625 
Q 46.921875 27.09375 42.890625 30.859375 
Q 38.875 34.625 31.78125 34.625 
z
M 21.921875 38.8125 
Q 15.578125 40.375 12.03125 44.71875 
Q 8.5 49.078125 8.5 55.328125 
Q 8.5 64.0625 14.71875 69.140625 
Q 20.953125 74.21875 31.78125 74.21875 
Q 42.671875 74.21875 48.875 69.140625 
Q 55.078125 64.0625 55.078125 55.328125 
Q 55.078125 49.078125 51.53125 44.71875 
Q 48 40.375 41.703125 38.8125 
Q 48.828125 37.15625 52.796875 32.3125 
Q 56.78125 27.484375 56.78125 20.515625 
Q 56.78125 9.90625 50.3125 4.234375 
Q 43.84375 -1.421875 31.78125 -1.421875 
Q 19.734375 -1.421875 13.25 4.234375 
Q 6.78125 9.90625 6.78125 20.515625 
Q 6.78125 27.484375 10.78125 32.3125 
Q 14.796875 37.15625 21.921875 38.8125 
z
M 18.3125 54.390625 
Q 18.3125 48.734375 21.84375 45.5625 
Q 25.390625 42.390625 31.78125 42.390625 
Q 38.140625 42.390625 41.71875 45.5625 
Q 45.3125 48.734375 45.3125 54.390625 
Q 45.3125 60.0625 41.71875 63.234375 
Q 38.140625 66.40625 31.78125 66.40625 
Q 25.390625 66.40625 21.84375 63.234375 
Q 18.3125 60.0625 18.3125 54.390625 
z
" id="DejaVuSans-56"/>
       </defs>
       <use xlink:href="#DejaVuSans-48"/>
       <use x="63.623047" xlink:href="#DejaVuSans-46"/>
       <use x="95.410156" xlink:href="#DejaVuSans-56"/>
      </g>
     </g>
    </g>
    <g id="xtick_6">
     <g id="line2d_11">
      <path clip-path="url(#pe5261104ff)" d="M 647.166942 720.9 
L 647.166942 56.7 
" style="fill:none;stroke:#e6e6e6;stroke-linecap:square;stroke-width:0.8;"/>
     </g>
     <g id="line2d_12">
      <g>
       <use style="stroke:#000000;stroke-width:0.8;" x="647.166942" xlink:href="#m382e01318d" y="720.9"/>
      </g>
     </g>
     <g id="text_6">
      <!-- 1.0 -->
      <g transform="translate(635.239598 739.297656)scale(0.15 -0.15)">
       <defs>
        <path d="M 12.40625 8.296875 
L 28.515625 8.296875 
L 28.515625 63.921875 
L 10.984375 60.40625 
L 10.984375 69.390625 
L 28.421875 72.90625 
L 38.28125 72.90625 
L 38.28125 8.296875 
L 54.390625 8.296875 
L 54.390625 0 
L 12.40625 0 
z
" id="DejaVuSans-49"/>
       </defs>
       <use xlink:href="#DejaVuSans-49"/>
       <use x="63.623047" xlink:href="#DejaVuSans-46"/>
       <use x="95.410156" xlink:href="#DejaVuSans-48"/>
      </g>
     </g>
    </g>
    <g id="text_7">
     <!-- $I_{kin}$ -->
     <g transform="translate(386.075 765.413281)scale(0.25 -0.25)">
      <defs>
       <path d="M 16.890625 72.90625 
L 26.8125 72.90625 
L 12.59375 0 
L 2.6875 0 
z
" id="DejaVuSans-Oblique-73"/>
       <path d="M 18.3125 75.984375 
L 27.296875 75.984375 
L 18.703125 31.6875 
L 49.515625 54.6875 
L 61.1875 54.6875 
L 26.8125 28.515625 
L 51.90625 0 
L 41.015625 0 
L 17.671875 26.703125 
L 12.5 0 
L 3.515625 0 
z
" id="DejaVuSans-Oblique-107"/>
       <path d="M 18.3125 75.984375 
L 27.296875 75.984375 
L 25.09375 64.59375 
L 16.109375 64.59375 
z
M 14.203125 54.6875 
L 23.1875 54.6875 
L 12.5 0 
L 3.515625 0 
z
" id="DejaVuSans-Oblique-105"/>
       <path d="M 55.71875 33.015625 
L 49.3125 0 
L 40.28125 0 
L 46.6875 32.671875 
Q 47.125 34.96875 47.359375 36.71875 
Q 47.609375 38.484375 47.609375 39.5 
Q 47.609375 43.609375 45.015625 45.890625 
Q 42.4375 48.1875 37.796875 48.1875 
Q 30.5625 48.1875 25.34375 43.375 
Q 20.125 38.578125 18.5 30.328125 
L 12.5 0 
L 3.515625 0 
L 14.109375 54.6875 
L 23.09375 54.6875 
L 21.296875 46.09375 
Q 25.046875 50.828125 30.3125 53.40625 
Q 35.59375 56 41.40625 56 
Q 48.640625 56 52.609375 52.09375 
Q 56.59375 48.1875 56.59375 41.109375 
Q 56.59375 39.359375 56.375 37.359375 
Q 56.15625 35.359375 55.71875 33.015625 
z
" id="DejaVuSans-Oblique-110"/>
      </defs>
      <use transform="translate(0 0.09375)" xlink:href="#DejaVuSans-Oblique-73"/>
      <use transform="translate(29.492188 -16.3125)scale(0.7)" xlink:href="#DejaVuSans-Oblique-107"/>
      <use transform="translate(70.029297 -16.3125)scale(0.7)" xlink:href="#DejaVuSans-Oblique-105"/>
      <use transform="translate(89.477539 -16.3125)scale(0.7)" xlink:href="#DejaVuSans-Oblique-110"/>
     </g>
    </g>
   </g>
   <g id="matplotlib.axis_2">
    <g id="ytick_1">
     <g id="line2d_13">
      <path clip-path="url(#pe5261104ff)" d="M 108 663.26281 
L 698.4 663.26281 
" style="fill:none;stroke:#e6e6e6;stroke-linecap:square;stroke-width:0.8;"/>
     </g>
     <g id="line2d_14">
      <defs>
       <path d="M 0 0 
L -3.5 0 
" id="m5de27a5731" style="stroke:#000000;stroke-width:0.8;"/>
      </defs>
      <g>
       <use style="stroke:#000000;stroke-width:0.8;" x="108" xlink:href="#m5de27a5731" y="663.26281"/>
      </g>
     </g>
     <g id="text_8">
      <!-- 0.0 -->
      <g transform="translate(77.145313 668.961638)scale(0.15 -0.15)">
       <use xlink:href="#DejaVuSans-48"/>
       <use x="63.623047" xlink:href="#DejaVuSans-46"/>
       <use x="95.410156" xlink:href="#DejaVuSans-48"/>
      </g>
     </g>
    </g>
    <g id="ytick_2">
     <g id="line2d_15">
      <path clip-path="url(#pe5261104ff)" d="M 108 553.477686 
L 698.4 553.477686 
" style="fill:none;stroke:#e6e6e6;stroke-linecap:square;stroke-width:0.8;"/>
     </g>
     <g id="line2d_16">
      <g>
       <use style="stroke:#000000;stroke-width:0.8;" x="108" xlink:href="#m5de27a5731" y="553.477686"/>
      </g>
     </g>
     <g id="text_9">
      <!-- 0.2 -->
      <g transform="translate(77.145313 559.176514)scale(0.15 -0.15)">
       <use xlink:href="#DejaVuSans-48"/>
       <use x="63.623047" xlink:href="#DejaVuSans-46"/>
       <use x="95.410156" xlink:href="#DejaVuSans-50"/>
      </g>
     </g>
    </g>
    <g id="ytick_3">
     <g id="line2d_17">
      <path clip-path="url(#pe5261104ff)" d="M 108 443.692562 
L 698.4 443.692562 
" style="fill:none;stroke:#e6e6e6;stroke-linecap:square;stroke-width:0.8;"/>
     </g>
     <g id="line2d_18">
      <g>
       <use style="stroke:#000000;stroke-width:0.8;" x="108" xlink:href="#m5de27a5731" y="443.692562"/>
      </g>
     </g>
     <g id="text_10">
      <!-- 0.4 -->
      <g transform="translate(77.145313 449.39139)scale(0.15 -0.15)">
       <use xlink:href="#DejaVuSans-48"/>
       <use x="63.623047" xlink:href="#DejaVuSans-46"/>
       <use x="95.410156" xlink:href="#DejaVuSans-52"/>
      </g>
     </g>
    </g>
    <g id="ytick_4">
     <g id="line2d_19">
      <path clip-path="url(#pe5261104ff)" d="M 108 333.907438 
L 698.4 333.907438 
" style="fill:none;stroke:#e6e6e6;stroke-linecap:square;stroke-width:0.8;"/>
     </g>
     <g id="line2d_20">
      <g>
       <use style="stroke:#000000;stroke-width:0.8;" x="108" xlink:href="#m5de27a5731" y="333.907438"/>
      </g>
     </g>
     <g id="text_11">
      <!-- 0.6 -->
      <g transform="translate(77.145313 339.606266)scale(0.15 -0.15)">
       <use xlink:href="#DejaVuSans-48"/>
       <use x="63.623047" xlink:href="#DejaVuSans-46"/>
       <use x="95.410156" xlink:href="#DejaVuSans-54"/>
      </g>
     </g>
    </g>
    <g id="ytick_5">
     <g id="line2d_21">
      <path clip-path="url(#pe5261104ff)" d="M 108 224.122314 
L 698.4 224.122314 
" style="fill:none;stroke:#e6e6e6;stroke-linecap:square;stroke-width:0.8;"/>
     </g>
     <g id="line2d_22">
      <g>
       <use style="stroke:#000000;stroke-width:0.8;" x="108" xlink:href="#m5de27a5731" y="224.122314"/>
      </g>
     </g>
     <g id="text_12">
      <!-- 0.8 -->
      <g transform="translate(77.145313 229.821142)scale(0.15 -0.15)">
       <use xlink:href="#DejaVuSans-48"/>
       <use x="63.623047" xlink:href="#DejaVuSans-46"/>
       <use x="95.410156" xlink:href="#DejaVuSans-56"/>
      </g>
     </g>
    </g>
    <g id="ytick_6">
     <g id="line2d_23">
      <path clip-path="url(#pe5261104ff)" d="M 108 114.33719 
L 698.4 114.33719 
" style="fill:none;stroke:#e6e6e6;stroke-linecap:square;stroke-width:0.8;"/>
     </g>
     <g id="line2d_24">
      <g>
       <use style="stroke:#000000;stroke-width:0.8;" x="108" xlink:href="#m5de27a5731" y="114.33719"/>
      </g>
     </g>
     <g id="text_13">
      <!-- 1.0 -->
      <g transform="translate(77.145313 120.036018)scale(0.15 -0.15)">
       <use xlink:href="#DejaVuSans-49"/>
       <use x="63.623047" xlink:href="#DejaVuSans-46"/>
       <use x="95.410156" xlink:href="#DejaVuSans-48"/>
      </g>
     </g>
    </g>
    <g id="text_14">
     <!-- $I_{dyn}$ -->
     <g transform="translate(65.395313 409.175)rotate(-90)scale(0.25 -0.25)">
      <defs>
       <path d="M 41.796875 8.203125 
Q 38.1875 3.46875 33.25 1.015625 
Q 28.328125 -1.421875 22.3125 -1.421875 
Q 14.109375 -1.421875 9.34375 4.171875 
Q 4.59375 9.765625 4.59375 19.484375 
Q 4.59375 27.59375 7.46875 34.9375 
Q 10.359375 42.28125 15.828125 48.09375 
Q 19.4375 51.953125 23.96875 53.96875 
Q 28.515625 56 33.5 56 
Q 38.765625 56 42.796875 53.453125 
Q 46.828125 50.921875 49.03125 46.1875 
L 54.890625 75.984375 
L 63.921875 75.984375 
L 49.125 0 
L 40.09375 0 
z
M 13.921875 21.09375 
Q 13.921875 14.015625 17.109375 10.0625 
Q 20.3125 6.109375 25.984375 6.109375 
Q 30.171875 6.109375 33.765625 8.125 
Q 37.359375 10.15625 40.09375 14.109375 
Q 42.96875 18.21875 44.625 23.578125 
Q 46.296875 28.953125 46.296875 34.1875 
Q 46.296875 40.96875 43.09375 44.765625 
Q 39.890625 48.578125 34.28125 48.578125 
Q 30.03125 48.578125 26.359375 46.578125 
Q 22.703125 44.578125 20.125 40.828125 
Q 17.28125 36.765625 15.59375 31.390625 
Q 13.921875 26.03125 13.921875 21.09375 
z
" id="DejaVuSans-Oblique-100"/>
       <path d="M 24.8125 -5.078125 
Q 18.5625 -15.578125 14.625 -18.1875 
Q 10.6875 -20.796875 4.59375 -20.796875 
L -2.484375 -20.796875 
L -0.984375 -13.28125 
L 4.203125 -13.28125 
Q 7.953125 -13.28125 10.59375 -11.234375 
Q 13.234375 -9.1875 16.5 -3.21875 
L 19.28125 2 
L 7.171875 54.6875 
L 16.703125 54.6875 
L 25.78125 12.796875 
L 50.875 54.6875 
L 60.296875 54.6875 
z
" id="DejaVuSans-Oblique-121"/>
      </defs>
      <use transform="translate(0 0.09375)" xlink:href="#DejaVuSans-Oblique-73"/>
      <use transform="translate(29.492188 -16.3125)scale(0.7)" xlink:href="#DejaVuSans-Oblique-100"/>
      <use transform="translate(73.925781 -16.3125)scale(0.7)" xlink:href="#DejaVuSans-Oblique-121"/>
      <use transform="translate(115.351562 -16.3125)scale(0.7)" xlink:href="#DejaVuSans-Oblique-110"/>
     </g>
    </g>
   </g>
   <g id="line2d_25">
    <defs>
     <path d="M 0 2.5 
C 0.663008 2.5 1.29895 2.236584 1.767767 1.767767 
C 2.236584 1.29895 2.5 0.663008 2.5 0 
C 2.5 -0.663008 2.236584 -1.29895 1.767767 -1.767767 
C 1.29895 -2.236584 0.663008 -2.5 0 -2.5 
C -0.663008 -2.5 -1.29895 -2.236584 -1.767767 -1.767767 
C -2.236584 -1.29895 -2.5 -0.663008 -2.5 0 
C -2.5 0.663008 -2.236584 1.29895 -1.767767 1.767767 
C -1.29895 2.236584 -0.663008 2.5 0 2.5 
z
" id="m2b9f53b5f3" style="stroke:#f46d43;"/>
    </defs>
    <g clip-path="url(#pe5261104ff)">
     <use style="fill:#f46d43;stroke:#f46d43;" x="400.707767" xlink:href="#m2b9f53b5f3" y="429.562829"/>
     <use style="fill:#f46d43;stroke:#f46d43;" x="647.166942" xlink:href="#m2b9f53b5f3" y="114.33719"/>
     <use style="fill:#f46d43;stroke:#f46d43;" x="229.329992" xlink:href="#m2b9f53b5f3" y="588.467448"/>
     <use style="fill:#f46d43;stroke:#f46d43;" x="219.414666" xlink:href="#m2b9f53b5f3" y="607.335599"/>
     <use style="fill:#f46d43;stroke:#f46d43;" x="375.214842" xlink:href="#m2b9f53b5f3" y="428.892279"/>
     <use style="fill:#f46d43;stroke:#f46d43;" x="180.454023" xlink:href="#m2b9f53b5f3" y="639.352307"/>
     <use style="fill:#f46d43;stroke:#f46d43;" x="492.220056" xlink:href="#m2b9f53b5f3" y="299.162858"/>
    </g>
   </g>
   <g id="line2d_26">
    <defs>
     <path d="M 0 2.5 
C 0.663008 2.5 1.29895 2.236584 1.767767 1.767767 
C 2.236584 1.29895 2.5 0.663008 2.5 0 
C 2.5 -0.663008 2.236584 -1.29895 1.767767 -1.767767 
C 1.29895 -2.236584 0.663008 -2.5 0 -2.5 
C -0.663008 -2.5 -1.29895 -2.236584 -1.767767 -1.767767 
C -2.236584 -1.29895 -2.5 -0.663008 -2.5 0 
C -2.5 0.663008 -2.236584 1.29895 -1.767767 1.767767 
C -1.29895 2.236584 -0.663008 2.5 0 2.5 
z
" id="m3efd9e3bde" style="stroke:#fee08b;"/>
    </defs>
    <g clip-path="url(#pe5261104ff)">
     <use style="fill:#fee08b;stroke:#fee08b;" x="515.648194" xlink:href="#m3efd9e3bde" y="341.956864"/>
     <use style="fill:#fee08b;stroke:#fee08b;" x="647.166942" xlink:href="#m3efd9e3bde" y="114.33719"/>
     <use style="fill:#fee08b;stroke:#fee08b;" x="224.581864" xlink:href="#m3efd9e3bde" y="600.051956"/>
     <use style="fill:#fee08b;stroke:#fee08b;" x="215.275851" xlink:href="#m3efd9e3bde" y="617.348607"/>
     <use style="fill:#fee08b;stroke:#fee08b;" x="360.588875" xlink:href="#m3efd9e3bde" y="461.67888"/>
     <use style="fill:#fee08b;stroke:#fee08b;" x="170.802692" xlink:href="#m3efd9e3bde" y="649.949066"/>
     <use style="fill:#fee08b;stroke:#fee08b;" x="218.963145" xlink:href="#m3efd9e3bde" y="594.67673"/>
    </g>
   </g>
   <g id="line2d_27">
    <defs>
     <path d="M 0 2.5 
C 0.663008 2.5 1.29895 2.236584 1.767767 1.767767 
C 2.236584 1.29895 2.5 0.663008 2.5 0 
C 2.5 -0.663008 2.236584 -1.29895 1.767767 -1.767767 
C 1.29895 -2.236584 0.663008 -2.5 0 -2.5 
C -0.663008 -2.5 -1.29895 -2.236584 -1.767767 -1.767767 
C -2.236584 -1.29895 -2.5 -0.663008 -2.5 0 
C -2.5 0.663008 -2.236584 1.29895 -1.767767 1.767767 
C -1.29895 2.236584 -0.663008 2.5 0 2.5 
z
" id="mab2958b622" style="stroke:#e6f598;"/>
    </defs>
    <g clip-path="url(#pe5261104ff)">
     <use style="fill:#e6f598;stroke:#e6f598;" x="576.945777" xlink:href="#mab2958b622" y="288.860289"/>
     <use style="fill:#e6f598;stroke:#e6f598;" x="647.166942" xlink:href="#mab2958b622" y="114.33719"/>
     <use style="fill:#e6f598;stroke:#e6f598;" x="224.440267" xlink:href="#mab2958b622" y="602.19075"/>
     <use style="fill:#e6f598;stroke:#e6f598;" x="215.226447" xlink:href="#mab2958b622" y="616.024987"/>
     <use style="fill:#e6f598;stroke:#e6f598;" x="360.179636" xlink:href="#mab2958b622" y="473.519732"/>
     <use style="fill:#e6f598;stroke:#e6f598;" x="165.341734" xlink:href="#mab2958b622" y="655.699926"/>
     <use style="fill:#e6f598;stroke:#e6f598;" x="205.497669" xlink:href="#mab2958b622" y="605.849114"/>
    </g>
   </g>
   <g id="line2d_28">
    <defs>
     <path d="M 0 2.5 
C 0.663008 2.5 1.29895 2.236584 1.767767 1.767767 
C 2.236584 1.29895 2.5 0.663008 2.5 0 
C 2.5 -0.663008 2.236584 -1.29895 1.767767 -1.767767 
C 1.29895 -2.236584 0.663008 -2.5 0 -2.5 
C -0.663008 -2.5 -1.29895 -2.236584 -1.767767 -1.767767 
C -2.236584 -1.29895 -2.5 -0.663008 -2.5 0 
C -2.5 0.663008 -2.236584 1.29895 -1.767767 1.767767 
C -1.29895 2.236584 -0.663008 2.5 0 2.5 
z
" id="m64e80d1b81" style="stroke:#66c2a5;"/>
    </defs>
    <g clip-path="url(#pe5261104ff)">
     <use style="fill:#66c2a5;stroke:#66c2a5;" x="604.946648" xlink:href="#m64e80d1b81" y="238.923847"/>
     <use style="fill:#66c2a5;stroke:#66c2a5;" x="647.166942" xlink:href="#m64e80d1b81" y="114.33719"/>
     <use style="fill:#66c2a5;stroke:#66c2a5;" x="223.397053" xlink:href="#m64e80d1b81" y="600.361005"/>
     <use style="fill:#66c2a5;stroke:#66c2a5;" x="214.418589" xlink:href="#m64e80d1b81" y="613.711179"/>
     <use style="fill:#66c2a5;stroke:#66c2a5;" x="356.975326" xlink:href="#m64e80d1b81" y="467.764297"/>
     <use style="fill:#66c2a5;stroke:#66c2a5;" x="162.582542" xlink:href="#m64e80d1b81" y="658.737601"/>
     <use style="fill:#66c2a5;stroke:#66c2a5;" x="209.262811" xlink:href="#m64e80d1b81" y="600.726912"/>
    </g>
   </g>
   <g id="line2d_29">
    <defs>
     <path d="M 0 2.5 
C 0.663008 2.5 1.29895 2.236584 1.767767 1.767767 
C 2.236584 1.29895 2.5 0.663008 2.5 0 
C 2.5 -0.663008 2.236584 -1.29895 1.767767 -1.767767 
C 1.29895 -2.236584 0.663008 -2.5 0 -2.5 
C -0.663008 -2.5 -1.29895 -2.236584 -1.767767 -1.767767 
C -2.236584 -1.29895 -2.5 -0.663008 -2.5 0 
C -2.5 0.663008 -2.236584 1.29895 -1.767767 1.767767 
C -1.29895 2.236584 -0.663008 2.5 0 2.5 
z
" id="m203acd3646" style="stroke:#5e4fa2;"/>
    </defs>
    <g clip-path="url(#pe5261104ff)">
     <use style="fill:#5e4fa2;stroke:#5e4fa2;" x="638.855113" xlink:href="#m203acd3646" y="144.771275"/>
     <use style="fill:#5e4fa2;stroke:#5e4fa2;" x="647.166942" xlink:href="#m203acd3646" y="114.33719"/>
     <use style="fill:#5e4fa2;stroke:#5e4fa2;" x="223.273655" xlink:href="#m203acd3646" y="593.576789"/>
     <use style="fill:#5e4fa2;stroke:#5e4fa2;" x="214.347188" xlink:href="#m203acd3646" y="607.051637"/>
     <use style="fill:#5e4fa2;stroke:#5e4fa2;" x="356.586264" xlink:href="#m203acd3646" y="446.699378"/>
     <use style="fill:#5e4fa2;stroke:#5e4fa2;" x="161.804929" xlink:href="#m203acd3646" y="659.581645"/>
     <use style="fill:#5e4fa2;stroke:#5e4fa2;" x="187.839788" xlink:href="#m203acd3646" y="618.741907"/>
    </g>
   </g>
   <g id="line2d_30">
    <path clip-path="url(#pe5261104ff)" d="M 159.233058 663.26281 
L 647.166942 114.33719 
" style="fill:none;stroke:#808080;stroke-dasharray:7.4,3.2;stroke-dashoffset:0;stroke-width:2;"/>
   </g>
   <g id="patch_3">
    <path d="M 108 720.9 
L 108 56.7 
" style="fill:none;stroke:#000000;stroke-linecap:square;stroke-linejoin:miter;stroke-width:0.8;"/>
   </g>
   <g id="patch_4">
    <path d="M 698.4 720.9 
L 698.4 56.7 
" style="fill:none;stroke:#000000;stroke-linecap:square;stroke-linejoin:miter;stroke-width:0.8;"/>
   </g>
   <g id="patch_5">
    <path d="M 108 720.9 
L 698.4 720.9 
" style="fill:none;stroke:#000000;stroke-linecap:square;stroke-linejoin:miter;stroke-width:0.8;"/>
   </g>
   <g id="patch_6">
    <path d="M 108 56.7 
L 698.4 56.7 
" style="fill:none;stroke:#000000;stroke-linecap:square;stroke-linejoin:miter;stroke-width:0.8;"/>
   </g>
   <g id="legend_1">
    <g id="patch_7">
     <path d="M 122 219.48125 
L 273 219.48125 
Q 277 219.48125 277 215.48125 
L 277 70.7 
Q 277 66.7 273 66.7 
L 122 66.7 
Q 118 66.7 118 70.7 
L 118 215.48125 
Q 118 219.48125 122 219.48125 
z
" style="fill:#ffffff;opacity:0.8;stroke:#cccccc;stroke-linejoin:miter;"/>
    </g>
    <g id="line2d_31"/>
    <g id="line2d_32">
     <g>
      <use style="fill:#f46d43;stroke:#f46d43;" x="146" xlink:href="#m2b9f53b5f3" y="82.896875"/>
     </g>
    </g>
    <g id="text_15">
     <!-- $z=50 \AA$ -->
     <g transform="translate(182 89.896875)scale(0.2 -0.2)">
      <defs>
       <path d="M 11.625 54.6875 
L 54.296875 54.6875 
L 52.6875 46.484375 
L 11.53125 7.171875 
L 45.515625 7.171875 
L 44.09375 0 
L -0.296875 0 
L 1.3125 8.203125 
L 42.484375 47.515625 
L 10.203125 47.515625 
z
" id="DejaVuSans-Oblique-122"/>
       <path d="M 10.59375 45.40625 
L 73.1875 45.40625 
L 73.1875 37.203125 
L 10.59375 37.203125 
z
M 10.59375 25.484375 
L 73.1875 25.484375 
L 73.1875 17.1875 
L 10.59375 17.1875 
z
" id="DejaVuSans-61"/>
       <path d="M 10.796875 72.90625 
L 49.515625 72.90625 
L 49.515625 64.59375 
L 19.828125 64.59375 
L 19.828125 46.734375 
Q 21.96875 47.46875 24.109375 47.828125 
Q 26.265625 48.1875 28.421875 48.1875 
Q 40.625 48.1875 47.75 41.5 
Q 54.890625 34.8125 54.890625 23.390625 
Q 54.890625 11.625 47.5625 5.09375 
Q 40.234375 -1.421875 26.90625 -1.421875 
Q 22.3125 -1.421875 17.546875 -0.640625 
Q 12.796875 0.140625 7.71875 1.703125 
L 7.71875 11.625 
Q 12.109375 9.234375 16.796875 8.0625 
Q 21.484375 6.890625 26.703125 6.890625 
Q 35.15625 6.890625 40.078125 11.328125 
Q 45.015625 15.765625 45.015625 23.390625 
Q 45.015625 31 40.078125 35.4375 
Q 35.15625 39.890625 26.703125 39.890625 
Q 22.75 39.890625 18.8125 39.015625 
Q 14.890625 38.140625 10.796875 36.28125 
z
" id="DejaVuSans-53"/>
       <path d="M 49.8125 79.390625 
Q 49.8125 82.46875 47.625 84.640625 
Q 45.453125 86.8125 42.390625 86.8125 
Q 39.265625 86.8125 37.140625 84.6875 
Q 35.015625 82.5625 35.015625 79.390625 
Q 35.015625 76.3125 37.140625 74.15625 
Q 39.265625 72.015625 42.390625 72.015625 
Q 45.453125 72.015625 47.625 74.15625 
Q 49.8125 76.3125 49.8125 79.390625 
z
M 34.421875 68.703125 
Q 31.78125 70.515625 30.390625 73.265625 
Q 29 76.03125 29 79.390625 
Q 29 84.96875 32.90625 88.890625 
Q 36.8125 92.828125 42.390625 92.828125 
Q 47.953125 92.828125 51.875 88.890625 
Q 55.8125 84.96875 55.8125 79.390625 
Q 55.8125 75.53125 54.03125 72.546875 
Q 52.25 69.578125 48.875 67.828125 
L 61.53125 0 
L 51.21875 0 
L 48.1875 18.703125 
L 15.375 18.703125 
L 5.078125 0 
L -5.328125 0 
z
M 40.375 63.1875 
L 19.921875 26.90625 
L 46.6875 26.90625 
z
" id="DejaVuSans-Oblique-197"/>
      </defs>
      <use transform="translate(0 0.171875)" xlink:href="#DejaVuSans-Oblique-122"/>
      <use transform="translate(71.972656 0.171875)" xlink:href="#DejaVuSans-61"/>
      <use transform="translate(175.244141 0.171875)" xlink:href="#DejaVuSans-53"/>
      <use transform="translate(238.867188 0.171875)" xlink:href="#DejaVuSans-48"/>
      <use transform="translate(302.490234 0.171875)" xlink:href="#DejaVuSans-Oblique-197"/>
     </g>
    </g>
    <g id="line2d_33"/>
    <g id="line2d_34">
     <g>
      <use style="fill:#fee08b;stroke:#fee08b;" x="146" xlink:href="#m3efd9e3bde" y="112.253125"/>
     </g>
    </g>
    <g id="text_16">
     <!-- $z=100 \AA$ -->
     <g transform="translate(182 119.253125)scale(0.2 -0.2)">
      <use transform="translate(0 0.171875)" xlink:href="#DejaVuSans-Oblique-122"/>
      <use transform="translate(71.972656 0.171875)" xlink:href="#DejaVuSans-61"/>
      <use transform="translate(175.244141 0.171875)" xlink:href="#DejaVuSans-49"/>
      <use transform="translate(238.867188 0.171875)" xlink:href="#DejaVuSans-48"/>
      <use transform="translate(302.490234 0.171875)" xlink:href="#DejaVuSans-48"/>
      <use transform="translate(366.113281 0.171875)" xlink:href="#DejaVuSans-Oblique-197"/>
     </g>
    </g>
    <g id="line2d_35"/>
    <g id="line2d_36">
     <g>
      <use style="fill:#e6f598;stroke:#e6f598;" x="146" xlink:href="#mab2958b622" y="141.609375"/>
     </g>
    </g>
    <g id="text_17">
     <!-- $z=150 \AA$ -->
     <g transform="translate(182 148.609375)scale(0.2 -0.2)">
      <use transform="translate(0 0.171875)" xlink:href="#DejaVuSans-Oblique-122"/>
      <use transform="translate(71.972656 0.171875)" xlink:href="#DejaVuSans-61"/>
      <use transform="translate(175.244141 0.171875)" xlink:href="#DejaVuSans-49"/>
      <use transform="translate(238.867188 0.171875)" xlink:href="#DejaVuSans-53"/>
      <use transform="translate(302.490234 0.171875)" xlink:href="#DejaVuSans-48"/>
      <use transform="translate(366.113281 0.171875)" xlink:href="#DejaVuSans-Oblique-197"/>
     </g>
    </g>
    <g id="line2d_37"/>
    <g id="line2d_38">
     <g>
      <use style="fill:#66c2a5;stroke:#66c2a5;" x="146" xlink:href="#m64e80d1b81" y="170.965625"/>
     </g>
    </g>
    <g id="text_18">
     <!-- $z=200 \AA$ -->
     <g transform="translate(182 177.965625)scale(0.2 -0.2)">
      <use transform="translate(0 0.171875)" xlink:href="#DejaVuSans-Oblique-122"/>
      <use transform="translate(71.972656 0.171875)" xlink:href="#DejaVuSans-61"/>
      <use transform="translate(175.244141 0.171875)" xlink:href="#DejaVuSans-50"/>
      <use transform="translate(238.867188 0.171875)" xlink:href="#DejaVuSans-48"/>
      <use transform="translate(302.490234 0.171875)" xlink:href="#DejaVuSans-48"/>
      <use transform="translate(366.113281 0.171875)" xlink:href="#DejaVuSans-Oblique-197"/>
     </g>
    </g>
    <g id="line2d_39"/>
    <g id="line2d_40">
     <g>
      <use style="fill:#5e4fa2;stroke:#5e4fa2;" x="146" xlink:href="#m203acd3646" y="200.321875"/>
     </g>
    </g>
    <g id="text_19">
     <!-- $z=250 \AA$ -->
     <g transform="translate(182 207.321875)scale(0.2 -0.2)">
      <use transform="translate(0 0.171875)" xlink:href="#DejaVuSans-Oblique-122"/>
      <use transform="translate(71.972656 0.171875)" xlink:href="#DejaVuSans-61"/>
      <use transform="translate(175.244141 0.171875)" xlink:href="#DejaVuSans-50"/>
      <use transform="translate(238.867188 0.171875)" xlink:href="#DejaVuSans-53"/>
      <use transform="translate(302.490234 0.171875)" xlink:href="#DejaVuSans-48"/>
      <use transform="translate(366.113281 0.171875)" xlink:href="#DejaVuSans-Oblique-197"/>
     </g>
    </g>
   </g>
  </g>
 </g>
 <defs>
  <clipPath id="pe5261104ff">
   <rect height="664.2" width="590.4" x="108" y="56.7"/>
  </clipPath>
 </defs>
</svg>
