<?xml version="1.0" encoding="utf-8" standalone="no"?>
<!DOCTYPE svg PUBLIC "-//W3C//DTD SVG 1.1//EN"
  "http://www.w3.org/Graphics/SVG/1.1/DTD/svg11.dtd">
<!-- Created with matplotlib (https://matplotlib.org/) -->
<svg height="810pt" version="1.1" viewBox="0 0 720 810" width="720pt" xmlns="http://www.w3.org/2000/svg" xmlns:xlink="http://www.w3.org/1999/xlink">
 <metadata>
  <rdf:RDF xmlns:cc="http://creativecommons.org/ns#" xmlns:dc="http://purl.org/dc/elements/1.1/" xmlns:rdf="http://www.w3.org/1999/02/22-rdf-syntax-ns#">
   <cc:Work>
    <dc:type rdf:resource="http://purl.org/dc/dcmitype/StillImage"/>
    <dc:date>2021-07-08T13:04:07.122917</dc:date>
    <dc:format>image/svg+xml</dc:format>
    <dc:creator>
     <cc:Agent>
      <dc:title>Matplotlib v3.3.1, https://matplotlib.org/</dc:title>
     </cc:Agent>
    </dc:creator>
   </cc:Work>
  </rdf:RDF>
 </metadata>
 <defs>
  <style type="text/css">*{stroke-linecap:butt;stroke-linejoin:round;}</style>
 </defs>
 <g id="figure_1">
  <g id="patch_1">
   <path d="M 0 810 
L 720 810 
L 720 0 
L 0 0 
z
" style="fill:#ffffff;"/>
  </g>
  <g id="axes_1">
   <g id="patch_2">
    <path d="M 108 720.9 
L 698.4 720.9 
L 698.4 56.7 
L 108 56.7 
z
" style="fill:#ffffff;"/>
   </g>
   <g id="matplotlib.axis_1">
    <g id="xtick_1">
     <g id="line2d_1">
      <defs>
       <path d="M 0 0 
L 0 3.5 
" id="m44e6a5047c" style="stroke:#000000;stroke-width:0.8;"/>
      </defs>
      <g>
       <use style="stroke:#000000;stroke-width:0.8;" x="167.04" xlink:href="#m44e6a5047c" y="720.9"/>
      </g>
     </g>
     <g id="text_1">
      <!-- −2 -->
      <g transform="translate(155.983359 739.297656)scale(0.15 -0.15)">
       <defs>
        <path d="M 10.59375 35.5 
L 73.1875 35.5 
L 73.1875 27.203125 
L 10.59375 27.203125 
z
" id="DejaVuSans-8722"/>
        <path d="M 19.1875 8.296875 
L 53.609375 8.296875 
L 53.609375 0 
L 7.328125 0 
L 7.328125 8.296875 
Q 12.9375 14.109375 22.625 23.890625 
Q 32.328125 33.6875 34.8125 36.53125 
Q 39.546875 41.84375 41.421875 45.53125 
Q 43.3125 49.21875 43.3125 52.78125 
Q 43.3125 58.59375 39.234375 62.25 
Q 35.15625 65.921875 28.609375 65.921875 
Q 23.96875 65.921875 18.8125 64.3125 
Q 13.671875 62.703125 7.8125 59.421875 
L 7.8125 69.390625 
Q 13.765625 71.78125 18.9375 73 
Q 24.125 74.21875 28.421875 74.21875 
Q 39.75 74.21875 46.484375 68.546875 
Q 53.21875 62.890625 53.21875 53.421875 
Q 53.21875 48.921875 51.53125 44.890625 
Q 49.859375 40.875 45.40625 35.40625 
Q 44.1875 33.984375 37.640625 27.21875 
Q 31.109375 20.453125 19.1875 8.296875 
z
" id="DejaVuSans-50"/>
       </defs>
       <use xlink:href="#DejaVuSans-8722"/>
       <use x="83.789062" xlink:href="#DejaVuSans-50"/>
      </g>
     </g>
    </g>
    <g id="xtick_2">
     <g id="line2d_2">
      <g>
       <use style="stroke:#000000;stroke-width:0.8;" x="285.12" xlink:href="#m44e6a5047c" y="720.9"/>
      </g>
     </g>
     <g id="text_2">
      <!-- −1 -->
      <g transform="translate(274.063359 739.297656)scale(0.15 -0.15)">
       <defs>
        <path d="M 12.40625 8.296875 
L 28.515625 8.296875 
L 28.515625 63.921875 
L 10.984375 60.40625 
L 10.984375 69.390625 
L 28.421875 72.90625 
L 38.28125 72.90625 
L 38.28125 8.296875 
L 54.390625 8.296875 
L 54.390625 0 
L 12.40625 0 
z
" id="DejaVuSans-49"/>
       </defs>
       <use xlink:href="#DejaVuSans-8722"/>
       <use x="83.789062" xlink:href="#DejaVuSans-49"/>
      </g>
     </g>
    </g>
    <g id="xtick_3">
     <g id="line2d_3">
      <g>
       <use style="stroke:#000000;stroke-width:0.8;" x="403.2" xlink:href="#m44e6a5047c" y="720.9"/>
      </g>
     </g>
     <g id="text_3">
      <!-- 0 -->
      <g transform="translate(398.428125 739.297656)scale(0.15 -0.15)">
       <defs>
        <path d="M 31.78125 66.40625 
Q 24.171875 66.40625 20.328125 58.90625 
Q 16.5 51.421875 16.5 36.375 
Q 16.5 21.390625 20.328125 13.890625 
Q 24.171875 6.390625 31.78125 6.390625 
Q 39.453125 6.390625 43.28125 13.890625 
Q 47.125 21.390625 47.125 36.375 
Q 47.125 51.421875 43.28125 58.90625 
Q 39.453125 66.40625 31.78125 66.40625 
z
M 31.78125 74.21875 
Q 44.046875 74.21875 50.515625 64.515625 
Q 56.984375 54.828125 56.984375 36.375 
Q 56.984375 17.96875 50.515625 8.265625 
Q 44.046875 -1.421875 31.78125 -1.421875 
Q 19.53125 -1.421875 13.0625 8.265625 
Q 6.59375 17.96875 6.59375 36.375 
Q 6.59375 54.828125 13.0625 64.515625 
Q 19.53125 74.21875 31.78125 74.21875 
z
" id="DejaVuSans-48"/>
       </defs>
       <use xlink:href="#DejaVuSans-48"/>
      </g>
     </g>
    </g>
    <g id="xtick_4">
     <g id="line2d_4">
      <g>
       <use style="stroke:#000000;stroke-width:0.8;" x="521.28" xlink:href="#m44e6a5047c" y="720.9"/>
      </g>
     </g>
     <g id="text_4">
      <!-- 1 -->
      <g transform="translate(516.508125 739.297656)scale(0.15 -0.15)">
       <use xlink:href="#DejaVuSans-49"/>
      </g>
     </g>
    </g>
    <g id="xtick_5">
     <g id="line2d_5">
      <g>
       <use style="stroke:#000000;stroke-width:0.8;" x="639.36" xlink:href="#m44e6a5047c" y="720.9"/>
      </g>
     </g>
     <g id="text_5">
      <!-- 2 -->
      <g transform="translate(634.588125 739.297656)scale(0.15 -0.15)">
       <use xlink:href="#DejaVuSans-50"/>
      </g>
     </g>
    </g>
    <g id="text_6">
     <!-- $q_x$ -->
     <g transform="translate(389.7 765.3625)scale(0.25 -0.25)">
      <defs>
       <path d="M 41.703125 8.203125 
Q 38.09375 3.46875 33.171875 1.015625 
Q 28.265625 -1.421875 22.3125 -1.421875 
Q 14.015625 -1.421875 9.296875 4.171875 
Q 4.59375 9.765625 4.59375 19.578125 
Q 4.59375 27.484375 7.5 34.859375 
Q 10.40625 42.234375 15.828125 48.09375 
Q 19.34375 51.90625 23.90625 53.953125 
Q 28.46875 56 33.5 56 
Q 39.546875 56 43.453125 53.609375 
Q 47.359375 51.21875 49.125 46.390625 
L 50.6875 54.59375 
L 59.71875 54.59375 
L 45.125 -20.609375 
L 36.078125 -20.609375 
z
M 13.921875 20.90625 
Q 13.921875 13.671875 16.9375 9.890625 
Q 19.96875 6.109375 25.6875 6.109375 
Q 34.1875 6.109375 40.1875 14.234375 
Q 46.1875 22.359375 46.1875 33.984375 
Q 46.1875 41.015625 43.078125 44.75 
Q 39.984375 48.484375 34.1875 48.484375 
Q 29.9375 48.484375 26.3125 46.5 
Q 22.703125 44.53125 20.015625 40.71875 
Q 17.1875 36.71875 15.546875 31.34375 
Q 13.921875 25.984375 13.921875 20.90625 
z
" id="DejaVuSans-Oblique-113"/>
       <path d="M 60.015625 54.6875 
L 34.90625 27.875 
L 50.296875 0 
L 39.984375 0 
L 28.421875 21.6875 
L 8.296875 0 
L -2.59375 0 
L 24.3125 28.8125 
L 10.015625 54.6875 
L 20.3125 54.6875 
L 30.8125 34.90625 
L 49.125 54.6875 
z
" id="DejaVuSans-Oblique-120"/>
      </defs>
      <use xlink:href="#DejaVuSans-Oblique-113"/>
      <use transform="translate(63.476562 -16.40625)scale(0.7)" xlink:href="#DejaVuSans-Oblique-120"/>
     </g>
    </g>
   </g>
   <g id="matplotlib.axis_2">
    <g id="ytick_1">
     <g id="line2d_6">
      <defs>
       <path d="M 0 0 
L -3.5 0 
" id="m1165508b10" style="stroke:#000000;stroke-width:0.8;"/>
      </defs>
      <g>
       <use style="stroke:#000000;stroke-width:0.8;" x="108" xlink:href="#m1165508b10" y="654.48"/>
      </g>
     </g>
     <g id="text_7">
      <!-- −2 -->
      <g transform="translate(78.886719 660.178828)scale(0.15 -0.15)">
       <use xlink:href="#DejaVuSans-8722"/>
       <use x="83.789062" xlink:href="#DejaVuSans-50"/>
      </g>
     </g>
    </g>
    <g id="ytick_2">
     <g id="line2d_7">
      <g>
       <use style="stroke:#000000;stroke-width:0.8;" x="108" xlink:href="#m1165508b10" y="521.64"/>
      </g>
     </g>
     <g id="text_8">
      <!-- −1 -->
      <g transform="translate(78.886719 527.338828)scale(0.15 -0.15)">
       <use xlink:href="#DejaVuSans-8722"/>
       <use x="83.789062" xlink:href="#DejaVuSans-49"/>
      </g>
     </g>
    </g>
    <g id="ytick_3">
     <g id="line2d_8">
      <g>
       <use style="stroke:#000000;stroke-width:0.8;" x="108" xlink:href="#m1165508b10" y="388.8"/>
      </g>
     </g>
     <g id="text_9">
      <!-- 0 -->
      <g transform="translate(91.45625 394.498828)scale(0.15 -0.15)">
       <use xlink:href="#DejaVuSans-48"/>
      </g>
     </g>
    </g>
    <g id="ytick_4">
     <g id="line2d_9">
      <g>
       <use style="stroke:#000000;stroke-width:0.8;" x="108" xlink:href="#m1165508b10" y="255.96"/>
      </g>
     </g>
     <g id="text_10">
      <!-- 1 -->
      <g transform="translate(91.45625 261.658828)scale(0.15 -0.15)">
       <use xlink:href="#DejaVuSans-49"/>
      </g>
     </g>
    </g>
    <g id="ytick_5">
     <g id="line2d_10">
      <g>
       <use style="stroke:#000000;stroke-width:0.8;" x="108" xlink:href="#m1165508b10" y="123.12"/>
      </g>
     </g>
     <g id="text_11">
      <!-- 2 -->
      <g transform="translate(91.45625 128.818828)scale(0.15 -0.15)">
       <use xlink:href="#DejaVuSans-50"/>
      </g>
     </g>
    </g>
    <g id="text_12">
     <!-- $q_y$ -->
     <g transform="translate(67.136719 402.3)rotate(-90)scale(0.25 -0.25)">
      <defs>
       <path d="M 24.8125 -5.078125 
Q 18.5625 -15.578125 14.625 -18.1875 
Q 10.6875 -20.796875 4.59375 -20.796875 
L -2.484375 -20.796875 
L -0.984375 -13.28125 
L 4.203125 -13.28125 
Q 7.953125 -13.28125 10.59375 -11.234375 
Q 13.234375 -9.1875 16.5 -3.21875 
L 19.28125 2 
L 7.171875 54.6875 
L 16.703125 54.6875 
L 25.78125 12.796875 
L 50.875 54.6875 
L 60.296875 54.6875 
z
" id="DejaVuSans-Oblique-121"/>
      </defs>
      <use xlink:href="#DejaVuSans-Oblique-113"/>
      <use transform="translate(63.476562 -16.40625)scale(0.7)" xlink:href="#DejaVuSans-Oblique-121"/>
     </g>
    </g>
   </g>
   <g id="PathCollection_1">
    <path clip-path="url(#p9ad85bd707)" d="M 201.749594 695.489134 
L 210.932765 680.183848 
L 201.749594 664.878563 
L 192.566423 680.183848 
z
" style="fill:#4a1486;stroke:#4a1486;"/>
    <path clip-path="url(#p9ad85bd707)" d="M 302.825992 606.91351 
L 302.825992 606.91351 
L 302.825992 606.91351 
L 302.825992 606.91351 
z
" style="fill:#fcfbfd;stroke:#fcfbfd;"/>
    <path clip-path="url(#p9ad85bd707)" d="M 435.389983 569.853964 
L 435.389983 569.853964 
L 435.389983 569.853964 
L 435.389983 569.853964 
z
" style="fill:#fcfbfd;stroke:#fcfbfd;"/>
    <path clip-path="url(#p9ad85bd707)" d="M 169.735208 535.340677 
L 169.735208 535.340677 
L 169.735208 535.340677 
L 169.735208 535.340677 
z
" style="fill:#fcfbfd;stroke:#fcfbfd;"/>
    <path clip-path="url(#p9ad85bd707)" d="M 567.778377 512.395014 
L 577.26521 496.583626 
L 567.778377 480.772237 
L 558.291544 496.583626 
z
" style="fill:#3f007d;stroke:#3f007d;"/>
    <path clip-path="url(#p9ad85bd707)" d="M 403.375597 425.010793 
L 403.375597 425.010793 
L 403.375597 425.010793 
L 403.375597 425.010793 
z
" style="fill:#fcfbfd;stroke:#fcfbfd;"/>
    <path clip-path="url(#p9ad85bd707)" d="M 270.460411 389.648753 
L 270.460411 389.648753 
L 270.460411 389.648753 
L 270.460411 389.648753 
z
" style="fill:#fcfbfd;stroke:#fcfbfd;"/>
    <path clip-path="url(#p9ad85bd707)" d="M 403.2 388.8 
L 403.2 388.8 
L 403.2 388.8 
L 403.2 388.8 
z
" style="fill:#fcfbfd;stroke:#fcfbfd;"/>
    <path clip-path="url(#p9ad85bd707)" d="M 270.284814 353.43796 
L 270.284814 353.43796 
L 270.284814 353.43796 
L 270.284814 353.43796 
z
" style="fill:#fcfbfd;stroke:#fcfbfd;"/>
    <path clip-path="url(#p9ad85bd707)" d="M 403.024403 352.589207 
L 403.024403 352.589207 
L 403.024403 352.589207 
L 403.024403 352.589207 
z
" style="fill:#fcfbfd;stroke:#fcfbfd;"/>
    <path clip-path="url(#p9ad85bd707)" d="M 270.109217 317.227167 
L 270.109217 317.227167 
L 270.109217 317.227167 
L 270.109217 317.227167 
z
" style="fill:#fcfbfd;stroke:#fcfbfd;"/>
    <path clip-path="url(#p9ad85bd707)" d="M 269.933619 281.016374 
L 269.933619 281.016374 
L 269.933619 281.016374 
L 269.933619 281.016374 
z
" style="fill:#fcfbfd;stroke:#fcfbfd;"/>
    <path clip-path="url(#p9ad85bd707)" d="M 269.758022 244.805582 
L 269.758022 244.805582 
L 269.758022 244.805582 
L 269.758022 244.805582 
z
" style="fill:#fcfbfd;stroke:#fcfbfd;"/>
    <path clip-path="url(#p9ad85bd707)" d="M 269.582424 208.594789 
L 269.582424 208.594789 
L 269.582424 208.594789 
L 269.582424 208.594789 
z
" style="fill:#fcfbfd;stroke:#fcfbfd;"/>
    <path clip-path="url(#p9ad85bd707)" d="M 402.322013 207.746036 
L 402.322013 207.746036 
L 402.322013 207.746036 
L 402.322013 207.746036 
z
" style="fill:#fcfbfd;stroke:#fcfbfd;"/>
    <path clip-path="url(#p9ad85bd707)" d="M 269.406827 172.383996 
L 269.406827 172.383996 
L 269.406827 172.383996 
L 269.406827 172.383996 
z
" style="fill:#fcfbfd;stroke:#fcfbfd;"/>
    <path clip-path="url(#p9ad85bd707)" d="M 402.146416 171.535243 
L 402.146416 171.535243 
L 402.146416 171.535243 
L 402.146416 171.535243 
z
" style="fill:#fcfbfd;stroke:#fcfbfd;"/>
    <path clip-path="url(#p9ad85bd707)" d="M 401.970818 135.32445 
L 401.970818 135.32445 
L 401.970818 135.32445 
L 401.970818 135.32445 
z
" style="fill:#fcfbfd;stroke:#fcfbfd;"/>
   </g>
   <g id="PathCollection_2">
    <path clip-path="url(#p9ad85bd707)" d="M 201.749594 690.870855 
C 204.583821 690.870855 207.302348 689.744805 209.306449 687.740704 
C 211.31055 685.736602 212.436601 683.018076 212.436601 680.183848 
C 212.436601 677.349621 211.31055 674.631095 209.306449 672.626993 
C 207.302348 670.622892 204.583821 669.496842 201.749594 669.496842 
C 198.915367 669.496842 196.19684 670.622892 194.192739 672.626993 
C 192.188638 674.631095 191.062587 677.349621 191.062587 680.183848 
C 191.062587 683.018076 192.188638 685.736602 194.192739 687.740704 
C 196.19684 689.744805 198.915367 690.870855 201.749594 690.870855 
z
" style="fill:#ab3803;stroke:#ab3803;"/>
    <path clip-path="url(#p9ad85bd707)" d="M 302.825992 614.269255 
C 304.776758 614.269255 306.647889 613.494208 308.027289 612.114807 
C 309.40669 610.735407 310.181737 608.864276 310.181737 606.91351 
C 310.181737 604.962743 309.40669 603.091613 308.027289 601.712212 
C 306.647889 600.332812 304.776758 599.557764 302.825992 599.557764 
C 300.875225 599.557764 299.004094 600.332812 297.624694 601.712212 
C 296.245294 603.091613 295.470246 604.962743 295.470246 606.91351 
C 295.470246 608.864276 296.245294 610.735407 297.624694 612.114807 
C 299.004094 613.494208 300.875225 614.269255 302.825992 614.269255 
z
" style="fill:#feebd8;stroke:#feebd8;"/>
    <path clip-path="url(#p9ad85bd707)" d="M 435.389983 577.124706 
C 437.318206 577.124706 439.167714 576.358615 440.531174 574.995155 
C 441.894634 573.631695 442.660725 571.782187 442.660725 569.853964 
C 442.660725 567.925741 441.894634 566.076233 440.531174 564.712773 
C 439.167714 563.349314 437.318206 562.583222 435.389983 562.583222 
C 433.46176 562.583222 431.612252 563.349314 430.248792 564.712773 
C 428.885332 566.076233 428.119241 567.925741 428.119241 569.853964 
C 428.119241 571.782187 428.885332 573.631695 430.248792 574.995155 
C 431.612252 576.358615 433.46176 577.124706 435.389983 577.124706 
z
" style="fill:#feeddc;stroke:#feeddc;"/>
    <path clip-path="url(#p9ad85bd707)" d="M 169.735208 542.901032 
C 171.740238 542.901032 173.663416 542.104425 175.081186 540.686655 
C 176.498956 539.268885 177.295563 537.345707 177.295563 535.340677 
C 177.295563 533.335648 176.498956 531.412469 175.081186 529.994699 
C 173.663416 528.576929 171.740238 527.780323 169.735208 527.780323 
C 167.730179 527.780323 165.807 528.576929 164.38923 529.994699 
C 162.971461 531.412469 162.174854 533.335648 162.174854 535.340677 
C 162.174854 537.345707 162.971461 539.268885 164.38923 540.686655 
C 165.807 542.104425 167.730179 542.901032 169.735208 542.901032 
z
" style="fill:#fee6cf;stroke:#fee6cf;"/>
    <path clip-path="url(#p9ad85bd707)" d="M 567.778377 507.483163 
C 570.668968 507.483163 573.441557 506.334719 575.485514 504.290762 
C 577.52947 502.246806 578.677914 499.474217 578.677914 496.583626 
C 578.677914 493.693034 577.52947 490.920445 575.485514 488.876489 
C 573.441557 486.832532 570.668968 485.684088 567.778377 485.684088 
C 564.887786 485.684088 562.115197 486.832532 560.07124 488.876489 
C 558.027284 490.920445 556.87884 493.693034 556.87884 496.583626 
C 556.87884 499.474217 558.027284 502.246806 560.07124 504.290762 
C 562.115197 506.334719 564.887786 507.483163 567.778377 507.483163 
z
" style="fill:#973003;stroke:#973003;"/>
    <path clip-path="url(#p9ad85bd707)" d="M 403.375597 432.311958 
C 405.311889 432.311958 407.169136 431.542662 408.538301 430.173496 
C 409.907466 428.804331 410.676763 426.947085 410.676763 425.010793 
C 410.676763 423.074501 409.907466 421.217254 408.538301 419.848089 
C 407.169136 418.478924 405.311889 417.709627 403.375597 417.709627 
C 401.439306 417.709627 399.582059 418.478924 398.212894 419.848089 
C 396.843729 421.217254 396.074432 423.074501 396.074432 425.010793 
C 396.074432 426.947085 396.843729 428.804331 398.212894 430.173496 
C 399.582059 431.542662 401.439306 432.311958 403.375597 432.311958 
z
" style="fill:#feeddb;stroke:#feeddb;"/>
    <path clip-path="url(#p9ad85bd707)" d="M 270.460411 397.207235 
C 272.464944 397.207235 274.387646 396.410825 275.805065 394.993407 
C 277.222484 393.575988 278.018893 391.653286 278.018893 389.648753 
C 278.018893 387.64422 277.222484 385.721518 275.805065 384.304099 
C 274.387646 382.88668 272.464944 382.090271 270.460411 382.090271 
C 268.455879 382.090271 266.533176 382.88668 265.115758 384.304099 
C 263.698339 385.721518 262.901929 387.64422 262.901929 389.648753 
C 262.901929 391.653286 263.698339 393.575988 265.115758 394.993407 
C 266.533176 396.410825 268.455879 397.207235 270.460411 397.207235 
z
" style="fill:#fee6cf;stroke:#fee6cf;"/>
    <path clip-path="url(#p9ad85bd707)" d="M 403.2 399.98034 
C 406.165061 399.98034 409.00908 398.802309 411.105694 396.705694 
C 413.202309 394.60908 414.38034 391.765061 414.38034 388.8 
C 414.38034 385.834939 413.202309 382.99092 411.105694 380.894306 
C 409.00908 378.797691 406.165061 377.61966 403.2 377.61966 
C 400.234939 377.61966 397.39092 378.797691 395.294306 380.894306 
C 393.197691 382.99092 392.01966 385.834939 392.01966 388.8 
C 392.01966 391.765061 393.197691 394.60908 395.294306 396.705694 
C 397.39092 398.802309 400.234939 399.98034 403.2 399.98034 
z
" style="fill:#7f2704;stroke:#7f2704;"/>
    <path clip-path="url(#p9ad85bd707)" d="M 270.284814 363.005592 
C 272.82218 363.005592 275.255963 361.997486 277.050151 360.203298 
C 278.84434 358.409109 279.852446 355.975326 279.852446 353.43796 
C 279.852446 350.900594 278.84434 348.466811 277.050151 346.672623 
C 275.255963 344.878434 272.82218 343.870328 270.284814 343.870328 
C 267.747448 343.870328 265.313665 344.878434 263.519476 346.672623 
C 261.725288 348.466811 260.717182 350.900594 260.717182 353.43796 
C 260.717182 355.975326 261.725288 358.409109 263.519476 360.203298 
C 265.313665 361.997486 267.747448 363.005592 270.284814 363.005592 
z
" style="fill:#f67925;stroke:#f67925;"/>
    <path clip-path="url(#p9ad85bd707)" d="M 403.024403 360.117962 
C 405.021052 360.117962 406.936192 359.324685 408.348036 357.912841 
C 409.75988 356.500997 410.553157 354.585856 410.553157 352.589207 
C 410.553157 350.592558 409.75988 348.677418 408.348036 347.265574 
C 406.936192 345.85373 405.021052 345.060452 403.024403 345.060452 
C 401.027754 345.060452 399.112613 345.85373 397.700769 347.265574 
C 396.288925 348.677418 395.495648 350.592558 395.495648 352.589207 
C 395.495648 354.585856 396.288925 356.500997 397.700769 357.912841 
C 399.112613 359.324685 401.027754 360.117962 403.024403 360.117962 
z
" style="fill:#fee7d0;stroke:#fee7d0;"/>
    <path clip-path="url(#p9ad85bd707)" d="M 270.109217 325.033665 
C 272.179524 325.033665 274.165316 324.211123 275.629244 322.747195 
C 277.093172 321.283266 277.915714 319.297475 277.915714 317.227167 
C 277.915714 315.15686 277.093172 313.171068 275.629244 311.70714 
C 274.165316 310.243211 272.179524 309.42067 270.109217 309.42067 
C 268.038909 309.42067 266.053117 310.243211 264.589189 311.70714 
C 263.125261 313.171068 262.302719 315.15686 262.302719 317.227167 
C 262.302719 319.297475 263.125261 321.283266 264.589189 322.747195 
C 266.053117 324.211123 268.038909 325.033665 270.109217 325.033665 
z
" style="fill:#fedebd;stroke:#fedebd;"/>
    <path clip-path="url(#p9ad85bd707)" d="M 269.933619 288.585141 
C 271.940879 288.585141 273.866198 287.787648 275.285545 286.3683 
C 276.704893 284.948953 277.502385 283.023635 277.502385 281.016374 
C 277.502385 279.009114 276.704893 277.083796 275.285545 275.664448 
C 273.866198 274.245101 271.940879 273.447608 269.933619 273.447608 
C 267.926359 273.447608 266.00104 274.245101 264.581693 275.664448 
C 263.162346 277.083796 262.364853 279.009114 262.364853 281.016374 
C 262.364853 283.023635 263.162346 284.948953 264.581693 286.3683 
C 266.00104 287.787648 267.926359 288.585141 269.933619 288.585141 
z
" style="fill:#fee6ce;stroke:#fee6ce;"/>
    <path clip-path="url(#p9ad85bd707)" d="M 269.758022 252.449436 
C 271.785196 252.449436 273.729615 251.644032 275.163043 250.210603 
C 276.596472 248.777175 277.401877 246.832756 277.401877 244.805582 
C 277.401877 242.778408 276.596472 240.833988 275.163043 239.40056 
C 273.729615 237.967132 271.785196 237.161727 269.758022 237.161727 
C 267.730848 237.161727 265.786429 237.967132 264.353 239.40056 
C 262.919572 240.833988 262.114167 242.778408 262.114167 244.805582 
C 262.114167 246.832756 262.919572 248.777175 264.353 250.210603 
C 265.786429 251.644032 267.730848 252.449436 269.758022 252.449436 
z
" style="fill:#fee4ca;stroke:#fee4ca;"/>
    <path clip-path="url(#p9ad85bd707)" d="M 269.582424 216.770731 
C 271.75071 216.770731 273.83048 215.909262 275.363689 214.376053 
C 276.896898 212.842844 277.758367 210.763074 277.758367 208.594789 
C 277.758367 206.426503 276.896898 204.346734 275.363689 202.813524 
C 273.83048 201.280315 271.75071 200.418846 269.582424 200.418846 
C 267.414139 200.418846 265.334369 201.280315 263.80116 202.813524 
C 262.267951 204.346734 261.406482 206.426503 261.406482 208.594789 
C 261.406482 210.763074 262.267951 212.842844 263.80116 214.376053 
C 265.334369 215.909262 267.414139 216.770731 269.582424 216.770731 
z
" style="fill:#fdd1a3;stroke:#fdd1a3;"/>
    <path clip-path="url(#p9ad85bd707)" d="M 402.322013 215.054177 
C 404.260155 215.054177 406.119176 214.284145 407.489649 212.913672 
C 408.860122 211.543199 409.630154 209.684177 409.630154 207.746036 
C 409.630154 205.807894 408.860122 203.948873 407.489649 202.5784 
C 406.119176 201.207927 404.260155 200.437895 402.322013 200.437895 
C 400.383871 200.437895 398.52485 201.207927 397.154377 202.5784 
C 395.783904 203.948873 395.013872 205.807894 395.013872 207.746036 
C 395.013872 209.684177 395.783904 211.543199 397.154377 212.913672 
C 398.52485 214.284145 400.383871 215.054177 402.322013 215.054177 
z
" style="fill:#feecda;stroke:#feecda;"/>
    <path clip-path="url(#p9ad85bd707)" d="M 269.406827 180.495583 
C 271.558045 180.495583 273.621444 179.640895 275.142585 178.119754 
C 276.663726 176.598613 277.518414 174.535214 277.518414 172.383996 
C 277.518414 170.232778 276.663726 168.169379 275.142585 166.648238 
C 273.621444 165.127097 271.558045 164.272409 269.406827 164.272409 
C 267.255609 164.272409 265.19221 165.127097 263.671069 166.648238 
C 262.149928 168.169379 261.29524 170.232778 261.29524 172.383996 
C 261.29524 174.535214 262.149928 176.598613 263.671069 178.119754 
C 265.19221 179.640895 267.255609 180.495583 269.406827 180.495583 
z
" style="fill:#fdd3a7;stroke:#fdd3a7;"/>
    <path clip-path="url(#p9ad85bd707)" d="M 402.146416 179.511596 
C 404.261769 179.511596 406.290768 178.671157 407.786549 177.175377 
C 409.28233 175.679596 410.122769 173.650597 410.122769 171.535243 
C 410.122769 169.419889 409.28233 167.39089 407.786549 165.895109 
C 406.290768 164.399329 404.261769 163.55889 402.146416 163.55889 
C 400.031062 163.55889 398.002063 164.399329 396.506282 165.895109 
C 395.010501 167.39089 394.170062 169.419889 394.170062 171.535243 
C 394.170062 173.650597 395.010501 175.679596 396.506282 177.175377 
C 398.002063 178.671157 400.031062 179.511596 402.146416 179.511596 
z
" style="fill:#fdd7b1;stroke:#fdd7b1;"/>
    <path clip-path="url(#p9ad85bd707)" d="M 401.970818 143.14592 
C 404.045096 143.14592 406.034697 142.321801 407.501433 140.855065 
C 408.968169 139.388329 409.792288 137.398728 409.792288 135.32445 
C 409.792288 133.250172 408.968169 131.260572 407.501433 129.793836 
C 406.034697 128.327099 404.045096 127.50298 401.970818 127.50298 
C 399.89654 127.50298 397.90694 128.327099 396.440204 129.793836 
C 394.973467 131.260572 394.149348 133.250172 394.149348 135.32445 
C 394.149348 137.398728 394.973467 139.388329 396.440204 140.855065 
C 397.90694 142.321801 399.89654 143.14592 401.970818 143.14592 
z
" style="fill:#fedebd;stroke:#fedebd;"/>
   </g>
   <g id="line2d_11">
    <defs>
     <path d="M -2.5 0 
L 2.5 0 
M 0 2.5 
L 0 -2.5 
" id="m901237e75f" style="stroke:#0000ff;"/>
    </defs>
    <g clip-path="url(#p9ad85bd707)">
     <use style="fill:#0000ff;stroke:#0000ff;" x="403.2" xlink:href="#m901237e75f" y="388.8"/>
    </g>
   </g>
   <g id="patch_3">
    <path d="M 108 720.9 
L 108 56.7 
" style="fill:none;stroke:#000000;stroke-linecap:square;stroke-linejoin:miter;stroke-width:0.8;"/>
   </g>
   <g id="patch_4">
    <path d="M 698.4 720.9 
L 698.4 56.7 
" style="fill:none;stroke:#000000;stroke-linecap:square;stroke-linejoin:miter;stroke-width:0.8;"/>
   </g>
   <g id="patch_5">
    <path d="M 108 720.9 
L 698.4 720.9 
" style="fill:none;stroke:#000000;stroke-linecap:square;stroke-linejoin:miter;stroke-width:0.8;"/>
   </g>
   <g id="patch_6">
    <path d="M 108 56.7 
L 698.4 56.7 
" style="fill:none;stroke:#000000;stroke-linecap:square;stroke-linejoin:miter;stroke-width:0.8;"/>
   </g>
   <g id="text_13">
    <!-- (-6,-8,2) -->
    <g style="fill:#796eb2;" transform="translate(171.402719 673.541848)scale(0.15 -0.15)">
     <defs>
      <path d="M 31 75.875 
Q 24.46875 64.65625 21.28125 53.65625 
Q 18.109375 42.671875 18.109375 31.390625 
Q 18.109375 20.125 21.3125 9.0625 
Q 24.515625 -2 31 -13.1875 
L 23.1875 -13.1875 
Q 15.875 -1.703125 12.234375 9.375 
Q 8.59375 20.453125 8.59375 31.390625 
Q 8.59375 42.28125 12.203125 53.3125 
Q 15.828125 64.359375 23.1875 75.875 
z
" id="DejaVuSans-40"/>
      <path d="M 4.890625 31.390625 
L 31.203125 31.390625 
L 31.203125 23.390625 
L 4.890625 23.390625 
z
" id="DejaVuSans-45"/>
      <path d="M 33.015625 40.375 
Q 26.375 40.375 22.484375 35.828125 
Q 18.609375 31.296875 18.609375 23.390625 
Q 18.609375 15.53125 22.484375 10.953125 
Q 26.375 6.390625 33.015625 6.390625 
Q 39.65625 6.390625 43.53125 10.953125 
Q 47.40625 15.53125 47.40625 23.390625 
Q 47.40625 31.296875 43.53125 35.828125 
Q 39.65625 40.375 33.015625 40.375 
z
M 52.59375 71.296875 
L 52.59375 62.3125 
Q 48.875 64.0625 45.09375 64.984375 
Q 41.3125 65.921875 37.59375 65.921875 
Q 27.828125 65.921875 22.671875 59.328125 
Q 17.53125 52.734375 16.796875 39.40625 
Q 19.671875 43.65625 24.015625 45.921875 
Q 28.375 48.1875 33.59375 48.1875 
Q 44.578125 48.1875 50.953125 41.515625 
Q 57.328125 34.859375 57.328125 23.390625 
Q 57.328125 12.15625 50.6875 5.359375 
Q 44.046875 -1.421875 33.015625 -1.421875 
Q 20.359375 -1.421875 13.671875 8.265625 
Q 6.984375 17.96875 6.984375 36.375 
Q 6.984375 53.65625 15.1875 63.9375 
Q 23.390625 74.21875 37.203125 74.21875 
Q 40.921875 74.21875 44.703125 73.484375 
Q 48.484375 72.75 52.59375 71.296875 
z
" id="DejaVuSans-54"/>
      <path d="M 11.71875 12.40625 
L 22.015625 12.40625 
L 22.015625 4 
L 14.015625 -11.625 
L 7.71875 -11.625 
L 11.71875 4 
z
" id="DejaVuSans-44"/>
      <path d="M 31.78125 34.625 
Q 24.75 34.625 20.71875 30.859375 
Q 16.703125 27.09375 16.703125 20.515625 
Q 16.703125 13.921875 20.71875 10.15625 
Q 24.75 6.390625 31.78125 6.390625 
Q 38.8125 6.390625 42.859375 10.171875 
Q 46.921875 13.96875 46.921875 20.515625 
Q 46.921875 27.09375 42.890625 30.859375 
Q 38.875 34.625 31.78125 34.625 
z
M 21.921875 38.8125 
Q 15.578125 40.375 12.03125 44.71875 
Q 8.5 49.078125 8.5 55.328125 
Q 8.5 64.0625 14.71875 69.140625 
Q 20.953125 74.21875 31.78125 74.21875 
Q 42.671875 74.21875 48.875 69.140625 
Q 55.078125 64.0625 55.078125 55.328125 
Q 55.078125 49.078125 51.53125 44.71875 
Q 48 40.375 41.703125 38.8125 
Q 48.828125 37.15625 52.796875 32.3125 
Q 56.78125 27.484375 56.78125 20.515625 
Q 56.78125 9.90625 50.3125 4.234375 
Q 43.84375 -1.421875 31.78125 -1.421875 
Q 19.734375 -1.421875 13.25 4.234375 
Q 6.78125 9.90625 6.78125 20.515625 
Q 6.78125 27.484375 10.78125 32.3125 
Q 14.796875 37.15625 21.921875 38.8125 
z
M 18.3125 54.390625 
Q 18.3125 48.734375 21.84375 45.5625 
Q 25.390625 42.390625 31.78125 42.390625 
Q 38.140625 42.390625 41.71875 45.5625 
Q 45.3125 48.734375 45.3125 54.390625 
Q 45.3125 60.0625 41.71875 63.234375 
Q 38.140625 66.40625 31.78125 66.40625 
Q 25.390625 66.40625 21.84375 63.234375 
Q 18.3125 60.0625 18.3125 54.390625 
z
" id="DejaVuSans-56"/>
      <path d="M 8.015625 75.875 
L 15.828125 75.875 
Q 23.140625 64.359375 26.78125 53.3125 
Q 30.421875 42.28125 30.421875 31.390625 
Q 30.421875 20.453125 26.78125 9.375 
Q 23.140625 -1.703125 15.828125 -13.1875 
L 8.015625 -13.1875 
Q 14.5 -2 17.703125 9.0625 
Q 20.90625 20.125 20.90625 31.390625 
Q 20.90625 42.671875 17.703125 53.65625 
Q 14.5 64.65625 8.015625 75.875 
z
" id="DejaVuSans-41"/>
     </defs>
     <use xlink:href="#DejaVuSans-40"/>
     <use x="39.013672" xlink:href="#DejaVuSans-45"/>
     <use x="75.097656" xlink:href="#DejaVuSans-54"/>
     <use x="138.720703" xlink:href="#DejaVuSans-44"/>
     <use x="170.507812" xlink:href="#DejaVuSans-45"/>
     <use x="206.591797" xlink:href="#DejaVuSans-56"/>
     <use x="270.214844" xlink:href="#DejaVuSans-44"/>
     <use x="302.001953" xlink:href="#DejaVuSans-50"/>
     <use x="365.625" xlink:href="#DejaVuSans-41"/>
    </g>
   </g>
   <g id="text_14">
    <!-- (0,0,0) -->
    <g style="fill:#796eb2;" transform="translate(378.264844 382.158)scale(0.15 -0.15)">
     <use xlink:href="#DejaVuSans-40"/>
     <use x="39.013672" xlink:href="#DejaVuSans-48"/>
     <use x="102.636719" xlink:href="#DejaVuSans-44"/>
     <use x="134.423828" xlink:href="#DejaVuSans-48"/>
     <use x="198.046875" xlink:href="#DejaVuSans-44"/>
     <use x="229.833984" xlink:href="#DejaVuSans-48"/>
     <use x="293.457031" xlink:href="#DejaVuSans-41"/>
    </g>
   </g>
   <g id="text_15">
    <!-- (5,-3,-1) -->
    <g style="fill:#796eb2;" transform="translate(537.431502 489.941626)scale(0.15 -0.15)">
     <defs>
      <path d="M 10.796875 72.90625 
L 49.515625 72.90625 
L 49.515625 64.59375 
L 19.828125 64.59375 
L 19.828125 46.734375 
Q 21.96875 47.46875 24.109375 47.828125 
Q 26.265625 48.1875 28.421875 48.1875 
Q 40.625 48.1875 47.75 41.5 
Q 54.890625 34.8125 54.890625 23.390625 
Q 54.890625 11.625 47.5625 5.09375 
Q 40.234375 -1.421875 26.90625 -1.421875 
Q 22.3125 -1.421875 17.546875 -0.640625 
Q 12.796875 0.140625 7.71875 1.703125 
L 7.71875 11.625 
Q 12.109375 9.234375 16.796875 8.0625 
Q 21.484375 6.890625 26.703125 6.890625 
Q 35.15625 6.890625 40.078125 11.328125 
Q 45.015625 15.765625 45.015625 23.390625 
Q 45.015625 31 40.078125 35.4375 
Q 35.15625 39.890625 26.703125 39.890625 
Q 22.75 39.890625 18.8125 39.015625 
Q 14.890625 38.140625 10.796875 36.28125 
z
" id="DejaVuSans-53"/>
      <path d="M 40.578125 39.3125 
Q 47.65625 37.796875 51.625 33 
Q 55.609375 28.21875 55.609375 21.1875 
Q 55.609375 10.40625 48.1875 4.484375 
Q 40.765625 -1.421875 27.09375 -1.421875 
Q 22.515625 -1.421875 17.65625 -0.515625 
Q 12.796875 0.390625 7.625 2.203125 
L 7.625 11.71875 
Q 11.71875 9.328125 16.59375 8.109375 
Q 21.484375 6.890625 26.8125 6.890625 
Q 36.078125 6.890625 40.9375 10.546875 
Q 45.796875 14.203125 45.796875 21.1875 
Q 45.796875 27.640625 41.28125 31.265625 
Q 36.765625 34.90625 28.71875 34.90625 
L 20.21875 34.90625 
L 20.21875 43.015625 
L 29.109375 43.015625 
Q 36.375 43.015625 40.234375 45.921875 
Q 44.09375 48.828125 44.09375 54.296875 
Q 44.09375 59.90625 40.109375 62.90625 
Q 36.140625 65.921875 28.71875 65.921875 
Q 24.65625 65.921875 20.015625 65.03125 
Q 15.375 64.15625 9.8125 62.3125 
L 9.8125 71.09375 
Q 15.4375 72.65625 20.34375 73.4375 
Q 25.25 74.21875 29.59375 74.21875 
Q 40.828125 74.21875 47.359375 69.109375 
Q 53.90625 64.015625 53.90625 55.328125 
Q 53.90625 49.265625 50.4375 45.09375 
Q 46.96875 40.921875 40.578125 39.3125 
z
" id="DejaVuSans-51"/>
     </defs>
     <use xlink:href="#DejaVuSans-40"/>
     <use x="39.013672" xlink:href="#DejaVuSans-53"/>
     <use x="102.636719" xlink:href="#DejaVuSans-44"/>
     <use x="134.423828" xlink:href="#DejaVuSans-45"/>
     <use x="170.507812" xlink:href="#DejaVuSans-51"/>
     <use x="234.130859" xlink:href="#DejaVuSans-44"/>
     <use x="265.917969" xlink:href="#DejaVuSans-45"/>
     <use x="302.001953" xlink:href="#DejaVuSans-49"/>
     <use x="365.625" xlink:href="#DejaVuSans-41"/>
    </g>
   </g>
  </g>
 </g>
 <defs>
  <clipPath id="p9ad85bd707">
   <rect height="664.2" width="590.4" x="108" y="56.7"/>
  </clipPath>
 </defs>
</svg>
