<?xml version="1.0" encoding="utf-8" standalone="no"?>
<!DOCTYPE svg PUBLIC "-//W3C//DTD SVG 1.1//EN"
  "http://www.w3.org/Graphics/SVG/1.1/DTD/svg11.dtd">
<!-- Created with matplotlib (https://matplotlib.org/) -->
<svg height="810pt" version="1.1" viewBox="0 0 720 810" width="720pt" xmlns="http://www.w3.org/2000/svg" xmlns:xlink="http://www.w3.org/1999/xlink">
 <metadata>
  <rdf:RDF xmlns:cc="http://creativecommons.org/ns#" xmlns:dc="http://purl.org/dc/elements/1.1/" xmlns:rdf="http://www.w3.org/1999/02/22-rdf-syntax-ns#">
   <cc:Work>
    <dc:type rdf:resource="http://purl.org/dc/dcmitype/StillImage"/>
    <dc:date>2021-07-11T16:39:54.748507</dc:date>
    <dc:format>image/svg+xml</dc:format>
    <dc:creator>
     <cc:Agent>
      <dc:title>Matplotlib v3.3.1, https://matplotlib.org/</dc:title>
     </cc:Agent>
    </dc:creator>
   </cc:Work>
  </rdf:RDF>
 </metadata>
 <defs>
  <style type="text/css">*{stroke-linecap:butt;stroke-linejoin:round;}</style>
 </defs>
 <g id="figure_1">
  <g id="patch_1">
   <path d="M 0 810 
L 720 810 
L 720 0 
L 0 0 
z
" style="fill:#ffffff;"/>
  </g>
  <g id="axes_1">
   <g id="patch_2">
    <path d="M 108 720.9 
L 698.4 720.9 
L 698.4 56.7 
L 108 56.7 
z
" style="fill:#ffffff;"/>
   </g>
   <g id="matplotlib.axis_1">
    <g id="xtick_1">
     <g id="line2d_1">
      <path clip-path="url(#pa1776d67d8)" d="M 159.233058 720.9 
L 159.233058 56.7 
" style="fill:none;stroke:#e6e6e6;stroke-linecap:square;stroke-width:0.8;"/>
     </g>
     <g id="line2d_2">
      <defs>
       <path d="M 0 0 
L 0 3.5 
" id="m7792e7184e" style="stroke:#000000;stroke-width:0.8;"/>
      </defs>
      <g>
       <use style="stroke:#000000;stroke-width:0.8;" x="159.233058" xlink:href="#m7792e7184e" y="720.9"/>
      </g>
     </g>
     <g id="text_1">
      <!-- 0 -->
      <g transform="translate(154.461183 739.297656)scale(0.15 -0.15)">
       <defs>
        <path d="M 31.78125 66.40625 
Q 24.171875 66.40625 20.328125 58.90625 
Q 16.5 51.421875 16.5 36.375 
Q 16.5 21.390625 20.328125 13.890625 
Q 24.171875 6.390625 31.78125 6.390625 
Q 39.453125 6.390625 43.28125 13.890625 
Q 47.125 21.390625 47.125 36.375 
Q 47.125 51.421875 43.28125 58.90625 
Q 39.453125 66.40625 31.78125 66.40625 
z
M 31.78125 74.21875 
Q 44.046875 74.21875 50.515625 64.515625 
Q 56.984375 54.828125 56.984375 36.375 
Q 56.984375 17.96875 50.515625 8.265625 
Q 44.046875 -1.421875 31.78125 -1.421875 
Q 19.53125 -1.421875 13.0625 8.265625 
Q 6.59375 17.96875 6.59375 36.375 
Q 6.59375 54.828125 13.0625 64.515625 
Q 19.53125 74.21875 31.78125 74.21875 
z
" id="DejaVuSans-48"/>
       </defs>
       <use xlink:href="#DejaVuSans-48"/>
      </g>
     </g>
    </g>
    <g id="xtick_2">
     <g id="line2d_3">
      <path clip-path="url(#pa1776d67d8)" d="M 281.216529 720.9 
L 281.216529 56.7 
" style="fill:none;stroke:#e6e6e6;stroke-linecap:square;stroke-width:0.8;"/>
     </g>
     <g id="line2d_4">
      <g>
       <use style="stroke:#000000;stroke-width:0.8;" x="281.216529" xlink:href="#m7792e7184e" y="720.9"/>
      </g>
     </g>
     <g id="text_2">
      <!-- 200 -->
      <g transform="translate(266.900904 739.297656)scale(0.15 -0.15)">
       <defs>
        <path d="M 19.1875 8.296875 
L 53.609375 8.296875 
L 53.609375 0 
L 7.328125 0 
L 7.328125 8.296875 
Q 12.9375 14.109375 22.625 23.890625 
Q 32.328125 33.6875 34.8125 36.53125 
Q 39.546875 41.84375 41.421875 45.53125 
Q 43.3125 49.21875 43.3125 52.78125 
Q 43.3125 58.59375 39.234375 62.25 
Q 35.15625 65.921875 28.609375 65.921875 
Q 23.96875 65.921875 18.8125 64.3125 
Q 13.671875 62.703125 7.8125 59.421875 
L 7.8125 69.390625 
Q 13.765625 71.78125 18.9375 73 
Q 24.125 74.21875 28.421875 74.21875 
Q 39.75 74.21875 46.484375 68.546875 
Q 53.21875 62.890625 53.21875 53.421875 
Q 53.21875 48.921875 51.53125 44.890625 
Q 49.859375 40.875 45.40625 35.40625 
Q 44.1875 33.984375 37.640625 27.21875 
Q 31.109375 20.453125 19.1875 8.296875 
z
" id="DejaVuSans-50"/>
       </defs>
       <use xlink:href="#DejaVuSans-50"/>
       <use x="63.623047" xlink:href="#DejaVuSans-48"/>
       <use x="127.246094" xlink:href="#DejaVuSans-48"/>
      </g>
     </g>
    </g>
    <g id="xtick_3">
     <g id="line2d_5">
      <path clip-path="url(#pa1776d67d8)" d="M 403.2 720.9 
L 403.2 56.7 
" style="fill:none;stroke:#e6e6e6;stroke-linecap:square;stroke-width:0.8;"/>
     </g>
     <g id="line2d_6">
      <g>
       <use style="stroke:#000000;stroke-width:0.8;" x="403.2" xlink:href="#m7792e7184e" y="720.9"/>
      </g>
     </g>
     <g id="text_3">
      <!-- 400 -->
      <g transform="translate(388.884375 739.297656)scale(0.15 -0.15)">
       <defs>
        <path d="M 37.796875 64.3125 
L 12.890625 25.390625 
L 37.796875 25.390625 
z
M 35.203125 72.90625 
L 47.609375 72.90625 
L 47.609375 25.390625 
L 58.015625 25.390625 
L 58.015625 17.1875 
L 47.609375 17.1875 
L 47.609375 0 
L 37.796875 0 
L 37.796875 17.1875 
L 4.890625 17.1875 
L 4.890625 26.703125 
z
" id="DejaVuSans-52"/>
       </defs>
       <use xlink:href="#DejaVuSans-52"/>
       <use x="63.623047" xlink:href="#DejaVuSans-48"/>
       <use x="127.246094" xlink:href="#DejaVuSans-48"/>
      </g>
     </g>
    </g>
    <g id="xtick_4">
     <g id="line2d_7">
      <path clip-path="url(#pa1776d67d8)" d="M 525.183471 720.9 
L 525.183471 56.7 
" style="fill:none;stroke:#e6e6e6;stroke-linecap:square;stroke-width:0.8;"/>
     </g>
     <g id="line2d_8">
      <g>
       <use style="stroke:#000000;stroke-width:0.8;" x="525.183471" xlink:href="#m7792e7184e" y="720.9"/>
      </g>
     </g>
     <g id="text_4">
      <!-- 600 -->
      <g transform="translate(510.867846 739.297656)scale(0.15 -0.15)">
       <defs>
        <path d="M 33.015625 40.375 
Q 26.375 40.375 22.484375 35.828125 
Q 18.609375 31.296875 18.609375 23.390625 
Q 18.609375 15.53125 22.484375 10.953125 
Q 26.375 6.390625 33.015625 6.390625 
Q 39.65625 6.390625 43.53125 10.953125 
Q 47.40625 15.53125 47.40625 23.390625 
Q 47.40625 31.296875 43.53125 35.828125 
Q 39.65625 40.375 33.015625 40.375 
z
M 52.59375 71.296875 
L 52.59375 62.3125 
Q 48.875 64.0625 45.09375 64.984375 
Q 41.3125 65.921875 37.59375 65.921875 
Q 27.828125 65.921875 22.671875 59.328125 
Q 17.53125 52.734375 16.796875 39.40625 
Q 19.671875 43.65625 24.015625 45.921875 
Q 28.375 48.1875 33.59375 48.1875 
Q 44.578125 48.1875 50.953125 41.515625 
Q 57.328125 34.859375 57.328125 23.390625 
Q 57.328125 12.15625 50.6875 5.359375 
Q 44.046875 -1.421875 33.015625 -1.421875 
Q 20.359375 -1.421875 13.671875 8.265625 
Q 6.984375 17.96875 6.984375 36.375 
Q 6.984375 53.65625 15.1875 63.9375 
Q 23.390625 74.21875 37.203125 74.21875 
Q 40.921875 74.21875 44.703125 73.484375 
Q 48.484375 72.75 52.59375 71.296875 
z
" id="DejaVuSans-54"/>
       </defs>
       <use xlink:href="#DejaVuSans-54"/>
       <use x="63.623047" xlink:href="#DejaVuSans-48"/>
       <use x="127.246094" xlink:href="#DejaVuSans-48"/>
      </g>
     </g>
    </g>
    <g id="xtick_5">
     <g id="line2d_9">
      <path clip-path="url(#pa1776d67d8)" d="M 647.166942 720.9 
L 647.166942 56.7 
" style="fill:none;stroke:#e6e6e6;stroke-linecap:square;stroke-width:0.8;"/>
     </g>
     <g id="line2d_10">
      <g>
       <use style="stroke:#000000;stroke-width:0.8;" x="647.166942" xlink:href="#m7792e7184e" y="720.9"/>
      </g>
     </g>
     <g id="text_5">
      <!-- 800 -->
      <g transform="translate(632.851317 739.297656)scale(0.15 -0.15)">
       <defs>
        <path d="M 31.78125 34.625 
Q 24.75 34.625 20.71875 30.859375 
Q 16.703125 27.09375 16.703125 20.515625 
Q 16.703125 13.921875 20.71875 10.15625 
Q 24.75 6.390625 31.78125 6.390625 
Q 38.8125 6.390625 42.859375 10.171875 
Q 46.921875 13.96875 46.921875 20.515625 
Q 46.921875 27.09375 42.890625 30.859375 
Q 38.875 34.625 31.78125 34.625 
z
M 21.921875 38.8125 
Q 15.578125 40.375 12.03125 44.71875 
Q 8.5 49.078125 8.5 55.328125 
Q 8.5 64.0625 14.71875 69.140625 
Q 20.953125 74.21875 31.78125 74.21875 
Q 42.671875 74.21875 48.875 69.140625 
Q 55.078125 64.0625 55.078125 55.328125 
Q 55.078125 49.078125 51.53125 44.71875 
Q 48 40.375 41.703125 38.8125 
Q 48.828125 37.15625 52.796875 32.3125 
Q 56.78125 27.484375 56.78125 20.515625 
Q 56.78125 9.90625 50.3125 4.234375 
Q 43.84375 -1.421875 31.78125 -1.421875 
Q 19.734375 -1.421875 13.25 4.234375 
Q 6.78125 9.90625 6.78125 20.515625 
Q 6.78125 27.484375 10.78125 32.3125 
Q 14.796875 37.15625 21.921875 38.8125 
z
M 18.3125 54.390625 
Q 18.3125 48.734375 21.84375 45.5625 
Q 25.390625 42.390625 31.78125 42.390625 
Q 38.140625 42.390625 41.71875 45.5625 
Q 45.3125 48.734375 45.3125 54.390625 
Q 45.3125 60.0625 41.71875 63.234375 
Q 38.140625 66.40625 31.78125 66.40625 
Q 25.390625 66.40625 21.84375 63.234375 
Q 18.3125 60.0625 18.3125 54.390625 
z
" id="DejaVuSans-56"/>
       </defs>
       <use xlink:href="#DejaVuSans-56"/>
       <use x="63.623047" xlink:href="#DejaVuSans-48"/>
       <use x="127.246094" xlink:href="#DejaVuSans-48"/>
      </g>
     </g>
    </g>
    <g id="text_6">
     <!-- $z(\AA)$ -->
     <g transform="translate(378.325 767.967969)scale(0.25 -0.25)">
      <defs>
       <path d="M 11.625 54.6875 
L 54.296875 54.6875 
L 52.6875 46.484375 
L 11.53125 7.171875 
L 45.515625 7.171875 
L 44.09375 0 
L -0.296875 0 
L 1.3125 8.203125 
L 42.484375 47.515625 
L 10.203125 47.515625 
z
" id="DejaVuSans-Oblique-122"/>
       <path d="M 31 75.875 
Q 24.46875 64.65625 21.28125 53.65625 
Q 18.109375 42.671875 18.109375 31.390625 
Q 18.109375 20.125 21.3125 9.0625 
Q 24.515625 -2 31 -13.1875 
L 23.1875 -13.1875 
Q 15.875 -1.703125 12.234375 9.375 
Q 8.59375 20.453125 8.59375 31.390625 
Q 8.59375 42.28125 12.203125 53.3125 
Q 15.828125 64.359375 23.1875 75.875 
z
" id="DejaVuSans-40"/>
       <path d="M 49.8125 79.390625 
Q 49.8125 82.46875 47.625 84.640625 
Q 45.453125 86.8125 42.390625 86.8125 
Q 39.265625 86.8125 37.140625 84.6875 
Q 35.015625 82.5625 35.015625 79.390625 
Q 35.015625 76.3125 37.140625 74.15625 
Q 39.265625 72.015625 42.390625 72.015625 
Q 45.453125 72.015625 47.625 74.15625 
Q 49.8125 76.3125 49.8125 79.390625 
z
M 34.421875 68.703125 
Q 31.78125 70.515625 30.390625 73.265625 
Q 29 76.03125 29 79.390625 
Q 29 84.96875 32.90625 88.890625 
Q 36.8125 92.828125 42.390625 92.828125 
Q 47.953125 92.828125 51.875 88.890625 
Q 55.8125 84.96875 55.8125 79.390625 
Q 55.8125 75.53125 54.03125 72.546875 
Q 52.25 69.578125 48.875 67.828125 
L 61.53125 0 
L 51.21875 0 
L 48.1875 18.703125 
L 15.375 18.703125 
L 5.078125 0 
L -5.328125 0 
z
M 40.375 63.1875 
L 19.921875 26.90625 
L 46.6875 26.90625 
z
" id="DejaVuSans-Oblique-197"/>
       <path d="M 8.015625 75.875 
L 15.828125 75.875 
Q 23.140625 64.359375 26.78125 53.3125 
Q 30.421875 42.28125 30.421875 31.390625 
Q 30.421875 20.453125 26.78125 9.375 
Q 23.140625 -1.703125 15.828125 -13.1875 
L 8.015625 -13.1875 
Q 14.5 -2 17.703125 9.0625 
Q 20.90625 20.125 20.90625 31.390625 
Q 20.90625 42.671875 17.703125 53.65625 
Q 14.5 64.65625 8.015625 75.875 
z
" id="DejaVuSans-41"/>
      </defs>
      <use transform="translate(0 0.171875)" xlink:href="#DejaVuSans-Oblique-122"/>
      <use transform="translate(52.490234 0.171875)" xlink:href="#DejaVuSans-40"/>
      <use transform="translate(91.503906 0.171875)" xlink:href="#DejaVuSans-Oblique-197"/>
      <use transform="translate(159.912109 0.171875)" xlink:href="#DejaVuSans-41"/>
     </g>
    </g>
   </g>
   <g id="matplotlib.axis_2">
    <g id="ytick_1">
     <g id="line2d_11">
      <path clip-path="url(#pa1776d67d8)" d="M 108 663.26281 
L 698.4 663.26281 
" style="fill:none;stroke:#e6e6e6;stroke-linecap:square;stroke-width:0.8;"/>
     </g>
     <g id="line2d_12">
      <defs>
       <path d="M 0 0 
L -3.5 0 
" id="m0c0fe4cde8" style="stroke:#000000;stroke-width:0.8;"/>
      </defs>
      <g>
       <use style="stroke:#000000;stroke-width:0.8;" x="108" xlink:href="#m0c0fe4cde8" y="663.26281"/>
      </g>
     </g>
     <g id="text_7">
      <!-- 0 -->
      <g transform="translate(91.45625 668.961638)scale(0.15 -0.15)">
       <use xlink:href="#DejaVuSans-48"/>
      </g>
     </g>
    </g>
    <g id="ytick_2">
     <g id="line2d_13">
      <path clip-path="url(#pa1776d67d8)" d="M 108 586.169824 
L 698.4 586.169824 
" style="fill:none;stroke:#e6e6e6;stroke-linecap:square;stroke-width:0.8;"/>
     </g>
     <g id="line2d_14">
      <g>
       <use style="stroke:#000000;stroke-width:0.8;" x="108" xlink:href="#m0c0fe4cde8" y="586.169824"/>
      </g>
     </g>
     <g id="text_8">
      <!-- 2 -->
      <g transform="translate(91.45625 591.868652)scale(0.15 -0.15)">
       <use xlink:href="#DejaVuSans-50"/>
      </g>
     </g>
    </g>
    <g id="ytick_3">
     <g id="line2d_15">
      <path clip-path="url(#pa1776d67d8)" d="M 108 509.076837 
L 698.4 509.076837 
" style="fill:none;stroke:#e6e6e6;stroke-linecap:square;stroke-width:0.8;"/>
     </g>
     <g id="line2d_16">
      <g>
       <use style="stroke:#000000;stroke-width:0.8;" x="108" xlink:href="#m0c0fe4cde8" y="509.076837"/>
      </g>
     </g>
     <g id="text_9">
      <!-- 4 -->
      <g transform="translate(91.45625 514.775665)scale(0.15 -0.15)">
       <use xlink:href="#DejaVuSans-52"/>
      </g>
     </g>
    </g>
    <g id="ytick_4">
     <g id="line2d_17">
      <path clip-path="url(#pa1776d67d8)" d="M 108 431.983851 
L 698.4 431.983851 
" style="fill:none;stroke:#e6e6e6;stroke-linecap:square;stroke-width:0.8;"/>
     </g>
     <g id="line2d_18">
      <g>
       <use style="stroke:#000000;stroke-width:0.8;" x="108" xlink:href="#m0c0fe4cde8" y="431.983851"/>
      </g>
     </g>
     <g id="text_10">
      <!-- 6 -->
      <g transform="translate(91.45625 437.682679)scale(0.15 -0.15)">
       <use xlink:href="#DejaVuSans-54"/>
      </g>
     </g>
    </g>
    <g id="ytick_5">
     <g id="line2d_19">
      <path clip-path="url(#pa1776d67d8)" d="M 108 354.890865 
L 698.4 354.890865 
" style="fill:none;stroke:#e6e6e6;stroke-linecap:square;stroke-width:0.8;"/>
     </g>
     <g id="line2d_20">
      <g>
       <use style="stroke:#000000;stroke-width:0.8;" x="108" xlink:href="#m0c0fe4cde8" y="354.890865"/>
      </g>
     </g>
     <g id="text_11">
      <!-- 8 -->
      <g transform="translate(91.45625 360.589693)scale(0.15 -0.15)">
       <use xlink:href="#DejaVuSans-56"/>
      </g>
     </g>
    </g>
    <g id="ytick_6">
     <g id="line2d_21">
      <path clip-path="url(#pa1776d67d8)" d="M 108 277.797878 
L 698.4 277.797878 
" style="fill:none;stroke:#e6e6e6;stroke-linecap:square;stroke-width:0.8;"/>
     </g>
     <g id="line2d_22">
      <g>
       <use style="stroke:#000000;stroke-width:0.8;" x="108" xlink:href="#m0c0fe4cde8" y="277.797878"/>
      </g>
     </g>
     <g id="text_12">
      <!-- 10 -->
      <g transform="translate(81.9125 283.496707)scale(0.15 -0.15)">
       <defs>
        <path d="M 12.40625 8.296875 
L 28.515625 8.296875 
L 28.515625 63.921875 
L 10.984375 60.40625 
L 10.984375 69.390625 
L 28.421875 72.90625 
L 38.28125 72.90625 
L 38.28125 8.296875 
L 54.390625 8.296875 
L 54.390625 0 
L 12.40625 0 
z
" id="DejaVuSans-49"/>
       </defs>
       <use xlink:href="#DejaVuSans-49"/>
       <use x="63.623047" xlink:href="#DejaVuSans-48"/>
      </g>
     </g>
    </g>
    <g id="ytick_7">
     <g id="line2d_23">
      <path clip-path="url(#pa1776d67d8)" d="M 108 200.704892 
L 698.4 200.704892 
" style="fill:none;stroke:#e6e6e6;stroke-linecap:square;stroke-width:0.8;"/>
     </g>
     <g id="line2d_24">
      <g>
       <use style="stroke:#000000;stroke-width:0.8;" x="108" xlink:href="#m0c0fe4cde8" y="200.704892"/>
      </g>
     </g>
     <g id="text_13">
      <!-- 12 -->
      <g transform="translate(81.9125 206.40372)scale(0.15 -0.15)">
       <use xlink:href="#DejaVuSans-49"/>
       <use x="63.623047" xlink:href="#DejaVuSans-50"/>
      </g>
     </g>
    </g>
    <g id="ytick_8">
     <g id="line2d_25">
      <path clip-path="url(#pa1776d67d8)" d="M 108 123.611906 
L 698.4 123.611906 
" style="fill:none;stroke:#e6e6e6;stroke-linecap:square;stroke-width:0.8;"/>
     </g>
     <g id="line2d_26">
      <g>
       <use style="stroke:#000000;stroke-width:0.8;" x="108" xlink:href="#m0c0fe4cde8" y="123.611906"/>
      </g>
     </g>
     <g id="text_14">
      <!-- 14 -->
      <g transform="translate(81.9125 129.310734)scale(0.15 -0.15)">
       <use xlink:href="#DejaVuSans-49"/>
       <use x="63.623047" xlink:href="#DejaVuSans-52"/>
      </g>
     </g>
    </g>
    <g id="text_15">
     <!-- $I_{int}$ -->
     <g transform="translate(72.713281 404.3)rotate(-90)scale(0.25 -0.25)">
      <defs>
       <path d="M 16.890625 72.90625 
L 26.8125 72.90625 
L 12.59375 0 
L 2.6875 0 
z
" id="DejaVuSans-Oblique-73"/>
       <path d="M 18.3125 75.984375 
L 27.296875 75.984375 
L 25.09375 64.59375 
L 16.109375 64.59375 
z
M 14.203125 54.6875 
L 23.1875 54.6875 
L 12.5 0 
L 3.515625 0 
z
" id="DejaVuSans-Oblique-105"/>
       <path d="M 55.71875 33.015625 
L 49.3125 0 
L 40.28125 0 
L 46.6875 32.671875 
Q 47.125 34.96875 47.359375 36.71875 
Q 47.609375 38.484375 47.609375 39.5 
Q 47.609375 43.609375 45.015625 45.890625 
Q 42.4375 48.1875 37.796875 48.1875 
Q 30.5625 48.1875 25.34375 43.375 
Q 20.125 38.578125 18.5 30.328125 
L 12.5 0 
L 3.515625 0 
L 14.109375 54.6875 
L 23.09375 54.6875 
L 21.296875 46.09375 
Q 25.046875 50.828125 30.3125 53.40625 
Q 35.59375 56 41.40625 56 
Q 48.640625 56 52.609375 52.09375 
Q 56.59375 48.1875 56.59375 41.109375 
Q 56.59375 39.359375 56.375 37.359375 
Q 56.15625 35.359375 55.71875 33.015625 
z
" id="DejaVuSans-Oblique-110"/>
       <path d="M 42.28125 54.6875 
L 40.921875 47.703125 
L 23 47.703125 
L 17.1875 18.015625 
Q 16.890625 16.359375 16.75 15.234375 
Q 16.609375 14.109375 16.609375 13.484375 
Q 16.609375 10.359375 18.484375 8.9375 
Q 20.359375 7.515625 24.515625 7.515625 
L 33.59375 7.515625 
L 32.078125 0 
L 23.484375 0 
Q 15.484375 0 11.546875 3.125 
Q 7.625 6.25 7.625 12.59375 
Q 7.625 13.71875 7.765625 15.0625 
Q 7.90625 16.40625 8.203125 18.015625 
L 14.015625 47.703125 
L 6.390625 47.703125 
L 7.8125 54.6875 
L 15.28125 54.6875 
L 18.3125 70.21875 
L 27.296875 70.21875 
L 24.3125 54.6875 
z
" id="DejaVuSans-Oblique-116"/>
      </defs>
      <use transform="translate(0 0.09375)" xlink:href="#DejaVuSans-Oblique-73"/>
      <use transform="translate(29.492188 -16.3125)scale(0.7)" xlink:href="#DejaVuSans-Oblique-105"/>
      <use transform="translate(48.94043 -16.3125)scale(0.7)" xlink:href="#DejaVuSans-Oblique-110"/>
      <use transform="translate(93.305664 -16.3125)scale(0.7)" xlink:href="#DejaVuSans-Oblique-116"/>
     </g>
    </g>
   </g>
   <g id="line2d_27">
    <path clip-path="url(#pa1776d67d8)" d="M 159.233058 663.26281 
L 161.678842 663.087086 
L 164.124626 662.569039 
L 166.570409 661.73377 
L 169.016193 660.616266 
L 171.461977 659.253456 
L 173.907761 657.676915 
L 176.353545 655.908408 
L 180.022221 652.91877 
L 183.690897 649.536385 
L 187.359572 645.782263 
L 191.028248 641.712245 
L 195.919816 635.944788 
L 203.257168 626.90836 
L 210.594519 617.524862 
L 246.058386 571.316954 
L 254.618629 560.607772 
L 272.962008 537.837457 
L 280.29936 528.455444 
L 286.41382 520.297139 
L 292.528279 511.749537 
L 298.642739 502.823419 
L 304.757199 493.469694 
L 310.871658 483.626841 
L 318.20901 471.311144 
L 345.112633 425.68213 
L 352.449984 414.019446 
L 370.793364 385.494194 
L 386.690959 360.813484 
L 396.474094 345.066871 
L 424.600609 299.530554 
L 433.160853 286.38228 
L 440.498204 275.525431 
L 446.612664 266.84688 
L 452.727124 258.517885 
L 460.064475 248.927222 
L 466.178935 241.259381 
L 472.293395 233.908731 
L 478.407854 226.868368 
L 485.745206 218.792065 
L 491.859666 212.369247 
L 497.974125 206.233759 
L 505.311477 199.223906 
L 512.648829 192.546082 
L 521.209072 185.099343 
L 529.769316 177.940918 
L 537.106667 172.058968 
L 543.221127 167.403308 
L 549.335587 162.997771 
L 555.450047 158.837854 
L 561.564506 154.930242 
L 567.678966 151.293317 
L 573.793426 147.918783 
L 581.130777 144.144957 
L 590.913913 139.410148 
L 604.365724 133.18255 
L 626.377779 123.265221 
L 639.829591 117.431007 
L 647.166942 114.33719 
L 647.166942 114.33719 
" style="fill:none;stroke:#e2514a;stroke-linecap:square;stroke-width:2;"/>
   </g>
   <g id="line2d_28">
    <path clip-path="url(#pa1776d67d8)" d="M 159.233058 663.26281 
L 160.45595 663.133825 
L 161.678842 662.74871 
L 162.901734 662.112922 
L 164.124626 661.235341 
L 165.347518 660.127964 
L 166.570409 658.805491 
L 167.793301 657.284846 
L 170.239085 653.72454 
L 172.684869 649.605732 
L 176.353545 642.724477 
L 182.468005 630.458074 
L 188.582464 618.27486 
L 193.474032 608.931369 
L 199.588492 597.802168 
L 205.702952 587.160546 
L 213.040303 574.836653 
L 219.154763 564.977287 
L 224.046331 557.474853 
L 230.16079 548.583193 
L 248.50417 522.784498 
L 253.395737 516.134736 
L 258.287305 509.883887 
L 261.955981 505.523035 
L 265.624657 501.45461 
L 269.293333 497.666266 
L 272.962008 494.136476 
L 276.630684 490.84431 
L 280.29936 487.776763 
L 283.968036 484.933397 
L 287.636712 482.326743 
L 291.305387 479.976381 
L 294.974063 477.896764 
L 298.642739 476.08297 
L 302.311415 474.501598 
L 307.202983 472.649645 
L 316.986118 469.273675 
L 323.100578 467.28932 
L 326.769254 466.267574 
L 330.43793 465.48326 
L 332.883713 465.13509 
L 335.329497 464.949453 
L 337.775281 464.937346 
L 340.221065 465.100704 
L 342.666849 465.432059 
L 346.335525 466.206805 
L 350.004201 467.240953 
L 354.895768 468.864272 
L 363.456012 471.966831 
L 369.570472 474.378044 
L 374.462039 476.562612 
L 379.353607 479.031534 
L 385.468067 482.408816 
L 392.805419 486.440884 
L 397.696986 488.832013 
L 401.365662 490.391746 
L 405.034338 491.74518 
L 409.925906 493.271569 
L 414.817473 494.56342 
L 420.931933 495.957656 
L 427.046393 497.118212 
L 431.937961 497.811496 
L 436.829528 498.236035 
L 441.721096 498.383698 
L 446.612664 498.302918 
L 453.950016 497.931191 
L 464.956043 497.141102 
L 469.847611 496.627409 
L 474.739179 495.874033 
L 478.407854 495.084838 
L 482.07653 494.06491 
L 485.745206 492.796632 
L 489.413882 491.27726 
L 493.082558 489.513895 
L 496.751233 487.517262 
L 500.419909 485.296903 
L 504.088585 482.858956 
L 507.757261 480.206127 
L 511.425937 477.338622 
L 515.094613 474.255151 
L 519.98618 469.805063 
L 524.877748 464.968364 
L 529.769316 459.759018 
L 534.660884 454.212261 
L 540.775343 446.887526 
L 548.112695 437.66724 
L 555.450047 428.06196 
L 561.564506 419.709547 
L 566.456074 412.716608 
L 571.347642 405.38888 
L 577.462102 395.763729 
L 587.245237 379.755495 
L 594.582589 367.91995 
L 600.697048 358.493003 
L 606.811508 349.503819 
L 614.14886 339.165455 
L 622.709103 327.514746 
L 630.046455 317.895215 
L 636.160915 310.253954 
L 642.275374 302.981283 
L 647.166942 297.361257 
L 647.166942 297.361257 
" style="fill:none;stroke:#fca55d;stroke-linecap:square;stroke-width:2;"/>
   </g>
   <g id="line2d_29">
    <path clip-path="url(#pa1776d67d8)" d="M 159.233058 663.26281 
L 160.45595 663.161247 
L 161.678842 662.860285 
L 162.901734 662.370877 
L 164.124626 661.710524 
L 166.570409 659.972975 
L 169.016193 657.870734 
L 173.907761 653.47625 
L 176.353545 651.505237 
L 178.799329 649.762793 
L 182.468005 647.477831 
L 189.805356 643.041163 
L 200.811384 635.952477 
L 204.48006 634.032979 
L 210.594519 631.23834 
L 215.486087 628.940338 
L 228.937898 622.3388 
L 236.27525 619.235772 
L 246.058386 615.309324 
L 253.395737 612.688689 
L 258.287305 610.892711 
L 261.955981 609.36175 
L 266.847549 607.069613 
L 275.407792 603.01516 
L 282.745144 599.905485 
L 288.859604 597.225494 
L 303.534307 590.518917 
L 308.425875 588.646439 
L 313.317442 586.994495 
L 318.20901 585.552245 
L 324.32347 584.02034 
L 348.781309 578.487258 
L 358.564444 576.431075 
L 365.901796 574.598412 
L 375.684931 572.172841 
L 386.690959 569.763785 
L 396.474094 567.572692 
L 402.588554 565.948169 
L 408.703014 564.049294 
L 422.154825 559.771926 
L 440.498204 554.238865 
L 445.389772 553.155197 
L 458.841583 550.449684 
L 475.96207 546.326024 
L 484.522314 544.380173 
L 489.413882 543.499931 
L 494.30545 542.883139 
L 500.419909 542.369916 
L 508.980153 541.853937 
L 513.871721 541.751859 
L 519.98618 541.88194 
L 526.10064 542.013099 
L 530.992208 541.897458 
L 544.444019 541.293718 
L 566.456074 541.096685 
L 575.016318 540.708735 
L 582.353669 540.137575 
L 593.359697 539.268282 
L 611.703076 538.189883 
L 616.594644 538.180434 
L 622.709103 538.433399 
L 641.052482 539.56383 
L 647.166942 540.168758 
L 647.166942 540.168758 
" style="fill:none;stroke:#fee999;stroke-linecap:square;stroke-width:2;"/>
   </g>
   <g id="line2d_30">
    <path clip-path="url(#pa1776d67d8)" d="M 159.233058 663.26281 
L 161.678842 663.131866 
L 164.124626 662.757411 
L 167.793301 661.856454 
L 177.576437 659.116497 
L 182.468005 658.119509 
L 206.925844 653.792802 
L 219.154763 651.92673 
L 233.829466 649.598954 
L 246.058386 647.843935 
L 257.064413 646.572093 
L 264.401765 645.60712 
L 304.757199 639.735417 
L 315.763226 638.443236 
L 324.32347 637.651248 
L 336.552389 636.544345 
L 358.564444 634.294289 
L 372.016256 633.147533 
L 386.690959 631.995259 
L 408.703014 629.851527 
L 419.709041 628.4462 
L 430.715069 627.147389 
L 440.498204 626.208857 
L 451.504232 625.39483 
L 480.853638 623.423127 
L 494.30545 622.826667 
L 504.088585 622.641156 
L 519.98618 622.612262 
L 535.883776 622.531718 
L 579.907885 621.882572 
L 612.925968 620.819621 
L 626.377779 620.424474 
L 636.160915 620.351868 
L 647.166942 620.449336 
L 647.166942 620.449336 
" style="fill:none;stroke:#edf8a3;stroke-linecap:square;stroke-width:2;"/>
   </g>
   <g id="line2d_31">
    <path clip-path="url(#pa1776d67d8)" d="M 159.233058 663.26281 
L 161.678842 663.159824 
L 164.124626 662.864823 
L 167.793301 662.152064 
L 177.576437 659.981024 
L 182.468005 659.247023 
L 192.25114 658.171152 
L 219.154763 655.048726 
L 232.606574 653.104237 
L 242.38971 651.74595 
L 248.50417 651.095736 
L 268.070441 649.263157 
L 277.853576 647.896382 
L 299.865631 644.671216 
L 308.425875 643.877817 
L 330.43793 642.125557 
L 347.558417 640.902573 
L 364.678904 639.617814 
L 372.016256 639.294828 
L 380.576499 639.159603 
L 392.805419 638.993548 
L 400.14277 638.671238 
L 429.492177 637.065011 
L 442.943988 636.530445 
L 451.504232 636.43317 
L 471.070503 636.329944 
L 479.630746 636.012877 
L 494.30545 635.168244 
L 502.865693 634.548757 
L 510.203045 633.781032 
L 517.540396 632.776847 
L 530.992208 630.643771 
L 561.564506 625.824798 
L 570.12475 624.679879 
L 579.907885 623.601736 
L 589.691021 622.761666 
L 601.91994 621.974904 
L 634.938023 620.147526 
L 644.721158 619.792562 
L 647.166942 619.733079 
L 647.166942 619.733079 
" style="fill:none;stroke:#a2d9a4;stroke-linecap:square;stroke-width:2;"/>
   </g>
   <g id="line2d_32">
    <path clip-path="url(#pa1776d67d8)" d="M 159.233058 663.26281 
L 160.45595 663.133894 
L 161.678842 662.749817 
L 162.901734 662.118498 
L 164.124626 661.252837 
L 165.347518 660.170283 
L 166.570409 658.892263 
L 169.016193 655.851229 
L 171.461977 652.353026 
L 178.799329 641.437251 
L 181.245113 638.32425 
L 183.690897 635.714175 
L 184.913789 634.625195 
L 186.136681 633.690211 
L 187.359572 632.914045 
L 188.582464 632.299604 
L 189.805356 631.848022 
L 191.028248 631.558772 
L 192.25114 631.429762 
L 193.474032 631.457389 
L 194.696924 631.636591 
L 195.919816 631.960872 
L 197.142708 632.422337 
L 199.588492 633.718549 
L 202.034276 635.43641 
L 204.48006 637.470433 
L 208.148735 640.858901 
L 213.040303 645.396076 
L 215.486087 647.444036 
L 217.931871 649.242939 
L 220.377655 650.743683 
L 222.823439 651.918419 
L 225.269223 652.757933 
L 227.715007 653.268411 
L 230.16079 653.468442 
L 232.606574 653.386701 
L 235.052358 653.060227 
L 237.498142 652.53289 
L 241.166818 651.472718 
L 254.618629 647.180832 
L 258.287305 646.320604 
L 263.178873 645.418796 
L 269.293333 644.555531 
L 280.29936 643.287284 
L 286.41382 642.725718 
L 290.082495 642.552215 
L 293.751171 642.605753 
L 296.196955 642.809757 
L 298.642739 643.169891 
L 301.088523 643.693744 
L 304.757199 644.773048 
L 308.425875 646.138507 
L 319.431902 650.532229 
L 321.877686 651.248005 
L 324.32347 651.772444 
L 326.769254 652.077175 
L 329.215038 652.146963 
L 331.660821 651.981159 
L 334.106605 651.59399 
L 336.552389 651.013523 
L 340.221065 649.869277 
L 351.227093 646.029528 
L 354.895768 645.109779 
L 357.341552 644.677405 
L 359.787336 644.398356 
L 363.456012 644.255938 
L 367.124688 644.396145 
L 372.016256 644.871191 
L 381.799391 645.949931 
L 387.913851 646.353936 
L 397.696986 646.936567 
L 402.588554 647.452484 
L 409.925906 648.504208 
L 416.040365 649.335988 
L 419.709041 649.661231 
L 423.377717 649.784932 
L 427.046393 649.682755 
L 430.715069 649.367302 
L 435.606636 648.701601 
L 446.612664 647.065621 
L 451.504232 646.633441 
L 456.395799 646.465948 
L 462.510259 646.547164 
L 474.739179 646.844278 
L 483.299422 646.711245 
L 489.413882 646.664666 
L 494.30545 646.84772 
L 499.197017 647.289951 
L 505.311477 648.135013 
L 515.094613 649.557021 
L 519.98618 649.988246 
L 523.654856 650.103834 
L 527.323532 650.025501 
L 530.992208 649.761705 
L 535.883776 649.165984 
L 541.998235 648.155604 
L 551.781371 646.470774 
L 555.450047 646.020114 
L 559.118722 645.766088 
L 562.787398 645.748401 
L 566.456074 645.974555 
L 570.12475 646.416618 
L 575.016318 647.240027 
L 584.799453 649.006753 
L 588.468129 649.485965 
L 592.136805 649.776929 
L 595.805481 649.850583 
L 599.474156 649.707182 
L 604.365724 649.242217 
L 616.594644 647.830403 
L 620.263319 647.646776 
L 623.931995 647.637264 
L 628.823563 647.857279 
L 643.498266 648.762106 
L 647.166942 648.757538 
L 647.166942 648.757538 
" style="fill:none;stroke:#47a0b3;stroke-linecap:square;stroke-width:2;"/>
   </g>
   <g id="line2d_33">
    <path clip-path="url(#pa1776d67d8)" d="M 159.233058 663.26281 
L 162.901734 663.145053 
L 167.793301 662.702247 
L 176.353545 661.828186 
L 182.468005 661.47938 
L 200.811384 660.845405 
L 209.371627 660.823422 
L 235.052358 661.02824 
L 269.293333 661.58959 
L 304.757199 661.981864 
L 316.986118 661.921855 
L 354.895768 661.519253 
L 429.492177 661.657431 
L 460.064475 661.890783 
L 534.660884 661.548455 
L 556.672939 661.552851 
L 620.263319 661.7152 
L 637.383807 661.818305 
L 647.166942 661.786583 
L 647.166942 661.786583 
" style="fill:none;stroke:#5e4fa2;stroke-linecap:square;stroke-width:2;"/>
   </g>
   <g id="patch_3">
    <path d="M 108 720.9 
L 108 56.7 
" style="fill:none;stroke:#000000;stroke-linecap:square;stroke-linejoin:miter;stroke-width:0.8;"/>
   </g>
   <g id="patch_4">
    <path d="M 698.4 720.9 
L 698.4 56.7 
" style="fill:none;stroke:#000000;stroke-linecap:square;stroke-linejoin:miter;stroke-width:0.8;"/>
   </g>
   <g id="patch_5">
    <path d="M 108 720.9 
L 698.4 720.9 
" style="fill:none;stroke:#000000;stroke-linecap:square;stroke-linejoin:miter;stroke-width:0.8;"/>
   </g>
   <g id="patch_6">
    <path d="M 108 56.7 
L 698.4 56.7 
" style="fill:none;stroke:#000000;stroke-linecap:square;stroke-linejoin:miter;stroke-width:0.8;"/>
   </g>
   <g id="legend_1">
    <g id="patch_7">
     <path d="M 122 278.19375 
L 279.6375 278.19375 
Q 283.6375 278.19375 283.6375 274.19375 
L 283.6375 70.7 
Q 283.6375 66.7 279.6375 66.7 
L 122 66.7 
Q 118 66.7 118 70.7 
L 118 274.19375 
Q 118 278.19375 122 278.19375 
z
" style="fill:#ffffff;opacity:0.8;stroke:#cccccc;stroke-linejoin:miter;"/>
    </g>
    <g id="line2d_34">
     <path d="M 126 82.896875 
L 166 82.896875 
" style="fill:none;stroke:#e2514a;stroke-linecap:square;stroke-width:2;"/>
    </g>
    <g id="line2d_35"/>
    <g id="text_16">
     <!-- (-8, -2, 2) -->
     <g transform="translate(182 89.896875)scale(0.2 -0.2)">
      <defs>
       <path d="M 4.890625 31.390625 
L 31.203125 31.390625 
L 31.203125 23.390625 
L 4.890625 23.390625 
z
" id="DejaVuSans-45"/>
       <path d="M 11.71875 12.40625 
L 22.015625 12.40625 
L 22.015625 4 
L 14.015625 -11.625 
L 7.71875 -11.625 
L 11.71875 4 
z
" id="DejaVuSans-44"/>
       <path id="DejaVuSans-32"/>
      </defs>
      <use xlink:href="#DejaVuSans-40"/>
      <use x="39.013672" xlink:href="#DejaVuSans-45"/>
      <use x="75.097656" xlink:href="#DejaVuSans-56"/>
      <use x="138.720703" xlink:href="#DejaVuSans-44"/>
      <use x="170.507812" xlink:href="#DejaVuSans-32"/>
      <use x="202.294922" xlink:href="#DejaVuSans-45"/>
      <use x="238.378906" xlink:href="#DejaVuSans-50"/>
      <use x="302.001953" xlink:href="#DejaVuSans-44"/>
      <use x="333.789062" xlink:href="#DejaVuSans-32"/>
      <use x="365.576172" xlink:href="#DejaVuSans-50"/>
      <use x="429.199219" xlink:href="#DejaVuSans-41"/>
     </g>
    </g>
    <g id="line2d_36">
     <path d="M 126 112.253125 
L 166 112.253125 
" style="fill:none;stroke:#fca55d;stroke-linecap:square;stroke-width:2;"/>
    </g>
    <g id="line2d_37"/>
    <g id="text_17">
     <!-- (-5, 1, 1) -->
     <g transform="translate(182 119.253125)scale(0.2 -0.2)">
      <defs>
       <path d="M 10.796875 72.90625 
L 49.515625 72.90625 
L 49.515625 64.59375 
L 19.828125 64.59375 
L 19.828125 46.734375 
Q 21.96875 47.46875 24.109375 47.828125 
Q 26.265625 48.1875 28.421875 48.1875 
Q 40.625 48.1875 47.75 41.5 
Q 54.890625 34.8125 54.890625 23.390625 
Q 54.890625 11.625 47.5625 5.09375 
Q 40.234375 -1.421875 26.90625 -1.421875 
Q 22.3125 -1.421875 17.546875 -0.640625 
Q 12.796875 0.140625 7.71875 1.703125 
L 7.71875 11.625 
Q 12.109375 9.234375 16.796875 8.0625 
Q 21.484375 6.890625 26.703125 6.890625 
Q 35.15625 6.890625 40.078125 11.328125 
Q 45.015625 15.765625 45.015625 23.390625 
Q 45.015625 31 40.078125 35.4375 
Q 35.15625 39.890625 26.703125 39.890625 
Q 22.75 39.890625 18.8125 39.015625 
Q 14.890625 38.140625 10.796875 36.28125 
z
" id="DejaVuSans-53"/>
      </defs>
      <use xlink:href="#DejaVuSans-40"/>
      <use x="39.013672" xlink:href="#DejaVuSans-45"/>
      <use x="75.097656" xlink:href="#DejaVuSans-53"/>
      <use x="138.720703" xlink:href="#DejaVuSans-44"/>
      <use x="170.507812" xlink:href="#DejaVuSans-32"/>
      <use x="202.294922" xlink:href="#DejaVuSans-49"/>
      <use x="265.917969" xlink:href="#DejaVuSans-44"/>
      <use x="297.705078" xlink:href="#DejaVuSans-32"/>
      <use x="329.492188" xlink:href="#DejaVuSans-49"/>
      <use x="393.115234" xlink:href="#DejaVuSans-41"/>
     </g>
    </g>
    <g id="line2d_38">
     <path d="M 126 141.609375 
L 166 141.609375 
" style="fill:none;stroke:#fee999;stroke-linecap:square;stroke-width:2;"/>
    </g>
    <g id="line2d_39"/>
    <g id="text_18">
     <!-- (-2, 6, 0) -->
     <g transform="translate(182 148.609375)scale(0.2 -0.2)">
      <use xlink:href="#DejaVuSans-40"/>
      <use x="39.013672" xlink:href="#DejaVuSans-45"/>
      <use x="75.097656" xlink:href="#DejaVuSans-50"/>
      <use x="138.720703" xlink:href="#DejaVuSans-44"/>
      <use x="170.507812" xlink:href="#DejaVuSans-32"/>
      <use x="202.294922" xlink:href="#DejaVuSans-54"/>
      <use x="265.917969" xlink:href="#DejaVuSans-44"/>
      <use x="297.705078" xlink:href="#DejaVuSans-32"/>
      <use x="329.492188" xlink:href="#DejaVuSans-48"/>
      <use x="393.115234" xlink:href="#DejaVuSans-41"/>
     </g>
    </g>
    <g id="line2d_40">
     <path d="M 126 170.965625 
L 166 170.965625 
" style="fill:none;stroke:#edf8a3;stroke-linecap:square;stroke-width:2;"/>
    </g>
    <g id="line2d_41"/>
    <g id="text_19">
     <!-- (-1, -7, 1) -->
     <g transform="translate(182 177.965625)scale(0.2 -0.2)">
      <defs>
       <path d="M 8.203125 72.90625 
L 55.078125 72.90625 
L 55.078125 68.703125 
L 28.609375 0 
L 18.3125 0 
L 43.21875 64.59375 
L 8.203125 64.59375 
z
" id="DejaVuSans-55"/>
      </defs>
      <use xlink:href="#DejaVuSans-40"/>
      <use x="39.013672" xlink:href="#DejaVuSans-45"/>
      <use x="75.097656" xlink:href="#DejaVuSans-49"/>
      <use x="138.720703" xlink:href="#DejaVuSans-44"/>
      <use x="170.507812" xlink:href="#DejaVuSans-32"/>
      <use x="202.294922" xlink:href="#DejaVuSans-45"/>
      <use x="238.378906" xlink:href="#DejaVuSans-55"/>
      <use x="302.001953" xlink:href="#DejaVuSans-44"/>
      <use x="333.789062" xlink:href="#DejaVuSans-32"/>
      <use x="365.576172" xlink:href="#DejaVuSans-49"/>
      <use x="429.199219" xlink:href="#DejaVuSans-41"/>
     </g>
    </g>
    <g id="line2d_42">
     <path d="M 126 200.321875 
L 166 200.321875 
" style="fill:none;stroke:#a2d9a4;stroke-linecap:square;stroke-width:2;"/>
    </g>
    <g id="line2d_43"/>
    <g id="text_20">
     <!-- (3, 7, -1) -->
     <g transform="translate(182 207.321875)scale(0.2 -0.2)">
      <defs>
       <path d="M 40.578125 39.3125 
Q 47.65625 37.796875 51.625 33 
Q 55.609375 28.21875 55.609375 21.1875 
Q 55.609375 10.40625 48.1875 4.484375 
Q 40.765625 -1.421875 27.09375 -1.421875 
Q 22.515625 -1.421875 17.65625 -0.515625 
Q 12.796875 0.390625 7.625 2.203125 
L 7.625 11.71875 
Q 11.71875 9.328125 16.59375 8.109375 
Q 21.484375 6.890625 26.8125 6.890625 
Q 36.078125 6.890625 40.9375 10.546875 
Q 45.796875 14.203125 45.796875 21.1875 
Q 45.796875 27.640625 41.28125 31.265625 
Q 36.765625 34.90625 28.71875 34.90625 
L 20.21875 34.90625 
L 20.21875 43.015625 
L 29.109375 43.015625 
Q 36.375 43.015625 40.234375 45.921875 
Q 44.09375 48.828125 44.09375 54.296875 
Q 44.09375 59.90625 40.109375 62.90625 
Q 36.140625 65.921875 28.71875 65.921875 
Q 24.65625 65.921875 20.015625 65.03125 
Q 15.375 64.15625 9.8125 62.3125 
L 9.8125 71.09375 
Q 15.4375 72.65625 20.34375 73.4375 
Q 25.25 74.21875 29.59375 74.21875 
Q 40.828125 74.21875 47.359375 69.109375 
Q 53.90625 64.015625 53.90625 55.328125 
Q 53.90625 49.265625 50.4375 45.09375 
Q 46.96875 40.921875 40.578125 39.3125 
z
" id="DejaVuSans-51"/>
      </defs>
      <use xlink:href="#DejaVuSans-40"/>
      <use x="39.013672" xlink:href="#DejaVuSans-51"/>
      <use x="102.636719" xlink:href="#DejaVuSans-44"/>
      <use x="134.423828" xlink:href="#DejaVuSans-32"/>
      <use x="166.210938" xlink:href="#DejaVuSans-55"/>
      <use x="229.833984" xlink:href="#DejaVuSans-44"/>
      <use x="261.621094" xlink:href="#DejaVuSans-32"/>
      <use x="293.408203" xlink:href="#DejaVuSans-45"/>
      <use x="329.492188" xlink:href="#DejaVuSans-49"/>
      <use x="393.115234" xlink:href="#DejaVuSans-41"/>
     </g>
    </g>
    <g id="line2d_44">
     <path d="M 126 229.678125 
L 166 229.678125 
" style="fill:none;stroke:#47a0b3;stroke-linecap:square;stroke-width:2;"/>
    </g>
    <g id="line2d_45"/>
    <g id="text_21">
     <!-- (5, 1, -1) -->
     <g transform="translate(182 236.678125)scale(0.2 -0.2)">
      <use xlink:href="#DejaVuSans-40"/>
      <use x="39.013672" xlink:href="#DejaVuSans-53"/>
      <use x="102.636719" xlink:href="#DejaVuSans-44"/>
      <use x="134.423828" xlink:href="#DejaVuSans-32"/>
      <use x="166.210938" xlink:href="#DejaVuSans-49"/>
      <use x="229.833984" xlink:href="#DejaVuSans-44"/>
      <use x="261.621094" xlink:href="#DejaVuSans-32"/>
      <use x="293.408203" xlink:href="#DejaVuSans-45"/>
      <use x="329.492188" xlink:href="#DejaVuSans-49"/>
      <use x="393.115234" xlink:href="#DejaVuSans-41"/>
     </g>
    </g>
    <g id="line2d_46">
     <path d="M 126 259.034375 
L 166 259.034375 
" style="fill:none;stroke:#5e4fa2;stroke-linecap:square;stroke-width:2;"/>
    </g>
    <g id="line2d_47"/>
    <g id="text_22">
     <!-- (7, -3, -1) -->
     <g transform="translate(182 266.034375)scale(0.2 -0.2)">
      <use xlink:href="#DejaVuSans-40"/>
      <use x="39.013672" xlink:href="#DejaVuSans-55"/>
      <use x="102.636719" xlink:href="#DejaVuSans-44"/>
      <use x="134.423828" xlink:href="#DejaVuSans-32"/>
      <use x="166.210938" xlink:href="#DejaVuSans-45"/>
      <use x="202.294922" xlink:href="#DejaVuSans-51"/>
      <use x="265.917969" xlink:href="#DejaVuSans-44"/>
      <use x="297.705078" xlink:href="#DejaVuSans-32"/>
      <use x="329.492188" xlink:href="#DejaVuSans-45"/>
      <use x="365.576172" xlink:href="#DejaVuSans-49"/>
      <use x="429.199219" xlink:href="#DejaVuSans-41"/>
     </g>
    </g>
   </g>
  </g>
 </g>
 <defs>
  <clipPath id="pa1776d67d8">
   <rect height="664.2" width="590.4" x="108" y="56.7"/>
  </clipPath>
 </defs>
</svg>
