<?xml version="1.0" encoding="utf-8" standalone="no"?>
<!DOCTYPE svg PUBLIC "-//W3C//DTD SVG 1.1//EN"
  "http://www.w3.org/Graphics/SVG/1.1/DTD/svg11.dtd">
<!-- Created with matplotlib (https://matplotlib.org/) -->
<svg height="810pt" version="1.1" viewBox="0 0 720 810" width="720pt" xmlns="http://www.w3.org/2000/svg" xmlns:xlink="http://www.w3.org/1999/xlink">
 <metadata>
  <rdf:RDF xmlns:cc="http://creativecommons.org/ns#" xmlns:dc="http://purl.org/dc/elements/1.1/" xmlns:rdf="http://www.w3.org/1999/02/22-rdf-syntax-ns#">
   <cc:Work>
    <dc:type rdf:resource="http://purl.org/dc/dcmitype/StillImage"/>
    <dc:date>2021-07-08T13:04:07.727847</dc:date>
    <dc:format>image/svg+xml</dc:format>
    <dc:creator>
     <cc:Agent>
      <dc:title>Matplotlib v3.3.1, https://matplotlib.org/</dc:title>
     </cc:Agent>
    </dc:creator>
   </cc:Work>
  </rdf:RDF>
 </metadata>
 <defs>
  <style type="text/css">*{stroke-linecap:butt;stroke-linejoin:round;}</style>
 </defs>
 <g id="figure_1">
  <g id="patch_1">
   <path d="M 0 810 
L 720 810 
L 720 0 
L 0 0 
z
" style="fill:#ffffff;"/>
  </g>
  <g id="axes_1">
   <g id="patch_2">
    <path d="M 108 720.9 
L 698.4 720.9 
L 698.4 56.7 
L 108 56.7 
z
" style="fill:#ffffff;"/>
   </g>
   <g id="matplotlib.axis_1">
    <g id="xtick_1">
     <g id="line2d_1">
      <defs>
       <path d="M 0 0 
L 0 3.5 
" id="m5aa3ad2e0c" style="stroke:#000000;stroke-width:0.8;"/>
      </defs>
      <g>
       <use style="stroke:#000000;stroke-width:0.8;" x="167.04" xlink:href="#m5aa3ad2e0c" y="720.9"/>
      </g>
     </g>
     <g id="text_1">
      <!-- −2 -->
      <g transform="translate(155.983359 739.297656)scale(0.15 -0.15)">
       <defs>
        <path d="M 10.59375 35.5 
L 73.1875 35.5 
L 73.1875 27.203125 
L 10.59375 27.203125 
z
" id="DejaVuSans-8722"/>
        <path d="M 19.1875 8.296875 
L 53.609375 8.296875 
L 53.609375 0 
L 7.328125 0 
L 7.328125 8.296875 
Q 12.9375 14.109375 22.625 23.890625 
Q 32.328125 33.6875 34.8125 36.53125 
Q 39.546875 41.84375 41.421875 45.53125 
Q 43.3125 49.21875 43.3125 52.78125 
Q 43.3125 58.59375 39.234375 62.25 
Q 35.15625 65.921875 28.609375 65.921875 
Q 23.96875 65.921875 18.8125 64.3125 
Q 13.671875 62.703125 7.8125 59.421875 
L 7.8125 69.390625 
Q 13.765625 71.78125 18.9375 73 
Q 24.125 74.21875 28.421875 74.21875 
Q 39.75 74.21875 46.484375 68.546875 
Q 53.21875 62.890625 53.21875 53.421875 
Q 53.21875 48.921875 51.53125 44.890625 
Q 49.859375 40.875 45.40625 35.40625 
Q 44.1875 33.984375 37.640625 27.21875 
Q 31.109375 20.453125 19.1875 8.296875 
z
" id="DejaVuSans-50"/>
       </defs>
       <use xlink:href="#DejaVuSans-8722"/>
       <use x="83.789062" xlink:href="#DejaVuSans-50"/>
      </g>
     </g>
    </g>
    <g id="xtick_2">
     <g id="line2d_2">
      <g>
       <use style="stroke:#000000;stroke-width:0.8;" x="285.12" xlink:href="#m5aa3ad2e0c" y="720.9"/>
      </g>
     </g>
     <g id="text_2">
      <!-- −1 -->
      <g transform="translate(274.063359 739.297656)scale(0.15 -0.15)">
       <defs>
        <path d="M 12.40625 8.296875 
L 28.515625 8.296875 
L 28.515625 63.921875 
L 10.984375 60.40625 
L 10.984375 69.390625 
L 28.421875 72.90625 
L 38.28125 72.90625 
L 38.28125 8.296875 
L 54.390625 8.296875 
L 54.390625 0 
L 12.40625 0 
z
" id="DejaVuSans-49"/>
       </defs>
       <use xlink:href="#DejaVuSans-8722"/>
       <use x="83.789062" xlink:href="#DejaVuSans-49"/>
      </g>
     </g>
    </g>
    <g id="xtick_3">
     <g id="line2d_3">
      <g>
       <use style="stroke:#000000;stroke-width:0.8;" x="403.2" xlink:href="#m5aa3ad2e0c" y="720.9"/>
      </g>
     </g>
     <g id="text_3">
      <!-- 0 -->
      <g transform="translate(398.428125 739.297656)scale(0.15 -0.15)">
       <defs>
        <path d="M 31.78125 66.40625 
Q 24.171875 66.40625 20.328125 58.90625 
Q 16.5 51.421875 16.5 36.375 
Q 16.5 21.390625 20.328125 13.890625 
Q 24.171875 6.390625 31.78125 6.390625 
Q 39.453125 6.390625 43.28125 13.890625 
Q 47.125 21.390625 47.125 36.375 
Q 47.125 51.421875 43.28125 58.90625 
Q 39.453125 66.40625 31.78125 66.40625 
z
M 31.78125 74.21875 
Q 44.046875 74.21875 50.515625 64.515625 
Q 56.984375 54.828125 56.984375 36.375 
Q 56.984375 17.96875 50.515625 8.265625 
Q 44.046875 -1.421875 31.78125 -1.421875 
Q 19.53125 -1.421875 13.0625 8.265625 
Q 6.59375 17.96875 6.59375 36.375 
Q 6.59375 54.828125 13.0625 64.515625 
Q 19.53125 74.21875 31.78125 74.21875 
z
" id="DejaVuSans-48"/>
       </defs>
       <use xlink:href="#DejaVuSans-48"/>
      </g>
     </g>
    </g>
    <g id="xtick_4">
     <g id="line2d_4">
      <g>
       <use style="stroke:#000000;stroke-width:0.8;" x="521.28" xlink:href="#m5aa3ad2e0c" y="720.9"/>
      </g>
     </g>
     <g id="text_4">
      <!-- 1 -->
      <g transform="translate(516.508125 739.297656)scale(0.15 -0.15)">
       <use xlink:href="#DejaVuSans-49"/>
      </g>
     </g>
    </g>
    <g id="xtick_5">
     <g id="line2d_5">
      <g>
       <use style="stroke:#000000;stroke-width:0.8;" x="639.36" xlink:href="#m5aa3ad2e0c" y="720.9"/>
      </g>
     </g>
     <g id="text_5">
      <!-- 2 -->
      <g transform="translate(634.588125 739.297656)scale(0.15 -0.15)">
       <use xlink:href="#DejaVuSans-50"/>
      </g>
     </g>
    </g>
    <g id="text_6">
     <!-- $q_x$ -->
     <g transform="translate(389.7 765.3625)scale(0.25 -0.25)">
      <defs>
       <path d="M 41.703125 8.203125 
Q 38.09375 3.46875 33.171875 1.015625 
Q 28.265625 -1.421875 22.3125 -1.421875 
Q 14.015625 -1.421875 9.296875 4.171875 
Q 4.59375 9.765625 4.59375 19.578125 
Q 4.59375 27.484375 7.5 34.859375 
Q 10.40625 42.234375 15.828125 48.09375 
Q 19.34375 51.90625 23.90625 53.953125 
Q 28.46875 56 33.5 56 
Q 39.546875 56 43.453125 53.609375 
Q 47.359375 51.21875 49.125 46.390625 
L 50.6875 54.59375 
L 59.71875 54.59375 
L 45.125 -20.609375 
L 36.078125 -20.609375 
z
M 13.921875 20.90625 
Q 13.921875 13.671875 16.9375 9.890625 
Q 19.96875 6.109375 25.6875 6.109375 
Q 34.1875 6.109375 40.1875 14.234375 
Q 46.1875 22.359375 46.1875 33.984375 
Q 46.1875 41.015625 43.078125 44.75 
Q 39.984375 48.484375 34.1875 48.484375 
Q 29.9375 48.484375 26.3125 46.5 
Q 22.703125 44.53125 20.015625 40.71875 
Q 17.1875 36.71875 15.546875 31.34375 
Q 13.921875 25.984375 13.921875 20.90625 
z
" id="DejaVuSans-Oblique-113"/>
       <path d="M 60.015625 54.6875 
L 34.90625 27.875 
L 50.296875 0 
L 39.984375 0 
L 28.421875 21.6875 
L 8.296875 0 
L -2.59375 0 
L 24.3125 28.8125 
L 10.015625 54.6875 
L 20.3125 54.6875 
L 30.8125 34.90625 
L 49.125 54.6875 
z
" id="DejaVuSans-Oblique-120"/>
      </defs>
      <use xlink:href="#DejaVuSans-Oblique-113"/>
      <use transform="translate(63.476562 -16.40625)scale(0.7)" xlink:href="#DejaVuSans-Oblique-120"/>
     </g>
    </g>
   </g>
   <g id="matplotlib.axis_2">
    <g id="ytick_1">
     <g id="line2d_6">
      <defs>
       <path d="M 0 0 
L -3.5 0 
" id="me4f7289384" style="stroke:#000000;stroke-width:0.8;"/>
      </defs>
      <g>
       <use style="stroke:#000000;stroke-width:0.8;" x="108" xlink:href="#me4f7289384" y="654.48"/>
      </g>
     </g>
     <g id="text_7">
      <!-- −2 -->
      <g transform="translate(78.886719 660.178828)scale(0.15 -0.15)">
       <use xlink:href="#DejaVuSans-8722"/>
       <use x="83.789062" xlink:href="#DejaVuSans-50"/>
      </g>
     </g>
    </g>
    <g id="ytick_2">
     <g id="line2d_7">
      <g>
       <use style="stroke:#000000;stroke-width:0.8;" x="108" xlink:href="#me4f7289384" y="521.64"/>
      </g>
     </g>
     <g id="text_8">
      <!-- −1 -->
      <g transform="translate(78.886719 527.338828)scale(0.15 -0.15)">
       <use xlink:href="#DejaVuSans-8722"/>
       <use x="83.789062" xlink:href="#DejaVuSans-49"/>
      </g>
     </g>
    </g>
    <g id="ytick_3">
     <g id="line2d_8">
      <g>
       <use style="stroke:#000000;stroke-width:0.8;" x="108" xlink:href="#me4f7289384" y="388.8"/>
      </g>
     </g>
     <g id="text_9">
      <!-- 0 -->
      <g transform="translate(91.45625 394.498828)scale(0.15 -0.15)">
       <use xlink:href="#DejaVuSans-48"/>
      </g>
     </g>
    </g>
    <g id="ytick_4">
     <g id="line2d_9">
      <g>
       <use style="stroke:#000000;stroke-width:0.8;" x="108" xlink:href="#me4f7289384" y="255.96"/>
      </g>
     </g>
     <g id="text_10">
      <!-- 1 -->
      <g transform="translate(91.45625 261.658828)scale(0.15 -0.15)">
       <use xlink:href="#DejaVuSans-49"/>
      </g>
     </g>
    </g>
    <g id="ytick_5">
     <g id="line2d_10">
      <g>
       <use style="stroke:#000000;stroke-width:0.8;" x="108" xlink:href="#me4f7289384" y="123.12"/>
      </g>
     </g>
     <g id="text_11">
      <!-- 2 -->
      <g transform="translate(91.45625 128.818828)scale(0.15 -0.15)">
       <use xlink:href="#DejaVuSans-50"/>
      </g>
     </g>
    </g>
    <g id="text_12">
     <!-- $q_y$ -->
     <g transform="translate(67.136719 402.3)rotate(-90)scale(0.25 -0.25)">
      <defs>
       <path d="M 24.8125 -5.078125 
Q 18.5625 -15.578125 14.625 -18.1875 
Q 10.6875 -20.796875 4.59375 -20.796875 
L -2.484375 -20.796875 
L -0.984375 -13.28125 
L 4.203125 -13.28125 
Q 7.953125 -13.28125 10.59375 -11.234375 
Q 13.234375 -9.1875 16.5 -3.21875 
L 19.28125 2 
L 7.171875 54.6875 
L 16.703125 54.6875 
L 25.78125 12.796875 
L 50.875 54.6875 
L 60.296875 54.6875 
z
" id="DejaVuSans-Oblique-121"/>
      </defs>
      <use xlink:href="#DejaVuSans-Oblique-113"/>
      <use transform="translate(63.476562 -16.40625)scale(0.7)" xlink:href="#DejaVuSans-Oblique-121"/>
     </g>
    </g>
   </g>
   <g id="PathCollection_1">
    <path clip-path="url(#p76a9ee9fdb)" d="M 201.749663 694.729571 
L 210.476471 680.184893 
L 201.749663 665.640214 
L 193.022856 680.184893 
z
" style="fill:#593093;stroke:#593093;"/>
    <path clip-path="url(#p76a9ee9fdb)" d="M 302.826112 606.914174 
L 302.826112 606.914174 
L 302.826112 606.914174 
L 302.826112 606.914174 
z
" style="fill:#fcfbfd;stroke:#fcfbfd;"/>
    <path clip-path="url(#p76a9ee9fdb)" d="M 435.565969 606.065184 
L 435.565969 606.065184 
L 435.565969 606.065184 
L 435.565969 606.065184 
z
" style="fill:#fcfbfd;stroke:#fcfbfd;"/>
    <path clip-path="url(#p76a9ee9fdb)" d="M 599.617954 605.216194 
L 599.617954 605.216194 
L 599.617954 605.216194 
L 599.617954 605.216194 
z
" style="fill:#fcfbfd;stroke:#fcfbfd;"/>
    <path clip-path="url(#p76a9ee9fdb)" d="M 435.390329 569.85432 
L 435.390329 569.85432 
L 435.390329 569.85432 
L 435.390329 569.85432 
z
" style="fill:#fcfbfd;stroke:#fcfbfd;"/>
    <path clip-path="url(#p76a9ee9fdb)" d="M 169.734975 535.341437 
L 169.734975 535.341437 
L 169.734975 535.341437 
L 169.734975 535.341437 
z
" style="fill:#fcfbfd;stroke:#fcfbfd;"/>
    <path clip-path="url(#p76a9ee9fdb)" d="M 169.559335 499.130573 
L 169.559335 499.130573 
L 169.559335 499.130573 
L 169.559335 499.130573 
z
" style="fill:#fcfbfd;stroke:#fcfbfd;"/>
    <path clip-path="url(#p76a9ee9fdb)" d="M 567.778906 511.609233 
L 576.794284 496.583602 
L 567.778906 481.557971 
L 558.763527 496.583602 
z
" style="fill:#4f1d8b;stroke:#4f1d8b;"/>
    <path clip-path="url(#p76a9ee9fdb)" d="M 403.37564 425.010864 
L 403.37564 425.010864 
L 403.37564 425.010864 
L 403.37564 425.010864 
z
" style="fill:#fcfbfd;stroke:#fcfbfd;"/>
    <path clip-path="url(#p76a9ee9fdb)" d="M 270.460143 389.64899 
L 270.460143 389.64899 
L 270.460143 389.64899 
L 270.460143 389.64899 
z
" style="fill:#fcfbfd;stroke:#fcfbfd;"/>
    <path clip-path="url(#p76a9ee9fdb)" d="M 403.2 388.8 
L 403.2 388.8 
L 403.2 388.8 
L 403.2 388.8 
z
" style="fill:#fcfbfd;stroke:#fcfbfd;"/>
    <path clip-path="url(#p76a9ee9fdb)" d="M 270.284503 353.438126 
L 270.284503 353.438126 
L 270.284503 353.438126 
L 270.284503 353.438126 
z
" style="fill:#fcfbfd;stroke:#fcfbfd;"/>
    <path clip-path="url(#p76a9ee9fdb)" d="M 403.02436 352.589136 
L 403.02436 352.589136 
L 403.02436 352.589136 
L 403.02436 352.589136 
z
" style="fill:#fcfbfd;stroke:#fcfbfd;"/>
    <path clip-path="url(#p76a9ee9fdb)" d="M 270.108863 317.227262 
L 270.108863 317.227262 
L 270.108863 317.227262 
L 270.108863 317.227262 
z
" style="fill:#fcfbfd;stroke:#fcfbfd;"/>
    <path clip-path="url(#p76a9ee9fdb)" d="M 402.84872 316.378272 
L 402.84872 316.378272 
L 402.84872 316.378272 
L 402.84872 316.378272 
z
" style="fill:#fcfbfd;stroke:#fcfbfd;"/>
    <path clip-path="url(#p76a9ee9fdb)" d="M 269.933223 281.016398 
L 269.933223 281.016398 
L 269.933223 281.016398 
L 269.933223 281.016398 
z
" style="fill:#fcfbfd;stroke:#fcfbfd;"/>
    <path clip-path="url(#p76a9ee9fdb)" d="M 269.757583 244.805534 
L 269.757583 244.805534 
L 269.757583 244.805534 
L 269.757583 244.805534 
z
" style="fill:#fcfbfd;stroke:#fcfbfd;"/>
    <path clip-path="url(#p76a9ee9fdb)" d="M 402.49744 259.767932 
L 411.984273 243.956544 
L 402.49744 228.145156 
L 393.010607 243.956544 
z
" style="fill:#3f007d;stroke:#3f007d;"/>
    <path clip-path="url(#p76a9ee9fdb)" d="M 269.581943 208.59467 
L 269.581943 208.59467 
L 269.581943 208.59467 
L 269.581943 208.59467 
z
" style="fill:#fcfbfd;stroke:#fcfbfd;"/>
    <path clip-path="url(#p76a9ee9fdb)" d="M 402.3218 207.74568 
L 402.3218 207.74568 
L 402.3218 207.74568 
L 402.3218 207.74568 
z
" style="fill:#fcfbfd;stroke:#fcfbfd;"/>
    <path clip-path="url(#p76a9ee9fdb)" d="M 269.406303 172.383806 
L 269.406303 172.383806 
L 269.406303 172.383806 
L 269.406303 172.383806 
z
" style="fill:#fcfbfd;stroke:#fcfbfd;"/>
    <path clip-path="url(#p76a9ee9fdb)" d="M 402.14616 171.534816 
L 402.14616 171.534816 
L 402.14616 171.534816 
L 402.14616 171.534816 
z
" style="fill:#fcfbfd;stroke:#fcfbfd;"/>
    <path clip-path="url(#p76a9ee9fdb)" d="M 269.230663 136.172942 
L 269.230663 136.172942 
L 269.230663 136.172942 
L 269.230663 136.172942 
z
" style="fill:#fcfbfd;stroke:#fcfbfd;"/>
    <path clip-path="url(#p76a9ee9fdb)" d="M 401.97052 135.323952 
L 401.97052 135.323952 
L 401.97052 135.323952 
L 401.97052 135.323952 
z
" style="fill:#fcfbfd;stroke:#fcfbfd;"/>
   </g>
   <g id="PathCollection_2">
    <path clip-path="url(#p76a9ee9fdb)" d="M 201.749663 690.848542 
C 204.577696 690.848542 207.290281 689.724953 209.290002 687.725231 
C 211.289723 685.72551 212.413313 683.012926 212.413313 680.184893 
C 212.413313 677.35686 211.289723 674.644275 209.290002 672.644554 
C 207.290281 670.644833 204.577696 669.521244 201.749663 669.521244 
C 198.921631 669.521244 196.209046 670.644833 194.209325 672.644554 
C 192.209604 674.644275 191.086014 677.35686 191.086014 680.184893 
C 191.086014 683.012926 192.209604 685.72551 194.209325 687.725231 
C 196.209046 689.724953 198.921631 690.848542 201.749663 690.848542 
z
" style="fill:#ad3803;stroke:#ad3803;"/>
    <path clip-path="url(#p76a9ee9fdb)" d="M 302.826112 614.269604 
C 304.776794 614.269604 306.647845 613.494589 308.027186 612.115248 
C 309.406526 610.735907 310.181541 608.864857 310.181541 606.914174 
C 310.181541 604.963492 309.406526 603.092442 308.027186 601.713101 
C 306.647845 600.33376 304.776794 599.558745 302.826112 599.558745 
C 300.875429 599.558745 299.004379 600.33376 297.625038 601.713101 
C 296.245697 603.092442 295.470682 604.963492 295.470682 606.914174 
C 295.470682 608.864857 296.245697 610.735907 297.625038 612.115248 
C 299.004379 613.494589 300.875429 614.269604 302.826112 614.269604 
z
" style="fill:#fee8d2;stroke:#fee8d2;"/>
    <path clip-path="url(#p76a9ee9fdb)" d="M 435.565969 613.170494 
C 437.450319 613.170494 439.257745 612.421834 440.590181 611.089397 
C 441.922618 609.75696 442.671278 607.949534 442.671278 606.065184 
C 442.671278 604.180834 441.922618 602.373408 440.590181 601.040972 
C 439.257745 599.708535 437.450319 598.959875 435.565969 598.959875 
C 433.681619 598.959875 431.874193 599.708535 430.541756 601.040972 
C 429.209319 602.373408 428.460659 604.180834 428.460659 606.065184 
C 428.460659 607.949534 429.209319 609.75696 430.541756 611.089397 
C 431.874193 612.421834 433.681619 613.170494 435.565969 613.170494 
z
" style="fill:#feeddc;stroke:#feeddc;"/>
    <path clip-path="url(#p76a9ee9fdb)" d="M 599.617954 612.399987 
C 601.523119 612.399987 603.350509 611.643057 604.697663 610.295903 
C 606.044818 608.948748 606.801747 607.121358 606.801747 605.216194 
C 606.801747 603.31103 606.044818 601.48364 604.697663 600.136485 
C 603.350509 598.789331 601.523119 598.032401 599.617954 598.032401 
C 597.71279 598.032401 595.8854 598.789331 594.538246 600.136485 
C 593.191091 601.48364 592.434162 603.31103 592.434162 605.216194 
C 592.434162 607.121358 593.191091 608.948748 594.538246 610.295903 
C 595.8854 611.643057 597.71279 612.399987 599.617954 612.399987 
z
" style="fill:#feecd9;stroke:#feecd9;"/>
    <path clip-path="url(#p76a9ee9fdb)" d="M 435.390329 577.126166 
C 437.318845 577.126166 439.168633 576.359958 440.5323 574.996291 
C 441.895967 573.632625 442.662174 571.782836 442.662174 569.85432 
C 442.662174 567.925804 441.895967 566.076016 440.5323 564.712349 
C 439.168633 563.348682 437.318845 562.582475 435.390329 562.582475 
C 433.461813 562.582475 431.612024 563.348682 430.248357 564.712349 
C 428.884691 566.076016 428.118483 567.925804 428.118483 569.85432 
C 428.118483 571.782836 428.884691 573.632625 430.248357 574.996291 
C 431.612024 576.359958 433.461813 577.126166 435.390329 577.126166 
z
" style="fill:#feead5;stroke:#feead5;"/>
    <path clip-path="url(#p76a9ee9fdb)" d="M 169.734975 542.903296 
C 171.740403 542.903296 173.663964 542.10653 175.082016 540.688478 
C 176.500069 539.270426 177.296834 537.346865 177.296834 535.341437 
C 177.296834 533.336008 176.500069 531.412447 175.082016 529.994395 
C 173.663964 528.576343 171.740403 527.779577 169.734975 527.779577 
C 167.729546 527.779577 165.805985 528.576343 164.387933 529.994395 
C 162.969881 531.412447 162.173116 533.336008 162.173116 535.341437 
C 162.173116 537.346865 162.969881 539.270426 164.387933 540.688478 
C 165.805985 542.10653 167.729546 542.903296 169.734975 542.903296 
z
" style="fill:#fee2c6;stroke:#fee2c6;"/>
    <path clip-path="url(#p76a9ee9fdb)" d="M 169.559335 506.358806 
C 171.476285 506.358806 173.314979 505.597194 174.670468 504.241706 
C 176.025956 502.886217 176.787569 501.047523 176.787569 499.130573 
C 176.787569 497.213622 176.025956 495.374928 174.670468 494.019439 
C 173.314979 492.663951 171.476285 491.902339 169.559335 491.902339 
C 167.642385 491.902339 165.80369 492.663951 164.448201 494.019439 
C 163.092713 495.374928 162.331101 497.213622 162.331101 499.130573 
C 162.331101 501.047523 163.092713 502.886217 164.448201 504.241706 
C 165.80369 505.597194 167.642385 506.358806 169.559335 506.358806 
z
" style="fill:#feebd7;stroke:#feebd7;"/>
    <path clip-path="url(#p76a9ee9fdb)" d="M 567.778906 507.763942 
C 570.743967 507.763942 573.587985 506.585911 575.6846 504.489296 
C 577.781215 502.392682 578.959246 499.548663 578.959246 496.583602 
C 578.959246 493.618541 577.781215 490.774522 575.6846 488.677908 
C 573.587985 486.581293 570.743967 485.403262 567.778906 485.403262 
C 564.813845 485.403262 561.969826 486.581293 559.873212 488.677908 
C 557.776597 490.774522 556.598566 493.618541 556.598566 496.583602 
C 556.598566 499.548663 557.776597 502.392682 559.873212 504.489296 
C 561.969826 506.585911 564.813845 507.763942 567.778906 507.763942 
z
" style="fill:#7f2704;stroke:#7f2704;"/>
    <path clip-path="url(#p76a9ee9fdb)" d="M 403.37564 432.31185 
C 405.311884 432.31185 407.169085 431.542572 408.538216 430.17344 
C 409.907348 428.804309 410.676625 426.947108 410.676625 425.010864 
C 410.676625 423.07462 409.907348 421.217419 408.538216 419.848288 
C 407.169085 418.479156 405.311884 417.709879 403.37564 417.709879 
C 401.439396 417.709879 399.582195 418.479156 398.213064 419.848288 
C 396.843932 421.217419 396.074655 423.07462 396.074655 425.010864 
C 396.074655 426.947108 396.843932 428.804309 398.213064 430.17344 
C 399.582195 431.542572 401.439396 432.31185 403.37564 432.31185 
z
" style="fill:#fee9d4;stroke:#fee9d4;"/>
    <path clip-path="url(#p76a9ee9fdb)" d="M 270.460143 397.208885 
C 272.465051 397.208885 274.388112 396.412327 275.805796 394.994643 
C 277.22348 393.576959 278.020038 391.653898 278.020038 389.64899 
C 278.020038 387.644083 277.22348 385.721021 275.805796 384.303337 
C 274.388112 382.885653 272.465051 382.089095 270.460143 382.089095 
C 268.455235 382.089095 266.532174 382.885653 265.11449 384.303337 
C 263.696806 385.721021 262.900248 387.644083 262.900248 389.64899 
C 262.900248 391.653898 263.696806 393.576959 265.11449 394.994643 
C 266.532174 396.412327 268.455235 397.208885 270.460143 397.208885 
z
" style="fill:#fee2c6;stroke:#fee2c6;"/>
    <path clip-path="url(#p76a9ee9fdb)" d="M 403.2 399.98034 
C 406.165061 399.98034 409.00908 398.802309 411.105694 396.705694 
C 413.202309 394.60908 414.38034 391.765061 414.38034 388.8 
C 414.38034 385.834939 413.202309 382.99092 411.105694 380.894306 
C 409.00908 378.797691 406.165061 377.61966 403.2 377.61966 
C 400.234939 377.61966 397.39092 378.797691 395.294306 380.894306 
C 393.197691 382.99092 392.01966 385.834939 392.01966 388.8 
C 392.01966 391.765061 393.197691 394.60908 395.294306 396.705694 
C 397.39092 398.802309 400.234939 399.98034 403.2 399.98034 
z
" style="fill:#7f2704;stroke:#7f2704;"/>
    <path clip-path="url(#p76a9ee9fdb)" d="M 270.284503 362.975353 
C 272.813805 362.975353 275.239854 361.97045 277.02834 360.181964 
C 278.816827 358.393477 279.821729 355.967428 279.821729 353.438126 
C 279.821729 350.908824 278.816827 348.482775 277.02834 346.694289 
C 275.239854 344.905802 272.813805 343.9009 270.284503 343.9009 
C 267.755201 343.9009 265.329152 344.905802 263.540665 346.694289 
C 261.752179 348.482775 260.747277 350.908824 260.747277 353.438126 
C 260.747277 355.967428 261.752179 358.393477 263.540665 360.181964 
C 265.329152 361.97045 267.755201 362.975353 270.284503 362.975353 
z
" style="fill:#f67824;stroke:#f67824;"/>
    <path clip-path="url(#p76a9ee9fdb)" d="M 403.02436 360.117652 
C 405.020946 360.117652 406.936026 359.3244 408.347825 357.912601 
C 409.759624 356.500802 410.552876 354.585722 410.552876 352.589136 
C 410.552876 350.59255 409.759624 348.67747 408.347825 347.265671 
C 406.936026 345.853872 405.020946 345.06062 403.02436 345.06062 
C 401.027774 345.06062 399.112694 345.853872 397.700895 347.265671 
C 396.289096 348.67747 395.495844 350.59255 395.495844 352.589136 
C 395.495844 354.585722 396.289096 356.500802 397.700895 357.912601 
C 399.112694 359.3244 401.027774 360.117652 403.02436 360.117652 
z
" style="fill:#fee3c8;stroke:#fee3c8;"/>
    <path clip-path="url(#p76a9ee9fdb)" d="M 270.108863 325.031142 
C 272.178476 325.031142 274.163602 324.208876 275.627039 322.745438 
C 277.090477 321.282001 277.912743 319.296875 277.912743 317.227262 
C 277.912743 315.157649 277.090477 313.172523 275.627039 311.709086 
C 274.163602 310.245649 272.178476 309.423383 270.108863 309.423383 
C 268.03925 309.423383 266.054124 310.245649 264.590687 311.709086 
C 263.127249 313.172523 262.304983 315.157649 262.304983 317.227262 
C 262.304983 319.296875 263.127249 321.282001 264.590687 322.745438 
C 266.054124 324.208876 268.03925 325.031142 270.108863 325.031142 
z
" style="fill:#fdd9b5;stroke:#fdd9b5;"/>
    <path clip-path="url(#p76a9ee9fdb)" d="M 402.84872 323.543336 
C 404.748917 323.543336 406.571543 322.788379 407.915185 321.444737 
C 409.258827 320.101095 410.013784 318.278469 410.013784 316.378272 
C 410.013784 314.478075 409.258827 312.655449 407.915185 311.311807 
C 406.571543 309.968164 404.748917 309.213208 402.84872 309.213208 
C 400.948523 309.213208 399.125897 309.968164 397.782255 311.311807 
C 396.438613 312.655449 395.683656 314.478075 395.683656 316.378272 
C 395.683656 318.278469 396.438613 320.101095 397.782255 321.444737 
C 399.125897 322.788379 400.948523 323.543336 402.84872 323.543336 
z
" style="fill:#feecda;stroke:#feecda;"/>
    <path clip-path="url(#p76a9ee9fdb)" d="M 269.933223 288.582985 
C 271.939905 288.582985 273.864669 287.785722 275.283608 286.366783 
C 276.702546 284.947844 277.49981 283.02308 277.49981 281.016398 
C 277.49981 279.009716 276.702546 277.084952 275.283608 275.666013 
C 273.864669 274.247075 271.939905 273.449811 269.933223 273.449811 
C 267.926541 273.449811 266.001777 274.247075 264.582838 275.666013 
C 263.1639 277.084952 262.366636 279.009716 262.366636 281.016398 
C 262.366636 283.02308 263.1639 284.947844 264.582838 286.366783 
C 266.001777 287.785722 267.926541 288.582985 269.933223 288.582985 
z
" style="fill:#fee2c6;stroke:#fee2c6;"/>
    <path clip-path="url(#p76a9ee9fdb)" d="M 269.757583 252.446717 
C 271.784048 252.446717 273.727788 251.641594 275.160715 250.208666 
C 276.593643 248.775739 277.398766 246.831999 277.398766 244.805534 
C 277.398766 242.779069 276.593643 240.835329 275.160715 239.402402 
C 273.727788 237.969474 271.784048 237.164351 269.757583 237.164351 
C 267.731118 237.164351 265.787378 237.969474 264.354451 239.402402 
C 262.921523 240.835329 262.1164 242.779069 262.1164 244.805534 
C 262.1164 246.831999 262.921523 248.775739 264.354451 250.208666 
C 265.787378 251.641594 267.731118 252.446717 269.757583 252.446717 
z
" style="fill:#fedfc0;stroke:#fedfc0;"/>
    <path clip-path="url(#p76a9ee9fdb)" d="M 402.49744 251.043512 
C 404.376926 251.043512 406.179686 250.296784 407.508683 248.967787 
C 408.83768 247.63879 409.584408 245.83603 409.584408 243.956544 
C 409.584408 242.077058 408.83768 240.274298 407.508683 238.945301 
C 406.179686 237.616304 404.376926 236.869576 402.49744 236.869576 
C 400.617954 236.869576 398.815194 237.616304 397.486197 238.945301 
C 396.1572 240.274298 395.410472 242.077058 395.410472 243.956544 
C 395.410472 245.83603 396.1572 247.63879 397.486197 248.967787 
C 398.815194 250.296784 400.617954 251.043512 402.49744 251.043512 
z
" style="fill:#feeddc;stroke:#feeddc;"/>
    <path clip-path="url(#p76a9ee9fdb)" d="M 269.581943 216.764645 
C 271.748646 216.764645 273.826897 215.903805 275.358987 214.371714 
C 276.891078 212.839624 277.751918 210.761373 277.751918 208.59467 
C 277.751918 206.427967 276.891078 204.349716 275.358987 202.817625 
C 273.826897 201.285535 271.748646 200.424695 269.581943 200.424695 
C 267.41524 200.424695 265.336989 201.285535 263.804898 202.817625 
C 262.272808 204.349716 261.411968 206.427967 261.411968 208.59467 
C 261.411968 210.761373 262.272808 212.839624 263.804898 214.371714 
C 265.336989 215.903805 267.41524 216.764645 269.581943 216.764645 
z
" style="fill:#fdca99;stroke:#fdca99;"/>
    <path clip-path="url(#p76a9ee9fdb)" d="M 402.3218 215.052913 
C 404.259701 215.052913 406.118491 214.282977 407.488794 212.912674 
C 408.859097 211.542371 409.629033 209.683581 409.629033 207.74568 
C 409.629033 205.807779 408.859097 203.948989 407.488794 202.578686 
C 406.118491 201.208383 404.259701 200.438447 402.3218 200.438447 
C 400.383899 200.438447 398.525109 201.208383 397.154806 202.578686 
C 395.784503 203.948989 395.014567 205.807779 395.014567 207.74568 
C 395.014567 209.683581 395.784503 211.542371 397.154806 212.912674 
C 398.525109 214.282977 400.383899 215.052913 402.3218 215.052913 
z
" style="fill:#fee9d3;stroke:#fee9d3;"/>
    <path clip-path="url(#p76a9ee9fdb)" d="M 269.406303 180.501413 
C 271.559118 180.501413 273.624048 179.646091 275.146318 178.123821 
C 276.668588 176.601551 277.52391 174.536621 277.52391 172.383806 
C 277.52391 170.230991 276.668588 168.166061 275.146318 166.643791 
C 273.624048 165.121521 271.559118 164.266199 269.406303 164.266199 
C 267.253488 164.266199 265.188558 165.121521 263.666288 166.643791 
C 262.144018 168.166061 261.288696 170.230991 261.288696 172.383806 
C 261.288696 174.536621 262.144018 176.601551 263.666288 178.123821 
C 265.188558 179.646091 267.253488 180.501413 269.406303 180.501413 
z
" style="fill:#fdce9e;stroke:#fdce9e;"/>
    <path clip-path="url(#p76a9ee9fdb)" d="M 402.14616 179.508616 
C 404.260836 179.508616 406.289186 178.668446 407.784488 177.173144 
C 409.27979 175.677842 410.11996 173.649492 410.11996 171.534816 
C 410.11996 169.420139 409.27979 167.39179 407.784488 165.896488 
C 406.289186 164.401186 404.260836 163.561016 402.14616 163.561016 
C 400.031484 163.561016 398.003134 164.401186 396.507832 165.896488 
C 395.01253 167.39179 394.17236 169.420139 394.17236 171.534816 
C 394.17236 173.649492 395.01253 175.677842 396.507832 177.173144 
C 398.003134 178.668446 400.031484 179.508616 402.14616 179.508616 
z
" style="fill:#fdd4aa;stroke:#fdd4aa;"/>
    <path clip-path="url(#p76a9ee9fdb)" d="M 269.230663 143.347114 
C 271.133276 143.347114 272.958218 142.591198 274.303569 141.245848 
C 275.648919 139.900497 276.404835 138.075555 276.404835 136.172942 
C 276.404835 134.270329 275.648919 132.445386 274.303569 131.100036 
C 272.958218 129.754686 271.133276 128.99877 269.230663 128.99877 
C 267.32805 128.99877 265.503108 129.754686 264.157757 131.100036 
C 262.812407 132.445386 262.056491 134.270329 262.056491 136.172942 
C 262.056491 138.075555 262.812407 139.900497 264.157757 141.245848 
C 265.503108 142.591198 267.32805 143.347114 269.230663 143.347114 
z
" style="fill:#feecd9;stroke:#feecd9;"/>
    <path clip-path="url(#p76a9ee9fdb)" d="M 401.97052 143.147855 
C 404.045443 143.147855 406.035662 142.323479 407.502855 140.856286 
C 408.970047 139.389094 409.794423 137.398875 409.794423 135.323952 
C 409.794423 133.249028 408.970047 131.258809 407.502855 129.791617 
C 406.035662 128.324425 404.045443 127.500049 401.97052 127.500049 
C 399.895597 127.500049 397.905378 128.324425 396.438185 129.791617 
C 394.970993 131.258809 394.146617 133.249028 394.146617 135.323952 
C 394.146617 137.398875 394.970993 139.389094 396.438185 140.856286 
C 397.905378 142.323479 399.895597 143.147855 401.97052 143.147855 
z
" style="fill:#fdd9b4;stroke:#fdd9b4;"/>
   </g>
   <g id="line2d_11">
    <defs>
     <path d="M -2.5 0 
L 2.5 0 
M 0 2.5 
L 0 -2.5 
" id="m4533a13474" style="stroke:#0000ff;"/>
    </defs>
    <g clip-path="url(#p76a9ee9fdb)">
     <use style="fill:#0000ff;stroke:#0000ff;" x="403.2" xlink:href="#m4533a13474" y="388.8"/>
    </g>
   </g>
   <g id="patch_3">
    <path d="M 108 720.9 
L 108 56.7 
" style="fill:none;stroke:#000000;stroke-linecap:square;stroke-linejoin:miter;stroke-width:0.8;"/>
   </g>
   <g id="patch_4">
    <path d="M 698.4 720.9 
L 698.4 56.7 
" style="fill:none;stroke:#000000;stroke-linecap:square;stroke-linejoin:miter;stroke-width:0.8;"/>
   </g>
   <g id="patch_5">
    <path d="M 108 720.9 
L 698.4 720.9 
" style="fill:none;stroke:#000000;stroke-linecap:square;stroke-linejoin:miter;stroke-width:0.8;"/>
   </g>
   <g id="patch_6">
    <path d="M 108 56.7 
L 698.4 56.7 
" style="fill:none;stroke:#000000;stroke-linecap:square;stroke-linejoin:miter;stroke-width:0.8;"/>
   </g>
   <g id="text_13">
    <!-- (-6,-8,2) -->
    <g style="fill:#796eb2;" transform="translate(171.402788 673.542893)scale(0.15 -0.15)">
     <defs>
      <path d="M 31 75.875 
Q 24.46875 64.65625 21.28125 53.65625 
Q 18.109375 42.671875 18.109375 31.390625 
Q 18.109375 20.125 21.3125 9.0625 
Q 24.515625 -2 31 -13.1875 
L 23.1875 -13.1875 
Q 15.875 -1.703125 12.234375 9.375 
Q 8.59375 20.453125 8.59375 31.390625 
Q 8.59375 42.28125 12.203125 53.3125 
Q 15.828125 64.359375 23.1875 75.875 
z
" id="DejaVuSans-40"/>
      <path d="M 4.890625 31.390625 
L 31.203125 31.390625 
L 31.203125 23.390625 
L 4.890625 23.390625 
z
" id="DejaVuSans-45"/>
      <path d="M 33.015625 40.375 
Q 26.375 40.375 22.484375 35.828125 
Q 18.609375 31.296875 18.609375 23.390625 
Q 18.609375 15.53125 22.484375 10.953125 
Q 26.375 6.390625 33.015625 6.390625 
Q 39.65625 6.390625 43.53125 10.953125 
Q 47.40625 15.53125 47.40625 23.390625 
Q 47.40625 31.296875 43.53125 35.828125 
Q 39.65625 40.375 33.015625 40.375 
z
M 52.59375 71.296875 
L 52.59375 62.3125 
Q 48.875 64.0625 45.09375 64.984375 
Q 41.3125 65.921875 37.59375 65.921875 
Q 27.828125 65.921875 22.671875 59.328125 
Q 17.53125 52.734375 16.796875 39.40625 
Q 19.671875 43.65625 24.015625 45.921875 
Q 28.375 48.1875 33.59375 48.1875 
Q 44.578125 48.1875 50.953125 41.515625 
Q 57.328125 34.859375 57.328125 23.390625 
Q 57.328125 12.15625 50.6875 5.359375 
Q 44.046875 -1.421875 33.015625 -1.421875 
Q 20.359375 -1.421875 13.671875 8.265625 
Q 6.984375 17.96875 6.984375 36.375 
Q 6.984375 53.65625 15.1875 63.9375 
Q 23.390625 74.21875 37.203125 74.21875 
Q 40.921875 74.21875 44.703125 73.484375 
Q 48.484375 72.75 52.59375 71.296875 
z
" id="DejaVuSans-54"/>
      <path d="M 11.71875 12.40625 
L 22.015625 12.40625 
L 22.015625 4 
L 14.015625 -11.625 
L 7.71875 -11.625 
L 11.71875 4 
z
" id="DejaVuSans-44"/>
      <path d="M 31.78125 34.625 
Q 24.75 34.625 20.71875 30.859375 
Q 16.703125 27.09375 16.703125 20.515625 
Q 16.703125 13.921875 20.71875 10.15625 
Q 24.75 6.390625 31.78125 6.390625 
Q 38.8125 6.390625 42.859375 10.171875 
Q 46.921875 13.96875 46.921875 20.515625 
Q 46.921875 27.09375 42.890625 30.859375 
Q 38.875 34.625 31.78125 34.625 
z
M 21.921875 38.8125 
Q 15.578125 40.375 12.03125 44.71875 
Q 8.5 49.078125 8.5 55.328125 
Q 8.5 64.0625 14.71875 69.140625 
Q 20.953125 74.21875 31.78125 74.21875 
Q 42.671875 74.21875 48.875 69.140625 
Q 55.078125 64.0625 55.078125 55.328125 
Q 55.078125 49.078125 51.53125 44.71875 
Q 48 40.375 41.703125 38.8125 
Q 48.828125 37.15625 52.796875 32.3125 
Q 56.78125 27.484375 56.78125 20.515625 
Q 56.78125 9.90625 50.3125 4.234375 
Q 43.84375 -1.421875 31.78125 -1.421875 
Q 19.734375 -1.421875 13.25 4.234375 
Q 6.78125 9.90625 6.78125 20.515625 
Q 6.78125 27.484375 10.78125 32.3125 
Q 14.796875 37.15625 21.921875 38.8125 
z
M 18.3125 54.390625 
Q 18.3125 48.734375 21.84375 45.5625 
Q 25.390625 42.390625 31.78125 42.390625 
Q 38.140625 42.390625 41.71875 45.5625 
Q 45.3125 48.734375 45.3125 54.390625 
Q 45.3125 60.0625 41.71875 63.234375 
Q 38.140625 66.40625 31.78125 66.40625 
Q 25.390625 66.40625 21.84375 63.234375 
Q 18.3125 60.0625 18.3125 54.390625 
z
" id="DejaVuSans-56"/>
      <path d="M 8.015625 75.875 
L 15.828125 75.875 
Q 23.140625 64.359375 26.78125 53.3125 
Q 30.421875 42.28125 30.421875 31.390625 
Q 30.421875 20.453125 26.78125 9.375 
Q 23.140625 -1.703125 15.828125 -13.1875 
L 8.015625 -13.1875 
Q 14.5 -2 17.703125 9.0625 
Q 20.90625 20.125 20.90625 31.390625 
Q 20.90625 42.671875 17.703125 53.65625 
Q 14.5 64.65625 8.015625 75.875 
z
" id="DejaVuSans-41"/>
     </defs>
     <use xlink:href="#DejaVuSans-40"/>
     <use x="39.013672" xlink:href="#DejaVuSans-45"/>
     <use x="75.097656" xlink:href="#DejaVuSans-54"/>
     <use x="138.720703" xlink:href="#DejaVuSans-44"/>
     <use x="170.507812" xlink:href="#DejaVuSans-45"/>
     <use x="206.591797" xlink:href="#DejaVuSans-56"/>
     <use x="270.214844" xlink:href="#DejaVuSans-44"/>
     <use x="302.001953" xlink:href="#DejaVuSans-50"/>
     <use x="365.625" xlink:href="#DejaVuSans-41"/>
    </g>
   </g>
   <g id="text_14">
    <!-- (0,0,0) -->
    <g style="fill:#796eb2;" transform="translate(378.264844 382.158)scale(0.15 -0.15)">
     <use xlink:href="#DejaVuSans-40"/>
     <use x="39.013672" xlink:href="#DejaVuSans-48"/>
     <use x="102.636719" xlink:href="#DejaVuSans-44"/>
     <use x="134.423828" xlink:href="#DejaVuSans-48"/>
     <use x="198.046875" xlink:href="#DejaVuSans-44"/>
     <use x="229.833984" xlink:href="#DejaVuSans-48"/>
     <use x="293.457031" xlink:href="#DejaVuSans-41"/>
    </g>
   </g>
   <g id="text_15">
    <!-- (5,-3,-1) -->
    <g style="fill:#796eb2;" transform="translate(537.432031 489.941602)scale(0.15 -0.15)">
     <defs>
      <path d="M 10.796875 72.90625 
L 49.515625 72.90625 
L 49.515625 64.59375 
L 19.828125 64.59375 
L 19.828125 46.734375 
Q 21.96875 47.46875 24.109375 47.828125 
Q 26.265625 48.1875 28.421875 48.1875 
Q 40.625 48.1875 47.75 41.5 
Q 54.890625 34.8125 54.890625 23.390625 
Q 54.890625 11.625 47.5625 5.09375 
Q 40.234375 -1.421875 26.90625 -1.421875 
Q 22.3125 -1.421875 17.546875 -0.640625 
Q 12.796875 0.140625 7.71875 1.703125 
L 7.71875 11.625 
Q 12.109375 9.234375 16.796875 8.0625 
Q 21.484375 6.890625 26.703125 6.890625 
Q 35.15625 6.890625 40.078125 11.328125 
Q 45.015625 15.765625 45.015625 23.390625 
Q 45.015625 31 40.078125 35.4375 
Q 35.15625 39.890625 26.703125 39.890625 
Q 22.75 39.890625 18.8125 39.015625 
Q 14.890625 38.140625 10.796875 36.28125 
z
" id="DejaVuSans-53"/>
      <path d="M 40.578125 39.3125 
Q 47.65625 37.796875 51.625 33 
Q 55.609375 28.21875 55.609375 21.1875 
Q 55.609375 10.40625 48.1875 4.484375 
Q 40.765625 -1.421875 27.09375 -1.421875 
Q 22.515625 -1.421875 17.65625 -0.515625 
Q 12.796875 0.390625 7.625 2.203125 
L 7.625 11.71875 
Q 11.71875 9.328125 16.59375 8.109375 
Q 21.484375 6.890625 26.8125 6.890625 
Q 36.078125 6.890625 40.9375 10.546875 
Q 45.796875 14.203125 45.796875 21.1875 
Q 45.796875 27.640625 41.28125 31.265625 
Q 36.765625 34.90625 28.71875 34.90625 
L 20.21875 34.90625 
L 20.21875 43.015625 
L 29.109375 43.015625 
Q 36.375 43.015625 40.234375 45.921875 
Q 44.09375 48.828125 44.09375 54.296875 
Q 44.09375 59.90625 40.109375 62.90625 
Q 36.140625 65.921875 28.71875 65.921875 
Q 24.65625 65.921875 20.015625 65.03125 
Q 15.375 64.15625 9.8125 62.3125 
L 9.8125 71.09375 
Q 15.4375 72.65625 20.34375 73.4375 
Q 25.25 74.21875 29.59375 74.21875 
Q 40.828125 74.21875 47.359375 69.109375 
Q 53.90625 64.015625 53.90625 55.328125 
Q 53.90625 49.265625 50.4375 45.09375 
Q 46.96875 40.921875 40.578125 39.3125 
z
" id="DejaVuSans-51"/>
     </defs>
     <use xlink:href="#DejaVuSans-40"/>
     <use x="39.013672" xlink:href="#DejaVuSans-53"/>
     <use x="102.636719" xlink:href="#DejaVuSans-44"/>
     <use x="134.423828" xlink:href="#DejaVuSans-45"/>
     <use x="170.507812" xlink:href="#DejaVuSans-51"/>
     <use x="234.130859" xlink:href="#DejaVuSans-44"/>
     <use x="265.917969" xlink:href="#DejaVuSans-45"/>
     <use x="302.001953" xlink:href="#DejaVuSans-49"/>
     <use x="365.625" xlink:href="#DejaVuSans-41"/>
    </g>
   </g>
  </g>
 </g>
 <defs>
  <clipPath id="p76a9ee9fdb">
   <rect height="664.2" width="590.4" x="108" y="56.7"/>
  </clipPath>
 </defs>
</svg>
