<?xml version="1.0" encoding="utf-8" standalone="no"?>
<!DOCTYPE svg PUBLIC "-//W3C//DTD SVG 1.1//EN"
  "http://www.w3.org/Graphics/SVG/1.1/DTD/svg11.dtd">
<!-- Created with matplotlib (https://matplotlib.org/) -->
<svg height="810pt" version="1.1" viewBox="0 0 720 810" width="720pt" xmlns="http://www.w3.org/2000/svg" xmlns:xlink="http://www.w3.org/1999/xlink">
 <metadata>
  <rdf:RDF xmlns:cc="http://creativecommons.org/ns#" xmlns:dc="http://purl.org/dc/elements/1.1/" xmlns:rdf="http://www.w3.org/1999/02/22-rdf-syntax-ns#">
   <cc:Work>
    <dc:type rdf:resource="http://purl.org/dc/dcmitype/StillImage"/>
    <dc:date>2021-07-09T11:29:53.877161</dc:date>
    <dc:format>image/svg+xml</dc:format>
    <dc:creator>
     <cc:Agent>
      <dc:title>Matplotlib v3.3.1, https://matplotlib.org/</dc:title>
     </cc:Agent>
    </dc:creator>
   </cc:Work>
  </rdf:RDF>
 </metadata>
 <defs>
  <style type="text/css">*{stroke-linecap:butt;stroke-linejoin:round;}</style>
 </defs>
 <g id="figure_1">
  <g id="patch_1">
   <path d="M 0 810 
L 720 810 
L 720 0 
L 0 0 
z
" style="fill:#ffffff;"/>
  </g>
  <g id="axes_1">
   <g id="patch_2">
    <path d="M 108 720.9 
L 698.4 720.9 
L 698.4 56.7 
L 108 56.7 
z
" style="fill:#ffffff;"/>
   </g>
   <g id="matplotlib.axis_1">
    <g id="xtick_1">
     <g id="line2d_1">
      <defs>
       <path d="M 0 0 
L 0 3.5 
" id="m66f221e091" style="stroke:#000000;stroke-width:0.8;"/>
      </defs>
      <g>
       <use style="stroke:#000000;stroke-width:0.8;" x="167.04" xlink:href="#m66f221e091" y="720.9"/>
      </g>
     </g>
     <g id="text_1">
      <!-- −2 -->
      <g transform="translate(155.983359 739.297656)scale(0.15 -0.15)">
       <defs>
        <path d="M 10.59375 35.5 
L 73.1875 35.5 
L 73.1875 27.203125 
L 10.59375 27.203125 
z
" id="DejaVuSans-8722"/>
        <path d="M 19.1875 8.296875 
L 53.609375 8.296875 
L 53.609375 0 
L 7.328125 0 
L 7.328125 8.296875 
Q 12.9375 14.109375 22.625 23.890625 
Q 32.328125 33.6875 34.8125 36.53125 
Q 39.546875 41.84375 41.421875 45.53125 
Q 43.3125 49.21875 43.3125 52.78125 
Q 43.3125 58.59375 39.234375 62.25 
Q 35.15625 65.921875 28.609375 65.921875 
Q 23.96875 65.921875 18.8125 64.3125 
Q 13.671875 62.703125 7.8125 59.421875 
L 7.8125 69.390625 
Q 13.765625 71.78125 18.9375 73 
Q 24.125 74.21875 28.421875 74.21875 
Q 39.75 74.21875 46.484375 68.546875 
Q 53.21875 62.890625 53.21875 53.421875 
Q 53.21875 48.921875 51.53125 44.890625 
Q 49.859375 40.875 45.40625 35.40625 
Q 44.1875 33.984375 37.640625 27.21875 
Q 31.109375 20.453125 19.1875 8.296875 
z
" id="DejaVuSans-50"/>
       </defs>
       <use xlink:href="#DejaVuSans-8722"/>
       <use x="83.789062" xlink:href="#DejaVuSans-50"/>
      </g>
     </g>
    </g>
    <g id="xtick_2">
     <g id="line2d_2">
      <g>
       <use style="stroke:#000000;stroke-width:0.8;" x="285.12" xlink:href="#m66f221e091" y="720.9"/>
      </g>
     </g>
     <g id="text_2">
      <!-- −1 -->
      <g transform="translate(274.063359 739.297656)scale(0.15 -0.15)">
       <defs>
        <path d="M 12.40625 8.296875 
L 28.515625 8.296875 
L 28.515625 63.921875 
L 10.984375 60.40625 
L 10.984375 69.390625 
L 28.421875 72.90625 
L 38.28125 72.90625 
L 38.28125 8.296875 
L 54.390625 8.296875 
L 54.390625 0 
L 12.40625 0 
z
" id="DejaVuSans-49"/>
       </defs>
       <use xlink:href="#DejaVuSans-8722"/>
       <use x="83.789062" xlink:href="#DejaVuSans-49"/>
      </g>
     </g>
    </g>
    <g id="xtick_3">
     <g id="line2d_3">
      <g>
       <use style="stroke:#000000;stroke-width:0.8;" x="403.2" xlink:href="#m66f221e091" y="720.9"/>
      </g>
     </g>
     <g id="text_3">
      <!-- 0 -->
      <g transform="translate(398.428125 739.297656)scale(0.15 -0.15)">
       <defs>
        <path d="M 31.78125 66.40625 
Q 24.171875 66.40625 20.328125 58.90625 
Q 16.5 51.421875 16.5 36.375 
Q 16.5 21.390625 20.328125 13.890625 
Q 24.171875 6.390625 31.78125 6.390625 
Q 39.453125 6.390625 43.28125 13.890625 
Q 47.125 21.390625 47.125 36.375 
Q 47.125 51.421875 43.28125 58.90625 
Q 39.453125 66.40625 31.78125 66.40625 
z
M 31.78125 74.21875 
Q 44.046875 74.21875 50.515625 64.515625 
Q 56.984375 54.828125 56.984375 36.375 
Q 56.984375 17.96875 50.515625 8.265625 
Q 44.046875 -1.421875 31.78125 -1.421875 
Q 19.53125 -1.421875 13.0625 8.265625 
Q 6.59375 17.96875 6.59375 36.375 
Q 6.59375 54.828125 13.0625 64.515625 
Q 19.53125 74.21875 31.78125 74.21875 
z
" id="DejaVuSans-48"/>
       </defs>
       <use xlink:href="#DejaVuSans-48"/>
      </g>
     </g>
    </g>
    <g id="xtick_4">
     <g id="line2d_4">
      <g>
       <use style="stroke:#000000;stroke-width:0.8;" x="521.28" xlink:href="#m66f221e091" y="720.9"/>
      </g>
     </g>
     <g id="text_4">
      <!-- 1 -->
      <g transform="translate(516.508125 739.297656)scale(0.15 -0.15)">
       <use xlink:href="#DejaVuSans-49"/>
      </g>
     </g>
    </g>
    <g id="xtick_5">
     <g id="line2d_5">
      <g>
       <use style="stroke:#000000;stroke-width:0.8;" x="639.36" xlink:href="#m66f221e091" y="720.9"/>
      </g>
     </g>
     <g id="text_5">
      <!-- 2 -->
      <g transform="translate(634.588125 739.297656)scale(0.15 -0.15)">
       <use xlink:href="#DejaVuSans-50"/>
      </g>
     </g>
    </g>
    <g id="text_6">
     <!-- $q_x$ -->
     <g transform="translate(389.7 765.3625)scale(0.25 -0.25)">
      <defs>
       <path d="M 41.703125 8.203125 
Q 38.09375 3.46875 33.171875 1.015625 
Q 28.265625 -1.421875 22.3125 -1.421875 
Q 14.015625 -1.421875 9.296875 4.171875 
Q 4.59375 9.765625 4.59375 19.578125 
Q 4.59375 27.484375 7.5 34.859375 
Q 10.40625 42.234375 15.828125 48.09375 
Q 19.34375 51.90625 23.90625 53.953125 
Q 28.46875 56 33.5 56 
Q 39.546875 56 43.453125 53.609375 
Q 47.359375 51.21875 49.125 46.390625 
L 50.6875 54.59375 
L 59.71875 54.59375 
L 45.125 -20.609375 
L 36.078125 -20.609375 
z
M 13.921875 20.90625 
Q 13.921875 13.671875 16.9375 9.890625 
Q 19.96875 6.109375 25.6875 6.109375 
Q 34.1875 6.109375 40.1875 14.234375 
Q 46.1875 22.359375 46.1875 33.984375 
Q 46.1875 41.015625 43.078125 44.75 
Q 39.984375 48.484375 34.1875 48.484375 
Q 29.9375 48.484375 26.3125 46.5 
Q 22.703125 44.53125 20.015625 40.71875 
Q 17.1875 36.71875 15.546875 31.34375 
Q 13.921875 25.984375 13.921875 20.90625 
z
" id="DejaVuSans-Oblique-113"/>
       <path d="M 60.015625 54.6875 
L 34.90625 27.875 
L 50.296875 0 
L 39.984375 0 
L 28.421875 21.6875 
L 8.296875 0 
L -2.59375 0 
L 24.3125 28.8125 
L 10.015625 54.6875 
L 20.3125 54.6875 
L 30.8125 34.90625 
L 49.125 54.6875 
z
" id="DejaVuSans-Oblique-120"/>
      </defs>
      <use xlink:href="#DejaVuSans-Oblique-113"/>
      <use transform="translate(63.476562 -16.40625)scale(0.7)" xlink:href="#DejaVuSans-Oblique-120"/>
     </g>
    </g>
   </g>
   <g id="matplotlib.axis_2">
    <g id="ytick_1">
     <g id="line2d_6">
      <defs>
       <path d="M 0 0 
L -3.5 0 
" id="m1f98b7d579" style="stroke:#000000;stroke-width:0.8;"/>
      </defs>
      <g>
       <use style="stroke:#000000;stroke-width:0.8;" x="108" xlink:href="#m1f98b7d579" y="654.48"/>
      </g>
     </g>
     <g id="text_7">
      <!-- −2 -->
      <g transform="translate(78.886719 660.178828)scale(0.15 -0.15)">
       <use xlink:href="#DejaVuSans-8722"/>
       <use x="83.789062" xlink:href="#DejaVuSans-50"/>
      </g>
     </g>
    </g>
    <g id="ytick_2">
     <g id="line2d_7">
      <g>
       <use style="stroke:#000000;stroke-width:0.8;" x="108" xlink:href="#m1f98b7d579" y="521.64"/>
      </g>
     </g>
     <g id="text_8">
      <!-- −1 -->
      <g transform="translate(78.886719 527.338828)scale(0.15 -0.15)">
       <use xlink:href="#DejaVuSans-8722"/>
       <use x="83.789062" xlink:href="#DejaVuSans-49"/>
      </g>
     </g>
    </g>
    <g id="ytick_3">
     <g id="line2d_8">
      <g>
       <use style="stroke:#000000;stroke-width:0.8;" x="108" xlink:href="#m1f98b7d579" y="388.8"/>
      </g>
     </g>
     <g id="text_9">
      <!-- 0 -->
      <g transform="translate(91.45625 394.498828)scale(0.15 -0.15)">
       <use xlink:href="#DejaVuSans-48"/>
      </g>
     </g>
    </g>
    <g id="ytick_4">
     <g id="line2d_9">
      <g>
       <use style="stroke:#000000;stroke-width:0.8;" x="108" xlink:href="#m1f98b7d579" y="255.96"/>
      </g>
     </g>
     <g id="text_10">
      <!-- 1 -->
      <g transform="translate(91.45625 261.658828)scale(0.15 -0.15)">
       <use xlink:href="#DejaVuSans-49"/>
      </g>
     </g>
    </g>
    <g id="ytick_5">
     <g id="line2d_10">
      <g>
       <use style="stroke:#000000;stroke-width:0.8;" x="108" xlink:href="#m1f98b7d579" y="123.12"/>
      </g>
     </g>
     <g id="text_11">
      <!-- 2 -->
      <g transform="translate(91.45625 128.818828)scale(0.15 -0.15)">
       <use xlink:href="#DejaVuSans-50"/>
      </g>
     </g>
    </g>
    <g id="text_12">
     <!-- $q_y$ -->
     <g transform="translate(67.136719 402.3)rotate(-90)scale(0.25 -0.25)">
      <defs>
       <path d="M 24.8125 -5.078125 
Q 18.5625 -15.578125 14.625 -18.1875 
Q 10.6875 -20.796875 4.59375 -20.796875 
L -2.484375 -20.796875 
L -0.984375 -13.28125 
L 4.203125 -13.28125 
Q 7.953125 -13.28125 10.59375 -11.234375 
Q 13.234375 -9.1875 16.5 -3.21875 
L 19.28125 2 
L 7.171875 54.6875 
L 16.703125 54.6875 
L 25.78125 12.796875 
L 50.875 54.6875 
L 60.296875 54.6875 
z
" id="DejaVuSans-Oblique-121"/>
      </defs>
      <use xlink:href="#DejaVuSans-Oblique-113"/>
      <use transform="translate(63.476562 -16.40625)scale(0.7)" xlink:href="#DejaVuSans-Oblique-121"/>
     </g>
    </g>
   </g>
   <g id="PathCollection_1">
    <path clip-path="url(#p9f747e91a9)" d="M 235.124623 685.704368 
L 235.124623 685.704368 
L 235.124623 685.704368 
L 235.124623 685.704368 
z
" style="fill:#fcfbfd;stroke:#fcfbfd;"/>
    <path clip-path="url(#p9f747e91a9)" d="M 368.833085 682.968307 
L 368.833085 682.968307 
L 368.833085 682.968307 
L 368.833085 682.968307 
z
" style="fill:#fcfbfd;stroke:#fcfbfd;"/>
    <path clip-path="url(#p9f747e91a9)" d="M 566.245203 680.232247 
L 566.245203 680.232247 
L 566.245203 680.232247 
L 566.245203 680.232247 
z
" style="fill:#fcfbfd;stroke:#fcfbfd;"/>
    <path clip-path="url(#p9f747e91a9)" d="M 202.799537 649.275337 
L 202.799537 649.275337 
L 202.799537 649.275337 
L 202.799537 649.275337 
z
" style="fill:#fcfbfd;stroke:#fcfbfd;"/>
    <path clip-path="url(#p9f747e91a9)" d="M 533.920117 643.803216 
L 533.920117 643.803216 
L 533.920117 643.803216 
L 533.920117 643.803216 
z
" style="fill:#fcfbfd;stroke:#fcfbfd;"/>
    <path clip-path="url(#p9f747e91a9)" d="M 202.326279 612.846306 
L 202.326279 612.846306 
L 202.326279 612.846306 
L 202.326279 612.846306 
z
" style="fill:#fcfbfd;stroke:#fcfbfd;"/>
    <path clip-path="url(#p9f747e91a9)" d="M 336.034742 610.110246 
L 336.034742 610.110246 
L 336.034742 610.110246 
L 336.034742 610.110246 
z
" style="fill:#fcfbfd;stroke:#fcfbfd;"/>
    <path clip-path="url(#p9f747e91a9)" d="M 501.595032 607.374185 
L 501.595032 607.374185 
L 501.595032 607.374185 
L 501.595032 607.374185 
z
" style="fill:#fcfbfd;stroke:#fcfbfd;"/>
    <path clip-path="url(#p9f747e91a9)" d="M 170.001194 576.417276 
L 170.001194 576.417276 
L 170.001194 576.417276 
L 170.001194 576.417276 
z
" style="fill:#fcfbfd;stroke:#fcfbfd;"/>
    <path clip-path="url(#p9f747e91a9)" d="M 469.269946 570.945154 
L 469.269946 570.945154 
L 469.269946 570.945154 
L 469.269946 570.945154 
z
" style="fill:#fcfbfd;stroke:#fcfbfd;"/>
    <path clip-path="url(#p9f747e91a9)" d="M 169.527935 539.988245 
L 169.527935 539.988245 
L 169.527935 539.988245 
L 169.527935 539.988245 
z
" style="fill:#fcfbfd;stroke:#fcfbfd;"/>
    <path clip-path="url(#p9f747e91a9)" d="M 303.236398 537.252184 
L 303.236398 537.252184 
L 303.236398 537.252184 
L 303.236398 537.252184 
z
" style="fill:#fcfbfd;stroke:#fcfbfd;"/>
    <path clip-path="url(#p9f747e91a9)" d="M 468.796688 534.516123 
L 468.796688 534.516123 
L 468.796688 534.516123 
L 468.796688 534.516123 
z
" style="fill:#fcfbfd;stroke:#fcfbfd;"/>
    <path clip-path="url(#p9f747e91a9)" d="M 666.208805 531.780063 
L 666.208805 531.780063 
L 666.208805 531.780063 
L 666.208805 531.780063 
z
" style="fill:#fcfbfd;stroke:#fcfbfd;"/>
    <path clip-path="url(#p9f747e91a9)" d="M 436.471602 498.087093 
L 436.471602 498.087093 
L 436.471602 498.087093 
L 436.471602 498.087093 
z
" style="fill:#fcfbfd;stroke:#fcfbfd;"/>
    <path clip-path="url(#p9f747e91a9)" d="M 633.88372 510.602221 
L 643.034433 495.351032 
L 633.88372 480.099843 
L 624.733006 495.351032 
z
" style="fill:#4a1587;stroke:#4a1587;"/>
    <path clip-path="url(#p9f747e91a9)" d="M 136.729592 482.518226 
L 145.962417 467.130183 
L 136.729592 451.74214 
L 127.496766 467.130183 
z
" style="fill:#481084;stroke:#481084;"/>
    <path clip-path="url(#p9f747e91a9)" d="M 270.438054 464.394122 
L 270.438054 464.394122 
L 270.438054 464.394122 
L 270.438054 464.394122 
z
" style="fill:#fcfbfd;stroke:#fcfbfd;"/>
    <path clip-path="url(#p9f747e91a9)" d="M 435.998344 461.658062 
L 435.998344 461.658062 
L 435.998344 461.658062 
L 435.998344 461.658062 
z
" style="fill:#fcfbfd;stroke:#fcfbfd;"/>
    <path clip-path="url(#p9f747e91a9)" d="M 633.410462 458.922001 
L 633.410462 458.922001 
L 633.410462 458.922001 
L 633.410462 458.922001 
z
" style="fill:#fcfbfd;stroke:#fcfbfd;"/>
    <path clip-path="url(#p9f747e91a9)" d="M 136.256334 430.701152 
L 136.256334 430.701152 
L 136.256334 430.701152 
L 136.256334 430.701152 
z
" style="fill:#fcfbfd;stroke:#fcfbfd;"/>
    <path clip-path="url(#p9f747e91a9)" d="M 269.964796 427.965092 
L 269.964796 427.965092 
L 269.964796 427.965092 
L 269.964796 427.965092 
z
" style="fill:#fcfbfd;stroke:#fcfbfd;"/>
    <path clip-path="url(#p9f747e91a9)" d="M 403.673258 425.229031 
L 403.673258 425.229031 
L 403.673258 425.229031 
L 403.673258 425.229031 
z
" style="fill:#fcfbfd;stroke:#fcfbfd;"/>
    <path clip-path="url(#p9f747e91a9)" d="M 601.085376 422.49297 
L 601.085376 422.49297 
L 601.085376 422.49297 
L 601.085376 422.49297 
z
" style="fill:#fcfbfd;stroke:#fcfbfd;"/>
    <path clip-path="url(#p9f747e91a9)" d="M 237.63971 391.536061 
L 237.63971 391.536061 
L 237.63971 391.536061 
L 237.63971 391.536061 
z
" style="fill:#fcfbfd;stroke:#fcfbfd;"/>
    <path clip-path="url(#p9f747e91a9)" d="M 403.2 388.8 
L 403.2 388.8 
L 403.2 388.8 
L 403.2 388.8 
z
" style="fill:#fcfbfd;stroke:#fcfbfd;"/>
    <path clip-path="url(#p9f747e91a9)" d="M 600.612118 386.063939 
L 600.612118 386.063939 
L 600.612118 386.063939 
L 600.612118 386.063939 
z
" style="fill:#fcfbfd;stroke:#fcfbfd;"/>
    <path clip-path="url(#p9f747e91a9)" d="M 237.166452 370.918418 
L 246.653285 355.10703 
L 237.166452 339.295642 
L 227.679619 355.10703 
z
" style="fill:#3f007d;stroke:#3f007d;"/>
    <path clip-path="url(#p9f747e91a9)" d="M 402.726742 352.370969 
L 402.726742 352.370969 
L 402.726742 352.370969 
L 402.726742 352.370969 
z
" style="fill:#fcfbfd;stroke:#fcfbfd;"/>
    <path clip-path="url(#p9f747e91a9)" d="M 568.287032 365.446297 
L 577.773865 349.634908 
L 568.287032 333.82352 
L 558.800199 349.634908 
z
" style="fill:#3f007d;stroke:#3f007d;"/>
    <path clip-path="url(#p9f747e91a9)" d="M 236.693194 318.677999 
L 236.693194 318.677999 
L 236.693194 318.677999 
L 236.693194 318.677999 
z
" style="fill:#fcfbfd;stroke:#fcfbfd;"/>
    <path clip-path="url(#p9f747e91a9)" d="M 370.401656 315.941938 
L 370.401656 315.941938 
L 370.401656 315.941938 
L 370.401656 315.941938 
z
" style="fill:#fcfbfd;stroke:#fcfbfd;"/>
    <path clip-path="url(#p9f747e91a9)" d="M 567.813774 313.205878 
L 567.813774 313.205878 
L 567.813774 313.205878 
L 567.813774 313.205878 
z
" style="fill:#fcfbfd;stroke:#fcfbfd;"/>
    <path clip-path="url(#p9f747e91a9)" d="M 369.928398 279.512907 
L 369.928398 279.512907 
L 369.928398 279.512907 
L 369.928398 279.512907 
z
" style="fill:#fcfbfd;stroke:#fcfbfd;"/>
    <path clip-path="url(#p9f747e91a9)" d="M 535.488688 276.776847 
L 535.488688 276.776847 
L 535.488688 276.776847 
L 535.488688 276.776847 
z
" style="fill:#fcfbfd;stroke:#fcfbfd;"/>
    <path clip-path="url(#p9f747e91a9)" d="M 203.89485 245.819937 
L 203.89485 245.819937 
L 203.89485 245.819937 
L 203.89485 245.819937 
z
" style="fill:#fcfbfd;stroke:#fcfbfd;"/>
    <path clip-path="url(#p9f747e91a9)" d="M 369.45514 243.083877 
L 369.45514 243.083877 
L 369.45514 243.083877 
L 369.45514 243.083877 
z
" style="fill:#fcfbfd;stroke:#fcfbfd;"/>
    <path clip-path="url(#p9f747e91a9)" d="M 535.01543 240.347816 
L 535.01543 240.347816 
L 535.01543 240.347816 
L 535.01543 240.347816 
z
" style="fill:#fcfbfd;stroke:#fcfbfd;"/>
    <path clip-path="url(#p9f747e91a9)" d="M 203.421592 209.390906 
L 203.421592 209.390906 
L 203.421592 209.390906 
L 203.421592 209.390906 
z
" style="fill:#fcfbfd;stroke:#fcfbfd;"/>
    <path clip-path="url(#p9f747e91a9)" d="M 368.981882 206.654846 
L 368.981882 206.654846 
L 368.981882 206.654846 
L 368.981882 206.654846 
z
" style="fill:#fcfbfd;stroke:#fcfbfd;"/>
    <path clip-path="url(#p9f747e91a9)" d="M 534.542172 203.918785 
L 534.542172 203.918785 
L 534.542172 203.918785 
L 534.542172 203.918785 
z
" style="fill:#fcfbfd;stroke:#fcfbfd;"/>
    <path clip-path="url(#p9f747e91a9)" d="M 202.948334 172.961876 
L 202.948334 172.961876 
L 202.948334 172.961876 
L 202.948334 172.961876 
z
" style="fill:#fcfbfd;stroke:#fcfbfd;"/>
    <path clip-path="url(#p9f747e91a9)" d="M 336.656796 186.026928 
L 346.137464 170.225815 
L 336.656796 154.424702 
L 327.176129 170.225815 
z
" style="fill:#3f007d;stroke:#3f007d;"/>
    <path clip-path="url(#p9f747e91a9)" d="M 534.068914 167.489754 
L 534.068914 167.489754 
L 534.068914 167.489754 
L 534.068914 167.489754 
z
" style="fill:#fcfbfd;stroke:#fcfbfd;"/>
    <path clip-path="url(#p9f747e91a9)" d="M 202.475076 136.532845 
L 202.475076 136.532845 
L 202.475076 136.532845 
L 202.475076 136.532845 
z
" style="fill:#fcfbfd;stroke:#fcfbfd;"/>
    <path clip-path="url(#p9f747e91a9)" d="M 336.183538 133.796784 
L 336.183538 133.796784 
L 336.183538 133.796784 
L 336.183538 133.796784 
z
" style="fill:#fcfbfd;stroke:#fcfbfd;"/>
    <path clip-path="url(#p9f747e91a9)" d="M 501.743828 146.311912 
L 510.894541 131.060723 
L 501.743828 115.809535 
L 492.593115 131.060723 
z
" style="fill:#4a1587;stroke:#4a1587;"/>
    <path clip-path="url(#p9f747e91a9)" d="M 533.595656 131.060723 
L 533.595656 131.060723 
L 533.595656 131.060723 
L 533.595656 131.060723 
z
" style="fill:#fcfbfd;stroke:#fcfbfd;"/>
    <path clip-path="url(#p9f747e91a9)" d="M 202.001818 100.103814 
L 202.001818 100.103814 
L 202.001818 100.103814 
L 202.001818 100.103814 
z
" style="fill:#fcfbfd;stroke:#fcfbfd;"/>
    <path clip-path="url(#p9f747e91a9)" d="M 335.71028 97.367753 
L 335.71028 97.367753 
L 335.71028 97.367753 
L 335.71028 97.367753 
z
" style="fill:#fcfbfd;stroke:#fcfbfd;"/>
    <path clip-path="url(#p9f747e91a9)" d="M 501.27057 94.631693 
L 501.27057 94.631693 
L 501.27057 94.631693 
L 501.27057 94.631693 
z
" style="fill:#fcfbfd;stroke:#fcfbfd;"/>
   </g>
   <g id="PathCollection_2">
    <path clip-path="url(#p9f747e91a9)" d="M 235.124623 692.25353 
C 236.861481 692.25353 238.527436 691.563469 239.75558 690.335325 
C 240.983724 689.107181 241.673785 687.441226 241.673785 685.704368 
C 241.673785 683.96751 240.983724 682.301555 239.75558 681.073411 
C 238.527436 679.845267 236.861481 679.155206 235.124623 679.155206 
C 233.387765 679.155206 231.72181 679.845267 230.493666 681.073411 
C 229.265522 682.301555 228.575461 683.96751 228.575461 685.704368 
C 228.575461 687.441226 229.265522 689.107181 230.493666 690.335325 
C 231.72181 691.563469 233.387765 692.25353 235.124623 692.25353 
z
" style="fill:#feecda;stroke:#feecda;"/>
    <path clip-path="url(#p9f747e91a9)" d="M 368.833085 690.027909 
C 370.705314 690.027909 372.501112 689.284065 373.824977 687.960199 
C 375.148842 686.636334 375.892687 684.840536 375.892687 682.968307 
C 375.892687 681.096079 375.148842 679.300281 373.824977 677.976416 
C 372.501112 676.65255 370.705314 675.908706 368.833085 675.908706 
C 366.960857 675.908706 365.165059 676.65255 363.841194 677.976416 
C 362.517328 679.300281 361.773484 681.096079 361.773484 682.968307 
C 361.773484 684.840536 362.517328 686.636334 363.841194 687.960199 
C 365.165059 689.284065 366.960857 690.027909 368.833085 690.027909 
z
" style="fill:#fee1c4;stroke:#fee1c4;"/>
    <path clip-path="url(#p9f747e91a9)" d="M 566.245203 686.737458 
C 567.970405 686.737458 569.62518 686.052028 570.845082 684.832126 
C 572.064984 683.612224 572.750414 681.957449 572.750414 680.232247 
C 572.750414 678.507045 572.064984 676.85227 570.845082 675.632368 
C 569.62518 674.412466 567.970405 673.727036 566.245203 673.727036 
C 564.520001 673.727036 562.865226 674.412466 561.645324 675.632368 
C 560.425422 676.85227 559.739992 678.507045 559.739992 680.232247 
C 559.739992 681.957449 560.425422 683.612224 561.645324 684.832126 
C 562.865226 686.052028 564.520001 686.737458 566.245203 686.737458 
z
" style="fill:#feeddc;stroke:#feeddc;"/>
    <path clip-path="url(#p9f747e91a9)" d="M 202.799537 656.2889 
C 204.659556 656.2889 206.443643 655.549907 207.758875 654.234675 
C 209.074107 652.919443 209.8131 651.135356 209.8131 649.275337 
C 209.8131 647.415319 209.074107 645.631231 207.758875 644.315999 
C 206.443643 643.000768 204.659556 642.261774 202.799537 642.261774 
C 200.939519 642.261774 199.155431 643.000768 197.8402 644.315999 
C 196.524968 645.631231 195.785975 647.415319 195.785975 649.275337 
C 195.785975 651.135356 196.524968 652.919443 197.8402 654.234675 
C 199.155431 655.549907 200.939519 656.2889 202.799537 656.2889 
z
" style="fill:#fee2c7;stroke:#fee2c7;"/>
    <path clip-path="url(#p9f747e91a9)" d="M 533.920117 650.875626 
C 535.795742 650.875626 537.594799 650.130432 538.921066 648.804165 
C 540.247334 647.477898 540.992527 645.678841 540.992527 643.803216 
C 540.992527 641.927591 540.247334 640.128534 538.921066 638.802267 
C 537.594799 637.476 535.795742 636.730806 533.920117 636.730806 
C 532.044492 636.730806 530.245435 637.476 528.919168 638.802267 
C 527.592901 640.128534 526.847707 641.927591 526.847707 643.803216 
C 526.847707 645.678841 527.592901 647.477898 528.919168 648.804165 
C 530.245435 650.130432 532.044492 650.875626 533.920117 650.875626 
z
" style="fill:#fee0c3;stroke:#fee0c3;"/>
    <path clip-path="url(#p9f747e91a9)" d="M 202.326279 619.259394 
C 204.02705 619.259394 205.658391 618.583671 206.861017 617.381044 
C 208.063644 616.178418 208.739367 614.547077 208.739367 612.846306 
C 208.739367 611.145536 208.063644 609.514195 206.861017 608.311569 
C 205.658391 607.108942 204.02705 606.433219 202.326279 606.433219 
C 200.625509 606.433219 198.994168 607.108942 197.791541 608.311569 
C 196.588915 609.514195 195.913191 611.145536 195.913191 612.846306 
C 195.913191 614.547077 196.588915 616.178418 197.791541 617.381044 
C 198.994168 618.583671 200.625509 619.259394 202.326279 619.259394 
z
" style="fill:#ffeede;stroke:#ffeede;"/>
    <path clip-path="url(#p9f747e91a9)" d="M 336.034742 618.695331 
C 338.311533 618.695331 340.495379 617.790752 342.105313 616.180817 
C 343.715248 614.570883 344.619826 612.387037 344.619826 610.110246 
C 344.619826 607.833455 343.715248 605.649609 342.105313 604.039674 
C 340.495379 602.42974 338.311533 601.525161 336.034742 601.525161 
C 333.75795 601.525161 331.574104 602.42974 329.96417 604.039674 
C 328.354236 605.649609 327.449657 607.833455 327.449657 610.110246 
C 327.449657 612.387037 328.354236 614.570883 329.96417 616.180817 
C 331.574104 617.790752 333.75795 618.695331 336.034742 618.695331 
z
" style="fill:#fda159;stroke:#fda159;"/>
    <path clip-path="url(#p9f747e91a9)" d="M 501.595032 615.071711 
C 503.636439 615.071711 505.594511 614.260651 507.038004 612.817158 
C 508.481497 611.373664 509.292557 609.415593 509.292557 607.374185 
C 509.292557 605.332777 508.481497 603.374706 507.038004 601.931213 
C 505.594511 600.487719 503.636439 599.67666 501.595032 599.67666 
C 499.553624 599.67666 497.595552 600.487719 496.152059 601.931213 
C 494.708566 603.374706 493.897506 605.332777 493.897506 607.374185 
C 493.897506 609.415593 494.708566 611.373664 496.152059 612.817158 
C 497.595552 614.260651 499.553624 615.071711 501.595032 615.071711 
z
" style="fill:#fdce9e;stroke:#fdce9e;"/>
    <path clip-path="url(#p9f747e91a9)" d="M 170.001194 583.266222 
C 171.817555 583.266222 173.559768 582.544574 174.84413 581.260212 
C 176.128492 579.97585 176.85014 578.233637 176.85014 576.417276 
C 176.85014 574.600914 176.128492 572.858701 174.84413 571.574339 
C 173.559768 570.289977 171.817555 569.568329 170.001194 569.568329 
C 168.184832 569.568329 166.442619 570.289977 165.158257 571.574339 
C 163.873895 572.858701 163.152247 574.600914 163.152247 576.417276 
C 163.152247 578.233637 163.873895 579.97585 165.158257 581.260212 
C 166.442619 582.544574 168.184832 583.266222 170.001194 583.266222 
z
" style="fill:#fee6cf;stroke:#fee6cf;"/>
    <path clip-path="url(#p9f747e91a9)" d="M 469.269946 577.365471 
C 470.972634 577.365471 472.605813 576.688986 473.809795 575.485004 
C 475.013777 574.281022 475.690262 572.647842 475.690262 570.945154 
C 475.690262 569.242466 475.013777 567.609287 473.809795 566.405305 
C 472.605813 565.201323 470.972634 564.524838 469.269946 564.524838 
C 467.567258 564.524838 465.934078 565.201323 464.730096 566.405305 
C 463.526114 567.609287 462.849629 569.242466 462.849629 570.945154 
C 462.849629 572.647842 463.526114 574.281022 464.730096 575.485004 
C 465.934078 576.688986 467.567258 577.365471 469.269946 577.365471 
z
" style="fill:#ffeede;stroke:#ffeede;"/>
    <path clip-path="url(#p9f747e91a9)" d="M 169.527935 546.679994 
C 171.302608 546.679994 173.004834 545.974909 174.259717 544.720026 
C 175.5146 543.465143 176.219685 541.762917 176.219685 539.988245 
C 176.219685 538.213572 175.5146 536.511347 174.259717 535.256463 
C 173.004834 534.00158 171.302608 533.296495 169.527935 533.296495 
C 167.753263 533.296495 166.051037 534.00158 164.796154 535.256463 
C 163.541271 536.511347 162.836186 538.213572 162.836186 539.988245 
C 162.836186 541.762917 163.541271 543.465143 164.796154 544.720026 
C 166.051037 545.974909 167.753263 546.679994 169.527935 546.679994 
z
" style="fill:#fee9d4;stroke:#fee9d4;"/>
    <path clip-path="url(#p9f747e91a9)" d="M 303.236398 545.304655 
C 305.371938 545.304655 307.420299 544.456196 308.930354 542.946141 
C 310.440409 541.436086 311.288869 539.387724 311.288869 537.252184 
C 311.288869 535.116644 310.440409 533.068282 308.930354 531.558227 
C 307.420299 530.048172 305.371938 529.199713 303.236398 529.199713 
C 301.100857 529.199713 299.052496 530.048172 297.542441 531.558227 
C 296.032386 533.068282 295.183927 535.116644 295.183927 537.252184 
C 295.183927 539.387724 296.032386 541.436086 297.542441 542.946141 
C 299.052496 544.456196 301.100857 545.304655 303.236398 545.304655 
z
" style="fill:#fdbd83;stroke:#fdbd83;"/>
    <path clip-path="url(#p9f747e91a9)" d="M 468.796688 541.85446 
C 470.742837 541.85446 472.60954 541.081247 473.985675 539.705111 
C 475.361811 538.328975 476.135024 536.462273 476.135024 534.516123 
C 476.135024 532.569974 475.361811 530.703271 473.985675 529.327136 
C 472.60954 527.951 470.742837 527.177787 468.796688 527.177787 
C 466.850538 527.177787 464.983836 527.951 463.6077 529.327136 
C 462.231564 530.703271 461.458351 532.569974 461.458351 534.516123 
C 461.458351 536.462273 462.231564 538.328975 463.6077 539.705111 
C 464.983836 541.081247 466.850538 541.85446 468.796688 541.85446 
z
" style="fill:#fdd9b4;stroke:#fdd9b4;"/>
    <path clip-path="url(#p9f747e91a9)" d="M 666.208805 542.960403 
C 669.173866 542.960403 672.017885 541.782371 674.1145 539.685757 
C 676.211114 537.589142 677.389145 534.745124 677.389145 531.780063 
C 677.389145 528.815002 676.211114 525.970983 674.1145 523.874369 
C 672.017885 521.777754 669.173866 520.599723 666.208805 520.599723 
C 663.243745 520.599723 660.399726 521.777754 658.303111 523.874369 
C 656.206497 525.970983 655.028465 528.815002 655.028465 531.780063 
C 655.028465 534.745124 656.206497 537.589142 658.303111 539.685757 
C 660.399726 541.782371 663.243745 542.960403 666.208805 542.960403 
z
" style="fill:#7f2704;stroke:#7f2704;"/>
    <path clip-path="url(#p9f747e91a9)" d="M 436.471602 504.734176 
C 438.234429 504.734176 439.925293 504.033798 441.1718 502.787291 
C 442.418307 501.540784 443.118686 499.84992 443.118686 498.087093 
C 443.118686 496.324265 442.418307 494.633402 441.1718 493.386894 
C 439.925293 492.140387 438.234429 491.440009 436.471602 491.440009 
C 434.708775 491.440009 433.017911 492.140387 431.771404 493.386894 
C 430.524897 494.633402 429.824518 496.324265 429.824518 498.087093 
C 429.824518 499.84992 430.524897 501.540784 431.771404 502.787291 
C 433.017911 504.033798 434.708775 504.734176 436.471602 504.734176 
z
" style="fill:#feead6;stroke:#feead6;"/>
    <path clip-path="url(#p9f747e91a9)" d="M 633.88372 502.262699 
C 635.716715 502.262699 637.474882 501.534442 638.771006 500.238318 
C 640.067129 498.942195 640.795386 497.184027 640.795386 495.351032 
C 640.795386 493.518036 640.067129 491.759869 638.771006 490.463745 
C 637.474882 489.167622 635.716715 488.439365 633.88372 488.439365 
C 632.050724 488.439365 630.292557 489.167622 628.996433 490.463745 
C 627.70031 491.759869 626.972053 493.518036 626.972053 495.351032 
C 626.972053 497.184027 627.70031 498.942195 628.996433 500.238318 
C 630.292557 501.534442 632.050724 502.262699 633.88372 502.262699 
z
" style="fill:#fee5cc;stroke:#fee5cc;"/>
    <path clip-path="url(#p9f747e91a9)" d="M 136.729592 476.909533 
C 139.323106 476.909533 141.810745 475.879119 143.644636 474.045228 
C 145.478528 472.211337 146.508942 469.723697 146.508942 467.130183 
C 146.508942 464.536669 145.478528 462.04903 143.644636 460.215138 
C 141.810745 458.381247 139.323106 457.350833 136.729592 457.350833 
C 134.136078 457.350833 131.648438 458.381247 129.814547 460.215138 
C 127.980655 462.04903 126.950241 464.536669 126.950241 467.130183 
C 126.950241 469.723697 127.980655 472.211337 129.814547 474.045228 
C 131.648438 475.879119 134.136078 476.909533 136.729592 476.909533 
z
" style="fill:#e85d0c;stroke:#e85d0c;"/>
    <path clip-path="url(#p9f747e91a9)" d="M 270.438054 471.861024 
C 272.418299 471.861024 274.317705 471.074264 275.71795 469.674019 
C 277.118195 468.273774 277.904955 466.374368 277.904955 464.394122 
C 277.904955 462.413877 277.118195 460.514471 275.71795 459.114226 
C 274.317705 457.713981 272.418299 456.927221 270.438054 456.927221 
C 268.457809 456.927221 266.558402 457.713981 265.158157 459.114226 
C 263.757913 460.514471 262.971153 462.413877 262.971153 464.394122 
C 262.971153 466.374368 263.757913 468.273774 265.158157 469.674019 
C 266.558402 471.074264 268.457809 471.861024 270.438054 471.861024 
z
" style="fill:#fdd5ad;stroke:#fdd5ad;"/>
    <path clip-path="url(#p9f747e91a9)" d="M 435.998344 468.858535 
C 437.907932 468.858535 439.739565 468.099848 441.089847 466.749565 
C 442.44013 465.399283 443.198817 463.56765 443.198817 461.658062 
C 443.198817 459.748474 442.44013 457.916841 441.089847 456.566558 
C 439.739565 455.216276 437.907932 454.457588 435.998344 454.457588 
C 434.088756 454.457588 432.257123 455.216276 430.90684 456.566558 
C 429.556558 457.916841 428.79787 459.748474 428.79787 461.658062 
C 428.79787 463.56765 429.556558 465.399283 430.90684 466.749565 
C 432.257123 468.099848 434.088756 468.858535 435.998344 468.858535 
z
" style="fill:#feddbc;stroke:#feddbc;"/>
    <path clip-path="url(#p9f747e91a9)" d="M 633.410462 465.77382 
C 635.227585 465.77382 636.970529 465.051869 638.255429 463.766969 
C 639.54033 462.482068 640.262281 460.739125 640.262281 458.922001 
C 640.262281 457.104877 639.54033 455.361934 638.255429 454.077033 
C 636.970529 452.792133 635.227585 452.070182 633.410462 452.070182 
C 631.593338 452.070182 629.850394 452.792133 628.565494 454.077033 
C 627.280593 455.361934 626.558642 457.104877 626.558642 458.922001 
C 626.558642 460.739125 627.280593 462.482068 628.565494 463.766969 
C 629.850394 465.051869 631.593338 465.77382 633.410462 465.77382 
z
" style="fill:#fee6cf;stroke:#fee6cf;"/>
    <path clip-path="url(#p9f747e91a9)" d="M 136.256334 437.085858 
C 137.949577 437.085858 139.573698 436.413125 140.771002 435.215821 
C 141.968307 434.018517 142.64104 432.394396 142.64104 430.701152 
C 142.64104 429.007908 141.968307 427.383788 140.771002 426.186483 
C 139.573698 424.989179 137.949577 424.316446 136.256334 424.316446 
C 134.56309 424.316446 132.938969 424.989179 131.741665 426.186483 
C 130.54436 427.383788 129.871628 429.007908 129.871628 430.701152 
C 129.871628 432.394396 130.54436 434.018517 131.741665 435.215821 
C 132.938969 436.413125 134.56309 437.085858 136.256334 437.085858 
z
" style="fill:#ffefdf;stroke:#ffefdf;"/>
    <path clip-path="url(#p9f747e91a9)" d="M 269.964796 434.584634 
C 271.720319 434.584634 273.404177 433.887157 274.645519 432.645815 
C 275.886861 431.404472 276.584338 429.720615 276.584338 427.965092 
C 276.584338 426.209568 275.886861 424.525711 274.645519 423.284368 
C 273.404177 422.043026 271.720319 421.345549 269.964796 421.345549 
C 268.209273 421.345549 266.525415 422.043026 265.284073 423.284368 
C 264.04273 424.525711 263.345254 426.209568 263.345254 427.965092 
C 263.345254 429.720615 264.04273 431.404472 265.284073 432.645815 
C 266.525415 433.887157 268.209273 434.584634 269.964796 434.584634 
z
" style="fill:#feebd7;stroke:#feebd7;"/>
    <path clip-path="url(#p9f747e91a9)" d="M 403.673258 431.682749 
C 405.384804 431.682749 407.02648 431.002745 408.236726 429.792499 
C 409.446972 428.582253 410.126976 426.940577 410.126976 425.229031 
C 410.126976 423.517485 409.446972 421.875809 408.236726 420.665563 
C 407.02648 419.455317 405.384804 418.775313 403.673258 418.775313 
C 401.961712 418.775313 400.320036 419.455317 399.10979 420.665563 
C 397.899544 421.875809 397.21954 423.517485 397.21954 425.229031 
C 397.21954 426.940577 397.899544 428.582253 399.10979 429.792499 
C 400.320036 431.002745 401.961712 431.682749 403.673258 431.682749 
z
" style="fill:#feeddc;stroke:#feeddc;"/>
    <path clip-path="url(#p9f747e91a9)" d="M 601.085376 430.085518 
C 603.098943 430.085518 605.030311 429.285519 606.454118 427.861712 
C 607.877925 426.437905 608.677923 424.506537 608.677923 422.49297 
C 608.677923 420.479403 607.877925 418.548035 606.454118 417.124228 
C 605.030311 415.700421 603.098943 414.900423 601.085376 414.900423 
C 599.071809 414.900423 597.140441 415.700421 595.716634 417.124228 
C 594.292827 418.548035 593.492828 420.479403 593.492828 422.49297 
C 593.492828 424.506537 594.292827 426.437905 595.716634 427.861712 
C 597.140441 429.285519 599.071809 430.085518 601.085376 430.085518 
z
" style="fill:#fdd1a4;stroke:#fdd1a4;"/>
    <path clip-path="url(#p9f747e91a9)" d="M 237.63971 397.893559 
C 239.325738 397.893559 240.942938 397.223693 242.13514 396.031491 
C 243.327342 394.839289 243.997209 393.222089 243.997209 391.536061 
C 243.997209 389.850032 243.327342 388.232832 242.13514 387.04063 
C 240.942938 385.848428 239.325738 385.178562 237.63971 385.178562 
C 235.953682 385.178562 234.336482 385.848428 233.14428 387.04063 
C 231.952078 388.232832 231.282212 389.850032 231.282212 391.536061 
C 231.282212 393.222089 231.952078 394.839289 233.14428 396.031491 
C 234.336482 397.223693 235.953682 397.893559 237.63971 397.893559 
z
" style="fill:#ffefe0;stroke:#ffefe0;"/>
    <path clip-path="url(#p9f747e91a9)" d="M 403.2 399.98034 
C 406.165061 399.98034 409.00908 398.802309 411.105694 396.705694 
C 413.202309 394.60908 414.38034 391.765061 414.38034 388.8 
C 414.38034 385.834939 413.202309 382.99092 411.105694 380.894306 
C 409.00908 378.797691 406.165061 377.61966 403.2 377.61966 
C 400.234939 377.61966 397.39092 378.797691 395.294306 380.894306 
C 393.197691 382.99092 392.01966 385.834939 392.01966 388.8 
C 392.01966 391.765061 393.197691 394.60908 395.294306 396.705694 
C 397.39092 398.802309 400.234939 399.98034 403.2 399.98034 
z
" style="fill:#7f2704;stroke:#7f2704;"/>
    <path clip-path="url(#p9f747e91a9)" d="M 600.612118 392.732565 
C 602.380658 392.732565 604.077001 392.029916 605.327548 390.77937 
C 606.578095 389.528823 607.280743 387.832479 607.280743 386.063939 
C 607.280743 384.295399 606.578095 382.599056 605.327548 381.348509 
C 604.077001 380.097962 602.380658 379.395314 600.612118 379.395314 
C 598.843578 379.395314 597.147234 380.097962 595.896687 381.348509 
C 594.646141 382.599056 593.943492 384.295399 593.943492 386.063939 
C 593.943492 387.832479 594.646141 389.528823 595.896687 390.77937 
C 597.147234 392.029916 598.843578 392.732565 600.612118 392.732565 
z
" style="fill:#feead5;stroke:#feead5;"/>
    <path clip-path="url(#p9f747e91a9)" d="M 237.166452 362.756204 
C 239.195037 362.756204 241.140809 361.950239 242.575235 360.515813 
C 244.009661 359.081387 244.815626 357.135615 244.815626 355.10703 
C 244.815626 353.078445 244.009661 351.132673 242.575235 349.698247 
C 241.140809 348.263821 239.195037 347.457856 237.166452 347.457856 
C 235.137867 347.457856 233.192095 348.263821 231.757669 349.698247 
C 230.323243 351.132673 229.517278 353.078445 229.517278 355.10703 
C 229.517278 357.135615 230.323243 359.081387 231.757669 360.515813 
C 233.192095 361.950239 235.137867 362.756204 237.166452 362.756204 
z
" style="fill:#fdd0a2;stroke:#fdd0a2;"/>
    <path clip-path="url(#p9f747e91a9)" d="M 402.726742 358.904333 
C 404.45941 358.904333 406.121346 358.215936 407.346528 356.990755 
C 408.571709 355.765573 409.260105 354.103637 409.260105 352.370969 
C 409.260105 350.638301 408.571709 348.976365 407.346528 347.751184 
C 406.121346 346.526002 404.45941 345.837606 402.726742 345.837606 
C 400.994074 345.837606 399.332138 346.526002 398.106956 347.751184 
C 396.881775 348.976365 396.193378 350.638301 396.193378 352.370969 
C 396.193378 354.103637 396.881775 355.765573 398.106956 356.990755 
C 399.332138 358.215936 400.994074 358.904333 402.726742 358.904333 
z
" style="fill:#feecda;stroke:#feecda;"/>
    <path clip-path="url(#p9f747e91a9)" d="M 568.287032 356.926967 
C 570.220908 356.926967 572.075839 356.158629 573.443296 354.791172 
C 574.810753 353.423715 575.57909 351.568785 575.57909 349.634908 
C 575.57909 347.701032 574.810753 345.846102 573.443296 344.478645 
C 572.075839 343.111187 570.220908 342.34285 568.287032 342.34285 
C 566.353155 342.34285 564.498225 343.111187 563.130768 344.478645 
C 561.763311 345.846102 560.994974 347.701032 560.994974 349.634908 
C 560.994974 351.568785 561.763311 353.423715 563.130768 354.791172 
C 564.498225 356.158629 566.353155 356.926967 568.287032 356.926967 
z
" style="fill:#fddab6;stroke:#fddab6;"/>
    <path clip-path="url(#p9f747e91a9)" d="M 236.693194 325.54015 
C 238.513058 325.54015 240.258629 324.81711 241.545467 323.530273 
C 242.832305 322.243435 243.555345 320.497863 243.555345 318.677999 
C 243.555345 316.858135 242.832305 315.112563 241.545467 313.825725 
C 240.258629 312.538887 238.513058 311.815848 236.693194 311.815848 
C 234.87333 311.815848 233.127758 312.538887 231.84092 313.825725 
C 230.554082 315.112563 229.831043 316.858135 229.831043 318.677999 
C 229.831043 320.497863 230.554082 322.243435 231.84092 323.530273 
C 233.127758 324.81711 234.87333 325.54015 236.693194 325.54015 
z
" style="fill:#fee6cf;stroke:#fee6cf;"/>
    <path clip-path="url(#p9f747e91a9)" d="M 370.401656 322.533311 
C 372.149709 322.533311 373.8264 321.838802 375.06246 320.602742 
C 376.29852 319.366683 376.993028 317.689991 376.993028 315.941938 
C 376.993028 314.193886 376.29852 312.517194 375.06246 311.281134 
C 373.8264 310.045075 372.149709 309.350566 370.401656 309.350566 
C 368.653604 309.350566 366.976912 310.045075 365.740852 311.281134 
C 364.504793 312.517194 363.810284 314.193886 363.810284 315.941938 
C 363.810284 317.689991 364.504793 319.366683 365.740852 320.602742 
C 366.976912 321.838802 368.653604 322.533311 370.401656 322.533311 
z
" style="fill:#feebd8;stroke:#feebd8;"/>
    <path clip-path="url(#p9f747e91a9)" d="M 567.813774 320.263602 
C 569.685504 320.263602 571.480825 319.519955 572.804338 318.196442 
C 574.127852 316.872929 574.871498 315.077608 574.871498 313.205878 
C 574.871498 311.334147 574.127852 309.538826 572.804338 308.215313 
C 571.480825 306.8918 569.685504 306.148153 567.813774 306.148153 
C 565.942044 306.148153 564.146722 306.8918 562.823209 308.215313 
C 561.499696 309.538826 560.75605 311.334147 560.75605 313.205878 
C 560.75605 315.077608 561.499696 316.872929 562.823209 318.196442 
C 564.146722 319.519955 565.942044 320.263602 567.813774 320.263602 
z
" style="fill:#fee1c4;stroke:#fee1c4;"/>
    <path clip-path="url(#p9f747e91a9)" d="M 369.928398 287.545913 
C 372.058776 287.545913 374.102186 286.699504 375.60859 285.1931 
C 377.114995 283.686695 377.961403 281.643285 377.961403 279.512907 
C 377.961403 277.38253 377.114995 275.33912 375.60859 273.832715 
C 374.102186 272.32631 372.058776 271.479902 369.928398 271.479902 
C 367.79802 271.479902 365.75461 272.32631 364.248206 273.832715 
C 362.741801 275.33912 361.895393 277.38253 361.895393 279.512907 
C 361.895393 281.643285 362.741801 283.686695 364.248206 285.1931 
C 365.75461 286.699504 367.79802 287.545913 369.928398 287.545913 
z
" style="fill:#fdbe84;stroke:#fdbe84;"/>
    <path clip-path="url(#p9f747e91a9)" d="M 535.488688 283.300826 
C 537.218867 283.300826 538.878416 282.613418 540.101838 281.389996 
C 541.325259 280.166575 542.012667 278.507026 542.012667 276.776847 
C 542.012667 275.046667 541.325259 273.387119 540.101838 272.163697 
C 538.878416 270.940276 537.218867 270.252868 535.488688 270.252868 
C 533.758509 270.252868 532.09896 270.940276 530.875538 272.163697 
C 529.652117 273.387119 528.964709 275.046667 528.964709 276.776847 
C 528.964709 278.507026 529.652117 280.166575 530.875538 281.389996 
C 532.09896 282.613418 533.758509 283.300826 535.488688 283.300826 
z
" style="fill:#feeddb;stroke:#feeddb;"/>
    <path clip-path="url(#p9f747e91a9)" d="M 203.89485 252.221372 
C 205.59253 252.221372 207.220906 251.546876 208.421348 250.346435 
C 209.621789 249.145994 210.296284 247.517617 210.296284 245.819937 
C 210.296284 244.122257 209.621789 242.493881 208.421348 241.29344 
C 207.220906 240.092999 205.59253 239.418503 203.89485 239.418503 
C 202.19717 239.418503 200.568794 240.092999 199.368353 241.29344 
C 198.167911 242.493881 197.493416 244.122257 197.493416 245.819937 
C 197.493416 247.517617 198.167911 249.145994 199.368353 250.346435 
C 200.568794 251.546876 202.19717 252.221372 203.89485 252.221372 
z
" style="fill:#ffeede;stroke:#ffeede;"/>
    <path clip-path="url(#p9f747e91a9)" d="M 369.45514 250.0761 
C 371.309499 250.0761 373.088159 249.339355 374.399389 248.028125 
C 375.710619 246.716895 376.447363 244.938236 376.447363 243.083877 
C 376.447363 241.229517 375.710619 239.450858 374.399389 238.139628 
C 373.088159 236.828398 371.309499 236.091653 369.45514 236.091653 
C 367.600781 236.091653 365.822121 236.828398 364.510891 238.139628 
C 363.199661 239.450858 362.462917 241.229517 362.462917 243.083877 
C 362.462917 244.938236 363.199661 246.716895 364.510891 248.028125 
C 365.822121 249.339355 367.600781 250.0761 369.45514 250.0761 
z
" style="fill:#fee3c8;stroke:#fee3c8;"/>
    <path clip-path="url(#p9f747e91a9)" d="M 535.01543 247.783223 
C 536.987323 247.783223 538.878718 246.999782 540.273057 245.605443 
C 541.667396 244.211104 542.450838 242.319709 542.450838 240.347816 
C 542.450838 238.375923 541.667396 236.484528 540.273057 235.090189 
C 538.878718 233.69585 536.987323 232.912408 535.01543 232.912408 
C 533.043537 232.912408 531.152142 233.69585 529.757803 235.090189 
C 528.363464 236.484528 527.580022 238.375923 527.580022 240.347816 
C 527.580022 242.319709 528.363464 244.211104 529.757803 245.605443 
C 531.152142 246.999782 533.043537 247.783223 535.01543 247.783223 
z
" style="fill:#fdd6ae;stroke:#fdd6ae;"/>
    <path clip-path="url(#p9f747e91a9)" d="M 203.421592 216.372086 
C 205.273022 216.372086 207.048872 215.636505 208.358031 214.327346 
C 209.667191 213.018187 210.402772 211.242337 210.402772 209.390906 
C 210.402772 207.539476 209.667191 205.763626 208.358031 204.454467 
C 207.048872 203.145308 205.273022 202.409727 203.421592 202.409727 
C 201.570162 202.409727 199.794312 203.145308 198.485153 204.454467 
C 197.175993 205.763626 196.440412 207.539476 196.440412 209.390906 
C 196.440412 211.242337 197.175993 213.018187 198.485153 214.327346 
C 199.794312 215.636505 201.570162 216.372086 203.421592 216.372086 
z
" style="fill:#fee3c8;stroke:#fee3c8;"/>
    <path clip-path="url(#p9f747e91a9)" d="M 368.981882 213.061783 
C 370.681022 213.061783 372.310798 212.386708 373.512271 211.185234 
C 374.713744 209.983761 375.388819 208.353985 375.388819 206.654846 
C 375.388819 204.955706 374.713744 203.32593 373.512271 202.124457 
C 372.310798 200.922984 370.681022 200.247909 368.981882 200.247909 
C 367.282742 200.247909 365.652966 200.922984 364.451493 202.124457 
C 363.25002 203.32593 362.574945 204.955706 362.574945 206.654846 
C 362.574945 208.353985 363.25002 209.983761 364.451493 211.185234 
C 365.652966 212.386708 367.282742 213.061783 368.981882 213.061783 
z
" style="fill:#ffeede;stroke:#ffeede;"/>
    <path clip-path="url(#p9f747e91a9)" d="M 534.542172 211.424442 
C 536.532696 211.424442 538.44196 210.633599 539.849473 209.226086 
C 541.256986 207.818573 542.047829 205.909309 542.047829 203.918785 
C 542.047829 201.928261 541.256986 200.018997 539.849473 198.611484 
C 538.44196 197.203971 536.532696 196.413128 534.542172 196.413128 
C 532.551648 196.413128 530.642383 197.203971 529.234871 198.611484 
C 527.827358 200.018997 527.036515 201.928261 527.036515 203.918785 
C 527.036515 205.909309 527.827358 207.818573 529.234871 209.226086 
C 530.642383 210.633599 532.551648 211.424442 534.542172 211.424442 
z
" style="fill:#fdd4aa;stroke:#fdd4aa;"/>
    <path clip-path="url(#p9f747e91a9)" d="M 202.948334 181.372348 
C 205.178817 181.372348 207.318246 180.486167 208.895436 178.908978 
C 210.472626 177.331788 211.358806 175.192359 211.358806 172.961876 
C 211.358806 170.731392 210.472626 168.591964 208.895436 167.014774 
C 207.318246 165.437584 205.178817 164.551403 202.948334 164.551403 
C 200.717851 164.551403 198.578422 165.437584 197.001232 167.014774 
C 195.424042 168.591964 194.537862 170.731392 194.537862 172.961876 
C 194.537862 175.192359 195.424042 177.331788 197.001232 178.908978 
C 198.578422 180.486167 200.717851 181.372348 202.948334 181.372348 
z
" style="fill:#fdab66;stroke:#fdab66;"/>
    <path clip-path="url(#p9f747e91a9)" d="M 336.656796 176.556083 
C 338.335603 176.556083 339.945876 175.889086 341.132972 174.70199 
C 342.320067 173.514895 342.987064 171.904622 342.987064 170.225815 
C 342.987064 168.547008 342.320067 166.936735 341.132972 165.749639 
C 339.945876 164.562544 338.335603 163.895547 336.656796 163.895547 
C 334.977989 163.895547 333.367716 164.562544 332.180621 165.749639 
C 330.993525 166.936735 330.326528 168.547008 330.326528 170.225815 
C 330.326528 171.904622 330.993525 173.514895 332.180621 174.70199 
C 333.367716 175.889086 334.977989 176.556083 336.656796 176.556083 
z
" style="fill:#fff0e1;stroke:#fff0e1;"/>
    <path clip-path="url(#p9f747e91a9)" d="M 534.068914 174.224504 
C 535.85499 174.224504 537.568154 173.514888 538.831101 172.251942 
C 540.094048 170.988995 540.803664 169.275831 540.803664 167.489754 
C 540.803664 165.703678 540.094048 163.990514 538.831101 162.727567 
C 537.568154 161.46462 535.85499 160.755004 534.068914 160.755004 
C 532.282837 160.755004 530.569673 161.46462 529.306727 162.727567 
C 528.04378 163.990514 527.334164 165.703678 527.334164 167.489754 
C 527.334164 169.275831 528.04378 170.988995 529.306727 172.251942 
C 530.569673 173.514888 532.282837 174.224504 534.068914 174.224504 
z
" style="fill:#fee9d3;stroke:#fee9d3;"/>
    <path clip-path="url(#p9f747e91a9)" d="M 202.475076 143.949873 
C 204.442095 143.949873 206.328814 143.168368 207.719707 141.777475 
C 209.110599 140.386583 209.892104 138.499864 209.892104 136.532845 
C 209.892104 134.565826 209.110599 132.679106 207.719707 131.288214 
C 206.328814 129.897322 204.442095 129.115817 202.475076 129.115817 
C 200.508057 129.115817 198.621338 129.897322 197.230445 131.288214 
C 195.839553 132.679106 195.058048 134.565826 195.058048 136.532845 
C 195.058048 138.499864 195.839553 140.386583 197.230445 141.777475 
C 198.621338 143.168368 200.508057 143.949873 202.475076 143.949873 
z
" style="fill:#fdd7af;stroke:#fdd7af;"/>
    <path clip-path="url(#p9f747e91a9)" d="M 336.183538 140.439724 
C 337.945266 140.439724 339.635076 139.739782 340.880806 138.494052 
C 342.126536 137.248322 342.826478 135.558512 342.826478 133.796784 
C 342.826478 132.035056 342.126536 130.345246 340.880806 129.099516 
C 339.635076 127.853786 337.945266 127.153844 336.183538 127.153844 
C 334.42181 127.153844 332.732 127.853786 331.48627 129.099516 
C 330.24054 130.345246 329.540598 132.035056 329.540598 133.796784 
C 329.540598 135.558512 330.24054 137.248322 331.48627 138.494052 
C 332.732 139.739782 334.42181 140.439724 336.183538 140.439724 
z
" style="fill:#feead6;stroke:#feead6;"/>
    <path clip-path="url(#p9f747e91a9)" d="M 501.743828 137.405508 
C 503.426485 137.405508 505.04045 136.736981 506.230268 135.547164 
C 507.420086 134.357346 508.088613 132.74338 508.088613 131.060723 
C 508.088613 129.378067 507.420086 127.764101 506.230268 126.574283 
C 505.04045 125.384465 503.426485 124.715939 501.743828 124.715939 
C 500.061172 124.715939 498.447206 125.384465 497.257388 126.574283 
C 496.06757 127.764101 495.399043 129.378067 495.399043 131.060723 
C 495.399043 132.74338 496.06757 134.357346 497.257388 135.547164 
C 498.447206 136.736981 500.061172 137.405508 501.743828 137.405508 
z
" style="fill:#ffefe0;stroke:#ffefe0;"/>
    <path clip-path="url(#p9f747e91a9)" d="M 533.595656 137.45594 
C 535.291687 137.45594 536.918482 136.7821 538.117757 135.582825 
C 539.317032 134.383549 539.990873 132.756755 539.990873 131.060723 
C 539.990873 129.364692 539.317032 127.737897 538.117757 126.538622 
C 536.918482 125.339347 535.291687 124.665507 533.595656 124.665507 
C 531.899624 124.665507 530.27283 125.339347 529.073555 126.538622 
C 527.874279 127.737897 527.200439 129.364692 527.200439 131.060723 
C 527.200439 132.756755 527.874279 134.383549 529.073555 135.582825 
C 530.27283 136.7821 531.899624 137.45594 533.595656 137.45594 
z
" style="fill:#ffefdf;stroke:#ffefdf;"/>
    <path clip-path="url(#p9f747e91a9)" d="M 202.001818 107.025992 
C 203.837601 107.025992 205.598442 106.296628 206.896537 104.998533 
C 208.194632 103.700438 208.923996 101.939597 208.923996 100.103814 
C 208.923996 98.268031 208.194632 96.507189 206.896537 95.209095 
C 205.598442 93.911 203.837601 93.181635 202.001818 93.181635 
C 200.166035 93.181635 198.405193 93.911 197.107099 95.209095 
C 195.809004 96.507189 195.079639 98.268031 195.079639 100.103814 
C 195.079639 101.939597 195.809004 103.700438 197.107099 104.998533 
C 198.405193 106.296628 200.166035 107.025992 202.001818 107.025992 
z
" style="fill:#fee5cb;stroke:#fee5cb;"/>
    <path clip-path="url(#p9f747e91a9)" d="M 335.71028 104.339981 
C 337.559336 104.339981 339.332909 103.605343 340.64039 102.297863 
C 341.94787 100.990382 342.682508 99.21681 342.682508 97.367753 
C 342.682508 95.518697 341.94787 93.745124 340.64039 92.437644 
C 339.332909 91.130163 337.559336 90.395526 335.71028 90.395526 
C 333.861224 90.395526 332.087651 91.130163 330.780171 92.437644 
C 329.47269 93.745124 328.738052 95.518697 328.738052 97.367753 
C 328.738052 99.21681 329.47269 100.990382 330.780171 102.297863 
C 332.087651 103.605343 333.861224 104.339981 335.71028 104.339981 
z
" style="fill:#fee3c8;stroke:#fee3c8;"/>
    <path clip-path="url(#p9f747e91a9)" d="M 501.27057 101.203588 
C 503.013457 101.203588 504.685195 100.511132 505.917602 99.278724 
C 507.150009 98.046317 507.842465 96.37458 507.842465 94.631693 
C 507.842465 92.888805 507.150009 91.217068 505.917602 89.984661 
C 504.685195 88.752253 503.013457 88.059797 501.27057 88.059797 
C 499.527683 88.059797 497.855945 88.752253 496.623538 89.984661 
C 495.391131 91.217068 494.698675 92.888805 494.698675 94.631693 
C 494.698675 96.37458 495.391131 98.046317 496.623538 99.278724 
C 497.855945 100.511132 499.527683 101.203588 501.27057 101.203588 
z
" style="fill:#feecd9;stroke:#feecd9;"/>
   </g>
   <g id="line2d_11">
    <defs>
     <path d="M -2.5 0 
L 2.5 0 
M 0 2.5 
L 0 -2.5 
" id="mc63383f901" style="stroke:#0000ff;"/>
    </defs>
    <g clip-path="url(#p9f747e91a9)">
     <use style="fill:#0000ff;stroke:#0000ff;" x="403.2" xlink:href="#mc63383f901" y="388.8"/>
    </g>
   </g>
   <g id="patch_3">
    <path d="M 108 720.9 
L 108 56.7 
" style="fill:none;stroke:#000000;stroke-linecap:square;stroke-linejoin:miter;stroke-width:0.8;"/>
   </g>
   <g id="patch_4">
    <path d="M 698.4 720.9 
L 698.4 56.7 
" style="fill:none;stroke:#000000;stroke-linecap:square;stroke-linejoin:miter;stroke-width:0.8;"/>
   </g>
   <g id="patch_5">
    <path d="M 108 720.9 
L 698.4 720.9 
" style="fill:none;stroke:#000000;stroke-linecap:square;stroke-linejoin:miter;stroke-width:0.8;"/>
   </g>
   <g id="patch_6">
    <path d="M 108 56.7 
L 698.4 56.7 
" style="fill:none;stroke:#000000;stroke-linecap:square;stroke-linejoin:miter;stroke-width:0.8;"/>
   </g>
   <g id="text_13">
    <!-- (-8,-2,2) -->
    <g style="fill:#796eb2;" transform="translate(106.382717 460.488183)scale(0.15 -0.15)">
     <defs>
      <path d="M 31 75.875 
Q 24.46875 64.65625 21.28125 53.65625 
Q 18.109375 42.671875 18.109375 31.390625 
Q 18.109375 20.125 21.3125 9.0625 
Q 24.515625 -2 31 -13.1875 
L 23.1875 -13.1875 
Q 15.875 -1.703125 12.234375 9.375 
Q 8.59375 20.453125 8.59375 31.390625 
Q 8.59375 42.28125 12.203125 53.3125 
Q 15.828125 64.359375 23.1875 75.875 
z
" id="DejaVuSans-40"/>
      <path d="M 4.890625 31.390625 
L 31.203125 31.390625 
L 31.203125 23.390625 
L 4.890625 23.390625 
z
" id="DejaVuSans-45"/>
      <path d="M 31.78125 34.625 
Q 24.75 34.625 20.71875 30.859375 
Q 16.703125 27.09375 16.703125 20.515625 
Q 16.703125 13.921875 20.71875 10.15625 
Q 24.75 6.390625 31.78125 6.390625 
Q 38.8125 6.390625 42.859375 10.171875 
Q 46.921875 13.96875 46.921875 20.515625 
Q 46.921875 27.09375 42.890625 30.859375 
Q 38.875 34.625 31.78125 34.625 
z
M 21.921875 38.8125 
Q 15.578125 40.375 12.03125 44.71875 
Q 8.5 49.078125 8.5 55.328125 
Q 8.5 64.0625 14.71875 69.140625 
Q 20.953125 74.21875 31.78125 74.21875 
Q 42.671875 74.21875 48.875 69.140625 
Q 55.078125 64.0625 55.078125 55.328125 
Q 55.078125 49.078125 51.53125 44.71875 
Q 48 40.375 41.703125 38.8125 
Q 48.828125 37.15625 52.796875 32.3125 
Q 56.78125 27.484375 56.78125 20.515625 
Q 56.78125 9.90625 50.3125 4.234375 
Q 43.84375 -1.421875 31.78125 -1.421875 
Q 19.734375 -1.421875 13.25 4.234375 
Q 6.78125 9.90625 6.78125 20.515625 
Q 6.78125 27.484375 10.78125 32.3125 
Q 14.796875 37.15625 21.921875 38.8125 
z
M 18.3125 54.390625 
Q 18.3125 48.734375 21.84375 45.5625 
Q 25.390625 42.390625 31.78125 42.390625 
Q 38.140625 42.390625 41.71875 45.5625 
Q 45.3125 48.734375 45.3125 54.390625 
Q 45.3125 60.0625 41.71875 63.234375 
Q 38.140625 66.40625 31.78125 66.40625 
Q 25.390625 66.40625 21.84375 63.234375 
Q 18.3125 60.0625 18.3125 54.390625 
z
" id="DejaVuSans-56"/>
      <path d="M 11.71875 12.40625 
L 22.015625 12.40625 
L 22.015625 4 
L 14.015625 -11.625 
L 7.71875 -11.625 
L 11.71875 4 
z
" id="DejaVuSans-44"/>
      <path d="M 8.015625 75.875 
L 15.828125 75.875 
Q 23.140625 64.359375 26.78125 53.3125 
Q 30.421875 42.28125 30.421875 31.390625 
Q 30.421875 20.453125 26.78125 9.375 
Q 23.140625 -1.703125 15.828125 -13.1875 
L 8.015625 -13.1875 
Q 14.5 -2 17.703125 9.0625 
Q 20.90625 20.125 20.90625 31.390625 
Q 20.90625 42.671875 17.703125 53.65625 
Q 14.5 64.65625 8.015625 75.875 
z
" id="DejaVuSans-41"/>
     </defs>
     <use xlink:href="#DejaVuSans-40"/>
     <use x="39.013672" xlink:href="#DejaVuSans-45"/>
     <use x="75.097656" xlink:href="#DejaVuSans-56"/>
     <use x="138.720703" xlink:href="#DejaVuSans-44"/>
     <use x="170.507812" xlink:href="#DejaVuSans-45"/>
     <use x="206.591797" xlink:href="#DejaVuSans-50"/>
     <use x="270.214844" xlink:href="#DejaVuSans-44"/>
     <use x="302.001953" xlink:href="#DejaVuSans-50"/>
     <use x="365.625" xlink:href="#DejaVuSans-41"/>
    </g>
   </g>
   <g id="text_14">
    <!-- (-5,1,1) -->
    <g style="fill:#796eb2;" transform="translate(209.525436 348.46503)scale(0.15 -0.15)">
     <defs>
      <path d="M 10.796875 72.90625 
L 49.515625 72.90625 
L 49.515625 64.59375 
L 19.828125 64.59375 
L 19.828125 46.734375 
Q 21.96875 47.46875 24.109375 47.828125 
Q 26.265625 48.1875 28.421875 48.1875 
Q 40.625 48.1875 47.75 41.5 
Q 54.890625 34.8125 54.890625 23.390625 
Q 54.890625 11.625 47.5625 5.09375 
Q 40.234375 -1.421875 26.90625 -1.421875 
Q 22.3125 -1.421875 17.546875 -0.640625 
Q 12.796875 0.140625 7.71875 1.703125 
L 7.71875 11.625 
Q 12.109375 9.234375 16.796875 8.0625 
Q 21.484375 6.890625 26.703125 6.890625 
Q 35.15625 6.890625 40.078125 11.328125 
Q 45.015625 15.765625 45.015625 23.390625 
Q 45.015625 31 40.078125 35.4375 
Q 35.15625 39.890625 26.703125 39.890625 
Q 22.75 39.890625 18.8125 39.015625 
Q 14.890625 38.140625 10.796875 36.28125 
z
" id="DejaVuSans-53"/>
     </defs>
     <use xlink:href="#DejaVuSans-40"/>
     <use x="39.013672" xlink:href="#DejaVuSans-45"/>
     <use x="75.097656" xlink:href="#DejaVuSans-53"/>
     <use x="138.720703" xlink:href="#DejaVuSans-44"/>
     <use x="170.507812" xlink:href="#DejaVuSans-49"/>
     <use x="234.130859" xlink:href="#DejaVuSans-44"/>
     <use x="265.917969" xlink:href="#DejaVuSans-49"/>
     <use x="329.541016" xlink:href="#DejaVuSans-41"/>
    </g>
   </g>
   <g id="text_15">
    <!-- (5,1,-1) -->
    <g style="fill:#796eb2;" transform="translate(540.646016 342.992908)scale(0.15 -0.15)">
     <use xlink:href="#DejaVuSans-40"/>
     <use x="39.013672" xlink:href="#DejaVuSans-53"/>
     <use x="102.636719" xlink:href="#DejaVuSans-44"/>
     <use x="134.423828" xlink:href="#DejaVuSans-49"/>
     <use x="198.046875" xlink:href="#DejaVuSans-44"/>
     <use x="229.833984" xlink:href="#DejaVuSans-45"/>
     <use x="265.917969" xlink:href="#DejaVuSans-49"/>
     <use x="329.541016" xlink:href="#DejaVuSans-41"/>
    </g>
   </g>
  </g>
 </g>
 <defs>
  <clipPath id="p9f747e91a9">
   <rect height="664.2" width="590.4" x="108" y="56.7"/>
  </clipPath>
 </defs>
</svg>
