<?xml version="1.0" encoding="utf-8" standalone="no"?>
<!DOCTYPE svg PUBLIC "-//W3C//DTD SVG 1.1//EN"
  "http://www.w3.org/Graphics/SVG/1.1/DTD/svg11.dtd">
<!-- Created with matplotlib (https://matplotlib.org/) -->
<svg height="810pt" version="1.1" viewBox="0 0 720 810" width="720pt" xmlns="http://www.w3.org/2000/svg" xmlns:xlink="http://www.w3.org/1999/xlink">
 <metadata>
  <rdf:RDF xmlns:cc="http://creativecommons.org/ns#" xmlns:dc="http://purl.org/dc/elements/1.1/" xmlns:rdf="http://www.w3.org/1999/02/22-rdf-syntax-ns#">
   <cc:Work>
    <dc:type rdf:resource="http://purl.org/dc/dcmitype/StillImage"/>
    <dc:date>2021-07-08T13:19:58.681134</dc:date>
    <dc:format>image/svg+xml</dc:format>
    <dc:creator>
     <cc:Agent>
      <dc:title>Matplotlib v3.3.1, https://matplotlib.org/</dc:title>
     </cc:Agent>
    </dc:creator>
   </cc:Work>
  </rdf:RDF>
 </metadata>
 <defs>
  <style type="text/css">*{stroke-linecap:butt;stroke-linejoin:round;}</style>
 </defs>
 <g id="figure_1">
  <g id="patch_1">
   <path d="M 0 810 
L 720 810 
L 720 0 
L 0 0 
z
" style="fill:#ffffff;"/>
  </g>
  <g id="axes_1">
   <g id="patch_2">
    <path d="M 108 720.9 
L 698.4 720.9 
L 698.4 56.7 
L 108 56.7 
z
" style="fill:#ffffff;"/>
   </g>
   <g id="matplotlib.axis_1">
    <g id="xtick_1">
     <g id="line2d_1">
      <defs>
       <path d="M 0 0 
L 0 3.5 
" id="maae7f205a3" style="stroke:#000000;stroke-width:0.8;"/>
      </defs>
      <g>
       <use style="stroke:#000000;stroke-width:0.8;" x="167.04" xlink:href="#maae7f205a3" y="720.9"/>
      </g>
     </g>
     <g id="text_1">
      <!-- −2 -->
      <g transform="translate(155.983359 739.297656)scale(0.15 -0.15)">
       <defs>
        <path d="M 10.59375 35.5 
L 73.1875 35.5 
L 73.1875 27.203125 
L 10.59375 27.203125 
z
" id="DejaVuSans-8722"/>
        <path d="M 19.1875 8.296875 
L 53.609375 8.296875 
L 53.609375 0 
L 7.328125 0 
L 7.328125 8.296875 
Q 12.9375 14.109375 22.625 23.890625 
Q 32.328125 33.6875 34.8125 36.53125 
Q 39.546875 41.84375 41.421875 45.53125 
Q 43.3125 49.21875 43.3125 52.78125 
Q 43.3125 58.59375 39.234375 62.25 
Q 35.15625 65.921875 28.609375 65.921875 
Q 23.96875 65.921875 18.8125 64.3125 
Q 13.671875 62.703125 7.8125 59.421875 
L 7.8125 69.390625 
Q 13.765625 71.78125 18.9375 73 
Q 24.125 74.21875 28.421875 74.21875 
Q 39.75 74.21875 46.484375 68.546875 
Q 53.21875 62.890625 53.21875 53.421875 
Q 53.21875 48.921875 51.53125 44.890625 
Q 49.859375 40.875 45.40625 35.40625 
Q 44.1875 33.984375 37.640625 27.21875 
Q 31.109375 20.453125 19.1875 8.296875 
z
" id="DejaVuSans-50"/>
       </defs>
       <use xlink:href="#DejaVuSans-8722"/>
       <use x="83.789062" xlink:href="#DejaVuSans-50"/>
      </g>
     </g>
    </g>
    <g id="xtick_2">
     <g id="line2d_2">
      <g>
       <use style="stroke:#000000;stroke-width:0.8;" x="285.12" xlink:href="#maae7f205a3" y="720.9"/>
      </g>
     </g>
     <g id="text_2">
      <!-- −1 -->
      <g transform="translate(274.063359 739.297656)scale(0.15 -0.15)">
       <defs>
        <path d="M 12.40625 8.296875 
L 28.515625 8.296875 
L 28.515625 63.921875 
L 10.984375 60.40625 
L 10.984375 69.390625 
L 28.421875 72.90625 
L 38.28125 72.90625 
L 38.28125 8.296875 
L 54.390625 8.296875 
L 54.390625 0 
L 12.40625 0 
z
" id="DejaVuSans-49"/>
       </defs>
       <use xlink:href="#DejaVuSans-8722"/>
       <use x="83.789062" xlink:href="#DejaVuSans-49"/>
      </g>
     </g>
    </g>
    <g id="xtick_3">
     <g id="line2d_3">
      <g>
       <use style="stroke:#000000;stroke-width:0.8;" x="403.2" xlink:href="#maae7f205a3" y="720.9"/>
      </g>
     </g>
     <g id="text_3">
      <!-- 0 -->
      <g transform="translate(398.428125 739.297656)scale(0.15 -0.15)">
       <defs>
        <path d="M 31.78125 66.40625 
Q 24.171875 66.40625 20.328125 58.90625 
Q 16.5 51.421875 16.5 36.375 
Q 16.5 21.390625 20.328125 13.890625 
Q 24.171875 6.390625 31.78125 6.390625 
Q 39.453125 6.390625 43.28125 13.890625 
Q 47.125 21.390625 47.125 36.375 
Q 47.125 51.421875 43.28125 58.90625 
Q 39.453125 66.40625 31.78125 66.40625 
z
M 31.78125 74.21875 
Q 44.046875 74.21875 50.515625 64.515625 
Q 56.984375 54.828125 56.984375 36.375 
Q 56.984375 17.96875 50.515625 8.265625 
Q 44.046875 -1.421875 31.78125 -1.421875 
Q 19.53125 -1.421875 13.0625 8.265625 
Q 6.59375 17.96875 6.59375 36.375 
Q 6.59375 54.828125 13.0625 64.515625 
Q 19.53125 74.21875 31.78125 74.21875 
z
" id="DejaVuSans-48"/>
       </defs>
       <use xlink:href="#DejaVuSans-48"/>
      </g>
     </g>
    </g>
    <g id="xtick_4">
     <g id="line2d_4">
      <g>
       <use style="stroke:#000000;stroke-width:0.8;" x="521.28" xlink:href="#maae7f205a3" y="720.9"/>
      </g>
     </g>
     <g id="text_4">
      <!-- 1 -->
      <g transform="translate(516.508125 739.297656)scale(0.15 -0.15)">
       <use xlink:href="#DejaVuSans-49"/>
      </g>
     </g>
    </g>
    <g id="xtick_5">
     <g id="line2d_5">
      <g>
       <use style="stroke:#000000;stroke-width:0.8;" x="639.36" xlink:href="#maae7f205a3" y="720.9"/>
      </g>
     </g>
     <g id="text_5">
      <!-- 2 -->
      <g transform="translate(634.588125 739.297656)scale(0.15 -0.15)">
       <use xlink:href="#DejaVuSans-50"/>
      </g>
     </g>
    </g>
    <g id="text_6">
     <!-- $q_x$ -->
     <g transform="translate(389.7 765.3625)scale(0.25 -0.25)">
      <defs>
       <path d="M 41.703125 8.203125 
Q 38.09375 3.46875 33.171875 1.015625 
Q 28.265625 -1.421875 22.3125 -1.421875 
Q 14.015625 -1.421875 9.296875 4.171875 
Q 4.59375 9.765625 4.59375 19.578125 
Q 4.59375 27.484375 7.5 34.859375 
Q 10.40625 42.234375 15.828125 48.09375 
Q 19.34375 51.90625 23.90625 53.953125 
Q 28.46875 56 33.5 56 
Q 39.546875 56 43.453125 53.609375 
Q 47.359375 51.21875 49.125 46.390625 
L 50.6875 54.59375 
L 59.71875 54.59375 
L 45.125 -20.609375 
L 36.078125 -20.609375 
z
M 13.921875 20.90625 
Q 13.921875 13.671875 16.9375 9.890625 
Q 19.96875 6.109375 25.6875 6.109375 
Q 34.1875 6.109375 40.1875 14.234375 
Q 46.1875 22.359375 46.1875 33.984375 
Q 46.1875 41.015625 43.078125 44.75 
Q 39.984375 48.484375 34.1875 48.484375 
Q 29.9375 48.484375 26.3125 46.5 
Q 22.703125 44.53125 20.015625 40.71875 
Q 17.1875 36.71875 15.546875 31.34375 
Q 13.921875 25.984375 13.921875 20.90625 
z
" id="DejaVuSans-Oblique-113"/>
       <path d="M 60.015625 54.6875 
L 34.90625 27.875 
L 50.296875 0 
L 39.984375 0 
L 28.421875 21.6875 
L 8.296875 0 
L -2.59375 0 
L 24.3125 28.8125 
L 10.015625 54.6875 
L 20.3125 54.6875 
L 30.8125 34.90625 
L 49.125 54.6875 
z
" id="DejaVuSans-Oblique-120"/>
      </defs>
      <use xlink:href="#DejaVuSans-Oblique-113"/>
      <use transform="translate(63.476562 -16.40625)scale(0.7)" xlink:href="#DejaVuSans-Oblique-120"/>
     </g>
    </g>
   </g>
   <g id="matplotlib.axis_2">
    <g id="ytick_1">
     <g id="line2d_6">
      <defs>
       <path d="M 0 0 
L -3.5 0 
" id="m29520e4156" style="stroke:#000000;stroke-width:0.8;"/>
      </defs>
      <g>
       <use style="stroke:#000000;stroke-width:0.8;" x="108" xlink:href="#m29520e4156" y="654.48"/>
      </g>
     </g>
     <g id="text_7">
      <!-- −2 -->
      <g transform="translate(78.886719 660.178828)scale(0.15 -0.15)">
       <use xlink:href="#DejaVuSans-8722"/>
       <use x="83.789062" xlink:href="#DejaVuSans-50"/>
      </g>
     </g>
    </g>
    <g id="ytick_2">
     <g id="line2d_7">
      <g>
       <use style="stroke:#000000;stroke-width:0.8;" x="108" xlink:href="#m29520e4156" y="521.64"/>
      </g>
     </g>
     <g id="text_8">
      <!-- −1 -->
      <g transform="translate(78.886719 527.338828)scale(0.15 -0.15)">
       <use xlink:href="#DejaVuSans-8722"/>
       <use x="83.789062" xlink:href="#DejaVuSans-49"/>
      </g>
     </g>
    </g>
    <g id="ytick_3">
     <g id="line2d_8">
      <g>
       <use style="stroke:#000000;stroke-width:0.8;" x="108" xlink:href="#m29520e4156" y="388.8"/>
      </g>
     </g>
     <g id="text_9">
      <!-- 0 -->
      <g transform="translate(91.45625 394.498828)scale(0.15 -0.15)">
       <use xlink:href="#DejaVuSans-48"/>
      </g>
     </g>
    </g>
    <g id="ytick_4">
     <g id="line2d_9">
      <g>
       <use style="stroke:#000000;stroke-width:0.8;" x="108" xlink:href="#m29520e4156" y="255.96"/>
      </g>
     </g>
     <g id="text_10">
      <!-- 1 -->
      <g transform="translate(91.45625 261.658828)scale(0.15 -0.15)">
       <use xlink:href="#DejaVuSans-49"/>
      </g>
     </g>
    </g>
    <g id="ytick_5">
     <g id="line2d_10">
      <g>
       <use style="stroke:#000000;stroke-width:0.8;" x="108" xlink:href="#m29520e4156" y="123.12"/>
      </g>
     </g>
     <g id="text_11">
      <!-- 2 -->
      <g transform="translate(91.45625 128.818828)scale(0.15 -0.15)">
       <use xlink:href="#DejaVuSans-50"/>
      </g>
     </g>
    </g>
    <g id="text_12">
     <!-- $q_y$ -->
     <g transform="translate(67.136719 402.3)rotate(-90)scale(0.25 -0.25)">
      <defs>
       <path d="M 24.8125 -5.078125 
Q 18.5625 -15.578125 14.625 -18.1875 
Q 10.6875 -20.796875 4.59375 -20.796875 
L -2.484375 -20.796875 
L -0.984375 -13.28125 
L 4.203125 -13.28125 
Q 7.953125 -13.28125 10.59375 -11.234375 
Q 13.234375 -9.1875 16.5 -3.21875 
L 19.28125 2 
L 7.171875 54.6875 
L 16.703125 54.6875 
L 25.78125 12.796875 
L 50.875 54.6875 
L 60.296875 54.6875 
z
" id="DejaVuSans-Oblique-121"/>
      </defs>
      <use xlink:href="#DejaVuSans-Oblique-113"/>
      <use transform="translate(63.476562 -16.40625)scale(0.7)" xlink:href="#DejaVuSans-Oblique-121"/>
     </g>
    </g>
   </g>
   <g id="PathCollection_1">
    <path clip-path="url(#p2e1e97d9c2)" d="M 137.344428 686.012075 
L 137.344428 686.012075 
L 137.344428 686.012075 
L 137.344428 686.012075 
z
" style="fill:#fcfbfd;stroke:#fcfbfd;"/>
    <path clip-path="url(#p2e1e97d9c2)" d="M 534.967504 701.334788 
L 544.161484 686.011488 
L 534.967504 670.688188 
L 525.773524 686.011488 
z
" style="fill:#491285;stroke:#491285;"/>
    <path clip-path="url(#p2e1e97d9c2)" d="M 137.344392 648.860639 
L 137.344392 648.860639 
L 137.344392 648.860639 
L 137.344392 648.860639 
z
" style="fill:#fcfbfd;stroke:#fcfbfd;"/>
    <path clip-path="url(#p2e1e97d9c2)" d="M 502.025665 648.860052 
L 502.025665 648.860052 
L 502.025665 648.860052 
L 502.025665 648.860052 
z
" style="fill:#fcfbfd;stroke:#fcfbfd;"/>
    <path clip-path="url(#p2e1e97d9c2)" d="M 469.083825 627.520004 
L 478.570658 611.708616 
L 469.083825 595.897228 
L 459.596992 611.708616 
z
" style="fill:#3f007d;stroke:#3f007d;"/>
    <path clip-path="url(#p2e1e97d9c2)" d="M 436.141986 574.55718 
L 436.141986 574.55718 
L 436.141986 574.55718 
L 436.141986 574.55718 
z
" style="fill:#fcfbfd;stroke:#fcfbfd;"/>
    <path clip-path="url(#p2e1e97d9c2)" d="M 436.141949 537.405744 
L 436.141949 537.405744 
L 436.141949 537.405744 
L 436.141949 537.405744 
z
" style="fill:#fcfbfd;stroke:#fcfbfd;"/>
    <path clip-path="url(#p2e1e97d9c2)" d="M 403.20011 500.254308 
L 403.20011 500.254308 
L 403.20011 500.254308 
L 403.20011 500.254308 
z
" style="fill:#fcfbfd;stroke:#fcfbfd;"/>
    <path clip-path="url(#p2e1e97d9c2)" d="M 436.141913 500.254308 
L 436.141913 500.254308 
L 436.141913 500.254308 
L 436.141913 500.254308 
z
" style="fill:#fcfbfd;stroke:#fcfbfd;"/>
    <path clip-path="url(#p2e1e97d9c2)" d="M 403.200073 463.102872 
L 403.200073 463.102872 
L 403.200073 463.102872 
L 403.200073 463.102872 
z
" style="fill:#fcfbfd;stroke:#fcfbfd;"/>
    <path clip-path="url(#p2e1e97d9c2)" d="M 403.200037 425.951436 
L 403.200037 425.951436 
L 403.200037 425.951436 
L 403.200037 425.951436 
z
" style="fill:#fcfbfd;stroke:#fcfbfd;"/>
    <path clip-path="url(#p2e1e97d9c2)" d="M 403.2 388.8 
L 403.2 388.8 
L 403.2 388.8 
L 403.2 388.8 
z
" style="fill:#fcfbfd;stroke:#fcfbfd;"/>
    <path clip-path="url(#p2e1e97d9c2)" d="M 403.199963 351.648564 
L 403.199963 351.648564 
L 403.199963 351.648564 
L 403.199963 351.648564 
z
" style="fill:#fcfbfd;stroke:#fcfbfd;"/>
    <path clip-path="url(#p2e1e97d9c2)" d="M 403.199927 314.497128 
L 403.199927 314.497128 
L 403.199927 314.497128 
L 403.199927 314.497128 
z
" style="fill:#fcfbfd;stroke:#fcfbfd;"/>
    <path clip-path="url(#p2e1e97d9c2)" d="M 403.19989 277.345692 
L 403.19989 277.345692 
L 403.19989 277.345692 
L 403.19989 277.345692 
z
" style="fill:#fcfbfd;stroke:#fcfbfd;"/>
    <path clip-path="url(#p2e1e97d9c2)" d="M 436.141693 277.345692 
L 436.141693 277.345692 
L 436.141693 277.345692 
L 436.141693 277.345692 
z
" style="fill:#fcfbfd;stroke:#fcfbfd;"/>
    <path clip-path="url(#p2e1e97d9c2)" d="M 436.141656 240.194256 
L 436.141656 240.194256 
L 436.141656 240.194256 
L 436.141656 240.194256 
z
" style="fill:#fcfbfd;stroke:#fcfbfd;"/>
    <path clip-path="url(#p2e1e97d9c2)" d="M 436.141619 203.04282 
L 436.141619 203.04282 
L 436.141619 203.04282 
L 436.141619 203.04282 
z
" style="fill:#fcfbfd;stroke:#fcfbfd;"/>
    <path clip-path="url(#p2e1e97d9c2)" d="M 469.083385 181.702772 
L 478.570218 165.891384 
L 469.083385 150.079996 
L 459.596552 165.891384 
z
" style="fill:#3f007d;stroke:#3f007d;"/>
    <path clip-path="url(#p2e1e97d9c2)" d="M 137.343878 128.740535 
L 137.343878 128.740535 
L 137.343878 128.740535 
L 137.343878 128.740535 
z
" style="fill:#fcfbfd;stroke:#fcfbfd;"/>
    <path clip-path="url(#p2e1e97d9c2)" d="M 502.025151 128.739948 
L 502.025151 128.739948 
L 502.025151 128.739948 
L 502.025151 128.739948 
z
" style="fill:#fcfbfd;stroke:#fcfbfd;"/>
    <path clip-path="url(#p2e1e97d9c2)" d="M 137.343841 91.589099 
L 137.343841 91.589099 
L 137.343841 91.589099 
L 137.343841 91.589099 
z
" style="fill:#fcfbfd;stroke:#fcfbfd;"/>
    <path clip-path="url(#p2e1e97d9c2)" d="M 534.966917 106.911812 
L 544.160897 91.588512 
L 534.966917 76.265212 
L 525.772937 91.588512 
z
" style="fill:#491285;stroke:#491285;"/>
   </g>
   <g id="PathCollection_2">
    <path clip-path="url(#p2e1e97d9c2)" d="M 137.344428 693.570568 
C 139.348964 693.570568 141.271669 692.774158 142.68909 691.356737 
C 144.106511 689.939316 144.902922 688.016611 144.902922 686.012075 
C 144.902922 684.007539 144.106511 682.084834 142.68909 680.667413 
C 141.271669 679.249993 139.348964 678.453582 137.344428 678.453582 
C 135.339893 678.453582 133.417187 679.249993 131.999767 680.667413 
C 130.582346 682.084834 129.785935 684.007539 129.785935 686.012075 
C 129.785935 688.016611 130.582346 689.939316 131.999767 691.356737 
C 133.417187 692.774158 135.339893 693.570568 137.344428 693.570568 
z
" style="fill:#fee2c6;stroke:#fee2c6;"/>
    <path clip-path="url(#p2e1e97d9c2)" d="M 534.967504 696.339225 
C 537.706452 696.339225 540.333588 695.251029 542.270317 693.314301 
C 544.207046 691.377572 545.295241 688.750436 545.295241 686.011488 
C 545.295241 683.27254 544.207046 680.645404 542.270317 678.708675 
C 540.333588 676.771946 537.706452 675.683751 534.967504 675.683751 
C 532.228556 675.683751 529.60142 676.771946 527.664691 678.708675 
C 525.727963 680.645404 524.639767 683.27254 524.639767 686.011488 
C 524.639767 688.750436 525.727963 691.377572 527.664691 693.314301 
C 529.60142 695.251029 532.228556 696.339225 534.967504 696.339225 
z
" style="fill:#d04501;stroke:#d04501;"/>
    <path clip-path="url(#p2e1e97d9c2)" d="M 137.344392 655.962576 
C 139.227847 655.962576 141.034415 655.214271 142.366219 653.882467 
C 143.698024 652.550663 144.446329 650.744095 144.446329 648.860639 
C 144.446329 646.977184 143.698024 645.170616 142.366219 643.838812 
C 141.034415 642.507007 139.227847 641.758702 137.344392 641.758702 
C 135.460936 641.758702 133.654368 642.507007 132.322564 643.838812 
C 130.99076 645.170616 130.242455 646.977184 130.242455 648.860639 
C 130.242455 650.744095 130.99076 652.550663 132.322564 653.882467 
C 133.654368 655.214271 135.460936 655.962576 137.344392 655.962576 
z
" style="fill:#feeddc;stroke:#feeddc;"/>
    <path clip-path="url(#p2e1e97d9c2)" d="M 502.025665 657.099079 
C 504.21068 657.099079 506.306498 656.230964 507.851537 654.685924 
C 509.396576 653.140885 510.264692 651.045068 510.264692 648.860052 
C 510.264692 646.675036 509.396576 644.579219 507.851537 643.03418 
C 506.306498 641.48914 504.21068 640.621024 502.025665 640.621024 
C 499.840649 640.621024 497.744832 641.48914 496.199793 643.03418 
C 494.654753 644.579219 493.786637 646.675036 493.786637 648.860052 
C 493.786637 651.045068 494.654753 653.140885 496.199793 654.685924 
C 497.744832 656.230964 499.840649 657.099079 502.025665 657.099079 
z
" style="fill:#fdc794;stroke:#fdc794;"/>
    <path clip-path="url(#p2e1e97d9c2)" d="M 469.083825 622.249906 
C 471.879408 622.249906 474.560868 621.139209 476.537643 619.162434 
C 478.514419 617.185658 479.625116 614.504199 479.625116 611.708616 
C 479.625116 608.913033 478.514419 606.231574 476.537643 604.254798 
C 474.560868 602.278023 471.879408 601.167326 469.083825 601.167326 
C 466.288243 601.167326 463.606783 602.278023 461.630008 604.254798 
C 459.653232 606.231574 458.542535 608.913033 458.542535 611.708616 
C 458.542535 614.504199 459.653232 617.185658 461.630008 619.162434 
C 463.606783 621.139209 466.288243 622.249906 469.083825 622.249906 
z
" style="fill:#b93d02;stroke:#b93d02;"/>
    <path clip-path="url(#p2e1e97d9c2)" d="M 436.141986 582.017385 
C 438.120456 582.017385 440.018159 581.231331 441.417148 579.832342 
C 442.816137 578.433352 443.602191 576.53565 443.602191 574.55718 
C 443.602191 572.57871 442.816137 570.681007 441.417148 569.282018 
C 440.018159 567.883029 438.120456 567.096975 436.141986 567.096975 
C 434.163517 567.096975 432.265814 567.883029 430.866824 569.282018 
C 429.467835 570.681007 428.681781 572.57871 428.681781 574.55718 
C 428.681781 576.53565 429.467835 578.433352 430.866824 579.832342 
C 432.265814 581.231331 434.163517 582.017385 436.141986 582.017385 
z
" style="fill:#fee5cc;stroke:#fee5cc;"/>
    <path clip-path="url(#p2e1e97d9c2)" d="M 436.141949 545.362551 
C 438.252119 545.362551 440.276146 544.524171 441.768261 543.032056 
C 443.260377 541.539941 444.098756 539.515914 444.098756 537.405744 
C 444.098756 535.295574 443.260377 533.271547 441.768261 531.779432 
C 440.276146 530.287317 438.252119 529.448937 436.141949 529.448937 
C 434.03178 529.448937 432.007753 530.287317 430.515637 531.779432 
C 429.023522 533.271547 428.185143 535.295574 428.185143 537.405744 
C 428.185143 539.515914 429.023522 541.539941 430.515637 543.032056 
C 432.007753 544.524171 434.03178 545.362551 436.141949 545.362551 
z
" style="fill:#fdd4aa;stroke:#fdd4aa;"/>
    <path clip-path="url(#p2e1e97d9c2)" d="M 403.20011 507.415708 
C 405.099336 507.415708 406.921029 506.661138 408.263985 505.318182 
C 409.60694 503.975227 410.36151 502.153533 410.36151 500.254308 
C 410.36151 498.355082 409.60694 496.533389 408.263985 495.190433 
C 406.921029 493.847478 405.099336 493.092908 403.20011 493.092908 
C 401.300885 493.092908 399.479191 493.847478 398.136236 495.190433 
C 396.79328 496.533389 396.03871 498.355082 396.03871 500.254308 
C 396.03871 502.153533 396.79328 503.975227 398.136236 505.318182 
C 399.479191 506.661138 401.300885 507.415708 403.20011 507.415708 
z
" style="fill:#feecda;stroke:#feecda;"/>
    <path clip-path="url(#p2e1e97d9c2)" d="M 436.141913 507.337752 
C 438.020464 507.337752 439.822328 506.591396 441.150664 505.263059 
C 442.479001 503.934723 443.225357 502.132859 443.225357 500.254308 
C 443.225357 498.375757 442.479001 496.573893 441.150664 495.245556 
C 439.822328 493.91722 438.020464 493.170864 436.141913 493.170864 
C 434.263361 493.170864 432.461498 493.91722 431.133161 495.245556 
C 429.804825 496.573893 429.058468 498.375757 429.058468 500.254308 
C 429.058468 502.132859 429.804825 503.934723 431.133161 505.263059 
C 432.461498 506.591396 434.263361 507.337752 436.141913 507.337752 
z
" style="fill:#feeddc;stroke:#feeddc;"/>
    <path clip-path="url(#p2e1e97d9c2)" d="M 403.200073 470.854094 
C 405.255721 470.854094 407.227452 470.037376 408.681015 468.583813 
C 410.134578 467.130251 410.951295 465.15852 410.951295 463.102872 
C 410.951295 461.047224 410.134578 459.075493 408.681015 457.621931 
C 407.227452 456.168368 405.255721 455.35165 403.200073 455.35165 
C 401.144425 455.35165 399.172695 456.168368 397.719132 457.621931 
C 396.265569 459.075493 395.448852 461.047224 395.448852 463.102872 
C 395.448852 465.15852 396.265569 467.130251 397.719132 468.583813 
C 399.172695 470.037376 401.144425 470.854094 403.200073 470.854094 
z
" style="fill:#fedcb9;stroke:#fedcb9;"/>
    <path clip-path="url(#p2e1e97d9c2)" d="M 403.200037 434.617938 
C 405.49842 434.617938 407.702977 433.704781 409.328179 432.079579 
C 410.953382 430.454376 411.866539 428.249819 411.866539 425.951436 
C 411.866539 423.653053 410.953382 421.448496 409.328179 419.823293 
C 407.702977 418.198091 405.49842 417.284934 403.200037 417.284934 
C 400.901653 417.284934 398.697096 418.198091 397.071894 419.823293 
C 395.446692 421.448496 394.533534 423.653053 394.533534 425.951436 
C 394.533534 428.249819 395.446692 430.454376 397.071894 432.079579 
C 398.697096 433.704781 400.901653 434.617938 403.200037 434.617938 
z
" style="fill:#fdae6a;stroke:#fdae6a;"/>
    <path clip-path="url(#p2e1e97d9c2)" d="M 403.2 399.98034 
C 406.165061 399.98034 409.00908 398.802309 411.105694 396.705694 
C 413.202309 394.60908 414.38034 391.765061 414.38034 388.8 
C 414.38034 385.834939 413.202309 382.99092 411.105694 380.894306 
C 409.00908 378.797691 406.165061 377.61966 403.2 377.61966 
C 400.234939 377.61966 397.39092 378.797691 395.294306 380.894306 
C 393.197691 382.99092 392.01966 385.834939 392.01966 388.8 
C 392.01966 391.765061 393.197691 394.60908 395.294306 396.705694 
C 397.39092 398.802309 400.234939 399.98034 403.2 399.98034 
z
" style="fill:#7f2704;stroke:#7f2704;"/>
    <path clip-path="url(#p2e1e97d9c2)" d="M 403.199963 360.320684 
C 405.499837 360.320684 407.705822 359.406935 409.332078 357.780679 
C 410.958334 356.154423 411.872084 353.948437 411.872084 351.648564 
C 411.872084 349.348691 410.958334 347.142705 409.332078 345.516449 
C 407.705822 343.890193 405.499837 342.976444 403.199963 342.976444 
C 400.90009 342.976444 398.694104 343.890193 397.067848 345.516449 
C 395.441592 347.142705 394.527843 349.348691 394.527843 351.648564 
C 394.527843 353.948437 395.441592 356.154423 397.067848 357.780679 
C 398.694104 359.406935 400.90009 360.320684 403.199963 360.320684 
z
" style="fill:#fdae6a;stroke:#fdae6a;"/>
    <path clip-path="url(#p2e1e97d9c2)" d="M 403.199927 322.251491 
C 405.256408 322.251491 407.228937 321.434442 408.683089 319.98029 
C 410.137241 318.526139 410.954289 316.553609 410.954289 314.497128 
C 410.954289 312.440647 410.137241 310.468117 408.683089 309.013966 
C 407.228937 307.559814 405.256408 306.742765 403.199927 306.742765 
C 401.143446 306.742765 399.170916 307.559814 397.716764 309.013966 
C 396.262613 310.468117 395.445564 312.440647 395.445564 314.497128 
C 395.445564 316.553609 396.262613 318.526139 397.716764 319.98029 
C 399.170916 321.434442 401.143446 322.251491 403.199927 322.251491 
z
" style="fill:#fddbb8;stroke:#fddbb8;"/>
    <path clip-path="url(#p2e1e97d9c2)" d="M 403.19989 284.509358 
C 405.099716 284.509358 406.921987 283.754549 408.265367 282.411169 
C 409.608747 281.067789 410.363556 279.245519 410.363556 277.345692 
C 410.363556 275.445866 409.608747 273.623595 408.265367 272.280215 
C 406.921987 270.936835 405.099716 270.182026 403.19989 270.182026 
C 401.300063 270.182026 399.477793 270.936835 398.134413 272.280215 
C 396.791033 273.623595 396.036224 275.445866 396.036224 277.345692 
C 396.036224 279.245519 396.791033 281.067789 398.134413 282.411169 
C 399.477793 283.754549 401.300063 284.509358 403.19989 284.509358 
z
" style="fill:#feecda;stroke:#feecda;"/>
    <path clip-path="url(#p2e1e97d9c2)" d="M 436.141693 284.427072 
C 438.019696 284.427072 439.821035 283.680933 441.148984 282.352984 
C 442.476934 281.025035 443.223073 279.223696 443.223073 277.345692 
C 443.223073 275.467688 442.476934 273.66635 441.148984 272.3384 
C 439.821035 271.010451 438.019696 270.264312 436.141693 270.264312 
C 434.263689 270.264312 432.46235 271.010451 431.134401 272.3384 
C 429.806451 273.66635 429.060313 275.467688 429.060313 277.345692 
C 429.060313 279.223696 429.806451 281.025035 431.134401 282.352984 
C 432.46235 283.680933 434.263689 284.427072 436.141693 284.427072 
z
" style="fill:#feeddc;stroke:#feeddc;"/>
    <path clip-path="url(#p2e1e97d9c2)" d="M 436.141656 248.142884 
C 438.249657 248.142884 440.271603 247.305366 441.762184 245.814785 
C 443.252766 244.324203 444.090284 242.302257 444.090284 240.194256 
C 444.090284 238.086255 443.252766 236.064309 441.762184 234.573727 
C 440.271603 233.083146 438.249657 232.245628 436.141656 232.245628 
C 434.033655 232.245628 432.011709 233.083146 430.521127 234.573727 
C 429.030546 236.064309 428.193028 238.086255 428.193028 240.194256 
C 428.193028 242.302257 429.030546 244.324203 430.521127 245.814785 
C 432.011709 247.305366 434.033655 248.142884 436.141656 248.142884 
z
" style="fill:#fdd5ab;stroke:#fdd5ab;"/>
    <path clip-path="url(#p2e1e97d9c2)" d="M 436.141619 210.508459 
C 438.12153 210.508459 440.020615 209.721832 441.420623 208.321824 
C 442.820631 206.921816 443.607258 205.022731 443.607258 203.04282 
C 443.607258 201.062909 442.820631 199.163824 441.420623 197.763816 
C 440.020615 196.363808 438.12153 195.577181 436.141619 195.577181 
C 434.161709 195.577181 432.262623 196.363808 430.862615 197.763816 
C 429.462607 199.163824 428.67598 201.062909 428.67598 203.04282 
C 428.67598 205.022731 429.462607 206.921816 430.862615 208.321824 
C 432.262623 209.721832 434.161709 210.508459 436.141619 210.508459 
z
" style="fill:#fee5cc;stroke:#fee5cc;"/>
    <path clip-path="url(#p2e1e97d9c2)" d="M 469.083385 176.806808 
C 471.978189 176.806808 474.75482 175.65669 476.801756 173.609755 
C 478.848691 171.562819 479.998809 168.786188 479.998809 165.891384 
C 479.998809 162.99658 478.848691 160.219949 476.801756 158.173014 
C 474.75482 156.126078 471.978189 154.97596 469.083385 154.97596 
C 466.188581 154.97596 463.41195 156.126078 461.365015 158.173014 
C 459.318079 160.219949 458.167961 162.99658 458.167961 165.891384 
C 458.167961 168.786188 459.318079 171.562819 461.365015 173.609755 
C 463.41195 175.65669 466.188581 176.806808 469.083385 176.806808 
z
" style="fill:#952f03;stroke:#952f03;"/>
    <path clip-path="url(#p2e1e97d9c2)" d="M 137.343878 135.837559 
C 139.226031 135.837559 141.031348 135.089772 142.362231 133.758889 
C 143.693114 132.428006 144.440901 130.622688 144.440901 128.740535 
C 144.440901 126.858383 143.693114 125.053065 142.362231 123.722182 
C 141.031348 122.391299 139.226031 121.643512 137.343878 121.643512 
C 135.461725 121.643512 133.656407 122.391299 132.325524 123.722182 
C 130.994642 125.053065 130.246854 126.858383 130.246854 128.740535 
C 130.246854 130.622688 130.994642 132.428006 132.325524 133.758889 
C 133.656407 135.089772 135.461725 135.837559 137.343878 135.837559 
z
" style="fill:#feeddc;stroke:#feeddc;"/>
    <path clip-path="url(#p2e1e97d9c2)" d="M 502.025151 136.958109 
C 504.204633 136.958109 506.295142 136.092191 507.836268 134.551065 
C 509.377394 133.009939 510.243311 130.91943 510.243311 128.739948 
C 510.243311 126.560466 509.377394 124.469957 507.836268 122.928831 
C 506.295142 121.387705 504.204633 120.521788 502.025151 120.521788 
C 499.845669 120.521788 497.75516 121.387705 496.214034 122.928831 
C 494.672908 124.469957 493.806991 126.560466 493.806991 128.739948 
C 493.806991 130.91943 494.672908 133.009939 496.214034 134.551065 
C 497.75516 136.092191 499.845669 136.958109 502.025151 136.958109 
z
" style="fill:#fdc895;stroke:#fdc895;"/>
    <path clip-path="url(#p2e1e97d9c2)" d="M 137.343841 99.157451 
C 139.350992 99.157451 141.276205 98.360002 142.695474 96.940732 
C 144.114744 95.521463 144.912193 93.59625 144.912193 91.589099 
C 144.912193 89.581949 144.114744 87.656736 142.695474 86.237466 
C 141.276205 84.818197 139.350992 84.020748 137.343841 84.020748 
C 135.336691 84.020748 133.411478 84.818197 131.992208 86.237466 
C 130.572939 87.656736 129.775489 89.581949 129.775489 91.589099 
C 129.775489 93.59625 130.572939 95.521463 131.992208 96.940732 
C 133.411478 98.360002 135.336691 99.157451 137.343841 99.157451 
z
" style="fill:#fee2c6;stroke:#fee2c6;"/>
    <path clip-path="url(#p2e1e97d9c2)" d="M 534.966917 102.519866 
C 537.865946 102.519866 540.646628 101.368069 542.696551 99.318146 
C 544.746474 97.268223 545.898271 94.487541 545.898271 91.588512 
C 545.898271 88.689483 544.746474 85.908801 542.696551 83.858878 
C 540.646628 81.808955 537.865946 80.657158 534.966917 80.657158 
C 532.067888 80.657158 529.287206 81.808955 527.237283 83.858878 
C 525.18736 85.908801 524.035563 88.689483 524.035563 91.588512 
C 524.035563 94.487541 525.18736 97.268223 527.237283 99.318146 
C 529.287206 101.368069 532.067888 102.519866 534.966917 102.519866 
z
" style="fill:#942f03;stroke:#942f03;"/>
   </g>
   <g id="line2d_11">
    <defs>
     <path d="M -2.5 0 
L 2.5 0 
M 0 2.5 
L 0 -2.5 
" id="macb800286e" style="stroke:#0000ff;"/>
    </defs>
    <g clip-path="url(#p2e1e97d9c2)">
     <use style="fill:#0000ff;stroke:#0000ff;" x="403.2" xlink:href="#macb800286e" y="388.8"/>
    </g>
   </g>
   <g id="patch_3">
    <path d="M 108 720.9 
L 108 56.7 
" style="fill:none;stroke:#000000;stroke-linecap:square;stroke-linejoin:miter;stroke-width:0.8;"/>
   </g>
   <g id="patch_4">
    <path d="M 698.4 720.9 
L 698.4 56.7 
" style="fill:none;stroke:#000000;stroke-linecap:square;stroke-linejoin:miter;stroke-width:0.8;"/>
   </g>
   <g id="patch_5">
    <path d="M 108 720.9 
L 698.4 720.9 
" style="fill:none;stroke:#000000;stroke-linecap:square;stroke-linejoin:miter;stroke-width:0.8;"/>
   </g>
   <g id="patch_6">
    <path d="M 108 56.7 
L 698.4 56.7 
" style="fill:none;stroke:#000000;stroke-linecap:square;stroke-linejoin:miter;stroke-width:0.8;"/>
   </g>
   <g id="text_13">
    <!-- (4,-8,0) -->
    <g style="fill:#796eb2;" transform="translate(507.326489 679.369488)scale(0.15 -0.15)">
     <defs>
      <path d="M 31 75.875 
Q 24.46875 64.65625 21.28125 53.65625 
Q 18.109375 42.671875 18.109375 31.390625 
Q 18.109375 20.125 21.3125 9.0625 
Q 24.515625 -2 31 -13.1875 
L 23.1875 -13.1875 
Q 15.875 -1.703125 12.234375 9.375 
Q 8.59375 20.453125 8.59375 31.390625 
Q 8.59375 42.28125 12.203125 53.3125 
Q 15.828125 64.359375 23.1875 75.875 
z
" id="DejaVuSans-40"/>
      <path d="M 37.796875 64.3125 
L 12.890625 25.390625 
L 37.796875 25.390625 
z
M 35.203125 72.90625 
L 47.609375 72.90625 
L 47.609375 25.390625 
L 58.015625 25.390625 
L 58.015625 17.1875 
L 47.609375 17.1875 
L 47.609375 0 
L 37.796875 0 
L 37.796875 17.1875 
L 4.890625 17.1875 
L 4.890625 26.703125 
z
" id="DejaVuSans-52"/>
      <path d="M 11.71875 12.40625 
L 22.015625 12.40625 
L 22.015625 4 
L 14.015625 -11.625 
L 7.71875 -11.625 
L 11.71875 4 
z
" id="DejaVuSans-44"/>
      <path d="M 4.890625 31.390625 
L 31.203125 31.390625 
L 31.203125 23.390625 
L 4.890625 23.390625 
z
" id="DejaVuSans-45"/>
      <path d="M 31.78125 34.625 
Q 24.75 34.625 20.71875 30.859375 
Q 16.703125 27.09375 16.703125 20.515625 
Q 16.703125 13.921875 20.71875 10.15625 
Q 24.75 6.390625 31.78125 6.390625 
Q 38.8125 6.390625 42.859375 10.171875 
Q 46.921875 13.96875 46.921875 20.515625 
Q 46.921875 27.09375 42.890625 30.859375 
Q 38.875 34.625 31.78125 34.625 
z
M 21.921875 38.8125 
Q 15.578125 40.375 12.03125 44.71875 
Q 8.5 49.078125 8.5 55.328125 
Q 8.5 64.0625 14.71875 69.140625 
Q 20.953125 74.21875 31.78125 74.21875 
Q 42.671875 74.21875 48.875 69.140625 
Q 55.078125 64.0625 55.078125 55.328125 
Q 55.078125 49.078125 51.53125 44.71875 
Q 48 40.375 41.703125 38.8125 
Q 48.828125 37.15625 52.796875 32.3125 
Q 56.78125 27.484375 56.78125 20.515625 
Q 56.78125 9.90625 50.3125 4.234375 
Q 43.84375 -1.421875 31.78125 -1.421875 
Q 19.734375 -1.421875 13.25 4.234375 
Q 6.78125 9.90625 6.78125 20.515625 
Q 6.78125 27.484375 10.78125 32.3125 
Q 14.796875 37.15625 21.921875 38.8125 
z
M 18.3125 54.390625 
Q 18.3125 48.734375 21.84375 45.5625 
Q 25.390625 42.390625 31.78125 42.390625 
Q 38.140625 42.390625 41.71875 45.5625 
Q 45.3125 48.734375 45.3125 54.390625 
Q 45.3125 60.0625 41.71875 63.234375 
Q 38.140625 66.40625 31.78125 66.40625 
Q 25.390625 66.40625 21.84375 63.234375 
Q 18.3125 60.0625 18.3125 54.390625 
z
" id="DejaVuSans-56"/>
      <path d="M 8.015625 75.875 
L 15.828125 75.875 
Q 23.140625 64.359375 26.78125 53.3125 
Q 30.421875 42.28125 30.421875 31.390625 
Q 30.421875 20.453125 26.78125 9.375 
Q 23.140625 -1.703125 15.828125 -13.1875 
L 8.015625 -13.1875 
Q 14.5 -2 17.703125 9.0625 
Q 20.90625 20.125 20.90625 31.390625 
Q 20.90625 42.671875 17.703125 53.65625 
Q 14.5 64.65625 8.015625 75.875 
z
" id="DejaVuSans-41"/>
     </defs>
     <use xlink:href="#DejaVuSans-40"/>
     <use x="39.013672" xlink:href="#DejaVuSans-52"/>
     <use x="102.636719" xlink:href="#DejaVuSans-44"/>
     <use x="134.423828" xlink:href="#DejaVuSans-45"/>
     <use x="170.507812" xlink:href="#DejaVuSans-56"/>
     <use x="234.130859" xlink:href="#DejaVuSans-44"/>
     <use x="265.917969" xlink:href="#DejaVuSans-48"/>
     <use x="329.541016" xlink:href="#DejaVuSans-41"/>
    </g>
   </g>
   <g id="text_14">
    <!-- (2,-6,0) -->
    <g style="fill:#796eb2;" transform="translate(441.44281 605.066616)scale(0.15 -0.15)">
     <defs>
      <path d="M 33.015625 40.375 
Q 26.375 40.375 22.484375 35.828125 
Q 18.609375 31.296875 18.609375 23.390625 
Q 18.609375 15.53125 22.484375 10.953125 
Q 26.375 6.390625 33.015625 6.390625 
Q 39.65625 6.390625 43.53125 10.953125 
Q 47.40625 15.53125 47.40625 23.390625 
Q 47.40625 31.296875 43.53125 35.828125 
Q 39.65625 40.375 33.015625 40.375 
z
M 52.59375 71.296875 
L 52.59375 62.3125 
Q 48.875 64.0625 45.09375 64.984375 
Q 41.3125 65.921875 37.59375 65.921875 
Q 27.828125 65.921875 22.671875 59.328125 
Q 17.53125 52.734375 16.796875 39.40625 
Q 19.671875 43.65625 24.015625 45.921875 
Q 28.375 48.1875 33.59375 48.1875 
Q 44.578125 48.1875 50.953125 41.515625 
Q 57.328125 34.859375 57.328125 23.390625 
Q 57.328125 12.15625 50.6875 5.359375 
Q 44.046875 -1.421875 33.015625 -1.421875 
Q 20.359375 -1.421875 13.671875 8.265625 
Q 6.984375 17.96875 6.984375 36.375 
Q 6.984375 53.65625 15.1875 63.9375 
Q 23.390625 74.21875 37.203125 74.21875 
Q 40.921875 74.21875 44.703125 73.484375 
Q 48.484375 72.75 52.59375 71.296875 
z
" id="DejaVuSans-54"/>
     </defs>
     <use xlink:href="#DejaVuSans-40"/>
     <use x="39.013672" xlink:href="#DejaVuSans-50"/>
     <use x="102.636719" xlink:href="#DejaVuSans-44"/>
     <use x="134.423828" xlink:href="#DejaVuSans-45"/>
     <use x="170.507812" xlink:href="#DejaVuSans-54"/>
     <use x="234.130859" xlink:href="#DejaVuSans-44"/>
     <use x="265.917969" xlink:href="#DejaVuSans-48"/>
     <use x="329.541016" xlink:href="#DejaVuSans-41"/>
    </g>
   </g>
   <g id="text_15">
    <!-- (2,6,0) -->
    <g style="fill:#796eb2;" transform="translate(444.148229 159.249384)scale(0.15 -0.15)">
     <use xlink:href="#DejaVuSans-40"/>
     <use x="39.013672" xlink:href="#DejaVuSans-50"/>
     <use x="102.636719" xlink:href="#DejaVuSans-44"/>
     <use x="134.423828" xlink:href="#DejaVuSans-54"/>
     <use x="198.046875" xlink:href="#DejaVuSans-44"/>
     <use x="229.833984" xlink:href="#DejaVuSans-48"/>
     <use x="293.457031" xlink:href="#DejaVuSans-41"/>
    </g>
   </g>
   <g id="text_16">
    <!-- (4,8,0) -->
    <g style="fill:#796eb2;" transform="translate(510.031761 84.946512)scale(0.15 -0.15)">
     <use xlink:href="#DejaVuSans-40"/>
     <use x="39.013672" xlink:href="#DejaVuSans-52"/>
     <use x="102.636719" xlink:href="#DejaVuSans-44"/>
     <use x="134.423828" xlink:href="#DejaVuSans-56"/>
     <use x="198.046875" xlink:href="#DejaVuSans-44"/>
     <use x="229.833984" xlink:href="#DejaVuSans-48"/>
     <use x="293.457031" xlink:href="#DejaVuSans-41"/>
    </g>
   </g>
  </g>
 </g>
 <defs>
  <clipPath id="p2e1e97d9c2">
   <rect height="664.2" width="590.4" x="108" y="56.7"/>
  </clipPath>
 </defs>
</svg>
