<?xml version="1.0" encoding="utf-8" standalone="no"?>
<!DOCTYPE svg PUBLIC "-//W3C//DTD SVG 1.1//EN"
  "http://www.w3.org/Graphics/SVG/1.1/DTD/svg11.dtd">
<!-- Created with matplotlib (https://matplotlib.org/) -->
<svg height="810pt" version="1.1" viewBox="0 0 720 810" width="720pt" xmlns="http://www.w3.org/2000/svg" xmlns:xlink="http://www.w3.org/1999/xlink">
 <metadata>
  <rdf:RDF xmlns:cc="http://creativecommons.org/ns#" xmlns:dc="http://purl.org/dc/elements/1.1/" xmlns:rdf="http://www.w3.org/1999/02/22-rdf-syntax-ns#">
   <cc:Work>
    <dc:type rdf:resource="http://purl.org/dc/dcmitype/StillImage"/>
    <dc:date>2021-07-09T15:10:43.195467</dc:date>
    <dc:format>image/svg+xml</dc:format>
    <dc:creator>
     <cc:Agent>
      <dc:title>Matplotlib v3.3.1, https://matplotlib.org/</dc:title>
     </cc:Agent>
    </dc:creator>
   </cc:Work>
  </rdf:RDF>
 </metadata>
 <defs>
  <style type="text/css">*{stroke-linecap:butt;stroke-linejoin:round;}</style>
 </defs>
 <g id="figure_1">
  <g id="patch_1">
   <path d="M 0 810 
L 720 810 
L 720 0 
L 0 0 
z
" style="fill:#ffffff;"/>
  </g>
  <g id="axes_1">
   <g id="patch_2">
    <path d="M 108 720.9 
L 698.4 720.9 
L 698.4 56.7 
L 108 56.7 
z
" style="fill:#ffffff;"/>
   </g>
   <g id="matplotlib.axis_1">
    <g id="xtick_1">
     <g id="line2d_1">
      <path clip-path="url(#p2028937312)" d="M 159.233058 720.9 
L 159.233058 56.7 
" style="fill:none;stroke:#e6e6e6;stroke-linecap:square;stroke-width:0.8;"/>
     </g>
     <g id="line2d_2">
      <defs>
       <path d="M 0 0 
L 0 3.5 
" id="m8e5bd8f211" style="stroke:#000000;stroke-width:0.8;"/>
      </defs>
      <g>
       <use style="stroke:#000000;stroke-width:0.8;" x="159.233058" xlink:href="#m8e5bd8f211" y="720.9"/>
      </g>
     </g>
     <g id="text_1">
      <!-- 0 -->
      <g transform="translate(154.461183 739.297656)scale(0.15 -0.15)">
       <defs>
        <path d="M 31.78125 66.40625 
Q 24.171875 66.40625 20.328125 58.90625 
Q 16.5 51.421875 16.5 36.375 
Q 16.5 21.390625 20.328125 13.890625 
Q 24.171875 6.390625 31.78125 6.390625 
Q 39.453125 6.390625 43.28125 13.890625 
Q 47.125 21.390625 47.125 36.375 
Q 47.125 51.421875 43.28125 58.90625 
Q 39.453125 66.40625 31.78125 66.40625 
z
M 31.78125 74.21875 
Q 44.046875 74.21875 50.515625 64.515625 
Q 56.984375 54.828125 56.984375 36.375 
Q 56.984375 17.96875 50.515625 8.265625 
Q 44.046875 -1.421875 31.78125 -1.421875 
Q 19.53125 -1.421875 13.0625 8.265625 
Q 6.59375 17.96875 6.59375 36.375 
Q 6.59375 54.828125 13.0625 64.515625 
Q 19.53125 74.21875 31.78125 74.21875 
z
" id="DejaVuSans-48"/>
       </defs>
       <use xlink:href="#DejaVuSans-48"/>
      </g>
     </g>
    </g>
    <g id="xtick_2">
     <g id="line2d_3">
      <path clip-path="url(#p2028937312)" d="M 281.216529 720.9 
L 281.216529 56.7 
" style="fill:none;stroke:#e6e6e6;stroke-linecap:square;stroke-width:0.8;"/>
     </g>
     <g id="line2d_4">
      <g>
       <use style="stroke:#000000;stroke-width:0.8;" x="281.216529" xlink:href="#m8e5bd8f211" y="720.9"/>
      </g>
     </g>
     <g id="text_2">
      <!-- 200 -->
      <g transform="translate(266.900904 739.297656)scale(0.15 -0.15)">
       <defs>
        <path d="M 19.1875 8.296875 
L 53.609375 8.296875 
L 53.609375 0 
L 7.328125 0 
L 7.328125 8.296875 
Q 12.9375 14.109375 22.625 23.890625 
Q 32.328125 33.6875 34.8125 36.53125 
Q 39.546875 41.84375 41.421875 45.53125 
Q 43.3125 49.21875 43.3125 52.78125 
Q 43.3125 58.59375 39.234375 62.25 
Q 35.15625 65.921875 28.609375 65.921875 
Q 23.96875 65.921875 18.8125 64.3125 
Q 13.671875 62.703125 7.8125 59.421875 
L 7.8125 69.390625 
Q 13.765625 71.78125 18.9375 73 
Q 24.125 74.21875 28.421875 74.21875 
Q 39.75 74.21875 46.484375 68.546875 
Q 53.21875 62.890625 53.21875 53.421875 
Q 53.21875 48.921875 51.53125 44.890625 
Q 49.859375 40.875 45.40625 35.40625 
Q 44.1875 33.984375 37.640625 27.21875 
Q 31.109375 20.453125 19.1875 8.296875 
z
" id="DejaVuSans-50"/>
       </defs>
       <use xlink:href="#DejaVuSans-50"/>
       <use x="63.623047" xlink:href="#DejaVuSans-48"/>
       <use x="127.246094" xlink:href="#DejaVuSans-48"/>
      </g>
     </g>
    </g>
    <g id="xtick_3">
     <g id="line2d_5">
      <path clip-path="url(#p2028937312)" d="M 403.2 720.9 
L 403.2 56.7 
" style="fill:none;stroke:#e6e6e6;stroke-linecap:square;stroke-width:0.8;"/>
     </g>
     <g id="line2d_6">
      <g>
       <use style="stroke:#000000;stroke-width:0.8;" x="403.2" xlink:href="#m8e5bd8f211" y="720.9"/>
      </g>
     </g>
     <g id="text_3">
      <!-- 400 -->
      <g transform="translate(388.884375 739.297656)scale(0.15 -0.15)">
       <defs>
        <path d="M 37.796875 64.3125 
L 12.890625 25.390625 
L 37.796875 25.390625 
z
M 35.203125 72.90625 
L 47.609375 72.90625 
L 47.609375 25.390625 
L 58.015625 25.390625 
L 58.015625 17.1875 
L 47.609375 17.1875 
L 47.609375 0 
L 37.796875 0 
L 37.796875 17.1875 
L 4.890625 17.1875 
L 4.890625 26.703125 
z
" id="DejaVuSans-52"/>
       </defs>
       <use xlink:href="#DejaVuSans-52"/>
       <use x="63.623047" xlink:href="#DejaVuSans-48"/>
       <use x="127.246094" xlink:href="#DejaVuSans-48"/>
      </g>
     </g>
    </g>
    <g id="xtick_4">
     <g id="line2d_7">
      <path clip-path="url(#p2028937312)" d="M 525.183471 720.9 
L 525.183471 56.7 
" style="fill:none;stroke:#e6e6e6;stroke-linecap:square;stroke-width:0.8;"/>
     </g>
     <g id="line2d_8">
      <g>
       <use style="stroke:#000000;stroke-width:0.8;" x="525.183471" xlink:href="#m8e5bd8f211" y="720.9"/>
      </g>
     </g>
     <g id="text_4">
      <!-- 600 -->
      <g transform="translate(510.867846 739.297656)scale(0.15 -0.15)">
       <defs>
        <path d="M 33.015625 40.375 
Q 26.375 40.375 22.484375 35.828125 
Q 18.609375 31.296875 18.609375 23.390625 
Q 18.609375 15.53125 22.484375 10.953125 
Q 26.375 6.390625 33.015625 6.390625 
Q 39.65625 6.390625 43.53125 10.953125 
Q 47.40625 15.53125 47.40625 23.390625 
Q 47.40625 31.296875 43.53125 35.828125 
Q 39.65625 40.375 33.015625 40.375 
z
M 52.59375 71.296875 
L 52.59375 62.3125 
Q 48.875 64.0625 45.09375 64.984375 
Q 41.3125 65.921875 37.59375 65.921875 
Q 27.828125 65.921875 22.671875 59.328125 
Q 17.53125 52.734375 16.796875 39.40625 
Q 19.671875 43.65625 24.015625 45.921875 
Q 28.375 48.1875 33.59375 48.1875 
Q 44.578125 48.1875 50.953125 41.515625 
Q 57.328125 34.859375 57.328125 23.390625 
Q 57.328125 12.15625 50.6875 5.359375 
Q 44.046875 -1.421875 33.015625 -1.421875 
Q 20.359375 -1.421875 13.671875 8.265625 
Q 6.984375 17.96875 6.984375 36.375 
Q 6.984375 53.65625 15.1875 63.9375 
Q 23.390625 74.21875 37.203125 74.21875 
Q 40.921875 74.21875 44.703125 73.484375 
Q 48.484375 72.75 52.59375 71.296875 
z
" id="DejaVuSans-54"/>
       </defs>
       <use xlink:href="#DejaVuSans-54"/>
       <use x="63.623047" xlink:href="#DejaVuSans-48"/>
       <use x="127.246094" xlink:href="#DejaVuSans-48"/>
      </g>
     </g>
    </g>
    <g id="xtick_5">
     <g id="line2d_9">
      <path clip-path="url(#p2028937312)" d="M 647.166942 720.9 
L 647.166942 56.7 
" style="fill:none;stroke:#e6e6e6;stroke-linecap:square;stroke-width:0.8;"/>
     </g>
     <g id="line2d_10">
      <g>
       <use style="stroke:#000000;stroke-width:0.8;" x="647.166942" xlink:href="#m8e5bd8f211" y="720.9"/>
      </g>
     </g>
     <g id="text_5">
      <!-- 800 -->
      <g transform="translate(632.851317 739.297656)scale(0.15 -0.15)">
       <defs>
        <path d="M 31.78125 34.625 
Q 24.75 34.625 20.71875 30.859375 
Q 16.703125 27.09375 16.703125 20.515625 
Q 16.703125 13.921875 20.71875 10.15625 
Q 24.75 6.390625 31.78125 6.390625 
Q 38.8125 6.390625 42.859375 10.171875 
Q 46.921875 13.96875 46.921875 20.515625 
Q 46.921875 27.09375 42.890625 30.859375 
Q 38.875 34.625 31.78125 34.625 
z
M 21.921875 38.8125 
Q 15.578125 40.375 12.03125 44.71875 
Q 8.5 49.078125 8.5 55.328125 
Q 8.5 64.0625 14.71875 69.140625 
Q 20.953125 74.21875 31.78125 74.21875 
Q 42.671875 74.21875 48.875 69.140625 
Q 55.078125 64.0625 55.078125 55.328125 
Q 55.078125 49.078125 51.53125 44.71875 
Q 48 40.375 41.703125 38.8125 
Q 48.828125 37.15625 52.796875 32.3125 
Q 56.78125 27.484375 56.78125 20.515625 
Q 56.78125 9.90625 50.3125 4.234375 
Q 43.84375 -1.421875 31.78125 -1.421875 
Q 19.734375 -1.421875 13.25 4.234375 
Q 6.78125 9.90625 6.78125 20.515625 
Q 6.78125 27.484375 10.78125 32.3125 
Q 14.796875 37.15625 21.921875 38.8125 
z
M 18.3125 54.390625 
Q 18.3125 48.734375 21.84375 45.5625 
Q 25.390625 42.390625 31.78125 42.390625 
Q 38.140625 42.390625 41.71875 45.5625 
Q 45.3125 48.734375 45.3125 54.390625 
Q 45.3125 60.0625 41.71875 63.234375 
Q 38.140625 66.40625 31.78125 66.40625 
Q 25.390625 66.40625 21.84375 63.234375 
Q 18.3125 60.0625 18.3125 54.390625 
z
" id="DejaVuSans-56"/>
       </defs>
       <use xlink:href="#DejaVuSans-56"/>
       <use x="63.623047" xlink:href="#DejaVuSans-48"/>
       <use x="127.246094" xlink:href="#DejaVuSans-48"/>
      </g>
     </g>
    </g>
    <g id="text_6">
     <!-- $thickness(\AA)$ -->
     <g transform="translate(325.825 767.967969)scale(0.25 -0.25)">
      <defs>
       <path d="M 42.28125 54.6875 
L 40.921875 47.703125 
L 23 47.703125 
L 17.1875 18.015625 
Q 16.890625 16.359375 16.75 15.234375 
Q 16.609375 14.109375 16.609375 13.484375 
Q 16.609375 10.359375 18.484375 8.9375 
Q 20.359375 7.515625 24.515625 7.515625 
L 33.59375 7.515625 
L 32.078125 0 
L 23.484375 0 
Q 15.484375 0 11.546875 3.125 
Q 7.625 6.25 7.625 12.59375 
Q 7.625 13.71875 7.765625 15.0625 
Q 7.90625 16.40625 8.203125 18.015625 
L 14.015625 47.703125 
L 6.390625 47.703125 
L 7.8125 54.6875 
L 15.28125 54.6875 
L 18.3125 70.21875 
L 27.296875 70.21875 
L 24.3125 54.6875 
z
" id="DejaVuSans-Oblique-116"/>
       <path d="M 55.71875 33.015625 
L 49.3125 0 
L 40.28125 0 
L 46.6875 32.671875 
Q 47.125 34.96875 47.359375 36.71875 
Q 47.609375 38.484375 47.609375 39.5 
Q 47.609375 43.609375 45.015625 45.890625 
Q 42.4375 48.1875 37.796875 48.1875 
Q 30.5625 48.1875 25.265625 43.296875 
Q 19.96875 38.421875 18.40625 30.328125 
L 12.5 0 
L 3.515625 0 
L 18.3125 75.984375 
L 27.296875 75.984375 
L 21.484375 46.09375 
Q 24.90625 50.6875 30.21875 53.34375 
Q 35.546875 56 41.40625 56 
Q 48.640625 56 52.609375 52.09375 
Q 56.59375 48.1875 56.59375 41.109375 
Q 56.59375 39.359375 56.375 37.359375 
Q 56.15625 35.359375 55.71875 33.015625 
z
" id="DejaVuSans-Oblique-104"/>
       <path d="M 18.3125 75.984375 
L 27.296875 75.984375 
L 25.09375 64.59375 
L 16.109375 64.59375 
z
M 14.203125 54.6875 
L 23.1875 54.6875 
L 12.5 0 
L 3.515625 0 
z
" id="DejaVuSans-Oblique-105"/>
       <path d="M 53.609375 52.59375 
L 51.8125 43.703125 
Q 48.578125 46.046875 44.9375 47.21875 
Q 41.3125 48.390625 37.40625 48.390625 
Q 33.109375 48.390625 29.21875 46.875 
Q 25.34375 45.359375 22.703125 42.578125 
Q 18.5 38.328125 16.203125 32.609375 
Q 13.921875 26.90625 13.921875 20.796875 
Q 13.921875 13.421875 17.609375 9.8125 
Q 21.296875 6.203125 28.8125 6.203125 
Q 32.515625 6.203125 36.6875 7.328125 
Q 40.875 8.453125 45.40625 10.6875 
L 43.703125 1.8125 
Q 39.796875 0.203125 35.671875 -0.609375 
Q 31.546875 -1.421875 27.203125 -1.421875 
Q 16.3125 -1.421875 10.453125 4.015625 
Q 4.59375 9.46875 4.59375 19.578125 
Q 4.59375 28.078125 7.640625 35.234375 
Q 10.6875 42.390625 16.703125 48.09375 
Q 20.796875 52 26.3125 54 
Q 31.84375 56 38.375 56 
Q 42.1875 56 45.9375 55.140625 
Q 49.703125 54.296875 53.609375 52.59375 
z
" id="DejaVuSans-Oblique-99"/>
       <path d="M 18.3125 75.984375 
L 27.296875 75.984375 
L 18.703125 31.6875 
L 49.515625 54.6875 
L 61.1875 54.6875 
L 26.8125 28.515625 
L 51.90625 0 
L 41.015625 0 
L 17.671875 26.703125 
L 12.5 0 
L 3.515625 0 
z
" id="DejaVuSans-Oblique-107"/>
       <path d="M 55.71875 33.015625 
L 49.3125 0 
L 40.28125 0 
L 46.6875 32.671875 
Q 47.125 34.96875 47.359375 36.71875 
Q 47.609375 38.484375 47.609375 39.5 
Q 47.609375 43.609375 45.015625 45.890625 
Q 42.4375 48.1875 37.796875 48.1875 
Q 30.5625 48.1875 25.34375 43.375 
Q 20.125 38.578125 18.5 30.328125 
L 12.5 0 
L 3.515625 0 
L 14.109375 54.6875 
L 23.09375 54.6875 
L 21.296875 46.09375 
Q 25.046875 50.828125 30.3125 53.40625 
Q 35.59375 56 41.40625 56 
Q 48.640625 56 52.609375 52.09375 
Q 56.59375 48.1875 56.59375 41.109375 
Q 56.59375 39.359375 56.375 37.359375 
Q 56.15625 35.359375 55.71875 33.015625 
z
" id="DejaVuSans-Oblique-110"/>
       <path d="M 48.09375 32.234375 
Q 48.25 33.015625 48.3125 33.84375 
Q 48.390625 34.671875 48.390625 35.5 
Q 48.390625 41.453125 44.890625 44.921875 
Q 41.40625 48.390625 35.40625 48.390625 
Q 28.71875 48.390625 23.578125 44.15625 
Q 18.453125 39.9375 15.828125 32.171875 
z
M 55.90625 25.203125 
L 14.109375 25.203125 
Q 13.8125 23.34375 13.71875 22.265625 
Q 13.625 21.1875 13.625 20.40625 
Q 13.625 13.625 17.796875 9.90625 
Q 21.96875 6.203125 29.59375 6.203125 
Q 35.453125 6.203125 40.671875 7.515625 
Q 45.90625 8.84375 50.390625 11.375 
L 48.6875 2.484375 
Q 43.84375 0.53125 38.6875 -0.4375 
Q 33.546875 -1.421875 28.21875 -1.421875 
Q 16.84375 -1.421875 10.71875 4.015625 
Q 4.59375 9.46875 4.59375 19.484375 
Q 4.59375 28.03125 7.640625 35.375 
Q 10.6875 42.71875 16.609375 48.484375 
Q 20.40625 52.09375 25.65625 54.046875 
Q 30.90625 56 36.8125 56 
Q 46.09375 56 51.578125 50.4375 
Q 57.078125 44.875 57.078125 35.5 
Q 57.078125 33.25 56.78125 30.6875 
Q 56.5 28.125 55.90625 25.203125 
z
" id="DejaVuSans-Oblique-101"/>
       <path d="M 50 53.078125 
L 48.296875 44.578125 
Q 44.734375 46.53125 40.765625 47.5 
Q 36.8125 48.484375 32.625 48.484375 
Q 25.53125 48.484375 21.453125 46.0625 
Q 17.390625 43.65625 17.390625 39.5 
Q 17.390625 34.671875 26.859375 32.078125 
Q 27.59375 31.890625 27.9375 31.78125 
L 30.8125 30.90625 
Q 39.796875 28.421875 42.796875 25.6875 
Q 45.796875 22.953125 45.796875 18.21875 
Q 45.796875 9.515625 38.890625 4.046875 
Q 31.984375 -1.421875 20.796875 -1.421875 
Q 16.453125 -1.421875 11.671875 -0.578125 
Q 6.890625 0.25 1.125 2 
L 2.875 11.28125 
Q 7.8125 8.734375 12.59375 7.421875 
Q 17.390625 6.109375 21.78125 6.109375 
Q 28.375 6.109375 32.5 8.9375 
Q 36.625 11.765625 36.625 16.109375 
Q 36.625 20.796875 25.78125 23.6875 
L 24.859375 23.921875 
L 21.78125 24.703125 
Q 14.9375 26.515625 11.765625 29.46875 
Q 8.59375 32.421875 8.59375 37.015625 
Q 8.59375 45.75 15.15625 50.875 
Q 21.734375 56 33.015625 56 
Q 37.453125 56 41.671875 55.265625 
Q 45.90625 54.546875 50 53.078125 
z
" id="DejaVuSans-Oblique-115"/>
       <path d="M 31 75.875 
Q 24.46875 64.65625 21.28125 53.65625 
Q 18.109375 42.671875 18.109375 31.390625 
Q 18.109375 20.125 21.3125 9.0625 
Q 24.515625 -2 31 -13.1875 
L 23.1875 -13.1875 
Q 15.875 -1.703125 12.234375 9.375 
Q 8.59375 20.453125 8.59375 31.390625 
Q 8.59375 42.28125 12.203125 53.3125 
Q 15.828125 64.359375 23.1875 75.875 
z
" id="DejaVuSans-40"/>
       <path d="M 49.8125 79.390625 
Q 49.8125 82.46875 47.625 84.640625 
Q 45.453125 86.8125 42.390625 86.8125 
Q 39.265625 86.8125 37.140625 84.6875 
Q 35.015625 82.5625 35.015625 79.390625 
Q 35.015625 76.3125 37.140625 74.15625 
Q 39.265625 72.015625 42.390625 72.015625 
Q 45.453125 72.015625 47.625 74.15625 
Q 49.8125 76.3125 49.8125 79.390625 
z
M 34.421875 68.703125 
Q 31.78125 70.515625 30.390625 73.265625 
Q 29 76.03125 29 79.390625 
Q 29 84.96875 32.90625 88.890625 
Q 36.8125 92.828125 42.390625 92.828125 
Q 47.953125 92.828125 51.875 88.890625 
Q 55.8125 84.96875 55.8125 79.390625 
Q 55.8125 75.53125 54.03125 72.546875 
Q 52.25 69.578125 48.875 67.828125 
L 61.53125 0 
L 51.21875 0 
L 48.1875 18.703125 
L 15.375 18.703125 
L 5.078125 0 
L -5.328125 0 
z
M 40.375 63.1875 
L 19.921875 26.90625 
L 46.6875 26.90625 
z
" id="DejaVuSans-Oblique-197"/>
       <path d="M 8.015625 75.875 
L 15.828125 75.875 
Q 23.140625 64.359375 26.78125 53.3125 
Q 30.421875 42.28125 30.421875 31.390625 
Q 30.421875 20.453125 26.78125 9.375 
Q 23.140625 -1.703125 15.828125 -13.1875 
L 8.015625 -13.1875 
Q 14.5 -2 17.703125 9.0625 
Q 20.90625 20.125 20.90625 31.390625 
Q 20.90625 42.671875 17.703125 53.65625 
Q 14.5 64.65625 8.015625 75.875 
z
" id="DejaVuSans-41"/>
      </defs>
      <use transform="translate(0 0.171875)" xlink:href="#DejaVuSans-Oblique-116"/>
      <use transform="translate(39.208984 0.171875)" xlink:href="#DejaVuSans-Oblique-104"/>
      <use transform="translate(102.587891 0.171875)" xlink:href="#DejaVuSans-Oblique-105"/>
      <use transform="translate(130.371094 0.171875)" xlink:href="#DejaVuSans-Oblique-99"/>
      <use transform="translate(185.351562 0.171875)" xlink:href="#DejaVuSans-Oblique-107"/>
      <use transform="translate(243.261719 0.171875)" xlink:href="#DejaVuSans-Oblique-110"/>
      <use transform="translate(306.640625 0.171875)" xlink:href="#DejaVuSans-Oblique-101"/>
      <use transform="translate(368.164062 0.171875)" xlink:href="#DejaVuSans-Oblique-115"/>
      <use transform="translate(420.263672 0.171875)" xlink:href="#DejaVuSans-Oblique-115"/>
      <use transform="translate(472.363281 0.171875)" xlink:href="#DejaVuSans-40"/>
      <use transform="translate(511.376953 0.171875)" xlink:href="#DejaVuSans-Oblique-197"/>
      <use transform="translate(579.785156 0.171875)" xlink:href="#DejaVuSans-41"/>
     </g>
    </g>
   </g>
   <g id="matplotlib.axis_2">
    <g id="ytick_1">
     <g id="line2d_11">
      <path clip-path="url(#p2028937312)" d="M 108 663.26281 
L 698.4 663.26281 
" style="fill:none;stroke:#e6e6e6;stroke-linecap:square;stroke-width:0.8;"/>
     </g>
     <g id="line2d_12">
      <defs>
       <path d="M 0 0 
L -3.5 0 
" id="md23b34a70c" style="stroke:#000000;stroke-width:0.8;"/>
      </defs>
      <g>
       <use style="stroke:#000000;stroke-width:0.8;" x="108" xlink:href="#md23b34a70c" y="663.26281"/>
      </g>
     </g>
     <g id="text_7">
      <!-- 0.0000 -->
      <g transform="translate(48.514063 668.961638)scale(0.15 -0.15)">
       <defs>
        <path d="M 10.6875 12.40625 
L 21 12.40625 
L 21 0 
L 10.6875 0 
z
" id="DejaVuSans-46"/>
       </defs>
       <use xlink:href="#DejaVuSans-48"/>
       <use x="63.623047" xlink:href="#DejaVuSans-46"/>
       <use x="95.410156" xlink:href="#DejaVuSans-48"/>
       <use x="159.033203" xlink:href="#DejaVuSans-48"/>
       <use x="222.65625" xlink:href="#DejaVuSans-48"/>
       <use x="286.279297" xlink:href="#DejaVuSans-48"/>
      </g>
     </g>
    </g>
    <g id="ytick_2">
     <g id="line2d_13">
      <path clip-path="url(#p2028937312)" d="M 108 582.862954 
L 698.4 582.862954 
" style="fill:none;stroke:#e6e6e6;stroke-linecap:square;stroke-width:0.8;"/>
     </g>
     <g id="line2d_14">
      <g>
       <use style="stroke:#000000;stroke-width:0.8;" x="108" xlink:href="#md23b34a70c" y="582.862954"/>
      </g>
     </g>
     <g id="text_8">
      <!-- 0.0005 -->
      <g transform="translate(48.514063 588.561782)scale(0.15 -0.15)">
       <defs>
        <path d="M 10.796875 72.90625 
L 49.515625 72.90625 
L 49.515625 64.59375 
L 19.828125 64.59375 
L 19.828125 46.734375 
Q 21.96875 47.46875 24.109375 47.828125 
Q 26.265625 48.1875 28.421875 48.1875 
Q 40.625 48.1875 47.75 41.5 
Q 54.890625 34.8125 54.890625 23.390625 
Q 54.890625 11.625 47.5625 5.09375 
Q 40.234375 -1.421875 26.90625 -1.421875 
Q 22.3125 -1.421875 17.546875 -0.640625 
Q 12.796875 0.140625 7.71875 1.703125 
L 7.71875 11.625 
Q 12.109375 9.234375 16.796875 8.0625 
Q 21.484375 6.890625 26.703125 6.890625 
Q 35.15625 6.890625 40.078125 11.328125 
Q 45.015625 15.765625 45.015625 23.390625 
Q 45.015625 31 40.078125 35.4375 
Q 35.15625 39.890625 26.703125 39.890625 
Q 22.75 39.890625 18.8125 39.015625 
Q 14.890625 38.140625 10.796875 36.28125 
z
" id="DejaVuSans-53"/>
       </defs>
       <use xlink:href="#DejaVuSans-48"/>
       <use x="63.623047" xlink:href="#DejaVuSans-46"/>
       <use x="95.410156" xlink:href="#DejaVuSans-48"/>
       <use x="159.033203" xlink:href="#DejaVuSans-48"/>
       <use x="222.65625" xlink:href="#DejaVuSans-48"/>
       <use x="286.279297" xlink:href="#DejaVuSans-53"/>
      </g>
     </g>
    </g>
    <g id="ytick_3">
     <g id="line2d_15">
      <path clip-path="url(#p2028937312)" d="M 108 502.463098 
L 698.4 502.463098 
" style="fill:none;stroke:#e6e6e6;stroke-linecap:square;stroke-width:0.8;"/>
     </g>
     <g id="line2d_16">
      <g>
       <use style="stroke:#000000;stroke-width:0.8;" x="108" xlink:href="#md23b34a70c" y="502.463098"/>
      </g>
     </g>
     <g id="text_9">
      <!-- 0.0010 -->
      <g transform="translate(48.514063 508.161926)scale(0.15 -0.15)">
       <defs>
        <path d="M 12.40625 8.296875 
L 28.515625 8.296875 
L 28.515625 63.921875 
L 10.984375 60.40625 
L 10.984375 69.390625 
L 28.421875 72.90625 
L 38.28125 72.90625 
L 38.28125 8.296875 
L 54.390625 8.296875 
L 54.390625 0 
L 12.40625 0 
z
" id="DejaVuSans-49"/>
       </defs>
       <use xlink:href="#DejaVuSans-48"/>
       <use x="63.623047" xlink:href="#DejaVuSans-46"/>
       <use x="95.410156" xlink:href="#DejaVuSans-48"/>
       <use x="159.033203" xlink:href="#DejaVuSans-48"/>
       <use x="222.65625" xlink:href="#DejaVuSans-49"/>
       <use x="286.279297" xlink:href="#DejaVuSans-48"/>
      </g>
     </g>
    </g>
    <g id="ytick_4">
     <g id="line2d_17">
      <path clip-path="url(#p2028937312)" d="M 108 422.063241 
L 698.4 422.063241 
" style="fill:none;stroke:#e6e6e6;stroke-linecap:square;stroke-width:0.8;"/>
     </g>
     <g id="line2d_18">
      <g>
       <use style="stroke:#000000;stroke-width:0.8;" x="108" xlink:href="#md23b34a70c" y="422.063241"/>
      </g>
     </g>
     <g id="text_10">
      <!-- 0.0015 -->
      <g transform="translate(48.514063 427.762069)scale(0.15 -0.15)">
       <use xlink:href="#DejaVuSans-48"/>
       <use x="63.623047" xlink:href="#DejaVuSans-46"/>
       <use x="95.410156" xlink:href="#DejaVuSans-48"/>
       <use x="159.033203" xlink:href="#DejaVuSans-48"/>
       <use x="222.65625" xlink:href="#DejaVuSans-49"/>
       <use x="286.279297" xlink:href="#DejaVuSans-53"/>
      </g>
     </g>
    </g>
    <g id="ytick_5">
     <g id="line2d_19">
      <path clip-path="url(#p2028937312)" d="M 108 341.663385 
L 698.4 341.663385 
" style="fill:none;stroke:#e6e6e6;stroke-linecap:square;stroke-width:0.8;"/>
     </g>
     <g id="line2d_20">
      <g>
       <use style="stroke:#000000;stroke-width:0.8;" x="108" xlink:href="#md23b34a70c" y="341.663385"/>
      </g>
     </g>
     <g id="text_11">
      <!-- 0.0020 -->
      <g transform="translate(48.514063 347.362213)scale(0.15 -0.15)">
       <use xlink:href="#DejaVuSans-48"/>
       <use x="63.623047" xlink:href="#DejaVuSans-46"/>
       <use x="95.410156" xlink:href="#DejaVuSans-48"/>
       <use x="159.033203" xlink:href="#DejaVuSans-48"/>
       <use x="222.65625" xlink:href="#DejaVuSans-50"/>
       <use x="286.279297" xlink:href="#DejaVuSans-48"/>
      </g>
     </g>
    </g>
    <g id="ytick_6">
     <g id="line2d_21">
      <path clip-path="url(#p2028937312)" d="M 108 261.263529 
L 698.4 261.263529 
" style="fill:none;stroke:#e6e6e6;stroke-linecap:square;stroke-width:0.8;"/>
     </g>
     <g id="line2d_22">
      <g>
       <use style="stroke:#000000;stroke-width:0.8;" x="108" xlink:href="#md23b34a70c" y="261.263529"/>
      </g>
     </g>
     <g id="text_12">
      <!-- 0.0025 -->
      <g transform="translate(48.514063 266.962357)scale(0.15 -0.15)">
       <use xlink:href="#DejaVuSans-48"/>
       <use x="63.623047" xlink:href="#DejaVuSans-46"/>
       <use x="95.410156" xlink:href="#DejaVuSans-48"/>
       <use x="159.033203" xlink:href="#DejaVuSans-48"/>
       <use x="222.65625" xlink:href="#DejaVuSans-50"/>
       <use x="286.279297" xlink:href="#DejaVuSans-53"/>
      </g>
     </g>
    </g>
    <g id="ytick_7">
     <g id="line2d_23">
      <path clip-path="url(#p2028937312)" d="M 108 180.863673 
L 698.4 180.863673 
" style="fill:none;stroke:#e6e6e6;stroke-linecap:square;stroke-width:0.8;"/>
     </g>
     <g id="line2d_24">
      <g>
       <use style="stroke:#000000;stroke-width:0.8;" x="108" xlink:href="#md23b34a70c" y="180.863673"/>
      </g>
     </g>
     <g id="text_13">
      <!-- 0.0030 -->
      <g transform="translate(48.514063 186.562501)scale(0.15 -0.15)">
       <defs>
        <path d="M 40.578125 39.3125 
Q 47.65625 37.796875 51.625 33 
Q 55.609375 28.21875 55.609375 21.1875 
Q 55.609375 10.40625 48.1875 4.484375 
Q 40.765625 -1.421875 27.09375 -1.421875 
Q 22.515625 -1.421875 17.65625 -0.515625 
Q 12.796875 0.390625 7.625 2.203125 
L 7.625 11.71875 
Q 11.71875 9.328125 16.59375 8.109375 
Q 21.484375 6.890625 26.8125 6.890625 
Q 36.078125 6.890625 40.9375 10.546875 
Q 45.796875 14.203125 45.796875 21.1875 
Q 45.796875 27.640625 41.28125 31.265625 
Q 36.765625 34.90625 28.71875 34.90625 
L 20.21875 34.90625 
L 20.21875 43.015625 
L 29.109375 43.015625 
Q 36.375 43.015625 40.234375 45.921875 
Q 44.09375 48.828125 44.09375 54.296875 
Q 44.09375 59.90625 40.109375 62.90625 
Q 36.140625 65.921875 28.71875 65.921875 
Q 24.65625 65.921875 20.015625 65.03125 
Q 15.375 64.15625 9.8125 62.3125 
L 9.8125 71.09375 
Q 15.4375 72.65625 20.34375 73.4375 
Q 25.25 74.21875 29.59375 74.21875 
Q 40.828125 74.21875 47.359375 69.109375 
Q 53.90625 64.015625 53.90625 55.328125 
Q 53.90625 49.265625 50.4375 45.09375 
Q 46.96875 40.921875 40.578125 39.3125 
z
" id="DejaVuSans-51"/>
       </defs>
       <use xlink:href="#DejaVuSans-48"/>
       <use x="63.623047" xlink:href="#DejaVuSans-46"/>
       <use x="95.410156" xlink:href="#DejaVuSans-48"/>
       <use x="159.033203" xlink:href="#DejaVuSans-48"/>
       <use x="222.65625" xlink:href="#DejaVuSans-51"/>
       <use x="286.279297" xlink:href="#DejaVuSans-48"/>
      </g>
     </g>
    </g>
    <g id="ytick_8">
     <g id="line2d_25">
      <path clip-path="url(#p2028937312)" d="M 108 100.463817 
L 698.4 100.463817 
" style="fill:none;stroke:#e6e6e6;stroke-linecap:square;stroke-width:0.8;"/>
     </g>
     <g id="line2d_26">
      <g>
       <use style="stroke:#000000;stroke-width:0.8;" x="108" xlink:href="#md23b34a70c" y="100.463817"/>
      </g>
     </g>
     <g id="text_14">
      <!-- 0.0035 -->
      <g transform="translate(48.514063 106.162645)scale(0.15 -0.15)">
       <use xlink:href="#DejaVuSans-48"/>
       <use x="63.623047" xlink:href="#DejaVuSans-46"/>
       <use x="95.410156" xlink:href="#DejaVuSans-48"/>
       <use x="159.033203" xlink:href="#DejaVuSans-48"/>
       <use x="222.65625" xlink:href="#DejaVuSans-51"/>
       <use x="286.279297" xlink:href="#DejaVuSans-53"/>
      </g>
     </g>
    </g>
    <g id="text_15">
     <!-- $I_{hk}$ -->
     <g transform="translate(39.314844 403.55)rotate(-90)scale(0.25 -0.25)">
      <defs>
       <path d="M 16.890625 72.90625 
L 26.8125 72.90625 
L 12.59375 0 
L 2.6875 0 
z
" id="DejaVuSans-Oblique-73"/>
      </defs>
      <use transform="translate(0 0.09375)" xlink:href="#DejaVuSans-Oblique-73"/>
      <use transform="translate(29.492188 -16.3125)scale(0.7)" xlink:href="#DejaVuSans-Oblique-104"/>
      <use transform="translate(73.857422 -16.3125)scale(0.7)" xlink:href="#DejaVuSans-Oblique-107"/>
     </g>
    </g>
   </g>
   <g id="line2d_27">
    <path clip-path="url(#p2028937312)" d="M 159.233058 663.26281 
L 160.45595 662.343954 
L 161.678842 659.605956 
L 162.901734 655.103745 
L 164.124626 648.926312 
L 165.347518 641.193016 
L 166.570409 632.048662 
L 167.793301 621.657631 
L 170.239085 597.851237 
L 172.684869 571.225131 
L 178.799329 500.364165 
L 184.913789 430.86213 
L 189.805356 375.189402 
L 193.474032 331.281246 
L 198.3656 269.304626 
L 203.257168 207.283492 
L 205.702952 178.883733 
L 208.148735 154.044681 
L 209.371627 143.408273 
L 210.594519 134.190419 
L 211.817411 126.5504 
L 213.040303 120.632109 
L 214.263195 116.5602 
L 215.486087 114.436558 
L 216.708979 114.33719 
L 217.931871 116.309639 
L 219.154763 120.371003 
L 220.377655 126.506673 
L 221.600547 134.669841 
L 222.823439 144.781869 
L 224.046331 156.733544 
L 225.269223 170.387235 
L 227.715007 202.127114 
L 230.16079 238.467399 
L 233.829466 297.837777 
L 238.721034 377.507872 
L 241.166818 414.739478 
L 243.612602 449.306061 
L 246.058386 481.039711 
L 248.50417 510.101741 
L 250.949953 536.837226 
L 253.395737 561.604043 
L 255.841521 584.611154 
L 258.287305 605.798935 
L 260.733089 624.78537 
L 261.955981 633.249458 
L 263.178873 640.888051 
L 264.401765 647.58407 
L 265.624657 653.216116 
L 266.847549 657.663659 
L 268.070441 660.812294 
L 269.293333 662.558816 
L 270.516224 662.815874 
L 271.739116 661.51598 
L 272.962008 658.61472 
L 274.1849 654.093015 
L 275.407792 647.958384 
L 276.630684 640.24516 
L 277.853576 631.013706 
L 279.076468 620.348689 
L 280.29936 608.356526 
L 282.745144 580.905288 
L 285.190928 549.812038 
L 288.859604 499.084292 
L 294.974063 413.063367 
L 298.642739 364.936405 
L 301.088523 335.09601 
L 303.534307 307.099943 
L 307.202983 268.297187 
L 310.871658 232.889289 
L 313.317442 211.110295 
L 315.763226 191.00549 
L 318.20901 173.012185 
L 319.431902 165.006888 
L 320.654794 157.794154 
L 321.877686 151.484812 
L 323.100578 146.195843 
L 324.32347 142.046835 
L 325.546362 139.156068 
L 326.769254 137.636338 
L 327.992146 137.590716 
L 329.215038 139.108398 
L 330.43793 142.260828 
L 331.660821 147.098281 
L 332.883713 153.647056 
L 334.106605 161.907418 
L 335.329497 171.852405 
L 336.552389 183.427565 
L 337.775281 196.551639 
L 340.221065 226.998145 
L 342.666849 262.0887 
L 345.112633 300.475723 
L 354.895768 459.259152 
L 357.341552 494.760877 
L 359.787336 527.275931 
L 362.23312 556.562537 
L 364.678904 582.511677 
L 367.124688 605.06467 
L 369.570472 624.143602 
L 370.793364 632.339031 
L 372.016256 639.606423 
L 373.239147 645.915503 
L 374.462039 651.231647 
L 375.684931 655.516849 
L 376.907823 658.730943 
L 378.130715 660.833031 
L 379.353607 661.783013 
L 380.576499 661.543181 
L 381.799391 660.079788 
L 383.022283 657.364563 
L 384.245175 653.376122 
L 385.468067 648.101238 
L 386.690959 641.535971 
L 387.913851 633.686618 
L 389.136743 624.570486 
L 390.359635 614.216473 
L 391.582527 602.665448 
L 394.02831 576.196472 
L 396.474094 545.730509 
L 398.919878 512.01187 
L 402.588554 457.312099 
L 409.925906 345.458571 
L 412.37169 310.871871 
L 414.817473 278.828056 
L 417.263257 249.762116 
L 419.709041 223.9303 
L 422.154825 201.45824 
L 424.600609 182.409889 
L 425.823501 174.191092 
L 427.046393 166.861363 
L 428.269285 160.442083 
L 429.492177 154.96144 
L 430.715069 150.454502 
L 431.937961 146.962647 
L 433.160853 144.532331 
L 434.383744 143.213282 
L 435.606636 143.056193 
L 436.829528 144.110064 
L 438.05242 146.419329 
L 439.275312 150.020958 
L 440.498204 154.94169 
L 441.721096 161.195577 
L 442.943988 168.781986 
L 444.16688 177.68418 
L 445.389772 187.868566 
L 446.612664 199.28466 
L 449.058448 225.530303 
L 451.504232 255.721217 
L 453.950016 288.991834 
L 457.618691 342.608331 
L 466.178935 470.056781 
L 469.847611 520.301837 
L 472.293395 551.054552 
L 474.739179 579.048202 
L 477.184962 603.775822 
L 478.407854 614.752832 
L 479.630746 624.720273 
L 480.853638 633.617629 
L 482.07653 641.388859 
L 483.299422 647.983947 
L 484.522314 653.360324 
L 485.745206 657.484049 
L 486.968098 660.330697 
L 488.19099 661.885866 
L 489.413882 662.145317 
L 490.636774 661.114717 
L 491.859666 658.809049 
L 493.082558 655.251724 
L 494.30545 650.473498 
L 495.528342 644.511258 
L 496.751233 637.406792 
L 497.974125 629.205631 
L 499.197017 619.95603 
L 500.419909 609.708174 
L 502.865693 586.425033 
L 505.311477 559.781902 
L 507.757261 530.226045 
L 510.203045 498.238359 
L 513.871721 446.866519 
L 524.877748 287.790038 
L 527.323532 255.465695 
L 529.769316 225.475334 
L 532.2151 198.330083 
L 534.660884 174.550049 
L 535.883776 164.094421 
L 537.106667 154.693402 
L 538.329559 146.424722 
L 539.552451 139.368435 
L 540.775343 133.605547 
L 541.998235 129.216072 
L 543.221127 126.276594 
L 544.444019 124.857398 
L 545.666911 125.019348 
L 546.889803 126.81065 
L 548.112695 130.263697 
L 549.335587 135.392195 
L 550.558479 142.18877 
L 551.781371 150.623207 
L 553.004263 160.641508 
L 554.227155 172.165831 
L 555.450047 185.095411 
L 557.89583 214.664784 
L 560.341614 248.178014 
L 564.01029 302.913761 
L 570.12475 395.608914 
L 573.793426 447.295203 
L 576.23921 479.30663 
L 578.684993 509.327134 
L 581.130777 537.430794 
L 583.576561 563.647096 
L 586.022345 587.859815 
L 588.468129 609.749622 
L 590.913913 628.790313 
L 592.136805 637.032094 
L 593.359697 644.296506 
L 594.582589 650.487285 
L 595.805481 655.510309 
L 597.028373 659.277066 
L 598.251265 661.707948 
L 599.474156 662.73524 
L 600.697048 662.305685 
L 601.91994 660.382562 
L 603.142832 656.947206 
L 604.365724 651.999959 
L 605.588616 645.560551 
L 606.811508 637.667936 
L 608.0344 628.379618 
L 609.257292 617.770522 
L 610.480184 605.931474 
L 612.925968 578.994877 
L 615.371752 548.537274 
L 619.040428 498.618891 
L 626.377779 396.474661 
L 630.046455 349.560707 
L 632.492239 320.701543 
L 634.938023 293.756632 
L 638.606699 256.442605 
L 642.275374 222.082251 
L 645.94405 190.420887 
L 647.166942 180.612209 
L 647.166942 180.612209 
" style="fill:none;stroke:#5e4fa2;stroke-linecap:square;stroke-width:2;"/>
    <defs>
     <path d="M -2.5 2.5 
L 2.5 -2.5 
M -2.5 -2.5 
L 2.5 2.5 
" id="m762e0d0cc6" style="stroke:#5e4fa2;"/>
    </defs>
    <g clip-path="url(#p2028937312)">
     <use style="fill:#5e4fa2;stroke:#5e4fa2;" x="159.233058" xlink:href="#m762e0d0cc6" y="663.26281"/>
     <use style="fill:#5e4fa2;stroke:#5e4fa2;" x="160.45595" xlink:href="#m762e0d0cc6" y="662.343954"/>
     <use style="fill:#5e4fa2;stroke:#5e4fa2;" x="161.678842" xlink:href="#m762e0d0cc6" y="659.605956"/>
     <use style="fill:#5e4fa2;stroke:#5e4fa2;" x="162.901734" xlink:href="#m762e0d0cc6" y="655.103745"/>
     <use style="fill:#5e4fa2;stroke:#5e4fa2;" x="164.124626" xlink:href="#m762e0d0cc6" y="648.926312"/>
     <use style="fill:#5e4fa2;stroke:#5e4fa2;" x="165.347518" xlink:href="#m762e0d0cc6" y="641.193016"/>
     <use style="fill:#5e4fa2;stroke:#5e4fa2;" x="166.570409" xlink:href="#m762e0d0cc6" y="632.048662"/>
     <use style="fill:#5e4fa2;stroke:#5e4fa2;" x="167.793301" xlink:href="#m762e0d0cc6" y="621.657631"/>
     <use style="fill:#5e4fa2;stroke:#5e4fa2;" x="169.016193" xlink:href="#m762e0d0cc6" y="610.197319"/>
     <use style="fill:#5e4fa2;stroke:#5e4fa2;" x="170.239085" xlink:href="#m762e0d0cc6" y="597.851237"/>
     <use style="fill:#5e4fa2;stroke:#5e4fa2;" x="171.461977" xlink:href="#m762e0d0cc6" y="584.802082"/>
     <use style="fill:#5e4fa2;stroke:#5e4fa2;" x="172.684869" xlink:href="#m762e0d0cc6" y="571.225131"/>
     <use style="fill:#5e4fa2;stroke:#5e4fa2;" x="173.907761" xlink:href="#m762e0d0cc6" y="557.282243"/>
     <use style="fill:#5e4fa2;stroke:#5e4fa2;" x="175.130653" xlink:href="#m762e0d0cc6" y="543.116742"/>
     <use style="fill:#5e4fa2;stroke:#5e4fa2;" x="176.353545" xlink:href="#m762e0d0cc6" y="528.849397"/>
     <use style="fill:#5e4fa2;stroke:#5e4fa2;" x="177.576437" xlink:href="#m762e0d0cc6" y="514.575648"/>
     <use style="fill:#5e4fa2;stroke:#5e4fa2;" x="178.799329" xlink:href="#m762e0d0cc6" y="500.364165"/>
     <use style="fill:#5e4fa2;stroke:#5e4fa2;" x="180.022221" xlink:href="#m762e0d0cc6" y="486.256742"/>
     <use style="fill:#5e4fa2;stroke:#5e4fa2;" x="181.245113" xlink:href="#m762e0d0cc6" y="472.269509"/>
     <use style="fill:#5e4fa2;stroke:#5e4fa2;" x="182.468005" xlink:href="#m762e0d0cc6" y="458.395303"/>
     <use style="fill:#5e4fa2;stroke:#5e4fa2;" x="183.690897" xlink:href="#m762e0d0cc6" y="444.607079"/>
     <use style="fill:#5e4fa2;stroke:#5e4fa2;" x="184.913789" xlink:href="#m762e0d0cc6" y="430.86213"/>
     <use style="fill:#5e4fa2;stroke:#5e4fa2;" x="186.136681" xlink:href="#m762e0d0cc6" y="417.10689"/>
     <use style="fill:#5e4fa2;stroke:#5e4fa2;" x="187.359572" xlink:href="#m762e0d0cc6" y="403.282082"/>
     <use style="fill:#5e4fa2;stroke:#5e4fa2;" x="188.582464" xlink:href="#m762e0d0cc6" y="389.327959"/>
     <use style="fill:#5e4fa2;stroke:#5e4fa2;" x="189.805356" xlink:href="#m762e0d0cc6" y="375.189402"/>
     <use style="fill:#5e4fa2;stroke:#5e4fa2;" x="191.028248" xlink:href="#m762e0d0cc6" y="360.820673"/>
     <use style="fill:#5e4fa2;stroke:#5e4fa2;" x="192.25114" xlink:href="#m762e0d0cc6" y="346.189624"/>
     <use style="fill:#5e4fa2;stroke:#5e4fa2;" x="193.474032" xlink:href="#m762e0d0cc6" y="331.281246"/>
     <use style="fill:#5e4fa2;stroke:#5e4fa2;" x="194.696924" xlink:href="#m762e0d0cc6" y="316.100422"/>
     <use style="fill:#5e4fa2;stroke:#5e4fa2;" x="195.919816" xlink:href="#m762e0d0cc6" y="300.673844"/>
     <use style="fill:#5e4fa2;stroke:#5e4fa2;" x="197.142708" xlink:href="#m762e0d0cc6" y="285.051053"/>
     <use style="fill:#5e4fa2;stroke:#5e4fa2;" x="198.3656" xlink:href="#m762e0d0cc6" y="269.304626"/>
     <use style="fill:#5e4fa2;stroke:#5e4fa2;" x="199.588492" xlink:href="#m762e0d0cc6" y="253.529528"/>
     <use style="fill:#5e4fa2;stroke:#5e4fa2;" x="200.811384" xlink:href="#m762e0d0cc6" y="237.841708"/>
     <use style="fill:#5e4fa2;stroke:#5e4fa2;" x="202.034276" xlink:href="#m762e0d0cc6" y="222.376012"/>
     <use style="fill:#5e4fa2;stroke:#5e4fa2;" x="203.257168" xlink:href="#m762e0d0cc6" y="207.283492"/>
     <use style="fill:#5e4fa2;stroke:#5e4fa2;" x="204.48006" xlink:href="#m762e0d0cc6" y="192.728228"/>
     <use style="fill:#5e4fa2;stroke:#5e4fa2;" x="205.702952" xlink:href="#m762e0d0cc6" y="178.883733"/>
     <use style="fill:#5e4fa2;stroke:#5e4fa2;" x="206.925844" xlink:href="#m762e0d0cc6" y="165.929058"/>
     <use style="fill:#5e4fa2;stroke:#5e4fa2;" x="208.148735" xlink:href="#m762e0d0cc6" y="154.044681"/>
     <use style="fill:#5e4fa2;stroke:#5e4fa2;" x="209.371627" xlink:href="#m762e0d0cc6" y="143.408273"/>
     <use style="fill:#5e4fa2;stroke:#5e4fa2;" x="210.594519" xlink:href="#m762e0d0cc6" y="134.190419"/>
     <use style="fill:#5e4fa2;stroke:#5e4fa2;" x="211.817411" xlink:href="#m762e0d0cc6" y="126.5504"/>
     <use style="fill:#5e4fa2;stroke:#5e4fa2;" x="213.040303" xlink:href="#m762e0d0cc6" y="120.632109"/>
     <use style="fill:#5e4fa2;stroke:#5e4fa2;" x="214.263195" xlink:href="#m762e0d0cc6" y="116.5602"/>
     <use style="fill:#5e4fa2;stroke:#5e4fa2;" x="215.486087" xlink:href="#m762e0d0cc6" y="114.436558"/>
     <use style="fill:#5e4fa2;stroke:#5e4fa2;" x="216.708979" xlink:href="#m762e0d0cc6" y="114.33719"/>
     <use style="fill:#5e4fa2;stroke:#5e4fa2;" x="217.931871" xlink:href="#m762e0d0cc6" y="116.309639"/>
     <use style="fill:#5e4fa2;stroke:#5e4fa2;" x="219.154763" xlink:href="#m762e0d0cc6" y="120.371003"/>
     <use style="fill:#5e4fa2;stroke:#5e4fa2;" x="220.377655" xlink:href="#m762e0d0cc6" y="126.506673"/>
     <use style="fill:#5e4fa2;stroke:#5e4fa2;" x="221.600547" xlink:href="#m762e0d0cc6" y="134.669841"/>
     <use style="fill:#5e4fa2;stroke:#5e4fa2;" x="222.823439" xlink:href="#m762e0d0cc6" y="144.781869"/>
     <use style="fill:#5e4fa2;stroke:#5e4fa2;" x="224.046331" xlink:href="#m762e0d0cc6" y="156.733544"/>
     <use style="fill:#5e4fa2;stroke:#5e4fa2;" x="225.269223" xlink:href="#m762e0d0cc6" y="170.387235"/>
     <use style="fill:#5e4fa2;stroke:#5e4fa2;" x="226.492115" xlink:href="#m762e0d0cc6" y="185.579933"/>
     <use style="fill:#5e4fa2;stroke:#5e4fa2;" x="227.715007" xlink:href="#m762e0d0cc6" y="202.127114"/>
     <use style="fill:#5e4fa2;stroke:#5e4fa2;" x="228.937898" xlink:href="#m762e0d0cc6" y="219.827332"/>
     <use style="fill:#5e4fa2;stroke:#5e4fa2;" x="230.16079" xlink:href="#m762e0d0cc6" y="238.467399"/>
     <use style="fill:#5e4fa2;stroke:#5e4fa2;" x="231.383682" xlink:href="#m762e0d0cc6" y="257.827995"/>
     <use style="fill:#5e4fa2;stroke:#5e4fa2;" x="232.606574" xlink:href="#m762e0d0cc6" y="277.689491"/>
     <use style="fill:#5e4fa2;stroke:#5e4fa2;" x="233.829466" xlink:href="#m762e0d0cc6" y="297.837777"/>
     <use style="fill:#5e4fa2;stroke:#5e4fa2;" x="235.052358" xlink:href="#m762e0d0cc6" y="318.069851"/>
     <use style="fill:#5e4fa2;stroke:#5e4fa2;" x="236.27525" xlink:href="#m762e0d0cc6" y="338.198941"/>
     <use style="fill:#5e4fa2;stroke:#5e4fa2;" x="237.498142" xlink:href="#m762e0d0cc6" y="358.058927"/>
     <use style="fill:#5e4fa2;stroke:#5e4fa2;" x="238.721034" xlink:href="#m762e0d0cc6" y="377.507872"/>
     <use style="fill:#5e4fa2;stroke:#5e4fa2;" x="239.943926" xlink:href="#m762e0d0cc6" y="396.430498"/>
     <use style="fill:#5e4fa2;stroke:#5e4fa2;" x="241.166818" xlink:href="#m762e0d0cc6" y="414.739478"/>
     <use style="fill:#5e4fa2;stroke:#5e4fa2;" x="242.38971" xlink:href="#m762e0d0cc6" y="432.375496"/>
     <use style="fill:#5e4fa2;stroke:#5e4fa2;" x="243.612602" xlink:href="#m762e0d0cc6" y="449.306061"/>
     <use style="fill:#5e4fa2;stroke:#5e4fa2;" x="244.835494" xlink:href="#m762e0d0cc6" y="465.523138"/>
     <use style="fill:#5e4fa2;stroke:#5e4fa2;" x="246.058386" xlink:href="#m762e0d0cc6" y="481.039711"/>
     <use style="fill:#5e4fa2;stroke:#5e4fa2;" x="247.281278" xlink:href="#m762e0d0cc6" y="495.885457"/>
     <use style="fill:#5e4fa2;stroke:#5e4fa2;" x="248.50417" xlink:href="#m762e0d0cc6" y="510.101741"/>
     <use style="fill:#5e4fa2;stroke:#5e4fa2;" x="249.727061" xlink:href="#m762e0d0cc6" y="523.736208"/>
     <use style="fill:#5e4fa2;stroke:#5e4fa2;" x="250.949953" xlink:href="#m762e0d0cc6" y="536.837226"/>
     <use style="fill:#5e4fa2;stroke:#5e4fa2;" x="252.172845" xlink:href="#m762e0d0cc6" y="549.448489"/>
     <use style="fill:#5e4fa2;stroke:#5e4fa2;" x="253.395737" xlink:href="#m762e0d0cc6" y="561.604043"/>
     <use style="fill:#5e4fa2;stroke:#5e4fa2;" x="254.618629" xlink:href="#m762e0d0cc6" y="573.324"/>
     <use style="fill:#5e4fa2;stroke:#5e4fa2;" x="255.841521" xlink:href="#m762e0d0cc6" y="584.611154"/>
     <use style="fill:#5e4fa2;stroke:#5e4fa2;" x="257.064413" xlink:href="#m762e0d0cc6" y="595.448666"/>
     <use style="fill:#5e4fa2;stroke:#5e4fa2;" x="258.287305" xlink:href="#m762e0d0cc6" y="605.798935"/>
     <use style="fill:#5e4fa2;stroke:#5e4fa2;" x="259.510197" xlink:href="#m762e0d0cc6" y="615.603702"/>
     <use style="fill:#5e4fa2;stroke:#5e4fa2;" x="260.733089" xlink:href="#m762e0d0cc6" y="624.78537"/>
     <use style="fill:#5e4fa2;stroke:#5e4fa2;" x="261.955981" xlink:href="#m762e0d0cc6" y="633.249458"/>
     <use style="fill:#5e4fa2;stroke:#5e4fa2;" x="263.178873" xlink:href="#m762e0d0cc6" y="640.888051"/>
     <use style="fill:#5e4fa2;stroke:#5e4fa2;" x="264.401765" xlink:href="#m762e0d0cc6" y="647.58407"/>
     <use style="fill:#5e4fa2;stroke:#5e4fa2;" x="265.624657" xlink:href="#m762e0d0cc6" y="653.216116"/>
     <use style="fill:#5e4fa2;stroke:#5e4fa2;" x="266.847549" xlink:href="#m762e0d0cc6" y="657.663659"/>
     <use style="fill:#5e4fa2;stroke:#5e4fa2;" x="268.070441" xlink:href="#m762e0d0cc6" y="660.812294"/>
     <use style="fill:#5e4fa2;stroke:#5e4fa2;" x="269.293333" xlink:href="#m762e0d0cc6" y="662.558816"/>
     <use style="fill:#5e4fa2;stroke:#5e4fa2;" x="270.516224" xlink:href="#m762e0d0cc6" y="662.815874"/>
     <use style="fill:#5e4fa2;stroke:#5e4fa2;" x="271.739116" xlink:href="#m762e0d0cc6" y="661.51598"/>
     <use style="fill:#5e4fa2;stroke:#5e4fa2;" x="272.962008" xlink:href="#m762e0d0cc6" y="658.61472"/>
     <use style="fill:#5e4fa2;stroke:#5e4fa2;" x="274.1849" xlink:href="#m762e0d0cc6" y="654.093015"/>
     <use style="fill:#5e4fa2;stroke:#5e4fa2;" x="275.407792" xlink:href="#m762e0d0cc6" y="647.958384"/>
     <use style="fill:#5e4fa2;stroke:#5e4fa2;" x="276.630684" xlink:href="#m762e0d0cc6" y="640.24516"/>
     <use style="fill:#5e4fa2;stroke:#5e4fa2;" x="277.853576" xlink:href="#m762e0d0cc6" y="631.013706"/>
     <use style="fill:#5e4fa2;stroke:#5e4fa2;" x="279.076468" xlink:href="#m762e0d0cc6" y="620.348689"/>
     <use style="fill:#5e4fa2;stroke:#5e4fa2;" x="280.29936" xlink:href="#m762e0d0cc6" y="608.356526"/>
     <use style="fill:#5e4fa2;stroke:#5e4fa2;" x="281.522252" xlink:href="#m762e0d0cc6" y="595.162156"/>
     <use style="fill:#5e4fa2;stroke:#5e4fa2;" x="282.745144" xlink:href="#m762e0d0cc6" y="580.905288"/>
     <use style="fill:#5e4fa2;stroke:#5e4fa2;" x="283.968036" xlink:href="#m762e0d0cc6" y="565.73631"/>
     <use style="fill:#5e4fa2;stroke:#5e4fa2;" x="285.190928" xlink:href="#m762e0d0cc6" y="549.812038"/>
     <use style="fill:#5e4fa2;stroke:#5e4fa2;" x="286.41382" xlink:href="#m762e0d0cc6" y="533.291474"/>
     <use style="fill:#5e4fa2;stroke:#5e4fa2;" x="287.636712" xlink:href="#m762e0d0cc6" y="516.331735"/>
     <use style="fill:#5e4fa2;stroke:#5e4fa2;" x="288.859604" xlink:href="#m762e0d0cc6" y="499.084292"/>
     <use style="fill:#5e4fa2;stroke:#5e4fa2;" x="290.082495" xlink:href="#m762e0d0cc6" y="481.69164"/>
     <use style="fill:#5e4fa2;stroke:#5e4fa2;" x="291.305387" xlink:href="#m762e0d0cc6" y="464.284479"/>
     <use style="fill:#5e4fa2;stroke:#5e4fa2;" x="292.528279" xlink:href="#m762e0d0cc6" y="446.979476"/>
     <use style="fill:#5e4fa2;stroke:#5e4fa2;" x="293.751171" xlink:href="#m762e0d0cc6" y="429.877647"/>
     <use style="fill:#5e4fa2;stroke:#5e4fa2;" x="294.974063" xlink:href="#m762e0d0cc6" y="413.063367"/>
     <use style="fill:#5e4fa2;stroke:#5e4fa2;" x="296.196955" xlink:href="#m762e0d0cc6" y="396.604002"/>
     <use style="fill:#5e4fa2;stroke:#5e4fa2;" x="297.419847" xlink:href="#m762e0d0cc6" y="380.550145"/>
     <use style="fill:#5e4fa2;stroke:#5e4fa2;" x="298.642739" xlink:href="#m762e0d0cc6" y="364.936405"/>
     <use style="fill:#5e4fa2;stroke:#5e4fa2;" x="299.865631" xlink:href="#m762e0d0cc6" y="349.7827"/>
     <use style="fill:#5e4fa2;stroke:#5e4fa2;" x="301.088523" xlink:href="#m762e0d0cc6" y="335.09601"/>
     <use style="fill:#5e4fa2;stroke:#5e4fa2;" x="302.311415" xlink:href="#m762e0d0cc6" y="320.872497"/>
     <use style="fill:#5e4fa2;stroke:#5e4fa2;" x="303.534307" xlink:href="#m762e0d0cc6" y="307.099943"/>
     <use style="fill:#5e4fa2;stroke:#5e4fa2;" x="304.757199" xlink:href="#m762e0d0cc6" y="293.760418"/>
     <use style="fill:#5e4fa2;stroke:#5e4fa2;" x="305.980091" xlink:href="#m762e0d0cc6" y="280.833103"/>
     <use style="fill:#5e4fa2;stroke:#5e4fa2;" x="307.202983" xlink:href="#m762e0d0cc6" y="268.297187"/>
     <use style="fill:#5e4fa2;stroke:#5e4fa2;" x="308.425875" xlink:href="#m762e0d0cc6" y="256.134734"/>
     <use style="fill:#5e4fa2;stroke:#5e4fa2;" x="309.648767" xlink:href="#m762e0d0cc6" y="244.333459"/>
     <use style="fill:#5e4fa2;stroke:#5e4fa2;" x="310.871658" xlink:href="#m762e0d0cc6" y="232.889289"/>
     <use style="fill:#5e4fa2;stroke:#5e4fa2;" x="312.09455" xlink:href="#m762e0d0cc6" y="221.808638"/>
     <use style="fill:#5e4fa2;stroke:#5e4fa2;" x="313.317442" xlink:href="#m762e0d0cc6" y="211.110295"/>
     <use style="fill:#5e4fa2;stroke:#5e4fa2;" x="314.540334" xlink:href="#m762e0d0cc6" y="200.826835"/>
     <use style="fill:#5e4fa2;stroke:#5e4fa2;" x="315.763226" xlink:href="#m762e0d0cc6" y="191.00549"/>
     <use style="fill:#5e4fa2;stroke:#5e4fa2;" x="316.986118" xlink:href="#m762e0d0cc6" y="181.708396"/>
     <use style="fill:#5e4fa2;stroke:#5e4fa2;" x="318.20901" xlink:href="#m762e0d0cc6" y="173.012185"/>
     <use style="fill:#5e4fa2;stroke:#5e4fa2;" x="319.431902" xlink:href="#m762e0d0cc6" y="165.006888"/>
     <use style="fill:#5e4fa2;stroke:#5e4fa2;" x="320.654794" xlink:href="#m762e0d0cc6" y="157.794154"/>
     <use style="fill:#5e4fa2;stroke:#5e4fa2;" x="321.877686" xlink:href="#m762e0d0cc6" y="151.484812"/>
     <use style="fill:#5e4fa2;stroke:#5e4fa2;" x="323.100578" xlink:href="#m762e0d0cc6" y="146.195843"/>
     <use style="fill:#5e4fa2;stroke:#5e4fa2;" x="324.32347" xlink:href="#m762e0d0cc6" y="142.046835"/>
     <use style="fill:#5e4fa2;stroke:#5e4fa2;" x="325.546362" xlink:href="#m762e0d0cc6" y="139.156068"/>
     <use style="fill:#5e4fa2;stroke:#5e4fa2;" x="326.769254" xlink:href="#m762e0d0cc6" y="137.636338"/>
     <use style="fill:#5e4fa2;stroke:#5e4fa2;" x="327.992146" xlink:href="#m762e0d0cc6" y="137.590716"/>
     <use style="fill:#5e4fa2;stroke:#5e4fa2;" x="329.215038" xlink:href="#m762e0d0cc6" y="139.108398"/>
     <use style="fill:#5e4fa2;stroke:#5e4fa2;" x="330.43793" xlink:href="#m762e0d0cc6" y="142.260828"/>
     <use style="fill:#5e4fa2;stroke:#5e4fa2;" x="331.660821" xlink:href="#m762e0d0cc6" y="147.098281"/>
     <use style="fill:#5e4fa2;stroke:#5e4fa2;" x="332.883713" xlink:href="#m762e0d0cc6" y="153.647056"/>
     <use style="fill:#5e4fa2;stroke:#5e4fa2;" x="334.106605" xlink:href="#m762e0d0cc6" y="161.907418"/>
     <use style="fill:#5e4fa2;stroke:#5e4fa2;" x="335.329497" xlink:href="#m762e0d0cc6" y="171.852405"/>
     <use style="fill:#5e4fa2;stroke:#5e4fa2;" x="336.552389" xlink:href="#m762e0d0cc6" y="183.427565"/>
     <use style="fill:#5e4fa2;stroke:#5e4fa2;" x="337.775281" xlink:href="#m762e0d0cc6" y="196.551639"/>
     <use style="fill:#5e4fa2;stroke:#5e4fa2;" x="338.998173" xlink:href="#m762e0d0cc6" y="211.118199"/>
     <use style="fill:#5e4fa2;stroke:#5e4fa2;" x="340.221065" xlink:href="#m762e0d0cc6" y="226.998145"/>
     <use style="fill:#5e4fa2;stroke:#5e4fa2;" x="341.443957" xlink:href="#m762e0d0cc6" y="244.042977"/>
     <use style="fill:#5e4fa2;stroke:#5e4fa2;" x="342.666849" xlink:href="#m762e0d0cc6" y="262.0887"/>
     <use style="fill:#5e4fa2;stroke:#5e4fa2;" x="343.889741" xlink:href="#m762e0d0cc6" y="280.960172"/>
     <use style="fill:#5e4fa2;stroke:#5e4fa2;" x="345.112633" xlink:href="#m762e0d0cc6" y="300.475723"/>
     <use style="fill:#5e4fa2;stroke:#5e4fa2;" x="346.335525" xlink:href="#m762e0d0cc6" y="320.451825"/>
     <use style="fill:#5e4fa2;stroke:#5e4fa2;" x="347.558417" xlink:href="#m762e0d0cc6" y="340.707622"/>
     <use style="fill:#5e4fa2;stroke:#5e4fa2;" x="348.781309" xlink:href="#m762e0d0cc6" y="361.069119"/>
     <use style="fill:#5e4fa2;stroke:#5e4fa2;" x="350.004201" xlink:href="#m762e0d0cc6" y="381.372868"/>
     <use style="fill:#5e4fa2;stroke:#5e4fa2;" x="351.227093" xlink:href="#m762e0d0cc6" y="401.469001"/>
     <use style="fill:#5e4fa2;stroke:#5e4fa2;" x="352.449984" xlink:href="#m762e0d0cc6" y="421.223524"/>
     <use style="fill:#5e4fa2;stroke:#5e4fa2;" x="353.672876" xlink:href="#m762e0d0cc6" y="440.519791"/>
     <use style="fill:#5e4fa2;stroke:#5e4fa2;" x="354.895768" xlink:href="#m762e0d0cc6" y="459.259152"/>
     <use style="fill:#5e4fa2;stroke:#5e4fa2;" x="356.11866" xlink:href="#m762e0d0cc6" y="477.360799"/>
     <use style="fill:#5e4fa2;stroke:#5e4fa2;" x="357.341552" xlink:href="#m762e0d0cc6" y="494.760877"/>
     <use style="fill:#5e4fa2;stroke:#5e4fa2;" x="358.564444" xlink:href="#m762e0d0cc6" y="511.410944"/>
     <use style="fill:#5e4fa2;stroke:#5e4fa2;" x="359.787336" xlink:href="#m762e0d0cc6" y="527.275931"/>
     <use style="fill:#5e4fa2;stroke:#5e4fa2;" x="361.010228" xlink:href="#m762e0d0cc6" y="542.331724"/>
     <use style="fill:#5e4fa2;stroke:#5e4fa2;" x="362.23312" xlink:href="#m762e0d0cc6" y="556.562537"/>
     <use style="fill:#5e4fa2;stroke:#5e4fa2;" x="363.456012" xlink:href="#m762e0d0cc6" y="569.958223"/>
     <use style="fill:#5e4fa2;stroke:#5e4fa2;" x="364.678904" xlink:href="#m762e0d0cc6" y="582.511677"/>
     <use style="fill:#5e4fa2;stroke:#5e4fa2;" x="365.901796" xlink:href="#m762e0d0cc6" y="594.216444"/>
     <use style="fill:#5e4fa2;stroke:#5e4fa2;" x="367.124688" xlink:href="#m762e0d0cc6" y="605.06467"/>
     <use style="fill:#5e4fa2;stroke:#5e4fa2;" x="368.34758" xlink:href="#m762e0d0cc6" y="615.045443"/>
     <use style="fill:#5e4fa2;stroke:#5e4fa2;" x="369.570472" xlink:href="#m762e0d0cc6" y="624.143602"/>
     <use style="fill:#5e4fa2;stroke:#5e4fa2;" x="370.793364" xlink:href="#m762e0d0cc6" y="632.339031"/>
     <use style="fill:#5e4fa2;stroke:#5e4fa2;" x="372.016256" xlink:href="#m762e0d0cc6" y="639.606423"/>
     <use style="fill:#5e4fa2;stroke:#5e4fa2;" x="373.239147" xlink:href="#m762e0d0cc6" y="645.915503"/>
     <use style="fill:#5e4fa2;stroke:#5e4fa2;" x="374.462039" xlink:href="#m762e0d0cc6" y="651.231647"/>
     <use style="fill:#5e4fa2;stroke:#5e4fa2;" x="375.684931" xlink:href="#m762e0d0cc6" y="655.516849"/>
     <use style="fill:#5e4fa2;stroke:#5e4fa2;" x="376.907823" xlink:href="#m762e0d0cc6" y="658.730943"/>
     <use style="fill:#5e4fa2;stroke:#5e4fa2;" x="378.130715" xlink:href="#m762e0d0cc6" y="660.833031"/>
     <use style="fill:#5e4fa2;stroke:#5e4fa2;" x="379.353607" xlink:href="#m762e0d0cc6" y="661.783013"/>
     <use style="fill:#5e4fa2;stroke:#5e4fa2;" x="380.576499" xlink:href="#m762e0d0cc6" y="661.543181"/>
     <use style="fill:#5e4fa2;stroke:#5e4fa2;" x="381.799391" xlink:href="#m762e0d0cc6" y="660.079788"/>
     <use style="fill:#5e4fa2;stroke:#5e4fa2;" x="383.022283" xlink:href="#m762e0d0cc6" y="657.364563"/>
     <use style="fill:#5e4fa2;stroke:#5e4fa2;" x="384.245175" xlink:href="#m762e0d0cc6" y="653.376122"/>
     <use style="fill:#5e4fa2;stroke:#5e4fa2;" x="385.468067" xlink:href="#m762e0d0cc6" y="648.101238"/>
     <use style="fill:#5e4fa2;stroke:#5e4fa2;" x="386.690959" xlink:href="#m762e0d0cc6" y="641.535971"/>
     <use style="fill:#5e4fa2;stroke:#5e4fa2;" x="387.913851" xlink:href="#m762e0d0cc6" y="633.686618"/>
     <use style="fill:#5e4fa2;stroke:#5e4fa2;" x="389.136743" xlink:href="#m762e0d0cc6" y="624.570486"/>
     <use style="fill:#5e4fa2;stroke:#5e4fa2;" x="390.359635" xlink:href="#m762e0d0cc6" y="614.216473"/>
     <use style="fill:#5e4fa2;stroke:#5e4fa2;" x="391.582527" xlink:href="#m762e0d0cc6" y="602.665448"/>
     <use style="fill:#5e4fa2;stroke:#5e4fa2;" x="392.805419" xlink:href="#m762e0d0cc6" y="589.970418"/>
     <use style="fill:#5e4fa2;stroke:#5e4fa2;" x="394.02831" xlink:href="#m762e0d0cc6" y="576.196472"/>
     <use style="fill:#5e4fa2;stroke:#5e4fa2;" x="395.251202" xlink:href="#m762e0d0cc6" y="561.420474"/>
     <use style="fill:#5e4fa2;stroke:#5e4fa2;" x="396.474094" xlink:href="#m762e0d0cc6" y="545.730509"/>
     <use style="fill:#5e4fa2;stroke:#5e4fa2;" x="397.696986" xlink:href="#m762e0d0cc6" y="529.225053"/>
     <use style="fill:#5e4fa2;stroke:#5e4fa2;" x="398.919878" xlink:href="#m762e0d0cc6" y="512.01187"/>
     <use style="fill:#5e4fa2;stroke:#5e4fa2;" x="400.14277" xlink:href="#m762e0d0cc6" y="494.206631"/>
     <use style="fill:#5e4fa2;stroke:#5e4fa2;" x="401.365662" xlink:href="#m762e0d0cc6" y="475.93127"/>
     <use style="fill:#5e4fa2;stroke:#5e4fa2;" x="402.588554" xlink:href="#m762e0d0cc6" y="457.312099"/>
     <use style="fill:#5e4fa2;stroke:#5e4fa2;" x="403.811446" xlink:href="#m762e0d0cc6" y="438.477733"/>
     <use style="fill:#5e4fa2;stroke:#5e4fa2;" x="405.034338" xlink:href="#m762e0d0cc6" y="419.556871"/>
     <use style="fill:#5e4fa2;stroke:#5e4fa2;" x="406.25723" xlink:href="#m762e0d0cc6" y="400.676008"/>
     <use style="fill:#5e4fa2;stroke:#5e4fa2;" x="407.480122" xlink:href="#m762e0d0cc6" y="381.957168"/>
     <use style="fill:#5e4fa2;stroke:#5e4fa2;" x="408.703014" xlink:href="#m762e0d0cc6" y="363.515749"/>
     <use style="fill:#5e4fa2;stroke:#5e4fa2;" x="409.925906" xlink:href="#m762e0d0cc6" y="345.458571"/>
     <use style="fill:#5e4fa2;stroke:#5e4fa2;" x="411.148798" xlink:href="#m762e0d0cc6" y="327.882234"/>
     <use style="fill:#5e4fa2;stroke:#5e4fa2;" x="412.37169" xlink:href="#m762e0d0cc6" y="310.871871"/>
     <use style="fill:#5e4fa2;stroke:#5e4fa2;" x="413.594581" xlink:href="#m762e0d0cc6" y="294.500359"/>
     <use style="fill:#5e4fa2;stroke:#5e4fa2;" x="414.817473" xlink:href="#m762e0d0cc6" y="278.828056"/>
     <use style="fill:#5e4fa2;stroke:#5e4fa2;" x="416.040365" xlink:href="#m762e0d0cc6" y="263.903077"/>
     <use style="fill:#5e4fa2;stroke:#5e4fa2;" x="417.263257" xlink:href="#m762e0d0cc6" y="249.762116"/>
     <use style="fill:#5e4fa2;stroke:#5e4fa2;" x="418.486149" xlink:href="#m762e0d0cc6" y="236.43177"/>
     <use style="fill:#5e4fa2;stroke:#5e4fa2;" x="419.709041" xlink:href="#m762e0d0cc6" y="223.9303"/>
     <use style="fill:#5e4fa2;stroke:#5e4fa2;" x="420.931933" xlink:href="#m762e0d0cc6" y="212.269744"/>
     <use style="fill:#5e4fa2;stroke:#5e4fa2;" x="422.154825" xlink:href="#m762e0d0cc6" y="201.45824"/>
     <use style="fill:#5e4fa2;stroke:#5e4fa2;" x="423.377717" xlink:href="#m762e0d0cc6" y="191.502447"/>
     <use style="fill:#5e4fa2;stroke:#5e4fa2;" x="424.600609" xlink:href="#m762e0d0cc6" y="182.409889"/>
     <use style="fill:#5e4fa2;stroke:#5e4fa2;" x="425.823501" xlink:href="#m762e0d0cc6" y="174.191092"/>
     <use style="fill:#5e4fa2;stroke:#5e4fa2;" x="427.046393" xlink:href="#m762e0d0cc6" y="166.861363"/>
     <use style="fill:#5e4fa2;stroke:#5e4fa2;" x="428.269285" xlink:href="#m762e0d0cc6" y="160.442083"/>
     <use style="fill:#5e4fa2;stroke:#5e4fa2;" x="429.492177" xlink:href="#m762e0d0cc6" y="154.96144"/>
     <use style="fill:#5e4fa2;stroke:#5e4fa2;" x="430.715069" xlink:href="#m762e0d0cc6" y="150.454502"/>
     <use style="fill:#5e4fa2;stroke:#5e4fa2;" x="431.937961" xlink:href="#m762e0d0cc6" y="146.962647"/>
     <use style="fill:#5e4fa2;stroke:#5e4fa2;" x="433.160853" xlink:href="#m762e0d0cc6" y="144.532331"/>
     <use style="fill:#5e4fa2;stroke:#5e4fa2;" x="434.383744" xlink:href="#m762e0d0cc6" y="143.213282"/>
     <use style="fill:#5e4fa2;stroke:#5e4fa2;" x="435.606636" xlink:href="#m762e0d0cc6" y="143.056193"/>
     <use style="fill:#5e4fa2;stroke:#5e4fa2;" x="436.829528" xlink:href="#m762e0d0cc6" y="144.110064"/>
     <use style="fill:#5e4fa2;stroke:#5e4fa2;" x="438.05242" xlink:href="#m762e0d0cc6" y="146.419329"/>
     <use style="fill:#5e4fa2;stroke:#5e4fa2;" x="439.275312" xlink:href="#m762e0d0cc6" y="150.020958"/>
     <use style="fill:#5e4fa2;stroke:#5e4fa2;" x="440.498204" xlink:href="#m762e0d0cc6" y="154.94169"/>
     <use style="fill:#5e4fa2;stroke:#5e4fa2;" x="441.721096" xlink:href="#m762e0d0cc6" y="161.195577"/>
     <use style="fill:#5e4fa2;stroke:#5e4fa2;" x="442.943988" xlink:href="#m762e0d0cc6" y="168.781986"/>
     <use style="fill:#5e4fa2;stroke:#5e4fa2;" x="444.16688" xlink:href="#m762e0d0cc6" y="177.68418"/>
     <use style="fill:#5e4fa2;stroke:#5e4fa2;" x="445.389772" xlink:href="#m762e0d0cc6" y="187.868566"/>
     <use style="fill:#5e4fa2;stroke:#5e4fa2;" x="446.612664" xlink:href="#m762e0d0cc6" y="199.28466"/>
     <use style="fill:#5e4fa2;stroke:#5e4fa2;" x="447.835556" xlink:href="#m762e0d0cc6" y="211.865762"/>
     <use style="fill:#5e4fa2;stroke:#5e4fa2;" x="449.058448" xlink:href="#m762e0d0cc6" y="225.530303"/>
     <use style="fill:#5e4fa2;stroke:#5e4fa2;" x="450.28134" xlink:href="#m762e0d0cc6" y="240.183792"/>
     <use style="fill:#5e4fa2;stroke:#5e4fa2;" x="451.504232" xlink:href="#m762e0d0cc6" y="255.721217"/>
     <use style="fill:#5e4fa2;stroke:#5e4fa2;" x="452.727124" xlink:href="#m762e0d0cc6" y="272.029789"/>
     <use style="fill:#5e4fa2;stroke:#5e4fa2;" x="453.950016" xlink:href="#m762e0d0cc6" y="288.991834"/>
     <use style="fill:#5e4fa2;stroke:#5e4fa2;" x="455.172907" xlink:href="#m762e0d0cc6" y="306.487693"/>
     <use style="fill:#5e4fa2;stroke:#5e4fa2;" x="456.395799" xlink:href="#m762e0d0cc6" y="324.398447"/>
     <use style="fill:#5e4fa2;stroke:#5e4fa2;" x="457.618691" xlink:href="#m762e0d0cc6" y="342.608331"/>
     <use style="fill:#5e4fa2;stroke:#5e4fa2;" x="458.841583" xlink:href="#m762e0d0cc6" y="361.006716"/>
     <use style="fill:#5e4fa2;stroke:#5e4fa2;" x="460.064475" xlink:href="#m762e0d0cc6" y="379.489569"/>
     <use style="fill:#5e4fa2;stroke:#5e4fa2;" x="461.287367" xlink:href="#m762e0d0cc6" y="397.960342"/>
     <use style="fill:#5e4fa2;stroke:#5e4fa2;" x="462.510259" xlink:href="#m762e0d0cc6" y="416.330293"/>
     <use style="fill:#5e4fa2;stroke:#5e4fa2;" x="463.733151" xlink:href="#m762e0d0cc6" y="434.518251"/>
     <use style="fill:#5e4fa2;stroke:#5e4fa2;" x="464.956043" xlink:href="#m762e0d0cc6" y="452.449915"/>
     <use style="fill:#5e4fa2;stroke:#5e4fa2;" x="466.178935" xlink:href="#m762e0d0cc6" y="470.056781"/>
     <use style="fill:#5e4fa2;stroke:#5e4fa2;" x="467.401827" xlink:href="#m762e0d0cc6" y="487.274806"/>
     <use style="fill:#5e4fa2;stroke:#5e4fa2;" x="468.624719" xlink:href="#m762e0d0cc6" y="504.042968"/>
     <use style="fill:#5e4fa2;stroke:#5e4fa2;" x="469.847611" xlink:href="#m762e0d0cc6" y="520.301837"/>
     <use style="fill:#5e4fa2;stroke:#5e4fa2;" x="471.070503" xlink:href="#m762e0d0cc6" y="535.9923"/>
     <use style="fill:#5e4fa2;stroke:#5e4fa2;" x="472.293395" xlink:href="#m762e0d0cc6" y="551.054552"/>
     <use style="fill:#5e4fa2;stroke:#5e4fa2;" x="473.516287" xlink:href="#m762e0d0cc6" y="565.427439"/>
     <use style="fill:#5e4fa2;stroke:#5e4fa2;" x="474.739179" xlink:href="#m762e0d0cc6" y="579.048202"/>
     <use style="fill:#5e4fa2;stroke:#5e4fa2;" x="475.96207" xlink:href="#m762e0d0cc6" y="591.852663"/>
     <use style="fill:#5e4fa2;stroke:#5e4fa2;" x="477.184962" xlink:href="#m762e0d0cc6" y="603.775822"/>
     <use style="fill:#5e4fa2;stroke:#5e4fa2;" x="478.407854" xlink:href="#m762e0d0cc6" y="614.752832"/>
     <use style="fill:#5e4fa2;stroke:#5e4fa2;" x="479.630746" xlink:href="#m762e0d0cc6" y="624.720273"/>
     <use style="fill:#5e4fa2;stroke:#5e4fa2;" x="480.853638" xlink:href="#m762e0d0cc6" y="633.617629"/>
     <use style="fill:#5e4fa2;stroke:#5e4fa2;" x="482.07653" xlink:href="#m762e0d0cc6" y="641.388859"/>
     <use style="fill:#5e4fa2;stroke:#5e4fa2;" x="483.299422" xlink:href="#m762e0d0cc6" y="647.983947"/>
     <use style="fill:#5e4fa2;stroke:#5e4fa2;" x="484.522314" xlink:href="#m762e0d0cc6" y="653.360324"/>
     <use style="fill:#5e4fa2;stroke:#5e4fa2;" x="485.745206" xlink:href="#m762e0d0cc6" y="657.484049"/>
     <use style="fill:#5e4fa2;stroke:#5e4fa2;" x="486.968098" xlink:href="#m762e0d0cc6" y="660.330697"/>
     <use style="fill:#5e4fa2;stroke:#5e4fa2;" x="488.19099" xlink:href="#m762e0d0cc6" y="661.885866"/>
     <use style="fill:#5e4fa2;stroke:#5e4fa2;" x="489.413882" xlink:href="#m762e0d0cc6" y="662.145317"/>
     <use style="fill:#5e4fa2;stroke:#5e4fa2;" x="490.636774" xlink:href="#m762e0d0cc6" y="661.114717"/>
     <use style="fill:#5e4fa2;stroke:#5e4fa2;" x="491.859666" xlink:href="#m762e0d0cc6" y="658.809049"/>
     <use style="fill:#5e4fa2;stroke:#5e4fa2;" x="493.082558" xlink:href="#m762e0d0cc6" y="655.251724"/>
     <use style="fill:#5e4fa2;stroke:#5e4fa2;" x="494.30545" xlink:href="#m762e0d0cc6" y="650.473498"/>
     <use style="fill:#5e4fa2;stroke:#5e4fa2;" x="495.528342" xlink:href="#m762e0d0cc6" y="644.511258"/>
     <use style="fill:#5e4fa2;stroke:#5e4fa2;" x="496.751233" xlink:href="#m762e0d0cc6" y="637.406792"/>
     <use style="fill:#5e4fa2;stroke:#5e4fa2;" x="497.974125" xlink:href="#m762e0d0cc6" y="629.205631"/>
     <use style="fill:#5e4fa2;stroke:#5e4fa2;" x="499.197017" xlink:href="#m762e0d0cc6" y="619.95603"/>
     <use style="fill:#5e4fa2;stroke:#5e4fa2;" x="500.419909" xlink:href="#m762e0d0cc6" y="609.708174"/>
     <use style="fill:#5e4fa2;stroke:#5e4fa2;" x="501.642801" xlink:href="#m762e0d0cc6" y="598.513623"/>
     <use style="fill:#5e4fa2;stroke:#5e4fa2;" x="502.865693" xlink:href="#m762e0d0cc6" y="586.425033"/>
     <use style="fill:#5e4fa2;stroke:#5e4fa2;" x="504.088585" xlink:href="#m762e0d0cc6" y="573.496129"/>
     <use style="fill:#5e4fa2;stroke:#5e4fa2;" x="505.311477" xlink:href="#m762e0d0cc6" y="559.781902"/>
     <use style="fill:#5e4fa2;stroke:#5e4fa2;" x="506.534369" xlink:href="#m762e0d0cc6" y="545.33897"/>
     <use style="fill:#5e4fa2;stroke:#5e4fa2;" x="507.757261" xlink:href="#m762e0d0cc6" y="530.226045"/>
     <use style="fill:#5e4fa2;stroke:#5e4fa2;" x="508.980153" xlink:href="#m762e0d0cc6" y="514.504413"/>
     <use style="fill:#5e4fa2;stroke:#5e4fa2;" x="510.203045" xlink:href="#m762e0d0cc6" y="498.238359"/>
     <use style="fill:#5e4fa2;stroke:#5e4fa2;" x="511.425937" xlink:href="#m762e0d0cc6" y="481.49547"/>
     <use style="fill:#5e4fa2;stroke:#5e4fa2;" x="512.648829" xlink:href="#m762e0d0cc6" y="464.346751"/>
     <use style="fill:#5e4fa2;stroke:#5e4fa2;" x="513.871721" xlink:href="#m762e0d0cc6" y="446.866519"/>
     <use style="fill:#5e4fa2;stroke:#5e4fa2;" x="515.094613" xlink:href="#m762e0d0cc6" y="429.132065"/>
     <use style="fill:#5e4fa2;stroke:#5e4fa2;" x="516.317505" xlink:href="#m762e0d0cc6" y="411.223089"/>
     <use style="fill:#5e4fa2;stroke:#5e4fa2;" x="517.540396" xlink:href="#m762e0d0cc6" y="393.220948"/>
     <use style="fill:#5e4fa2;stroke:#5e4fa2;" x="518.763288" xlink:href="#m762e0d0cc6" y="375.207768"/>
     <use style="fill:#5e4fa2;stroke:#5e4fa2;" x="519.98618" xlink:href="#m762e0d0cc6" y="357.265499"/>
     <use style="fill:#5e4fa2;stroke:#5e4fa2;" x="521.209072" xlink:href="#m762e0d0cc6" y="339.474983"/>
     <use style="fill:#5e4fa2;stroke:#5e4fa2;" x="522.431964" xlink:href="#m762e0d0cc6" y="321.915145"/>
     <use style="fill:#5e4fa2;stroke:#5e4fa2;" x="523.654856" xlink:href="#m762e0d0cc6" y="304.662352"/>
     <use style="fill:#5e4fa2;stroke:#5e4fa2;" x="524.877748" xlink:href="#m762e0d0cc6" y="287.790038"/>
     <use style="fill:#5e4fa2;stroke:#5e4fa2;" x="526.10064" xlink:href="#m762e0d0cc6" y="271.368613"/>
     <use style="fill:#5e4fa2;stroke:#5e4fa2;" x="527.323532" xlink:href="#m762e0d0cc6" y="255.465695"/>
     <use style="fill:#5e4fa2;stroke:#5e4fa2;" x="528.546424" xlink:href="#m762e0d0cc6" y="240.146641"/>
     <use style="fill:#5e4fa2;stroke:#5e4fa2;" x="529.769316" xlink:href="#m762e0d0cc6" y="225.475334"/>
     <use style="fill:#5e4fa2;stroke:#5e4fa2;" x="530.992208" xlink:href="#m762e0d0cc6" y="211.515161"/>
     <use style="fill:#5e4fa2;stroke:#5e4fa2;" x="532.2151" xlink:href="#m762e0d0cc6" y="198.330083"/>
     <use style="fill:#5e4fa2;stroke:#5e4fa2;" x="533.437992" xlink:href="#m762e0d0cc6" y="185.985681"/>
     <use style="fill:#5e4fa2;stroke:#5e4fa2;" x="534.660884" xlink:href="#m762e0d0cc6" y="174.550049"/>
     <use style="fill:#5e4fa2;stroke:#5e4fa2;" x="535.883776" xlink:href="#m762e0d0cc6" y="164.094421"/>
     <use style="fill:#5e4fa2;stroke:#5e4fa2;" x="537.106667" xlink:href="#m762e0d0cc6" y="154.693402"/>
     <use style="fill:#5e4fa2;stroke:#5e4fa2;" x="538.329559" xlink:href="#m762e0d0cc6" y="146.424722"/>
     <use style="fill:#5e4fa2;stroke:#5e4fa2;" x="539.552451" xlink:href="#m762e0d0cc6" y="139.368435"/>
     <use style="fill:#5e4fa2;stroke:#5e4fa2;" x="540.775343" xlink:href="#m762e0d0cc6" y="133.605547"/>
     <use style="fill:#5e4fa2;stroke:#5e4fa2;" x="541.998235" xlink:href="#m762e0d0cc6" y="129.216072"/>
     <use style="fill:#5e4fa2;stroke:#5e4fa2;" x="543.221127" xlink:href="#m762e0d0cc6" y="126.276594"/>
     <use style="fill:#5e4fa2;stroke:#5e4fa2;" x="544.444019" xlink:href="#m762e0d0cc6" y="124.857398"/>
     <use style="fill:#5e4fa2;stroke:#5e4fa2;" x="545.666911" xlink:href="#m762e0d0cc6" y="125.019348"/>
     <use style="fill:#5e4fa2;stroke:#5e4fa2;" x="546.889803" xlink:href="#m762e0d0cc6" y="126.81065"/>
     <use style="fill:#5e4fa2;stroke:#5e4fa2;" x="548.112695" xlink:href="#m762e0d0cc6" y="130.263697"/>
     <use style="fill:#5e4fa2;stroke:#5e4fa2;" x="549.335587" xlink:href="#m762e0d0cc6" y="135.392195"/>
     <use style="fill:#5e4fa2;stroke:#5e4fa2;" x="550.558479" xlink:href="#m762e0d0cc6" y="142.18877"/>
     <use style="fill:#5e4fa2;stroke:#5e4fa2;" x="551.781371" xlink:href="#m762e0d0cc6" y="150.623207"/>
     <use style="fill:#5e4fa2;stroke:#5e4fa2;" x="553.004263" xlink:href="#m762e0d0cc6" y="160.641508"/>
     <use style="fill:#5e4fa2;stroke:#5e4fa2;" x="554.227155" xlink:href="#m762e0d0cc6" y="172.165831"/>
     <use style="fill:#5e4fa2;stroke:#5e4fa2;" x="555.450047" xlink:href="#m762e0d0cc6" y="185.095411"/>
     <use style="fill:#5e4fa2;stroke:#5e4fa2;" x="556.672939" xlink:href="#m762e0d0cc6" y="199.308425"/>
     <use style="fill:#5e4fa2;stroke:#5e4fa2;" x="557.89583" xlink:href="#m762e0d0cc6" y="214.664784"/>
     <use style="fill:#5e4fa2;stroke:#5e4fa2;" x="559.118722" xlink:href="#m762e0d0cc6" y="231.009719"/>
     <use style="fill:#5e4fa2;stroke:#5e4fa2;" x="560.341614" xlink:href="#m762e0d0cc6" y="248.178014"/>
     <use style="fill:#5e4fa2;stroke:#5e4fa2;" x="561.564506" xlink:href="#m762e0d0cc6" y="265.998686"/>
     <use style="fill:#5e4fa2;stroke:#5e4fa2;" x="562.787398" xlink:href="#m762e0d0cc6" y="284.299884"/>
     <use style="fill:#5e4fa2;stroke:#5e4fa2;" x="564.01029" xlink:href="#m762e0d0cc6" y="302.913761"/>
     <use style="fill:#5e4fa2;stroke:#5e4fa2;" x="565.233182" xlink:href="#m762e0d0cc6" y="321.681069"/>
     <use style="fill:#5e4fa2;stroke:#5e4fa2;" x="566.456074" xlink:href="#m762e0d0cc6" y="340.455262"/>
     <use style="fill:#5e4fa2;stroke:#5e4fa2;" x="567.678966" xlink:href="#m762e0d0cc6" y="359.105871"/>
     <use style="fill:#5e4fa2;stroke:#5e4fa2;" x="568.901858" xlink:href="#m762e0d0cc6" y="377.521015"/>
     <use style="fill:#5e4fa2;stroke:#5e4fa2;" x="570.12475" xlink:href="#m762e0d0cc6" y="395.608914"/>
     <use style="fill:#5e4fa2;stroke:#5e4fa2;" x="571.347642" xlink:href="#m762e0d0cc6" y="413.298348"/>
     <use style="fill:#5e4fa2;stroke:#5e4fa2;" x="572.570534" xlink:href="#m762e0d0cc6" y="430.538067"/>
     <use style="fill:#5e4fa2;stroke:#5e4fa2;" x="573.793426" xlink:href="#m762e0d0cc6" y="447.295203"/>
     <use style="fill:#5e4fa2;stroke:#5e4fa2;" x="575.016318" xlink:href="#m762e0d0cc6" y="463.5528"/>
     <use style="fill:#5e4fa2;stroke:#5e4fa2;" x="576.23921" xlink:href="#m762e0d0cc6" y="479.30663"/>
     <use style="fill:#5e4fa2;stroke:#5e4fa2;" x="577.462102" xlink:href="#m762e0d0cc6" y="494.561477"/>
     <use style="fill:#5e4fa2;stroke:#5e4fa2;" x="578.684993" xlink:href="#m762e0d0cc6" y="509.327134"/>
     <use style="fill:#5e4fa2;stroke:#5e4fa2;" x="579.907885" xlink:href="#m762e0d0cc6" y="523.614323"/>
     <use style="fill:#5e4fa2;stroke:#5e4fa2;" x="581.130777" xlink:href="#m762e0d0cc6" y="537.430794"/>
     <use style="fill:#5e4fa2;stroke:#5e4fa2;" x="582.353669" xlink:href="#m762e0d0cc6" y="550.777791"/>
     <use style="fill:#5e4fa2;stroke:#5e4fa2;" x="583.576561" xlink:href="#m762e0d0cc6" y="563.647096"/>
     <use style="fill:#5e4fa2;stroke:#5e4fa2;" x="584.799453" xlink:href="#m762e0d0cc6" y="576.018788"/>
     <use style="fill:#5e4fa2;stroke:#5e4fa2;" x="586.022345" xlink:href="#m762e0d0cc6" y="587.859815"/>
     <use style="fill:#5e4fa2;stroke:#5e4fa2;" x="587.245237" xlink:href="#m762e0d0cc6" y="599.12345"/>
     <use style="fill:#5e4fa2;stroke:#5e4fa2;" x="588.468129" xlink:href="#m762e0d0cc6" y="609.749622"/>
     <use style="fill:#5e4fa2;stroke:#5e4fa2;" x="589.691021" xlink:href="#m762e0d0cc6" y="619.66608"/>
     <use style="fill:#5e4fa2;stroke:#5e4fa2;" x="590.913913" xlink:href="#m762e0d0cc6" y="628.790313"/>
     <use style="fill:#5e4fa2;stroke:#5e4fa2;" x="592.136805" xlink:href="#m762e0d0cc6" y="637.032094"/>
     <use style="fill:#5e4fa2;stroke:#5e4fa2;" x="593.359697" xlink:href="#m762e0d0cc6" y="644.296506"/>
     <use style="fill:#5e4fa2;stroke:#5e4fa2;" x="594.582589" xlink:href="#m762e0d0cc6" y="650.487285"/>
     <use style="fill:#5e4fa2;stroke:#5e4fa2;" x="595.805481" xlink:href="#m762e0d0cc6" y="655.510309"/>
     <use style="fill:#5e4fa2;stroke:#5e4fa2;" x="597.028373" xlink:href="#m762e0d0cc6" y="659.277066"/>
     <use style="fill:#5e4fa2;stroke:#5e4fa2;" x="598.251265" xlink:href="#m762e0d0cc6" y="661.707948"/>
     <use style="fill:#5e4fa2;stroke:#5e4fa2;" x="599.474156" xlink:href="#m762e0d0cc6" y="662.73524"/>
     <use style="fill:#5e4fa2;stroke:#5e4fa2;" x="600.697048" xlink:href="#m762e0d0cc6" y="662.305685"/>
     <use style="fill:#5e4fa2;stroke:#5e4fa2;" x="601.91994" xlink:href="#m762e0d0cc6" y="660.382562"/>
     <use style="fill:#5e4fa2;stroke:#5e4fa2;" x="603.142832" xlink:href="#m762e0d0cc6" y="656.947206"/>
     <use style="fill:#5e4fa2;stroke:#5e4fa2;" x="604.365724" xlink:href="#m762e0d0cc6" y="651.999959"/>
     <use style="fill:#5e4fa2;stroke:#5e4fa2;" x="605.588616" xlink:href="#m762e0d0cc6" y="645.560551"/>
     <use style="fill:#5e4fa2;stroke:#5e4fa2;" x="606.811508" xlink:href="#m762e0d0cc6" y="637.667936"/>
     <use style="fill:#5e4fa2;stroke:#5e4fa2;" x="608.0344" xlink:href="#m762e0d0cc6" y="628.379618"/>
     <use style="fill:#5e4fa2;stroke:#5e4fa2;" x="609.257292" xlink:href="#m762e0d0cc6" y="617.770522"/>
     <use style="fill:#5e4fa2;stroke:#5e4fa2;" x="610.480184" xlink:href="#m762e0d0cc6" y="605.931474"/>
     <use style="fill:#5e4fa2;stroke:#5e4fa2;" x="611.703076" xlink:href="#m762e0d0cc6" y="592.967337"/>
     <use style="fill:#5e4fa2;stroke:#5e4fa2;" x="612.925968" xlink:href="#m762e0d0cc6" y="578.994877"/>
     <use style="fill:#5e4fa2;stroke:#5e4fa2;" x="614.14886" xlink:href="#m762e0d0cc6" y="564.140409"/>
     <use style="fill:#5e4fa2;stroke:#5e4fa2;" x="615.371752" xlink:href="#m762e0d0cc6" y="548.537274"/>
     <use style="fill:#5e4fa2;stroke:#5e4fa2;" x="616.594644" xlink:href="#m762e0d0cc6" y="532.323203"/>
     <use style="fill:#5e4fa2;stroke:#5e4fa2;" x="617.817536" xlink:href="#m762e0d0cc6" y="515.637615"/>
     <use style="fill:#5e4fa2;stroke:#5e4fa2;" x="619.040428" xlink:href="#m762e0d0cc6" y="498.618891"/>
     <use style="fill:#5e4fa2;stroke:#5e4fa2;" x="620.263319" xlink:href="#m762e0d0cc6" y="481.401676"/>
     <use style="fill:#5e4fa2;stroke:#5e4fa2;" x="621.486211" xlink:href="#m762e0d0cc6" y="464.11427"/>
     <use style="fill:#5e4fa2;stroke:#5e4fa2;" x="622.709103" xlink:href="#m762e0d0cc6" y="446.876154"/>
     <use style="fill:#5e4fa2;stroke:#5e4fa2;" x="623.931995" xlink:href="#m762e0d0cc6" y="429.795732"/>
     <use style="fill:#5e4fa2;stroke:#5e4fa2;" x="625.154887" xlink:href="#m762e0d0cc6" y="412.968348"/>
     <use style="fill:#5e4fa2;stroke:#5e4fa2;" x="626.377779" xlink:href="#m762e0d0cc6" y="396.474661"/>
     <use style="fill:#5e4fa2;stroke:#5e4fa2;" x="627.600671" xlink:href="#m762e0d0cc6" y="380.379455"/>
     <use style="fill:#5e4fa2;stroke:#5e4fa2;" x="628.823563" xlink:href="#m762e0d0cc6" y="364.730953"/>
     <use style="fill:#5e4fa2;stroke:#5e4fa2;" x="630.046455" xlink:href="#m762e0d0cc6" y="349.560707"/>
     <use style="fill:#5e4fa2;stroke:#5e4fa2;" x="631.269347" xlink:href="#m762e0d0cc6" y="334.884107"/>
     <use style="fill:#5e4fa2;stroke:#5e4fa2;" x="632.492239" xlink:href="#m762e0d0cc6" y="320.701543"/>
     <use style="fill:#5e4fa2;stroke:#5e4fa2;" x="633.715131" xlink:href="#m762e0d0cc6" y="307.000226"/>
     <use style="fill:#5e4fa2;stroke:#5e4fa2;" x="634.938023" xlink:href="#m762e0d0cc6" y="293.756632"/>
     <use style="fill:#5e4fa2;stroke:#5e4fa2;" x="636.160915" xlink:href="#m762e0d0cc6" y="280.939527"/>
     <use style="fill:#5e4fa2;stroke:#5e4fa2;" x="637.383807" xlink:href="#m762e0d0cc6" y="268.513458"/>
     <use style="fill:#5e4fa2;stroke:#5e4fa2;" x="638.606699" xlink:href="#m762e0d0cc6" y="256.442605"/>
     <use style="fill:#5e4fa2;stroke:#5e4fa2;" x="639.829591" xlink:href="#m762e0d0cc6" y="244.694812"/>
     <use style="fill:#5e4fa2;stroke:#5e4fa2;" x="641.052482" xlink:href="#m762e0d0cc6" y="233.245644"/>
     <use style="fill:#5e4fa2;stroke:#5e4fa2;" x="642.275374" xlink:href="#m762e0d0cc6" y="222.082251"/>
     <use style="fill:#5e4fa2;stroke:#5e4fa2;" x="643.498266" xlink:href="#m762e0d0cc6" y="211.206853"/>
     <use style="fill:#5e4fa2;stroke:#5e4fa2;" x="644.721158" xlink:href="#m762e0d0cc6" y="200.639637"/>
     <use style="fill:#5e4fa2;stroke:#5e4fa2;" x="645.94405" xlink:href="#m762e0d0cc6" y="190.420887"/>
     <use style="fill:#5e4fa2;stroke:#5e4fa2;" x="647.166942" xlink:href="#m762e0d0cc6" y="180.612209"/>
    </g>
   </g>
   <g id="patch_3">
    <path d="M 108 720.9 
L 108 56.7 
" style="fill:none;stroke:#000000;stroke-linecap:square;stroke-linejoin:miter;stroke-width:0.8;"/>
   </g>
   <g id="patch_4">
    <path d="M 698.4 720.9 
L 698.4 56.7 
" style="fill:none;stroke:#000000;stroke-linecap:square;stroke-linejoin:miter;stroke-width:0.8;"/>
   </g>
   <g id="patch_5">
    <path d="M 108 720.9 
L 698.4 720.9 
" style="fill:none;stroke:#000000;stroke-linecap:square;stroke-linejoin:miter;stroke-width:0.8;"/>
   </g>
   <g id="patch_6">
    <path d="M 108 56.7 
L 698.4 56.7 
" style="fill:none;stroke:#000000;stroke-linecap:square;stroke-linejoin:miter;stroke-width:0.8;"/>
   </g>
   <g id="text_16">
    <!-- $\theta=2.00$ -->
    <g transform="translate(362.5 50.7)scale(0.2 -0.2)">
     <defs>
      <path d="M 45.515625 34.671875 
L 14.453125 34.671875 
Q 12.359375 20.0625 14.5 13.875 
Q 17.1875 6.25 24.46875 6.25 
Q 31.78125 6.25 37.359375 13.921875 
Q 42.234375 20.65625 45.515625 34.671875 
z
M 47.015625 42.96875 
Q 48.34375 56.84375 46.625 61.71875 
Q 43.953125 69.4375 36.765625 69.4375 
Q 29.296875 69.4375 23.828125 61.8125 
Q 19.53125 55.671875 16.15625 42.96875 
z
M 38.1875 76.765625 
Q 49.90625 76.765625 54.59375 66.40625 
Q 59.28125 56.109375 55.71875 37.84375 
Q 52.203125 19.625 43.453125 9.28125 
Q 34.765625 -1.125 23.046875 -1.125 
Q 11.28125 -1.125 6.640625 9.28125 
Q 2 19.625 5.515625 37.84375 
Q 9.078125 56.109375 17.71875 66.40625 
Q 26.421875 76.765625 38.1875 76.765625 
z
" id="DejaVuSans-Oblique-952"/>
      <path d="M 10.59375 45.40625 
L 73.1875 45.40625 
L 73.1875 37.203125 
L 10.59375 37.203125 
z
M 10.59375 25.484375 
L 73.1875 25.484375 
L 73.1875 17.1875 
L 10.59375 17.1875 
z
" id="DejaVuSans-61"/>
     </defs>
     <use transform="translate(0 0.234375)" xlink:href="#DejaVuSans-Oblique-952"/>
     <use transform="translate(80.664062 0.234375)" xlink:href="#DejaVuSans-61"/>
     <use transform="translate(183.935547 0.234375)" xlink:href="#DejaVuSans-50"/>
     <use transform="translate(247.558594 0.234375)" xlink:href="#DejaVuSans-46"/>
     <use transform="translate(279.345703 0.234375)" xlink:href="#DejaVuSans-48"/>
     <use transform="translate(342.96875 0.234375)" xlink:href="#DejaVuSans-48"/>
    </g>
   </g>
   <g id="legend_1">
    <g id="patch_7">
     <path d="M 533 103.096875 
L 684.4 103.096875 
Q 688.4 103.096875 688.4 99.096875 
L 688.4 70.7 
Q 688.4 66.7 684.4 66.7 
L 533 66.7 
Q 529 66.7 529 70.7 
L 529 99.096875 
Q 529 103.096875 533 103.096875 
z
" style="fill:#ffffff;opacity:0.8;stroke:#cccccc;stroke-linejoin:miter;"/>
    </g>
    <g id="line2d_28">
     <path d="M 537 82.896875 
L 577 82.896875 
" style="fill:none;stroke:#5e4fa2;stroke-linecap:square;stroke-width:2;"/>
    </g>
    <g id="line2d_29">
     <g>
      <use style="fill:#5e4fa2;stroke:#5e4fa2;" x="557" xlink:href="#m762e0d0cc6" y="82.896875"/>
     </g>
    </g>
    <g id="text_17">
     <!-- $I_{(-8, -2, 2)}$ -->
     <g transform="translate(593 89.896875)scale(0.2 -0.2)">
      <defs>
       <path d="M 10.59375 35.5 
L 73.1875 35.5 
L 73.1875 27.203125 
L 10.59375 27.203125 
z
" id="DejaVuSans-8722"/>
       <path d="M 11.71875 12.40625 
L 22.015625 12.40625 
L 22.015625 4 
L 14.015625 -11.625 
L 7.71875 -11.625 
L 11.71875 4 
z
" id="DejaVuSans-44"/>
      </defs>
      <use transform="translate(0 0.09375)" xlink:href="#DejaVuSans-Oblique-73"/>
      <use transform="translate(29.492188 -16.3125)scale(0.7)" xlink:href="#DejaVuSans-40"/>
      <use transform="translate(56.801758 -16.3125)scale(0.7)" xlink:href="#DejaVuSans-8722"/>
      <use transform="translate(115.454102 -16.3125)scale(0.7)" xlink:href="#DejaVuSans-56"/>
      <use transform="translate(159.990234 -16.3125)scale(0.7)" xlink:href="#DejaVuSans-44"/>
      <use transform="translate(209.516602 -16.3125)scale(0.7)" xlink:href="#DejaVuSans-8722"/>
      <use transform="translate(281.806641 -16.3125)scale(0.7)" xlink:href="#DejaVuSans-50"/>
      <use transform="translate(326.342773 -16.3125)scale(0.7)" xlink:href="#DejaVuSans-44"/>
      <use transform="translate(362.231445 -16.3125)scale(0.7)" xlink:href="#DejaVuSans-50"/>
      <use transform="translate(406.767578 -16.3125)scale(0.7)" xlink:href="#DejaVuSans-41"/>
     </g>
    </g>
   </g>
  </g>
 </g>
 <defs>
  <clipPath id="p2028937312">
   <rect height="664.2" width="590.4" x="108" y="56.7"/>
  </clipPath>
 </defs>
</svg>
