<?xml version="1.0" encoding="utf-8" standalone="no"?>
<!DOCTYPE svg PUBLIC "-//W3C//DTD SVG 1.1//EN"
  "http://www.w3.org/Graphics/SVG/1.1/DTD/svg11.dtd">
<!-- Created with matplotlib (https://matplotlib.org/) -->
<svg height="810pt" version="1.1" viewBox="0 0 720 810" width="720pt" xmlns="http://www.w3.org/2000/svg" xmlns:xlink="http://www.w3.org/1999/xlink">
 <metadata>
  <rdf:RDF xmlns:cc="http://creativecommons.org/ns#" xmlns:dc="http://purl.org/dc/elements/1.1/" xmlns:rdf="http://www.w3.org/1999/02/22-rdf-syntax-ns#">
   <cc:Work>
    <dc:type rdf:resource="http://purl.org/dc/dcmitype/StillImage"/>
    <dc:date>2021-07-08T13:04:06.539114</dc:date>
    <dc:format>image/svg+xml</dc:format>
    <dc:creator>
     <cc:Agent>
      <dc:title>Matplotlib v3.3.1, https://matplotlib.org/</dc:title>
     </cc:Agent>
    </dc:creator>
   </cc:Work>
  </rdf:RDF>
 </metadata>
 <defs>
  <style type="text/css">*{stroke-linecap:butt;stroke-linejoin:round;}</style>
 </defs>
 <g id="figure_1">
  <g id="patch_1">
   <path d="M 0 810 
L 720 810 
L 720 0 
L 0 0 
z
" style="fill:#ffffff;"/>
  </g>
  <g id="axes_1">
   <g id="patch_2">
    <path d="M 108 720.9 
L 698.4 720.9 
L 698.4 56.7 
L 108 56.7 
z
" style="fill:#ffffff;"/>
   </g>
   <g id="matplotlib.axis_1">
    <g id="xtick_1">
     <g id="line2d_1">
      <defs>
       <path d="M 0 0 
L 0 3.5 
" id="m5946a2d06e" style="stroke:#000000;stroke-width:0.8;"/>
      </defs>
      <g>
       <use style="stroke:#000000;stroke-width:0.8;" x="167.04" xlink:href="#m5946a2d06e" y="720.9"/>
      </g>
     </g>
     <g id="text_1">
      <!-- −2 -->
      <g transform="translate(155.983359 739.297656)scale(0.15 -0.15)">
       <defs>
        <path d="M 10.59375 35.5 
L 73.1875 35.5 
L 73.1875 27.203125 
L 10.59375 27.203125 
z
" id="DejaVuSans-8722"/>
        <path d="M 19.1875 8.296875 
L 53.609375 8.296875 
L 53.609375 0 
L 7.328125 0 
L 7.328125 8.296875 
Q 12.9375 14.109375 22.625 23.890625 
Q 32.328125 33.6875 34.8125 36.53125 
Q 39.546875 41.84375 41.421875 45.53125 
Q 43.3125 49.21875 43.3125 52.78125 
Q 43.3125 58.59375 39.234375 62.25 
Q 35.15625 65.921875 28.609375 65.921875 
Q 23.96875 65.921875 18.8125 64.3125 
Q 13.671875 62.703125 7.8125 59.421875 
L 7.8125 69.390625 
Q 13.765625 71.78125 18.9375 73 
Q 24.125 74.21875 28.421875 74.21875 
Q 39.75 74.21875 46.484375 68.546875 
Q 53.21875 62.890625 53.21875 53.421875 
Q 53.21875 48.921875 51.53125 44.890625 
Q 49.859375 40.875 45.40625 35.40625 
Q 44.1875 33.984375 37.640625 27.21875 
Q 31.109375 20.453125 19.1875 8.296875 
z
" id="DejaVuSans-50"/>
       </defs>
       <use xlink:href="#DejaVuSans-8722"/>
       <use x="83.789062" xlink:href="#DejaVuSans-50"/>
      </g>
     </g>
    </g>
    <g id="xtick_2">
     <g id="line2d_2">
      <g>
       <use style="stroke:#000000;stroke-width:0.8;" x="285.12" xlink:href="#m5946a2d06e" y="720.9"/>
      </g>
     </g>
     <g id="text_2">
      <!-- −1 -->
      <g transform="translate(274.063359 739.297656)scale(0.15 -0.15)">
       <defs>
        <path d="M 12.40625 8.296875 
L 28.515625 8.296875 
L 28.515625 63.921875 
L 10.984375 60.40625 
L 10.984375 69.390625 
L 28.421875 72.90625 
L 38.28125 72.90625 
L 38.28125 8.296875 
L 54.390625 8.296875 
L 54.390625 0 
L 12.40625 0 
z
" id="DejaVuSans-49"/>
       </defs>
       <use xlink:href="#DejaVuSans-8722"/>
       <use x="83.789062" xlink:href="#DejaVuSans-49"/>
      </g>
     </g>
    </g>
    <g id="xtick_3">
     <g id="line2d_3">
      <g>
       <use style="stroke:#000000;stroke-width:0.8;" x="403.2" xlink:href="#m5946a2d06e" y="720.9"/>
      </g>
     </g>
     <g id="text_3">
      <!-- 0 -->
      <g transform="translate(398.428125 739.297656)scale(0.15 -0.15)">
       <defs>
        <path d="M 31.78125 66.40625 
Q 24.171875 66.40625 20.328125 58.90625 
Q 16.5 51.421875 16.5 36.375 
Q 16.5 21.390625 20.328125 13.890625 
Q 24.171875 6.390625 31.78125 6.390625 
Q 39.453125 6.390625 43.28125 13.890625 
Q 47.125 21.390625 47.125 36.375 
Q 47.125 51.421875 43.28125 58.90625 
Q 39.453125 66.40625 31.78125 66.40625 
z
M 31.78125 74.21875 
Q 44.046875 74.21875 50.515625 64.515625 
Q 56.984375 54.828125 56.984375 36.375 
Q 56.984375 17.96875 50.515625 8.265625 
Q 44.046875 -1.421875 31.78125 -1.421875 
Q 19.53125 -1.421875 13.0625 8.265625 
Q 6.59375 17.96875 6.59375 36.375 
Q 6.59375 54.828125 13.0625 64.515625 
Q 19.53125 74.21875 31.78125 74.21875 
z
" id="DejaVuSans-48"/>
       </defs>
       <use xlink:href="#DejaVuSans-48"/>
      </g>
     </g>
    </g>
    <g id="xtick_4">
     <g id="line2d_4">
      <g>
       <use style="stroke:#000000;stroke-width:0.8;" x="521.28" xlink:href="#m5946a2d06e" y="720.9"/>
      </g>
     </g>
     <g id="text_4">
      <!-- 1 -->
      <g transform="translate(516.508125 739.297656)scale(0.15 -0.15)">
       <use xlink:href="#DejaVuSans-49"/>
      </g>
     </g>
    </g>
    <g id="xtick_5">
     <g id="line2d_5">
      <g>
       <use style="stroke:#000000;stroke-width:0.8;" x="639.36" xlink:href="#m5946a2d06e" y="720.9"/>
      </g>
     </g>
     <g id="text_5">
      <!-- 2 -->
      <g transform="translate(634.588125 739.297656)scale(0.15 -0.15)">
       <use xlink:href="#DejaVuSans-50"/>
      </g>
     </g>
    </g>
    <g id="text_6">
     <!-- $q_x$ -->
     <g transform="translate(389.7 765.3625)scale(0.25 -0.25)">
      <defs>
       <path d="M 41.703125 8.203125 
Q 38.09375 3.46875 33.171875 1.015625 
Q 28.265625 -1.421875 22.3125 -1.421875 
Q 14.015625 -1.421875 9.296875 4.171875 
Q 4.59375 9.765625 4.59375 19.578125 
Q 4.59375 27.484375 7.5 34.859375 
Q 10.40625 42.234375 15.828125 48.09375 
Q 19.34375 51.90625 23.90625 53.953125 
Q 28.46875 56 33.5 56 
Q 39.546875 56 43.453125 53.609375 
Q 47.359375 51.21875 49.125 46.390625 
L 50.6875 54.59375 
L 59.71875 54.59375 
L 45.125 -20.609375 
L 36.078125 -20.609375 
z
M 13.921875 20.90625 
Q 13.921875 13.671875 16.9375 9.890625 
Q 19.96875 6.109375 25.6875 6.109375 
Q 34.1875 6.109375 40.1875 14.234375 
Q 46.1875 22.359375 46.1875 33.984375 
Q 46.1875 41.015625 43.078125 44.75 
Q 39.984375 48.484375 34.1875 48.484375 
Q 29.9375 48.484375 26.3125 46.5 
Q 22.703125 44.53125 20.015625 40.71875 
Q 17.1875 36.71875 15.546875 31.34375 
Q 13.921875 25.984375 13.921875 20.90625 
z
" id="DejaVuSans-Oblique-113"/>
       <path d="M 60.015625 54.6875 
L 34.90625 27.875 
L 50.296875 0 
L 39.984375 0 
L 28.421875 21.6875 
L 8.296875 0 
L -2.59375 0 
L 24.3125 28.8125 
L 10.015625 54.6875 
L 20.3125 54.6875 
L 30.8125 34.90625 
L 49.125 54.6875 
z
" id="DejaVuSans-Oblique-120"/>
      </defs>
      <use xlink:href="#DejaVuSans-Oblique-113"/>
      <use transform="translate(63.476562 -16.40625)scale(0.7)" xlink:href="#DejaVuSans-Oblique-120"/>
     </g>
    </g>
   </g>
   <g id="matplotlib.axis_2">
    <g id="ytick_1">
     <g id="line2d_6">
      <defs>
       <path d="M 0 0 
L -3.5 0 
" id="mdf7494eb16" style="stroke:#000000;stroke-width:0.8;"/>
      </defs>
      <g>
       <use style="stroke:#000000;stroke-width:0.8;" x="108" xlink:href="#mdf7494eb16" y="654.48"/>
      </g>
     </g>
     <g id="text_7">
      <!-- −2 -->
      <g transform="translate(78.886719 660.178828)scale(0.15 -0.15)">
       <use xlink:href="#DejaVuSans-8722"/>
       <use x="83.789062" xlink:href="#DejaVuSans-50"/>
      </g>
     </g>
    </g>
    <g id="ytick_2">
     <g id="line2d_7">
      <g>
       <use style="stroke:#000000;stroke-width:0.8;" x="108" xlink:href="#mdf7494eb16" y="521.64"/>
      </g>
     </g>
     <g id="text_8">
      <!-- −1 -->
      <g transform="translate(78.886719 527.338828)scale(0.15 -0.15)">
       <use xlink:href="#DejaVuSans-8722"/>
       <use x="83.789062" xlink:href="#DejaVuSans-49"/>
      </g>
     </g>
    </g>
    <g id="ytick_3">
     <g id="line2d_8">
      <g>
       <use style="stroke:#000000;stroke-width:0.8;" x="108" xlink:href="#mdf7494eb16" y="388.8"/>
      </g>
     </g>
     <g id="text_9">
      <!-- 0 -->
      <g transform="translate(91.45625 394.498828)scale(0.15 -0.15)">
       <use xlink:href="#DejaVuSans-48"/>
      </g>
     </g>
    </g>
    <g id="ytick_4">
     <g id="line2d_9">
      <g>
       <use style="stroke:#000000;stroke-width:0.8;" x="108" xlink:href="#mdf7494eb16" y="255.96"/>
      </g>
     </g>
     <g id="text_10">
      <!-- 1 -->
      <g transform="translate(91.45625 261.658828)scale(0.15 -0.15)">
       <use xlink:href="#DejaVuSans-49"/>
      </g>
     </g>
    </g>
    <g id="ytick_5">
     <g id="line2d_10">
      <g>
       <use style="stroke:#000000;stroke-width:0.8;" x="108" xlink:href="#mdf7494eb16" y="123.12"/>
      </g>
     </g>
     <g id="text_11">
      <!-- 2 -->
      <g transform="translate(91.45625 128.818828)scale(0.15 -0.15)">
       <use xlink:href="#DejaVuSans-50"/>
      </g>
     </g>
    </g>
    <g id="text_12">
     <!-- $q_y$ -->
     <g transform="translate(67.136719 402.3)rotate(-90)scale(0.25 -0.25)">
      <defs>
       <path d="M 24.8125 -5.078125 
Q 18.5625 -15.578125 14.625 -18.1875 
Q 10.6875 -20.796875 4.59375 -20.796875 
L -2.484375 -20.796875 
L -0.984375 -13.28125 
L 4.203125 -13.28125 
Q 7.953125 -13.28125 10.59375 -11.234375 
Q 13.234375 -9.1875 16.5 -3.21875 
L 19.28125 2 
L 7.171875 54.6875 
L 16.703125 54.6875 
L 25.78125 12.796875 
L 50.875 54.6875 
L 60.296875 54.6875 
z
" id="DejaVuSans-Oblique-121"/>
      </defs>
      <use xlink:href="#DejaVuSans-Oblique-113"/>
      <use transform="translate(63.476562 -16.40625)scale(0.7)" xlink:href="#DejaVuSans-Oblique-121"/>
     </g>
    </g>
   </g>
   <g id="PathCollection_1">
    <path clip-path="url(#p0871d050ea)" d="M 468.591341 646.96784 
L 468.591341 646.96784 
L 468.591341 646.96784 
L 468.591341 646.96784 
z
" style="fill:#fcfbfd;stroke:#fcfbfd;"/>
    <path clip-path="url(#p0871d050ea)" d="M 236.692949 610.608998 
L 236.692949 610.608998 
L 236.692949 610.608998 
L 236.692949 610.608998 
z
" style="fill:#fcfbfd;stroke:#fcfbfd;"/>
    <path clip-path="url(#p0871d050ea)" d="M 435.992093 573.2056 
L 435.992093 573.2056 
L 435.992093 573.2056 
L 435.992093 573.2056 
z
" style="fill:#fcfbfd;stroke:#fcfbfd;"/>
    <path clip-path="url(#p0871d050ea)" d="M 435.927812 536.32448 
L 435.927812 536.32448 
L 435.927812 536.32448 
L 435.927812 536.32448 
z
" style="fill:#fcfbfd;stroke:#fcfbfd;"/>
    <path clip-path="url(#p0871d050ea)" d="M 203.965138 463.084518 
L 203.965138 463.084518 
L 203.965138 463.084518 
L 203.965138 463.084518 
z
" style="fill:#fcfbfd;stroke:#fcfbfd;"/>
    <path clip-path="url(#p0871d050ea)" d="M 203.900856 426.203398 
L 203.900856 426.203398 
L 203.900856 426.203398 
L 203.900856 426.203398 
z
" style="fill:#fcfbfd;stroke:#fcfbfd;"/>
    <path clip-path="url(#p0871d050ea)" d="M 403.264282 425.68112 
L 403.264282 425.68112 
L 403.264282 425.68112 
L 403.264282 425.68112 
z
" style="fill:#fcfbfd;stroke:#fcfbfd;"/>
    <path clip-path="url(#p0871d050ea)" d="M 203.836574 389.322278 
L 203.836574 389.322278 
L 203.836574 389.322278 
L 203.836574 389.322278 
z
" style="fill:#fcfbfd;stroke:#fcfbfd;"/>
    <path clip-path="url(#p0871d050ea)" d="M 403.2 388.8 
L 403.2 388.8 
L 403.2 388.8 
L 403.2 388.8 
z
" style="fill:#fcfbfd;stroke:#fcfbfd;"/>
    <path clip-path="url(#p0871d050ea)" d="M 403.135718 351.91888 
L 403.135718 351.91888 
L 403.135718 351.91888 
L 403.135718 351.91888 
z
" style="fill:#fcfbfd;stroke:#fcfbfd;"/>
    <path clip-path="url(#p0871d050ea)" d="M 403.071436 315.03776 
L 403.071436 315.03776 
L 403.071436 315.03776 
L 403.071436 315.03776 
z
" style="fill:#fcfbfd;stroke:#fcfbfd;"/>
    <path clip-path="url(#p0871d050ea)" d="M 403.007154 278.15664 
L 403.007154 278.15664 
L 403.007154 278.15664 
L 403.007154 278.15664 
z
" style="fill:#fcfbfd;stroke:#fcfbfd;"/>
    <path clip-path="url(#p0871d050ea)" d="M 203.579447 241.797798 
L 203.579447 241.797798 
L 203.579447 241.797798 
L 203.579447 241.797798 
z
" style="fill:#fcfbfd;stroke:#fcfbfd;"/>
    <path clip-path="url(#p0871d050ea)" d="M 402.942873 257.086908 
L 412.429706 241.27552 
L 402.942873 225.464131 
L 393.45604 241.27552 
z
" style="fill:#3f007d;stroke:#3f007d;"/>
    <path clip-path="url(#p0871d050ea)" d="M 203.515165 204.916678 
L 203.515165 204.916678 
L 203.515165 204.916678 
L 203.515165 204.916678 
z
" style="fill:#fcfbfd;stroke:#fcfbfd;"/>
    <path clip-path="url(#p0871d050ea)" d="M 402.878591 204.3944 
L 402.878591 204.3944 
L 402.878591 204.3944 
L 402.878591 204.3944 
z
" style="fill:#fcfbfd;stroke:#fcfbfd;"/>
    <path clip-path="url(#p0871d050ea)" d="M 203.450883 168.035558 
L 203.450883 168.035558 
L 203.450883 168.035558 
L 203.450883 168.035558 
z
" style="fill:#fcfbfd;stroke:#fcfbfd;"/>
    <path clip-path="url(#p0871d050ea)" d="M 435.156429 93.75104 
L 435.156429 93.75104 
L 435.156429 93.75104 
L 435.156429 93.75104 
z
" style="fill:#fcfbfd;stroke:#fcfbfd;"/>
   </g>
   <g id="PathCollection_2">
    <path clip-path="url(#p0871d050ea)" d="M 468.591341 655.143299 
C 470.759498 655.143299 472.839145 654.281881 474.372263 652.748763 
C 475.905382 651.215644 476.7668 649.135997 476.7668 646.96784 
C 476.7668 644.799683 475.905382 642.720037 474.372263 641.186918 
C 472.839145 639.6538 470.759498 638.792382 468.591341 638.792382 
C 466.423184 638.792382 464.343538 639.6538 462.810419 641.186918 
C 461.277301 642.720037 460.415883 644.799683 460.415883 646.96784 
C 460.415883 649.135997 461.277301 651.215644 462.810419 652.748763 
C 464.343538 654.281881 466.423184 655.143299 468.591341 655.143299 
z
" style="fill:#fdcfa0;stroke:#fdcfa0;"/>
    <path clip-path="url(#p0871d050ea)" d="M 236.692949 619.171139 
C 238.963655 619.171139 241.141665 618.268977 242.747297 616.663346 
C 244.352929 615.057714 245.25509 612.879704 245.25509 610.608998 
C 245.25509 608.338292 244.352929 606.160282 242.747297 604.554651 
C 241.141665 602.949019 238.963655 602.046858 236.692949 602.046858 
C 234.422243 602.046858 232.244234 602.949019 230.638602 604.554651 
C 229.03297 606.160282 228.130809 608.338292 228.130809 610.608998 
C 228.130809 612.879704 229.03297 615.057714 230.638602 616.663346 
C 232.244234 618.268977 234.422243 619.171139 236.692949 619.171139 
z
" style="fill:#fdb87c;stroke:#fdb87c;"/>
    <path clip-path="url(#p0871d050ea)" d="M 435.992093 580.604026 
C 437.954179 580.604026 439.836166 579.824481 441.22357 578.437077 
C 442.610974 577.049673 443.390519 575.167686 443.390519 573.2056 
C 443.390519 571.243515 442.610974 569.361527 441.22357 567.974123 
C 439.836166 566.58672 437.954179 565.807175 435.992093 565.807175 
C 434.030008 565.807175 432.14802 566.58672 430.760617 567.974123 
C 429.373213 569.361527 428.593668 571.243515 428.593668 573.2056 
C 428.593668 575.167686 429.373213 577.049673 430.760617 578.437077 
C 432.14802 579.824481 434.030008 580.604026 435.992093 580.604026 
z
" style="fill:#fee9d4;stroke:#fee9d4;"/>
    <path clip-path="url(#p0871d050ea)" d="M 435.927812 543.737367 
C 437.893732 543.737367 439.779399 542.956299 441.169514 541.566183 
C 442.55963 540.176067 443.340699 538.290401 443.340699 536.32448 
C 443.340699 534.35856 442.55963 532.472893 441.169514 531.082777 
C 439.779399 529.692662 437.893732 528.911593 435.927812 528.911593 
C 433.961891 528.911593 432.076225 529.692662 430.686109 531.082777 
C 429.295993 532.472893 428.514924 534.35856 428.514924 536.32448 
C 428.514924 538.290401 429.295993 540.176067 430.686109 541.566183 
C 432.076225 542.956299 433.961891 543.737367 435.927812 543.737367 
z
" style="fill:#fee9d3;stroke:#fee9d3;"/>
    <path clip-path="url(#p0871d050ea)" d="M 203.965138 470.907807 
C 206.039898 470.907807 208.029961 470.083496 209.497038 468.616419 
C 210.964115 467.149341 211.788427 465.159278 211.788427 463.084518 
C 211.788427 461.009758 210.964115 459.019695 209.497038 457.552617 
C 208.029961 456.08554 206.039898 455.261229 203.965138 455.261229 
C 201.890377 455.261229 199.900314 456.08554 198.433237 457.552617 
C 196.96616 459.019695 196.141849 461.009758 196.141849 463.084518 
C 196.141849 465.159278 196.96616 467.149341 198.433237 468.616419 
C 199.900314 470.083496 201.890377 470.907807 203.965138 470.907807 
z
" style="fill:#fedcbb;stroke:#fedcbb;"/>
    <path clip-path="url(#p0871d050ea)" d="M 203.900856 434.074485 
C 205.988292 434.074485 207.990514 433.245137 209.466555 431.769097 
C 210.942595 430.293056 211.771943 428.290835 211.771943 426.203398 
C 211.771943 424.115961 210.942595 422.11374 209.466555 420.637699 
C 207.990514 419.161659 205.988292 418.332311 203.900856 418.332311 
C 201.813419 418.332311 199.811198 419.161659 198.335157 420.637699 
C 196.859117 422.11374 196.029769 424.115961 196.029769 426.203398 
C 196.029769 428.290835 196.859117 430.293056 198.335157 431.769097 
C 199.811198 433.245137 201.813419 434.074485 203.900856 434.074485 
z
" style="fill:#fddab6;stroke:#fddab6;"/>
    <path clip-path="url(#p0871d050ea)" d="M 403.264282 433.277665 
C 405.278909 433.277665 407.211294 432.477246 408.635851 431.052689 
C 410.060407 429.628132 410.860827 427.695747 410.860827 425.68112 
C 410.860827 423.666493 410.060407 421.734108 408.635851 420.309551 
C 407.211294 418.884995 405.278909 418.084575 403.264282 418.084575 
C 401.249654 418.084575 399.31727 418.884995 397.892713 420.309551 
C 396.468156 421.734108 395.667736 423.666493 395.667736 425.68112 
C 395.667736 427.695747 396.468156 429.628132 397.892713 431.052689 
C 399.31727 432.477246 401.249654 433.277665 403.264282 433.277665 
z
" style="fill:#fee4ca;stroke:#fee4ca;"/>
    <path clip-path="url(#p0871d050ea)" d="M 203.836574 396.540128 
C 205.75077 396.540128 207.586824 395.77961 208.940365 394.426069 
C 210.293906 393.072528 211.054424 391.236474 211.054424 389.322278 
C 211.054424 387.408082 210.293906 385.572028 208.940365 384.218487 
C 207.586824 382.864946 205.75077 382.104427 203.836574 382.104427 
C 201.922378 382.104427 200.086324 382.864946 198.732783 384.218487 
C 197.379242 385.572028 196.618724 387.408082 196.618724 389.322278 
C 196.618724 391.236474 197.379242 393.072528 198.732783 394.426069 
C 200.086324 395.77961 201.922378 396.540128 203.836574 396.540128 
z
" style="fill:#feeddc;stroke:#feeddc;"/>
    <path clip-path="url(#p0871d050ea)" d="M 403.2 399.98034 
C 406.165061 399.98034 409.00908 398.802309 411.105694 396.705694 
C 413.202309 394.60908 414.38034 391.765061 414.38034 388.8 
C 414.38034 385.834939 413.202309 382.99092 411.105694 380.894306 
C 409.00908 378.797691 406.165061 377.61966 403.2 377.61966 
C 400.234939 377.61966 397.39092 378.797691 395.294306 380.894306 
C 393.197691 382.99092 392.01966 385.834939 392.01966 388.8 
C 392.01966 391.765061 393.197691 394.60908 395.294306 396.705694 
C 397.39092 398.802309 400.234939 399.98034 403.2 399.98034 
z
" style="fill:#7f2704;stroke:#7f2704;"/>
    <path clip-path="url(#p0871d050ea)" d="M 403.135718 359.873056 
C 405.24519 359.873056 407.268548 359.034954 408.76017 357.543332 
C 410.251792 356.05171 411.089894 354.028352 411.089894 351.91888 
C 411.089894 349.809408 410.251792 347.78605 408.76017 346.294428 
C 407.268548 344.802806 405.24519 343.964704 403.135718 343.964704 
C 401.026246 343.964704 399.002888 344.802806 397.511266 346.294428 
C 396.019644 347.78605 395.181542 349.809408 395.181542 351.91888 
C 395.181542 354.028352 396.019644 356.05171 397.511266 357.543332 
C 399.002888 359.034954 401.026246 359.873056 403.135718 359.873056 
z
" style="fill:#fdd7b1;stroke:#fdd7b1;"/>
    <path clip-path="url(#p0871d050ea)" d="M 403.071436 322.794414 
C 405.128525 322.794414 407.101638 321.977124 408.556219 320.522543 
C 410.010801 319.067961 410.828091 317.094849 410.828091 315.03776 
C 410.828091 312.980671 410.010801 311.007558 408.556219 309.552977 
C 407.101638 308.098396 405.128525 307.281105 403.071436 307.281105 
C 401.014347 307.281105 399.041235 308.098396 397.586653 309.552977 
C 396.132072 311.007558 395.314782 312.980671 395.314782 315.03776 
C 395.314782 317.094849 396.132072 319.067961 397.586653 320.522543 
C 399.041235 321.977124 401.014347 322.794414 403.071436 322.794414 
z
" style="fill:#fedebf;stroke:#fedebf;"/>
    <path clip-path="url(#p0871d050ea)" d="M 403.007154 286.115951 
C 405.117988 286.115951 407.142652 285.277308 408.635237 283.784723 
C 410.127822 282.292138 410.966465 280.267474 410.966465 278.15664 
C 410.966465 276.045806 410.127822 274.021142 408.635237 272.528557 
C 407.142652 271.035972 405.117988 270.197329 403.007154 270.197329 
C 400.89632 270.197329 398.871657 271.035972 397.379072 272.528557 
C 395.886487 274.021142 395.047843 276.045806 395.047843 278.15664 
C 395.047843 280.267474 395.886487 282.292138 397.379072 283.784723 
C 398.871657 285.277308 400.89632 286.115951 403.007154 286.115951 
z
" style="fill:#fdd7b1;stroke:#fdd7b1;"/>
    <path clip-path="url(#p0871d050ea)" d="M 203.579447 249.019689 
C 205.494715 249.019689 207.331796 248.258745 208.686095 246.904446 
C 210.040394 245.550147 210.801338 243.713066 210.801338 241.797798 
C 210.801338 239.88253 210.040394 238.045448 208.686095 236.691149 
C 207.331796 235.33685 205.494715 234.575906 203.579447 234.575906 
C 201.664179 234.575906 199.827097 235.33685 198.472798 236.691149 
C 197.118499 238.045448 196.357555 239.88253 196.357555 241.797798 
C 196.357555 243.713066 197.118499 245.550147 198.472798 246.904446 
C 199.827097 248.258745 201.664179 249.019689 203.579447 249.019689 
z
" style="fill:#feeddc;stroke:#feeddc;"/>
    <path clip-path="url(#p0871d050ea)" d="M 402.942873 251.709622 
C 405.710029 251.709622 408.364222 250.610219 410.320897 248.653544 
C 412.277572 246.696869 413.376975 244.042676 413.376975 241.27552 
C 413.376975 238.508364 412.277572 235.85417 410.320897 233.897495 
C 408.364222 231.94082 405.710029 230.841418 402.942873 230.841418 
C 400.175716 230.841418 397.521523 231.94082 395.564848 233.897495 
C 393.608173 235.85417 392.50877 238.508364 392.50877 241.27552 
C 392.50877 244.042676 393.608173 246.696869 395.564848 248.653544 
C 397.521523 250.610219 400.175716 251.709622 402.942873 251.709622 
z
" style="fill:#c64102;stroke:#c64102;"/>
    <path clip-path="url(#p0871d050ea)" d="M 203.515165 212.801635 
C 205.60628 212.801635 207.61203 211.970826 209.090672 210.492185 
C 210.569314 209.013543 211.400122 207.007793 211.400122 204.916678 
C 211.400122 202.825562 210.569314 200.819812 209.090672 199.341171 
C 207.61203 197.862529 205.60628 197.03172 203.515165 197.03172 
C 201.424049 197.03172 199.418299 197.862529 197.939658 199.341171 
C 196.461016 200.819812 195.630207 202.825562 195.630207 204.916678 
C 195.630207 207.007793 196.461016 209.013543 197.939658 210.492185 
C 199.418299 211.970826 201.424049 212.801635 203.515165 212.801635 
z
" style="fill:#fdd9b5;stroke:#fdd9b5;"/>
    <path clip-path="url(#p0871d050ea)" d="M 402.878591 211.981374 
C 404.89068 211.981374 406.82063 211.181963 408.243392 209.759201 
C 409.666154 208.336439 410.465565 206.406489 410.465565 204.3944 
C 410.465565 202.382311 409.666154 200.452361 408.243392 199.029599 
C 406.82063 197.606837 404.89068 196.807425 402.878591 196.807425 
C 400.866502 196.807425 398.936552 197.606837 397.51379 199.029599 
C 396.091028 200.452361 395.291616 202.382311 395.291616 204.3944 
C 395.291616 206.406489 396.091028 208.336439 397.51379 209.759201 
C 398.936552 211.181963 400.866502 211.981374 402.878591 211.981374 
z
" style="fill:#fee5cb;stroke:#fee5cb;"/>
    <path clip-path="url(#p0871d050ea)" d="M 203.450883 175.841834 
C 205.521131 175.841834 207.506867 175.019315 208.970754 173.555428 
C 210.43464 172.091541 211.257159 170.105806 211.257159 168.035558 
C 211.257159 165.965309 210.43464 163.979574 208.970754 162.515687 
C 207.506867 161.0518 205.521131 160.229281 203.450883 160.229281 
C 201.380634 160.229281 199.394899 161.0518 197.931012 162.515687 
C 196.467125 163.979574 195.644607 165.965309 195.644607 168.035558 
C 195.644607 170.105806 196.467125 172.091541 197.931012 173.555428 
C 199.394899 175.019315 201.380634 175.841834 203.450883 175.841834 
z
" style="fill:#fedcbb;stroke:#fedcbb;"/>
    <path clip-path="url(#p0871d050ea)" d="M 435.156429 101.179388 
C 437.12645 101.179388 439.016049 100.39669 440.409065 99.003675 
C 441.80208 97.61066 442.584778 95.721061 442.584778 93.75104 
C 442.584778 91.781019 441.80208 89.891419 440.409065 88.498404 
C 439.016049 87.105389 437.12645 86.322691 435.156429 86.322691 
C 433.186408 86.322691 431.296809 87.105389 429.903794 88.498404 
C 428.510778 89.891419 427.728081 91.781019 427.728081 93.75104 
C 427.728081 95.721061 428.510778 97.61066 429.903794 99.003675 
C 431.296809 100.39669 433.186408 101.179388 435.156429 101.179388 
z
" style="fill:#fee8d2;stroke:#fee8d2;"/>
   </g>
   <g id="line2d_11">
    <defs>
     <path d="M -2.5 0 
L 2.5 0 
M 0 2.5 
L 0 -2.5 
" id="m9274021694" style="stroke:#0000ff;"/>
    </defs>
    <g clip-path="url(#p0871d050ea)">
     <use style="fill:#0000ff;stroke:#0000ff;" x="403.2" xlink:href="#m9274021694" y="388.8"/>
    </g>
   </g>
   <g id="patch_3">
    <path d="M 108 720.9 
L 108 56.7 
" style="fill:none;stroke:#000000;stroke-linecap:square;stroke-linejoin:miter;stroke-width:0.8;"/>
   </g>
   <g id="patch_4">
    <path d="M 698.4 720.9 
L 698.4 56.7 
" style="fill:none;stroke:#000000;stroke-linecap:square;stroke-linejoin:miter;stroke-width:0.8;"/>
   </g>
   <g id="patch_5">
    <path d="M 108 720.9 
L 698.4 720.9 
" style="fill:none;stroke:#000000;stroke-linecap:square;stroke-linejoin:miter;stroke-width:0.8;"/>
   </g>
   <g id="patch_6">
    <path d="M 108 56.7 
L 698.4 56.7 
" style="fill:none;stroke:#000000;stroke-linecap:square;stroke-linejoin:miter;stroke-width:0.8;"/>
   </g>
   <g id="text_13">
    <!-- (0,0,0) -->
    <g style="fill:#796eb2;" transform="translate(378.264844 382.158)scale(0.15 -0.15)">
     <defs>
      <path d="M 31 75.875 
Q 24.46875 64.65625 21.28125 53.65625 
Q 18.109375 42.671875 18.109375 31.390625 
Q 18.109375 20.125 21.3125 9.0625 
Q 24.515625 -2 31 -13.1875 
L 23.1875 -13.1875 
Q 15.875 -1.703125 12.234375 9.375 
Q 8.59375 20.453125 8.59375 31.390625 
Q 8.59375 42.28125 12.203125 53.3125 
Q 15.828125 64.359375 23.1875 75.875 
z
" id="DejaVuSans-40"/>
      <path d="M 11.71875 12.40625 
L 22.015625 12.40625 
L 22.015625 4 
L 14.015625 -11.625 
L 7.71875 -11.625 
L 11.71875 4 
z
" id="DejaVuSans-44"/>
      <path d="M 8.015625 75.875 
L 15.828125 75.875 
Q 23.140625 64.359375 26.78125 53.3125 
Q 30.421875 42.28125 30.421875 31.390625 
Q 30.421875 20.453125 26.78125 9.375 
Q 23.140625 -1.703125 15.828125 -13.1875 
L 8.015625 -13.1875 
Q 14.5 -2 17.703125 9.0625 
Q 20.90625 20.125 20.90625 31.390625 
Q 20.90625 42.671875 17.703125 53.65625 
Q 14.5 64.65625 8.015625 75.875 
z
" id="DejaVuSans-41"/>
     </defs>
     <use xlink:href="#DejaVuSans-40"/>
     <use x="39.013672" xlink:href="#DejaVuSans-48"/>
     <use x="102.636719" xlink:href="#DejaVuSans-44"/>
     <use x="134.423828" xlink:href="#DejaVuSans-48"/>
     <use x="198.046875" xlink:href="#DejaVuSans-44"/>
     <use x="229.833984" xlink:href="#DejaVuSans-48"/>
     <use x="293.457031" xlink:href="#DejaVuSans-41"/>
    </g>
   </g>
   <g id="text_14">
    <!-- (0,4,0) -->
    <g style="fill:#796eb2;" transform="translate(378.007716 234.63352)scale(0.15 -0.15)">
     <defs>
      <path d="M 37.796875 64.3125 
L 12.890625 25.390625 
L 37.796875 25.390625 
z
M 35.203125 72.90625 
L 47.609375 72.90625 
L 47.609375 25.390625 
L 58.015625 25.390625 
L 58.015625 17.1875 
L 47.609375 17.1875 
L 47.609375 0 
L 37.796875 0 
L 37.796875 17.1875 
L 4.890625 17.1875 
L 4.890625 26.703125 
z
" id="DejaVuSans-52"/>
     </defs>
     <use xlink:href="#DejaVuSans-40"/>
     <use x="39.013672" xlink:href="#DejaVuSans-48"/>
     <use x="102.636719" xlink:href="#DejaVuSans-44"/>
     <use x="134.423828" xlink:href="#DejaVuSans-52"/>
     <use x="198.046875" xlink:href="#DejaVuSans-44"/>
     <use x="229.833984" xlink:href="#DejaVuSans-48"/>
     <use x="293.457031" xlink:href="#DejaVuSans-41"/>
    </g>
   </g>
  </g>
 </g>
 <defs>
  <clipPath id="p0871d050ea">
   <rect height="664.2" width="590.4" x="108" y="56.7"/>
  </clipPath>
 </defs>
</svg>
