<?xml version="1.0" encoding="utf-8" standalone="no"?>
<!DOCTYPE svg PUBLIC "-//W3C//DTD SVG 1.1//EN"
  "http://www.w3.org/Graphics/SVG/1.1/DTD/svg11.dtd">
<!-- Created with matplotlib (https://matplotlib.org/) -->
<svg height="810pt" version="1.1" viewBox="0 0 720 810" width="720pt" xmlns="http://www.w3.org/2000/svg" xmlns:xlink="http://www.w3.org/1999/xlink">
 <metadata>
  <rdf:RDF xmlns:cc="http://creativecommons.org/ns#" xmlns:dc="http://purl.org/dc/elements/1.1/" xmlns:rdf="http://www.w3.org/1999/02/22-rdf-syntax-ns#">
   <cc:Work>
    <dc:type rdf:resource="http://purl.org/dc/dcmitype/StillImage"/>
    <dc:date>2021-07-07T15:44:47.855815</dc:date>
    <dc:format>image/svg+xml</dc:format>
    <dc:creator>
     <cc:Agent>
      <dc:title>Matplotlib v3.3.1, https://matplotlib.org/</dc:title>
     </cc:Agent>
    </dc:creator>
   </cc:Work>
  </rdf:RDF>
 </metadata>
 <defs>
  <style type="text/css">*{stroke-linecap:butt;stroke-linejoin:round;}</style>
 </defs>
 <g id="figure_1">
  <g id="patch_1">
   <path d="M 0 810 
L 720 810 
L 720 0 
L 0 0 
z
" style="fill:#ffffff;"/>
  </g>
  <g id="axes_1">
   <g id="patch_2">
    <path d="M 108 720.9 
L 698.4 720.9 
L 698.4 56.7 
L 108 56.7 
z
" style="fill:#ffffff;"/>
   </g>
   <g id="matplotlib.axis_1">
    <g id="xtick_1">
     <g id="line2d_1">
      <path clip-path="url(#p775d49b5c1)" d="M 159.233058 720.9 
L 159.233058 56.7 
" style="fill:none;stroke:#e6e6e6;stroke-linecap:square;stroke-width:0.8;"/>
     </g>
     <g id="line2d_2">
      <defs>
       <path d="M 0 0 
L 0 3.5 
" id="me55bf49dd4" style="stroke:#000000;stroke-width:0.8;"/>
      </defs>
      <g>
       <use style="stroke:#000000;stroke-width:0.8;" x="159.233058" xlink:href="#me55bf49dd4" y="720.9"/>
      </g>
     </g>
     <g id="text_1">
      <!-- −0.3 -->
      <g transform="translate(141.020948 739.297656)scale(0.15 -0.15)">
       <defs>
        <path d="M 10.59375 35.5 
L 73.1875 35.5 
L 73.1875 27.203125 
L 10.59375 27.203125 
z
" id="DejaVuSans-8722"/>
        <path d="M 31.78125 66.40625 
Q 24.171875 66.40625 20.328125 58.90625 
Q 16.5 51.421875 16.5 36.375 
Q 16.5 21.390625 20.328125 13.890625 
Q 24.171875 6.390625 31.78125 6.390625 
Q 39.453125 6.390625 43.28125 13.890625 
Q 47.125 21.390625 47.125 36.375 
Q 47.125 51.421875 43.28125 58.90625 
Q 39.453125 66.40625 31.78125 66.40625 
z
M 31.78125 74.21875 
Q 44.046875 74.21875 50.515625 64.515625 
Q 56.984375 54.828125 56.984375 36.375 
Q 56.984375 17.96875 50.515625 8.265625 
Q 44.046875 -1.421875 31.78125 -1.421875 
Q 19.53125 -1.421875 13.0625 8.265625 
Q 6.59375 17.96875 6.59375 36.375 
Q 6.59375 54.828125 13.0625 64.515625 
Q 19.53125 74.21875 31.78125 74.21875 
z
" id="DejaVuSans-48"/>
        <path d="M 10.6875 12.40625 
L 21 12.40625 
L 21 0 
L 10.6875 0 
z
" id="DejaVuSans-46"/>
        <path d="M 40.578125 39.3125 
Q 47.65625 37.796875 51.625 33 
Q 55.609375 28.21875 55.609375 21.1875 
Q 55.609375 10.40625 48.1875 4.484375 
Q 40.765625 -1.421875 27.09375 -1.421875 
Q 22.515625 -1.421875 17.65625 -0.515625 
Q 12.796875 0.390625 7.625 2.203125 
L 7.625 11.71875 
Q 11.71875 9.328125 16.59375 8.109375 
Q 21.484375 6.890625 26.8125 6.890625 
Q 36.078125 6.890625 40.9375 10.546875 
Q 45.796875 14.203125 45.796875 21.1875 
Q 45.796875 27.640625 41.28125 31.265625 
Q 36.765625 34.90625 28.71875 34.90625 
L 20.21875 34.90625 
L 20.21875 43.015625 
L 29.109375 43.015625 
Q 36.375 43.015625 40.234375 45.921875 
Q 44.09375 48.828125 44.09375 54.296875 
Q 44.09375 59.90625 40.109375 62.90625 
Q 36.140625 65.921875 28.71875 65.921875 
Q 24.65625 65.921875 20.015625 65.03125 
Q 15.375 64.15625 9.8125 62.3125 
L 9.8125 71.09375 
Q 15.4375 72.65625 20.34375 73.4375 
Q 25.25 74.21875 29.59375 74.21875 
Q 40.828125 74.21875 47.359375 69.109375 
Q 53.90625 64.015625 53.90625 55.328125 
Q 53.90625 49.265625 50.4375 45.09375 
Q 46.96875 40.921875 40.578125 39.3125 
z
" id="DejaVuSans-51"/>
       </defs>
       <use xlink:href="#DejaVuSans-8722"/>
       <use x="83.789062" xlink:href="#DejaVuSans-48"/>
       <use x="147.412109" xlink:href="#DejaVuSans-46"/>
       <use x="179.199219" xlink:href="#DejaVuSans-51"/>
      </g>
     </g>
    </g>
    <g id="xtick_2">
     <g id="line2d_3">
      <path clip-path="url(#p775d49b5c1)" d="M 240.555372 720.9 
L 240.555372 56.7 
" style="fill:none;stroke:#e6e6e6;stroke-linecap:square;stroke-width:0.8;"/>
     </g>
     <g id="line2d_4">
      <g>
       <use style="stroke:#000000;stroke-width:0.8;" x="240.555372" xlink:href="#me55bf49dd4" y="720.9"/>
      </g>
     </g>
     <g id="text_2">
      <!-- −0.2 -->
      <g transform="translate(222.343263 739.297656)scale(0.15 -0.15)">
       <defs>
        <path d="M 19.1875 8.296875 
L 53.609375 8.296875 
L 53.609375 0 
L 7.328125 0 
L 7.328125 8.296875 
Q 12.9375 14.109375 22.625 23.890625 
Q 32.328125 33.6875 34.8125 36.53125 
Q 39.546875 41.84375 41.421875 45.53125 
Q 43.3125 49.21875 43.3125 52.78125 
Q 43.3125 58.59375 39.234375 62.25 
Q 35.15625 65.921875 28.609375 65.921875 
Q 23.96875 65.921875 18.8125 64.3125 
Q 13.671875 62.703125 7.8125 59.421875 
L 7.8125 69.390625 
Q 13.765625 71.78125 18.9375 73 
Q 24.125 74.21875 28.421875 74.21875 
Q 39.75 74.21875 46.484375 68.546875 
Q 53.21875 62.890625 53.21875 53.421875 
Q 53.21875 48.921875 51.53125 44.890625 
Q 49.859375 40.875 45.40625 35.40625 
Q 44.1875 33.984375 37.640625 27.21875 
Q 31.109375 20.453125 19.1875 8.296875 
z
" id="DejaVuSans-50"/>
       </defs>
       <use xlink:href="#DejaVuSans-8722"/>
       <use x="83.789062" xlink:href="#DejaVuSans-48"/>
       <use x="147.412109" xlink:href="#DejaVuSans-46"/>
       <use x="179.199219" xlink:href="#DejaVuSans-50"/>
      </g>
     </g>
    </g>
    <g id="xtick_3">
     <g id="line2d_5">
      <path clip-path="url(#p775d49b5c1)" d="M 321.877686 720.9 
L 321.877686 56.7 
" style="fill:none;stroke:#e6e6e6;stroke-linecap:square;stroke-width:0.8;"/>
     </g>
     <g id="line2d_6">
      <g>
       <use style="stroke:#000000;stroke-width:0.8;" x="321.877686" xlink:href="#me55bf49dd4" y="720.9"/>
      </g>
     </g>
     <g id="text_3">
      <!-- −0.1 -->
      <g transform="translate(303.665577 739.297656)scale(0.15 -0.15)">
       <defs>
        <path d="M 12.40625 8.296875 
L 28.515625 8.296875 
L 28.515625 63.921875 
L 10.984375 60.40625 
L 10.984375 69.390625 
L 28.421875 72.90625 
L 38.28125 72.90625 
L 38.28125 8.296875 
L 54.390625 8.296875 
L 54.390625 0 
L 12.40625 0 
z
" id="DejaVuSans-49"/>
       </defs>
       <use xlink:href="#DejaVuSans-8722"/>
       <use x="83.789062" xlink:href="#DejaVuSans-48"/>
       <use x="147.412109" xlink:href="#DejaVuSans-46"/>
       <use x="179.199219" xlink:href="#DejaVuSans-49"/>
      </g>
     </g>
    </g>
    <g id="xtick_4">
     <g id="line2d_7">
      <path clip-path="url(#p775d49b5c1)" d="M 403.2 720.9 
L 403.2 56.7 
" style="fill:none;stroke:#e6e6e6;stroke-linecap:square;stroke-width:0.8;"/>
     </g>
     <g id="line2d_8">
      <g>
       <use style="stroke:#000000;stroke-width:0.8;" x="403.2" xlink:href="#me55bf49dd4" y="720.9"/>
      </g>
     </g>
     <g id="text_4">
      <!-- 0.0 -->
      <g transform="translate(391.272656 739.297656)scale(0.15 -0.15)">
       <use xlink:href="#DejaVuSans-48"/>
       <use x="63.623047" xlink:href="#DejaVuSans-46"/>
       <use x="95.410156" xlink:href="#DejaVuSans-48"/>
      </g>
     </g>
    </g>
    <g id="xtick_5">
     <g id="line2d_9">
      <path clip-path="url(#p775d49b5c1)" d="M 484.522314 720.9 
L 484.522314 56.7 
" style="fill:none;stroke:#e6e6e6;stroke-linecap:square;stroke-width:0.8;"/>
     </g>
     <g id="line2d_10">
      <g>
       <use style="stroke:#000000;stroke-width:0.8;" x="484.522314" xlink:href="#me55bf49dd4" y="720.9"/>
      </g>
     </g>
     <g id="text_5">
      <!-- 0.1 -->
      <g transform="translate(472.59497 739.297656)scale(0.15 -0.15)">
       <use xlink:href="#DejaVuSans-48"/>
       <use x="63.623047" xlink:href="#DejaVuSans-46"/>
       <use x="95.410156" xlink:href="#DejaVuSans-49"/>
      </g>
     </g>
    </g>
    <g id="xtick_6">
     <g id="line2d_11">
      <path clip-path="url(#p775d49b5c1)" d="M 565.844628 720.9 
L 565.844628 56.7 
" style="fill:none;stroke:#e6e6e6;stroke-linecap:square;stroke-width:0.8;"/>
     </g>
     <g id="line2d_12">
      <g>
       <use style="stroke:#000000;stroke-width:0.8;" x="565.844628" xlink:href="#me55bf49dd4" y="720.9"/>
      </g>
     </g>
     <g id="text_6">
      <!-- 0.2 -->
      <g transform="translate(553.917284 739.297656)scale(0.15 -0.15)">
       <use xlink:href="#DejaVuSans-48"/>
       <use x="63.623047" xlink:href="#DejaVuSans-46"/>
       <use x="95.410156" xlink:href="#DejaVuSans-50"/>
      </g>
     </g>
    </g>
    <g id="xtick_7">
     <g id="line2d_13">
      <path clip-path="url(#p775d49b5c1)" d="M 647.166942 720.9 
L 647.166942 56.7 
" style="fill:none;stroke:#e6e6e6;stroke-linecap:square;stroke-width:0.8;"/>
     </g>
     <g id="line2d_14">
      <g>
       <use style="stroke:#000000;stroke-width:0.8;" x="647.166942" xlink:href="#me55bf49dd4" y="720.9"/>
      </g>
     </g>
     <g id="text_7">
      <!-- 0.3 -->
      <g transform="translate(635.239598 739.297656)scale(0.15 -0.15)">
       <use xlink:href="#DejaVuSans-48"/>
       <use x="63.623047" xlink:href="#DejaVuSans-46"/>
       <use x="95.410156" xlink:href="#DejaVuSans-51"/>
      </g>
     </g>
    </g>
    <g id="text_8">
     <!-- $\theta$(deg) -->
     <g transform="translate(362.2 765.667187)scale(0.25 -0.25)">
      <defs>
       <path d="M 45.515625 34.671875 
L 14.453125 34.671875 
Q 12.359375 20.0625 14.5 13.875 
Q 17.1875 6.25 24.46875 6.25 
Q 31.78125 6.25 37.359375 13.921875 
Q 42.234375 20.65625 45.515625 34.671875 
z
M 47.015625 42.96875 
Q 48.34375 56.84375 46.625 61.71875 
Q 43.953125 69.4375 36.765625 69.4375 
Q 29.296875 69.4375 23.828125 61.8125 
Q 19.53125 55.671875 16.15625 42.96875 
z
M 38.1875 76.765625 
Q 49.90625 76.765625 54.59375 66.40625 
Q 59.28125 56.109375 55.71875 37.84375 
Q 52.203125 19.625 43.453125 9.28125 
Q 34.765625 -1.125 23.046875 -1.125 
Q 11.28125 -1.125 6.640625 9.28125 
Q 2 19.625 5.515625 37.84375 
Q 9.078125 56.109375 17.71875 66.40625 
Q 26.421875 76.765625 38.1875 76.765625 
z
" id="DejaVuSans-Oblique-952"/>
       <path d="M 31 75.875 
Q 24.46875 64.65625 21.28125 53.65625 
Q 18.109375 42.671875 18.109375 31.390625 
Q 18.109375 20.125 21.3125 9.0625 
Q 24.515625 -2 31 -13.1875 
L 23.1875 -13.1875 
Q 15.875 -1.703125 12.234375 9.375 
Q 8.59375 20.453125 8.59375 31.390625 
Q 8.59375 42.28125 12.203125 53.3125 
Q 15.828125 64.359375 23.1875 75.875 
z
" id="DejaVuSans-40"/>
       <path d="M 45.40625 46.390625 
L 45.40625 75.984375 
L 54.390625 75.984375 
L 54.390625 0 
L 45.40625 0 
L 45.40625 8.203125 
Q 42.578125 3.328125 38.25 0.953125 
Q 33.9375 -1.421875 27.875 -1.421875 
Q 17.96875 -1.421875 11.734375 6.484375 
Q 5.515625 14.40625 5.515625 27.296875 
Q 5.515625 40.1875 11.734375 48.09375 
Q 17.96875 56 27.875 56 
Q 33.9375 56 38.25 53.625 
Q 42.578125 51.265625 45.40625 46.390625 
z
M 14.796875 27.296875 
Q 14.796875 17.390625 18.875 11.75 
Q 22.953125 6.109375 30.078125 6.109375 
Q 37.203125 6.109375 41.296875 11.75 
Q 45.40625 17.390625 45.40625 27.296875 
Q 45.40625 37.203125 41.296875 42.84375 
Q 37.203125 48.484375 30.078125 48.484375 
Q 22.953125 48.484375 18.875 42.84375 
Q 14.796875 37.203125 14.796875 27.296875 
z
" id="DejaVuSans-100"/>
       <path d="M 56.203125 29.59375 
L 56.203125 25.203125 
L 14.890625 25.203125 
Q 15.484375 15.921875 20.484375 11.0625 
Q 25.484375 6.203125 34.421875 6.203125 
Q 39.59375 6.203125 44.453125 7.46875 
Q 49.3125 8.734375 54.109375 11.28125 
L 54.109375 2.78125 
Q 49.265625 0.734375 44.1875 -0.34375 
Q 39.109375 -1.421875 33.890625 -1.421875 
Q 20.796875 -1.421875 13.15625 6.1875 
Q 5.515625 13.8125 5.515625 26.8125 
Q 5.515625 40.234375 12.765625 48.109375 
Q 20.015625 56 32.328125 56 
Q 43.359375 56 49.78125 48.890625 
Q 56.203125 41.796875 56.203125 29.59375 
z
M 47.21875 32.234375 
Q 47.125 39.59375 43.09375 43.984375 
Q 39.0625 48.390625 32.421875 48.390625 
Q 24.90625 48.390625 20.390625 44.140625 
Q 15.875 39.890625 15.1875 32.171875 
z
" id="DejaVuSans-101"/>
       <path d="M 45.40625 27.984375 
Q 45.40625 37.75 41.375 43.109375 
Q 37.359375 48.484375 30.078125 48.484375 
Q 22.859375 48.484375 18.828125 43.109375 
Q 14.796875 37.75 14.796875 27.984375 
Q 14.796875 18.265625 18.828125 12.890625 
Q 22.859375 7.515625 30.078125 7.515625 
Q 37.359375 7.515625 41.375 12.890625 
Q 45.40625 18.265625 45.40625 27.984375 
z
M 54.390625 6.78125 
Q 54.390625 -7.171875 48.1875 -13.984375 
Q 42 -20.796875 29.203125 -20.796875 
Q 24.46875 -20.796875 20.265625 -20.09375 
Q 16.0625 -19.390625 12.109375 -17.921875 
L 12.109375 -9.1875 
Q 16.0625 -11.328125 19.921875 -12.34375 
Q 23.78125 -13.375 27.78125 -13.375 
Q 36.625 -13.375 41.015625 -8.765625 
Q 45.40625 -4.15625 45.40625 5.171875 
L 45.40625 9.625 
Q 42.625 4.78125 38.28125 2.390625 
Q 33.9375 0 27.875 0 
Q 17.828125 0 11.671875 7.65625 
Q 5.515625 15.328125 5.515625 27.984375 
Q 5.515625 40.671875 11.671875 48.328125 
Q 17.828125 56 27.875 56 
Q 33.9375 56 38.28125 53.609375 
Q 42.625 51.21875 45.40625 46.390625 
L 45.40625 54.6875 
L 54.390625 54.6875 
z
" id="DejaVuSans-103"/>
       <path d="M 8.015625 75.875 
L 15.828125 75.875 
Q 23.140625 64.359375 26.78125 53.3125 
Q 30.421875 42.28125 30.421875 31.390625 
Q 30.421875 20.453125 26.78125 9.375 
Q 23.140625 -1.703125 15.828125 -13.1875 
L 8.015625 -13.1875 
Q 14.5 -2 17.703125 9.0625 
Q 20.90625 20.125 20.90625 31.390625 
Q 20.90625 42.671875 17.703125 53.65625 
Q 14.5 64.65625 8.015625 75.875 
z
" id="DejaVuSans-41"/>
      </defs>
      <use transform="translate(0 0.234375)" xlink:href="#DejaVuSans-Oblique-952"/>
      <use transform="translate(61.181641 0.234375)" xlink:href="#DejaVuSans-40"/>
      <use transform="translate(100.195312 0.234375)" xlink:href="#DejaVuSans-100"/>
      <use transform="translate(163.671875 0.234375)" xlink:href="#DejaVuSans-101"/>
      <use transform="translate(225.195312 0.234375)" xlink:href="#DejaVuSans-103"/>
      <use transform="translate(288.671875 0.234375)" xlink:href="#DejaVuSans-41"/>
     </g>
    </g>
   </g>
   <g id="matplotlib.axis_2">
    <g id="ytick_1">
     <g id="line2d_15">
      <path clip-path="url(#p775d49b5c1)" d="M 108 663.263087 
L 698.4 663.263087 
" style="fill:none;stroke:#e6e6e6;stroke-linecap:square;stroke-width:0.8;"/>
     </g>
     <g id="line2d_16">
      <defs>
       <path d="M 0 0 
L -3.5 0 
" id="m467592157c" style="stroke:#000000;stroke-width:0.8;"/>
      </defs>
      <g>
       <use style="stroke:#000000;stroke-width:0.8;" x="108" xlink:href="#m467592157c" y="663.263087"/>
      </g>
     </g>
     <g id="text_9">
      <!-- 0.0 -->
      <g transform="translate(77.145313 668.961915)scale(0.15 -0.15)">
       <use xlink:href="#DejaVuSans-48"/>
       <use x="63.623047" xlink:href="#DejaVuSans-46"/>
       <use x="95.410156" xlink:href="#DejaVuSans-48"/>
      </g>
     </g>
    </g>
    <g id="ytick_2">
     <g id="line2d_17">
      <path clip-path="url(#p775d49b5c1)" d="M 108 553.380505 
L 698.4 553.380505 
" style="fill:none;stroke:#e6e6e6;stroke-linecap:square;stroke-width:0.8;"/>
     </g>
     <g id="line2d_18">
      <g>
       <use style="stroke:#000000;stroke-width:0.8;" x="108" xlink:href="#m467592157c" y="553.380505"/>
      </g>
     </g>
     <g id="text_10">
      <!-- 0.2 -->
      <g transform="translate(77.145313 559.079333)scale(0.15 -0.15)">
       <use xlink:href="#DejaVuSans-48"/>
       <use x="63.623047" xlink:href="#DejaVuSans-46"/>
       <use x="95.410156" xlink:href="#DejaVuSans-50"/>
      </g>
     </g>
    </g>
    <g id="ytick_3">
     <g id="line2d_19">
      <path clip-path="url(#p775d49b5c1)" d="M 108 443.497923 
L 698.4 443.497923 
" style="fill:none;stroke:#e6e6e6;stroke-linecap:square;stroke-width:0.8;"/>
     </g>
     <g id="line2d_20">
      <g>
       <use style="stroke:#000000;stroke-width:0.8;" x="108" xlink:href="#m467592157c" y="443.497923"/>
      </g>
     </g>
     <g id="text_11">
      <!-- 0.4 -->
      <g transform="translate(77.145313 449.196751)scale(0.15 -0.15)">
       <defs>
        <path d="M 37.796875 64.3125 
L 12.890625 25.390625 
L 37.796875 25.390625 
z
M 35.203125 72.90625 
L 47.609375 72.90625 
L 47.609375 25.390625 
L 58.015625 25.390625 
L 58.015625 17.1875 
L 47.609375 17.1875 
L 47.609375 0 
L 37.796875 0 
L 37.796875 17.1875 
L 4.890625 17.1875 
L 4.890625 26.703125 
z
" id="DejaVuSans-52"/>
       </defs>
       <use xlink:href="#DejaVuSans-48"/>
       <use x="63.623047" xlink:href="#DejaVuSans-46"/>
       <use x="95.410156" xlink:href="#DejaVuSans-52"/>
      </g>
     </g>
    </g>
    <g id="ytick_4">
     <g id="line2d_21">
      <path clip-path="url(#p775d49b5c1)" d="M 108 333.615341 
L 698.4 333.615341 
" style="fill:none;stroke:#e6e6e6;stroke-linecap:square;stroke-width:0.8;"/>
     </g>
     <g id="line2d_22">
      <g>
       <use style="stroke:#000000;stroke-width:0.8;" x="108" xlink:href="#m467592157c" y="333.615341"/>
      </g>
     </g>
     <g id="text_12">
      <!-- 0.6 -->
      <g transform="translate(77.145313 339.314169)scale(0.15 -0.15)">
       <defs>
        <path d="M 33.015625 40.375 
Q 26.375 40.375 22.484375 35.828125 
Q 18.609375 31.296875 18.609375 23.390625 
Q 18.609375 15.53125 22.484375 10.953125 
Q 26.375 6.390625 33.015625 6.390625 
Q 39.65625 6.390625 43.53125 10.953125 
Q 47.40625 15.53125 47.40625 23.390625 
Q 47.40625 31.296875 43.53125 35.828125 
Q 39.65625 40.375 33.015625 40.375 
z
M 52.59375 71.296875 
L 52.59375 62.3125 
Q 48.875 64.0625 45.09375 64.984375 
Q 41.3125 65.921875 37.59375 65.921875 
Q 27.828125 65.921875 22.671875 59.328125 
Q 17.53125 52.734375 16.796875 39.40625 
Q 19.671875 43.65625 24.015625 45.921875 
Q 28.375 48.1875 33.59375 48.1875 
Q 44.578125 48.1875 50.953125 41.515625 
Q 57.328125 34.859375 57.328125 23.390625 
Q 57.328125 12.15625 50.6875 5.359375 
Q 44.046875 -1.421875 33.015625 -1.421875 
Q 20.359375 -1.421875 13.671875 8.265625 
Q 6.984375 17.96875 6.984375 36.375 
Q 6.984375 53.65625 15.1875 63.9375 
Q 23.390625 74.21875 37.203125 74.21875 
Q 40.921875 74.21875 44.703125 73.484375 
Q 48.484375 72.75 52.59375 71.296875 
z
" id="DejaVuSans-54"/>
       </defs>
       <use xlink:href="#DejaVuSans-48"/>
       <use x="63.623047" xlink:href="#DejaVuSans-46"/>
       <use x="95.410156" xlink:href="#DejaVuSans-54"/>
      </g>
     </g>
    </g>
    <g id="ytick_5">
     <g id="line2d_23">
      <path clip-path="url(#p775d49b5c1)" d="M 108 223.73276 
L 698.4 223.73276 
" style="fill:none;stroke:#e6e6e6;stroke-linecap:square;stroke-width:0.8;"/>
     </g>
     <g id="line2d_24">
      <g>
       <use style="stroke:#000000;stroke-width:0.8;" x="108" xlink:href="#m467592157c" y="223.73276"/>
      </g>
     </g>
     <g id="text_13">
      <!-- 0.8 -->
      <g transform="translate(77.145313 229.431588)scale(0.15 -0.15)">
       <defs>
        <path d="M 31.78125 34.625 
Q 24.75 34.625 20.71875 30.859375 
Q 16.703125 27.09375 16.703125 20.515625 
Q 16.703125 13.921875 20.71875 10.15625 
Q 24.75 6.390625 31.78125 6.390625 
Q 38.8125 6.390625 42.859375 10.171875 
Q 46.921875 13.96875 46.921875 20.515625 
Q 46.921875 27.09375 42.890625 30.859375 
Q 38.875 34.625 31.78125 34.625 
z
M 21.921875 38.8125 
Q 15.578125 40.375 12.03125 44.71875 
Q 8.5 49.078125 8.5 55.328125 
Q 8.5 64.0625 14.71875 69.140625 
Q 20.953125 74.21875 31.78125 74.21875 
Q 42.671875 74.21875 48.875 69.140625 
Q 55.078125 64.0625 55.078125 55.328125 
Q 55.078125 49.078125 51.53125 44.71875 
Q 48 40.375 41.703125 38.8125 
Q 48.828125 37.15625 52.796875 32.3125 
Q 56.78125 27.484375 56.78125 20.515625 
Q 56.78125 9.90625 50.3125 4.234375 
Q 43.84375 -1.421875 31.78125 -1.421875 
Q 19.734375 -1.421875 13.25 4.234375 
Q 6.78125 9.90625 6.78125 20.515625 
Q 6.78125 27.484375 10.78125 32.3125 
Q 14.796875 37.15625 21.921875 38.8125 
z
M 18.3125 54.390625 
Q 18.3125 48.734375 21.84375 45.5625 
Q 25.390625 42.390625 31.78125 42.390625 
Q 38.140625 42.390625 41.71875 45.5625 
Q 45.3125 48.734375 45.3125 54.390625 
Q 45.3125 60.0625 41.71875 63.234375 
Q 38.140625 66.40625 31.78125 66.40625 
Q 25.390625 66.40625 21.84375 63.234375 
Q 18.3125 60.0625 18.3125 54.390625 
z
" id="DejaVuSans-56"/>
       </defs>
       <use xlink:href="#DejaVuSans-48"/>
       <use x="63.623047" xlink:href="#DejaVuSans-46"/>
       <use x="95.410156" xlink:href="#DejaVuSans-56"/>
      </g>
     </g>
    </g>
    <g id="ytick_6">
     <g id="line2d_25">
      <path clip-path="url(#p775d49b5c1)" d="M 108 113.850178 
L 698.4 113.850178 
" style="fill:none;stroke:#e6e6e6;stroke-linecap:square;stroke-width:0.8;"/>
     </g>
     <g id="line2d_26">
      <g>
       <use style="stroke:#000000;stroke-width:0.8;" x="108" xlink:href="#m467592157c" y="113.850178"/>
      </g>
     </g>
     <g id="text_14">
      <!-- 1.0 -->
      <g transform="translate(77.145313 119.549006)scale(0.15 -0.15)">
       <use xlink:href="#DejaVuSans-49"/>
       <use x="63.623047" xlink:href="#DejaVuSans-46"/>
       <use x="95.410156" xlink:href="#DejaVuSans-48"/>
      </g>
     </g>
    </g>
    <g id="text_15">
     <!-- $I$ -->
     <g transform="translate(67.946094 392.55)rotate(-90)scale(0.25 -0.25)">
      <defs>
       <path d="M 16.890625 72.90625 
L 26.8125 72.90625 
L 12.59375 0 
L 2.6875 0 
z
" id="DejaVuSans-Oblique-73"/>
      </defs>
      <use transform="translate(0 0.09375)" xlink:href="#DejaVuSans-Oblique-73"/>
     </g>
    </g>
   </g>
   <g id="line2d_27">
    <path clip-path="url(#p775d49b5c1)" d="M 159.233058 663.189647 
L 163.075057 663.262532 
L 166.917056 663.181407 
L 170.759055 662.933582 
L 174.601054 662.506712 
L 178.443053 661.88886 
L 182.285052 661.068251 
L 186.127051 660.034583 
L 189.969051 658.777248 
L 193.81105 657.286591 
L 197.653049 655.553696 
L 201.495048 653.560756 
L 205.337047 651.310184 
L 209.179046 648.793672 
L 213.021045 646.006135 
L 216.863044 642.943656 
L 220.705043 639.603548 
L 224.547042 635.984398 
L 228.389041 632.08611 
L 232.231041 627.909945 
L 236.07304 623.458543 
L 239.915039 618.73595 
L 243.757038 613.747628 
L 247.599037 608.500462 
L 251.441036 603.00276 
L 255.283035 597.264239 
L 259.125034 591.296011 
L 266.809032 578.721677 
L 274.493031 565.395309 
L 282.177029 551.452239 
L 289.861027 537.045617 
L 305.229023 507.528529 
L 316.75502 485.510445 
L 324.439019 471.256139 
L 332.123017 457.573059 
L 339.807015 444.656436 
L 343.649014 438.544693 
L 347.491013 432.694315 
L 351.333012 427.127072 
L 355.175011 421.863834 
L 359.01701 416.924456 
L 362.85901 412.327685 
L 366.701009 408.09106 
L 370.543008 404.230824 
L 374.385007 400.761841 
L 378.227006 397.697519 
L 382.069005 395.049741 
L 385.911004 392.828806 
L 389.753003 391.043373 
L 393.595002 389.700414 
L 397.437001 388.805185 
L 401.279 388.361192 
L 405.121 388.370177 
L 408.962999 388.832105 
L 412.804998 389.745168 
L 416.646997 391.105794 
L 420.488996 392.908662 
L 424.330995 395.146732 
L 428.172994 397.811284 
L 432.014993 400.891958 
L 435.856992 404.37681 
L 439.698991 408.252376 
L 443.54099 412.503736 
L 447.38299 417.114596 
L 451.224989 422.067368 
L 455.066988 427.343261 
L 458.908987 432.922376 
L 462.750986 438.783807 
L 466.592985 444.905749 
L 474.276983 457.840089 
L 481.960981 471.53716 
L 489.64498 485.80161 
L 501.170977 507.827604 
L 516.538973 537.341882 
L 524.222971 551.741704 
L 528.06497 560.604223 
L 531.906969 567.368069 
L 535.748969 574.567449 
L 543.432967 587.178969 
L 551.116965 599.023361 
L 554.958964 604.630072 
L 558.800963 610.013103 
L 562.642962 615.163304 
L 566.484961 620.072212 
L 570.32696 624.732069 
L 574.168959 629.135858 
L 578.010959 633.277358 
L 581.852958 637.151223 
L 585.694957 640.753068 
L 589.536956 644.079569 
L 593.378955 647.12857 
L 597.220954 649.89919 
L 601.062953 652.391922 
L 604.904952 654.608728 
L 608.746951 656.553113 
L 612.58895 658.230181 
L 616.430949 659.646665 
L 620.272949 660.810926 
L 624.114948 661.732926 
L 627.956947 662.424164 
L 631.798946 662.897577 
L 635.640945 663.167416 
L 639.482944 663.249082 
L 643.324943 663.158943 
L 647.166942 662.914126 
L 647.166942 662.914126 
" style="fill:none;stroke:#f98e52;stroke-linecap:square;stroke-width:2;"/>
    <defs>
     <path d="M 0 2.5 
C 0.663008 2.5 1.29895 2.236584 1.767767 1.767767 
C 2.236584 1.29895 2.5 0.663008 2.5 0 
C 2.5 -0.663008 2.236584 -1.29895 1.767767 -1.767767 
C 1.29895 -2.236584 0.663008 -2.5 0 -2.5 
C -0.663008 -2.5 -1.29895 -2.236584 -1.767767 -1.767767 
C -2.236584 -1.29895 -2.5 -0.663008 -2.5 0 
C -2.5 0.663008 -2.236584 1.29895 -1.767767 1.767767 
C -1.29895 2.236584 -0.663008 2.5 0 2.5 
z
" id="m7810dc3b7d" style="stroke:#f98e52;"/>
    </defs>
    <g clip-path="url(#p775d49b5c1)">
     <use style="fill:#f98e52;stroke:#f98e52;" x="159.233058" xlink:href="#m7810dc3b7d" y="663.189647"/>
     <use style="fill:#f98e52;stroke:#f98e52;" x="163.075057" xlink:href="#m7810dc3b7d" y="663.262532"/>
     <use style="fill:#f98e52;stroke:#f98e52;" x="166.917056" xlink:href="#m7810dc3b7d" y="663.181407"/>
     <use style="fill:#f98e52;stroke:#f98e52;" x="170.759055" xlink:href="#m7810dc3b7d" y="662.933582"/>
     <use style="fill:#f98e52;stroke:#f98e52;" x="174.601054" xlink:href="#m7810dc3b7d" y="662.506712"/>
     <use style="fill:#f98e52;stroke:#f98e52;" x="178.443053" xlink:href="#m7810dc3b7d" y="661.88886"/>
     <use style="fill:#f98e52;stroke:#f98e52;" x="182.285052" xlink:href="#m7810dc3b7d" y="661.068251"/>
     <use style="fill:#f98e52;stroke:#f98e52;" x="186.127051" xlink:href="#m7810dc3b7d" y="660.034583"/>
     <use style="fill:#f98e52;stroke:#f98e52;" x="189.969051" xlink:href="#m7810dc3b7d" y="658.777248"/>
     <use style="fill:#f98e52;stroke:#f98e52;" x="193.81105" xlink:href="#m7810dc3b7d" y="657.286591"/>
     <use style="fill:#f98e52;stroke:#f98e52;" x="197.653049" xlink:href="#m7810dc3b7d" y="655.553696"/>
     <use style="fill:#f98e52;stroke:#f98e52;" x="201.495048" xlink:href="#m7810dc3b7d" y="653.560756"/>
     <use style="fill:#f98e52;stroke:#f98e52;" x="205.337047" xlink:href="#m7810dc3b7d" y="651.310184"/>
     <use style="fill:#f98e52;stroke:#f98e52;" x="209.179046" xlink:href="#m7810dc3b7d" y="648.793672"/>
     <use style="fill:#f98e52;stroke:#f98e52;" x="213.021045" xlink:href="#m7810dc3b7d" y="646.006135"/>
     <use style="fill:#f98e52;stroke:#f98e52;" x="216.863044" xlink:href="#m7810dc3b7d" y="642.943656"/>
     <use style="fill:#f98e52;stroke:#f98e52;" x="220.705043" xlink:href="#m7810dc3b7d" y="639.603548"/>
     <use style="fill:#f98e52;stroke:#f98e52;" x="224.547042" xlink:href="#m7810dc3b7d" y="635.984398"/>
     <use style="fill:#f98e52;stroke:#f98e52;" x="228.389041" xlink:href="#m7810dc3b7d" y="632.08611"/>
     <use style="fill:#f98e52;stroke:#f98e52;" x="232.231041" xlink:href="#m7810dc3b7d" y="627.909945"/>
     <use style="fill:#f98e52;stroke:#f98e52;" x="236.07304" xlink:href="#m7810dc3b7d" y="623.458543"/>
     <use style="fill:#f98e52;stroke:#f98e52;" x="239.915039" xlink:href="#m7810dc3b7d" y="618.73595"/>
     <use style="fill:#f98e52;stroke:#f98e52;" x="243.757038" xlink:href="#m7810dc3b7d" y="613.747628"/>
     <use style="fill:#f98e52;stroke:#f98e52;" x="247.599037" xlink:href="#m7810dc3b7d" y="608.500462"/>
     <use style="fill:#f98e52;stroke:#f98e52;" x="251.441036" xlink:href="#m7810dc3b7d" y="603.00276"/>
     <use style="fill:#f98e52;stroke:#f98e52;" x="255.283035" xlink:href="#m7810dc3b7d" y="597.264239"/>
     <use style="fill:#f98e52;stroke:#f98e52;" x="259.125034" xlink:href="#m7810dc3b7d" y="591.296011"/>
     <use style="fill:#f98e52;stroke:#f98e52;" x="262.967033" xlink:href="#m7810dc3b7d" y="585.110553"/>
     <use style="fill:#f98e52;stroke:#f98e52;" x="266.809032" xlink:href="#m7810dc3b7d" y="578.721677"/>
     <use style="fill:#f98e52;stroke:#f98e52;" x="270.651031" xlink:href="#m7810dc3b7d" y="572.144482"/>
     <use style="fill:#f98e52;stroke:#f98e52;" x="274.493031" xlink:href="#m7810dc3b7d" y="565.395309"/>
     <use style="fill:#f98e52;stroke:#f98e52;" x="278.33503" xlink:href="#m7810dc3b7d" y="558.491681"/>
     <use style="fill:#f98e52;stroke:#f98e52;" x="282.177029" xlink:href="#m7810dc3b7d" y="551.452239"/>
     <use style="fill:#f98e52;stroke:#f98e52;" x="286.019028" xlink:href="#m7810dc3b7d" y="544.296667"/>
     <use style="fill:#f98e52;stroke:#f98e52;" x="289.861027" xlink:href="#m7810dc3b7d" y="537.045617"/>
     <use style="fill:#f98e52;stroke:#f98e52;" x="293.703026" xlink:href="#m7810dc3b7d" y="529.72062"/>
     <use style="fill:#f98e52;stroke:#f98e52;" x="297.545025" xlink:href="#m7810dc3b7d" y="522.343999"/>
     <use style="fill:#f98e52;stroke:#f98e52;" x="301.387024" xlink:href="#m7810dc3b7d" y="514.938767"/>
     <use style="fill:#f98e52;stroke:#f98e52;" x="305.229023" xlink:href="#m7810dc3b7d" y="507.528529"/>
     <use style="fill:#f98e52;stroke:#f98e52;" x="309.071022" xlink:href="#m7810dc3b7d" y="500.137376"/>
     <use style="fill:#f98e52;stroke:#f98e52;" x="312.913021" xlink:href="#m7810dc3b7d" y="492.789772"/>
     <use style="fill:#f98e52;stroke:#f98e52;" x="316.75502" xlink:href="#m7810dc3b7d" y="485.510445"/>
     <use style="fill:#f98e52;stroke:#f98e52;" x="320.59702" xlink:href="#m7810dc3b7d" y="478.324267"/>
     <use style="fill:#f98e52;stroke:#f98e52;" x="324.439019" xlink:href="#m7810dc3b7d" y="471.256139"/>
     <use style="fill:#f98e52;stroke:#f98e52;" x="328.281018" xlink:href="#m7810dc3b7d" y="464.33087"/>
     <use style="fill:#f98e52;stroke:#f98e52;" x="332.123017" xlink:href="#m7810dc3b7d" y="457.573059"/>
     <use style="fill:#f98e52;stroke:#f98e52;" x="335.965016" xlink:href="#m7810dc3b7d" y="451.006975"/>
     <use style="fill:#f98e52;stroke:#f98e52;" x="339.807015" xlink:href="#m7810dc3b7d" y="444.656436"/>
     <use style="fill:#f98e52;stroke:#f98e52;" x="343.649014" xlink:href="#m7810dc3b7d" y="438.544693"/>
     <use style="fill:#f98e52;stroke:#f98e52;" x="347.491013" xlink:href="#m7810dc3b7d" y="432.694315"/>
     <use style="fill:#f98e52;stroke:#f98e52;" x="351.333012" xlink:href="#m7810dc3b7d" y="427.127072"/>
     <use style="fill:#f98e52;stroke:#f98e52;" x="355.175011" xlink:href="#m7810dc3b7d" y="421.863834"/>
     <use style="fill:#f98e52;stroke:#f98e52;" x="359.01701" xlink:href="#m7810dc3b7d" y="416.924456"/>
     <use style="fill:#f98e52;stroke:#f98e52;" x="362.85901" xlink:href="#m7810dc3b7d" y="412.327685"/>
     <use style="fill:#f98e52;stroke:#f98e52;" x="366.701009" xlink:href="#m7810dc3b7d" y="408.09106"/>
     <use style="fill:#f98e52;stroke:#f98e52;" x="370.543008" xlink:href="#m7810dc3b7d" y="404.230824"/>
     <use style="fill:#f98e52;stroke:#f98e52;" x="374.385007" xlink:href="#m7810dc3b7d" y="400.761841"/>
     <use style="fill:#f98e52;stroke:#f98e52;" x="378.227006" xlink:href="#m7810dc3b7d" y="397.697519"/>
     <use style="fill:#f98e52;stroke:#f98e52;" x="382.069005" xlink:href="#m7810dc3b7d" y="395.049741"/>
     <use style="fill:#f98e52;stroke:#f98e52;" x="385.911004" xlink:href="#m7810dc3b7d" y="392.828806"/>
     <use style="fill:#f98e52;stroke:#f98e52;" x="389.753003" xlink:href="#m7810dc3b7d" y="391.043373"/>
     <use style="fill:#f98e52;stroke:#f98e52;" x="393.595002" xlink:href="#m7810dc3b7d" y="389.700414"/>
     <use style="fill:#f98e52;stroke:#f98e52;" x="397.437001" xlink:href="#m7810dc3b7d" y="388.805185"/>
     <use style="fill:#f98e52;stroke:#f98e52;" x="401.279" xlink:href="#m7810dc3b7d" y="388.361192"/>
     <use style="fill:#f98e52;stroke:#f98e52;" x="405.121" xlink:href="#m7810dc3b7d" y="388.370177"/>
     <use style="fill:#f98e52;stroke:#f98e52;" x="408.962999" xlink:href="#m7810dc3b7d" y="388.832105"/>
     <use style="fill:#f98e52;stroke:#f98e52;" x="412.804998" xlink:href="#m7810dc3b7d" y="389.745168"/>
     <use style="fill:#f98e52;stroke:#f98e52;" x="416.646997" xlink:href="#m7810dc3b7d" y="391.105794"/>
     <use style="fill:#f98e52;stroke:#f98e52;" x="420.488996" xlink:href="#m7810dc3b7d" y="392.908662"/>
     <use style="fill:#f98e52;stroke:#f98e52;" x="424.330995" xlink:href="#m7810dc3b7d" y="395.146732"/>
     <use style="fill:#f98e52;stroke:#f98e52;" x="428.172994" xlink:href="#m7810dc3b7d" y="397.811284"/>
     <use style="fill:#f98e52;stroke:#f98e52;" x="432.014993" xlink:href="#m7810dc3b7d" y="400.891958"/>
     <use style="fill:#f98e52;stroke:#f98e52;" x="435.856992" xlink:href="#m7810dc3b7d" y="404.37681"/>
     <use style="fill:#f98e52;stroke:#f98e52;" x="439.698991" xlink:href="#m7810dc3b7d" y="408.252376"/>
     <use style="fill:#f98e52;stroke:#f98e52;" x="443.54099" xlink:href="#m7810dc3b7d" y="412.503736"/>
     <use style="fill:#f98e52;stroke:#f98e52;" x="447.38299" xlink:href="#m7810dc3b7d" y="417.114596"/>
     <use style="fill:#f98e52;stroke:#f98e52;" x="451.224989" xlink:href="#m7810dc3b7d" y="422.067368"/>
     <use style="fill:#f98e52;stroke:#f98e52;" x="455.066988" xlink:href="#m7810dc3b7d" y="427.343261"/>
     <use style="fill:#f98e52;stroke:#f98e52;" x="458.908987" xlink:href="#m7810dc3b7d" y="432.922376"/>
     <use style="fill:#f98e52;stroke:#f98e52;" x="462.750986" xlink:href="#m7810dc3b7d" y="438.783807"/>
     <use style="fill:#f98e52;stroke:#f98e52;" x="466.592985" xlink:href="#m7810dc3b7d" y="444.905749"/>
     <use style="fill:#f98e52;stroke:#f98e52;" x="470.434984" xlink:href="#m7810dc3b7d" y="451.265601"/>
     <use style="fill:#f98e52;stroke:#f98e52;" x="474.276983" xlink:href="#m7810dc3b7d" y="457.840089"/>
     <use style="fill:#f98e52;stroke:#f98e52;" x="478.118982" xlink:href="#m7810dc3b7d" y="464.60537"/>
     <use style="fill:#f98e52;stroke:#f98e52;" x="481.960981" xlink:href="#m7810dc3b7d" y="471.53716"/>
     <use style="fill:#f98e52;stroke:#f98e52;" x="485.80298" xlink:href="#m7810dc3b7d" y="478.610846"/>
     <use style="fill:#f98e52;stroke:#f98e52;" x="489.64498" xlink:href="#m7810dc3b7d" y="485.80161"/>
     <use style="fill:#f98e52;stroke:#f98e52;" x="493.486979" xlink:href="#m7810dc3b7d" y="493.084548"/>
     <use style="fill:#f98e52;stroke:#f98e52;" x="497.328978" xlink:href="#m7810dc3b7d" y="500.434787"/>
     <use style="fill:#f98e52;stroke:#f98e52;" x="501.170977" xlink:href="#m7810dc3b7d" y="507.827604"/>
     <use style="fill:#f98e52;stroke:#f98e52;" x="505.012976" xlink:href="#m7810dc3b7d" y="515.238544"/>
     <use style="fill:#f98e52;stroke:#f98e52;" x="508.854975" xlink:href="#m7810dc3b7d" y="522.64353"/>
     <use style="fill:#f98e52;stroke:#f98e52;" x="512.696974" xlink:href="#m7810dc3b7d" y="530.018973"/>
     <use style="fill:#f98e52;stroke:#f98e52;" x="516.538973" xlink:href="#m7810dc3b7d" y="537.341882"/>
     <use style="fill:#f98e52;stroke:#f98e52;" x="520.380972" xlink:href="#m7810dc3b7d" y="544.58996"/>
     <use style="fill:#f98e52;stroke:#f98e52;" x="524.222971" xlink:href="#m7810dc3b7d" y="551.741704"/>
     <use style="fill:#f98e52;stroke:#f98e52;" x="528.06497" xlink:href="#m7810dc3b7d" y="560.604223"/>
     <use style="fill:#f98e52;stroke:#f98e52;" x="531.906969" xlink:href="#m7810dc3b7d" y="567.368069"/>
     <use style="fill:#f98e52;stroke:#f98e52;" x="535.748969" xlink:href="#m7810dc3b7d" y="574.567449"/>
     <use style="fill:#f98e52;stroke:#f98e52;" x="539.590968" xlink:href="#m7810dc3b7d" y="580.963146"/>
     <use style="fill:#f98e52;stroke:#f98e52;" x="543.432967" xlink:href="#m7810dc3b7d" y="587.178969"/>
     <use style="fill:#f98e52;stroke:#f98e52;" x="547.274966" xlink:href="#m7810dc3b7d" y="593.202809"/>
     <use style="fill:#f98e52;stroke:#f98e52;" x="551.116965" xlink:href="#m7810dc3b7d" y="599.023361"/>
     <use style="fill:#f98e52;stroke:#f98e52;" x="554.958964" xlink:href="#m7810dc3b7d" y="604.630072"/>
     <use style="fill:#f98e52;stroke:#f98e52;" x="558.800963" xlink:href="#m7810dc3b7d" y="610.013103"/>
     <use style="fill:#f98e52;stroke:#f98e52;" x="562.642962" xlink:href="#m7810dc3b7d" y="615.163304"/>
     <use style="fill:#f98e52;stroke:#f98e52;" x="566.484961" xlink:href="#m7810dc3b7d" y="620.072212"/>
     <use style="fill:#f98e52;stroke:#f98e52;" x="570.32696" xlink:href="#m7810dc3b7d" y="624.732069"/>
     <use style="fill:#f98e52;stroke:#f98e52;" x="574.168959" xlink:href="#m7810dc3b7d" y="629.135858"/>
     <use style="fill:#f98e52;stroke:#f98e52;" x="578.010959" xlink:href="#m7810dc3b7d" y="633.277358"/>
     <use style="fill:#f98e52;stroke:#f98e52;" x="581.852958" xlink:href="#m7810dc3b7d" y="637.151223"/>
     <use style="fill:#f98e52;stroke:#f98e52;" x="585.694957" xlink:href="#m7810dc3b7d" y="640.753068"/>
     <use style="fill:#f98e52;stroke:#f98e52;" x="589.536956" xlink:href="#m7810dc3b7d" y="644.079569"/>
     <use style="fill:#f98e52;stroke:#f98e52;" x="593.378955" xlink:href="#m7810dc3b7d" y="647.12857"/>
     <use style="fill:#f98e52;stroke:#f98e52;" x="597.220954" xlink:href="#m7810dc3b7d" y="649.89919"/>
     <use style="fill:#f98e52;stroke:#f98e52;" x="601.062953" xlink:href="#m7810dc3b7d" y="652.391922"/>
     <use style="fill:#f98e52;stroke:#f98e52;" x="604.904952" xlink:href="#m7810dc3b7d" y="654.608728"/>
     <use style="fill:#f98e52;stroke:#f98e52;" x="608.746951" xlink:href="#m7810dc3b7d" y="656.553113"/>
     <use style="fill:#f98e52;stroke:#f98e52;" x="612.58895" xlink:href="#m7810dc3b7d" y="658.230181"/>
     <use style="fill:#f98e52;stroke:#f98e52;" x="616.430949" xlink:href="#m7810dc3b7d" y="659.646665"/>
     <use style="fill:#f98e52;stroke:#f98e52;" x="620.272949" xlink:href="#m7810dc3b7d" y="660.810926"/>
     <use style="fill:#f98e52;stroke:#f98e52;" x="624.114948" xlink:href="#m7810dc3b7d" y="661.732926"/>
     <use style="fill:#f98e52;stroke:#f98e52;" x="627.956947" xlink:href="#m7810dc3b7d" y="662.424164"/>
     <use style="fill:#f98e52;stroke:#f98e52;" x="631.798946" xlink:href="#m7810dc3b7d" y="662.897577"/>
     <use style="fill:#f98e52;stroke:#f98e52;" x="635.640945" xlink:href="#m7810dc3b7d" y="663.167416"/>
     <use style="fill:#f98e52;stroke:#f98e52;" x="639.482944" xlink:href="#m7810dc3b7d" y="663.249082"/>
     <use style="fill:#f98e52;stroke:#f98e52;" x="643.324943" xlink:href="#m7810dc3b7d" y="663.158943"/>
     <use style="fill:#f98e52;stroke:#f98e52;" x="647.166942" xlink:href="#m7810dc3b7d" y="662.914126"/>
    </g>
   </g>
   <g id="line2d_28">
    <path clip-path="url(#p775d49b5c1)" d="M 159.233058 662.993189 
L 163.075057 663.26281 
L 166.917056 662.939046 
L 170.759055 661.975294 
L 174.601054 660.342579 
L 178.443053 658.032576 
L 182.285052 655.060344 
L 186.127051 651.463282 
L 189.969051 647.307072 
L 193.81105 642.680201 
L 197.653049 637.692912 
L 209.179046 621.811831 
L 213.021045 616.768967 
L 216.863044 612.096822 
L 220.705043 607.949105 
L 224.547042 604.470411 
L 228.389041 601.790918 
L 232.231041 600.021245 
L 236.07304 599.24762 
L 239.915039 599.527532 
L 243.757038 600.886009 
L 247.599037 603.312664 
L 251.441036 606.759629 
L 255.283035 611.140478 
L 259.125034 616.330212 
L 262.967033 622.166351 
L 266.809032 628.451152 
L 274.493031 641.420467 
L 278.33503 647.568332 
L 282.177029 653.103159 
L 286.019028 657.720591 
L 289.861027 661.114824 
L 293.703026 662.986517 
L 297.545025 663.050898 
L 301.387024 661.045837 
L 305.229023 656.739674 
L 309.071022 649.938589 
L 312.913021 640.493301 
L 316.75502 628.304902 
L 320.59702 613.329643 
L 324.439019 595.582529 
L 328.281018 575.13958 
L 332.123017 552.138678 
L 335.965016 526.778934 
L 339.807015 499.318566 
L 343.649014 470.071282 
L 347.491013 439.401257 
L 355.175011 375.462694 
L 362.85901 311.155626 
L 366.701009 280.094007 
L 370.543008 250.425083 
L 374.385007 222.634555 
L 378.227006 197.185319 
L 382.069005 174.507436 
L 385.911004 154.988729 
L 389.753003 138.966247 
L 393.595002 126.718794 
L 397.437001 118.460732 
L 401.279 114.33719 
L 405.121 114.420817 
L 408.962999 118.710152 
L 412.804998 127.129661 
L 416.646997 139.531421 
L 420.488996 155.698437 
L 424.330995 175.349485 
L 428.172994 198.145362 
L 432.014993 223.696404 
L 435.856992 251.571059 
L 439.698991 281.305319 
L 447.38299 344.395015 
L 458.908987 440.646785 
L 462.750986 471.26864 
L 466.592985 500.452291 
L 470.434984 527.835415 
L 474.276983 553.106384 
L 478.118982 576.009241 
L 481.960981 596.347253 
L 485.80298 613.984979 
L 489.64498 628.848846 
L 493.486979 640.926244 
L 497.328978 650.263207 
L 501.170977 656.960773 
L 505.012976 661.170146 
L 508.854975 663.086831 
L 512.696974 662.943896 
L 516.538973 661.004579 
L 520.380972 657.55445 
L 524.222971 652.893319 
L 528.06497 647.382109 
L 535.748969 635.061941 
L 539.590968 628.703842 
L 543.432967 622.629494 
L 547.274966 617.071519 
L 551.116965 612.219991 
L 554.958964 608.218184 
L 558.800963 605.161789 
L 562.642962 603.101517 
L 566.484961 602.048493 
L 570.32696 601.981435 
L 574.168959 602.854382 
L 578.010959 604.603717 
L 581.852958 607.153494 
L 585.694957 610.418467 
L 589.536956 614.304802 
L 593.378955 618.708951 
L 597.220954 623.515659 
L 604.904952 633.808434 
L 612.58895 644.006022 
L 616.430949 648.672227 
L 620.272949 652.848934 
L 624.114948 656.409245 
L 627.956947 659.257025 
L 631.798946 661.334185 
L 635.640945 662.624488 
L 639.482944 663.153189 
L 643.324943 662.982516 
L 647.166942 662.203626 
L 647.166942 662.203626 
" style="fill:none;stroke:#ffffbe;stroke-linecap:square;stroke-width:2;"/>
    <defs>
     <path d="M 0 2.5 
C 0.663008 2.5 1.29895 2.236584 1.767767 1.767767 
C 2.236584 1.29895 2.5 0.663008 2.5 0 
C 2.5 -0.663008 2.236584 -1.29895 1.767767 -1.767767 
C 1.29895 -2.236584 0.663008 -2.5 0 -2.5 
C -0.663008 -2.5 -1.29895 -2.236584 -1.767767 -1.767767 
C -2.236584 -1.29895 -2.5 -0.663008 -2.5 0 
C -2.5 0.663008 -2.236584 1.29895 -1.767767 1.767767 
C -1.29895 2.236584 -0.663008 2.5 0 2.5 
z
" id="m53e6547956" style="stroke:#ffffbe;"/>
    </defs>
    <g clip-path="url(#p775d49b5c1)">
     <use style="fill:#ffffbe;stroke:#ffffbe;" x="159.233058" xlink:href="#m53e6547956" y="662.993189"/>
     <use style="fill:#ffffbe;stroke:#ffffbe;" x="163.075057" xlink:href="#m53e6547956" y="663.26281"/>
     <use style="fill:#ffffbe;stroke:#ffffbe;" x="166.917056" xlink:href="#m53e6547956" y="662.939046"/>
     <use style="fill:#ffffbe;stroke:#ffffbe;" x="170.759055" xlink:href="#m53e6547956" y="661.975294"/>
     <use style="fill:#ffffbe;stroke:#ffffbe;" x="174.601054" xlink:href="#m53e6547956" y="660.342579"/>
     <use style="fill:#ffffbe;stroke:#ffffbe;" x="178.443053" xlink:href="#m53e6547956" y="658.032576"/>
     <use style="fill:#ffffbe;stroke:#ffffbe;" x="182.285052" xlink:href="#m53e6547956" y="655.060344"/>
     <use style="fill:#ffffbe;stroke:#ffffbe;" x="186.127051" xlink:href="#m53e6547956" y="651.463282"/>
     <use style="fill:#ffffbe;stroke:#ffffbe;" x="189.969051" xlink:href="#m53e6547956" y="647.307072"/>
     <use style="fill:#ffffbe;stroke:#ffffbe;" x="193.81105" xlink:href="#m53e6547956" y="642.680201"/>
     <use style="fill:#ffffbe;stroke:#ffffbe;" x="197.653049" xlink:href="#m53e6547956" y="637.692912"/>
     <use style="fill:#ffffbe;stroke:#ffffbe;" x="201.495048" xlink:href="#m53e6547956" y="632.38091"/>
     <use style="fill:#ffffbe;stroke:#ffffbe;" x="205.337047" xlink:href="#m53e6547956" y="627.067883"/>
     <use style="fill:#ffffbe;stroke:#ffffbe;" x="209.179046" xlink:href="#m53e6547956" y="621.811831"/>
     <use style="fill:#ffffbe;stroke:#ffffbe;" x="213.021045" xlink:href="#m53e6547956" y="616.768967"/>
     <use style="fill:#ffffbe;stroke:#ffffbe;" x="216.863044" xlink:href="#m53e6547956" y="612.096822"/>
     <use style="fill:#ffffbe;stroke:#ffffbe;" x="220.705043" xlink:href="#m53e6547956" y="607.949105"/>
     <use style="fill:#ffffbe;stroke:#ffffbe;" x="224.547042" xlink:href="#m53e6547956" y="604.470411"/>
     <use style="fill:#ffffbe;stroke:#ffffbe;" x="228.389041" xlink:href="#m53e6547956" y="601.790918"/>
     <use style="fill:#ffffbe;stroke:#ffffbe;" x="232.231041" xlink:href="#m53e6547956" y="600.021245"/>
     <use style="fill:#ffffbe;stroke:#ffffbe;" x="236.07304" xlink:href="#m53e6547956" y="599.24762"/>
     <use style="fill:#ffffbe;stroke:#ffffbe;" x="239.915039" xlink:href="#m53e6547956" y="599.527532"/>
     <use style="fill:#ffffbe;stroke:#ffffbe;" x="243.757038" xlink:href="#m53e6547956" y="600.886009"/>
     <use style="fill:#ffffbe;stroke:#ffffbe;" x="247.599037" xlink:href="#m53e6547956" y="603.312664"/>
     <use style="fill:#ffffbe;stroke:#ffffbe;" x="251.441036" xlink:href="#m53e6547956" y="606.759629"/>
     <use style="fill:#ffffbe;stroke:#ffffbe;" x="255.283035" xlink:href="#m53e6547956" y="611.140478"/>
     <use style="fill:#ffffbe;stroke:#ffffbe;" x="259.125034" xlink:href="#m53e6547956" y="616.330212"/>
     <use style="fill:#ffffbe;stroke:#ffffbe;" x="262.967033" xlink:href="#m53e6547956" y="622.166351"/>
     <use style="fill:#ffffbe;stroke:#ffffbe;" x="266.809032" xlink:href="#m53e6547956" y="628.451152"/>
     <use style="fill:#ffffbe;stroke:#ffffbe;" x="270.651031" xlink:href="#m53e6547956" y="634.954934"/>
     <use style="fill:#ffffbe;stroke:#ffffbe;" x="274.493031" xlink:href="#m53e6547956" y="641.420467"/>
     <use style="fill:#ffffbe;stroke:#ffffbe;" x="278.33503" xlink:href="#m53e6547956" y="647.568332"/>
     <use style="fill:#ffffbe;stroke:#ffffbe;" x="282.177029" xlink:href="#m53e6547956" y="653.103159"/>
     <use style="fill:#ffffbe;stroke:#ffffbe;" x="286.019028" xlink:href="#m53e6547956" y="657.720591"/>
     <use style="fill:#ffffbe;stroke:#ffffbe;" x="289.861027" xlink:href="#m53e6547956" y="661.114824"/>
     <use style="fill:#ffffbe;stroke:#ffffbe;" x="293.703026" xlink:href="#m53e6547956" y="662.986517"/>
     <use style="fill:#ffffbe;stroke:#ffffbe;" x="297.545025" xlink:href="#m53e6547956" y="663.050898"/>
     <use style="fill:#ffffbe;stroke:#ffffbe;" x="301.387024" xlink:href="#m53e6547956" y="661.045837"/>
     <use style="fill:#ffffbe;stroke:#ffffbe;" x="305.229023" xlink:href="#m53e6547956" y="656.739674"/>
     <use style="fill:#ffffbe;stroke:#ffffbe;" x="309.071022" xlink:href="#m53e6547956" y="649.938589"/>
     <use style="fill:#ffffbe;stroke:#ffffbe;" x="312.913021" xlink:href="#m53e6547956" y="640.493301"/>
     <use style="fill:#ffffbe;stroke:#ffffbe;" x="316.75502" xlink:href="#m53e6547956" y="628.304902"/>
     <use style="fill:#ffffbe;stroke:#ffffbe;" x="320.59702" xlink:href="#m53e6547956" y="613.329643"/>
     <use style="fill:#ffffbe;stroke:#ffffbe;" x="324.439019" xlink:href="#m53e6547956" y="595.582529"/>
     <use style="fill:#ffffbe;stroke:#ffffbe;" x="328.281018" xlink:href="#m53e6547956" y="575.13958"/>
     <use style="fill:#ffffbe;stroke:#ffffbe;" x="332.123017" xlink:href="#m53e6547956" y="552.138678"/>
     <use style="fill:#ffffbe;stroke:#ffffbe;" x="335.965016" xlink:href="#m53e6547956" y="526.778934"/>
     <use style="fill:#ffffbe;stroke:#ffffbe;" x="339.807015" xlink:href="#m53e6547956" y="499.318566"/>
     <use style="fill:#ffffbe;stroke:#ffffbe;" x="343.649014" xlink:href="#m53e6547956" y="470.071282"/>
     <use style="fill:#ffffbe;stroke:#ffffbe;" x="347.491013" xlink:href="#m53e6547956" y="439.401257"/>
     <use style="fill:#ffffbe;stroke:#ffffbe;" x="351.333012" xlink:href="#m53e6547956" y="407.716778"/>
     <use style="fill:#ffffbe;stroke:#ffffbe;" x="355.175011" xlink:href="#m53e6547956" y="375.462694"/>
     <use style="fill:#ffffbe;stroke:#ffffbe;" x="359.01701" xlink:href="#m53e6547956" y="343.11184"/>
     <use style="fill:#ffffbe;stroke:#ffffbe;" x="362.85901" xlink:href="#m53e6547956" y="311.155626"/>
     <use style="fill:#ffffbe;stroke:#ffffbe;" x="366.701009" xlink:href="#m53e6547956" y="280.094007"/>
     <use style="fill:#ffffbe;stroke:#ffffbe;" x="370.543008" xlink:href="#m53e6547956" y="250.425083"/>
     <use style="fill:#ffffbe;stroke:#ffffbe;" x="374.385007" xlink:href="#m53e6547956" y="222.634555"/>
     <use style="fill:#ffffbe;stroke:#ffffbe;" x="378.227006" xlink:href="#m53e6547956" y="197.185319"/>
     <use style="fill:#ffffbe;stroke:#ffffbe;" x="382.069005" xlink:href="#m53e6547956" y="174.507436"/>
     <use style="fill:#ffffbe;stroke:#ffffbe;" x="385.911004" xlink:href="#m53e6547956" y="154.988729"/>
     <use style="fill:#ffffbe;stroke:#ffffbe;" x="389.753003" xlink:href="#m53e6547956" y="138.966247"/>
     <use style="fill:#ffffbe;stroke:#ffffbe;" x="393.595002" xlink:href="#m53e6547956" y="126.718794"/>
     <use style="fill:#ffffbe;stroke:#ffffbe;" x="397.437001" xlink:href="#m53e6547956" y="118.460732"/>
     <use style="fill:#ffffbe;stroke:#ffffbe;" x="401.279" xlink:href="#m53e6547956" y="114.33719"/>
     <use style="fill:#ffffbe;stroke:#ffffbe;" x="405.121" xlink:href="#m53e6547956" y="114.420817"/>
     <use style="fill:#ffffbe;stroke:#ffffbe;" x="408.962999" xlink:href="#m53e6547956" y="118.710152"/>
     <use style="fill:#ffffbe;stroke:#ffffbe;" x="412.804998" xlink:href="#m53e6547956" y="127.129661"/>
     <use style="fill:#ffffbe;stroke:#ffffbe;" x="416.646997" xlink:href="#m53e6547956" y="139.531421"/>
     <use style="fill:#ffffbe;stroke:#ffffbe;" x="420.488996" xlink:href="#m53e6547956" y="155.698437"/>
     <use style="fill:#ffffbe;stroke:#ffffbe;" x="424.330995" xlink:href="#m53e6547956" y="175.349485"/>
     <use style="fill:#ffffbe;stroke:#ffffbe;" x="428.172994" xlink:href="#m53e6547956" y="198.145362"/>
     <use style="fill:#ffffbe;stroke:#ffffbe;" x="432.014993" xlink:href="#m53e6547956" y="223.696404"/>
     <use style="fill:#ffffbe;stroke:#ffffbe;" x="435.856992" xlink:href="#m53e6547956" y="251.571059"/>
     <use style="fill:#ffffbe;stroke:#ffffbe;" x="439.698991" xlink:href="#m53e6547956" y="281.305319"/>
     <use style="fill:#ffffbe;stroke:#ffffbe;" x="443.54099" xlink:href="#m53e6547956" y="312.412771"/>
     <use style="fill:#ffffbe;stroke:#ffffbe;" x="447.38299" xlink:href="#m53e6547956" y="344.395015"/>
     <use style="fill:#ffffbe;stroke:#ffffbe;" x="451.224989" xlink:href="#m53e6547956" y="376.752205"/>
     <use style="fill:#ffffbe;stroke:#ffffbe;" x="455.066988" xlink:href="#m53e6547956" y="408.993441"/>
     <use style="fill:#ffffbe;stroke:#ffffbe;" x="458.908987" xlink:href="#m53e6547956" y="440.646785"/>
     <use style="fill:#ffffbe;stroke:#ffffbe;" x="462.750986" xlink:href="#m53e6547956" y="471.26864"/>
     <use style="fill:#ffffbe;stroke:#ffffbe;" x="466.592985" xlink:href="#m53e6547956" y="500.452291"/>
     <use style="fill:#ffffbe;stroke:#ffffbe;" x="470.434984" xlink:href="#m53e6547956" y="527.835415"/>
     <use style="fill:#ffffbe;stroke:#ffffbe;" x="474.276983" xlink:href="#m53e6547956" y="553.106384"/>
     <use style="fill:#ffffbe;stroke:#ffffbe;" x="478.118982" xlink:href="#m53e6547956" y="576.009241"/>
     <use style="fill:#ffffbe;stroke:#ffffbe;" x="481.960981" xlink:href="#m53e6547956" y="596.347253"/>
     <use style="fill:#ffffbe;stroke:#ffffbe;" x="485.80298" xlink:href="#m53e6547956" y="613.984979"/>
     <use style="fill:#ffffbe;stroke:#ffffbe;" x="489.64498" xlink:href="#m53e6547956" y="628.848846"/>
     <use style="fill:#ffffbe;stroke:#ffffbe;" x="493.486979" xlink:href="#m53e6547956" y="640.926244"/>
     <use style="fill:#ffffbe;stroke:#ffffbe;" x="497.328978" xlink:href="#m53e6547956" y="650.263207"/>
     <use style="fill:#ffffbe;stroke:#ffffbe;" x="501.170977" xlink:href="#m53e6547956" y="656.960773"/>
     <use style="fill:#ffffbe;stroke:#ffffbe;" x="505.012976" xlink:href="#m53e6547956" y="661.170146"/>
     <use style="fill:#ffffbe;stroke:#ffffbe;" x="508.854975" xlink:href="#m53e6547956" y="663.086831"/>
     <use style="fill:#ffffbe;stroke:#ffffbe;" x="512.696974" xlink:href="#m53e6547956" y="662.943896"/>
     <use style="fill:#ffffbe;stroke:#ffffbe;" x="516.538973" xlink:href="#m53e6547956" y="661.004579"/>
     <use style="fill:#ffffbe;stroke:#ffffbe;" x="520.380972" xlink:href="#m53e6547956" y="657.55445"/>
     <use style="fill:#ffffbe;stroke:#ffffbe;" x="524.222971" xlink:href="#m53e6547956" y="652.893319"/>
     <use style="fill:#ffffbe;stroke:#ffffbe;" x="528.06497" xlink:href="#m53e6547956" y="647.382109"/>
     <use style="fill:#ffffbe;stroke:#ffffbe;" x="531.906969" xlink:href="#m53e6547956" y="641.268568"/>
     <use style="fill:#ffffbe;stroke:#ffffbe;" x="535.748969" xlink:href="#m53e6547956" y="635.061941"/>
     <use style="fill:#ffffbe;stroke:#ffffbe;" x="539.590968" xlink:href="#m53e6547956" y="628.703842"/>
     <use style="fill:#ffffbe;stroke:#ffffbe;" x="543.432967" xlink:href="#m53e6547956" y="622.629494"/>
     <use style="fill:#ffffbe;stroke:#ffffbe;" x="547.274966" xlink:href="#m53e6547956" y="617.071519"/>
     <use style="fill:#ffffbe;stroke:#ffffbe;" x="551.116965" xlink:href="#m53e6547956" y="612.219991"/>
     <use style="fill:#ffffbe;stroke:#ffffbe;" x="554.958964" xlink:href="#m53e6547956" y="608.218184"/>
     <use style="fill:#ffffbe;stroke:#ffffbe;" x="558.800963" xlink:href="#m53e6547956" y="605.161789"/>
     <use style="fill:#ffffbe;stroke:#ffffbe;" x="562.642962" xlink:href="#m53e6547956" y="603.101517"/>
     <use style="fill:#ffffbe;stroke:#ffffbe;" x="566.484961" xlink:href="#m53e6547956" y="602.048493"/>
     <use style="fill:#ffffbe;stroke:#ffffbe;" x="570.32696" xlink:href="#m53e6547956" y="601.981435"/>
     <use style="fill:#ffffbe;stroke:#ffffbe;" x="574.168959" xlink:href="#m53e6547956" y="602.854382"/>
     <use style="fill:#ffffbe;stroke:#ffffbe;" x="578.010959" xlink:href="#m53e6547956" y="604.603717"/>
     <use style="fill:#ffffbe;stroke:#ffffbe;" x="581.852958" xlink:href="#m53e6547956" y="607.153494"/>
     <use style="fill:#ffffbe;stroke:#ffffbe;" x="585.694957" xlink:href="#m53e6547956" y="610.418467"/>
     <use style="fill:#ffffbe;stroke:#ffffbe;" x="589.536956" xlink:href="#m53e6547956" y="614.304802"/>
     <use style="fill:#ffffbe;stroke:#ffffbe;" x="593.378955" xlink:href="#m53e6547956" y="618.708951"/>
     <use style="fill:#ffffbe;stroke:#ffffbe;" x="597.220954" xlink:href="#m53e6547956" y="623.515659"/>
     <use style="fill:#ffffbe;stroke:#ffffbe;" x="601.062953" xlink:href="#m53e6547956" y="628.596255"/>
     <use style="fill:#ffffbe;stroke:#ffffbe;" x="604.904952" xlink:href="#m53e6547956" y="633.808434"/>
     <use style="fill:#ffffbe;stroke:#ffffbe;" x="608.746951" xlink:href="#m53e6547956" y="638.99843"/>
     <use style="fill:#ffffbe;stroke:#ffffbe;" x="612.58895" xlink:href="#m53e6547956" y="644.006022"/>
     <use style="fill:#ffffbe;stroke:#ffffbe;" x="616.430949" xlink:href="#m53e6547956" y="648.672227"/>
     <use style="fill:#ffffbe;stroke:#ffffbe;" x="620.272949" xlink:href="#m53e6547956" y="652.848934"/>
     <use style="fill:#ffffbe;stroke:#ffffbe;" x="624.114948" xlink:href="#m53e6547956" y="656.409245"/>
     <use style="fill:#ffffbe;stroke:#ffffbe;" x="627.956947" xlink:href="#m53e6547956" y="659.257025"/>
     <use style="fill:#ffffbe;stroke:#ffffbe;" x="631.798946" xlink:href="#m53e6547956" y="661.334185"/>
     <use style="fill:#ffffbe;stroke:#ffffbe;" x="635.640945" xlink:href="#m53e6547956" y="662.624488"/>
     <use style="fill:#ffffbe;stroke:#ffffbe;" x="639.482944" xlink:href="#m53e6547956" y="663.153189"/>
     <use style="fill:#ffffbe;stroke:#ffffbe;" x="643.324943" xlink:href="#m53e6547956" y="662.982516"/>
     <use style="fill:#ffffbe;stroke:#ffffbe;" x="647.166942" xlink:href="#m53e6547956" y="662.203626"/>
    </g>
   </g>
   <g id="line2d_29">
    <path clip-path="url(#p775d49b5c1)" d="M 159.233058 662.918485 
L 163.075057 663.210332 
L 166.917056 662.126266 
L 170.759055 659.627759 
L 174.601054 655.795598 
L 178.443053 650.821845 
L 182.285052 645.000387 
L 193.81105 626.194157 
L 197.653049 620.908181 
L 201.495048 616.587345 
L 205.337047 614.068761 
L 209.179046 613.351353 
L 213.021045 614.544885 
L 216.863044 617.615518 
L 220.705043 622.379442 
L 224.547042 628.507313 
L 228.389041 635.539717 
L 232.231041 642.913075 
L 236.07304 649.994616 
L 239.915039 656.124327 
L 243.757038 660.661176 
L 247.599037 663.030505 
L 251.441036 662.76923 
L 255.283035 659.565535 
L 259.125034 653.289972 
L 262.967033 644.015356 
L 266.809032 632.023553 
L 270.651031 617.798069 
L 274.493031 602.002314 
L 282.177029 569.030391 
L 286.019028 553.708466 
L 289.861027 540.407827 
L 293.703026 529.975891 
L 297.545025 523.118168 
L 301.387024 520.344916 
L 305.229023 521.928415 
L 309.071022 527.8741 
L 312.913021 537.908005 
L 316.75502 551.4819 
L 320.59702 567.796435 
L 324.439019 585.841346 
L 328.281018 604.450691 
L 332.123017 622.369975 
L 335.965016 638.331202 
L 339.807015 651.131244 
L 343.649014 659.708602 
L 347.491013 663.213601 
L 351.333012 661.067404 
L 355.175011 653.005822 
L 359.01701 639.104821 
L 362.85901 619.785731 
L 366.701009 595.799426 
L 370.543008 568.190084 
L 374.385007 538.240436 
L 382.069005 477.211833 
L 385.911004 449.208482 
L 389.753003 424.839501 
L 393.595002 405.378976 
L 397.437001 391.852467 
L 401.279 384.976627 
L 405.121 385.116874 
L 408.962999 392.265771 
L 412.804998 406.043466 
L 416.646997 425.720154 
L 420.488996 450.259178 
L 424.330995 478.378049 
L 435.856992 569.340683 
L 439.698991 596.829725 
L 443.54099 620.649156 
L 447.38299 639.76543 
L 451.224989 653.440131 
L 455.066988 661.265443 
L 458.908987 663.179143 
L 462.750986 659.458571 
L 466.592985 650.694345 
L 470.434984 637.745883 
L 474.276983 621.681852 
L 478.118982 603.709607 
L 481.960981 585.098259 
L 485.80298 567.100328 
L 489.64498 550.876909 
L 493.486979 537.430925 
L 497.328978 527.552434 
L 501.170977 521.779052 
L 505.012976 520.373522 
L 508.854975 523.319291 
L 512.696974 530.33376 
L 516.538973 540.897768 
L 520.380972 554.298824 
L 524.222971 569.684825 
L 528.06497 588.137314 
L 531.906969 604.34936 
L 535.748969 620.070213 
L 539.590968 633.743832 
L 543.432967 645.181077 
L 547.274966 653.976076 
L 551.116965 659.89067 
L 554.958964 662.855928 
L 558.800963 662.97898 
L 562.642962 660.547802 
L 566.484961 656.021747 
L 570.32696 649.997773 
L 581.852958 629.633033 
L 585.694957 624.058384 
L 589.536956 619.78472 
L 593.378955 617.034241 
L 597.220954 615.931853 
L 601.062953 616.530592 
L 604.904952 618.816473 
L 608.746951 622.688446 
L 612.58895 627.924565 
L 616.430949 634.156623 
L 624.114948 647.486524 
L 627.956947 653.389009 
L 631.798946 658.089797 
L 635.640945 661.283961 
L 639.482944 662.893541 
L 643.324943 663.04496 
L 647.166942 661.996281 
L 647.166942 661.996281 
" style="fill:none;stroke:#86cfa5;stroke-linecap:square;stroke-width:2;"/>
    <defs>
     <path d="M 0 2.5 
C 0.663008 2.5 1.29895 2.236584 1.767767 1.767767 
C 2.236584 1.29895 2.5 0.663008 2.5 0 
C 2.5 -0.663008 2.236584 -1.29895 1.767767 -1.767767 
C 1.29895 -2.236584 0.663008 -2.5 0 -2.5 
C -0.663008 -2.5 -1.29895 -2.236584 -1.767767 -1.767767 
C -2.236584 -1.29895 -2.5 -0.663008 -2.5 0 
C -2.5 0.663008 -2.236584 1.29895 -1.767767 1.767767 
C -1.29895 2.236584 -0.663008 2.5 0 2.5 
z
" id="mcac943ea18" style="stroke:#86cfa5;"/>
    </defs>
    <g clip-path="url(#p775d49b5c1)">
     <use style="fill:#86cfa5;stroke:#86cfa5;" x="159.233058" xlink:href="#mcac943ea18" y="662.918485"/>
     <use style="fill:#86cfa5;stroke:#86cfa5;" x="163.075057" xlink:href="#mcac943ea18" y="663.210332"/>
     <use style="fill:#86cfa5;stroke:#86cfa5;" x="166.917056" xlink:href="#mcac943ea18" y="662.126266"/>
     <use style="fill:#86cfa5;stroke:#86cfa5;" x="170.759055" xlink:href="#mcac943ea18" y="659.627759"/>
     <use style="fill:#86cfa5;stroke:#86cfa5;" x="174.601054" xlink:href="#mcac943ea18" y="655.795598"/>
     <use style="fill:#86cfa5;stroke:#86cfa5;" x="178.443053" xlink:href="#mcac943ea18" y="650.821845"/>
     <use style="fill:#86cfa5;stroke:#86cfa5;" x="182.285052" xlink:href="#mcac943ea18" y="645.000387"/>
     <use style="fill:#86cfa5;stroke:#86cfa5;" x="186.127051" xlink:href="#mcac943ea18" y="638.677606"/>
     <use style="fill:#86cfa5;stroke:#86cfa5;" x="189.969051" xlink:href="#mcac943ea18" y="632.263577"/>
     <use style="fill:#86cfa5;stroke:#86cfa5;" x="193.81105" xlink:href="#mcac943ea18" y="626.194157"/>
     <use style="fill:#86cfa5;stroke:#86cfa5;" x="197.653049" xlink:href="#mcac943ea18" y="620.908181"/>
     <use style="fill:#86cfa5;stroke:#86cfa5;" x="201.495048" xlink:href="#mcac943ea18" y="616.587345"/>
     <use style="fill:#86cfa5;stroke:#86cfa5;" x="205.337047" xlink:href="#mcac943ea18" y="614.068761"/>
     <use style="fill:#86cfa5;stroke:#86cfa5;" x="209.179046" xlink:href="#mcac943ea18" y="613.351353"/>
     <use style="fill:#86cfa5;stroke:#86cfa5;" x="213.021045" xlink:href="#mcac943ea18" y="614.544885"/>
     <use style="fill:#86cfa5;stroke:#86cfa5;" x="216.863044" xlink:href="#mcac943ea18" y="617.615518"/>
     <use style="fill:#86cfa5;stroke:#86cfa5;" x="220.705043" xlink:href="#mcac943ea18" y="622.379442"/>
     <use style="fill:#86cfa5;stroke:#86cfa5;" x="224.547042" xlink:href="#mcac943ea18" y="628.507313"/>
     <use style="fill:#86cfa5;stroke:#86cfa5;" x="228.389041" xlink:href="#mcac943ea18" y="635.539717"/>
     <use style="fill:#86cfa5;stroke:#86cfa5;" x="232.231041" xlink:href="#mcac943ea18" y="642.913075"/>
     <use style="fill:#86cfa5;stroke:#86cfa5;" x="236.07304" xlink:href="#mcac943ea18" y="649.994616"/>
     <use style="fill:#86cfa5;stroke:#86cfa5;" x="239.915039" xlink:href="#mcac943ea18" y="656.124327"/>
     <use style="fill:#86cfa5;stroke:#86cfa5;" x="243.757038" xlink:href="#mcac943ea18" y="660.661176"/>
     <use style="fill:#86cfa5;stroke:#86cfa5;" x="247.599037" xlink:href="#mcac943ea18" y="663.030505"/>
     <use style="fill:#86cfa5;stroke:#86cfa5;" x="251.441036" xlink:href="#mcac943ea18" y="662.76923"/>
     <use style="fill:#86cfa5;stroke:#86cfa5;" x="255.283035" xlink:href="#mcac943ea18" y="659.565535"/>
     <use style="fill:#86cfa5;stroke:#86cfa5;" x="259.125034" xlink:href="#mcac943ea18" y="653.289972"/>
     <use style="fill:#86cfa5;stroke:#86cfa5;" x="262.967033" xlink:href="#mcac943ea18" y="644.015356"/>
     <use style="fill:#86cfa5;stroke:#86cfa5;" x="266.809032" xlink:href="#mcac943ea18" y="632.023553"/>
     <use style="fill:#86cfa5;stroke:#86cfa5;" x="270.651031" xlink:href="#mcac943ea18" y="617.798069"/>
     <use style="fill:#86cfa5;stroke:#86cfa5;" x="274.493031" xlink:href="#mcac943ea18" y="602.002314"/>
     <use style="fill:#86cfa5;stroke:#86cfa5;" x="278.33503" xlink:href="#mcac943ea18" y="585.444411"/>
     <use style="fill:#86cfa5;stroke:#86cfa5;" x="282.177029" xlink:href="#mcac943ea18" y="569.030391"/>
     <use style="fill:#86cfa5;stroke:#86cfa5;" x="286.019028" xlink:href="#mcac943ea18" y="553.708466"/>
     <use style="fill:#86cfa5;stroke:#86cfa5;" x="289.861027" xlink:href="#mcac943ea18" y="540.407827"/>
     <use style="fill:#86cfa5;stroke:#86cfa5;" x="293.703026" xlink:href="#mcac943ea18" y="529.975891"/>
     <use style="fill:#86cfa5;stroke:#86cfa5;" x="297.545025" xlink:href="#mcac943ea18" y="523.118168"/>
     <use style="fill:#86cfa5;stroke:#86cfa5;" x="301.387024" xlink:href="#mcac943ea18" y="520.344916"/>
     <use style="fill:#86cfa5;stroke:#86cfa5;" x="305.229023" xlink:href="#mcac943ea18" y="521.928415"/>
     <use style="fill:#86cfa5;stroke:#86cfa5;" x="309.071022" xlink:href="#mcac943ea18" y="527.8741"/>
     <use style="fill:#86cfa5;stroke:#86cfa5;" x="312.913021" xlink:href="#mcac943ea18" y="537.908005"/>
     <use style="fill:#86cfa5;stroke:#86cfa5;" x="316.75502" xlink:href="#mcac943ea18" y="551.4819"/>
     <use style="fill:#86cfa5;stroke:#86cfa5;" x="320.59702" xlink:href="#mcac943ea18" y="567.796435"/>
     <use style="fill:#86cfa5;stroke:#86cfa5;" x="324.439019" xlink:href="#mcac943ea18" y="585.841346"/>
     <use style="fill:#86cfa5;stroke:#86cfa5;" x="328.281018" xlink:href="#mcac943ea18" y="604.450691"/>
     <use style="fill:#86cfa5;stroke:#86cfa5;" x="332.123017" xlink:href="#mcac943ea18" y="622.369975"/>
     <use style="fill:#86cfa5;stroke:#86cfa5;" x="335.965016" xlink:href="#mcac943ea18" y="638.331202"/>
     <use style="fill:#86cfa5;stroke:#86cfa5;" x="339.807015" xlink:href="#mcac943ea18" y="651.131244"/>
     <use style="fill:#86cfa5;stroke:#86cfa5;" x="343.649014" xlink:href="#mcac943ea18" y="659.708602"/>
     <use style="fill:#86cfa5;stroke:#86cfa5;" x="347.491013" xlink:href="#mcac943ea18" y="663.213601"/>
     <use style="fill:#86cfa5;stroke:#86cfa5;" x="351.333012" xlink:href="#mcac943ea18" y="661.067404"/>
     <use style="fill:#86cfa5;stroke:#86cfa5;" x="355.175011" xlink:href="#mcac943ea18" y="653.005822"/>
     <use style="fill:#86cfa5;stroke:#86cfa5;" x="359.01701" xlink:href="#mcac943ea18" y="639.104821"/>
     <use style="fill:#86cfa5;stroke:#86cfa5;" x="362.85901" xlink:href="#mcac943ea18" y="619.785731"/>
     <use style="fill:#86cfa5;stroke:#86cfa5;" x="366.701009" xlink:href="#mcac943ea18" y="595.799426"/>
     <use style="fill:#86cfa5;stroke:#86cfa5;" x="370.543008" xlink:href="#mcac943ea18" y="568.190084"/>
     <use style="fill:#86cfa5;stroke:#86cfa5;" x="374.385007" xlink:href="#mcac943ea18" y="538.240436"/>
     <use style="fill:#86cfa5;stroke:#86cfa5;" x="378.227006" xlink:href="#mcac943ea18" y="507.40163"/>
     <use style="fill:#86cfa5;stroke:#86cfa5;" x="382.069005" xlink:href="#mcac943ea18" y="477.211833"/>
     <use style="fill:#86cfa5;stroke:#86cfa5;" x="385.911004" xlink:href="#mcac943ea18" y="449.208482"/>
     <use style="fill:#86cfa5;stroke:#86cfa5;" x="389.753003" xlink:href="#mcac943ea18" y="424.839501"/>
     <use style="fill:#86cfa5;stroke:#86cfa5;" x="393.595002" xlink:href="#mcac943ea18" y="405.378976"/>
     <use style="fill:#86cfa5;stroke:#86cfa5;" x="397.437001" xlink:href="#mcac943ea18" y="391.852467"/>
     <use style="fill:#86cfa5;stroke:#86cfa5;" x="401.279" xlink:href="#mcac943ea18" y="384.976627"/>
     <use style="fill:#86cfa5;stroke:#86cfa5;" x="405.121" xlink:href="#mcac943ea18" y="385.116874"/>
     <use style="fill:#86cfa5;stroke:#86cfa5;" x="408.962999" xlink:href="#mcac943ea18" y="392.265771"/>
     <use style="fill:#86cfa5;stroke:#86cfa5;" x="412.804998" xlink:href="#mcac943ea18" y="406.043466"/>
     <use style="fill:#86cfa5;stroke:#86cfa5;" x="416.646997" xlink:href="#mcac943ea18" y="425.720154"/>
     <use style="fill:#86cfa5;stroke:#86cfa5;" x="420.488996" xlink:href="#mcac943ea18" y="450.259178"/>
     <use style="fill:#86cfa5;stroke:#86cfa5;" x="424.330995" xlink:href="#mcac943ea18" y="478.378049"/>
     <use style="fill:#86cfa5;stroke:#86cfa5;" x="428.172994" xlink:href="#mcac943ea18" y="508.623607"/>
     <use style="fill:#86cfa5;stroke:#86cfa5;" x="432.014993" xlink:href="#mcac943ea18" y="539.45663"/>
     <use style="fill:#86cfa5;stroke:#86cfa5;" x="435.856992" xlink:href="#mcac943ea18" y="569.340683"/>
     <use style="fill:#86cfa5;stroke:#86cfa5;" x="439.698991" xlink:href="#mcac943ea18" y="596.829725"/>
     <use style="fill:#86cfa5;stroke:#86cfa5;" x="443.54099" xlink:href="#mcac943ea18" y="620.649156"/>
     <use style="fill:#86cfa5;stroke:#86cfa5;" x="447.38299" xlink:href="#mcac943ea18" y="639.76543"/>
     <use style="fill:#86cfa5;stroke:#86cfa5;" x="451.224989" xlink:href="#mcac943ea18" y="653.440131"/>
     <use style="fill:#86cfa5;stroke:#86cfa5;" x="455.066988" xlink:href="#mcac943ea18" y="661.265443"/>
     <use style="fill:#86cfa5;stroke:#86cfa5;" x="458.908987" xlink:href="#mcac943ea18" y="663.179143"/>
     <use style="fill:#86cfa5;stroke:#86cfa5;" x="462.750986" xlink:href="#mcac943ea18" y="659.458571"/>
     <use style="fill:#86cfa5;stroke:#86cfa5;" x="466.592985" xlink:href="#mcac943ea18" y="650.694345"/>
     <use style="fill:#86cfa5;stroke:#86cfa5;" x="470.434984" xlink:href="#mcac943ea18" y="637.745883"/>
     <use style="fill:#86cfa5;stroke:#86cfa5;" x="474.276983" xlink:href="#mcac943ea18" y="621.681852"/>
     <use style="fill:#86cfa5;stroke:#86cfa5;" x="478.118982" xlink:href="#mcac943ea18" y="603.709607"/>
     <use style="fill:#86cfa5;stroke:#86cfa5;" x="481.960981" xlink:href="#mcac943ea18" y="585.098259"/>
     <use style="fill:#86cfa5;stroke:#86cfa5;" x="485.80298" xlink:href="#mcac943ea18" y="567.100328"/>
     <use style="fill:#86cfa5;stroke:#86cfa5;" x="489.64498" xlink:href="#mcac943ea18" y="550.876909"/>
     <use style="fill:#86cfa5;stroke:#86cfa5;" x="493.486979" xlink:href="#mcac943ea18" y="537.430925"/>
     <use style="fill:#86cfa5;stroke:#86cfa5;" x="497.328978" xlink:href="#mcac943ea18" y="527.552434"/>
     <use style="fill:#86cfa5;stroke:#86cfa5;" x="501.170977" xlink:href="#mcac943ea18" y="521.779052"/>
     <use style="fill:#86cfa5;stroke:#86cfa5;" x="505.012976" xlink:href="#mcac943ea18" y="520.373522"/>
     <use style="fill:#86cfa5;stroke:#86cfa5;" x="508.854975" xlink:href="#mcac943ea18" y="523.319291"/>
     <use style="fill:#86cfa5;stroke:#86cfa5;" x="512.696974" xlink:href="#mcac943ea18" y="530.33376"/>
     <use style="fill:#86cfa5;stroke:#86cfa5;" x="516.538973" xlink:href="#mcac943ea18" y="540.897768"/>
     <use style="fill:#86cfa5;stroke:#86cfa5;" x="520.380972" xlink:href="#mcac943ea18" y="554.298824"/>
     <use style="fill:#86cfa5;stroke:#86cfa5;" x="524.222971" xlink:href="#mcac943ea18" y="569.684825"/>
     <use style="fill:#86cfa5;stroke:#86cfa5;" x="528.06497" xlink:href="#mcac943ea18" y="588.137314"/>
     <use style="fill:#86cfa5;stroke:#86cfa5;" x="531.906969" xlink:href="#mcac943ea18" y="604.34936"/>
     <use style="fill:#86cfa5;stroke:#86cfa5;" x="535.748969" xlink:href="#mcac943ea18" y="620.070213"/>
     <use style="fill:#86cfa5;stroke:#86cfa5;" x="539.590968" xlink:href="#mcac943ea18" y="633.743832"/>
     <use style="fill:#86cfa5;stroke:#86cfa5;" x="543.432967" xlink:href="#mcac943ea18" y="645.181077"/>
     <use style="fill:#86cfa5;stroke:#86cfa5;" x="547.274966" xlink:href="#mcac943ea18" y="653.976076"/>
     <use style="fill:#86cfa5;stroke:#86cfa5;" x="551.116965" xlink:href="#mcac943ea18" y="659.89067"/>
     <use style="fill:#86cfa5;stroke:#86cfa5;" x="554.958964" xlink:href="#mcac943ea18" y="662.855928"/>
     <use style="fill:#86cfa5;stroke:#86cfa5;" x="558.800963" xlink:href="#mcac943ea18" y="662.97898"/>
     <use style="fill:#86cfa5;stroke:#86cfa5;" x="562.642962" xlink:href="#mcac943ea18" y="660.547802"/>
     <use style="fill:#86cfa5;stroke:#86cfa5;" x="566.484961" xlink:href="#mcac943ea18" y="656.021747"/>
     <use style="fill:#86cfa5;stroke:#86cfa5;" x="570.32696" xlink:href="#mcac943ea18" y="649.997773"/>
     <use style="fill:#86cfa5;stroke:#86cfa5;" x="574.168959" xlink:href="#mcac943ea18" y="643.151065"/>
     <use style="fill:#86cfa5;stroke:#86cfa5;" x="578.010959" xlink:href="#mcac943ea18" y="636.159909"/>
     <use style="fill:#86cfa5;stroke:#86cfa5;" x="581.852958" xlink:href="#mcac943ea18" y="629.633033"/>
     <use style="fill:#86cfa5;stroke:#86cfa5;" x="585.694957" xlink:href="#mcac943ea18" y="624.058384"/>
     <use style="fill:#86cfa5;stroke:#86cfa5;" x="589.536956" xlink:href="#mcac943ea18" y="619.78472"/>
     <use style="fill:#86cfa5;stroke:#86cfa5;" x="593.378955" xlink:href="#mcac943ea18" y="617.034241"/>
     <use style="fill:#86cfa5;stroke:#86cfa5;" x="597.220954" xlink:href="#mcac943ea18" y="615.931853"/>
     <use style="fill:#86cfa5;stroke:#86cfa5;" x="601.062953" xlink:href="#mcac943ea18" y="616.530592"/>
     <use style="fill:#86cfa5;stroke:#86cfa5;" x="604.904952" xlink:href="#mcac943ea18" y="618.816473"/>
     <use style="fill:#86cfa5;stroke:#86cfa5;" x="608.746951" xlink:href="#mcac943ea18" y="622.688446"/>
     <use style="fill:#86cfa5;stroke:#86cfa5;" x="612.58895" xlink:href="#mcac943ea18" y="627.924565"/>
     <use style="fill:#86cfa5;stroke:#86cfa5;" x="616.430949" xlink:href="#mcac943ea18" y="634.156623"/>
     <use style="fill:#86cfa5;stroke:#86cfa5;" x="620.272949" xlink:href="#mcac943ea18" y="640.876459"/>
     <use style="fill:#86cfa5;stroke:#86cfa5;" x="624.114948" xlink:href="#mcac943ea18" y="647.486524"/>
     <use style="fill:#86cfa5;stroke:#86cfa5;" x="627.956947" xlink:href="#mcac943ea18" y="653.389009"/>
     <use style="fill:#86cfa5;stroke:#86cfa5;" x="631.798946" xlink:href="#mcac943ea18" y="658.089797"/>
     <use style="fill:#86cfa5;stroke:#86cfa5;" x="635.640945" xlink:href="#mcac943ea18" y="661.283961"/>
     <use style="fill:#86cfa5;stroke:#86cfa5;" x="639.482944" xlink:href="#mcac943ea18" y="662.893541"/>
     <use style="fill:#86cfa5;stroke:#86cfa5;" x="643.324943" xlink:href="#mcac943ea18" y="663.04496"/>
     <use style="fill:#86cfa5;stroke:#86cfa5;" x="647.166942" xlink:href="#mcac943ea18" y="661.996281"/>
    </g>
   </g>
   <g id="line2d_30">
    <path clip-path="url(#p775d49b5c1)" d="M 159.233058 662.580221 
L 163.075057 663.199669 
L 166.917056 661.442928 
L 170.759055 657.345564 
L 174.601054 651.241974 
L 178.443053 643.765138 
L 182.285052 635.786554 
L 186.127051 628.389571 
L 189.969051 622.57196 
L 193.81105 619.158207 
L 197.653049 618.658091 
L 201.495048 620.951 
L 205.337047 626.306121 
L 209.179046 633.804342 
L 216.863044 650.911263 
L 220.705043 657.948275 
L 224.547042 662.315612 
L 228.389041 663.068752 
L 232.231041 659.680319 
L 236.07304 652.136068 
L 239.915039 640.968274 
L 243.757038 627.218941 
L 247.599037 612.334056 
L 251.441036 597.999198 
L 255.283035 585.934831 
L 259.125034 577.675641 
L 262.967033 574.361337 
L 266.809032 576.566031 
L 270.651031 584.189481 
L 274.493031 596.426615 
L 278.33503 611.822501 
L 282.177029 628.409557 
L 286.019028 643.91344 
L 289.861027 656.005163 
L 293.703026 662.570605 
L 297.545025 661.965675 
L 301.387024 653.226281 
L 305.229023 636.207061 
L 309.071022 611.63085 
L 312.913021 581.04128 
L 316.75502 546.662403 
L 320.59702 511.180373 
L 324.439019 477.471687 
L 328.281018 448.308976 
L 332.123017 426.078142 
L 335.965016 412.539285 
L 339.807015 408.658574 
L 343.649014 414.529575 
L 347.491013 429.391705 
L 351.333012 451.741719 
L 355.175011 479.522971 
L 366.701009 571.808297 
L 370.543008 598.423729 
L 374.385007 620.508113 
L 378.227006 637.502746 
L 382.069005 649.47423 
L 385.911004 657.01598 
L 389.753003 661.085935 
L 393.595002 662.805064 
L 397.437001 663.246043 
L 408.962999 663.241437 
L 412.804998 662.767766 
L 416.646997 660.976809 
L 420.488996 656.790078 
L 424.330995 649.088957 
L 428.172994 636.926243 
L 432.014993 619.726627 
L 435.856992 597.446911 
L 439.698991 570.671575 
L 443.54099 540.627552 
L 451.224989 478.341874 
L 455.066988 450.732104 
L 458.908987 428.643492 
L 462.750986 414.115241 
L 466.592985 408.624347 
L 470.434984 412.898978 
L 474.276983 426.810442 
L 478.118982 449.358592 
L 481.960981 478.754301 
L 485.80298 512.590879 
L 489.64498 548.08551 
L 493.486979 582.363287 
L 497.328978 612.751232 
L 501.170977 637.048555 
L 505.012976 653.742319 
L 508.854975 662.144338 
L 512.696974 662.434694 
L 516.538973 655.608433 
L 520.380972 643.333512 
L 531.906969 596.925281 
L 535.748969 585.784368 
L 539.590968 578.555339 
L 543.432967 576.667299 
L 547.274966 580.249056 
L 551.116965 588.685201 
L 554.958964 600.742379 
L 562.642962 629.223077 
L 566.484961 642.387214 
L 570.32696 652.998698 
L 574.168959 660.089348 
L 578.010959 663.137739 
L 581.852958 662.174528 
L 585.694957 657.812944 
L 589.536956 651.125415 
L 597.220954 635.712899 
L 601.062953 629.023226 
L 604.904952 623.94653 
L 608.746951 621.036341 
L 612.58895 620.835173 
L 616.430949 623.735926 
L 620.272949 629.668015 
L 624.114948 637.832682 
L 627.956947 646.742862 
L 631.798946 654.650546 
L 635.640945 660.176055 
L 639.482944 662.785057 
L 643.324943 662.828982 
L 647.166942 661.140821 
L 647.166942 661.140821 
" style="fill:none;stroke:#5e4fa2;stroke-linecap:square;stroke-width:2;"/>
    <defs>
     <path d="M 0 2.5 
C 0.663008 2.5 1.29895 2.236584 1.767767 1.767767 
C 2.236584 1.29895 2.5 0.663008 2.5 0 
C 2.5 -0.663008 2.236584 -1.29895 1.767767 -1.767767 
C 1.29895 -2.236584 0.663008 -2.5 0 -2.5 
C -0.663008 -2.5 -1.29895 -2.236584 -1.767767 -1.767767 
C -2.236584 -1.29895 -2.5 -0.663008 -2.5 0 
C -2.5 0.663008 -2.236584 1.29895 -1.767767 1.767767 
C -1.29895 2.236584 -0.663008 2.5 0 2.5 
z
" id="mbcad657f80" style="stroke:#5e4fa2;"/>
    </defs>
    <g clip-path="url(#p775d49b5c1)">
     <use style="fill:#5e4fa2;stroke:#5e4fa2;" x="159.233058" xlink:href="#mbcad657f80" y="662.580221"/>
     <use style="fill:#5e4fa2;stroke:#5e4fa2;" x="163.075057" xlink:href="#mbcad657f80" y="663.199669"/>
     <use style="fill:#5e4fa2;stroke:#5e4fa2;" x="166.917056" xlink:href="#mbcad657f80" y="661.442928"/>
     <use style="fill:#5e4fa2;stroke:#5e4fa2;" x="170.759055" xlink:href="#mbcad657f80" y="657.345564"/>
     <use style="fill:#5e4fa2;stroke:#5e4fa2;" x="174.601054" xlink:href="#mbcad657f80" y="651.241974"/>
     <use style="fill:#5e4fa2;stroke:#5e4fa2;" x="178.443053" xlink:href="#mbcad657f80" y="643.765138"/>
     <use style="fill:#5e4fa2;stroke:#5e4fa2;" x="182.285052" xlink:href="#mbcad657f80" y="635.786554"/>
     <use style="fill:#5e4fa2;stroke:#5e4fa2;" x="186.127051" xlink:href="#mbcad657f80" y="628.389571"/>
     <use style="fill:#5e4fa2;stroke:#5e4fa2;" x="189.969051" xlink:href="#mbcad657f80" y="622.57196"/>
     <use style="fill:#5e4fa2;stroke:#5e4fa2;" x="193.81105" xlink:href="#mbcad657f80" y="619.158207"/>
     <use style="fill:#5e4fa2;stroke:#5e4fa2;" x="197.653049" xlink:href="#mbcad657f80" y="618.658091"/>
     <use style="fill:#5e4fa2;stroke:#5e4fa2;" x="201.495048" xlink:href="#mbcad657f80" y="620.951"/>
     <use style="fill:#5e4fa2;stroke:#5e4fa2;" x="205.337047" xlink:href="#mbcad657f80" y="626.306121"/>
     <use style="fill:#5e4fa2;stroke:#5e4fa2;" x="209.179046" xlink:href="#mbcad657f80" y="633.804342"/>
     <use style="fill:#5e4fa2;stroke:#5e4fa2;" x="213.021045" xlink:href="#mbcad657f80" y="642.422796"/>
     <use style="fill:#5e4fa2;stroke:#5e4fa2;" x="216.863044" xlink:href="#mbcad657f80" y="650.911263"/>
     <use style="fill:#5e4fa2;stroke:#5e4fa2;" x="220.705043" xlink:href="#mbcad657f80" y="657.948275"/>
     <use style="fill:#5e4fa2;stroke:#5e4fa2;" x="224.547042" xlink:href="#mbcad657f80" y="662.315612"/>
     <use style="fill:#5e4fa2;stroke:#5e4fa2;" x="228.389041" xlink:href="#mbcad657f80" y="663.068752"/>
     <use style="fill:#5e4fa2;stroke:#5e4fa2;" x="232.231041" xlink:href="#mbcad657f80" y="659.680319"/>
     <use style="fill:#5e4fa2;stroke:#5e4fa2;" x="236.07304" xlink:href="#mbcad657f80" y="652.136068"/>
     <use style="fill:#5e4fa2;stroke:#5e4fa2;" x="239.915039" xlink:href="#mbcad657f80" y="640.968274"/>
     <use style="fill:#5e4fa2;stroke:#5e4fa2;" x="243.757038" xlink:href="#mbcad657f80" y="627.218941"/>
     <use style="fill:#5e4fa2;stroke:#5e4fa2;" x="247.599037" xlink:href="#mbcad657f80" y="612.334056"/>
     <use style="fill:#5e4fa2;stroke:#5e4fa2;" x="251.441036" xlink:href="#mbcad657f80" y="597.999198"/>
     <use style="fill:#5e4fa2;stroke:#5e4fa2;" x="255.283035" xlink:href="#mbcad657f80" y="585.934831"/>
     <use style="fill:#5e4fa2;stroke:#5e4fa2;" x="259.125034" xlink:href="#mbcad657f80" y="577.675641"/>
     <use style="fill:#5e4fa2;stroke:#5e4fa2;" x="262.967033" xlink:href="#mbcad657f80" y="574.361337"/>
     <use style="fill:#5e4fa2;stroke:#5e4fa2;" x="266.809032" xlink:href="#mbcad657f80" y="576.566031"/>
     <use style="fill:#5e4fa2;stroke:#5e4fa2;" x="270.651031" xlink:href="#mbcad657f80" y="584.189481"/>
     <use style="fill:#5e4fa2;stroke:#5e4fa2;" x="274.493031" xlink:href="#mbcad657f80" y="596.426615"/>
     <use style="fill:#5e4fa2;stroke:#5e4fa2;" x="278.33503" xlink:href="#mbcad657f80" y="611.822501"/>
     <use style="fill:#5e4fa2;stroke:#5e4fa2;" x="282.177029" xlink:href="#mbcad657f80" y="628.409557"/>
     <use style="fill:#5e4fa2;stroke:#5e4fa2;" x="286.019028" xlink:href="#mbcad657f80" y="643.91344"/>
     <use style="fill:#5e4fa2;stroke:#5e4fa2;" x="289.861027" xlink:href="#mbcad657f80" y="656.005163"/>
     <use style="fill:#5e4fa2;stroke:#5e4fa2;" x="293.703026" xlink:href="#mbcad657f80" y="662.570605"/>
     <use style="fill:#5e4fa2;stroke:#5e4fa2;" x="297.545025" xlink:href="#mbcad657f80" y="661.965675"/>
     <use style="fill:#5e4fa2;stroke:#5e4fa2;" x="301.387024" xlink:href="#mbcad657f80" y="653.226281"/>
     <use style="fill:#5e4fa2;stroke:#5e4fa2;" x="305.229023" xlink:href="#mbcad657f80" y="636.207061"/>
     <use style="fill:#5e4fa2;stroke:#5e4fa2;" x="309.071022" xlink:href="#mbcad657f80" y="611.63085"/>
     <use style="fill:#5e4fa2;stroke:#5e4fa2;" x="312.913021" xlink:href="#mbcad657f80" y="581.04128"/>
     <use style="fill:#5e4fa2;stroke:#5e4fa2;" x="316.75502" xlink:href="#mbcad657f80" y="546.662403"/>
     <use style="fill:#5e4fa2;stroke:#5e4fa2;" x="320.59702" xlink:href="#mbcad657f80" y="511.180373"/>
     <use style="fill:#5e4fa2;stroke:#5e4fa2;" x="324.439019" xlink:href="#mbcad657f80" y="477.471687"/>
     <use style="fill:#5e4fa2;stroke:#5e4fa2;" x="328.281018" xlink:href="#mbcad657f80" y="448.308976"/>
     <use style="fill:#5e4fa2;stroke:#5e4fa2;" x="332.123017" xlink:href="#mbcad657f80" y="426.078142"/>
     <use style="fill:#5e4fa2;stroke:#5e4fa2;" x="335.965016" xlink:href="#mbcad657f80" y="412.539285"/>
     <use style="fill:#5e4fa2;stroke:#5e4fa2;" x="339.807015" xlink:href="#mbcad657f80" y="408.658574"/>
     <use style="fill:#5e4fa2;stroke:#5e4fa2;" x="343.649014" xlink:href="#mbcad657f80" y="414.529575"/>
     <use style="fill:#5e4fa2;stroke:#5e4fa2;" x="347.491013" xlink:href="#mbcad657f80" y="429.391705"/>
     <use style="fill:#5e4fa2;stroke:#5e4fa2;" x="351.333012" xlink:href="#mbcad657f80" y="451.741719"/>
     <use style="fill:#5e4fa2;stroke:#5e4fa2;" x="355.175011" xlink:href="#mbcad657f80" y="479.522971"/>
     <use style="fill:#5e4fa2;stroke:#5e4fa2;" x="359.01701" xlink:href="#mbcad657f80" y="510.368002"/>
     <use style="fill:#5e4fa2;stroke:#5e4fa2;" x="362.85901" xlink:href="#mbcad657f80" y="541.863975"/>
     <use style="fill:#5e4fa2;stroke:#5e4fa2;" x="366.701009" xlink:href="#mbcad657f80" y="571.808297"/>
     <use style="fill:#5e4fa2;stroke:#5e4fa2;" x="370.543008" xlink:href="#mbcad657f80" y="598.423729"/>
     <use style="fill:#5e4fa2;stroke:#5e4fa2;" x="374.385007" xlink:href="#mbcad657f80" y="620.508113"/>
     <use style="fill:#5e4fa2;stroke:#5e4fa2;" x="378.227006" xlink:href="#mbcad657f80" y="637.502746"/>
     <use style="fill:#5e4fa2;stroke:#5e4fa2;" x="382.069005" xlink:href="#mbcad657f80" y="649.47423"/>
     <use style="fill:#5e4fa2;stroke:#5e4fa2;" x="385.911004" xlink:href="#mbcad657f80" y="657.01598"/>
     <use style="fill:#5e4fa2;stroke:#5e4fa2;" x="389.753003" xlink:href="#mbcad657f80" y="661.085935"/>
     <use style="fill:#5e4fa2;stroke:#5e4fa2;" x="393.595002" xlink:href="#mbcad657f80" y="662.805064"/>
     <use style="fill:#5e4fa2;stroke:#5e4fa2;" x="397.437001" xlink:href="#mbcad657f80" y="663.246043"/>
     <use style="fill:#5e4fa2;stroke:#5e4fa2;" x="401.279" xlink:href="#mbcad657f80" y="663.242217"/>
     <use style="fill:#5e4fa2;stroke:#5e4fa2;" x="405.121" xlink:href="#mbcad657f80" y="663.243801"/>
     <use style="fill:#5e4fa2;stroke:#5e4fa2;" x="408.962999" xlink:href="#mbcad657f80" y="663.241437"/>
     <use style="fill:#5e4fa2;stroke:#5e4fa2;" x="412.804998" xlink:href="#mbcad657f80" y="662.767766"/>
     <use style="fill:#5e4fa2;stroke:#5e4fa2;" x="416.646997" xlink:href="#mbcad657f80" y="660.976809"/>
     <use style="fill:#5e4fa2;stroke:#5e4fa2;" x="420.488996" xlink:href="#mbcad657f80" y="656.790078"/>
     <use style="fill:#5e4fa2;stroke:#5e4fa2;" x="424.330995" xlink:href="#mbcad657f80" y="649.088957"/>
     <use style="fill:#5e4fa2;stroke:#5e4fa2;" x="428.172994" xlink:href="#mbcad657f80" y="636.926243"/>
     <use style="fill:#5e4fa2;stroke:#5e4fa2;" x="432.014993" xlink:href="#mbcad657f80" y="619.726627"/>
     <use style="fill:#5e4fa2;stroke:#5e4fa2;" x="435.856992" xlink:href="#mbcad657f80" y="597.446911"/>
     <use style="fill:#5e4fa2;stroke:#5e4fa2;" x="439.698991" xlink:href="#mbcad657f80" y="570.671575"/>
     <use style="fill:#5e4fa2;stroke:#5e4fa2;" x="443.54099" xlink:href="#mbcad657f80" y="540.627552"/>
     <use style="fill:#5e4fa2;stroke:#5e4fa2;" x="447.38299" xlink:href="#mbcad657f80" y="509.112455"/>
     <use style="fill:#5e4fa2;stroke:#5e4fa2;" x="451.224989" xlink:href="#mbcad657f80" y="478.341874"/>
     <use style="fill:#5e4fa2;stroke:#5e4fa2;" x="455.066988" xlink:href="#mbcad657f80" y="450.732104"/>
     <use style="fill:#5e4fa2;stroke:#5e4fa2;" x="458.908987" xlink:href="#mbcad657f80" y="428.643492"/>
     <use style="fill:#5e4fa2;stroke:#5e4fa2;" x="462.750986" xlink:href="#mbcad657f80" y="414.115241"/>
     <use style="fill:#5e4fa2;stroke:#5e4fa2;" x="466.592985" xlink:href="#mbcad657f80" y="408.624347"/>
     <use style="fill:#5e4fa2;stroke:#5e4fa2;" x="470.434984" xlink:href="#mbcad657f80" y="412.898978"/>
     <use style="fill:#5e4fa2;stroke:#5e4fa2;" x="474.276983" xlink:href="#mbcad657f80" y="426.810442"/>
     <use style="fill:#5e4fa2;stroke:#5e4fa2;" x="478.118982" xlink:href="#mbcad657f80" y="449.358592"/>
     <use style="fill:#5e4fa2;stroke:#5e4fa2;" x="481.960981" xlink:href="#mbcad657f80" y="478.754301"/>
     <use style="fill:#5e4fa2;stroke:#5e4fa2;" x="485.80298" xlink:href="#mbcad657f80" y="512.590879"/>
     <use style="fill:#5e4fa2;stroke:#5e4fa2;" x="489.64498" xlink:href="#mbcad657f80" y="548.08551"/>
     <use style="fill:#5e4fa2;stroke:#5e4fa2;" x="493.486979" xlink:href="#mbcad657f80" y="582.363287"/>
     <use style="fill:#5e4fa2;stroke:#5e4fa2;" x="497.328978" xlink:href="#mbcad657f80" y="612.751232"/>
     <use style="fill:#5e4fa2;stroke:#5e4fa2;" x="501.170977" xlink:href="#mbcad657f80" y="637.048555"/>
     <use style="fill:#5e4fa2;stroke:#5e4fa2;" x="505.012976" xlink:href="#mbcad657f80" y="653.742319"/>
     <use style="fill:#5e4fa2;stroke:#5e4fa2;" x="508.854975" xlink:href="#mbcad657f80" y="662.144338"/>
     <use style="fill:#5e4fa2;stroke:#5e4fa2;" x="512.696974" xlink:href="#mbcad657f80" y="662.434694"/>
     <use style="fill:#5e4fa2;stroke:#5e4fa2;" x="516.538973" xlink:href="#mbcad657f80" y="655.608433"/>
     <use style="fill:#5e4fa2;stroke:#5e4fa2;" x="520.380972" xlink:href="#mbcad657f80" y="643.333512"/>
     <use style="fill:#5e4fa2;stroke:#5e4fa2;" x="524.222971" xlink:href="#mbcad657f80" y="627.738373"/>
     <use style="fill:#5e4fa2;stroke:#5e4fa2;" x="528.06497" xlink:href="#mbcad657f80" y="612.030111"/>
     <use style="fill:#5e4fa2;stroke:#5e4fa2;" x="531.906969" xlink:href="#mbcad657f80" y="596.925281"/>
     <use style="fill:#5e4fa2;stroke:#5e4fa2;" x="535.748969" xlink:href="#mbcad657f80" y="585.784368"/>
     <use style="fill:#5e4fa2;stroke:#5e4fa2;" x="539.590968" xlink:href="#mbcad657f80" y="578.555339"/>
     <use style="fill:#5e4fa2;stroke:#5e4fa2;" x="543.432967" xlink:href="#mbcad657f80" y="576.667299"/>
     <use style="fill:#5e4fa2;stroke:#5e4fa2;" x="547.274966" xlink:href="#mbcad657f80" y="580.249056"/>
     <use style="fill:#5e4fa2;stroke:#5e4fa2;" x="551.116965" xlink:href="#mbcad657f80" y="588.685201"/>
     <use style="fill:#5e4fa2;stroke:#5e4fa2;" x="554.958964" xlink:href="#mbcad657f80" y="600.742379"/>
     <use style="fill:#5e4fa2;stroke:#5e4fa2;" x="558.800963" xlink:href="#mbcad657f80" y="614.819024"/>
     <use style="fill:#5e4fa2;stroke:#5e4fa2;" x="562.642962" xlink:href="#mbcad657f80" y="629.223077"/>
     <use style="fill:#5e4fa2;stroke:#5e4fa2;" x="566.484961" xlink:href="#mbcad657f80" y="642.387214"/>
     <use style="fill:#5e4fa2;stroke:#5e4fa2;" x="570.32696" xlink:href="#mbcad657f80" y="652.998698"/>
     <use style="fill:#5e4fa2;stroke:#5e4fa2;" x="574.168959" xlink:href="#mbcad657f80" y="660.089348"/>
     <use style="fill:#5e4fa2;stroke:#5e4fa2;" x="578.010959" xlink:href="#mbcad657f80" y="663.137739"/>
     <use style="fill:#5e4fa2;stroke:#5e4fa2;" x="581.852958" xlink:href="#mbcad657f80" y="662.174528"/>
     <use style="fill:#5e4fa2;stroke:#5e4fa2;" x="585.694957" xlink:href="#mbcad657f80" y="657.812944"/>
     <use style="fill:#5e4fa2;stroke:#5e4fa2;" x="589.536956" xlink:href="#mbcad657f80" y="651.125415"/>
     <use style="fill:#5e4fa2;stroke:#5e4fa2;" x="593.378955" xlink:href="#mbcad657f80" y="643.373859"/>
     <use style="fill:#5e4fa2;stroke:#5e4fa2;" x="597.220954" xlink:href="#mbcad657f80" y="635.712899"/>
     <use style="fill:#5e4fa2;stroke:#5e4fa2;" x="601.062953" xlink:href="#mbcad657f80" y="629.023226"/>
     <use style="fill:#5e4fa2;stroke:#5e4fa2;" x="604.904952" xlink:href="#mbcad657f80" y="623.94653"/>
     <use style="fill:#5e4fa2;stroke:#5e4fa2;" x="608.746951" xlink:href="#mbcad657f80" y="621.036341"/>
     <use style="fill:#5e4fa2;stroke:#5e4fa2;" x="612.58895" xlink:href="#mbcad657f80" y="620.835173"/>
     <use style="fill:#5e4fa2;stroke:#5e4fa2;" x="616.430949" xlink:href="#mbcad657f80" y="623.735926"/>
     <use style="fill:#5e4fa2;stroke:#5e4fa2;" x="620.272949" xlink:href="#mbcad657f80" y="629.668015"/>
     <use style="fill:#5e4fa2;stroke:#5e4fa2;" x="624.114948" xlink:href="#mbcad657f80" y="637.832682"/>
     <use style="fill:#5e4fa2;stroke:#5e4fa2;" x="627.956947" xlink:href="#mbcad657f80" y="646.742862"/>
     <use style="fill:#5e4fa2;stroke:#5e4fa2;" x="631.798946" xlink:href="#mbcad657f80" y="654.650546"/>
     <use style="fill:#5e4fa2;stroke:#5e4fa2;" x="635.640945" xlink:href="#mbcad657f80" y="660.176055"/>
     <use style="fill:#5e4fa2;stroke:#5e4fa2;" x="639.482944" xlink:href="#mbcad657f80" y="662.785057"/>
     <use style="fill:#5e4fa2;stroke:#5e4fa2;" x="643.324943" xlink:href="#mbcad657f80" y="662.828982"/>
     <use style="fill:#5e4fa2;stroke:#5e4fa2;" x="647.166942" xlink:href="#mbcad657f80" y="661.140821"/>
    </g>
   </g>
   <g id="patch_3">
    <path d="M 108 720.9 
L 108 56.7 
" style="fill:none;stroke:#000000;stroke-linecap:square;stroke-linejoin:miter;stroke-width:0.8;"/>
   </g>
   <g id="patch_4">
    <path d="M 698.4 720.9 
L 698.4 56.7 
" style="fill:none;stroke:#000000;stroke-linecap:square;stroke-linejoin:miter;stroke-width:0.8;"/>
   </g>
   <g id="patch_5">
    <path d="M 108 720.9 
L 698.4 720.9 
" style="fill:none;stroke:#000000;stroke-linecap:square;stroke-linejoin:miter;stroke-width:0.8;"/>
   </g>
   <g id="patch_6">
    <path d="M 108 56.7 
L 698.4 56.7 
" style="fill:none;stroke:#000000;stroke-linecap:square;stroke-linejoin:miter;stroke-width:0.8;"/>
   </g>
   <g id="legend_1">
    <g id="patch_7">
     <path d="M 533.4 219.48125 
L 684.4 219.48125 
Q 688.4 219.48125 688.4 215.48125 
L 688.4 70.7 
Q 688.4 66.7 684.4 66.7 
L 533.4 66.7 
Q 529.4 66.7 529.4 70.7 
L 529.4 215.48125 
Q 529.4 219.48125 533.4 219.48125 
z
" style="fill:#ffffff;opacity:0.8;stroke:#cccccc;stroke-linejoin:miter;"/>
    </g>
    <g id="line2d_31">
     <path d="M 537.4 82.896875 
L 577.4 82.896875 
" style="fill:none;stroke:#000000;stroke-linecap:square;stroke-width:2;"/>
    </g>
    <g id="line2d_32">
     <defs>
      <path d="M 0 3 
C 0.795609 3 1.55874 2.683901 2.12132 2.12132 
C 2.683901 1.55874 3 0.795609 3 0 
C 3 -0.795609 2.683901 -1.55874 2.12132 -2.12132 
C 1.55874 -2.683901 0.795609 -3 0 -3 
C -0.795609 -3 -1.55874 -2.683901 -2.12132 -2.12132 
C -2.683901 -1.55874 -3 -0.795609 -3 0 
C -3 0.795609 -2.683901 1.55874 -2.12132 2.12132 
C -1.55874 2.683901 -0.795609 3 0 3 
z
" id="m5a14527035" style="stroke:#000000;"/>
     </defs>
     <g>
      <use style="stroke:#000000;" x="557.4" xlink:href="#m5a14527035" y="82.896875"/>
     </g>
    </g>
    <g id="text_16">
     <!-- (0, 4, 0) -->
     <g transform="translate(593.4 89.896875)scale(0.2 -0.2)">
      <defs>
       <path d="M 11.71875 12.40625 
L 22.015625 12.40625 
L 22.015625 4 
L 14.015625 -11.625 
L 7.71875 -11.625 
L 11.71875 4 
z
" id="DejaVuSans-44"/>
       <path id="DejaVuSans-32"/>
      </defs>
      <use xlink:href="#DejaVuSans-40"/>
      <use x="39.013672" xlink:href="#DejaVuSans-48"/>
      <use x="102.636719" xlink:href="#DejaVuSans-44"/>
      <use x="134.423828" xlink:href="#DejaVuSans-32"/>
      <use x="166.210938" xlink:href="#DejaVuSans-52"/>
      <use x="229.833984" xlink:href="#DejaVuSans-44"/>
      <use x="261.621094" xlink:href="#DejaVuSans-32"/>
      <use x="293.408203" xlink:href="#DejaVuSans-48"/>
      <use x="357.03125" xlink:href="#DejaVuSans-41"/>
     </g>
    </g>
    <g id="line2d_33">
     <path d="M 537.4 112.253125 
L 577.4 112.253125 
" style="fill:none;stroke:#f98e52;stroke-linecap:square;stroke-width:2;"/>
    </g>
    <g id="line2d_34"/>
    <g id="text_17">
     <!-- $z=168 A$ -->
     <g transform="translate(593.4 119.253125)scale(0.2 -0.2)">
      <defs>
       <path d="M 11.625 54.6875 
L 54.296875 54.6875 
L 52.6875 46.484375 
L 11.53125 7.171875 
L 45.515625 7.171875 
L 44.09375 0 
L -0.296875 0 
L 1.3125 8.203125 
L 42.484375 47.515625 
L 10.203125 47.515625 
z
" id="DejaVuSans-Oblique-122"/>
       <path d="M 10.59375 45.40625 
L 73.1875 45.40625 
L 73.1875 37.203125 
L 10.59375 37.203125 
z
M 10.59375 25.484375 
L 73.1875 25.484375 
L 73.1875 17.1875 
L 10.59375 17.1875 
z
" id="DejaVuSans-61"/>
       <path d="M 36.8125 72.90625 
L 48 72.90625 
L 61.53125 0 
L 51.21875 0 
L 48.1875 18.703125 
L 15.375 18.703125 
L 5.078125 0 
L -5.328125 0 
z
M 40.375 63.1875 
L 19.921875 26.90625 
L 46.6875 26.90625 
z
" id="DejaVuSans-Oblique-65"/>
      </defs>
      <use transform="translate(0 0.78125)" xlink:href="#DejaVuSans-Oblique-122"/>
      <use transform="translate(71.972656 0.78125)" xlink:href="#DejaVuSans-61"/>
      <use transform="translate(175.244141 0.78125)" xlink:href="#DejaVuSans-49"/>
      <use transform="translate(238.867188 0.78125)" xlink:href="#DejaVuSans-54"/>
      <use transform="translate(302.490234 0.78125)" xlink:href="#DejaVuSans-56"/>
      <use transform="translate(366.113281 0.78125)" xlink:href="#DejaVuSans-Oblique-65"/>
     </g>
    </g>
    <g id="line2d_35">
     <path d="M 537.4 141.609375 
L 577.4 141.609375 
" style="fill:none;stroke:#ffffbe;stroke-linecap:square;stroke-width:2;"/>
    </g>
    <g id="line2d_36"/>
    <g id="text_18">
     <!-- $z=336 A$ -->
     <g transform="translate(593.4 148.609375)scale(0.2 -0.2)">
      <use transform="translate(0 0.78125)" xlink:href="#DejaVuSans-Oblique-122"/>
      <use transform="translate(71.972656 0.78125)" xlink:href="#DejaVuSans-61"/>
      <use transform="translate(175.244141 0.78125)" xlink:href="#DejaVuSans-51"/>
      <use transform="translate(238.867188 0.78125)" xlink:href="#DejaVuSans-51"/>
      <use transform="translate(302.490234 0.78125)" xlink:href="#DejaVuSans-54"/>
      <use transform="translate(366.113281 0.78125)" xlink:href="#DejaVuSans-Oblique-65"/>
     </g>
    </g>
    <g id="line2d_37">
     <path d="M 537.4 170.965625 
L 577.4 170.965625 
" style="fill:none;stroke:#86cfa5;stroke-linecap:square;stroke-width:2;"/>
    </g>
    <g id="line2d_38"/>
    <g id="text_19">
     <!-- $z=503 A$ -->
     <g transform="translate(593.4 177.965625)scale(0.2 -0.2)">
      <defs>
       <path d="M 10.796875 72.90625 
L 49.515625 72.90625 
L 49.515625 64.59375 
L 19.828125 64.59375 
L 19.828125 46.734375 
Q 21.96875 47.46875 24.109375 47.828125 
Q 26.265625 48.1875 28.421875 48.1875 
Q 40.625 48.1875 47.75 41.5 
Q 54.890625 34.8125 54.890625 23.390625 
Q 54.890625 11.625 47.5625 5.09375 
Q 40.234375 -1.421875 26.90625 -1.421875 
Q 22.3125 -1.421875 17.546875 -0.640625 
Q 12.796875 0.140625 7.71875 1.703125 
L 7.71875 11.625 
Q 12.109375 9.234375 16.796875 8.0625 
Q 21.484375 6.890625 26.703125 6.890625 
Q 35.15625 6.890625 40.078125 11.328125 
Q 45.015625 15.765625 45.015625 23.390625 
Q 45.015625 31 40.078125 35.4375 
Q 35.15625 39.890625 26.703125 39.890625 
Q 22.75 39.890625 18.8125 39.015625 
Q 14.890625 38.140625 10.796875 36.28125 
z
" id="DejaVuSans-53"/>
      </defs>
      <use transform="translate(0 0.78125)" xlink:href="#DejaVuSans-Oblique-122"/>
      <use transform="translate(71.972656 0.78125)" xlink:href="#DejaVuSans-61"/>
      <use transform="translate(175.244141 0.78125)" xlink:href="#DejaVuSans-53"/>
      <use transform="translate(238.867188 0.78125)" xlink:href="#DejaVuSans-48"/>
      <use transform="translate(302.490234 0.78125)" xlink:href="#DejaVuSans-51"/>
      <use transform="translate(366.113281 0.78125)" xlink:href="#DejaVuSans-Oblique-65"/>
     </g>
    </g>
    <g id="line2d_39">
     <path d="M 537.4 200.321875 
L 577.4 200.321875 
" style="fill:none;stroke:#5e4fa2;stroke-linecap:square;stroke-width:2;"/>
    </g>
    <g id="line2d_40"/>
    <g id="text_20">
     <!-- $z=671 A$ -->
     <g transform="translate(593.4 207.321875)scale(0.2 -0.2)">
      <defs>
       <path d="M 8.203125 72.90625 
L 55.078125 72.90625 
L 55.078125 68.703125 
L 28.609375 0 
L 18.3125 0 
L 43.21875 64.59375 
L 8.203125 64.59375 
z
" id="DejaVuSans-55"/>
      </defs>
      <use transform="translate(0 0.78125)" xlink:href="#DejaVuSans-Oblique-122"/>
      <use transform="translate(71.972656 0.78125)" xlink:href="#DejaVuSans-61"/>
      <use transform="translate(175.244141 0.78125)" xlink:href="#DejaVuSans-54"/>
      <use transform="translate(238.867188 0.78125)" xlink:href="#DejaVuSans-55"/>
      <use transform="translate(302.490234 0.78125)" xlink:href="#DejaVuSans-49"/>
      <use transform="translate(366.113281 0.78125)" xlink:href="#DejaVuSans-Oblique-65"/>
     </g>
    </g>
   </g>
  </g>
 </g>
 <defs>
  <clipPath id="p775d49b5c1">
   <rect height="664.2" width="590.4" x="108" y="56.7"/>
  </clipPath>
 </defs>
</svg>
