<?xml version="1.0" encoding="utf-8" standalone="no"?>
<!DOCTYPE svg PUBLIC "-//W3C//DTD SVG 1.1//EN"
  "http://www.w3.org/Graphics/SVG/1.1/DTD/svg11.dtd">
<!-- Created with matplotlib (https://matplotlib.org/) -->
<svg height="519.75pt" version="1.1" viewBox="0 0 512.25 519.75" width="512.25pt" xmlns="http://www.w3.org/2000/svg" xmlns:xlink="http://www.w3.org/1999/xlink">
 <defs>
  <style type="text/css">
*{stroke-linecap:butt;stroke-linejoin:round;}
  </style>
 </defs>
 <g id="figure_1">
  <g id="patch_1">
   <path d="M 0 519.75 
L 512.25 519.75 
L 512.25 0 
L 0 0 
z
" style="fill:#ffffff;"/>
  </g>
  <g id="axes_1">
   <g id="patch_2">
    <path d="M 76.8375 462.5775 
L 496.8825 462.5775 
L 496.8825 36.3825 
L 76.8375 36.3825 
z
" style="fill:#ffffff;"/>
   </g>
   <g id="matplotlib.axis_1">
    <g id="xtick_1">
     <g id="line2d_1">
      <path clip-path="url(#p86b7b0a822)" d="M 113.287686 462.5775 
L 113.287686 36.3825 
" style="fill:none;stroke:#e6e6e6;stroke-linecap:square;stroke-width:0.8;"/>
     </g>
     <g id="line2d_2">
      <defs>
       <path d="M 0 0 
L 0 -3.5 
" id="m1c9086d9aa" style="stroke:#000000;stroke-width:0.8;"/>
      </defs>
      <g>
       <use style="stroke:#000000;stroke-width:0.8;" x="113.287686" xlink:href="#m1c9086d9aa" y="462.5775"/>
      </g>
     </g>
     <g id="text_1">
      <!-- 0 -->
      <defs>
       <path d="M 31.78125 66.40625 
Q 24.171875 66.40625 20.328125 58.90625 
Q 16.5 51.421875 16.5 36.375 
Q 16.5 21.390625 20.328125 13.890625 
Q 24.171875 6.390625 31.78125 6.390625 
Q 39.453125 6.390625 43.28125 13.890625 
Q 47.125 21.390625 47.125 36.375 
Q 47.125 51.421875 43.28125 58.90625 
Q 39.453125 66.40625 31.78125 66.40625 
z
M 31.78125 74.21875 
Q 44.046875 74.21875 50.515625 64.515625 
Q 56.984375 54.828125 56.984375 36.375 
Q 56.984375 17.96875 50.515625 8.265625 
Q 44.046875 -1.421875 31.78125 -1.421875 
Q 19.53125 -1.421875 13.0625 8.265625 
Q 6.59375 17.96875 6.59375 36.375 
Q 6.59375 54.828125 13.0625 64.515625 
Q 19.53125 74.21875 31.78125 74.21875 
z
" id="DejaVuSans-48"/>
      </defs>
      <g transform="translate(108.515811 477.475156)scale(0.15 -0.15)">
       <use xlink:href="#DejaVuSans-48"/>
      </g>
     </g>
    </g>
    <g id="xtick_2">
     <g id="line2d_3">
      <path clip-path="url(#p86b7b0a822)" d="M 182.716612 462.5775 
L 182.716612 36.3825 
" style="fill:none;stroke:#e6e6e6;stroke-linecap:square;stroke-width:0.8;"/>
     </g>
     <g id="line2d_4">
      <g>
       <use style="stroke:#000000;stroke-width:0.8;" x="182.716612" xlink:href="#m1c9086d9aa" y="462.5775"/>
      </g>
     </g>
     <g id="text_2">
      <!-- 2 -->
      <defs>
       <path d="M 19.1875 8.296875 
L 53.609375 8.296875 
L 53.609375 0 
L 7.328125 0 
L 7.328125 8.296875 
Q 12.9375 14.109375 22.625 23.890625 
Q 32.328125 33.6875 34.8125 36.53125 
Q 39.546875 41.84375 41.421875 45.53125 
Q 43.3125 49.21875 43.3125 52.78125 
Q 43.3125 58.59375 39.234375 62.25 
Q 35.15625 65.921875 28.609375 65.921875 
Q 23.96875 65.921875 18.8125 64.3125 
Q 13.671875 62.703125 7.8125 59.421875 
L 7.8125 69.390625 
Q 13.765625 71.78125 18.9375 73 
Q 24.125 74.21875 28.421875 74.21875 
Q 39.75 74.21875 46.484375 68.546875 
Q 53.21875 62.890625 53.21875 53.421875 
Q 53.21875 48.921875 51.53125 44.890625 
Q 49.859375 40.875 45.40625 35.40625 
Q 44.1875 33.984375 37.640625 27.21875 
Q 31.109375 20.453125 19.1875 8.296875 
z
" id="DejaVuSans-50"/>
      </defs>
      <g transform="translate(177.944737 477.475156)scale(0.15 -0.15)">
       <use xlink:href="#DejaVuSans-50"/>
      </g>
     </g>
    </g>
    <g id="xtick_3">
     <g id="line2d_5">
      <path clip-path="url(#p86b7b0a822)" d="M 252.145537 462.5775 
L 252.145537 36.3825 
" style="fill:none;stroke:#e6e6e6;stroke-linecap:square;stroke-width:0.8;"/>
     </g>
     <g id="line2d_6">
      <g>
       <use style="stroke:#000000;stroke-width:0.8;" x="252.145537" xlink:href="#m1c9086d9aa" y="462.5775"/>
      </g>
     </g>
     <g id="text_3">
      <!-- 4 -->
      <defs>
       <path d="M 37.796875 64.3125 
L 12.890625 25.390625 
L 37.796875 25.390625 
z
M 35.203125 72.90625 
L 47.609375 72.90625 
L 47.609375 25.390625 
L 58.015625 25.390625 
L 58.015625 17.1875 
L 47.609375 17.1875 
L 47.609375 0 
L 37.796875 0 
L 37.796875 17.1875 
L 4.890625 17.1875 
L 4.890625 26.703125 
z
" id="DejaVuSans-52"/>
      </defs>
      <g transform="translate(247.373662 477.475156)scale(0.15 -0.15)">
       <use xlink:href="#DejaVuSans-52"/>
      </g>
     </g>
    </g>
    <g id="xtick_4">
     <g id="line2d_7">
      <path clip-path="url(#p86b7b0a822)" d="M 321.574463 462.5775 
L 321.574463 36.3825 
" style="fill:none;stroke:#e6e6e6;stroke-linecap:square;stroke-width:0.8;"/>
     </g>
     <g id="line2d_8">
      <g>
       <use style="stroke:#000000;stroke-width:0.8;" x="321.574463" xlink:href="#m1c9086d9aa" y="462.5775"/>
      </g>
     </g>
     <g id="text_4">
      <!-- 6 -->
      <defs>
       <path d="M 33.015625 40.375 
Q 26.375 40.375 22.484375 35.828125 
Q 18.609375 31.296875 18.609375 23.390625 
Q 18.609375 15.53125 22.484375 10.953125 
Q 26.375 6.390625 33.015625 6.390625 
Q 39.65625 6.390625 43.53125 10.953125 
Q 47.40625 15.53125 47.40625 23.390625 
Q 47.40625 31.296875 43.53125 35.828125 
Q 39.65625 40.375 33.015625 40.375 
z
M 52.59375 71.296875 
L 52.59375 62.3125 
Q 48.875 64.0625 45.09375 64.984375 
Q 41.3125 65.921875 37.59375 65.921875 
Q 27.828125 65.921875 22.671875 59.328125 
Q 17.53125 52.734375 16.796875 39.40625 
Q 19.671875 43.65625 24.015625 45.921875 
Q 28.375 48.1875 33.59375 48.1875 
Q 44.578125 48.1875 50.953125 41.515625 
Q 57.328125 34.859375 57.328125 23.390625 
Q 57.328125 12.15625 50.6875 5.359375 
Q 44.046875 -1.421875 33.015625 -1.421875 
Q 20.359375 -1.421875 13.671875 8.265625 
Q 6.984375 17.96875 6.984375 36.375 
Q 6.984375 53.65625 15.1875 63.9375 
Q 23.390625 74.21875 37.203125 74.21875 
Q 40.921875 74.21875 44.703125 73.484375 
Q 48.484375 72.75 52.59375 71.296875 
z
" id="DejaVuSans-54"/>
      </defs>
      <g transform="translate(316.802588 477.475156)scale(0.15 -0.15)">
       <use xlink:href="#DejaVuSans-54"/>
      </g>
     </g>
    </g>
    <g id="xtick_5">
     <g id="line2d_9">
      <path clip-path="url(#p86b7b0a822)" d="M 391.003388 462.5775 
L 391.003388 36.3825 
" style="fill:none;stroke:#e6e6e6;stroke-linecap:square;stroke-width:0.8;"/>
     </g>
     <g id="line2d_10">
      <g>
       <use style="stroke:#000000;stroke-width:0.8;" x="391.003388" xlink:href="#m1c9086d9aa" y="462.5775"/>
      </g>
     </g>
     <g id="text_5">
      <!-- 8 -->
      <defs>
       <path d="M 31.78125 34.625 
Q 24.75 34.625 20.71875 30.859375 
Q 16.703125 27.09375 16.703125 20.515625 
Q 16.703125 13.921875 20.71875 10.15625 
Q 24.75 6.390625 31.78125 6.390625 
Q 38.8125 6.390625 42.859375 10.171875 
Q 46.921875 13.96875 46.921875 20.515625 
Q 46.921875 27.09375 42.890625 30.859375 
Q 38.875 34.625 31.78125 34.625 
z
M 21.921875 38.8125 
Q 15.578125 40.375 12.03125 44.71875 
Q 8.5 49.078125 8.5 55.328125 
Q 8.5 64.0625 14.71875 69.140625 
Q 20.953125 74.21875 31.78125 74.21875 
Q 42.671875 74.21875 48.875 69.140625 
Q 55.078125 64.0625 55.078125 55.328125 
Q 55.078125 49.078125 51.53125 44.71875 
Q 48 40.375 41.703125 38.8125 
Q 48.828125 37.15625 52.796875 32.3125 
Q 56.78125 27.484375 56.78125 20.515625 
Q 56.78125 9.90625 50.3125 4.234375 
Q 43.84375 -1.421875 31.78125 -1.421875 
Q 19.734375 -1.421875 13.25 4.234375 
Q 6.78125 9.90625 6.78125 20.515625 
Q 6.78125 27.484375 10.78125 32.3125 
Q 14.796875 37.15625 21.921875 38.8125 
z
M 18.3125 54.390625 
Q 18.3125 48.734375 21.84375 45.5625 
Q 25.390625 42.390625 31.78125 42.390625 
Q 38.140625 42.390625 41.71875 45.5625 
Q 45.3125 48.734375 45.3125 54.390625 
Q 45.3125 60.0625 41.71875 63.234375 
Q 38.140625 66.40625 31.78125 66.40625 
Q 25.390625 66.40625 21.84375 63.234375 
Q 18.3125 60.0625 18.3125 54.390625 
z
" id="DejaVuSans-56"/>
      </defs>
      <g transform="translate(386.231513 477.475156)scale(0.15 -0.15)">
       <use xlink:href="#DejaVuSans-56"/>
      </g>
     </g>
    </g>
    <g id="xtick_6">
     <g id="line2d_11">
      <path clip-path="url(#p86b7b0a822)" d="M 460.432314 462.5775 
L 460.432314 36.3825 
" style="fill:none;stroke:#e6e6e6;stroke-linecap:square;stroke-width:0.8;"/>
     </g>
     <g id="line2d_12">
      <g>
       <use style="stroke:#000000;stroke-width:0.8;" x="460.432314" xlink:href="#m1c9086d9aa" y="462.5775"/>
      </g>
     </g>
     <g id="text_6">
      <!-- 10 -->
      <defs>
       <path d="M 12.40625 8.296875 
L 28.515625 8.296875 
L 28.515625 63.921875 
L 10.984375 60.40625 
L 10.984375 69.390625 
L 28.421875 72.90625 
L 38.28125 72.90625 
L 38.28125 8.296875 
L 54.390625 8.296875 
L 54.390625 0 
L 12.40625 0 
z
" id="DejaVuSans-49"/>
      </defs>
      <g transform="translate(450.888564 477.475156)scale(0.15 -0.15)">
       <use xlink:href="#DejaVuSans-49"/>
       <use x="63.623047" xlink:href="#DejaVuSans-48"/>
      </g>
     </g>
    </g>
   </g>
   <g id="matplotlib.axis_2">
    <g id="ytick_1">
     <g id="line2d_13">
      <path clip-path="url(#p86b7b0a822)" d="M 76.8375 425.593636 
L 496.8825 425.593636 
" style="fill:none;stroke:#e6e6e6;stroke-linecap:square;stroke-width:0.8;"/>
     </g>
     <g id="line2d_14">
      <defs>
       <path d="M 0 0 
L 3.5 0 
" id="m20955125e8" style="stroke:#000000;stroke-width:0.8;"/>
      </defs>
      <g>
       <use style="stroke:#000000;stroke-width:0.8;" x="76.8375" xlink:href="#m20955125e8" y="425.593636"/>
      </g>
     </g>
     <g id="text_7">
      <!-- 0.0 -->
      <defs>
       <path d="M 10.6875 12.40625 
L 21 12.40625 
L 21 0 
L 10.6875 0 
z
" id="DejaVuSans-46"/>
      </defs>
      <g transform="translate(49.482812 431.292464)scale(0.15 -0.15)">
       <use xlink:href="#DejaVuSans-48"/>
       <use x="63.623047" xlink:href="#DejaVuSans-46"/>
       <use x="95.410156" xlink:href="#DejaVuSans-48"/>
      </g>
     </g>
    </g>
    <g id="ytick_2">
     <g id="line2d_15">
      <path clip-path="url(#p86b7b0a822)" d="M 76.8375 355.148182 
L 496.8825 355.148182 
" style="fill:none;stroke:#e6e6e6;stroke-linecap:square;stroke-width:0.8;"/>
     </g>
     <g id="line2d_16">
      <g>
       <use style="stroke:#000000;stroke-width:0.8;" x="76.8375" xlink:href="#m20955125e8" y="355.148182"/>
      </g>
     </g>
     <g id="text_8">
      <!-- 0.2 -->
      <g transform="translate(49.482812 360.84701)scale(0.15 -0.15)">
       <use xlink:href="#DejaVuSans-48"/>
       <use x="63.623047" xlink:href="#DejaVuSans-46"/>
       <use x="95.410156" xlink:href="#DejaVuSans-50"/>
      </g>
     </g>
    </g>
    <g id="ytick_3">
     <g id="line2d_17">
      <path clip-path="url(#p86b7b0a822)" d="M 76.8375 284.702727 
L 496.8825 284.702727 
" style="fill:none;stroke:#e6e6e6;stroke-linecap:square;stroke-width:0.8;"/>
     </g>
     <g id="line2d_18">
      <g>
       <use style="stroke:#000000;stroke-width:0.8;" x="76.8375" xlink:href="#m20955125e8" y="284.702727"/>
      </g>
     </g>
     <g id="text_9">
      <!-- 0.4 -->
      <g transform="translate(49.482812 290.401555)scale(0.15 -0.15)">
       <use xlink:href="#DejaVuSans-48"/>
       <use x="63.623047" xlink:href="#DejaVuSans-46"/>
       <use x="95.410156" xlink:href="#DejaVuSans-52"/>
      </g>
     </g>
    </g>
    <g id="ytick_4">
     <g id="line2d_19">
      <path clip-path="url(#p86b7b0a822)" d="M 76.8375 214.257273 
L 496.8825 214.257273 
" style="fill:none;stroke:#e6e6e6;stroke-linecap:square;stroke-width:0.8;"/>
     </g>
     <g id="line2d_20">
      <g>
       <use style="stroke:#000000;stroke-width:0.8;" x="76.8375" xlink:href="#m20955125e8" y="214.257273"/>
      </g>
     </g>
     <g id="text_10">
      <!-- 0.6 -->
      <g transform="translate(49.482812 219.956101)scale(0.15 -0.15)">
       <use xlink:href="#DejaVuSans-48"/>
       <use x="63.623047" xlink:href="#DejaVuSans-46"/>
       <use x="95.410156" xlink:href="#DejaVuSans-54"/>
      </g>
     </g>
    </g>
    <g id="ytick_5">
     <g id="line2d_21">
      <path clip-path="url(#p86b7b0a822)" d="M 76.8375 143.811818 
L 496.8825 143.811818 
" style="fill:none;stroke:#e6e6e6;stroke-linecap:square;stroke-width:0.8;"/>
     </g>
     <g id="line2d_22">
      <g>
       <use style="stroke:#000000;stroke-width:0.8;" x="76.8375" xlink:href="#m20955125e8" y="143.811818"/>
      </g>
     </g>
     <g id="text_11">
      <!-- 0.8 -->
      <g transform="translate(49.482812 149.510646)scale(0.15 -0.15)">
       <use xlink:href="#DejaVuSans-48"/>
       <use x="63.623047" xlink:href="#DejaVuSans-46"/>
       <use x="95.410156" xlink:href="#DejaVuSans-56"/>
      </g>
     </g>
    </g>
    <g id="ytick_6">
     <g id="line2d_23">
      <path clip-path="url(#p86b7b0a822)" d="M 76.8375 73.366364 
L 496.8825 73.366364 
" style="fill:none;stroke:#e6e6e6;stroke-linecap:square;stroke-width:0.8;"/>
     </g>
     <g id="line2d_24">
      <g>
       <use style="stroke:#000000;stroke-width:0.8;" x="76.8375" xlink:href="#m20955125e8" y="73.366364"/>
      </g>
     </g>
     <g id="text_12">
      <!-- 1.0 -->
      <g transform="translate(49.482812 79.065192)scale(0.15 -0.15)">
       <use xlink:href="#DejaVuSans-49"/>
       <use x="63.623047" xlink:href="#DejaVuSans-46"/>
       <use x="95.410156" xlink:href="#DejaVuSans-48"/>
      </g>
     </g>
    </g>
   </g>
   <g id="line2d_25">
    <path clip-path="url(#p86b7b0a822)" d="M 113.287686 73.366364 
L 116.794197 107.206986 
L 120.300709 137.796332 
L 123.80722 165.446774 
L 127.313732 190.44067 
L 130.820243 213.033249 
L 134.326754 233.455222 
L 137.833266 251.915131 
L 141.339777 268.601484 
L 144.846289 283.684677 
L 148.3528 297.318736 
L 151.859311 309.642888 
L 155.365823 320.782983 
L 158.872334 330.852782 
L 162.378845 339.955114 
L 165.885357 348.182929 
L 169.391868 355.620247 
L 172.89838 362.343018 
L 176.404891 368.41989 
L 179.911402 373.912921 
L 183.417914 378.878202 
L 186.924425 383.366439 
L 190.430937 387.423463 
L 193.937448 391.090704 
L 197.443959 394.405611 
L 200.950471 397.402035 
L 204.456982 400.110574 
L 207.963494 402.558887 
L 211.470005 404.771976 
L 214.976516 406.77244 
L 218.483028 408.580707 
L 221.989539 410.215243 
L 225.496051 411.692739 
L 229.002562 413.028283 
L 232.509073 414.235513 
L 236.015585 415.326757 
L 239.522096 416.313159 
L 243.028608 417.204791 
L 246.535119 418.010759 
L 250.04163 418.739292 
L 253.548142 419.397831 
L 257.054653 419.993099 
L 260.561165 420.531177 
L 264.067676 421.017558 
L 267.574187 421.45721 
L 271.080699 421.854622 
L 274.58721 422.213852 
L 278.093722 422.538568 
L 281.600233 422.832087 
L 285.106744 423.097406 
L 288.613256 423.337234 
L 292.119767 423.554021 
L 295.626278 423.749979 
L 299.13279 423.92711 
L 302.639301 424.087224 
L 306.145813 424.231954 
L 309.652324 424.362779 
L 313.158835 424.481035 
L 316.665347 424.587929 
L 320.171858 424.684554 
L 323.67837 424.771895 
L 327.184881 424.850845 
L 330.691392 424.922209 
L 334.197904 424.986717 
L 337.704415 425.045028 
L 341.210927 425.097736 
L 344.717438 425.14538 
L 348.223949 425.188447 
L 351.730461 425.227376 
L 355.236972 425.262565 
L 358.743484 425.294373 
L 362.249995 425.323125 
L 365.756506 425.349115 
L 369.263018 425.372607 
L 372.769529 425.393843 
L 376.276041 425.413038 
L 379.782552 425.430389 
L 383.289063 425.446074 
L 386.795575 425.460251 
L 390.302086 425.473066 
L 393.808598 425.48465 
L 397.315109 425.495121 
L 400.82162 425.504586 
L 404.328132 425.513141 
L 407.834643 425.520875 
L 411.341155 425.527866 
L 414.847666 425.534185 
L 418.354177 425.539897 
L 421.860689 425.54506 
L 425.3672 425.549727 
L 428.873711 425.553945 
L 432.380223 425.557759 
L 435.886734 425.561206 
L 439.393246 425.564322 
L 442.899757 425.567138 
L 446.406268 425.569684 
L 449.91278 425.571985 
L 453.419291 425.574065 
L 456.925803 425.575946 
L 460.432314 425.577645 
" style="fill:none;stroke:#ff0000;stroke-linecap:square;stroke-width:2;"/>
   </g>
   <g id="line2d_26">
    <path clip-path="url(#p86b7b0a822)" d="M 113.287686 425.593636 
L 116.794197 393.433369 
L 120.300709 367.452767 
L 123.80722 346.761254 
L 127.313732 330.582337 
L 130.820243 318.239905 
L 134.326754 309.146112 
L 137.833266 302.790653 
L 141.339777 298.731291 
L 144.846289 296.585492 
L 148.3528 296.02303 
L 151.859311 296.759472 
L 155.365823 298.550421 
L 158.872334 301.186454 
L 162.378845 304.488655 
L 165.885357 308.304685 
L 169.391868 312.505331 
L 172.89838 316.981463 
L 176.404891 321.641371 
L 179.911402 326.408424 
L 183.417914 331.219022 
L 186.924425 336.020793 
L 190.430937 340.771029 
L 193.937448 345.43531 
L 197.443959 349.986303 
L 200.950471 354.402724 
L 204.456982 358.668423 
L 207.963494 362.771594 
L 211.470005 366.704092 
L 214.976516 370.460839 
L 218.483028 374.039305 
L 221.989539 377.439071 
L 225.496051 380.661443 
L 229.002562 383.709125 
L 232.509073 386.58594 
L 236.015585 389.296589 
L 239.522096 391.846446 
L 243.028608 394.241386 
L 246.535119 396.487641 
L 250.04163 398.591673 
L 253.548142 400.560077 
L 257.054653 402.399493 
L 260.561165 404.116536 
L 264.067676 405.717742 
L 267.574187 407.20952 
L 271.080699 408.598116 
L 274.58721 409.889587 
L 278.093722 411.089778 
L 281.600233 412.204308 
L 285.106744 413.238558 
L 288.613256 414.197666 
L 292.119767 415.086524 
L 295.626278 415.909779 
L 299.13279 416.67183 
L 302.639301 417.376839 
L 306.145813 418.028734 
L 309.652324 418.631211 
L 313.158835 419.18775 
L 316.665347 419.701616 
L 320.171858 420.175871 
L 323.67837 420.613385 
L 327.184881 421.016839 
L 330.691392 421.388739 
L 334.197904 421.731424 
L 337.704415 422.047075 
L 341.210927 422.337724 
L 344.717438 422.605261 
L 348.223949 422.851444 
L 351.730461 423.077907 
L 355.236972 423.286167 
L 358.743484 423.477631 
L 362.249995 423.653604 
L 365.756506 423.815296 
L 369.263018 423.963826 
L 372.769529 424.10023 
L 376.276041 424.225469 
L 379.782552 424.340427 
L 383.289063 424.445925 
L 386.795575 424.54272 
L 390.302086 424.631509 
L 393.808598 424.712938 
L 397.315109 424.787601 
L 400.82162 424.856046 
L 404.328132 424.91878 
L 407.834643 424.976268 
L 411.341155 425.028939 
L 414.847666 425.077188 
L 418.354177 425.121378 
L 421.860689 425.161844 
L 425.3672 425.198894 
L 428.873711 425.23281 
L 432.380223 425.263853 
L 435.886734 425.292261 
L 439.393246 425.318255 
L 442.899757 425.342036 
L 446.406268 425.363789 
L 449.91278 425.383685 
L 453.419291 425.401879 
L 456.925803 425.418516 
L 460.432314 425.433725 
" style="fill:none;stroke:#008000;stroke-linecap:square;stroke-width:2;"/>
   </g>
   <g id="line2d_27">
    <path clip-path="url(#p86b7b0a822)" d="M 113.287686 425.593636 
L 116.794197 423.913282 
L 120.300709 419.304537 
L 123.80722 412.345608 
L 127.313732 403.53063 
L 130.820243 393.280482 
L 134.326754 381.952302 
L 137.833266 369.847853 
L 141.339777 357.220862 
L 144.846289 344.283467 
L 148.3528 331.21187 
L 151.859311 318.151277 
L 155.365823 305.220232 
L 158.872334 292.5144 
L 162.378845 280.109868 
L 165.885357 268.066022 
L 169.391868 256.428058 
L 172.89838 245.229156 
L 176.404891 234.492376 
L 179.911402 224.232291 
L 183.417914 214.456413 
L 186.924425 205.166405 
L 190.430937 196.359144 
L 193.937448 188.027622 
L 197.443959 180.161722 
L 200.950471 172.748877 
L 204.456982 165.77464 
L 207.963494 159.223155 
L 211.470005 153.077568 
L 214.976516 147.320357 
L 218.483028 141.933624 
L 221.989539 136.899322 
L 225.496051 132.199454 
L 229.002562 127.816228 
L 232.509073 123.732183 
L 236.015585 119.93029 
L 239.522096 116.394032 
L 243.028608 113.107459 
L 246.535119 110.055237 
L 250.04163 107.222671 
L 253.548142 104.595728 
L 257.054653 102.161044 
L 260.561165 99.905923 
L 264.067676 97.818336 
L 267.574187 95.886906 
L 271.080699 94.100899 
L 274.58721 92.450198 
L 278.093722 90.92529 
L 281.600233 89.517242 
L 285.106744 88.217673 
L 288.613256 87.018736 
L 292.119767 85.913091 
L 295.626278 84.893879 
L 299.13279 83.954696 
L 302.639301 83.089573 
L 306.145813 82.292949 
L 309.652324 81.559647 
L 313.158835 80.884852 
L 316.665347 80.264091 
L 320.171858 79.693211 
L 323.67837 79.168357 
L 327.184881 78.685953 
L 330.691392 78.242689 
L 334.197904 77.835495 
L 337.704415 77.461534 
L 341.210927 77.118177 
L 344.717438 76.802996 
L 348.223949 76.513746 
L 351.730461 76.248353 
L 355.236972 76.004905 
L 358.743484 75.781633 
L 362.249995 75.576907 
L 365.756506 75.389226 
L 369.263018 75.217204 
L 372.769529 75.059563 
L 376.276041 74.915129 
L 379.782552 74.78282 
L 383.289063 74.661637 
L 386.795575 74.550666 
L 390.302086 74.449062 
L 393.808598 74.356049 
L 397.315109 74.270915 
L 400.82162 74.193004 
L 404.328132 74.121715 
L 407.834643 74.056493 
L 411.341155 73.996832 
L 414.847666 73.942264 
L 418.354177 73.892362 
L 421.860689 73.846733 
L 425.3672 73.805016 
L 428.873711 73.766881 
L 432.380223 73.732025 
L 435.886734 73.70017 
L 439.393246 73.67106 
L 442.899757 73.644462 
L 446.406268 73.620163 
L 449.91278 73.597966 
L 453.419291 73.577692 
L 456.925803 73.559175 
L 460.432314 73.542266 
" style="fill:none;stroke:#0000ff;stroke-linecap:square;stroke-width:2;"/>
   </g>
   <g id="line2d_28">
    <path clip-path="url(#p86b7b0a822)" d="M 113.287686 73.366364 
L 116.794197 73.366364 
L 120.300709 73.366364 
L 123.80722 73.366364 
L 127.313732 73.366364 
L 130.820243 73.366364 
L 134.326754 73.366364 
L 137.833266 73.366364 
L 141.339777 73.366364 
L 144.846289 73.366364 
L 148.3528 73.366364 
L 151.859311 73.366364 
L 155.365823 73.366364 
L 158.872334 73.366364 
L 162.378845 73.366364 
L 165.885357 73.366364 
L 169.391868 73.366364 
L 172.89838 73.366364 
L 176.404891 73.366364 
L 179.911402 73.366364 
L 183.417914 73.366364 
L 186.924425 73.366364 
L 190.430937 73.366364 
L 193.937448 73.366364 
L 197.443959 73.366364 
L 200.950471 73.366364 
L 204.456982 73.366364 
L 207.963494 73.366364 
L 211.470005 73.366364 
L 214.976516 73.366364 
L 218.483028 73.366364 
L 221.989539 73.366364 
L 225.496051 73.366364 
L 229.002562 73.366364 
L 232.509073 73.366364 
L 236.015585 73.366364 
L 239.522096 73.366364 
L 243.028608 73.366364 
L 246.535119 73.366364 
L 250.04163 73.366364 
L 253.548142 73.366364 
L 257.054653 73.366364 
L 260.561165 73.366364 
L 264.067676 73.366364 
L 267.574187 73.366364 
L 271.080699 73.366364 
L 274.58721 73.366364 
L 278.093722 73.366364 
L 281.600233 73.366364 
L 285.106744 73.366364 
L 288.613256 73.366364 
L 292.119767 73.366364 
L 295.626278 73.366364 
L 299.13279 73.366364 
L 302.639301 73.366364 
L 306.145813 73.366364 
L 309.652324 73.366364 
L 313.158835 73.366364 
L 316.665347 73.366364 
L 320.171858 73.366364 
L 323.67837 73.366364 
L 327.184881 73.366364 
L 330.691392 73.366364 
L 334.197904 73.366364 
L 337.704415 73.366364 
L 341.210927 73.366364 
L 344.717438 73.366364 
L 348.223949 73.366364 
L 351.730461 73.366364 
L 355.236972 73.366364 
L 358.743484 73.366364 
L 362.249995 73.366364 
L 365.756506 73.366364 
L 369.263018 73.366364 
L 372.769529 73.366364 
L 376.276041 73.366364 
L 379.782552 73.366364 
L 383.289063 73.366364 
L 386.795575 73.366364 
L 390.302086 73.366364 
L 393.808598 73.366364 
L 397.315109 73.366364 
L 400.82162 73.366364 
L 404.328132 73.366364 
L 407.834643 73.366364 
L 411.341155 73.366364 
L 414.847666 73.366364 
L 418.354177 73.366364 
L 421.860689 73.366364 
L 425.3672 73.366364 
L 428.873711 73.366364 
L 432.380223 73.366364 
L 435.886734 73.366364 
L 439.393246 73.366364 
L 442.899757 73.366364 
L 446.406268 73.366364 
L 449.91278 73.366364 
L 453.419291 73.366364 
L 456.925803 73.366364 
L 460.432314 73.366364 
" style="fill:none;stroke:#000000;stroke-linecap:square;stroke-width:2;"/>
   </g>
   <g id="patch_3">
    <path d="M 76.8375 462.5775 
L 76.8375 36.3825 
" style="fill:none;stroke:#000000;stroke-linecap:square;stroke-linejoin:miter;stroke-width:0.8;"/>
   </g>
   <g id="patch_4">
    <path d="M 496.8825 462.5775 
L 496.8825 36.3825 
" style="fill:none;stroke:#000000;stroke-linecap:square;stroke-linejoin:miter;stroke-width:0.8;"/>
   </g>
   <g id="patch_5">
    <path d="M 76.8375 462.5775 
L 496.8825 462.5775 
" style="fill:none;stroke:#000000;stroke-linecap:square;stroke-linejoin:miter;stroke-width:0.8;"/>
   </g>
   <g id="patch_6">
    <path d="M 76.8375 36.3825 
L 496.8825 36.3825 
" style="fill:none;stroke:#000000;stroke-linecap:square;stroke-linejoin:miter;stroke-width:0.8;"/>
   </g>
   <g id="legend_1">
    <g id="patch_7">
     <path d="M 352.6325 308.300313 
L 479.3825 308.300313 
Q 484.3825 308.300313 484.3825 303.300313 
L 484.3825 195.659688 
Q 484.3825 190.659688 479.3825 190.659688 
L 352.6325 190.659688 
Q 347.6325 190.659688 347.6325 195.659688 
L 347.6325 303.300313 
Q 347.6325 308.300313 352.6325 308.300313 
z
" style="fill:#ffffff;opacity:0.8;stroke:#cccccc;stroke-linejoin:miter;"/>
    </g>
    <g id="line2d_29">
     <path d="M 357.6325 210.905781 
L 407.6325 210.905781 
" style="fill:none;stroke:#ff0000;stroke-linecap:square;stroke-width:2;"/>
    </g>
    <g id="line2d_30"/>
    <g id="text_13">
     <!-- $coh$ -->
     <defs>
      <path d="M 53.609375 52.59375 
L 51.8125 43.703125 
Q 48.578125 46.046875 44.9375 47.21875 
Q 41.3125 48.390625 37.40625 48.390625 
Q 33.109375 48.390625 29.21875 46.875 
Q 25.34375 45.359375 22.703125 42.578125 
Q 18.5 38.328125 16.203125 32.609375 
Q 13.921875 26.90625 13.921875 20.796875 
Q 13.921875 13.421875 17.609375 9.8125 
Q 21.296875 6.203125 28.8125 6.203125 
Q 32.515625 6.203125 36.6875 7.328125 
Q 40.875 8.453125 45.40625 10.6875 
L 43.703125 1.8125 
Q 39.796875 0.203125 35.671875 -0.609375 
Q 31.546875 -1.421875 27.203125 -1.421875 
Q 16.3125 -1.421875 10.453125 4.015625 
Q 4.59375 9.46875 4.59375 19.578125 
Q 4.59375 28.078125 7.640625 35.234375 
Q 10.6875 42.390625 16.703125 48.09375 
Q 20.796875 52 26.3125 54 
Q 31.84375 56 38.375 56 
Q 42.1875 56 45.9375 55.140625 
Q 49.703125 54.296875 53.609375 52.59375 
z
" id="DejaVuSans-Oblique-99"/>
      <path d="M 25.390625 -1.421875 
Q 15.765625 -1.421875 10.171875 4.515625 
Q 4.59375 10.453125 4.59375 20.703125 
Q 4.59375 26.65625 6.515625 32.828125 
Q 8.453125 39.015625 11.53125 43.21875 
Q 16.359375 49.75 22.3125 52.875 
Q 28.265625 56 35.796875 56 
Q 45.125 56 50.859375 50.1875 
Q 56.59375 44.390625 56.59375 35.015625 
Q 56.59375 28.515625 54.6875 22.0625 
Q 52.78125 15.625 49.703125 11.375 
Q 44.921875 4.828125 38.96875 1.703125 
Q 33.015625 -1.421875 25.390625 -1.421875 
z
M 13.921875 21 
Q 13.921875 13.578125 17.015625 9.890625 
Q 20.125 6.203125 26.421875 6.203125 
Q 35.453125 6.203125 41.375 14.078125 
Q 47.3125 21.96875 47.3125 34.078125 
Q 47.3125 41.15625 44.140625 44.765625 
Q 40.96875 48.390625 34.8125 48.390625 
Q 29.734375 48.390625 25.78125 46.015625 
Q 21.828125 43.65625 18.703125 38.8125 
Q 16.40625 35.203125 15.15625 30.5625 
Q 13.921875 25.921875 13.921875 21 
z
" id="DejaVuSans-Oblique-111"/>
      <path d="M 55.71875 33.015625 
L 49.3125 0 
L 40.28125 0 
L 46.6875 32.671875 
Q 47.125 34.96875 47.359375 36.71875 
Q 47.609375 38.484375 47.609375 39.5 
Q 47.609375 43.609375 45.015625 45.890625 
Q 42.4375 48.1875 37.796875 48.1875 
Q 30.5625 48.1875 25.265625 43.296875 
Q 19.96875 38.421875 18.40625 30.328125 
L 12.5 0 
L 3.515625 0 
L 18.3125 75.984375 
L 27.296875 75.984375 
L 21.484375 46.09375 
Q 24.90625 50.6875 30.21875 53.34375 
Q 35.546875 56 41.40625 56 
Q 48.640625 56 52.609375 52.09375 
Q 56.59375 48.1875 56.59375 41.109375 
Q 56.59375 39.359375 56.375 37.359375 
Q 56.15625 35.359375 55.71875 33.015625 
z
" id="DejaVuSans-Oblique-104"/>
     </defs>
     <g transform="translate(427.6325 219.655781)scale(0.25 -0.25)">
      <use transform="translate(0 0.015625)" xlink:href="#DejaVuSans-Oblique-99"/>
      <use transform="translate(54.980469 0.015625)" xlink:href="#DejaVuSans-Oblique-111"/>
      <use transform="translate(116.162109 0.015625)" xlink:href="#DejaVuSans-Oblique-104"/>
     </g>
    </g>
    <g id="line2d_31">
     <path d="M 357.6325 247.601094 
L 407.6325 247.601094 
" style="fill:none;stroke:#008000;stroke-linecap:square;stroke-width:2;"/>
    </g>
    <g id="line2d_32"/>
    <g id="text_14">
     <!-- $kin$ -->
     <defs>
      <path d="M 18.3125 75.984375 
L 27.296875 75.984375 
L 18.703125 31.6875 
L 49.515625 54.6875 
L 61.1875 54.6875 
L 26.8125 28.515625 
L 51.90625 0 
L 41.015625 0 
L 17.671875 26.703125 
L 12.5 0 
L 3.515625 0 
z
" id="DejaVuSans-Oblique-107"/>
      <path d="M 18.3125 75.984375 
L 27.296875 75.984375 
L 25.09375 64.59375 
L 16.109375 64.59375 
z
M 14.203125 54.6875 
L 23.1875 54.6875 
L 12.5 0 
L 3.515625 0 
z
" id="DejaVuSans-Oblique-105"/>
      <path d="M 55.71875 33.015625 
L 49.3125 0 
L 40.28125 0 
L 46.6875 32.671875 
Q 47.125 34.96875 47.359375 36.71875 
Q 47.609375 38.484375 47.609375 39.5 
Q 47.609375 43.609375 45.015625 45.890625 
Q 42.4375 48.1875 37.796875 48.1875 
Q 30.5625 48.1875 25.34375 43.375 
Q 20.125 38.578125 18.5 30.328125 
L 12.5 0 
L 3.515625 0 
L 14.109375 54.6875 
L 23.09375 54.6875 
L 21.296875 46.09375 
Q 25.046875 50.828125 30.3125 53.40625 
Q 35.59375 56 41.40625 56 
Q 48.640625 56 52.609375 52.09375 
Q 56.59375 48.1875 56.59375 41.109375 
Q 56.59375 39.359375 56.375 37.359375 
Q 56.15625 35.359375 55.71875 33.015625 
z
" id="DejaVuSans-Oblique-110"/>
     </defs>
     <g transform="translate(427.6325 256.351094)scale(0.25 -0.25)">
      <use transform="translate(0 0.015625)" xlink:href="#DejaVuSans-Oblique-107"/>
      <use transform="translate(57.910156 0.015625)" xlink:href="#DejaVuSans-Oblique-105"/>
      <use transform="translate(85.693359 0.015625)" xlink:href="#DejaVuSans-Oblique-110"/>
     </g>
    </g>
    <g id="line2d_33">
     <path d="M 357.6325 284.300313 
L 407.6325 284.300313 
" style="fill:none;stroke:#0000ff;stroke-linecap:square;stroke-width:2;"/>
    </g>
    <g id="line2d_34"/>
    <g id="text_15">
     <!-- $dyn$ -->
     <defs>
      <path d="M 41.796875 8.203125 
Q 38.1875 3.46875 33.25 1.015625 
Q 28.328125 -1.421875 22.3125 -1.421875 
Q 14.109375 -1.421875 9.34375 4.171875 
Q 4.59375 9.765625 4.59375 19.484375 
Q 4.59375 27.59375 7.46875 34.9375 
Q 10.359375 42.28125 15.828125 48.09375 
Q 19.4375 51.953125 23.96875 53.96875 
Q 28.515625 56 33.5 56 
Q 38.765625 56 42.796875 53.453125 
Q 46.828125 50.921875 49.03125 46.1875 
L 54.890625 75.984375 
L 63.921875 75.984375 
L 49.125 0 
L 40.09375 0 
z
M 13.921875 21.09375 
Q 13.921875 14.015625 17.109375 10.0625 
Q 20.3125 6.109375 25.984375 6.109375 
Q 30.171875 6.109375 33.765625 8.125 
Q 37.359375 10.15625 40.09375 14.109375 
Q 42.96875 18.21875 44.625 23.578125 
Q 46.296875 28.953125 46.296875 34.1875 
Q 46.296875 40.96875 43.09375 44.765625 
Q 39.890625 48.578125 34.28125 48.578125 
Q 30.03125 48.578125 26.359375 46.578125 
Q 22.703125 44.578125 20.125 40.828125 
Q 17.28125 36.765625 15.59375 31.390625 
Q 13.921875 26.03125 13.921875 21.09375 
z
" id="DejaVuSans-Oblique-100"/>
      <path d="M 24.8125 -5.078125 
Q 18.5625 -15.578125 14.625 -18.1875 
Q 10.6875 -20.796875 4.59375 -20.796875 
L -2.484375 -20.796875 
L -0.984375 -13.28125 
L 4.203125 -13.28125 
Q 7.953125 -13.28125 10.59375 -11.234375 
Q 13.234375 -9.1875 16.5 -3.21875 
L 19.28125 2 
L 7.171875 54.6875 
L 16.703125 54.6875 
L 25.78125 12.796875 
L 50.875 54.6875 
L 60.296875 54.6875 
z
" id="DejaVuSans-Oblique-121"/>
     </defs>
     <g transform="translate(427.6325 293.050313)scale(0.25 -0.25)">
      <use transform="translate(0 0.015625)" xlink:href="#DejaVuSans-Oblique-100"/>
      <use transform="translate(63.476562 0.015625)" xlink:href="#DejaVuSans-Oblique-121"/>
      <use transform="translate(122.65625 0.015625)" xlink:href="#DejaVuSans-Oblique-110"/>
     </g>
    </g>
   </g>
  </g>
 </g>
 <defs>
  <clipPath id="p86b7b0a822">
   <rect height="426.195" width="420.045" x="76.8375" y="36.3825"/>
  </clipPath>
 </defs>
</svg>
