<?xml version="1.0" encoding="utf-8" standalone="no"?>
<!DOCTYPE svg PUBLIC "-//W3C//DTD SVG 1.1//EN"
  "http://www.w3.org/Graphics/SVG/1.1/DTD/svg11.dtd">
<!-- Created with matplotlib (https://matplotlib.org/) -->
<svg height="576pt" version="1.1" viewBox="0 0 512.25 576" width="512.25pt" xmlns="http://www.w3.org/2000/svg" xmlns:xlink="http://www.w3.org/1999/xlink">
 <defs>
  <style type="text/css">
*{stroke-linecap:butt;stroke-linejoin:round;}
  </style>
 </defs>
 <g id="figure_1">
  <g id="patch_1">
   <path d="M 0 576 
L 512.25 576 
L 512.25 0 
L 0 0 
z
" style="fill:#ffffff;"/>
  </g>
  <g id="axes_1">
   <g id="patch_2">
    <path d="M 76.8375 512.64 
L 496.8825 512.64 
L 496.8825 40.32 
L 76.8375 40.32 
z
" style="fill:#ffffff;"/>
   </g>
   <g id="matplotlib.axis_1">
    <g id="xtick_1">
     <g id="line2d_1">
      <path clip-path="url(#p38fd78f2b8)" d="M 76.8375 512.64 
L 76.8375 40.32 
" style="fill:none;stroke:#e6e6e6;stroke-linecap:square;stroke-width:0.8;"/>
     </g>
     <g id="line2d_2">
      <defs>
       <path d="M 0 0 
L 0 -3.5 
" id="m10d234014c" style="stroke:#000000;stroke-width:0.8;"/>
      </defs>
      <g>
       <use style="stroke:#000000;stroke-width:0.8;" x="76.8375" xlink:href="#m10d234014c" y="512.64"/>
      </g>
     </g>
     <g id="text_1">
      <!-- −2.0 -->
      <defs>
       <path d="M 10.59375 35.5 
L 73.1875 35.5 
L 73.1875 27.203125 
L 10.59375 27.203125 
z
" id="DejaVuSans-8722"/>
       <path d="M 19.1875 8.296875 
L 53.609375 8.296875 
L 53.609375 0 
L 7.328125 0 
L 7.328125 8.296875 
Q 12.9375 14.109375 22.625 23.890625 
Q 32.328125 33.6875 34.8125 36.53125 
Q 39.546875 41.84375 41.421875 45.53125 
Q 43.3125 49.21875 43.3125 52.78125 
Q 43.3125 58.59375 39.234375 62.25 
Q 35.15625 65.921875 28.609375 65.921875 
Q 23.96875 65.921875 18.8125 64.3125 
Q 13.671875 62.703125 7.8125 59.421875 
L 7.8125 69.390625 
Q 13.765625 71.78125 18.9375 73 
Q 24.125 74.21875 28.421875 74.21875 
Q 39.75 74.21875 46.484375 68.546875 
Q 53.21875 62.890625 53.21875 53.421875 
Q 53.21875 48.921875 51.53125 44.890625 
Q 49.859375 40.875 45.40625 35.40625 
Q 44.1875 33.984375 37.640625 27.21875 
Q 31.109375 20.453125 19.1875 8.296875 
z
" id="DejaVuSans-50"/>
       <path d="M 10.6875 12.40625 
L 21 12.40625 
L 21 0 
L 10.6875 0 
z
" id="DejaVuSans-46"/>
       <path d="M 31.78125 66.40625 
Q 24.171875 66.40625 20.328125 58.90625 
Q 16.5 51.421875 16.5 36.375 
Q 16.5 21.390625 20.328125 13.890625 
Q 24.171875 6.390625 31.78125 6.390625 
Q 39.453125 6.390625 43.28125 13.890625 
Q 47.125 21.390625 47.125 36.375 
Q 47.125 51.421875 43.28125 58.90625 
Q 39.453125 66.40625 31.78125 66.40625 
z
M 31.78125 74.21875 
Q 44.046875 74.21875 50.515625 64.515625 
Q 56.984375 54.828125 56.984375 36.375 
Q 56.984375 17.96875 50.515625 8.265625 
Q 44.046875 -1.421875 31.78125 -1.421875 
Q 19.53125 -1.421875 13.0625 8.265625 
Q 6.59375 17.96875 6.59375 36.375 
Q 6.59375 54.828125 13.0625 64.515625 
Q 19.53125 74.21875 31.78125 74.21875 
z
" id="DejaVuSans-48"/>
      </defs>
      <g transform="translate(58.625391 527.537656)scale(0.15 -0.15)">
       <use xlink:href="#DejaVuSans-8722"/>
       <use x="83.789062" xlink:href="#DejaVuSans-50"/>
       <use x="147.412109" xlink:href="#DejaVuSans-46"/>
       <use x="179.199219" xlink:href="#DejaVuSans-48"/>
      </g>
     </g>
    </g>
    <g id="xtick_2">
     <g id="line2d_3">
      <path clip-path="url(#p38fd78f2b8)" d="M 129.343125 512.64 
L 129.343125 40.32 
" style="fill:none;stroke:#e6e6e6;stroke-linecap:square;stroke-width:0.8;"/>
     </g>
     <g id="line2d_4">
      <g>
       <use style="stroke:#000000;stroke-width:0.8;" x="129.343125" xlink:href="#m10d234014c" y="512.64"/>
      </g>
     </g>
     <g id="text_2">
      <!-- −1.5 -->
      <defs>
       <path d="M 12.40625 8.296875 
L 28.515625 8.296875 
L 28.515625 63.921875 
L 10.984375 60.40625 
L 10.984375 69.390625 
L 28.421875 72.90625 
L 38.28125 72.90625 
L 38.28125 8.296875 
L 54.390625 8.296875 
L 54.390625 0 
L 12.40625 0 
z
" id="DejaVuSans-49"/>
       <path d="M 10.796875 72.90625 
L 49.515625 72.90625 
L 49.515625 64.59375 
L 19.828125 64.59375 
L 19.828125 46.734375 
Q 21.96875 47.46875 24.109375 47.828125 
Q 26.265625 48.1875 28.421875 48.1875 
Q 40.625 48.1875 47.75 41.5 
Q 54.890625 34.8125 54.890625 23.390625 
Q 54.890625 11.625 47.5625 5.09375 
Q 40.234375 -1.421875 26.90625 -1.421875 
Q 22.3125 -1.421875 17.546875 -0.640625 
Q 12.796875 0.140625 7.71875 1.703125 
L 7.71875 11.625 
Q 12.109375 9.234375 16.796875 8.0625 
Q 21.484375 6.890625 26.703125 6.890625 
Q 35.15625 6.890625 40.078125 11.328125 
Q 45.015625 15.765625 45.015625 23.390625 
Q 45.015625 31 40.078125 35.4375 
Q 35.15625 39.890625 26.703125 39.890625 
Q 22.75 39.890625 18.8125 39.015625 
Q 14.890625 38.140625 10.796875 36.28125 
z
" id="DejaVuSans-53"/>
      </defs>
      <g transform="translate(111.131016 527.537656)scale(0.15 -0.15)">
       <use xlink:href="#DejaVuSans-8722"/>
       <use x="83.789062" xlink:href="#DejaVuSans-49"/>
       <use x="147.412109" xlink:href="#DejaVuSans-46"/>
       <use x="179.199219" xlink:href="#DejaVuSans-53"/>
      </g>
     </g>
    </g>
    <g id="xtick_3">
     <g id="line2d_5">
      <path clip-path="url(#p38fd78f2b8)" d="M 181.84875 512.64 
L 181.84875 40.32 
" style="fill:none;stroke:#e6e6e6;stroke-linecap:square;stroke-width:0.8;"/>
     </g>
     <g id="line2d_6">
      <g>
       <use style="stroke:#000000;stroke-width:0.8;" x="181.84875" xlink:href="#m10d234014c" y="512.64"/>
      </g>
     </g>
     <g id="text_3">
      <!-- −1.0 -->
      <g transform="translate(163.636641 527.537656)scale(0.15 -0.15)">
       <use xlink:href="#DejaVuSans-8722"/>
       <use x="83.789062" xlink:href="#DejaVuSans-49"/>
       <use x="147.412109" xlink:href="#DejaVuSans-46"/>
       <use x="179.199219" xlink:href="#DejaVuSans-48"/>
      </g>
     </g>
    </g>
    <g id="xtick_4">
     <g id="line2d_7">
      <path clip-path="url(#p38fd78f2b8)" d="M 234.354375 512.64 
L 234.354375 40.32 
" style="fill:none;stroke:#e6e6e6;stroke-linecap:square;stroke-width:0.8;"/>
     </g>
     <g id="line2d_8">
      <g>
       <use style="stroke:#000000;stroke-width:0.8;" x="234.354375" xlink:href="#m10d234014c" y="512.64"/>
      </g>
     </g>
     <g id="text_4">
      <!-- −0.5 -->
      <g transform="translate(216.142266 527.537656)scale(0.15 -0.15)">
       <use xlink:href="#DejaVuSans-8722"/>
       <use x="83.789062" xlink:href="#DejaVuSans-48"/>
       <use x="147.412109" xlink:href="#DejaVuSans-46"/>
       <use x="179.199219" xlink:href="#DejaVuSans-53"/>
      </g>
     </g>
    </g>
    <g id="xtick_5">
     <g id="line2d_9">
      <path clip-path="url(#p38fd78f2b8)" d="M 286.86 512.64 
L 286.86 40.32 
" style="fill:none;stroke:#e6e6e6;stroke-linecap:square;stroke-width:0.8;"/>
     </g>
     <g id="line2d_10">
      <g>
       <use style="stroke:#000000;stroke-width:0.8;" x="286.86" xlink:href="#m10d234014c" y="512.64"/>
      </g>
     </g>
     <g id="text_5">
      <!-- 0.0 -->
      <g transform="translate(274.932656 527.537656)scale(0.15 -0.15)">
       <use xlink:href="#DejaVuSans-48"/>
       <use x="63.623047" xlink:href="#DejaVuSans-46"/>
       <use x="95.410156" xlink:href="#DejaVuSans-48"/>
      </g>
     </g>
    </g>
    <g id="xtick_6">
     <g id="line2d_11">
      <path clip-path="url(#p38fd78f2b8)" d="M 339.365625 512.64 
L 339.365625 40.32 
" style="fill:none;stroke:#e6e6e6;stroke-linecap:square;stroke-width:0.8;"/>
     </g>
     <g id="line2d_12">
      <g>
       <use style="stroke:#000000;stroke-width:0.8;" x="339.365625" xlink:href="#m10d234014c" y="512.64"/>
      </g>
     </g>
     <g id="text_6">
      <!-- 0.5 -->
      <g transform="translate(327.438281 527.537656)scale(0.15 -0.15)">
       <use xlink:href="#DejaVuSans-48"/>
       <use x="63.623047" xlink:href="#DejaVuSans-46"/>
       <use x="95.410156" xlink:href="#DejaVuSans-53"/>
      </g>
     </g>
    </g>
    <g id="xtick_7">
     <g id="line2d_13">
      <path clip-path="url(#p38fd78f2b8)" d="M 391.87125 512.64 
L 391.87125 40.32 
" style="fill:none;stroke:#e6e6e6;stroke-linecap:square;stroke-width:0.8;"/>
     </g>
     <g id="line2d_14">
      <g>
       <use style="stroke:#000000;stroke-width:0.8;" x="391.87125" xlink:href="#m10d234014c" y="512.64"/>
      </g>
     </g>
     <g id="text_7">
      <!-- 1.0 -->
      <g transform="translate(379.943906 527.537656)scale(0.15 -0.15)">
       <use xlink:href="#DejaVuSans-49"/>
       <use x="63.623047" xlink:href="#DejaVuSans-46"/>
       <use x="95.410156" xlink:href="#DejaVuSans-48"/>
      </g>
     </g>
    </g>
    <g id="xtick_8">
     <g id="line2d_15">
      <path clip-path="url(#p38fd78f2b8)" d="M 444.376875 512.64 
L 444.376875 40.32 
" style="fill:none;stroke:#e6e6e6;stroke-linecap:square;stroke-width:0.8;"/>
     </g>
     <g id="line2d_16">
      <g>
       <use style="stroke:#000000;stroke-width:0.8;" x="444.376875" xlink:href="#m10d234014c" y="512.64"/>
      </g>
     </g>
     <g id="text_8">
      <!-- 1.5 -->
      <g transform="translate(432.449531 527.537656)scale(0.15 -0.15)">
       <use xlink:href="#DejaVuSans-49"/>
       <use x="63.623047" xlink:href="#DejaVuSans-46"/>
       <use x="95.410156" xlink:href="#DejaVuSans-53"/>
      </g>
     </g>
    </g>
    <g id="text_9">
     <!-- $q(\AA^{-1})$ -->
     <defs>
      <path d="M 41.703125 8.203125 
Q 38.09375 3.46875 33.171875 1.015625 
Q 28.265625 -1.421875 22.3125 -1.421875 
Q 14.015625 -1.421875 9.296875 4.171875 
Q 4.59375 9.765625 4.59375 19.578125 
Q 4.59375 27.484375 7.5 34.859375 
Q 10.40625 42.234375 15.828125 48.09375 
Q 19.34375 51.90625 23.90625 53.953125 
Q 28.46875 56 33.5 56 
Q 39.546875 56 43.453125 53.609375 
Q 47.359375 51.21875 49.125 46.390625 
L 50.6875 54.59375 
L 59.71875 54.59375 
L 45.125 -20.609375 
L 36.078125 -20.609375 
z
M 13.921875 20.90625 
Q 13.921875 13.671875 16.9375 9.890625 
Q 19.96875 6.109375 25.6875 6.109375 
Q 34.1875 6.109375 40.1875 14.234375 
Q 46.1875 22.359375 46.1875 33.984375 
Q 46.1875 41.015625 43.078125 44.75 
Q 39.984375 48.484375 34.1875 48.484375 
Q 29.9375 48.484375 26.3125 46.5 
Q 22.703125 44.53125 20.015625 40.71875 
Q 17.1875 36.71875 15.546875 31.34375 
Q 13.921875 25.984375 13.921875 20.90625 
z
" id="DejaVuSans-Oblique-113"/>
      <path d="M 31 75.875 
Q 24.46875 64.65625 21.28125 53.65625 
Q 18.109375 42.671875 18.109375 31.390625 
Q 18.109375 20.125 21.3125 9.0625 
Q 24.515625 -2 31 -13.1875 
L 23.1875 -13.1875 
Q 15.875 -1.703125 12.234375 9.375 
Q 8.59375 20.453125 8.59375 31.390625 
Q 8.59375 42.28125 12.203125 53.3125 
Q 15.828125 64.359375 23.1875 75.875 
z
" id="DejaVuSans-40"/>
      <path d="M 49.8125 79.390625 
Q 49.8125 82.46875 47.625 84.640625 
Q 45.453125 86.8125 42.390625 86.8125 
Q 39.265625 86.8125 37.140625 84.6875 
Q 35.015625 82.5625 35.015625 79.390625 
Q 35.015625 76.3125 37.140625 74.15625 
Q 39.265625 72.015625 42.390625 72.015625 
Q 45.453125 72.015625 47.625 74.15625 
Q 49.8125 76.3125 49.8125 79.390625 
z
M 34.421875 68.703125 
Q 31.78125 70.515625 30.390625 73.265625 
Q 29 76.03125 29 79.390625 
Q 29 84.96875 32.90625 88.890625 
Q 36.8125 92.828125 42.390625 92.828125 
Q 47.953125 92.828125 51.875 88.890625 
Q 55.8125 84.96875 55.8125 79.390625 
Q 55.8125 75.53125 54.03125 72.546875 
Q 52.25 69.578125 48.875 67.828125 
L 61.53125 0 
L 51.21875 0 
L 48.1875 18.703125 
L 15.375 18.703125 
L 5.078125 0 
L -5.328125 0 
z
M 40.375 63.1875 
L 19.921875 26.90625 
L 46.6875 26.90625 
z
" id="DejaVuSans-Oblique-197"/>
      <path d="M 8.015625 75.875 
L 15.828125 75.875 
Q 23.140625 64.359375 26.78125 53.3125 
Q 30.421875 42.28125 30.421875 31.390625 
Q 30.421875 20.453125 26.78125 9.375 
Q 23.140625 -1.703125 15.828125 -13.1875 
L 8.015625 -13.1875 
Q 14.5 -2 17.703125 9.0625 
Q 20.90625 20.125 20.90625 31.390625 
Q 20.90625 42.671875 17.703125 53.65625 
Q 14.5 64.65625 8.015625 75.875 
z
" id="DejaVuSans-41"/>
     </defs>
     <g transform="translate(246.11 557.907187)scale(0.25 -0.25)">
      <use transform="translate(0 0.171875)" xlink:href="#DejaVuSans-Oblique-113"/>
      <use transform="translate(63.476562 0.171875)" xlink:href="#DejaVuSans-40"/>
      <use transform="translate(102.490234 0.171875)" xlink:href="#DejaVuSans-Oblique-197"/>
      <use transform="translate(180.704271 38.453125)scale(0.7)" xlink:href="#DejaVuSans-8722"/>
      <use transform="translate(239.356615 38.453125)scale(0.7)" xlink:href="#DejaVuSans-49"/>
      <use transform="translate(286.627122 0.171875)" xlink:href="#DejaVuSans-41"/>
     </g>
    </g>
   </g>
   <g id="matplotlib.axis_2">
    <g id="ytick_1">
     <g id="line2d_17">
      <path clip-path="url(#p38fd78f2b8)" d="M 76.8375 512.64 
L 496.8825 512.64 
" style="fill:none;stroke:#e6e6e6;stroke-linecap:square;stroke-width:0.8;"/>
     </g>
     <g id="line2d_18">
      <defs>
       <path d="M 0 0 
L 3.5 0 
" id="m4e75d5fcde" style="stroke:#000000;stroke-width:0.8;"/>
      </defs>
      <g>
       <use style="stroke:#000000;stroke-width:0.8;" x="76.8375" xlink:href="#m4e75d5fcde" y="512.64"/>
      </g>
     </g>
     <g id="text_10">
      <!-- −10 -->
      <g transform="translate(41.680469 518.338828)scale(0.15 -0.15)">
       <use xlink:href="#DejaVuSans-8722"/>
       <use x="83.789062" xlink:href="#DejaVuSans-49"/>
       <use x="147.412109" xlink:href="#DejaVuSans-48"/>
      </g>
     </g>
    </g>
    <g id="ytick_2">
     <g id="line2d_19">
      <path clip-path="url(#p38fd78f2b8)" d="M 76.8375 449.664 
L 496.8825 449.664 
" style="fill:none;stroke:#e6e6e6;stroke-linecap:square;stroke-width:0.8;"/>
     </g>
     <g id="line2d_20">
      <g>
       <use style="stroke:#000000;stroke-width:0.8;" x="76.8375" xlink:href="#m4e75d5fcde" y="449.664"/>
      </g>
     </g>
     <g id="text_11">
      <!-- −8 -->
      <defs>
       <path d="M 31.78125 34.625 
Q 24.75 34.625 20.71875 30.859375 
Q 16.703125 27.09375 16.703125 20.515625 
Q 16.703125 13.921875 20.71875 10.15625 
Q 24.75 6.390625 31.78125 6.390625 
Q 38.8125 6.390625 42.859375 10.171875 
Q 46.921875 13.96875 46.921875 20.515625 
Q 46.921875 27.09375 42.890625 30.859375 
Q 38.875 34.625 31.78125 34.625 
z
M 21.921875 38.8125 
Q 15.578125 40.375 12.03125 44.71875 
Q 8.5 49.078125 8.5 55.328125 
Q 8.5 64.0625 14.71875 69.140625 
Q 20.953125 74.21875 31.78125 74.21875 
Q 42.671875 74.21875 48.875 69.140625 
Q 55.078125 64.0625 55.078125 55.328125 
Q 55.078125 49.078125 51.53125 44.71875 
Q 48 40.375 41.703125 38.8125 
Q 48.828125 37.15625 52.796875 32.3125 
Q 56.78125 27.484375 56.78125 20.515625 
Q 56.78125 9.90625 50.3125 4.234375 
Q 43.84375 -1.421875 31.78125 -1.421875 
Q 19.734375 -1.421875 13.25 4.234375 
Q 6.78125 9.90625 6.78125 20.515625 
Q 6.78125 27.484375 10.78125 32.3125 
Q 14.796875 37.15625 21.921875 38.8125 
z
M 18.3125 54.390625 
Q 18.3125 48.734375 21.84375 45.5625 
Q 25.390625 42.390625 31.78125 42.390625 
Q 38.140625 42.390625 41.71875 45.5625 
Q 45.3125 48.734375 45.3125 54.390625 
Q 45.3125 60.0625 41.71875 63.234375 
Q 38.140625 66.40625 31.78125 66.40625 
Q 25.390625 66.40625 21.84375 63.234375 
Q 18.3125 60.0625 18.3125 54.390625 
z
" id="DejaVuSans-56"/>
      </defs>
      <g transform="translate(51.224219 455.362828)scale(0.15 -0.15)">
       <use xlink:href="#DejaVuSans-8722"/>
       <use x="83.789062" xlink:href="#DejaVuSans-56"/>
      </g>
     </g>
    </g>
    <g id="ytick_3">
     <g id="line2d_21">
      <path clip-path="url(#p38fd78f2b8)" d="M 76.8375 386.688 
L 496.8825 386.688 
" style="fill:none;stroke:#e6e6e6;stroke-linecap:square;stroke-width:0.8;"/>
     </g>
     <g id="line2d_22">
      <g>
       <use style="stroke:#000000;stroke-width:0.8;" x="76.8375" xlink:href="#m4e75d5fcde" y="386.688"/>
      </g>
     </g>
     <g id="text_12">
      <!-- −6 -->
      <defs>
       <path d="M 33.015625 40.375 
Q 26.375 40.375 22.484375 35.828125 
Q 18.609375 31.296875 18.609375 23.390625 
Q 18.609375 15.53125 22.484375 10.953125 
Q 26.375 6.390625 33.015625 6.390625 
Q 39.65625 6.390625 43.53125 10.953125 
Q 47.40625 15.53125 47.40625 23.390625 
Q 47.40625 31.296875 43.53125 35.828125 
Q 39.65625 40.375 33.015625 40.375 
z
M 52.59375 71.296875 
L 52.59375 62.3125 
Q 48.875 64.0625 45.09375 64.984375 
Q 41.3125 65.921875 37.59375 65.921875 
Q 27.828125 65.921875 22.671875 59.328125 
Q 17.53125 52.734375 16.796875 39.40625 
Q 19.671875 43.65625 24.015625 45.921875 
Q 28.375 48.1875 33.59375 48.1875 
Q 44.578125 48.1875 50.953125 41.515625 
Q 57.328125 34.859375 57.328125 23.390625 
Q 57.328125 12.15625 50.6875 5.359375 
Q 44.046875 -1.421875 33.015625 -1.421875 
Q 20.359375 -1.421875 13.671875 8.265625 
Q 6.984375 17.96875 6.984375 36.375 
Q 6.984375 53.65625 15.1875 63.9375 
Q 23.390625 74.21875 37.203125 74.21875 
Q 40.921875 74.21875 44.703125 73.484375 
Q 48.484375 72.75 52.59375 71.296875 
z
" id="DejaVuSans-54"/>
      </defs>
      <g transform="translate(51.224219 392.386828)scale(0.15 -0.15)">
       <use xlink:href="#DejaVuSans-8722"/>
       <use x="83.789062" xlink:href="#DejaVuSans-54"/>
      </g>
     </g>
    </g>
    <g id="ytick_4">
     <g id="line2d_23">
      <path clip-path="url(#p38fd78f2b8)" d="M 76.8375 323.712 
L 496.8825 323.712 
" style="fill:none;stroke:#e6e6e6;stroke-linecap:square;stroke-width:0.8;"/>
     </g>
     <g id="line2d_24">
      <g>
       <use style="stroke:#000000;stroke-width:0.8;" x="76.8375" xlink:href="#m4e75d5fcde" y="323.712"/>
      </g>
     </g>
     <g id="text_13">
      <!-- −4 -->
      <defs>
       <path d="M 37.796875 64.3125 
L 12.890625 25.390625 
L 37.796875 25.390625 
z
M 35.203125 72.90625 
L 47.609375 72.90625 
L 47.609375 25.390625 
L 58.015625 25.390625 
L 58.015625 17.1875 
L 47.609375 17.1875 
L 47.609375 0 
L 37.796875 0 
L 37.796875 17.1875 
L 4.890625 17.1875 
L 4.890625 26.703125 
z
" id="DejaVuSans-52"/>
      </defs>
      <g transform="translate(51.224219 329.410828)scale(0.15 -0.15)">
       <use xlink:href="#DejaVuSans-8722"/>
       <use x="83.789062" xlink:href="#DejaVuSans-52"/>
      </g>
     </g>
    </g>
    <g id="ytick_5">
     <g id="line2d_25">
      <path clip-path="url(#p38fd78f2b8)" d="M 76.8375 260.736 
L 496.8825 260.736 
" style="fill:none;stroke:#e6e6e6;stroke-linecap:square;stroke-width:0.8;"/>
     </g>
     <g id="line2d_26">
      <g>
       <use style="stroke:#000000;stroke-width:0.8;" x="76.8375" xlink:href="#m4e75d5fcde" y="260.736"/>
      </g>
     </g>
     <g id="text_14">
      <!-- −2 -->
      <g transform="translate(51.224219 266.434828)scale(0.15 -0.15)">
       <use xlink:href="#DejaVuSans-8722"/>
       <use x="83.789062" xlink:href="#DejaVuSans-50"/>
      </g>
     </g>
    </g>
    <g id="ytick_6">
     <g id="line2d_27">
      <path clip-path="url(#p38fd78f2b8)" d="M 76.8375 197.76 
L 496.8825 197.76 
" style="fill:none;stroke:#e6e6e6;stroke-linecap:square;stroke-width:0.8;"/>
     </g>
     <g id="line2d_28">
      <g>
       <use style="stroke:#000000;stroke-width:0.8;" x="76.8375" xlink:href="#m4e75d5fcde" y="197.76"/>
      </g>
     </g>
     <g id="text_15">
      <!-- 0 -->
      <g transform="translate(63.79375 203.458828)scale(0.15 -0.15)">
       <use xlink:href="#DejaVuSans-48"/>
      </g>
     </g>
    </g>
    <g id="ytick_7">
     <g id="line2d_29">
      <path clip-path="url(#p38fd78f2b8)" d="M 76.8375 134.784 
L 496.8825 134.784 
" style="fill:none;stroke:#e6e6e6;stroke-linecap:square;stroke-width:0.8;"/>
     </g>
     <g id="line2d_30">
      <g>
       <use style="stroke:#000000;stroke-width:0.8;" x="76.8375" xlink:href="#m4e75d5fcde" y="134.784"/>
      </g>
     </g>
     <g id="text_16">
      <!-- 2 -->
      <g transform="translate(63.79375 140.482828)scale(0.15 -0.15)">
       <use xlink:href="#DejaVuSans-50"/>
      </g>
     </g>
    </g>
    <g id="ytick_8">
     <g id="line2d_31">
      <path clip-path="url(#p38fd78f2b8)" d="M 76.8375 71.808 
L 496.8825 71.808 
" style="fill:none;stroke:#e6e6e6;stroke-linecap:square;stroke-width:0.8;"/>
     </g>
     <g id="line2d_32">
      <g>
       <use style="stroke:#000000;stroke-width:0.8;" x="76.8375" xlink:href="#m4e75d5fcde" y="71.808"/>
      </g>
     </g>
     <g id="text_17">
      <!-- 4 -->
      <g transform="translate(63.79375 77.506828)scale(0.15 -0.15)">
       <use xlink:href="#DejaVuSans-52"/>
      </g>
     </g>
    </g>
    <g id="text_18">
     <!-- $\log_{10} |I_{fr}-I_{Gr}/I_Gr|$ -->
     <defs>
      <path d="M 9.421875 75.984375 
L 18.40625 75.984375 
L 18.40625 0 
L 9.421875 0 
z
" id="DejaVuSans-108"/>
      <path d="M 30.609375 48.390625 
Q 23.390625 48.390625 19.1875 42.75 
Q 14.984375 37.109375 14.984375 27.296875 
Q 14.984375 17.484375 19.15625 11.84375 
Q 23.34375 6.203125 30.609375 6.203125 
Q 37.796875 6.203125 41.984375 11.859375 
Q 46.1875 17.53125 46.1875 27.296875 
Q 46.1875 37.015625 41.984375 42.703125 
Q 37.796875 48.390625 30.609375 48.390625 
z
M 30.609375 56 
Q 42.328125 56 49.015625 48.375 
Q 55.71875 40.765625 55.71875 27.296875 
Q 55.71875 13.875 49.015625 6.21875 
Q 42.328125 -1.421875 30.609375 -1.421875 
Q 18.84375 -1.421875 12.171875 6.21875 
Q 5.515625 13.875 5.515625 27.296875 
Q 5.515625 40.765625 12.171875 48.375 
Q 18.84375 56 30.609375 56 
z
" id="DejaVuSans-111"/>
      <path d="M 45.40625 27.984375 
Q 45.40625 37.75 41.375 43.109375 
Q 37.359375 48.484375 30.078125 48.484375 
Q 22.859375 48.484375 18.828125 43.109375 
Q 14.796875 37.75 14.796875 27.984375 
Q 14.796875 18.265625 18.828125 12.890625 
Q 22.859375 7.515625 30.078125 7.515625 
Q 37.359375 7.515625 41.375 12.890625 
Q 45.40625 18.265625 45.40625 27.984375 
z
M 54.390625 6.78125 
Q 54.390625 -7.171875 48.1875 -13.984375 
Q 42 -20.796875 29.203125 -20.796875 
Q 24.46875 -20.796875 20.265625 -20.09375 
Q 16.0625 -19.390625 12.109375 -17.921875 
L 12.109375 -9.1875 
Q 16.0625 -11.328125 19.921875 -12.34375 
Q 23.78125 -13.375 27.78125 -13.375 
Q 36.625 -13.375 41.015625 -8.765625 
Q 45.40625 -4.15625 45.40625 5.171875 
L 45.40625 9.625 
Q 42.625 4.78125 38.28125 2.390625 
Q 33.9375 0 27.875 0 
Q 17.828125 0 11.671875 7.65625 
Q 5.515625 15.328125 5.515625 27.984375 
Q 5.515625 40.671875 11.671875 48.328125 
Q 17.828125 56 27.875 56 
Q 33.9375 56 38.28125 53.609375 
Q 42.625 51.21875 45.40625 46.390625 
L 45.40625 54.6875 
L 54.390625 54.6875 
z
" id="DejaVuSans-103"/>
      <path d="M 21 76.421875 
L 21 -23.578125 
L 12.703125 -23.578125 
L 12.703125 76.421875 
z
" id="DejaVuSans-124"/>
      <path d="M 16.890625 72.90625 
L 26.8125 72.90625 
L 12.59375 0 
L 2.6875 0 
z
" id="DejaVuSans-Oblique-73"/>
      <path d="M 47.796875 75.984375 
L 46.390625 68.5 
L 37.796875 68.5 
Q 32.90625 68.5 30.6875 66.578125 
Q 28.46875 64.65625 27.390625 59.515625 
L 26.421875 54.6875 
L 41.21875 54.6875 
L 39.890625 47.703125 
L 25.09375 47.703125 
L 15.828125 0 
L 6.78125 0 
L 16.109375 47.703125 
L 7.515625 47.703125 
L 8.796875 54.6875 
L 17.390625 54.6875 
L 18.109375 58.5 
Q 19.96875 68.171875 24.625 72.078125 
Q 29.296875 75.984375 39.3125 75.984375 
z
" id="DejaVuSans-Oblique-102"/>
      <path d="M 44.578125 46.390625 
Q 43.21875 47.125 41.453125 47.515625 
Q 39.703125 47.90625 37.703125 47.90625 
Q 30.515625 47.90625 25.140625 42.453125 
Q 19.78125 37.015625 18.015625 27.875 
L 12.5 0 
L 3.515625 0 
L 14.203125 54.6875 
L 23.1875 54.6875 
L 21.484375 46.1875 
Q 25.046875 50.921875 30 53.453125 
Q 34.96875 56 40.578125 56 
Q 42.046875 56 43.453125 55.828125 
Q 44.875 55.671875 46.296875 55.28125 
z
" id="DejaVuSans-Oblique-114"/>
      <path d="M 54.59375 10.890625 
L 58.40625 29.984375 
L 42.1875 29.984375 
L 43.703125 38.09375 
L 69.578125 38.09375 
L 63.28125 6 
Q 56.78125 2.4375 49.109375 0.5 
Q 41.453125 -1.421875 33.6875 -1.421875 
Q 19.96875 -1.421875 12.234375 6.1875 
Q 4.5 13.8125 4.5 27.390625 
Q 4.5 38.671875 9.203125 48.84375 
Q 13.921875 59.03125 22.21875 65.828125 
Q 27.4375 70.0625 33.640625 72.140625 
Q 39.84375 74.21875 47.40625 74.21875 
Q 54.25 74.21875 60.515625 72.484375 
Q 66.796875 70.75 72.515625 67.28125 
L 70.515625 56.78125 
Q 66.109375 61.375 60.203125 63.796875 
Q 54.296875 66.21875 47.609375 66.21875 
Q 39.84375 66.21875 33.9375 63.25 
Q 28.03125 60.296875 23.390625 54.109375 
Q 19.4375 48.828125 17.15625 41.671875 
Q 14.890625 34.515625 14.890625 27.09375 
Q 14.890625 16.890625 20.109375 11.734375 
Q 25.34375 6.59375 35.6875 6.59375 
Q 40.875 6.59375 45.703125 7.6875 
Q 50.53125 8.796875 54.59375 10.890625 
z
" id="DejaVuSans-Oblique-71"/>
      <path d="M 25.390625 72.90625 
L 33.6875 72.90625 
L 8.296875 -9.28125 
L 0 -9.28125 
z
" id="DejaVuSans-47"/>
     </defs>
     <g transform="translate(31.680469 376.23)rotate(-90)scale(0.25 -0.25)">
      <use transform="translate(0 0.578125)" xlink:href="#DejaVuSans-108"/>
      <use transform="translate(27.783203 0.578125)" xlink:href="#DejaVuSans-111"/>
      <use transform="translate(88.964844 0.578125)" xlink:href="#DejaVuSans-103"/>
      <use transform="translate(153.398438 -15.828125)scale(0.7)" xlink:href="#DejaVuSans-49"/>
      <use transform="translate(197.93457 -15.828125)scale(0.7)" xlink:href="#DejaVuSans-48"/>
      <use transform="translate(245.205078 0.578125)" xlink:href="#DejaVuSans-124"/>
      <use transform="translate(278.896484 0.578125)" xlink:href="#DejaVuSans-Oblique-73"/>
      <use transform="translate(308.388672 -15.828125)scale(0.7)" xlink:href="#DejaVuSans-Oblique-102"/>
      <use transform="translate(333.032227 -15.828125)scale(0.7)" xlink:href="#DejaVuSans-Oblique-114"/>
      <use transform="translate(384.02832 0.578125)" xlink:href="#DejaVuSans-8722"/>
      <use transform="translate(487.299805 0.578125)" xlink:href="#DejaVuSans-Oblique-73"/>
      <use transform="translate(516.791992 -15.828125)scale(0.7)" xlink:href="#DejaVuSans-Oblique-71"/>
      <use transform="translate(571.035156 -15.828125)scale(0.7)" xlink:href="#DejaVuSans-Oblique-114"/>
      <use transform="translate(602.548828 0.578125)" xlink:href="#DejaVuSans-47"/>
      <use transform="translate(636.240234 0.578125)" xlink:href="#DejaVuSans-Oblique-73"/>
      <use transform="translate(665.732422 -15.828125)scale(0.7)" xlink:href="#DejaVuSans-Oblique-71"/>
      <use transform="translate(722.709961 0.578125)" xlink:href="#DejaVuSans-Oblique-114"/>
      <use transform="translate(763.823242 0.578125)" xlink:href="#DejaVuSans-124"/>
     </g>
    </g>
   </g>
   <g id="line2d_33">
    <path clip-path="url(#p38fd78f2b8)" d="M 76.786212 225.217705 
L 77.196513 192.067104 
L 77.401663 177.28691 
L 77.606813 121.080535 
L 77.811963 202.531167 
L 78.017114 201.74533 
L 78.222264 240.908247 
L 78.632564 147.746399 
L 78.837714 208.606068 
L 79.042864 200.054775 
L 79.248015 219.955389 
L 79.658315 160.406142 
L 79.863465 227.390095 
L 80.068615 199.137748 
L 80.273766 212.78156 
L 80.478916 200.945546 
L 80.684066 169.010734 
L 80.889216 192.537011 
L 81.094366 198.480434 
L 81.299516 209.146454 
L 81.504667 206.602371 
L 81.709817 175.297763 
L 81.914967 175.590057 
L 82.120117 198.019914 
L 82.530418 213.005802 
L 82.940718 157.330852 
L 83.145868 197.777665 
L 83.351018 204.9009 
L 83.556168 222.222651 
L 83.761319 185.190292 
L 83.966469 124.629066 
L 84.171619 197.858979 
L 84.376769 203.654417 
L 84.581919 238.598408 
L 84.99222 116.54678 
L 85.19737 198.562337 
L 85.40252 202.320501 
L 85.60767 233.913519 
L 86.017971 147.194944 
L 86.223121 200.53746 
L 86.428271 201.32406 
L 86.633421 221.643589 
L 87.043722 160.652075 
L 87.248872 206.956214 
L 87.454022 200.378468 
L 87.659172 215.616107 
L 87.864322 201.835563 
L 88.069473 171.655611 
L 88.274623 218.094222 
L 88.479773 199.446284 
L 88.684923 210.682396 
L 88.890073 208.988498 
L 89.095223 176.909908 
L 89.505524 198.672564 
L 89.710674 207.055329 
L 89.915824 223.640191 
L 90.120974 183.607682 
L 90.326125 172.538882 
L 90.531275 198.157536 
L 90.736425 204.915624 
L 90.941575 252.288813 
L 91.351875 146.532178 
L 91.557026 197.843891 
L 91.762176 203.779133 
L 91.967326 227.685417 
L 92.172476 194.225428 
L 92.377626 65.600761 
L 92.582777 197.77343 
L 92.787927 202.759506 
L 92.993077 219.827331 
L 93.198227 198.237544 
L 93.403377 146.167603 
L 93.608527 198.158538 
L 93.813678 201.818532 
L 94.018828 214.991981 
L 94.223978 203.843597 
L 94.429128 162.319211 
L 94.634278 199.556901 
L 94.839429 200.928539 
L 95.044579 211.458322 
L 95.249729 210.783936 
L 95.454879 172.978968 
L 95.660029 203.81476 
L 95.865179 200.033909 
L 96.07033 208.01454 
L 96.27548 227.596865 
L 96.48063 182.325087 
L 96.68578 222.886636 
L 96.89093 199.049578 
L 97.301231 208.250928 
L 97.506381 215.482813 
L 97.711531 234.275661 
L 98.532132 177.993224 
L 98.737282 155.657341 
L 98.942432 198.819426 
L 99.147582 212.208615 
L 99.352733 211.385842 
L 99.557883 186.602194 
L 99.763033 117.26436 
L 99.968183 198.075868 
L 100.173333 207.778724 
L 100.378484 224.295649 
L 100.583634 191.672308 
L 100.788784 132.238942 
L 100.993934 197.767046 
L 101.199084 205.64551 
L 101.404234 264.473591 
L 101.814535 155.563712 
L 102.019685 198.022094 
L 102.224835 204.110788 
L 102.429985 230.052065 
L 102.840286 166.748123 
L 103.045436 199.610585 
L 103.250586 202.872723 
L 103.455736 221.407739 
L 103.660886 204.152514 
L 103.866037 174.71073 
L 104.071187 206.134785 
L 104.276337 201.747324 
L 104.481487 216.876512 
L 104.686637 208.186394 
L 104.891788 180.441347 
L 105.096938 206.736493 
L 105.302088 200.790082 
L 105.507238 213.570662 
L 105.712388 213.203131 
L 105.917538 185.650415 
L 106.122689 177.467859 
L 106.532989 211.208064 
L 106.738139 219.005994 
L 107.14844 149.313292 
L 107.35359 199.039448 
L 107.55874 209.318926 
L 107.76389 227.288139 
L 107.96904 192.663265 
L 108.17419 96.991978 
L 108.379341 198.344643 
L 108.584491 207.668228 
L 108.789641 246.360849 
L 109.199941 151.073884 
L 109.405092 197.861135 
L 109.610242 206.230096 
L 109.815392 242.67465 
L 110.225692 164.794562 
L 110.430842 197.834648 
L 110.635993 204.980293 
L 110.841143 228.384049 
L 111.251443 173.274422 
L 111.456593 199.067241 
L 111.661744 203.822456 
L 111.866894 222.546499 
L 112.072044 206.885067 
L 112.277194 179.668718 
L 112.482344 205.623489 
L 112.687495 202.865813 
L 112.892645 218.962102 
L 113.097795 209.956941 
L 113.302945 184.582621 
L 113.508095 201.339655 
L 113.713245 201.775695 
L 113.918396 217.412858 
L 114.123546 211.582606 
L 114.533846 169.504305 
L 114.944147 224.069399 
L 115.559597 156.650753 
L 115.764747 198.216021 
L 115.969897 202.698971 
L 116.175048 212.742624 
L 116.380198 209.722026 
L 116.585348 141.094646 
L 116.790498 198.510057 
L 116.995648 204.8192 
L 117.200799 216.336262 
L 117.405949 212.472279 
L 117.611099 165.511925 
L 117.816249 197.989751 
L 118.4317 213.681797 
L 118.63685 222.325516 
L 118.842 262.000439 
L 119.04715 220.845475 
L 119.662601 174.787754 
L 119.867751 198.656998 
L 120.072901 206.657816 
L 120.278051 239.385601 
L 120.688352 182.663971 
L 120.893502 204.551009 
L 121.098652 204.376972 
L 121.303802 222.742444 
L 121.508952 211.470451 
L 121.714103 187.943401 
L 121.919253 199.598802 
L 122.124403 202.927253 
L 122.329553 217.768003 
L 122.534703 216.734158 
L 122.945004 164.86403 
L 123.150154 201.693491 
L 123.560454 223.042248 
L 123.765604 195.809963 
L 123.970755 72.956687 
L 124.175905 200.565839 
L 124.381055 212.532805 
L 124.586205 231.780655 
L 124.996505 150.801248 
L 125.201656 199.492378 
L 125.406806 210.782177 
L 125.611956 253.288866 
L 126.022256 167.714003 
L 126.227407 198.537453 
L 126.432557 209.18078 
L 126.637707 241.497859 
L 127.048007 176.951758 
L 127.663458 230.27175 
L 128.073758 183.260288 
L 128.689209 224.437115 
L 128.894359 213.099314 
L 129.099509 188.317837 
L 129.304659 202.229276 
L 129.50981 205.164491 
L 129.71496 220.820257 
L 129.92011 217.300587 
L 130.12526 192.406562 
L 130.33041 201.356046 
L 130.53556 203.95757 
L 130.740711 217.626148 
L 130.945861 222.216476 
L 131.356161 157.779345 
L 131.561311 202.743808 
L 131.971612 229.112235 
L 132.176762 199.797196 
L 132.381912 122.44605 
L 132.587062 201.543007 
L 132.792212 213.566419 
L 132.997363 240.566342 
L 133.407663 160.720226 
L 133.612813 200.336011 
L 133.817963 211.842919 
L 134.023114 259.731358 
L 134.433414 174.17904 
L 134.638564 199.178918 
L 134.843714 210.31985 
L 135.048864 235.841335 
L 135.459165 182.154452 
L 136.074615 227.797899 
L 136.279766 214.254589 
L 136.484916 188.108646 
L 137.100366 222.361638 
L 137.305516 219.675024 
L 137.510667 193.321403 
L 138.126117 217.74619 
L 138.331267 231.98393 
L 138.536418 199.180846 
L 138.741568 208.359043 
L 138.946718 203.775652 
L 139.562168 228.065519 
L 139.767319 294.612119 
L 139.972469 226.724607 
L 140.587919 195.267464 
L 140.79307 138.377736 
L 140.99822 204.163661 
L 141.20337 224.455602 
L 141.40852 219.688431 
L 141.61367 201.226241 
L 141.818821 165.906268 
L 142.023971 202.066578 
L 142.434271 228.247318 
L 142.844571 177.010449 
L 143.460022 238.761541 
L 143.870322 184.436309 
L 144.280623 213.393898 
L 144.485773 254.970652 
L 144.896073 189.184387 
L 145.101223 197.841543 
L 145.306374 211.85888 
L 145.511524 253.485846 
L 145.921824 193.275046 
L 146.126974 199.177387 
L 146.332125 210.354834 
L 146.537275 240.356149 
L 146.947575 194.506118 
L 147.152725 206.67965 
L 147.357875 208.392771 
L 147.563026 224.462116 
L 147.768176 227.904 
L 147.973326 204.927526 
L 148.178476 147.842564 
L 148.383626 205.124135 
L 148.588777 217.15706 
L 148.793927 298.613955 
L 149.204227 153.177485 
L 149.409377 203.983067 
L 149.614527 216.068104 
L 149.819678 255.493776 
L 150.229978 174.681885 
L 150.435128 202.821693 
L 150.640278 214.992224 
L 150.845429 246.108649 
L 151.255729 183.140431 
L 151.871179 238.42433 
L 152.28148 190.105463 
L 152.69178 212.938928 
L 152.89693 233.737256 
L 153.102081 219.050087 
L 153.307231 195.188849 
L 153.512381 198.304453 
L 153.922681 228.313456 
L 154.127832 222.828109 
L 154.332982 198.919401 
L 154.538132 197.997677 
L 154.948432 225.785944 
L 155.153582 227.183127 
L 155.358733 202.743038 
L 155.563883 234.647172 
L 155.769033 208.937666 
L 156.179333 233.208686 
L 156.384484 206.317124 
L 156.589634 139.587839 
L 156.794784 207.552778 
L 156.999934 220.962181 
L 157.205084 243.789813 
L 157.615385 159.94188 
L 157.820535 206.055174 
L 158.025685 218.697106 
L 158.230835 263.219559 
L 158.641136 178.906734 
L 159.051436 216.263094 
L 159.256586 236.131953 
L 159.461736 219.672688 
L 159.666886 188.905405 
L 160.077187 212.360358 
L 160.487487 227.199906 
L 160.897788 247.729801 
L 161.308088 218.88601 
L 161.513238 209.754079 
L 161.718388 194.362121 
L 161.923538 199.503387 
L 162.128689 218.174008 
L 162.333839 259.061513 
L 162.538989 217.258285 
L 162.744139 199.68163 
L 162.949289 197.789608 
L 163.15444 214.843465 
L 163.35959 241.323935 
L 163.76989 203.502216 
L 164.18019 212.821027 
L 164.385341 233.377408 
L 164.590491 225.971316 
L 164.795641 206.769237 
L 165.000791 140.004233 
L 165.205941 211.013513 
L 165.411092 228.624542 
L 165.616242 230.511486 
L 165.821392 209.689105 
L 166.026542 164.653495 
L 166.231692 209.308124 
L 166.641993 235.657472 
L 167.052293 181.693574 
L 167.462593 223.66085 
L 167.667744 243.173162 
L 168.078044 190.043849 
L 168.488344 221.645697 
L 168.693495 256.119304 
L 169.103795 195.93922 
L 169.308945 203.363235 
L 169.514095 220.198611 
L 169.719245 271.913398 
L 169.924396 219.925815 
L 170.129546 200.311633 
L 170.334696 200.95054 
L 170.539846 218.87196 
L 170.744996 251.158854 
L 171.155297 203.896583 
L 171.360447 198.496636 
L 171.770747 245.005885 
L 172.181048 205.944996 
L 172.386198 200.209782 
L 172.591348 216.305325 
L 172.796498 243.305802 
L 173.206799 208.492437 
L 173.411949 153.330165 
L 173.617099 216.074814 
L 173.822249 243.801793 
L 174.232549 215.197515 
L 174.4377 181.011556 
L 174.64285 209.816938 
L 174.848 221.01682 
L 175.05315 240.714685 
L 175.2583 222.633973 
L 175.463451 186.818399 
L 176.078901 242.913352 
L 176.489201 195.161932 
L 176.899502 220.972992 
L 177.104652 241.531671 
L 177.309802 226.458225 
L 177.514952 200.86498 
L 177.720103 205.350562 
L 178.130403 237.580781 
L 178.335553 229.921906 
L 178.540703 205.169487 
L 178.745853 202.91196 
L 179.156154 233.915463 
L 179.361304 234.494497 
L 179.566454 209.657148 
L 179.771604 200.008874 
L 180.387055 247.889208 
L 180.797355 197.779481 
L 181.207656 222.438343 
L 181.617956 238.117695 
L 181.823106 258.859853 
L 182.643707 212.479811 
L 182.848857 170.841352 
L 183.259158 237.884423 
L 183.464308 235.259746 
L 183.669458 217.479923 
L 183.874608 188.252274 
L 184.284908 231.532513 
L 184.490059 244.585339 
L 184.900359 196.77982 
L 185.310659 228.639986 
L 185.51581 257.84735 
L 185.92611 202.638877 
L 186.13126 208.915905 
L 186.33641 226.4083 
L 186.54156 272.734559 
L 186.746711 226.942172 
L 186.951861 207.06626 
L 187.157011 206.118228 
L 187.567311 252.236867 
L 187.977612 210.888348 
L 188.182762 202.67915 
L 188.593062 244.802178 
L 188.798212 233.417519 
L 189.208513 198.657637 
L 189.618813 240.472271 
L 189.823963 237.157122 
L 190.234264 194.609146 
L 190.644564 237.265711 
L 190.849714 241.717365 
L 191.054864 220.011808 
L 191.260015 173.011549 
L 191.465165 218.301644 
L 191.875465 247.677311 
L 192.285766 191.811551 
L 192.901216 255.725656 
L 193.311516 200.412562 
L 193.721817 230.920255 
L 193.926967 283.668685 
L 194.132117 228.68398 
L 194.337267 206.257379 
L 194.542418 212.193917 
L 194.747568 229.272766 
L 194.952718 261.972197 
L 195.363018 210.837746 
L 195.568168 209.546719 
L 195.978469 252.386108 
L 196.593919 206.072551 
L 197.00422 246.299752 
L 197.20937 238.366626 
L 197.61967 201.44741 
L 198.029971 242.366502 
L 198.235121 242.838663 
L 198.645421 199.602587 
L 199.055722 239.150303 
L 199.260872 249.13647 
L 199.466022 224.521869 
L 199.671172 171.887315 
L 199.876322 221.490862 
L 200.081473 236.452081 
L 200.286623 261.324812 
L 200.696923 194.8644 
L 201.312374 262.700977 
L 201.722674 204.719794 
L 202.338125 236.2234 
L 202.543275 244.894991 
L 202.748425 261.234773 
L 202.953575 259.246813 
L 203.363875 235.280316 
L 203.569026 226.808481 
L 203.774176 212.215744 
L 203.979326 214.75659 
L 204.389626 257.978999 
L 204.799927 216.812088 
L 205.005077 210.734191 
L 205.210227 233.202891 
L 205.415377 276.546037 
L 205.620527 237.002806 
L 206.030828 205.784508 
L 206.441128 256.775139 
L 206.851429 223.537085 
L 207.056579 198.739109 
L 207.466879 250.66229 
L 207.672029 244.563072 
L 207.877179 226.404117 
L 208.08233 163.516982 
L 208.28748 227.262236 
L 208.49263 246.559561 
L 208.69778 248.938667 
L 208.90293 229.313372 
L 209.108081 196.645969 
L 209.518381 243.633578 
L 209.723531 254.813055 
L 210.133832 206.598697 
L 210.749282 264.064678 
L 211.159582 213.044256 
L 211.364733 221.398134 
L 211.569883 239.392006 
L 211.775033 278.836744 
L 212.185333 217.560064 
L 212.390484 218.852065 
L 212.595634 237.689395 
L 212.800784 278.397316 
L 213.211084 221.733189 
L 213.416234 215.520956 
L 213.826535 264.54165 
L 214.441985 210.954518 
L 214.852286 257.398312 
L 215.057436 246.84867 
L 215.467736 203.74532 
L 215.878037 253.576424 
L 216.083187 250.920411 
L 216.288337 231.217421 
L 216.493487 139.144397 
L 216.698637 231.843029 
L 216.903788 250.283065 
L 217.108938 255.027424 
L 217.314088 234.122879 
L 217.519238 198.843616 
L 217.929538 247.737944 
L 218.134689 261.731575 
L 218.544989 210.125284 
L 219.16044 271.472757 
L 219.57074 216.815902 
L 219.77589 226.473434 
L 219.98104 243.856751 
L 220.18619 298.129744 
L 220.391341 242.99046 
L 220.596491 222.358547 
L 220.801641 224.020651 
L 221.211941 268.258169 
L 221.622242 226.6934 
L 221.827392 220.965894 
L 222.237692 257.415433 
L 222.442842 253.931673 
L 222.853143 216.650015 
L 223.263443 245.553444 
L 223.468593 254.319161 
L 223.878894 275.807147 
L 224.289194 249.250676 
L 224.699495 232.06906 
L 224.904645 198.113205 
L 225.314945 284.079912 
L 225.520095 249.744776 
L 225.725245 236.181059 
L 225.930396 198.722835 
L 226.340696 263.515869 
L 226.545846 255.03625 
L 226.750996 239.217148 
L 226.956147 213.087741 
L 227.366447 259.567983 
L 227.571597 257.619366 
L 227.981897 220.071878 
L 228.597348 265.317916 
L 229.007648 226.131159 
L 229.212799 234.035746 
L 229.623099 264.853215 
L 230.033399 228.915016 
L 230.238549 227.793546 
L 230.4437 267.405117 
L 230.64885 259.331209 
L 230.854 231.178189 
L 231.05915 325.587195 
L 231.2643 240.946863 
L 231.469451 246.086608 
L 231.674601 255.508858 
L 231.879751 270.274006 
L 232.290051 218.243013 
L 232.700352 261.207315 
L 232.905502 265.051905 
L 233.315802 210.406198 
L 233.520952 245.386896 
L 233.726103 258.101402 
L 233.931253 279.175516 
L 234.136403 246.59113 
L 234.341553 195.80414 
L 234.546703 242.301902 
L 234.751853 261.516002 
L 234.957004 294.794144 
L 235.367304 215.838921 
L 235.777604 255.587184 
L 235.982755 273.168822 
L 236.393055 225.733986 
L 236.803355 255.955431 
L 237.008505 289.503267 
L 237.418806 231.211493 
L 237.623956 238.369906 
L 237.829106 254.506851 
L 238.034256 286.146164 
L 238.444557 236.2092 
L 238.649707 234.845488 
L 239.060007 281.010106 
L 239.265158 265.629754 
L 239.470308 241.66285 
L 239.675458 231.458308 
L 240.085758 271.91047 
L 240.290908 262.777353 
L 240.701209 227.440413 
L 241.111509 271.813074 
L 241.316659 267.768349 
L 241.52181 248.827063 
L 241.72696 219.096976 
L 242.13726 267.685441 
L 242.34241 277.968715 
L 242.54756 252.421404 
L 242.752711 132.060791 
L 242.957861 249.288278 
L 243.163011 263.564868 
L 243.368161 309.425295 
L 243.778462 220.600603 
L 243.983612 246.895803 
L 244.599062 275.268314 
L 244.804212 298.342383 
L 245.214513 271.09138 
L 245.624813 254.291492 
L 245.829963 236.751361 
L 246.035114 248.494202 
L 246.240264 270.476276 
L 246.445414 277.755066 
L 246.855714 242.019689 
L 247.060864 244.920684 
L 247.471165 288.17944 
L 247.881465 246.58682 
L 248.086615 241.974957 
L 248.291766 264.651673 
L 248.496916 319.491725 
L 248.702066 269.314136 
L 249.112366 238.990358 
L 249.317516 261.209239 
L 249.522667 300.236477 
L 250.138117 231.209298 
L 250.548418 291.639246 
L 250.958718 259.270136 
L 251.163868 216.871625 
L 251.574168 317.50415 
L 251.779319 277.352094 
L 251.984469 268.035104 
L 252.189619 232.955851 
L 252.394769 262.32608 
L 252.599919 310.901845 
L 252.80507 281.142083 
L 253.01022 267.923622 
L 253.21537 243.803252 
L 253.62567 274.150731 
L 253.830821 279.066255 
L 254.035971 266.69161 
L 254.241121 244.436048 
L 254.446271 260.231519 
L 254.651421 286.549164 
L 254.856571 293.549987 
L 255.061722 280.420468 
L 255.266872 256.502059 
L 255.472022 250.790462 
L 256.087473 278.131383 
L 256.292623 279.441246 
L 256.497773 242.765924 
L 256.702923 275.931808 
L 256.908073 277.494536 
L 257.318374 263.403993 
L 257.523524 277.115837 
L 257.728674 255.694694 
L 257.933824 265.716155 
L 258.549275 227.062206 
L 258.959575 258.105754 
L 259.164725 231.023596 
L 259.369875 271.426793 
L 259.575026 226.240306 
L 259.985326 284.19038 
L 260.190476 302.341574 
L 260.395626 280.778652 
L 260.600777 206.066912 
L 260.805927 287.656972 
L 261.011077 287.690966 
L 261.216227 341.387382 
L 261.421377 262.119383 
L 261.626527 240.780735 
L 262.036828 281.570999 
L 262.241978 329.837746 
L 262.447128 280.746513 
L 262.652278 258.600254 
L 262.857429 264.659942 
L 263.062579 284.267736 
L 263.267729 329.727902 
L 263.678029 260.042351 
L 263.883179 270.401607 
L 264.08833 290.56755 
L 264.49863 296.395321 
L 264.70378 262.425622 
L 264.90893 265.795659 
L 265.319231 290.379985 
L 265.524381 297.128086 
L 265.729531 308.798625 
L 265.934681 352.323681 
L 266.139832 305.641803 
L 266.755282 276.076208 
L 266.960432 260.20475 
L 267.165582 296.666016 
L 267.370733 311.043469 
L 267.986183 256.900981 
L 268.396484 318.956549 
L 268.806784 282.975948 
L 269.011934 230.670789 
L 269.217084 315.765074 
L 269.422234 298.776851 
L 269.627385 318.31958 
L 270.037685 257.149354 
L 270.653136 325.579953 
L 271.063436 262.427872 
L 271.268586 300.728138 
L 271.678886 316.355651 
L 272.089187 278.180816 
L 272.294337 292.381211 
L 272.499487 318.598984 
L 272.704637 321.771875 
L 272.909788 291.832173 
L 273.114938 282.416147 
L 273.320088 281.421898 
L 273.730388 328.125061 
L 274.140689 280.862957 
L 274.345839 287.376316 
L 274.550989 302.624643 
L 274.756139 302.706393 
L 274.961289 312.061011 
L 275.16644 291.64053 
L 275.37159 300.229967 
L 275.57674 322.423955 
L 275.98704 295.981484 
L 276.19219 306.181173 
L 276.397341 282.664799 
L 277.012791 331.61883 
L 277.423092 274.280707 
L 277.628242 293.550708 
L 277.833392 324.18311 
L 278.038542 293.555905 
L 278.243692 301.643959 
L 278.448842 276.581235 
L 278.653993 289.865899 
L 278.859143 372.228072 
L 279.064293 294.572097 
L 279.269443 293.437461 
L 279.679744 327.206037 
L 279.884894 314.409296 
L 280.090044 311.357449 
L 280.295194 303.901513 
L 280.500344 274.195603 
L 280.705495 308.985984 
L 280.910645 318.758506 
L 281.115795 307.500172 
L 281.320945 312.938542 
L 281.526095 295.417991 
L 281.731245 291.785686 
L 281.936396 322.481964 
L 282.141546 318.29425 
L 282.346696 365.00409 
L 282.551846 304.915004 
L 282.756996 318.214332 
L 282.962147 310.166164 
L 283.167297 317.315826 
L 283.372447 336.925074 
L 283.577597 331.793972 
L 283.782747 295.658963 
L 283.987897 307.499673 
L 284.193048 338.562171 
L 284.398198 324.336308 
L 284.603348 324.297676 
L 284.808498 288.336189 
L 285.013648 329.762222 
L 285.218799 330.556931 
L 285.423949 347.334142 
L 285.834249 282.924311 
L 286.039399 330.894194 
L 286.244549 325.652003 
L 286.4497 350.186886 
L 286.65485 343.815737 
L 286.86 514.602449 
L 287.06515 343.815737 
L 287.2703 350.186887 
L 287.475451 325.652003 
L 287.680601 330.894194 
L 287.885751 282.924312 
L 288.296051 347.334146 
L 288.501201 330.556935 
L 288.706352 329.762213 
L 288.911502 288.336189 
L 289.116652 324.29767 
L 289.321802 324.336309 
L 289.526952 338.562171 
L 289.732103 307.499673 
L 289.937253 295.658962 
L 290.142403 331.794052 
L 290.347553 336.925108 
L 290.552703 317.315828 
L 290.757853 310.166157 
L 290.963004 318.214303 
L 291.168154 304.914979 
L 291.373304 365.004267 
L 291.578454 318.294243 
L 291.783604 322.482006 
L 291.988755 291.785789 
L 292.193905 295.418024 
L 292.399055 312.93855 
L 292.604205 307.500145 
L 292.809355 318.758547 
L 293.014505 308.986072 
L 293.219656 274.195599 
L 293.424806 303.90153 
L 293.629956 311.357465 
L 293.835106 314.409318 
L 294.040256 327.205856 
L 294.450557 293.437437 
L 294.655707 294.572103 
L 294.860857 372.226915 
L 295.066007 289.865899 
L 295.271158 276.581235 
L 295.476308 301.64376 
L 295.681458 293.555923 
L 295.886608 324.183228 
L 296.296908 274.28062 
L 296.707209 331.618809 
L 296.912359 320.487809 
L 297.322659 282.664851 
L 297.52781 306.18123 
L 297.73296 295.981429 
L 298.14326 322.424354 
L 298.34841 300.229551 
L 298.55356 291.640433 
L 298.758711 312.061388 
L 298.963861 302.706266 
L 299.169011 302.624727 
L 299.374161 287.376335 
L 299.579311 280.862901 
L 299.989612 328.125013 
L 300.399912 281.421826 
L 300.605062 282.416153 
L 300.810212 291.832173 
L 301.015363 321.771875 
L 301.220513 318.599176 
L 301.630813 278.180748 
L 302.041114 316.355556 
L 302.451414 300.728283 
L 302.656564 262.427893 
L 303.066864 325.580281 
L 303.272015 317.240471 
L 303.682315 257.149333 
L 304.092615 318.319248 
L 304.297766 298.776888 
L 304.502916 315.766627 
L 304.708066 230.670826 
L 304.913216 282.975956 
L 305.323516 318.956826 
L 305.528667 294.764336 
L 305.733817 256.900971 
L 306.144117 293.264123 
L 306.349267 311.043469 
L 306.554418 296.666016 
L 306.759568 260.204771 
L 307.169868 287.849925 
L 307.580168 305.64173 
L 307.785319 352.32406 
L 307.990469 308.7986 
L 308.400769 290.379987 
L 308.605919 282.180648 
L 308.81107 265.795693 
L 309.01622 262.634752 
L 309.22137 296.395203 
L 309.42652 294.527597 
L 309.63167 290.567563 
L 310.041971 260.042467 
L 310.247121 282.53732 
L 310.452271 329.724196 
L 310.657421 284.26771 
L 310.862571 264.659826 
L 311.067722 258.60026 
L 311.272872 280.746756 
L 311.478022 329.836908 
L 311.683172 281.570834 
L 312.093473 240.780735 
L 312.298623 262.119404 
L 312.503773 341.370303 
L 312.914073 287.65743 
L 313.119223 206.067117 
L 313.324374 280.775095 
L 313.529524 302.338429 
L 313.939824 264.30654 
L 314.144974 226.240837 
L 314.350125 271.424159 
L 314.555275 231.023618 
L 314.760425 258.106865 
L 315.170725 227.062688 
L 315.375875 245.319347 
L 315.786176 265.712433 
L 315.991326 255.69501 
L 316.196476 277.123085 
L 316.401626 263.40421 
L 316.811927 277.493698 
L 317.017077 275.932766 
L 317.222227 242.765825 
L 317.427377 291.78417 
L 317.837678 271.00645 
L 318.247978 250.790462 
L 318.453128 256.501247 
L 318.863429 293.550207 
L 319.068579 286.549164 
L 319.478879 244.436048 
L 319.889179 279.066255 
L 320.09433 274.151805 
L 320.50463 243.803795 
L 321.120081 305.299153 
L 321.530381 232.955992 
L 321.735531 268.034623 
L 321.940681 277.352576 
L 322.145832 317.507887 
L 322.556132 216.871741 
L 322.761282 259.270239 
L 323.171582 290.796442 
L 323.581883 231.209333 
L 324.197333 300.236477 
L 324.607634 238.990358 
L 324.812784 249.753606 
L 325.017934 269.314136 
L 325.223084 319.492835 
L 325.428234 264.651673 
L 325.633385 241.974922 
L 325.838535 246.58682 
L 326.248835 288.17944 
L 326.659136 244.920626 
L 326.864286 242.019674 
L 327.274586 277.754898 
L 327.479736 270.476313 
L 327.890037 236.769238 
L 328.300337 262.618642 
L 328.710637 283.133265 
L 328.915788 298.342383 
L 329.120938 275.333129 
L 329.736388 246.895803 
L 329.941538 220.600594 
L 330.351839 309.424169 
L 330.556989 263.564868 
L 330.762139 249.288278 
L 330.967289 132.060791 
L 331.17244 252.42132 
L 331.37759 277.968715 
L 331.58274 267.685402 
L 331.78789 251.349929 
L 331.99304 219.096963 
L 332.403341 267.768268 
L 332.608491 271.81311 
L 333.018791 227.440512 
L 333.634242 271.910094 
L 334.044542 231.615348 
L 334.249692 241.634501 
L 334.659993 281.011191 
L 335.070293 234.845371 
L 335.275443 236.2092 
L 335.685744 286.146164 
L 336.096044 238.369906 
L 336.301194 231.211349 
L 336.711495 289.5039 
L 337.121795 238.116982 
L 337.326945 225.733986 
L 337.737245 282.625447 
L 338.352696 215.838955 
L 338.762996 294.788748 
L 339.378447 195.803941 
L 339.788747 279.172743 
L 340.404198 210.406198 
L 340.814498 265.051905 
L 341.019648 261.208044 
L 341.224799 245.15122 
L 341.429949 218.242197 
L 341.635099 239.994205 
L 341.840249 285.415591 
L 342.045399 255.508858 
L 342.4557 240.946863 
L 342.66085 327.392732 
L 342.866 231.178189 
L 343.07115 259.330633 
L 343.2763 267.402584 
L 343.481451 227.793243 
L 343.686601 228.915962 
L 344.096901 264.854492 
L 344.302051 253.983531 
L 344.507201 234.035606 
L 344.712352 226.131132 
L 345.122652 265.318079 
L 345.327802 255.508273 
L 345.738103 220.0717 
L 346.148403 257.61925 
L 346.353553 259.567983 
L 346.763853 213.087741 
L 347.174154 255.03625 
L 347.379304 263.516619 
L 347.584454 238.452846 
L 347.789604 198.722862 
L 347.994755 236.181059 
L 348.199905 249.744751 
L 348.405055 284.079912 
L 348.815355 198.113203 
L 349.020505 232.069065 
L 349.841106 275.807079 
L 350.046256 268.565686 
L 350.456557 245.553444 
L 350.661707 236.163442 
L 350.866857 216.655807 
L 351.482308 257.415433 
L 351.892608 220.965894 
L 352.097758 226.693383 
L 352.508059 268.258255 
L 352.918359 224.02064 
L 353.123509 222.358547 
L 353.328659 242.990484 
L 353.53381 298.129744 
L 353.73896 243.856734 
L 354.14926 216.822711 
L 354.55956 271.472763 
L 354.969861 228.392976 
L 355.175011 210.125274 
L 355.585311 261.770679 
L 355.995612 230.15449 
L 356.200762 198.843642 
L 356.611062 255.081067 
L 356.816212 250.28307 
L 357.021363 231.843029 
L 357.226513 139.144374 
L 357.431663 231.217421 
L 357.636813 250.9205 
L 357.841963 253.576424 
L 358.252264 203.74532 
L 358.662564 246.84867 
L 358.867714 257.398428 
L 359.278015 210.954511 
L 359.688315 243.52686 
L 359.893465 264.541505 
L 360.303766 215.520969 
L 360.508916 221.733209 
L 360.714066 240.407726 
L 360.919216 278.395977 
L 361.329516 218.852051 
L 361.534667 217.545141 
L 361.739817 237.498201 
L 361.944967 278.836795 
L 362.150117 239.39196 
L 362.560418 213.044256 
L 362.970718 264.064678 
L 363.586168 206.598669 
L 363.996469 254.813133 
L 364.201619 243.633578 
L 364.406769 225.530665 
L 364.611919 196.645969 
L 365.02222 248.938667 
L 365.22737 246.559547 
L 365.43252 227.262236 
L 365.63767 163.516914 
L 365.842821 226.419417 
L 366.047971 244.563023 
L 366.253121 250.662247 
L 366.663421 198.739105 
L 367.073722 240.52614 
L 367.278872 256.775129 
L 367.689172 205.784525 
L 368.099473 237.002806 
L 368.304623 276.546196 
L 368.714923 210.734192 
L 368.920073 216.812088 
L 369.125223 232.974702 
L 369.330374 257.978999 
L 369.740674 214.75659 
L 369.945824 212.215744 
L 370.356125 235.280319 
L 370.561275 244.000859 
L 370.766425 259.246817 
L 370.971575 261.234773 
L 371.381875 236.2234 
L 371.792176 216.960735 
L 371.997326 204.719796 
L 372.407626 262.700938 
L 372.817927 219.549566 
L 373.023077 194.864485 
L 373.433377 261.32499 
L 373.843678 221.490851 
L 374.048828 171.887315 
L 374.459128 249.13647 
L 374.664278 239.150355 
L 375.074579 199.602562 
L 375.484879 242.838699 
L 375.690029 242.366502 
L 376.10033 201.44741 
L 376.71578 246.299755 
L 377.126081 206.072554 
L 377.331231 214.63053 
L 377.741531 252.385986 
L 378.151832 209.546712 
L 378.356982 210.824736 
L 378.767282 261.971811 
L 379.177582 212.193917 
L 379.382733 206.258314 
L 379.587883 228.68398 
L 379.793033 283.268656 
L 379.998183 230.920255 
L 380.408484 200.412562 
L 380.818784 255.725656 
L 381.434234 191.81154 
L 381.844535 247.677425 
L 382.254835 218.301632 
L 382.459985 173.011572 
L 382.870286 241.717408 
L 383.075436 237.265746 
L 383.485736 194.60914 
L 383.896037 237.157073 
L 384.101187 240.472298 
L 384.511487 198.657649 
L 385.126938 244.802178 
L 385.537238 202.67915 
L 385.742388 210.888346 
L 386.152689 252.236847 
L 386.562989 206.11001 
L 386.768139 207.06626 
L 386.973289 226.942177 
L 387.17844 272.734559 
L 387.38359 226.408269 
L 387.58874 208.915905 
L 387.79389 202.638896 
L 387.99904 223.952475 
L 388.20419 258.192178 
L 388.614491 211.287024 
L 388.819641 196.779798 
L 389.229941 244.609848 
L 389.640242 213.595434 
L 389.845392 188.252288 
L 390.255692 235.26939 
L 390.460842 237.884415 
L 390.665993 216.351848 
L 390.871143 170.84135 
L 391.076293 212.479811 
L 391.896894 258.859853 
L 392.102044 238.118184 
L 392.717495 214.328796 
L 392.922645 197.77948 
L 393.127795 214.603179 
L 393.332945 247.889227 
L 393.948396 200.011464 
L 394.153546 209.65705 
L 394.358696 234.494413 
L 394.563846 233.914292 
L 394.974147 202.911921 
L 395.179297 205.169434 
L 395.384447 229.922006 
L 395.589597 237.580524 
L 395.999897 205.349201 
L 396.205048 200.86498 
L 396.615348 241.531671 
L 397.025648 207.376993 
L 397.230799 195.127721 
L 397.641099 242.913783 
L 398.256549 186.818399 
L 398.66685 240.714685 
L 399.2823 180.57983 
L 399.487451 215.360883 
L 399.897751 242.568868 
L 400.102901 216.074747 
L 400.308051 155.224153 
L 400.513201 208.492313 
L 400.923502 243.302995 
L 401.333802 200.209659 
L 401.538952 205.944924 
L 401.949253 245.003767 
L 402.359553 198.495626 
L 402.564703 203.896583 
L 402.975004 251.158854 
L 403.385304 200.95054 
L 403.590454 200.311463 
L 403.795604 219.925815 
L 404.000755 271.908793 
L 404.205905 220.198611 
L 404.411055 203.363156 
L 404.616205 195.93922 
L 404.821355 217.702766 
L 405.026505 256.119036 
L 405.436806 205.579564 
L 405.641956 190.075023 
L 406.052256 243.172825 
L 406.667707 181.753748 
L 407.078007 235.82648 
L 407.283158 226.053775 
L 407.488308 209.30817 
L 407.693458 164.653495 
L 408.103758 230.511486 
L 408.308908 228.624791 
L 408.514059 211.013513 
L 408.719209 140.000164 
L 408.924359 206.769237 
L 409.129509 225.971299 
L 409.334659 233.377408 
L 409.53981 212.823324 
L 409.95011 203.502232 
L 410.36041 241.382321 
L 410.770711 197.789606 
L 410.975861 199.681633 
L 411.181011 217.258285 
L 411.386161 259.062043 
L 411.591311 218.174022 
L 411.796462 199.503385 
L 412.001612 194.362128 
L 412.411912 218.888714 
L 412.617062 228.541803 
L 412.822212 247.729801 
L 413.027363 240.471859 
L 413.437663 219.468515 
L 413.847963 202.46985 
L 414.053114 188.905405 
L 414.463414 236.131953 
L 415.078864 178.906708 
L 415.489165 263.218258 
L 415.694315 218.697106 
L 415.899465 206.055147 
L 416.104615 159.941902 
L 416.514916 243.789673 
L 416.925216 207.552751 
L 417.130366 139.587937 
L 417.335516 206.317099 
L 417.540667 233.208567 
L 417.950967 208.937608 
L 418.156117 234.952851 
L 418.361267 202.743038 
L 418.566418 227.182924 
L 418.771568 225.785944 
L 419.181868 197.997677 
L 419.387018 198.919412 
L 419.592168 222.828109 
L 419.797319 228.313705 
L 420.207619 198.304458 
L 420.412769 195.188849 
L 420.82307 233.737256 
L 421.23337 199.848166 
L 421.43852 190.105517 
L 421.848821 238.425037 
L 422.259121 201.391259 
L 422.464271 183.272484 
L 422.874571 246.109928 
L 423.079722 214.99236 
L 423.284872 202.821683 
L 423.490022 174.68173 
L 423.900322 255.49339 
L 424.105473 216.067953 
L 424.310623 203.983067 
L 424.515773 153.177322 
L 424.720923 208.012281 
L 424.926073 298.358172 
L 425.131223 217.15706 
L 425.336374 205.124459 
L 425.541524 147.842564 
L 425.746674 204.928046 
L 425.951824 227.904 
L 426.156974 224.976881 
L 426.362125 208.392771 
L 426.567275 206.677366 
L 426.772425 194.506118 
L 427.182725 240.35412 
L 427.387875 210.355148 
L 427.798176 193.216328 
L 428.003326 212.571341 
L 428.208476 253.482626 
L 428.413626 211.829842 
L 428.823927 189.184249 
L 429.029077 210.403528 
L 429.234227 254.971497 
L 429.439377 213.393698 
L 429.849678 184.436309 
L 430.259978 238.761541 
L 430.875429 177.010454 
L 431.285729 228.247406 
L 431.490879 218.254694 
L 431.696029 202.066563 
L 431.901179 165.906268 
L 432.31148 219.688431 
L 432.51663 224.464509 
L 432.72178 204.163675 
L 432.92693 138.377729 
L 433.132081 195.270851 
L 433.747531 226.724629 
L 433.952681 294.610737 
L 434.157832 228.065534 
L 434.568132 210.99454 
L 434.773282 203.776132 
L 434.978432 208.347206 
L 435.183582 199.180856 
L 435.388733 231.98393 
L 435.799033 205.839707 
L 436.209333 193.321403 
L 436.414484 219.674987 
L 436.619634 222.361638 
L 437.029934 197.783066 
L 437.235084 188.108656 
L 437.645385 227.794486 
L 438.055685 198.177085 
L 438.260835 182.154452 
L 438.671136 235.841422 
L 438.876286 210.319864 
L 439.081436 199.178924 
L 439.286586 174.169686 
L 439.491736 206.357005 
L 439.696886 259.732103 
L 439.902037 211.844076 
L 440.107187 200.339077 
L 440.312337 160.729858 
L 440.722637 240.566825 
L 440.927788 213.566419 
L 441.132938 201.542995 
L 441.338088 122.44605 
L 441.543238 199.797177 
L 441.748388 229.112235 
L 442.158689 202.743808 
L 442.363839 157.779392 
L 442.774139 222.188929 
L 442.979289 217.626148 
L 443.18444 203.957701 
L 443.38959 201.356046 
L 443.59474 192.429965 
L 443.79989 217.300587 
L 444.00504 220.820258 
L 444.21019 205.164495 
L 444.415341 202.229262 
L 444.620491 188.306317 
L 444.825641 213.099272 
L 445.030791 224.436937 
L 445.441092 198.045216 
L 445.646242 183.260234 
L 446.056542 230.271687 
L 446.261692 207.733186 
L 446.466842 197.855201 
L 446.671993 176.951738 
L 447.082293 241.708861 
L 447.287443 209.18078 
L 447.492593 198.537438 
L 447.697744 167.714003 
L 448.108044 253.288866 
L 448.313194 210.782188 
L 448.518344 199.492378 
L 448.723495 150.801274 
L 449.133795 231.733221 
L 449.544095 200.565828 
L 449.749245 72.956671 
L 449.954396 195.818761 
L 450.159546 223.042112 
L 450.364696 214.8253 
L 450.569846 201.693094 
L 450.774996 164.863983 
L 451.185297 216.746373 
L 451.390447 217.76185 
L 451.595597 202.927229 
L 451.800747 199.598637 
L 452.005897 187.943401 
L 452.416198 222.742444 
L 452.621348 204.376959 
L 452.826498 204.551009 
L 453.031648 182.672452 
L 453.441949 239.385325 
L 453.647099 206.657816 
L 453.852249 198.656413 
L 454.057399 174.787754 
L 454.4677 207.837534 
L 454.67285 220.845626 
L 454.878 262.000439 
L 455.08315 222.325496 
L 455.493451 208.072508 
L 455.903751 197.989749 
L 456.108901 165.451392 
L 456.314051 212.47234 
L 456.519201 216.349466 
L 456.929502 198.510052 
L 457.134652 141.094904 
L 457.339802 210.005169 
L 457.544952 212.742624 
L 457.750103 202.691132 
L 457.955253 198.216021 
L 458.160403 156.652138 
L 458.775853 224.069399 
L 459.186154 169.504305 
L 459.801604 217.413043 
L 460.006755 201.775695 
L 460.211905 201.338807 
L 460.417055 184.582621 
L 460.622205 209.956749 
L 460.827355 218.986692 
L 461.032505 202.875224 
L 461.237656 205.628109 
L 461.442806 179.696519 
L 461.853106 222.546401 
L 462.058256 203.813515 
L 462.263407 199.067148 
L 462.468557 173.274519 
L 462.878857 228.608516 
L 463.084007 204.980388 
L 463.289158 197.834634 
L 463.494308 164.794562 
L 463.904608 242.67465 
L 464.109758 206.215823 
L 464.314908 197.861135 
L 464.520059 151.179979 
L 464.930359 246.811672 
L 465.135509 207.668228 
L 465.340659 198.344192 
L 465.54581 96.991978 
L 465.75096 192.713799 
L 465.95611 227.288139 
L 466.36641 199.039462 
L 466.57156 149.313436 
L 466.981861 218.969809 
L 467.392161 199.856886 
L 467.597311 177.467963 
L 467.802462 185.650446 
L 468.007612 213.198873 
L 468.212762 213.57059 
L 468.417912 200.7896 
L 468.623062 206.736419 
L 468.828212 180.441448 
L 469.033363 208.186394 
L 469.238513 216.876438 
L 469.443663 201.747324 
L 469.648813 206.127663 
L 469.853963 174.71073 
L 470.264264 221.407739 
L 470.469414 202.872845 
L 470.674564 199.610585 
L 470.879714 166.748168 
L 471.290015 230.040122 
L 471.495165 204.110788 
L 471.700315 198.022068 
L 471.905465 155.563712 
L 472.110615 195.704824 
L 472.315766 264.468611 
L 472.520916 205.645545 
L 472.726066 197.767045 
L 472.931216 132.375738 
L 473.341516 224.295513 
L 473.751817 198.075867 
L 473.956967 117.264421 
L 474.162117 186.607052 
L 474.367267 211.383656 
L 474.572418 212.208615 
L 474.777568 198.819412 
L 474.982718 155.657341 
L 475.393018 194.181786 
L 476.008469 234.275663 
L 476.213619 215.482813 
L 476.623919 203.288191 
L 476.82907 199.049733 
L 477.03422 222.886636 
L 477.23937 182.318795 
L 477.44452 227.596865 
L 477.64967 208.014552 
L 477.854821 200.033887 
L 478.059971 203.814735 
L 478.265121 173.022503 
L 478.470271 210.784028 
L 478.675421 211.458629 
L 478.880571 200.928532 
L 479.085722 199.555624 
L 479.290872 162.319297 
L 479.496022 203.843636 
L 479.701172 214.992216 
L 479.906322 201.818502 
L 480.111473 198.158538 
L 480.316623 146.167483 
L 480.521773 198.237544 
L 480.726923 219.826909 
L 480.932073 202.759506 
L 481.137223 197.773424 
L 481.342374 65.600761 
L 481.547524 194.225313 
L 481.752674 227.685417 
L 481.957824 203.779358 
L 482.162974 197.843891 
L 482.368125 146.532984 
L 482.778425 250.392954 
L 482.983575 204.915624 
L 483.188725 198.157527 
L 483.393875 172.757584 
L 483.599026 183.624383 
L 483.804176 223.783813 
L 484.214476 198.672738 
L 484.624777 176.892187 
L 484.829927 208.996443 
L 485.035077 210.697063 
L 485.240227 199.446737 
L 485.445377 217.72697 
L 485.650527 171.655011 
L 486.060828 215.616129 
L 486.265978 200.378527 
L 486.471128 206.95692 
L 486.676278 160.652554 
L 487.086579 221.689098 
L 487.291729 201.32406 
L 487.496879 200.564762 
L 487.702029 147.194944 
L 488.11233 233.913519 
L 488.31748 202.320231 
L 488.52263 198.562337 
L 488.72778 117.593971 
L 489.138081 238.596135 
L 489.343231 203.674954 
L 489.548381 197.858978 
L 489.753531 124.62902 
L 490.163832 222.222154 
L 490.368982 204.89821 
L 490.574132 197.777629 
L 490.779282 157.268794 
L 491.189582 213.023925 
L 491.599883 198.019887 
L 491.805033 175.590064 
L 492.010183 175.297675 
L 492.215333 206.591035 
L 492.420484 209.14648 
L 492.830784 192.537011 
L 493.035934 169.010716 
L 493.241084 200.945546 
L 493.446234 212.781729 
L 493.651385 199.137748 
L 493.856535 227.387032 
L 494.061685 160.406142 
L 494.471985 219.895799 
L 494.677136 200.054788 
L 494.882286 208.6072 
L 495.087436 147.746408 
L 495.497736 240.90733 
L 495.702886 201.745337 
L 495.908037 202.531145 
L 496.113187 121.111049 
L 496.318337 177.286903 
L 496.933788 225.21771 
L 496.933788 225.21771 
" style="fill:none;stroke:#ff0000;stroke-linecap:square;"/>
   </g>
   <g id="patch_3">
    <path d="M 76.8375 512.64 
L 76.8375 40.32 
" style="fill:none;stroke:#000000;stroke-linecap:square;stroke-linejoin:miter;stroke-width:0.8;"/>
   </g>
   <g id="patch_4">
    <path d="M 496.8825 512.64 
L 496.8825 40.32 
" style="fill:none;stroke:#000000;stroke-linecap:square;stroke-linejoin:miter;stroke-width:0.8;"/>
   </g>
   <g id="patch_5">
    <path d="M 76.8375 512.64 
L 496.8825 512.64 
" style="fill:none;stroke:#000000;stroke-linecap:square;stroke-linejoin:miter;stroke-width:0.8;"/>
   </g>
   <g id="patch_6">
    <path d="M 76.8375 40.32 
L 496.8825 40.32 
" style="fill:none;stroke:#000000;stroke-linecap:square;stroke-linejoin:miter;stroke-width:0.8;"/>
   </g>
  </g>
 </g>
 <defs>
  <clipPath id="p38fd78f2b8">
   <rect height="472.32" width="420.045" x="76.8375" y="40.32"/>
  </clipPath>
 </defs>
</svg>
