<?xml version="1.0" encoding="utf-8" standalone="no"?>
<!DOCTYPE svg PUBLIC "-//W3C//DTD SVG 1.1//EN"
  "http://www.w3.org/Graphics/SVG/1.1/DTD/svg11.dtd">
<!-- Created with matplotlib (https://matplotlib.org/) -->
<svg height="576pt" version="1.1" viewBox="0 0 512.25 576" width="512.25pt" xmlns="http://www.w3.org/2000/svg" xmlns:xlink="http://www.w3.org/1999/xlink">
 <defs>
  <style type="text/css">
*{stroke-linecap:butt;stroke-linejoin:round;}
  </style>
 </defs>
 <g id="figure_1">
  <g id="patch_1">
   <path d="M 0 576 
L 512.25 576 
L 512.25 0 
L 0 0 
z
" style="fill:#ffffff;"/>
  </g>
  <g id="axes_1">
   <g id="patch_2">
    <path d="M 76.8375 512.64 
L 496.8825 512.64 
L 496.8825 40.32 
L 76.8375 40.32 
z
" style="fill:#ffffff;"/>
   </g>
   <g id="matplotlib.axis_1">
    <g id="xtick_1">
     <g id="line2d_1">
      <path clip-path="url(#pfbd28d87bf)" d="M 76.8375 512.64 
L 76.8375 40.32 
" style="fill:none;stroke:#e6e6e6;stroke-linecap:square;stroke-width:0.8;"/>
     </g>
     <g id="line2d_2">
      <defs>
       <path d="M 0 0 
L 0 -3.5 
" id="m515390148e" style="stroke:#000000;stroke-width:0.8;"/>
      </defs>
      <g>
       <use style="stroke:#000000;stroke-width:0.8;" x="76.8375" xlink:href="#m515390148e" y="512.64"/>
      </g>
     </g>
     <g id="text_1">
      <!-- −2.0 -->
      <defs>
       <path d="M 10.59375 35.5 
L 73.1875 35.5 
L 73.1875 27.203125 
L 10.59375 27.203125 
z
" id="DejaVuSans-8722"/>
       <path d="M 19.1875 8.296875 
L 53.609375 8.296875 
L 53.609375 0 
L 7.328125 0 
L 7.328125 8.296875 
Q 12.9375 14.109375 22.625 23.890625 
Q 32.328125 33.6875 34.8125 36.53125 
Q 39.546875 41.84375 41.421875 45.53125 
Q 43.3125 49.21875 43.3125 52.78125 
Q 43.3125 58.59375 39.234375 62.25 
Q 35.15625 65.921875 28.609375 65.921875 
Q 23.96875 65.921875 18.8125 64.3125 
Q 13.671875 62.703125 7.8125 59.421875 
L 7.8125 69.390625 
Q 13.765625 71.78125 18.9375 73 
Q 24.125 74.21875 28.421875 74.21875 
Q 39.75 74.21875 46.484375 68.546875 
Q 53.21875 62.890625 53.21875 53.421875 
Q 53.21875 48.921875 51.53125 44.890625 
Q 49.859375 40.875 45.40625 35.40625 
Q 44.1875 33.984375 37.640625 27.21875 
Q 31.109375 20.453125 19.1875 8.296875 
z
" id="DejaVuSans-50"/>
       <path d="M 10.6875 12.40625 
L 21 12.40625 
L 21 0 
L 10.6875 0 
z
" id="DejaVuSans-46"/>
       <path d="M 31.78125 66.40625 
Q 24.171875 66.40625 20.328125 58.90625 
Q 16.5 51.421875 16.5 36.375 
Q 16.5 21.390625 20.328125 13.890625 
Q 24.171875 6.390625 31.78125 6.390625 
Q 39.453125 6.390625 43.28125 13.890625 
Q 47.125 21.390625 47.125 36.375 
Q 47.125 51.421875 43.28125 58.90625 
Q 39.453125 66.40625 31.78125 66.40625 
z
M 31.78125 74.21875 
Q 44.046875 74.21875 50.515625 64.515625 
Q 56.984375 54.828125 56.984375 36.375 
Q 56.984375 17.96875 50.515625 8.265625 
Q 44.046875 -1.421875 31.78125 -1.421875 
Q 19.53125 -1.421875 13.0625 8.265625 
Q 6.59375 17.96875 6.59375 36.375 
Q 6.59375 54.828125 13.0625 64.515625 
Q 19.53125 74.21875 31.78125 74.21875 
z
" id="DejaVuSans-48"/>
      </defs>
      <g transform="translate(58.625391 527.537656)scale(0.15 -0.15)">
       <use xlink:href="#DejaVuSans-8722"/>
       <use x="83.789062" xlink:href="#DejaVuSans-50"/>
       <use x="147.412109" xlink:href="#DejaVuSans-46"/>
       <use x="179.199219" xlink:href="#DejaVuSans-48"/>
      </g>
     </g>
    </g>
    <g id="xtick_2">
     <g id="line2d_3">
      <path clip-path="url(#pfbd28d87bf)" d="M 129.343125 512.64 
L 129.343125 40.32 
" style="fill:none;stroke:#e6e6e6;stroke-linecap:square;stroke-width:0.8;"/>
     </g>
     <g id="line2d_4">
      <g>
       <use style="stroke:#000000;stroke-width:0.8;" x="129.343125" xlink:href="#m515390148e" y="512.64"/>
      </g>
     </g>
     <g id="text_2">
      <!-- −1.5 -->
      <defs>
       <path d="M 12.40625 8.296875 
L 28.515625 8.296875 
L 28.515625 63.921875 
L 10.984375 60.40625 
L 10.984375 69.390625 
L 28.421875 72.90625 
L 38.28125 72.90625 
L 38.28125 8.296875 
L 54.390625 8.296875 
L 54.390625 0 
L 12.40625 0 
z
" id="DejaVuSans-49"/>
       <path d="M 10.796875 72.90625 
L 49.515625 72.90625 
L 49.515625 64.59375 
L 19.828125 64.59375 
L 19.828125 46.734375 
Q 21.96875 47.46875 24.109375 47.828125 
Q 26.265625 48.1875 28.421875 48.1875 
Q 40.625 48.1875 47.75 41.5 
Q 54.890625 34.8125 54.890625 23.390625 
Q 54.890625 11.625 47.5625 5.09375 
Q 40.234375 -1.421875 26.90625 -1.421875 
Q 22.3125 -1.421875 17.546875 -0.640625 
Q 12.796875 0.140625 7.71875 1.703125 
L 7.71875 11.625 
Q 12.109375 9.234375 16.796875 8.0625 
Q 21.484375 6.890625 26.703125 6.890625 
Q 35.15625 6.890625 40.078125 11.328125 
Q 45.015625 15.765625 45.015625 23.390625 
Q 45.015625 31 40.078125 35.4375 
Q 35.15625 39.890625 26.703125 39.890625 
Q 22.75 39.890625 18.8125 39.015625 
Q 14.890625 38.140625 10.796875 36.28125 
z
" id="DejaVuSans-53"/>
      </defs>
      <g transform="translate(111.131016 527.537656)scale(0.15 -0.15)">
       <use xlink:href="#DejaVuSans-8722"/>
       <use x="83.789062" xlink:href="#DejaVuSans-49"/>
       <use x="147.412109" xlink:href="#DejaVuSans-46"/>
       <use x="179.199219" xlink:href="#DejaVuSans-53"/>
      </g>
     </g>
    </g>
    <g id="xtick_3">
     <g id="line2d_5">
      <path clip-path="url(#pfbd28d87bf)" d="M 181.84875 512.64 
L 181.84875 40.32 
" style="fill:none;stroke:#e6e6e6;stroke-linecap:square;stroke-width:0.8;"/>
     </g>
     <g id="line2d_6">
      <g>
       <use style="stroke:#000000;stroke-width:0.8;" x="181.84875" xlink:href="#m515390148e" y="512.64"/>
      </g>
     </g>
     <g id="text_3">
      <!-- −1.0 -->
      <g transform="translate(163.636641 527.537656)scale(0.15 -0.15)">
       <use xlink:href="#DejaVuSans-8722"/>
       <use x="83.789062" xlink:href="#DejaVuSans-49"/>
       <use x="147.412109" xlink:href="#DejaVuSans-46"/>
       <use x="179.199219" xlink:href="#DejaVuSans-48"/>
      </g>
     </g>
    </g>
    <g id="xtick_4">
     <g id="line2d_7">
      <path clip-path="url(#pfbd28d87bf)" d="M 234.354375 512.64 
L 234.354375 40.32 
" style="fill:none;stroke:#e6e6e6;stroke-linecap:square;stroke-width:0.8;"/>
     </g>
     <g id="line2d_8">
      <g>
       <use style="stroke:#000000;stroke-width:0.8;" x="234.354375" xlink:href="#m515390148e" y="512.64"/>
      </g>
     </g>
     <g id="text_4">
      <!-- −0.5 -->
      <g transform="translate(216.142266 527.537656)scale(0.15 -0.15)">
       <use xlink:href="#DejaVuSans-8722"/>
       <use x="83.789062" xlink:href="#DejaVuSans-48"/>
       <use x="147.412109" xlink:href="#DejaVuSans-46"/>
       <use x="179.199219" xlink:href="#DejaVuSans-53"/>
      </g>
     </g>
    </g>
    <g id="xtick_5">
     <g id="line2d_9">
      <path clip-path="url(#pfbd28d87bf)" d="M 286.86 512.64 
L 286.86 40.32 
" style="fill:none;stroke:#e6e6e6;stroke-linecap:square;stroke-width:0.8;"/>
     </g>
     <g id="line2d_10">
      <g>
       <use style="stroke:#000000;stroke-width:0.8;" x="286.86" xlink:href="#m515390148e" y="512.64"/>
      </g>
     </g>
     <g id="text_5">
      <!-- 0.0 -->
      <g transform="translate(274.932656 527.537656)scale(0.15 -0.15)">
       <use xlink:href="#DejaVuSans-48"/>
       <use x="63.623047" xlink:href="#DejaVuSans-46"/>
       <use x="95.410156" xlink:href="#DejaVuSans-48"/>
      </g>
     </g>
    </g>
    <g id="xtick_6">
     <g id="line2d_11">
      <path clip-path="url(#pfbd28d87bf)" d="M 339.365625 512.64 
L 339.365625 40.32 
" style="fill:none;stroke:#e6e6e6;stroke-linecap:square;stroke-width:0.8;"/>
     </g>
     <g id="line2d_12">
      <g>
       <use style="stroke:#000000;stroke-width:0.8;" x="339.365625" xlink:href="#m515390148e" y="512.64"/>
      </g>
     </g>
     <g id="text_6">
      <!-- 0.5 -->
      <g transform="translate(327.438281 527.537656)scale(0.15 -0.15)">
       <use xlink:href="#DejaVuSans-48"/>
       <use x="63.623047" xlink:href="#DejaVuSans-46"/>
       <use x="95.410156" xlink:href="#DejaVuSans-53"/>
      </g>
     </g>
    </g>
    <g id="xtick_7">
     <g id="line2d_13">
      <path clip-path="url(#pfbd28d87bf)" d="M 391.87125 512.64 
L 391.87125 40.32 
" style="fill:none;stroke:#e6e6e6;stroke-linecap:square;stroke-width:0.8;"/>
     </g>
     <g id="line2d_14">
      <g>
       <use style="stroke:#000000;stroke-width:0.8;" x="391.87125" xlink:href="#m515390148e" y="512.64"/>
      </g>
     </g>
     <g id="text_7">
      <!-- 1.0 -->
      <g transform="translate(379.943906 527.537656)scale(0.15 -0.15)">
       <use xlink:href="#DejaVuSans-49"/>
       <use x="63.623047" xlink:href="#DejaVuSans-46"/>
       <use x="95.410156" xlink:href="#DejaVuSans-48"/>
      </g>
     </g>
    </g>
    <g id="xtick_8">
     <g id="line2d_15">
      <path clip-path="url(#pfbd28d87bf)" d="M 444.376875 512.64 
L 444.376875 40.32 
" style="fill:none;stroke:#e6e6e6;stroke-linecap:square;stroke-width:0.8;"/>
     </g>
     <g id="line2d_16">
      <g>
       <use style="stroke:#000000;stroke-width:0.8;" x="444.376875" xlink:href="#m515390148e" y="512.64"/>
      </g>
     </g>
     <g id="text_8">
      <!-- 1.5 -->
      <g transform="translate(432.449531 527.537656)scale(0.15 -0.15)">
       <use xlink:href="#DejaVuSans-49"/>
       <use x="63.623047" xlink:href="#DejaVuSans-46"/>
       <use x="95.410156" xlink:href="#DejaVuSans-53"/>
      </g>
     </g>
    </g>
    <g id="xtick_9">
     <g id="line2d_17">
      <path clip-path="url(#pfbd28d87bf)" d="M 496.8825 512.64 
L 496.8825 40.32 
" style="fill:none;stroke:#e6e6e6;stroke-linecap:square;stroke-width:0.8;"/>
     </g>
     <g id="line2d_18">
      <g>
       <use style="stroke:#000000;stroke-width:0.8;" x="496.8825" xlink:href="#m515390148e" y="512.64"/>
      </g>
     </g>
     <g id="text_9">
      <!-- 2.0 -->
      <g transform="translate(484.955156 527.537656)scale(0.15 -0.15)">
       <use xlink:href="#DejaVuSans-50"/>
       <use x="63.623047" xlink:href="#DejaVuSans-46"/>
       <use x="95.410156" xlink:href="#DejaVuSans-48"/>
      </g>
     </g>
    </g>
    <g id="text_10">
     <!-- $q(\AA^{-1})$ -->
     <defs>
      <path d="M 41.703125 8.203125 
Q 38.09375 3.46875 33.171875 1.015625 
Q 28.265625 -1.421875 22.3125 -1.421875 
Q 14.015625 -1.421875 9.296875 4.171875 
Q 4.59375 9.765625 4.59375 19.578125 
Q 4.59375 27.484375 7.5 34.859375 
Q 10.40625 42.234375 15.828125 48.09375 
Q 19.34375 51.90625 23.90625 53.953125 
Q 28.46875 56 33.5 56 
Q 39.546875 56 43.453125 53.609375 
Q 47.359375 51.21875 49.125 46.390625 
L 50.6875 54.59375 
L 59.71875 54.59375 
L 45.125 -20.609375 
L 36.078125 -20.609375 
z
M 13.921875 20.90625 
Q 13.921875 13.671875 16.9375 9.890625 
Q 19.96875 6.109375 25.6875 6.109375 
Q 34.1875 6.109375 40.1875 14.234375 
Q 46.1875 22.359375 46.1875 33.984375 
Q 46.1875 41.015625 43.078125 44.75 
Q 39.984375 48.484375 34.1875 48.484375 
Q 29.9375 48.484375 26.3125 46.5 
Q 22.703125 44.53125 20.015625 40.71875 
Q 17.1875 36.71875 15.546875 31.34375 
Q 13.921875 25.984375 13.921875 20.90625 
z
" id="DejaVuSans-Oblique-113"/>
      <path d="M 31 75.875 
Q 24.46875 64.65625 21.28125 53.65625 
Q 18.109375 42.671875 18.109375 31.390625 
Q 18.109375 20.125 21.3125 9.0625 
Q 24.515625 -2 31 -13.1875 
L 23.1875 -13.1875 
Q 15.875 -1.703125 12.234375 9.375 
Q 8.59375 20.453125 8.59375 31.390625 
Q 8.59375 42.28125 12.203125 53.3125 
Q 15.828125 64.359375 23.1875 75.875 
z
" id="DejaVuSans-40"/>
      <path d="M 49.8125 79.390625 
Q 49.8125 82.46875 47.625 84.640625 
Q 45.453125 86.8125 42.390625 86.8125 
Q 39.265625 86.8125 37.140625 84.6875 
Q 35.015625 82.5625 35.015625 79.390625 
Q 35.015625 76.3125 37.140625 74.15625 
Q 39.265625 72.015625 42.390625 72.015625 
Q 45.453125 72.015625 47.625 74.15625 
Q 49.8125 76.3125 49.8125 79.390625 
z
M 34.421875 68.703125 
Q 31.78125 70.515625 30.390625 73.265625 
Q 29 76.03125 29 79.390625 
Q 29 84.96875 32.90625 88.890625 
Q 36.8125 92.828125 42.390625 92.828125 
Q 47.953125 92.828125 51.875 88.890625 
Q 55.8125 84.96875 55.8125 79.390625 
Q 55.8125 75.53125 54.03125 72.546875 
Q 52.25 69.578125 48.875 67.828125 
L 61.53125 0 
L 51.21875 0 
L 48.1875 18.703125 
L 15.375 18.703125 
L 5.078125 0 
L -5.328125 0 
z
M 40.375 63.1875 
L 19.921875 26.90625 
L 46.6875 26.90625 
z
" id="DejaVuSans-Oblique-197"/>
      <path d="M 8.015625 75.875 
L 15.828125 75.875 
Q 23.140625 64.359375 26.78125 53.3125 
Q 30.421875 42.28125 30.421875 31.390625 
Q 30.421875 20.453125 26.78125 9.375 
Q 23.140625 -1.703125 15.828125 -13.1875 
L 8.015625 -13.1875 
Q 14.5 -2 17.703125 9.0625 
Q 20.90625 20.125 20.90625 31.390625 
Q 20.90625 42.671875 17.703125 53.65625 
Q 14.5 64.65625 8.015625 75.875 
z
" id="DejaVuSans-41"/>
     </defs>
     <g transform="translate(246.11 557.907187)scale(0.25 -0.25)">
      <use transform="translate(0 0.171875)" xlink:href="#DejaVuSans-Oblique-113"/>
      <use transform="translate(63.476562 0.171875)" xlink:href="#DejaVuSans-40"/>
      <use transform="translate(102.490234 0.171875)" xlink:href="#DejaVuSans-Oblique-197"/>
      <use transform="translate(180.704271 38.453125)scale(0.7)" xlink:href="#DejaVuSans-8722"/>
      <use transform="translate(239.356615 38.453125)scale(0.7)" xlink:href="#DejaVuSans-49"/>
      <use transform="translate(286.627122 0.171875)" xlink:href="#DejaVuSans-41"/>
     </g>
    </g>
   </g>
   <g id="matplotlib.axis_2">
    <g id="ytick_1">
     <g id="line2d_19">
      <path clip-path="url(#pfbd28d87bf)" d="M 76.8375 512.64 
L 496.8825 512.64 
" style="fill:none;stroke:#e6e6e6;stroke-linecap:square;stroke-width:0.8;"/>
     </g>
     <g id="line2d_20">
      <defs>
       <path d="M 0 0 
L 3.5 0 
" id="mc34a1d88e2" style="stroke:#000000;stroke-width:0.8;"/>
      </defs>
      <g>
       <use style="stroke:#000000;stroke-width:0.8;" x="76.8375" xlink:href="#mc34a1d88e2" y="512.64"/>
      </g>
     </g>
     <g id="text_11">
      <!-- 0.0 -->
      <g transform="translate(49.482812 518.338828)scale(0.15 -0.15)">
       <use xlink:href="#DejaVuSans-48"/>
       <use x="63.623047" xlink:href="#DejaVuSans-46"/>
       <use x="95.410156" xlink:href="#DejaVuSans-48"/>
      </g>
     </g>
    </g>
    <g id="ytick_2">
     <g id="line2d_21">
      <path clip-path="url(#pfbd28d87bf)" d="M 76.8375 418.176 
L 496.8825 418.176 
" style="fill:none;stroke:#e6e6e6;stroke-linecap:square;stroke-width:0.8;"/>
     </g>
     <g id="line2d_22">
      <g>
       <use style="stroke:#000000;stroke-width:0.8;" x="76.8375" xlink:href="#mc34a1d88e2" y="418.176"/>
      </g>
     </g>
     <g id="text_12">
      <!-- 0.2 -->
      <g transform="translate(49.482812 423.874828)scale(0.15 -0.15)">
       <use xlink:href="#DejaVuSans-48"/>
       <use x="63.623047" xlink:href="#DejaVuSans-46"/>
       <use x="95.410156" xlink:href="#DejaVuSans-50"/>
      </g>
     </g>
    </g>
    <g id="ytick_3">
     <g id="line2d_23">
      <path clip-path="url(#pfbd28d87bf)" d="M 76.8375 323.712 
L 496.8825 323.712 
" style="fill:none;stroke:#e6e6e6;stroke-linecap:square;stroke-width:0.8;"/>
     </g>
     <g id="line2d_24">
      <g>
       <use style="stroke:#000000;stroke-width:0.8;" x="76.8375" xlink:href="#mc34a1d88e2" y="323.712"/>
      </g>
     </g>
     <g id="text_13">
      <!-- 0.4 -->
      <defs>
       <path d="M 37.796875 64.3125 
L 12.890625 25.390625 
L 37.796875 25.390625 
z
M 35.203125 72.90625 
L 47.609375 72.90625 
L 47.609375 25.390625 
L 58.015625 25.390625 
L 58.015625 17.1875 
L 47.609375 17.1875 
L 47.609375 0 
L 37.796875 0 
L 37.796875 17.1875 
L 4.890625 17.1875 
L 4.890625 26.703125 
z
" id="DejaVuSans-52"/>
      </defs>
      <g transform="translate(49.482812 329.410828)scale(0.15 -0.15)">
       <use xlink:href="#DejaVuSans-48"/>
       <use x="63.623047" xlink:href="#DejaVuSans-46"/>
       <use x="95.410156" xlink:href="#DejaVuSans-52"/>
      </g>
     </g>
    </g>
    <g id="ytick_4">
     <g id="line2d_25">
      <path clip-path="url(#pfbd28d87bf)" d="M 76.8375 229.248 
L 496.8825 229.248 
" style="fill:none;stroke:#e6e6e6;stroke-linecap:square;stroke-width:0.8;"/>
     </g>
     <g id="line2d_26">
      <g>
       <use style="stroke:#000000;stroke-width:0.8;" x="76.8375" xlink:href="#mc34a1d88e2" y="229.248"/>
      </g>
     </g>
     <g id="text_14">
      <!-- 0.6 -->
      <defs>
       <path d="M 33.015625 40.375 
Q 26.375 40.375 22.484375 35.828125 
Q 18.609375 31.296875 18.609375 23.390625 
Q 18.609375 15.53125 22.484375 10.953125 
Q 26.375 6.390625 33.015625 6.390625 
Q 39.65625 6.390625 43.53125 10.953125 
Q 47.40625 15.53125 47.40625 23.390625 
Q 47.40625 31.296875 43.53125 35.828125 
Q 39.65625 40.375 33.015625 40.375 
z
M 52.59375 71.296875 
L 52.59375 62.3125 
Q 48.875 64.0625 45.09375 64.984375 
Q 41.3125 65.921875 37.59375 65.921875 
Q 27.828125 65.921875 22.671875 59.328125 
Q 17.53125 52.734375 16.796875 39.40625 
Q 19.671875 43.65625 24.015625 45.921875 
Q 28.375 48.1875 33.59375 48.1875 
Q 44.578125 48.1875 50.953125 41.515625 
Q 57.328125 34.859375 57.328125 23.390625 
Q 57.328125 12.15625 50.6875 5.359375 
Q 44.046875 -1.421875 33.015625 -1.421875 
Q 20.359375 -1.421875 13.671875 8.265625 
Q 6.984375 17.96875 6.984375 36.375 
Q 6.984375 53.65625 15.1875 63.9375 
Q 23.390625 74.21875 37.203125 74.21875 
Q 40.921875 74.21875 44.703125 73.484375 
Q 48.484375 72.75 52.59375 71.296875 
z
" id="DejaVuSans-54"/>
      </defs>
      <g transform="translate(49.482812 234.946828)scale(0.15 -0.15)">
       <use xlink:href="#DejaVuSans-48"/>
       <use x="63.623047" xlink:href="#DejaVuSans-46"/>
       <use x="95.410156" xlink:href="#DejaVuSans-54"/>
      </g>
     </g>
    </g>
    <g id="ytick_5">
     <g id="line2d_27">
      <path clip-path="url(#pfbd28d87bf)" d="M 76.8375 134.784 
L 496.8825 134.784 
" style="fill:none;stroke:#e6e6e6;stroke-linecap:square;stroke-width:0.8;"/>
     </g>
     <g id="line2d_28">
      <g>
       <use style="stroke:#000000;stroke-width:0.8;" x="76.8375" xlink:href="#mc34a1d88e2" y="134.784"/>
      </g>
     </g>
     <g id="text_15">
      <!-- 0.8 -->
      <defs>
       <path d="M 31.78125 34.625 
Q 24.75 34.625 20.71875 30.859375 
Q 16.703125 27.09375 16.703125 20.515625 
Q 16.703125 13.921875 20.71875 10.15625 
Q 24.75 6.390625 31.78125 6.390625 
Q 38.8125 6.390625 42.859375 10.171875 
Q 46.921875 13.96875 46.921875 20.515625 
Q 46.921875 27.09375 42.890625 30.859375 
Q 38.875 34.625 31.78125 34.625 
z
M 21.921875 38.8125 
Q 15.578125 40.375 12.03125 44.71875 
Q 8.5 49.078125 8.5 55.328125 
Q 8.5 64.0625 14.71875 69.140625 
Q 20.953125 74.21875 31.78125 74.21875 
Q 42.671875 74.21875 48.875 69.140625 
Q 55.078125 64.0625 55.078125 55.328125 
Q 55.078125 49.078125 51.53125 44.71875 
Q 48 40.375 41.703125 38.8125 
Q 48.828125 37.15625 52.796875 32.3125 
Q 56.78125 27.484375 56.78125 20.515625 
Q 56.78125 9.90625 50.3125 4.234375 
Q 43.84375 -1.421875 31.78125 -1.421875 
Q 19.734375 -1.421875 13.25 4.234375 
Q 6.78125 9.90625 6.78125 20.515625 
Q 6.78125 27.484375 10.78125 32.3125 
Q 14.796875 37.15625 21.921875 38.8125 
z
M 18.3125 54.390625 
Q 18.3125 48.734375 21.84375 45.5625 
Q 25.390625 42.390625 31.78125 42.390625 
Q 38.140625 42.390625 41.71875 45.5625 
Q 45.3125 48.734375 45.3125 54.390625 
Q 45.3125 60.0625 41.71875 63.234375 
Q 38.140625 66.40625 31.78125 66.40625 
Q 25.390625 66.40625 21.84375 63.234375 
Q 18.3125 60.0625 18.3125 54.390625 
z
" id="DejaVuSans-56"/>
      </defs>
      <g transform="translate(49.482812 140.482828)scale(0.15 -0.15)">
       <use xlink:href="#DejaVuSans-48"/>
       <use x="63.623047" xlink:href="#DejaVuSans-46"/>
       <use x="95.410156" xlink:href="#DejaVuSans-56"/>
      </g>
     </g>
    </g>
    <g id="ytick_6">
     <g id="line2d_29">
      <path clip-path="url(#pfbd28d87bf)" d="M 76.8375 40.32 
L 496.8825 40.32 
" style="fill:none;stroke:#e6e6e6;stroke-linecap:square;stroke-width:0.8;"/>
     </g>
     <g id="line2d_30">
      <g>
       <use style="stroke:#000000;stroke-width:0.8;" x="76.8375" xlink:href="#mc34a1d88e2" y="40.32"/>
      </g>
     </g>
     <g id="text_16">
      <!-- 1.0 -->
      <g transform="translate(49.482812 46.018828)scale(0.15 -0.15)">
       <use xlink:href="#DejaVuSans-49"/>
       <use x="63.623047" xlink:href="#DejaVuSans-46"/>
       <use x="95.410156" xlink:href="#DejaVuSans-48"/>
      </g>
     </g>
    </g>
    <g id="text_17">
     <!-- $I$ -->
     <defs>
      <path d="M 16.890625 72.90625 
L 26.8125 72.90625 
L 12.59375 0 
L 2.6875 0 
z
" id="DejaVuSans-Oblique-73"/>
     </defs>
     <g transform="translate(40.283594 280.23)rotate(-90)scale(0.25 -0.25)">
      <use transform="translate(0 0.09375)" xlink:href="#DejaVuSans-Oblique-73"/>
     </g>
    </g>
   </g>
   <g id="line2d_31">
    <defs>
     <path d="M -2.5 2.5 
L 2.5 2.5 
L 2.5 -2.5 
L -2.5 -2.5 
z
" id="mcf77939419" style="stroke:#008000;stroke-linejoin:miter;"/>
    </defs>
    <g clip-path="url(#pfbd28d87bf)">
     <use style="fill:#008000;stroke:#008000;stroke-linejoin:miter;" x="76.581062" xlink:href="#mcf77939419" y="512.57324"/>
     <use style="fill:#008000;stroke:#008000;stroke-linejoin:miter;" x="87.043722" xlink:href="#mcf77939419" y="512.570858"/>
     <use style="fill:#008000;stroke:#008000;stroke-linejoin:miter;" x="108.17419" xlink:href="#mcf77939419" y="512.499656"/>
     <use style="fill:#008000;stroke:#008000;stroke-linejoin:miter;" x="118.63685" xlink:href="#mcf77939419" y="511.892185"/>
     <use style="fill:#008000;stroke:#008000;stroke-linejoin:miter;" x="126.637707" xlink:href="#mcf77939419" y="512.612851"/>
     <use style="fill:#008000;stroke:#008000;stroke-linejoin:miter;" x="129.304659" xlink:href="#mcf77939419" y="511.188495"/>
     <use style="fill:#008000;stroke:#008000;stroke-linejoin:miter;" x="131.766462" xlink:href="#mcf77939419" y="512.609876"/>
     <use style="fill:#008000;stroke:#008000;stroke-linejoin:miter;" x="137.100366" xlink:href="#mcf77939419" y="512.611474"/>
     <use style="fill:#008000;stroke:#008000;stroke-linejoin:miter;" x="139.767319" xlink:href="#mcf77939419" y="511.355626"/>
     <use style="fill:#008000;stroke:#008000;stroke-linejoin:miter;" x="150.229978" xlink:href="#mcf77939419" y="512.445398"/>
     <use style="fill:#008000;stroke:#008000;stroke-linejoin:miter;" x="160.897788" xlink:href="#mcf77939419" y="511.722587"/>
     <use style="fill:#008000;stroke:#008000;stroke-linejoin:miter;" x="163.35959" xlink:href="#mcf77939419" y="512.600457"/>
     <use style="fill:#008000;stroke:#008000;stroke-linejoin:miter;" x="166.641993" xlink:href="#mcf77939419" y="512.59965"/>
     <use style="fill:#008000;stroke:#008000;stroke-linejoin:miter;" x="168.693495" xlink:href="#mcf77939419" y="512.520088"/>
     <use style="fill:#008000;stroke:#008000;stroke-linejoin:miter;" x="171.360447" xlink:href="#mcf77939419" y="503.670685"/>
     <use style="fill:#008000;stroke:#008000;stroke-linejoin:miter;" x="173.822249" xlink:href="#mcf77939419" y="512.396247"/>
     <use style="fill:#008000;stroke:#008000;stroke-linejoin:miter;" x="177.104652" xlink:href="#mcf77939419" y="512.447046"/>
     <use style="fill:#008000;stroke:#008000;stroke-linejoin:miter;" x="179.156154" xlink:href="#mcf77939419" y="512.183066"/>
     <use style="fill:#008000;stroke:#008000;stroke-linejoin:miter;" x="181.823106" xlink:href="#mcf77939419" y="482.185497"/>
     <use style="fill:#008000;stroke:#008000;stroke-linejoin:miter;" x="184.490059" xlink:href="#mcf77939419" y="511.904865"/>
     <use style="fill:#008000;stroke:#008000;stroke-linejoin:miter;" x="187.567311" xlink:href="#mcf77939419" y="512.140194"/>
     <use style="fill:#008000;stroke:#008000;stroke-linejoin:miter;" x="189.823963" xlink:href="#mcf77939419" y="511.551492"/>
     <use style="fill:#008000;stroke:#008000;stroke-linejoin:miter;" x="192.285766" xlink:href="#mcf77939419" y="444.374235"/>
     <use style="fill:#008000;stroke:#008000;stroke-linejoin:miter;" x="194.952718" xlink:href="#mcf77939419" y="511.019974"/>
     <use style="fill:#008000;stroke:#008000;stroke-linejoin:miter;" x="198.029971" xlink:href="#mcf77939419" y="511.706381"/>
     <use style="fill:#008000;stroke:#008000;stroke-linejoin:miter;" x="200.286623" xlink:href="#mcf77939419" y="510.486729"/>
     <use style="fill:#008000;stroke:#008000;stroke-linejoin:miter;" x="202.748425" xlink:href="#mcf77939419" y="392.831535"/>
     <use style="fill:#008000;stroke:#008000;stroke-linejoin:miter;" x="205.415377" xlink:href="#mcf77939419" y="509.852183"/>
     <use style="fill:#008000;stroke:#008000;stroke-linejoin:miter;" x="208.69778" xlink:href="#mcf77939419" y="511.107114"/>
     <use style="fill:#008000;stroke:#008000;stroke-linejoin:miter;" x="210.749282" xlink:href="#mcf77939419" y="509.183449"/>
     <use style="fill:#008000;stroke:#008000;stroke-linejoin:miter;" x="213.416234" xlink:href="#mcf77939419" y="327.565762"/>
     <use style="fill:#008000;stroke:#008000;stroke-linejoin:miter;" x="215.878037" xlink:href="#mcf77939419" y="508.626545"/>
     <use style="fill:#008000;stroke:#008000;stroke-linejoin:miter;" x="219.16044" xlink:href="#mcf77939419" y="510.355623"/>
     <use style="fill:#008000;stroke:#008000;stroke-linejoin:miter;" x="221.211941" xlink:href="#mcf77939419" y="507.888642"/>
     <use style="fill:#008000;stroke:#008000;stroke-linejoin:miter;" x="223.878894" xlink:href="#mcf77939419" y="257.446161"/>
     <use style="fill:#008000;stroke:#008000;stroke-linejoin:miter;" x="226.340696" xlink:href="#mcf77939419" y="507.612856"/>
     <use style="fill:#008000;stroke:#008000;stroke-linejoin:miter;" x="229.623099" xlink:href="#mcf77939419" y="509.64564"/>
     <use style="fill:#008000;stroke:#008000;stroke-linejoin:miter;" x="231.674601" xlink:href="#mcf77939419" y="506.858808"/>
     <use style="fill:#008000;stroke:#008000;stroke-linejoin:miter;" x="234.341553" xlink:href="#mcf77939419" y="192.757434"/>
     <use style="fill:#008000;stroke:#008000;stroke-linejoin:miter;" x="237.008505" xlink:href="#mcf77939419" y="506.128348"/>
     <use style="fill:#008000;stroke:#008000;stroke-linejoin:miter;" x="239.060007" xlink:href="#mcf77939419" y="509.098453"/>
     <use style="fill:#008000;stroke:#008000;stroke-linejoin:miter;" x="242.34241" xlink:href="#mcf77939419" y="505.728672"/>
     <use style="fill:#008000;stroke:#008000;stroke-linejoin:miter;" x="244.804212" xlink:href="#mcf77939419" y="140.420287"/>
     <use style="fill:#008000;stroke:#008000;stroke-linejoin:miter;" x="247.471165" xlink:href="#mcf77939419" y="504.866521"/>
     <use style="fill:#008000;stroke:#008000;stroke-linejoin:miter;" x="249.522667" xlink:href="#mcf77939419" y="508.679712"/>
     <use style="fill:#008000;stroke:#008000;stroke-linejoin:miter;" x="252.80507" xlink:href="#mcf77939419" y="504.495611"/>
     <use style="fill:#008000;stroke:#008000;stroke-linejoin:miter;" x="255.266872" xlink:href="#mcf77939419" y="104.324337"/>
     <use style="fill:#008000;stroke:#008000;stroke-linejoin:miter;" x="257.933824" xlink:href="#mcf77939419" y="504.027783"/>
     <use style="fill:#008000;stroke:#008000;stroke-linejoin:miter;" x="261.216227" xlink:href="#mcf77939419" y="508.405873"/>
     <use style="fill:#008000;stroke:#008000;stroke-linejoin:miter;" x="263.267729" xlink:href="#mcf77939419" y="503.698923"/>
     <use style="fill:#008000;stroke:#008000;stroke-linejoin:miter;" x="265.934681" xlink:href="#mcf77939419" y="71.660434"/>
     <use style="fill:#008000;stroke:#008000;stroke-linejoin:miter;" x="268.396484" xlink:href="#mcf77939419" y="503.688412"/>
     <use style="fill:#008000;stroke:#008000;stroke-linejoin:miter;" x="271.678886" xlink:href="#mcf77939419" y="507.987527"/>
     <use style="fill:#008000;stroke:#008000;stroke-linejoin:miter;" x="273.730388" xlink:href="#mcf77939419" y="503.397444"/>
     <use style="fill:#008000;stroke:#008000;stroke-linejoin:miter;" x="276.397341" xlink:href="#mcf77939419" y="48.168532"/>
     <use style="fill:#008000;stroke:#008000;stroke-linejoin:miter;" x="278.859143" xlink:href="#mcf77939419" y="503.85632"/>
     <use style="fill:#008000;stroke:#008000;stroke-linejoin:miter;" x="282.141546" xlink:href="#mcf77939419" y="507.807154"/>
     <use style="fill:#008000;stroke:#008000;stroke-linejoin:miter;" x="284.193048" xlink:href="#mcf77939419" y="503.575107"/>
     <use style="fill:#008000;stroke:#008000;stroke-linejoin:miter;" x="286.86" xlink:href="#mcf77939419" y="40.32"/>
     <use style="fill:#008000;stroke:#008000;stroke-linejoin:miter;" x="289.526952" xlink:href="#mcf77939419" y="503.576488"/>
     <use style="fill:#008000;stroke:#008000;stroke-linejoin:miter;" x="291.578454" xlink:href="#mcf77939419" y="507.807925"/>
     <use style="fill:#008000;stroke:#008000;stroke-linejoin:miter;" x="294.860857" xlink:href="#mcf77939419" y="503.854971"/>
     <use style="fill:#008000;stroke:#008000;stroke-linejoin:miter;" x="297.322659" xlink:href="#mcf77939419" y="48.173163"/>
     <use style="fill:#008000;stroke:#008000;stroke-linejoin:miter;" x="299.989612" xlink:href="#mcf77939419" y="503.394751"/>
     <use style="fill:#008000;stroke:#008000;stroke-linejoin:miter;" x="302.041114" xlink:href="#mcf77939419" y="507.98852"/>
     <use style="fill:#008000;stroke:#008000;stroke-linejoin:miter;" x="305.323516" xlink:href="#mcf77939419" y="503.692047"/>
     <use style="fill:#008000;stroke:#008000;stroke-linejoin:miter;" x="307.785319" xlink:href="#mcf77939419" y="71.663321"/>
     <use style="fill:#008000;stroke:#008000;stroke-linejoin:miter;" x="310.452271" xlink:href="#mcf77939419" y="503.702653"/>
     <use style="fill:#008000;stroke:#008000;stroke-linejoin:miter;" x="312.503773" xlink:href="#mcf77939419" y="508.403067"/>
     <use style="fill:#008000;stroke:#008000;stroke-linejoin:miter;" x="315.786176" xlink:href="#mcf77939419" y="504.029143"/>
     <use style="fill:#008000;stroke:#008000;stroke-linejoin:miter;" x="318.453128" xlink:href="#mcf77939419" y="104.309261"/>
     <use style="fill:#008000;stroke:#008000;stroke-linejoin:miter;" x="320.91493" xlink:href="#mcf77939419" y="504.498944"/>
     <use style="fill:#008000;stroke:#008000;stroke-linejoin:miter;" x="324.197333" xlink:href="#mcf77939419" y="508.679515"/>
     <use style="fill:#008000;stroke:#008000;stroke-linejoin:miter;" x="326.248835" xlink:href="#mcf77939419" y="504.870108"/>
     <use style="fill:#008000;stroke:#008000;stroke-linejoin:miter;" x="328.915788" xlink:href="#mcf77939419" y="140.41597"/>
     <use style="fill:#008000;stroke:#008000;stroke-linejoin:miter;" x="331.37759" xlink:href="#mcf77939419" y="505.730228"/>
     <use style="fill:#008000;stroke:#008000;stroke-linejoin:miter;" x="334.659993" xlink:href="#mcf77939419" y="509.096868"/>
     <use style="fill:#008000;stroke:#008000;stroke-linejoin:miter;" x="336.711495" xlink:href="#mcf77939419" y="506.130309"/>
     <use style="fill:#008000;stroke:#008000;stroke-linejoin:miter;" x="339.378447" xlink:href="#mcf77939419" y="192.753414"/>
     <use style="fill:#008000;stroke:#008000;stroke-linejoin:miter;" x="342.045399" xlink:href="#mcf77939419" y="506.862021"/>
     <use style="fill:#008000;stroke:#008000;stroke-linejoin:miter;" x="344.096901" xlink:href="#mcf77939419" y="509.646364"/>
     <use style="fill:#008000;stroke:#008000;stroke-linejoin:miter;" x="347.379304" xlink:href="#mcf77939419" y="507.611674"/>
     <use style="fill:#008000;stroke:#008000;stroke-linejoin:miter;" x="349.841106" xlink:href="#mcf77939419" y="257.460045"/>
     <use style="fill:#008000;stroke:#008000;stroke-linejoin:miter;" x="352.508059" xlink:href="#mcf77939419" y="507.887448"/>
     <use style="fill:#008000;stroke:#008000;stroke-linejoin:miter;" x="354.55956" xlink:href="#mcf77939419" y="510.354025"/>
     <use style="fill:#008000;stroke:#008000;stroke-linejoin:miter;" x="357.841963" xlink:href="#mcf77939419" y="508.62615"/>
     <use style="fill:#008000;stroke:#008000;stroke-linejoin:miter;" x="360.303766" xlink:href="#mcf77939419" y="327.558237"/>
     <use style="fill:#008000;stroke:#008000;stroke-linejoin:miter;" x="362.970718" xlink:href="#mcf77939419" y="509.18346"/>
     <use style="fill:#008000;stroke:#008000;stroke-linejoin:miter;" x="365.02222" xlink:href="#mcf77939419" y="511.106857"/>
     <use style="fill:#008000;stroke:#008000;stroke-linejoin:miter;" x="368.304623" xlink:href="#mcf77939419" y="509.852218"/>
     <use style="fill:#008000;stroke:#008000;stroke-linejoin:miter;" x="370.971575" xlink:href="#mcf77939419" y="392.831587"/>
     <use style="fill:#008000;stroke:#008000;stroke-linejoin:miter;" x="373.433377" xlink:href="#mcf77939419" y="510.48746"/>
     <use style="fill:#008000;stroke:#008000;stroke-linejoin:miter;" x="375.690029" xlink:href="#mcf77939419" y="511.706416"/>
     <use style="fill:#008000;stroke:#008000;stroke-linejoin:miter;" x="378.767282" xlink:href="#mcf77939419" y="511.02047"/>
     <use style="fill:#008000;stroke:#008000;stroke-linejoin:miter;" x="381.434234" xlink:href="#mcf77939419" y="444.368808"/>
     <use style="fill:#008000;stroke:#008000;stroke-linejoin:miter;" x="383.896037" xlink:href="#mcf77939419" y="511.552886"/>
     <use style="fill:#008000;stroke:#008000;stroke-linejoin:miter;" x="386.152689" xlink:href="#mcf77939419" y="512.140242"/>
     <use style="fill:#008000;stroke:#008000;stroke-linejoin:miter;" x="389.229941" xlink:href="#mcf77939419" y="511.903908"/>
     <use style="fill:#008000;stroke:#008000;stroke-linejoin:miter;" x="391.896894" xlink:href="#mcf77939419" y="482.181381"/>
     <use style="fill:#008000;stroke:#008000;stroke-linejoin:miter;" x="394.563846" xlink:href="#mcf77939419" y="512.183259"/>
     <use style="fill:#008000;stroke:#008000;stroke-linejoin:miter;" x="396.615348" xlink:href="#mcf77939419" y="512.447291"/>
     <use style="fill:#008000;stroke:#008000;stroke-linejoin:miter;" x="399.897751" xlink:href="#mcf77939419" y="512.396051"/>
     <use style="fill:#008000;stroke:#008000;stroke-linejoin:miter;" x="402.359553" xlink:href="#mcf77939419" y="503.669008"/>
     <use style="fill:#008000;stroke:#008000;stroke-linejoin:miter;" x="405.026505" xlink:href="#mcf77939419" y="512.520345"/>
     <use style="fill:#008000;stroke:#008000;stroke-linejoin:miter;" x="407.078007" xlink:href="#mcf77939419" y="512.599566"/>
     <use style="fill:#008000;stroke:#008000;stroke-linejoin:miter;" x="410.36041" xlink:href="#mcf77939419" y="512.600647"/>
     <use style="fill:#008000;stroke:#008000;stroke-linejoin:miter;" x="412.822212" xlink:href="#mcf77939419" y="511.722429"/>
     <use style="fill:#008000;stroke:#008000;stroke-linejoin:miter;" x="423.490022" xlink:href="#mcf77939419" y="512.445568"/>
     <use style="fill:#008000;stroke:#008000;stroke-linejoin:miter;" x="433.952681" xlink:href="#mcf77939419" y="511.355565"/>
     <use style="fill:#008000;stroke:#008000;stroke-linejoin:miter;" x="436.619634" xlink:href="#mcf77939419" y="512.61145"/>
     <use style="fill:#008000;stroke:#008000;stroke-linejoin:miter;" x="441.953538" xlink:href="#mcf77939419" y="512.609899"/>
     <use style="fill:#008000;stroke:#008000;stroke-linejoin:miter;" x="444.415341" xlink:href="#mcf77939419" y="511.188366"/>
     <use style="fill:#008000;stroke:#008000;stroke-linejoin:miter;" x="447.082293" xlink:href="#mcf77939419" y="512.612815"/>
     <use style="fill:#008000;stroke:#008000;stroke-linejoin:miter;" x="455.08315" xlink:href="#mcf77939419" y="511.892228"/>
     <use style="fill:#008000;stroke:#008000;stroke-linejoin:miter;" x="465.54581" xlink:href="#mcf77939419" y="512.499665"/>
     <use style="fill:#008000;stroke:#008000;stroke-linejoin:miter;" x="486.676278" xlink:href="#mcf77939419" y="512.570872"/>
     <use style="fill:#008000;stroke:#008000;stroke-linejoin:miter;" x="497.138938" xlink:href="#mcf77939419" y="512.573227"/>
    </g>
   </g>
   <g id="line2d_32">
    <path clip-path="url(#pfbd28d87bf)" d="M 76.786212 512.573083 
L 86.633421 512.6277 
L 87.864322 512.612554 
L 89.300374 512.639689 
L 107.96904 512.555328 
L 108.584491 512.51325 
L 109.610242 512.634802 
L 114.123546 512.635571 
L 118.021399 512.591929 
L 118.4317 512.203517 
L 118.842 511.870383 
L 119.04715 511.947414 
L 119.662601 512.583286 
L 120.072901 512.622296 
L 120.688352 512.624261 
L 122.124403 512.637803 
L 124.996505 512.637611 
L 128.484059 512.574775 
L 128.894359 511.867467 
L 129.304659 511.170616 
L 129.50981 511.274074 
L 130.33041 512.633767 
L 131.971612 512.609116 
L 133.817963 512.631224 
L 137.305516 512.611387 
L 138.126117 512.591824 
L 139.151868 512.396296 
L 139.767319 511.369055 
L 139.972469 511.423636 
L 140.79307 512.626279 
L 147.152725 512.639875 
L 149.819678 512.542976 
L 150.435128 512.461555 
L 151.460879 512.639636 
L 159.666886 512.632939 
L 160.077187 512.565865 
L 160.487487 512.094419 
L 160.897788 511.709828 
L 161.102938 511.815936 
L 161.718388 512.592451 
L 162.128689 512.599529 
L 162.538989 512.581585 
L 163.15444 512.62461 
L 163.97504 512.639851 
L 166.847143 512.61283 
L 167.462593 512.603051 
L 168.078044 512.630587 
L 168.488344 512.581433 
L 168.898645 512.537832 
L 169.308945 512.633307 
L 169.924396 512.297318 
L 170.334696 512.629322 
L 170.539846 512.027932 
L 170.950147 507.447236 
L 171.155297 504.805755 
L 171.360447 503.625511 
L 171.565597 504.579993 
L 172.181048 512.03227 
L 172.386198 512.638664 
L 172.796498 512.098833 
L 173.001648 512.163643 
L 173.411949 512.635882 
L 174.027399 512.394728 
L 174.4377 512.633082 
L 175.2583 512.536025 
L 175.668601 512.618558 
L 176.078901 512.468718 
L 176.694352 512.625539 
L 177.104652 512.448156 
L 177.720103 512.629746 
L 178.130403 512.382648 
L 178.335553 512.416588 
L 178.745853 512.632995 
L 179.361304 512.202131 
L 179.771604 512.636502 
L 179.976755 512.280806 
L 180.181905 511.587176 
L 180.387055 511.325275 
L 180.797355 512.639956 
L 181.002505 511.168294 
L 181.207656 505.655598 
L 181.823106 482.287922 
L 182.028256 484.486062 
L 182.643707 509.816712 
L 182.848857 512.554563 
L 183.054007 512.092665 
L 183.259158 511.03781 
L 183.464308 511.031236 
L 183.874608 512.585158 
L 184.079758 512.498906 
L 184.284908 512.032142 
L 184.490059 511.879086 
L 184.900359 512.586065 
L 185.105509 512.582006 
L 185.51581 512.111098 
L 186.13126 512.611693 
L 186.54156 512.176718 
L 186.746711 512.286352 
L 186.951861 512.554204 
L 187.157011 512.62593 
L 187.567311 512.152453 
L 187.772462 512.2149 
L 188.182762 512.634319 
L 188.798212 512.025745 
L 189.208513 512.639388 
L 189.413663 512.300155 
L 189.618813 511.668228 
L 189.823963 511.51177 
L 190.234264 512.636377 
L 190.439414 512.041556 
L 190.849714 509.494394 
L 191.054864 510.659841 
L 191.260015 512.552053 
L 191.465165 510.500609 
L 191.670315 499.704634 
L 192.285766 444.929904 
L 192.490916 447.170971 
L 193.311516 512.017681 
L 193.516667 511.898956 
L 193.721817 509.463216 
L 193.926967 508.959202 
L 194.337267 512.367343 
L 194.542418 512.482249 
L 194.952718 511.007017 
L 195.568168 512.589252 
L 195.978469 511.56303 
L 196.183619 511.811093 
L 196.388769 512.422584 
L 196.593919 512.623505 
L 197.00422 511.741318 
L 197.20937 511.847905 
L 197.61967 512.636888 
L 198.235121 511.733982 
L 198.645421 512.639739 
L 198.850571 512.271122 
L 199.055722 511.553912 
L 199.260872 511.392818 
L 199.671172 512.627667 
L 199.876322 512.197097 
L 200.286623 510.461331 
L 200.696923 512.560949 
L 200.902073 511.933932 
L 201.312374 506.920414 
L 201.517524 508.340663 
L 201.722674 512.068546 
L 201.927824 510.465588 
L 202.132974 494.273663 
L 202.748425 394.001797 
L 202.953575 392.851398 
L 203.363875 458.782405 
L 203.774176 510.267215 
L 203.979326 512.005267 
L 204.184476 507.768043 
L 204.389626 506.031394 
L 205.005077 512.543357 
L 205.415377 509.867858 
L 205.620527 510.523298 
L 205.825678 512.053988 
L 206.030828 512.623414 
L 206.441128 510.891982 
L 206.646278 511.087751 
L 207.056579 512.639618 
L 207.672029 511.218929 
L 208.08233 512.634885 
L 208.28748 512.204878 
L 208.49263 511.291407 
L 208.69778 511.079476 
L 209.108081 512.610161 
L 209.313231 512.239779 
L 209.518381 511.083344 
L 209.723531 510.576962 
L 210.133832 512.538765 
L 210.338982 512.203872 
L 210.749282 509.186806 
L 210.954432 510.230798 
L 211.159582 512.292603 
L 211.364733 512.028364 
L 211.775033 504.040785 
L 211.980183 505.066866 
L 212.185333 510.836765 
L 212.390484 511.09719 
L 212.595634 491.120566 
L 213.416234 326.725962 
L 213.621385 360.400106 
L 214.236835 506.262247 
L 214.441985 512.373005 
L 214.852286 502.66977 
L 215.057436 505.503883 
L 215.262586 510.662094 
L 215.467736 512.627838 
L 215.878037 508.671958 
L 216.083187 509.149273 
L 216.493487 512.637689 
L 216.698637 511.734293 
L 216.903788 510.23937 
L 217.108938 510.183076 
L 217.519238 512.616273 
L 217.724388 512.07979 
L 217.929538 510.790965 
L 218.134689 510.472699 
L 218.544989 512.574595 
L 218.750139 512.233109 
L 218.955289 510.925067 
L 219.16044 510.343171 
L 219.57074 512.493195 
L 219.77589 512.302838 
L 220.18619 509.710003 
L 220.391341 510.605742 
L 220.596491 512.303711 
L 220.801641 512.320558 
L 221.211941 507.920013 
L 221.417092 508.781532 
L 221.622242 511.72319 
L 221.827392 512.275899 
L 222.237692 501.440636 
L 222.442842 501.221058 
L 222.647993 508.64517 
L 222.853143 512.002818 
L 223.058293 491.052513 
L 223.468593 352.434082 
L 223.673744 281.306093 
L 223.878894 257.14621 
L 224.084044 293.360117 
L 224.699495 498.975976 
L 224.904645 512.639608 
L 225.314945 499.495595 
L 225.520095 501.845236 
L 225.930396 512.602157 
L 226.135546 510.817231 
L 226.340696 507.671054 
L 226.545846 507.602925 
L 226.956147 512.553934 
L 227.161297 511.821838 
L 227.366447 509.752198 
L 227.571597 509.223665 
L 227.981897 512.496264 
L 228.187048 512.179097 
L 228.597348 509.72565 
L 229.007648 512.407693 
L 229.212799 512.342814 
L 229.623099 509.649607 
L 229.828249 510.535596 
L 230.033399 512.243467 
L 230.238549 512.431437 
L 230.64885 508.948123 
L 230.854 509.645551 
L 231.05915 511.876781 
L 231.2643 512.48778 
L 231.674601 506.900797 
L 231.879751 507.198343 
L 232.290051 512.534561 
L 232.495201 507.805165 
L 232.700352 499.627829 
L 232.905502 497.379152 
L 233.315802 512.60011 
L 233.520952 493.770184 
L 233.726103 430.395485 
L 234.136403 236.181567 
L 234.341553 192.842474 
L 234.546703 225.096715 
L 235.162154 487.709959 
L 235.367304 512.188667 
L 235.572454 506.670235 
L 235.777604 497.114822 
L 235.982755 497.991057 
L 236.393055 512.301045 
L 236.598205 511.148354 
L 236.803355 507.068325 
L 237.008505 506.103131 
L 237.418806 512.293941 
L 237.623956 512.040454 
L 238.034256 508.356737 
L 238.649707 512.347112 
L 239.060007 509.098239 
L 239.265158 510.103859 
L 239.470308 512.103957 
L 239.675458 512.486824 
L 240.085758 509.114127 
L 240.290908 509.750303 
L 240.496059 511.843081 
L 240.701209 512.56508 
L 241.111509 508.419869 
L 241.316659 508.674321 
L 241.72696 512.616469 
L 241.93211 510.22274 
L 242.13726 506.299517 
L 242.34241 505.702739 
L 242.752711 512.63937 
L 242.957861 508.532962 
L 243.368161 494.115911 
L 243.778462 512.400766 
L 243.983612 498.232438 
L 244.188762 433.933397 
L 244.804212 140.653188 
L 245.009363 162.336807 
L 245.829963 510.324622 
L 246.035114 508.093221 
L 246.240264 495.942057 
L 246.445414 494.434672 
L 246.855714 511.587362 
L 247.060864 511.658824 
L 247.266015 506.962685 
L 247.471165 504.860305 
L 248.086615 512.310573 
L 248.496916 507.707544 
L 248.702066 509.063052 
L 248.907216 511.808786 
L 249.112366 512.518424 
L 249.522667 508.681269 
L 249.727817 509.347851 
L 249.932967 511.662969 
L 250.138117 512.603511 
L 250.548418 508.812358 
L 250.753568 509.010366 
L 251.163868 512.637651 
L 251.369018 510.989406 
L 251.574168 508.19499 
L 251.779319 507.817823 
L 252.189619 512.62464 
L 252.394769 510.70077 
L 252.599919 506.182107 
L 252.80507 504.492532 
L 253.21537 512.467551 
L 253.42052 509.588878 
L 253.830821 491.852731 
L 254.035971 498.011658 
L 254.241121 511.180167 
L 254.446271 503.185793 
L 254.651421 442.808121 
L 255.266872 104.514914 
L 255.472022 110.14834 
L 255.882322 341.367843 
L 256.292623 506.451969 
L 256.497773 509.91553 
L 256.702923 496.125127 
L 256.908073 491.608454 
L 257.318374 510.394201 
L 257.523524 512.181909 
L 257.933824 504.029178 
L 258.138974 506.424394 
L 258.344125 511.095003 
L 258.549275 512.537531 
L 258.959575 507.353812 
L 259.164725 508.199128 
L 259.369875 511.239012 
L 259.575026 512.626315 
L 259.985326 508.519987 
L 260.190476 508.680132 
L 260.600777 512.63839 
L 260.805927 511.268498 
L 261.011077 508.7702 
L 261.216227 508.402672 
L 261.626527 512.59927 
L 261.831678 511.390939 
L 262.036828 508.280347 
L 262.241978 507.175911 
L 262.652278 512.46256 
L 262.857429 511.281292 
L 263.267729 503.702611 
L 263.472879 506.787497 
L 263.678029 511.971463 
L 263.883179 510.711854 
L 264.29348 490.797012 
L 264.49863 494.49092 
L 264.70378 508.999197 
L 264.90893 507.57326 
L 265.114081 454.829246 
L 265.729531 85.647654 
L 265.934681 71.605609 
L 266.139832 159.531036 
L 266.550132 430.707499 
L 266.755282 500.196507 
L 266.960432 511.586165 
L 267.370733 489.817532 
L 267.575883 497.144203 
L 267.781033 508.739515 
L 267.986183 512.549035 
L 268.396484 503.690664 
L 268.601634 505.176185 
L 269.011934 512.639089 
L 269.422234 507.32097 
L 269.627385 507.480399 
L 270.037685 512.620872 
L 270.242835 511.292086 
L 270.447985 508.615656 
L 270.653136 508.171917 
L 271.063436 512.557677 
L 271.268586 511.660366 
L 271.473736 508.970682 
L 271.678886 507.990205 
L 272.089187 512.42724 
L 272.294337 511.820136 
L 272.704637 506.810476 
L 272.909788 508.829618 
L 273.114938 512.121224 
L 273.320088 511.842907 
L 273.730388 503.395724 
L 273.935538 505.501421 
L 274.140689 511.179599 
L 274.345839 511.678784 
L 274.756139 490.961215 
L 274.961289 491.682887 
L 275.16644 506.13308 
L 275.37159 510.723878 
L 275.57674 467.935012 
L 276.397341 48.164054 
L 276.602491 122.206395 
L 277.217941 491.467965 
L 277.423092 512.555313 
L 277.833392 489.225773 
L 278.038542 494.363735 
L 278.448842 512.627076 
L 278.859143 503.857161 
L 279.064293 504.191595 
L 279.474593 512.562081 
L 279.679744 511.045469 
L 279.884894 507.591236 
L 280.090044 506.979355 
L 280.500344 512.477822 
L 280.705495 511.731926 
L 280.910645 508.936777 
L 281.115795 507.872422 
L 281.526095 512.353019 
L 281.731245 512.041213 
L 282.141546 507.809289 
L 282.346696 509.431129 
L 282.551846 512.127522 
L 282.756996 512.200966 
L 283.167297 506.746633 
L 283.372447 508.116201 
L 283.577597 511.629156 
L 283.782747 512.289809 
L 284.193048 503.573333 
L 284.398198 504.48706 
L 284.603348 510.180489 
L 284.808498 512.339965 
L 285.013648 504.510401 
L 285.218799 492.219865 
L 285.423949 489.870158 
L 285.834249 512.366011 
L 286.039399 480.513958 
L 286.4497 233.301529 
L 286.65485 96.213827 
L 286.86 40.32 
L 287.06515 96.194308 
L 287.680601 480.502227 
L 287.885751 512.365144 
L 288.296051 489.871307 
L 288.501201 492.218082 
L 288.911502 512.339494 
L 289.116652 510.181517 
L 289.321802 504.487835 
L 289.526952 503.572877 
L 289.937253 512.289448 
L 290.142403 511.629687 
L 290.347553 508.116784 
L 290.552703 506.746497 
L 290.963004 512.200633 
L 291.168154 512.127865 
L 291.578454 507.809294 
L 291.783604 509.367738 
L 291.988755 512.040859 
L 292.193905 512.353274 
L 292.604205 507.872539 
L 292.809355 508.936317 
L 293.014505 511.731493 
L 293.219656 512.478028 
L 293.629956 506.979633 
L 293.835106 507.590755 
L 294.040256 511.04485 
L 294.245407 512.562251 
L 294.860857 503.856597 
L 295.271158 512.627171 
L 295.476308 506.723486 
L 295.681458 494.365815 
L 295.886608 489.22525 
L 296.296908 512.554865 
L 296.502059 491.477201 
L 296.707209 406.494332 
L 297.322659 48.167993 
L 297.52781 83.388599 
L 298.14326 467.92102 
L 298.34841 510.721463 
L 298.55356 506.13592 
L 298.758711 491.684598 
L 298.963861 490.959869 
L 299.374161 511.67794 
L 299.579311 511.180451 
L 299.784462 505.50235 
L 299.989612 503.395495 
L 300.399912 511.842374 
L 300.605062 512.121622 
L 301.015363 506.81049 
L 301.220513 508.633842 
L 301.425663 511.8197 
L 301.630813 512.427466 
L 302.041114 507.99033 
L 302.246264 508.970244 
L 302.451414 511.65994 
L 302.656564 512.557814 
L 303.066864 508.172144 
L 303.272015 508.615284 
L 303.682315 512.620942 
L 304.297766 507.320622 
L 304.708066 512.639071 
L 304.913216 510.192178 
L 305.118366 505.176964 
L 305.323516 503.690341 
L 305.733817 512.548795 
L 305.938967 508.741153 
L 306.349267 489.817617 
L 306.554418 497.561117 
L 306.759568 511.584735 
L 306.964718 500.203236 
L 307.169868 430.726379 
L 307.785319 71.613105 
L 307.990469 85.635262 
L 308.81107 507.569212 
L 309.01622 509.001524 
L 309.22137 494.493053 
L 309.42652 490.796194 
L 309.836821 510.710687 
L 310.041971 511.972064 
L 310.452271 503.702616 
L 310.657421 506.51725 
L 310.862571 511.280631 
L 311.067722 512.462797 
L 311.478022 507.176066 
L 311.683172 508.279844 
L 311.888322 511.390438 
L 312.093473 512.599369 
L 312.503773 508.402899 
L 312.708923 508.769857 
L 313.119223 512.638409 
L 313.324374 511.11407 
L 313.529524 508.680442 
L 313.734674 508.519726 
L 314.144974 512.626257 
L 314.350125 511.239527 
L 314.555275 508.199593 
L 314.760425 507.353612 
L 315.170725 512.537351 
L 315.375875 511.095688 
L 315.786176 504.029094 
L 316.196476 512.181411 
L 316.401626 510.395428 
L 316.811927 491.609057 
L 317.017077 496.122956 
L 317.222227 509.913502 
L 317.427377 506.456377 
L 317.632527 453.033797 
L 318.247978 110.158636 
L 318.453128 104.506591 
L 318.863429 326.163824 
L 319.273729 503.180227 
L 319.478879 511.181732 
L 319.889179 491.852467 
L 320.50463 512.467861 
L 320.91493 504.492749 
L 321.120081 506.181366 
L 321.325231 510.700042 
L 321.530381 512.624709 
L 321.940681 507.81809 
L 322.145832 508.194609 
L 322.556132 512.637628 
L 322.761282 511.309156 
L 322.966432 509.010663 
L 323.171582 508.812127 
L 323.581883 512.603425 
L 323.787033 511.663356 
L 323.992183 509.348207 
L 324.197333 508.681125 
L 324.607634 512.518263 
L 324.812784 511.809186 
L 325.223084 507.707487 
L 325.633385 512.310277 
L 325.838535 511.809552 
L 326.248835 504.860427 
L 326.453985 506.96187 
L 326.659136 511.658172 
L 326.864286 511.588166 
L 327.274586 494.435643 
L 327.479736 495.940494 
L 327.684886 508.090984 
L 327.890037 510.327061 
L 328.095187 472.289729 
L 328.915788 140.648758 
L 329.120938 205.94399 
L 329.736388 498.225709 
L 329.941538 512.401417 
L 330.351839 494.116149 
L 330.556989 498.879679 
L 330.762139 508.531478 
L 330.967289 512.639389 
L 331.37759 505.703114 
L 331.58274 506.298971 
L 331.99304 512.616387 
L 332.19819 511.257562 
L 332.403341 508.674656 
L 332.608491 508.419623 
L 333.018791 512.564957 
L 333.223941 511.843424 
L 333.429092 509.750628 
L 333.634242 509.114008 
L 334.044542 512.486662 
L 334.249692 512.104241 
L 334.659993 509.098203 
L 335.070293 512.346887 
L 335.275443 512.233355 
L 335.685744 508.356797 
L 335.890894 509.530377 
L 336.096044 512.0401 
L 336.301194 512.294243 
L 336.711495 506.103399 
L 336.916645 507.067729 
L 337.121795 511.147661 
L 337.326945 512.301466 
L 337.942396 497.113873 
L 338.352696 512.18961 
L 338.557846 487.718567 
L 338.968147 315.409593 
L 339.173297 225.109115 
L 339.378447 192.841345 
L 339.583597 236.167566 
L 340.199048 493.762882 
L 340.404198 512.599846 
L 340.814498 497.379763 
L 341.019648 499.62657 
L 341.429949 512.534337 
L 341.635099 510.810643 
L 341.840249 507.198798 
L 342.045399 506.900455 
L 342.4557 512.487589 
L 342.66085 511.877141 
L 342.866 509.645899 
L 343.07115 508.948004 
L 343.481451 512.431254 
L 343.686601 512.243701 
L 344.096901 509.649582 
L 344.712352 512.40787 
L 345.122652 509.725694 
L 345.327802 510.497815 
L 345.532952 512.178853 
L 345.738103 512.496413 
L 346.148403 509.2238 
L 346.353553 509.751889 
L 346.558703 511.821488 
L 346.763853 512.554071 
L 347.174154 507.603261 
L 347.379304 507.670681 
L 347.789604 512.602281 
L 347.994755 508.863495 
L 348.199905 501.846358 
L 348.405055 499.495171 
L 348.815355 512.639585 
L 349.020505 498.981562 
L 349.225656 449.393868 
L 349.635956 293.371558 
L 349.841106 257.147427 
L 350.046256 281.296442 
L 350.661707 491.045396 
L 350.866857 512.001817 
L 351.072007 508.646727 
L 351.277158 501.221856 
L 351.482308 501.439837 
L 351.892608 512.275524 
L 352.097758 511.723664 
L 352.302908 508.781983 
L 352.508059 507.919852 
L 352.918359 512.320315 
L 353.123509 512.303935 
L 353.53381 509.709982 
L 354.14926 512.493326 
L 354.55956 510.343211 
L 354.764711 510.924842 
L 354.969861 512.232914 
L 355.175011 512.57468 
L 355.585311 510.472787 
L 355.790462 510.790774 
L 355.995612 512.079569 
L 356.200762 512.616327 
L 356.611062 510.183238 
L 356.816212 510.239187 
L 357.226513 512.637708 
L 357.431663 511.393392 
L 357.636813 509.1496 
L 357.841963 508.671774 
L 358.252264 512.627779 
L 358.457414 510.66286 
L 358.867714 502.669711 
L 359.278015 512.372518 
L 359.483165 506.265434 
L 359.688315 474.880075 
L 360.303766 326.728382 
L 360.508916 336.498526 
L 361.329516 511.095786 
L 361.534667 510.837768 
L 361.739817 505.067651 
L 361.944967 504.040382 
L 362.355267 512.02795 
L 362.560418 512.292869 
L 362.970718 509.186775 
L 363.586168 512.538874 
L 363.996469 510.577 
L 364.201619 511.083147 
L 364.406769 512.239603 
L 364.611919 512.610212 
L 365.02222 511.079543 
L 365.22737 511.291273 
L 365.63767 512.634905 
L 366.047971 511.219025 
L 366.253121 511.240637 
L 366.663421 512.639612 
L 366.868571 512.102518 
L 367.073722 511.087896 
L 367.278872 510.891898 
L 367.689172 512.623371 
L 367.894322 512.054225 
L 368.099473 510.523559 
L 368.304623 509.867803 
L 368.714923 512.543225 
L 368.920073 511.792119 
L 369.330374 506.031521 
L 369.535524 507.767325 
L 369.740674 512.004707 
L 369.945824 510.268741 
L 370.150974 492.993148 
L 370.766425 392.85394 
L 370.971575 393.998861 
L 371.381875 461.313464 
L 371.792176 510.464182 
L 371.997326 512.069049 
L 372.202476 508.34128 
L 372.407626 506.920285 
L 373.023077 512.561056 
L 373.433377 510.461366 
L 373.638527 511.008314 
L 373.843678 512.196916 
L 374.048828 512.627699 
L 374.459128 511.392874 
L 374.664278 511.553806 
L 375.074579 512.639743 
L 375.690029 511.737662 
L 376.10033 512.636876 
L 376.30548 512.379411 
L 376.51063 511.847981 
L 376.71578 511.741276 
L 377.126081 512.623477 
L 377.331231 512.422679 
L 377.536381 511.811196 
L 377.741531 511.563006 
L 378.151832 512.589197 
L 378.356982 512.425418 
L 378.767282 511.007026 
L 378.972432 511.523134 
L 379.177582 512.482128 
L 379.382733 512.367527 
L 379.793033 508.959361 
L 379.998183 509.462875 
L 380.203333 511.898541 
L 380.408484 512.018245 
L 380.613634 504.140783 
L 381.229084 447.172892 
L 381.434234 444.92877 
L 381.639385 458.31116 
L 382.049685 499.701734 
L 382.254835 510.499532 
L 382.459985 512.552212 
L 382.870286 509.494401 
L 383.075436 510.434705 
L 383.280586 512.041322 
L 383.485736 512.636394 
L 383.896037 511.511818 
L 384.101187 511.668133 
L 384.511487 512.639383 
L 385.126938 512.024623 
L 385.537238 512.634306 
L 385.742388 512.508414 
L 385.947538 512.214943 
L 386.152689 512.152431 
L 386.562989 512.625912 
L 386.768139 512.554245 
L 387.17844 512.176708 
L 387.58874 512.611668 
L 387.79389 512.576358 
L 388.20419 512.1111 
L 388.819641 512.586106 
L 389.229941 511.879109 
L 389.435092 512.032068 
L 389.640242 512.498832 
L 389.845392 512.585214 
L 390.255692 511.031344 
L 390.460842 511.037691 
L 390.665993 512.09245 
L 390.871143 512.554697 
L 391.076293 509.817631 
L 391.896894 482.287643 
L 392.102044 487.213308 
L 392.717495 511.167686 
L 392.922645 512.639959 
L 393.332945 511.325312 
L 393.538095 511.587062 
L 393.948396 512.636491 
L 394.563846 512.207445 
L 394.974147 512.632983 
L 395.794747 512.508553 
L 395.999897 512.629736 
L 396.410198 512.495099 
L 396.615348 512.448153 
L 397.230799 512.621994 
L 397.641099 512.468719 
L 398.256549 512.629035 
L 398.66685 512.456873 
L 399.487451 512.522396 
L 399.692601 512.394742 
L 399.897751 512.414439 
L 400.308051 512.635891 
L 400.923502 512.098807 
L 401.333802 512.638673 
L 401.538952 512.032501 
L 401.949253 507.175524 
L 402.154403 504.580353 
L 402.359553 503.625486 
L 402.564703 504.805368 
L 403.180154 512.027717 
L 403.385304 512.6293 
L 404.000755 512.328212 
L 404.411055 512.633299 
L 405.436806 512.634351 
L 411.591311 512.59952 
L 412.001612 512.592473 
L 412.411912 512.093001 
L 412.822212 511.709826 
L 413.027363 511.826386 
L 413.642813 512.565842 
L 414.053114 512.632942 
L 415.284015 512.635084 
L 423.079722 512.512897 
L 423.490022 512.44716 
L 425.336374 512.637973 
L 432.92693 512.62629 
L 433.132081 512.481426 
L 433.952681 511.369036 
L 434.362982 512.020137 
L 434.773282 512.602618 
L 435.183582 512.593882 
L 435.799033 512.62778 
L 437.440234 512.622545 
L 443.38959 512.633775 
L 443.59474 512.495462 
L 444.415341 511.170602 
L 444.620491 511.412374 
L 445.235941 512.574746 
L 445.646242 512.601542 
L 446.056542 512.585357 
L 446.671993 512.629697 
L 448.108044 512.624606 
L 450.980147 512.632145 
L 454.057399 512.583306 
L 454.878 511.87038 
L 455.2883 512.20347 
L 455.698601 512.591911 
L 456.108901 512.626179 
L 457.134652 512.636875 
L 460.211905 512.63976 
L 471.700315 512.64 
L 496.933788 512.573082 
L 496.933788 512.573082 
" style="fill:none;stroke:#ff0000;stroke-linecap:square;"/>
   </g>
   <g id="patch_3">
    <path d="M 76.8375 512.64 
L 76.8375 40.32 
" style="fill:none;stroke:#000000;stroke-linecap:square;stroke-linejoin:miter;stroke-width:0.8;"/>
   </g>
   <g id="patch_4">
    <path d="M 496.8825 512.64 
L 496.8825 40.32 
" style="fill:none;stroke:#000000;stroke-linecap:square;stroke-linejoin:miter;stroke-width:0.8;"/>
   </g>
   <g id="patch_5">
    <path d="M 76.8375 512.64 
L 496.8825 512.64 
" style="fill:none;stroke:#000000;stroke-linecap:square;stroke-linejoin:miter;stroke-width:0.8;"/>
   </g>
   <g id="patch_6">
    <path d="M 76.8375 40.32 
L 496.8825 40.32 
" style="fill:none;stroke:#000000;stroke-linecap:square;stroke-linejoin:miter;stroke-width:0.8;"/>
   </g>
   <g id="legend_1">
    <g id="patch_7">
     <path d="M 309.091875 85.67625 
L 482.8825 85.67625 
Q 486.8825 85.67625 486.8825 81.67625 
L 486.8825 54.32 
Q 486.8825 50.32 482.8825 50.32 
L 309.091875 50.32 
Q 305.091875 50.32 305.091875 54.32 
L 305.091875 81.67625 
Q 305.091875 85.67625 309.091875 85.67625 
z
" style="fill:#ffffff;opacity:0.8;stroke:#cccccc;stroke-linejoin:miter;"/>
    </g>
    <g id="line2d_33">
     <path d="M 313.091875 66.516875 
L 353.091875 66.516875 
" style="fill:none;stroke:#ff0000;stroke-linecap:square;"/>
    </g>
    <g id="line2d_34"/>
    <g id="text_18">
     <!-- Fraunhofer -->
     <defs>
      <path d="M 9.8125 72.90625 
L 51.703125 72.90625 
L 51.703125 64.59375 
L 19.671875 64.59375 
L 19.671875 43.109375 
L 48.578125 43.109375 
L 48.578125 34.8125 
L 19.671875 34.8125 
L 19.671875 0 
L 9.8125 0 
z
" id="DejaVuSans-70"/>
      <path d="M 41.109375 46.296875 
Q 39.59375 47.171875 37.8125 47.578125 
Q 36.03125 48 33.890625 48 
Q 26.265625 48 22.1875 43.046875 
Q 18.109375 38.09375 18.109375 28.8125 
L 18.109375 0 
L 9.078125 0 
L 9.078125 54.6875 
L 18.109375 54.6875 
L 18.109375 46.1875 
Q 20.953125 51.171875 25.484375 53.578125 
Q 30.03125 56 36.53125 56 
Q 37.453125 56 38.578125 55.875 
Q 39.703125 55.765625 41.0625 55.515625 
z
" id="DejaVuSans-114"/>
      <path d="M 34.28125 27.484375 
Q 23.390625 27.484375 19.1875 25 
Q 14.984375 22.515625 14.984375 16.5 
Q 14.984375 11.71875 18.140625 8.90625 
Q 21.296875 6.109375 26.703125 6.109375 
Q 34.1875 6.109375 38.703125 11.40625 
Q 43.21875 16.703125 43.21875 25.484375 
L 43.21875 27.484375 
z
M 52.203125 31.203125 
L 52.203125 0 
L 43.21875 0 
L 43.21875 8.296875 
Q 40.140625 3.328125 35.546875 0.953125 
Q 30.953125 -1.421875 24.3125 -1.421875 
Q 15.921875 -1.421875 10.953125 3.296875 
Q 6 8.015625 6 15.921875 
Q 6 25.140625 12.171875 29.828125 
Q 18.359375 34.515625 30.609375 34.515625 
L 43.21875 34.515625 
L 43.21875 35.40625 
Q 43.21875 41.609375 39.140625 45 
Q 35.0625 48.390625 27.6875 48.390625 
Q 23 48.390625 18.546875 47.265625 
Q 14.109375 46.140625 10.015625 43.890625 
L 10.015625 52.203125 
Q 14.9375 54.109375 19.578125 55.046875 
Q 24.21875 56 28.609375 56 
Q 40.484375 56 46.34375 49.84375 
Q 52.203125 43.703125 52.203125 31.203125 
z
" id="DejaVuSans-97"/>
      <path d="M 8.5 21.578125 
L 8.5 54.6875 
L 17.484375 54.6875 
L 17.484375 21.921875 
Q 17.484375 14.15625 20.5 10.265625 
Q 23.53125 6.390625 29.59375 6.390625 
Q 36.859375 6.390625 41.078125 11.03125 
Q 45.3125 15.671875 45.3125 23.6875 
L 45.3125 54.6875 
L 54.296875 54.6875 
L 54.296875 0 
L 45.3125 0 
L 45.3125 8.40625 
Q 42.046875 3.421875 37.71875 1 
Q 33.40625 -1.421875 27.6875 -1.421875 
Q 18.265625 -1.421875 13.375 4.4375 
Q 8.5 10.296875 8.5 21.578125 
z
M 31.109375 56 
z
" id="DejaVuSans-117"/>
      <path d="M 54.890625 33.015625 
L 54.890625 0 
L 45.90625 0 
L 45.90625 32.71875 
Q 45.90625 40.484375 42.875 44.328125 
Q 39.84375 48.1875 33.796875 48.1875 
Q 26.515625 48.1875 22.3125 43.546875 
Q 18.109375 38.921875 18.109375 30.90625 
L 18.109375 0 
L 9.078125 0 
L 9.078125 54.6875 
L 18.109375 54.6875 
L 18.109375 46.1875 
Q 21.34375 51.125 25.703125 53.5625 
Q 30.078125 56 35.796875 56 
Q 45.21875 56 50.046875 50.171875 
Q 54.890625 44.34375 54.890625 33.015625 
z
" id="DejaVuSans-110"/>
      <path d="M 54.890625 33.015625 
L 54.890625 0 
L 45.90625 0 
L 45.90625 32.71875 
Q 45.90625 40.484375 42.875 44.328125 
Q 39.84375 48.1875 33.796875 48.1875 
Q 26.515625 48.1875 22.3125 43.546875 
Q 18.109375 38.921875 18.109375 30.90625 
L 18.109375 0 
L 9.078125 0 
L 9.078125 75.984375 
L 18.109375 75.984375 
L 18.109375 46.1875 
Q 21.34375 51.125 25.703125 53.5625 
Q 30.078125 56 35.796875 56 
Q 45.21875 56 50.046875 50.171875 
Q 54.890625 44.34375 54.890625 33.015625 
z
" id="DejaVuSans-104"/>
      <path d="M 30.609375 48.390625 
Q 23.390625 48.390625 19.1875 42.75 
Q 14.984375 37.109375 14.984375 27.296875 
Q 14.984375 17.484375 19.15625 11.84375 
Q 23.34375 6.203125 30.609375 6.203125 
Q 37.796875 6.203125 41.984375 11.859375 
Q 46.1875 17.53125 46.1875 27.296875 
Q 46.1875 37.015625 41.984375 42.703125 
Q 37.796875 48.390625 30.609375 48.390625 
z
M 30.609375 56 
Q 42.328125 56 49.015625 48.375 
Q 55.71875 40.765625 55.71875 27.296875 
Q 55.71875 13.875 49.015625 6.21875 
Q 42.328125 -1.421875 30.609375 -1.421875 
Q 18.84375 -1.421875 12.171875 6.21875 
Q 5.515625 13.875 5.515625 27.296875 
Q 5.515625 40.765625 12.171875 48.375 
Q 18.84375 56 30.609375 56 
z
" id="DejaVuSans-111"/>
      <path d="M 37.109375 75.984375 
L 37.109375 68.5 
L 28.515625 68.5 
Q 23.6875 68.5 21.796875 66.546875 
Q 19.921875 64.59375 19.921875 59.515625 
L 19.921875 54.6875 
L 34.71875 54.6875 
L 34.71875 47.703125 
L 19.921875 47.703125 
L 19.921875 0 
L 10.890625 0 
L 10.890625 47.703125 
L 2.296875 47.703125 
L 2.296875 54.6875 
L 10.890625 54.6875 
L 10.890625 58.5 
Q 10.890625 67.625 15.140625 71.796875 
Q 19.390625 75.984375 28.609375 75.984375 
z
" id="DejaVuSans-102"/>
      <path d="M 56.203125 29.59375 
L 56.203125 25.203125 
L 14.890625 25.203125 
Q 15.484375 15.921875 20.484375 11.0625 
Q 25.484375 6.203125 34.421875 6.203125 
Q 39.59375 6.203125 44.453125 7.46875 
Q 49.3125 8.734375 54.109375 11.28125 
L 54.109375 2.78125 
Q 49.265625 0.734375 44.1875 -0.34375 
Q 39.109375 -1.421875 33.890625 -1.421875 
Q 20.796875 -1.421875 13.15625 6.1875 
Q 5.515625 13.8125 5.515625 26.8125 
Q 5.515625 40.234375 12.765625 48.109375 
Q 20.015625 56 32.328125 56 
Q 43.359375 56 49.78125 48.890625 
Q 56.203125 41.796875 56.203125 29.59375 
z
M 47.21875 32.234375 
Q 47.125 39.59375 43.09375 43.984375 
Q 39.0625 48.390625 32.421875 48.390625 
Q 24.90625 48.390625 20.390625 44.140625 
Q 15.875 39.890625 15.1875 32.171875 
z
" id="DejaVuSans-101"/>
     </defs>
     <g transform="translate(369.091875 73.516875)scale(0.2 -0.2)">
      <use xlink:href="#DejaVuSans-70"/>
      <use x="57.410156" xlink:href="#DejaVuSans-114"/>
      <use x="98.523438" xlink:href="#DejaVuSans-97"/>
      <use x="159.802734" xlink:href="#DejaVuSans-117"/>
      <use x="223.181641" xlink:href="#DejaVuSans-110"/>
      <use x="286.560547" xlink:href="#DejaVuSans-104"/>
      <use x="349.939453" xlink:href="#DejaVuSans-111"/>
      <use x="411.121094" xlink:href="#DejaVuSans-102"/>
      <use x="446.326172" xlink:href="#DejaVuSans-101"/>
      <use x="507.849609" xlink:href="#DejaVuSans-114"/>
     </g>
    </g>
   </g>
  </g>
 </g>
 <defs>
  <clipPath id="pfbd28d87bf">
   <rect height="472.32" width="420.045" x="76.8375" y="40.32"/>
  </clipPath>
 </defs>
</svg>
