<?xml version="1.0" encoding="utf-8" standalone="no"?>
<!DOCTYPE svg PUBLIC "-//W3C//DTD SVG 1.1//EN"
  "http://www.w3.org/Graphics/SVG/1.1/DTD/svg11.dtd">
<!-- Created with matplotlib (https://matplotlib.org/) -->
<svg height="576pt" version="1.1" viewBox="0 0 512.25 576" width="512.25pt" xmlns="http://www.w3.org/2000/svg" xmlns:xlink="http://www.w3.org/1999/xlink">
 <defs>
  <style type="text/css">
*{stroke-linecap:butt;stroke-linejoin:round;}
  </style>
 </defs>
 <g id="figure_1">
  <g id="patch_1">
   <path d="M 0 576 
L 512.25 576 
L 512.25 0 
L 0 0 
z
" style="fill:#ffffff;"/>
  </g>
  <g id="axes_1">
   <g id="patch_2">
    <path d="M 76.8375 512.64 
L 496.8825 512.64 
L 496.8825 40.32 
L 76.8375 40.32 
z
" style="fill:#ffffff;"/>
   </g>
   <g id="matplotlib.axis_1">
    <g id="xtick_1">
     <g id="line2d_1">
      <path clip-path="url(#pe1f2c7464f)" d="M 76.8375 512.64 
L 76.8375 40.32 
" style="fill:none;stroke:#e6e6e6;stroke-linecap:square;stroke-width:0.8;"/>
     </g>
     <g id="line2d_2">
      <defs>
       <path d="M 0 0 
L 0 -3.5 
" id="m5b743dcb84" style="stroke:#000000;stroke-width:0.8;"/>
      </defs>
      <g>
       <use style="stroke:#000000;stroke-width:0.8;" x="76.8375" xlink:href="#m5b743dcb84" y="512.64"/>
      </g>
     </g>
     <g id="text_1">
      <!-- −2.0 -->
      <defs>
       <path d="M 10.59375 35.5 
L 73.1875 35.5 
L 73.1875 27.203125 
L 10.59375 27.203125 
z
" id="DejaVuSans-8722"/>
       <path d="M 19.1875 8.296875 
L 53.609375 8.296875 
L 53.609375 0 
L 7.328125 0 
L 7.328125 8.296875 
Q 12.9375 14.109375 22.625 23.890625 
Q 32.328125 33.6875 34.8125 36.53125 
Q 39.546875 41.84375 41.421875 45.53125 
Q 43.3125 49.21875 43.3125 52.78125 
Q 43.3125 58.59375 39.234375 62.25 
Q 35.15625 65.921875 28.609375 65.921875 
Q 23.96875 65.921875 18.8125 64.3125 
Q 13.671875 62.703125 7.8125 59.421875 
L 7.8125 69.390625 
Q 13.765625 71.78125 18.9375 73 
Q 24.125 74.21875 28.421875 74.21875 
Q 39.75 74.21875 46.484375 68.546875 
Q 53.21875 62.890625 53.21875 53.421875 
Q 53.21875 48.921875 51.53125 44.890625 
Q 49.859375 40.875 45.40625 35.40625 
Q 44.1875 33.984375 37.640625 27.21875 
Q 31.109375 20.453125 19.1875 8.296875 
z
" id="DejaVuSans-50"/>
       <path d="M 10.6875 12.40625 
L 21 12.40625 
L 21 0 
L 10.6875 0 
z
" id="DejaVuSans-46"/>
       <path d="M 31.78125 66.40625 
Q 24.171875 66.40625 20.328125 58.90625 
Q 16.5 51.421875 16.5 36.375 
Q 16.5 21.390625 20.328125 13.890625 
Q 24.171875 6.390625 31.78125 6.390625 
Q 39.453125 6.390625 43.28125 13.890625 
Q 47.125 21.390625 47.125 36.375 
Q 47.125 51.421875 43.28125 58.90625 
Q 39.453125 66.40625 31.78125 66.40625 
z
M 31.78125 74.21875 
Q 44.046875 74.21875 50.515625 64.515625 
Q 56.984375 54.828125 56.984375 36.375 
Q 56.984375 17.96875 50.515625 8.265625 
Q 44.046875 -1.421875 31.78125 -1.421875 
Q 19.53125 -1.421875 13.0625 8.265625 
Q 6.59375 17.96875 6.59375 36.375 
Q 6.59375 54.828125 13.0625 64.515625 
Q 19.53125 74.21875 31.78125 74.21875 
z
" id="DejaVuSans-48"/>
      </defs>
      <g transform="translate(58.625391 527.537656)scale(0.15 -0.15)">
       <use xlink:href="#DejaVuSans-8722"/>
       <use x="83.789062" xlink:href="#DejaVuSans-50"/>
       <use x="147.412109" xlink:href="#DejaVuSans-46"/>
       <use x="179.199219" xlink:href="#DejaVuSans-48"/>
      </g>
     </g>
    </g>
    <g id="xtick_2">
     <g id="line2d_3">
      <path clip-path="url(#pe1f2c7464f)" d="M 129.343125 512.64 
L 129.343125 40.32 
" style="fill:none;stroke:#e6e6e6;stroke-linecap:square;stroke-width:0.8;"/>
     </g>
     <g id="line2d_4">
      <g>
       <use style="stroke:#000000;stroke-width:0.8;" x="129.343125" xlink:href="#m5b743dcb84" y="512.64"/>
      </g>
     </g>
     <g id="text_2">
      <!-- −1.5 -->
      <defs>
       <path d="M 12.40625 8.296875 
L 28.515625 8.296875 
L 28.515625 63.921875 
L 10.984375 60.40625 
L 10.984375 69.390625 
L 28.421875 72.90625 
L 38.28125 72.90625 
L 38.28125 8.296875 
L 54.390625 8.296875 
L 54.390625 0 
L 12.40625 0 
z
" id="DejaVuSans-49"/>
       <path d="M 10.796875 72.90625 
L 49.515625 72.90625 
L 49.515625 64.59375 
L 19.828125 64.59375 
L 19.828125 46.734375 
Q 21.96875 47.46875 24.109375 47.828125 
Q 26.265625 48.1875 28.421875 48.1875 
Q 40.625 48.1875 47.75 41.5 
Q 54.890625 34.8125 54.890625 23.390625 
Q 54.890625 11.625 47.5625 5.09375 
Q 40.234375 -1.421875 26.90625 -1.421875 
Q 22.3125 -1.421875 17.546875 -0.640625 
Q 12.796875 0.140625 7.71875 1.703125 
L 7.71875 11.625 
Q 12.109375 9.234375 16.796875 8.0625 
Q 21.484375 6.890625 26.703125 6.890625 
Q 35.15625 6.890625 40.078125 11.328125 
Q 45.015625 15.765625 45.015625 23.390625 
Q 45.015625 31 40.078125 35.4375 
Q 35.15625 39.890625 26.703125 39.890625 
Q 22.75 39.890625 18.8125 39.015625 
Q 14.890625 38.140625 10.796875 36.28125 
z
" id="DejaVuSans-53"/>
      </defs>
      <g transform="translate(111.131016 527.537656)scale(0.15 -0.15)">
       <use xlink:href="#DejaVuSans-8722"/>
       <use x="83.789062" xlink:href="#DejaVuSans-49"/>
       <use x="147.412109" xlink:href="#DejaVuSans-46"/>
       <use x="179.199219" xlink:href="#DejaVuSans-53"/>
      </g>
     </g>
    </g>
    <g id="xtick_3">
     <g id="line2d_5">
      <path clip-path="url(#pe1f2c7464f)" d="M 181.84875 512.64 
L 181.84875 40.32 
" style="fill:none;stroke:#e6e6e6;stroke-linecap:square;stroke-width:0.8;"/>
     </g>
     <g id="line2d_6">
      <g>
       <use style="stroke:#000000;stroke-width:0.8;" x="181.84875" xlink:href="#m5b743dcb84" y="512.64"/>
      </g>
     </g>
     <g id="text_3">
      <!-- −1.0 -->
      <g transform="translate(163.636641 527.537656)scale(0.15 -0.15)">
       <use xlink:href="#DejaVuSans-8722"/>
       <use x="83.789062" xlink:href="#DejaVuSans-49"/>
       <use x="147.412109" xlink:href="#DejaVuSans-46"/>
       <use x="179.199219" xlink:href="#DejaVuSans-48"/>
      </g>
     </g>
    </g>
    <g id="xtick_4">
     <g id="line2d_7">
      <path clip-path="url(#pe1f2c7464f)" d="M 234.354375 512.64 
L 234.354375 40.32 
" style="fill:none;stroke:#e6e6e6;stroke-linecap:square;stroke-width:0.8;"/>
     </g>
     <g id="line2d_8">
      <g>
       <use style="stroke:#000000;stroke-width:0.8;" x="234.354375" xlink:href="#m5b743dcb84" y="512.64"/>
      </g>
     </g>
     <g id="text_4">
      <!-- −0.5 -->
      <g transform="translate(216.142266 527.537656)scale(0.15 -0.15)">
       <use xlink:href="#DejaVuSans-8722"/>
       <use x="83.789062" xlink:href="#DejaVuSans-48"/>
       <use x="147.412109" xlink:href="#DejaVuSans-46"/>
       <use x="179.199219" xlink:href="#DejaVuSans-53"/>
      </g>
     </g>
    </g>
    <g id="xtick_5">
     <g id="line2d_9">
      <path clip-path="url(#pe1f2c7464f)" d="M 286.86 512.64 
L 286.86 40.32 
" style="fill:none;stroke:#e6e6e6;stroke-linecap:square;stroke-width:0.8;"/>
     </g>
     <g id="line2d_10">
      <g>
       <use style="stroke:#000000;stroke-width:0.8;" x="286.86" xlink:href="#m5b743dcb84" y="512.64"/>
      </g>
     </g>
     <g id="text_5">
      <!-- 0.0 -->
      <g transform="translate(274.932656 527.537656)scale(0.15 -0.15)">
       <use xlink:href="#DejaVuSans-48"/>
       <use x="63.623047" xlink:href="#DejaVuSans-46"/>
       <use x="95.410156" xlink:href="#DejaVuSans-48"/>
      </g>
     </g>
    </g>
    <g id="xtick_6">
     <g id="line2d_11">
      <path clip-path="url(#pe1f2c7464f)" d="M 339.365625 512.64 
L 339.365625 40.32 
" style="fill:none;stroke:#e6e6e6;stroke-linecap:square;stroke-width:0.8;"/>
     </g>
     <g id="line2d_12">
      <g>
       <use style="stroke:#000000;stroke-width:0.8;" x="339.365625" xlink:href="#m5b743dcb84" y="512.64"/>
      </g>
     </g>
     <g id="text_6">
      <!-- 0.5 -->
      <g transform="translate(327.438281 527.537656)scale(0.15 -0.15)">
       <use xlink:href="#DejaVuSans-48"/>
       <use x="63.623047" xlink:href="#DejaVuSans-46"/>
       <use x="95.410156" xlink:href="#DejaVuSans-53"/>
      </g>
     </g>
    </g>
    <g id="xtick_7">
     <g id="line2d_13">
      <path clip-path="url(#pe1f2c7464f)" d="M 391.87125 512.64 
L 391.87125 40.32 
" style="fill:none;stroke:#e6e6e6;stroke-linecap:square;stroke-width:0.8;"/>
     </g>
     <g id="line2d_14">
      <g>
       <use style="stroke:#000000;stroke-width:0.8;" x="391.87125" xlink:href="#m5b743dcb84" y="512.64"/>
      </g>
     </g>
     <g id="text_7">
      <!-- 1.0 -->
      <g transform="translate(379.943906 527.537656)scale(0.15 -0.15)">
       <use xlink:href="#DejaVuSans-49"/>
       <use x="63.623047" xlink:href="#DejaVuSans-46"/>
       <use x="95.410156" xlink:href="#DejaVuSans-48"/>
      </g>
     </g>
    </g>
    <g id="xtick_8">
     <g id="line2d_15">
      <path clip-path="url(#pe1f2c7464f)" d="M 444.376875 512.64 
L 444.376875 40.32 
" style="fill:none;stroke:#e6e6e6;stroke-linecap:square;stroke-width:0.8;"/>
     </g>
     <g id="line2d_16">
      <g>
       <use style="stroke:#000000;stroke-width:0.8;" x="444.376875" xlink:href="#m5b743dcb84" y="512.64"/>
      </g>
     </g>
     <g id="text_8">
      <!-- 1.5 -->
      <g transform="translate(432.449531 527.537656)scale(0.15 -0.15)">
       <use xlink:href="#DejaVuSans-49"/>
       <use x="63.623047" xlink:href="#DejaVuSans-46"/>
       <use x="95.410156" xlink:href="#DejaVuSans-53"/>
      </g>
     </g>
    </g>
    <g id="xtick_9">
     <g id="line2d_17">
      <path clip-path="url(#pe1f2c7464f)" d="M 496.8825 512.64 
L 496.8825 40.32 
" style="fill:none;stroke:#e6e6e6;stroke-linecap:square;stroke-width:0.8;"/>
     </g>
     <g id="line2d_18">
      <g>
       <use style="stroke:#000000;stroke-width:0.8;" x="496.8825" xlink:href="#m5b743dcb84" y="512.64"/>
      </g>
     </g>
     <g id="text_9">
      <!-- 2.0 -->
      <g transform="translate(484.955156 527.537656)scale(0.15 -0.15)">
       <use xlink:href="#DejaVuSans-50"/>
       <use x="63.623047" xlink:href="#DejaVuSans-46"/>
       <use x="95.410156" xlink:href="#DejaVuSans-48"/>
      </g>
     </g>
    </g>
    <g id="text_10">
     <!-- $q(\AA^{-1})$ -->
     <defs>
      <path d="M 41.703125 8.203125 
Q 38.09375 3.46875 33.171875 1.015625 
Q 28.265625 -1.421875 22.3125 -1.421875 
Q 14.015625 -1.421875 9.296875 4.171875 
Q 4.59375 9.765625 4.59375 19.578125 
Q 4.59375 27.484375 7.5 34.859375 
Q 10.40625 42.234375 15.828125 48.09375 
Q 19.34375 51.90625 23.90625 53.953125 
Q 28.46875 56 33.5 56 
Q 39.546875 56 43.453125 53.609375 
Q 47.359375 51.21875 49.125 46.390625 
L 50.6875 54.59375 
L 59.71875 54.59375 
L 45.125 -20.609375 
L 36.078125 -20.609375 
z
M 13.921875 20.90625 
Q 13.921875 13.671875 16.9375 9.890625 
Q 19.96875 6.109375 25.6875 6.109375 
Q 34.1875 6.109375 40.1875 14.234375 
Q 46.1875 22.359375 46.1875 33.984375 
Q 46.1875 41.015625 43.078125 44.75 
Q 39.984375 48.484375 34.1875 48.484375 
Q 29.9375 48.484375 26.3125 46.5 
Q 22.703125 44.53125 20.015625 40.71875 
Q 17.1875 36.71875 15.546875 31.34375 
Q 13.921875 25.984375 13.921875 20.90625 
z
" id="DejaVuSans-Oblique-113"/>
      <path d="M 31 75.875 
Q 24.46875 64.65625 21.28125 53.65625 
Q 18.109375 42.671875 18.109375 31.390625 
Q 18.109375 20.125 21.3125 9.0625 
Q 24.515625 -2 31 -13.1875 
L 23.1875 -13.1875 
Q 15.875 -1.703125 12.234375 9.375 
Q 8.59375 20.453125 8.59375 31.390625 
Q 8.59375 42.28125 12.203125 53.3125 
Q 15.828125 64.359375 23.1875 75.875 
z
" id="DejaVuSans-40"/>
      <path d="M 49.8125 79.390625 
Q 49.8125 82.46875 47.625 84.640625 
Q 45.453125 86.8125 42.390625 86.8125 
Q 39.265625 86.8125 37.140625 84.6875 
Q 35.015625 82.5625 35.015625 79.390625 
Q 35.015625 76.3125 37.140625 74.15625 
Q 39.265625 72.015625 42.390625 72.015625 
Q 45.453125 72.015625 47.625 74.15625 
Q 49.8125 76.3125 49.8125 79.390625 
z
M 34.421875 68.703125 
Q 31.78125 70.515625 30.390625 73.265625 
Q 29 76.03125 29 79.390625 
Q 29 84.96875 32.90625 88.890625 
Q 36.8125 92.828125 42.390625 92.828125 
Q 47.953125 92.828125 51.875 88.890625 
Q 55.8125 84.96875 55.8125 79.390625 
Q 55.8125 75.53125 54.03125 72.546875 
Q 52.25 69.578125 48.875 67.828125 
L 61.53125 0 
L 51.21875 0 
L 48.1875 18.703125 
L 15.375 18.703125 
L 5.078125 0 
L -5.328125 0 
z
M 40.375 63.1875 
L 19.921875 26.90625 
L 46.6875 26.90625 
z
" id="DejaVuSans-Oblique-197"/>
      <path d="M 8.015625 75.875 
L 15.828125 75.875 
Q 23.140625 64.359375 26.78125 53.3125 
Q 30.421875 42.28125 30.421875 31.390625 
Q 30.421875 20.453125 26.78125 9.375 
Q 23.140625 -1.703125 15.828125 -13.1875 
L 8.015625 -13.1875 
Q 14.5 -2 17.703125 9.0625 
Q 20.90625 20.125 20.90625 31.390625 
Q 20.90625 42.671875 17.703125 53.65625 
Q 14.5 64.65625 8.015625 75.875 
z
" id="DejaVuSans-41"/>
     </defs>
     <g transform="translate(246.11 557.907187)scale(0.25 -0.25)">
      <use transform="translate(0 0.171875)" xlink:href="#DejaVuSans-Oblique-113"/>
      <use transform="translate(63.476562 0.171875)" xlink:href="#DejaVuSans-40"/>
      <use transform="translate(102.490234 0.171875)" xlink:href="#DejaVuSans-Oblique-197"/>
      <use transform="translate(180.704271 38.453125)scale(0.7)" xlink:href="#DejaVuSans-8722"/>
      <use transform="translate(239.356615 38.453125)scale(0.7)" xlink:href="#DejaVuSans-49"/>
      <use transform="translate(286.627122 0.171875)" xlink:href="#DejaVuSans-41"/>
     </g>
    </g>
   </g>
   <g id="matplotlib.axis_2">
    <g id="ytick_1">
     <g id="line2d_19">
      <path clip-path="url(#pe1f2c7464f)" d="M 76.8375 512.64 
L 496.8825 512.64 
" style="fill:none;stroke:#e6e6e6;stroke-linecap:square;stroke-width:0.8;"/>
     </g>
     <g id="line2d_20">
      <defs>
       <path d="M 0 0 
L 3.5 0 
" id="m1767293a89" style="stroke:#000000;stroke-width:0.8;"/>
      </defs>
      <g>
       <use style="stroke:#000000;stroke-width:0.8;" x="76.8375" xlink:href="#m1767293a89" y="512.64"/>
      </g>
     </g>
     <g id="text_11">
      <!-- 0.0 -->
      <g transform="translate(49.482812 518.338828)scale(0.15 -0.15)">
       <use xlink:href="#DejaVuSans-48"/>
       <use x="63.623047" xlink:href="#DejaVuSans-46"/>
       <use x="95.410156" xlink:href="#DejaVuSans-48"/>
      </g>
     </g>
    </g>
    <g id="ytick_2">
     <g id="line2d_21">
      <path clip-path="url(#pe1f2c7464f)" d="M 76.8375 418.176 
L 496.8825 418.176 
" style="fill:none;stroke:#e6e6e6;stroke-linecap:square;stroke-width:0.8;"/>
     </g>
     <g id="line2d_22">
      <g>
       <use style="stroke:#000000;stroke-width:0.8;" x="76.8375" xlink:href="#m1767293a89" y="418.176"/>
      </g>
     </g>
     <g id="text_12">
      <!-- 0.2 -->
      <g transform="translate(49.482812 423.874828)scale(0.15 -0.15)">
       <use xlink:href="#DejaVuSans-48"/>
       <use x="63.623047" xlink:href="#DejaVuSans-46"/>
       <use x="95.410156" xlink:href="#DejaVuSans-50"/>
      </g>
     </g>
    </g>
    <g id="ytick_3">
     <g id="line2d_23">
      <path clip-path="url(#pe1f2c7464f)" d="M 76.8375 323.712 
L 496.8825 323.712 
" style="fill:none;stroke:#e6e6e6;stroke-linecap:square;stroke-width:0.8;"/>
     </g>
     <g id="line2d_24">
      <g>
       <use style="stroke:#000000;stroke-width:0.8;" x="76.8375" xlink:href="#m1767293a89" y="323.712"/>
      </g>
     </g>
     <g id="text_13">
      <!-- 0.4 -->
      <defs>
       <path d="M 37.796875 64.3125 
L 12.890625 25.390625 
L 37.796875 25.390625 
z
M 35.203125 72.90625 
L 47.609375 72.90625 
L 47.609375 25.390625 
L 58.015625 25.390625 
L 58.015625 17.1875 
L 47.609375 17.1875 
L 47.609375 0 
L 37.796875 0 
L 37.796875 17.1875 
L 4.890625 17.1875 
L 4.890625 26.703125 
z
" id="DejaVuSans-52"/>
      </defs>
      <g transform="translate(49.482812 329.410828)scale(0.15 -0.15)">
       <use xlink:href="#DejaVuSans-48"/>
       <use x="63.623047" xlink:href="#DejaVuSans-46"/>
       <use x="95.410156" xlink:href="#DejaVuSans-52"/>
      </g>
     </g>
    </g>
    <g id="ytick_4">
     <g id="line2d_25">
      <path clip-path="url(#pe1f2c7464f)" d="M 76.8375 229.248 
L 496.8825 229.248 
" style="fill:none;stroke:#e6e6e6;stroke-linecap:square;stroke-width:0.8;"/>
     </g>
     <g id="line2d_26">
      <g>
       <use style="stroke:#000000;stroke-width:0.8;" x="76.8375" xlink:href="#m1767293a89" y="229.248"/>
      </g>
     </g>
     <g id="text_14">
      <!-- 0.6 -->
      <defs>
       <path d="M 33.015625 40.375 
Q 26.375 40.375 22.484375 35.828125 
Q 18.609375 31.296875 18.609375 23.390625 
Q 18.609375 15.53125 22.484375 10.953125 
Q 26.375 6.390625 33.015625 6.390625 
Q 39.65625 6.390625 43.53125 10.953125 
Q 47.40625 15.53125 47.40625 23.390625 
Q 47.40625 31.296875 43.53125 35.828125 
Q 39.65625 40.375 33.015625 40.375 
z
M 52.59375 71.296875 
L 52.59375 62.3125 
Q 48.875 64.0625 45.09375 64.984375 
Q 41.3125 65.921875 37.59375 65.921875 
Q 27.828125 65.921875 22.671875 59.328125 
Q 17.53125 52.734375 16.796875 39.40625 
Q 19.671875 43.65625 24.015625 45.921875 
Q 28.375 48.1875 33.59375 48.1875 
Q 44.578125 48.1875 50.953125 41.515625 
Q 57.328125 34.859375 57.328125 23.390625 
Q 57.328125 12.15625 50.6875 5.359375 
Q 44.046875 -1.421875 33.015625 -1.421875 
Q 20.359375 -1.421875 13.671875 8.265625 
Q 6.984375 17.96875 6.984375 36.375 
Q 6.984375 53.65625 15.1875 63.9375 
Q 23.390625 74.21875 37.203125 74.21875 
Q 40.921875 74.21875 44.703125 73.484375 
Q 48.484375 72.75 52.59375 71.296875 
z
" id="DejaVuSans-54"/>
      </defs>
      <g transform="translate(49.482812 234.946828)scale(0.15 -0.15)">
       <use xlink:href="#DejaVuSans-48"/>
       <use x="63.623047" xlink:href="#DejaVuSans-46"/>
       <use x="95.410156" xlink:href="#DejaVuSans-54"/>
      </g>
     </g>
    </g>
    <g id="ytick_5">
     <g id="line2d_27">
      <path clip-path="url(#pe1f2c7464f)" d="M 76.8375 134.784 
L 496.8825 134.784 
" style="fill:none;stroke:#e6e6e6;stroke-linecap:square;stroke-width:0.8;"/>
     </g>
     <g id="line2d_28">
      <g>
       <use style="stroke:#000000;stroke-width:0.8;" x="76.8375" xlink:href="#m1767293a89" y="134.784"/>
      </g>
     </g>
     <g id="text_15">
      <!-- 0.8 -->
      <defs>
       <path d="M 31.78125 34.625 
Q 24.75 34.625 20.71875 30.859375 
Q 16.703125 27.09375 16.703125 20.515625 
Q 16.703125 13.921875 20.71875 10.15625 
Q 24.75 6.390625 31.78125 6.390625 
Q 38.8125 6.390625 42.859375 10.171875 
Q 46.921875 13.96875 46.921875 20.515625 
Q 46.921875 27.09375 42.890625 30.859375 
Q 38.875 34.625 31.78125 34.625 
z
M 21.921875 38.8125 
Q 15.578125 40.375 12.03125 44.71875 
Q 8.5 49.078125 8.5 55.328125 
Q 8.5 64.0625 14.71875 69.140625 
Q 20.953125 74.21875 31.78125 74.21875 
Q 42.671875 74.21875 48.875 69.140625 
Q 55.078125 64.0625 55.078125 55.328125 
Q 55.078125 49.078125 51.53125 44.71875 
Q 48 40.375 41.703125 38.8125 
Q 48.828125 37.15625 52.796875 32.3125 
Q 56.78125 27.484375 56.78125 20.515625 
Q 56.78125 9.90625 50.3125 4.234375 
Q 43.84375 -1.421875 31.78125 -1.421875 
Q 19.734375 -1.421875 13.25 4.234375 
Q 6.78125 9.90625 6.78125 20.515625 
Q 6.78125 27.484375 10.78125 32.3125 
Q 14.796875 37.15625 21.921875 38.8125 
z
M 18.3125 54.390625 
Q 18.3125 48.734375 21.84375 45.5625 
Q 25.390625 42.390625 31.78125 42.390625 
Q 38.140625 42.390625 41.71875 45.5625 
Q 45.3125 48.734375 45.3125 54.390625 
Q 45.3125 60.0625 41.71875 63.234375 
Q 38.140625 66.40625 31.78125 66.40625 
Q 25.390625 66.40625 21.84375 63.234375 
Q 18.3125 60.0625 18.3125 54.390625 
z
" id="DejaVuSans-56"/>
      </defs>
      <g transform="translate(49.482812 140.482828)scale(0.15 -0.15)">
       <use xlink:href="#DejaVuSans-48"/>
       <use x="63.623047" xlink:href="#DejaVuSans-46"/>
       <use x="95.410156" xlink:href="#DejaVuSans-56"/>
      </g>
     </g>
    </g>
    <g id="ytick_6">
     <g id="line2d_29">
      <path clip-path="url(#pe1f2c7464f)" d="M 76.8375 40.32 
L 496.8825 40.32 
" style="fill:none;stroke:#e6e6e6;stroke-linecap:square;stroke-width:0.8;"/>
     </g>
     <g id="line2d_30">
      <g>
       <use style="stroke:#000000;stroke-width:0.8;" x="76.8375" xlink:href="#m1767293a89" y="40.32"/>
      </g>
     </g>
     <g id="text_16">
      <!-- 1.0 -->
      <g transform="translate(49.482812 46.018828)scale(0.15 -0.15)">
       <use xlink:href="#DejaVuSans-49"/>
       <use x="63.623047" xlink:href="#DejaVuSans-46"/>
       <use x="95.410156" xlink:href="#DejaVuSans-48"/>
      </g>
     </g>
    </g>
    <g id="text_17">
     <!-- $I$ -->
     <defs>
      <path d="M 16.890625 72.90625 
L 26.8125 72.90625 
L 12.59375 0 
L 2.6875 0 
z
" id="DejaVuSans-Oblique-73"/>
     </defs>
     <g transform="translate(40.283594 280.23)rotate(-90)scale(0.25 -0.25)">
      <use transform="translate(0 0.09375)" xlink:href="#DejaVuSans-Oblique-73"/>
     </g>
    </g>
   </g>
   <g id="line2d_31">
    <path clip-path="url(#pe1f2c7464f)" d="M 76.786212 512.639891 
L 160.077187 512.567295 
L 160.897788 512.161732 
L 161.923538 512.637176 
L 163.15444 512.634066 
L 168.488344 512.639097 
L 180.797355 512.637556 
L 181.002505 512.456081 
L 181.207656 511.857703 
L 181.823106 509.231397 
L 182.028256 509.450482 
L 182.643707 512.360079 
L 182.848857 512.638556 
L 183.464308 512.411281 
L 183.874608 512.637108 
L 184.695209 512.579059 
L 185.105509 512.624379 
L 185.51581 512.551959 
L 186.33641 512.590447 
L 186.746711 512.591501 
L 187.362161 512.60055 
L 187.977612 512.628541 
L 189.413663 512.611464 
L 190.029114 512.619549 
L 190.644564 512.576011 
L 196.79907 512.518645 
L 197.00422 512.395918 
L 197.20937 512.42497 
L 197.61967 512.635651 
L 198.235121 512.292925 
L 198.645421 512.639091 
L 199.260872 512.022573 
L 199.671172 512.639117 
L 199.876322 512.335563 
L 200.081473 511.626925 
L 200.286623 511.341925 
L 200.696923 512.617637 
L 200.902073 512.066574 
L 201.312374 508.767804 
L 201.517524 509.914853 
L 201.722674 512.393858 
L 201.927824 510.629631 
L 202.132974 498.185142 
L 202.748425 427.421645 
L 202.953575 428.401504 
L 203.363875 476.923394 
L 203.774176 511.417196 
L 203.979326 512.026977 
L 204.184476 509.1436 
L 204.389626 508.285748 
L 204.799927 512.20397 
L 205.005077 512.540989 
L 205.415377 510.984847 
L 205.620527 511.483134 
L 205.825678 512.365073 
L 206.030828 512.619806 
L 206.441128 511.755897 
L 206.646278 511.929548 
L 207.056579 512.637582 
L 207.466879 512.083512 
L 207.672029 512.13511 
L 208.08233 512.639876 
L 208.69778 512.248414 
L 209.108081 512.636916 
L 209.723531 512.317532 
L 210.133832 512.631715 
L 210.338982 512.583798 
L 210.749282 512.362606 
L 211.364733 512.605488 
L 211.775033 512.393558 
L 212.390484 512.619693 
L 212.800784 512.414589 
L 213.416234 512.629091 
L 213.826535 512.428568 
L 214.647136 512.53855 
L 214.852286 512.436633 
L 215.262586 512.58462 
L 215.467736 512.638729 
L 216.083187 512.44748 
L 216.493487 512.639998 
L 217.108938 512.423456 
L 217.519238 512.638746 
L 218.134689 512.386488 
L 218.544989 512.634091 
L 218.750139 512.580413 
L 219.16044 512.326666 
L 219.57074 512.62339 
L 219.77589 512.585174 
L 220.18619 512.218231 
L 220.801641 512.586841 
L 221.211941 511.9829 
L 221.417092 512.128959 
L 221.622242 512.531045 
L 221.827392 512.582 
L 222.237692 511.247529 
L 222.442842 511.306841 
L 222.647993 512.219271 
L 222.853143 512.546451 
L 223.058293 510.223995 
L 223.673744 491.61982 
L 223.878894 490.922172 
L 224.084044 495.267688 
L 224.494344 508.374338 
L 224.699495 511.816602 
L 224.904645 512.639045 
L 225.314945 511.96851 
L 225.520095 512.14846 
L 225.930396 512.639253 
L 226.545846 512.504797 
L 226.956147 512.638635 
L 228.597348 512.625121 
L 231.674601 512.639398 
L 239.880608 512.570797 
L 240.290908 512.519731 
L 240.701209 512.635906 
L 241.316659 512.411241 
L 241.72696 512.638081 
L 242.34241 512.134123 
L 242.752711 512.64 
L 242.957861 512.300371 
L 243.368161 511.066169 
L 243.778462 512.622232 
L 243.983612 511.310552 
L 244.188762 505.400099 
L 244.804212 478.164343 
L 245.009363 480.230701 
L 245.829963 512.442213 
L 246.035114 512.224155 
L 246.240264 511.16745 
L 246.445414 511.077562 
L 246.855714 512.556908 
L 247.060864 512.559131 
L 247.471165 512.059925 
L 248.086615 512.617369 
L 248.496916 512.345576 
L 249.112366 512.633612 
L 249.522667 512.468138 
L 250.343267 512.586526 
L 250.753568 512.547886 
L 251.163868 512.639936 
L 251.984469 512.614704 
L 252.599919 512.594155 
L 261.421377 512.624184 
L 262.036828 512.577543 
L 262.447128 512.580845 
L 262.857429 512.60366 
L 263.267729 512.332252 
L 263.883179 512.546083 
L 264.29348 511.346814 
L 264.49863 511.463735 
L 264.70378 512.384618 
L 264.90893 512.247494 
L 265.114081 507.820642 
L 265.524381 481.980411 
L 265.729531 468.77801 
L 265.934681 464.432709 
L 266.139832 471.725134 
L 266.755282 510.962247 
L 266.960432 512.489236 
L 267.370733 509.14609 
L 267.575883 510.186065 
L 267.781033 512.003643 
L 267.986183 512.624473 
L 268.396484 511.063026 
L 268.601634 511.30154 
L 269.011934 512.639814 
L 269.422234 511.646258 
L 269.627385 511.675476 
L 270.037685 512.636503 
L 270.242835 512.391787 
L 270.447985 511.909968 
L 270.653136 511.843382 
L 271.063436 512.626128 
L 271.268586 512.4783 
L 271.473736 512.0549 
L 271.678886 511.927026 
L 272.089187 512.610439 
L 272.294337 512.531827 
L 272.704637 511.967102 
L 273.114938 512.589231 
L 273.320088 512.568697 
L 273.730388 511.979364 
L 274.345839 512.595699 
L 274.756139 511.970889 
L 274.961289 512.135136 
L 275.16644 512.52289 
L 275.37159 512.615772 
L 275.78189 511.944821 
L 275.98704 512.057608 
L 276.19219 512.471704 
L 276.397341 512.630135 
L 276.807641 511.89863 
L 277.012791 511.95372 
L 277.423092 512.638499 
L 278.038542 511.811525 
L 278.448842 512.639077 
L 278.653993 512.33261 
L 278.859143 511.729334 
L 279.064293 511.610038 
L 279.474593 512.627316 
L 279.679744 512.344114 
L 279.884894 511.582627 
L 280.090044 511.312604 
L 280.500344 512.593161 
L 280.705495 512.352929 
L 281.115795 510.851152 
L 281.526095 512.514663 
L 281.731245 512.359977 
L 282.141546 510.072278 
L 282.346696 510.832736 
L 282.551846 512.335346 
L 282.756996 512.364899 
L 283.167297 508.58705 
L 283.372447 509.395295 
L 283.577597 511.886044 
L 283.782747 512.368614 
L 284.193048 505.148377 
L 284.398198 505.706444 
L 284.603348 510.492879 
L 284.808498 512.371856 
L 285.013648 505.21114 
L 285.218799 493.621431 
L 285.423949 491.076039 
L 285.834249 512.372538 
L 286.039399 481.069461 
L 286.4497 234.521559 
L 286.65485 96.653578 
L 286.86 40.32 
L 287.06515 96.653578 
L 287.680601 481.069461 
L 287.885751 512.372538 
L 288.296051 491.076039 
L 288.501201 493.621431 
L 288.911502 512.371856 
L 289.116652 510.492879 
L 289.321802 505.706444 
L 289.526952 505.148377 
L 289.937253 512.368614 
L 290.142403 511.886044 
L 290.347553 509.395295 
L 290.552703 508.58705 
L 290.963004 512.364899 
L 291.168154 512.335346 
L 291.578454 510.072278 
L 292.193905 512.514663 
L 292.604205 510.851152 
L 292.809355 511.361223 
L 293.014505 512.352929 
L 293.219656 512.593161 
L 293.629956 511.312604 
L 293.835106 511.582627 
L 294.040256 512.344114 
L 294.245407 512.627316 
L 294.655707 511.610038 
L 294.860857 511.729334 
L 295.271158 512.639077 
L 295.886608 511.829559 
L 296.296908 512.638499 
L 296.502059 512.400246 
L 296.707209 511.95372 
L 296.912359 511.89863 
L 297.322659 512.630135 
L 297.52781 512.471704 
L 297.73296 512.057608 
L 297.93811 511.944821 
L 298.34841 512.615772 
L 298.55356 512.52289 
L 298.963861 511.970889 
L 299.374161 512.595699 
L 299.579311 512.561031 
L 299.989612 511.979364 
L 300.605062 512.589231 
L 301.015363 511.967102 
L 301.220513 512.144274 
L 301.425663 512.531827 
L 301.630813 512.610439 
L 302.041114 511.927026 
L 302.246264 512.0549 
L 302.451414 512.4783 
L 302.656564 512.626128 
L 303.066864 511.843382 
L 303.272015 511.909968 
L 303.682315 512.636503 
L 304.297766 511.646258 
L 304.708066 512.639814 
L 304.913216 512.194974 
L 305.118366 511.30154 
L 305.323516 511.063026 
L 305.733817 512.624473 
L 305.938967 512.003643 
L 306.349267 509.14609 
L 306.554418 510.415434 
L 306.759568 512.489236 
L 306.964718 510.962247 
L 307.169868 502.089833 
L 307.785319 464.432709 
L 307.990469 468.77801 
L 308.605919 507.820642 
L 308.81107 512.247494 
L 309.01622 512.384584 
L 309.22137 511.463735 
L 309.42652 511.346814 
L 309.836821 512.546083 
L 310.041971 512.611236 
L 310.452271 512.332252 
L 311.067722 512.635962 
L 311.683172 512.577543 
L 312.298623 512.624184 
L 313.939824 512.638897 
L 321.940681 512.574009 
L 324.402484 512.542104 
L 324.607634 512.633612 
L 324.812784 512.596753 
L 325.223084 512.345576 
L 325.838535 512.58427 
L 326.248835 512.059925 
L 326.453985 512.197869 
L 326.659136 512.559131 
L 326.864286 512.556908 
L 327.274586 511.077562 
L 327.479736 511.16745 
L 327.684886 512.224155 
L 327.890037 512.442199 
L 328.095187 509.010981 
L 328.915788 478.164343 
L 329.120938 484.241767 
L 329.736388 511.310552 
L 329.941538 512.622232 
L 330.351839 511.066169 
L 330.556989 511.488939 
L 330.762139 512.300371 
L 330.967289 512.64 
L 331.37759 512.134123 
L 331.58274 512.191552 
L 331.99304 512.638081 
L 332.608491 512.407597 
L 333.018791 512.635906 
L 333.839392 512.570797 
L 334.249692 512.624582 
L 334.659993 512.553051 
L 335.480593 512.600093 
L 336.711495 512.602892 
L 339.378447 512.639992 
L 346.558703 512.624064 
L 346.969004 512.589123 
L 347.379304 512.486247 
L 347.789604 512.639253 
L 347.994755 512.489333 
L 348.405055 511.96851 
L 348.815355 512.639045 
L 349.020505 511.816602 
L 349.225656 508.374338 
L 349.841106 490.922172 
L 350.046256 491.61982 
L 350.866857 512.546464 
L 351.072007 512.219271 
L 351.277158 511.306841 
L 351.482308 511.247529 
L 351.892608 512.582 
L 352.097758 512.531045 
L 352.302908 512.128959 
L 352.508059 511.9829 
L 352.918359 512.586841 
L 353.123509 512.598731 
L 353.53381 512.218231 
L 354.14926 512.623389 
L 354.55956 512.326666 
L 355.175011 512.634091 
L 355.585311 512.386482 
L 355.995612 512.573515 
L 356.200762 512.638746 
L 356.816212 512.436343 
L 357.226513 512.639998 
L 357.841963 512.439497 
L 358.252264 512.638729 
L 358.867714 512.436633 
L 359.278015 512.635186 
L 360.098615 512.520381 
L 360.303766 512.629091 
L 360.714066 512.481827 
L 360.919216 512.414589 
L 361.534667 512.617516 
L 361.944967 512.393558 
L 362.560418 512.625124 
L 362.970718 512.362606 
L 363.791319 512.481999 
L 363.996469 512.317532 
L 364.201619 512.354564 
L 364.611919 512.636916 
L 365.22737 512.253829 
L 365.63767 512.639876 
L 366.253121 512.083512 
L 366.663421 512.637582 
L 366.868571 512.427132 
L 367.073722 511.929548 
L 367.278872 511.755897 
L 367.689172 512.619806 
L 367.894322 512.365073 
L 368.304623 510.984847 
L 368.509773 511.587078 
L 368.714923 512.540989 
L 368.920073 512.20397 
L 369.330374 508.285748 
L 369.535524 509.143659 
L 369.740674 512.026977 
L 369.945824 511.417196 
L 370.150974 500.336456 
L 370.766425 428.401504 
L 370.971575 427.421645 
L 371.381875 474.017978 
L 371.792176 510.629703 
L 371.997326 512.393858 
L 372.407626 508.767804 
L 373.023077 512.617637 
L 373.433377 511.341925 
L 373.638527 511.626925 
L 373.843678 512.335563 
L 374.048828 512.639117 
L 374.459128 512.022573 
L 374.664278 512.085769 
L 375.074579 512.639091 
L 375.690029 512.28842 
L 376.10033 512.635651 
L 376.71578 512.395918 
L 377.126081 512.631955 
L 377.946681 512.538161 
L 378.356982 512.622445 
L 378.767282 512.501247 
L 379.382733 512.631408 
L 379.998183 512.561242 
L 380.408484 512.636286 
L 381.023934 512.568171 
L 381.434234 512.638794 
L 382.049685 512.57303 
L 382.665136 512.612622 
L 383.075436 512.576011 
L 383.690886 512.619549 
L 384.306337 512.611466 
L 384.921788 512.587482 
L 386.357839 512.60055 
L 386.768139 512.631516 
L 387.38359 512.590447 
L 387.79389 512.633796 
L 388.409341 512.5722 
L 388.819641 512.635617 
L 389.435092 512.531101 
L 389.845392 512.637108 
L 390.460842 512.390905 
L 390.871143 512.638556 
L 391.076293 512.360079 
L 391.896894 509.231397 
L 392.102044 509.816726 
L 392.717495 512.456081 
L 392.922645 512.637556 
L 393.538095 512.563998 
L 394.153546 512.634207 
L 395.794747 512.636897 
L 404.411055 512.639903 
L 412.206762 512.562837 
L 412.822212 512.161732 
L 413.232513 512.279808 
L 413.847963 512.630932 
L 417.130366 512.639999 
L 461.237656 512.64 
L 496.933788 512.639891 
L 496.933788 512.639891 
" style="fill:none;stroke:#008000;stroke-linecap:square;"/>
   </g>
   <g id="line2d_32">
    <path clip-path="url(#pe1f2c7464f)" d="M 76.786212 512.639877 
L 160.077187 512.592292 
L 160.897788 512.149352 
L 161.308088 512.380216 
L 161.718388 512.619776 
L 162.949289 512.639999 
L 168.283194 512.639912 
L 181.002505 512.510837 
L 181.207656 511.98642 
L 181.823106 509.270496 
L 182.028256 509.354189 
L 182.848857 512.628221 
L 183.464308 512.396545 
L 183.874608 512.631312 
L 185.72096 512.581241 
L 186.13126 512.635372 
L 186.746711 512.58576 
L 187.362161 512.606091 
L 187.977612 512.624153 
L 189.208513 512.639953 
L 190.029114 512.614591 
L 190.644564 512.579571 
L 192.080615 512.597255 
L 192.490916 512.625419 
L 193.106366 512.58335 
L 193.516667 512.627995 
L 194.132117 512.56349 
L 194.542418 512.630644 
L 195.157868 512.534123 
L 195.568168 512.633437 
L 196.183619 512.488677 
L 196.593919 512.636336 
L 197.20937 512.413931 
L 197.61967 512.638972 
L 198.235121 512.280077 
L 198.645421 512.639885 
L 198.850571 512.468826 
L 199.055722 512.112635 
L 199.260872 512.008153 
L 199.671172 512.633263 
L 199.876322 512.389248 
L 200.286623 511.329491 
L 200.696923 512.59 
L 200.902073 512.183116 
L 201.312374 508.801343 
L 201.517524 509.711303 
L 201.722674 512.245894 
L 201.927824 511.123423 
L 202.132974 499.726067 
L 202.748425 428.243307 
L 202.953575 427.462204 
L 203.363875 474.625684 
L 203.774176 510.992313 
L 203.979326 512.203864 
L 204.184476 509.338686 
L 204.389626 508.232479 
L 205.005077 512.579328 
L 205.415377 510.990056 
L 205.620527 511.417519 
L 205.825678 512.312446 
L 206.030828 512.631036 
L 206.441128 511.767708 
L 206.646278 511.898405 
L 207.056579 512.639833 
L 207.672029 512.118635 
L 208.08233 512.638355 
L 208.69778 512.239136 
L 209.108081 512.633571 
L 209.313231 512.56156 
L 209.723531 512.312559 
L 210.133832 512.627373 
L 210.338982 512.592361 
L 210.749282 512.360432 
L 211.364733 512.611616 
L 211.775033 512.392902 
L 212.390484 512.624036 
L 212.800784 512.415208 
L 213.416234 512.632068 
L 213.826535 512.430169 
L 214.647136 512.545467 
L 214.852286 512.439229 
L 215.262586 512.578705 
L 215.467736 512.639549 
L 216.083187 512.443533 
L 216.493487 512.63984 
L 217.108938 512.420168 
L 217.519238 512.637587 
L 218.339839 512.503786 
L 218.544989 512.631699 
L 218.750139 512.586756 
L 219.16044 512.325237 
L 219.77589 512.59189 
L 220.18619 512.218504 
L 220.801641 512.594632 
L 221.211941 511.986691 
L 221.417092 512.115279 
L 221.622242 512.517912 
L 221.827392 512.592628 
L 222.237692 511.265281 
L 222.442842 511.284914 
L 222.647993 512.18323 
L 222.853143 512.569954 
L 223.058293 510.369701 
L 223.878894 490.850031 
L 224.084044 495.052616 
L 224.494344 508.20442 
L 224.699495 511.749611 
L 224.904645 512.639976 
L 225.314945 511.969728 
L 225.520095 512.13748 
L 225.930396 512.638556 
L 226.545846 512.502746 
L 226.956147 512.63819 
L 228.597348 512.625015 
L 231.879751 512.639201 
L 239.880608 512.571898 
L 240.290908 512.518695 
L 240.701209 512.636373 
L 241.316659 512.409874 
L 241.72696 512.638484 
L 242.34241 512.132688 
L 242.752711 512.639951 
L 242.957861 512.308216 
L 243.368161 511.065722 
L 243.778462 512.618889 
L 243.983612 511.347129 
L 244.188762 505.491059 
L 244.804212 478.186383 
L 245.009363 480.167696 
L 245.829963 512.430787 
L 246.035114 512.234334 
L 246.240264 511.174674 
L 246.445414 511.073061 
L 246.855714 512.553642 
L 247.060864 512.561701 
L 247.471165 512.059146 
L 248.086615 512.618261 
L 248.496916 512.345616 
L 249.112366 512.633925 
L 249.522667 512.468042 
L 250.343267 512.587061 
L 250.753568 512.547623 
L 251.163868 512.639952 
L 251.984469 512.614556 
L 252.599919 512.594143 
L 261.421377 512.624327 
L 262.036828 512.577679 
L 262.447128 512.580708 
L 262.857429 512.603933 
L 263.267729 512.332271 
L 263.883179 512.546546 
L 264.29348 511.347907 
L 264.49863 511.462868 
L 264.70378 512.382361 
L 264.90893 512.250205 
L 265.114081 507.830687 
L 265.524381 482.001831 
L 265.729531 468.791063 
L 265.934681 464.432114 
L 266.139832 471.709796 
L 266.755282 510.956782 
L 266.960432 512.490803 
L 267.370733 509.145208 
L 267.575883 510.183791 
L 267.781033 512.002167 
L 267.986183 512.624678 
L 268.396484 511.06325 
L 268.601634 511.300858 
L 269.011934 512.639831 
L 269.422234 511.646873 
L 269.627385 511.675333 
L 270.037685 512.636458 
L 270.242835 512.392235 
L 270.447985 511.910085 
L 270.653136 511.843451 
L 271.063436 512.626006 
L 271.268586 512.478213 
L 271.473736 512.054726 
L 271.678886 511.927148 
L 272.089187 512.610356 
L 272.294337 512.531934 
L 272.704637 511.967024 
L 273.114938 512.589127 
L 273.320088 512.568854 
L 273.730388 511.979412 
L 274.345839 512.595762 
L 274.756139 511.9712 
L 274.961289 512.135254 
L 275.16644 512.523012 
L 275.37159 512.615785 
L 275.78189 511.944604 
L 275.98704 512.058051 
L 276.19219 512.471643 
L 276.397341 512.630115 
L 276.807641 511.898723 
L 277.012791 511.953758 
L 277.423092 512.638505 
L 278.038542 511.810773 
L 278.448842 512.63908 
L 278.653993 512.332975 
L 278.859143 511.729332 
L 279.064293 511.60917 
L 279.474593 512.627313 
L 279.679744 512.344091 
L 279.884894 511.582836 
L 280.090044 511.312932 
L 280.500344 512.593336 
L 280.705495 512.352845 
L 281.115795 510.851737 
L 281.526095 512.514762 
L 281.731245 512.359688 
L 282.141546 510.07266 
L 282.346696 510.832727 
L 282.551846 512.335225 
L 282.756996 512.36494 
L 283.167297 508.587697 
L 283.372447 509.395419 
L 283.577597 511.886002 
L 283.782747 512.368825 
L 284.193048 505.14863 
L 284.398198 505.707106 
L 284.603348 510.493084 
L 284.808498 512.3715 
L 285.013648 505.211617 
L 285.218799 493.622584 
L 285.423949 491.076423 
L 285.834249 512.373066 
L 286.039399 481.071328 
L 286.4497 234.517547 
L 286.65485 96.663142 
L 286.86 40.32 
L 287.06515 96.663142 
L 287.680601 481.071328 
L 287.885751 512.373066 
L 288.296051 491.076423 
L 288.501201 493.622584 
L 288.911502 512.3715 
L 289.116652 510.493084 
L 289.321802 505.707106 
L 289.526952 505.14863 
L 289.937253 512.368825 
L 290.142403 511.886002 
L 290.347553 509.395419 
L 290.552703 508.587697 
L 290.963004 512.36494 
L 291.168154 512.335225 
L 291.578454 510.07266 
L 292.193905 512.514762 
L 292.604205 510.851737 
L 292.809355 511.361406 
L 293.014505 512.352845 
L 293.219656 512.593336 
L 293.629956 511.312932 
L 293.835106 511.582836 
L 294.040256 512.344091 
L 294.245407 512.627313 
L 294.655707 511.60917 
L 294.860857 511.729332 
L 295.271158 512.63908 
L 295.886608 511.829637 
L 296.296908 512.638505 
L 296.502059 512.400397 
L 296.707209 511.953758 
L 296.912359 511.898723 
L 297.322659 512.630115 
L 297.52781 512.471643 
L 297.73296 512.058051 
L 297.93811 511.944604 
L 298.34841 512.615785 
L 298.55356 512.523012 
L 298.963861 511.9712 
L 299.374161 512.595762 
L 299.579311 512.56085 
L 299.989612 511.979412 
L 300.605062 512.589127 
L 301.015363 511.967024 
L 301.220513 512.144202 
L 301.425663 512.531934 
L 301.630813 512.610356 
L 302.041114 511.927148 
L 302.246264 512.054726 
L 302.451414 512.478213 
L 302.656564 512.626006 
L 303.066864 511.843451 
L 303.272015 511.910085 
L 303.682315 512.636458 
L 304.297766 511.646873 
L 304.708066 512.639831 
L 304.913216 512.194099 
L 305.118366 511.300858 
L 305.323516 511.06325 
L 305.733817 512.624678 
L 305.938967 512.002167 
L 306.349267 509.145208 
L 306.554418 510.417042 
L 306.759568 512.490803 
L 306.964718 510.956782 
L 307.169868 502.075306 
L 307.785319 464.432114 
L 307.990469 468.791063 
L 308.605919 507.830687 
L 308.81107 512.250205 
L 309.01622 512.382361 
L 309.22137 511.462868 
L 309.42652 511.347907 
L 309.836821 512.546546 
L 310.041971 512.610933 
L 310.452271 512.332271 
L 311.067722 512.635915 
L 311.683172 512.577679 
L 312.298623 512.624327 
L 313.939824 512.638906 
L 321.940681 512.573813 
L 324.402484 512.54305 
L 324.607634 512.633925 
L 324.812784 512.595788 
L 325.223084 512.345616 
L 325.838535 512.582702 
L 326.248835 512.059146 
L 326.453985 512.201114 
L 326.659136 512.561701 
L 326.864286 512.553642 
L 327.274586 511.073061 
L 327.479736 511.174674 
L 327.684886 512.234334 
L 327.890037 512.430787 
L 328.095187 508.952844 
L 328.915788 478.186383 
L 329.120938 484.339426 
L 329.736388 511.347129 
L 329.941538 512.618889 
L 330.351839 511.065722 
L 330.556989 511.498299 
L 330.762139 512.308216 
L 330.967289 512.639951 
L 331.37759 512.132688 
L 331.58274 512.194249 
L 331.99304 512.638484 
L 332.608491 512.40863 
L 333.018791 512.636373 
L 333.839392 512.571898 
L 334.249692 512.623959 
L 334.659993 512.553248 
L 335.480593 512.599602 
L 336.711495 512.602847 
L 339.173297 512.636318 
L 344.917502 512.632793 
L 347.584454 512.57738 
L 347.789604 512.638556 
L 347.994755 512.480259 
L 348.405055 511.969728 
L 348.815355 512.639976 
L 349.020505 511.749611 
L 349.225656 508.20442 
L 349.841106 490.85003 
L 350.046256 491.738391 
L 350.866857 512.569954 
L 351.072007 512.18323 
L 351.277158 511.284914 
L 351.482308 511.265281 
L 351.892608 512.592628 
L 352.097758 512.517912 
L 352.302908 512.115279 
L 352.508059 511.986691 
L 352.918359 512.594632 
L 353.123509 512.591902 
L 353.53381 512.218504 
L 354.14926 512.619268 
L 354.55956 512.325237 
L 355.175011 512.631699 
L 355.585311 512.384131 
L 356.405912 512.538026 
L 356.611062 512.420168 
L 357.021363 512.570791 
L 357.226513 512.63984 
L 357.841963 512.442881 
L 358.252264 512.639549 
L 358.867714 512.439229 
L 359.278015 512.637021 
L 360.098615 512.527468 
L 360.303766 512.632068 
L 360.714066 512.474833 
L 360.919216 512.415208 
L 361.534667 512.612225 
L 361.944967 512.392902 
L 362.560418 512.620259 
L 362.970718 512.360432 
L 363.586168 512.627373 
L 363.996469 512.312559 
L 364.201619 512.364533 
L 364.611919 512.633571 
L 365.02222 512.239136 
L 365.22737 512.264718 
L 365.63767 512.638355 
L 366.253121 512.095136 
L 366.663421 512.639833 
L 366.868571 512.394811 
L 367.073722 511.898405 
L 367.278872 511.767708 
L 367.689172 512.631036 
L 367.894322 512.312446 
L 368.304623 510.990055 
L 368.714923 512.579328 
L 368.920073 512.095713 
L 369.330374 508.232479 
L 369.535524 509.338686 
L 369.740674 512.203864 
L 369.945824 510.992313 
L 370.150974 498.865822 
L 370.766425 427.462204 
L 370.971575 428.243307 
L 371.381875 476.337023 
L 371.792176 511.123423 
L 371.997326 512.245894 
L 372.202476 509.711303 
L 372.407626 508.801343 
L 373.023077 512.59 
L 373.433377 511.329491 
L 373.638527 511.686746 
L 373.843678 512.389248 
L 374.048828 512.633263 
L 374.459128 512.008153 
L 374.664278 512.112635 
L 375.074579 512.639885 
L 375.690029 512.301892 
L 376.10033 512.638972 
L 376.71578 512.402933 
L 377.126081 512.636336 
L 377.946681 512.549572 
L 378.356982 512.615692 
L 378.767282 512.502514 
L 379.382733 512.626793 
L 379.793033 512.52919 
L 380.613634 512.58335 
L 381.023934 512.573692 
L 381.434234 512.636931 
L 382.049685 512.577408 
L 382.665136 512.607253 
L 383.075436 512.579571 
L 383.690886 512.614591 
L 384.306337 512.616522 
L 384.921788 512.58361 
L 387.38359 512.596546 
L 387.79389 512.629453 
L 388.409341 512.579289 
L 388.819641 512.630909 
L 389.435092 512.540316 
L 389.845392 512.631312 
L 390.460842 512.404151 
L 390.871143 512.628221 
L 391.076293 512.264676 
L 391.691744 509.354189 
L 391.896894 509.270496 
L 392.307194 511.03925 
L 392.717495 512.510837 
L 392.922645 512.639997 
L 393.538095 512.571315 
L 394.153546 512.631779 
L 395.794747 512.637506 
L 405.641956 512.639823 
L 412.206762 512.530746 
L 412.822212 512.149352 
L 413.232513 512.321647 
L 413.642813 512.592292 
L 414.258264 512.622379 
L 439.491736 512.639721 
L 496.933788 512.639877 
L 496.933788 512.639877 
" style="fill:none;stroke:#ff0000;stroke-linecap:square;"/>
   </g>
   <g id="patch_3">
    <path d="M 76.8375 512.64 
L 76.8375 40.32 
" style="fill:none;stroke:#000000;stroke-linecap:square;stroke-linejoin:miter;stroke-width:0.8;"/>
   </g>
   <g id="patch_4">
    <path d="M 496.8825 512.64 
L 496.8825 40.32 
" style="fill:none;stroke:#000000;stroke-linecap:square;stroke-linejoin:miter;stroke-width:0.8;"/>
   </g>
   <g id="patch_5">
    <path d="M 76.8375 512.64 
L 496.8825 512.64 
" style="fill:none;stroke:#000000;stroke-linecap:square;stroke-linejoin:miter;stroke-width:0.8;"/>
   </g>
   <g id="patch_6">
    <path d="M 76.8375 40.32 
L 496.8825 40.32 
" style="fill:none;stroke:#000000;stroke-linecap:square;stroke-linejoin:miter;stroke-width:0.8;"/>
   </g>
   <g id="legend_1">
    <g id="patch_7">
     <path d="M 309.091875 115.0325 
L 482.8825 115.0325 
Q 486.8825 115.0325 486.8825 111.0325 
L 486.8825 54.32 
Q 486.8825 50.32 482.8825 50.32 
L 309.091875 50.32 
Q 305.091875 50.32 305.091875 54.32 
L 305.091875 111.0325 
Q 305.091875 115.0325 309.091875 115.0325 
z
" style="fill:#ffffff;opacity:0.8;stroke:#cccccc;stroke-linejoin:miter;"/>
    </g>
    <g id="line2d_33">
     <path d="M 313.091875 66.516875 
L 353.091875 66.516875 
" style="fill:none;stroke:#008000;stroke-linecap:square;"/>
    </g>
    <g id="line2d_34"/>
    <g id="text_18">
     <!-- Greens -->
     <defs>
      <path d="M 59.515625 10.40625 
L 59.515625 29.984375 
L 43.40625 29.984375 
L 43.40625 38.09375 
L 69.28125 38.09375 
L 69.28125 6.78125 
Q 63.578125 2.734375 56.6875 0.65625 
Q 49.8125 -1.421875 42 -1.421875 
Q 24.90625 -1.421875 15.25 8.5625 
Q 5.609375 18.5625 5.609375 36.375 
Q 5.609375 54.25 15.25 64.234375 
Q 24.90625 74.21875 42 74.21875 
Q 49.125 74.21875 55.546875 72.453125 
Q 61.96875 70.703125 67.390625 67.28125 
L 67.390625 56.78125 
Q 61.921875 61.421875 55.765625 63.765625 
Q 49.609375 66.109375 42.828125 66.109375 
Q 29.4375 66.109375 22.71875 58.640625 
Q 16.015625 51.171875 16.015625 36.375 
Q 16.015625 21.625 22.71875 14.15625 
Q 29.4375 6.6875 42.828125 6.6875 
Q 48.046875 6.6875 52.140625 7.59375 
Q 56.25 8.5 59.515625 10.40625 
z
" id="DejaVuSans-71"/>
      <path d="M 41.109375 46.296875 
Q 39.59375 47.171875 37.8125 47.578125 
Q 36.03125 48 33.890625 48 
Q 26.265625 48 22.1875 43.046875 
Q 18.109375 38.09375 18.109375 28.8125 
L 18.109375 0 
L 9.078125 0 
L 9.078125 54.6875 
L 18.109375 54.6875 
L 18.109375 46.1875 
Q 20.953125 51.171875 25.484375 53.578125 
Q 30.03125 56 36.53125 56 
Q 37.453125 56 38.578125 55.875 
Q 39.703125 55.765625 41.0625 55.515625 
z
" id="DejaVuSans-114"/>
      <path d="M 56.203125 29.59375 
L 56.203125 25.203125 
L 14.890625 25.203125 
Q 15.484375 15.921875 20.484375 11.0625 
Q 25.484375 6.203125 34.421875 6.203125 
Q 39.59375 6.203125 44.453125 7.46875 
Q 49.3125 8.734375 54.109375 11.28125 
L 54.109375 2.78125 
Q 49.265625 0.734375 44.1875 -0.34375 
Q 39.109375 -1.421875 33.890625 -1.421875 
Q 20.796875 -1.421875 13.15625 6.1875 
Q 5.515625 13.8125 5.515625 26.8125 
Q 5.515625 40.234375 12.765625 48.109375 
Q 20.015625 56 32.328125 56 
Q 43.359375 56 49.78125 48.890625 
Q 56.203125 41.796875 56.203125 29.59375 
z
M 47.21875 32.234375 
Q 47.125 39.59375 43.09375 43.984375 
Q 39.0625 48.390625 32.421875 48.390625 
Q 24.90625 48.390625 20.390625 44.140625 
Q 15.875 39.890625 15.1875 32.171875 
z
" id="DejaVuSans-101"/>
      <path d="M 54.890625 33.015625 
L 54.890625 0 
L 45.90625 0 
L 45.90625 32.71875 
Q 45.90625 40.484375 42.875 44.328125 
Q 39.84375 48.1875 33.796875 48.1875 
Q 26.515625 48.1875 22.3125 43.546875 
Q 18.109375 38.921875 18.109375 30.90625 
L 18.109375 0 
L 9.078125 0 
L 9.078125 54.6875 
L 18.109375 54.6875 
L 18.109375 46.1875 
Q 21.34375 51.125 25.703125 53.5625 
Q 30.078125 56 35.796875 56 
Q 45.21875 56 50.046875 50.171875 
Q 54.890625 44.34375 54.890625 33.015625 
z
" id="DejaVuSans-110"/>
      <path d="M 44.28125 53.078125 
L 44.28125 44.578125 
Q 40.484375 46.53125 36.375 47.5 
Q 32.28125 48.484375 27.875 48.484375 
Q 21.1875 48.484375 17.84375 46.4375 
Q 14.5 44.390625 14.5 40.28125 
Q 14.5 37.15625 16.890625 35.375 
Q 19.28125 33.59375 26.515625 31.984375 
L 29.59375 31.296875 
Q 39.15625 29.25 43.1875 25.515625 
Q 47.21875 21.78125 47.21875 15.09375 
Q 47.21875 7.46875 41.1875 3.015625 
Q 35.15625 -1.421875 24.609375 -1.421875 
Q 20.21875 -1.421875 15.453125 -0.5625 
Q 10.6875 0.296875 5.421875 2 
L 5.421875 11.28125 
Q 10.40625 8.6875 15.234375 7.390625 
Q 20.0625 6.109375 24.8125 6.109375 
Q 31.15625 6.109375 34.5625 8.28125 
Q 37.984375 10.453125 37.984375 14.40625 
Q 37.984375 18.0625 35.515625 20.015625 
Q 33.0625 21.96875 24.703125 23.78125 
L 21.578125 24.515625 
Q 13.234375 26.265625 9.515625 29.90625 
Q 5.8125 33.546875 5.8125 39.890625 
Q 5.8125 47.609375 11.28125 51.796875 
Q 16.75 56 26.8125 56 
Q 31.78125 56 36.171875 55.265625 
Q 40.578125 54.546875 44.28125 53.078125 
z
" id="DejaVuSans-115"/>
     </defs>
     <g transform="translate(369.091875 73.516875)scale(0.2 -0.2)">
      <use xlink:href="#DejaVuSans-71"/>
      <use x="77.490234" xlink:href="#DejaVuSans-114"/>
      <use x="118.572266" xlink:href="#DejaVuSans-101"/>
      <use x="180.095703" xlink:href="#DejaVuSans-101"/>
      <use x="241.619141" xlink:href="#DejaVuSans-110"/>
      <use x="304.998047" xlink:href="#DejaVuSans-115"/>
     </g>
    </g>
    <g id="line2d_35">
     <path d="M 313.091875 95.873125 
L 353.091875 95.873125 
" style="fill:none;stroke:#ff0000;stroke-linecap:square;"/>
    </g>
    <g id="line2d_36"/>
    <g id="text_19">
     <!-- Fraunhofer -->
     <defs>
      <path d="M 9.8125 72.90625 
L 51.703125 72.90625 
L 51.703125 64.59375 
L 19.671875 64.59375 
L 19.671875 43.109375 
L 48.578125 43.109375 
L 48.578125 34.8125 
L 19.671875 34.8125 
L 19.671875 0 
L 9.8125 0 
z
" id="DejaVuSans-70"/>
      <path d="M 34.28125 27.484375 
Q 23.390625 27.484375 19.1875 25 
Q 14.984375 22.515625 14.984375 16.5 
Q 14.984375 11.71875 18.140625 8.90625 
Q 21.296875 6.109375 26.703125 6.109375 
Q 34.1875 6.109375 38.703125 11.40625 
Q 43.21875 16.703125 43.21875 25.484375 
L 43.21875 27.484375 
z
M 52.203125 31.203125 
L 52.203125 0 
L 43.21875 0 
L 43.21875 8.296875 
Q 40.140625 3.328125 35.546875 0.953125 
Q 30.953125 -1.421875 24.3125 -1.421875 
Q 15.921875 -1.421875 10.953125 3.296875 
Q 6 8.015625 6 15.921875 
Q 6 25.140625 12.171875 29.828125 
Q 18.359375 34.515625 30.609375 34.515625 
L 43.21875 34.515625 
L 43.21875 35.40625 
Q 43.21875 41.609375 39.140625 45 
Q 35.0625 48.390625 27.6875 48.390625 
Q 23 48.390625 18.546875 47.265625 
Q 14.109375 46.140625 10.015625 43.890625 
L 10.015625 52.203125 
Q 14.9375 54.109375 19.578125 55.046875 
Q 24.21875 56 28.609375 56 
Q 40.484375 56 46.34375 49.84375 
Q 52.203125 43.703125 52.203125 31.203125 
z
" id="DejaVuSans-97"/>
      <path d="M 8.5 21.578125 
L 8.5 54.6875 
L 17.484375 54.6875 
L 17.484375 21.921875 
Q 17.484375 14.15625 20.5 10.265625 
Q 23.53125 6.390625 29.59375 6.390625 
Q 36.859375 6.390625 41.078125 11.03125 
Q 45.3125 15.671875 45.3125 23.6875 
L 45.3125 54.6875 
L 54.296875 54.6875 
L 54.296875 0 
L 45.3125 0 
L 45.3125 8.40625 
Q 42.046875 3.421875 37.71875 1 
Q 33.40625 -1.421875 27.6875 -1.421875 
Q 18.265625 -1.421875 13.375 4.4375 
Q 8.5 10.296875 8.5 21.578125 
z
M 31.109375 56 
z
" id="DejaVuSans-117"/>
      <path d="M 54.890625 33.015625 
L 54.890625 0 
L 45.90625 0 
L 45.90625 32.71875 
Q 45.90625 40.484375 42.875 44.328125 
Q 39.84375 48.1875 33.796875 48.1875 
Q 26.515625 48.1875 22.3125 43.546875 
Q 18.109375 38.921875 18.109375 30.90625 
L 18.109375 0 
L 9.078125 0 
L 9.078125 75.984375 
L 18.109375 75.984375 
L 18.109375 46.1875 
Q 21.34375 51.125 25.703125 53.5625 
Q 30.078125 56 35.796875 56 
Q 45.21875 56 50.046875 50.171875 
Q 54.890625 44.34375 54.890625 33.015625 
z
" id="DejaVuSans-104"/>
      <path d="M 30.609375 48.390625 
Q 23.390625 48.390625 19.1875 42.75 
Q 14.984375 37.109375 14.984375 27.296875 
Q 14.984375 17.484375 19.15625 11.84375 
Q 23.34375 6.203125 30.609375 6.203125 
Q 37.796875 6.203125 41.984375 11.859375 
Q 46.1875 17.53125 46.1875 27.296875 
Q 46.1875 37.015625 41.984375 42.703125 
Q 37.796875 48.390625 30.609375 48.390625 
z
M 30.609375 56 
Q 42.328125 56 49.015625 48.375 
Q 55.71875 40.765625 55.71875 27.296875 
Q 55.71875 13.875 49.015625 6.21875 
Q 42.328125 -1.421875 30.609375 -1.421875 
Q 18.84375 -1.421875 12.171875 6.21875 
Q 5.515625 13.875 5.515625 27.296875 
Q 5.515625 40.765625 12.171875 48.375 
Q 18.84375 56 30.609375 56 
z
" id="DejaVuSans-111"/>
      <path d="M 37.109375 75.984375 
L 37.109375 68.5 
L 28.515625 68.5 
Q 23.6875 68.5 21.796875 66.546875 
Q 19.921875 64.59375 19.921875 59.515625 
L 19.921875 54.6875 
L 34.71875 54.6875 
L 34.71875 47.703125 
L 19.921875 47.703125 
L 19.921875 0 
L 10.890625 0 
L 10.890625 47.703125 
L 2.296875 47.703125 
L 2.296875 54.6875 
L 10.890625 54.6875 
L 10.890625 58.5 
Q 10.890625 67.625 15.140625 71.796875 
Q 19.390625 75.984375 28.609375 75.984375 
z
" id="DejaVuSans-102"/>
     </defs>
     <g transform="translate(369.091875 102.873125)scale(0.2 -0.2)">
      <use xlink:href="#DejaVuSans-70"/>
      <use x="57.410156" xlink:href="#DejaVuSans-114"/>
      <use x="98.523438" xlink:href="#DejaVuSans-97"/>
      <use x="159.802734" xlink:href="#DejaVuSans-117"/>
      <use x="223.181641" xlink:href="#DejaVuSans-110"/>
      <use x="286.560547" xlink:href="#DejaVuSans-104"/>
      <use x="349.939453" xlink:href="#DejaVuSans-111"/>
      <use x="411.121094" xlink:href="#DejaVuSans-102"/>
      <use x="446.326172" xlink:href="#DejaVuSans-101"/>
      <use x="507.849609" xlink:href="#DejaVuSans-114"/>
     </g>
    </g>
   </g>
  </g>
 </g>
 <defs>
  <clipPath id="pe1f2c7464f">
   <rect height="472.32" width="420.045" x="76.8375" y="40.32"/>
  </clipPath>
 </defs>
</svg>
