<?xml version="1.0" encoding="utf-8" standalone="no"?>
<!DOCTYPE svg PUBLIC "-//W3C//DTD SVG 1.1//EN"
  "http://www.w3.org/Graphics/SVG/1.1/DTD/svg11.dtd">
<!-- Created with matplotlib (https://matplotlib.org/) -->
<svg height="576pt" version="1.1" viewBox="0 0 512.25 576" width="512.25pt" xmlns="http://www.w3.org/2000/svg" xmlns:xlink="http://www.w3.org/1999/xlink">
 <metadata>
  <rdf:RDF xmlns:cc="http://creativecommons.org/ns#" xmlns:dc="http://purl.org/dc/elements/1.1/" xmlns:rdf="http://www.w3.org/1999/02/22-rdf-syntax-ns#">
   <cc:Work>
    <dc:type rdf:resource="http://purl.org/dc/dcmitype/StillImage"/>
    <dc:date>2020-09-03T16:16:46.599957</dc:date>
    <dc:format>image/svg+xml</dc:format>
    <dc:creator>
     <cc:Agent>
      <dc:title>Matplotlib v3.3.1, https://matplotlib.org/</dc:title>
     </cc:Agent>
    </dc:creator>
   </cc:Work>
  </rdf:RDF>
 </metadata>
 <defs>
  <style type="text/css">*{stroke-linecap:butt;stroke-linejoin:round;}</style>
 </defs>
 <g id="figure_1">
  <g id="patch_1">
   <path d="M 0 576 
L 512.25 576 
L 512.25 0 
L 0 0 
z
" style="fill:#ffffff;"/>
  </g>
  <g id="axes_1">
   <g id="patch_2">
    <path d="M 76.8375 512.64 
L 496.8825 512.64 
L 496.8825 40.32 
L 76.8375 40.32 
z
" style="fill:#ffffff;"/>
   </g>
   <g id="matplotlib.axis_1">
    <g id="xtick_1">
     <g id="line2d_1">
      <path clip-path="url(#pc2a27085cf)" d="M 76.8375 512.64 
L 76.8375 40.32 
" style="fill:none;stroke:#e6e6e6;stroke-linecap:square;stroke-width:0.8;"/>
     </g>
     <g id="line2d_2">
      <defs>
       <path d="M 0 0 
L 0 -3.5 
" id="m914361dd1c" style="stroke:#000000;stroke-width:0.8;"/>
      </defs>
      <g>
       <use style="stroke:#000000;stroke-width:0.8;" x="76.8375" xlink:href="#m914361dd1c" y="512.64"/>
      </g>
     </g>
     <g id="text_1">
      <!-- 0 -->
      <g transform="translate(72.065625 527.537656)scale(0.15 -0.15)">
       <defs>
        <path d="M 31.78125 66.40625 
Q 24.171875 66.40625 20.328125 58.90625 
Q 16.5 51.421875 16.5 36.375 
Q 16.5 21.390625 20.328125 13.890625 
Q 24.171875 6.390625 31.78125 6.390625 
Q 39.453125 6.390625 43.28125 13.890625 
Q 47.125 21.390625 47.125 36.375 
Q 47.125 51.421875 43.28125 58.90625 
Q 39.453125 66.40625 31.78125 66.40625 
z
M 31.78125 74.21875 
Q 44.046875 74.21875 50.515625 64.515625 
Q 56.984375 54.828125 56.984375 36.375 
Q 56.984375 17.96875 50.515625 8.265625 
Q 44.046875 -1.421875 31.78125 -1.421875 
Q 19.53125 -1.421875 13.0625 8.265625 
Q 6.59375 17.96875 6.59375 36.375 
Q 6.59375 54.828125 13.0625 64.515625 
Q 19.53125 74.21875 31.78125 74.21875 
z
" id="DejaVuSans-48"/>
       </defs>
       <use xlink:href="#DejaVuSans-48"/>
      </g>
     </g>
    </g>
    <g id="xtick_2">
     <g id="line2d_3">
      <path clip-path="url(#pc2a27085cf)" d="M 129.343125 512.64 
L 129.343125 40.32 
" style="fill:none;stroke:#e6e6e6;stroke-linecap:square;stroke-width:0.8;"/>
     </g>
     <g id="line2d_4">
      <g>
       <use style="stroke:#000000;stroke-width:0.8;" x="129.343125" xlink:href="#m914361dd1c" y="512.64"/>
      </g>
     </g>
     <g id="text_2">
      <!-- 25 -->
      <g transform="translate(119.799375 527.537656)scale(0.15 -0.15)">
       <defs>
        <path d="M 19.1875 8.296875 
L 53.609375 8.296875 
L 53.609375 0 
L 7.328125 0 
L 7.328125 8.296875 
Q 12.9375 14.109375 22.625 23.890625 
Q 32.328125 33.6875 34.8125 36.53125 
Q 39.546875 41.84375 41.421875 45.53125 
Q 43.3125 49.21875 43.3125 52.78125 
Q 43.3125 58.59375 39.234375 62.25 
Q 35.15625 65.921875 28.609375 65.921875 
Q 23.96875 65.921875 18.8125 64.3125 
Q 13.671875 62.703125 7.8125 59.421875 
L 7.8125 69.390625 
Q 13.765625 71.78125 18.9375 73 
Q 24.125 74.21875 28.421875 74.21875 
Q 39.75 74.21875 46.484375 68.546875 
Q 53.21875 62.890625 53.21875 53.421875 
Q 53.21875 48.921875 51.53125 44.890625 
Q 49.859375 40.875 45.40625 35.40625 
Q 44.1875 33.984375 37.640625 27.21875 
Q 31.109375 20.453125 19.1875 8.296875 
z
" id="DejaVuSans-50"/>
        <path d="M 10.796875 72.90625 
L 49.515625 72.90625 
L 49.515625 64.59375 
L 19.828125 64.59375 
L 19.828125 46.734375 
Q 21.96875 47.46875 24.109375 47.828125 
Q 26.265625 48.1875 28.421875 48.1875 
Q 40.625 48.1875 47.75 41.5 
Q 54.890625 34.8125 54.890625 23.390625 
Q 54.890625 11.625 47.5625 5.09375 
Q 40.234375 -1.421875 26.90625 -1.421875 
Q 22.3125 -1.421875 17.546875 -0.640625 
Q 12.796875 0.140625 7.71875 1.703125 
L 7.71875 11.625 
Q 12.109375 9.234375 16.796875 8.0625 
Q 21.484375 6.890625 26.703125 6.890625 
Q 35.15625 6.890625 40.078125 11.328125 
Q 45.015625 15.765625 45.015625 23.390625 
Q 45.015625 31 40.078125 35.4375 
Q 35.15625 39.890625 26.703125 39.890625 
Q 22.75 39.890625 18.8125 39.015625 
Q 14.890625 38.140625 10.796875 36.28125 
z
" id="DejaVuSans-53"/>
       </defs>
       <use xlink:href="#DejaVuSans-50"/>
       <use x="63.623047" xlink:href="#DejaVuSans-53"/>
      </g>
     </g>
    </g>
    <g id="xtick_3">
     <g id="line2d_5">
      <path clip-path="url(#pc2a27085cf)" d="M 181.84875 512.64 
L 181.84875 40.32 
" style="fill:none;stroke:#e6e6e6;stroke-linecap:square;stroke-width:0.8;"/>
     </g>
     <g id="line2d_6">
      <g>
       <use style="stroke:#000000;stroke-width:0.8;" x="181.84875" xlink:href="#m914361dd1c" y="512.64"/>
      </g>
     </g>
     <g id="text_3">
      <!-- 50 -->
      <g transform="translate(172.305 527.537656)scale(0.15 -0.15)">
       <use xlink:href="#DejaVuSans-53"/>
       <use x="63.623047" xlink:href="#DejaVuSans-48"/>
      </g>
     </g>
    </g>
    <g id="xtick_4">
     <g id="line2d_7">
      <path clip-path="url(#pc2a27085cf)" d="M 234.354375 512.64 
L 234.354375 40.32 
" style="fill:none;stroke:#e6e6e6;stroke-linecap:square;stroke-width:0.8;"/>
     </g>
     <g id="line2d_8">
      <g>
       <use style="stroke:#000000;stroke-width:0.8;" x="234.354375" xlink:href="#m914361dd1c" y="512.64"/>
      </g>
     </g>
     <g id="text_4">
      <!-- 75 -->
      <g transform="translate(224.810625 527.537656)scale(0.15 -0.15)">
       <defs>
        <path d="M 8.203125 72.90625 
L 55.078125 72.90625 
L 55.078125 68.703125 
L 28.609375 0 
L 18.3125 0 
L 43.21875 64.59375 
L 8.203125 64.59375 
z
" id="DejaVuSans-55"/>
       </defs>
       <use xlink:href="#DejaVuSans-55"/>
       <use x="63.623047" xlink:href="#DejaVuSans-53"/>
      </g>
     </g>
    </g>
    <g id="xtick_5">
     <g id="line2d_9">
      <path clip-path="url(#pc2a27085cf)" d="M 286.86 512.64 
L 286.86 40.32 
" style="fill:none;stroke:#e6e6e6;stroke-linecap:square;stroke-width:0.8;"/>
     </g>
     <g id="line2d_10">
      <g>
       <use style="stroke:#000000;stroke-width:0.8;" x="286.86" xlink:href="#m914361dd1c" y="512.64"/>
      </g>
     </g>
     <g id="text_5">
      <!-- 100 -->
      <g transform="translate(272.544375 527.537656)scale(0.15 -0.15)">
       <defs>
        <path d="M 12.40625 8.296875 
L 28.515625 8.296875 
L 28.515625 63.921875 
L 10.984375 60.40625 
L 10.984375 69.390625 
L 28.421875 72.90625 
L 38.28125 72.90625 
L 38.28125 8.296875 
L 54.390625 8.296875 
L 54.390625 0 
L 12.40625 0 
z
" id="DejaVuSans-49"/>
       </defs>
       <use xlink:href="#DejaVuSans-49"/>
       <use x="63.623047" xlink:href="#DejaVuSans-48"/>
       <use x="127.246094" xlink:href="#DejaVuSans-48"/>
      </g>
     </g>
    </g>
    <g id="xtick_6">
     <g id="line2d_11">
      <path clip-path="url(#pc2a27085cf)" d="M 339.365625 512.64 
L 339.365625 40.32 
" style="fill:none;stroke:#e6e6e6;stroke-linecap:square;stroke-width:0.8;"/>
     </g>
     <g id="line2d_12">
      <g>
       <use style="stroke:#000000;stroke-width:0.8;" x="339.365625" xlink:href="#m914361dd1c" y="512.64"/>
      </g>
     </g>
     <g id="text_6">
      <!-- 125 -->
      <g transform="translate(325.05 527.537656)scale(0.15 -0.15)">
       <use xlink:href="#DejaVuSans-49"/>
       <use x="63.623047" xlink:href="#DejaVuSans-50"/>
       <use x="127.246094" xlink:href="#DejaVuSans-53"/>
      </g>
     </g>
    </g>
    <g id="xtick_7">
     <g id="line2d_13">
      <path clip-path="url(#pc2a27085cf)" d="M 391.87125 512.64 
L 391.87125 40.32 
" style="fill:none;stroke:#e6e6e6;stroke-linecap:square;stroke-width:0.8;"/>
     </g>
     <g id="line2d_14">
      <g>
       <use style="stroke:#000000;stroke-width:0.8;" x="391.87125" xlink:href="#m914361dd1c" y="512.64"/>
      </g>
     </g>
     <g id="text_7">
      <!-- 150 -->
      <g transform="translate(377.555625 527.537656)scale(0.15 -0.15)">
       <use xlink:href="#DejaVuSans-49"/>
       <use x="63.623047" xlink:href="#DejaVuSans-53"/>
       <use x="127.246094" xlink:href="#DejaVuSans-48"/>
      </g>
     </g>
    </g>
    <g id="xtick_8">
     <g id="line2d_15">
      <path clip-path="url(#pc2a27085cf)" d="M 444.376875 512.64 
L 444.376875 40.32 
" style="fill:none;stroke:#e6e6e6;stroke-linecap:square;stroke-width:0.8;"/>
     </g>
     <g id="line2d_16">
      <g>
       <use style="stroke:#000000;stroke-width:0.8;" x="444.376875" xlink:href="#m914361dd1c" y="512.64"/>
      </g>
     </g>
     <g id="text_8">
      <!-- 175 -->
      <g transform="translate(430.06125 527.537656)scale(0.15 -0.15)">
       <use xlink:href="#DejaVuSans-49"/>
       <use x="63.623047" xlink:href="#DejaVuSans-55"/>
       <use x="127.246094" xlink:href="#DejaVuSans-53"/>
      </g>
     </g>
    </g>
    <g id="xtick_9">
     <g id="line2d_17">
      <path clip-path="url(#pc2a27085cf)" d="M 496.8825 512.64 
L 496.8825 40.32 
" style="fill:none;stroke:#e6e6e6;stroke-linecap:square;stroke-width:0.8;"/>
     </g>
     <g id="line2d_18">
      <g>
       <use style="stroke:#000000;stroke-width:0.8;" x="496.8825" xlink:href="#m914361dd1c" y="512.64"/>
      </g>
     </g>
     <g id="text_9">
      <!-- 200 -->
      <g transform="translate(482.566875 527.537656)scale(0.15 -0.15)">
       <use xlink:href="#DejaVuSans-50"/>
       <use x="63.623047" xlink:href="#DejaVuSans-48"/>
       <use x="127.246094" xlink:href="#DejaVuSans-48"/>
      </g>
     </g>
    </g>
    <g id="text_10">
     <!-- $z(\AA)$ -->
     <g transform="translate(261.985 556.207969)scale(0.25 -0.25)">
      <defs>
       <path d="M 11.625 54.6875 
L 54.296875 54.6875 
L 52.6875 46.484375 
L 11.53125 7.171875 
L 45.515625 7.171875 
L 44.09375 0 
L -0.296875 0 
L 1.3125 8.203125 
L 42.484375 47.515625 
L 10.203125 47.515625 
z
" id="DejaVuSans-Oblique-122"/>
       <path d="M 31 75.875 
Q 24.46875 64.65625 21.28125 53.65625 
Q 18.109375 42.671875 18.109375 31.390625 
Q 18.109375 20.125 21.3125 9.0625 
Q 24.515625 -2 31 -13.1875 
L 23.1875 -13.1875 
Q 15.875 -1.703125 12.234375 9.375 
Q 8.59375 20.453125 8.59375 31.390625 
Q 8.59375 42.28125 12.203125 53.3125 
Q 15.828125 64.359375 23.1875 75.875 
z
" id="DejaVuSans-40"/>
       <path d="M 49.8125 79.390625 
Q 49.8125 82.46875 47.625 84.640625 
Q 45.453125 86.8125 42.390625 86.8125 
Q 39.265625 86.8125 37.140625 84.6875 
Q 35.015625 82.5625 35.015625 79.390625 
Q 35.015625 76.3125 37.140625 74.15625 
Q 39.265625 72.015625 42.390625 72.015625 
Q 45.453125 72.015625 47.625 74.15625 
Q 49.8125 76.3125 49.8125 79.390625 
z
M 34.421875 68.703125 
Q 31.78125 70.515625 30.390625 73.265625 
Q 29 76.03125 29 79.390625 
Q 29 84.96875 32.90625 88.890625 
Q 36.8125 92.828125 42.390625 92.828125 
Q 47.953125 92.828125 51.875 88.890625 
Q 55.8125 84.96875 55.8125 79.390625 
Q 55.8125 75.53125 54.03125 72.546875 
Q 52.25 69.578125 48.875 67.828125 
L 61.53125 0 
L 51.21875 0 
L 48.1875 18.703125 
L 15.375 18.703125 
L 5.078125 0 
L -5.328125 0 
z
M 40.375 63.1875 
L 19.921875 26.90625 
L 46.6875 26.90625 
z
" id="DejaVuSans-Oblique-197"/>
       <path d="M 8.015625 75.875 
L 15.828125 75.875 
Q 23.140625 64.359375 26.78125 53.3125 
Q 30.421875 42.28125 30.421875 31.390625 
Q 30.421875 20.453125 26.78125 9.375 
Q 23.140625 -1.703125 15.828125 -13.1875 
L 8.015625 -13.1875 
Q 14.5 -2 17.703125 9.0625 
Q 20.90625 20.125 20.90625 31.390625 
Q 20.90625 42.671875 17.703125 53.65625 
Q 14.5 64.65625 8.015625 75.875 
z
" id="DejaVuSans-41"/>
      </defs>
      <use transform="translate(0 0.171875)" xlink:href="#DejaVuSans-Oblique-122"/>
      <use transform="translate(52.490234 0.171875)" xlink:href="#DejaVuSans-40"/>
      <use transform="translate(91.503906 0.171875)" xlink:href="#DejaVuSans-Oblique-197"/>
      <use transform="translate(159.912109 0.171875)" xlink:href="#DejaVuSans-41"/>
     </g>
    </g>
   </g>
   <g id="matplotlib.axis_2">
    <g id="ytick_1">
     <g id="line2d_19">
      <path clip-path="url(#pc2a27085cf)" d="M 76.8375 503.378824 
L 496.8825 503.378824 
" style="fill:none;stroke:#e6e6e6;stroke-linecap:square;stroke-width:0.8;"/>
     </g>
     <g id="line2d_20">
      <defs>
       <path d="M 0 0 
L 3.5 0 
" id="m174d6f5e47" style="stroke:#000000;stroke-width:0.8;"/>
      </defs>
      <g>
       <use style="stroke:#000000;stroke-width:0.8;" x="76.8375" xlink:href="#m174d6f5e47" y="503.378824"/>
      </g>
     </g>
     <g id="text_11">
      <!-- 0.000 -->
      <g transform="translate(30.395312 509.077652)scale(0.15 -0.15)">
       <defs>
        <path d="M 10.6875 12.40625 
L 21 12.40625 
L 21 0 
L 10.6875 0 
z
" id="DejaVuSans-46"/>
       </defs>
       <use xlink:href="#DejaVuSans-48"/>
       <use x="63.623047" xlink:href="#DejaVuSans-46"/>
       <use x="95.410156" xlink:href="#DejaVuSans-48"/>
       <use x="159.033203" xlink:href="#DejaVuSans-48"/>
       <use x="222.65625" xlink:href="#DejaVuSans-48"/>
      </g>
     </g>
    </g>
    <g id="ytick_2">
     <g id="line2d_21">
      <path clip-path="url(#pc2a27085cf)" d="M 76.8375 410.767059 
L 496.8825 410.767059 
" style="fill:none;stroke:#e6e6e6;stroke-linecap:square;stroke-width:0.8;"/>
     </g>
     <g id="line2d_22">
      <g>
       <use style="stroke:#000000;stroke-width:0.8;" x="76.8375" xlink:href="#m174d6f5e47" y="410.767059"/>
      </g>
     </g>
     <g id="text_12">
      <!-- 0.001 -->
      <g transform="translate(30.395312 416.465887)scale(0.15 -0.15)">
       <use xlink:href="#DejaVuSans-48"/>
       <use x="63.623047" xlink:href="#DejaVuSans-46"/>
       <use x="95.410156" xlink:href="#DejaVuSans-48"/>
       <use x="159.033203" xlink:href="#DejaVuSans-48"/>
       <use x="222.65625" xlink:href="#DejaVuSans-49"/>
      </g>
     </g>
    </g>
    <g id="ytick_3">
     <g id="line2d_23">
      <path clip-path="url(#pc2a27085cf)" d="M 76.8375 318.155294 
L 496.8825 318.155294 
" style="fill:none;stroke:#e6e6e6;stroke-linecap:square;stroke-width:0.8;"/>
     </g>
     <g id="line2d_24">
      <g>
       <use style="stroke:#000000;stroke-width:0.8;" x="76.8375" xlink:href="#m174d6f5e47" y="318.155294"/>
      </g>
     </g>
     <g id="text_13">
      <!-- 0.002 -->
      <g transform="translate(30.395312 323.854122)scale(0.15 -0.15)">
       <use xlink:href="#DejaVuSans-48"/>
       <use x="63.623047" xlink:href="#DejaVuSans-46"/>
       <use x="95.410156" xlink:href="#DejaVuSans-48"/>
       <use x="159.033203" xlink:href="#DejaVuSans-48"/>
       <use x="222.65625" xlink:href="#DejaVuSans-50"/>
      </g>
     </g>
    </g>
    <g id="ytick_4">
     <g id="line2d_25">
      <path clip-path="url(#pc2a27085cf)" d="M 76.8375 225.543529 
L 496.8825 225.543529 
" style="fill:none;stroke:#e6e6e6;stroke-linecap:square;stroke-width:0.8;"/>
     </g>
     <g id="line2d_26">
      <g>
       <use style="stroke:#000000;stroke-width:0.8;" x="76.8375" xlink:href="#m174d6f5e47" y="225.543529"/>
      </g>
     </g>
     <g id="text_14">
      <!-- 0.003 -->
      <g transform="translate(30.395312 231.242358)scale(0.15 -0.15)">
       <defs>
        <path d="M 40.578125 39.3125 
Q 47.65625 37.796875 51.625 33 
Q 55.609375 28.21875 55.609375 21.1875 
Q 55.609375 10.40625 48.1875 4.484375 
Q 40.765625 -1.421875 27.09375 -1.421875 
Q 22.515625 -1.421875 17.65625 -0.515625 
Q 12.796875 0.390625 7.625 2.203125 
L 7.625 11.71875 
Q 11.71875 9.328125 16.59375 8.109375 
Q 21.484375 6.890625 26.8125 6.890625 
Q 36.078125 6.890625 40.9375 10.546875 
Q 45.796875 14.203125 45.796875 21.1875 
Q 45.796875 27.640625 41.28125 31.265625 
Q 36.765625 34.90625 28.71875 34.90625 
L 20.21875 34.90625 
L 20.21875 43.015625 
L 29.109375 43.015625 
Q 36.375 43.015625 40.234375 45.921875 
Q 44.09375 48.828125 44.09375 54.296875 
Q 44.09375 59.90625 40.109375 62.90625 
Q 36.140625 65.921875 28.71875 65.921875 
Q 24.65625 65.921875 20.015625 65.03125 
Q 15.375 64.15625 9.8125 62.3125 
L 9.8125 71.09375 
Q 15.4375 72.65625 20.34375 73.4375 
Q 25.25 74.21875 29.59375 74.21875 
Q 40.828125 74.21875 47.359375 69.109375 
Q 53.90625 64.015625 53.90625 55.328125 
Q 53.90625 49.265625 50.4375 45.09375 
Q 46.96875 40.921875 40.578125 39.3125 
z
" id="DejaVuSans-51"/>
       </defs>
       <use xlink:href="#DejaVuSans-48"/>
       <use x="63.623047" xlink:href="#DejaVuSans-46"/>
       <use x="95.410156" xlink:href="#DejaVuSans-48"/>
       <use x="159.033203" xlink:href="#DejaVuSans-48"/>
       <use x="222.65625" xlink:href="#DejaVuSans-51"/>
      </g>
     </g>
    </g>
    <g id="ytick_5">
     <g id="line2d_27">
      <path clip-path="url(#pc2a27085cf)" d="M 76.8375 132.931765 
L 496.8825 132.931765 
" style="fill:none;stroke:#e6e6e6;stroke-linecap:square;stroke-width:0.8;"/>
     </g>
     <g id="line2d_28">
      <g>
       <use style="stroke:#000000;stroke-width:0.8;" x="76.8375" xlink:href="#m174d6f5e47" y="132.931765"/>
      </g>
     </g>
     <g id="text_15">
      <!-- 0.004 -->
      <g transform="translate(30.395312 138.630593)scale(0.15 -0.15)">
       <defs>
        <path d="M 37.796875 64.3125 
L 12.890625 25.390625 
L 37.796875 25.390625 
z
M 35.203125 72.90625 
L 47.609375 72.90625 
L 47.609375 25.390625 
L 58.015625 25.390625 
L 58.015625 17.1875 
L 47.609375 17.1875 
L 47.609375 0 
L 37.796875 0 
L 37.796875 17.1875 
L 4.890625 17.1875 
L 4.890625 26.703125 
z
" id="DejaVuSans-52"/>
       </defs>
       <use xlink:href="#DejaVuSans-48"/>
       <use x="63.623047" xlink:href="#DejaVuSans-46"/>
       <use x="95.410156" xlink:href="#DejaVuSans-48"/>
       <use x="159.033203" xlink:href="#DejaVuSans-48"/>
       <use x="222.65625" xlink:href="#DejaVuSans-52"/>
      </g>
     </g>
    </g>
    <g id="ytick_6">
     <g id="line2d_29">
      <path clip-path="url(#pc2a27085cf)" d="M 76.8375 40.32 
L 496.8825 40.32 
" style="fill:none;stroke:#e6e6e6;stroke-linecap:square;stroke-width:0.8;"/>
     </g>
     <g id="line2d_30">
      <g>
       <use style="stroke:#000000;stroke-width:0.8;" x="76.8375" xlink:href="#m174d6f5e47" y="40.32"/>
      </g>
     </g>
     <g id="text_16">
      <!-- 0.005 -->
      <g transform="translate(30.395312 46.018828)scale(0.15 -0.15)">
       <use xlink:href="#DejaVuSans-48"/>
       <use x="63.623047" xlink:href="#DejaVuSans-46"/>
       <use x="95.410156" xlink:href="#DejaVuSans-48"/>
       <use x="159.033203" xlink:href="#DejaVuSans-48"/>
       <use x="222.65625" xlink:href="#DejaVuSans-53"/>
      </g>
     </g>
    </g>
    <g id="text_17">
     <!-- $I$ -->
     <g transform="translate(21.196094 280.23)rotate(-90)scale(0.25 -0.25)">
      <defs>
       <path d="M 16.890625 72.90625 
L 26.8125 72.90625 
L 12.59375 0 
L 2.6875 0 
z
" id="DejaVuSans-Oblique-73"/>
      </defs>
      <use transform="translate(0 0.09375)" xlink:href="#DejaVuSans-Oblique-73"/>
     </g>
    </g>
   </g>
   <g id="line2d_31">
    <path clip-path="url(#pc2a27085cf)" d="M 78.9482 503.068545 
L 81.0589 502.144975 
L 83.1696 500.626606 
L 85.2803 498.55338 
L 87.391 495.969886 
L 89.5017 492.948486 
L 91.6124 489.555312 
L 95.8338 482.039611 
L 102.1659 470.382153 
L 104.2766 466.772316 
L 106.3873 463.448669 
L 108.498 460.48885 
L 110.6087 457.967185 
L 112.7194 455.948061 
L 114.8301 454.486814 
L 116.9408 453.632368 
L 119.0515 453.40126 
L 121.1622 453.640721 
L 123.2729 454.503989 
L 125.3836 455.971107 
L 127.4943 458.000624 
L 129.605 460.530165 
L 131.7157 463.494012 
L 133.8264 466.82321 
L 138.0478 474.242807 
L 144.3799 485.925596 
L 146.4906 489.581554 
L 148.6013 492.968826 
L 150.712 495.983889 
L 152.8227 498.561412 
L 154.9334 500.629807 
L 157.0441 502.144568 
L 159.1548 503.067219 
L 161.2655 503.378658 
L 163.3762 503.072181 
L 165.4869 502.153678 
L 167.5976 500.643151 
L 169.7083 498.579456 
L 171.819 496.008434 
L 173.9297 493.000916 
L 176.0404 489.623998 
L 180.2618 482.146706 
L 186.5939 470.565153 
L 188.7046 466.981858 
L 190.8153 463.685066 
L 192.926 460.754945 
L 195.0367 458.258298 
L 197.1474 456.260647 
L 199.2581 454.824068 
L 201.3688 453.981074 
L 203.4795 453.766445 
L 205.5902 454.009038 
L 207.7009 454.881503 
L 209.8116 456.342961 
L 211.9223 458.368442 
L 214.033 460.886079 
L 216.1437 463.837426 
L 218.2544 467.143463 
L 222.4758 474.510953 
L 228.8079 486.099509 
L 230.9186 489.718464 
L 233.0293 493.074983 
L 235.14 496.058412 
L 237.2507 498.610481 
L 239.3614 500.656943 
L 241.4721 502.15548 
L 243.5828 503.06792 
L 245.6935 503.376248 
L 247.8042 503.07384 
L 249.9149 502.165231 
L 252.0256 500.671317 
L 254.1363 498.629863 
L 256.247 496.087912 
L 258.3577 493.116843 
L 260.4684 489.77728 
L 264.6898 482.391341 
L 271.0219 470.970108 
L 273.1326 467.436398 
L 275.2433 464.195505 
L 277.354 461.310586 
L 279.4647 458.868345 
L 281.5754 456.905086 
L 283.6861 455.510358 
L 285.7968 454.683602 
L 287.9075 454.498293 
L 290.0182 454.73739 
L 292.1289 455.618472 
L 294.2396 457.063952 
L 296.3503 459.07694 
L 298.461 461.563058 
L 300.5717 464.484815 
L 302.6824 467.747651 
L 306.9038 475.011043 
L 313.2359 486.419263 
L 315.3466 489.974353 
L 317.4573 493.272618 
L 319.568 496.201377 
L 321.6787 498.704569 
L 323.7894 500.710907 
L 325.9001 502.177666 
L 328.0108 503.0682 
L 330.1215 503.365779 
L 332.2322 503.064761 
L 334.3429 502.167753 
L 336.4536 500.696369 
L 338.5643 498.688112 
L 340.675 496.188169 
L 342.7857 493.270018 
L 344.8964 489.991212 
L 349.1178 482.745273 
L 355.4499 471.557493 
L 357.5606 468.106936 
L 359.6713 464.941898 
L 361.782 462.132259 
L 363.8927 459.752788 
L 366.0034 457.85305 
L 368.1141 456.502112 
L 370.2248 455.719197 
L 372.3355 455.546563 
L 374.4462 455.812155 
L 376.5569 456.680908 
L 378.6676 458.120466 
L 380.7783 460.097422 
L 382.889 462.551505 
L 384.9997 465.415307 
L 387.1104 468.620511 
L 391.3318 475.737407 
L 397.6639 486.876521 
L 399.7746 490.347572 
L 401.8853 493.555862 
L 403.996 496.407799 
L 406.1067 498.839472 
L 408.2174 500.785212 
L 410.3281 502.203613 
L 412.4388 503.060083 
L 414.5495 503.337891 
L 416.6602 503.034145 
L 418.7709 502.149027 
L 420.8816 500.703542 
L 422.9923 498.736891 
L 425.103 496.293073 
L 427.2137 493.441312 
L 429.3244 490.24569 
L 433.5458 483.18815 
L 439.8779 472.312805 
L 441.9886 468.968836 
L 444.0993 465.903838 
L 446.21 463.193924 
L 448.3207 460.900363 
L 450.4314 459.083955 
L 452.5421 457.791782 
L 454.6528 457.066629 
L 456.7635 456.920606 
L 458.8742 457.207288 
L 460.9849 458.072005 
L 463.0956 459.495928 
L 465.2063 461.435153 
L 467.317 463.836536 
L 469.4277 466.634812 
L 471.5384 469.761282 
L 475.7598 476.683981 
L 482.091901 487.47837 
L 484.202601 490.834812 
L 486.313301 493.929619 
L 488.424001 496.675881 
L 490.534701 499.012309 
L 492.645401 500.876472 
L 494.756101 502.227483 
L 496.866801 503.034146 
L 498.977501 503.279923 
L 498.977501 503.279923 
" style="fill:none;stroke:#08ff00;stroke-linecap:square;stroke-width:2;"/>
   </g>
   <g id="line2d_32">
    <defs>
     <path d="M -2.5 2.5 
L 2.5 2.5 
L 2.5 -2.5 
L -2.5 -2.5 
z
" id="mf4fd3e61e1" style="stroke:#08ff00;stroke-linejoin:miter;"/>
    </defs>
    <g clip-path="url(#pc2a27085cf)">
     <use style="fill:#08ff00;stroke:#08ff00;stroke-linejoin:miter;" x="161.2655" xlink:href="#mf4fd3e61e1" y="503.378658"/>
    </g>
   </g>
   <g id="line2d_33">
    <path clip-path="url(#pc2a27085cf)" d="M 78.9482 502.13779 
L 81.0589 498.441929 
L 83.1696 492.347872 
L 85.2803 484.016808 
L 87.391 473.609505 
L 89.5017 461.424974 
L 91.6124 447.721649 
L 95.8338 417.382413 
L 102.1659 370.390808 
L 104.2766 355.794555 
L 106.3873 342.332358 
L 108.498 330.242882 
L 110.6087 319.873784 
L 112.7194 311.45616 
L 114.8301 305.264153 
L 116.9408 301.531217 
L 119.0515 300.323399 
L 121.1622 301.042302 
L 123.2729 304.301895 
L 125.3836 310.024462 
L 127.4943 318.043296 
L 129.605 328.047202 
L 131.7157 339.795847 
L 133.8264 353.008581 
L 135.9371 367.382391 
L 140.1585 398.312056 
L 144.3799 429.760519 
L 146.4906 444.710271 
L 148.6013 458.652687 
L 150.712 471.151549 
L 152.8227 481.930672 
L 154.9334 490.699809 
L 157.0441 497.27605 
L 159.1548 501.505747 
L 161.2655 503.308044 
L 163.3762 502.653962 
L 165.4869 499.544158 
L 167.5976 494.034608 
L 169.7083 486.264208 
L 171.819 476.391929 
L 173.9297 464.693975 
L 176.0404 451.425794 
L 178.1511 437.014954 
L 188.7046 360.69119 
L 190.8153 347.159752 
L 192.926 334.946593 
L 195.0367 324.359507 
L 197.1474 315.637356 
L 199.2581 309.132724 
L 201.3688 304.947346 
L 203.4795 303.31804 
L 205.5902 303.505379 
L 207.7009 306.298875 
L 209.8116 311.453099 
L 211.9223 318.957352 
L 214.033 328.424931 
L 216.1437 339.697131 
L 218.2544 352.411038 
L 220.3651 366.387489 
L 224.5865 396.641448 
L 230.9186 442.526382 
L 233.0293 456.497518 
L 235.14 469.08722 
L 237.2507 480.070493 
L 239.3614 489.123805 
L 241.4721 496.07108 
L 243.5828 500.747942 
L 245.6935 503.070704 
L 247.8042 503.002378 
L 249.9149 500.517414 
L 252.0256 495.664265 
L 254.1363 488.561415 
L 256.247 479.363304 
L 258.3577 468.340463 
L 260.4684 455.688497 
L 262.5791 441.897504 
L 266.8005 412.088975 
L 271.0219 381.899183 
L 273.1326 367.513636 
L 275.2433 354.156231 
L 277.354 341.959663 
L 279.4647 331.397885 
L 281.5754 322.489297 
L 283.6861 315.814871 
L 285.7968 311.225217 
L 287.9075 309.276872 
L 290.0182 308.892793 
L 292.1289 311.213435 
L 294.2396 315.723342 
L 296.3503 322.640615 
L 298.461 331.415328 
L 300.5717 342.065868 
L 302.6824 354.115534 
L 304.7931 367.487331 
L 309.0145 396.599362 
L 315.3466 441.239479 
L 317.4573 454.999989 
L 319.568 467.478459 
L 321.6787 478.459375 
L 323.7894 487.633636 
L 325.9001 494.811732 
L 328.0108 499.826204 
L 330.1215 502.594591 
L 332.2322 503.081757 
L 334.3429 501.228647 
L 336.4536 497.075348 
L 338.5643 490.724243 
L 340.675 482.307309 
L 342.7857 472.092108 
L 344.8964 460.24997 
L 347.0071 447.23467 
L 351.2285 418.855204 
L 355.4499 389.838281 
L 357.5606 375.939802 
L 359.6713 362.929413 
L 361.782 351.006428 
L 363.8927 340.548943 
L 366.0034 331.700592 
L 368.1141 324.879829 
L 370.2248 320.118641 
L 372.3355 317.723286 
L 374.4462 317.015118 
L 376.5569 318.70778 
L 378.6676 322.65725 
L 380.7783 328.804224 
L 382.889 336.883594 
L 384.9997 346.685312 
L 387.1104 357.953453 
L 389.2211 370.47172 
L 393.4425 398.006714 
L 399.7746 440.806266 
L 401.8853 454.081253 
L 403.996 466.253644 
L 406.1067 477.031507 
L 408.2174 486.144126 
L 410.3281 493.397276 
L 412.4388 498.637051 
L 414.5495 501.757861 
L 416.6602 502.756116 
L 418.7709 501.522444 
L 420.8816 498.088837 
L 422.9923 492.548102 
L 425.103 485.016845 
L 427.2137 475.717932 
L 429.3244 464.858245 
L 431.4351 452.788416 
L 435.6565 426.263993 
L 441.9886 385.659796 
L 444.0993 373.204329 
L 446.21 361.759292 
L 448.3207 351.606947 
L 450.4314 342.988416 
L 452.5421 336.157614 
L 454.6528 331.343251 
L 456.7635 328.629178 
L 458.8742 327.566382 
L 460.9849 328.708131 
L 463.0956 332.031082 
L 465.2063 337.40181 
L 467.317 344.629475 
L 469.4277 353.520618 
L 471.5384 363.848118 
L 473.6491 375.355615 
L 477.870501 400.934537 
L 484.202601 441.159929 
L 486.313301 453.743618 
L 488.424001 465.364395 
L 490.534701 475.724541 
L 492.645401 484.592865 
L 494.756101 491.746248 
L 496.866801 497.066555 
L 498.977501 500.418726 
L 498.977501 500.418726 
" style="fill:none;stroke:#0010ff;stroke-linecap:square;stroke-width:2;"/>
   </g>
   <g id="line2d_34">
    <defs>
     <path d="M -2.5 2.5 
L 2.5 2.5 
L 2.5 -2.5 
L -2.5 -2.5 
z
" id="m494fd3cbec" style="stroke:#0010ff;stroke-linejoin:miter;"/>
    </defs>
    <g clip-path="url(#pc2a27085cf)">
     <use style="fill:#0010ff;stroke:#0010ff;stroke-linejoin:miter;" x="161.2655" xlink:href="#m494fd3cbec" y="503.308044"/>
    </g>
   </g>
   <g id="line2d_35">
    <path clip-path="url(#pc2a27085cf)" d="M 78.9482 500.586796 
L 81.0589 492.267942 
L 83.1696 478.512233 
L 85.2803 459.684702 
L 87.391 436.111427 
L 89.5017 408.483698 
L 91.6124 377.376067 
L 95.8338 308.544837 
L 102.1659 202.132289 
L 104.2766 169.005696 
L 106.3873 138.404931 
L 108.498 110.728456 
L 110.6087 86.846759 
L 112.7194 67.2464 
L 114.8301 52.634777 
L 116.9408 43.644129 
L 119.0515 40.395132 
L 121.1622 41.593668 
L 123.2729 48.59461 
L 125.3836 61.244673 
L 127.4943 79.142559 
L 129.605 101.466414 
L 131.7157 127.705236 
L 133.8264 157.233527 
L 135.9371 189.42647 
L 140.1585 259.037005 
L 144.3799 330.483835 
L 146.4906 364.736504 
L 148.6013 396.845215 
L 150.712 425.786292 
L 152.8227 450.903621 
L 154.9334 471.543005 
L 157.0441 487.282752 
L 159.1548 497.786223 
L 161.2655 502.863146 
L 163.3762 502.455998 
L 165.4869 496.51692 
L 167.5976 485.125832 
L 169.7083 468.562301 
L 171.819 447.136225 
L 173.9297 421.457132 
L 176.0404 392.07518 
L 178.1511 359.99919 
L 182.3725 290.97248 
L 186.5939 221.244537 
L 188.7046 188.004592 
L 190.8153 156.99673 
L 192.926 128.65375 
L 195.0367 103.759926 
L 197.1474 82.791881 
L 199.2581 66.776141 
L 201.3688 55.862031 
L 203.4795 50.795648 
L 205.5902 49.79272 
L 207.7009 54.832723 
L 209.8116 65.160616 
L 211.9223 80.946639 
L 214.033 101.087461 
L 216.1437 125.396556 
L 218.2544 152.94506 
L 220.3651 183.567717 
L 224.5865 250.601163 
L 230.9186 354.603032 
L 233.0293 386.944514 
L 235.14 416.378293 
L 237.2507 442.421589 
L 239.3614 464.30198 
L 241.4721 481.612325 
L 243.5828 493.973462 
L 245.6935 501.179814 
L 247.8042 503.14885 
L 249.9149 499.729443 
L 252.0256 490.962606 
L 254.1363 477.053075 
L 256.247 458.278904 
L 258.3577 435.225586 
L 260.4684 408.234853 
L 262.5791 378.507443 
L 266.8005 313.264197 
L 271.0219 246.018595 
L 273.1326 213.417414 
L 275.2433 182.862901 
L 277.354 154.381218 
L 279.4647 129.320611 
L 281.5754 107.427046 
L 283.6861 90.497235 
L 285.7968 77.843665 
L 287.9075 71.288106 
L 290.0182 67.97781 
L 292.1289 71.006537 
L 294.2396 78.75907 
L 296.3503 92.15125 
L 298.461 109.563035 
L 300.5717 131.402788 
L 302.6824 156.377986 
L 304.7931 184.680504 
L 306.9038 214.967814 
L 311.1252 280.474096 
L 315.3466 347.097253 
L 317.4573 378.797424 
L 319.568 407.984725 
L 321.6787 434.199229 
L 323.7894 456.717654 
L 325.9001 475.084223 
L 328.0108 488.892856 
L 330.1215 497.946185 
L 332.2322 502.171436 
L 334.3429 501.287912 
L 336.4536 495.294229 
L 338.5643 484.328468 
L 340.675 468.593964 
L 342.7857 448.633069 
L 344.8964 424.722106 
L 347.0071 397.902659 
L 351.2285 337.905737 
L 357.5606 243.805163 
L 359.6713 214.327357 
L 361.782 186.620704 
L 363.8927 161.688816 
L 366.0034 139.732203 
L 368.1141 121.975884 
L 370.2248 108.385316 
L 372.3355 99.904434 
L 374.4462 95.114707 
L 376.5569 95.624776 
L 378.6676 101.065646 
L 380.7783 111.4373 
L 382.889 126.088933 
L 384.9997 144.671453 
L 387.1104 166.64951 
L 389.2211 191.736 
L 391.3318 219.274354 
L 395.5532 279.393325 
L 401.8853 371.904545 
L 403.996 400.138141 
L 406.1067 425.796979 
L 408.2174 448.295753 
L 410.3281 467.135262 
L 412.4388 481.98656 
L 414.5495 492.526004 
L 416.6602 498.839314 
L 418.7709 500.418887 
L 420.8816 497.262259 
L 422.9923 489.427906 
L 425.103 477.079015 
L 427.2137 460.592852 
L 429.3244 440.339959 
L 431.4351 417.027315 
L 433.5458 391.20291 
L 437.7672 335.194723 
L 444.0993 250.004624 
L 446.21 223.777256 
L 448.3207 199.680962 
L 450.4314 178.247673 
L 452.5421 160.150611 
L 454.6528 146.016279 
L 456.7635 136.065511 
L 458.8742 129.700829 
L 460.9849 127.948161 
L 463.0956 130.859947 
L 465.2063 138.18064 
L 467.317 149.549182 
L 469.4277 164.631353 
L 471.5384 183.089293 
L 473.6491 204.399759 
L 475.7598 228.415499 
L 477.870501 254.215323 
L 482.091901 309.821067 
L 486.313301 366.01321 
L 488.424001 392.444202 
L 490.534701 416.763313 
L 492.645401 438.609363 
L 494.756101 457.287862 
L 496.866801 472.670301 
L 498.977501 484.243105 
L 498.977501 484.243105 
" style="fill:none;stroke:#ff0018;stroke-linecap:square;stroke-width:2;"/>
   </g>
   <g id="line2d_36">
    <defs>
     <path d="M -2.5 2.5 
L 2.5 2.5 
L 2.5 -2.5 
L -2.5 -2.5 
z
" id="m4fd67e21d4" style="stroke:#ff0018;stroke-linejoin:miter;"/>
    </defs>
    <g clip-path="url(#pc2a27085cf)">
     <use style="fill:#ff0018;stroke:#ff0018;stroke-linejoin:miter;" x="161.2655" xlink:href="#m4fd67e21d4" y="502.863146"/>
    </g>
   </g>
   <g id="patch_3">
    <path d="M 76.8375 512.64 
L 76.8375 40.32 
" style="fill:none;stroke:#000000;stroke-linecap:square;stroke-linejoin:miter;stroke-width:0.8;"/>
   </g>
   <g id="patch_4">
    <path d="M 496.8825 512.64 
L 496.8825 40.32 
" style="fill:none;stroke:#000000;stroke-linecap:square;stroke-linejoin:miter;stroke-width:0.8;"/>
   </g>
   <g id="patch_5">
    <path d="M 76.8375 512.64 
L 496.8825 512.64 
" style="fill:none;stroke:#000000;stroke-linecap:square;stroke-linejoin:miter;stroke-width:0.8;"/>
   </g>
   <g id="patch_6">
    <path d="M 76.8375 40.32 
L 496.8825 40.32 
" style="fill:none;stroke:#000000;stroke-linecap:square;stroke-linejoin:miter;stroke-width:0.8;"/>
   </g>
   <g id="legend_1">
    <g id="patch_7">
     <path d="M 338.8825 144.38875 
L 482.8825 144.38875 
Q 486.8825 144.38875 486.8825 140.38875 
L 486.8825 54.32 
Q 486.8825 50.32 482.8825 50.32 
L 338.8825 50.32 
Q 334.8825 50.32 334.8825 54.32 
L 334.8825 140.38875 
Q 334.8825 144.38875 338.8825 144.38875 
z
" style="fill:#ffffff;opacity:0.8;stroke:#cccccc;stroke-linejoin:miter;"/>
    </g>
    <g id="line2d_37">
     <path d="M 342.8825 66.516875 
L 382.8825 66.516875 
" style="fill:none;stroke:#08ff00;stroke-linecap:square;stroke-width:2;"/>
    </g>
    <g id="line2d_38"/>
    <g id="text_18">
     <!-- $\epsilon=0.01$ -->
     <g transform="translate(398.8825 73.516875)scale(0.2 -0.2)">
      <defs>
       <path d="M 19.734375 29.5 
Q 14.453125 30.671875 12.15625 33.84375 
Q 10.453125 36.078125 10.453125 39.109375 
Q 10.453125 47.40625 18.359375 52.25 
Q 24.609375 56.0625 34.1875 56.0625 
Q 37.890625 56.0625 41.9375 55.46875 
Q 46 54.890625 50.53125 53.71875 
L 48.96875 45.5625 
Q 44.484375 46.96875 40.71875 47.609375 
Q 36.859375 48.25 33.40625 48.25 
Q 27.59375 48.25 23.78125 46 
Q 19.1875 43.3125 19.1875 39.40625 
Q 19.1875 36.8125 21.578125 35.015625 
Q 24.421875 32.859375 30.078125 32.859375 
L 37.640625 32.859375 
L 36.234375 25.4375 
L 29 25.4375 
Q 22.265625 25.4375 18.3125 22.953125 
Q 12.9375 19.578125 12.9375 14.3125 
Q 12.9375 10.984375 15.828125 8.796875 
Q 19.4375 6.0625 26.8125 6.0625 
Q 31.34375 6.0625 35.6875 6.9375 
Q 40.046875 7.859375 43.84375 9.671875 
L 42.1875 1.3125 
Q 37.546875 -0.046875 33.296875 -0.734375 
Q 29.046875 -1.421875 25.140625 -1.421875 
Q 13.53125 -1.421875 8.0625 3.03125 
Q 3.90625 6.453125 3.90625 12.203125 
Q 3.90625 19.96875 9.375 24.75 
Q 13.421875 28.328125 19.734375 29.5 
z
" id="DejaVuSans-Oblique-949"/>
       <path d="M 10.59375 45.40625 
L 73.1875 45.40625 
L 73.1875 37.203125 
L 10.59375 37.203125 
z
M 10.59375 25.484375 
L 73.1875 25.484375 
L 73.1875 17.1875 
L 10.59375 17.1875 
z
" id="DejaVuSans-61"/>
      </defs>
      <use transform="translate(0 0.78125)" xlink:href="#DejaVuSans-Oblique-949"/>
      <use transform="translate(73.535156 0.78125)" xlink:href="#DejaVuSans-61"/>
      <use transform="translate(176.806641 0.78125)" xlink:href="#DejaVuSans-48"/>
      <use transform="translate(240.429688 0.78125)" xlink:href="#DejaVuSans-46"/>
      <use transform="translate(272.216797 0.78125)" xlink:href="#DejaVuSans-48"/>
      <use transform="translate(335.839844 0.78125)" xlink:href="#DejaVuSans-49"/>
     </g>
    </g>
    <g id="line2d_39">
     <path d="M 342.8825 95.873125 
L 382.8825 95.873125 
" style="fill:none;stroke:#0010ff;stroke-linecap:square;stroke-width:2;"/>
    </g>
    <g id="line2d_40"/>
    <g id="text_19">
     <!-- $\epsilon=0.02$ -->
     <g transform="translate(398.8825 102.873125)scale(0.2 -0.2)">
      <use transform="translate(0 0.78125)" xlink:href="#DejaVuSans-Oblique-949"/>
      <use transform="translate(73.535156 0.78125)" xlink:href="#DejaVuSans-61"/>
      <use transform="translate(176.806641 0.78125)" xlink:href="#DejaVuSans-48"/>
      <use transform="translate(240.429688 0.78125)" xlink:href="#DejaVuSans-46"/>
      <use transform="translate(272.216797 0.78125)" xlink:href="#DejaVuSans-48"/>
      <use transform="translate(335.839844 0.78125)" xlink:href="#DejaVuSans-50"/>
     </g>
    </g>
    <g id="line2d_41">
     <path d="M 342.8825 125.229375 
L 382.8825 125.229375 
" style="fill:none;stroke:#ff0018;stroke-linecap:square;stroke-width:2;"/>
    </g>
    <g id="line2d_42"/>
    <g id="text_20">
     <!-- $\epsilon=0.03$ -->
     <g transform="translate(398.8825 132.229375)scale(0.2 -0.2)">
      <use transform="translate(0 0.78125)" xlink:href="#DejaVuSans-Oblique-949"/>
      <use transform="translate(73.535156 0.78125)" xlink:href="#DejaVuSans-61"/>
      <use transform="translate(176.806641 0.78125)" xlink:href="#DejaVuSans-48"/>
      <use transform="translate(240.429688 0.78125)" xlink:href="#DejaVuSans-46"/>
      <use transform="translate(272.216797 0.78125)" xlink:href="#DejaVuSans-48"/>
      <use transform="translate(335.839844 0.78125)" xlink:href="#DejaVuSans-51"/>
     </g>
    </g>
   </g>
  </g>
 </g>
 <defs>
  <clipPath id="pc2a27085cf">
   <rect height="472.32" width="420.045" x="76.8375" y="40.32"/>
  </clipPath>
 </defs>
</svg>
