<?xml version="1.0" encoding="utf-8" standalone="no"?>
<!DOCTYPE svg PUBLIC "-//W3C//DTD SVG 1.1//EN"
  "http://www.w3.org/Graphics/SVG/1.1/DTD/svg11.dtd">
<!-- Created with matplotlib (https://matplotlib.org/) -->
<svg height="810pt" version="1.1" viewBox="0 0 720 810" width="720pt" xmlns="http://www.w3.org/2000/svg" xmlns:xlink="http://www.w3.org/1999/xlink">
 <metadata>
  <rdf:RDF xmlns:cc="http://creativecommons.org/ns#" xmlns:dc="http://purl.org/dc/elements/1.1/" xmlns:rdf="http://www.w3.org/1999/02/22-rdf-syntax-ns#">
   <cc:Work>
    <dc:type rdf:resource="http://purl.org/dc/dcmitype/StillImage"/>
    <dc:date>2021-01-12T11:31:48.005179</dc:date>
    <dc:format>image/svg+xml</dc:format>
    <dc:creator>
     <cc:Agent>
      <dc:title>Matplotlib v3.3.1, https://matplotlib.org/</dc:title>
     </cc:Agent>
    </dc:creator>
   </cc:Work>
  </rdf:RDF>
 </metadata>
 <defs>
  <style type="text/css">*{stroke-linecap:butt;stroke-linejoin:round;}</style>
 </defs>
 <g id="figure_1">
  <g id="patch_1">
   <path d="M 0 810 
L 720 810 
L 720 0 
L 0 0 
z
" style="fill:#ffffff;"/>
  </g>
  <g id="axes_1">
   <g id="patch_2">
    <path d="M 108 720.9 
L 698.4 720.9 
L 698.4 56.7 
L 108 56.7 
z
" style="fill:#ffffff;"/>
   </g>
   <g id="matplotlib.axis_1">
    <g id="xtick_1">
     <g id="line2d_1">
      <path clip-path="url(#p6394050394)" d="M 159.135276 720.9 
L 159.135276 56.7 
" style="fill:none;stroke:#e6e6e6;stroke-linecap:square;stroke-width:0.8;"/>
     </g>
     <g id="line2d_2">
      <defs>
       <path d="M 0 0 
L 0 -3.5 
" id="m6bfbfba3e0" style="stroke:#000000;stroke-width:0.8;"/>
      </defs>
      <g>
       <use style="stroke:#000000;stroke-width:0.8;" x="159.135276" xlink:href="#m6bfbfba3e0" y="720.9"/>
      </g>
     </g>
     <g id="text_1">
      <!-- $\mathdefault{0}$ -->
      <g transform="translate(155.477157 734.777725)scale(0.15 -0.15)">
       <defs>
        <path d="M 42 31.640625 
C 42 37.75 41.90625 48.125 37.703125 56.109375 
C 34 63.109375 28.09375 65.59375 22.90625 65.59375 
C 18.09375 65.59375 12 63.40625 8.203125 56.203125 
C 4.203125 48.71875 3.796875 39.4375 3.796875 31.640625 
C 3.796875 25.953125 3.90625 17.28125 7 9.671875 
C 11.296875 -0.609375 19 -2 22.90625 -2 
C 27.5 -2 34.5 -0.109375 38.59375 9.375 
C 41.59375 16.28125 42 24.359375 42 31.640625 
z
M 22.90625 -0.40625 
C 16.5 -0.40625 12.703125 5.078125 11.296875 12.6875 
C 10.203125 18.5625 10.203125 27.15625 10.203125 32.75 
C 10.203125 40.4375 10.203125 46.828125 11.5 52.921875 
C 13.40625 61.390625 19 64 22.90625 64 
C 27 64 32.296875 61.296875 34.203125 53.125 
C 35.5 47.4375 35.59375 40.734375 35.59375 32.75 
C 35.59375 26.25 35.59375 18.265625 34.40625 12.375 
C 32.296875 1.484375 26.40625 -0.40625 22.90625 -0.40625 
z
" id="CMR17-48"/>
       </defs>
       <use transform="scale(0.996264)" xlink:href="#CMR17-48"/>
      </g>
     </g>
    </g>
    <g id="xtick_2">
     <g id="line2d_3">
      <path clip-path="url(#p6394050394)" d="M 256.432342 720.9 
L 256.432342 56.7 
" style="fill:none;stroke:#e6e6e6;stroke-linecap:square;stroke-width:0.8;"/>
     </g>
     <g id="line2d_4">
      <g>
       <use style="stroke:#000000;stroke-width:0.8;" x="256.432342" xlink:href="#m6bfbfba3e0" y="720.9"/>
      </g>
     </g>
     <g id="text_2">
      <!-- $\mathdefault{1000}$ -->
      <g transform="translate(241.799866 734.777725)scale(0.15 -0.15)">
       <defs>
        <path d="M 26.59375 63.40625 
C 26.59375 65.5 26.5 65.5 25.09375 65.5 
C 21.203125 61.1875 15.296875 59.796875 9.703125 59.796875 
C 9.40625 59.796875 8.90625 59.796875 8.796875 59.5 
C 8.703125 59.296875 8.703125 59.09375 8.703125 57 
C 11.796875 57 17 57.59375 21 59.984375 
L 21 7.203125 
C 21 3.6875 20.796875 2.5 12.203125 2.5 
L 9.203125 2.5 
L 9.203125 0 
C 14 0 19 0 23.796875 0 
C 28.59375 0 33.59375 0 38.40625 0 
L 38.40625 2.5 
L 35.40625 2.5 
C 26.796875 2.5 26.59375 3.59375 26.59375 7.15625 
z
" id="CMR17-49"/>
       </defs>
       <use transform="scale(0.996264)" xlink:href="#CMR17-49"/>
       <use transform="translate(45.690477 0)scale(0.996264)" xlink:href="#CMR17-48"/>
       <use transform="translate(91.380954 0)scale(0.996264)" xlink:href="#CMR17-48"/>
       <use transform="translate(137.071431 0)scale(0.996264)" xlink:href="#CMR17-48"/>
      </g>
     </g>
    </g>
    <g id="xtick_3">
     <g id="line2d_5">
      <path clip-path="url(#p6394050394)" d="M 353.729408 720.9 
L 353.729408 56.7 
" style="fill:none;stroke:#e6e6e6;stroke-linecap:square;stroke-width:0.8;"/>
     </g>
     <g id="line2d_6">
      <g>
       <use style="stroke:#000000;stroke-width:0.8;" x="353.729408" xlink:href="#m6bfbfba3e0" y="720.9"/>
      </g>
     </g>
     <g id="text_3">
      <!-- $\mathdefault{2000}$ -->
      <g transform="translate(339.096933 734.777725)scale(0.15 -0.15)">
       <defs>
        <path d="M 41.703125 15.453125 
L 39.90625 15.453125 
C 38.90625 8.375 38.09375 7.171875 37.703125 6.5625 
C 37.203125 5.765625 30 5.765625 28.59375 5.765625 
L 9.40625 5.765625 
C 13 9.671875 20 16.75 28.5 24.953125 
C 34.59375 30.734375 41.703125 37.53125 41.703125 47.421875 
C 41.703125 59.21875 32.296875 66 21.796875 66 
C 10.796875 66 4.09375 56.3125 4.09375 47.34375 
C 4.09375 43.4375 7 42.9375 8.203125 42.9375 
C 9.203125 42.9375 12.203125 43.546875 12.203125 47.03125 
C 12.203125 50.109375 9.59375 51 8.203125 51 
C 7.59375 51 7 50.90625 6.59375 50.703125 
C 8.5 59.21875 14.296875 63.40625 20.40625 63.40625 
C 29.09375 63.40625 34.796875 56.515625 34.796875 47.421875 
C 34.796875 38.734375 29.703125 31.25 24 24.75 
L 4.09375 2.28125 
L 4.09375 0 
L 39.296875 0 
z
" id="CMR17-50"/>
       </defs>
       <use transform="scale(0.996264)" xlink:href="#CMR17-50"/>
       <use transform="translate(45.690477 0)scale(0.996264)" xlink:href="#CMR17-48"/>
       <use transform="translate(91.380954 0)scale(0.996264)" xlink:href="#CMR17-48"/>
       <use transform="translate(137.071431 0)scale(0.996264)" xlink:href="#CMR17-48"/>
      </g>
     </g>
    </g>
    <g id="xtick_4">
     <g id="line2d_7">
      <path clip-path="url(#p6394050394)" d="M 451.026475 720.9 
L 451.026475 56.7 
" style="fill:none;stroke:#e6e6e6;stroke-linecap:square;stroke-width:0.8;"/>
     </g>
     <g id="line2d_8">
      <g>
       <use style="stroke:#000000;stroke-width:0.8;" x="451.026475" xlink:href="#m6bfbfba3e0" y="720.9"/>
      </g>
     </g>
     <g id="text_4">
      <!-- $\mathdefault{3000}$ -->
      <g transform="translate(436.393999 734.777725)scale(0.15 -0.15)">
       <defs>
        <path d="M 22.09375 33.703125 
C 31 33.703125 34.90625 25.96875 34.90625 17.03125 
C 34.90625 5 28.5 0.390625 22.703125 0.390625 
C 17.40625 0.390625 8.796875 3.03125 6.09375 10.828125 
C 6.59375 10.625 7.09375 10.625 7.59375 10.625 
C 10 10.625 11.796875 12.21875 11.796875 14.8125 
C 11.796875 17.703125 9.59375 19 7.59375 19 
C 5.90625 19 3.296875 18.203125 3.296875 14.46875 
C 3.296875 5.234375 12.296875 -2 22.90625 -2 
C 34 -2 42.5 6.71875 42.5 16.953125 
C 42.5 26.671875 34.5 33.703125 25 34.796875 
C 32.59375 36.375 39.90625 43.0625 39.90625 52.015625 
C 39.90625 59.6875 32 65.296875 23 65.296875 
C 13.90625 65.296875 5.90625 59.828125 5.90625 52.015625 
C 5.90625 48.59375 8.5 48 9.796875 48 
C 11.90625 48 13.703125 49.296875 13.703125 51.890625 
C 13.703125 54.46875 11.90625 55.765625 9.796875 55.765625 
C 9.40625 55.765625 8.90625 55.765625 8.5 55.578125 
C 11.40625 61.859375 19.296875 63 22.796875 63 
C 26.296875 63 32.90625 61.328125 32.90625 51.875 
C 32.90625 49.109375 32.5 44.1875 29.09375 39.84375 
C 26.09375 36 22.703125 36 19.40625 35.6875 
C 18.90625 35.6875 16.59375 35.453125 16.203125 35.453125 
C 15.5 35.359375 15.09375 35.265625 15.09375 34.5 
C 15.09375 33.796875 15.203125 33.703125 17.203125 33.703125 
z
" id="CMR17-51"/>
       </defs>
       <use transform="scale(0.996264)" xlink:href="#CMR17-51"/>
       <use transform="translate(45.690477 0)scale(0.996264)" xlink:href="#CMR17-48"/>
       <use transform="translate(91.380954 0)scale(0.996264)" xlink:href="#CMR17-48"/>
       <use transform="translate(137.071431 0)scale(0.996264)" xlink:href="#CMR17-48"/>
      </g>
     </g>
    </g>
    <g id="xtick_5">
     <g id="line2d_9">
      <path clip-path="url(#p6394050394)" d="M 548.323541 720.9 
L 548.323541 56.7 
" style="fill:none;stroke:#e6e6e6;stroke-linecap:square;stroke-width:0.8;"/>
     </g>
     <g id="line2d_10">
      <g>
       <use style="stroke:#000000;stroke-width:0.8;" x="548.323541" xlink:href="#m6bfbfba3e0" y="720.9"/>
      </g>
     </g>
     <g id="text_5">
      <!-- $\mathdefault{4000}$ -->
      <g transform="translate(533.691065 734.777725)scale(0.15 -0.15)">
       <defs>
        <path d="M 33.59375 64.40625 
C 33.59375 66.5 33.5 66.5 31.703125 66.5 
L 2 19.59375 
L 2 17 
L 27.796875 17 
L 27.796875 7.140625 
C 27.796875 3.5 27.59375 2.5 20.59375 2.5 
L 18.703125 2.5 
L 18.703125 0 
C 21.90625 0 27.296875 0 30.703125 0 
C 34.09375 0 39.5 0 42.703125 0 
L 42.703125 2.5 
L 40.796875 2.5 
C 33.796875 2.5 33.59375 3.5 33.59375 7.140625 
L 33.59375 17 
L 43.796875 17 
L 43.796875 19.59375 
L 33.59375 19.59375 
z
M 28.09375 57.859375 
L 28.09375 19.59375 
L 4 19.59375 
z
" id="CMR17-52"/>
       </defs>
       <use transform="scale(0.996264)" xlink:href="#CMR17-52"/>
       <use transform="translate(45.690477 0)scale(0.996264)" xlink:href="#CMR17-48"/>
       <use transform="translate(91.380954 0)scale(0.996264)" xlink:href="#CMR17-48"/>
       <use transform="translate(137.071431 0)scale(0.996264)" xlink:href="#CMR17-48"/>
      </g>
     </g>
    </g>
    <g id="xtick_6">
     <g id="line2d_11">
      <path clip-path="url(#p6394050394)" d="M 645.620607 720.9 
L 645.620607 56.7 
" style="fill:none;stroke:#e6e6e6;stroke-linecap:square;stroke-width:0.8;"/>
     </g>
     <g id="line2d_12">
      <g>
       <use style="stroke:#000000;stroke-width:0.8;" x="645.620607" xlink:href="#m6bfbfba3e0" y="720.9"/>
      </g>
     </g>
     <g id="text_6">
      <!-- $\mathdefault{5000}$ -->
      <g transform="translate(630.988132 734.777725)scale(0.15 -0.15)">
       <defs>
        <path d="M 11.40625 57.6875 
C 12.40625 57.28125 16.5 56 20.703125 56 
C 30 56 35.09375 61.109375 38 64.0625 
C 38 64.953125 38 65.5 37.40625 65.5 
C 37.296875 65.5 37.09375 65.5 36.296875 65.046875 
C 32.796875 63.40625 28.703125 62.078125 23.703125 62.078125 
C 20.703125 62.078125 16.203125 62.484375 11.296875 64.671875 
C 10.203125 65.171875 10 65.171875 9.90625 65.171875 
C 9.40625 65.171875 9.296875 65.0625 9.296875 63.078125 
L 9.296875 34.421875 
C 9.296875 32.640625 9.296875 32.140625 10.296875 32.140625 
C 10.796875 32.140625 11 32.34375 11.5 33.03125 
C 14.703125 37.515625 19.09375 39.40625 24.09375 39.40625 
C 27.59375 39.40625 35.09375 37.21875 35.09375 20.140625 
C 35.09375 16.953125 35.09375 11.171875 32.09375 6.578125 
C 29.59375 2.484375 25.703125 0.390625 21.40625 0.390625 
C 14.796875 0.390625 8.09375 5 6.296875 12.71875 
C 6.703125 12.609375 7.5 12.421875 7.90625 12.421875 
C 9.203125 12.421875 11.703125 13.125 11.703125 16.21875 
C 11.703125 18.90625 9.796875 20 7.90625 20 
C 5.59375 20 4.09375 18.59375 4.09375 15.796875 
C 4.09375 7.09375 11 -2 21.59375 -2 
C 31.90625 -2 41.703125 6.875 41.703125 19.75 
C 41.703125 31.71875 33.90625 41 24.203125 41 
C 19.09375 41 14.796875 39.109375 11.40625 35.53125 
z
" id="CMR17-53"/>
       </defs>
       <use transform="scale(0.996264)" xlink:href="#CMR17-53"/>
       <use transform="translate(45.690477 0)scale(0.996264)" xlink:href="#CMR17-48"/>
       <use transform="translate(91.380954 0)scale(0.996264)" xlink:href="#CMR17-48"/>
       <use transform="translate(137.071431 0)scale(0.996264)" xlink:href="#CMR17-48"/>
      </g>
     </g>
    </g>
    <g id="text_7">
     <!-- $z(\AA)$ -->
     <g transform="translate(379.019452 763.384409)scale(0.25 -0.25)">
      <defs>
       <path d="M 12.703125 7.59375 
C 17 12.546875 20.5 15.6875 25.5 20.25 
C 31.5 25.5 34.09375 28.015625 35.5 29.546875 
C 42.5 36.53125 46 42.390625 46 43.1875 
C 46 44 45.203125 44 45 44 
C 44.296875 44 44.09375 43.640625 43.59375 42.96875 
C 41.09375 38.96875 38.703125 36.984375 36.09375 36.984375 
C 34 36.984375 32.90625 37.828125 31 40.078125 
C 28.90625 42.421875 27.203125 44 24.296875 44 
C 17 44 12.59375 35.265625 12.59375 33.25 
C 12.59375 32.9375 12.703125 32.3125 13.59375 32.3125 
C 14.40625 32.3125 14.5 32.671875 14.796875 33.328125 
C 16.5 37.0625 21.296875 37.71875 23.203125 37.71875 
C 25.296875 37.71875 27.296875 37.125 29.40625 36.359375 
C 33.203125 35 34.796875 35 35.796875 35 
C 36.5 35 36.90625 35 37.40625 35.09375 
C 34.09375 31.15625 28.703125 26.296875 24.203125 22.15625 
L 14.09375 12.75 
C 8 6.484375 4.296875 0.515625 4.296875 -0.1875 
C 4.296875 -0.796875 4.796875 -1 5.40625 -1 
C 6 -1 6.09375 -0.890625 6.796875 0.21875 
C 8.40625 2.546875 11.59375 6 15.296875 6 
C 17.40625 6 18.40625 5.34375 20.40625 3.015625 
C 22.296875 0.953125 24 -1 27.203125 -1 
C 37 -1 42.59375 11.4375 42.59375 13.6875 
C 42.59375 14.109375 42.5 14.71875 41.5 14.71875 
C 40.703125 14.71875 40.59375 14.328125 40.296875 13.359375 
C 38.09375 7.625 32.203125 5.28125 28.296875 5.28125 
C 26.203125 5.28125 24.203125 5.875 22.09375 6.640625 
C 18.09375 8 17 8 15.703125 8 
C 14.703125 8 13.59375 8 12.703125 7.59375 
z
" id="CMMI12-122"/>
       <path d="M 30.59375 -24.390625 
C 30.59375 -24.296875 30.59375 -24.09375 30.296875 -23.796875 
C 25.703125 -19.125 13.40625 -6.359375 13.40625 24.703125 
C 13.40625 55.765625 25.5 68.421875 30.40625 73.390625 
C 30.40625 73.5 30.59375 73.703125 30.59375 74 
C 30.59375 74.296875 30.296875 74.5 29.90625 74.5 
C 28.796875 74.5 20.296875 67.125 15.40625 56.15625 
C 10.40625 45.109375 9 34.359375 9 24.8125 
C 9 17.625 9.703125 5.484375 15.703125 -7.359375 
C 20.5 -17.734375 28.703125 -25 29.90625 -25 
C 30.40625 -25 30.59375 -24.796875 30.59375 -24.390625 
z
" id="CMR17-40"/>
       <path d="M 41.703125 60.75 
C 41.703125 65.3125 37.203125 69.46875 31.203125 69.46875 
C 25.203125 69.46875 20.703125 65.3125 20.703125 60.75 
C 20.703125 56.171875 25.203125 52 31.203125 52 
C 37.203125 52 41.703125 56.171875 41.703125 60.75 
z
M 31.203125 56.484375 
C 29 56.484375 26 57.171875 26 60.734375 
C 26 64.09375 28.703125 65 31.203125 65 
C 33.40625 65 36.40625 64.296875 36.40625 60.734375 
C 36.40625 57.375 33.703125 56.484375 31.203125 56.484375 
z
" id="CMSS17-23"/>
       <path d="M 17 10.796875 
C 13.5 4.90625 10.09375 2.90625 5.296875 2.90625 
C 4.203125 2.8125 3.40625 2.8125 3.40625 0.90625 
C 3.40625 0.375 3.90625 0 4.59375 0 
C 6.40625 0 10.90625 0 12.703125 0 
C 15.59375 0 18.796875 0 21.59375 0 
C 22.203125 0 23.40625 0 23.40625 1.90625 
C 23.40625 2.8125 22.59375 2.90625 22 2.90625 
C 19.703125 2.90625 17.796875 3.6875 17.796875 6.0625 
C 17.796875 7.4375 18.40625 8.53125 19.703125 10.703125 
L 27.296875 23.109375 
L 52.796875 23.109375 
C 52.90625 22.234375 52.90625 21.453125 53 20.5625 
C 53.296875 18 54.5 7.734375 54.5 5.875 
C 54.5 2.90625 49.40625 2.90625 47.796875 2.90625 
C 46.703125 2.90625 45.59375 2.90625 45.59375 1.09375 
C 45.59375 0 46.5 0 47.09375 0 
C 48.796875 0 50.796875 0 52.5 0 
L 58.203125 0 
C 64.296875 0 68.703125 0 68.796875 0 
C 69.5 0 70.59375 0 70.59375 1.90625 
C 70.59375 2.90625 69.703125 2.90625 68.203125 2.90625 
C 62.703125 2.90625 62.59375 3.8125 62.296875 6.78125 
L 56.203125 68.8125 
C 56 70.796875 55.59375 71 54.5 71 
C 53.5 71 52.90625 70.796875 52 69.296875 
z
M 29 26 
L 49.09375 59.671875 
L 52.5 26 
z
" id="CMMI12-65"/>
       <path d="M 26.296875 24.703125 
C 26.296875 31.875 25.59375 44.015625 19.59375 56.859375 
C 14.796875 67.234375 6.59375 74.5 5.40625 74.5 
C 5.09375 74.5 4.703125 74.390625 4.703125 73.890625 
C 4.703125 73.703125 4.796875 73.59375 4.90625 73.390625 
C 9.703125 68.40625 21.90625 55.75 21.90625 24.75 
C 21.90625 -6.359375 9.796875 -19.015625 4.90625 -24.015625 
C 4.796875 -24.203125 4.703125 -24.3125 4.703125 -24.5 
C 4.703125 -25 5.09375 -25 5.40625 -25 
C 6.5 -25 15 -17.625 19.90625 -6.65625 
C 24.90625 4.390625 26.296875 15.140625 26.296875 24.703125 
z
" id="CMR17-41"/>
      </defs>
      <use transform="scale(0.996264)" xlink:href="#CMMI12-122"/>
      <use transform="translate(49.755145 0)scale(0.996264)" xlink:href="#CMR17-40"/>
      <use transform="translate(85.035913 17.618744)scale(0.996264)" xlink:href="#CMSS17-23"/>
      <use transform="translate(85.035913 0)scale(0.996264)" xlink:href="#CMMI12-65"/>
      <use transform="translate(158.163798 0)scale(0.996264)" xlink:href="#CMR17-41"/>
     </g>
    </g>
   </g>
   <g id="matplotlib.axis_2">
    <g id="ytick_1">
     <g id="line2d_13">
      <path clip-path="url(#p6394050394)" d="M 108 663.262812 
L 698.4 663.262812 
" style="fill:none;stroke:#e6e6e6;stroke-linecap:square;stroke-width:0.8;"/>
     </g>
     <g id="line2d_14">
      <defs>
       <path d="M 0 0 
L 3.5 0 
" id="mf59724ddec" style="stroke:#000000;stroke-width:0.8;"/>
      </defs>
      <g>
       <use style="stroke:#000000;stroke-width:0.8;" x="108" xlink:href="#mf59724ddec" y="663.262812"/>
      </g>
     </g>
     <g id="text_8">
      <!-- $\mathdefault{0.0}$ -->
      <g transform="translate(85.802948 668.451675)scale(0.15 -0.15)">
       <defs>
        <path d="M 18.40625 4.796875 
C 18.40625 7.6875 16 9.671875 13.59375 9.671875 
C 10.703125 9.671875 8.703125 7.28125 8.703125 4.890625 
C 8.703125 2 11.09375 0 13.5 0 
C 16.40625 0 18.40625 2.390625 18.40625 4.796875 
z
" id="CMMI12-58"/>
       </defs>
       <use transform="scale(0.996264)" xlink:href="#CMR17-48"/>
       <use transform="translate(45.690477 0)scale(0.996264)" xlink:href="#CMMI12-58"/>
       <use transform="translate(72.787654 0)scale(0.996264)" xlink:href="#CMR17-48"/>
      </g>
     </g>
    </g>
    <g id="ytick_2">
     <g id="line2d_15">
      <path clip-path="url(#p6394050394)" d="M 108 553.475643 
L 698.4 553.475643 
" style="fill:none;stroke:#e6e6e6;stroke-linecap:square;stroke-width:0.8;"/>
     </g>
     <g id="line2d_16">
      <g>
       <use style="stroke:#000000;stroke-width:0.8;" x="108" xlink:href="#mf59724ddec" y="553.475643"/>
      </g>
     </g>
     <g id="text_9">
      <!-- $\mathdefault{0.2}$ -->
      <g transform="translate(85.802948 558.664505)scale(0.15 -0.15)">
       <use transform="scale(0.996264)" xlink:href="#CMR17-48"/>
       <use transform="translate(45.690477 0)scale(0.996264)" xlink:href="#CMMI12-58"/>
       <use transform="translate(72.787654 0)scale(0.996264)" xlink:href="#CMR17-50"/>
      </g>
     </g>
    </g>
    <g id="ytick_3">
     <g id="line2d_17">
      <path clip-path="url(#p6394050394)" d="M 108 443.688474 
L 698.4 443.688474 
" style="fill:none;stroke:#e6e6e6;stroke-linecap:square;stroke-width:0.8;"/>
     </g>
     <g id="line2d_18">
      <g>
       <use style="stroke:#000000;stroke-width:0.8;" x="108" xlink:href="#mf59724ddec" y="443.688474"/>
      </g>
     </g>
     <g id="text_10">
      <!-- $\mathdefault{0.4}$ -->
      <g transform="translate(85.802948 448.877336)scale(0.15 -0.15)">
       <use transform="scale(0.996264)" xlink:href="#CMR17-48"/>
       <use transform="translate(45.690477 0)scale(0.996264)" xlink:href="#CMMI12-58"/>
       <use transform="translate(72.787654 0)scale(0.996264)" xlink:href="#CMR17-52"/>
      </g>
     </g>
    </g>
    <g id="ytick_4">
     <g id="line2d_19">
      <path clip-path="url(#p6394050394)" d="M 108 333.901304 
L 698.4 333.901304 
" style="fill:none;stroke:#e6e6e6;stroke-linecap:square;stroke-width:0.8;"/>
     </g>
     <g id="line2d_20">
      <g>
       <use style="stroke:#000000;stroke-width:0.8;" x="108" xlink:href="#mf59724ddec" y="333.901304"/>
      </g>
     </g>
     <g id="text_11">
      <!-- $\mathdefault{0.6}$ -->
      <g transform="translate(85.802948 339.090167)scale(0.15 -0.15)">
       <defs>
        <path d="M 10.59375 34 
C 10.59375 57.65625 21.796875 63 28.296875 63 
C 30.40625 63 35.5 62.640625 37.5 59 
C 35.90625 59 32.90625 59 32.90625 55.515625 
C 32.90625 52.828125 35.09375 51.921875 36.5 51.921875 
C 37.40625 51.921875 40.09375 52.3125 40.09375 55.625 
C 40.09375 61.78125 35.09375 65.296875 28.203125 65.296875 
C 16.296875 65.296875 3.796875 52.96875 3.796875 31 
C 3.796875 3.953125 15.09375 -2 23.09375 -2 
C 32.796875 -2 42 6.671875 42 20.046875 
C 42 32.515625 33.90625 41.59375 23.703125 41.59375 
C 17.59375 41.59375 13.09375 37.609375 10.59375 30.625 
z
M 23.09375 0.390625 
C 10.796875 0.390625 10.796875 18.75 10.796875 22.4375 
C 10.796875 29.625 14.203125 40 23.5 40 
C 25.203125 40 30.09375 40 33.40625 33.125 
C 35.203125 29.21875 35.203125 25.140625 35.203125 20.140625 
C 35.203125 14.75 35.203125 10.78125 33.09375 6.78125 
C 30.90625 2.671875 27.703125 0.390625 23.09375 0.390625 
z
" id="CMR17-54"/>
       </defs>
       <use transform="scale(0.996264)" xlink:href="#CMR17-48"/>
       <use transform="translate(45.690477 0)scale(0.996264)" xlink:href="#CMMI12-58"/>
       <use transform="translate(72.787654 0)scale(0.996264)" xlink:href="#CMR17-54"/>
      </g>
     </g>
    </g>
    <g id="ytick_5">
     <g id="line2d_21">
      <path clip-path="url(#p6394050394)" d="M 108 224.114135 
L 698.4 224.114135 
" style="fill:none;stroke:#e6e6e6;stroke-linecap:square;stroke-width:0.8;"/>
     </g>
     <g id="line2d_22">
      <g>
       <use style="stroke:#000000;stroke-width:0.8;" x="108" xlink:href="#mf59724ddec" y="224.114135"/>
      </g>
     </g>
     <g id="text_12">
      <!-- $\mathdefault{0.8}$ -->
      <g transform="translate(85.802948 229.302997)scale(0.15 -0.15)">
       <defs>
        <path d="M 27.203125 35.375 
C 33.5 38.546875 39.90625 43.328125 39.90625 50.984375 
C 39.90625 60.015625 31.09375 65.296875 23 65.296875 
C 13.90625 65.296875 5.90625 58.734375 5.90625 49.6875 
C 5.90625 47.203125 6.5 42.921875 10.40625 39.140625 
C 11.40625 38.15625 15.59375 35.171875 18.296875 33.28125 
C 13.796875 30.984375 3.296875 25.53125 3.296875 14.59375 
C 3.296875 4.359375 13.09375 -2 22.796875 -2 
C 33.5 -2 42.5 5.65625 42.5 15.78125 
C 42.5 24.84375 36.40625 29.015625 32.40625 31.703125 
z
M 14.09375 44.09375 
C 13.296875 44.59375 9.296875 47.671875 9.296875 52.359375 
C 9.296875 58.421875 15.59375 63 22.796875 63 
C 30.703125 63 36.5 57.4375 36.5 50.96875 
C 36.5 41.703125 26.09375 36.421875 25.59375 36.421875 
C 25.5 36.421875 25.40625 36.421875 24.59375 37.03125 
z
M 32.5 23.734375 
C 34 22.640625 38.796875 19.375 38.796875 13.296875 
C 38.796875 5.953125 31.40625 0.390625 23 0.390625 
C 13.90625 0.390625 7 6.84375 7 14.6875 
C 7 22.546875 13.09375 29.09375 20 32.1875 
z
" id="CMR17-56"/>
       </defs>
       <use transform="scale(0.996264)" xlink:href="#CMR17-48"/>
       <use transform="translate(45.690477 0)scale(0.996264)" xlink:href="#CMMI12-58"/>
       <use transform="translate(72.787654 0)scale(0.996264)" xlink:href="#CMR17-56"/>
      </g>
     </g>
    </g>
    <g id="ytick_6">
     <g id="line2d_23">
      <path clip-path="url(#p6394050394)" d="M 108 114.326966 
L 698.4 114.326966 
" style="fill:none;stroke:#e6e6e6;stroke-linecap:square;stroke-width:0.8;"/>
     </g>
     <g id="line2d_24">
      <g>
       <use style="stroke:#000000;stroke-width:0.8;" x="108" xlink:href="#mf59724ddec" y="114.326966"/>
      </g>
     </g>
     <g id="text_13">
      <!-- $\mathdefault{1.0}$ -->
      <g transform="translate(85.802948 119.515828)scale(0.15 -0.15)">
       <use transform="scale(0.996264)" xlink:href="#CMR17-49"/>
       <use transform="translate(45.690477 0)scale(0.996264)" xlink:href="#CMMI12-58"/>
       <use transform="translate(72.787654 0)scale(0.996264)" xlink:href="#CMR17-48"/>
      </g>
     </g>
    </g>
    <g id="text_14">
     <!-- $I_b$ -->
     <g transform="translate(76.958413 397.80714)rotate(-90)scale(0.25 -0.25)">
      <defs>
       <path d="M 36.796875 60.625 
C 37.703125 64.109375 37.90625 65.109375 45.203125 65.109375 
C 47.40625 65.109375 48.203125 65.109375 48.203125 67 
C 48.203125 68 47.09375 68 46.796875 68 
C 45 68 42.796875 68 41 68 
L 28.703125 68 
C 26.703125 68 24.40625 68 22.40625 68 
C 21.59375 68 20.5 68 20.5 66.109375 
C 20.5 65.109375 21.296875 65.109375 23.296875 65.109375 
C 29.5 65.109375 29.5 64.3125 29.5 63.21875 
C 29.5 62.53125 29.296875 61.921875 29.09375 61.03125 
L 15.59375 7.375 
C 14.703125 3.890625 14.5 2.890625 7.203125 2.890625 
C 5 2.890625 4.09375 2.890625 4.09375 1 
C 4.09375 0 5.09375 0 5.59375 0 
C 7.40625 0 9.59375 0 11.40625 0 
L 23.703125 0 
C 25.703125 0 27.90625 0 29.90625 0 
C 30.703125 0 31.90625 0 31.90625 1.796875 
C 31.90625 2.890625 31.296875 2.890625 29.09375 2.890625 
C 22.90625 2.890625 22.90625 3.6875 22.90625 4.875 
C 22.90625 5.078125 22.90625 5.578125 23.296875 7.171875 
z
" id="CMMI12-73"/>
       <path d="M 23.09375 66.515625 
C 23.203125 66.921875 23.40625 67.515625 23.40625 68 
C 23.40625 69 22.40625 69 22.203125 69 
C 22.09375 69 18.5 68.640625 16.703125 68.390625 
C 15 68.390625 13.5 68.09375 11.703125 68.09375 
C 9.296875 67.890625 8.59375 67.796875 8.59375 66 
C 8.59375 65 9.59375 65 10.59375 65 
C 15.703125 65 15.703125 64.109375 15.703125 63.125 
C 15.703125 62.4375 14.90625 59.546875 14.5 57.75 
L 12.09375 48.203125 
C 11.09375 44.234375 5.40625 21.671875 5 19.875 
C 4.5 17.40625 4.5 15.703125 4.5 14.40625 
C 4.5 4.28125 10.203125 -1 16.703125 -1 
C 28.296875 -1 40.296875 13.875 40.296875 28.34375 
C 40.296875 37.515625 35.09375 44 27.59375 44 
C 22.40625 44 17.703125 39.71875 15.796875 37.71875 
z
M 16.796875 1 
C 13.59375 1 10.09375 3.390625 10.09375 11.171875 
C 10.09375 14.46875 10.40625 16.359375 12.203125 23.34375 
C 12.5 24.640625 14.09375 31.03125 14.5 32.328125 
C 14.703125 33.125 20.59375 42.015625 27.40625 42.015625 
C 31.796875 42.015625 33.796875 37.625 33.796875 32.4375 
C 33.796875 27.640625 31 16.359375 28.5 11.171875 
C 26 5.78125 21.40625 1 16.796875 1 
z
" id="CMMI12-98"/>
      </defs>
      <use transform="scale(0.996264)" xlink:href="#CMMI12-73"/>
      <use transform="translate(43.024176 -14.943915)scale(0.697382)" xlink:href="#CMMI12-98"/>
     </g>
    </g>
   </g>
   <g id="line2d_25">
    <path clip-path="url(#p6394050394)" d="M 159.233058 663.262173 
L 160.210881 663.185427 
L 161.188705 662.980808 
L 162.166528 662.648411 
L 163.144352 662.18839 
L 165.099998 660.886394 
L 167.055645 659.077247 
L 169.011292 656.764322 
L 170.966939 653.95193 
L 172.922586 650.645312 
L 174.878232 646.850632 
L 176.833879 642.574963 
L 178.789526 637.826274 
L 180.745173 632.613416 
L 182.70082 626.946105 
L 185.63429 617.616375 
L 188.56776 607.327206 
L 191.501231 596.121742 
L 194.434701 584.046966 
L 197.368171 571.153507 
L 201.279465 552.782627 
L 205.190758 533.189692 
L 209.102052 512.520711 
L 213.991169 485.406617 
L 219.85811 451.41404 
L 227.680697 404.559769 
L 241.370225 322.283804 
L 247.237165 288.445503 
L 252.126282 261.507951 
L 256.037576 241.010162 
L 259.94887 221.613683 
L 263.860163 203.463057 
L 266.793634 190.749424 
L 269.727104 178.866186 
L 272.660574 167.86317 
L 275.594044 157.786511 
L 278.527515 148.678458 
L 280.483161 143.16357 
L 282.438808 138.106513 
L 284.394455 133.516714 
L 286.350102 129.402726 
L 288.305749 125.772219 
L 290.261396 122.631959 
L 292.217042 119.987799 
L 294.172689 117.844668 
L 296.128336 116.206561 
L 298.083983 115.07653 
L 299.061806 114.702738 
L 300.03963 114.456681 
L 301.017453 114.338474 
L 301.995277 114.348171 
L 302.9731 114.485768 
L 303.950923 114.751201 
L 304.928747 115.144346 
L 305.90657 115.665021 
L 307.862217 117.087926 
L 309.817864 119.017265 
L 311.773511 121.449442 
L 313.729157 124.379923 
L 315.684804 127.803246 
L 317.640451 131.713031 
L 319.596098 136.10199 
L 321.551745 140.961942 
L 323.507392 146.28383 
L 326.440862 155.11086 
L 329.374332 164.917716 
L 332.307802 175.663279 
L 335.241273 187.302493 
L 338.174743 199.786555 
L 341.108213 213.06312 
L 345.019507 231.901324 
L 348.9308 251.908716 
L 353.819918 278.334248 
L 358.709035 306.045525 
L 364.575975 340.541253 
L 375.332033 405.456596 
L 384.132443 458.037683 
L 389.999384 491.763041 
L 394.888501 518.572856 
L 398.799795 538.947495 
L 402.711088 558.203179 
L 406.622382 576.196414 
L 409.555852 588.781813 
L 412.489322 600.528676 
L 415.422793 611.387749 
L 418.356263 621.3135 
L 421.289733 630.264312 
L 423.24538 635.67118 
L 425.201027 640.617896 
L 427.156674 645.09524 
L 429.112321 649.094866 
L 431.067967 652.60932 
L 433.023614 655.632052 
L 434.979261 658.157426 
L 436.934908 660.180736 
L 438.890555 661.698211 
L 440.846201 662.707022 
L 441.824025 663.020054 
L 442.801848 663.20529 
L 443.779672 663.262642 
L 444.757495 663.192084 
L 445.735319 662.99365 
L 446.713142 662.667431 
L 447.690965 662.213579 
L 449.646612 660.923885 
L 451.602259 659.12697 
L 453.557906 656.826184 
L 455.513553 654.025815 
L 457.4692 650.731083 
L 459.424846 646.948129 
L 461.380493 642.684004 
L 463.33614 637.946656 
L 465.291787 632.744914 
L 467.247434 627.088475 
L 470.180904 617.774548 
L 473.114374 607.50052 
L 476.047844 596.309469 
L 478.981315 584.248319 
L 481.914785 571.367642 
L 485.826079 553.012401 
L 489.737372 533.433391 
L 493.648666 512.776519 
L 498.537783 485.674871 
L 504.404723 451.693098 
L 512.227311 404.845939 
L 525.916839 322.561949 
L 531.783779 288.712364 
L 536.672896 261.761983 
L 540.58419 241.251794 
L 544.495484 221.841114 
L 548.406777 203.674592 
L 551.340247 190.947995 
L 554.273718 179.050962 
L 557.207188 168.033375 
L 560.140658 157.941432 
L 563.074128 148.817445 
L 565.029775 143.291607 
L 566.985422 138.22336 
L 568.941069 133.622154 
L 570.896716 129.496563 
L 572.852363 125.854277 
L 574.808009 122.702086 
L 576.763656 120.045864 
L 578.719303 117.890563 
L 580.67495 116.240199 
L 582.630597 115.097849 
L 583.60842 114.717882 
L 584.586244 114.465643 
L 585.564067 114.341249 
L 586.54189 114.344758 
L 587.519714 114.476168 
L 588.497537 114.735419 
L 589.475361 115.12239 
L 590.453184 115.636899 
L 592.408831 117.047518 
L 594.364478 118.964645 
L 596.320125 121.384708 
L 598.275771 124.303197 
L 600.231418 127.71467 
L 602.187065 131.612771 
L 604.142712 135.990232 
L 606.098359 140.838895 
L 608.054006 146.149722 
L 610.987476 154.960637 
L 613.920946 164.752008 
L 616.854416 175.48278 
L 619.787887 187.10796 
L 622.721357 199.578804 
L 625.654827 212.843022 
L 629.566121 231.666208 
L 633.477414 251.660334 
L 638.366531 278.071895 
L 643.255648 305.772256 
L 647.166942 328.644219 
L 647.166942 328.644219 
" style="fill:none;stroke:#800000;stroke-dasharray:7.4,3.2;stroke-dashoffset:0;stroke-width:2;"/>
   </g>
   <g id="line2d_26">
    <path clip-path="url(#p6394050394)" d="M 159.233058 114.33719 
L 163.144352 115.410863 
L 167.055645 118.521507 
L 170.966939 123.651745 
L 174.878232 130.757327 
L 178.789526 139.788336 
L 182.70082 150.670953 
L 186.612113 163.326547 
L 190.523407 177.662589 
L 195.412524 197.900637 
L 202.257288 229.592818 
L 207.146405 254.673958 
L 214.968993 297.727539 
L 229.636344 384.596119 
L 239.414578 443.469477 
L 245.281518 477.522562 
L 251.148459 510.302569 
L 255.059753 530.980436 
L 258.971046 550.59189 
L 262.88234 568.99315 
L 265.81581 581.838464 
L 268.74928 593.987434 
L 271.682751 605.294151 
L 275.594044 618.860978 
L 278.527515 627.884156 
L 280.483161 633.346428 
L 283.416632 640.732373 
L 285.372278 644.985553 
L 287.327925 648.873702 
L 289.283572 652.17191 
L 291.239219 655.067271 
L 293.194866 657.385287 
L 295.150513 659.266119 
L 296.128336 659.999868 
L 298.083983 661.077775 
L 299.061806 661.439764 
L 300.03963 661.673198 
L 301.017453 661.756367 
L 301.995277 661.726266 
L 302.9731 661.572039 
L 303.950923 661.303598 
L 304.928747 660.881876 
L 306.884394 659.66311 
L 307.862217 658.894651 
L 309.817864 656.907266 
L 311.773511 654.464357 
L 313.729157 651.476487 
L 315.684804 648.04684 
L 317.640451 644.080599 
L 320.573921 637.320876 
L 323.507392 629.454635 
L 325.463038 623.63101 
L 328.396509 614.171895 
L 332.307802 600.020792 
L 336.219096 584.289303 
L 340.13039 567.092183 
L 345.019507 543.656648 
L 350.886447 513.252928 
L 353.819918 497.136584 
L 356.753388 480.744255 
L 367.509445 417.588386 
L 378.265503 352.562025 
L 389.999384 284.144332 
L 397.821971 242.138828 
L 404.666735 208.917164 
L 407.600205 196.08614 
L 409.555852 187.655097 
L 414.444969 168.930514 
L 417.37844 158.599003 
L 422.267557 144.071757 
L 425.201027 136.385637 
L 429.112321 128.058489 
L 433.023614 121.672567 
L 434.979261 119.513626 
L 435.957084 118.265287 
L 436.934908 117.273013 
L 438.890555 116.129594 
L 439.868378 115.387913 
L 440.846201 114.897448 
L 442.801848 114.777918 
L 443.779672 114.542802 
L 444.757495 114.554547 
L 446.713142 115.463651 
L 447.690965 115.740942 
L 448.668789 116.25706 
L 450.624436 118.186217 
L 451.602259 118.969859 
L 452.580082 119.983064 
L 456.491376 125.713483 
L 460.40267 133.400228 
L 464.313963 142.990137 
L 469.203081 157.735588 
L 473.114374 171.314146 
L 477.025668 186.517219 
L 481.914785 207.753099 
L 483.870432 216.51058 
L 489.737372 245.799972 
L 492.670843 261.098037 
L 500.49343 304.674787 
L 515.160781 391.941758 
L 522.005545 433.251654 
L 532.761603 495.568873 
L 537.65072 522.05094 
L 543.51766 551.693644 
L 546.45113 565.560307 
L 550.362424 582.879243 
L 553.295894 594.988369 
L 557.207188 609.678251 
L 560.140658 619.608035 
L 562.096305 625.655774 
L 565.029775 634.000633 
L 567.963245 641.253189 
L 569.918892 645.487917 
L 571.874539 649.279894 
L 573.830186 652.555823 
L 575.785833 655.358057 
L 577.74148 657.649861 
L 579.697126 659.440852 
L 580.67495 660.15547 
L 581.652773 660.731386 
L 583.60842 661.498562 
L 584.586244 661.701515 
L 585.564067 661.777051 
L 586.54189 661.702802 
L 587.519714 661.514756 
L 589.475361 660.778643 
L 591.431007 659.489455 
L 593.386654 657.743874 
L 595.342301 655.43721 
L 597.297948 652.69469 
L 599.253595 649.388801 
L 601.209242 645.669583 
L 603.164888 641.388952 
L 606.098359 634.194613 
L 609.031829 625.914492 
L 610.987476 619.790073 
L 613.920946 609.937059 
L 617.83224 595.275809 
L 621.743533 579.070442 
L 625.654827 561.439375 
L 630.543944 537.505227 
L 635.433061 511.863444 
L 638.366531 495.860266 
L 645.211295 456.852187 
L 647.166942 445.164134 
L 647.166942 445.164134 
" style="fill:none;stroke:#00d4ff;stroke-linecap:square;stroke-width:2;"/>
   </g>
   <g id="line2d_27">
    <path clip-path="url(#p6394050394)" d="M 159.233058 663.260973 
L 161.188705 662.958637 
L 163.144352 663.262434 
L 165.099998 662.957633 
L 167.055645 663.262796 
L 169.011292 662.957668 
L 170.966939 663.262058 
L 172.922586 662.958783 
L 174.878232 663.260223 
L 176.833879 662.960924 
L 178.789526 663.257312 
L 180.745173 662.964015 
L 183.678643 663.164467 
L 184.656467 662.968132 
L 185.63429 663.046134 
L 186.612113 663.248319 
L 187.589937 663.176205 
L 188.56776 662.973163 
L 189.545584 663.034222 
L 190.523407 663.242303 
L 191.501231 663.187501 
L 192.479054 662.979215 
L 193.456877 663.022848 
L 194.434701 663.235332 
L 195.412524 663.198228 
L 196.390348 662.986111 
L 197.368171 663.012007 
L 198.345994 663.227449 
L 199.323818 663.208327 
L 200.301641 662.993828 
L 201.279465 663.001775 
L 202.257288 663.218692 
L 203.235112 663.217751 
L 204.212935 663.002351 
L 205.190758 662.99225 
L 206.168582 663.209149 
L 207.146405 663.226399 
L 208.124229 663.011565 
L 209.102052 662.983459 
L 210.079875 663.198858 
L 211.057699 663.234251 
L 212.035522 663.021524 
L 213.013346 662.975562 
L 213.991169 663.187928 
L 214.968993 663.241213 
L 215.946816 663.032025 
L 216.924639 662.968488 
L 217.902463 663.176381 
L 218.880286 663.247275 
L 219.85811 663.043105 
L 220.835933 662.962373 
L 221.813756 663.16433 
L 222.79158 663.25237 
L 224.747227 662.95718 
L 226.702874 663.256478 
L 228.65852 662.953032 
L 230.614167 663.259564 
L 232.569814 662.949884 
L 234.525461 663.261608 
L 236.481108 662.947806 
L 238.436755 663.262597 
L 240.392401 662.94679 
L 242.348048 663.262525 
L 244.303695 662.946807 
L 246.259342 663.261391 
L 248.214989 662.947963 
L 250.170635 663.259206 
L 252.126282 662.950102 
L 254.081929 663.255979 
L 257.015399 663.046998 
L 257.993223 663.251743 
L 258.971046 663.165048 
L 259.94887 662.957579 
L 260.926693 663.034577 
L 261.904516 663.246509 
L 262.88234 663.176569 
L 263.860163 662.962832 
L 264.837987 663.022643 
L 265.81581 663.240333 
L 266.793634 663.187625 
L 267.771457 662.969044 
L 268.74928 663.011232 
L 269.727104 663.233247 
L 270.704927 663.19815 
L 271.682751 662.97615 
L 272.660574 663.000415 
L 273.638397 663.225302 
L 274.616221 663.208073 
L 275.594044 662.984148 
L 276.571868 662.990307 
L 277.549691 663.216554 
L 278.527515 663.217333 
L 279.505338 662.992941 
L 280.483161 662.980918 
L 281.460985 663.20704 
L 282.438808 663.225885 
L 283.416632 663.002541 
L 284.394455 662.972407 
L 285.372278 663.196869 
L 286.350102 663.23364 
L 287.327925 663.012798 
L 288.305749 662.964722 
L 289.283572 663.186075 
L 290.261396 663.24056 
L 291.239219 663.023684 
L 292.217042 662.957992 
L 293.194866 663.17477 
L 294.172689 663.246588 
L 295.150513 663.035098 
L 296.128336 662.95219 
L 297.106159 663.162968 
L 298.083983 663.251706 
L 300.03963 662.947452 
L 301.995277 663.255861 
L 303.950923 662.94378 
L 305.90657 663.259034 
L 307.862217 662.941168 
L 309.817864 663.261194 
L 311.773511 662.939631 
L 313.729157 663.262336 
L 315.684804 662.939165 
L 317.640451 663.262448 
L 319.596098 662.939875 
L 321.551745 663.26153 
L 323.507392 662.941655 
L 325.463038 663.259584 
L 327.418685 662.944565 
L 329.374332 663.256635 
L 331.329979 662.948453 
L 334.263449 663.161709 
L 335.241273 662.953439 
L 336.219096 663.038363 
L 337.196919 663.247776 
L 338.174743 663.173667 
L 339.152566 662.95942 
L 340.13039 663.02711 
L 341.108213 663.241932 
L 342.086037 663.185172 
L 343.06386 662.966383 
L 344.041683 663.016392 
L 345.019507 663.235188 
L 345.99733 663.19613 
L 346.975154 662.974251 
L 347.952977 663.006286 
L 348.9308 663.22761 
L 349.908624 663.206443 
L 350.886447 662.982945 
L 351.864271 662.996826 
L 352.842094 663.219216 
L 353.819918 663.216081 
L 354.797741 662.99248 
L 355.775564 662.988153 
L 356.753388 663.210101 
L 357.731211 663.224944 
L 358.709035 663.002739 
L 359.686858 662.980277 
L 360.664681 663.200288 
L 361.642505 663.233008 
L 362.620328 663.013696 
L 363.598152 662.973274 
L 364.575975 663.189868 
L 365.553799 663.240185 
L 366.531622 663.025197 
L 367.509445 662.96714 
L 368.487269 663.178898 
L 369.465092 663.246446 
L 370.442916 663.037247 
L 371.420739 662.961974 
L 372.398562 663.167464 
L 373.376386 663.251734 
L 375.332033 662.957767 
L 377.287679 663.256019 
L 379.243326 662.954612 
L 381.198973 663.259275 
L 383.15462 662.952473 
L 385.110267 663.261474 
L 387.065914 662.95136 
L 389.02156 663.262605 
L 390.977207 662.951346 
L 392.932854 663.262657 
L 394.888501 662.952318 
L 396.844148 663.261629 
L 398.799795 662.954436 
L 400.755441 663.259533 
L 402.711088 662.957498 
L 404.666735 663.256375 
L 407.600205 663.056847 
L 408.578029 663.252185 
L 409.555852 663.16697 
L 410.533676 662.966705 
L 411.511499 663.045202 
L 412.489322 663.246979 
L 413.467146 663.178921 
L 414.444969 662.972758 
L 415.422793 663.034029 
L 416.400616 663.240805 
L 417.37844 663.19034 
L 418.356263 662.979728 
L 419.334086 663.023378 
L 420.31191 663.233705 
L 421.289733 663.201137 
L 422.267557 662.987518 
L 423.24538 663.013284 
L 424.223203 663.225716 
L 425.201027 663.211267 
L 426.17885 662.996139 
L 427.156674 663.003847 
L 428.134497 663.216898 
L 429.112321 663.220646 
L 430.090144 663.005483 
L 431.067967 662.995077 
L 432.045791 663.207298 
L 433.023614 663.229219 
L 434.001438 663.01557 
L 434.979261 662.987155 
L 435.957084 663.197017 
L 436.934908 663.236905 
L 437.912731 663.026231 
L 438.890555 662.980017 
L 439.868378 663.186089 
L 440.846201 663.243669 
L 441.824025 663.037437 
L 442.801848 662.973785 
L 443.779672 663.17462 
L 444.757495 663.249462 
L 445.735319 663.049106 
L 446.713142 662.968436 
L 448.668789 663.254262 
L 450.624436 662.964049 
L 452.580082 663.258015 
L 454.535729 662.96069 
L 456.491376 663.260699 
L 458.447023 662.958283 
L 460.40267 663.262301 
L 462.358317 662.956955 
L 464.313963 663.26281 
L 466.26961 662.956612 
L 468.225257 663.262222 
L 470.180904 662.957381 
L 472.136551 663.260543 
L 474.092198 662.959133 
L 476.047844 663.25778 
L 478.003491 662.961926 
L 480.936962 663.161807 
L 481.914785 662.965698 
L 482.892608 663.047415 
L 483.870432 663.249105 
L 484.848255 663.17362 
L 485.826079 662.970482 
L 486.803902 663.035377 
L 487.781725 663.243243 
L 488.759549 663.184979 
L 489.737372 662.976215 
L 490.715196 663.023815 
L 491.693019 663.236418 
L 492.670843 663.195805 
L 493.648666 662.982839 
L 494.626489 663.012775 
L 495.604313 663.228672 
L 496.582136 663.20602 
L 497.55996 662.990307 
L 498.537783 663.002372 
L 499.515606 663.220072 
L 500.49343 663.215561 
L 501.471253 662.998595 
L 502.449077 662.992657 
L 503.4269 663.210651 
L 504.404723 663.224384 
L 505.382547 663.007657 
L 506.36037 662.983709 
L 507.338194 663.200501 
L 508.316017 663.232397 
L 509.293841 663.017379 
L 510.271664 662.975548 
L 511.249487 663.189662 
L 512.227311 663.239574 
L 513.205134 663.027752 
L 514.182958 662.96825 
L 515.160781 663.178229 
L 516.138604 663.24583 
L 517.116428 663.038623 
L 518.094251 662.961847 
L 519.072075 663.166267 
L 520.049898 663.251155 
L 522.005545 662.956455 
L 523.961192 663.255499 
L 525.916839 662.952046 
L 527.872485 663.258834 
L 529.828132 662.948652 
L 531.783779 663.261142 
L 533.739426 662.946312 
L 535.695073 663.262401 
L 537.65072 662.944978 
L 539.606366 663.262607 
L 541.562013 662.944818 
L 543.51766 663.261759 
L 545.473307 662.945673 
L 547.428954 663.259859 
L 549.384601 662.947669 
L 551.340247 663.256929 
L 553.295894 662.950649 
L 556.229365 663.160658 
L 557.207188 662.954697 
L 558.185011 663.036818 
L 559.162835 663.248049 
L 560.140658 663.172333 
L 561.118482 662.959757 
L 562.096305 663.024856 
L 563.074128 663.242162 
L 564.051952 663.183589 
L 565.029775 662.965815 
L 566.007599 663.013439 
L 566.985422 663.235367 
L 567.963245 663.19435 
L 568.941069 662.972832 
L 569.918892 663.002621 
L 570.896716 663.22771 
L 571.874539 663.204514 
L 572.852363 662.980681 
L 573.830186 662.992446 
L 574.808009 663.219235 
L 575.785833 663.21405 
L 576.763656 662.989408 
L 577.74148 662.983039 
L 578.719303 663.21 
L 579.697126 663.222879 
L 580.67495 662.998887 
L 581.652773 662.974414 
L 582.630597 663.200062 
L 583.60842 663.230951 
L 584.586244 663.00913 
L 585.564067 662.96674 
L 586.54189 663.189532 
L 587.519714 663.238191 
L 588.497537 663.019984 
L 589.475361 662.959925 
L 590.453184 663.178429 
L 591.431007 663.244565 
L 592.408831 663.031399 
L 593.386654 662.954075 
L 594.364478 663.166854 
L 595.342301 663.250026 
L 597.297948 662.949221 
L 599.253595 663.254541 
L 601.209242 662.945396 
L 603.164888 663.258071 
L 605.120535 662.942708 
L 607.076182 663.260592 
L 609.031829 662.941034 
L 610.987476 663.262095 
L 612.943123 662.940497 
L 614.898769 663.262565 
L 616.854416 662.940995 
L 618.810063 663.261996 
L 620.76571 662.942639 
L 622.721357 663.260397 
L 624.677004 662.945345 
L 626.63265 663.257775 
L 628.588297 662.949133 
L 631.521768 663.158743 
L 632.499591 662.953962 
L 633.477414 663.042904 
L 634.455238 663.249536 
L 635.433061 663.170879 
L 636.410885 662.959796 
L 637.388708 663.031557 
L 638.366531 663.243975 
L 639.344355 663.182536 
L 640.322178 662.966583 
L 641.300002 663.020753 
L 642.277825 663.237511 
L 643.255648 663.193657 
L 644.233472 662.974283 
L 645.211295 663.010517 
L 646.189119 663.230168 
L 647.166942 663.204178 
L 647.166942 663.204178 
" style="fill:none;stroke:#ffe600;stroke-linecap:square;stroke-width:2;"/>
   </g>
   <g id="line2d_28">
    <path clip-path="url(#p6394050394)" d="M 159.233058 663.262152 
L 160.210881 663.183626 
L 161.188705 662.98155 
L 162.166528 662.654561 
L 163.144352 662.189207 
L 165.099998 660.890467 
L 166.077822 660.061806 
L 168.033469 657.975059 
L 169.989115 655.450536 
L 171.944762 652.35261 
L 173.900409 648.855122 
L 175.856056 644.769252 
L 177.811703 640.32474 
L 180.745173 632.655625 
L 182.70082 627.000883 
L 185.63429 617.729362 
L 188.56776 607.404365 
L 190.523407 600.056698 
L 194.434701 584.176109 
L 198.345994 566.843866 
L 203.235112 543.250094 
L 206.168582 528.352492 
L 213.013346 491.293773 
L 219.85811 451.734511 
L 223.769403 428.493824 
L 228.65852 399.193827 
L 239.414578 334.380233 
L 251.148459 267.49117 
L 258.971046 227.18514 
L 265.81581 195.896974 
L 267.771457 187.889002 
L 271.682751 172.709727 
L 274.616221 162.181555 
L 279.505338 147.318319 
L 282.438808 139.421348 
L 286.350102 130.805816 
L 290.261396 124.123078 
L 294.172689 119.421422 
L 298.083983 116.735635 
L 300.03963 116.466163 
L 301.017453 116.173991 
L 301.995277 116.086988 
L 305.90657 117.477322 
L 309.817864 120.897391 
L 313.729157 126.319666 
L 317.640451 133.705719 
L 321.551745 143.00136 
L 325.463038 154.135993 
L 329.374332 167.02768 
L 334.263449 185.621504 
L 339.152566 206.575843 
L 341.108213 215.230325 
L 345.99733 239.103101 
L 352.842094 275.112671 
L 360.664681 319.57587 
L 373.376386 395.745774 
L 378.265503 425.34025 
L 387.065914 477.075142 
L 394.888501 520.384538 
L 400.755441 550.280163 
L 403.688912 564.288511 
L 407.600205 581.820553 
L 410.533676 594.108616 
L 414.444969 609.039417 
L 418.356263 622.331111 
L 421.289733 631.156101 
L 423.24538 636.445651 
L 426.17885 643.618258 
L 429.112321 649.668801 
L 431.067967 653.082453 
L 433.023614 656.04741 
L 434.979261 658.480329 
L 436.934908 660.439538 
L 438.890555 661.872641 
L 440.846201 662.812312 
L 441.824025 663.088878 
L 442.801848 663.234244 
L 443.779672 663.256075 
L 444.757495 663.147761 
L 445.735319 662.910474 
L 446.713142 662.554527 
L 447.690965 662.070044 
L 449.646612 660.692937 
L 451.602259 658.851312 
L 453.557906 656.452282 
L 455.513553 653.623271 
L 457.4692 650.219614 
L 459.424846 646.42432 
L 462.358317 639.73989 
L 464.313963 634.69019 
L 467.247434 626.340377 
L 470.180904 616.913112 
L 472.136551 610.094979 
L 475.070021 599.193943 
L 478.981315 583.217345 
L 482.892608 565.793776 
L 487.781725 542.101329 
L 493.648666 511.440121 
L 496.582136 495.224778 
L 500.49343 473.032584 
L 504.404723 450.221203 
L 510.271664 415.40671 
L 520.049898 356.231776 
L 528.850309 304.473689 
L 537.65072 256.040315 
L 541.562013 235.960498 
L 544.495484 221.459419 
L 551.340247 190.87213 
L 554.273718 179.317299 
L 556.229365 171.778521 
L 561.118482 155.419917 
L 564.051952 146.56178 
L 568.941069 134.654047 
L 571.874539 128.574901 
L 573.830186 125.527086 
L 574.808009 123.847618 
L 575.785833 122.469599 
L 577.74148 120.424427 
L 578.719303 119.241841 
L 579.697126 118.358548 
L 581.652773 117.332194 
L 582.630597 116.65563 
L 583.60842 116.273073 
L 585.564067 116.272494 
L 586.54189 116.107442 
L 587.519714 116.230631 
L 589.475361 117.257648 
L 590.453184 117.603836 
L 591.431007 118.231099 
L 593.386654 120.280785 
L 594.364478 121.134788 
L 595.342301 122.260449 
L 597.297948 125.320024 
L 598.275771 126.674633 
L 599.253595 128.290753 
L 603.164888 136.278824 
L 608.054006 149.134001 
L 611.965299 161.277597 
L 615.876593 175.130167 
L 619.787887 190.588809 
L 623.69918 207.537025 
L 628.588297 230.720466 
L 630.543944 240.223649 
L 638.366531 281.914563 
L 647.166942 332.698697 
L 647.166942 332.698697 
" style="fill:none;stroke:#800000;stroke-linecap:square;stroke-width:2;"/>
   </g>
   <g id="patch_3">
    <path d="M 108 720.9 
L 108 56.7 
" style="fill:none;stroke:#000000;stroke-linecap:square;stroke-linejoin:miter;stroke-width:0.8;"/>
   </g>
   <g id="patch_4">
    <path d="M 698.4 720.9 
L 698.4 56.7 
" style="fill:none;stroke:#000000;stroke-linecap:square;stroke-linejoin:miter;stroke-width:0.8;"/>
   </g>
   <g id="patch_5">
    <path d="M 108 720.9 
L 698.4 720.9 
" style="fill:none;stroke:#000000;stroke-linecap:square;stroke-linejoin:miter;stroke-width:0.8;"/>
   </g>
   <g id="patch_6">
    <path d="M 108 56.7 
L 698.4 56.7 
" style="fill:none;stroke:#000000;stroke-linecap:square;stroke-linejoin:miter;stroke-width:0.8;"/>
   </g>
   <g id="legend_1">
    <g id="patch_7">
     <path d="M 595.295351 435.692504 
L 684.4 435.692504 
Q 688.4 435.692504 688.4 431.692504 
L 688.4 345.907496 
Q 688.4 341.907496 684.4 341.907496 
L 595.295351 341.907496 
Q 591.295351 341.907496 591.295351 345.907496 
L 591.295351 431.692504 
Q 591.295351 435.692504 595.295351 435.692504 
z
" style="fill:#ffffff;opacity:0.8;stroke:#cccccc;stroke-linejoin:miter;"/>
    </g>
    <g id="line2d_29">
     <path d="M 599.295351 358.104371 
L 639.295351 358.104371 
" style="fill:none;stroke:#00d4ff;stroke-linecap:square;stroke-width:2;"/>
    </g>
    <g id="line2d_30"/>
    <g id="text_15">
     <!-- $0_{0}$ -->
     <g transform="translate(655.295351 365.104371)scale(0.2 -0.2)">
      <use transform="scale(0.996264)" xlink:href="#CMR17-48"/>
      <use transform="translate(45.690477 -14.943915)scale(0.697382)" xlink:href="#CMR17-48"/>
     </g>
    </g>
    <g id="line2d_31">
     <path d="M 599.295351 387.460621 
L 639.295351 387.460621 
" style="fill:none;stroke:#ffe600;stroke-linecap:square;stroke-width:2;"/>
    </g>
    <g id="line2d_32"/>
    <g id="text_16">
     <!-- $10_{0}$ -->
     <g transform="translate(655.295351 394.460621)scale(0.2 -0.2)">
      <use transform="scale(0.996264)" xlink:href="#CMR17-49"/>
      <use transform="translate(45.690477 0)scale(0.996264)" xlink:href="#CMR17-48"/>
      <use transform="translate(91.380954 -14.943915)scale(0.697382)" xlink:href="#CMR17-48"/>
     </g>
    </g>
    <g id="line2d_33">
     <path d="M 599.295351 416.816871 
L 639.295351 416.816871 
" style="fill:none;stroke:#800000;stroke-linecap:square;stroke-width:2;"/>
    </g>
    <g id="line2d_34"/>
    <g id="text_17">
     <!-- $20_{0}$ -->
     <g transform="translate(655.295351 423.816871)scale(0.2 -0.2)">
      <use transform="scale(0.996264)" xlink:href="#CMR17-50"/>
      <use transform="translate(45.690477 0)scale(0.996264)" xlink:href="#CMR17-48"/>
      <use transform="translate(91.380954 -14.943915)scale(0.697382)" xlink:href="#CMR17-48"/>
     </g>
    </g>
   </g>
  </g>
 </g>
 <defs>
  <clipPath id="p6394050394">
   <rect height="664.2" width="590.4" x="108" y="56.7"/>
  </clipPath>
 </defs>
</svg>
