<?xml version="1.0" encoding="utf-8" standalone="no"?>
<!DOCTYPE svg PUBLIC "-//W3C//DTD SVG 1.1//EN"
  "http://www.w3.org/Graphics/SVG/1.1/DTD/svg11.dtd">
<!-- Created with matplotlib (https://matplotlib.org/) -->
<svg height="576pt" version="1.1" viewBox="0 0 512.25 576" width="512.25pt" xmlns="http://www.w3.org/2000/svg" xmlns:xlink="http://www.w3.org/1999/xlink">
 <metadata>
  <rdf:RDF xmlns:cc="http://creativecommons.org/ns#" xmlns:dc="http://purl.org/dc/elements/1.1/" xmlns:rdf="http://www.w3.org/1999/02/22-rdf-syntax-ns#">
   <cc:Work>
    <dc:type rdf:resource="http://purl.org/dc/dcmitype/StillImage"/>
    <dc:date>2020-09-03T16:15:41.109629</dc:date>
    <dc:format>image/svg+xml</dc:format>
    <dc:creator>
     <cc:Agent>
      <dc:title>Matplotlib v3.3.1, https://matplotlib.org/</dc:title>
     </cc:Agent>
    </dc:creator>
   </cc:Work>
  </rdf:RDF>
 </metadata>
 <defs>
  <style type="text/css">*{stroke-linecap:butt;stroke-linejoin:round;}</style>
 </defs>
 <g id="figure_1">
  <g id="patch_1">
   <path d="M 0 576 
L 512.25 576 
L 512.25 0 
L 0 0 
z
" style="fill:#ffffff;"/>
  </g>
  <g id="axes_1">
   <g id="patch_2">
    <path d="M 76.8375 512.64 
L 496.8825 512.64 
L 496.8825 40.32 
L 76.8375 40.32 
z
" style="fill:#ffffff;"/>
   </g>
   <g id="matplotlib.axis_1">
    <g id="xtick_1">
     <g id="line2d_1">
      <path clip-path="url(#p54677cc878)" d="M 113.114027 512.64 
L 113.114027 40.32 
" style="fill:none;stroke:#e6e6e6;stroke-linecap:square;stroke-width:0.8;"/>
     </g>
     <g id="line2d_2">
      <defs>
       <path d="M 0 0 
L 0 -3.5 
" id="mc42a981d27" style="stroke:#000000;stroke-width:0.8;"/>
      </defs>
      <g>
       <use style="stroke:#000000;stroke-width:0.8;" x="113.114027" xlink:href="#mc42a981d27" y="512.64"/>
      </g>
     </g>
     <g id="text_1">
      <!-- 0 -->
      <g transform="translate(108.342152 527.537656)scale(0.15 -0.15)">
       <defs>
        <path d="M 31.78125 66.40625 
Q 24.171875 66.40625 20.328125 58.90625 
Q 16.5 51.421875 16.5 36.375 
Q 16.5 21.390625 20.328125 13.890625 
Q 24.171875 6.390625 31.78125 6.390625 
Q 39.453125 6.390625 43.28125 13.890625 
Q 47.125 21.390625 47.125 36.375 
Q 47.125 51.421875 43.28125 58.90625 
Q 39.453125 66.40625 31.78125 66.40625 
z
M 31.78125 74.21875 
Q 44.046875 74.21875 50.515625 64.515625 
Q 56.984375 54.828125 56.984375 36.375 
Q 56.984375 17.96875 50.515625 8.265625 
Q 44.046875 -1.421875 31.78125 -1.421875 
Q 19.53125 -1.421875 13.0625 8.265625 
Q 6.59375 17.96875 6.59375 36.375 
Q 6.59375 54.828125 13.0625 64.515625 
Q 19.53125 74.21875 31.78125 74.21875 
z
" id="DejaVuSans-48"/>
       </defs>
       <use xlink:href="#DejaVuSans-48"/>
      </g>
     </g>
    </g>
    <g id="xtick_2">
     <g id="line2d_3">
      <path clip-path="url(#p54677cc878)" d="M 199.51268 512.64 
L 199.51268 40.32 
" style="fill:none;stroke:#e6e6e6;stroke-linecap:square;stroke-width:0.8;"/>
     </g>
     <g id="line2d_4">
      <g>
       <use style="stroke:#000000;stroke-width:0.8;" x="199.51268" xlink:href="#mc42a981d27" y="512.64"/>
      </g>
     </g>
     <g id="text_2">
      <!-- 500 -->
      <g transform="translate(185.197055 527.537656)scale(0.15 -0.15)">
       <defs>
        <path d="M 10.796875 72.90625 
L 49.515625 72.90625 
L 49.515625 64.59375 
L 19.828125 64.59375 
L 19.828125 46.734375 
Q 21.96875 47.46875 24.109375 47.828125 
Q 26.265625 48.1875 28.421875 48.1875 
Q 40.625 48.1875 47.75 41.5 
Q 54.890625 34.8125 54.890625 23.390625 
Q 54.890625 11.625 47.5625 5.09375 
Q 40.234375 -1.421875 26.90625 -1.421875 
Q 22.3125 -1.421875 17.546875 -0.640625 
Q 12.796875 0.140625 7.71875 1.703125 
L 7.71875 11.625 
Q 12.109375 9.234375 16.796875 8.0625 
Q 21.484375 6.890625 26.703125 6.890625 
Q 35.15625 6.890625 40.078125 11.328125 
Q 45.015625 15.765625 45.015625 23.390625 
Q 45.015625 31 40.078125 35.4375 
Q 35.15625 39.890625 26.703125 39.890625 
Q 22.75 39.890625 18.8125 39.015625 
Q 14.890625 38.140625 10.796875 36.28125 
z
" id="DejaVuSans-53"/>
       </defs>
       <use xlink:href="#DejaVuSans-53"/>
       <use x="63.623047" xlink:href="#DejaVuSans-48"/>
       <use x="127.246094" xlink:href="#DejaVuSans-48"/>
      </g>
     </g>
    </g>
    <g id="xtick_3">
     <g id="line2d_5">
      <path clip-path="url(#p54677cc878)" d="M 285.911333 512.64 
L 285.911333 40.32 
" style="fill:none;stroke:#e6e6e6;stroke-linecap:square;stroke-width:0.8;"/>
     </g>
     <g id="line2d_6">
      <g>
       <use style="stroke:#000000;stroke-width:0.8;" x="285.911333" xlink:href="#mc42a981d27" y="512.64"/>
      </g>
     </g>
     <g id="text_3">
      <!-- 1000 -->
      <g transform="translate(266.823833 527.537656)scale(0.15 -0.15)">
       <defs>
        <path d="M 12.40625 8.296875 
L 28.515625 8.296875 
L 28.515625 63.921875 
L 10.984375 60.40625 
L 10.984375 69.390625 
L 28.421875 72.90625 
L 38.28125 72.90625 
L 38.28125 8.296875 
L 54.390625 8.296875 
L 54.390625 0 
L 12.40625 0 
z
" id="DejaVuSans-49"/>
       </defs>
       <use xlink:href="#DejaVuSans-49"/>
       <use x="63.623047" xlink:href="#DejaVuSans-48"/>
       <use x="127.246094" xlink:href="#DejaVuSans-48"/>
       <use x="190.869141" xlink:href="#DejaVuSans-48"/>
      </g>
     </g>
    </g>
    <g id="xtick_4">
     <g id="line2d_7">
      <path clip-path="url(#p54677cc878)" d="M 372.309986 512.64 
L 372.309986 40.32 
" style="fill:none;stroke:#e6e6e6;stroke-linecap:square;stroke-width:0.8;"/>
     </g>
     <g id="line2d_8">
      <g>
       <use style="stroke:#000000;stroke-width:0.8;" x="372.309986" xlink:href="#mc42a981d27" y="512.64"/>
      </g>
     </g>
     <g id="text_4">
      <!-- 1500 -->
      <g transform="translate(353.222486 527.537656)scale(0.15 -0.15)">
       <use xlink:href="#DejaVuSans-49"/>
       <use x="63.623047" xlink:href="#DejaVuSans-53"/>
       <use x="127.246094" xlink:href="#DejaVuSans-48"/>
       <use x="190.869141" xlink:href="#DejaVuSans-48"/>
      </g>
     </g>
    </g>
    <g id="xtick_5">
     <g id="line2d_9">
      <path clip-path="url(#p54677cc878)" d="M 458.708639 512.64 
L 458.708639 40.32 
" style="fill:none;stroke:#e6e6e6;stroke-linecap:square;stroke-width:0.8;"/>
     </g>
     <g id="line2d_10">
      <g>
       <use style="stroke:#000000;stroke-width:0.8;" x="458.708639" xlink:href="#mc42a981d27" y="512.64"/>
      </g>
     </g>
     <g id="text_5">
      <!-- 2000 -->
      <g transform="translate(439.621139 527.537656)scale(0.15 -0.15)">
       <defs>
        <path d="M 19.1875 8.296875 
L 53.609375 8.296875 
L 53.609375 0 
L 7.328125 0 
L 7.328125 8.296875 
Q 12.9375 14.109375 22.625 23.890625 
Q 32.328125 33.6875 34.8125 36.53125 
Q 39.546875 41.84375 41.421875 45.53125 
Q 43.3125 49.21875 43.3125 52.78125 
Q 43.3125 58.59375 39.234375 62.25 
Q 35.15625 65.921875 28.609375 65.921875 
Q 23.96875 65.921875 18.8125 64.3125 
Q 13.671875 62.703125 7.8125 59.421875 
L 7.8125 69.390625 
Q 13.765625 71.78125 18.9375 73 
Q 24.125 74.21875 28.421875 74.21875 
Q 39.75 74.21875 46.484375 68.546875 
Q 53.21875 62.890625 53.21875 53.421875 
Q 53.21875 48.921875 51.53125 44.890625 
Q 49.859375 40.875 45.40625 35.40625 
Q 44.1875 33.984375 37.640625 27.21875 
Q 31.109375 20.453125 19.1875 8.296875 
z
" id="DejaVuSans-50"/>
       </defs>
       <use xlink:href="#DejaVuSans-50"/>
       <use x="63.623047" xlink:href="#DejaVuSans-48"/>
       <use x="127.246094" xlink:href="#DejaVuSans-48"/>
       <use x="190.869141" xlink:href="#DejaVuSans-48"/>
      </g>
     </g>
    </g>
    <g id="text_6">
     <!-- $z(\AA)$ -->
     <g transform="translate(261.985 556.207969)scale(0.25 -0.25)">
      <defs>
       <path d="M 11.625 54.6875 
L 54.296875 54.6875 
L 52.6875 46.484375 
L 11.53125 7.171875 
L 45.515625 7.171875 
L 44.09375 0 
L -0.296875 0 
L 1.3125 8.203125 
L 42.484375 47.515625 
L 10.203125 47.515625 
z
" id="DejaVuSans-Oblique-122"/>
       <path d="M 31 75.875 
Q 24.46875 64.65625 21.28125 53.65625 
Q 18.109375 42.671875 18.109375 31.390625 
Q 18.109375 20.125 21.3125 9.0625 
Q 24.515625 -2 31 -13.1875 
L 23.1875 -13.1875 
Q 15.875 -1.703125 12.234375 9.375 
Q 8.59375 20.453125 8.59375 31.390625 
Q 8.59375 42.28125 12.203125 53.3125 
Q 15.828125 64.359375 23.1875 75.875 
z
" id="DejaVuSans-40"/>
       <path d="M 49.8125 79.390625 
Q 49.8125 82.46875 47.625 84.640625 
Q 45.453125 86.8125 42.390625 86.8125 
Q 39.265625 86.8125 37.140625 84.6875 
Q 35.015625 82.5625 35.015625 79.390625 
Q 35.015625 76.3125 37.140625 74.15625 
Q 39.265625 72.015625 42.390625 72.015625 
Q 45.453125 72.015625 47.625 74.15625 
Q 49.8125 76.3125 49.8125 79.390625 
z
M 34.421875 68.703125 
Q 31.78125 70.515625 30.390625 73.265625 
Q 29 76.03125 29 79.390625 
Q 29 84.96875 32.90625 88.890625 
Q 36.8125 92.828125 42.390625 92.828125 
Q 47.953125 92.828125 51.875 88.890625 
Q 55.8125 84.96875 55.8125 79.390625 
Q 55.8125 75.53125 54.03125 72.546875 
Q 52.25 69.578125 48.875 67.828125 
L 61.53125 0 
L 51.21875 0 
L 48.1875 18.703125 
L 15.375 18.703125 
L 5.078125 0 
L -5.328125 0 
z
M 40.375 63.1875 
L 19.921875 26.90625 
L 46.6875 26.90625 
z
" id="DejaVuSans-Oblique-197"/>
       <path d="M 8.015625 75.875 
L 15.828125 75.875 
Q 23.140625 64.359375 26.78125 53.3125 
Q 30.421875 42.28125 30.421875 31.390625 
Q 30.421875 20.453125 26.78125 9.375 
Q 23.140625 -1.703125 15.828125 -13.1875 
L 8.015625 -13.1875 
Q 14.5 -2 17.703125 9.0625 
Q 20.90625 20.125 20.90625 31.390625 
Q 20.90625 42.671875 17.703125 53.65625 
Q 14.5 64.65625 8.015625 75.875 
z
" id="DejaVuSans-41"/>
      </defs>
      <use transform="translate(0 0.171875)" xlink:href="#DejaVuSans-Oblique-122"/>
      <use transform="translate(52.490234 0.171875)" xlink:href="#DejaVuSans-40"/>
      <use transform="translate(91.503906 0.171875)" xlink:href="#DejaVuSans-Oblique-197"/>
      <use transform="translate(159.912109 0.171875)" xlink:href="#DejaVuSans-41"/>
     </g>
    </g>
   </g>
   <g id="matplotlib.axis_2">
    <g id="ytick_1">
     <g id="line2d_11">
      <path clip-path="url(#p54677cc878)" d="M 76.8375 471.653563 
L 496.8825 471.653563 
" style="fill:none;stroke:#e6e6e6;stroke-linecap:square;stroke-width:0.8;"/>
     </g>
     <g id="line2d_12">
      <defs>
       <path d="M 0 0 
L 3.5 0 
" id="m06fa07fef0" style="stroke:#000000;stroke-width:0.8;"/>
      </defs>
      <g>
       <use style="stroke:#000000;stroke-width:0.8;" x="76.8375" xlink:href="#m06fa07fef0" y="471.653563"/>
      </g>
     </g>
     <g id="text_7">
      <!-- 0.0 -->
      <g transform="translate(49.482812 477.352392)scale(0.15 -0.15)">
       <defs>
        <path d="M 10.6875 12.40625 
L 21 12.40625 
L 21 0 
L 10.6875 0 
z
" id="DejaVuSans-46"/>
       </defs>
       <use xlink:href="#DejaVuSans-48"/>
       <use x="63.623047" xlink:href="#DejaVuSans-46"/>
       <use x="95.410156" xlink:href="#DejaVuSans-48"/>
      </g>
     </g>
    </g>
    <g id="ytick_2">
     <g id="line2d_13">
      <path clip-path="url(#p54677cc878)" d="M 76.8375 415.199958 
L 496.8825 415.199958 
" style="fill:none;stroke:#e6e6e6;stroke-linecap:square;stroke-width:0.8;"/>
     </g>
     <g id="line2d_14">
      <g>
       <use style="stroke:#000000;stroke-width:0.8;" x="76.8375" xlink:href="#m06fa07fef0" y="415.199958"/>
      </g>
     </g>
     <g id="text_8">
      <!-- 0.1 -->
      <g transform="translate(49.482812 420.898786)scale(0.15 -0.15)">
       <use xlink:href="#DejaVuSans-48"/>
       <use x="63.623047" xlink:href="#DejaVuSans-46"/>
       <use x="95.410156" xlink:href="#DejaVuSans-49"/>
      </g>
     </g>
    </g>
    <g id="ytick_3">
     <g id="line2d_15">
      <path clip-path="url(#p54677cc878)" d="M 76.8375 358.746352 
L 496.8825 358.746352 
" style="fill:none;stroke:#e6e6e6;stroke-linecap:square;stroke-width:0.8;"/>
     </g>
     <g id="line2d_16">
      <g>
       <use style="stroke:#000000;stroke-width:0.8;" x="76.8375" xlink:href="#m06fa07fef0" y="358.746352"/>
      </g>
     </g>
     <g id="text_9">
      <!-- 0.2 -->
      <g transform="translate(49.482812 364.44518)scale(0.15 -0.15)">
       <use xlink:href="#DejaVuSans-48"/>
       <use x="63.623047" xlink:href="#DejaVuSans-46"/>
       <use x="95.410156" xlink:href="#DejaVuSans-50"/>
      </g>
     </g>
    </g>
    <g id="ytick_4">
     <g id="line2d_17">
      <path clip-path="url(#p54677cc878)" d="M 76.8375 302.292746 
L 496.8825 302.292746 
" style="fill:none;stroke:#e6e6e6;stroke-linecap:square;stroke-width:0.8;"/>
     </g>
     <g id="line2d_18">
      <g>
       <use style="stroke:#000000;stroke-width:0.8;" x="76.8375" xlink:href="#m06fa07fef0" y="302.292746"/>
      </g>
     </g>
     <g id="text_10">
      <!-- 0.3 -->
      <g transform="translate(49.482812 307.991574)scale(0.15 -0.15)">
       <defs>
        <path d="M 40.578125 39.3125 
Q 47.65625 37.796875 51.625 33 
Q 55.609375 28.21875 55.609375 21.1875 
Q 55.609375 10.40625 48.1875 4.484375 
Q 40.765625 -1.421875 27.09375 -1.421875 
Q 22.515625 -1.421875 17.65625 -0.515625 
Q 12.796875 0.390625 7.625 2.203125 
L 7.625 11.71875 
Q 11.71875 9.328125 16.59375 8.109375 
Q 21.484375 6.890625 26.8125 6.890625 
Q 36.078125 6.890625 40.9375 10.546875 
Q 45.796875 14.203125 45.796875 21.1875 
Q 45.796875 27.640625 41.28125 31.265625 
Q 36.765625 34.90625 28.71875 34.90625 
L 20.21875 34.90625 
L 20.21875 43.015625 
L 29.109375 43.015625 
Q 36.375 43.015625 40.234375 45.921875 
Q 44.09375 48.828125 44.09375 54.296875 
Q 44.09375 59.90625 40.109375 62.90625 
Q 36.140625 65.921875 28.71875 65.921875 
Q 24.65625 65.921875 20.015625 65.03125 
Q 15.375 64.15625 9.8125 62.3125 
L 9.8125 71.09375 
Q 15.4375 72.65625 20.34375 73.4375 
Q 25.25 74.21875 29.59375 74.21875 
Q 40.828125 74.21875 47.359375 69.109375 
Q 53.90625 64.015625 53.90625 55.328125 
Q 53.90625 49.265625 50.4375 45.09375 
Q 46.96875 40.921875 40.578125 39.3125 
z
" id="DejaVuSans-51"/>
       </defs>
       <use xlink:href="#DejaVuSans-48"/>
       <use x="63.623047" xlink:href="#DejaVuSans-46"/>
       <use x="95.410156" xlink:href="#DejaVuSans-51"/>
      </g>
     </g>
    </g>
    <g id="ytick_5">
     <g id="line2d_19">
      <path clip-path="url(#p54677cc878)" d="M 76.8375 245.83914 
L 496.8825 245.83914 
" style="fill:none;stroke:#e6e6e6;stroke-linecap:square;stroke-width:0.8;"/>
     </g>
     <g id="line2d_20">
      <g>
       <use style="stroke:#000000;stroke-width:0.8;" x="76.8375" xlink:href="#m06fa07fef0" y="245.83914"/>
      </g>
     </g>
     <g id="text_11">
      <!-- 0.4 -->
      <g transform="translate(49.482812 251.537968)scale(0.15 -0.15)">
       <defs>
        <path d="M 37.796875 64.3125 
L 12.890625 25.390625 
L 37.796875 25.390625 
z
M 35.203125 72.90625 
L 47.609375 72.90625 
L 47.609375 25.390625 
L 58.015625 25.390625 
L 58.015625 17.1875 
L 47.609375 17.1875 
L 47.609375 0 
L 37.796875 0 
L 37.796875 17.1875 
L 4.890625 17.1875 
L 4.890625 26.703125 
z
" id="DejaVuSans-52"/>
       </defs>
       <use xlink:href="#DejaVuSans-48"/>
       <use x="63.623047" xlink:href="#DejaVuSans-46"/>
       <use x="95.410156" xlink:href="#DejaVuSans-52"/>
      </g>
     </g>
    </g>
    <g id="ytick_6">
     <g id="line2d_21">
      <path clip-path="url(#p54677cc878)" d="M 76.8375 189.385534 
L 496.8825 189.385534 
" style="fill:none;stroke:#e6e6e6;stroke-linecap:square;stroke-width:0.8;"/>
     </g>
     <g id="line2d_22">
      <g>
       <use style="stroke:#000000;stroke-width:0.8;" x="76.8375" xlink:href="#m06fa07fef0" y="189.385534"/>
      </g>
     </g>
     <g id="text_12">
      <!-- 0.5 -->
      <g transform="translate(49.482812 195.084362)scale(0.15 -0.15)">
       <use xlink:href="#DejaVuSans-48"/>
       <use x="63.623047" xlink:href="#DejaVuSans-46"/>
       <use x="95.410156" xlink:href="#DejaVuSans-53"/>
      </g>
     </g>
    </g>
    <g id="ytick_7">
     <g id="line2d_23">
      <path clip-path="url(#p54677cc878)" d="M 76.8375 132.931928 
L 496.8825 132.931928 
" style="fill:none;stroke:#e6e6e6;stroke-linecap:square;stroke-width:0.8;"/>
     </g>
     <g id="line2d_24">
      <g>
       <use style="stroke:#000000;stroke-width:0.8;" x="76.8375" xlink:href="#m06fa07fef0" y="132.931928"/>
      </g>
     </g>
     <g id="text_13">
      <!-- 0.6 -->
      <g transform="translate(49.482812 138.630757)scale(0.15 -0.15)">
       <defs>
        <path d="M 33.015625 40.375 
Q 26.375 40.375 22.484375 35.828125 
Q 18.609375 31.296875 18.609375 23.390625 
Q 18.609375 15.53125 22.484375 10.953125 
Q 26.375 6.390625 33.015625 6.390625 
Q 39.65625 6.390625 43.53125 10.953125 
Q 47.40625 15.53125 47.40625 23.390625 
Q 47.40625 31.296875 43.53125 35.828125 
Q 39.65625 40.375 33.015625 40.375 
z
M 52.59375 71.296875 
L 52.59375 62.3125 
Q 48.875 64.0625 45.09375 64.984375 
Q 41.3125 65.921875 37.59375 65.921875 
Q 27.828125 65.921875 22.671875 59.328125 
Q 17.53125 52.734375 16.796875 39.40625 
Q 19.671875 43.65625 24.015625 45.921875 
Q 28.375 48.1875 33.59375 48.1875 
Q 44.578125 48.1875 50.953125 41.515625 
Q 57.328125 34.859375 57.328125 23.390625 
Q 57.328125 12.15625 50.6875 5.359375 
Q 44.046875 -1.421875 33.015625 -1.421875 
Q 20.359375 -1.421875 13.671875 8.265625 
Q 6.984375 17.96875 6.984375 36.375 
Q 6.984375 53.65625 15.1875 63.9375 
Q 23.390625 74.21875 37.203125 74.21875 
Q 40.921875 74.21875 44.703125 73.484375 
Q 48.484375 72.75 52.59375 71.296875 
z
" id="DejaVuSans-54"/>
       </defs>
       <use xlink:href="#DejaVuSans-48"/>
       <use x="63.623047" xlink:href="#DejaVuSans-46"/>
       <use x="95.410156" xlink:href="#DejaVuSans-54"/>
      </g>
     </g>
    </g>
    <g id="ytick_8">
     <g id="line2d_25">
      <path clip-path="url(#p54677cc878)" d="M 76.8375 76.478323 
L 496.8825 76.478323 
" style="fill:none;stroke:#e6e6e6;stroke-linecap:square;stroke-width:0.8;"/>
     </g>
     <g id="line2d_26">
      <g>
       <use style="stroke:#000000;stroke-width:0.8;" x="76.8375" xlink:href="#m06fa07fef0" y="76.478323"/>
      </g>
     </g>
     <g id="text_14">
      <!-- 0.7 -->
      <g transform="translate(49.482812 82.177151)scale(0.15 -0.15)">
       <defs>
        <path d="M 8.203125 72.90625 
L 55.078125 72.90625 
L 55.078125 68.703125 
L 28.609375 0 
L 18.3125 0 
L 43.21875 64.59375 
L 8.203125 64.59375 
z
" id="DejaVuSans-55"/>
       </defs>
       <use xlink:href="#DejaVuSans-48"/>
       <use x="63.623047" xlink:href="#DejaVuSans-46"/>
       <use x="95.410156" xlink:href="#DejaVuSans-55"/>
      </g>
     </g>
    </g>
    <g id="text_15">
     <!-- $I$ -->
     <g transform="translate(40.283594 280.23)rotate(-90)scale(0.25 -0.25)">
      <defs>
       <path d="M 16.890625 72.90625 
L 26.8125 72.90625 
L 12.59375 0 
L 2.6875 0 
z
" id="DejaVuSans-Oblique-73"/>
      </defs>
      <use transform="translate(0 0.09375)" xlink:href="#DejaVuSans-Oblique-73"/>
     </g>
    </g>
   </g>
   <g id="line2d_27">
    <path clip-path="url(#p54677cc878)" d="M 113.287686 471.652884 
L 115.545255 471.522929 
L 117.802824 471.179385 
L 120.060393 470.6065 
L 122.491621 469.741145 
L 124.922849 468.653266 
L 127.180417 467.39668 
L 129.958964 465.573244 
L 132.563851 463.621752 
L 134.995079 461.512452 
L 138.81558 457.857713 
L 141.420467 455.032174 
L 146.109264 449.501098 
L 149.06147 445.625224 
L 154.792221 437.668972 
L 163.301519 424.643903 
L 185.703549 389.180138 
L 190.566005 382.122031 
L 192.649915 379.254675 
L 200.290917 369.70287 
L 204.979714 364.610814 
L 206.716305 362.984653 
L 213.662671 357.398957 
L 219.9144 353.953141 
L 222.171969 353.228559 
L 226.166129 352.186215 
L 227.555402 352.075383 
L 233.459813 352.27439 
L 235.196405 352.705098 
L 237.627633 353.512274 
L 241.448134 355.050513 
L 247.526204 358.855328 
L 249.783773 360.741076 
L 254.819888 365.346077 
L 258.119412 369.00599 
L 263.155527 374.974516 
L 269.059938 382.887836 
L 277.221918 395.058027 
L 301.707857 433.835568 
L 308.827882 444.04685 
L 314.732293 451.665716 
L 318.726453 456.196294 
L 321.678658 459.282884 
L 324.804523 462.144576 
L 327.583069 464.459269 
L 329.840638 466.077659 
L 332.792843 467.908083 
L 335.224071 469.168834 
L 337.48164 470.08749 
L 340.086528 470.901004 
L 342.344096 471.371469 
L 344.601665 471.612014 
L 346.859234 471.636528 
L 349.116803 471.434513 
L 351.548031 470.979776 
L 353.8056 470.323304 
L 356.236828 469.361984 
L 358.841715 468.090122 
L 361.099284 466.737136 
L 363.87783 464.79079 
L 366.656376 462.595189 
L 369.261264 460.203626 
L 373.081765 456.369926 
L 375.339334 453.823568 
L 379.854471 448.366481 
L 382.285699 445.148798 
L 388.016451 437.142435 
L 395.483794 425.764596 
L 407.639934 406.297024 
L 410.59214 401.510326 
L 414.065323 396.077378 
L 424.484871 380.65004 
L 427.263418 376.904708 
L 433.688806 369.024128 
L 435.946375 366.700394 
L 437.682966 364.844176 
L 439.940535 362.612344 
L 441.677127 361.114592 
L 447.407878 356.779246 
L 448.970811 355.916824 
L 454.875221 353.189581 
L 456.438154 352.853339 
L 458.174745 352.454469 
L 460.084996 352.100546 
L 460.432314 352.077082 
L 460.432314 352.077082 
" style="fill:none;stroke:#08ff00;stroke-linecap:square;stroke-width:2;"/>
   </g>
   <g id="line2d_28">
    <defs>
     <path d="M -2.5 2.5 
L 2.5 2.5 
L 2.5 -2.5 
L -2.5 -2.5 
z
" id="me0786286fc" style="stroke:#08ff00;stroke-linejoin:miter;"/>
    </defs>
    <g clip-path="url(#p54677cc878)">
     <use style="fill:#08ff00;stroke:#08ff00;stroke-linejoin:miter;" x="345.990938" xlink:href="#me0786286fc" y="471.653554"/>
    </g>
   </g>
   <g id="line2d_29">
    <path clip-path="url(#p54677cc878)" d="M 113.287686 471.650847 
L 114.329641 471.520625 
L 115.545255 471.141105 
L 116.760869 470.54011 
L 117.976483 469.706927 
L 119.192097 468.592392 
L 120.58137 466.971198 
L 122.317961 464.52533 
L 124.054553 461.741232 
L 125.617485 458.808856 
L 127.180417 455.337614 
L 129.611645 449.285827 
L 131.695555 443.715904 
L 133.258487 438.975227 
L 135.516056 431.326363 
L 139.510217 417.16758 
L 141.594126 408.622699 
L 148.019515 380.885478 
L 151.492698 364.689795 
L 154.271244 351.508783 
L 158.960041 328.523973 
L 161.564928 315.770912 
L 164.864452 299.432674 
L 167.990316 285.018763 
L 171.637158 267.788848 
L 175.457659 251.767872 
L 178.409865 239.365497 
L 185.182571 215.675827 
L 186.919163 211.116024 
L 189.52405 204.252809 
L 190.913323 200.336805 
L 191.955278 197.992716 
L 192.823574 196.483222 
L 194.560165 193.797123 
L 196.644075 190.409906 
L 197.859689 188.3002 
L 198.727985 187.251147 
L 199.422621 186.706818 
L 200.985553 186.024604 
L 203.243122 185.049489 
L 203.7641 184.693578 
L 204.632395 184.158527 
L 205.327032 184.019228 
L 206.021669 184.147811 
L 206.716305 184.533125 
L 208.626556 185.981413 
L 210.710466 187.369102 
L 211.405102 187.712602 
L 212.099739 188.301003 
L 212.794375 189.16562 
L 213.662671 190.585907 
L 217.483172 197.682164 
L 218.872445 200.03845 
L 219.9144 202.455539 
L 221.303673 206.347813 
L 224.603197 215.84364 
L 225.818811 219.1287 
L 227.034425 223.146278 
L 228.944676 230.378179 
L 231.375904 239.451871 
L 233.112495 245.668405 
L 234.849086 253.083927 
L 239.190565 272.008086 
L 240.753497 278.960923 
L 249.262795 320.109493 
L 251.867683 333.163176 
L 260.376981 373.713655 
L 262.981868 385.749042 
L 265.586755 397.479945 
L 268.017983 407.280659 
L 272.359462 424.483833 
L 274.443371 431.542504 
L 278.611191 444.8682 
L 280.347782 449.54354 
L 282.952669 455.747581 
L 285.036579 460.244214 
L 286.425852 462.773691 
L 287.988784 465.156282 
L 289.899035 467.621949 
L 291.461967 469.275926 
L 292.677581 470.25828 
L 293.893195 470.957175 
L 295.108809 471.406638 
L 296.324423 471.63019 
L 297.540037 471.610578 
L 298.581992 471.381582 
L 299.797606 470.875916 
L 301.186879 470.02567 
L 302.576152 468.892827 
L 303.791767 467.616556 
L 305.007381 466.037866 
L 306.570313 463.632601 
L 308.654223 460.008874 
L 310.390814 456.516296 
L 311.953746 452.800629 
L 314.558633 445.856172 
L 316.989861 438.884288 
L 318.552794 433.767995 
L 322.373295 420.079411 
L 324.804523 410.845631 
L 326.888433 401.90336 
L 333.140162 374.216309 
L 336.613345 357.820107 
L 339.218232 345.407308 
L 342.691415 327.969808 
L 346.859234 307.782526 
L 349.290462 295.745139 
L 352.242668 282.466454 
L 353.979259 274.041591 
L 356.063169 264.389836 
L 363.356853 234.561122 
L 365.267103 228.165883 
L 367.351013 221.075883 
L 369.087605 215.013616 
L 370.303219 211.440916 
L 371.692492 207.972514 
L 374.12372 202.107608 
L 375.860311 197.618448 
L 376.902266 195.46951 
L 378.465198 193.067934 
L 380.028131 191.109691 
L 380.722767 190.175731 
L 382.633018 187.190879 
L 383.501313 186.247229 
L 384.369609 185.648411 
L 385.064246 185.398134 
L 386.453519 185.188438 
L 387.669133 185.040644 
L 389.405724 184.275833 
L 390.27402 184.285096 
L 390.794997 184.45084 
L 392.010611 185.270321 
L 393.573544 186.878288 
L 394.615499 187.960822 
L 396.35209 189.213215 
L 397.394045 190.449948 
L 398.609659 192.461443 
L 400.172591 195.757834 
L 401.909183 199.386802 
L 403.472115 202.306691 
L 404.51407 204.731951 
L 405.903343 208.615979 
L 412.328731 228.770347 
L 414.412641 237.073407 
L 416.149232 243.723526 
L 418.059483 250.907495 
L 419.796074 258.39791 
L 423.616576 275.587499 
L 425.526826 284.061115 
L 434.383443 327.196618 
L 436.98833 340.159386 
L 440.635172 357.507108 
L 443.934695 373.479833 
L 451.402039 406.322674 
L 457.306449 429.001907 
L 459.564018 436.304647 
L 460.432314 439.029786 
L 460.432314 439.029786 
" style="fill:none;stroke:#0010ff;stroke-linecap:square;stroke-width:2;"/>
   </g>
   <g id="line2d_30">
    <defs>
     <path d="M -2.5 2.5 
L 2.5 2.5 
L 2.5 -2.5 
L -2.5 -2.5 
z
" id="m4f83bef1c3" style="stroke:#0010ff;stroke-linejoin:miter;"/>
    </defs>
    <g clip-path="url(#p54677cc878)">
     <use style="fill:#0010ff;stroke:#0010ff;stroke-linejoin:miter;" x="296.845401" xlink:href="#m4f83bef1c3" y="471.653445"/>
    </g>
   </g>
   <g id="line2d_31">
    <path clip-path="url(#p54677cc878)" d="M 113.287686 471.647453 
L 113.982323 471.500486 
L 114.850618 471.054201 
L 115.718914 470.37007 
L 116.760869 469.245857 
L 117.802824 467.768992 
L 118.671119 466.199651 
L 119.713074 463.828891 
L 120.928688 460.508146 
L 123.012598 453.975483 
L 124.57553 448.444594 
L 125.791144 443.423771 
L 127.354077 435.807877 
L 131.348237 414.483859 
L 132.73751 406.125812 
L 134.82142 391.650531 
L 137.773625 371.214202 
L 139.683876 357.295833 
L 142.115104 337.004896 
L 143.851695 323.199204 
L 146.456582 302.807494 
L 148.88781 281.014259 
L 150.450743 267.790979 
L 154.097585 238.68801 
L 157.223449 211.813506 
L 162.606883 171.446021 
L 163.996156 161.345706 
L 165.385429 153.290049 
L 167.816657 139.029771 
L 170.595203 121.579263 
L 171.637158 116.919481 
L 174.589364 105.712335 
L 177.541569 93.324512 
L 178.236206 91.594 
L 178.930842 90.494186 
L 179.799138 89.341905 
L 181.188411 87.303707 
L 182.577684 84.574539 
L 183.44598 82.635598 
L 184.140617 81.654225 
L 184.661594 81.333693 
L 185.008912 81.317472 
L 185.52989 81.608307 
L 186.398185 82.603912 
L 187.961118 84.319807 
L 188.655754 84.832275 
L 189.52405 85.280471 
L 190.045027 85.33774 
L 190.566005 85.640357 
L 191.086982 86.258125 
L 191.781619 87.652138 
L 192.476255 89.659834 
L 196.470416 103.127935 
L 197.512371 105.977909 
L 198.207007 108.53346 
L 199.075303 112.547807 
L 200.464576 120.466599 
L 202.201167 130.293718 
L 204.111418 139.7938 
L 204.979714 144.423787 
L 206.195328 152.378949 
L 208.105578 166.803624 
L 210.015829 180.215349 
L 212.620716 198.11233 
L 214.357308 212.875319 
L 216.267558 228.883739 
L 220.609037 263.62974 
L 223.213924 286.629331 
L 232.07054 357.51277 
L 233.980791 371.649874 
L 237.106655 394.595299 
L 239.016906 406.312974 
L 244.22668 435.984851 
L 245.789613 442.842467 
L 249.089136 455.701549 
L 250.478409 460.202914 
L 251.694023 463.338495 
L 252.909637 465.886278 
L 254.298911 468.29881 
L 255.340865 469.763579 
L 256.38282 470.835314 
L 257.251116 471.386764 
L 258.119412 471.629863 
L 258.987707 471.608014 
L 259.856003 471.344108 
L 260.724299 470.833535 
L 261.592595 470.025763 
L 262.46089 468.901543 
L 263.502845 467.119425 
L 264.892118 464.19409 
L 266.281391 460.815724 
L 267.670665 456.904123 
L 268.886279 452.709621 
L 270.275552 447.04874 
L 273.748735 431.203977 
L 275.138008 424.101353 
L 276.70094 414.797518 
L 282.084374 379.870914 
L 283.820965 366.609093 
L 286.94683 342.284888 
L 289.725376 320.661614 
L 294.93515 276.999392 
L 296.671742 262.706087 
L 300.665902 228.428517 
L 304.312744 200.21684 
L 306.396654 182.925981 
L 307.612268 174.699094 
L 311.953746 145.671755 
L 313.343019 136.349303 
L 314.384974 130.843081 
L 318.031816 113.704802 
L 319.594749 105.310405 
L 320.636703 100.973849 
L 321.33134 98.916986 
L 324.804523 90.452134 
L 325.672819 87.60218 
L 326.541114 85.126723 
L 327.235751 83.721416 
L 327.756728 83.083753 
L 328.104047 82.885767 
L 328.798683 82.839793 
L 329.840638 83.057193 
L 331.056252 83.226408 
L 331.577229 83.119473 
L 332.098207 82.797935 
L 332.792843 82.222514 
L 333.313821 82.04887 
L 333.834798 82.158935 
L 334.355776 82.57186 
L 334.876753 83.346175 
L 335.745049 85.410802 
L 338.870914 93.401019 
L 339.912868 95.137571 
L 340.607505 96.815932 
L 341.302142 98.989099 
L 341.996778 101.76163 
L 343.386051 108.634574 
L 345.817279 120.312557 
L 347.206552 125.926898 
L 348.248507 131.250053 
L 349.290462 137.772225 
L 353.8056 167.271347 
L 355.021214 175.221821 
L 356.410487 185.948249 
L 359.710011 212.665728 
L 361.79392 227.819274 
L 363.183194 239.52792 
L 366.830036 271.145955 
L 369.261264 290.263548 
L 372.03981 314.843475 
L 373.776401 328.947682 
L 377.075925 354.21282 
L 380.028131 377.318447 
L 381.591063 387.684347 
L 384.716927 408.311061 
L 386.453519 419.192981 
L 388.016451 427.595652 
L 391.663293 444.940496 
L 393.052566 450.83208 
L 394.441839 455.752147 
L 395.831113 459.786233 
L 397.741363 464.630916 
L 399.130636 467.548836 
L 400.172591 469.201172 
L 401.040887 470.219535 
L 401.909183 470.938901 
L 402.777478 471.400741 
L 403.645774 471.631112 
L 404.51407 471.601169 
L 405.208706 471.366229 
L 405.903343 470.927033 
L 406.771639 470.110769 
L 407.813594 468.798466 
L 409.029208 466.881427 
L 410.071162 464.909905 
L 411.113117 462.486543 
L 412.155072 459.554415 
L 413.544345 454.860687 
L 415.801914 446.402818 
L 417.538506 439.19821 
L 418.927779 432.37074 
L 420.838029 421.50094 
L 425.005849 396.777858 
L 426.568781 385.674202 
L 430.041964 360.168301 
L 432.125874 344.781717 
L 434.036124 328.545197 
L 436.120034 311.190311 
L 440.114194 278.748233 
L 442.719081 255.689975 
L 447.407878 218.165305 
L 449.318129 201.922431 
L 451.05472 189.634468 
L 453.659607 171.524716 
L 456.090835 153.115466 
L 457.306449 145.874762 
L 459.043041 136.863521 
L 460.258655 130.32591 
L 460.432314 129.301161 
L 460.432314 129.301161 
" style="fill:none;stroke:#ff0018;stroke-linecap:square;stroke-width:2;"/>
   </g>
   <g id="line2d_32">
    <defs>
     <path d="M -2.5 2.5 
L 2.5 2.5 
L 2.5 -2.5 
L -2.5 -2.5 
z
" id="me86113a98e" style="stroke:#ff0018;stroke-linejoin:miter;"/>
    </defs>
    <g clip-path="url(#p54677cc878)">
     <use style="fill:#ff0018;stroke:#ff0018;stroke-linejoin:miter;" x="258.46673" xlink:href="#me86113a98e" y="471.651375"/>
    </g>
   </g>
   <g id="patch_3">
    <path d="M 76.8375 512.64 
L 76.8375 40.32 
" style="fill:none;stroke:#000000;stroke-linecap:square;stroke-linejoin:miter;stroke-width:0.8;"/>
   </g>
   <g id="patch_4">
    <path d="M 496.8825 512.64 
L 496.8825 40.32 
" style="fill:none;stroke:#000000;stroke-linecap:square;stroke-linejoin:miter;stroke-width:0.8;"/>
   </g>
   <g id="patch_5">
    <path d="M 76.8375 512.64 
L 496.8825 512.64 
" style="fill:none;stroke:#000000;stroke-linecap:square;stroke-linejoin:miter;stroke-width:0.8;"/>
   </g>
   <g id="patch_6">
    <path d="M 76.8375 40.32 
L 496.8825 40.32 
" style="fill:none;stroke:#000000;stroke-linecap:square;stroke-linejoin:miter;stroke-width:0.8;"/>
   </g>
   <g id="legend_1">
    <g id="patch_7">
     <path d="M 338.8825 144.38875 
L 482.8825 144.38875 
Q 486.8825 144.38875 486.8825 140.38875 
L 486.8825 54.32 
Q 486.8825 50.32 482.8825 50.32 
L 338.8825 50.32 
Q 334.8825 50.32 334.8825 54.32 
L 334.8825 140.38875 
Q 334.8825 144.38875 338.8825 144.38875 
z
" style="fill:#ffffff;opacity:0.8;stroke:#cccccc;stroke-linejoin:miter;"/>
    </g>
    <g id="line2d_33">
     <path d="M 342.8825 66.516875 
L 382.8825 66.516875 
" style="fill:none;stroke:#08ff00;stroke-linecap:square;stroke-width:2;"/>
    </g>
    <g id="line2d_34"/>
    <g id="text_16">
     <!-- $\epsilon=0.01$ -->
     <g transform="translate(398.8825 73.516875)scale(0.2 -0.2)">
      <defs>
       <path d="M 19.734375 29.5 
Q 14.453125 30.671875 12.15625 33.84375 
Q 10.453125 36.078125 10.453125 39.109375 
Q 10.453125 47.40625 18.359375 52.25 
Q 24.609375 56.0625 34.1875 56.0625 
Q 37.890625 56.0625 41.9375 55.46875 
Q 46 54.890625 50.53125 53.71875 
L 48.96875 45.5625 
Q 44.484375 46.96875 40.71875 47.609375 
Q 36.859375 48.25 33.40625 48.25 
Q 27.59375 48.25 23.78125 46 
Q 19.1875 43.3125 19.1875 39.40625 
Q 19.1875 36.8125 21.578125 35.015625 
Q 24.421875 32.859375 30.078125 32.859375 
L 37.640625 32.859375 
L 36.234375 25.4375 
L 29 25.4375 
Q 22.265625 25.4375 18.3125 22.953125 
Q 12.9375 19.578125 12.9375 14.3125 
Q 12.9375 10.984375 15.828125 8.796875 
Q 19.4375 6.0625 26.8125 6.0625 
Q 31.34375 6.0625 35.6875 6.9375 
Q 40.046875 7.859375 43.84375 9.671875 
L 42.1875 1.3125 
Q 37.546875 -0.046875 33.296875 -0.734375 
Q 29.046875 -1.421875 25.140625 -1.421875 
Q 13.53125 -1.421875 8.0625 3.03125 
Q 3.90625 6.453125 3.90625 12.203125 
Q 3.90625 19.96875 9.375 24.75 
Q 13.421875 28.328125 19.734375 29.5 
z
" id="DejaVuSans-Oblique-949"/>
       <path d="M 10.59375 45.40625 
L 73.1875 45.40625 
L 73.1875 37.203125 
L 10.59375 37.203125 
z
M 10.59375 25.484375 
L 73.1875 25.484375 
L 73.1875 17.1875 
L 10.59375 17.1875 
z
" id="DejaVuSans-61"/>
      </defs>
      <use transform="translate(0 0.78125)" xlink:href="#DejaVuSans-Oblique-949"/>
      <use transform="translate(73.535156 0.78125)" xlink:href="#DejaVuSans-61"/>
      <use transform="translate(176.806641 0.78125)" xlink:href="#DejaVuSans-48"/>
      <use transform="translate(240.429688 0.78125)" xlink:href="#DejaVuSans-46"/>
      <use transform="translate(272.216797 0.78125)" xlink:href="#DejaVuSans-48"/>
      <use transform="translate(335.839844 0.78125)" xlink:href="#DejaVuSans-49"/>
     </g>
    </g>
    <g id="line2d_35">
     <path d="M 342.8825 95.873125 
L 382.8825 95.873125 
" style="fill:none;stroke:#0010ff;stroke-linecap:square;stroke-width:2;"/>
    </g>
    <g id="line2d_36"/>
    <g id="text_17">
     <!-- $\epsilon=0.02$ -->
     <g transform="translate(398.8825 102.873125)scale(0.2 -0.2)">
      <use transform="translate(0 0.78125)" xlink:href="#DejaVuSans-Oblique-949"/>
      <use transform="translate(73.535156 0.78125)" xlink:href="#DejaVuSans-61"/>
      <use transform="translate(176.806641 0.78125)" xlink:href="#DejaVuSans-48"/>
      <use transform="translate(240.429688 0.78125)" xlink:href="#DejaVuSans-46"/>
      <use transform="translate(272.216797 0.78125)" xlink:href="#DejaVuSans-48"/>
      <use transform="translate(335.839844 0.78125)" xlink:href="#DejaVuSans-50"/>
     </g>
    </g>
    <g id="line2d_37">
     <path d="M 342.8825 125.229375 
L 382.8825 125.229375 
" style="fill:none;stroke:#ff0018;stroke-linecap:square;stroke-width:2;"/>
    </g>
    <g id="line2d_38"/>
    <g id="text_18">
     <!-- $\epsilon=0.03$ -->
     <g transform="translate(398.8825 132.229375)scale(0.2 -0.2)">
      <use transform="translate(0 0.78125)" xlink:href="#DejaVuSans-Oblique-949"/>
      <use transform="translate(73.535156 0.78125)" xlink:href="#DejaVuSans-61"/>
      <use transform="translate(176.806641 0.78125)" xlink:href="#DejaVuSans-48"/>
      <use transform="translate(240.429688 0.78125)" xlink:href="#DejaVuSans-46"/>
      <use transform="translate(272.216797 0.78125)" xlink:href="#DejaVuSans-48"/>
      <use transform="translate(335.839844 0.78125)" xlink:href="#DejaVuSans-51"/>
     </g>
    </g>
   </g>
  </g>
 </g>
 <defs>
  <clipPath id="p54677cc878">
   <rect height="472.32" width="420.045" x="76.8375" y="40.32"/>
  </clipPath>
 </defs>
</svg>
