<?xml version="1.0" encoding="utf-8" standalone="no"?>
<!DOCTYPE svg PUBLIC "-//W3C//DTD SVG 1.1//EN"
  "http://www.w3.org/Graphics/SVG/1.1/DTD/svg11.dtd">
<!-- Created with matplotlib (https://matplotlib.org/) -->
<svg height="576pt" version="1.1" viewBox="0 0 512.25 576" width="512.25pt" xmlns="http://www.w3.org/2000/svg" xmlns:xlink="http://www.w3.org/1999/xlink">
 <metadata>
  <rdf:RDF xmlns:cc="http://creativecommons.org/ns#" xmlns:dc="http://purl.org/dc/elements/1.1/" xmlns:rdf="http://www.w3.org/1999/02/22-rdf-syntax-ns#">
   <cc:Work>
    <dc:type rdf:resource="http://purl.org/dc/dcmitype/StillImage"/>
    <dc:date>2020-09-04T11:45:13.073931</dc:date>
    <dc:format>image/svg+xml</dc:format>
    <dc:creator>
     <cc:Agent>
      <dc:title>Matplotlib v3.3.1, https://matplotlib.org/</dc:title>
     </cc:Agent>
    </dc:creator>
   </cc:Work>
  </rdf:RDF>
 </metadata>
 <defs>
  <style type="text/css">*{stroke-linecap:butt;stroke-linejoin:round;}</style>
 </defs>
 <g id="figure_1">
  <g id="patch_1">
   <path d="M 0 576 
L 512.25 576 
L 512.25 0 
L 0 0 
z
" style="fill:#ffffff;"/>
  </g>
  <g id="axes_1">
   <g id="patch_2">
    <path d="M 76.8375 512.64 
L 496.8825 512.64 
L 496.8825 40.32 
L 76.8375 40.32 
z
" style="fill:#ffffff;"/>
   </g>
   <g id="matplotlib.axis_1">
    <g id="xtick_1">
     <g id="line2d_1">
      <path clip-path="url(#p433171b2bd)" d="M 113.218243 512.64 
L 113.218243 40.32 
" style="fill:none;stroke:#e6e6e6;stroke-linecap:square;stroke-width:0.8;"/>
     </g>
     <g id="line2d_2">
      <defs>
       <path d="M 0 0 
L 0 -3.5 
" id="mae68924955" style="stroke:#000000;stroke-width:0.8;"/>
      </defs>
      <g>
       <use style="stroke:#000000;stroke-width:0.8;" x="113.218243" xlink:href="#mae68924955" y="512.64"/>
      </g>
     </g>
     <g id="text_1">
      <!-- 0 -->
      <g transform="translate(108.446368 527.537656)scale(0.15 -0.15)">
       <defs>
        <path d="M 31.78125 66.40625 
Q 24.171875 66.40625 20.328125 58.90625 
Q 16.5 51.421875 16.5 36.375 
Q 16.5 21.390625 20.328125 13.890625 
Q 24.171875 6.390625 31.78125 6.390625 
Q 39.453125 6.390625 43.28125 13.890625 
Q 47.125 21.390625 47.125 36.375 
Q 47.125 51.421875 43.28125 58.90625 
Q 39.453125 66.40625 31.78125 66.40625 
z
M 31.78125 74.21875 
Q 44.046875 74.21875 50.515625 64.515625 
Q 56.984375 54.828125 56.984375 36.375 
Q 56.984375 17.96875 50.515625 8.265625 
Q 44.046875 -1.421875 31.78125 -1.421875 
Q 19.53125 -1.421875 13.0625 8.265625 
Q 6.59375 17.96875 6.59375 36.375 
Q 6.59375 54.828125 13.0625 64.515625 
Q 19.53125 74.21875 31.78125 74.21875 
z
" id="DejaVuSans-48"/>
       </defs>
       <use xlink:href="#DejaVuSans-48"/>
      </g>
     </g>
    </g>
    <g id="xtick_2">
     <g id="line2d_3">
      <path clip-path="url(#p433171b2bd)" d="M 182.316426 512.64 
L 182.316426 40.32 
" style="fill:none;stroke:#e6e6e6;stroke-linecap:square;stroke-width:0.8;"/>
     </g>
     <g id="line2d_4">
      <g>
       <use style="stroke:#000000;stroke-width:0.8;" x="182.316426" xlink:href="#mae68924955" y="512.64"/>
      </g>
     </g>
     <g id="text_2">
      <!-- 1000 -->
      <g transform="translate(163.228926 527.537656)scale(0.15 -0.15)">
       <defs>
        <path d="M 12.40625 8.296875 
L 28.515625 8.296875 
L 28.515625 63.921875 
L 10.984375 60.40625 
L 10.984375 69.390625 
L 28.421875 72.90625 
L 38.28125 72.90625 
L 38.28125 8.296875 
L 54.390625 8.296875 
L 54.390625 0 
L 12.40625 0 
z
" id="DejaVuSans-49"/>
       </defs>
       <use xlink:href="#DejaVuSans-49"/>
       <use x="63.623047" xlink:href="#DejaVuSans-48"/>
       <use x="127.246094" xlink:href="#DejaVuSans-48"/>
       <use x="190.869141" xlink:href="#DejaVuSans-48"/>
      </g>
     </g>
    </g>
    <g id="xtick_3">
     <g id="line2d_5">
      <path clip-path="url(#p433171b2bd)" d="M 251.414609 512.64 
L 251.414609 40.32 
" style="fill:none;stroke:#e6e6e6;stroke-linecap:square;stroke-width:0.8;"/>
     </g>
     <g id="line2d_6">
      <g>
       <use style="stroke:#000000;stroke-width:0.8;" x="251.414609" xlink:href="#mae68924955" y="512.64"/>
      </g>
     </g>
     <g id="text_3">
      <!-- 2000 -->
      <g transform="translate(232.327109 527.537656)scale(0.15 -0.15)">
       <defs>
        <path d="M 19.1875 8.296875 
L 53.609375 8.296875 
L 53.609375 0 
L 7.328125 0 
L 7.328125 8.296875 
Q 12.9375 14.109375 22.625 23.890625 
Q 32.328125 33.6875 34.8125 36.53125 
Q 39.546875 41.84375 41.421875 45.53125 
Q 43.3125 49.21875 43.3125 52.78125 
Q 43.3125 58.59375 39.234375 62.25 
Q 35.15625 65.921875 28.609375 65.921875 
Q 23.96875 65.921875 18.8125 64.3125 
Q 13.671875 62.703125 7.8125 59.421875 
L 7.8125 69.390625 
Q 13.765625 71.78125 18.9375 73 
Q 24.125 74.21875 28.421875 74.21875 
Q 39.75 74.21875 46.484375 68.546875 
Q 53.21875 62.890625 53.21875 53.421875 
Q 53.21875 48.921875 51.53125 44.890625 
Q 49.859375 40.875 45.40625 35.40625 
Q 44.1875 33.984375 37.640625 27.21875 
Q 31.109375 20.453125 19.1875 8.296875 
z
" id="DejaVuSans-50"/>
       </defs>
       <use xlink:href="#DejaVuSans-50"/>
       <use x="63.623047" xlink:href="#DejaVuSans-48"/>
       <use x="127.246094" xlink:href="#DejaVuSans-48"/>
       <use x="190.869141" xlink:href="#DejaVuSans-48"/>
      </g>
     </g>
    </g>
    <g id="xtick_4">
     <g id="line2d_7">
      <path clip-path="url(#p433171b2bd)" d="M 320.512791 512.64 
L 320.512791 40.32 
" style="fill:none;stroke:#e6e6e6;stroke-linecap:square;stroke-width:0.8;"/>
     </g>
     <g id="line2d_8">
      <g>
       <use style="stroke:#000000;stroke-width:0.8;" x="320.512791" xlink:href="#mae68924955" y="512.64"/>
      </g>
     </g>
     <g id="text_4">
      <!-- 3000 -->
      <g transform="translate(301.425291 527.537656)scale(0.15 -0.15)">
       <defs>
        <path d="M 40.578125 39.3125 
Q 47.65625 37.796875 51.625 33 
Q 55.609375 28.21875 55.609375 21.1875 
Q 55.609375 10.40625 48.1875 4.484375 
Q 40.765625 -1.421875 27.09375 -1.421875 
Q 22.515625 -1.421875 17.65625 -0.515625 
Q 12.796875 0.390625 7.625 2.203125 
L 7.625 11.71875 
Q 11.71875 9.328125 16.59375 8.109375 
Q 21.484375 6.890625 26.8125 6.890625 
Q 36.078125 6.890625 40.9375 10.546875 
Q 45.796875 14.203125 45.796875 21.1875 
Q 45.796875 27.640625 41.28125 31.265625 
Q 36.765625 34.90625 28.71875 34.90625 
L 20.21875 34.90625 
L 20.21875 43.015625 
L 29.109375 43.015625 
Q 36.375 43.015625 40.234375 45.921875 
Q 44.09375 48.828125 44.09375 54.296875 
Q 44.09375 59.90625 40.109375 62.90625 
Q 36.140625 65.921875 28.71875 65.921875 
Q 24.65625 65.921875 20.015625 65.03125 
Q 15.375 64.15625 9.8125 62.3125 
L 9.8125 71.09375 
Q 15.4375 72.65625 20.34375 73.4375 
Q 25.25 74.21875 29.59375 74.21875 
Q 40.828125 74.21875 47.359375 69.109375 
Q 53.90625 64.015625 53.90625 55.328125 
Q 53.90625 49.265625 50.4375 45.09375 
Q 46.96875 40.921875 40.578125 39.3125 
z
" id="DejaVuSans-51"/>
       </defs>
       <use xlink:href="#DejaVuSans-51"/>
       <use x="63.623047" xlink:href="#DejaVuSans-48"/>
       <use x="127.246094" xlink:href="#DejaVuSans-48"/>
       <use x="190.869141" xlink:href="#DejaVuSans-48"/>
      </g>
     </g>
    </g>
    <g id="xtick_5">
     <g id="line2d_9">
      <path clip-path="url(#p433171b2bd)" d="M 389.610974 512.64 
L 389.610974 40.32 
" style="fill:none;stroke:#e6e6e6;stroke-linecap:square;stroke-width:0.8;"/>
     </g>
     <g id="line2d_10">
      <g>
       <use style="stroke:#000000;stroke-width:0.8;" x="389.610974" xlink:href="#mae68924955" y="512.64"/>
      </g>
     </g>
     <g id="text_5">
      <!-- 4000 -->
      <g transform="translate(370.523474 527.537656)scale(0.15 -0.15)">
       <defs>
        <path d="M 37.796875 64.3125 
L 12.890625 25.390625 
L 37.796875 25.390625 
z
M 35.203125 72.90625 
L 47.609375 72.90625 
L 47.609375 25.390625 
L 58.015625 25.390625 
L 58.015625 17.1875 
L 47.609375 17.1875 
L 47.609375 0 
L 37.796875 0 
L 37.796875 17.1875 
L 4.890625 17.1875 
L 4.890625 26.703125 
z
" id="DejaVuSans-52"/>
       </defs>
       <use xlink:href="#DejaVuSans-52"/>
       <use x="63.623047" xlink:href="#DejaVuSans-48"/>
       <use x="127.246094" xlink:href="#DejaVuSans-48"/>
       <use x="190.869141" xlink:href="#DejaVuSans-48"/>
      </g>
     </g>
    </g>
    <g id="xtick_6">
     <g id="line2d_11">
      <path clip-path="url(#p433171b2bd)" d="M 458.709157 512.64 
L 458.709157 40.32 
" style="fill:none;stroke:#e6e6e6;stroke-linecap:square;stroke-width:0.8;"/>
     </g>
     <g id="line2d_12">
      <g>
       <use style="stroke:#000000;stroke-width:0.8;" x="458.709157" xlink:href="#mae68924955" y="512.64"/>
      </g>
     </g>
     <g id="text_6">
      <!-- 5000 -->
      <g transform="translate(439.621657 527.537656)scale(0.15 -0.15)">
       <defs>
        <path d="M 10.796875 72.90625 
L 49.515625 72.90625 
L 49.515625 64.59375 
L 19.828125 64.59375 
L 19.828125 46.734375 
Q 21.96875 47.46875 24.109375 47.828125 
Q 26.265625 48.1875 28.421875 48.1875 
Q 40.625 48.1875 47.75 41.5 
Q 54.890625 34.8125 54.890625 23.390625 
Q 54.890625 11.625 47.5625 5.09375 
Q 40.234375 -1.421875 26.90625 -1.421875 
Q 22.3125 -1.421875 17.546875 -0.640625 
Q 12.796875 0.140625 7.71875 1.703125 
L 7.71875 11.625 
Q 12.109375 9.234375 16.796875 8.0625 
Q 21.484375 6.890625 26.703125 6.890625 
Q 35.15625 6.890625 40.078125 11.328125 
Q 45.015625 15.765625 45.015625 23.390625 
Q 45.015625 31 40.078125 35.4375 
Q 35.15625 39.890625 26.703125 39.890625 
Q 22.75 39.890625 18.8125 39.015625 
Q 14.890625 38.140625 10.796875 36.28125 
z
" id="DejaVuSans-53"/>
       </defs>
       <use xlink:href="#DejaVuSans-53"/>
       <use x="63.623047" xlink:href="#DejaVuSans-48"/>
       <use x="127.246094" xlink:href="#DejaVuSans-48"/>
       <use x="190.869141" xlink:href="#DejaVuSans-48"/>
      </g>
     </g>
    </g>
    <g id="text_7">
     <!-- $z(\AA)$ -->
     <g transform="translate(261.985 556.207969)scale(0.25 -0.25)">
      <defs>
       <path d="M 11.625 54.6875 
L 54.296875 54.6875 
L 52.6875 46.484375 
L 11.53125 7.171875 
L 45.515625 7.171875 
L 44.09375 0 
L -0.296875 0 
L 1.3125 8.203125 
L 42.484375 47.515625 
L 10.203125 47.515625 
z
" id="DejaVuSans-Oblique-122"/>
       <path d="M 31 75.875 
Q 24.46875 64.65625 21.28125 53.65625 
Q 18.109375 42.671875 18.109375 31.390625 
Q 18.109375 20.125 21.3125 9.0625 
Q 24.515625 -2 31 -13.1875 
L 23.1875 -13.1875 
Q 15.875 -1.703125 12.234375 9.375 
Q 8.59375 20.453125 8.59375 31.390625 
Q 8.59375 42.28125 12.203125 53.3125 
Q 15.828125 64.359375 23.1875 75.875 
z
" id="DejaVuSans-40"/>
       <path d="M 49.8125 79.390625 
Q 49.8125 82.46875 47.625 84.640625 
Q 45.453125 86.8125 42.390625 86.8125 
Q 39.265625 86.8125 37.140625 84.6875 
Q 35.015625 82.5625 35.015625 79.390625 
Q 35.015625 76.3125 37.140625 74.15625 
Q 39.265625 72.015625 42.390625 72.015625 
Q 45.453125 72.015625 47.625 74.15625 
Q 49.8125 76.3125 49.8125 79.390625 
z
M 34.421875 68.703125 
Q 31.78125 70.515625 30.390625 73.265625 
Q 29 76.03125 29 79.390625 
Q 29 84.96875 32.90625 88.890625 
Q 36.8125 92.828125 42.390625 92.828125 
Q 47.953125 92.828125 51.875 88.890625 
Q 55.8125 84.96875 55.8125 79.390625 
Q 55.8125 75.53125 54.03125 72.546875 
Q 52.25 69.578125 48.875 67.828125 
L 61.53125 0 
L 51.21875 0 
L 48.1875 18.703125 
L 15.375 18.703125 
L 5.078125 0 
L -5.328125 0 
z
M 40.375 63.1875 
L 19.921875 26.90625 
L 46.6875 26.90625 
z
" id="DejaVuSans-Oblique-197"/>
       <path d="M 8.015625 75.875 
L 15.828125 75.875 
Q 23.140625 64.359375 26.78125 53.3125 
Q 30.421875 42.28125 30.421875 31.390625 
Q 30.421875 20.453125 26.78125 9.375 
Q 23.140625 -1.703125 15.828125 -13.1875 
L 8.015625 -13.1875 
Q 14.5 -2 17.703125 9.0625 
Q 20.90625 20.125 20.90625 31.390625 
Q 20.90625 42.671875 17.703125 53.65625 
Q 14.5 64.65625 8.015625 75.875 
z
" id="DejaVuSans-41"/>
      </defs>
      <use transform="translate(0 0.171875)" xlink:href="#DejaVuSans-Oblique-122"/>
      <use transform="translate(52.490234 0.171875)" xlink:href="#DejaVuSans-40"/>
      <use transform="translate(91.503906 0.171875)" xlink:href="#DejaVuSans-Oblique-197"/>
      <use transform="translate(159.912109 0.171875)" xlink:href="#DejaVuSans-41"/>
     </g>
    </g>
   </g>
   <g id="matplotlib.axis_2">
    <g id="ytick_1">
     <g id="line2d_13">
      <path clip-path="url(#p433171b2bd)" d="M 76.8375 471.653554 
L 496.8825 471.653554 
" style="fill:none;stroke:#e6e6e6;stroke-linecap:square;stroke-width:0.8;"/>
     </g>
     <g id="line2d_14">
      <defs>
       <path d="M 0 0 
L 3.5 0 
" id="m720d30b376" style="stroke:#000000;stroke-width:0.8;"/>
      </defs>
      <g>
       <use style="stroke:#000000;stroke-width:0.8;" x="76.8375" xlink:href="#m720d30b376" y="471.653554"/>
      </g>
     </g>
     <g id="text_8">
      <!-- 0.0 -->
      <g transform="translate(49.482812 477.352382)scale(0.15 -0.15)">
       <defs>
        <path d="M 10.6875 12.40625 
L 21 12.40625 
L 21 0 
L 10.6875 0 
z
" id="DejaVuSans-46"/>
       </defs>
       <use xlink:href="#DejaVuSans-48"/>
       <use x="63.623047" xlink:href="#DejaVuSans-46"/>
       <use x="95.410156" xlink:href="#DejaVuSans-48"/>
      </g>
     </g>
    </g>
    <g id="ytick_2">
     <g id="line2d_15">
      <path clip-path="url(#p433171b2bd)" d="M 76.8375 393.582678 
L 496.8825 393.582678 
" style="fill:none;stroke:#e6e6e6;stroke-linecap:square;stroke-width:0.8;"/>
     </g>
     <g id="line2d_16">
      <g>
       <use style="stroke:#000000;stroke-width:0.8;" x="76.8375" xlink:href="#m720d30b376" y="393.582678"/>
      </g>
     </g>
     <g id="text_9">
      <!-- 0.2 -->
      <g transform="translate(49.482812 399.281506)scale(0.15 -0.15)">
       <use xlink:href="#DejaVuSans-48"/>
       <use x="63.623047" xlink:href="#DejaVuSans-46"/>
       <use x="95.410156" xlink:href="#DejaVuSans-50"/>
      </g>
     </g>
    </g>
    <g id="ytick_3">
     <g id="line2d_17">
      <path clip-path="url(#p433171b2bd)" d="M 76.8375 315.511802 
L 496.8825 315.511802 
" style="fill:none;stroke:#e6e6e6;stroke-linecap:square;stroke-width:0.8;"/>
     </g>
     <g id="line2d_18">
      <g>
       <use style="stroke:#000000;stroke-width:0.8;" x="76.8375" xlink:href="#m720d30b376" y="315.511802"/>
      </g>
     </g>
     <g id="text_10">
      <!-- 0.4 -->
      <g transform="translate(49.482812 321.210631)scale(0.15 -0.15)">
       <use xlink:href="#DejaVuSans-48"/>
       <use x="63.623047" xlink:href="#DejaVuSans-46"/>
       <use x="95.410156" xlink:href="#DejaVuSans-52"/>
      </g>
     </g>
    </g>
    <g id="ytick_4">
     <g id="line2d_19">
      <path clip-path="url(#p433171b2bd)" d="M 76.8375 237.440927 
L 496.8825 237.440927 
" style="fill:none;stroke:#e6e6e6;stroke-linecap:square;stroke-width:0.8;"/>
     </g>
     <g id="line2d_20">
      <g>
       <use style="stroke:#000000;stroke-width:0.8;" x="76.8375" xlink:href="#m720d30b376" y="237.440927"/>
      </g>
     </g>
     <g id="text_11">
      <!-- 0.6 -->
      <g transform="translate(49.482812 243.139755)scale(0.15 -0.15)">
       <defs>
        <path d="M 33.015625 40.375 
Q 26.375 40.375 22.484375 35.828125 
Q 18.609375 31.296875 18.609375 23.390625 
Q 18.609375 15.53125 22.484375 10.953125 
Q 26.375 6.390625 33.015625 6.390625 
Q 39.65625 6.390625 43.53125 10.953125 
Q 47.40625 15.53125 47.40625 23.390625 
Q 47.40625 31.296875 43.53125 35.828125 
Q 39.65625 40.375 33.015625 40.375 
z
M 52.59375 71.296875 
L 52.59375 62.3125 
Q 48.875 64.0625 45.09375 64.984375 
Q 41.3125 65.921875 37.59375 65.921875 
Q 27.828125 65.921875 22.671875 59.328125 
Q 17.53125 52.734375 16.796875 39.40625 
Q 19.671875 43.65625 24.015625 45.921875 
Q 28.375 48.1875 33.59375 48.1875 
Q 44.578125 48.1875 50.953125 41.515625 
Q 57.328125 34.859375 57.328125 23.390625 
Q 57.328125 12.15625 50.6875 5.359375 
Q 44.046875 -1.421875 33.015625 -1.421875 
Q 20.359375 -1.421875 13.671875 8.265625 
Q 6.984375 17.96875 6.984375 36.375 
Q 6.984375 53.65625 15.1875 63.9375 
Q 23.390625 74.21875 37.203125 74.21875 
Q 40.921875 74.21875 44.703125 73.484375 
Q 48.484375 72.75 52.59375 71.296875 
z
" id="DejaVuSans-54"/>
       </defs>
       <use xlink:href="#DejaVuSans-48"/>
       <use x="63.623047" xlink:href="#DejaVuSans-46"/>
       <use x="95.410156" xlink:href="#DejaVuSans-54"/>
      </g>
     </g>
    </g>
    <g id="ytick_5">
     <g id="line2d_21">
      <path clip-path="url(#p433171b2bd)" d="M 76.8375 159.370051 
L 496.8825 159.370051 
" style="fill:none;stroke:#e6e6e6;stroke-linecap:square;stroke-width:0.8;"/>
     </g>
     <g id="line2d_22">
      <g>
       <use style="stroke:#000000;stroke-width:0.8;" x="76.8375" xlink:href="#m720d30b376" y="159.370051"/>
      </g>
     </g>
     <g id="text_12">
      <!-- 0.8 -->
      <g transform="translate(49.482812 165.068879)scale(0.15 -0.15)">
       <defs>
        <path d="M 31.78125 34.625 
Q 24.75 34.625 20.71875 30.859375 
Q 16.703125 27.09375 16.703125 20.515625 
Q 16.703125 13.921875 20.71875 10.15625 
Q 24.75 6.390625 31.78125 6.390625 
Q 38.8125 6.390625 42.859375 10.171875 
Q 46.921875 13.96875 46.921875 20.515625 
Q 46.921875 27.09375 42.890625 30.859375 
Q 38.875 34.625 31.78125 34.625 
z
M 21.921875 38.8125 
Q 15.578125 40.375 12.03125 44.71875 
Q 8.5 49.078125 8.5 55.328125 
Q 8.5 64.0625 14.71875 69.140625 
Q 20.953125 74.21875 31.78125 74.21875 
Q 42.671875 74.21875 48.875 69.140625 
Q 55.078125 64.0625 55.078125 55.328125 
Q 55.078125 49.078125 51.53125 44.71875 
Q 48 40.375 41.703125 38.8125 
Q 48.828125 37.15625 52.796875 32.3125 
Q 56.78125 27.484375 56.78125 20.515625 
Q 56.78125 9.90625 50.3125 4.234375 
Q 43.84375 -1.421875 31.78125 -1.421875 
Q 19.734375 -1.421875 13.25 4.234375 
Q 6.78125 9.90625 6.78125 20.515625 
Q 6.78125 27.484375 10.78125 32.3125 
Q 14.796875 37.15625 21.921875 38.8125 
z
M 18.3125 54.390625 
Q 18.3125 48.734375 21.84375 45.5625 
Q 25.390625 42.390625 31.78125 42.390625 
Q 38.140625 42.390625 41.71875 45.5625 
Q 45.3125 48.734375 45.3125 54.390625 
Q 45.3125 60.0625 41.71875 63.234375 
Q 38.140625 66.40625 31.78125 66.40625 
Q 25.390625 66.40625 21.84375 63.234375 
Q 18.3125 60.0625 18.3125 54.390625 
z
" id="DejaVuSans-56"/>
       </defs>
       <use xlink:href="#DejaVuSans-48"/>
       <use x="63.623047" xlink:href="#DejaVuSans-46"/>
       <use x="95.410156" xlink:href="#DejaVuSans-56"/>
      </g>
     </g>
    </g>
    <g id="ytick_6">
     <g id="line2d_23">
      <path clip-path="url(#p433171b2bd)" d="M 76.8375 81.299176 
L 496.8825 81.299176 
" style="fill:none;stroke:#e6e6e6;stroke-linecap:square;stroke-width:0.8;"/>
     </g>
     <g id="line2d_24">
      <g>
       <use style="stroke:#000000;stroke-width:0.8;" x="76.8375" xlink:href="#m720d30b376" y="81.299176"/>
      </g>
     </g>
     <g id="text_13">
      <!-- 1.0 -->
      <g transform="translate(49.482812 86.998004)scale(0.15 -0.15)">
       <use xlink:href="#DejaVuSans-49"/>
       <use x="63.623047" xlink:href="#DejaVuSans-46"/>
       <use x="95.410156" xlink:href="#DejaVuSans-48"/>
      </g>
     </g>
    </g>
    <g id="text_14">
     <!-- $I_b$ -->
     <g transform="translate(40.283594 286.105)rotate(-90)scale(0.25 -0.25)">
      <defs>
       <path d="M 16.890625 72.90625 
L 26.8125 72.90625 
L 12.59375 0 
L 2.6875 0 
z
" id="DejaVuSans-Oblique-73"/>
       <path d="M 49.515625 33.40625 
Q 49.515625 40.484375 46.265625 44.484375 
Q 43.015625 48.484375 37.3125 48.484375 
Q 33.15625 48.484375 29.515625 46.453125 
Q 25.875 44.4375 23.1875 40.578125 
Q 20.359375 36.53125 18.71875 31.171875 
Q 17.09375 25.828125 17.09375 20.515625 
Q 17.09375 13.765625 20.28125 9.9375 
Q 23.484375 6.109375 29.109375 6.109375 
Q 33.34375 6.109375 36.953125 8.078125 
Q 40.578125 10.0625 43.3125 13.921875 
Q 46.09375 17.921875 47.796875 23.234375 
Q 49.515625 28.5625 49.515625 33.40625 
z
M 21.578125 46.390625 
Q 24.90625 50.875 29.90625 53.4375 
Q 34.90625 56 40.375 56 
Q 48.78125 56 53.734375 50.328125 
Q 58.6875 44.671875 58.6875 35.015625 
Q 58.6875 27.09375 55.78125 19.671875 
Q 52.875 12.25 47.515625 6.5 
Q 44 2.6875 39.40625 0.625 
Q 34.8125 -1.421875 29.78125 -1.421875 
Q 24.46875 -1.421875 20.5625 1.015625 
Q 16.65625 3.46875 14.203125 8.296875 
L 12.59375 0 
L 3.609375 0 
L 18.40625 75.984375 
L 27.390625 75.984375 
z
" id="DejaVuSans-Oblique-98"/>
      </defs>
      <use transform="translate(0 0.09375)" xlink:href="#DejaVuSans-Oblique-73"/>
      <use transform="translate(29.492188 -16.3125)scale(0.7)" xlink:href="#DejaVuSans-Oblique-98"/>
     </g>
    </g>
   </g>
   <g id="line2d_25">
    <path clip-path="url(#p433171b2bd)" d="M 113.287686 471.653469 
L 336.546334 471.653547 
L 429.530262 471.653537 
L 460.432314 471.653487 
L 460.432314 471.653487 
" style="fill:none;stroke:#0028ff;stroke-linecap:square;stroke-width:2;"/>
   </g>
   <g id="line2d_26">
    <path clip-path="url(#p433171b2bd)" d="M 113.287686 471.653084 
L 123.426337 471.652543 
L 157.522759 471.653205 
L 212.799239 471.653231 
L 239.743051 471.652863 
L 255.228798 471.653099 
L 274.325572 471.652898 
L 460.432314 471.652183 
L 460.432314 471.652183 
" style="fill:none;stroke:#00d4ff;stroke-linecap:square;stroke-width:2;"/>
   </g>
   <g id="line2d_27">
    <path clip-path="url(#p433171b2bd)" d="M 113.287686 471.652246 
L 115.648742 471.632856 
L 117.245926 471.635095 
L 119.329211 471.631812 
L 121.620824 471.652743 
L 124.190208 471.647442 
L 126.134607 471.6522 
L 131.134489 471.638109 
L 133.148331 471.631833 
L 143.286982 471.63515 
L 147.314665 471.643287 
L 148.91185 471.634386 
L 208.771555 471.652057 
L 212.938124 471.631433 
L 216.965808 471.642269 
L 218.354664 471.641711 
L 219.74352 471.641993 
L 221.132376 471.642333 
L 222.521233 471.641744 
L 223.979532 471.637836 
L 225.507274 471.653148 
L 272.381173 471.634529 
L 276.339414 471.637723 
L 277.867156 471.638512 
L 279.46434 471.653205 
L 282.936481 471.643983 
L 284.39478 471.635625 
L 286.547507 471.636331 
L 288.005806 471.642587 
L 289.394663 471.640962 
L 290.783519 471.642858 
L 292.172375 471.640457 
L 293.561232 471.643137 
L 294.950088 471.640012 
L 296.338944 471.643437 
L 297.7278 471.639605 
L 299.116657 471.643759 
L 300.505513 471.639259 
L 301.894369 471.644115 
L 303.283226 471.638942 
L 304.672082 471.644504 
L 306.060938 471.63866 
L 307.449794 471.644936 
L 308.838651 471.638415 
L 310.227507 471.645397 
L 311.685806 471.643628 
L 313.074662 471.640625 
L 314.532961 471.648369 
L 316.616246 471.651956 
L 318.977302 471.634808 
L 320.643929 471.632968 
L 326.685454 471.652599 
L 335.296363 471.646567 
L 336.893548 471.652178 
L 342.86563 471.63895 
L 345.226685 471.650981 
L 348.490498 471.636968 
L 352.518181 471.64245 
L 354.115366 471.635257 
L 368.420585 471.648832 
L 370.573312 471.648372 
L 372.170497 471.650729 
L 375.225981 471.647096 
L 376.68428 471.64213 
L 378.073136 471.642187 
L 379.461993 471.641493 
L 380.850849 471.642468 
L 382.239705 471.640915 
L 383.628562 471.642763 
L 385.017418 471.640385 
L 386.406274 471.643068 
L 387.79513 471.639925 
L 389.183987 471.643402 
L 390.572843 471.639523 
L 391.961699 471.643749 
L 393.350556 471.639184 
L 394.739412 471.644126 
L 396.128268 471.638892 
L 397.517124 471.644524 
L 398.905981 471.638642 
L 400.294837 471.644952 
L 401.683693 471.638433 
L 403.141992 471.640004 
L 404.530849 471.643531 
L 405.919705 471.640577 
L 407.308561 471.643267 
L 408.697417 471.641193 
L 410.155717 471.647964 
L 412.239001 471.652277 
L 414.6695 471.639233 
L 416.127799 471.641473 
L 417.586098 471.648475 
L 419.738825 471.648595 
L 421.33601 471.650494 
L 424.391493 471.648382 
L 425.988678 471.650827 
L 429.183048 471.639592 
L 431.335775 471.637637 
L 433.557945 471.653055 
L 438.002285 471.647218 
L 440.155012 471.650669 
L 442.446625 471.636058 
L 445.016009 471.638307 
L 447.446508 471.653095 
L 460.432314 471.652869 
L 460.432314 471.652869 
" style="fill:none;stroke:#7dff7a;stroke-linecap:square;stroke-width:2;"/>
   </g>
   <g id="line2d_28">
    <path clip-path="url(#p433171b2bd)" d="M 113.287686 81.306446 
L 113.982114 81.489567 
L 116.412613 82.33406 
L 118.07924 83.619947 
L 118.981997 84.423119 
L 122.037481 88.522905 
L 125.370736 94.662629 
L 126.898478 97.75088 
L 127.592906 99.413812 
L 129.398419 103.693349 
L 130.370618 106.194747 
L 132.106689 110.693455 
L 133.426102 114.363919 
L 135.370501 119.572654 
L 143.148096 140.724888 
L 147.314665 150.489618 
L 148.495193 152.743179 
L 151.481234 157.811408 
L 153.842289 160.913909 
L 155.022817 162.005707 
L 155.786688 162.780653 
L 156.620002 163.238591 
L 157.731087 163.702184 
L 158.564401 164.126649 
L 159.397715 164.147187 
L 160.5088 164.041953 
L 161.272671 164.049531 
L 162.036542 163.695987 
L 163.564283 162.834018 
L 164.050383 162.54788 
L 164.95314 161.635106 
L 166.133668 160.358567 
L 166.897538 159.560181 
L 168.633609 156.898424 
L 170.300236 154.148383 
L 173.425163 147.728034 
L 174.675134 144.96806 
L 175.439005 143.161056 
L 181.480529 127.121216 
L 182.938829 123.11782 
L 183.911028 120.400607 
L 185.508213 115.936836 
L 187.035955 111.752786 
L 188.285925 108.466415 
L 189.744224 104.70076 
L 191.063638 101.497257 
L 192.59138 97.919162 
L 193.633022 95.68008 
L 196.827391 89.711718 
L 197.799591 88.117883 
L 198.841233 86.527851 
L 201.827274 83.317945 
L 203.355016 82.296026 
L 204.257773 81.763468 
L 205.160529 81.669131 
L 205.9244 81.536 
L 206.688271 81.395626 
L 207.174371 81.466394 
L 210.090969 82.772375 
L 211.479825 84.00432 
L 212.243696 84.650611 
L 212.799239 85.318777 
L 214.396423 87.473445 
L 215.29918 88.738051 
L 218.00745 93.585724 
L 219.118535 96.056353 
L 223.493432 106.171669 
L 226.41003 113.901184 
L 233.423754 133.430113 
L 239.256951 147.852622 
L 240.298593 150.04163 
L 241.895778 153.311585 
L 243.215191 155.604061 
L 244.326276 157.501315 
L 245.506804 159.02114 
L 247.103989 161.08955 
L 247.798417 161.61892 
L 248.423402 162.18929 
L 249.742816 163.264014 
L 250.367801 163.487286 
L 250.992786 163.685782 
L 252.173314 164.13587 
L 252.7983 164.157986 
L 255.089913 163.728882 
L 255.784341 163.319341 
L 256.75654 162.649281 
L 257.798182 161.934232 
L 258.631496 161.012286 
L 259.534253 159.964348 
L 260.645338 158.646236 
L 261.617537 157.045765 
L 262.450851 155.768131 
L 263.631379 153.766292 
L 266.61742 147.628725 
L 271.200645 136.438122 
L 272.242288 133.606009 
L 276.131085 122.861631 
L 277.658827 118.658292 
L 279.256012 114.286334 
L 280.992082 109.504804 
L 281.964282 107.085428 
L 286.894721 95.352729 
L 290.019648 89.575023 
L 291.408504 87.46014 
L 292.380704 86.011844 
L 293.352903 85.037354 
L 294.463988 83.780874 
L 295.366745 83.001041 
L 296.825044 82.207038 
L 297.588915 81.746514 
L 298.144457 81.607412 
L 299.602756 81.558607 
L 300.227742 81.490673 
L 300.852727 81.618892 
L 303.769325 83.213017 
L 305.088739 84.517988 
L 305.85261 85.213201 
L 306.547038 86.117331 
L 307.866451 88.038674 
L 308.699765 89.195805 
L 309.533079 90.73226 
L 310.852492 93.118886 
L 311.755249 94.836486 
L 314.532961 101.005303 
L 317.588445 108.712743 
L 319.046744 112.647853 
L 320.227272 115.778501 
L 321.824457 120.279808 
L 323.004985 123.489268 
L 324.532727 127.828029 
L 325.921583 131.594824 
L 327.102111 134.846788 
L 330.990908 144.56952 
L 333.074193 149.301762 
L 334.324163 151.932087 
L 335.157477 153.591456 
L 338.004633 158.288497 
L 340.851788 161.67788 
L 342.796187 163.222749 
L 343.282287 163.523503 
L 345.018357 163.983383 
L 346.268328 164.173724 
L 349.04604 163.316349 
L 351.893195 160.949118 
L 353.698709 158.729914 
L 354.393137 157.790442 
L 357.726392 151.848478 
L 360.365219 146.205395 
L 361.962404 142.458477 
L 362.934603 140.027217 
L 364.60123 135.686253 
L 365.851201 132.304631 
L 367.517829 127.791489 
L 368.698357 124.431432 
L 370.156656 120.427459 
L 371.476069 116.700006 
L 372.864925 112.970989 
L 378.003694 99.823159 
L 379.600878 96.310704 
L 380.642521 94.060929 
L 383.698004 88.639459 
L 384.878532 86.97446 
L 385.989617 85.364982 
L 386.684045 84.720866 
L 387.79513 83.610355 
L 388.559001 82.864192 
L 389.183987 82.498273 
L 390.156186 82.094246 
L 391.753371 81.435759 
L 394.322755 81.638256 
L 394.878297 81.970136 
L 395.850497 82.533568 
L 397.031025 83.2109 
L 397.586567 83.798032 
L 398.628209 84.926116 
L 399.947623 86.376954 
L 402.517007 90.323795 
L 403.83642 92.921313 
L 405.919705 97.141851 
L 407.169676 99.965371 
L 408.072432 102.001826 
L 411.544573 111.017434 
L 412.725101 114.17378 
L 413.6973 116.762572 
L 418.488854 130.092272 
L 419.530496 132.974382 
L 421.058238 137.070041 
L 422.169323 139.906121 
L 423.974837 144.343344 
L 424.877593 146.46328 
L 426.405335 149.896314 
L 429.321933 155.465664 
L 430.988561 158.180285 
L 431.752432 159.222609 
L 434.252373 162.049567 
L 435.294015 162.703175 
L 435.780115 163.085109 
L 436.682872 163.712527 
L 437.446743 163.936039 
L 439.877241 164.189602 
L 440.918883 163.755774 
L 441.33554 163.675082 
L 442.099411 163.425179 
L 442.654954 163.066759 
L 445.224338 160.793403 
L 446.196537 159.47472 
L 446.960408 158.49988 
L 447.724279 157.480983 
L 448.627036 155.923334 
L 451.543634 150.412479 
L 454.738003 143.125882 
L 459.112901 131.95197 
L 460.432314 128.145287 
L 460.432314 128.145287 
" style="fill:none;stroke:#ffe600;stroke-linecap:square;stroke-width:2;"/>
   </g>
   <g id="line2d_29">
    <path clip-path="url(#p433171b2bd)" d="M 113.287686 471.652246 
L 114.121 471.499259 
L 114.815428 471.453732 
L 116.551498 471.580217 
L 117.523698 471.44914 
L 119.537539 471.532649 
L 120.30141 471.452246 
L 122.315252 471.534805 
L 123.148566 471.462792 
L 124.954079 471.568451 
L 125.856835 471.462588 
L 127.870677 471.540659 
L 128.703991 471.475562 
L 130.509504 471.572585 
L 131.481703 471.483635 
L 133.217774 471.588061 
L 134.259416 471.492599 
L 135.995486 471.589044 
L 137.037128 471.502322 
L 138.773199 471.589541 
L 139.814841 471.512558 
L 141.550911 471.589398 
L 142.592554 471.523102 
L 144.259181 471.598675 
L 145.370266 471.533789 
L 147.036894 471.596179 
L 148.147979 471.54438 
L 149.745163 471.60138 
L 150.925691 471.554736 
L 152.453433 471.604274 
L 153.703404 471.564629 
L 155.161703 471.605346 
L 156.481116 471.573934 
L 157.869973 471.605088 
L 159.189386 471.575803 
L 160.578242 471.604123 
L 161.897656 471.576472 
L 163.286512 471.603097 
L 164.605926 471.575459 
L 165.925339 471.609938 
L 167.314195 471.571797 
L 168.633609 471.611055 
L 169.953022 471.557922 
L 171.341879 471.61348 
L 172.730735 471.557086 
L 174.050148 471.617242 
L 175.439005 471.546121 
L 176.758418 471.622196 
L 178.216717 471.542631 
L 179.466688 471.628005 
L 180.99443 471.53858 
L 182.174958 471.634289 
L 183.772142 471.534215 
L 184.95267 471.633003 
L 186.549855 471.529675 
L 187.66094 471.639829 
L 189.39701 471.539026 
L 190.36921 471.645824 
L 192.313608 471.565663 
L 193.146922 471.645533 
L 195.021878 471.547655 
L 195.924635 471.645234 
L 197.799591 471.545229 
L 198.702347 471.644975 
L 200.577303 471.543323 
L 201.48006 471.644794 
L 203.355016 471.542057 
L 204.257773 471.64469 
L 206.132729 471.541508 
L 206.966042 471.650101 
L 207.938242 471.465872 
L 208.63267 471.480276 
L 209.88264 471.636954 
L 211.549268 471.510604 
L 212.59091 471.644788 
L 214.465866 471.544961 
L 215.368623 471.644834 
L 217.243579 471.54786 
L 218.146335 471.644784 
L 220.021291 471.551603 
L 220.924048 471.64456 
L 222.799004 471.556134 
L 223.701761 471.644061 
L 225.576716 471.561345 
L 226.479473 471.643213 
L 228.354429 471.567174 
L 229.257186 471.641906 
L 231.062699 471.560985 
L 232.034898 471.640056 
L 233.840411 471.568513 
L 234.882054 471.631023 
L 236.479238 471.555231 
L 237.659766 471.62789 
L 239.187508 471.555409 
L 240.437479 471.623944 
L 241.965221 471.565397 
L 243.215191 471.619129 
L 244.67349 471.567278 
L 245.992904 471.613461 
L 247.38176 471.569752 
L 248.770616 471.606902 
L 250.09003 471.572135 
L 251.478886 471.606359 
L 252.867742 471.580542 
L 254.187156 471.605313 
L 255.506569 471.574053 
L 256.895426 471.604351 
L 258.214839 471.572452 
L 259.603695 471.604061 
L 260.923109 471.568603 
L 262.242522 471.612679 
L 263.631379 471.562222 
L 264.950792 471.615298 
L 266.339648 471.553401 
L 267.659062 471.619226 
L 269.047918 471.542304 
L 270.436774 471.615589 
L 271.756188 471.529451 
L 273.214487 471.611909 
L 274.464458 471.515396 
L 275.9922 471.608304 
L 277.24217 471.508888 
L 278.769912 471.604868 
L 279.95044 471.493894 
L 281.617068 471.588305 
L 282.65871 471.479893 
L 284.464223 471.57005 
L 285.366979 471.467019 
L 287.311378 471.550823 
L 288.144692 471.46092 
L 290.089091 471.547548 
L 290.922405 471.455961 
L 292.866803 471.545093 
L 293.700117 471.452222 
L 295.644516 471.543535 
L 296.47783 471.449897 
L 298.422229 471.542828 
L 299.255542 471.449023 
L 301.199941 471.54295 
L 302.033255 471.449613 
L 303.977654 471.543844 
L 304.810967 471.4517 
L 306.755366 471.545395 
L 307.58868 471.455236 
L 309.533079 471.547535 
L 310.366393 471.460216 
L 312.310791 471.550058 
L 313.144105 471.466471 
L 315.088504 471.552887 
L 315.921818 471.473926 
L 317.866217 471.555797 
L 318.69953 471.482348 
L 320.574486 471.57215 
L 321.477243 471.491641 
L 323.352199 471.573933 
L 324.324398 471.508107 
L 325.991026 471.598496 
L 327.102111 471.518398 
L 328.768738 471.597567 
L 329.879823 471.528974 
L 331.546451 471.595812 
L 332.657536 471.539602 
L 334.254721 471.602184 
L 335.435249 471.550104 
L 336.96299 471.606097 
L 338.212961 471.560279 
L 339.67126 471.607986 
L 340.990674 471.569992 
L 342.37953 471.608327 
L 343.768386 471.579073 
L 345.0878 471.607629 
L 346.476656 471.58029 
L 347.796069 471.606647 
L 349.115483 471.573235 
L 350.504339 471.605937 
L 351.823753 471.570944 
L 353.143166 471.613315 
L 354.532022 471.566265 
L 355.851436 471.614975 
L 357.240292 471.559065 
L 358.559706 471.617945 
L 359.948562 471.549391 
L 361.337418 471.613695 
L 362.656832 471.537597 
L 364.045688 471.618848 
L 365.434544 471.533079 
L 366.753958 471.625022 
L 368.212257 471.528202 
L 369.462227 471.631667 
L 371.059412 471.53497 
L 372.170497 471.638339 
L 373.906568 471.544255 
L 374.878767 471.644422 
L 376.753723 471.555439 
L 377.65648 471.644048 
L 379.531436 471.552692 
L 380.434192 471.643659 
L 382.239705 471.534343 
L 383.211905 471.643306 
L 385.017418 471.531843 
L 385.920174 471.648998 
L 388.003459 471.579224 
L 388.76733 471.642841 
L 390.572843 471.528878 
L 391.4756 471.648877 
L 393.489441 471.562088 
L 394.253312 471.648886 
L 396.267154 471.562606 
L 397.031025 471.648923 
L 399.044866 471.563861 
L 399.87818 471.64297 
L 401.683693 471.533666 
L 402.58645 471.648909 
L 404.669734 471.583786 
L 405.433605 471.642954 
L 407.239118 471.541734 
L 408.211318 471.642673 
L 410.016831 471.547037 
L 410.98903 471.642096 
L 412.794544 471.553089 
L 413.766743 471.641107 
L 415.572256 471.559715 
L 416.544455 471.639623 
L 418.280526 471.55476 
L 419.322168 471.637538 
L 421.058238 471.563025 
L 422.099881 471.634782 
L 423.835951 471.571538 
L 424.877593 471.631287 
L 426.544221 471.570661 
L 427.724749 471.6202 
L 429.183048 471.563163 
L 430.502461 471.615072 
L 431.891317 471.565739 
L 433.280174 471.60904 
L 434.66903 471.575388 
L 435.988443 471.609065 
L 437.3773 471.577539 
L 438.696713 471.608301 
L 440.085569 471.57882 
L 441.404983 471.607346 
L 442.793839 471.578669 
L 444.113253 471.606752 
L 445.432666 471.56941 
L 446.821522 471.607004 
L 448.140936 471.564459 
L 449.529792 471.608469 
L 450.849206 471.557084 
L 452.238062 471.611309 
L 453.557475 471.547346 
L 454.946332 471.615562 
L 456.265745 471.535685 
L 457.724044 471.611665 
L 458.974015 471.521867 
L 460.432314 471.618166 
L 460.432314 471.618166 
" style="fill:none;stroke:#ff4700;stroke-linecap:square;stroke-width:2;"/>
   </g>
   <g id="line2d_30">
    <path clip-path="url(#p433171b2bd)" d="M 113.287686 471.653084 
L 114.398771 471.521568 
L 115.509856 471.163569 
L 116.620941 470.562095 
L 117.940355 469.578967 
L 119.120882 468.410074 
L 120.718067 466.480432 
L 122.037481 464.530885 
L 123.981879 461.229809 
L 125.995721 457.218123 
L 127.731791 453.330076 
L 130.440061 446.705059 
L 134.953844 434.621482 
L 142.314782 414.456744 
L 147.175779 402.95255 
L 148.564636 400.237431 
L 150.856248 396.195982 
L 152.939533 393.196929 
L 154.050618 392.000696 
L 155.925574 390.268362 
L 157.106102 389.635477 
L 158.772729 388.980721 
L 159.953257 388.972667 
L 161.619885 389.212835 
L 163.147627 390.055349 
L 164.814254 391.292027 
L 166.758653 393.389652 
L 167.869738 394.961951 
L 170.230794 398.793998 
L 172.175192 402.551946 
L 173.494606 405.440978 
L 176.619532 412.930408 
L 180.99443 424.532053 
L 187.869268 443.527435 
L 190.438653 450.079444 
L 192.383051 454.630961 
L 194.466336 459.080594 
L 196.757949 463.32966 
L 198.632905 466.20024 
L 199.952318 467.877779 
L 201.48006 469.45991 
L 202.660588 470.390695 
L 203.910558 471.101508 
L 205.021643 471.493884 
L 206.132729 471.64945 
L 207.174371 471.585823 
L 208.285456 471.294704 
L 209.396541 470.77464 
L 210.577069 469.961735 
L 211.896482 468.78128 
L 213.215896 467.25946 
L 214.743637 465.180683 
L 216.479708 462.322357 
L 218.00745 459.464999 
L 220.368505 454.46597 
L 223.285104 447.42957 
L 227.521115 436.078794 
L 232.729326 421.617952 
L 235.507039 414.231483 
L 237.520881 409.243624 
L 239.118065 405.542227 
L 242.173549 399.319387 
L 244.951262 394.764264 
L 247.590089 391.568499 
L 250.09003 389.64742 
L 252.242757 388.936857 
L 252.867742 388.910278 
L 255.02047 389.325978 
L 255.714898 389.668369 
L 258.145396 391.463321 
L 259.117596 392.59891 
L 260.506452 394.253074 
L 261.409209 395.586485 
L 264.39525 400.821297 
L 268.145162 408.998197 
L 269.881232 413.288408 
L 278.839355 437.742511 
L 282.867038 448.340326 
L 285.714194 455.11373 
L 288.005806 459.928951 
L 290.158534 463.80918 
L 291.825161 466.298087 
L 293.214017 468.057727 
L 294.672317 469.523408 
L 295.852844 470.449796 
L 297.102815 471.134507 
L 298.2139 471.513022 
L 299.324985 471.652089 
L 300.43607 471.561101 
L 301.547155 471.235105 
L 302.65824 470.689731 
L 303.838768 469.840857 
L 305.227624 468.552119 
L 306.477595 467.072972 
L 308.213665 464.634053 
L 309.741407 462.045591 
L 311.477478 458.757488 
L 313.907976 453.488797 
L 316.616246 446.881315 
L 319.880058 438.188444 
L 328.352081 414.971966 
L 330.78258 408.924625 
L 332.726979 404.46929 
L 335.088034 399.616695 
L 337.93519 394.88356 
L 340.712902 391.510061 
L 343.282287 389.572801 
L 344.462814 389.194944 
L 346.059999 388.877645 
L 347.171084 389.097814 
L 348.837712 389.632575 
L 350.018239 390.480384 
L 351.684867 391.886814 
L 353.420937 394.045729 
L 354.948679 396.254609 
L 357.101407 399.948713 
L 358.837477 403.539633 
L 360.990204 408.373288 
L 363.83736 415.471722 
L 368.559471 428.259583 
L 372.378826 438.908197 
L 375.712081 447.712662 
L 379.114779 455.755156 
L 381.545277 460.752888 
L 383.767447 464.603562 
L 385.295189 466.777631 
L 386.753488 468.530757 
L 388.142344 469.82679 
L 389.392315 470.719114 
L 390.572843 471.280191 
L 391.683928 471.582906 
L 392.795013 471.648197 
L 393.906098 471.483393 
L 395.017183 471.081126 
L 396.197711 470.417662 
L 397.378239 469.476606 
L 398.767095 468.083092 
L 400.017066 466.51452 
L 401.822579 463.845134 
L 403.350321 461.14478 
L 405.086391 457.742287 
L 407.725218 451.839022 
L 410.98903 443.572022 
L 419.183282 421.034414 
L 421.127681 415.864984 
L 425.363693 405.455515 
L 426.960878 402.135583 
L 429.599705 397.211375 
L 432.169089 393.410788 
L 434.530144 390.873649 
L 436.4051 389.581757 
L 437.307857 389.215303 
L 438.974484 388.907764 
L 439.807798 388.938424 
L 440.571669 389.156495 
L 442.724396 390.116869 
L 443.766039 391.027659 
L 444.946566 392.056441 
L 446.196537 393.597852 
L 448.765921 397.404596 
L 451.543634 402.652593 
L 454.738003 409.918139 
L 459.460115 422.134941 
L 460.432314 424.893385 
L 460.432314 424.893385 
" style="fill:none;stroke:#800000;stroke-linecap:square;stroke-width:2;"/>
   </g>
   <g id="patch_3">
    <path d="M 76.8375 512.64 
L 76.8375 40.32 
" style="fill:none;stroke:#000000;stroke-linecap:square;stroke-linejoin:miter;stroke-width:0.8;"/>
   </g>
   <g id="patch_4">
    <path d="M 496.8825 512.64 
L 496.8825 40.32 
" style="fill:none;stroke:#000000;stroke-linecap:square;stroke-linejoin:miter;stroke-width:0.8;"/>
   </g>
   <g id="patch_5">
    <path d="M 76.8375 512.64 
L 496.8825 512.64 
" style="fill:none;stroke:#000000;stroke-linecap:square;stroke-linejoin:miter;stroke-width:0.8;"/>
   </g>
   <g id="patch_6">
    <path d="M 76.8375 40.32 
L 496.8825 40.32 
" style="fill:none;stroke:#000000;stroke-linecap:square;stroke-linejoin:miter;stroke-width:0.8;"/>
   </g>
   <g id="legend_1">
    <g id="patch_7">
     <path d="M 366.8825 367.54875 
L 482.8825 367.54875 
Q 486.8825 367.54875 486.8825 363.54875 
L 486.8825 189.41125 
Q 486.8825 185.41125 482.8825 185.41125 
L 366.8825 185.41125 
Q 362.8825 185.41125 362.8825 189.41125 
L 362.8825 363.54875 
Q 362.8825 367.54875 366.8825 367.54875 
z
" style="fill:#ffffff;opacity:0.8;stroke:#cccccc;stroke-linejoin:miter;"/>
    </g>
    <g id="line2d_31">
     <path d="M 370.8825 201.608125 
L 410.8825 201.608125 
" style="fill:none;stroke:#0028ff;stroke-linecap:square;stroke-width:2;"/>
    </g>
    <g id="line2d_32"/>
    <g id="text_15">
     <!-- $-30_{0}$ -->
     <g transform="translate(426.8825 208.608125)scale(0.2 -0.2)">
      <defs>
       <path d="M 10.59375 35.5 
L 73.1875 35.5 
L 73.1875 27.203125 
L 10.59375 27.203125 
z
" id="DejaVuSans-8722"/>
      </defs>
      <use transform="translate(0 0.78125)" xlink:href="#DejaVuSans-8722"/>
      <use transform="translate(83.789062 0.78125)" xlink:href="#DejaVuSans-51"/>
      <use transform="translate(147.412109 0.78125)" xlink:href="#DejaVuSans-48"/>
      <use transform="translate(211.992188 -15.625)scale(0.7)" xlink:href="#DejaVuSans-48"/>
     </g>
    </g>
    <g id="line2d_33">
     <path d="M 370.8825 230.964375 
L 410.8825 230.964375 
" style="fill:none;stroke:#00d4ff;stroke-linecap:square;stroke-width:2;"/>
    </g>
    <g id="line2d_34"/>
    <g id="text_16">
     <!-- $-20_{0}$ -->
     <g transform="translate(426.8825 237.964375)scale(0.2 -0.2)">
      <use transform="translate(0 0.78125)" xlink:href="#DejaVuSans-8722"/>
      <use transform="translate(83.789062 0.78125)" xlink:href="#DejaVuSans-50"/>
      <use transform="translate(147.412109 0.78125)" xlink:href="#DejaVuSans-48"/>
      <use transform="translate(211.992188 -15.625)scale(0.7)" xlink:href="#DejaVuSans-48"/>
     </g>
    </g>
    <g id="line2d_35">
     <path d="M 370.8825 260.320625 
L 410.8825 260.320625 
" style="fill:none;stroke:#7dff7a;stroke-linecap:square;stroke-width:2;"/>
    </g>
    <g id="line2d_36"/>
    <g id="text_17">
     <!-- $-10_{0}$ -->
     <g transform="translate(426.8825 267.320625)scale(0.2 -0.2)">
      <use transform="translate(0 0.78125)" xlink:href="#DejaVuSans-8722"/>
      <use transform="translate(83.789062 0.78125)" xlink:href="#DejaVuSans-49"/>
      <use transform="translate(147.412109 0.78125)" xlink:href="#DejaVuSans-48"/>
      <use transform="translate(211.992188 -15.625)scale(0.7)" xlink:href="#DejaVuSans-48"/>
     </g>
    </g>
    <g id="line2d_37">
     <path d="M 370.8825 289.676875 
L 410.8825 289.676875 
" style="fill:none;stroke:#ffe600;stroke-linecap:square;stroke-width:2;"/>
    </g>
    <g id="line2d_38"/>
    <g id="text_18">
     <!-- $0_{0}$ -->
     <g transform="translate(426.8825 296.676875)scale(0.2 -0.2)">
      <use transform="translate(0 0.78125)" xlink:href="#DejaVuSans-48"/>
      <use transform="translate(64.580078 -15.625)scale(0.7)" xlink:href="#DejaVuSans-48"/>
     </g>
    </g>
    <g id="line2d_39">
     <path d="M 370.8825 319.033125 
L 410.8825 319.033125 
" style="fill:none;stroke:#ff4700;stroke-linecap:square;stroke-width:2;"/>
    </g>
    <g id="line2d_40"/>
    <g id="text_19">
     <!-- $10_{0}$ -->
     <g transform="translate(426.8825 326.033125)scale(0.2 -0.2)">
      <use transform="translate(0 0.78125)" xlink:href="#DejaVuSans-49"/>
      <use transform="translate(63.623047 0.78125)" xlink:href="#DejaVuSans-48"/>
      <use transform="translate(128.203125 -15.625)scale(0.7)" xlink:href="#DejaVuSans-48"/>
     </g>
    </g>
    <g id="line2d_41">
     <path d="M 370.8825 348.389375 
L 410.8825 348.389375 
" style="fill:none;stroke:#800000;stroke-linecap:square;stroke-width:2;"/>
    </g>
    <g id="line2d_42"/>
    <g id="text_20">
     <!-- $20_{0}$ -->
     <g transform="translate(426.8825 355.389375)scale(0.2 -0.2)">
      <use transform="translate(0 0.78125)" xlink:href="#DejaVuSans-50"/>
      <use transform="translate(63.623047 0.78125)" xlink:href="#DejaVuSans-48"/>
      <use transform="translate(128.203125 -15.625)scale(0.7)" xlink:href="#DejaVuSans-48"/>
     </g>
    </g>
   </g>
  </g>
 </g>
 <defs>
  <clipPath id="p433171b2bd">
   <rect height="472.32" width="420.045" x="76.8375" y="40.32"/>
  </clipPath>
 </defs>
</svg>
