<?xml version="1.0" encoding="utf-8" standalone="no"?>
<!DOCTYPE svg PUBLIC "-//W3C//DTD SVG 1.1//EN"
  "http://www.w3.org/Graphics/SVG/1.1/DTD/svg11.dtd">
<!-- Created with matplotlib (https://matplotlib.org/) -->
<svg height="810pt" version="1.1" viewBox="0 0 720 810" width="720pt" xmlns="http://www.w3.org/2000/svg" xmlns:xlink="http://www.w3.org/1999/xlink">
 <metadata>
  <rdf:RDF xmlns:cc="http://creativecommons.org/ns#" xmlns:dc="http://purl.org/dc/elements/1.1/" xmlns:rdf="http://www.w3.org/1999/02/22-rdf-syntax-ns#">
   <cc:Work>
    <dc:type rdf:resource="http://purl.org/dc/dcmitype/StillImage"/>
    <dc:date>2020-08-27T12:49:21.205813</dc:date>
    <dc:format>image/svg+xml</dc:format>
    <dc:creator>
     <cc:Agent>
      <dc:title>Matplotlib v3.3.1, https://matplotlib.org/</dc:title>
     </cc:Agent>
    </dc:creator>
   </cc:Work>
  </rdf:RDF>
 </metadata>
 <defs>
  <style type="text/css">*{stroke-linecap:butt;stroke-linejoin:round;}</style>
 </defs>
 <g id="figure_1">
  <g id="patch_1">
   <path d="M 0 810 
L 720 810 
L 720 0 
L 0 0 
z
" style="fill:#ffffff;"/>
  </g>
  <g id="axes_1">
   <g id="patch_2">
    <path d="M 108 720.9 
L 698.4 720.9 
L 698.4 56.7 
L 108 56.7 
z
" style="fill:#ffffff;"/>
   </g>
   <g id="matplotlib.axis_1">
    <g id="xtick_1">
     <g id="line2d_1">
      <path clip-path="url(#p15832c0067)" d="M 158.988969 720.9 
L 158.988969 56.7 
" style="fill:none;stroke:#e6e6e6;stroke-linecap:square;stroke-width:0.8;"/>
     </g>
     <g id="line2d_2">
      <defs>
       <path d="M 0 0 
L 0 -3.5 
" id="m2bd9cf53f1" style="stroke:#000000;stroke-width:0.8;"/>
      </defs>
      <g>
       <use style="stroke:#000000;stroke-width:0.8;" x="158.988969" xlink:href="#m2bd9cf53f1" y="720.9"/>
      </g>
     </g>
     <g id="text_1">
      <!-- 0 -->
      <g transform="translate(154.217094 735.797656)scale(0.15 -0.15)">
       <defs>
        <path d="M 31.78125 66.40625 
Q 24.171875 66.40625 20.328125 58.90625 
Q 16.5 51.421875 16.5 36.375 
Q 16.5 21.390625 20.328125 13.890625 
Q 24.171875 6.390625 31.78125 6.390625 
Q 39.453125 6.390625 43.28125 13.890625 
Q 47.125 21.390625 47.125 36.375 
Q 47.125 51.421875 43.28125 58.90625 
Q 39.453125 66.40625 31.78125 66.40625 
z
M 31.78125 74.21875 
Q 44.046875 74.21875 50.515625 64.515625 
Q 56.984375 54.828125 56.984375 36.375 
Q 56.984375 17.96875 50.515625 8.265625 
Q 44.046875 -1.421875 31.78125 -1.421875 
Q 19.53125 -1.421875 13.0625 8.265625 
Q 6.59375 17.96875 6.59375 36.375 
Q 6.59375 54.828125 13.0625 64.515625 
Q 19.53125 74.21875 31.78125 74.21875 
z
" id="DejaVuSans-48"/>
       </defs>
       <use xlink:href="#DejaVuSans-48"/>
      </g>
     </g>
    </g>
    <g id="xtick_2">
     <g id="line2d_3">
      <path clip-path="url(#p15832c0067)" d="M 280.427779 720.9 
L 280.427779 56.7 
" style="fill:none;stroke:#e6e6e6;stroke-linecap:square;stroke-width:0.8;"/>
     </g>
     <g id="line2d_4">
      <g>
       <use style="stroke:#000000;stroke-width:0.8;" x="280.427779" xlink:href="#m2bd9cf53f1" y="720.9"/>
      </g>
     </g>
     <g id="text_2">
      <!-- 500 -->
      <g transform="translate(266.112154 735.797656)scale(0.15 -0.15)">
       <defs>
        <path d="M 10.796875 72.90625 
L 49.515625 72.90625 
L 49.515625 64.59375 
L 19.828125 64.59375 
L 19.828125 46.734375 
Q 21.96875 47.46875 24.109375 47.828125 
Q 26.265625 48.1875 28.421875 48.1875 
Q 40.625 48.1875 47.75 41.5 
Q 54.890625 34.8125 54.890625 23.390625 
Q 54.890625 11.625 47.5625 5.09375 
Q 40.234375 -1.421875 26.90625 -1.421875 
Q 22.3125 -1.421875 17.546875 -0.640625 
Q 12.796875 0.140625 7.71875 1.703125 
L 7.71875 11.625 
Q 12.109375 9.234375 16.796875 8.0625 
Q 21.484375 6.890625 26.703125 6.890625 
Q 35.15625 6.890625 40.078125 11.328125 
Q 45.015625 15.765625 45.015625 23.390625 
Q 45.015625 31 40.078125 35.4375 
Q 35.15625 39.890625 26.703125 39.890625 
Q 22.75 39.890625 18.8125 39.015625 
Q 14.890625 38.140625 10.796875 36.28125 
z
" id="DejaVuSans-53"/>
       </defs>
       <use xlink:href="#DejaVuSans-53"/>
       <use x="63.623047" xlink:href="#DejaVuSans-48"/>
       <use x="127.246094" xlink:href="#DejaVuSans-48"/>
      </g>
     </g>
    </g>
    <g id="xtick_3">
     <g id="line2d_5">
      <path clip-path="url(#p15832c0067)" d="M 401.866588 720.9 
L 401.866588 56.7 
" style="fill:none;stroke:#e6e6e6;stroke-linecap:square;stroke-width:0.8;"/>
     </g>
     <g id="line2d_6">
      <g>
       <use style="stroke:#000000;stroke-width:0.8;" x="401.866588" xlink:href="#m2bd9cf53f1" y="720.9"/>
      </g>
     </g>
     <g id="text_3">
      <!-- 1000 -->
      <g transform="translate(382.779088 735.797656)scale(0.15 -0.15)">
       <defs>
        <path d="M 12.40625 8.296875 
L 28.515625 8.296875 
L 28.515625 63.921875 
L 10.984375 60.40625 
L 10.984375 69.390625 
L 28.421875 72.90625 
L 38.28125 72.90625 
L 38.28125 8.296875 
L 54.390625 8.296875 
L 54.390625 0 
L 12.40625 0 
z
" id="DejaVuSans-49"/>
       </defs>
       <use xlink:href="#DejaVuSans-49"/>
       <use x="63.623047" xlink:href="#DejaVuSans-48"/>
       <use x="127.246094" xlink:href="#DejaVuSans-48"/>
       <use x="190.869141" xlink:href="#DejaVuSans-48"/>
      </g>
     </g>
    </g>
    <g id="xtick_4">
     <g id="line2d_7">
      <path clip-path="url(#p15832c0067)" d="M 523.305398 720.9 
L 523.305398 56.7 
" style="fill:none;stroke:#e6e6e6;stroke-linecap:square;stroke-width:0.8;"/>
     </g>
     <g id="line2d_8">
      <g>
       <use style="stroke:#000000;stroke-width:0.8;" x="523.305398" xlink:href="#m2bd9cf53f1" y="720.9"/>
      </g>
     </g>
     <g id="text_4">
      <!-- 1500 -->
      <g transform="translate(504.217898 735.797656)scale(0.15 -0.15)">
       <use xlink:href="#DejaVuSans-49"/>
       <use x="63.623047" xlink:href="#DejaVuSans-53"/>
       <use x="127.246094" xlink:href="#DejaVuSans-48"/>
       <use x="190.869141" xlink:href="#DejaVuSans-48"/>
      </g>
     </g>
    </g>
    <g id="xtick_5">
     <g id="line2d_9">
      <path clip-path="url(#p15832c0067)" d="M 644.744208 720.9 
L 644.744208 56.7 
" style="fill:none;stroke:#e6e6e6;stroke-linecap:square;stroke-width:0.8;"/>
     </g>
     <g id="line2d_10">
      <g>
       <use style="stroke:#000000;stroke-width:0.8;" x="644.744208" xlink:href="#m2bd9cf53f1" y="720.9"/>
      </g>
     </g>
     <g id="text_5">
      <!-- 2000 -->
      <g transform="translate(625.656708 735.797656)scale(0.15 -0.15)">
       <defs>
        <path d="M 19.1875 8.296875 
L 53.609375 8.296875 
L 53.609375 0 
L 7.328125 0 
L 7.328125 8.296875 
Q 12.9375 14.109375 22.625 23.890625 
Q 32.328125 33.6875 34.8125 36.53125 
Q 39.546875 41.84375 41.421875 45.53125 
Q 43.3125 49.21875 43.3125 52.78125 
Q 43.3125 58.59375 39.234375 62.25 
Q 35.15625 65.921875 28.609375 65.921875 
Q 23.96875 65.921875 18.8125 64.3125 
Q 13.671875 62.703125 7.8125 59.421875 
L 7.8125 69.390625 
Q 13.765625 71.78125 18.9375 73 
Q 24.125 74.21875 28.421875 74.21875 
Q 39.75 74.21875 46.484375 68.546875 
Q 53.21875 62.890625 53.21875 53.421875 
Q 53.21875 48.921875 51.53125 44.890625 
Q 49.859375 40.875 45.40625 35.40625 
Q 44.1875 33.984375 37.640625 27.21875 
Q 31.109375 20.453125 19.1875 8.296875 
z
" id="DejaVuSans-50"/>
       </defs>
       <use xlink:href="#DejaVuSans-50"/>
       <use x="63.623047" xlink:href="#DejaVuSans-48"/>
       <use x="127.246094" xlink:href="#DejaVuSans-48"/>
       <use x="190.869141" xlink:href="#DejaVuSans-48"/>
      </g>
     </g>
    </g>
   </g>
   <g id="matplotlib.axis_2">
    <g id="ytick_1">
     <g id="line2d_11">
      <path clip-path="url(#p15832c0067)" d="M 108 616.588658 
L 698.4 616.588658 
" style="fill:none;stroke:#e6e6e6;stroke-linecap:square;stroke-width:0.8;"/>
     </g>
     <g id="line2d_12">
      <defs>
       <path d="M 0 0 
L 3.5 0 
" id="mdf1f26c2f3" style="stroke:#000000;stroke-width:0.8;"/>
      </defs>
      <g>
       <use style="stroke:#000000;stroke-width:0.8;" x="108" xlink:href="#mdf1f26c2f3" y="616.588658"/>
      </g>
     </g>
     <g id="text_6">
      <!-- −0.8 -->
      <g transform="translate(68.075781 622.287486)scale(0.15 -0.15)">
       <defs>
        <path d="M 10.59375 35.5 
L 73.1875 35.5 
L 73.1875 27.203125 
L 10.59375 27.203125 
z
" id="DejaVuSans-8722"/>
        <path d="M 10.6875 12.40625 
L 21 12.40625 
L 21 0 
L 10.6875 0 
z
" id="DejaVuSans-46"/>
        <path d="M 31.78125 34.625 
Q 24.75 34.625 20.71875 30.859375 
Q 16.703125 27.09375 16.703125 20.515625 
Q 16.703125 13.921875 20.71875 10.15625 
Q 24.75 6.390625 31.78125 6.390625 
Q 38.8125 6.390625 42.859375 10.171875 
Q 46.921875 13.96875 46.921875 20.515625 
Q 46.921875 27.09375 42.890625 30.859375 
Q 38.875 34.625 31.78125 34.625 
z
M 21.921875 38.8125 
Q 15.578125 40.375 12.03125 44.71875 
Q 8.5 49.078125 8.5 55.328125 
Q 8.5 64.0625 14.71875 69.140625 
Q 20.953125 74.21875 31.78125 74.21875 
Q 42.671875 74.21875 48.875 69.140625 
Q 55.078125 64.0625 55.078125 55.328125 
Q 55.078125 49.078125 51.53125 44.71875 
Q 48 40.375 41.703125 38.8125 
Q 48.828125 37.15625 52.796875 32.3125 
Q 56.78125 27.484375 56.78125 20.515625 
Q 56.78125 9.90625 50.3125 4.234375 
Q 43.84375 -1.421875 31.78125 -1.421875 
Q 19.734375 -1.421875 13.25 4.234375 
Q 6.78125 9.90625 6.78125 20.515625 
Q 6.78125 27.484375 10.78125 32.3125 
Q 14.796875 37.15625 21.921875 38.8125 
z
M 18.3125 54.390625 
Q 18.3125 48.734375 21.84375 45.5625 
Q 25.390625 42.390625 31.78125 42.390625 
Q 38.140625 42.390625 41.71875 45.5625 
Q 45.3125 48.734375 45.3125 54.390625 
Q 45.3125 60.0625 41.71875 63.234375 
Q 38.140625 66.40625 31.78125 66.40625 
Q 25.390625 66.40625 21.84375 63.234375 
Q 18.3125 60.0625 18.3125 54.390625 
z
" id="DejaVuSans-56"/>
       </defs>
       <use xlink:href="#DejaVuSans-8722"/>
       <use x="83.789062" xlink:href="#DejaVuSans-48"/>
       <use x="147.412109" xlink:href="#DejaVuSans-46"/>
       <use x="179.199219" xlink:href="#DejaVuSans-56"/>
      </g>
     </g>
    </g>
    <g id="ytick_2">
     <g id="line2d_13">
      <path clip-path="url(#p15832c0067)" d="M 108 491.025787 
L 698.4 491.025787 
" style="fill:none;stroke:#e6e6e6;stroke-linecap:square;stroke-width:0.8;"/>
     </g>
     <g id="line2d_14">
      <g>
       <use style="stroke:#000000;stroke-width:0.8;" x="108" xlink:href="#mdf1f26c2f3" y="491.025787"/>
      </g>
     </g>
     <g id="text_7">
      <!-- −0.6 -->
      <g transform="translate(68.075781 496.724615)scale(0.15 -0.15)">
       <defs>
        <path d="M 33.015625 40.375 
Q 26.375 40.375 22.484375 35.828125 
Q 18.609375 31.296875 18.609375 23.390625 
Q 18.609375 15.53125 22.484375 10.953125 
Q 26.375 6.390625 33.015625 6.390625 
Q 39.65625 6.390625 43.53125 10.953125 
Q 47.40625 15.53125 47.40625 23.390625 
Q 47.40625 31.296875 43.53125 35.828125 
Q 39.65625 40.375 33.015625 40.375 
z
M 52.59375 71.296875 
L 52.59375 62.3125 
Q 48.875 64.0625 45.09375 64.984375 
Q 41.3125 65.921875 37.59375 65.921875 
Q 27.828125 65.921875 22.671875 59.328125 
Q 17.53125 52.734375 16.796875 39.40625 
Q 19.671875 43.65625 24.015625 45.921875 
Q 28.375 48.1875 33.59375 48.1875 
Q 44.578125 48.1875 50.953125 41.515625 
Q 57.328125 34.859375 57.328125 23.390625 
Q 57.328125 12.15625 50.6875 5.359375 
Q 44.046875 -1.421875 33.015625 -1.421875 
Q 20.359375 -1.421875 13.671875 8.265625 
Q 6.984375 17.96875 6.984375 36.375 
Q 6.984375 53.65625 15.1875 63.9375 
Q 23.390625 74.21875 37.203125 74.21875 
Q 40.921875 74.21875 44.703125 73.484375 
Q 48.484375 72.75 52.59375 71.296875 
z
" id="DejaVuSans-54"/>
       </defs>
       <use xlink:href="#DejaVuSans-8722"/>
       <use x="83.789062" xlink:href="#DejaVuSans-48"/>
       <use x="147.412109" xlink:href="#DejaVuSans-46"/>
       <use x="179.199219" xlink:href="#DejaVuSans-54"/>
      </g>
     </g>
    </g>
    <g id="ytick_3">
     <g id="line2d_15">
      <path clip-path="url(#p15832c0067)" d="M 108 365.462916 
L 698.4 365.462916 
" style="fill:none;stroke:#e6e6e6;stroke-linecap:square;stroke-width:0.8;"/>
     </g>
     <g id="line2d_16">
      <g>
       <use style="stroke:#000000;stroke-width:0.8;" x="108" xlink:href="#mdf1f26c2f3" y="365.462916"/>
      </g>
     </g>
     <g id="text_8">
      <!-- −0.4 -->
      <g transform="translate(68.075781 371.161744)scale(0.15 -0.15)">
       <defs>
        <path d="M 37.796875 64.3125 
L 12.890625 25.390625 
L 37.796875 25.390625 
z
M 35.203125 72.90625 
L 47.609375 72.90625 
L 47.609375 25.390625 
L 58.015625 25.390625 
L 58.015625 17.1875 
L 47.609375 17.1875 
L 47.609375 0 
L 37.796875 0 
L 37.796875 17.1875 
L 4.890625 17.1875 
L 4.890625 26.703125 
z
" id="DejaVuSans-52"/>
       </defs>
       <use xlink:href="#DejaVuSans-8722"/>
       <use x="83.789062" xlink:href="#DejaVuSans-48"/>
       <use x="147.412109" xlink:href="#DejaVuSans-46"/>
       <use x="179.199219" xlink:href="#DejaVuSans-52"/>
      </g>
     </g>
    </g>
    <g id="ytick_4">
     <g id="line2d_17">
      <path clip-path="url(#p15832c0067)" d="M 108 239.900045 
L 698.4 239.900045 
" style="fill:none;stroke:#e6e6e6;stroke-linecap:square;stroke-width:0.8;"/>
     </g>
     <g id="line2d_18">
      <g>
       <use style="stroke:#000000;stroke-width:0.8;" x="108" xlink:href="#mdf1f26c2f3" y="239.900045"/>
      </g>
     </g>
     <g id="text_9">
      <!-- −0.2 -->
      <g transform="translate(68.075781 245.598873)scale(0.15 -0.15)">
       <use xlink:href="#DejaVuSans-8722"/>
       <use x="83.789062" xlink:href="#DejaVuSans-48"/>
       <use x="147.412109" xlink:href="#DejaVuSans-46"/>
       <use x="179.199219" xlink:href="#DejaVuSans-50"/>
      </g>
     </g>
    </g>
    <g id="ytick_5">
     <g id="line2d_19">
      <path clip-path="url(#p15832c0067)" d="M 108 114.337173 
L 698.4 114.337173 
" style="fill:none;stroke:#e6e6e6;stroke-linecap:square;stroke-width:0.8;"/>
     </g>
     <g id="line2d_20">
      <g>
       <use style="stroke:#000000;stroke-width:0.8;" x="108" xlink:href="#mdf1f26c2f3" y="114.337173"/>
      </g>
     </g>
     <g id="text_10">
      <!-- 0.0 -->
      <g transform="translate(80.645313 120.036002)scale(0.15 -0.15)">
       <use xlink:href="#DejaVuSans-48"/>
       <use x="63.623047" xlink:href="#DejaVuSans-46"/>
       <use x="95.410156" xlink:href="#DejaVuSans-48"/>
      </g>
     </g>
    </g>
   </g>
   <g id="line2d_21">
    <path clip-path="url(#p15832c0067)" d="M 159.233058 114.337929 
L 162.162126 114.466603 
L 165.091194 114.826559 
L 168.26435 115.461048 
L 171.193418 116.266128 
L 174.122486 117.312549 
L 177.539732 118.797185 
L 180.712889 120.401511 
L 183.641957 122.133659 
L 187.54738 124.742476 
L 190.964626 127.260518 
L 194.137783 129.887882 
L 199.507741 134.706202 
L 202.924986 138.079469 
L 209.515389 145.113142 
L 212.932635 149.040174 
L 222.208016 160.360469 
L 231.239309 172.123343 
L 243.443758 188.628564 
L 246.861004 193.18477 
L 257.600919 207.266619 
L 266.632212 218.392317 
L 273.466704 226.203963 
L 275.907593 228.743386 
L 282.009818 234.769116 
L 284.450708 237.063545 
L 287.867954 239.859578 
L 293.970178 244.576551 
L 296.655157 246.242489 
L 302.513293 249.572493 
L 304.466005 250.474668 
L 308.371429 251.865688 
L 313.741386 253.465335 
L 316.426365 253.821597 
L 319.843611 254.0441 
L 321.308145 254.185064 
L 323.016768 254.230678 
L 324.725391 254.068955 
L 332.536238 252.681014 
L 334.48895 252.022529 
L 342.543887 248.568562 
L 344.984777 247.128003 
L 347.913845 245.211369 
L 353.527891 241.279848 
L 358.165582 237.289314 
L 364.267807 231.664099 
L 367.196874 228.599173 
L 374.275455 220.895184 
L 378.424968 215.897905 
L 386.235815 206.204581 
L 402.833867 184.212602 
L 408.692002 176.23922 
L 415.038316 167.814621 
L 419.187829 162.429315 
L 429.683655 149.50477 
L 437.250414 140.973353 
L 442.132193 136.048162 
L 446.769884 131.654301 
L 449.943041 128.974968 
L 454.580732 125.337711 
L 457.5098 123.295771 
L 461.171134 121.055165 
L 464.58838 119.195742 
L 467.517448 117.850416 
L 470.690605 116.649484 
L 473.863762 115.673356 
L 476.792829 115.010105 
L 479.721897 114.578693 
L 482.650965 114.36131 
L 485.580033 114.371084 
L 488.509101 114.601897 
L 491.438169 115.053682 
L 494.367237 115.742364 
L 497.540393 116.720953 
L 500.71355 117.940332 
L 503.642618 119.323922 
L 507.303953 121.316498 
L 510.47711 123.271932 
L 513.650266 125.521414 
L 518.043868 128.931043 
L 521.217025 131.639808 
L 525.610627 135.783701 
L 530.248318 140.417834 
L 534.886008 145.543722 
L 540.988233 152.603532 
L 550.507703 164.530519 
L 571.011178 191.979876 
L 575.648869 198.220881 
L 587.121051 212.890673 
L 591.758742 218.539219 
L 595.420077 222.780225 
L 602.498658 230.391914 
L 606.159992 233.957735 
L 614.459018 241.243994 
L 616.899908 242.982283 
L 619.828976 245.057055 
L 622.269866 246.694056 
L 625.687111 248.615401 
L 632.521603 251.692355 
L 634.230226 252.310259 
L 636.427027 252.829861 
L 639.356095 253.503781 
L 641.552895 253.933566 
L 644.726052 254.21935 
L 646.922853 254.112481 
L 647.166942 254.093517 
L 647.166942 254.093517 
" style="fill:none;stroke:#08ff00;stroke-linecap:square;stroke-width:2;"/>
   </g>
   <g id="line2d_22">
    <path clip-path="url(#p15832c0067)" d="M 159.233058 114.339277 
L 161.429859 114.505598 
L 163.870749 114.663292 
L 165.82346 114.543226 
L 168.752528 114.337837 
L 170.70524 114.468771 
L 173.390219 114.666362 
L 175.342931 114.556272 
L 178.271999 114.337219 
L 180.224711 114.458731 
L 183.153779 114.670985 
L 185.10649 114.546009 
L 188.035558 114.338138 
L 189.98827 114.474886 
L 192.673249 114.678743 
L 194.625961 114.563384 
L 197.555029 114.33749 
L 199.507741 114.464634 
L 202.436808 114.68735 
L 204.38952 114.556748 
L 207.318588 114.338587 
L 209.2713 114.48108 
L 211.956279 114.698168 
L 213.908991 114.578587 
L 216.838059 114.338325 
L 218.546682 114.441956 
L 221.719838 114.709589 
L 223.67255 114.575212 
L 226.601618 114.339469 
L 228.55433 114.485031 
L 231.239309 114.72157 
L 232.947932 114.628016 
L 236.365178 114.341445 
L 238.31789 114.500766 
L 241.002868 114.734274 
L 242.711491 114.628578 
L 246.128737 114.344084 
L 248.081449 114.51624 
L 250.522339 114.744905 
L 252.230962 114.656621 
L 255.892297 114.347218 
L 257.845008 114.531164 
L 260.285898 114.757322 
L 261.994521 114.658276 
L 265.411767 114.344803 
L 267.12039 114.480028 
L 270.049458 114.768475 
L 271.758081 114.659347 
L 275.175327 114.347071 
L 276.883949 114.491566 
L 279.813017 114.777945 
L 281.52164 114.659498 
L 284.694797 114.34626 
L 286.40342 114.470002 
L 289.576577 114.785602 
L 291.2852 114.658524 
L 294.458356 114.347476 
L 296.166979 114.479027 
L 299.096047 114.790709 
L 300.80467 114.686904 
L 304.221916 114.348666 
L 305.930539 114.487206 
L 308.859607 114.795173 
L 310.56823 114.683892 
L 313.985475 114.349736 
L 315.694098 114.494463 
L 318.623166 114.797361 
L 320.331789 114.679175 
L 323.504946 114.348595 
L 325.213569 114.468128 
L 328.386726 114.797074 
L 330.095349 114.672627 
L 333.268505 114.34834 
L 334.977128 114.473326 
L 338.150285 114.794484 
L 339.858908 114.664334 
L 343.032065 114.347975 
L 344.740688 114.477831 
L 347.669756 114.78889 
L 349.378378 114.68492 
L 352.795624 114.347541 
L 354.504247 114.481842 
L 357.433315 114.782954 
L 359.141938 114.673277 
L 362.559184 114.347127 
L 364.267807 114.485418 
L 367.196874 114.775012 
L 368.905497 114.659932 
L 372.078654 114.344703 
L 373.787277 114.457896 
L 376.960434 114.76533 
L 378.669057 114.645061 
L 381.842214 114.343438 
L 383.550837 114.461373 
L 386.723993 114.7541 
L 388.432616 114.628854 
L 391.361684 114.342891 
L 393.070307 114.437061 
L 396.487553 114.741599 
L 398.196176 114.611548 
L 401.125244 114.34102 
L 402.833867 114.441407 
L 406.251112 114.728249 
L 408.203824 114.563643 
L 410.644714 114.341854 
L 412.353337 114.420751 
L 416.014672 114.714222 
L 417.967384 114.545568 
L 420.408274 114.339612 
L 422.116896 114.426599 
L 425.534142 114.705423 
L 427.486854 114.556186 
L 430.171833 114.338245 
L 432.124545 114.459361 
L 435.053613 114.695619 
L 437.006325 114.565496 
L 439.935392 114.337897 
L 441.888104 114.467516 
L 444.817172 114.685254 
L 446.769884 114.546826 
L 449.454863 114.337537 
L 451.407575 114.451098 
L 454.580732 114.67556 
L 456.533444 114.528722 
L 459.218422 114.337433 
L 461.171134 114.46189 
L 464.100202 114.671124 
L 466.052914 114.538005 
L 468.737893 114.337273 
L 470.690605 114.448831 
L 473.863762 114.66539 
L 475.816474 114.521678 
L 478.501452 114.337471 
L 480.454164 114.462055 
L 483.383232 114.6656 
L 485.335944 114.53283 
L 488.020923 114.33719 
L 489.973635 114.451404 
L 492.902703 114.667337 
L 494.855414 114.54528 
L 497.784482 114.337698 
L 499.737194 114.466496 
L 502.666262 114.669706 
L 504.618974 114.533549 
L 507.303953 114.337246 
L 509.256665 114.45665 
L 512.185733 114.676434 
L 514.138444 114.550032 
L 517.067512 114.33802 
L 519.020224 114.472785 
L 521.705203 114.684067 
L 523.657915 114.56855 
L 526.586983 114.337623 
L 528.539695 114.462437 
L 531.468762 114.693549 
L 533.421474 114.562709 
L 536.350542 114.338576 
L 538.303254 114.478669 
L 540.988233 114.703914 
L 542.696856 114.61216 
L 546.114102 114.340535 
L 548.066814 114.49522 
L 550.751792 114.715888 
L 552.460415 114.610947 
L 555.633572 114.33969 
L 557.342195 114.453157 
L 560.515352 114.727769 
L 562.223975 114.610274 
L 565.397132 114.341464 
L 567.105755 114.467095 
L 570.034822 114.73968 
L 571.743445 114.638621 
L 575.160691 114.343859 
L 576.869314 114.480886 
L 579.798382 114.751821 
L 581.507005 114.639528 
L 584.680162 114.343131 
L 586.388784 114.463328 
L 589.561941 114.762782 
L 591.270564 114.639984 
L 594.199632 114.34516 
L 595.908255 114.445083 
L 599.325501 114.772353 
L 601.034124 114.639805 
L 603.963192 114.345879 
L 605.671814 114.454993 
L 609.08906 114.780164 
L 610.797683 114.638774 
L 613.726751 114.346738 
L 615.435374 114.464237 
L 618.608531 114.788288 
L 620.317154 114.668716 
L 623.49031 114.347613 
L 625.198933 114.472808 
L 628.37209 114.793286 
L 630.080713 114.666028 
L 633.25387 114.34843 
L 634.962493 114.4805 
L 637.891561 114.79476 
L 639.600184 114.693056 
L 643.017429 114.34913 
L 644.726052 114.487391 
L 647.166942 114.779684 
L 647.166942 114.779684 
" style="fill:none;stroke:#08ff00;stroke-dasharray:7.4,3.2;stroke-dashoffset:0;stroke-width:2;"/>
   </g>
   <g id="line2d_23">
    <defs>
     <path d="M -2.5 2.5 
L 2.5 2.5 
L 2.5 -2.5 
L -2.5 -2.5 
z
" id="mb34946f15f" style="stroke:#08ff00;stroke-linejoin:miter;"/>
    </defs>
    <g clip-path="url(#p15832c0067)">
     <use style="fill:#08ff00;stroke:#08ff00;stroke-linejoin:miter;" x="483.87141" xlink:href="#mb34946f15f" y="114.337384"/>
    </g>
   </g>
   <g id="line2d_24">
    <g clip-path="url(#p15832c0067)">
     <use style="fill:#08ff00;stroke:#08ff00;stroke-linejoin:miter;" x="168.508439" xlink:href="#mb34946f15f" y="114.337587"/>
    </g>
   </g>
   <g id="line2d_25">
    <path clip-path="url(#p15832c0067)" d="M 159.233058 114.343969 
L 160.209414 114.506571 
L 161.18577 114.892466 
L 162.162126 115.53285 
L 163.138482 116.446501 
L 164.358927 117.947673 
L 165.579372 119.844571 
L 167.287994 122.9943 
L 168.752528 126.099722 
L 170.461151 130.320862 
L 171.681596 133.845088 
L 173.14613 138.752606 
L 174.854753 145.165589 
L 178.516088 160.171424 
L 180.712889 170.156544 
L 182.421512 179.065295 
L 184.862401 193.09229 
L 191.696893 234.482175 
L 194.625961 255.457095 
L 197.066851 272.634778 
L 200.484097 296.276315 
L 202.680897 313.172768 
L 207.074499 346.81368 
L 210.979923 374.811075 
L 216.349881 415.734469 
L 222.940283 460.049668 
L 225.137084 474.954655 
L 226.601618 483.22157 
L 231.971576 511.758992 
L 234.656555 526.255004 
L 235.877 531.349186 
L 237.341534 536.351789 
L 242.223313 553.094847 
L 243.687847 558.238198 
L 244.664203 560.908032 
L 245.39647 562.393765 
L 246.372826 563.771955 
L 250.766428 568.485911 
L 253.451407 571.821367 
L 253.939585 572.099131 
L 254.427763 572.178705 
L 254.915941 572.052533 
L 255.404119 571.743395 
L 256.136386 570.99918 
L 260.529987 565.116081 
L 263.214966 562.030384 
L 263.947233 560.637052 
L 264.923589 558.093836 
L 266.144034 554.015988 
L 270.781725 537.288202 
L 273.710793 526.925693 
L 274.931238 521.095282 
L 276.63986 511.686554 
L 280.057106 492.690222 
L 283.96253 471.509897 
L 285.671153 459.990544 
L 289.576577 432.687726 
L 294.458356 399.795696 
L 301.292848 348.448498 
L 303.489649 332.753013 
L 307.150984 304.051717 
L 309.347785 287.915552 
L 312.276852 268.117072 
L 315.450009 245.625018 
L 318.134988 227.10112 
L 320.575878 212.214695 
L 327.898548 171.010973 
L 330.095349 160.883373 
L 333.268505 147.926149 
L 335.709395 138.694197 
L 337.173929 133.808713 
L 338.638463 129.655224 
L 340.102997 126.080723 
L 341.81162 122.549212 
L 343.520243 119.485584 
L 344.984777 117.367815 
L 346.205222 116.001913 
L 347.181578 115.221046 
L 348.157934 114.699604 
L 349.134289 114.411399 
L 350.110645 114.345177 
L 351.087001 114.490101 
L 352.063357 114.858989 
L 353.039713 115.478402 
L 354.016069 116.352214 
L 354.992425 117.490543 
L 356.21287 119.283249 
L 357.677404 121.827665 
L 359.141938 124.77356 
L 360.850561 128.697831 
L 362.315095 132.696231 
L 364.023718 138.19603 
L 365.732341 144.571425 
L 369.149586 158.393317 
L 371.346387 168.059374 
L 373.05501 176.655435 
L 375.007722 187.56696 
L 382.574481 232.846337 
L 384.771282 248.309844 
L 387.700349 269.084641 
L 392.33804 301.506768 
L 394.77893 320.708754 
L 396.975731 337.613454 
L 400.148888 360.012699 
L 402.345689 376.236864 
L 407.715646 416.758302 
L 413.573782 456.156616 
L 415.770583 471.455943 
L 417.479206 481.455002 
L 424.069608 517.283293 
L 425.534142 524.969828 
L 426.998676 531.177639 
L 428.951388 537.952273 
L 431.392278 546.133339 
L 433.100901 552.50711 
L 434.565435 557.80942 
L 435.541791 560.583194 
L 436.518147 562.656998 
L 437.494503 564.104449 
L 438.470859 565.244689 
L 441.155837 568.085572 
L 442.376282 569.729913 
L 443.596727 571.620592 
L 444.328994 572.411058 
L 445.061261 572.83156 
L 445.549439 572.894494 
L 446.037617 572.78305 
L 446.769884 572.245339 
L 447.990329 570.882733 
L 450.675308 567.180119 
L 452.139842 565.57339 
L 453.116198 564.780478 
L 453.848465 563.919626 
L 454.580732 562.704384 
L 455.312999 561.130188 
L 456.289355 558.426819 
L 457.997978 552.459201 
L 461.659312 539.240715 
L 463.367935 533.889275 
L 464.58838 529.177082 
L 465.808825 523.557246 
L 467.517448 514.258103 
L 471.178783 493.768383 
L 474.840118 474.121236 
L 476.54874 462.733506 
L 481.918698 425.719001 
L 483.87141 412.945894 
L 485.824122 398.641918 
L 490.949991 359.029057 
L 494.611325 332.979954 
L 497.296304 311.774174 
L 499.737194 293.085514 
L 501.689906 279.495407 
L 504.863063 257.596321 
L 509.744843 223.480522 
L 511.453466 213.183264 
L 519.020224 170.329083 
L 520.728847 162.337349 
L 523.657915 150.155773 
L 526.586983 138.869005 
L 528.295606 133.21402 
L 529.76014 129.062346 
L 531.224673 125.58953 
L 533.177385 121.616418 
L 534.641919 119.109943 
L 536.106453 117.043984 
L 537.082809 115.98686 
L 538.059165 115.206213 
L 539.035521 114.67989 
L 540.011877 114.399223 
L 540.988233 114.34295 
L 541.964589 114.499427 
L 542.940945 114.882925 
L 543.917301 115.505701 
L 544.893657 116.390194 
L 545.870013 117.561085 
L 547.090458 119.373575 
L 548.554992 121.978435 
L 550.263614 125.516881 
L 551.728148 128.963545 
L 553.192682 133.002905 
L 554.657216 137.677105 
L 556.365839 144.035953 
L 559.294907 155.943285 
L 561.979886 167.643273 
L 563.932598 177.353676 
L 565.641221 186.99466 
L 572.475712 227.582315 
L 574.428424 240.675342 
L 580.774738 285.433891 
L 583.215628 302.852425 
L 585.16834 318.221572 
L 588.097407 340.918778 
L 594.931899 391.082569 
L 597.1287 407.975127 
L 599.081412 421.376572 
L 603.963192 453.584435 
L 606.404081 470.684422 
L 607.868615 479.597739 
L 610.065416 491.2002 
L 612.750395 504.95055 
L 617.143997 528.360047 
L 618.364442 533.108433 
L 620.073065 538.722145 
L 622.758043 547.339968 
L 625.198933 556.329593 
L 626.419378 559.869219 
L 627.151645 561.483027 
L 628.37209 563.392757 
L 629.348446 564.453055 
L 631.057069 565.903905 
L 632.033425 566.811939 
L 632.765692 567.722269 
L 634.230226 569.864577 
L 634.962493 570.691735 
L 635.69476 571.223351 
L 636.182938 571.389893 
L 636.671116 571.358766 
L 637.159294 571.116897 
L 638.13565 570.276068 
L 638.867917 569.368524 
L 641.308806 565.605775 
L 642.285162 564.298003 
L 644.481963 562.118149 
L 645.458319 560.593063 
L 646.190586 559.062596 
L 646.922853 557.080945 
L 647.166942 556.298522 
L 647.166942 556.298522 
" style="fill:none;stroke:#0010ff;stroke-linecap:square;stroke-width:2;"/>
   </g>
   <g id="line2d_26">
    <path clip-path="url(#p15832c0067)" d="M 159.233058 114.356101 
L 159.965325 114.627506 
L 160.941681 115.368894 
L 162.650304 116.829756 
L 163.382571 117.119577 
L 164.114838 117.100984 
L 164.847105 116.793554 
L 165.82346 116.007595 
L 167.287994 114.7413 
L 168.020261 114.395784 
L 168.752528 114.366615 
L 169.484795 114.667144 
L 170.461151 115.441094 
L 172.169774 116.915989 
L 172.902041 117.19831 
L 173.390219 117.200538 
L 174.122486 116.955344 
L 174.854753 116.447043 
L 177.051554 114.576541 
L 177.783821 114.344899 
L 178.271999 114.378227 
L 179.004266 114.708138 
L 179.980622 115.525752 
L 181.689245 117.038041 
L 182.421512 117.329834 
L 182.90969 117.325097 
L 183.641957 117.04247 
L 184.374223 116.508755 
L 186.571024 114.577081 
L 187.303291 114.347723 
L 187.791469 114.390028 
L 188.523736 114.743827 
L 189.500092 115.608032 
L 190.964626 117.01133 
L 191.696893 117.428766 
L 192.185071 117.512867 
L 192.673249 117.426851 
L 193.405516 117.022901 
L 194.381872 116.142004 
L 195.846406 114.756261 
L 196.578673 114.39913 
L 197.066851 114.358808 
L 197.555029 114.485343 
L 198.287296 114.962454 
L 199.507741 116.206202 
L 200.484097 117.154878 
L 201.216364 117.599137 
L 201.704542 117.699106 
L 202.19272 117.621011 
L 202.924986 117.200131 
L 203.901342 116.275938 
L 205.365876 114.815963 
L 206.098143 114.425734 
L 206.586321 114.372386 
L 207.074499 114.493813 
L 207.806766 114.979642 
L 208.783122 116.000402 
L 210.003567 117.283517 
L 210.735834 117.76492 
L 211.224012 117.886837 
L 211.71219 117.825711 
L 212.444457 117.4071 
L 213.420813 116.441773 
L 214.885347 114.899811 
L 215.617614 114.465953 
L 216.105792 114.390219 
L 216.59397 114.497009 
L 217.326237 114.975618 
L 218.302593 116.025905 
L 219.523038 117.382875 
L 220.255305 117.906002 
L 220.743482 118.054968 
L 221.23166 118.018638 
L 221.719838 117.794612 
L 222.452105 117.169238 
L 224.892995 114.639991 
L 225.381173 114.441318 
L 225.869351 114.429134 
L 226.357529 114.604713 
L 227.089796 115.180822 
L 228.310241 116.615993 
L 229.286597 117.663066 
L 230.018864 118.120236 
L 230.507042 118.209406 
L 230.99522 118.105988 
L 231.483398 117.815659 
L 232.215665 117.107669 
L 234.168377 114.90227 
L 234.900644 114.483759 
L 235.388822 114.436603 
L 235.877 114.583059 
L 236.609267 115.131168 
L 237.585623 116.269343 
L 238.806067 117.679625 
L 239.538334 118.189088 
L 240.026512 118.311842 
L 240.51469 118.240874 
L 241.002868 117.978839 
L 241.735135 117.286829 
L 243.931936 114.805524 
L 244.420114 114.529955 
L 244.908292 114.443396 
L 245.39647 114.554463 
L 245.884648 114.851325 
L 246.616915 115.578512 
L 248.569627 117.864695 
L 249.301894 118.29876 
L 249.790072 118.362334 
L 250.27825 118.229783 
L 251.010517 117.689094 
L 251.986873 116.546107 
L 253.207318 115.10662 
L 253.939585 114.576646 
L 254.427763 114.449195 
L 254.915941 114.520193 
L 255.404119 114.781196 
L 256.136386 115.468239 
L 258.333186 117.982055 
L 259.065453 118.334261 
L 259.553631 118.337215 
L 260.041809 118.145558 
L 260.774076 117.533885 
L 261.994521 116.039849 
L 262.970877 114.966361 
L 263.703144 114.513152 
L 264.191322 114.444502 
L 264.6795 114.572551 
L 265.411767 115.097063 
L 266.388123 116.216926 
L 267.608568 117.645438 
L 268.340835 118.166787 
L 268.829013 118.297026 
L 269.317191 118.238838 
L 269.805369 117.992796 
L 270.537636 117.322495 
L 272.978526 114.657874 
L 273.466704 114.457645 
L 273.954882 114.449327 
L 274.44306 114.631915 
L 275.175327 115.213693 
L 276.395771 116.647192 
L 277.372127 117.689589 
L 278.104394 118.121077 
L 278.592572 118.186954 
L 279.08075 118.069486 
L 279.813017 117.566509 
L 280.789373 116.47339 
L 282.009818 115.073023 
L 282.742085 114.550179 
L 283.230263 114.414428 
L 283.718441 114.467418 
L 284.206619 114.701383 
L 284.938886 115.329274 
L 287.379776 117.836553 
L 287.867954 118.01512 
L 288.356132 118.015285 
L 288.84431 117.839753 
L 289.576577 117.278158 
L 290.797022 115.888253 
L 291.773378 114.881187 
L 292.505645 114.457531 
L 292.993823 114.389616 
L 293.482001 114.503666 
L 294.214267 114.979888 
L 295.190623 115.984412 
L 296.411068 117.280232 
L 297.143335 117.750609 
L 297.631513 117.857177 
L 298.119691 117.79043 
L 298.851958 117.389862 
L 299.584225 116.6972 
L 301.292848 114.883201 
L 302.025115 114.45251 
L 302.513293 114.36809 
L 303.001471 114.45826 
L 303.733738 114.890125 
L 304.710094 115.832432 
L 306.174628 117.267667 
L 306.906895 117.627848 
L 307.395073 117.660522 
L 307.883251 117.527969 
L 308.615518 117.058904 
L 309.591874 116.083752 
L 310.812319 114.867179 
L 311.544586 114.443216 
L 312.032763 114.352263 
L 312.520941 114.427227 
L 313.253208 114.828073 
L 314.229564 115.71832 
L 315.694098 117.082901 
L 316.426365 117.441912 
L 316.914543 117.48124 
L 317.402721 117.358935 
L 318.134988 116.916931 
L 319.111344 115.997991 
L 320.331789 114.837649 
L 321.064056 114.430824 
L 321.552234 114.342604 
L 322.040412 114.411998 
L 322.772679 114.792284 
L 323.749035 115.644379 
L 325.213569 116.932904 
L 325.945836 117.284277 
L 326.434014 117.324559 
L 327.166281 117.091827 
L 327.898548 116.580584 
L 330.339437 114.509357 
L 331.071704 114.338057 
L 331.803971 114.502768 
L 332.536238 114.967924 
L 335.221217 117.092746 
L 335.953484 117.205488 
L 336.441662 117.085033 
L 337.173929 116.656766 
L 338.394374 115.574106 
L 339.37073 114.753617 
L 340.102997 114.399023 
L 340.835264 114.362055 
L 341.567531 114.644837 
L 342.543887 115.404478 
L 344.008421 116.65861 
L 344.740688 117.037974 
L 345.472955 117.13776 
L 346.205222 116.894395 
L 346.937489 116.379408 
L 349.134289 114.56987 
L 349.866556 114.34345 
L 350.598823 114.442245 
L 351.33109 114.839229 
L 352.551535 115.903811 
L 353.527891 116.699475 
L 354.260158 117.048878 
L 354.992425 117.125583 
L 355.724692 116.870872 
L 356.456959 116.340902 
L 358.65376 114.542967 
L 359.386027 114.339327 
L 360.118294 114.466621 
L 360.850561 114.889167 
L 362.071006 115.984802 
L 363.047362 116.791871 
L 363.779629 117.128233 
L 364.511896 117.17665 
L 365.244163 116.903365 
L 365.97643 116.353615 
L 367.929141 114.661458 
L 368.661408 114.364235 
L 369.149586 114.351869 
L 369.881853 114.612653 
L 370.61412 115.146274 
L 372.810921 117.067632 
L 373.543188 117.302002 
L 374.275455 117.222398 
L 375.007722 116.826851 
L 375.984078 115.945417 
L 377.204523 114.829509 
L 377.93679 114.429176 
L 378.424968 114.342544 
L 378.913146 114.41711 
L 379.645413 114.80558 
L 380.621769 115.683753 
L 382.086303 117.06845 
L 382.81857 117.426877 
L 383.306748 117.475703 
L 384.039015 117.270194 
L 384.771282 116.759054 
L 387.45626 114.444925 
L 387.944438 114.352469 
L 388.432616 114.42843 
L 389.164883 114.834524 
L 390.141239 115.756194 
L 391.605773 117.215351 
L 392.33804 117.611595 
L 392.826218 117.669941 
L 393.314396 117.562901 
L 394.046663 117.130795 
L 395.023019 116.176811 
L 396.243464 114.931488 
L 396.975731 114.476709 
L 397.463909 114.368966 
L 397.952087 114.436482 
L 398.684354 114.849882 
L 399.66071 115.809003 
L 401.125244 117.351262 
L 401.857511 117.790074 
L 402.345689 117.869952 
L 402.833867 117.772142 
L 403.566133 117.331548 
L 404.542489 116.346558 
L 406.007023 114.823225 
L 406.73929 114.436864 
L 407.227468 114.394247 
L 407.715646 114.535116 
L 408.447913 115.055996 
L 409.424269 116.116543 
L 410.644714 117.452348 
L 411.376981 117.94457 
L 411.865159 118.054764 
L 412.353337 117.97636 
L 413.085604 117.539929 
L 414.06196 116.534201 
L 415.526494 114.92223 
L 416.258761 114.482996 
L 416.746939 114.410799 
L 417.235117 114.528058 
L 417.967384 115.032897 
L 418.94374 116.111745 
L 420.164185 117.513331 
L 420.896452 118.057037 
L 421.38463 118.203805 
L 421.872807 118.153829 
L 422.360985 117.918854 
L 423.093252 117.281346 
L 425.534142 114.661577 
L 426.02232 114.459292 
L 426.510498 114.44744 
L 426.998676 114.628878 
L 427.730943 115.221919 
L 428.951388 116.678387 
L 429.927744 117.756634 
L 430.660011 118.234141 
L 431.148189 118.321733 
L 431.636367 118.208193 
L 432.368634 117.704495 
L 433.34499 116.603112 
L 434.809524 114.928231 
L 435.541791 114.498629 
L 436.029969 114.447784 
L 436.518147 114.593917 
L 437.250414 115.149415 
L 438.22677 116.292358 
L 439.447215 117.722171 
L 440.179481 118.253412 
L 440.667659 118.38059 
L 441.155837 118.305305 
L 441.644015 118.035711 
L 442.376282 117.343003 
L 444.573083 114.820586 
L 445.061261 114.538694 
L 445.549439 114.447112 
L 446.037617 114.553828 
L 446.525795 114.849007 
L 447.258062 115.575802 
L 449.454863 118.057388 
L 449.943041 118.31715 
L 450.431219 118.383132 
L 450.919397 118.246084 
L 451.651664 117.701668 
L 452.62802 116.563762 
L 453.848465 115.113084 
L 454.580732 114.577106 
L 455.06891 114.445359 
L 455.557088 114.510651 
L 456.045266 114.766043 
L 456.777533 115.448137 
L 459.218422 118.104135 
L 459.7066 118.303811 
L 460.194778 118.307328 
L 460.682956 118.111825 
L 461.415223 117.500651 
L 462.635668 116.026202 
L 463.612024 114.954616 
L 464.344291 114.502357 
L 464.832469 114.431802 
L 465.320647 114.554421 
L 466.052914 115.068101 
L 467.02927 116.169723 
L 468.249715 117.563412 
L 468.981982 118.084731 
L 469.47016 118.220172 
L 469.958338 118.160776 
L 470.446516 117.910837 
L 471.178783 117.243369 
L 473.619673 114.633205 
L 474.107851 114.438658 
L 474.596029 114.431289 
L 475.084207 114.608974 
L 475.816474 115.178167 
L 477.036918 116.578735 
L 478.013274 117.580938 
L 478.745541 118.003937 
L 479.233719 118.071268 
L 479.721897 117.950349 
L 480.454164 117.440734 
L 481.43052 116.371898 
L 482.650965 115.020639 
L 483.383232 114.518067 
L 483.87141 114.393211 
L 484.359588 114.45053 
L 485.091855 114.854373 
L 486.068211 115.823279 
L 487.532745 117.377297 
L 488.265012 117.806607 
L 488.75319 117.892823 
L 489.241368 117.799992 
L 489.973635 117.342173 
L 490.949991 116.329669 
L 492.170436 115.020177 
L 492.902703 114.516113 
L 493.390881 114.377552 
L 493.879059 114.414313 
L 494.611325 114.775526 
L 495.587681 115.678931 
L 497.052215 117.178841 
L 497.784482 117.606308 
L 498.27266 117.699603 
L 498.760838 117.626259 
L 499.493105 117.210633 
L 500.469461 116.254188 
L 501.933995 114.802914 
L 502.666262 114.415316 
L 503.15444 114.356179 
L 503.642618 114.464044 
L 504.374885 114.899579 
L 505.351241 115.819994 
L 506.571686 117.006262 
L 507.303953 117.419522 
L 507.792131 117.509846 
L 508.280309 117.444958 
L 509.012576 117.062564 
L 509.988932 116.157712 
L 511.453466 114.772614 
L 512.185733 114.403351 
L 512.673911 114.345499 
L 513.162088 114.447813 
L 513.894355 114.866357 
L 514.870711 115.742397 
L 516.335245 117.0378 
L 517.067512 117.329908 
L 517.55569 117.336392 
L 518.287957 117.072162 
L 519.020224 116.522893 
L 521.217025 114.585431 
L 521.949292 114.346387 
L 522.43747 114.375524 
L 523.169737 114.694213 
L 524.146093 115.480979 
L 525.854716 116.943815 
L 526.586983 117.221077 
L 527.31925 117.158022 
L 528.051517 116.789888 
L 529.027873 115.956092 
L 530.248318 114.853668 
L 530.980585 114.446393 
L 531.712851 114.343289 
L 532.445118 114.571014 
L 533.177385 115.073625 
L 535.618275 117.029743 
L 536.350542 117.177601 
L 537.082809 116.987447 
L 537.815076 116.521087 
L 540.500055 114.42368 
L 541.232322 114.349389 
L 541.964589 114.59933 
L 542.696856 115.120288 
L 544.893657 116.926896 
L 545.625924 117.173062 
L 546.114102 117.143866 
L 546.846369 116.827531 
L 547.822725 116.053105 
L 549.531347 114.613775 
L 550.263614 114.353056 
L 550.995881 114.4161 
L 551.728148 114.792477 
L 552.704504 115.630341 
L 553.924949 116.70484 
L 554.657216 117.115586 
L 555.145394 117.235277 
L 555.633572 117.196623 
L 556.365839 116.859569 
L 557.342195 116.049014 
L 558.806729 114.750307 
L 559.538996 114.394879 
L 560.027174 114.339858 
L 560.759441 114.538033 
L 561.491708 115.033047 
L 563.932598 117.132351 
L 564.664865 117.352011 
L 565.153043 117.30776 
L 565.88531 116.948346 
L 566.861666 116.095556 
L 568.326199 114.75761 
L 569.058466 114.395491 
L 569.546644 114.345929 
L 570.034822 114.453647 
L 570.767089 114.883519 
L 571.743445 115.806067 
L 572.96389 116.975429 
L 573.696157 117.398318 
L 574.428424 117.504268 
L 574.916602 117.374929 
L 575.648869 116.895837 
L 576.869314 115.682967 
L 577.84567 114.791444 
L 578.577937 114.410424 
L 579.066115 114.355796 
L 579.554293 114.467735 
L 580.28656 114.916863 
L 581.262916 115.881579 
L 582.483361 117.120894 
L 583.215628 117.574059 
L 583.703806 117.688763 
L 584.191984 117.643872 
L 584.924251 117.267063 
L 585.656518 116.596913 
L 587.36514 114.852843 
L 588.097407 114.4401 
L 588.585585 114.370402 
L 589.073763 114.476815 
L 589.80603 114.933537 
L 590.782386 115.93166 
L 592.002831 117.249255 
L 592.735098 117.74158 
L 593.223276 117.875238 
L 593.711454 117.838121 
L 594.199632 117.630929 
L 594.931899 117.036178 
L 597.372789 114.596318 
L 597.860967 114.413526 
L 598.349145 114.412323 
L 598.837323 114.591658 
L 599.56959 115.152685 
L 600.790035 116.53893 
L 601.766391 117.560511 
L 602.498658 117.988152 
L 602.986836 118.060088 
L 603.475014 117.950903 
L 603.963192 117.670429 
L 604.695458 116.981589 
L 606.64817 114.839038 
L 607.380437 114.452708 
L 607.868615 114.42182 
L 608.356793 114.580304 
L 609.08906 115.129185 
L 610.065416 116.238028 
L 611.285861 117.622656 
L 612.018128 118.109242 
L 612.506306 118.21115 
L 612.994484 118.127017 
L 613.726751 117.665965 
L 614.459018 116.896526 
L 616.167641 114.941011 
L 616.899908 114.498611 
L 617.388086 114.431901 
L 617.876264 114.560927 
L 618.608531 115.080978 
L 619.584887 116.189403 
L 620.805332 117.633633 
L 621.537599 118.174651 
L 622.025777 118.311798 
L 622.513954 118.258573 
L 623.002132 118.016789 
L 623.734399 117.355855 
L 626.175289 114.672963 
L 626.663467 114.470773 
L 627.151645 114.462642 
L 627.639823 114.651221 
L 628.37209 115.24912 
L 629.592535 116.724305 
L 630.568891 117.822735 
L 631.301158 118.291633 
L 631.789336 118.369074 
L 632.277514 118.25386 
L 632.765692 117.953636 
L 633.497959 117.224613 
L 635.450671 114.928266 
L 636.182938 114.501271 
L 636.671116 114.451283 
L 637.159294 114.599598 
L 637.891561 115.153923 
L 638.867917 116.291592 
L 640.088362 117.730134 
L 640.820628 118.253327 
L 641.308806 118.368196 
L 641.796984 118.287003 
L 642.285162 118.022582 
L 643.017429 117.327129 
L 645.21423 114.806652 
L 645.702408 114.529875 
L 646.190586 114.43989 
L 646.678764 114.546491 
L 647.166942 114.839364 
L 647.166942 114.839364 
" style="fill:none;stroke:#0010ff;stroke-dasharray:7.4,3.2;stroke-dashoffset:0;stroke-width:2;"/>
   </g>
   <g id="line2d_27">
    <defs>
     <path d="M -2.5 2.5 
L 2.5 2.5 
L 2.5 -2.5 
L -2.5 -2.5 
z
" id="m4626ff6a75" style="stroke:#0010ff;stroke-linejoin:miter;"/>
    </defs>
    <g clip-path="url(#p15832c0067)">
     <use style="fill:#0010ff;stroke:#0010ff;stroke-linejoin:miter;" x="349.866556" xlink:href="#m4626ff6a75" y="114.341647"/>
    </g>
   </g>
   <g id="line2d_28">
    <g clip-path="url(#p15832c0067)">
     <use style="fill:#0010ff;stroke:#0010ff;stroke-linejoin:miter;" x="168.508439" xlink:href="#m4626ff6a75" y="114.338341"/>
    </g>
   </g>
   <g id="line2d_29">
    <path clip-path="url(#p15832c0067)" d="M 159.233058 114.356044 
L 159.965325 114.637331 
L 160.697592 115.260897 
L 161.429859 116.266308 
L 162.162126 117.734368 
L 162.894393 119.688201 
L 163.870749 122.96949 
L 164.847105 127.001582 
L 166.067549 133.01296 
L 168.26435 145.166268 
L 169.728884 154.606909 
L 171.193418 165.462333 
L 172.413863 176.401637 
L 174.366575 196.350451 
L 180.712889 266.52282 
L 182.177423 286.116295 
L 187.54738 361.64007 
L 190.720537 402.822314 
L 192.42916 428.563508 
L 195.602317 476.269629 
L 196.822762 491.28395 
L 201.704542 547.782786 
L 204.145431 578.806946 
L 205.365876 592.301121 
L 206.342232 600.590826 
L 208.050855 612.006981 
L 211.468101 635.2794 
L 212.932635 646.392222 
L 214.15308 654.499462 
L 214.885347 658.184657 
L 215.373525 659.909558 
L 215.861703 660.986202 
L 216.349881 661.501384 
L 216.838059 661.678811 
L 217.082148 661.718854 
L 217.814415 661.589868 
L 218.302593 661.511434 
L 219.03486 661.178429 
L 219.767127 660.9308 
L 220.255305 661.075945 
L 220.987571 661.794202 
L 221.963927 662.835715 
L 222.940283 663.26281 
L 223.428461 663.185763 
L 223.916639 662.79868 
L 224.404817 661.980477 
L 224.892995 660.574349 
L 225.381173 658.541998 
L 226.11344 654.418299 
L 227.577974 644.364927 
L 230.507042 624.454071 
L 232.459754 613.143178 
L 233.43611 606.648583 
L 234.412466 598.733591 
L 235.388822 588.693163 
L 237.097445 567.744069 
L 240.270601 529.53524 
L 243.443758 494.920203 
L 244.664203 479.118638 
L 246.372826 453.560475 
L 249.057805 413.243878 
L 250.766428 390.833813 
L 254.183674 346.658557 
L 259.553631 270.862409 
L 261.750432 245.956532 
L 265.655856 202.520321 
L 267.608568 182.022908 
L 269.073102 168.975149 
L 270.537636 158.025235 
L 272.246259 146.876139 
L 274.44306 134.050517 
L 275.663504 127.889277 
L 276.883949 122.811106 
L 277.860305 119.634129 
L 278.836661 117.317473 
L 279.568928 116.069806 
L 280.301195 115.178835 
L 281.033462 114.630403 
L 281.765729 114.408564 
L 282.253907 114.445848 
L 282.742085 114.637674 
L 283.230263 114.99891 
L 283.96253 115.895528 
L 284.694797 117.236911 
L 285.427064 119.007458 
L 286.40342 122.010271 
L 287.623865 126.727113 
L 289.332488 134.416836 
L 290.797022 142.060492 
L 292.261556 150.915765 
L 293.482001 159.803275 
L 294.946534 172.424086 
L 296.655157 188.970793 
L 303.001471 254.899958 
L 304.954183 280.686528 
L 308.859607 333.159333 
L 312.520941 378.670691 
L 314.473653 407.231623 
L 317.64681 452.953429 
L 319.355433 472.657036 
L 323.016768 514.337848 
L 326.434014 557.441672 
L 327.41037 567.467327 
L 328.386726 575.35863 
L 330.339437 588.933923 
L 332.292149 602.270386 
L 335.709395 629.214977 
L 336.441662 633.848263 
L 337.173929 637.010013 
L 337.662107 638.304217 
L 338.150285 639.133383 
L 338.882552 640.006627 
L 339.858908 640.71682 
L 340.347086 640.910889 
L 341.079353 641.021002 
L 341.567531 641.31612 
L 342.055709 641.961665 
L 344.25251 645.94138 
L 345.472955 646.990748 
L 345.717044 647.043374 
L 345.961133 646.981805 
L 346.205222 646.775681 
L 346.6934 645.842404 
L 347.181578 644.188637 
L 347.913845 640.732856 
L 349.866556 629.485579 
L 351.575179 619.093243 
L 352.551535 614.615533 
L 353.77198 608.965302 
L 355.236514 600.972603 
L 356.21287 594.320563 
L 357.189226 585.249024 
L 359.141938 563.478821 
L 362.071006 531.387116 
L 364.267807 510.033135 
L 365.97643 491.613739 
L 367.196874 475.354966 
L 371.590476 413.604134 
L 376.228167 356.435921 
L 381.354036 285.330697 
L 383.794926 258.028899 
L 386.723993 225.258202 
L 388.920794 200.597424 
L 390.629417 183.758345 
L 392.093951 171.82404 
L 394.046663 157.787693 
L 396.975731 138.879345 
L 398.440265 130.921571 
L 399.66071 125.489849 
L 400.637066 122.081796 
L 401.613422 119.469255 
L 402.589778 117.479049 
L 403.566133 116.056514 
L 404.2984 115.360292 
L 405.030667 114.9799 
L 405.518845 114.915817 
L 406.007023 115.021391 
L 406.495201 115.309208 
L 407.227468 116.081037 
L 407.959735 117.233929 
L 408.692002 118.732667 
L 409.668358 121.273772 
L 410.888803 125.115897 
L 412.109248 129.609902 
L 413.329693 134.976815 
L 414.550138 141.363864 
L 415.770583 149.143903 
L 417.235117 160.222942 
L 419.431918 178.865394 
L 423.58143 215.837395 
L 425.045964 231.325231 
L 426.998676 255.211176 
L 430.9041 303.496327 
L 434.077257 340.793257 
L 435.78588 364.295596 
L 439.691304 418.854206 
L 441.644015 440.97543 
L 444.084905 468.506534 
L 446.525795 500.359474 
L 448.478507 524.890874 
L 449.454863 534.957014 
L 450.675308 545.409579 
L 455.06891 580.882047 
L 457.5098 602.506509 
L 458.486155 609.38063 
L 459.218422 613.032906 
L 459.950689 615.653554 
L 460.682956 617.635461 
L 461.659312 619.512473 
L 463.123846 622.261676 
L 463.856113 624.291907 
L 466.541092 632.858795 
L 467.273359 634.684476 
L 467.761537 635.404716 
L 468.249715 635.554725 
L 468.737893 635.046231 
L 469.226071 633.984261 
L 469.958338 631.677692 
L 470.934694 627.789259 
L 473.619673 616.378043 
L 474.840118 612.847172 
L 476.060563 608.812108 
L 477.281007 604.056793 
L 478.013274 599.963874 
L 478.745541 594.502775 
L 479.965986 583.525522 
L 484.115499 543.953974 
L 486.556389 523.152526 
L 487.776834 511.121634 
L 488.997279 496.15538 
L 494.367237 427.15152 
L 497.540393 390.086787 
L 499.249016 366.162418 
L 502.666262 318.510838 
L 504.618974 295.712666 
L 508.524398 250.571626 
L 511.209377 218.566539 
L 512.673911 203.332223 
L 514.382533 188.235123 
L 516.335245 172.647319 
L 519.752491 146.893546 
L 521.217025 137.665388 
L 522.43747 131.451237 
L 523.657915 126.547561 
L 524.87836 122.555224 
L 526.098805 119.444851 
L 527.075161 117.476382 
L 527.807428 116.33129 
L 528.539695 115.565653 
L 529.271962 115.186449 
L 529.76014 115.138744 
L 530.492407 115.36308 
L 531.224673 115.969539 
L 531.95694 116.928714 
L 532.933296 118.636565 
L 533.909652 120.866278 
L 534.886008 123.702207 
L 536.106453 128.06451 
L 537.082809 132.444494 
L 538.303254 139.223567 
L 539.767788 148.678231 
L 541.964589 164.738614 
L 544.405479 183.506831 
L 546.114102 198.503145 
L 547.334547 211.087871 
L 549.775436 239.556773 
L 552.460415 271.079115 
L 555.389483 304.35122 
L 556.854017 323.247422 
L 562.223975 397.751598 
L 566.373488 447.577705 
L 571.011178 510.214682 
L 572.231623 522.460699 
L 576.625225 563.592156 
L 579.066115 589.222693 
L 580.28656 600.231673 
L 581.018827 605.293549 
L 581.995183 610.24507 
L 583.459717 615.894528 
L 584.680162 620.291257 
L 585.900607 625.619214 
L 588.829674 639.889261 
L 589.561941 642.393002 
L 590.050119 643.484767 
L 590.294208 643.822645 
L 590.782386 643.994866 
L 591.270564 643.587112 
L 591.758742 642.755895 
L 592.491009 641.041421 
L 595.420077 633.336409 
L 596.152344 632.302579 
L 597.1287 631.116415 
L 597.860967 629.822821 
L 598.837323 627.422837 
L 599.325501 625.793947 
L 600.057768 622.416557 
L 600.790035 617.699371 
L 601.766391 609.936741 
L 606.159992 573.01134 
L 607.868615 560.326802 
L 609.333149 547.708121 
L 610.553594 534.223149 
L 612.262217 512.092028 
L 614.703107 480.3339 
L 616.655819 458.295987 
L 618.85262 433.015226 
L 620.317154 413.289099 
L 625.198933 343.722331 
L 630.81298 274.073059 
L 633.25387 242.322845 
L 634.718404 225.812453 
L 636.671116 206.618731 
L 641.064717 166.49605 
L 642.77334 152.607653 
L 643.993785 144.307535 
L 645.21423 137.460054 
L 646.678764 130.565022 
L 647.166942 128.551858 
L 647.166942 128.551858 
" style="fill:none;stroke:#ff0018;stroke-linecap:square;stroke-width:2;"/>
   </g>
   <g id="line2d_30">
    <path clip-path="url(#p15832c0067)" d="M 159.233058 114.389733 
L 159.721236 114.796933 
L 160.209414 115.553517 
L 160.941681 117.147637 
L 162.406215 120.639056 
L 162.894393 121.374999 
L 163.382571 121.723501 
L 163.870749 121.687382 
L 164.358927 121.327183 
L 164.847105 120.625449 
L 165.579372 119.029841 
L 167.043905 115.541189 
L 167.532083 114.790358 
L 168.020261 114.389153 
L 168.508439 114.391355 
L 168.996617 114.811773 
L 169.484795 115.598759 
L 170.217062 117.248092 
L 171.925685 121.259454 
L 172.413863 121.885093 
L 172.902041 122.075983 
L 173.390219 121.839911 
L 173.878397 121.251309 
L 174.610664 119.841942 
L 176.807465 114.835956 
L 177.295643 114.406873 
L 177.783821 114.391103 
L 178.271999 114.803666 
L 178.760177 115.61375 
L 179.492444 117.34973 
L 180.956978 121.090396 
L 181.689245 122.284559 
L 182.177423 122.581519 
L 182.421512 122.559295 
L 182.90969 122.1518 
L 183.397868 121.358059 
L 184.374223 119.054948 
L 185.594668 115.890553 
L 186.082846 114.986697 
L 186.571024 114.471448 
L 187.059202 114.394931 
L 187.54738 114.764322 
L 188.035558 115.55619 
L 188.767825 117.354849 
L 190.476448 121.876885 
L 190.964626 122.689057 
L 191.452804 123.101927 
L 191.696893 123.140273 
L 192.185071 122.837929 
L 192.673249 122.073783 
L 193.405516 120.322628 
L 195.358228 115.259232 
L 195.846406 114.610488 
L 196.334584 114.418377 
L 196.822762 114.700107 
L 197.31094 115.428765 
L 198.043207 117.21527 
L 199.995919 122.591898 
L 200.484097 123.319268 
L 200.972275 123.6306 
L 201.216364 123.607516 
L 201.704542 123.198997 
L 202.19272 122.324085 
L 202.924986 120.386749 
L 204.38952 116.177267 
L 204.877698 115.179792 
L 205.365876 114.592315 
L 205.609965 114.476444 
L 205.854054 114.487833 
L 206.342232 114.875285 
L 206.83041 115.710879 
L 207.562677 117.628965 
L 209.2713 122.640077 
L 209.759478 123.494072 
L 210.247656 123.926911 
L 210.491745 123.973964 
L 210.735834 123.903798 
L 211.224012 123.399973 
L 211.71219 122.444233 
L 212.444457 120.382609 
L 213.908991 116.060594 
L 214.397169 115.103642 
L 214.885347 114.577085 
L 215.129436 114.499646 
L 215.373525 114.547786 
L 215.861703 115.018699 
L 216.349881 115.931642 
L 217.082148 117.925776 
L 218.790771 122.940929 
L 219.278949 123.743934 
L 219.767127 124.080975 
L 220.011216 124.08129 
L 220.499393 123.721213 
L 220.987571 122.91019 
L 221.719838 120.995943 
L 223.428461 115.907138 
L 223.916639 115.002974 
L 224.404817 114.542593 
L 224.648906 114.498311 
L 224.892995 114.581637 
L 225.381173 115.118739 
L 225.869351 116.086442 
L 226.601618 118.102661 
L 228.066152 122.459877 
L 228.55433 123.413043 
L 229.042508 123.907887 
L 229.286597 123.978345 
L 229.774775 123.752621 
L 230.262953 123.087047 
L 230.99522 121.37288 
L 233.192021 115.22662 
L 233.680199 114.613675 
L 234.168377 114.475415 
L 234.656555 114.831564 
L 235.144733 115.642817 
L 235.877 117.480423 
L 237.585623 122.323798 
L 238.073801 123.190903 
L 238.561979 123.601149 
L 239.050156 123.517983 
L 239.538334 122.979379 
L 240.026512 122.054671 
L 240.758779 120.119128 
L 242.223313 115.931954 
L 242.711491 115.002261 
L 243.199669 114.495274 
L 243.443758 114.414786 
L 243.687847 114.452446 
L 244.176025 114.879352 
L 244.664203 115.729961 
L 245.39647 117.56955 
L 247.105093 122.047283 
L 247.593271 122.800277 
L 248.081449 123.101913 
L 248.325538 123.074512 
L 248.813716 122.66327 
L 249.301894 121.851242 
L 250.034161 120.101649 
L 251.742784 115.558144 
L 252.230962 114.765256 
L 252.71914 114.392802 
L 252.963229 114.37348 
L 253.451407 114.668489 
L 253.939585 115.380134 
L 254.671852 117.045653 
L 256.380475 121.310079 
L 256.868653 122.082875 
L 257.35683 122.482901 
L 257.600919 122.51233 
L 258.089097 122.226899 
L 258.577275 121.524044 
L 259.309542 119.915059 
L 261.262254 115.169088 
L 261.750432 114.550049 
L 262.23861 114.342812 
L 262.726788 114.559085 
L 263.214966 115.169837 
L 263.947233 116.684527 
L 265.655856 120.766083 
L 266.144034 121.498513 
L 266.632212 121.904756 
L 266.876301 121.978894 
L 267.364479 121.791628 
L 267.852657 121.185944 
L 268.584924 119.678643 
L 270.537636 115.174458 
L 271.025814 114.560562 
L 271.513992 114.337523 
L 272.00217 114.524206 
L 272.490348 115.087879 
L 273.222615 116.50264 
L 275.175327 120.878719 
L 275.663504 121.423843 
L 276.151682 121.608836 
L 276.63986 121.462869 
L 277.128038 120.930416 
L 277.860305 119.511918 
L 279.813017 115.147516 
L 280.301195 114.556001 
L 280.789373 114.338588 
L 281.277551 114.526034 
L 281.765729 115.089121 
L 282.497996 116.477154 
L 284.450708 120.854493 
L 284.938886 121.401413 
L 285.427064 121.573885 
L 285.915242 121.368099 
L 286.40342 120.857138 
L 286.891598 120.021386 
L 287.867954 117.726155 
L 288.84431 115.540764 
L 289.332488 114.798576 
L 289.820666 114.394919 
L 290.308844 114.382503 
L 290.797022 114.776546 
L 291.2852 115.527404 
L 292.017467 117.118101 
L 293.726089 121.026859 
L 294.214267 121.637903 
L 294.702445 121.833733 
L 295.190623 121.619942 
L 295.678801 121.043125 
L 296.411068 119.686114 
L 298.607869 114.833065 
L 299.096047 114.406004 
L 299.584225 114.377062 
L 300.072403 114.763381 
L 300.560581 115.539362 
L 301.292848 117.203787 
L 303.001471 121.298438 
L 303.489649 121.99589 
L 303.977827 122.285267 
L 304.221916 122.258021 
L 304.710094 121.873341 
L 305.198272 121.115547 
L 306.174628 118.896296 
L 307.639162 115.360557 
L 308.12734 114.659326 
L 308.615518 114.361437 
L 309.103696 114.492507 
L 309.591874 115.047612 
L 310.080052 115.987138 
L 311.056408 118.554839 
L 312.032763 121.072397 
L 312.76503 122.374456 
L 313.253208 122.781749 
L 313.497297 122.81527 
L 313.741386 122.730357 
L 314.229564 122.205454 
L 314.717742 121.288365 
L 315.694098 118.794933 
L 316.914543 115.674929 
L 317.402721 114.845429 
L 317.890899 114.426015 
L 318.134988 114.386373 
L 318.623166 114.646737 
L 319.111344 115.338786 
L 319.843611 117.055201 
L 321.552234 121.771148 
L 322.040412 122.660988 
L 322.52859 123.187502 
L 323.016768 123.272101 
L 323.504946 122.882651 
L 323.993124 122.036548 
L 324.725391 120.164933 
L 326.434014 115.577263 
L 326.922192 114.789266 
L 327.41037 114.438648 
L 327.654459 114.442834 
L 328.142637 114.80499 
L 328.630815 115.600208 
L 329.363082 117.442053 
L 331.071704 122.3042 
L 331.559882 123.136959 
L 332.04806 123.570801 
L 332.292149 123.627165 
L 332.536238 123.567224 
L 333.024416 123.093672 
L 333.512594 122.173344 
L 334.244861 120.184601 
L 335.709395 116.007912 
L 336.197573 115.067811 
L 336.685751 114.54105 
L 336.92984 114.456297 
L 337.173929 114.495656 
L 337.662107 114.935034 
L 338.150285 115.803133 
L 338.882552 117.718213 
L 340.591175 122.608727 
L 341.079353 123.393018 
L 341.567531 123.737105 
L 341.81162 123.745333 
L 342.299798 123.420228 
L 342.787976 122.656536 
L 343.520243 120.815027 
L 345.228866 115.875721 
L 345.717044 114.981309 
L 346.205222 114.511387 
L 346.449311 114.456545 
L 346.6934 114.525597 
L 347.181578 115.024176 
L 347.669756 115.94214 
L 348.402022 117.880478 
L 349.866556 122.145387 
L 350.354734 123.088039 
L 350.842912 123.585221 
L 351.087001 123.657678 
L 351.575179 123.462552 
L 352.063357 122.844199 
L 352.551535 121.842024 
L 353.283802 119.798758 
L 354.504247 116.24426 
L 354.992425 115.223802 
L 355.480603 114.601321 
L 355.968781 114.43495 
L 356.456959 114.750046 
L 356.945137 115.512509 
L 357.677404 117.272378 
L 359.630116 122.501718 
L 360.118294 123.159873 
L 360.606472 123.343364 
L 361.09465 123.060852 
L 361.582828 122.375861 
L 362.315095 120.729155 
L 364.267807 115.448088 
L 364.755985 114.707438 
L 365.244163 114.39635 
L 365.488252 114.411278 
L 365.97643 114.784853 
L 366.464608 115.579943 
L 367.196874 117.337414 
L 368.905497 121.733309 
L 369.393675 122.508242 
L 369.881853 122.848105 
L 370.125942 122.841461 
L 370.61412 122.476781 
L 371.102298 121.723593 
L 371.834565 120.064506 
L 373.787277 115.170513 
L 374.275455 114.550342 
L 374.763633 114.353773 
L 375.251811 114.588987 
L 375.739989 115.234646 
L 376.472256 116.815109 
L 378.180879 120.994713 
L 378.669057 121.781172 
L 379.157235 122.223577 
L 379.645413 122.229712 
L 380.133591 121.791998 
L 380.621769 120.975647 
L 381.598125 118.679197 
L 382.81857 115.705599 
L 383.306748 114.880935 
L 383.794926 114.419928 
L 384.283104 114.366045 
L 384.771282 114.714101 
L 385.259459 115.429465 
L 385.991726 117.018448 
L 387.45626 120.435417 
L 387.944438 121.186259 
L 388.432616 121.619579 
L 388.920794 121.711438 
L 389.408972 121.387052 
L 389.89715 120.677809 
L 390.629417 119.110771 
L 392.093951 115.71708 
L 392.582129 114.911085 
L 393.070307 114.440437 
L 393.558485 114.356741 
L 394.046663 114.662347 
L 394.534841 115.312652 
L 395.267108 116.787371 
L 396.731642 120.116123 
L 397.21982 120.85004 
L 397.707998 121.260559 
L 398.196176 121.323258 
L 398.684354 121.062923 
L 399.172532 120.432819 
L 399.904799 118.957005 
L 401.369333 115.674231 
L 402.1016 114.631878 
L 402.589778 114.355134 
L 403.077956 114.46464 
L 403.566133 114.943465 
L 404.2984 116.208443 
L 406.495201 120.783459 
L 406.983379 121.194432 
L 407.471557 121.239079 
L 407.959735 120.932854 
L 408.447913 120.340393 
L 409.18018 118.926522 
L 410.888803 115.234012 
L 411.376981 114.622883 
L 411.865159 114.3533 
L 412.353337 114.46605 
L 412.841515 114.957003 
L 413.573782 116.258016 
L 415.770583 120.930882 
L 416.258761 121.385967 
L 416.746939 121.445202 
L 417.235117 121.125011 
L 417.723295 120.471611 
L 418.455562 119.069155 
L 420.164185 115.275197 
L 420.652363 114.635966 
L 421.140541 114.350003 
L 421.628718 114.451415 
L 422.116896 114.944553 
L 422.849163 116.302546 
L 425.045964 121.213508 
L 425.534142 121.756582 
L 426.02232 121.88425 
L 426.510498 121.588712 
L 426.998676 120.920956 
L 427.730943 119.428165 
L 429.683655 115.031662 
L 430.171833 114.490966 
L 430.660011 114.34371 
L 431.148189 114.606931 
L 431.636367 115.266202 
L 432.368634 116.857348 
L 434.077257 121.093528 
L 434.565435 121.901454 
L 435.053613 122.347704 
L 435.541791 122.364426 
L 436.029969 121.929213 
L 436.518147 121.112532 
L 437.494503 118.76994 
L 438.714948 115.740885 
L 439.203126 114.896269 
L 439.691304 114.431404 
L 440.179481 114.396903 
L 440.667659 114.793561 
L 441.155837 115.588557 
L 441.888104 117.372462 
L 443.352638 121.287046 
L 444.084905 122.528165 
L 444.573083 122.891653 
L 444.817172 122.910804 
L 445.30535 122.600952 
L 445.793528 121.849632 
L 446.525795 120.115374 
L 448.234418 115.644225 
L 448.722596 114.829248 
L 449.210774 114.424177 
L 449.454863 114.392095 
L 449.943041 114.672026 
L 450.431219 115.379661 
L 451.163486 117.094453 
L 452.872109 121.844792 
L 453.360287 122.718158 
L 453.848465 123.21358 
L 454.336643 123.277022 
L 454.824821 122.88435 
L 455.312999 122.04867 
L 456.045266 120.186376 
L 457.5098 116.103119 
L 457.997978 115.133685 
L 458.486155 114.553329 
L 458.974333 114.43325 
L 459.462511 114.785509 
L 459.950689 115.56741 
L 460.682956 117.372443 
L 462.391579 122.203462 
L 462.879757 123.03524 
L 463.367935 123.455475 
L 463.612024 123.503801 
L 464.100202 123.263466 
L 464.58838 122.578934 
L 465.076558 121.501773 
L 466.297003 117.943896 
L 467.273359 115.489161 
L 467.761537 114.740181 
L 468.249715 114.432788 
L 468.493804 114.458856 
L 468.981982 114.867907 
L 469.47016 115.700915 
L 470.202427 117.545218 
L 471.91105 122.329132 
L 472.399228 123.118147 
L 472.887406 123.462392 
L 473.131495 123.472207 
L 473.619673 123.158491 
L 474.107851 122.423877 
L 474.840118 120.659835 
L 476.54874 115.849792 
L 477.036918 114.96063 
L 477.525096 114.480434 
L 477.769185 114.413026 
L 478.013274 114.465881 
L 478.501452 114.922366 
L 478.98963 115.790179 
L 479.721897 117.633068 
L 481.43052 122.241506 
L 481.918698 122.966938 
L 482.406876 123.238684 
L 482.895054 123.056494 
L 483.383232 122.4667 
L 483.87141 121.511992 
L 484.603677 119.575585 
L 485.824122 116.164687 
L 486.556389 114.81838 
L 487.044567 114.417104 
L 487.288656 114.384612 
L 487.776834 114.664947 
L 488.265012 115.376084 
L 488.997279 117.041563 
L 490.949991 121.986153 
L 491.438169 122.628656 
L 491.926347 122.822577 
L 492.414525 122.555596 
L 492.902703 121.897306 
L 493.63497 120.337143 
L 495.587681 115.35702 
L 496.075859 114.656497 
L 496.564037 114.359581 
L 497.052215 114.494293 
L 497.540393 115.051307 
L 498.27266 116.535329 
L 500.225372 121.252944 
L 500.71355 121.963793 
L 501.201728 122.284863 
L 501.445817 122.281921 
L 501.933995 121.935211 
L 502.422173 121.202813 
L 503.15444 119.621748 
L 504.863063 115.471289 
L 505.351241 114.732825 
L 505.839419 114.3697 
L 506.327597 114.41166 
L 506.815775 114.851994 
L 507.303953 115.650436 
L 508.280309 117.933908 
L 509.256665 120.197231 
L 509.988932 121.35622 
L 510.47711 121.721893 
L 510.965288 121.706028 
L 511.453466 121.272537 
L 511.941644 120.474829 
L 512.917999 118.270753 
L 514.138444 115.517299 
L 514.626622 114.775424 
L 515.1148 114.388781 
L 515.602978 114.390678 
L 516.091156 114.77019 
L 516.579334 115.48716 
L 517.311601 117.03846 
L 518.532046 119.851863 
L 519.264313 120.962107 
L 519.752491 121.314191 
L 520.240669 121.316292 
L 520.728847 120.968672 
L 521.217025 120.259323 
L 521.949292 118.711702 
L 523.413826 115.504432 
L 523.902004 114.786425 
L 524.390182 114.398917 
L 524.87836 114.39353 
L 525.366538 114.762609 
L 525.854716 115.454635 
L 526.586983 116.937732 
L 528.051517 120.180208 
L 528.539695 120.853374 
L 529.027873 121.18475 
L 529.516051 121.167265 
L 530.004229 120.807544 
L 530.492407 120.154474 
L 531.224673 118.669858 
L 532.689207 115.472396 
L 533.177385 114.776016 
L 533.665563 114.39801 
L 534.153741 114.394221 
L 534.641919 114.774007 
L 535.130097 115.489342 
L 535.862364 116.985924 
L 537.326898 120.275084 
L 537.815076 121.002752 
L 538.303254 121.360874 
L 538.791432 121.334122 
L 539.27961 120.945893 
L 539.767788 120.251371 
L 540.500055 118.790522 
L 541.964589 115.501943 
L 542.452767 114.783087 
L 542.940945 114.395708 
L 543.429123 114.382802 
L 543.917301 114.76352 
L 544.405479 115.505573 
L 545.381835 117.676082 
L 546.60228 120.495524 
L 547.090458 121.300817 
L 547.578636 121.742855 
L 548.066814 121.761079 
L 548.554992 121.371977 
L 549.04317 120.639958 
L 549.775436 119.106566 
L 551.484059 115.218029 
L 551.972237 114.590289 
L 552.460415 114.340913 
L 552.948593 114.494842 
L 553.436771 115.049948 
L 553.924949 115.962306 
L 554.901305 118.408947 
L 555.877661 120.775699 
L 556.609928 121.977643 
L 557.098106 122.329835 
L 557.586284 122.22666 
L 558.074462 121.687092 
L 558.806729 120.242934 
L 561.00353 115.053732 
L 561.491708 114.497364 
L 561.979886 114.360968 
L 562.468064 114.654427 
L 562.956242 115.356207 
L 563.688509 117.041152 
L 565.397132 121.528059 
L 565.88531 122.355939 
L 566.373488 122.819104 
L 566.861666 122.849791 
L 567.349844 122.411333 
L 567.838021 121.552154 
L 568.570288 119.726921 
L 570.034822 115.865331 
L 570.523 114.972428 
L 571.011178 114.471259 
L 571.499356 114.423776 
L 571.987534 114.830211 
L 572.475712 115.648581 
L 573.207979 117.491934 
L 574.672513 121.646947 
L 575.40478 122.937907 
L 575.892958 123.313987 
L 576.137047 123.345626 
L 576.625225 123.052653 
L 577.113403 122.300332 
L 577.84567 120.502613 
L 579.554293 115.793251 
L 580.042471 114.92437 
L 580.530649 114.472303 
L 580.774738 114.423514 
L 581.018827 114.495037 
L 581.507005 114.987316 
L 581.995183 115.894256 
L 582.72745 117.835798 
L 584.191984 122.099509 
L 584.680162 123.021643 
L 585.16834 123.537728 
L 585.412429 123.638455 
L 585.900607 123.48461 
L 586.388784 122.881331 
L 586.876962 121.859396 
L 587.853318 119.040727 
L 588.829674 116.266899 
L 589.561941 114.874165 
L 590.050119 114.470166 
L 590.294208 114.44922 
L 590.782386 114.77324 
L 591.270564 115.544722 
L 592.002831 117.34971 
L 593.955543 122.817634 
L 594.443721 123.490579 
L 594.931899 123.712302 
L 595.420077 123.474379 
L 595.908255 122.801138 
L 596.396433 121.736998 
L 597.372789 118.874505 
L 598.349145 116.12179 
L 598.837323 115.138027 
L 599.325501 114.561425 
L 599.813679 114.454806 
L 600.301857 114.83428 
L 600.790035 115.653605 
L 601.522302 117.486409 
L 603.230925 122.320338 
L 603.719103 123.150655 
L 604.20728 123.526178 
L 604.695458 123.433632 
L 605.183636 122.901116 
L 605.671814 121.978846 
L 606.404081 120.041766 
L 607.868615 115.897373 
L 608.356793 114.989002 
L 608.844971 114.486554 
L 609.08906 114.407252 
L 609.333149 114.448452 
L 609.821327 114.883051 
L 610.309505 115.739045 
L 611.041772 117.576239 
L 612.750395 122.134929 
L 613.238573 122.883135 
L 613.726751 123.17469 
L 614.214929 122.995102 
L 614.703107 122.390629 
L 615.435374 120.839647 
L 617.632175 115.155205 
L 618.120353 114.548346 
L 618.608531 114.373087 
L 619.096709 114.65157 
L 619.584887 115.357082 
L 620.317154 117.023371 
L 622.025777 121.413219 
L 622.513954 122.22619 
L 623.002132 122.637721 
L 623.246221 122.677662 
L 623.734399 122.403968 
L 624.222577 121.722032 
L 624.954844 120.138238 
L 626.907556 115.267682 
L 627.395734 114.60586 
L 627.883912 114.347031 
L 628.37209 114.514943 
L 628.860268 115.094943 
L 629.592535 116.596118 
L 631.545247 121.22998 
L 632.033425 121.882048 
L 632.521603 122.139544 
L 632.765692 122.120604 
L 633.25387 121.749848 
L 633.742048 120.990296 
L 634.474315 119.360154 
L 636.182938 115.319505 
L 636.671116 114.641285 
L 637.159294 114.347431 
L 637.647472 114.458667 
L 638.13565 114.961326 
L 638.623828 115.805512 
L 639.600184 118.135506 
L 640.57654 120.378427 
L 641.064717 121.161026 
L 641.552895 121.622839 
L 642.041073 121.710869 
L 642.529251 121.406723 
L 643.017429 120.732896 
L 643.749696 119.188324 
L 645.458319 115.318317 
L 645.946497 114.650387 
L 646.434675 114.351708 
L 646.922853 114.45225 
L 647.166942 114.64621 
L 647.166942 114.64621 
" style="fill:none;stroke:#ff0018;stroke-dasharray:7.4,3.2;stroke-dashoffset:0;stroke-width:2;"/>
   </g>
   <g id="line2d_31">
    <defs>
     <path d="M -2.5 2.5 
L 2.5 2.5 
L 2.5 -2.5 
L -2.5 -2.5 
z
" id="me9d8e52257" style="stroke:#ff0018;stroke-linejoin:miter;"/>
    </defs>
    <g clip-path="url(#p15832c0067)">
     <use style="fill:#ff0018;stroke:#ff0018;stroke-linejoin:miter;" x="281.765729" xlink:href="#me9d8e52257" y="114.408564"/>
    </g>
   </g>
   <g id="line2d_32">
    <g clip-path="url(#p15832c0067)">
     <use style="fill:#ff0018;stroke:#ff0018;stroke-linejoin:miter;" x="168.26435" xlink:href="#me9d8e52257" y="114.337804"/>
    </g>
   </g>
   <g id="patch_3">
    <path d="M 108 720.9 
L 108 56.7 
" style="fill:none;stroke:#000000;stroke-linecap:square;stroke-linejoin:miter;stroke-width:0.8;"/>
   </g>
   <g id="patch_4">
    <path d="M 698.4 720.9 
L 698.4 56.7 
" style="fill:none;stroke:#000000;stroke-linecap:square;stroke-linejoin:miter;stroke-width:0.8;"/>
   </g>
   <g id="patch_5">
    <path d="M 108 720.9 
L 698.4 720.9 
" style="fill:none;stroke:#000000;stroke-linecap:square;stroke-linejoin:miter;stroke-width:0.8;"/>
   </g>
   <g id="patch_6">
    <path d="M 108 56.7 
L 698.4 56.7 
" style="fill:none;stroke:#000000;stroke-linecap:square;stroke-linejoin:miter;stroke-width:0.8;"/>
   </g>
   <g id="legend_1">
    <g id="patch_7">
     <path d="M 540.4 710.9 
L 684.4 710.9 
Q 688.4 710.9 688.4 706.9 
L 688.4 620.83125 
Q 688.4 616.83125 684.4 616.83125 
L 540.4 616.83125 
Q 536.4 616.83125 536.4 620.83125 
L 536.4 706.9 
Q 536.4 710.9 540.4 710.9 
z
" style="fill:#ffffff;opacity:0.8;stroke:#cccccc;stroke-linejoin:miter;"/>
    </g>
    <g id="line2d_33">
     <path d="M 544.4 633.028125 
L 584.4 633.028125 
" style="fill:none;stroke:#08ff00;stroke-linecap:square;stroke-width:2;"/>
    </g>
    <g id="line2d_34"/>
    <g id="text_11">
     <!-- $\epsilon=0.01$ -->
     <g transform="translate(600.4 640.028125)scale(0.2 -0.2)">
      <defs>
       <path d="M 19.734375 29.5 
Q 14.453125 30.671875 12.15625 33.84375 
Q 10.453125 36.078125 10.453125 39.109375 
Q 10.453125 47.40625 18.359375 52.25 
Q 24.609375 56.0625 34.1875 56.0625 
Q 37.890625 56.0625 41.9375 55.46875 
Q 46 54.890625 50.53125 53.71875 
L 48.96875 45.5625 
Q 44.484375 46.96875 40.71875 47.609375 
Q 36.859375 48.25 33.40625 48.25 
Q 27.59375 48.25 23.78125 46 
Q 19.1875 43.3125 19.1875 39.40625 
Q 19.1875 36.8125 21.578125 35.015625 
Q 24.421875 32.859375 30.078125 32.859375 
L 37.640625 32.859375 
L 36.234375 25.4375 
L 29 25.4375 
Q 22.265625 25.4375 18.3125 22.953125 
Q 12.9375 19.578125 12.9375 14.3125 
Q 12.9375 10.984375 15.828125 8.796875 
Q 19.4375 6.0625 26.8125 6.0625 
Q 31.34375 6.0625 35.6875 6.9375 
Q 40.046875 7.859375 43.84375 9.671875 
L 42.1875 1.3125 
Q 37.546875 -0.046875 33.296875 -0.734375 
Q 29.046875 -1.421875 25.140625 -1.421875 
Q 13.53125 -1.421875 8.0625 3.03125 
Q 3.90625 6.453125 3.90625 12.203125 
Q 3.90625 19.96875 9.375 24.75 
Q 13.421875 28.328125 19.734375 29.5 
z
" id="DejaVuSans-Oblique-949"/>
       <path d="M 10.59375 45.40625 
L 73.1875 45.40625 
L 73.1875 37.203125 
L 10.59375 37.203125 
z
M 10.59375 25.484375 
L 73.1875 25.484375 
L 73.1875 17.1875 
L 10.59375 17.1875 
z
" id="DejaVuSans-61"/>
      </defs>
      <use transform="translate(0 0.78125)" xlink:href="#DejaVuSans-Oblique-949"/>
      <use transform="translate(73.535156 0.78125)" xlink:href="#DejaVuSans-61"/>
      <use transform="translate(176.806641 0.78125)" xlink:href="#DejaVuSans-48"/>
      <use transform="translate(240.429688 0.78125)" xlink:href="#DejaVuSans-46"/>
      <use transform="translate(272.216797 0.78125)" xlink:href="#DejaVuSans-48"/>
      <use transform="translate(335.839844 0.78125)" xlink:href="#DejaVuSans-49"/>
     </g>
    </g>
    <g id="line2d_35">
     <path d="M 544.4 662.384375 
L 584.4 662.384375 
" style="fill:none;stroke:#0010ff;stroke-linecap:square;stroke-width:2;"/>
    </g>
    <g id="line2d_36"/>
    <g id="text_12">
     <!-- $\epsilon=0.03$ -->
     <g transform="translate(600.4 669.384375)scale(0.2 -0.2)">
      <defs>
       <path d="M 40.578125 39.3125 
Q 47.65625 37.796875 51.625 33 
Q 55.609375 28.21875 55.609375 21.1875 
Q 55.609375 10.40625 48.1875 4.484375 
Q 40.765625 -1.421875 27.09375 -1.421875 
Q 22.515625 -1.421875 17.65625 -0.515625 
Q 12.796875 0.390625 7.625 2.203125 
L 7.625 11.71875 
Q 11.71875 9.328125 16.59375 8.109375 
Q 21.484375 6.890625 26.8125 6.890625 
Q 36.078125 6.890625 40.9375 10.546875 
Q 45.796875 14.203125 45.796875 21.1875 
Q 45.796875 27.640625 41.28125 31.265625 
Q 36.765625 34.90625 28.71875 34.90625 
L 20.21875 34.90625 
L 20.21875 43.015625 
L 29.109375 43.015625 
Q 36.375 43.015625 40.234375 45.921875 
Q 44.09375 48.828125 44.09375 54.296875 
Q 44.09375 59.90625 40.109375 62.90625 
Q 36.140625 65.921875 28.71875 65.921875 
Q 24.65625 65.921875 20.015625 65.03125 
Q 15.375 64.15625 9.8125 62.3125 
L 9.8125 71.09375 
Q 15.4375 72.65625 20.34375 73.4375 
Q 25.25 74.21875 29.59375 74.21875 
Q 40.828125 74.21875 47.359375 69.109375 
Q 53.90625 64.015625 53.90625 55.328125 
Q 53.90625 49.265625 50.4375 45.09375 
Q 46.96875 40.921875 40.578125 39.3125 
z
" id="DejaVuSans-51"/>
      </defs>
      <use transform="translate(0 0.78125)" xlink:href="#DejaVuSans-Oblique-949"/>
      <use transform="translate(73.535156 0.78125)" xlink:href="#DejaVuSans-61"/>
      <use transform="translate(176.806641 0.78125)" xlink:href="#DejaVuSans-48"/>
      <use transform="translate(240.429688 0.78125)" xlink:href="#DejaVuSans-46"/>
      <use transform="translate(272.216797 0.78125)" xlink:href="#DejaVuSans-48"/>
      <use transform="translate(335.839844 0.78125)" xlink:href="#DejaVuSans-51"/>
     </g>
    </g>
    <g id="line2d_37">
     <path d="M 544.4 691.740625 
L 584.4 691.740625 
" style="fill:none;stroke:#ff0018;stroke-linecap:square;stroke-width:2;"/>
    </g>
    <g id="line2d_38"/>
    <g id="text_13">
     <!-- $\epsilon=0.05$ -->
     <g transform="translate(600.4 698.740625)scale(0.2 -0.2)">
      <use transform="translate(0 0.78125)" xlink:href="#DejaVuSans-Oblique-949"/>
      <use transform="translate(73.535156 0.78125)" xlink:href="#DejaVuSans-61"/>
      <use transform="translate(176.806641 0.78125)" xlink:href="#DejaVuSans-48"/>
      <use transform="translate(240.429688 0.78125)" xlink:href="#DejaVuSans-46"/>
      <use transform="translate(272.216797 0.78125)" xlink:href="#DejaVuSans-48"/>
      <use transform="translate(335.839844 0.78125)" xlink:href="#DejaVuSans-53"/>
     </g>
    </g>
   </g>
  </g>
 </g>
 <defs>
  <clipPath id="p15832c0067">
   <rect height="664.2" width="590.4" x="108" y="56.7"/>
  </clipPath>
 </defs>
</svg>
