<?xml version="1.0" encoding="utf-8" standalone="no"?>
<!DOCTYPE svg PUBLIC "-//W3C//DTD SVG 1.1//EN"
  "http://www.w3.org/Graphics/SVG/1.1/DTD/svg11.dtd">
<!-- Created with matplotlib (https://matplotlib.org/) -->
<svg height="576pt" version="1.1" viewBox="0 0 512.25 576" width="512.25pt" xmlns="http://www.w3.org/2000/svg" xmlns:xlink="http://www.w3.org/1999/xlink">
 <metadata>
  <rdf:RDF xmlns:cc="http://creativecommons.org/ns#" xmlns:dc="http://purl.org/dc/elements/1.1/" xmlns:rdf="http://www.w3.org/1999/02/22-rdf-syntax-ns#">
   <cc:Work>
    <dc:type rdf:resource="http://purl.org/dc/dcmitype/StillImage"/>
    <dc:date>2020-09-04T12:24:20.313067</dc:date>
    <dc:format>image/svg+xml</dc:format>
    <dc:creator>
     <cc:Agent>
      <dc:title>Matplotlib v3.3.1, https://matplotlib.org/</dc:title>
     </cc:Agent>
    </dc:creator>
   </cc:Work>
  </rdf:RDF>
 </metadata>
 <defs>
  <style type="text/css">*{stroke-linecap:butt;stroke-linejoin:round;}</style>
 </defs>
 <g id="figure_1">
  <g id="patch_1">
   <path d="M 0 576 
L 512.25 576 
L 512.25 0 
L 0 0 
z
" style="fill:#ffffff;"/>
  </g>
  <g id="axes_1">
   <g id="patch_2">
    <path d="M 76.8375 512.64 
L 496.8825 512.64 
L 496.8825 40.32 
L 76.8375 40.32 
z
" style="fill:#ffffff;"/>
   </g>
   <g id="matplotlib.axis_1">
    <g id="xtick_1">
     <g id="line2d_1">
      <path clip-path="url(#pb99516ad09)" d="M 113.287686 512.64 
L 113.287686 40.32 
" style="fill:none;stroke:#e6e6e6;stroke-linecap:square;stroke-width:0.8;"/>
     </g>
     <g id="line2d_2">
      <defs>
       <path d="M 0 0 
L 0 -3.5 
" id="m74c945f52a" style="stroke:#000000;stroke-width:0.8;"/>
      </defs>
      <g>
       <use style="stroke:#000000;stroke-width:0.8;" x="113.287686" xlink:href="#m74c945f52a" y="512.64"/>
      </g>
     </g>
     <g id="text_1">
      <!-- 0.00 -->
      <g transform="translate(96.588467 527.537656)scale(0.15 -0.15)">
       <defs>
        <path d="M 31.78125 66.40625 
Q 24.171875 66.40625 20.328125 58.90625 
Q 16.5 51.421875 16.5 36.375 
Q 16.5 21.390625 20.328125 13.890625 
Q 24.171875 6.390625 31.78125 6.390625 
Q 39.453125 6.390625 43.28125 13.890625 
Q 47.125 21.390625 47.125 36.375 
Q 47.125 51.421875 43.28125 58.90625 
Q 39.453125 66.40625 31.78125 66.40625 
z
M 31.78125 74.21875 
Q 44.046875 74.21875 50.515625 64.515625 
Q 56.984375 54.828125 56.984375 36.375 
Q 56.984375 17.96875 50.515625 8.265625 
Q 44.046875 -1.421875 31.78125 -1.421875 
Q 19.53125 -1.421875 13.0625 8.265625 
Q 6.59375 17.96875 6.59375 36.375 
Q 6.59375 54.828125 13.0625 64.515625 
Q 19.53125 74.21875 31.78125 74.21875 
z
" id="DejaVuSans-48"/>
        <path d="M 10.6875 12.40625 
L 21 12.40625 
L 21 0 
L 10.6875 0 
z
" id="DejaVuSans-46"/>
       </defs>
       <use xlink:href="#DejaVuSans-48"/>
       <use x="63.623047" xlink:href="#DejaVuSans-46"/>
       <use x="95.410156" xlink:href="#DejaVuSans-48"/>
       <use x="159.033203" xlink:href="#DejaVuSans-48"/>
      </g>
     </g>
    </g>
    <g id="xtick_2">
     <g id="line2d_3">
      <path clip-path="url(#pb99516ad09)" d="M 200.073843 512.64 
L 200.073843 40.32 
" style="fill:none;stroke:#e6e6e6;stroke-linecap:square;stroke-width:0.8;"/>
     </g>
     <g id="line2d_4">
      <g>
       <use style="stroke:#000000;stroke-width:0.8;" x="200.073843" xlink:href="#m74c945f52a" y="512.64"/>
      </g>
     </g>
     <g id="text_2">
      <!-- 0.02 -->
      <g transform="translate(183.374624 527.537656)scale(0.15 -0.15)">
       <defs>
        <path d="M 19.1875 8.296875 
L 53.609375 8.296875 
L 53.609375 0 
L 7.328125 0 
L 7.328125 8.296875 
Q 12.9375 14.109375 22.625 23.890625 
Q 32.328125 33.6875 34.8125 36.53125 
Q 39.546875 41.84375 41.421875 45.53125 
Q 43.3125 49.21875 43.3125 52.78125 
Q 43.3125 58.59375 39.234375 62.25 
Q 35.15625 65.921875 28.609375 65.921875 
Q 23.96875 65.921875 18.8125 64.3125 
Q 13.671875 62.703125 7.8125 59.421875 
L 7.8125 69.390625 
Q 13.765625 71.78125 18.9375 73 
Q 24.125 74.21875 28.421875 74.21875 
Q 39.75 74.21875 46.484375 68.546875 
Q 53.21875 62.890625 53.21875 53.421875 
Q 53.21875 48.921875 51.53125 44.890625 
Q 49.859375 40.875 45.40625 35.40625 
Q 44.1875 33.984375 37.640625 27.21875 
Q 31.109375 20.453125 19.1875 8.296875 
z
" id="DejaVuSans-50"/>
       </defs>
       <use xlink:href="#DejaVuSans-48"/>
       <use x="63.623047" xlink:href="#DejaVuSans-46"/>
       <use x="95.410156" xlink:href="#DejaVuSans-48"/>
       <use x="159.033203" xlink:href="#DejaVuSans-50"/>
      </g>
     </g>
    </g>
    <g id="xtick_3">
     <g id="line2d_5">
      <path clip-path="url(#pb99516ad09)" d="M 286.86 512.64 
L 286.86 40.32 
" style="fill:none;stroke:#e6e6e6;stroke-linecap:square;stroke-width:0.8;"/>
     </g>
     <g id="line2d_6">
      <g>
       <use style="stroke:#000000;stroke-width:0.8;" x="286.86" xlink:href="#m74c945f52a" y="512.64"/>
      </g>
     </g>
     <g id="text_3">
      <!-- 0.04 -->
      <g transform="translate(270.160781 527.537656)scale(0.15 -0.15)">
       <defs>
        <path d="M 37.796875 64.3125 
L 12.890625 25.390625 
L 37.796875 25.390625 
z
M 35.203125 72.90625 
L 47.609375 72.90625 
L 47.609375 25.390625 
L 58.015625 25.390625 
L 58.015625 17.1875 
L 47.609375 17.1875 
L 47.609375 0 
L 37.796875 0 
L 37.796875 17.1875 
L 4.890625 17.1875 
L 4.890625 26.703125 
z
" id="DejaVuSans-52"/>
       </defs>
       <use xlink:href="#DejaVuSans-48"/>
       <use x="63.623047" xlink:href="#DejaVuSans-46"/>
       <use x="95.410156" xlink:href="#DejaVuSans-48"/>
       <use x="159.033203" xlink:href="#DejaVuSans-52"/>
      </g>
     </g>
    </g>
    <g id="xtick_4">
     <g id="line2d_7">
      <path clip-path="url(#pb99516ad09)" d="M 373.646157 512.64 
L 373.646157 40.32 
" style="fill:none;stroke:#e6e6e6;stroke-linecap:square;stroke-width:0.8;"/>
     </g>
     <g id="line2d_8">
      <g>
       <use style="stroke:#000000;stroke-width:0.8;" x="373.646157" xlink:href="#m74c945f52a" y="512.64"/>
      </g>
     </g>
     <g id="text_4">
      <!-- 0.06 -->
      <g transform="translate(356.946938 527.537656)scale(0.15 -0.15)">
       <defs>
        <path d="M 33.015625 40.375 
Q 26.375 40.375 22.484375 35.828125 
Q 18.609375 31.296875 18.609375 23.390625 
Q 18.609375 15.53125 22.484375 10.953125 
Q 26.375 6.390625 33.015625 6.390625 
Q 39.65625 6.390625 43.53125 10.953125 
Q 47.40625 15.53125 47.40625 23.390625 
Q 47.40625 31.296875 43.53125 35.828125 
Q 39.65625 40.375 33.015625 40.375 
z
M 52.59375 71.296875 
L 52.59375 62.3125 
Q 48.875 64.0625 45.09375 64.984375 
Q 41.3125 65.921875 37.59375 65.921875 
Q 27.828125 65.921875 22.671875 59.328125 
Q 17.53125 52.734375 16.796875 39.40625 
Q 19.671875 43.65625 24.015625 45.921875 
Q 28.375 48.1875 33.59375 48.1875 
Q 44.578125 48.1875 50.953125 41.515625 
Q 57.328125 34.859375 57.328125 23.390625 
Q 57.328125 12.15625 50.6875 5.359375 
Q 44.046875 -1.421875 33.015625 -1.421875 
Q 20.359375 -1.421875 13.671875 8.265625 
Q 6.984375 17.96875 6.984375 36.375 
Q 6.984375 53.65625 15.1875 63.9375 
Q 23.390625 74.21875 37.203125 74.21875 
Q 40.921875 74.21875 44.703125 73.484375 
Q 48.484375 72.75 52.59375 71.296875 
z
" id="DejaVuSans-54"/>
       </defs>
       <use xlink:href="#DejaVuSans-48"/>
       <use x="63.623047" xlink:href="#DejaVuSans-46"/>
       <use x="95.410156" xlink:href="#DejaVuSans-48"/>
       <use x="159.033203" xlink:href="#DejaVuSans-54"/>
      </g>
     </g>
    </g>
    <g id="xtick_5">
     <g id="line2d_9">
      <path clip-path="url(#pb99516ad09)" d="M 460.432314 512.64 
L 460.432314 40.32 
" style="fill:none;stroke:#e6e6e6;stroke-linecap:square;stroke-width:0.8;"/>
     </g>
     <g id="line2d_10">
      <g>
       <use style="stroke:#000000;stroke-width:0.8;" x="460.432314" xlink:href="#m74c945f52a" y="512.64"/>
      </g>
     </g>
     <g id="text_5">
      <!-- 0.08 -->
      <g transform="translate(443.733095 527.537656)scale(0.15 -0.15)">
       <defs>
        <path d="M 31.78125 34.625 
Q 24.75 34.625 20.71875 30.859375 
Q 16.703125 27.09375 16.703125 20.515625 
Q 16.703125 13.921875 20.71875 10.15625 
Q 24.75 6.390625 31.78125 6.390625 
Q 38.8125 6.390625 42.859375 10.171875 
Q 46.921875 13.96875 46.921875 20.515625 
Q 46.921875 27.09375 42.890625 30.859375 
Q 38.875 34.625 31.78125 34.625 
z
M 21.921875 38.8125 
Q 15.578125 40.375 12.03125 44.71875 
Q 8.5 49.078125 8.5 55.328125 
Q 8.5 64.0625 14.71875 69.140625 
Q 20.953125 74.21875 31.78125 74.21875 
Q 42.671875 74.21875 48.875 69.140625 
Q 55.078125 64.0625 55.078125 55.328125 
Q 55.078125 49.078125 51.53125 44.71875 
Q 48 40.375 41.703125 38.8125 
Q 48.828125 37.15625 52.796875 32.3125 
Q 56.78125 27.484375 56.78125 20.515625 
Q 56.78125 9.90625 50.3125 4.234375 
Q 43.84375 -1.421875 31.78125 -1.421875 
Q 19.734375 -1.421875 13.25 4.234375 
Q 6.78125 9.90625 6.78125 20.515625 
Q 6.78125 27.484375 10.78125 32.3125 
Q 14.796875 37.15625 21.921875 38.8125 
z
M 18.3125 54.390625 
Q 18.3125 48.734375 21.84375 45.5625 
Q 25.390625 42.390625 31.78125 42.390625 
Q 38.140625 42.390625 41.71875 45.5625 
Q 45.3125 48.734375 45.3125 54.390625 
Q 45.3125 60.0625 41.71875 63.234375 
Q 38.140625 66.40625 31.78125 66.40625 
Q 25.390625 66.40625 21.84375 63.234375 
Q 18.3125 60.0625 18.3125 54.390625 
z
" id="DejaVuSans-56"/>
       </defs>
       <use xlink:href="#DejaVuSans-48"/>
       <use x="63.623047" xlink:href="#DejaVuSans-46"/>
       <use x="95.410156" xlink:href="#DejaVuSans-48"/>
       <use x="159.033203" xlink:href="#DejaVuSans-56"/>
      </g>
     </g>
    </g>
    <g id="text_6">
     <!-- $\theta(deg)$ -->
     <g transform="translate(245.86 553.907187)scale(0.25 -0.25)">
      <defs>
       <path d="M 45.515625 34.671875 
L 14.453125 34.671875 
Q 12.359375 20.0625 14.5 13.875 
Q 17.1875 6.25 24.46875 6.25 
Q 31.78125 6.25 37.359375 13.921875 
Q 42.234375 20.65625 45.515625 34.671875 
z
M 47.015625 42.96875 
Q 48.34375 56.84375 46.625 61.71875 
Q 43.953125 69.4375 36.765625 69.4375 
Q 29.296875 69.4375 23.828125 61.8125 
Q 19.53125 55.671875 16.15625 42.96875 
z
M 38.1875 76.765625 
Q 49.90625 76.765625 54.59375 66.40625 
Q 59.28125 56.109375 55.71875 37.84375 
Q 52.203125 19.625 43.453125 9.28125 
Q 34.765625 -1.125 23.046875 -1.125 
Q 11.28125 -1.125 6.640625 9.28125 
Q 2 19.625 5.515625 37.84375 
Q 9.078125 56.109375 17.71875 66.40625 
Q 26.421875 76.765625 38.1875 76.765625 
z
" id="DejaVuSans-Oblique-952"/>
       <path d="M 31 75.875 
Q 24.46875 64.65625 21.28125 53.65625 
Q 18.109375 42.671875 18.109375 31.390625 
Q 18.109375 20.125 21.3125 9.0625 
Q 24.515625 -2 31 -13.1875 
L 23.1875 -13.1875 
Q 15.875 -1.703125 12.234375 9.375 
Q 8.59375 20.453125 8.59375 31.390625 
Q 8.59375 42.28125 12.203125 53.3125 
Q 15.828125 64.359375 23.1875 75.875 
z
" id="DejaVuSans-40"/>
       <path d="M 41.796875 8.203125 
Q 38.1875 3.46875 33.25 1.015625 
Q 28.328125 -1.421875 22.3125 -1.421875 
Q 14.109375 -1.421875 9.34375 4.171875 
Q 4.59375 9.765625 4.59375 19.484375 
Q 4.59375 27.59375 7.46875 34.9375 
Q 10.359375 42.28125 15.828125 48.09375 
Q 19.4375 51.953125 23.96875 53.96875 
Q 28.515625 56 33.5 56 
Q 38.765625 56 42.796875 53.453125 
Q 46.828125 50.921875 49.03125 46.1875 
L 54.890625 75.984375 
L 63.921875 75.984375 
L 49.125 0 
L 40.09375 0 
z
M 13.921875 21.09375 
Q 13.921875 14.015625 17.109375 10.0625 
Q 20.3125 6.109375 25.984375 6.109375 
Q 30.171875 6.109375 33.765625 8.125 
Q 37.359375 10.15625 40.09375 14.109375 
Q 42.96875 18.21875 44.625 23.578125 
Q 46.296875 28.953125 46.296875 34.1875 
Q 46.296875 40.96875 43.09375 44.765625 
Q 39.890625 48.578125 34.28125 48.578125 
Q 30.03125 48.578125 26.359375 46.578125 
Q 22.703125 44.578125 20.125 40.828125 
Q 17.28125 36.765625 15.59375 31.390625 
Q 13.921875 26.03125 13.921875 21.09375 
z
" id="DejaVuSans-Oblique-100"/>
       <path d="M 48.09375 32.234375 
Q 48.25 33.015625 48.3125 33.84375 
Q 48.390625 34.671875 48.390625 35.5 
Q 48.390625 41.453125 44.890625 44.921875 
Q 41.40625 48.390625 35.40625 48.390625 
Q 28.71875 48.390625 23.578125 44.15625 
Q 18.453125 39.9375 15.828125 32.171875 
z
M 55.90625 25.203125 
L 14.109375 25.203125 
Q 13.8125 23.34375 13.71875 22.265625 
Q 13.625 21.1875 13.625 20.40625 
Q 13.625 13.625 17.796875 9.90625 
Q 21.96875 6.203125 29.59375 6.203125 
Q 35.453125 6.203125 40.671875 7.515625 
Q 45.90625 8.84375 50.390625 11.375 
L 48.6875 2.484375 
Q 43.84375 0.53125 38.6875 -0.4375 
Q 33.546875 -1.421875 28.21875 -1.421875 
Q 16.84375 -1.421875 10.71875 4.015625 
Q 4.59375 9.46875 4.59375 19.484375 
Q 4.59375 28.03125 7.640625 35.375 
Q 10.6875 42.71875 16.609375 48.484375 
Q 20.40625 52.09375 25.65625 54.046875 
Q 30.90625 56 36.8125 56 
Q 46.09375 56 51.578125 50.4375 
Q 57.078125 44.875 57.078125 35.5 
Q 57.078125 33.25 56.78125 30.6875 
Q 56.5 28.125 55.90625 25.203125 
z
" id="DejaVuSans-Oblique-101"/>
       <path d="M 59.625 54.6875 
L 50.296875 6.78125 
Q 47.609375 -7.125 40.015625 -13.953125 
Q 32.421875 -20.796875 19.578125 -20.796875 
Q 14.84375 -20.796875 10.78125 -20.09375 
Q 6.734375 -19.390625 3.21875 -17.921875 
L 4.890625 -9.1875 
Q 8.203125 -11.328125 11.90625 -12.34375 
Q 15.625 -13.375 19.828125 -13.375 
Q 28.375 -13.375 33.859375 -8.703125 
Q 39.359375 -4.046875 41.109375 4.6875 
L 41.890625 8.796875 
Q 38.140625 4.5 33.15625 2.25 
Q 28.171875 0 22.40625 0 
Q 14.109375 0 9.34375 5.484375 
Q 4.59375 10.984375 4.59375 20.609375 
Q 4.59375 28.171875 7.46875 35.421875 
Q 10.359375 42.671875 15.578125 48.296875 
Q 19.046875 52 23.65625 54 
Q 28.265625 56 33.296875 56 
Q 38.8125 56 42.90625 53.4375 
Q 47.015625 50.875 49.03125 46.1875 
L 50.59375 54.6875 
z
M 46.09375 34.625 
Q 46.09375 41.265625 42.96875 44.875 
Q 39.84375 48.484375 34.078125 48.484375 
Q 30.515625 48.484375 27.296875 47.0625 
Q 24.078125 45.65625 21.78125 43.109375 
Q 18.0625 38.921875 15.984375 33.234375 
Q 13.921875 27.546875 13.921875 21.484375 
Q 13.921875 14.75 17.0625 11.125 
Q 20.21875 7.515625 26.125 7.515625 
Q 34.671875 7.515625 40.375 15.25 
Q 46.09375 23 46.09375 34.625 
z
" id="DejaVuSans-Oblique-103"/>
       <path d="M 8.015625 75.875 
L 15.828125 75.875 
Q 23.140625 64.359375 26.78125 53.3125 
Q 30.421875 42.28125 30.421875 31.390625 
Q 30.421875 20.453125 26.78125 9.375 
Q 23.140625 -1.703125 15.828125 -13.1875 
L 8.015625 -13.1875 
Q 14.5 -2 17.703125 9.0625 
Q 20.90625 20.125 20.90625 31.390625 
Q 20.90625 42.671875 17.703125 53.65625 
Q 14.5 64.65625 8.015625 75.875 
z
" id="DejaVuSans-41"/>
      </defs>
      <use transform="translate(0 0.234375)" xlink:href="#DejaVuSans-Oblique-952"/>
      <use transform="translate(61.181641 0.234375)" xlink:href="#DejaVuSans-40"/>
      <use transform="translate(100.195312 0.234375)" xlink:href="#DejaVuSans-Oblique-100"/>
      <use transform="translate(163.671875 0.234375)" xlink:href="#DejaVuSans-Oblique-101"/>
      <use transform="translate(225.195312 0.234375)" xlink:href="#DejaVuSans-Oblique-103"/>
      <use transform="translate(288.671875 0.234375)" xlink:href="#DejaVuSans-41"/>
     </g>
    </g>
   </g>
   <g id="matplotlib.axis_2">
    <g id="ytick_1">
     <g id="line2d_11">
      <path clip-path="url(#pb99516ad09)" d="M 76.8375 471.653933 
L 496.8825 471.653933 
" style="fill:none;stroke:#e6e6e6;stroke-linecap:square;stroke-width:0.8;"/>
     </g>
     <g id="line2d_12">
      <defs>
       <path d="M 0 0 
L 3.5 0 
" id="m9ef83607c0" style="stroke:#000000;stroke-width:0.8;"/>
      </defs>
      <g>
       <use style="stroke:#000000;stroke-width:0.8;" x="76.8375" xlink:href="#m9ef83607c0" y="471.653933"/>
      </g>
     </g>
     <g id="text_7">
      <!-- 0.0 -->
      <g transform="translate(49.482812 477.352761)scale(0.15 -0.15)">
       <use xlink:href="#DejaVuSans-48"/>
       <use x="63.623047" xlink:href="#DejaVuSans-46"/>
       <use x="95.410156" xlink:href="#DejaVuSans-48"/>
      </g>
     </g>
    </g>
    <g id="ytick_2">
     <g id="line2d_13">
      <path clip-path="url(#pb99516ad09)" d="M 76.8375 393.328935 
L 496.8825 393.328935 
" style="fill:none;stroke:#e6e6e6;stroke-linecap:square;stroke-width:0.8;"/>
     </g>
     <g id="line2d_14">
      <g>
       <use style="stroke:#000000;stroke-width:0.8;" x="76.8375" xlink:href="#m9ef83607c0" y="393.328935"/>
      </g>
     </g>
     <g id="text_8">
      <!-- 0.2 -->
      <g transform="translate(49.482812 399.027763)scale(0.15 -0.15)">
       <use xlink:href="#DejaVuSans-48"/>
       <use x="63.623047" xlink:href="#DejaVuSans-46"/>
       <use x="95.410156" xlink:href="#DejaVuSans-50"/>
      </g>
     </g>
    </g>
    <g id="ytick_3">
     <g id="line2d_15">
      <path clip-path="url(#pb99516ad09)" d="M 76.8375 315.003937 
L 496.8825 315.003937 
" style="fill:none;stroke:#e6e6e6;stroke-linecap:square;stroke-width:0.8;"/>
     </g>
     <g id="line2d_16">
      <g>
       <use style="stroke:#000000;stroke-width:0.8;" x="76.8375" xlink:href="#m9ef83607c0" y="315.003937"/>
      </g>
     </g>
     <g id="text_9">
      <!-- 0.4 -->
      <g transform="translate(49.482812 320.702765)scale(0.15 -0.15)">
       <use xlink:href="#DejaVuSans-48"/>
       <use x="63.623047" xlink:href="#DejaVuSans-46"/>
       <use x="95.410156" xlink:href="#DejaVuSans-52"/>
      </g>
     </g>
    </g>
    <g id="ytick_4">
     <g id="line2d_17">
      <path clip-path="url(#pb99516ad09)" d="M 76.8375 236.678939 
L 496.8825 236.678939 
" style="fill:none;stroke:#e6e6e6;stroke-linecap:square;stroke-width:0.8;"/>
     </g>
     <g id="line2d_18">
      <g>
       <use style="stroke:#000000;stroke-width:0.8;" x="76.8375" xlink:href="#m9ef83607c0" y="236.678939"/>
      </g>
     </g>
     <g id="text_10">
      <!-- 0.6 -->
      <g transform="translate(49.482812 242.377767)scale(0.15 -0.15)">
       <use xlink:href="#DejaVuSans-48"/>
       <use x="63.623047" xlink:href="#DejaVuSans-46"/>
       <use x="95.410156" xlink:href="#DejaVuSans-54"/>
      </g>
     </g>
    </g>
    <g id="ytick_5">
     <g id="line2d_19">
      <path clip-path="url(#pb99516ad09)" d="M 76.8375 158.353941 
L 496.8825 158.353941 
" style="fill:none;stroke:#e6e6e6;stroke-linecap:square;stroke-width:0.8;"/>
     </g>
     <g id="line2d_20">
      <g>
       <use style="stroke:#000000;stroke-width:0.8;" x="76.8375" xlink:href="#m9ef83607c0" y="158.353941"/>
      </g>
     </g>
     <g id="text_11">
      <!-- 0.8 -->
      <g transform="translate(49.482812 164.052769)scale(0.15 -0.15)">
       <use xlink:href="#DejaVuSans-48"/>
       <use x="63.623047" xlink:href="#DejaVuSans-46"/>
       <use x="95.410156" xlink:href="#DejaVuSans-56"/>
      </g>
     </g>
    </g>
    <g id="ytick_6">
     <g id="line2d_21">
      <path clip-path="url(#pb99516ad09)" d="M 76.8375 80.028943 
L 496.8825 80.028943 
" style="fill:none;stroke:#e6e6e6;stroke-linecap:square;stroke-width:0.8;"/>
     </g>
     <g id="line2d_22">
      <g>
       <use style="stroke:#000000;stroke-width:0.8;" x="76.8375" xlink:href="#m9ef83607c0" y="80.028943"/>
      </g>
     </g>
     <g id="text_12">
      <!-- 1.0 -->
      <g transform="translate(49.482812 85.727771)scale(0.15 -0.15)">
       <defs>
        <path d="M 12.40625 8.296875 
L 28.515625 8.296875 
L 28.515625 63.921875 
L 10.984375 60.40625 
L 10.984375 69.390625 
L 28.421875 72.90625 
L 38.28125 72.90625 
L 38.28125 8.296875 
L 54.390625 8.296875 
L 54.390625 0 
L 12.40625 0 
z
" id="DejaVuSans-49"/>
       </defs>
       <use xlink:href="#DejaVuSans-49"/>
       <use x="63.623047" xlink:href="#DejaVuSans-46"/>
       <use x="95.410156" xlink:href="#DejaVuSans-48"/>
      </g>
     </g>
    </g>
    <g id="text_13">
     <!-- $I$ -->
     <g transform="translate(40.283594 280.23)rotate(-90)scale(0.25 -0.25)">
      <defs>
       <path d="M 16.890625 72.90625 
L 26.8125 72.90625 
L 12.59375 0 
L 2.6875 0 
z
" id="DejaVuSans-Oblique-73"/>
      </defs>
      <use transform="translate(0 0.09375)" xlink:href="#DejaVuSans-Oblique-73"/>
     </g>
    </g>
   </g>
   <g id="line2d_23">
    <path clip-path="url(#pb99516ad09)" d="M 113.287686 390.269765 
L 122.18883 381.537797 
L 131.089975 372.65185 
L 139.991119 363.689642 
L 148.892263 354.732556 
L 157.793408 345.864605 
L 166.694552 337.171321 
L 175.595696 328.738612 
L 184.49684 320.65159 
L 193.397985 312.993393 
L 202.299129 305.844018 
L 211.200273 299.279187 
L 220.101418 293.369266 
L 229.002562 288.178249 
L 237.903706 283.76283 
L 246.804851 280.171578 
L 255.705995 277.444222 
L 264.607139 275.611069 
L 273.508284 274.692557 
L 282.409428 274.69895 
L 291.310572 275.630191 
L 300.211716 277.4759 
L 309.112861 280.215525 
L 318.014005 283.81865 
L 326.915149 288.245438 
L 335.816294 293.447223 
L 344.717438 299.367215 
L 353.618582 305.941334 
L 362.519727 313.099137 
L 371.420871 320.764832 
L 380.322015 328.858364 
L 389.22316 337.296547 
L 398.124304 345.994231 
L 407.025448 354.865481 
L 415.926592 363.824749 
L 424.827737 372.78802 
L 433.728881 381.673918 
L 442.630025 390.404743 
L 451.53117 398.907442 
L 460.432314 407.114478 
" style="fill:none;stroke:#fdd4c2;stroke-linecap:square;"/>
    <defs>
     <path d="M 0 2.5 
C 0.663008 2.5 1.29895 2.236584 1.767767 1.767767 
C 2.236584 1.29895 2.5 0.663008 2.5 0 
C 2.5 -0.663008 2.236584 -1.29895 1.767767 -1.767767 
C 1.29895 -2.236584 0.663008 -2.5 0 -2.5 
C -0.663008 -2.5 -1.29895 -2.236584 -1.767767 -1.767767 
C -2.236584 -1.29895 -2.5 -0.663008 -2.5 0 
C -2.5 0.663008 -2.236584 1.29895 -1.767767 1.767767 
C -1.29895 2.236584 -0.663008 2.5 0 2.5 
z
" id="m448ff103d2" style="stroke:#fdd4c2;"/>
    </defs>
    <g clip-path="url(#pb99516ad09)">
     <use style="fill:#fdd4c2;stroke:#fdd4c2;" x="113.287686" xlink:href="#m448ff103d2" y="390.269765"/>
     <use style="fill:#fdd4c2;stroke:#fdd4c2;" x="122.18883" xlink:href="#m448ff103d2" y="381.537797"/>
     <use style="fill:#fdd4c2;stroke:#fdd4c2;" x="131.089975" xlink:href="#m448ff103d2" y="372.65185"/>
     <use style="fill:#fdd4c2;stroke:#fdd4c2;" x="139.991119" xlink:href="#m448ff103d2" y="363.689642"/>
     <use style="fill:#fdd4c2;stroke:#fdd4c2;" x="148.892263" xlink:href="#m448ff103d2" y="354.732556"/>
     <use style="fill:#fdd4c2;stroke:#fdd4c2;" x="157.793408" xlink:href="#m448ff103d2" y="345.864605"/>
     <use style="fill:#fdd4c2;stroke:#fdd4c2;" x="166.694552" xlink:href="#m448ff103d2" y="337.171321"/>
     <use style="fill:#fdd4c2;stroke:#fdd4c2;" x="175.595696" xlink:href="#m448ff103d2" y="328.738612"/>
     <use style="fill:#fdd4c2;stroke:#fdd4c2;" x="184.49684" xlink:href="#m448ff103d2" y="320.65159"/>
     <use style="fill:#fdd4c2;stroke:#fdd4c2;" x="193.397985" xlink:href="#m448ff103d2" y="312.993393"/>
     <use style="fill:#fdd4c2;stroke:#fdd4c2;" x="202.299129" xlink:href="#m448ff103d2" y="305.844018"/>
     <use style="fill:#fdd4c2;stroke:#fdd4c2;" x="211.200273" xlink:href="#m448ff103d2" y="299.279187"/>
     <use style="fill:#fdd4c2;stroke:#fdd4c2;" x="220.101418" xlink:href="#m448ff103d2" y="293.369266"/>
     <use style="fill:#fdd4c2;stroke:#fdd4c2;" x="229.002562" xlink:href="#m448ff103d2" y="288.178249"/>
     <use style="fill:#fdd4c2;stroke:#fdd4c2;" x="237.903706" xlink:href="#m448ff103d2" y="283.76283"/>
     <use style="fill:#fdd4c2;stroke:#fdd4c2;" x="246.804851" xlink:href="#m448ff103d2" y="280.171578"/>
     <use style="fill:#fdd4c2;stroke:#fdd4c2;" x="255.705995" xlink:href="#m448ff103d2" y="277.444222"/>
     <use style="fill:#fdd4c2;stroke:#fdd4c2;" x="264.607139" xlink:href="#m448ff103d2" y="275.611069"/>
     <use style="fill:#fdd4c2;stroke:#fdd4c2;" x="273.508284" xlink:href="#m448ff103d2" y="274.692557"/>
     <use style="fill:#fdd4c2;stroke:#fdd4c2;" x="282.409428" xlink:href="#m448ff103d2" y="274.69895"/>
     <use style="fill:#fdd4c2;stroke:#fdd4c2;" x="291.310572" xlink:href="#m448ff103d2" y="275.630191"/>
     <use style="fill:#fdd4c2;stroke:#fdd4c2;" x="300.211716" xlink:href="#m448ff103d2" y="277.4759"/>
     <use style="fill:#fdd4c2;stroke:#fdd4c2;" x="309.112861" xlink:href="#m448ff103d2" y="280.215525"/>
     <use style="fill:#fdd4c2;stroke:#fdd4c2;" x="318.014005" xlink:href="#m448ff103d2" y="283.81865"/>
     <use style="fill:#fdd4c2;stroke:#fdd4c2;" x="326.915149" xlink:href="#m448ff103d2" y="288.245438"/>
     <use style="fill:#fdd4c2;stroke:#fdd4c2;" x="335.816294" xlink:href="#m448ff103d2" y="293.447223"/>
     <use style="fill:#fdd4c2;stroke:#fdd4c2;" x="344.717438" xlink:href="#m448ff103d2" y="299.367215"/>
     <use style="fill:#fdd4c2;stroke:#fdd4c2;" x="353.618582" xlink:href="#m448ff103d2" y="305.941334"/>
     <use style="fill:#fdd4c2;stroke:#fdd4c2;" x="362.519727" xlink:href="#m448ff103d2" y="313.099137"/>
     <use style="fill:#fdd4c2;stroke:#fdd4c2;" x="371.420871" xlink:href="#m448ff103d2" y="320.764832"/>
     <use style="fill:#fdd4c2;stroke:#fdd4c2;" x="380.322015" xlink:href="#m448ff103d2" y="328.858364"/>
     <use style="fill:#fdd4c2;stroke:#fdd4c2;" x="389.22316" xlink:href="#m448ff103d2" y="337.296547"/>
     <use style="fill:#fdd4c2;stroke:#fdd4c2;" x="398.124304" xlink:href="#m448ff103d2" y="345.994231"/>
     <use style="fill:#fdd4c2;stroke:#fdd4c2;" x="407.025448" xlink:href="#m448ff103d2" y="354.865481"/>
     <use style="fill:#fdd4c2;stroke:#fdd4c2;" x="415.926592" xlink:href="#m448ff103d2" y="363.824749"/>
     <use style="fill:#fdd4c2;stroke:#fdd4c2;" x="424.827737" xlink:href="#m448ff103d2" y="372.78802"/>
     <use style="fill:#fdd4c2;stroke:#fdd4c2;" x="433.728881" xlink:href="#m448ff103d2" y="381.673918"/>
     <use style="fill:#fdd4c2;stroke:#fdd4c2;" x="442.630025" xlink:href="#m448ff103d2" y="390.404743"/>
     <use style="fill:#fdd4c2;stroke:#fdd4c2;" x="451.53117" xlink:href="#m448ff103d2" y="398.907442"/>
     <use style="fill:#fdd4c2;stroke:#fdd4c2;" x="460.432314" xlink:href="#m448ff103d2" y="407.114478"/>
    </g>
   </g>
   <g id="line2d_24">
    <path clip-path="url(#pb99516ad09)" d="M 113.287686 466.251854 
L 122.18883 470.482784 
L 131.089975 471.575888 
L 139.991119 468.621266 
L 148.892263 460.872433 
L 157.793408 447.81371 
L 166.694552 429.215563 
L 175.595696 405.173175 
L 184.49684 376.124631 
L 193.397985 342.846475 
L 202.299129 306.426005 
L 211.200273 268.211364 
L 220.101418 229.742165 
L 229.002562 192.664871 
L 237.903706 158.638378 
L 246.804851 129.236061 
L 255.705995 105.850923 
L 264.607139 89.610357 
L 273.508284 81.306446 
L 282.409428 81.346659 
L 291.310572 89.728408 
L 300.211716 106.039261 
L 309.112861 129.48277 
L 318.014005 158.928132 
L 326.915149 192.980156 
L 335.816294 230.064673 
L 344.717438 268.523441 
L 353.618582 306.712019 
L 362.519727 343.094004 
L 371.420871 376.32537 
L 380.322015 405.323498 
L 389.22316 429.316693 
L 398.124304 447.871515 
L 407.025448 460.896859 
L 415.926592 468.625455 
L 424.827737 471.575045 
L 433.728881 470.492897 
L 442.630025 466.288351 
L 451.53117 459.958801 
L 460.432314 452.514736 
" style="fill:none;stroke:#fca082;stroke-linecap:square;"/>
    <defs>
     <path d="M 0 2.5 
C 0.663008 2.5 1.29895 2.236584 1.767767 1.767767 
C 2.236584 1.29895 2.5 0.663008 2.5 0 
C 2.5 -0.663008 2.236584 -1.29895 1.767767 -1.767767 
C 1.29895 -2.236584 0.663008 -2.5 0 -2.5 
C -0.663008 -2.5 -1.29895 -2.236584 -1.767767 -1.767767 
C -2.236584 -1.29895 -2.5 -0.663008 -2.5 0 
C -2.5 0.663008 -2.236584 1.29895 -1.767767 1.767767 
C -1.29895 2.236584 -0.663008 2.5 0 2.5 
z
" id="m5053f69700" style="stroke:#fca082;"/>
    </defs>
    <g clip-path="url(#pb99516ad09)">
     <use style="fill:#fca082;stroke:#fca082;" x="113.287686" xlink:href="#m5053f69700" y="466.251854"/>
     <use style="fill:#fca082;stroke:#fca082;" x="122.18883" xlink:href="#m5053f69700" y="470.482784"/>
     <use style="fill:#fca082;stroke:#fca082;" x="131.089975" xlink:href="#m5053f69700" y="471.575888"/>
     <use style="fill:#fca082;stroke:#fca082;" x="139.991119" xlink:href="#m5053f69700" y="468.621266"/>
     <use style="fill:#fca082;stroke:#fca082;" x="148.892263" xlink:href="#m5053f69700" y="460.872433"/>
     <use style="fill:#fca082;stroke:#fca082;" x="157.793408" xlink:href="#m5053f69700" y="447.81371"/>
     <use style="fill:#fca082;stroke:#fca082;" x="166.694552" xlink:href="#m5053f69700" y="429.215563"/>
     <use style="fill:#fca082;stroke:#fca082;" x="175.595696" xlink:href="#m5053f69700" y="405.173175"/>
     <use style="fill:#fca082;stroke:#fca082;" x="184.49684" xlink:href="#m5053f69700" y="376.124631"/>
     <use style="fill:#fca082;stroke:#fca082;" x="193.397985" xlink:href="#m5053f69700" y="342.846475"/>
     <use style="fill:#fca082;stroke:#fca082;" x="202.299129" xlink:href="#m5053f69700" y="306.426005"/>
     <use style="fill:#fca082;stroke:#fca082;" x="211.200273" xlink:href="#m5053f69700" y="268.211364"/>
     <use style="fill:#fca082;stroke:#fca082;" x="220.101418" xlink:href="#m5053f69700" y="229.742165"/>
     <use style="fill:#fca082;stroke:#fca082;" x="229.002562" xlink:href="#m5053f69700" y="192.664871"/>
     <use style="fill:#fca082;stroke:#fca082;" x="237.903706" xlink:href="#m5053f69700" y="158.638378"/>
     <use style="fill:#fca082;stroke:#fca082;" x="246.804851" xlink:href="#m5053f69700" y="129.236061"/>
     <use style="fill:#fca082;stroke:#fca082;" x="255.705995" xlink:href="#m5053f69700" y="105.850923"/>
     <use style="fill:#fca082;stroke:#fca082;" x="264.607139" xlink:href="#m5053f69700" y="89.610357"/>
     <use style="fill:#fca082;stroke:#fca082;" x="273.508284" xlink:href="#m5053f69700" y="81.306446"/>
     <use style="fill:#fca082;stroke:#fca082;" x="282.409428" xlink:href="#m5053f69700" y="81.346659"/>
     <use style="fill:#fca082;stroke:#fca082;" x="291.310572" xlink:href="#m5053f69700" y="89.728408"/>
     <use style="fill:#fca082;stroke:#fca082;" x="300.211716" xlink:href="#m5053f69700" y="106.039261"/>
     <use style="fill:#fca082;stroke:#fca082;" x="309.112861" xlink:href="#m5053f69700" y="129.48277"/>
     <use style="fill:#fca082;stroke:#fca082;" x="318.014005" xlink:href="#m5053f69700" y="158.928132"/>
     <use style="fill:#fca082;stroke:#fca082;" x="326.915149" xlink:href="#m5053f69700" y="192.980156"/>
     <use style="fill:#fca082;stroke:#fca082;" x="335.816294" xlink:href="#m5053f69700" y="230.064673"/>
     <use style="fill:#fca082;stroke:#fca082;" x="344.717438" xlink:href="#m5053f69700" y="268.523441"/>
     <use style="fill:#fca082;stroke:#fca082;" x="353.618582" xlink:href="#m5053f69700" y="306.712019"/>
     <use style="fill:#fca082;stroke:#fca082;" x="362.519727" xlink:href="#m5053f69700" y="343.094004"/>
     <use style="fill:#fca082;stroke:#fca082;" x="371.420871" xlink:href="#m5053f69700" y="376.32537"/>
     <use style="fill:#fca082;stroke:#fca082;" x="380.322015" xlink:href="#m5053f69700" y="405.323498"/>
     <use style="fill:#fca082;stroke:#fca082;" x="389.22316" xlink:href="#m5053f69700" y="429.316693"/>
     <use style="fill:#fca082;stroke:#fca082;" x="398.124304" xlink:href="#m5053f69700" y="447.871515"/>
     <use style="fill:#fca082;stroke:#fca082;" x="407.025448" xlink:href="#m5053f69700" y="460.896859"/>
     <use style="fill:#fca082;stroke:#fca082;" x="415.926592" xlink:href="#m5053f69700" y="468.625455"/>
     <use style="fill:#fca082;stroke:#fca082;" x="424.827737" xlink:href="#m5053f69700" y="471.575045"/>
     <use style="fill:#fca082;stroke:#fca082;" x="433.728881" xlink:href="#m5053f69700" y="470.492897"/>
     <use style="fill:#fca082;stroke:#fca082;" x="442.630025" xlink:href="#m5053f69700" y="466.288351"/>
     <use style="fill:#fca082;stroke:#fca082;" x="451.53117" xlink:href="#m5053f69700" y="459.958801"/>
     <use style="fill:#fca082;stroke:#fca082;" x="460.432314" xlink:href="#m5053f69700" y="452.514736"/>
    </g>
   </g>
   <g id="line2d_25">
    <path clip-path="url(#pb99516ad09)" d="M 113.287686 401.167941 
L 122.18883 384.168459 
L 131.089975 372.888122 
L 139.991119 369.514542 
L 148.892263 374.963745 
L 157.793408 388.608288 
L 166.694552 408.274372 
L 175.595696 430.524573 
L 184.49684 451.189803 
L 193.397985 466.065615 
L 202.299129 471.653554 
L 211.200273 465.814947 
L 220.101418 448.215413 
L 229.002562 420.472326 
L 237.903706 385.968649 
L 246.804851 349.355934 
L 255.705995 315.825761 
L 264.607139 290.272064 
L 273.508284 276.488292 
L 282.409428 276.539097 
L 291.310572 290.416634 
L 300.211716 316.041918 
L 309.112861 349.611019 
L 318.014005 386.225164 
L 326.915149 420.694339 
L 335.816294 448.374575 
L 344.717438 465.895021 
L 353.618582 471.652705 
L 362.519727 465.996079 
L 371.420871 451.075072 
L 380.322015 430.394625 
L 389.22316 408.159882 
L 398.124304 388.534927 
L 407.025448 374.947675 
L 415.926592 369.559961 
L 424.827737 372.987227 
L 433.728881 384.303744 
L 442.630025 401.316329 
L 451.53117 421.041921 
L 460.432314 440.290959 
" style="fill:none;stroke:#fb694a;stroke-linecap:square;"/>
    <defs>
     <path d="M 0 2.5 
C 0.663008 2.5 1.29895 2.236584 1.767767 1.767767 
C 2.236584 1.29895 2.5 0.663008 2.5 0 
C 2.5 -0.663008 2.236584 -1.29895 1.767767 -1.767767 
C 1.29895 -2.236584 0.663008 -2.5 0 -2.5 
C -0.663008 -2.5 -1.29895 -2.236584 -1.767767 -1.767767 
C -2.236584 -1.29895 -2.5 -0.663008 -2.5 0 
C -2.5 0.663008 -2.236584 1.29895 -1.767767 1.767767 
C -1.29895 2.236584 -0.663008 2.5 0 2.5 
z
" id="m529b4bc97b" style="stroke:#fb694a;"/>
    </defs>
    <g clip-path="url(#pb99516ad09)">
     <use style="fill:#fb694a;stroke:#fb694a;" x="113.287686" xlink:href="#m529b4bc97b" y="401.167941"/>
     <use style="fill:#fb694a;stroke:#fb694a;" x="122.18883" xlink:href="#m529b4bc97b" y="384.168459"/>
     <use style="fill:#fb694a;stroke:#fb694a;" x="131.089975" xlink:href="#m529b4bc97b" y="372.888122"/>
     <use style="fill:#fb694a;stroke:#fb694a;" x="139.991119" xlink:href="#m529b4bc97b" y="369.514542"/>
     <use style="fill:#fb694a;stroke:#fb694a;" x="148.892263" xlink:href="#m529b4bc97b" y="374.963745"/>
     <use style="fill:#fb694a;stroke:#fb694a;" x="157.793408" xlink:href="#m529b4bc97b" y="388.608288"/>
     <use style="fill:#fb694a;stroke:#fb694a;" x="166.694552" xlink:href="#m529b4bc97b" y="408.274372"/>
     <use style="fill:#fb694a;stroke:#fb694a;" x="175.595696" xlink:href="#m529b4bc97b" y="430.524573"/>
     <use style="fill:#fb694a;stroke:#fb694a;" x="184.49684" xlink:href="#m529b4bc97b" y="451.189803"/>
     <use style="fill:#fb694a;stroke:#fb694a;" x="193.397985" xlink:href="#m529b4bc97b" y="466.065615"/>
     <use style="fill:#fb694a;stroke:#fb694a;" x="202.299129" xlink:href="#m529b4bc97b" y="471.653554"/>
     <use style="fill:#fb694a;stroke:#fb694a;" x="211.200273" xlink:href="#m529b4bc97b" y="465.814947"/>
     <use style="fill:#fb694a;stroke:#fb694a;" x="220.101418" xlink:href="#m529b4bc97b" y="448.215413"/>
     <use style="fill:#fb694a;stroke:#fb694a;" x="229.002562" xlink:href="#m529b4bc97b" y="420.472326"/>
     <use style="fill:#fb694a;stroke:#fb694a;" x="237.903706" xlink:href="#m529b4bc97b" y="385.968649"/>
     <use style="fill:#fb694a;stroke:#fb694a;" x="246.804851" xlink:href="#m529b4bc97b" y="349.355934"/>
     <use style="fill:#fb694a;stroke:#fb694a;" x="255.705995" xlink:href="#m529b4bc97b" y="315.825761"/>
     <use style="fill:#fb694a;stroke:#fb694a;" x="264.607139" xlink:href="#m529b4bc97b" y="290.272064"/>
     <use style="fill:#fb694a;stroke:#fb694a;" x="273.508284" xlink:href="#m529b4bc97b" y="276.488292"/>
     <use style="fill:#fb694a;stroke:#fb694a;" x="282.409428" xlink:href="#m529b4bc97b" y="276.539097"/>
     <use style="fill:#fb694a;stroke:#fb694a;" x="291.310572" xlink:href="#m529b4bc97b" y="290.416634"/>
     <use style="fill:#fb694a;stroke:#fb694a;" x="300.211716" xlink:href="#m529b4bc97b" y="316.041918"/>
     <use style="fill:#fb694a;stroke:#fb694a;" x="309.112861" xlink:href="#m529b4bc97b" y="349.611019"/>
     <use style="fill:#fb694a;stroke:#fb694a;" x="318.014005" xlink:href="#m529b4bc97b" y="386.225164"/>
     <use style="fill:#fb694a;stroke:#fb694a;" x="326.915149" xlink:href="#m529b4bc97b" y="420.694339"/>
     <use style="fill:#fb694a;stroke:#fb694a;" x="335.816294" xlink:href="#m529b4bc97b" y="448.374575"/>
     <use style="fill:#fb694a;stroke:#fb694a;" x="344.717438" xlink:href="#m529b4bc97b" y="465.895021"/>
     <use style="fill:#fb694a;stroke:#fb694a;" x="353.618582" xlink:href="#m529b4bc97b" y="471.652705"/>
     <use style="fill:#fb694a;stroke:#fb694a;" x="362.519727" xlink:href="#m529b4bc97b" y="465.996079"/>
     <use style="fill:#fb694a;stroke:#fb694a;" x="371.420871" xlink:href="#m529b4bc97b" y="451.075072"/>
     <use style="fill:#fb694a;stroke:#fb694a;" x="380.322015" xlink:href="#m529b4bc97b" y="430.394625"/>
     <use style="fill:#fb694a;stroke:#fb694a;" x="389.22316" xlink:href="#m529b4bc97b" y="408.159882"/>
     <use style="fill:#fb694a;stroke:#fb694a;" x="398.124304" xlink:href="#m529b4bc97b" y="388.534927"/>
     <use style="fill:#fb694a;stroke:#fb694a;" x="407.025448" xlink:href="#m529b4bc97b" y="374.947675"/>
     <use style="fill:#fb694a;stroke:#fb694a;" x="415.926592" xlink:href="#m529b4bc97b" y="369.559961"/>
     <use style="fill:#fb694a;stroke:#fb694a;" x="424.827737" xlink:href="#m529b4bc97b" y="372.987227"/>
     <use style="fill:#fb694a;stroke:#fb694a;" x="433.728881" xlink:href="#m529b4bc97b" y="384.303744"/>
     <use style="fill:#fb694a;stroke:#fb694a;" x="442.630025" xlink:href="#m529b4bc97b" y="401.316329"/>
     <use style="fill:#fb694a;stroke:#fb694a;" x="451.53117" xlink:href="#m529b4bc97b" y="421.041921"/>
     <use style="fill:#fb694a;stroke:#fb694a;" x="460.432314" xlink:href="#m529b4bc97b" y="440.290959"/>
    </g>
   </g>
   <g id="line2d_26">
    <path clip-path="url(#pb99516ad09)" d="M 113.287686 449.893237 
L 122.18883 466.171989 
L 131.089975 471.522912 
L 139.991119 461.107473 
L 148.892263 434.435535 
L 157.793408 395.824949 
L 166.694552 353.359543 
L 175.595696 316.647713 
L 184.49684 294.087789 
L 193.397985 290.513883 
L 202.299129 305.967268 
L 211.200273 335.956617 
L 220.101418 373.06861 
L 229.002562 409.343053 
L 237.903706 438.589182 
L 246.804851 457.873464 
L 255.705995 467.731502 
L 264.607139 471.129192 
L 273.508284 471.649564 
L 282.409428 471.649127 
L 291.310572 471.115483 
L 300.211716 467.673693 
L 309.112861 457.73866 
L 318.014005 438.361785 
L 326.915149 409.038648 
L 335.816294 372.73582 
L 344.717438 335.664901 
L 353.618582 305.784305 
L 362.519727 290.48097 
L 371.420871 294.203094 
L 380.322015 316.864745 
L 389.22316 353.602938 
L 398.124304 396.01894 
L 407.025448 434.535264 
L 415.926592 461.121537 
L 424.827737 471.518023 
L 433.728881 466.256479 
L 442.630025 450.183116 
L 451.53117 430.685942 
L 460.432314 415.246327 
" style="fill:none;stroke:#e32f27;stroke-linecap:square;"/>
    <defs>
     <path d="M 0 2.5 
C 0.663008 2.5 1.29895 2.236584 1.767767 1.767767 
C 2.236584 1.29895 2.5 0.663008 2.5 0 
C 2.5 -0.663008 2.236584 -1.29895 1.767767 -1.767767 
C 1.29895 -2.236584 0.663008 -2.5 0 -2.5 
C -0.663008 -2.5 -1.29895 -2.236584 -1.767767 -1.767767 
C -2.236584 -1.29895 -2.5 -0.663008 -2.5 0 
C -2.5 0.663008 -2.236584 1.29895 -1.767767 1.767767 
C -1.29895 2.236584 -0.663008 2.5 0 2.5 
z
" id="me6a507eec0" style="stroke:#e32f27;"/>
    </defs>
    <g clip-path="url(#pb99516ad09)">
     <use style="fill:#e32f27;stroke:#e32f27;" x="113.287686" xlink:href="#me6a507eec0" y="449.893237"/>
     <use style="fill:#e32f27;stroke:#e32f27;" x="122.18883" xlink:href="#me6a507eec0" y="466.171989"/>
     <use style="fill:#e32f27;stroke:#e32f27;" x="131.089975" xlink:href="#me6a507eec0" y="471.522912"/>
     <use style="fill:#e32f27;stroke:#e32f27;" x="139.991119" xlink:href="#me6a507eec0" y="461.107473"/>
     <use style="fill:#e32f27;stroke:#e32f27;" x="148.892263" xlink:href="#me6a507eec0" y="434.435535"/>
     <use style="fill:#e32f27;stroke:#e32f27;" x="157.793408" xlink:href="#me6a507eec0" y="395.824949"/>
     <use style="fill:#e32f27;stroke:#e32f27;" x="166.694552" xlink:href="#me6a507eec0" y="353.359543"/>
     <use style="fill:#e32f27;stroke:#e32f27;" x="175.595696" xlink:href="#me6a507eec0" y="316.647713"/>
     <use style="fill:#e32f27;stroke:#e32f27;" x="184.49684" xlink:href="#me6a507eec0" y="294.087789"/>
     <use style="fill:#e32f27;stroke:#e32f27;" x="193.397985" xlink:href="#me6a507eec0" y="290.513883"/>
     <use style="fill:#e32f27;stroke:#e32f27;" x="202.299129" xlink:href="#me6a507eec0" y="305.967268"/>
     <use style="fill:#e32f27;stroke:#e32f27;" x="211.200273" xlink:href="#me6a507eec0" y="335.956617"/>
     <use style="fill:#e32f27;stroke:#e32f27;" x="220.101418" xlink:href="#me6a507eec0" y="373.06861"/>
     <use style="fill:#e32f27;stroke:#e32f27;" x="229.002562" xlink:href="#me6a507eec0" y="409.343053"/>
     <use style="fill:#e32f27;stroke:#e32f27;" x="237.903706" xlink:href="#me6a507eec0" y="438.589182"/>
     <use style="fill:#e32f27;stroke:#e32f27;" x="246.804851" xlink:href="#me6a507eec0" y="457.873464"/>
     <use style="fill:#e32f27;stroke:#e32f27;" x="255.705995" xlink:href="#me6a507eec0" y="467.731502"/>
     <use style="fill:#e32f27;stroke:#e32f27;" x="264.607139" xlink:href="#me6a507eec0" y="471.129192"/>
     <use style="fill:#e32f27;stroke:#e32f27;" x="273.508284" xlink:href="#me6a507eec0" y="471.649564"/>
     <use style="fill:#e32f27;stroke:#e32f27;" x="282.409428" xlink:href="#me6a507eec0" y="471.649127"/>
     <use style="fill:#e32f27;stroke:#e32f27;" x="291.310572" xlink:href="#me6a507eec0" y="471.115483"/>
     <use style="fill:#e32f27;stroke:#e32f27;" x="300.211716" xlink:href="#me6a507eec0" y="467.673693"/>
     <use style="fill:#e32f27;stroke:#e32f27;" x="309.112861" xlink:href="#me6a507eec0" y="457.73866"/>
     <use style="fill:#e32f27;stroke:#e32f27;" x="318.014005" xlink:href="#me6a507eec0" y="438.361785"/>
     <use style="fill:#e32f27;stroke:#e32f27;" x="326.915149" xlink:href="#me6a507eec0" y="409.038648"/>
     <use style="fill:#e32f27;stroke:#e32f27;" x="335.816294" xlink:href="#me6a507eec0" y="372.73582"/>
     <use style="fill:#e32f27;stroke:#e32f27;" x="344.717438" xlink:href="#me6a507eec0" y="335.664901"/>
     <use style="fill:#e32f27;stroke:#e32f27;" x="353.618582" xlink:href="#me6a507eec0" y="305.784305"/>
     <use style="fill:#e32f27;stroke:#e32f27;" x="362.519727" xlink:href="#me6a507eec0" y="290.48097"/>
     <use style="fill:#e32f27;stroke:#e32f27;" x="371.420871" xlink:href="#me6a507eec0" y="294.203094"/>
     <use style="fill:#e32f27;stroke:#e32f27;" x="380.322015" xlink:href="#me6a507eec0" y="316.864745"/>
     <use style="fill:#e32f27;stroke:#e32f27;" x="389.22316" xlink:href="#me6a507eec0" y="353.602938"/>
     <use style="fill:#e32f27;stroke:#e32f27;" x="398.124304" xlink:href="#me6a507eec0" y="396.01894"/>
     <use style="fill:#e32f27;stroke:#e32f27;" x="407.025448" xlink:href="#me6a507eec0" y="434.535264"/>
     <use style="fill:#e32f27;stroke:#e32f27;" x="415.926592" xlink:href="#me6a507eec0" y="461.121537"/>
     <use style="fill:#e32f27;stroke:#e32f27;" x="424.827737" xlink:href="#me6a507eec0" y="471.518023"/>
     <use style="fill:#e32f27;stroke:#e32f27;" x="433.728881" xlink:href="#me6a507eec0" y="466.256479"/>
     <use style="fill:#e32f27;stroke:#e32f27;" x="442.630025" xlink:href="#me6a507eec0" y="450.183116"/>
     <use style="fill:#e32f27;stroke:#e32f27;" x="451.53117" xlink:href="#me6a507eec0" y="430.685942"/>
     <use style="fill:#e32f27;stroke:#e32f27;" x="460.432314" xlink:href="#me6a507eec0" y="415.246327"/>
    </g>
   </g>
   <g id="line2d_27">
    <path clip-path="url(#pb99516ad09)" d="M 113.287686 421.21218 
L 122.18883 389.873941 
L 131.089975 372.881958 
L 139.991119 379.023367 
L 148.892263 406.262286 
L 157.793408 441.859507 
L 166.694552 467.643017 
L 175.595696 467.938913 
L 184.49684 436.393585 
L 193.397985 378.554642 
L 202.299129 309.243263 
L 211.200273 246.26808 
L 220.101418 203.598204 
L 229.002562 187.007928 
L 237.903706 193.638976 
L 246.804851 214.868488 
L 255.705995 240.463378 
L 264.607139 261.901352 
L 273.508284 273.790229 
L 282.409428 273.717858 
L 291.310572 261.696506 
L 300.211716 240.166665 
L 309.112861 214.553864 
L 318.014005 193.406311 
L 326.915149 186.955142 
L 335.816294 203.780094 
L 344.717438 246.662585 
L 353.618582 309.747984 
L 362.519727 379.023269 
L 371.420871 436.698926 
L 380.322015 468.030411 
L 389.22316 467.566351 
L 398.124304 441.725103 
L 407.025448 406.178569 
L 415.926592 379.033005 
L 424.827737 372.940492 
L 433.728881 389.887368 
L 442.630025 421.114198 
L 451.53117 452.06582 
L 460.432314 469.77313 
" style="fill:none;stroke:#b11218;stroke-linecap:square;"/>
    <defs>
     <path d="M 0 2.5 
C 0.663008 2.5 1.29895 2.236584 1.767767 1.767767 
C 2.236584 1.29895 2.5 0.663008 2.5 0 
C 2.5 -0.663008 2.236584 -1.29895 1.767767 -1.767767 
C 1.29895 -2.236584 0.663008 -2.5 0 -2.5 
C -0.663008 -2.5 -1.29895 -2.236584 -1.767767 -1.767767 
C -2.236584 -1.29895 -2.5 -0.663008 -2.5 0 
C -2.5 0.663008 -2.236584 1.29895 -1.767767 1.767767 
C -1.29895 2.236584 -0.663008 2.5 0 2.5 
z
" id="m12beeeef40" style="stroke:#b11218;"/>
    </defs>
    <g clip-path="url(#pb99516ad09)">
     <use style="fill:#b11218;stroke:#b11218;" x="113.287686" xlink:href="#m12beeeef40" y="421.21218"/>
     <use style="fill:#b11218;stroke:#b11218;" x="122.18883" xlink:href="#m12beeeef40" y="389.873941"/>
     <use style="fill:#b11218;stroke:#b11218;" x="131.089975" xlink:href="#m12beeeef40" y="372.881958"/>
     <use style="fill:#b11218;stroke:#b11218;" x="139.991119" xlink:href="#m12beeeef40" y="379.023367"/>
     <use style="fill:#b11218;stroke:#b11218;" x="148.892263" xlink:href="#m12beeeef40" y="406.262286"/>
     <use style="fill:#b11218;stroke:#b11218;" x="157.793408" xlink:href="#m12beeeef40" y="441.859507"/>
     <use style="fill:#b11218;stroke:#b11218;" x="166.694552" xlink:href="#m12beeeef40" y="467.643017"/>
     <use style="fill:#b11218;stroke:#b11218;" x="175.595696" xlink:href="#m12beeeef40" y="467.938913"/>
     <use style="fill:#b11218;stroke:#b11218;" x="184.49684" xlink:href="#m12beeeef40" y="436.393585"/>
     <use style="fill:#b11218;stroke:#b11218;" x="193.397985" xlink:href="#m12beeeef40" y="378.554642"/>
     <use style="fill:#b11218;stroke:#b11218;" x="202.299129" xlink:href="#m12beeeef40" y="309.243263"/>
     <use style="fill:#b11218;stroke:#b11218;" x="211.200273" xlink:href="#m12beeeef40" y="246.26808"/>
     <use style="fill:#b11218;stroke:#b11218;" x="220.101418" xlink:href="#m12beeeef40" y="203.598204"/>
     <use style="fill:#b11218;stroke:#b11218;" x="229.002562" xlink:href="#m12beeeef40" y="187.007928"/>
     <use style="fill:#b11218;stroke:#b11218;" x="237.903706" xlink:href="#m12beeeef40" y="193.638976"/>
     <use style="fill:#b11218;stroke:#b11218;" x="246.804851" xlink:href="#m12beeeef40" y="214.868488"/>
     <use style="fill:#b11218;stroke:#b11218;" x="255.705995" xlink:href="#m12beeeef40" y="240.463378"/>
     <use style="fill:#b11218;stroke:#b11218;" x="264.607139" xlink:href="#m12beeeef40" y="261.901352"/>
     <use style="fill:#b11218;stroke:#b11218;" x="273.508284" xlink:href="#m12beeeef40" y="273.790229"/>
     <use style="fill:#b11218;stroke:#b11218;" x="282.409428" xlink:href="#m12beeeef40" y="273.717858"/>
     <use style="fill:#b11218;stroke:#b11218;" x="291.310572" xlink:href="#m12beeeef40" y="261.696506"/>
     <use style="fill:#b11218;stroke:#b11218;" x="300.211716" xlink:href="#m12beeeef40" y="240.166665"/>
     <use style="fill:#b11218;stroke:#b11218;" x="309.112861" xlink:href="#m12beeeef40" y="214.553864"/>
     <use style="fill:#b11218;stroke:#b11218;" x="318.014005" xlink:href="#m12beeeef40" y="193.406311"/>
     <use style="fill:#b11218;stroke:#b11218;" x="326.915149" xlink:href="#m12beeeef40" y="186.955142"/>
     <use style="fill:#b11218;stroke:#b11218;" x="335.816294" xlink:href="#m12beeeef40" y="203.780094"/>
     <use style="fill:#b11218;stroke:#b11218;" x="344.717438" xlink:href="#m12beeeef40" y="246.662585"/>
     <use style="fill:#b11218;stroke:#b11218;" x="353.618582" xlink:href="#m12beeeef40" y="309.747984"/>
     <use style="fill:#b11218;stroke:#b11218;" x="362.519727" xlink:href="#m12beeeef40" y="379.023269"/>
     <use style="fill:#b11218;stroke:#b11218;" x="371.420871" xlink:href="#m12beeeef40" y="436.698926"/>
     <use style="fill:#b11218;stroke:#b11218;" x="380.322015" xlink:href="#m12beeeef40" y="468.030411"/>
     <use style="fill:#b11218;stroke:#b11218;" x="389.22316" xlink:href="#m12beeeef40" y="467.566351"/>
     <use style="fill:#b11218;stroke:#b11218;" x="398.124304" xlink:href="#m12beeeef40" y="441.725103"/>
     <use style="fill:#b11218;stroke:#b11218;" x="407.025448" xlink:href="#m12beeeef40" y="406.178569"/>
     <use style="fill:#b11218;stroke:#b11218;" x="415.926592" xlink:href="#m12beeeef40" y="379.033005"/>
     <use style="fill:#b11218;stroke:#b11218;" x="424.827737" xlink:href="#m12beeeef40" y="372.940492"/>
     <use style="fill:#b11218;stroke:#b11218;" x="433.728881" xlink:href="#m12beeeef40" y="389.887368"/>
     <use style="fill:#b11218;stroke:#b11218;" x="442.630025" xlink:href="#m12beeeef40" y="421.114198"/>
     <use style="fill:#b11218;stroke:#b11218;" x="451.53117" xlink:href="#m12beeeef40" y="452.06582"/>
     <use style="fill:#b11218;stroke:#b11218;" x="460.432314" xlink:href="#m12beeeef40" y="469.77313"/>
    </g>
   </g>
   <g id="line2d_28">
    <path clip-path="url(#pb99516ad09)" d="M 113.287686 429.576398 
L 122.18883 460.429038 
L 131.089975 471.21058 
L 139.991119 447.859602 
L 148.892263 398.43667 
L 157.793408 349.306671 
L 166.694552 328.826018 
L 175.595696 349.36658 
L 184.49684 399.37273 
L 193.397985 450.054781 
L 202.299129 471.653342 
L 211.200273 448.731943 
L 220.101418 385.877594 
L 229.002562 302.252776 
L 237.903706 220.224168 
L 246.804851 155.476585 
L 255.705995 113.235665 
L 264.607139 90.531515 
L 273.508284 81.356499 
L 282.409428 81.416933 
L 291.310572 90.724959 
L 300.211716 113.589458 
L 309.112861 156.006824 
L 318.014005 220.899922 
L 326.915149 302.972239 
L 335.816294 386.481816 
L 344.717438 449.066229 
L 353.618582 471.650586 
L 362.519727 449.787353 
L 371.420871 399.028852 
L 380.322015 349.148788 
L 389.22316 328.829676 
L 398.124304 349.467561 
L 407.025448 398.595033 
L 415.926592 447.904451 
L 424.827737 471.201196 
L 433.728881 460.592275 
L 442.630025 430.16051 
L 451.53117 404.967845 
L 460.432314 403.432929 
" style="fill:none;stroke:#67000d;stroke-linecap:square;"/>
    <defs>
     <path d="M 0 2.5 
C 0.663008 2.5 1.29895 2.236584 1.767767 1.767767 
C 2.236584 1.29895 2.5 0.663008 2.5 0 
C 2.5 -0.663008 2.236584 -1.29895 1.767767 -1.767767 
C 1.29895 -2.236584 0.663008 -2.5 0 -2.5 
C -0.663008 -2.5 -1.29895 -2.236584 -1.767767 -1.767767 
C -2.236584 -1.29895 -2.5 -0.663008 -2.5 0 
C -2.5 0.663008 -2.236584 1.29895 -1.767767 1.767767 
C -1.29895 2.236584 -0.663008 2.5 0 2.5 
z
" id="ma0abb5ec0d" style="stroke:#67000d;"/>
    </defs>
    <g clip-path="url(#pb99516ad09)">
     <use style="fill:#67000d;stroke:#67000d;" x="113.287686" xlink:href="#ma0abb5ec0d" y="429.576398"/>
     <use style="fill:#67000d;stroke:#67000d;" x="122.18883" xlink:href="#ma0abb5ec0d" y="460.429038"/>
     <use style="fill:#67000d;stroke:#67000d;" x="131.089975" xlink:href="#ma0abb5ec0d" y="471.21058"/>
     <use style="fill:#67000d;stroke:#67000d;" x="139.991119" xlink:href="#ma0abb5ec0d" y="447.859602"/>
     <use style="fill:#67000d;stroke:#67000d;" x="148.892263" xlink:href="#ma0abb5ec0d" y="398.43667"/>
     <use style="fill:#67000d;stroke:#67000d;" x="157.793408" xlink:href="#ma0abb5ec0d" y="349.306671"/>
     <use style="fill:#67000d;stroke:#67000d;" x="166.694552" xlink:href="#ma0abb5ec0d" y="328.826018"/>
     <use style="fill:#67000d;stroke:#67000d;" x="175.595696" xlink:href="#ma0abb5ec0d" y="349.36658"/>
     <use style="fill:#67000d;stroke:#67000d;" x="184.49684" xlink:href="#ma0abb5ec0d" y="399.37273"/>
     <use style="fill:#67000d;stroke:#67000d;" x="193.397985" xlink:href="#ma0abb5ec0d" y="450.054781"/>
     <use style="fill:#67000d;stroke:#67000d;" x="202.299129" xlink:href="#ma0abb5ec0d" y="471.653342"/>
     <use style="fill:#67000d;stroke:#67000d;" x="211.200273" xlink:href="#ma0abb5ec0d" y="448.731943"/>
     <use style="fill:#67000d;stroke:#67000d;" x="220.101418" xlink:href="#ma0abb5ec0d" y="385.877594"/>
     <use style="fill:#67000d;stroke:#67000d;" x="229.002562" xlink:href="#ma0abb5ec0d" y="302.252776"/>
     <use style="fill:#67000d;stroke:#67000d;" x="237.903706" xlink:href="#ma0abb5ec0d" y="220.224168"/>
     <use style="fill:#67000d;stroke:#67000d;" x="246.804851" xlink:href="#ma0abb5ec0d" y="155.476585"/>
     <use style="fill:#67000d;stroke:#67000d;" x="255.705995" xlink:href="#ma0abb5ec0d" y="113.235665"/>
     <use style="fill:#67000d;stroke:#67000d;" x="264.607139" xlink:href="#ma0abb5ec0d" y="90.531515"/>
     <use style="fill:#67000d;stroke:#67000d;" x="273.508284" xlink:href="#ma0abb5ec0d" y="81.356499"/>
     <use style="fill:#67000d;stroke:#67000d;" x="282.409428" xlink:href="#ma0abb5ec0d" y="81.416933"/>
     <use style="fill:#67000d;stroke:#67000d;" x="291.310572" xlink:href="#ma0abb5ec0d" y="90.724959"/>
     <use style="fill:#67000d;stroke:#67000d;" x="300.211716" xlink:href="#ma0abb5ec0d" y="113.589458"/>
     <use style="fill:#67000d;stroke:#67000d;" x="309.112861" xlink:href="#ma0abb5ec0d" y="156.006824"/>
     <use style="fill:#67000d;stroke:#67000d;" x="318.014005" xlink:href="#ma0abb5ec0d" y="220.899922"/>
     <use style="fill:#67000d;stroke:#67000d;" x="326.915149" xlink:href="#ma0abb5ec0d" y="302.972239"/>
     <use style="fill:#67000d;stroke:#67000d;" x="335.816294" xlink:href="#ma0abb5ec0d" y="386.481816"/>
     <use style="fill:#67000d;stroke:#67000d;" x="344.717438" xlink:href="#ma0abb5ec0d" y="449.066229"/>
     <use style="fill:#67000d;stroke:#67000d;" x="353.618582" xlink:href="#ma0abb5ec0d" y="471.650586"/>
     <use style="fill:#67000d;stroke:#67000d;" x="362.519727" xlink:href="#ma0abb5ec0d" y="449.787353"/>
     <use style="fill:#67000d;stroke:#67000d;" x="371.420871" xlink:href="#ma0abb5ec0d" y="399.028852"/>
     <use style="fill:#67000d;stroke:#67000d;" x="380.322015" xlink:href="#ma0abb5ec0d" y="349.148788"/>
     <use style="fill:#67000d;stroke:#67000d;" x="389.22316" xlink:href="#ma0abb5ec0d" y="328.829676"/>
     <use style="fill:#67000d;stroke:#67000d;" x="398.124304" xlink:href="#ma0abb5ec0d" y="349.467561"/>
     <use style="fill:#67000d;stroke:#67000d;" x="407.025448" xlink:href="#ma0abb5ec0d" y="398.595033"/>
     <use style="fill:#67000d;stroke:#67000d;" x="415.926592" xlink:href="#ma0abb5ec0d" y="447.904451"/>
     <use style="fill:#67000d;stroke:#67000d;" x="424.827737" xlink:href="#ma0abb5ec0d" y="471.201196"/>
     <use style="fill:#67000d;stroke:#67000d;" x="433.728881" xlink:href="#ma0abb5ec0d" y="460.592275"/>
     <use style="fill:#67000d;stroke:#67000d;" x="442.630025" xlink:href="#ma0abb5ec0d" y="430.16051"/>
     <use style="fill:#67000d;stroke:#67000d;" x="451.53117" xlink:href="#ma0abb5ec0d" y="404.967845"/>
     <use style="fill:#67000d;stroke:#67000d;" x="460.432314" xlink:href="#ma0abb5ec0d" y="403.432929"/>
    </g>
   </g>
   <g id="patch_3">
    <path d="M 76.8375 512.64 
L 76.8375 40.32 
" style="fill:none;stroke:#000000;stroke-linecap:square;stroke-linejoin:miter;stroke-width:0.8;"/>
   </g>
   <g id="patch_4">
    <path d="M 496.8825 512.64 
L 496.8825 40.32 
" style="fill:none;stroke:#000000;stroke-linecap:square;stroke-linejoin:miter;stroke-width:0.8;"/>
   </g>
   <g id="patch_5">
    <path d="M 76.8375 512.64 
L 496.8825 512.64 
" style="fill:none;stroke:#000000;stroke-linecap:square;stroke-linejoin:miter;stroke-width:0.8;"/>
   </g>
   <g id="patch_6">
    <path d="M 76.8375 40.32 
L 496.8825 40.32 
" style="fill:none;stroke:#000000;stroke-linecap:square;stroke-linejoin:miter;stroke-width:0.8;"/>
   </g>
   <g id="legend_1">
    <g id="patch_7">
     <path d="M 348.55125 232.4575 
L 482.8825 232.4575 
Q 486.8825 232.4575 486.8825 228.4575 
L 486.8825 54.32 
Q 486.8825 50.32 482.8825 50.32 
L 348.55125 50.32 
Q 344.55125 50.32 344.55125 54.32 
L 344.55125 228.4575 
Q 344.55125 232.4575 348.55125 232.4575 
z
" style="fill:#ffffff;opacity:0.8;stroke:#cccccc;stroke-linejoin:miter;"/>
    </g>
    <g id="line2d_29">
     <path d="M 352.55125 66.516875 
L 392.55125 66.516875 
" style="fill:none;stroke:#fdd4c2;stroke-linecap:square;"/>
    </g>
    <g id="line2d_30">
     <g>
      <use style="fill:#fdd4c2;stroke:#fdd4c2;" x="372.55125" xlink:href="#m448ff103d2" y="66.516875"/>
     </g>
    </g>
    <g id="text_14">
     <!-- 73nm -->
     <g transform="translate(408.55125 73.516875)scale(0.2 -0.2)">
      <defs>
       <path d="M 8.203125 72.90625 
L 55.078125 72.90625 
L 55.078125 68.703125 
L 28.609375 0 
L 18.3125 0 
L 43.21875 64.59375 
L 8.203125 64.59375 
z
" id="DejaVuSans-55"/>
       <path d="M 40.578125 39.3125 
Q 47.65625 37.796875 51.625 33 
Q 55.609375 28.21875 55.609375 21.1875 
Q 55.609375 10.40625 48.1875 4.484375 
Q 40.765625 -1.421875 27.09375 -1.421875 
Q 22.515625 -1.421875 17.65625 -0.515625 
Q 12.796875 0.390625 7.625 2.203125 
L 7.625 11.71875 
Q 11.71875 9.328125 16.59375 8.109375 
Q 21.484375 6.890625 26.8125 6.890625 
Q 36.078125 6.890625 40.9375 10.546875 
Q 45.796875 14.203125 45.796875 21.1875 
Q 45.796875 27.640625 41.28125 31.265625 
Q 36.765625 34.90625 28.71875 34.90625 
L 20.21875 34.90625 
L 20.21875 43.015625 
L 29.109375 43.015625 
Q 36.375 43.015625 40.234375 45.921875 
Q 44.09375 48.828125 44.09375 54.296875 
Q 44.09375 59.90625 40.109375 62.90625 
Q 36.140625 65.921875 28.71875 65.921875 
Q 24.65625 65.921875 20.015625 65.03125 
Q 15.375 64.15625 9.8125 62.3125 
L 9.8125 71.09375 
Q 15.4375 72.65625 20.34375 73.4375 
Q 25.25 74.21875 29.59375 74.21875 
Q 40.828125 74.21875 47.359375 69.109375 
Q 53.90625 64.015625 53.90625 55.328125 
Q 53.90625 49.265625 50.4375 45.09375 
Q 46.96875 40.921875 40.578125 39.3125 
z
" id="DejaVuSans-51"/>
       <path d="M 54.890625 33.015625 
L 54.890625 0 
L 45.90625 0 
L 45.90625 32.71875 
Q 45.90625 40.484375 42.875 44.328125 
Q 39.84375 48.1875 33.796875 48.1875 
Q 26.515625 48.1875 22.3125 43.546875 
Q 18.109375 38.921875 18.109375 30.90625 
L 18.109375 0 
L 9.078125 0 
L 9.078125 54.6875 
L 18.109375 54.6875 
L 18.109375 46.1875 
Q 21.34375 51.125 25.703125 53.5625 
Q 30.078125 56 35.796875 56 
Q 45.21875 56 50.046875 50.171875 
Q 54.890625 44.34375 54.890625 33.015625 
z
" id="DejaVuSans-110"/>
       <path d="M 52 44.1875 
Q 55.375 50.25 60.0625 53.125 
Q 64.75 56 71.09375 56 
Q 79.640625 56 84.28125 50.015625 
Q 88.921875 44.046875 88.921875 33.015625 
L 88.921875 0 
L 79.890625 0 
L 79.890625 32.71875 
Q 79.890625 40.578125 77.09375 44.375 
Q 74.3125 48.1875 68.609375 48.1875 
Q 61.625 48.1875 57.5625 43.546875 
Q 53.515625 38.921875 53.515625 30.90625 
L 53.515625 0 
L 44.484375 0 
L 44.484375 32.71875 
Q 44.484375 40.625 41.703125 44.40625 
Q 38.921875 48.1875 33.109375 48.1875 
Q 26.21875 48.1875 22.15625 43.53125 
Q 18.109375 38.875 18.109375 30.90625 
L 18.109375 0 
L 9.078125 0 
L 9.078125 54.6875 
L 18.109375 54.6875 
L 18.109375 46.1875 
Q 21.1875 51.21875 25.484375 53.609375 
Q 29.78125 56 35.6875 56 
Q 41.65625 56 45.828125 52.96875 
Q 50 49.953125 52 44.1875 
z
" id="DejaVuSans-109"/>
      </defs>
      <use xlink:href="#DejaVuSans-55"/>
      <use x="63.623047" xlink:href="#DejaVuSans-51"/>
      <use x="127.246094" xlink:href="#DejaVuSans-110"/>
      <use x="190.625" xlink:href="#DejaVuSans-109"/>
     </g>
    </g>
    <g id="line2d_31">
     <path d="M 352.55125 95.873125 
L 392.55125 95.873125 
" style="fill:none;stroke:#fca082;stroke-linecap:square;"/>
    </g>
    <g id="line2d_32">
     <g>
      <use style="fill:#fca082;stroke:#fca082;" x="372.55125" xlink:href="#m5053f69700" y="95.873125"/>
     </g>
    </g>
    <g id="text_15">
     <!-- 145nm -->
     <g transform="translate(408.55125 102.873125)scale(0.2 -0.2)">
      <defs>
       <path d="M 10.796875 72.90625 
L 49.515625 72.90625 
L 49.515625 64.59375 
L 19.828125 64.59375 
L 19.828125 46.734375 
Q 21.96875 47.46875 24.109375 47.828125 
Q 26.265625 48.1875 28.421875 48.1875 
Q 40.625 48.1875 47.75 41.5 
Q 54.890625 34.8125 54.890625 23.390625 
Q 54.890625 11.625 47.5625 5.09375 
Q 40.234375 -1.421875 26.90625 -1.421875 
Q 22.3125 -1.421875 17.546875 -0.640625 
Q 12.796875 0.140625 7.71875 1.703125 
L 7.71875 11.625 
Q 12.109375 9.234375 16.796875 8.0625 
Q 21.484375 6.890625 26.703125 6.890625 
Q 35.15625 6.890625 40.078125 11.328125 
Q 45.015625 15.765625 45.015625 23.390625 
Q 45.015625 31 40.078125 35.4375 
Q 35.15625 39.890625 26.703125 39.890625 
Q 22.75 39.890625 18.8125 39.015625 
Q 14.890625 38.140625 10.796875 36.28125 
z
" id="DejaVuSans-53"/>
      </defs>
      <use xlink:href="#DejaVuSans-49"/>
      <use x="63.623047" xlink:href="#DejaVuSans-52"/>
      <use x="127.246094" xlink:href="#DejaVuSans-53"/>
      <use x="190.869141" xlink:href="#DejaVuSans-110"/>
      <use x="254.248047" xlink:href="#DejaVuSans-109"/>
     </g>
    </g>
    <g id="line2d_33">
     <path d="M 352.55125 125.229375 
L 392.55125 125.229375 
" style="fill:none;stroke:#fb694a;stroke-linecap:square;"/>
    </g>
    <g id="line2d_34">
     <g>
      <use style="fill:#fb694a;stroke:#fb694a;" x="372.55125" xlink:href="#m529b4bc97b" y="125.229375"/>
     </g>
    </g>
    <g id="text_16">
     <!-- 219nm -->
     <g transform="translate(408.55125 132.229375)scale(0.2 -0.2)">
      <defs>
       <path d="M 10.984375 1.515625 
L 10.984375 10.5 
Q 14.703125 8.734375 18.5 7.8125 
Q 22.3125 6.890625 25.984375 6.890625 
Q 35.75 6.890625 40.890625 13.453125 
Q 46.046875 20.015625 46.78125 33.40625 
Q 43.953125 29.203125 39.59375 26.953125 
Q 35.25 24.703125 29.984375 24.703125 
Q 19.046875 24.703125 12.671875 31.3125 
Q 6.296875 37.9375 6.296875 49.421875 
Q 6.296875 60.640625 12.9375 67.421875 
Q 19.578125 74.21875 30.609375 74.21875 
Q 43.265625 74.21875 49.921875 64.515625 
Q 56.59375 54.828125 56.59375 36.375 
Q 56.59375 19.140625 48.40625 8.859375 
Q 40.234375 -1.421875 26.421875 -1.421875 
Q 22.703125 -1.421875 18.890625 -0.6875 
Q 15.09375 0.046875 10.984375 1.515625 
z
M 30.609375 32.421875 
Q 37.25 32.421875 41.125 36.953125 
Q 45.015625 41.5 45.015625 49.421875 
Q 45.015625 57.28125 41.125 61.84375 
Q 37.25 66.40625 30.609375 66.40625 
Q 23.96875 66.40625 20.09375 61.84375 
Q 16.21875 57.28125 16.21875 49.421875 
Q 16.21875 41.5 20.09375 36.953125 
Q 23.96875 32.421875 30.609375 32.421875 
z
" id="DejaVuSans-57"/>
      </defs>
      <use xlink:href="#DejaVuSans-50"/>
      <use x="63.623047" xlink:href="#DejaVuSans-49"/>
      <use x="127.246094" xlink:href="#DejaVuSans-57"/>
      <use x="190.869141" xlink:href="#DejaVuSans-110"/>
      <use x="254.248047" xlink:href="#DejaVuSans-109"/>
     </g>
    </g>
    <g id="line2d_35">
     <path d="M 352.55125 154.585625 
L 392.55125 154.585625 
" style="fill:none;stroke:#e32f27;stroke-linecap:square;"/>
    </g>
    <g id="line2d_36">
     <g>
      <use style="fill:#e32f27;stroke:#e32f27;" x="372.55125" xlink:href="#me6a507eec0" y="154.585625"/>
     </g>
    </g>
    <g id="text_17">
     <!-- 292nm -->
     <g transform="translate(408.55125 161.585625)scale(0.2 -0.2)">
      <use xlink:href="#DejaVuSans-50"/>
      <use x="63.623047" xlink:href="#DejaVuSans-57"/>
      <use x="127.246094" xlink:href="#DejaVuSans-50"/>
      <use x="190.869141" xlink:href="#DejaVuSans-110"/>
      <use x="254.248047" xlink:href="#DejaVuSans-109"/>
     </g>
    </g>
    <g id="line2d_37">
     <path d="M 352.55125 183.941875 
L 392.55125 183.941875 
" style="fill:none;stroke:#b11218;stroke-linecap:square;"/>
    </g>
    <g id="line2d_38">
     <g>
      <use style="fill:#b11218;stroke:#b11218;" x="372.55125" xlink:href="#m12beeeef40" y="183.941875"/>
     </g>
    </g>
    <g id="text_18">
     <!-- 365nm -->
     <g transform="translate(408.55125 190.941875)scale(0.2 -0.2)">
      <use xlink:href="#DejaVuSans-51"/>
      <use x="63.623047" xlink:href="#DejaVuSans-54"/>
      <use x="127.246094" xlink:href="#DejaVuSans-53"/>
      <use x="190.869141" xlink:href="#DejaVuSans-110"/>
      <use x="254.248047" xlink:href="#DejaVuSans-109"/>
     </g>
    </g>
    <g id="line2d_39">
     <path d="M 352.55125 213.298125 
L 392.55125 213.298125 
" style="fill:none;stroke:#67000d;stroke-linecap:square;"/>
    </g>
    <g id="line2d_40">
     <g>
      <use style="fill:#67000d;stroke:#67000d;" x="372.55125" xlink:href="#ma0abb5ec0d" y="213.298125"/>
     </g>
    </g>
    <g id="text_19">
     <!-- 438nm -->
     <g transform="translate(408.55125 220.298125)scale(0.2 -0.2)">
      <use xlink:href="#DejaVuSans-52"/>
      <use x="63.623047" xlink:href="#DejaVuSans-51"/>
      <use x="127.246094" xlink:href="#DejaVuSans-56"/>
      <use x="190.869141" xlink:href="#DejaVuSans-110"/>
      <use x="254.248047" xlink:href="#DejaVuSans-109"/>
     </g>
    </g>
   </g>
  </g>
 </g>
 <defs>
  <clipPath id="pb99516ad09">
   <rect height="472.32" width="420.045" x="76.8375" y="40.32"/>
  </clipPath>
 </defs>
</svg>
