<?xml version="1.0" encoding="utf-8" standalone="no"?>
<!DOCTYPE svg PUBLIC "-//W3C//DTD SVG 1.1//EN"
  "http://www.w3.org/Graphics/SVG/1.1/DTD/svg11.dtd">
<!-- Created with matplotlib (https://matplotlib.org/) -->
<svg height="576pt" version="1.1" viewBox="0 0 512.25 576" width="512.25pt" xmlns="http://www.w3.org/2000/svg" xmlns:xlink="http://www.w3.org/1999/xlink">
 <metadata>
  <rdf:RDF xmlns:cc="http://creativecommons.org/ns#" xmlns:dc="http://purl.org/dc/elements/1.1/" xmlns:rdf="http://www.w3.org/1999/02/22-rdf-syntax-ns#">
   <cc:Work>
    <dc:type rdf:resource="http://purl.org/dc/dcmitype/StillImage"/>
    <dc:date>2020-09-04T12:22:23.830331</dc:date>
    <dc:format>image/svg+xml</dc:format>
    <dc:creator>
     <cc:Agent>
      <dc:title>Matplotlib v3.3.1, https://matplotlib.org/</dc:title>
     </cc:Agent>
    </dc:creator>
   </cc:Work>
  </rdf:RDF>
 </metadata>
 <defs>
  <style type="text/css">*{stroke-linecap:butt;stroke-linejoin:round;}</style>
 </defs>
 <g id="figure_1">
  <g id="patch_1">
   <path d="M 0 576 
L 512.25 576 
L 512.25 0 
L 0 0 
z
" style="fill:#ffffff;"/>
  </g>
  <g id="axes_1">
   <g id="patch_2">
    <path d="M 76.8375 512.64 
L 496.8825 512.64 
L 496.8825 40.32 
L 76.8375 40.32 
z
" style="fill:#ffffff;"/>
   </g>
   <g id="matplotlib.axis_1">
    <g id="xtick_1">
     <g id="line2d_1">
      <path clip-path="url(#p15b3c6e529)" d="M 129.003744 512.64 
L 129.003744 40.32 
" style="fill:none;stroke:#e6e6e6;stroke-linecap:square;stroke-width:0.8;"/>
     </g>
     <g id="line2d_2">
      <defs>
       <path d="M 0 0 
L 0 -3.5 
" id="m1500d6978a" style="stroke:#000000;stroke-width:0.8;"/>
      </defs>
      <g>
       <use style="stroke:#000000;stroke-width:0.8;" x="129.003744" xlink:href="#m1500d6978a" y="512.64"/>
      </g>
     </g>
     <g id="text_1">
      <!-- 0 -->
      <g transform="translate(124.231869 527.537656)scale(0.15 -0.15)">
       <defs>
        <path d="M 31.78125 66.40625 
Q 24.171875 66.40625 20.328125 58.90625 
Q 16.5 51.421875 16.5 36.375 
Q 16.5 21.390625 20.328125 13.890625 
Q 24.171875 6.390625 31.78125 6.390625 
Q 39.453125 6.390625 43.28125 13.890625 
Q 47.125 21.390625 47.125 36.375 
Q 47.125 51.421875 43.28125 58.90625 
Q 39.453125 66.40625 31.78125 66.40625 
z
M 31.78125 74.21875 
Q 44.046875 74.21875 50.515625 64.515625 
Q 56.984375 54.828125 56.984375 36.375 
Q 56.984375 17.96875 50.515625 8.265625 
Q 44.046875 -1.421875 31.78125 -1.421875 
Q 19.53125 -1.421875 13.0625 8.265625 
Q 6.59375 17.96875 6.59375 36.375 
Q 6.59375 54.828125 13.0625 64.515625 
Q 19.53125 74.21875 31.78125 74.21875 
z
" id="DejaVuSans-48"/>
       </defs>
       <use xlink:href="#DejaVuSans-48"/>
      </g>
     </g>
    </g>
    <g id="xtick_2">
     <g id="line2d_3">
      <path clip-path="url(#p15b3c6e529)" d="M 191.93357 512.64 
L 191.93357 40.32 
" style="fill:none;stroke:#e6e6e6;stroke-linecap:square;stroke-width:0.8;"/>
     </g>
     <g id="line2d_4">
      <g>
       <use style="stroke:#000000;stroke-width:0.8;" x="191.93357" xlink:href="#m1500d6978a" y="512.64"/>
      </g>
     </g>
     <g id="text_2">
      <!-- 1000 -->
      <g transform="translate(172.84607 527.537656)scale(0.15 -0.15)">
       <defs>
        <path d="M 12.40625 8.296875 
L 28.515625 8.296875 
L 28.515625 63.921875 
L 10.984375 60.40625 
L 10.984375 69.390625 
L 28.421875 72.90625 
L 38.28125 72.90625 
L 38.28125 8.296875 
L 54.390625 8.296875 
L 54.390625 0 
L 12.40625 0 
z
" id="DejaVuSans-49"/>
       </defs>
       <use xlink:href="#DejaVuSans-49"/>
       <use x="63.623047" xlink:href="#DejaVuSans-48"/>
       <use x="127.246094" xlink:href="#DejaVuSans-48"/>
       <use x="190.869141" xlink:href="#DejaVuSans-48"/>
      </g>
     </g>
    </g>
    <g id="xtick_3">
     <g id="line2d_5">
      <path clip-path="url(#p15b3c6e529)" d="M 254.863396 512.64 
L 254.863396 40.32 
" style="fill:none;stroke:#e6e6e6;stroke-linecap:square;stroke-width:0.8;"/>
     </g>
     <g id="line2d_6">
      <g>
       <use style="stroke:#000000;stroke-width:0.8;" x="254.863396" xlink:href="#m1500d6978a" y="512.64"/>
      </g>
     </g>
     <g id="text_3">
      <!-- 2000 -->
      <g transform="translate(235.775896 527.537656)scale(0.15 -0.15)">
       <defs>
        <path d="M 19.1875 8.296875 
L 53.609375 8.296875 
L 53.609375 0 
L 7.328125 0 
L 7.328125 8.296875 
Q 12.9375 14.109375 22.625 23.890625 
Q 32.328125 33.6875 34.8125 36.53125 
Q 39.546875 41.84375 41.421875 45.53125 
Q 43.3125 49.21875 43.3125 52.78125 
Q 43.3125 58.59375 39.234375 62.25 
Q 35.15625 65.921875 28.609375 65.921875 
Q 23.96875 65.921875 18.8125 64.3125 
Q 13.671875 62.703125 7.8125 59.421875 
L 7.8125 69.390625 
Q 13.765625 71.78125 18.9375 73 
Q 24.125 74.21875 28.421875 74.21875 
Q 39.75 74.21875 46.484375 68.546875 
Q 53.21875 62.890625 53.21875 53.421875 
Q 53.21875 48.921875 51.53125 44.890625 
Q 49.859375 40.875 45.40625 35.40625 
Q 44.1875 33.984375 37.640625 27.21875 
Q 31.109375 20.453125 19.1875 8.296875 
z
" id="DejaVuSans-50"/>
       </defs>
       <use xlink:href="#DejaVuSans-50"/>
       <use x="63.623047" xlink:href="#DejaVuSans-48"/>
       <use x="127.246094" xlink:href="#DejaVuSans-48"/>
       <use x="190.869141" xlink:href="#DejaVuSans-48"/>
      </g>
     </g>
    </g>
    <g id="xtick_4">
     <g id="line2d_7">
      <path clip-path="url(#p15b3c6e529)" d="M 317.793222 512.64 
L 317.793222 40.32 
" style="fill:none;stroke:#e6e6e6;stroke-linecap:square;stroke-width:0.8;"/>
     </g>
     <g id="line2d_8">
      <g>
       <use style="stroke:#000000;stroke-width:0.8;" x="317.793222" xlink:href="#m1500d6978a" y="512.64"/>
      </g>
     </g>
     <g id="text_4">
      <!-- 3000 -->
      <g transform="translate(298.705722 527.537656)scale(0.15 -0.15)">
       <defs>
        <path d="M 40.578125 39.3125 
Q 47.65625 37.796875 51.625 33 
Q 55.609375 28.21875 55.609375 21.1875 
Q 55.609375 10.40625 48.1875 4.484375 
Q 40.765625 -1.421875 27.09375 -1.421875 
Q 22.515625 -1.421875 17.65625 -0.515625 
Q 12.796875 0.390625 7.625 2.203125 
L 7.625 11.71875 
Q 11.71875 9.328125 16.59375 8.109375 
Q 21.484375 6.890625 26.8125 6.890625 
Q 36.078125 6.890625 40.9375 10.546875 
Q 45.796875 14.203125 45.796875 21.1875 
Q 45.796875 27.640625 41.28125 31.265625 
Q 36.765625 34.90625 28.71875 34.90625 
L 20.21875 34.90625 
L 20.21875 43.015625 
L 29.109375 43.015625 
Q 36.375 43.015625 40.234375 45.921875 
Q 44.09375 48.828125 44.09375 54.296875 
Q 44.09375 59.90625 40.109375 62.90625 
Q 36.140625 65.921875 28.71875 65.921875 
Q 24.65625 65.921875 20.015625 65.03125 
Q 15.375 64.15625 9.8125 62.3125 
L 9.8125 71.09375 
Q 15.4375 72.65625 20.34375 73.4375 
Q 25.25 74.21875 29.59375 74.21875 
Q 40.828125 74.21875 47.359375 69.109375 
Q 53.90625 64.015625 53.90625 55.328125 
Q 53.90625 49.265625 50.4375 45.09375 
Q 46.96875 40.921875 40.578125 39.3125 
z
" id="DejaVuSans-51"/>
       </defs>
       <use xlink:href="#DejaVuSans-51"/>
       <use x="63.623047" xlink:href="#DejaVuSans-48"/>
       <use x="127.246094" xlink:href="#DejaVuSans-48"/>
       <use x="190.869141" xlink:href="#DejaVuSans-48"/>
      </g>
     </g>
    </g>
    <g id="xtick_5">
     <g id="line2d_9">
      <path clip-path="url(#p15b3c6e529)" d="M 380.723048 512.64 
L 380.723048 40.32 
" style="fill:none;stroke:#e6e6e6;stroke-linecap:square;stroke-width:0.8;"/>
     </g>
     <g id="line2d_10">
      <g>
       <use style="stroke:#000000;stroke-width:0.8;" x="380.723048" xlink:href="#m1500d6978a" y="512.64"/>
      </g>
     </g>
     <g id="text_5">
      <!-- 4000 -->
      <g transform="translate(361.635548 527.537656)scale(0.15 -0.15)">
       <defs>
        <path d="M 37.796875 64.3125 
L 12.890625 25.390625 
L 37.796875 25.390625 
z
M 35.203125 72.90625 
L 47.609375 72.90625 
L 47.609375 25.390625 
L 58.015625 25.390625 
L 58.015625 17.1875 
L 47.609375 17.1875 
L 47.609375 0 
L 37.796875 0 
L 37.796875 17.1875 
L 4.890625 17.1875 
L 4.890625 26.703125 
z
" id="DejaVuSans-52"/>
       </defs>
       <use xlink:href="#DejaVuSans-52"/>
       <use x="63.623047" xlink:href="#DejaVuSans-48"/>
       <use x="127.246094" xlink:href="#DejaVuSans-48"/>
       <use x="190.869141" xlink:href="#DejaVuSans-48"/>
      </g>
     </g>
    </g>
    <g id="xtick_6">
     <g id="line2d_11">
      <path clip-path="url(#p15b3c6e529)" d="M 443.652874 512.64 
L 443.652874 40.32 
" style="fill:none;stroke:#e6e6e6;stroke-linecap:square;stroke-width:0.8;"/>
     </g>
     <g id="line2d_12">
      <g>
       <use style="stroke:#000000;stroke-width:0.8;" x="443.652874" xlink:href="#m1500d6978a" y="512.64"/>
      </g>
     </g>
     <g id="text_6">
      <!-- 5000 -->
      <g transform="translate(424.565374 527.537656)scale(0.15 -0.15)">
       <defs>
        <path d="M 10.796875 72.90625 
L 49.515625 72.90625 
L 49.515625 64.59375 
L 19.828125 64.59375 
L 19.828125 46.734375 
Q 21.96875 47.46875 24.109375 47.828125 
Q 26.265625 48.1875 28.421875 48.1875 
Q 40.625 48.1875 47.75 41.5 
Q 54.890625 34.8125 54.890625 23.390625 
Q 54.890625 11.625 47.5625 5.09375 
Q 40.234375 -1.421875 26.90625 -1.421875 
Q 22.3125 -1.421875 17.546875 -0.640625 
Q 12.796875 0.140625 7.71875 1.703125 
L 7.71875 11.625 
Q 12.109375 9.234375 16.796875 8.0625 
Q 21.484375 6.890625 26.703125 6.890625 
Q 35.15625 6.890625 40.078125 11.328125 
Q 45.015625 15.765625 45.015625 23.390625 
Q 45.015625 31 40.078125 35.4375 
Q 35.15625 39.890625 26.703125 39.890625 
Q 22.75 39.890625 18.8125 39.015625 
Q 14.890625 38.140625 10.796875 36.28125 
z
" id="DejaVuSans-53"/>
       </defs>
       <use xlink:href="#DejaVuSans-53"/>
       <use x="63.623047" xlink:href="#DejaVuSans-48"/>
       <use x="127.246094" xlink:href="#DejaVuSans-48"/>
       <use x="190.869141" xlink:href="#DejaVuSans-48"/>
      </g>
     </g>
    </g>
   </g>
   <g id="matplotlib.axis_2">
    <g id="ytick_1">
     <g id="line2d_13">
      <path clip-path="url(#p15b3c6e529)" d="M 76.8375 453.910505 
L 496.8825 453.910505 
" style="fill:none;stroke:#e6e6e6;stroke-linecap:square;stroke-width:0.8;"/>
     </g>
     <g id="line2d_14">
      <defs>
       <path d="M 0 0 
L 3.5 0 
" id="maf15f5bc20" style="stroke:#000000;stroke-width:0.8;"/>
      </defs>
      <g>
       <use style="stroke:#000000;stroke-width:0.8;" x="76.8375" xlink:href="#maf15f5bc20" y="453.910505"/>
      </g>
     </g>
     <g id="text_7">
      <!-- 0.0 -->
      <g transform="translate(49.482812 459.609333)scale(0.15 -0.15)">
       <defs>
        <path d="M 10.6875 12.40625 
L 21 12.40625 
L 21 0 
L 10.6875 0 
z
" id="DejaVuSans-46"/>
       </defs>
       <use xlink:href="#DejaVuSans-48"/>
       <use x="63.623047" xlink:href="#DejaVuSans-46"/>
       <use x="95.410156" xlink:href="#DejaVuSans-48"/>
      </g>
     </g>
    </g>
    <g id="ytick_2">
     <g id="line2d_15">
      <path clip-path="url(#p15b3c6e529)" d="M 76.8375 382.936981 
L 496.8825 382.936981 
" style="fill:none;stroke:#e6e6e6;stroke-linecap:square;stroke-width:0.8;"/>
     </g>
     <g id="line2d_16">
      <g>
       <use style="stroke:#000000;stroke-width:0.8;" x="76.8375" xlink:href="#maf15f5bc20" y="382.936981"/>
      </g>
     </g>
     <g id="text_8">
      <!-- 0.2 -->
      <g transform="translate(49.482812 388.635809)scale(0.15 -0.15)">
       <use xlink:href="#DejaVuSans-48"/>
       <use x="63.623047" xlink:href="#DejaVuSans-46"/>
       <use x="95.410156" xlink:href="#DejaVuSans-50"/>
      </g>
     </g>
    </g>
    <g id="ytick_3">
     <g id="line2d_17">
      <path clip-path="url(#p15b3c6e529)" d="M 76.8375 311.963458 
L 496.8825 311.963458 
" style="fill:none;stroke:#e6e6e6;stroke-linecap:square;stroke-width:0.8;"/>
     </g>
     <g id="line2d_18">
      <g>
       <use style="stroke:#000000;stroke-width:0.8;" x="76.8375" xlink:href="#maf15f5bc20" y="311.963458"/>
      </g>
     </g>
     <g id="text_9">
      <!-- 0.4 -->
      <g transform="translate(49.482812 317.662286)scale(0.15 -0.15)">
       <use xlink:href="#DejaVuSans-48"/>
       <use x="63.623047" xlink:href="#DejaVuSans-46"/>
       <use x="95.410156" xlink:href="#DejaVuSans-52"/>
      </g>
     </g>
    </g>
    <g id="ytick_4">
     <g id="line2d_19">
      <path clip-path="url(#p15b3c6e529)" d="M 76.8375 240.989934 
L 496.8825 240.989934 
" style="fill:none;stroke:#e6e6e6;stroke-linecap:square;stroke-width:0.8;"/>
     </g>
     <g id="line2d_20">
      <g>
       <use style="stroke:#000000;stroke-width:0.8;" x="76.8375" xlink:href="#maf15f5bc20" y="240.989934"/>
      </g>
     </g>
     <g id="text_10">
      <!-- 0.6 -->
      <g transform="translate(49.482812 246.688762)scale(0.15 -0.15)">
       <defs>
        <path d="M 33.015625 40.375 
Q 26.375 40.375 22.484375 35.828125 
Q 18.609375 31.296875 18.609375 23.390625 
Q 18.609375 15.53125 22.484375 10.953125 
Q 26.375 6.390625 33.015625 6.390625 
Q 39.65625 6.390625 43.53125 10.953125 
Q 47.40625 15.53125 47.40625 23.390625 
Q 47.40625 31.296875 43.53125 35.828125 
Q 39.65625 40.375 33.015625 40.375 
z
M 52.59375 71.296875 
L 52.59375 62.3125 
Q 48.875 64.0625 45.09375 64.984375 
Q 41.3125 65.921875 37.59375 65.921875 
Q 27.828125 65.921875 22.671875 59.328125 
Q 17.53125 52.734375 16.796875 39.40625 
Q 19.671875 43.65625 24.015625 45.921875 
Q 28.375 48.1875 33.59375 48.1875 
Q 44.578125 48.1875 50.953125 41.515625 
Q 57.328125 34.859375 57.328125 23.390625 
Q 57.328125 12.15625 50.6875 5.359375 
Q 44.046875 -1.421875 33.015625 -1.421875 
Q 20.359375 -1.421875 13.671875 8.265625 
Q 6.984375 17.96875 6.984375 36.375 
Q 6.984375 53.65625 15.1875 63.9375 
Q 23.390625 74.21875 37.203125 74.21875 
Q 40.921875 74.21875 44.703125 73.484375 
Q 48.484375 72.75 52.59375 71.296875 
z
" id="DejaVuSans-54"/>
       </defs>
       <use xlink:href="#DejaVuSans-48"/>
       <use x="63.623047" xlink:href="#DejaVuSans-46"/>
       <use x="95.410156" xlink:href="#DejaVuSans-54"/>
      </g>
     </g>
    </g>
    <g id="ytick_5">
     <g id="line2d_21">
      <path clip-path="url(#p15b3c6e529)" d="M 76.8375 170.016411 
L 496.8825 170.016411 
" style="fill:none;stroke:#e6e6e6;stroke-linecap:square;stroke-width:0.8;"/>
     </g>
     <g id="line2d_22">
      <g>
       <use style="stroke:#000000;stroke-width:0.8;" x="76.8375" xlink:href="#maf15f5bc20" y="170.016411"/>
      </g>
     </g>
     <g id="text_11">
      <!-- 0.8 -->
      <g transform="translate(49.482812 175.715239)scale(0.15 -0.15)">
       <defs>
        <path d="M 31.78125 34.625 
Q 24.75 34.625 20.71875 30.859375 
Q 16.703125 27.09375 16.703125 20.515625 
Q 16.703125 13.921875 20.71875 10.15625 
Q 24.75 6.390625 31.78125 6.390625 
Q 38.8125 6.390625 42.859375 10.171875 
Q 46.921875 13.96875 46.921875 20.515625 
Q 46.921875 27.09375 42.890625 30.859375 
Q 38.875 34.625 31.78125 34.625 
z
M 21.921875 38.8125 
Q 15.578125 40.375 12.03125 44.71875 
Q 8.5 49.078125 8.5 55.328125 
Q 8.5 64.0625 14.71875 69.140625 
Q 20.953125 74.21875 31.78125 74.21875 
Q 42.671875 74.21875 48.875 69.140625 
Q 55.078125 64.0625 55.078125 55.328125 
Q 55.078125 49.078125 51.53125 44.71875 
Q 48 40.375 41.703125 38.8125 
Q 48.828125 37.15625 52.796875 32.3125 
Q 56.78125 27.484375 56.78125 20.515625 
Q 56.78125 9.90625 50.3125 4.234375 
Q 43.84375 -1.421875 31.78125 -1.421875 
Q 19.734375 -1.421875 13.25 4.234375 
Q 6.78125 9.90625 6.78125 20.515625 
Q 6.78125 27.484375 10.78125 32.3125 
Q 14.796875 37.15625 21.921875 38.8125 
z
M 18.3125 54.390625 
Q 18.3125 48.734375 21.84375 45.5625 
Q 25.390625 42.390625 31.78125 42.390625 
Q 38.140625 42.390625 41.71875 45.5625 
Q 45.3125 48.734375 45.3125 54.390625 
Q 45.3125 60.0625 41.71875 63.234375 
Q 38.140625 66.40625 31.78125 66.40625 
Q 25.390625 66.40625 21.84375 63.234375 
Q 18.3125 60.0625 18.3125 54.390625 
z
" id="DejaVuSans-56"/>
       </defs>
       <use xlink:href="#DejaVuSans-48"/>
       <use x="63.623047" xlink:href="#DejaVuSans-46"/>
       <use x="95.410156" xlink:href="#DejaVuSans-56"/>
      </g>
     </g>
    </g>
    <g id="ytick_6">
     <g id="line2d_23">
      <path clip-path="url(#p15b3c6e529)" d="M 76.8375 99.042887 
L 496.8825 99.042887 
" style="fill:none;stroke:#e6e6e6;stroke-linecap:square;stroke-width:0.8;"/>
     </g>
     <g id="line2d_24">
      <g>
       <use style="stroke:#000000;stroke-width:0.8;" x="76.8375" xlink:href="#maf15f5bc20" y="99.042887"/>
      </g>
     </g>
     <g id="text_12">
      <!-- 1.0 -->
      <g transform="translate(49.482812 104.741715)scale(0.15 -0.15)">
       <use xlink:href="#DejaVuSans-49"/>
       <use x="63.623047" xlink:href="#DejaVuSans-46"/>
       <use x="95.410156" xlink:href="#DejaVuSans-48"/>
      </g>
     </g>
    </g>
   </g>
   <g id="line2d_25">
    <path clip-path="url(#p15b3c6e529)" d="M 129.066987 99.049497 
L 131.596735 99.743588 
L 134.126483 101.75451 
L 136.65623 105.071027 
L 139.185978 109.664535 
L 141.715726 115.502763 
L 144.87791 124.578117 
L 148.672532 137.684608 
L 149.937406 142.553753 
L 154.364464 161.487956 
L 158.159086 180.061829 
L 160.688833 193.233086 
L 163.218581 207.022183 
L 167.013203 228.494479 
L 175.234883 277.604747 
L 179.029504 300.517156 
L 187.251184 348.054468 
L 191.045806 368.394625 
L 194.20799 384.135452 
L 197.370175 398.563365 
L 199.899923 409.126422 
L 202.429671 418.694479 
L 204.959418 427.197467 
L 207.489166 434.57062 
L 209.386477 439.345372 
L 211.283787 443.395586 
L 212.548661 445.716866 
L 214.445972 448.612377 
L 215.710846 450.110893 
L 216.97572 451.326784 
L 218.240594 452.181446 
L 219.505467 452.731969 
L 220.770341 452.936641 
L 222.035215 452.81748 
L 223.300089 452.371314 
L 224.564963 451.583425 
L 225.829837 450.489816 
L 227.094711 449.038738 
L 228.359584 447.306544 
L 230.256895 444.073917 
L 231.521769 441.509882 
L 233.41908 437.139961 
L 235.316391 432.054713 
L 237.213701 426.284949 
L 239.111012 419.949696 
L 241.64076 410.535388 
L 244.170508 400.117949 
L 247.332692 385.760316 
L 249.86244 373.373509 
L 252.392188 360.259993 
L 255.554372 343.049505 
L 258.716557 325.061577 
L 266.938237 275.969126 
L 270.732858 253.053431 
L 279.586975 201.89681 
L 281.484286 191.66882 
L 284.646471 175.391766 
L 286.543782 166.192415 
L 289.073529 154.642394 
L 291.603277 143.997906 
L 294.133025 134.342151 
L 296.662772 125.745299 
L 299.19252 118.271843 
L 301.089831 113.303038 
L 304.252015 106.905823 
L 306.149326 103.791558 
L 308.679074 100.947402 
L 311.208822 99.411684 
L 312.473695 99.334411 
L 313.106132 99.182417 
L 313.738569 99.19001 
L 316.268317 100.290625 
L 318.798065 102.699355 
L 321.327812 106.403868 
L 324.489997 112.942773 
L 327.019745 119.438687 
L 329.549492 127.105027 
L 332.711677 138.326569 
L 333.976551 143.04394 
L 337.771172 159.439579 
L 339.668483 168.208991 
L 344.095542 190.470112 
L 349.787474 222.096024 
L 359.906465 282.377101 
L 363.701086 305.216423 
L 371.290329 348.982062 
L 376.349825 375.615289 
L 380.144446 393.628946 
L 382.041757 401.94537 
L 384.571505 412.202394 
L 387.101253 421.442651 
L 389.631 429.598884 
L 391.528311 434.99354 
L 393.425622 439.682061 
L 394.690496 442.419664 
L 396.587806 445.980269 
L 398.485117 448.80036 
L 399.749991 450.28193 
L 401.014865 451.439743 
L 402.279739 452.274027 
L 403.544613 452.769979 
L 404.809487 452.950013 
L 406.07436 452.780448 
L 407.339234 452.304577 
L 408.604108 451.471163 
L 409.868982 450.342707 
L 411.133856 448.85153 
L 412.39873 447.078588 
L 413.663603 444.941447 
L 415.560914 441.205396 
L 417.458225 436.751701 
L 419.355536 431.581002 
L 421.252847 425.806916 
L 423.782594 417.12066 
L 426.312342 407.381164 
L 428.84209 396.662394 
L 432.004274 381.979494 
L 434.534022 369.355049 
L 437.06377 356.036166 
L 439.593517 342.119182 
L 442.755702 324.115941 
L 444.653013 312.91742 
L 444.653013 312.91742 
" style="fill:none;stroke:#00d4ff;stroke-linecap:square;stroke-width:2;"/>
   </g>
   <g id="line2d_26">
    <path clip-path="url(#p15b3c6e529)" d="M 129.066987 453.909316 
L 130.331861 453.713866 
L 131.596735 453.91026 
L 132.861609 453.713217 
L 134.126483 453.910494 
L 135.391356 453.71324 
L 136.65623 453.910017 
L 137.921104 453.71396 
L 139.185978 453.908831 
L 141.083289 453.786535 
L 141.715726 453.906949 
L 143.613037 453.778379 
L 144.245473 453.904375 
L 146.142784 453.77043 
L 146.775221 453.901136 
L 148.672532 453.762729 
L 149.304969 453.897246 
L 151.20228 453.755376 
L 151.834717 453.89274 
L 152.467153 453.868753 
L 153.09959 453.731627 
L 153.732027 453.748368 
L 154.364464 453.887644 
L 154.996901 453.875282 
L 155.629338 453.736616 
L 156.261775 453.741753 
L 156.894212 453.881982 
L 157.526649 453.881375 
L 158.159086 453.742126 
L 158.791523 453.735596 
L 159.42396 453.875814 
L 160.056397 453.886965 
L 160.688833 453.748082 
L 161.32127 453.729913 
L 161.953707 453.869161 
L 162.586144 453.892041 
L 163.851018 453.724808 
L 165.115892 453.896542 
L 166.380766 453.720235 
L 167.64564 453.900461 
L 168.910513 453.716282 
L 170.175387 453.903754 
L 171.440261 453.712924 
L 172.705135 453.90641 
L 173.970009 453.710243 
L 175.234883 453.908405 
L 176.499757 453.708208 
L 177.76463 453.909726 
L 179.029504 453.706865 
L 180.294378 453.910366 
L 181.559252 453.706208 
L 182.824126 453.910319 
L 184.089 453.706219 
L 185.353874 453.909586 
L 186.618747 453.706966 
L 187.883621 453.908174 
L 189.780932 453.779212 
L 190.413369 453.906088 
L 192.31068 453.770989 
L 192.943117 453.903349 
L 194.840427 453.762959 
L 195.472864 453.899965 
L 197.370175 453.755244 
L 198.002612 453.895973 
L 199.899923 453.747867 
L 200.53236 453.891392 
L 201.164797 453.868703 
L 201.797234 453.725188 
L 202.429671 453.740875 
L 203.062107 453.886256 
L 203.694544 453.875118 
L 204.326981 453.730358 
L 204.959418 453.73434 
L 205.591855 453.880601 
L 206.224292 453.881104 
L 206.856729 453.736043 
L 207.489166 453.72827 
L 208.121603 453.87445 
L 208.75404 453.886633 
L 209.386477 453.742249 
L 210.018914 453.722768 
L 210.651351 453.867875 
L 211.283787 453.891646 
L 212.548661 453.7178 
L 213.813535 453.89612 
L 215.078409 453.713449 
L 216.343283 453.900016 
L 217.608157 453.709698 
L 218.873031 453.903325 
L 220.137904 453.706636 
L 221.402778 453.906011 
L 222.667652 453.704262 
L 223.932526 453.908062 
L 225.1974 453.702574 
L 226.462274 453.909459 
L 227.727148 453.70158 
L 228.992021 453.910197 
L 230.256895 453.701278 
L 231.521769 453.91027 
L 232.786643 453.701737 
L 234.051517 453.909676 
L 235.316391 453.702888 
L 236.581264 453.908418 
L 238.478575 453.780836 
L 239.111012 453.906512 
L 241.008323 453.772985 
L 241.64076 453.903959 
L 243.538071 453.765406 
L 244.170508 453.900784 
L 246.067818 453.758132 
L 246.700255 453.897006 
L 248.597566 453.751203 
L 249.230003 453.892647 
L 249.86244 453.867397 
L 250.494877 453.72396 
L 251.127314 453.74467 
L 251.759751 453.887748 
L 252.392188 453.874064 
L 253.024625 453.729581 
L 253.657061 453.738554 
L 254.289498 453.882322 
L 254.921935 453.880294 
L 255.554372 453.735745 
L 256.186809 453.732947 
L 256.819246 453.876429 
L 257.451683 453.886024 
L 258.08412 453.742376 
L 258.716557 453.727856 
L 259.348994 453.870085 
L 259.981431 453.891237 
L 260.613868 453.74946 
L 261.246305 453.723329 
L 262.511178 453.895877 
L 263.776052 453.719363 
L 265.040926 453.899925 
L 266.3058 453.716024 
L 267.570674 453.903343 
L 268.835548 453.713304 
L 270.100421 453.906114 
L 271.365295 453.711264 
L 272.630169 453.908218 
L 273.895043 453.709882 
L 275.159917 453.90964 
L 276.424791 453.709162 
L 277.689665 453.910371 
L 278.954538 453.709153 
L 280.219412 453.910404 
L 281.484286 453.709781 
L 282.74916 453.90974 
L 284.014034 453.711151 
L 285.278908 453.908385 
L 287.176218 453.785089 
L 287.808655 453.906344 
L 289.705966 453.777356 
L 290.338403 453.903635 
L 292.235714 453.769827 
L 292.868151 453.900269 
L 294.765462 453.762605 
L 295.397898 453.896278 
L 297.295209 453.755719 
L 297.927646 453.891688 
L 298.560083 453.870634 
L 299.19252 453.732537 
L 299.824957 453.749193 
L 300.457394 453.886524 
L 301.089831 453.877183 
L 301.722268 453.73811 
L 302.354705 453.743093 
L 302.987142 453.880823 
L 303.619579 453.883246 
L 304.252015 453.744151 
L 304.884452 453.737424 
L 305.516889 453.874617 
L 306.149326 453.888788 
L 306.781763 453.750671 
L 307.4142 453.732302 
L 308.679074 453.893757 
L 309.943948 453.727687 
L 311.208822 453.898129 
L 312.473695 453.723659 
L 313.738569 453.901875 
L 315.003443 453.720201 
L 316.268317 453.904977 
L 317.533191 453.717365 
L 318.798065 453.907404 
L 320.062939 453.715194 
L 321.327812 453.909138 
L 322.592686 453.713637 
L 323.85756 453.910174 
L 325.122434 453.712779 
L 326.387308 453.910503 
L 327.652182 453.712557 
L 328.917056 453.910123 
L 330.181929 453.713054 
L 331.446803 453.909038 
L 332.711677 453.714187 
L 334.608988 453.837353 
L 335.241425 453.715992 
L 337.138736 453.845209 
L 337.771172 453.718431 
L 339.668483 453.852845 
L 340.30092 453.721524 
L 342.198231 453.860188 
L 342.830668 453.72523 
L 344.727979 453.867187 
L 345.360416 453.729512 
L 345.992852 453.748865 
L 346.625289 453.888434 
L 347.257726 453.87379 
L 347.890163 453.73434 
L 348.5226 453.74214 
L 349.155037 453.882875 
L 349.787474 453.879958 
L 350.419911 453.739698 
L 351.052348 453.735859 
L 351.684785 453.876785 
L 352.317222 453.885662 
L 352.949659 453.745556 
L 353.582096 453.730075 
L 354.214533 453.870223 
L 354.846969 453.890842 
L 356.111843 453.724799 
L 357.376717 453.895482 
L 358.641591 453.720081 
L 359.906465 453.899527 
L 361.171339 453.715942 
L 362.436213 453.902969 
L 363.701086 453.712456 
L 364.96596 453.905777 
L 366.230834 453.709605 
L 367.495708 453.907933 
L 368.760582 453.707412 
L 370.025456 453.909425 
L 371.290329 453.705898 
L 372.555203 453.910239 
L 373.820077 453.705036 
L 375.084951 453.910372 
L 376.349825 453.704933 
L 377.614699 453.909824 
L 378.879573 453.705486 
L 380.144446 453.908596 
L 382.041757 453.780689 
L 382.674194 453.906702 
L 384.571505 453.772427 
L 385.203942 453.904151 
L 387.101253 453.764408 
L 387.73369 453.900961 
L 389.631 453.756674 
L 390.263437 453.897155 
L 392.160748 453.749294 
L 392.793185 453.892762 
L 393.425622 453.866246 
L 394.058059 453.723043 
L 394.690496 453.742301 
L 395.322933 453.887813 
L 395.95537 453.872817 
L 396.587806 453.728117 
L 397.220243 453.735723 
L 397.85268 453.882333 
L 398.485117 453.878982 
L 399.117554 453.733759 
L 399.749991 453.729642 
L 400.382428 453.876364 
L 401.014865 453.884689 
L 401.647302 453.739887 
L 402.279739 453.724066 
L 402.912176 453.869939 
L 403.544613 453.889908 
L 404.17705 453.746508 
L 404.809487 453.719105 
L 406.07436 453.894588 
L 407.339234 453.714699 
L 408.604108 453.898709 
L 409.868982 453.710917 
L 411.133856 453.902239 
L 412.39873 453.707779 
L 413.663603 453.905158 
L 414.928477 453.705306 
L 416.193351 453.90744 
L 417.458225 453.703569 
L 418.723099 453.90907 
L 419.987973 453.702486 
L 421.252847 453.910041 
L 422.51772 453.70214 
L 423.782594 453.910345 
L 425.047468 453.702461 
L 426.312342 453.909977 
L 427.577216 453.703524 
L 428.84209 453.908944 
L 430.106963 453.705274 
L 432.004274 453.835154 
L 432.636711 453.707723 
L 434.534022 453.843228 
L 435.166459 453.710844 
L 437.06377 453.851073 
L 437.696207 453.714616 
L 439.593517 453.858609 
L 440.225954 453.719003 
L 442.123265 453.865799 
L 442.755702 453.723981 
L 443.388139 453.747405 
L 444.020576 453.889401 
L 444.653013 453.8726 
L 444.653013 453.8726 
" style="fill:none;stroke:#ffe600;stroke-linecap:square;stroke-width:2;"/>
   </g>
   <g id="line2d_27">
    <path clip-path="url(#p15b3c6e529)" d="M 129.066987 453.910078 
L 130.331861 453.728679 
L 131.596735 453.216457 
L 132.861609 452.376868 
L 134.126483 451.20785 
L 135.391356 449.71578 
L 136.65623 447.899272 
L 138.553541 444.596442 
L 140.450852 440.555124 
L 141.715726 437.49059 
L 143.613037 432.357986 
L 146.142784 424.474739 
L 148.672532 415.491095 
L 151.20228 405.473783 
L 154.364464 391.579065 
L 158.159086 373.174642 
L 160.688833 359.998068 
L 163.218581 346.202139 
L 166.380766 328.317564 
L 173.337572 286.927585 
L 177.76463 260.176906 
L 184.089 222.92804 
L 188.516058 198.05813 
L 193.575554 172.001707 
L 198.635049 149.080493 
L 202.429671 134.523885 
L 203.694544 129.979187 
L 206.856729 120.37063 
L 209.386477 113.890849 
L 211.283787 109.695881 
L 213.813535 105.375727 
L 216.343283 102.336273 
L 218.873031 100.600006 
L 221.402778 100.180679 
L 223.932526 101.079481 
L 226.462274 103.290435 
L 228.992021 106.795744 
L 231.521769 111.570566 
L 234.683954 119.384834 
L 237.213701 126.867063 
L 240.375886 137.881509 
L 242.273197 145.132285 
L 246.067818 161.452811 
L 247.332692 167.332304 
L 251.759751 189.392777 
L 256.819246 217.132379 
L 264.408489 261.82987 
L 273.262606 315.157157 
L 278.322102 344.303102 
L 282.116723 364.816617 
L 285.278908 380.871216 
L 287.808655 392.843748 
L 289.705966 401.260963 
L 292.235714 411.665986 
L 294.765462 421.065136 
L 297.295209 429.388248 
L 299.19252 434.919513 
L 301.089831 439.745425 
L 302.987142 443.870881 
L 304.252015 446.277584 
L 306.149326 449.246002 
L 307.4142 450.818799 
L 308.679074 452.085358 
L 309.943948 453.011808 
L 311.208822 453.619272 
L 312.473695 453.892037 
L 313.738569 453.836129 
L 315.003443 453.452624 
L 316.268317 452.734115 
L 317.533191 451.696484 
L 318.798065 450.321065 
L 320.062939 448.63638 
L 321.327812 446.614535 
L 323.225123 443.025015 
L 325.122434 438.703767 
L 326.387308 435.439315 
L 328.284619 430.041456 
L 330.814366 421.807878 
L 333.344114 412.492246 
L 336.506299 399.386753 
L 339.668483 384.855561 
L 342.198231 372.342644 
L 344.727979 359.117319 
L 347.890163 341.788812 
L 351.052348 323.718727 
L 361.803776 259.305654 
L 365.598397 236.673093 
L 373.18764 193.894845 
L 378.247136 168.30023 
L 382.674194 148.52663 
L 385.203942 138.524397 
L 387.73369 129.553496 
L 389.631 123.675559 
L 390.895874 119.881555 
L 394.058059 112.183626 
L 395.95537 108.253673 
L 398.485117 104.306812 
L 399.749991 102.98468 
L 400.382428 102.22018 
L 401.014865 101.649162 
L 402.279739 100.985661 
L 402.912176 100.548286 
L 403.544613 100.300977 
L 404.809487 100.300602 
L 405.441923 100.193902 
L 406.07436 100.273539 
L 407.339234 100.93747 
L 407.971671 101.161268 
L 408.604108 101.566771 
L 411.133856 104.171603 
L 413.663603 108.069981 
L 416.825788 114.858341 
L 419.355536 121.544405 
L 421.885283 129.39481 
L 424.415031 138.350007 
L 427.577216 151.056834 
L 429.474527 159.299895 
L 433.269148 177.316585 
L 435.798896 190.311646 
L 438.328644 203.953876 
L 441.490828 221.686907 
L 444.653013 240.212491 
L 444.653013 240.212491 
" style="fill:none;stroke:#800000;stroke-linecap:square;stroke-width:2;"/>
   </g>
   <g id="line2d_28">
    <path clip-path="url(#p15b3c6e529)" d="M 129.066987 453.910091 
L 130.331861 453.728199 
L 131.596735 453.215929 
L 132.861609 452.374234 
L 134.126483 451.204685 
L 135.391356 449.709461 
L 136.65623 447.891349 
L 137.921104 445.753737 
L 139.818415 441.957136 
L 141.715726 437.466682 
L 143.613037 432.301205 
L 145.510347 426.482363 
L 147.407658 420.034554 
L 149.937406 410.506177 
L 152.467153 399.978996 
L 154.996901 388.531462 
L 158.159086 373.058363 
L 161.32127 356.461066 
L 165.115892 335.333171 
L 170.175387 305.692399 
L 185.98631 211.604366 
L 189.780932 190.815987 
L 192.943117 174.574558 
L 196.105301 159.519256 
L 198.635049 148.447304 
L 201.164797 138.329442 
L 203.694544 129.241069 
L 205.591855 123.141437 
L 207.489166 117.684732 
L 209.386477 112.893835 
L 211.283787 108.788833 
L 213.181098 105.386939 
L 214.445972 103.516792 
L 215.710846 101.969024 
L 216.97572 100.74652 
L 218.240594 99.85156 
L 219.505467 99.28581 
L 220.770341 99.050327 
L 222.035215 99.145547 
L 223.300089 99.571295 
L 224.564963 100.326776 
L 225.829837 101.410582 
L 227.094711 102.820693 
L 228.359584 104.554482 
L 229.624458 106.608715 
L 230.889332 108.979565 
L 232.786643 113.11967 
L 234.683954 117.944724 
L 236.581264 123.434494 
L 238.478575 129.565964 
L 240.375886 136.313423 
L 242.905634 146.218985 
L 245.435381 157.095243 
L 247.965129 168.861144 
L 251.127314 184.685428 
L 254.921935 205.067797 
L 259.348994 230.334197 
L 265.040926 264.281383 
L 275.792354 328.608818 
L 280.219412 353.547043 
L 284.014034 373.545047 
L 287.176218 388.981171 
L 289.705966 400.395333 
L 292.235714 410.886038 
L 294.765462 420.37511 
L 296.662772 426.791758 
L 298.560083 432.578141 
L 300.457394 437.709998 
L 302.354705 442.165812 
L 304.252015 445.926898 
L 305.516889 448.04042 
L 306.781763 449.834165 
L 308.046637 451.30479 
L 309.311511 452.449553 
L 310.576385 453.26632 
L 311.841259 453.75357 
L 313.106132 453.910395 
L 314.371006 453.736501 
L 315.63588 453.232213 
L 316.900754 452.398471 
L 318.165628 451.236829 
L 319.430502 449.749452 
L 320.695375 447.939113 
L 321.960249 445.809185 
L 323.85756 442.023911 
L 325.754871 437.544505 
L 327.652182 432.389749 
L 329.549492 426.581257 
L 331.446803 420.143383 
L 333.976551 410.627536 
L 336.506299 400.111981 
L 339.036046 388.675082 
L 342.198231 373.213762 
L 345.360416 356.626437 
L 349.155037 335.507958 
L 354.214533 305.875164 
L 370.025456 211.776882 
L 373.820077 190.978318 
L 376.982262 174.726316 
L 380.144446 159.658674 
L 382.674194 148.575674 
L 385.203942 138.445807 
L 387.73369 129.344562 
L 389.631 123.234765 
L 391.528311 117.767503 
L 393.425622 112.965702 
L 395.322933 108.849495 
L 397.220243 105.436141 
L 398.485117 103.558237 
L 399.749991 102.002635 
L 401.014865 100.772234 
L 402.279739 99.869328 
L 403.544613 99.295601 
L 404.809487 99.05212 
L 406.07436 99.139341 
L 407.339234 99.5571 
L 408.604108 100.304619 
L 409.868982 101.380505 
L 411.133856 102.782752 
L 412.39873 104.508747 
L 413.663603 106.555272 
L 414.928477 108.918513 
L 416.825788 113.047423 
L 418.723099 117.861583 
L 420.62041 123.34081 
L 422.51772 129.462128 
L 424.415031 136.199871 
L 426.944779 146.093227 
L 429.474527 156.958214 
L 432.004274 168.713867 
L 435.166459 184.526892 
L 438.96108 204.898195 
L 443.388139 230.155287 
L 444.653013 237.591414 
L 444.653013 237.591414 
" style="fill:none;stroke:#800000;stroke-dasharray:7.4,3.2;stroke-dashoffset:0;stroke-width:2;"/>
   </g>
   <g id="patch_3">
    <path d="M 76.8375 512.64 
L 76.8375 40.32 
" style="fill:none;stroke:#000000;stroke-linecap:square;stroke-linejoin:miter;stroke-width:0.8;"/>
   </g>
   <g id="patch_4">
    <path d="M 496.8825 512.64 
L 496.8825 40.32 
" style="fill:none;stroke:#000000;stroke-linecap:square;stroke-linejoin:miter;stroke-width:0.8;"/>
   </g>
   <g id="patch_5">
    <path d="M 76.8375 512.64 
L 496.8825 512.64 
" style="fill:none;stroke:#000000;stroke-linecap:square;stroke-linejoin:miter;stroke-width:0.8;"/>
   </g>
   <g id="patch_6">
    <path d="M 76.8375 40.32 
L 496.8825 40.32 
" style="fill:none;stroke:#000000;stroke-linecap:square;stroke-linejoin:miter;stroke-width:0.8;"/>
   </g>
   <g id="legend_1">
    <g id="patch_7">
     <path d="M 383.6825 323.514375 
L 482.8825 323.514375 
Q 486.8825 323.514375 486.8825 319.514375 
L 486.8825 233.445625 
Q 486.8825 229.445625 482.8825 229.445625 
L 383.6825 229.445625 
Q 379.6825 229.445625 379.6825 233.445625 
L 379.6825 319.514375 
Q 379.6825 323.514375 383.6825 323.514375 
z
" style="fill:#ffffff;opacity:0.8;stroke:#cccccc;stroke-linejoin:miter;"/>
    </g>
    <g id="line2d_29">
     <path d="M 387.6825 245.6425 
L 427.6825 245.6425 
" style="fill:none;stroke:#00d4ff;stroke-linecap:square;stroke-width:2;"/>
    </g>
    <g id="line2d_30"/>
    <g id="text_13">
     <!-- $0_{0}$ -->
     <g transform="translate(443.6825 252.6425)scale(0.2 -0.2)">
      <use transform="translate(0 0.78125)" xlink:href="#DejaVuSans-48"/>
      <use transform="translate(64.580078 -15.625)scale(0.7)" xlink:href="#DejaVuSans-48"/>
     </g>
    </g>
    <g id="line2d_31">
     <path d="M 387.6825 274.99875 
L 427.6825 274.99875 
" style="fill:none;stroke:#ffe600;stroke-linecap:square;stroke-width:2;"/>
    </g>
    <g id="line2d_32"/>
    <g id="text_14">
     <!-- $10_{0}$ -->
     <g transform="translate(443.6825 281.99875)scale(0.2 -0.2)">
      <use transform="translate(0 0.78125)" xlink:href="#DejaVuSans-49"/>
      <use transform="translate(63.623047 0.78125)" xlink:href="#DejaVuSans-48"/>
      <use transform="translate(128.203125 -15.625)scale(0.7)" xlink:href="#DejaVuSans-48"/>
     </g>
    </g>
    <g id="line2d_33">
     <path d="M 387.6825 304.355 
L 427.6825 304.355 
" style="fill:none;stroke:#800000;stroke-linecap:square;stroke-width:2;"/>
    </g>
    <g id="line2d_34"/>
    <g id="text_15">
     <!-- $20_{0}$ -->
     <g transform="translate(443.6825 311.355)scale(0.2 -0.2)">
      <use transform="translate(0 0.78125)" xlink:href="#DejaVuSans-50"/>
      <use transform="translate(63.623047 0.78125)" xlink:href="#DejaVuSans-48"/>
      <use transform="translate(128.203125 -15.625)scale(0.7)" xlink:href="#DejaVuSans-48"/>
     </g>
    </g>
   </g>
  </g>
 </g>
 <defs>
  <clipPath id="p15b3c6e529">
   <rect height="472.32" width="420.045" x="76.8375" y="40.32"/>
  </clipPath>
 </defs>
</svg>
