<?xml version="1.0" encoding="utf-8" standalone="no"?>
<!DOCTYPE svg PUBLIC "-//W3C//DTD SVG 1.1//EN"
  "http://www.w3.org/Graphics/SVG/1.1/DTD/svg11.dtd">
<!-- Created with matplotlib (https://matplotlib.org/) -->
<svg height="576pt" version="1.1" viewBox="0 0 512.25 576" width="512.25pt" xmlns="http://www.w3.org/2000/svg" xmlns:xlink="http://www.w3.org/1999/xlink">
 <metadata>
  <rdf:RDF xmlns:cc="http://creativecommons.org/ns#" xmlns:dc="http://purl.org/dc/elements/1.1/" xmlns:rdf="http://www.w3.org/1999/02/22-rdf-syntax-ns#">
   <cc:Work>
    <dc:type rdf:resource="http://purl.org/dc/dcmitype/StillImage"/>
    <dc:date>2020-09-03T11:30:50.089931</dc:date>
    <dc:format>image/svg+xml</dc:format>
    <dc:creator>
     <cc:Agent>
      <dc:title>Matplotlib v3.3.1, https://matplotlib.org/</dc:title>
     </cc:Agent>
    </dc:creator>
   </cc:Work>
  </rdf:RDF>
 </metadata>
 <defs>
  <style type="text/css">*{stroke-linecap:butt;stroke-linejoin:round;}</style>
 </defs>
 <g id="figure_1">
  <g id="patch_1">
   <path d="M 0 576 
L 512.25 576 
L 512.25 0 
L 0 0 
z
" style="fill:#ffffff;"/>
  </g>
  <g id="axes_1">
   <g id="patch_2">
    <path d="M 76.8375 512.64 
L 496.8825 512.64 
L 496.8825 40.32 
L 76.8375 40.32 
z
" style="fill:#ffffff;"/>
   </g>
   <g id="matplotlib.axis_1">
    <g id="xtick_1">
     <g id="line2d_1">
      <path clip-path="url(#pda61c5144f)" d="M 113.114027 512.64 
L 113.114027 40.32 
" style="fill:none;stroke:#e6e6e6;stroke-linecap:square;stroke-width:0.8;"/>
     </g>
     <g id="line2d_2">
      <defs>
       <path d="M 0 0 
L 0 -3.5 
" id="m1bede18ca6" style="stroke:#000000;stroke-width:0.8;"/>
      </defs>
      <g>
       <use style="stroke:#000000;stroke-width:0.8;" x="113.114027" xlink:href="#m1bede18ca6" y="512.64"/>
      </g>
     </g>
     <g id="text_1">
      <!-- 0 -->
      <g transform="translate(108.342152 527.537656)scale(0.15 -0.15)">
       <defs>
        <path d="M 31.78125 66.40625 
Q 24.171875 66.40625 20.328125 58.90625 
Q 16.5 51.421875 16.5 36.375 
Q 16.5 21.390625 20.328125 13.890625 
Q 24.171875 6.390625 31.78125 6.390625 
Q 39.453125 6.390625 43.28125 13.890625 
Q 47.125 21.390625 47.125 36.375 
Q 47.125 51.421875 43.28125 58.90625 
Q 39.453125 66.40625 31.78125 66.40625 
z
M 31.78125 74.21875 
Q 44.046875 74.21875 50.515625 64.515625 
Q 56.984375 54.828125 56.984375 36.375 
Q 56.984375 17.96875 50.515625 8.265625 
Q 44.046875 -1.421875 31.78125 -1.421875 
Q 19.53125 -1.421875 13.0625 8.265625 
Q 6.59375 17.96875 6.59375 36.375 
Q 6.59375 54.828125 13.0625 64.515625 
Q 19.53125 74.21875 31.78125 74.21875 
z
" id="DejaVuSans-48"/>
       </defs>
       <use xlink:href="#DejaVuSans-48"/>
      </g>
     </g>
    </g>
    <g id="xtick_2">
     <g id="line2d_3">
      <path clip-path="url(#pda61c5144f)" d="M 199.51268 512.64 
L 199.51268 40.32 
" style="fill:none;stroke:#e6e6e6;stroke-linecap:square;stroke-width:0.8;"/>
     </g>
     <g id="line2d_4">
      <g>
       <use style="stroke:#000000;stroke-width:0.8;" x="199.51268" xlink:href="#m1bede18ca6" y="512.64"/>
      </g>
     </g>
     <g id="text_2">
      <!-- 500 -->
      <g transform="translate(185.197055 527.537656)scale(0.15 -0.15)">
       <defs>
        <path d="M 10.796875 72.90625 
L 49.515625 72.90625 
L 49.515625 64.59375 
L 19.828125 64.59375 
L 19.828125 46.734375 
Q 21.96875 47.46875 24.109375 47.828125 
Q 26.265625 48.1875 28.421875 48.1875 
Q 40.625 48.1875 47.75 41.5 
Q 54.890625 34.8125 54.890625 23.390625 
Q 54.890625 11.625 47.5625 5.09375 
Q 40.234375 -1.421875 26.90625 -1.421875 
Q 22.3125 -1.421875 17.546875 -0.640625 
Q 12.796875 0.140625 7.71875 1.703125 
L 7.71875 11.625 
Q 12.109375 9.234375 16.796875 8.0625 
Q 21.484375 6.890625 26.703125 6.890625 
Q 35.15625 6.890625 40.078125 11.328125 
Q 45.015625 15.765625 45.015625 23.390625 
Q 45.015625 31 40.078125 35.4375 
Q 35.15625 39.890625 26.703125 39.890625 
Q 22.75 39.890625 18.8125 39.015625 
Q 14.890625 38.140625 10.796875 36.28125 
z
" id="DejaVuSans-53"/>
       </defs>
       <use xlink:href="#DejaVuSans-53"/>
       <use x="63.623047" xlink:href="#DejaVuSans-48"/>
       <use x="127.246094" xlink:href="#DejaVuSans-48"/>
      </g>
     </g>
    </g>
    <g id="xtick_3">
     <g id="line2d_5">
      <path clip-path="url(#pda61c5144f)" d="M 285.911333 512.64 
L 285.911333 40.32 
" style="fill:none;stroke:#e6e6e6;stroke-linecap:square;stroke-width:0.8;"/>
     </g>
     <g id="line2d_6">
      <g>
       <use style="stroke:#000000;stroke-width:0.8;" x="285.911333" xlink:href="#m1bede18ca6" y="512.64"/>
      </g>
     </g>
     <g id="text_3">
      <!-- 1000 -->
      <g transform="translate(266.823833 527.537656)scale(0.15 -0.15)">
       <defs>
        <path d="M 12.40625 8.296875 
L 28.515625 8.296875 
L 28.515625 63.921875 
L 10.984375 60.40625 
L 10.984375 69.390625 
L 28.421875 72.90625 
L 38.28125 72.90625 
L 38.28125 8.296875 
L 54.390625 8.296875 
L 54.390625 0 
L 12.40625 0 
z
" id="DejaVuSans-49"/>
       </defs>
       <use xlink:href="#DejaVuSans-49"/>
       <use x="63.623047" xlink:href="#DejaVuSans-48"/>
       <use x="127.246094" xlink:href="#DejaVuSans-48"/>
       <use x="190.869141" xlink:href="#DejaVuSans-48"/>
      </g>
     </g>
    </g>
    <g id="xtick_4">
     <g id="line2d_7">
      <path clip-path="url(#pda61c5144f)" d="M 372.309986 512.64 
L 372.309986 40.32 
" style="fill:none;stroke:#e6e6e6;stroke-linecap:square;stroke-width:0.8;"/>
     </g>
     <g id="line2d_8">
      <g>
       <use style="stroke:#000000;stroke-width:0.8;" x="372.309986" xlink:href="#m1bede18ca6" y="512.64"/>
      </g>
     </g>
     <g id="text_4">
      <!-- 1500 -->
      <g transform="translate(353.222486 527.537656)scale(0.15 -0.15)">
       <use xlink:href="#DejaVuSans-49"/>
       <use x="63.623047" xlink:href="#DejaVuSans-53"/>
       <use x="127.246094" xlink:href="#DejaVuSans-48"/>
       <use x="190.869141" xlink:href="#DejaVuSans-48"/>
      </g>
     </g>
    </g>
    <g id="xtick_5">
     <g id="line2d_9">
      <path clip-path="url(#pda61c5144f)" d="M 458.708639 512.64 
L 458.708639 40.32 
" style="fill:none;stroke:#e6e6e6;stroke-linecap:square;stroke-width:0.8;"/>
     </g>
     <g id="line2d_10">
      <g>
       <use style="stroke:#000000;stroke-width:0.8;" x="458.708639" xlink:href="#m1bede18ca6" y="512.64"/>
      </g>
     </g>
     <g id="text_5">
      <!-- 2000 -->
      <g transform="translate(439.621139 527.537656)scale(0.15 -0.15)">
       <defs>
        <path d="M 19.1875 8.296875 
L 53.609375 8.296875 
L 53.609375 0 
L 7.328125 0 
L 7.328125 8.296875 
Q 12.9375 14.109375 22.625 23.890625 
Q 32.328125 33.6875 34.8125 36.53125 
Q 39.546875 41.84375 41.421875 45.53125 
Q 43.3125 49.21875 43.3125 52.78125 
Q 43.3125 58.59375 39.234375 62.25 
Q 35.15625 65.921875 28.609375 65.921875 
Q 23.96875 65.921875 18.8125 64.3125 
Q 13.671875 62.703125 7.8125 59.421875 
L 7.8125 69.390625 
Q 13.765625 71.78125 18.9375 73 
Q 24.125 74.21875 28.421875 74.21875 
Q 39.75 74.21875 46.484375 68.546875 
Q 53.21875 62.890625 53.21875 53.421875 
Q 53.21875 48.921875 51.53125 44.890625 
Q 49.859375 40.875 45.40625 35.40625 
Q 44.1875 33.984375 37.640625 27.21875 
Q 31.109375 20.453125 19.1875 8.296875 
z
" id="DejaVuSans-50"/>
       </defs>
       <use xlink:href="#DejaVuSans-50"/>
       <use x="63.623047" xlink:href="#DejaVuSans-48"/>
       <use x="127.246094" xlink:href="#DejaVuSans-48"/>
       <use x="190.869141" xlink:href="#DejaVuSans-48"/>
      </g>
     </g>
    </g>
   </g>
   <g id="matplotlib.axis_2">
    <g id="ytick_1">
     <g id="line2d_11">
      <path clip-path="url(#pda61c5144f)" d="M 76.8375 476.481677 
L 496.8825 476.481677 
" style="fill:none;stroke:#e6e6e6;stroke-linecap:square;stroke-width:0.8;"/>
     </g>
     <g id="line2d_12">
      <defs>
       <path d="M 0 0 
L 3.5 0 
" id="m597eb191d4" style="stroke:#000000;stroke-width:0.8;"/>
      </defs>
      <g>
       <use style="stroke:#000000;stroke-width:0.8;" x="76.8375" xlink:href="#m597eb191d4" y="476.481677"/>
      </g>
     </g>
     <g id="text_6">
      <!-- −0.7 -->
      <g transform="translate(36.913281 482.180505)scale(0.15 -0.15)">
       <defs>
        <path d="M 10.59375 35.5 
L 73.1875 35.5 
L 73.1875 27.203125 
L 10.59375 27.203125 
z
" id="DejaVuSans-8722"/>
        <path d="M 10.6875 12.40625 
L 21 12.40625 
L 21 0 
L 10.6875 0 
z
" id="DejaVuSans-46"/>
        <path d="M 8.203125 72.90625 
L 55.078125 72.90625 
L 55.078125 68.703125 
L 28.609375 0 
L 18.3125 0 
L 43.21875 64.59375 
L 8.203125 64.59375 
z
" id="DejaVuSans-55"/>
       </defs>
       <use xlink:href="#DejaVuSans-8722"/>
       <use x="83.789062" xlink:href="#DejaVuSans-48"/>
       <use x="147.412109" xlink:href="#DejaVuSans-46"/>
       <use x="179.199219" xlink:href="#DejaVuSans-55"/>
      </g>
     </g>
    </g>
    <g id="ytick_2">
     <g id="line2d_13">
      <path clip-path="url(#pda61c5144f)" d="M 76.8375 420.028073 
L 496.8825 420.028073 
" style="fill:none;stroke:#e6e6e6;stroke-linecap:square;stroke-width:0.8;"/>
     </g>
     <g id="line2d_14">
      <g>
       <use style="stroke:#000000;stroke-width:0.8;" x="76.8375" xlink:href="#m597eb191d4" y="420.028073"/>
      </g>
     </g>
     <g id="text_7">
      <!-- −0.6 -->
      <g transform="translate(36.913281 425.726901)scale(0.15 -0.15)">
       <defs>
        <path d="M 33.015625 40.375 
Q 26.375 40.375 22.484375 35.828125 
Q 18.609375 31.296875 18.609375 23.390625 
Q 18.609375 15.53125 22.484375 10.953125 
Q 26.375 6.390625 33.015625 6.390625 
Q 39.65625 6.390625 43.53125 10.953125 
Q 47.40625 15.53125 47.40625 23.390625 
Q 47.40625 31.296875 43.53125 35.828125 
Q 39.65625 40.375 33.015625 40.375 
z
M 52.59375 71.296875 
L 52.59375 62.3125 
Q 48.875 64.0625 45.09375 64.984375 
Q 41.3125 65.921875 37.59375 65.921875 
Q 27.828125 65.921875 22.671875 59.328125 
Q 17.53125 52.734375 16.796875 39.40625 
Q 19.671875 43.65625 24.015625 45.921875 
Q 28.375 48.1875 33.59375 48.1875 
Q 44.578125 48.1875 50.953125 41.515625 
Q 57.328125 34.859375 57.328125 23.390625 
Q 57.328125 12.15625 50.6875 5.359375 
Q 44.046875 -1.421875 33.015625 -1.421875 
Q 20.359375 -1.421875 13.671875 8.265625 
Q 6.984375 17.96875 6.984375 36.375 
Q 6.984375 53.65625 15.1875 63.9375 
Q 23.390625 74.21875 37.203125 74.21875 
Q 40.921875 74.21875 44.703125 73.484375 
Q 48.484375 72.75 52.59375 71.296875 
z
" id="DejaVuSans-54"/>
       </defs>
       <use xlink:href="#DejaVuSans-8722"/>
       <use x="83.789062" xlink:href="#DejaVuSans-48"/>
       <use x="147.412109" xlink:href="#DejaVuSans-46"/>
       <use x="179.199219" xlink:href="#DejaVuSans-54"/>
      </g>
     </g>
    </g>
    <g id="ytick_3">
     <g id="line2d_15">
      <path clip-path="url(#pda61c5144f)" d="M 76.8375 363.574468 
L 496.8825 363.574468 
" style="fill:none;stroke:#e6e6e6;stroke-linecap:square;stroke-width:0.8;"/>
     </g>
     <g id="line2d_16">
      <g>
       <use style="stroke:#000000;stroke-width:0.8;" x="76.8375" xlink:href="#m597eb191d4" y="363.574468"/>
      </g>
     </g>
     <g id="text_8">
      <!-- −0.5 -->
      <g transform="translate(36.913281 369.273296)scale(0.15 -0.15)">
       <use xlink:href="#DejaVuSans-8722"/>
       <use x="83.789062" xlink:href="#DejaVuSans-48"/>
       <use x="147.412109" xlink:href="#DejaVuSans-46"/>
       <use x="179.199219" xlink:href="#DejaVuSans-53"/>
      </g>
     </g>
    </g>
    <g id="ytick_4">
     <g id="line2d_17">
      <path clip-path="url(#pda61c5144f)" d="M 76.8375 307.120864 
L 496.8825 307.120864 
" style="fill:none;stroke:#e6e6e6;stroke-linecap:square;stroke-width:0.8;"/>
     </g>
     <g id="line2d_18">
      <g>
       <use style="stroke:#000000;stroke-width:0.8;" x="76.8375" xlink:href="#m597eb191d4" y="307.120864"/>
      </g>
     </g>
     <g id="text_9">
      <!-- −0.4 -->
      <g transform="translate(36.913281 312.819692)scale(0.15 -0.15)">
       <defs>
        <path d="M 37.796875 64.3125 
L 12.890625 25.390625 
L 37.796875 25.390625 
z
M 35.203125 72.90625 
L 47.609375 72.90625 
L 47.609375 25.390625 
L 58.015625 25.390625 
L 58.015625 17.1875 
L 47.609375 17.1875 
L 47.609375 0 
L 37.796875 0 
L 37.796875 17.1875 
L 4.890625 17.1875 
L 4.890625 26.703125 
z
" id="DejaVuSans-52"/>
       </defs>
       <use xlink:href="#DejaVuSans-8722"/>
       <use x="83.789062" xlink:href="#DejaVuSans-48"/>
       <use x="147.412109" xlink:href="#DejaVuSans-46"/>
       <use x="179.199219" xlink:href="#DejaVuSans-52"/>
      </g>
     </g>
    </g>
    <g id="ytick_5">
     <g id="line2d_19">
      <path clip-path="url(#pda61c5144f)" d="M 76.8375 250.667259 
L 496.8825 250.667259 
" style="fill:none;stroke:#e6e6e6;stroke-linecap:square;stroke-width:0.8;"/>
     </g>
     <g id="line2d_20">
      <g>
       <use style="stroke:#000000;stroke-width:0.8;" x="76.8375" xlink:href="#m597eb191d4" y="250.667259"/>
      </g>
     </g>
     <g id="text_10">
      <!-- −0.3 -->
      <g transform="translate(36.913281 256.366087)scale(0.15 -0.15)">
       <defs>
        <path d="M 40.578125 39.3125 
Q 47.65625 37.796875 51.625 33 
Q 55.609375 28.21875 55.609375 21.1875 
Q 55.609375 10.40625 48.1875 4.484375 
Q 40.765625 -1.421875 27.09375 -1.421875 
Q 22.515625 -1.421875 17.65625 -0.515625 
Q 12.796875 0.390625 7.625 2.203125 
L 7.625 11.71875 
Q 11.71875 9.328125 16.59375 8.109375 
Q 21.484375 6.890625 26.8125 6.890625 
Q 36.078125 6.890625 40.9375 10.546875 
Q 45.796875 14.203125 45.796875 21.1875 
Q 45.796875 27.640625 41.28125 31.265625 
Q 36.765625 34.90625 28.71875 34.90625 
L 20.21875 34.90625 
L 20.21875 43.015625 
L 29.109375 43.015625 
Q 36.375 43.015625 40.234375 45.921875 
Q 44.09375 48.828125 44.09375 54.296875 
Q 44.09375 59.90625 40.109375 62.90625 
Q 36.140625 65.921875 28.71875 65.921875 
Q 24.65625 65.921875 20.015625 65.03125 
Q 15.375 64.15625 9.8125 62.3125 
L 9.8125 71.09375 
Q 15.4375 72.65625 20.34375 73.4375 
Q 25.25 74.21875 29.59375 74.21875 
Q 40.828125 74.21875 47.359375 69.109375 
Q 53.90625 64.015625 53.90625 55.328125 
Q 53.90625 49.265625 50.4375 45.09375 
Q 46.96875 40.921875 40.578125 39.3125 
z
" id="DejaVuSans-51"/>
       </defs>
       <use xlink:href="#DejaVuSans-8722"/>
       <use x="83.789062" xlink:href="#DejaVuSans-48"/>
       <use x="147.412109" xlink:href="#DejaVuSans-46"/>
       <use x="179.199219" xlink:href="#DejaVuSans-51"/>
      </g>
     </g>
    </g>
    <g id="ytick_6">
     <g id="line2d_21">
      <path clip-path="url(#pda61c5144f)" d="M 76.8375 194.213654 
L 496.8825 194.213654 
" style="fill:none;stroke:#e6e6e6;stroke-linecap:square;stroke-width:0.8;"/>
     </g>
     <g id="line2d_22">
      <g>
       <use style="stroke:#000000;stroke-width:0.8;" x="76.8375" xlink:href="#m597eb191d4" y="194.213654"/>
      </g>
     </g>
     <g id="text_11">
      <!-- −0.2 -->
      <g transform="translate(36.913281 199.912483)scale(0.15 -0.15)">
       <use xlink:href="#DejaVuSans-8722"/>
       <use x="83.789062" xlink:href="#DejaVuSans-48"/>
       <use x="147.412109" xlink:href="#DejaVuSans-46"/>
       <use x="179.199219" xlink:href="#DejaVuSans-50"/>
      </g>
     </g>
    </g>
    <g id="ytick_7">
     <g id="line2d_23">
      <path clip-path="url(#pda61c5144f)" d="M 76.8375 137.76005 
L 496.8825 137.76005 
" style="fill:none;stroke:#e6e6e6;stroke-linecap:square;stroke-width:0.8;"/>
     </g>
     <g id="line2d_24">
      <g>
       <use style="stroke:#000000;stroke-width:0.8;" x="76.8375" xlink:href="#m597eb191d4" y="137.76005"/>
      </g>
     </g>
     <g id="text_12">
      <!-- −0.1 -->
      <g transform="translate(36.913281 143.458878)scale(0.15 -0.15)">
       <use xlink:href="#DejaVuSans-8722"/>
       <use x="83.789062" xlink:href="#DejaVuSans-48"/>
       <use x="147.412109" xlink:href="#DejaVuSans-46"/>
       <use x="179.199219" xlink:href="#DejaVuSans-49"/>
      </g>
     </g>
    </g>
    <g id="ytick_8">
     <g id="line2d_25">
      <path clip-path="url(#pda61c5144f)" d="M 76.8375 81.306445 
L 496.8825 81.306445 
" style="fill:none;stroke:#e6e6e6;stroke-linecap:square;stroke-width:0.8;"/>
     </g>
     <g id="line2d_26">
      <g>
       <use style="stroke:#000000;stroke-width:0.8;" x="76.8375" xlink:href="#m597eb191d4" y="81.306445"/>
      </g>
     </g>
     <g id="text_13">
      <!-- 0.0 -->
      <g transform="translate(49.482812 87.005273)scale(0.15 -0.15)">
       <use xlink:href="#DejaVuSans-48"/>
       <use x="63.623047" xlink:href="#DejaVuSans-46"/>
       <use x="95.410156" xlink:href="#DejaVuSans-48"/>
      </g>
     </g>
    </g>
   </g>
   <g id="line2d_27">
    <path clip-path="url(#pda61c5144f)" d="M 113.287686 81.308337 
L 114.850618 81.46047 
L 116.58721 81.611095 
L 117.976483 81.507271 
L 120.234052 81.308314 
L 121.796984 81.459665 
L 123.533575 81.608869 
L 124.922849 81.505445 
L 127.180417 81.308304 
L 128.74335 81.457836 
L 130.479941 81.604408 
L 131.869214 81.502039 
L 134.126783 81.30836 
L 135.689715 81.455226 
L 137.599966 81.596399 
L 139.162898 81.452132 
L 141.073149 81.308546 
L 142.636081 81.451927 
L 144.546332 81.587894 
L 146.282923 81.424936 
L 148.019515 81.308961 
L 149.756106 81.469715 
L 151.492698 81.577702 
L 153.229289 81.419642 
L 154.96588 81.309703 
L 156.702472 81.464816 
L 158.439063 81.565959 
L 160.175655 81.41351 
L 161.912246 81.310884 
L 163.822497 81.478556 
L 165.559088 81.547511 
L 170.247885 81.418213 
L 172.331795 81.538985 
L 174.415705 81.365928 
L 176.152296 81.328781 
L 180.146456 81.473288 
L 182.925003 81.324039 
L 187.44014 81.429648 
L 189.697709 81.322367 
L 194.733824 81.388937 
L 196.817734 81.333879 
L 200.985553 81.430976 
L 203.590441 81.333537 
L 208.105578 81.405116 
L 210.536806 81.340696 
L 214.704626 81.414532 
L 217.483172 81.348919 
L 221.303673 81.421593 
L 224.255879 81.350399 
L 228.07638 81.41889 
L 231.028585 81.351589 
L 234.849086 81.417922 
L 237.801292 81.351857 
L 241.448134 81.429475 
L 244.573999 81.350768 
L 248.220841 81.435325 
L 251.346705 81.348036 
L 254.993547 81.444749 
L 258.119412 81.343657 
L 261.939913 81.445959 
L 264.892118 81.337889 
L 268.712619 81.461815 
L 271.664825 81.331123 
L 275.832644 81.451928 
L 278.437532 81.324049 
L 282.952669 81.439041 
L 285.210238 81.317333 
L 290.072694 81.423765 
L 291.982945 81.311859 
L 293.893195 81.477636 
L 295.629787 81.552945 
L 300.318584 81.426783 
L 302.402493 81.570221 
L 304.139085 81.409235 
L 305.875676 81.311071 
L 307.612268 81.476098 
L 309.348859 81.580974 
L 311.085451 81.411801 
L 312.822042 81.311036 
L 314.558633 81.483099 
L 316.295225 81.590308 
L 318.031816 81.414359 
L 319.768408 81.311112 
L 321.504999 81.488775 
L 323.067931 81.601878 
L 324.630864 81.463106 
L 326.541114 81.307175 
L 328.104047 81.446695 
L 330.014297 81.607922 
L 331.577229 81.465863 
L 333.48748 81.307184 
L 335.050412 81.448955 
L 336.960663 81.611863 
L 338.523595 81.467693 
L 340.433846 81.307205 
L 341.996778 81.45009 
L 343.907029 81.613658 
L 345.469961 81.468488 
L 347.380212 81.30721 
L 348.943144 81.450078 
L 350.853394 81.613202 
L 352.416327 81.468081 
L 354.326577 81.307205 
L 355.88951 81.449078 
L 357.79976 81.610534 
L 359.362692 81.466448 
L 361.272943 81.307211 
L 362.835875 81.447188 
L 364.746126 81.605657 
L 366.309058 81.463494 
L 368.219309 81.307278 
L 369.782241 81.44459 
L 371.692492 81.59872 
L 373.255424 81.459301 
L 375.165675 81.307479 
L 376.728607 81.441423 
L 378.638857 81.589871 
L 380.20179 81.453888 
L 382.11204 81.307901 
L 383.848632 81.458988 
L 385.758882 81.575009 
L 387.669133 81.385266 
L 389.232065 81.312856 
L 391.315975 81.511272 
L 392.878907 81.555423 
L 397.220386 81.392826 
L 399.651614 81.549553 
L 401.909183 81.345086 
L 403.472115 81.333076 
L 407.292616 81.491015 
L 410.244822 81.325966 
L 414.412641 81.462085 
L 417.017528 81.322228 
L 421.706325 81.418188 
L 423.963894 81.326692 
L 428.479032 81.420971 
L 430.91026 81.332195 
L 435.251738 81.421318 
L 437.682966 81.332353 
L 442.371763 81.396006 
L 444.629332 81.339418 
L 448.797151 81.417093 
L 451.575698 81.347547 
L 455.396199 81.424194 
L 458.348404 81.34901 
L 460.432314 81.451383 
L 460.432314 81.451383 
" style="fill:none;stroke:#08ff00;stroke-linecap:square;stroke-width:2;"/>
   </g>
   <g id="line2d_28">
    <path clip-path="url(#pda61c5144f)" d="M 113.287686 81.307124 
L 115.545255 81.43708 
L 117.802824 81.780623 
L 120.060393 82.353509 
L 122.491621 83.218864 
L 124.922849 84.306742 
L 127.180417 85.563329 
L 129.958964 87.386765 
L 132.563851 89.338257 
L 134.995079 91.447556 
L 138.81558 95.102296 
L 141.420467 97.927834 
L 146.109264 103.45891 
L 149.06147 107.334784 
L 154.792221 115.291036 
L 163.301519 128.316105 
L 185.703549 163.779869 
L 190.566005 170.837976 
L 192.649915 173.705332 
L 200.290917 183.257137 
L 204.979714 188.349192 
L 206.716305 189.975354 
L 213.662671 195.561049 
L 219.9144 199.006865 
L 222.171969 199.731448 
L 226.166129 200.773791 
L 227.555402 200.884623 
L 233.459813 200.685616 
L 235.196405 200.254908 
L 237.627633 199.447732 
L 241.448134 197.909493 
L 247.526204 194.104678 
L 249.783773 192.21893 
L 254.819888 187.61393 
L 258.119412 183.954016 
L 263.155527 177.98549 
L 269.059938 170.072171 
L 277.221918 157.90198 
L 301.707857 119.124439 
L 308.827882 108.913158 
L 314.732293 101.294292 
L 318.726453 96.763714 
L 321.678658 93.677124 
L 324.804523 90.815432 
L 327.583069 88.500739 
L 329.840638 86.88235 
L 332.792843 85.051926 
L 335.224071 83.791175 
L 337.48164 82.872518 
L 340.086528 82.059005 
L 342.344096 81.58854 
L 344.601665 81.347995 
L 346.859234 81.323481 
L 349.116803 81.525496 
L 351.548031 81.980233 
L 353.8056 82.636705 
L 356.236828 83.598024 
L 358.841715 84.869887 
L 361.099284 86.222873 
L 363.87783 88.169218 
L 366.656376 90.36482 
L 369.261264 92.756383 
L 373.081765 96.590082 
L 375.339334 99.13644 
L 379.854471 104.593528 
L 382.285699 107.811211 
L 388.016451 115.817573 
L 395.483794 127.195412 
L 407.639934 146.662983 
L 410.59214 151.449681 
L 414.065323 156.882629 
L 424.484871 172.309967 
L 427.263418 176.055298 
L 433.688806 183.935879 
L 435.946375 186.259613 
L 437.682966 188.11583 
L 439.940535 190.347663 
L 441.677127 191.845414 
L 447.407878 196.18076 
L 448.970811 197.043182 
L 454.875221 199.770425 
L 456.438154 200.106667 
L 458.174745 200.505537 
L 460.084996 200.85946 
L 460.432314 200.882924 
L 460.432314 200.882924 
" style="fill:none;stroke:#08ff00;stroke-dasharray:7.4,3.2;stroke-dashoffset:0;stroke-width:2;"/>
   </g>
   <g id="line2d_29">
    <defs>
     <path d="M -2.5 2.5 
L 2.5 2.5 
L 2.5 -2.5 
L -2.5 -2.5 
z
" id="m19c342eb33" style="stroke:#08ff00;stroke-linejoin:miter;"/>
    </defs>
    <g clip-path="url(#pda61c5144f)">
     <use style="fill:#08ff00;stroke:#08ff00;stroke-linejoin:miter;" x="120.060393" xlink:href="#m19c342eb33" y="81.306446"/>
    </g>
   </g>
   <g id="line2d_30">
    <g clip-path="url(#pda61c5144f)">
     <use style="fill:#08ff00;stroke:#08ff00;stroke-linejoin:miter;" x="345.990938" xlink:href="#m19c342eb33" y="81.306455"/>
    </g>
   </g>
   <g id="line2d_31">
    <path clip-path="url(#pda61c5144f)" d="M 113.287686 81.31401 
L 113.982323 81.487911 
L 115.197937 82.117104 
L 116.066232 82.476353 
L 116.760869 82.539833 
L 117.455505 82.375219 
L 118.671119 81.755202 
L 119.539415 81.383733 
L 120.234052 81.310864 
L 120.928688 81.47095 
L 122.144302 82.087279 
L 123.012598 82.450866 
L 123.707235 82.524819 
L 124.401871 82.372916 
L 125.443826 81.86229 
L 126.485781 81.39334 
L 127.180417 81.30874 
L 127.875054 81.452837 
L 128.917009 81.956119 
L 129.958964 82.409098 
L 130.6536 82.491979 
L 131.348237 82.354688 
L 132.390192 81.865687 
L 133.432147 81.402424 
L 134.126783 81.308256 
L 134.82142 81.434891 
L 135.863375 81.910843 
L 136.905329 82.352949 
L 137.599966 82.442468 
L 138.294603 82.321355 
L 139.336557 81.861021 
L 140.552171 81.36729 
L 141.246808 81.317761 
L 141.941445 81.475059 
L 144.546332 82.37815 
L 145.240968 82.274138 
L 146.282923 81.8487 
L 147.498537 81.377354 
L 148.193174 81.319792 
L 148.88781 81.455709 
L 151.666357 82.297926 
L 152.534652 82.110732 
L 154.96588 81.325997 
L 155.834176 81.440936 
L 158.612722 82.214137 
L 159.481018 82.055515 
L 161.912246 81.342082 
L 162.780542 81.432754 
L 165.732747 82.114689 
L 166.774702 81.893898 
L 168.684953 81.377935 
L 169.553248 81.403071 
L 170.768862 81.714256 
L 172.158136 82.015352 
L 173.026431 81.987765 
L 174.242045 81.701029 
L 175.631319 81.408824 
L 176.673273 81.443258 
L 179.972797 81.903934 
L 181.36207 81.642742 
L 182.751343 81.436061 
L 183.793298 81.486097 
L 186.745504 81.83057 
L 188.308436 81.635941 
L 190.045027 81.478392 
L 191.60796 81.607835 
L 193.51821 81.747418 
L 195.428461 81.61632 
L 197.512371 81.544609 
L 202.374827 81.627724 
L 208.279238 81.605015 
L 212.273398 81.627574 
L 214.878285 81.537948 
L 219.046104 81.689794 
L 221.477332 81.468617 
L 222.866606 81.624399 
L 224.776856 81.859376 
L 225.99247 81.751018 
L 228.423698 81.421802 
L 229.639312 81.58837 
L 231.723222 81.954169 
L 232.765177 81.858004 
L 235.370064 81.384283 
L 236.412019 81.539464 
L 238.843247 82.050681 
L 239.711543 81.941764 
L 242.490089 81.363957 
L 243.358385 81.530021 
L 245.789613 82.146515 
L 246.657908 82.028381 
L 249.436455 81.342315 
L 250.30475 81.522723 
L 252.735978 82.23766 
L 253.604274 82.114262 
L 254.993547 81.577651 
L 255.861843 81.345498 
L 256.556479 81.343999 
L 257.424775 81.58069 
L 259.508685 82.311184 
L 260.203321 82.280679 
L 261.071617 82.002103 
L 262.808209 81.345594 
L 263.502845 81.332545 
L 264.371141 81.578904 
L 266.455051 82.380731 
L 267.149687 82.358569 
L 268.017983 82.067729 
L 269.754574 81.350612 
L 270.449211 81.324451 
L 271.143848 81.504483 
L 273.748735 82.458269 
L 274.443371 82.338787 
L 275.485326 81.860507 
L 276.527281 81.402773 
L 277.221918 81.307619 
L 277.916554 81.434037 
L 278.958509 81.918482 
L 280.174123 82.442812 
L 280.86876 82.498878 
L 281.563396 82.331372 
L 282.77901 81.716201 
L 283.647306 81.369732 
L 284.341942 81.314679 
L 285.036579 81.486287 
L 286.252193 82.103424 
L 287.120489 82.463087 
L 287.815125 82.532824 
L 288.509762 82.37166 
L 289.551717 81.841333 
L 290.593672 81.381187 
L 291.288308 81.311597 
L 291.982945 81.474104 
L 293.0249 81.998989 
L 294.066854 82.466702 
L 294.761491 82.549271 
L 295.456128 82.396922 
L 296.498082 81.867945 
L 297.540037 81.392704 
L 298.234674 81.309179 
L 298.92931 81.459839 
L 299.971265 81.977408 
L 301.01322 82.453108 
L 301.707857 82.5472 
L 302.402493 82.406465 
L 303.444448 81.88653 
L 304.486403 81.403615 
L 305.18104 81.307474 
L 305.875676 81.444053 
L 306.917631 81.946891 
L 307.959586 82.422951 
L 308.654223 82.52724 
L 309.348859 82.399862 
L 310.390814 81.896798 
L 311.432769 81.413808 
L 312.127405 81.306771 
L 312.822042 81.427549 
L 313.863997 81.908057 
L 315.079611 82.425442 
L 315.774247 82.482734 
L 316.468884 82.316979 
L 317.858157 81.632274 
L 318.726453 81.338462 
L 319.421089 81.333258 
L 320.289385 81.609405 
L 322.199636 82.401967 
L 322.894272 82.414076 
L 323.588909 82.217795 
L 325.846478 81.32203 
L 326.541114 81.35774 
L 327.40941 81.653149 
L 329.146001 82.330709 
L 329.840638 82.352678 
L 330.708934 82.110037 
L 332.792843 81.331077 
L 333.48748 81.352973 
L 334.355776 81.616612 
L 336.092367 82.248735 
L 336.787004 82.278935 
L 337.6553 82.065872 
L 339.739209 81.344166 
L 340.607505 81.383036 
L 341.64946 81.715458 
L 343.038733 82.159515 
L 343.907029 82.178193 
L 344.775324 81.955499 
L 346.685575 81.36245 
L 347.553871 81.385466 
L 348.595826 81.669955 
L 349.985099 82.065269 
L 350.853394 82.092116 
L 351.895349 81.852915 
L 353.631941 81.386811 
L 354.500236 81.396619 
L 355.71585 81.681626 
L 357.105124 81.991726 
L 357.973419 81.984729 
L 359.189033 81.71826 
L 360.751966 81.404434 
L 361.79392 81.461719 
L 364.919785 81.897855 
L 366.309058 81.65997 
L 367.87199 81.438793 
L 369.087605 81.526002 
L 371.692492 81.819295 
L 373.255424 81.65027 
L 375.165675 81.489768 
L 377.075925 81.646951 
L 378.812517 81.729235 
L 384.543268 81.630768 
L 388.016451 81.627155 
L 394.094521 81.639536 
L 396.35209 81.68881 
L 400.51991 81.57998 
L 403.124797 81.780293 
L 404.687729 81.602804 
L 406.250661 81.456466 
L 407.466275 81.555747 
L 409.897503 81.877774 
L 411.113117 81.736742 
L 413.197027 81.412497 
L 414.238982 81.50222 
L 417.017528 81.969391 
L 418.059483 81.802976 
L 420.143393 81.37893 
L 421.011688 81.445086 
L 422.400962 81.830787 
L 423.616576 82.066088 
L 424.484871 82.004042 
L 425.874144 81.60129 
L 426.916099 81.368658 
L 427.784395 81.391517 
L 428.82635 81.681393 
L 430.389282 82.139971 
L 431.257578 82.128135 
L 432.299533 81.829917 
L 433.862465 81.357974 
L 434.730761 81.371818 
L 435.599057 81.623143 
L 437.335648 82.221517 
L 438.030285 82.243797 
L 438.89858 82.030608 
L 440.98249 81.332392 
L 441.677127 81.356904 
L 442.545422 81.625032 
L 444.282014 82.294047 
L 444.97665 82.328823 
L 445.844946 82.105864 
L 447.928856 81.330782 
L 448.623492 81.345762 
L 449.491788 81.625185 
L 451.402039 82.387863 
L 452.096675 82.381654 
L 452.964971 82.101558 
L 454.875221 81.33383 
L 455.569858 81.337392 
L 456.438154 81.62238 
L 458.348404 82.440331 
L 459.043041 82.445146 
L 459.737677 82.23773 
L 460.432314 81.896742 
L 460.432314 81.896742 
" style="fill:none;stroke:#0010ff;stroke-linecap:square;stroke-width:2;"/>
   </g>
   <g id="line2d_32">
    <path clip-path="url(#pda61c5144f)" d="M 113.287686 81.309161 
L 114.329641 81.439384 
L 115.545255 81.818903 
L 116.760869 82.419898 
L 117.976483 83.253082 
L 119.192097 84.367617 
L 120.58137 85.988811 
L 122.317961 88.434678 
L 124.054553 91.218776 
L 125.617485 94.151152 
L 127.180417 97.622395 
L 129.611645 103.674181 
L 131.695555 109.244105 
L 133.258487 113.984781 
L 135.516056 121.633645 
L 139.510217 135.792428 
L 141.594126 144.337308 
L 148.019515 172.074529 
L 151.492698 188.270211 
L 154.271244 201.451223 
L 158.960041 224.436033 
L 161.564928 237.189094 
L 164.864452 253.527331 
L 167.990316 267.941242 
L 171.637158 285.171157 
L 175.457659 301.192132 
L 178.409865 313.594506 
L 185.182571 337.284176 
L 186.919163 341.843979 
L 189.52405 348.707194 
L 190.913323 352.623198 
L 191.955278 354.967286 
L 192.823574 356.47678 
L 194.560165 359.16288 
L 196.644075 362.550096 
L 197.859689 364.659802 
L 198.727985 365.708855 
L 199.422621 366.253184 
L 200.985553 366.935398 
L 203.243122 367.910514 
L 203.7641 368.266424 
L 204.632395 368.801475 
L 205.327032 368.940774 
L 206.021669 368.812192 
L 206.716305 368.426878 
L 208.626556 366.978589 
L 210.710466 365.5909 
L 211.405102 365.247401 
L 212.099739 364.658999 
L 212.794375 363.794382 
L 213.662671 362.374095 
L 217.483172 355.277839 
L 218.872445 352.921553 
L 219.9144 350.504464 
L 221.303673 346.61219 
L 224.603197 337.116363 
L 225.818811 333.831303 
L 227.034425 329.813725 
L 228.944676 322.581824 
L 231.375904 313.508132 
L 233.112495 307.291599 
L 234.849086 299.876076 
L 239.190565 280.951918 
L 240.753497 273.999081 
L 249.262795 232.850512 
L 251.867683 219.796829 
L 260.376981 179.246351 
L 262.981868 167.210965 
L 265.586755 155.480062 
L 268.017983 145.679348 
L 272.359462 128.476174 
L 274.443371 121.417504 
L 278.611191 108.091808 
L 280.347782 103.416468 
L 282.952669 97.212427 
L 285.036579 92.715794 
L 286.425852 90.186318 
L 287.988784 87.803727 
L 289.899035 85.33806 
L 291.461967 83.684083 
L 292.677581 82.701729 
L 293.893195 82.002834 
L 295.108809 81.553371 
L 296.324423 81.329818 
L 297.540037 81.349431 
L 298.581992 81.578427 
L 299.797606 82.084093 
L 301.186879 82.934339 
L 302.576152 84.067181 
L 303.791767 85.343453 
L 305.007381 86.922143 
L 306.570313 89.327408 
L 308.654223 92.951135 
L 310.390814 96.443713 
L 311.953746 100.159379 
L 314.558633 107.103836 
L 316.989861 114.07572 
L 318.552794 119.192012 
L 322.373295 132.880596 
L 324.804523 142.114377 
L 326.888433 151.056648 
L 333.140162 178.743697 
L 336.613345 195.139899 
L 339.218232 207.552697 
L 342.691415 224.990198 
L 346.859234 245.177479 
L 349.290462 257.214866 
L 352.242668 270.493551 
L 353.979259 278.918413 
L 356.063169 288.570168 
L 363.356853 318.398881 
L 365.267103 324.794121 
L 367.351013 331.88412 
L 369.087605 337.946387 
L 370.303219 341.519087 
L 371.692492 344.987488 
L 374.12372 350.852394 
L 375.860311 355.341555 
L 376.902266 357.490493 
L 378.465198 359.892069 
L 380.028131 361.850312 
L 380.722767 362.784271 
L 382.633018 365.769124 
L 383.501313 366.712774 
L 384.369609 367.311591 
L 385.064246 367.561868 
L 386.453519 367.771565 
L 387.669133 367.919358 
L 389.405724 368.684169 
L 390.27402 368.674907 
L 390.794997 368.509163 
L 392.010611 367.689681 
L 393.573544 366.081714 
L 394.615499 364.99918 
L 396.35209 363.746787 
L 397.394045 362.510055 
L 398.609659 360.49856 
L 400.172591 357.202169 
L 401.909183 353.573201 
L 403.472115 350.653311 
L 404.51407 348.228052 
L 405.903343 344.344024 
L 412.328731 324.189656 
L 414.412641 315.886597 
L 416.149232 309.236477 
L 418.059483 302.052509 
L 419.796074 294.562094 
L 423.616576 277.372506 
L 425.526826 268.89889 
L 434.383443 225.763387 
L 436.98833 212.80062 
L 440.635172 195.452899 
L 443.934695 179.480174 
L 451.402039 146.637334 
L 457.306449 123.9581 
L 459.564018 116.655361 
L 460.432314 113.930222 
L 460.432314 113.930222 
" style="fill:none;stroke:#0010ff;stroke-dasharray:7.4,3.2;stroke-dashoffset:0;stroke-width:2;"/>
   </g>
   <g id="line2d_33">
    <defs>
     <path d="M -2.5 2.5 
L 2.5 2.5 
L 2.5 -2.5 
L -2.5 -2.5 
z
" id="mb74c43568f" style="stroke:#0010ff;stroke-linejoin:miter;"/>
    </defs>
    <g clip-path="url(#pda61c5144f)">
     <use style="fill:#0010ff;stroke:#0010ff;stroke-linejoin:miter;" x="120.060393" xlink:href="#mb74c43568f" y="81.306877"/>
    </g>
   </g>
   <g id="line2d_34">
    <g clip-path="url(#pda61c5144f)">
     <use style="fill:#0010ff;stroke:#0010ff;stroke-linejoin:miter;" x="296.845401" xlink:href="#mb74c43568f" y="81.306564"/>
    </g>
   </g>
   <g id="line2d_35">
    <path clip-path="url(#pda61c5144f)" d="M 113.287686 81.323465 
L 113.808663 81.572793 
L 114.5033 82.279557 
L 115.892573 83.845511 
L 116.413551 84.108863 
L 116.934528 84.078686 
L 117.455505 83.756394 
L 118.150142 83.011623 
L 119.365756 81.62632 
L 119.886733 81.340536 
L 120.407711 81.348274 
L 120.928688 81.649285 
L 121.623325 82.388354 
L 122.838939 83.742413 
L 123.359916 84.034386 
L 123.880894 84.04066 
L 124.401871 83.758704 
L 125.096508 83.056797 
L 126.485781 81.544647 
L 127.006758 81.31985 
L 127.527736 81.382131 
L 128.048713 81.721889 
L 128.917009 82.672358 
L 129.958964 83.720059 
L 130.479941 83.940352 
L 131.000919 83.894811 
L 131.521896 83.57391 
L 132.390192 82.665212 
L 133.432147 81.590879 
L 133.953124 81.339561 
L 134.474101 81.355727 
L 134.995079 81.64016 
L 135.863375 82.507825 
L 136.905329 83.523136 
L 137.426307 83.765915 
L 137.947284 83.758837 
L 138.468262 83.493028 
L 139.162898 82.858968 
L 140.378512 81.642217 
L 140.89949 81.372601 
L 141.420467 81.34373 
L 141.941445 81.567257 
L 142.636081 82.157549 
L 144.025354 83.398671 
L 144.546332 83.584284 
L 145.067309 83.532594 
L 145.588287 83.258843 
L 146.456582 82.486321 
L 147.498537 81.587403 
L 148.019515 81.373498 
L 148.540492 81.380895 
L 149.06147 81.61102 
L 149.929765 82.311815 
L 150.97172 83.138932 
L 151.492698 83.341373 
L 152.013675 83.336541 
L 152.534652 83.131585 
L 153.402948 82.482746 
L 154.444903 81.664005 
L 155.13954 81.401826 
L 155.660517 81.428854 
L 156.355154 81.750622 
L 158.439063 83.075897 
L 158.960041 83.116131 
L 159.654677 82.906716 
L 160.522973 82.347201 
L 161.564928 81.670459 
L 162.259564 81.455908 
L 162.780542 81.484668 
L 163.475178 81.754874 
L 165.559088 82.845054 
L 166.253725 82.860325 
L 166.948361 82.643429 
L 169.379589 81.53428 
L 170.074226 81.577815 
L 170.942522 81.895155 
L 172.679113 82.622061 
L 173.37375 82.666711 
L 174.242045 82.467757 
L 176.673273 81.611781 
L 177.541569 81.675313 
L 178.583524 82.011159 
L 179.972797 82.462703 
L 180.841093 82.520433 
L 181.883048 82.306829 
L 184.140617 81.664235 
L 185.008912 81.699374 
L 186.050867 81.983055 
L 187.787459 82.472964 
L 188.655754 82.475395 
L 189.52405 82.289185 
L 191.60796 81.650843 
L 192.476255 81.663283 
L 193.51821 81.963762 
L 195.254802 82.564867 
L 196.123097 82.593092 
L 196.991393 82.348805 
L 199.075303 81.570178 
L 199.769939 81.587861 
L 200.638235 81.872575 
L 202.722145 82.783227 
L 203.416781 82.779137 
L 204.111418 82.539972 
L 206.368987 81.4846 
L 207.063624 81.537926 
L 207.75826 81.833082 
L 209.84217 83.00141 
L 210.363147 83.034772 
L 211.057784 82.816431 
L 211.92608 82.263856 
L 213.141694 81.511025 
L 213.662671 81.407955 
L 214.183648 81.485368 
L 214.878285 81.848637 
L 216.962195 83.245127 
L 217.483172 83.269481 
L 218.00415 83.095989 
L 218.698786 82.628406 
L 220.261718 81.465183 
L 220.782696 81.360731 
L 221.303673 81.468054 
L 221.99831 81.912351 
L 223.90856 83.436476 
L 224.429538 83.514119 
L 224.950515 83.361704 
L 225.645152 82.868968 
L 227.381743 81.420691 
L 227.902721 81.333181 
L 228.423698 81.486994 
L 229.118335 82.01895 
L 230.854926 83.59857 
L 231.375904 83.72904 
L 231.896881 83.604442 
L 232.417858 83.256667 
L 233.459813 82.180241 
L 234.15445 81.55993 
L 234.675427 81.333449 
L 235.196405 81.36771 
L 235.717382 81.662039 
L 236.585678 82.539469 
L 237.627633 83.603594 
L 238.14861 83.868303 
L 238.669588 83.870172 
L 239.190565 83.604718 
L 239.885202 82.93828 
L 241.274475 81.508083 
L 241.795452 81.313901 
L 242.31643 81.401626 
L 242.837407 81.759569 
L 243.705703 82.720881 
L 244.747658 83.796053 
L 245.268635 84.023296 
L 245.789613 83.965895 
L 246.31059 83.640074 
L 247.005227 82.897194 
L 248.047181 81.707566 
L 248.568159 81.374337 
L 249.089136 81.322488 
L 249.610114 81.566842 
L 250.30475 82.252752 
L 251.694023 83.817819 
L 252.215001 84.08674 
L 252.735978 84.066884 
L 253.256956 83.764267 
L 253.951592 83.026635 
L 255.167206 81.631018 
L 255.688184 81.342304 
L 256.209161 81.347863 
L 256.730139 81.651319 
L 257.424775 82.388428 
L 258.640389 83.783677 
L 259.161367 84.088899 
L 259.682344 84.106132 
L 260.203321 83.836261 
L 260.897958 83.120877 
L 262.113572 81.691907 
L 262.634549 81.365978 
L 263.155527 81.328664 
L 263.676504 81.592286 
L 264.371141 82.294092 
L 265.760414 83.833604 
L 266.281391 84.080163 
L 266.802369 84.037265 
L 267.323346 83.714467 
L 268.017983 82.962439 
L 269.233597 81.604788 
L 269.754574 81.334746 
L 270.275552 81.355833 
L 270.796529 81.663978 
L 271.491166 82.383529 
L 272.70678 83.697519 
L 273.227757 83.969865 
L 273.748735 83.966014 
L 274.269712 83.687563 
L 274.964349 82.988229 
L 276.179963 81.654549 
L 276.70094 81.357654 
L 277.221918 81.335129 
L 277.742895 81.591491 
L 278.437532 82.246728 
L 279.653146 83.515035 
L 280.174123 83.805029 
L 280.6951 83.839989 
L 281.216078 83.611827 
L 281.910714 82.981721 
L 283.299988 81.578013 
L 283.820965 81.33972 
L 284.341942 81.365529 
L 284.86292 81.643626 
L 285.731216 82.46044 
L 286.77317 83.411487 
L 287.294148 83.643932 
L 287.815125 83.631861 
L 288.336103 83.38348 
L 289.030739 82.77135 
L 290.246353 81.635403 
L 290.767331 81.377787 
L 291.288308 81.357724 
L 291.809286 81.571632 
L 292.503922 82.116558 
L 293.893195 83.265641 
L 294.414173 83.437942 
L 294.93515 83.397121 
L 295.456128 83.144842 
L 296.324423 82.420898 
L 297.366378 81.595848 
L 297.887356 81.392574 
L 298.408333 81.401373 
L 299.10297 81.714304 
L 301.360538 83.182407 
L 301.881516 83.19126 
L 302.576152 82.917544 
L 303.965426 81.903989 
L 304.833721 81.469337 
L 305.354699 81.428859 
L 306.049335 81.638139 
L 307.09129 82.294715 
L 308.133245 82.862749 
L 308.827882 82.970048 
L 309.522518 82.801385 
L 310.564473 82.210734 
L 311.780087 81.578811 
L 312.474724 81.497607 
L 313.16936 81.656494 
L 314.384974 82.268846 
L 315.426929 82.689511 
L 316.121566 82.739482 
L 316.816202 82.57603 
L 318.205475 81.938909 
L 319.073771 81.628233 
L 319.768408 81.579891 
L 320.636703 81.766832 
L 323.067931 82.563886 
L 323.936227 82.495231 
L 324.978182 82.176755 
L 326.367455 81.708141 
L 327.235751 81.643648 
L 328.104047 81.796464 
L 330.882593 82.49095 
L 331.750889 82.391473 
L 332.966503 81.992 
L 334.182117 81.670532 
L 335.050412 81.665905 
L 336.092367 81.925911 
L 338.002618 82.52827 
L 338.870914 82.539444 
L 339.912868 82.226288 
L 341.64946 81.614956 
L 342.517756 81.612361 
L 343.386051 81.880118 
L 345.469961 82.716443 
L 346.164598 82.70209 
L 347.032893 82.410274 
L 349.116803 81.511309 
L 349.81144 81.549711 
L 350.506076 81.817963 
L 352.763645 82.946371 
L 353.458282 82.886506 
L 354.152918 82.589303 
L 356.236828 81.446574 
L 356.931464 81.484168 
L 357.626101 81.807972 
L 359.88367 83.180032 
L 360.404647 83.158211 
L 361.099284 82.862806 
L 362.141239 82.052223 
L 363.009534 81.496611 
L 363.530512 81.373408 
L 364.051489 81.452842 
L 364.746126 81.847226 
L 366.830036 83.387119 
L 367.351013 83.416278 
L 367.87199 83.23578 
L 368.566627 82.718067 
L 369.9559 81.538413 
L 370.476878 81.350292 
L 370.997855 81.390541 
L 371.518833 81.656986 
L 372.387128 82.434542 
L 373.429083 83.388816 
L 373.950061 83.6232 
L 374.471038 83.623232 
L 374.992015 83.388425 
L 375.686652 82.773762 
L 376.902266 81.603614 
L 377.423243 81.352211 
L 377.944221 81.349389 
L 378.465198 81.60137 
L 379.159835 82.23306 
L 380.549108 83.61526 
L 381.070085 83.828851 
L 381.591063 83.786987 
L 382.11204 83.486859 
L 382.806677 82.782662 
L 383.848632 81.68261 
L 384.369609 81.372474 
L 384.890587 81.324685 
L 385.411564 81.553744 
L 386.106201 82.196193 
L 387.669133 83.813043 
L 388.19011 83.991855 
L 388.711088 83.89376 
L 389.232065 83.524251 
L 390.100361 82.532722 
L 390.968657 81.620469 
L 391.489634 81.341821 
L 392.010611 81.346543 
L 392.531589 81.635516 
L 393.226225 82.348845 
L 394.441839 83.724786 
L 394.962817 84.039318 
L 395.483794 84.073664 
L 396.004772 83.817022 
L 396.699408 83.100111 
L 397.915022 81.691727 
L 398.436 81.366461 
L 398.956977 81.32825 
L 399.477955 81.586047 
L 400.172591 82.283896 
L 401.561864 83.848609 
L 402.082842 84.112471 
L 402.603819 84.086404 
L 403.124797 83.76386 
L 403.819433 82.990838 
L 405.035047 81.612409 
L 405.556025 81.335057 
L 406.077002 81.356662 
L 406.59798 81.668269 
L 407.292616 82.410247 
L 408.50823 83.781833 
L 409.029208 84.079231 
L 409.550185 84.090994 
L 410.071162 83.803464 
L 410.765799 83.062905 
L 411.981413 81.66787 
L 412.50239 81.355619 
L 413.023368 81.334663 
L 413.544345 81.603559 
L 414.238982 82.300781 
L 415.454596 83.660535 
L 415.975573 83.98304 
L 416.496551 84.031578 
L 417.017528 83.786371 
L 417.712165 83.096395 
L 419.101438 81.579792 
L 419.622415 81.328608 
L 420.143393 81.363538 
L 420.66437 81.668583 
L 421.359007 82.373286 
L 422.574621 83.629698 
L 423.095598 83.891422 
L 423.616576 83.87905 
L 424.137553 83.594735 
L 425.005849 82.700914 
L 426.047804 81.628064 
L 426.568781 81.352157 
L 427.089758 81.342898 
L 427.610736 81.592646 
L 428.305372 82.223809 
L 429.520986 83.419496 
L 430.041964 83.698352 
L 430.562941 83.724599 
L 431.083919 83.496006 
L 431.778555 82.884142 
L 433.167829 81.559628 
L 433.688806 81.344301 
L 434.209783 81.376292 
L 434.730761 81.638766 
L 435.599057 82.408546 
L 436.641011 83.295384 
L 437.161989 83.512526 
L 437.682966 83.499324 
L 438.203944 83.253742 
L 439.072239 82.519634 
L 440.114194 81.623095 
L 440.635172 81.390509 
L 441.156149 81.374952 
L 441.677127 81.569615 
L 442.545422 82.217895 
L 443.761036 83.124184 
L 444.282014 83.292058 
L 444.802991 83.251142 
L 445.497628 82.905731 
L 447.755197 81.420917 
L 448.276174 81.424333 
L 448.970811 81.696974 
L 451.402039 83.05347 
L 451.923016 83.008006 
L 452.617653 82.714014 
L 454.875221 81.48114 
L 455.569858 81.517023 
L 456.264495 81.79181 
L 458.348404 82.796892 
L 459.043041 82.78755 
L 459.911337 82.491621 
L 460.432314 82.220555 
L 460.432314 82.220555 
" style="fill:none;stroke:#ff0018;stroke-linecap:square;stroke-width:2;"/>
   </g>
   <g id="line2d_36">
    <path clip-path="url(#pda61c5144f)" d="M 113.287686 81.312556 
L 113.982323 81.459523 
L 114.850618 81.905807 
L 115.718914 82.589938 
L 116.760869 83.714152 
L 117.802824 85.191017 
L 118.671119 86.760357 
L 119.713074 89.131118 
L 120.928688 92.451862 
L 123.012598 98.984525 
L 124.57553 104.515414 
L 125.791144 109.536237 
L 127.354077 117.152131 
L 131.348237 138.476148 
L 132.73751 146.834195 
L 134.82142 161.309476 
L 137.773625 181.745804 
L 139.683876 195.664173 
L 142.115104 215.955109 
L 143.851695 229.760802 
L 146.456582 250.152511 
L 148.88781 271.945745 
L 150.450743 285.169025 
L 154.097585 314.271993 
L 157.223449 341.146497 
L 162.606883 381.513981 
L 163.996156 391.614295 
L 165.385429 399.669953 
L 167.816657 413.93023 
L 170.595203 431.380738 
L 171.637158 436.04052 
L 174.589364 447.247666 
L 177.541569 459.635488 
L 178.236206 461.366001 
L 178.930842 462.465814 
L 179.799138 463.618095 
L 181.188411 465.656293 
L 182.577684 468.385461 
L 183.44598 470.324402 
L 184.140617 471.305776 
L 184.661594 471.626307 
L 185.008912 471.642528 
L 185.52989 471.351693 
L 186.398185 470.356088 
L 187.961118 468.640193 
L 188.655754 468.127725 
L 189.52405 467.67953 
L 190.045027 467.62226 
L 190.566005 467.319643 
L 191.086982 466.701875 
L 191.781619 465.307862 
L 192.476255 463.300166 
L 196.470416 449.832065 
L 197.512371 446.982091 
L 198.207007 444.426541 
L 199.075303 440.412194 
L 200.464576 432.493402 
L 202.201167 422.666284 
L 204.111418 413.166201 
L 204.979714 408.536214 
L 206.195328 400.581052 
L 208.105578 386.156378 
L 210.015829 372.744653 
L 212.620716 354.847672 
L 214.357308 340.084684 
L 216.267558 324.076264 
L 220.609037 289.330265 
L 223.213924 266.330673 
L 232.07054 195.447236 
L 233.980791 181.310132 
L 237.106655 158.364708 
L 239.016906 146.647033 
L 244.22668 116.975157 
L 245.789613 110.117542 
L 249.089136 97.25846 
L 250.478409 92.757095 
L 251.694023 89.621513 
L 252.909637 87.073731 
L 254.298911 84.661199 
L 255.340865 83.19643 
L 256.38282 82.124695 
L 257.251116 81.573245 
L 258.119412 81.330146 
L 258.987707 81.351995 
L 259.856003 81.6159 
L 260.724299 82.126474 
L 261.592595 82.934246 
L 262.46089 84.058465 
L 263.502845 85.840583 
L 264.892118 88.765919 
L 266.281391 92.144284 
L 267.670665 96.055885 
L 268.886279 100.250387 
L 270.275552 105.911268 
L 273.748735 121.756031 
L 275.138008 128.858655 
L 276.70094 138.16249 
L 282.084374 173.089093 
L 283.820965 186.350913 
L 286.94683 210.675118 
L 289.725376 232.298392 
L 294.93515 275.960612 
L 296.671742 290.253917 
L 300.665902 324.531487 
L 304.312744 352.743162 
L 306.396654 370.034021 
L 307.612268 378.260908 
L 311.953746 407.288247 
L 313.343019 416.610698 
L 314.384974 422.11692 
L 318.031816 439.255199 
L 319.594749 447.649595 
L 320.636703 451.986152 
L 321.33134 454.043014 
L 324.804523 462.507867 
L 325.672819 465.35782 
L 326.541114 467.833277 
L 327.235751 469.238584 
L 327.756728 469.876247 
L 328.104047 470.074233 
L 328.798683 470.120207 
L 329.840638 469.902807 
L 331.056252 469.733592 
L 331.577229 469.840527 
L 332.098207 470.162065 
L 332.792843 470.737486 
L 333.313821 470.91113 
L 333.834798 470.801065 
L 334.355776 470.38814 
L 334.876753 469.613825 
L 335.745049 467.549198 
L 338.870914 459.558981 
L 339.912868 457.82243 
L 340.607505 456.144068 
L 341.302142 453.970902 
L 341.996778 451.19837 
L 343.386051 444.325427 
L 345.817279 432.647444 
L 347.206552 427.033103 
L 348.248507 421.709948 
L 349.290462 415.187776 
L 353.8056 385.688655 
L 355.021214 377.738182 
L 356.410487 367.011754 
L 359.710011 340.294275 
L 361.79392 325.140729 
L 363.183194 313.432084 
L 366.830036 281.81405 
L 369.261264 262.696456 
L 372.03981 238.11653 
L 373.776401 224.012324 
L 377.075925 198.747186 
L 380.028131 175.64156 
L 381.591063 165.27566 
L 384.716927 144.648946 
L 386.453519 133.767027 
L 388.016451 125.364356 
L 391.663293 108.019512 
L 393.052566 102.127929 
L 394.441839 97.207861 
L 395.831113 93.173775 
L 397.741363 88.329093 
L 399.130636 85.411172 
L 400.172591 83.758837 
L 401.040887 82.740474 
L 401.909183 82.021108 
L 402.777478 81.559268 
L 403.645774 81.328897 
L 404.51407 81.358839 
L 405.208706 81.59378 
L 405.903343 82.032976 
L 406.771639 82.84924 
L 407.813594 84.161543 
L 409.029208 86.078582 
L 410.071162 88.050103 
L 411.113117 90.473466 
L 412.155072 93.405594 
L 413.544345 98.099321 
L 415.801914 106.55719 
L 417.538506 113.761798 
L 418.927779 120.589267 
L 420.838029 131.459068 
L 425.005849 156.182149 
L 426.568781 167.285805 
L 430.041964 192.791706 
L 432.125874 208.178289 
L 434.036124 224.414809 
L 436.120034 241.769694 
L 440.114194 274.211771 
L 442.719081 297.270029 
L 447.407878 334.794698 
L 449.318129 351.037572 
L 451.05472 363.325534 
L 453.659607 381.435286 
L 456.090835 399.844536 
L 457.306449 407.085239 
L 459.043041 416.09648 
L 460.258655 422.634091 
L 460.432314 423.65884 
L 460.432314 423.65884 
" style="fill:none;stroke:#ff0018;stroke-dasharray:7.4,3.2;stroke-dashoffset:0;stroke-width:2;"/>
   </g>
   <g id="line2d_37">
    <defs>
     <path d="M -2.5 2.5 
L 2.5 2.5 
L 2.5 -2.5 
L -2.5 -2.5 
z
" id="m60be09d1a6" style="stroke:#ff0018;stroke-linejoin:miter;"/>
    </defs>
    <g clip-path="url(#pda61c5144f)">
     <use style="fill:#ff0018;stroke:#ff0018;stroke-linejoin:miter;" x="120.060393" xlink:href="#m60be09d1a6" y="81.309589"/>
    </g>
   </g>
   <g id="line2d_38">
    <g clip-path="url(#pda61c5144f)">
     <use style="fill:#ff0018;stroke:#ff0018;stroke-linejoin:miter;" x="258.46673" xlink:href="#m60be09d1a6" y="81.308633"/>
    </g>
   </g>
   <g id="patch_3">
    <path d="M 76.8375 512.64 
L 76.8375 40.32 
" style="fill:none;stroke:#000000;stroke-linecap:square;stroke-linejoin:miter;stroke-width:0.8;"/>
   </g>
   <g id="patch_4">
    <path d="M 496.8825 512.64 
L 496.8825 40.32 
" style="fill:none;stroke:#000000;stroke-linecap:square;stroke-linejoin:miter;stroke-width:0.8;"/>
   </g>
   <g id="patch_5">
    <path d="M 76.8375 512.64 
L 496.8825 512.64 
" style="fill:none;stroke:#000000;stroke-linecap:square;stroke-linejoin:miter;stroke-width:0.8;"/>
   </g>
   <g id="patch_6">
    <path d="M 76.8375 40.32 
L 496.8825 40.32 
" style="fill:none;stroke:#000000;stroke-linecap:square;stroke-linejoin:miter;stroke-width:0.8;"/>
   </g>
   <g id="legend_1">
    <g id="patch_7">
     <path d="M 338.8825 502.64 
L 482.8825 502.64 
Q 486.8825 502.64 486.8825 498.64 
L 486.8825 412.57125 
Q 486.8825 408.57125 482.8825 408.57125 
L 338.8825 408.57125 
Q 334.8825 408.57125 334.8825 412.57125 
L 334.8825 498.64 
Q 334.8825 502.64 338.8825 502.64 
z
" style="fill:#ffffff;opacity:0.8;stroke:#cccccc;stroke-linejoin:miter;"/>
    </g>
    <g id="line2d_39">
     <path d="M 342.8825 424.768125 
L 382.8825 424.768125 
" style="fill:none;stroke:#08ff00;stroke-linecap:square;stroke-width:2;"/>
    </g>
    <g id="line2d_40"/>
    <g id="text_14">
     <!-- $\epsilon=0.01$ -->
     <g transform="translate(398.8825 431.768125)scale(0.2 -0.2)">
      <defs>
       <path d="M 19.734375 29.5 
Q 14.453125 30.671875 12.15625 33.84375 
Q 10.453125 36.078125 10.453125 39.109375 
Q 10.453125 47.40625 18.359375 52.25 
Q 24.609375 56.0625 34.1875 56.0625 
Q 37.890625 56.0625 41.9375 55.46875 
Q 46 54.890625 50.53125 53.71875 
L 48.96875 45.5625 
Q 44.484375 46.96875 40.71875 47.609375 
Q 36.859375 48.25 33.40625 48.25 
Q 27.59375 48.25 23.78125 46 
Q 19.1875 43.3125 19.1875 39.40625 
Q 19.1875 36.8125 21.578125 35.015625 
Q 24.421875 32.859375 30.078125 32.859375 
L 37.640625 32.859375 
L 36.234375 25.4375 
L 29 25.4375 
Q 22.265625 25.4375 18.3125 22.953125 
Q 12.9375 19.578125 12.9375 14.3125 
Q 12.9375 10.984375 15.828125 8.796875 
Q 19.4375 6.0625 26.8125 6.0625 
Q 31.34375 6.0625 35.6875 6.9375 
Q 40.046875 7.859375 43.84375 9.671875 
L 42.1875 1.3125 
Q 37.546875 -0.046875 33.296875 -0.734375 
Q 29.046875 -1.421875 25.140625 -1.421875 
Q 13.53125 -1.421875 8.0625 3.03125 
Q 3.90625 6.453125 3.90625 12.203125 
Q 3.90625 19.96875 9.375 24.75 
Q 13.421875 28.328125 19.734375 29.5 
z
" id="DejaVuSans-Oblique-949"/>
       <path d="M 10.59375 45.40625 
L 73.1875 45.40625 
L 73.1875 37.203125 
L 10.59375 37.203125 
z
M 10.59375 25.484375 
L 73.1875 25.484375 
L 73.1875 17.1875 
L 10.59375 17.1875 
z
" id="DejaVuSans-61"/>
      </defs>
      <use transform="translate(0 0.78125)" xlink:href="#DejaVuSans-Oblique-949"/>
      <use transform="translate(73.535156 0.78125)" xlink:href="#DejaVuSans-61"/>
      <use transform="translate(176.806641 0.78125)" xlink:href="#DejaVuSans-48"/>
      <use transform="translate(240.429688 0.78125)" xlink:href="#DejaVuSans-46"/>
      <use transform="translate(272.216797 0.78125)" xlink:href="#DejaVuSans-48"/>
      <use transform="translate(335.839844 0.78125)" xlink:href="#DejaVuSans-49"/>
     </g>
    </g>
    <g id="line2d_41">
     <path d="M 342.8825 454.124375 
L 382.8825 454.124375 
" style="fill:none;stroke:#0010ff;stroke-linecap:square;stroke-width:2;"/>
    </g>
    <g id="line2d_42"/>
    <g id="text_15">
     <!-- $\epsilon=0.02$ -->
     <g transform="translate(398.8825 461.124375)scale(0.2 -0.2)">
      <use transform="translate(0 0.78125)" xlink:href="#DejaVuSans-Oblique-949"/>
      <use transform="translate(73.535156 0.78125)" xlink:href="#DejaVuSans-61"/>
      <use transform="translate(176.806641 0.78125)" xlink:href="#DejaVuSans-48"/>
      <use transform="translate(240.429688 0.78125)" xlink:href="#DejaVuSans-46"/>
      <use transform="translate(272.216797 0.78125)" xlink:href="#DejaVuSans-48"/>
      <use transform="translate(335.839844 0.78125)" xlink:href="#DejaVuSans-50"/>
     </g>
    </g>
    <g id="line2d_43">
     <path d="M 342.8825 483.480625 
L 382.8825 483.480625 
" style="fill:none;stroke:#ff0018;stroke-linecap:square;stroke-width:2;"/>
    </g>
    <g id="line2d_44"/>
    <g id="text_16">
     <!-- $\epsilon=0.03$ -->
     <g transform="translate(398.8825 490.480625)scale(0.2 -0.2)">
      <use transform="translate(0 0.78125)" xlink:href="#DejaVuSans-Oblique-949"/>
      <use transform="translate(73.535156 0.78125)" xlink:href="#DejaVuSans-61"/>
      <use transform="translate(176.806641 0.78125)" xlink:href="#DejaVuSans-48"/>
      <use transform="translate(240.429688 0.78125)" xlink:href="#DejaVuSans-46"/>
      <use transform="translate(272.216797 0.78125)" xlink:href="#DejaVuSans-48"/>
      <use transform="translate(335.839844 0.78125)" xlink:href="#DejaVuSans-51"/>
     </g>
    </g>
   </g>
  </g>
 </g>
 <defs>
  <clipPath id="pda61c5144f">
   <rect height="472.32" width="420.045" x="76.8375" y="40.32"/>
  </clipPath>
 </defs>
</svg>
