<?xml version="1.0" encoding="utf-8" standalone="no"?>
<!DOCTYPE svg PUBLIC "-//W3C//DTD SVG 1.1//EN"
  "http://www.w3.org/Graphics/SVG/1.1/DTD/svg11.dtd">
<!-- Created with matplotlib (https://matplotlib.org/) -->
<svg height="810pt" version="1.1" viewBox="0 0 720 810" width="720pt" xmlns="http://www.w3.org/2000/svg" xmlns:xlink="http://www.w3.org/1999/xlink">
 <metadata>
  <rdf:RDF xmlns:cc="http://creativecommons.org/ns#" xmlns:dc="http://purl.org/dc/elements/1.1/" xmlns:rdf="http://www.w3.org/1999/02/22-rdf-syntax-ns#">
   <cc:Work>
    <dc:type rdf:resource="http://purl.org/dc/dcmitype/StillImage"/>
    <dc:date>2021-01-12T10:34:44.124369</dc:date>
    <dc:format>image/svg+xml</dc:format>
    <dc:creator>
     <cc:Agent>
      <dc:title>Matplotlib v3.3.1, https://matplotlib.org/</dc:title>
     </cc:Agent>
    </dc:creator>
   </cc:Work>
  </rdf:RDF>
 </metadata>
 <defs>
  <style type="text/css">*{stroke-linecap:butt;stroke-linejoin:round;}</style>
 </defs>
 <g id="figure_1">
  <g id="patch_1">
   <path d="M 0 810 
L 720 810 
L 720 0 
L 0 0 
z
" style="fill:#ffffff;"/>
  </g>
  <g id="axes_1">
   <g id="patch_2">
    <path d="M 108 720.9 
L 698.4 720.9 
L 698.4 56.7 
L 108 56.7 
z
" style="fill:#ffffff;"/>
   </g>
   <g id="matplotlib.axis_1">
    <g id="xtick_1">
     <g id="line2d_1">
      <path clip-path="url(#pe8423b1fb8)" d="M 159.135452 720.9 
L 159.135452 56.7 
" style="fill:none;stroke:#e6e6e6;stroke-linecap:square;stroke-width:0.8;"/>
     </g>
     <g id="line2d_2">
      <defs>
       <path d="M 0 0 
L 0 -3.5 
" id="m7a66ffba50" style="stroke:#000000;stroke-width:0.8;"/>
      </defs>
      <g>
       <use style="stroke:#000000;stroke-width:0.8;" x="159.135452" xlink:href="#m7a66ffba50" y="720.9"/>
      </g>
     </g>
     <g id="text_1">
      <!-- $\mathdefault{0}$ -->
      <g transform="translate(155.477333 734.777725)scale(0.15 -0.15)">
       <defs>
        <path d="M 42 31.640625 
C 42 37.75 41.90625 48.125 37.703125 56.109375 
C 34 63.109375 28.09375 65.59375 22.90625 65.59375 
C 18.09375 65.59375 12 63.40625 8.203125 56.203125 
C 4.203125 48.71875 3.796875 39.4375 3.796875 31.640625 
C 3.796875 25.953125 3.90625 17.28125 7 9.671875 
C 11.296875 -0.609375 19 -2 22.90625 -2 
C 27.5 -2 34.5 -0.109375 38.59375 9.375 
C 41.59375 16.28125 42 24.359375 42 31.640625 
z
M 22.90625 -0.40625 
C 16.5 -0.40625 12.703125 5.078125 11.296875 12.6875 
C 10.203125 18.5625 10.203125 27.15625 10.203125 32.75 
C 10.203125 40.4375 10.203125 46.828125 11.5 52.921875 
C 13.40625 61.390625 19 64 22.90625 64 
C 27 64 32.296875 61.296875 34.203125 53.125 
C 35.5 47.4375 35.59375 40.734375 35.59375 32.75 
C 35.59375 26.25 35.59375 18.265625 34.40625 12.375 
C 32.296875 1.484375 26.40625 -0.40625 22.90625 -0.40625 
z
" id="CMR17-48"/>
       </defs>
       <use transform="scale(0.996264)" xlink:href="#CMR17-48"/>
      </g>
     </g>
    </g>
    <g id="xtick_2">
     <g id="line2d_3">
      <path clip-path="url(#pe8423b1fb8)" d="M 256.257348 720.9 
L 256.257348 56.7 
" style="fill:none;stroke:#e6e6e6;stroke-linecap:square;stroke-width:0.8;"/>
     </g>
     <g id="line2d_4">
      <g>
       <use style="stroke:#000000;stroke-width:0.8;" x="256.257348" xlink:href="#m7a66ffba50" y="720.9"/>
      </g>
     </g>
     <g id="text_2">
      <!-- $\mathdefault{1000}$ -->
      <g transform="translate(241.624873 734.777725)scale(0.15 -0.15)">
       <defs>
        <path d="M 26.59375 63.40625 
C 26.59375 65.5 26.5 65.5 25.09375 65.5 
C 21.203125 61.1875 15.296875 59.796875 9.703125 59.796875 
C 9.40625 59.796875 8.90625 59.796875 8.796875 59.5 
C 8.703125 59.296875 8.703125 59.09375 8.703125 57 
C 11.796875 57 17 57.59375 21 59.984375 
L 21 7.203125 
C 21 3.6875 20.796875 2.5 12.203125 2.5 
L 9.203125 2.5 
L 9.203125 0 
C 14 0 19 0 23.796875 0 
C 28.59375 0 33.59375 0 38.40625 0 
L 38.40625 2.5 
L 35.40625 2.5 
C 26.796875 2.5 26.59375 3.59375 26.59375 7.15625 
z
" id="CMR17-49"/>
       </defs>
       <use transform="scale(0.996264)" xlink:href="#CMR17-49"/>
       <use transform="translate(45.690477 0)scale(0.996264)" xlink:href="#CMR17-48"/>
       <use transform="translate(91.380954 0)scale(0.996264)" xlink:href="#CMR17-48"/>
       <use transform="translate(137.071431 0)scale(0.996264)" xlink:href="#CMR17-48"/>
      </g>
     </g>
    </g>
    <g id="xtick_3">
     <g id="line2d_5">
      <path clip-path="url(#pe8423b1fb8)" d="M 353.379245 720.9 
L 353.379245 56.7 
" style="fill:none;stroke:#e6e6e6;stroke-linecap:square;stroke-width:0.8;"/>
     </g>
     <g id="line2d_6">
      <g>
       <use style="stroke:#000000;stroke-width:0.8;" x="353.379245" xlink:href="#m7a66ffba50" y="720.9"/>
      </g>
     </g>
     <g id="text_3">
      <!-- $\mathdefault{2000}$ -->
      <g transform="translate(338.746769 734.777725)scale(0.15 -0.15)">
       <defs>
        <path d="M 41.703125 15.453125 
L 39.90625 15.453125 
C 38.90625 8.375 38.09375 7.171875 37.703125 6.5625 
C 37.203125 5.765625 30 5.765625 28.59375 5.765625 
L 9.40625 5.765625 
C 13 9.671875 20 16.75 28.5 24.953125 
C 34.59375 30.734375 41.703125 37.53125 41.703125 47.421875 
C 41.703125 59.21875 32.296875 66 21.796875 66 
C 10.796875 66 4.09375 56.3125 4.09375 47.34375 
C 4.09375 43.4375 7 42.9375 8.203125 42.9375 
C 9.203125 42.9375 12.203125 43.546875 12.203125 47.03125 
C 12.203125 50.109375 9.59375 51 8.203125 51 
C 7.59375 51 7 50.90625 6.59375 50.703125 
C 8.5 59.21875 14.296875 63.40625 20.40625 63.40625 
C 29.09375 63.40625 34.796875 56.515625 34.796875 47.421875 
C 34.796875 38.734375 29.703125 31.25 24 24.75 
L 4.09375 2.28125 
L 4.09375 0 
L 39.296875 0 
z
" id="CMR17-50"/>
       </defs>
       <use transform="scale(0.996264)" xlink:href="#CMR17-50"/>
       <use transform="translate(45.690477 0)scale(0.996264)" xlink:href="#CMR17-48"/>
       <use transform="translate(91.380954 0)scale(0.996264)" xlink:href="#CMR17-48"/>
       <use transform="translate(137.071431 0)scale(0.996264)" xlink:href="#CMR17-48"/>
      </g>
     </g>
    </g>
    <g id="xtick_4">
     <g id="line2d_7">
      <path clip-path="url(#pe8423b1fb8)" d="M 450.501141 720.9 
L 450.501141 56.7 
" style="fill:none;stroke:#e6e6e6;stroke-linecap:square;stroke-width:0.8;"/>
     </g>
     <g id="line2d_8">
      <g>
       <use style="stroke:#000000;stroke-width:0.8;" x="450.501141" xlink:href="#m7a66ffba50" y="720.9"/>
      </g>
     </g>
     <g id="text_4">
      <!-- $\mathdefault{3000}$ -->
      <g transform="translate(435.868666 734.777725)scale(0.15 -0.15)">
       <defs>
        <path d="M 22.09375 33.703125 
C 31 33.703125 34.90625 25.96875 34.90625 17.03125 
C 34.90625 5 28.5 0.390625 22.703125 0.390625 
C 17.40625 0.390625 8.796875 3.03125 6.09375 10.828125 
C 6.59375 10.625 7.09375 10.625 7.59375 10.625 
C 10 10.625 11.796875 12.21875 11.796875 14.8125 
C 11.796875 17.703125 9.59375 19 7.59375 19 
C 5.90625 19 3.296875 18.203125 3.296875 14.46875 
C 3.296875 5.234375 12.296875 -2 22.90625 -2 
C 34 -2 42.5 6.71875 42.5 16.953125 
C 42.5 26.671875 34.5 33.703125 25 34.796875 
C 32.59375 36.375 39.90625 43.0625 39.90625 52.015625 
C 39.90625 59.6875 32 65.296875 23 65.296875 
C 13.90625 65.296875 5.90625 59.828125 5.90625 52.015625 
C 5.90625 48.59375 8.5 48 9.796875 48 
C 11.90625 48 13.703125 49.296875 13.703125 51.890625 
C 13.703125 54.46875 11.90625 55.765625 9.796875 55.765625 
C 9.40625 55.765625 8.90625 55.765625 8.5 55.578125 
C 11.40625 61.859375 19.296875 63 22.796875 63 
C 26.296875 63 32.90625 61.328125 32.90625 51.875 
C 32.90625 49.109375 32.5 44.1875 29.09375 39.84375 
C 26.09375 36 22.703125 36 19.40625 35.6875 
C 18.90625 35.6875 16.59375 35.453125 16.203125 35.453125 
C 15.5 35.359375 15.09375 35.265625 15.09375 34.5 
C 15.09375 33.796875 15.203125 33.703125 17.203125 33.703125 
z
" id="CMR17-51"/>
       </defs>
       <use transform="scale(0.996264)" xlink:href="#CMR17-51"/>
       <use transform="translate(45.690477 0)scale(0.996264)" xlink:href="#CMR17-48"/>
       <use transform="translate(91.380954 0)scale(0.996264)" xlink:href="#CMR17-48"/>
       <use transform="translate(137.071431 0)scale(0.996264)" xlink:href="#CMR17-48"/>
      </g>
     </g>
    </g>
    <g id="xtick_5">
     <g id="line2d_9">
      <path clip-path="url(#pe8423b1fb8)" d="M 547.623038 720.9 
L 547.623038 56.7 
" style="fill:none;stroke:#e6e6e6;stroke-linecap:square;stroke-width:0.8;"/>
     </g>
     <g id="line2d_10">
      <g>
       <use style="stroke:#000000;stroke-width:0.8;" x="547.623038" xlink:href="#m7a66ffba50" y="720.9"/>
      </g>
     </g>
     <g id="text_5">
      <!-- $\mathdefault{4000}$ -->
      <g transform="translate(532.990562 734.777725)scale(0.15 -0.15)">
       <defs>
        <path d="M 33.59375 64.40625 
C 33.59375 66.5 33.5 66.5 31.703125 66.5 
L 2 19.59375 
L 2 17 
L 27.796875 17 
L 27.796875 7.140625 
C 27.796875 3.5 27.59375 2.5 20.59375 2.5 
L 18.703125 2.5 
L 18.703125 0 
C 21.90625 0 27.296875 0 30.703125 0 
C 34.09375 0 39.5 0 42.703125 0 
L 42.703125 2.5 
L 40.796875 2.5 
C 33.796875 2.5 33.59375 3.5 33.59375 7.140625 
L 33.59375 17 
L 43.796875 17 
L 43.796875 19.59375 
L 33.59375 19.59375 
z
M 28.09375 57.859375 
L 28.09375 19.59375 
L 4 19.59375 
z
" id="CMR17-52"/>
       </defs>
       <use transform="scale(0.996264)" xlink:href="#CMR17-52"/>
       <use transform="translate(45.690477 0)scale(0.996264)" xlink:href="#CMR17-48"/>
       <use transform="translate(91.380954 0)scale(0.996264)" xlink:href="#CMR17-48"/>
       <use transform="translate(137.071431 0)scale(0.996264)" xlink:href="#CMR17-48"/>
      </g>
     </g>
    </g>
    <g id="xtick_6">
     <g id="line2d_11">
      <path clip-path="url(#pe8423b1fb8)" d="M 644.744935 720.9 
L 644.744935 56.7 
" style="fill:none;stroke:#e6e6e6;stroke-linecap:square;stroke-width:0.8;"/>
     </g>
     <g id="line2d_12">
      <g>
       <use style="stroke:#000000;stroke-width:0.8;" x="644.744935" xlink:href="#m7a66ffba50" y="720.9"/>
      </g>
     </g>
     <g id="text_6">
      <!-- $\mathdefault{5000}$ -->
      <g transform="translate(630.112459 734.777725)scale(0.15 -0.15)">
       <defs>
        <path d="M 11.40625 57.6875 
C 12.40625 57.28125 16.5 56 20.703125 56 
C 30 56 35.09375 61.109375 38 64.0625 
C 38 64.953125 38 65.5 37.40625 65.5 
C 37.296875 65.5 37.09375 65.5 36.296875 65.046875 
C 32.796875 63.40625 28.703125 62.078125 23.703125 62.078125 
C 20.703125 62.078125 16.203125 62.484375 11.296875 64.671875 
C 10.203125 65.171875 10 65.171875 9.90625 65.171875 
C 9.40625 65.171875 9.296875 65.0625 9.296875 63.078125 
L 9.296875 34.421875 
C 9.296875 32.640625 9.296875 32.140625 10.296875 32.140625 
C 10.796875 32.140625 11 32.34375 11.5 33.03125 
C 14.703125 37.515625 19.09375 39.40625 24.09375 39.40625 
C 27.59375 39.40625 35.09375 37.21875 35.09375 20.140625 
C 35.09375 16.953125 35.09375 11.171875 32.09375 6.578125 
C 29.59375 2.484375 25.703125 0.390625 21.40625 0.390625 
C 14.796875 0.390625 8.09375 5 6.296875 12.71875 
C 6.703125 12.609375 7.5 12.421875 7.90625 12.421875 
C 9.203125 12.421875 11.703125 13.125 11.703125 16.21875 
C 11.703125 18.90625 9.796875 20 7.90625 20 
C 5.59375 20 4.09375 18.59375 4.09375 15.796875 
C 4.09375 7.09375 11 -2 21.59375 -2 
C 31.90625 -2 41.703125 6.875 41.703125 19.75 
C 41.703125 31.71875 33.90625 41 24.203125 41 
C 19.09375 41 14.796875 39.109375 11.40625 35.53125 
z
" id="CMR17-53"/>
       </defs>
       <use transform="scale(0.996264)" xlink:href="#CMR17-53"/>
       <use transform="translate(45.690477 0)scale(0.996264)" xlink:href="#CMR17-48"/>
       <use transform="translate(91.380954 0)scale(0.996264)" xlink:href="#CMR17-48"/>
       <use transform="translate(137.071431 0)scale(0.996264)" xlink:href="#CMR17-48"/>
      </g>
     </g>
    </g>
    <g id="text_7">
     <!-- $z(\AA)$ -->
     <g transform="translate(379.019452 763.384409)scale(0.25 -0.25)">
      <defs>
       <path d="M 12.703125 7.59375 
C 17 12.546875 20.5 15.6875 25.5 20.25 
C 31.5 25.5 34.09375 28.015625 35.5 29.546875 
C 42.5 36.53125 46 42.390625 46 43.1875 
C 46 44 45.203125 44 45 44 
C 44.296875 44 44.09375 43.640625 43.59375 42.96875 
C 41.09375 38.96875 38.703125 36.984375 36.09375 36.984375 
C 34 36.984375 32.90625 37.828125 31 40.078125 
C 28.90625 42.421875 27.203125 44 24.296875 44 
C 17 44 12.59375 35.265625 12.59375 33.25 
C 12.59375 32.9375 12.703125 32.3125 13.59375 32.3125 
C 14.40625 32.3125 14.5 32.671875 14.796875 33.328125 
C 16.5 37.0625 21.296875 37.71875 23.203125 37.71875 
C 25.296875 37.71875 27.296875 37.125 29.40625 36.359375 
C 33.203125 35 34.796875 35 35.796875 35 
C 36.5 35 36.90625 35 37.40625 35.09375 
C 34.09375 31.15625 28.703125 26.296875 24.203125 22.15625 
L 14.09375 12.75 
C 8 6.484375 4.296875 0.515625 4.296875 -0.1875 
C 4.296875 -0.796875 4.796875 -1 5.40625 -1 
C 6 -1 6.09375 -0.890625 6.796875 0.21875 
C 8.40625 2.546875 11.59375 6 15.296875 6 
C 17.40625 6 18.40625 5.34375 20.40625 3.015625 
C 22.296875 0.953125 24 -1 27.203125 -1 
C 37 -1 42.59375 11.4375 42.59375 13.6875 
C 42.59375 14.109375 42.5 14.71875 41.5 14.71875 
C 40.703125 14.71875 40.59375 14.328125 40.296875 13.359375 
C 38.09375 7.625 32.203125 5.28125 28.296875 5.28125 
C 26.203125 5.28125 24.203125 5.875 22.09375 6.640625 
C 18.09375 8 17 8 15.703125 8 
C 14.703125 8 13.59375 8 12.703125 7.59375 
z
" id="CMMI12-122"/>
       <path d="M 30.59375 -24.390625 
C 30.59375 -24.296875 30.59375 -24.09375 30.296875 -23.796875 
C 25.703125 -19.125 13.40625 -6.359375 13.40625 24.703125 
C 13.40625 55.765625 25.5 68.421875 30.40625 73.390625 
C 30.40625 73.5 30.59375 73.703125 30.59375 74 
C 30.59375 74.296875 30.296875 74.5 29.90625 74.5 
C 28.796875 74.5 20.296875 67.125 15.40625 56.15625 
C 10.40625 45.109375 9 34.359375 9 24.8125 
C 9 17.625 9.703125 5.484375 15.703125 -7.359375 
C 20.5 -17.734375 28.703125 -25 29.90625 -25 
C 30.40625 -25 30.59375 -24.796875 30.59375 -24.390625 
z
" id="CMR17-40"/>
       <path d="M 41.703125 60.75 
C 41.703125 65.3125 37.203125 69.46875 31.203125 69.46875 
C 25.203125 69.46875 20.703125 65.3125 20.703125 60.75 
C 20.703125 56.171875 25.203125 52 31.203125 52 
C 37.203125 52 41.703125 56.171875 41.703125 60.75 
z
M 31.203125 56.484375 
C 29 56.484375 26 57.171875 26 60.734375 
C 26 64.09375 28.703125 65 31.203125 65 
C 33.40625 65 36.40625 64.296875 36.40625 60.734375 
C 36.40625 57.375 33.703125 56.484375 31.203125 56.484375 
z
" id="CMSS17-23"/>
       <path d="M 17 10.796875 
C 13.5 4.90625 10.09375 2.90625 5.296875 2.90625 
C 4.203125 2.8125 3.40625 2.8125 3.40625 0.90625 
C 3.40625 0.375 3.90625 0 4.59375 0 
C 6.40625 0 10.90625 0 12.703125 0 
C 15.59375 0 18.796875 0 21.59375 0 
C 22.203125 0 23.40625 0 23.40625 1.90625 
C 23.40625 2.8125 22.59375 2.90625 22 2.90625 
C 19.703125 2.90625 17.796875 3.6875 17.796875 6.0625 
C 17.796875 7.4375 18.40625 8.53125 19.703125 10.703125 
L 27.296875 23.109375 
L 52.796875 23.109375 
C 52.90625 22.234375 52.90625 21.453125 53 20.5625 
C 53.296875 18 54.5 7.734375 54.5 5.875 
C 54.5 2.90625 49.40625 2.90625 47.796875 2.90625 
C 46.703125 2.90625 45.59375 2.90625 45.59375 1.09375 
C 45.59375 0 46.5 0 47.09375 0 
C 48.796875 0 50.796875 0 52.5 0 
L 58.203125 0 
C 64.296875 0 68.703125 0 68.796875 0 
C 69.5 0 70.59375 0 70.59375 1.90625 
C 70.59375 2.90625 69.703125 2.90625 68.203125 2.90625 
C 62.703125 2.90625 62.59375 3.8125 62.296875 6.78125 
L 56.203125 68.8125 
C 56 70.796875 55.59375 71 54.5 71 
C 53.5 71 52.90625 70.796875 52 69.296875 
z
M 29 26 
L 49.09375 59.671875 
L 52.5 26 
z
" id="CMMI12-65"/>
       <path d="M 26.296875 24.703125 
C 26.296875 31.875 25.59375 44.015625 19.59375 56.859375 
C 14.796875 67.234375 6.59375 74.5 5.40625 74.5 
C 5.09375 74.5 4.703125 74.390625 4.703125 73.890625 
C 4.703125 73.703125 4.796875 73.59375 4.90625 73.390625 
C 9.703125 68.40625 21.90625 55.75 21.90625 24.75 
C 21.90625 -6.359375 9.796875 -19.015625 4.90625 -24.015625 
C 4.796875 -24.203125 4.703125 -24.3125 4.703125 -24.5 
C 4.703125 -25 5.09375 -25 5.40625 -25 
C 6.5 -25 15 -17.625 19.90625 -6.65625 
C 24.90625 4.390625 26.296875 15.140625 26.296875 24.703125 
z
" id="CMR17-41"/>
      </defs>
      <use transform="scale(0.996264)" xlink:href="#CMMI12-122"/>
      <use transform="translate(49.755145 0)scale(0.996264)" xlink:href="#CMR17-40"/>
      <use transform="translate(85.035913 17.618744)scale(0.996264)" xlink:href="#CMSS17-23"/>
      <use transform="translate(85.035913 0)scale(0.996264)" xlink:href="#CMMI12-65"/>
      <use transform="translate(158.163798 0)scale(0.996264)" xlink:href="#CMR17-41"/>
     </g>
    </g>
   </g>
   <g id="matplotlib.axis_2">
    <g id="ytick_1">
     <g id="line2d_13">
      <path clip-path="url(#pe8423b1fb8)" d="M 108 663.26281 
L 698.4 663.26281 
" style="fill:none;stroke:#e6e6e6;stroke-linecap:square;stroke-width:0.8;"/>
     </g>
     <g id="line2d_14">
      <defs>
       <path d="M 0 0 
L 3.5 0 
" id="m41219f28b9" style="stroke:#000000;stroke-width:0.8;"/>
      </defs>
      <g>
       <use style="stroke:#000000;stroke-width:0.8;" x="108" xlink:href="#m41219f28b9" y="663.26281"/>
      </g>
     </g>
     <g id="text_8">
      <!-- $\mathdefault{0.0}$ -->
      <g transform="translate(85.802948 668.451672)scale(0.15 -0.15)">
       <defs>
        <path d="M 18.40625 4.796875 
C 18.40625 7.6875 16 9.671875 13.59375 9.671875 
C 10.703125 9.671875 8.703125 7.28125 8.703125 4.890625 
C 8.703125 2 11.09375 0 13.5 0 
C 16.40625 0 18.40625 2.390625 18.40625 4.796875 
z
" id="CMMI12-58"/>
       </defs>
       <use transform="scale(0.996264)" xlink:href="#CMR17-48"/>
       <use transform="translate(45.690477 0)scale(0.996264)" xlink:href="#CMMI12-58"/>
       <use transform="translate(72.787654 0)scale(0.996264)" xlink:href="#CMR17-48"/>
      </g>
     </g>
    </g>
    <g id="ytick_2">
     <g id="line2d_15">
      <path clip-path="url(#pe8423b1fb8)" d="M 108 553.475641 
L 698.4 553.475641 
" style="fill:none;stroke:#e6e6e6;stroke-linecap:square;stroke-width:0.8;"/>
     </g>
     <g id="line2d_16">
      <g>
       <use style="stroke:#000000;stroke-width:0.8;" x="108" xlink:href="#m41219f28b9" y="553.475641"/>
      </g>
     </g>
     <g id="text_9">
      <!-- $\mathdefault{0.2}$ -->
      <g transform="translate(85.802948 558.664503)scale(0.15 -0.15)">
       <use transform="scale(0.996264)" xlink:href="#CMR17-48"/>
       <use transform="translate(45.690477 0)scale(0.996264)" xlink:href="#CMMI12-58"/>
       <use transform="translate(72.787654 0)scale(0.996264)" xlink:href="#CMR17-50"/>
      </g>
     </g>
    </g>
    <g id="ytick_3">
     <g id="line2d_17">
      <path clip-path="url(#pe8423b1fb8)" d="M 108 443.688472 
L 698.4 443.688472 
" style="fill:none;stroke:#e6e6e6;stroke-linecap:square;stroke-width:0.8;"/>
     </g>
     <g id="line2d_18">
      <g>
       <use style="stroke:#000000;stroke-width:0.8;" x="108" xlink:href="#m41219f28b9" y="443.688472"/>
      </g>
     </g>
     <g id="text_10">
      <!-- $\mathdefault{0.4}$ -->
      <g transform="translate(85.802948 448.877335)scale(0.15 -0.15)">
       <use transform="scale(0.996264)" xlink:href="#CMR17-48"/>
       <use transform="translate(45.690477 0)scale(0.996264)" xlink:href="#CMMI12-58"/>
       <use transform="translate(72.787654 0)scale(0.996264)" xlink:href="#CMR17-52"/>
      </g>
     </g>
    </g>
    <g id="ytick_4">
     <g id="line2d_19">
      <path clip-path="url(#pe8423b1fb8)" d="M 108 333.901303 
L 698.4 333.901303 
" style="fill:none;stroke:#e6e6e6;stroke-linecap:square;stroke-width:0.8;"/>
     </g>
     <g id="line2d_20">
      <g>
       <use style="stroke:#000000;stroke-width:0.8;" x="108" xlink:href="#m41219f28b9" y="333.901303"/>
      </g>
     </g>
     <g id="text_11">
      <!-- $\mathdefault{0.6}$ -->
      <g transform="translate(85.802948 339.090166)scale(0.15 -0.15)">
       <defs>
        <path d="M 10.59375 34 
C 10.59375 57.65625 21.796875 63 28.296875 63 
C 30.40625 63 35.5 62.640625 37.5 59 
C 35.90625 59 32.90625 59 32.90625 55.515625 
C 32.90625 52.828125 35.09375 51.921875 36.5 51.921875 
C 37.40625 51.921875 40.09375 52.3125 40.09375 55.625 
C 40.09375 61.78125 35.09375 65.296875 28.203125 65.296875 
C 16.296875 65.296875 3.796875 52.96875 3.796875 31 
C 3.796875 3.953125 15.09375 -2 23.09375 -2 
C 32.796875 -2 42 6.671875 42 20.046875 
C 42 32.515625 33.90625 41.59375 23.703125 41.59375 
C 17.59375 41.59375 13.09375 37.609375 10.59375 30.625 
z
M 23.09375 0.390625 
C 10.796875 0.390625 10.796875 18.75 10.796875 22.4375 
C 10.796875 29.625 14.203125 40 23.5 40 
C 25.203125 40 30.09375 40 33.40625 33.125 
C 35.203125 29.21875 35.203125 25.140625 35.203125 20.140625 
C 35.203125 14.75 35.203125 10.78125 33.09375 6.78125 
C 30.90625 2.671875 27.703125 0.390625 23.09375 0.390625 
z
" id="CMR17-54"/>
       </defs>
       <use transform="scale(0.996264)" xlink:href="#CMR17-48"/>
       <use transform="translate(45.690477 0)scale(0.996264)" xlink:href="#CMMI12-58"/>
       <use transform="translate(72.787654 0)scale(0.996264)" xlink:href="#CMR17-54"/>
      </g>
     </g>
    </g>
    <g id="ytick_5">
     <g id="line2d_21">
      <path clip-path="url(#pe8423b1fb8)" d="M 108 224.114135 
L 698.4 224.114135 
" style="fill:none;stroke:#e6e6e6;stroke-linecap:square;stroke-width:0.8;"/>
     </g>
     <g id="line2d_22">
      <g>
       <use style="stroke:#000000;stroke-width:0.8;" x="108" xlink:href="#m41219f28b9" y="224.114135"/>
      </g>
     </g>
     <g id="text_12">
      <!-- $\mathdefault{0.8}$ -->
      <g transform="translate(85.802948 229.302997)scale(0.15 -0.15)">
       <defs>
        <path d="M 27.203125 35.375 
C 33.5 38.546875 39.90625 43.328125 39.90625 50.984375 
C 39.90625 60.015625 31.09375 65.296875 23 65.296875 
C 13.90625 65.296875 5.90625 58.734375 5.90625 49.6875 
C 5.90625 47.203125 6.5 42.921875 10.40625 39.140625 
C 11.40625 38.15625 15.59375 35.171875 18.296875 33.28125 
C 13.796875 30.984375 3.296875 25.53125 3.296875 14.59375 
C 3.296875 4.359375 13.09375 -2 22.796875 -2 
C 33.5 -2 42.5 5.65625 42.5 15.78125 
C 42.5 24.84375 36.40625 29.015625 32.40625 31.703125 
z
M 14.09375 44.09375 
C 13.296875 44.59375 9.296875 47.671875 9.296875 52.359375 
C 9.296875 58.421875 15.59375 63 22.796875 63 
C 30.703125 63 36.5 57.4375 36.5 50.96875 
C 36.5 41.703125 26.09375 36.421875 25.59375 36.421875 
C 25.5 36.421875 25.40625 36.421875 24.59375 37.03125 
z
M 32.5 23.734375 
C 34 22.640625 38.796875 19.375 38.796875 13.296875 
C 38.796875 5.953125 31.40625 0.390625 23 0.390625 
C 13.90625 0.390625 7 6.84375 7 14.6875 
C 7 22.546875 13.09375 29.09375 20 32.1875 
z
" id="CMR17-56"/>
       </defs>
       <use transform="scale(0.996264)" xlink:href="#CMR17-48"/>
       <use transform="translate(45.690477 0)scale(0.996264)" xlink:href="#CMMI12-58"/>
       <use transform="translate(72.787654 0)scale(0.996264)" xlink:href="#CMR17-56"/>
      </g>
     </g>
    </g>
    <g id="ytick_6">
     <g id="line2d_23">
      <path clip-path="url(#pe8423b1fb8)" d="M 108 114.326966 
L 698.4 114.326966 
" style="fill:none;stroke:#e6e6e6;stroke-linecap:square;stroke-width:0.8;"/>
     </g>
     <g id="line2d_24">
      <g>
       <use style="stroke:#000000;stroke-width:0.8;" x="108" xlink:href="#m41219f28b9" y="114.326966"/>
      </g>
     </g>
     <g id="text_13">
      <!-- $\mathdefault{1.0}$ -->
      <g transform="translate(85.802948 119.515828)scale(0.15 -0.15)">
       <use transform="scale(0.996264)" xlink:href="#CMR17-49"/>
       <use transform="translate(45.690477 0)scale(0.996264)" xlink:href="#CMMI12-58"/>
       <use transform="translate(72.787654 0)scale(0.996264)" xlink:href="#CMR17-48"/>
      </g>
     </g>
    </g>
    <g id="text_14">
     <!-- $I_b$ -->
     <g transform="translate(76.958413 397.80714)rotate(-90)scale(0.25 -0.25)">
      <defs>
       <path d="M 36.796875 60.625 
C 37.703125 64.109375 37.90625 65.109375 45.203125 65.109375 
C 47.40625 65.109375 48.203125 65.109375 48.203125 67 
C 48.203125 68 47.09375 68 46.796875 68 
C 45 68 42.796875 68 41 68 
L 28.703125 68 
C 26.703125 68 24.40625 68 22.40625 68 
C 21.59375 68 20.5 68 20.5 66.109375 
C 20.5 65.109375 21.296875 65.109375 23.296875 65.109375 
C 29.5 65.109375 29.5 64.3125 29.5 63.21875 
C 29.5 62.53125 29.296875 61.921875 29.09375 61.03125 
L 15.59375 7.375 
C 14.703125 3.890625 14.5 2.890625 7.203125 2.890625 
C 5 2.890625 4.09375 2.890625 4.09375 1 
C 4.09375 0 5.09375 0 5.59375 0 
C 7.40625 0 9.59375 0 11.40625 0 
L 23.703125 0 
C 25.703125 0 27.90625 0 29.90625 0 
C 30.703125 0 31.90625 0 31.90625 1.796875 
C 31.90625 2.890625 31.296875 2.890625 29.09375 2.890625 
C 22.90625 2.890625 22.90625 3.6875 22.90625 4.875 
C 22.90625 5.078125 22.90625 5.578125 23.296875 7.171875 
z
" id="CMMI12-73"/>
       <path d="M 23.09375 66.515625 
C 23.203125 66.921875 23.40625 67.515625 23.40625 68 
C 23.40625 69 22.40625 69 22.203125 69 
C 22.09375 69 18.5 68.640625 16.703125 68.390625 
C 15 68.390625 13.5 68.09375 11.703125 68.09375 
C 9.296875 67.890625 8.59375 67.796875 8.59375 66 
C 8.59375 65 9.59375 65 10.59375 65 
C 15.703125 65 15.703125 64.109375 15.703125 63.125 
C 15.703125 62.4375 14.90625 59.546875 14.5 57.75 
L 12.09375 48.203125 
C 11.09375 44.234375 5.40625 21.671875 5 19.875 
C 4.5 17.40625 4.5 15.703125 4.5 14.40625 
C 4.5 4.28125 10.203125 -1 16.703125 -1 
C 28.296875 -1 40.296875 13.875 40.296875 28.34375 
C 40.296875 37.515625 35.09375 44 27.59375 44 
C 22.40625 44 17.703125 39.71875 15.796875 37.71875 
z
M 16.796875 1 
C 13.59375 1 10.09375 3.390625 10.09375 11.171875 
C 10.09375 14.46875 10.40625 16.359375 12.203125 23.34375 
C 12.5 24.640625 14.09375 31.03125 14.5 32.328125 
C 14.703125 33.125 20.59375 42.015625 27.40625 42.015625 
C 31.796875 42.015625 33.796875 37.625 33.796875 32.4375 
C 33.796875 27.640625 31 16.359375 28.5 11.171875 
C 26 5.78125 21.40625 1 16.796875 1 
z
" id="CMMI12-98"/>
      </defs>
      <use transform="scale(0.996264)" xlink:href="#CMMI12-73"/>
      <use transform="translate(43.024176 -14.943915)scale(0.697382)" xlink:href="#CMMI12-98"/>
     </g>
    </g>
   </g>
   <g id="line2d_25">
    <path clip-path="url(#pe8423b1fb8)" d="M 159.233058 663.26269 
L 382.361055 663.262797 
L 476.258314 663.262698 
L 647.166942 663.262717 
L 647.166942 663.262717 
" style="fill:none;stroke:#0028ff;stroke-linecap:square;stroke-width:2;"/>
   </g>
   <g id="line2d_26">
    <path clip-path="url(#pe8423b1fb8)" d="M 159.233058 663.26215 
L 169.286507 663.261972 
L 182.658569 663.26259 
L 194.176113 663.261804 
L 207.938601 663.262445 
L 242.003199 663.262527 
L 281.436143 663.261705 
L 292.465655 663.261649 
L 304.861655 663.260943 
L 313.548615 663.260907 
L 424.42937 663.261555 
L 433.897181 663.262551 
L 441.608078 663.262208 
L 466.302472 663.260922 
L 483.676393 663.262125 
L 501.440739 663.262731 
L 515.008014 663.262001 
L 529.844172 663.262804 
L 552.29362 663.261976 
L 566.153715 663.262138 
L 572.400518 663.262283 
L 647.166942 663.260883 
L 647.166942 663.260883 
" style="fill:none;stroke:#00d4ff;stroke-linecap:square;stroke-width:2;"/>
   </g>
   <g id="line2d_27">
    <path clip-path="url(#pe8423b1fb8)" d="M 159.233058 663.260971 
L 161.478003 663.250677 
L 163.13731 663.261216 
L 165.382255 663.250197 
L 167.041562 663.261448 
L 169.384113 663.256692 
L 171.238633 663.242705 
L 172.89794 663.231133 
L 176.216554 663.259458 
L 178.266286 663.239173 
L 180.023199 663.262611 
L 184.708302 663.235429 
L 186.758034 663.25343 
L 188.514947 663.232771 
L 192.321593 663.233971 
L 204.619986 663.258154 
L 207.548175 663.25911 
L 209.695514 663.249684 
L 211.550034 663.25495 
L 213.50216 663.242838 
L 215.454286 663.255865 
L 217.406412 663.242165 
L 219.358537 663.25675 
L 221.40827 663.247039 
L 223.262789 663.257588 
L 225.312522 663.24602 
L 227.167041 663.25837 
L 229.31438 663.251071 
L 231.1689 663.254129 
L 233.121026 663.243826 
L 234.975545 663.259739 
L 237.22049 663.254939 
L 239.172616 663.243709 
L 241.027136 663.247635 
L 242.881655 663.256544 
L 244.833781 663.240379 
L 246.785907 663.257206 
L 248.738033 663.239255 
L 250.690159 663.257794 
L 252.739891 663.244158 
L 254.496805 663.261925 
L 257.913025 663.240918 
L 259.767545 663.260259 
L 261.914883 663.246536 
L 263.671797 663.260588 
L 265.916742 663.252693 
L 267.673655 663.255885 
L 269.528175 663.233286 
L 271.77312 663.241693 
L 273.432427 663.23258 
L 275.774978 663.235207 
L 277.727104 663.257255 
L 279.67923 663.235288 
L 281.533749 663.249965 
L 283.193056 663.261722 
L 285.633214 663.261192 
L 291.196773 663.251292 
L 292.758474 663.233409 
L 295.784269 663.242681 
L 297.443576 663.262767 
L 306.423355 663.258059 
L 308.473088 663.231849 
L 319.502599 663.260034 
L 322.723607 663.237003 
L 325.651796 663.236726 
L 327.701528 663.253977 
L 329.556048 663.236842 
L 331.703387 663.248561 
L 333.4603 663.236941 
L 335.705245 663.243444 
L 337.559765 663.247803 
L 339.316678 663.260792 
L 341.854442 663.262267 
L 346.63715 663.244383 
L 348.589276 663.254841 
L 350.541402 663.243632 
L 352.493528 663.255756 
L 354.445654 663.242812 
L 356.495386 663.250914 
L 358.349906 663.24191 
L 360.399638 663.251864 
L 362.254158 663.240932 
L 364.30389 663.252759 
L 366.15841 663.239918 
L 368.305748 663.247354 
L 370.160268 663.243864 
L 372.014788 663.259445 
L 374.162126 663.248816 
L 376.016646 663.255075 
L 377.871166 663.236751 
L 380.213717 663.237343 
L 383.337118 663.250629 
L 385.094032 663.258173 
L 387.143764 663.242634 
L 388.900677 663.262111 
L 392.414504 663.246303 
L 394.073811 663.262743 
L 400.223008 663.24444 
L 401.882315 663.262773 
L 409.593213 663.260035 
L 412.716614 663.24056 
L 414.473527 663.236497 
L 416.230441 663.262805 
L 422.379638 663.242708 
L 423.941338 663.260733 
L 428.236015 663.250084 
L 429.895323 663.229539 
L 441.412866 663.240151 
L 443.169779 663.239159 
L 444.926692 663.262737 
L 450.00222 663.259994 
L 453.223228 663.237069 
L 455.370566 663.262574 
L 460.250881 663.248425 
L 462.007795 663.25974 
L 464.155133 663.247866 
L 465.912047 663.260261 
L 468.156991 663.253653 
L 470.011511 663.250507 
L 471.866031 663.240839 
L 473.915763 663.251632 
L 475.770283 663.240434 
L 477.820015 663.252726 
L 479.674535 663.239965 
L 481.821873 663.247814 
L 483.676393 663.244347 
L 485.628519 663.254729 
L 487.580645 663.243455 
L 489.532771 663.255636 
L 491.484897 663.2425 
L 493.437023 663.256474 
L 495.486755 663.247196 
L 497.341275 663.257242 
L 499.391007 663.246029 
L 501.245526 663.257937 
L 503.295259 663.244824 
L 505.149778 663.258568 
L 507.297117 663.250123 
L 509.05403 663.25913 
L 511.201369 663.248984 
L 512.958282 663.259635 
L 515.105621 663.247856 
L 516.862534 663.260085 
L 519.107479 663.253724 
L 520.864392 663.255523 
L 522.718912 663.233738 
L 524.963857 663.242182 
L 526.72077 663.237701 
L 528.57529 663.261138 
L 530.917841 663.257765 
L 532.869967 663.236184 
L 534.822093 663.257239 
L 536.774219 663.236276 
L 538.726345 663.256734 
L 540.580865 663.243399 
L 542.240172 663.230081 
L 544.680329 663.231705 
L 549.170219 663.257546 
L 551.122345 663.234378 
L 553.074471 663.257175 
L 554.92899 663.24173 
L 556.588297 663.231041 
L 559.028455 663.230761 
L 564.884833 663.261044 
L 569.374723 663.235295 
L 571.326849 663.257445 
L 573.278974 663.236141 
L 575.2311 663.257066 
L 577.183226 663.237061 
L 579.135352 663.256652 
L 581.087478 663.238078 
L 582.941998 663.249643 
L 584.698911 663.258731 
L 586.748644 663.242362 
L 588.505557 663.262306 
L 592.11699 663.252819 
L 593.97151 663.250512 
L 595.728423 663.235773 
L 599.047037 663.259508 
L 601.194376 663.249145 
L 603.048895 663.255406 
L 605.001021 663.242296 
L 606.953147 663.256323 
L 608.905273 663.241716 
L 610.857399 663.257193 
L 612.907132 663.246689 
L 614.761651 663.258006 
L 616.811383 663.245779 
L 618.665903 663.258753 
L 620.813242 663.250846 
L 622.667761 663.25459 
L 624.619887 663.243817 
L 626.572013 663.255445 
L 628.524139 663.242776 
L 630.476265 663.256225 
L 632.428391 663.241703 
L 634.380517 663.25693 
L 636.332643 663.240604 
L 638.284769 663.257563 
L 640.236895 663.239482 
L 642.286627 663.252273 
L 644.043541 663.234701 
L 647.166942 663.261847 
L 647.166942 663.261847 
" style="fill:none;stroke:#7dff7a;stroke-linecap:square;stroke-width:2;"/>
   </g>
   <g id="line2d_28">
    <path clip-path="url(#pe8423b1fb8)" d="M 159.233058 114.33719 
L 159.916302 114.509726 
L 163.430129 115.620957 
L 166.358318 117.886798 
L 167.139168 118.598297 
L 171.04342 123.615917 
L 175.338097 131.202805 
L 177.192617 135.121044 
L 178.559105 137.877609 
L 179.437562 140.048067 
L 181.389688 144.690973 
L 182.951388 148.505229 
L 184.903514 153.744087 
L 186.660428 158.226897 
L 189.002979 164.810188 
L 190.759892 169.590765 
L 192.516806 174.68214 
L 195.152176 181.960445 
L 196.811483 186.457639 
L 198.666002 191.382423 
L 200.130097 195.343825 
L 204.034349 204.93548 
L 205.596049 208.251541 
L 206.767325 210.970102 
L 207.840994 213.22065 
L 212.330884 221.13735 
L 213.990191 223.438881 
L 215.06386 225.051591 
L 216.235136 226.285185 
L 217.796837 227.711001 
L 219.065719 228.977481 
L 220.041782 229.517832 
L 221.798695 230.268162 
L 222.677152 230.759202 
L 223.555608 230.850982 
L 224.141246 230.813786 
L 225.507734 230.674963 
L 226.67901 230.694653 
L 227.557467 230.302556 
L 229.216774 229.293882 
L 229.802411 229.019919 
L 230.485655 228.663408 
L 231.461718 227.729888 
L 234.58512 224.381505 
L 236.146821 221.96954 
L 237.708522 219.683915 
L 238.489372 218.460641 
L 242.49123 210.71568 
L 246.883514 200.551368 
L 249.128458 194.83965 
L 250.39734 191.651257 
L 253.03271 184.440334 
L 254.399199 180.77404 
L 256.74175 174.131719 
L 258.401057 169.605205 
L 260.450789 163.798508 
L 263.086159 156.589434 
L 264.355041 153.254292 
L 270.406631 138.398606 
L 272.065938 134.740026 
L 276.360616 126.59492 
L 278.410348 123.267179 
L 279.484017 121.67979 
L 283.583482 117.222888 
L 285.535608 115.965702 
L 286.609277 115.207788 
L 287.194915 114.957626 
L 291.00156 114.496107 
L 291.977623 114.901449 
L 293.539324 115.431996 
L 294.417781 115.75596 
L 295.003419 116.124715 
L 298.90767 119.703611 
L 303.104741 125.682715 
L 304.861655 128.88301 
L 306.03293 130.86713 
L 307.008993 132.88868 
L 308.765907 136.736933 
L 310.034788 139.348249 
L 311.108458 142.000933 
L 312.865371 146.277676 
L 314.134253 149.303909 
L 315.500741 153.0788 
L 317.160048 157.309471 
L 318.526536 161.024134 
L 320.478662 166.559376 
L 322.040363 170.693658 
L 328.287166 188.119322 
L 329.946473 192.355587 
L 332.289024 198.49632 
L 333.557906 201.471026 
L 336.290883 207.917749 
L 337.462158 210.356822 
L 339.902316 215.43424 
L 341.952048 219.004033 
L 343.22093 221.19008 
L 344.099386 222.36054 
L 344.977843 223.483174 
L 346.929969 226.118067 
L 347.906032 227.023085 
L 348.784489 227.703426 
L 350.443796 229.205298 
L 351.224646 229.693671 
L 351.90789 229.903996 
L 352.591134 230.084418 
L 354.152835 230.757344 
L 355.031292 230.865045 
L 355.714536 230.75463 
L 356.592993 230.547884 
L 357.861875 230.451739 
L 358.545119 230.243741 
L 359.423575 229.743557 
L 360.985276 228.668771 
L 362.351764 227.720014 
L 363.327827 226.677208 
L 364.889528 224.846011 
L 366.256016 223.236281 
L 367.427292 221.380874 
L 368.500961 219.630076 
L 369.965055 217.330503 
L 371.038725 215.255952 
L 373.28367 210.797066 
L 374.357339 208.518756 
L 379.042441 197.280676 
L 380.506536 193.543225 
L 382.263449 188.991595 
L 384.703607 182.330662 
L 386.558126 177.166234 
L 388.510252 171.75977 
L 390.462378 166.292124 
L 392.219291 161.466699 
L 394.269024 155.919243 
L 396.025937 151.289642 
L 397.880457 146.635081 
L 399.442158 142.644938 
L 402.370346 136.037319 
L 403.541622 133.54535 
L 405.493748 129.864541 
L 406.957842 126.983874 
L 407.836299 125.6903 
L 409.593213 122.990822 
L 410.764488 121.204668 
L 411.447732 120.448188 
L 412.911827 118.986518 
L 414.961559 116.830288 
L 418.670598 114.804908 
L 419.256236 114.77041 
L 420.427512 114.788231 
L 421.110756 114.691791 
L 421.891606 114.594768 
L 422.672456 114.694267 
L 423.453307 115.113191 
L 425.015008 115.811511 
L 425.698252 116.063259 
L 426.674315 116.717081 
L 430.578567 120.656537 
L 434.97085 127.393808 
L 436.434945 130.145071 
L 438.191858 133.363809 
L 439.753559 136.950457 
L 443.169779 144.872353 
L 445.121905 149.53659 
L 446.586 153.451896 
L 447.952488 157.187075 
L 450.295039 163.405267 
L 451.85674 167.874023 
L 454.199291 174.256397 
L 455.663385 178.477222 
L 458.591574 186.528992 
L 459.958062 190.129039 
L 462.105401 195.702821 
L 463.276676 198.770414 
L 467.864173 209.394153 
L 469.718692 213.206804 
L 470.889968 215.65211 
L 474.891826 222.342211 
L 478.600865 226.968446 
L 480.06496 228.068627 
L 481.431448 229.172225 
L 482.309905 229.871504 
L 483.090755 230.113484 
L 484.750062 230.548122 
L 486.409369 230.93883 
L 487.775857 230.56094 
L 489.044739 230.264907 
L 490.020802 230.064977 
L 490.704046 229.586647 
L 493.046597 227.804733 
L 493.925054 227.16385 
L 494.803511 226.077376 
L 496.267605 224.249905 
L 497.926912 222.213024 
L 499.683826 219.165241 
L 502.416802 214.379245 
L 504.661747 209.747757 
L 505.930629 207.082372 
L 508.565999 200.768862 
L 509.932487 197.462225 
L 511.982219 192.029544 
L 513.739133 187.507542 
L 515.886471 181.486102 
L 517.740991 176.470665 
L 519.595511 171.126712 
L 521.547636 165.888558 
L 523.30455 160.820072 
L 525.93992 153.815639 
L 527.404014 149.952864 
L 529.35614 145.221773 
L 530.917841 141.229221 
L 532.381936 138.123562 
L 533.650817 135.200731 
L 534.822093 132.647611 
L 535.993369 130.570001 
L 539.409589 124.524416 
L 540.776077 122.614315 
L 542.728203 119.823683 
L 543.801872 118.871811 
L 546.730061 116.131761 
L 550.341494 114.538517 
L 550.927132 114.550698 
L 551.805589 114.662779 
L 554.245746 114.803797 
L 554.92899 115.197787 
L 555.905053 115.797059 
L 556.978723 116.291264 
L 557.661967 116.69863 
L 558.540423 117.490825 
L 560.590156 119.696164 
L 561.371006 120.449728 
L 562.444675 121.915942 
L 564.592014 125.192206 
L 565.470471 126.506252 
L 566.54414 128.525846 
L 568.105841 131.590812 
L 569.862754 134.985852 
L 573.864612 144.174427 
L 578.452108 156.118266 
L 579.818596 159.818965 
L 582.161148 166.20913 
L 583.625242 170.355775 
L 585.870187 176.517296 
L 587.529494 181.226488 
L 590.067258 188.138701 
L 591.433746 191.801194 
L 598.266187 208.552196 
L 600.0231 212.048475 
L 600.901557 213.864831 
L 602.463258 217.018282 
L 603.732139 219.045296 
L 604.610596 220.45013 
L 606.074691 222.887031 
L 607.538785 224.672081 
L 608.417242 225.650067 
L 609.78373 227.337783 
L 610.662187 228.098646 
L 611.63825 228.702349 
L 612.321494 229.165637 
L 613.492769 230.051043 
L 614.27362 230.412045 
L 615.444895 230.584203 
L 616.128139 230.656936 
L 617.006596 230.918555 
L 617.885053 230.958076 
L 618.470691 230.82738 
L 619.446753 230.427029 
L 620.129998 230.193314 
L 621.008454 229.977308 
L 621.789305 229.584576 
L 622.374942 229.144218 
L 625.59595 226.344666 
L 627.255257 224.113257 
L 628.133714 223.00266 
L 629.207383 221.600309 
L 630.08584 220.155805 
L 632.330785 216.227732 
L 633.404454 214.270885 
L 637.796738 204.740598 
L 640.139289 199.069327 
L 641.505777 195.653917 
L 647.166942 180.20431 
L 647.166942 180.20431 
" style="fill:none;stroke:#ffe600;stroke-linecap:square;stroke-width:2;"/>
   </g>
   <g id="line2d_29">
    <path clip-path="url(#pe8423b1fb8)" d="M 159.233058 663.260971 
L 160.111515 663.113041 
L 161.185184 662.967998 
L 162.06364 663.113316 
L 163.13731 663.260992 
L 164.015766 663.113824 
L 165.089436 662.970181 
L 165.967892 663.114751 
L 167.041562 663.261002 
L 167.920018 663.115602 
L 168.993688 662.974499 
L 169.872144 663.117396 
L 170.945814 663.260948 
L 171.82427 663.11814 
L 172.89794 662.980869 
L 173.874003 663.143312 
L 174.850066 663.260767 
L 175.826129 663.099671 
L 176.802192 662.989138 
L 177.778254 663.147594 
L 178.754317 663.260364 
L 179.73038 663.104052 
L 180.706443 662.999049 
L 181.682506 663.152742 
L 182.658569 663.259642 
L 183.634632 663.108816 
L 184.610695 663.010468 
L 185.684365 663.177859 
L 186.660428 663.253295 
L 189.295798 663.127975 
L 190.467073 663.256798 
L 191.638349 663.085459 
L 192.614412 663.05014 
L 194.859357 663.204498 
L 196.421057 663.056514 
L 198.958821 663.172591 
L 200.227703 663.065493 
L 203.058286 663.142623 
L 204.229561 663.086292 
L 206.669719 663.182127 
L 208.036207 663.094489 
L 210.671577 663.165131 
L 211.940459 663.108407 
L 214.380616 663.182468 
L 215.844711 663.121524 
L 218.089656 663.195018 
L 219.651356 663.126716 
L 221.993908 663.184801 
L 223.458002 663.129409 
L 225.702947 663.193298 
L 227.362254 663.137007 
L 229.31438 663.210519 
L 231.1689 663.134283 
L 233.121026 663.211089 
L 234.975545 663.1281 
L 236.927671 663.213287 
L 238.782191 663.118443 
L 240.734317 663.217211 
L 242.588836 663.105418 
L 244.638569 663.211746 
L 246.395482 663.089643 
L 248.542821 663.206101 
L 250.202128 663.07186 
L 252.447073 663.200408 
L 254.008773 663.053176 
L 256.448931 663.17816 
L 257.815419 663.034736 
L 260.548395 663.133822 
L 261.622065 663.017844 
L 262.695734 663.183354 
L 263.671797 663.252253 
L 266.307167 663.122038 
L 267.478442 663.258312 
L 268.552112 663.077603 
L 269.430568 662.995868 
L 270.406631 663.160365 
L 271.382694 663.258346 
L 272.358757 663.091038 
L 273.33482 662.986791 
L 274.310883 663.157878 
L 275.286946 663.258272 
L 276.263009 663.085519 
L 277.239072 662.9793 
L 278.215135 663.155633 
L 279.191198 663.258147 
L 280.167261 663.081352 
L 281.143324 662.973611 
L 282.119387 663.15381 
L 283.09545 663.258033 
L 284.071513 663.078606 
L 285.047576 662.969862 
L 286.023639 663.152553 
L 286.999702 663.257964 
L 287.975765 663.077268 
L 288.854222 662.964086 
L 289.732678 663.105245 
L 290.806348 663.262067 
L 291.684804 663.123146 
L 292.758474 662.96453 
L 293.63693 663.105641 
L 294.7106 663.262071 
L 295.589056 663.124119 
L 296.662726 662.967124 
L 297.541182 663.107229 
L 298.614852 663.262066 
L 299.493308 663.125957 
L 300.566978 662.971867 
L 301.445434 663.110101 
L 302.519103 663.262001 
L 303.39756 663.128483 
L 304.471229 662.978612 
L 305.349686 663.114178 
L 306.423355 663.261805 
L 307.301812 663.131563 
L 308.375481 662.987216 
L 309.253938 663.119441 
L 310.327607 663.261395 
L 311.30367 663.114482 
L 312.37734 663.001668 
L 313.451009 663.186167 
L 314.329466 663.256577 
L 315.500741 663.063643 
L 316.379198 663.020713 
L 318.819355 663.178816 
L 320.185843 663.02642 
L 321.552332 663.237257 
L 322.430788 663.225178 
L 324.285308 663.057361 
L 326.33504 663.223134 
L 328.18956 663.071804 
L 330.239292 663.220119 
L 332.093812 663.086676 
L 334.143544 663.216021 
L 335.900457 663.09226 
L 338.145402 663.199263 
L 339.707103 663.099368 
L 342.049654 663.193188 
L 343.611355 663.113499 
L 345.8563 663.196403 
L 347.515607 663.126915 
L 349.565339 663.20661 
L 351.419859 663.13935 
L 353.274379 663.21397 
L 355.226504 663.141819 
L 357.081024 663.212736 
L 359.03315 663.142096 
L 360.88767 663.212184 
L 362.839796 663.139473 
L 364.694315 663.212966 
L 366.646441 663.133479 
L 368.500961 663.215349 
L 370.453087 663.123993 
L 372.307607 663.219499 
L 374.259733 663.11113 
L 376.114252 663.225206 
L 378.163985 663.106365 
L 379.920898 663.232166 
L 382.068236 663.100729 
L 383.727544 663.23979 
L 386.070095 663.10975 
L 387.534189 663.247382 
L 390.071953 663.121915 
L 391.340835 663.254276 
L 392.609717 663.051307 
L 393.488173 663.038288 
L 395.635512 663.207196 
L 397.294819 663.0186 
L 399.734976 663.166137 
L 401.003858 662.994825 
L 401.979921 663.150727 
L 402.955984 663.259984 
L 403.932047 663.09642 
L 404.90811 662.98585 
L 405.884173 663.148108 
L 406.860236 663.260034 
L 407.836299 663.091229 
L 408.812362 662.978608 
L 409.788425 663.145849 
L 410.764488 663.260012 
L 411.740551 663.087352 
L 412.716614 662.973177 
L 413.692677 663.144079 
L 414.66874 663.259979 
L 415.547197 663.108096 
L 416.52326 662.966709 
L 417.401716 663.096808 
L 418.475386 663.262699 
L 419.353842 663.13066 
L 420.427512 662.965324 
L 421.305968 663.096345 
L 422.379638 663.2627 
L 423.258094 663.130788 
L 424.331764 662.966077 
L 425.21022 663.097104 
L 426.28389 663.262705 
L 427.162346 663.131857 
L 428.236015 662.969007 
L 429.114472 663.09917 
L 430.188141 663.262688 
L 431.066598 663.133679 
L 432.140267 662.973977 
L 433.018724 663.102532 
L 434.19 663.259939 
L 435.166063 663.091531 
L 436.142126 662.984238 
L 437.118189 663.150882 
L 438.094252 663.259699 
L 439.070315 663.095774 
L 440.046378 662.993056 
L 441.120047 663.175593 
L 441.998504 663.259205 
L 442.974566 663.100578 
L 443.950629 663.003556 
L 445.024299 663.179954 
L 446.000362 663.252442 
L 448.538125 663.108789 
L 449.807007 663.256994 
L 450.978283 663.07657 
L 451.85674 663.03512 
L 454.394503 663.168578 
L 455.663385 663.042417 
L 458.493968 663.136089 
L 459.567637 663.056871 
L 462.300614 663.153614 
L 463.471889 663.071616 
L 466.107259 663.167599 
L 467.376141 663.086309 
L 469.913905 663.177906 
L 471.280393 663.100709 
L 473.72055 663.184644 
L 475.184645 663.114491 
L 477.42959 663.19873 
L 479.088897 663.127481 
L 481.138629 663.208374 
L 482.993149 663.139438 
L 484.945275 663.207265 
L 486.799794 663.141309 
L 488.654314 663.214507 
L 490.60644 663.140731 
L 492.46096 663.214364 
L 494.413086 663.137001 
L 496.267605 663.215589 
L 498.219731 663.129872 
L 500.074251 663.218477 
L 502.026377 663.11916 
L 503.880897 663.222992 
L 505.930629 663.116332 
L 507.687542 663.228998 
L 509.737274 663.099745 
L 511.494188 663.235981 
L 513.739133 663.107536 
L 515.300833 663.243458 
L 517.740991 663.118746 
L 519.107479 663.250581 
L 521.742849 663.132666 
L 522.914125 663.256596 
L 524.0854 663.071174 
L 524.963857 663.020963 
L 527.501621 663.158493 
L 528.770503 663.003914 
L 529.844172 663.185786 
L 530.722628 663.256868 
L 531.796298 663.069924 
L 532.674754 662.994148 
L 533.748424 663.184211 
L 534.62688 663.256752 
L 535.70055 663.062709 
L 536.579006 662.985791 
L 537.555069 663.161718 
L 538.433526 663.261386 
L 539.311983 663.122577 
L 540.385652 662.974666 
L 541.264109 663.114451 
L 542.337778 663.261377 
L 543.216235 663.119531 
L 544.289904 662.969646 
L 545.168361 663.112226 
L 546.24203 663.261343 
L 547.120487 663.117645 
L 548.194156 662.966644 
L 549.072613 663.110884 
L 550.146282 663.261328 
L 551.024739 663.116908 
L 552.098408 662.965814 
L 552.976864 663.110632 
L 554.050534 663.261334 
L 554.92899 663.117235 
L 556.00266 662.967112 
L 556.881116 663.111474 
L 557.954786 663.26135 
L 558.833242 663.118564 
L 559.906912 662.970598 
L 560.785368 663.113542 
L 561.859038 663.261335 
L 562.737494 663.120725 
L 563.811164 662.976101 
L 564.68962 663.116795 
L 565.76329 663.261228 
L 566.739352 663.101736 
L 567.715415 662.983568 
L 568.593872 663.12123 
L 569.667541 663.260952 
L 570.643604 663.105844 
L 571.619667 662.992834 
L 572.59573 663.148041 
L 573.571793 663.26041 
L 574.547856 663.110358 
L 575.523919 663.003665 
L 576.499982 663.1537 
L 577.476045 663.259498 
L 578.549715 663.096446 
L 579.525778 663.020696 
L 582.258754 663.137894 
L 583.332423 663.029079 
L 584.406092 663.184558 
L 585.382155 663.250948 
L 588.017525 663.140866 
L 589.188801 663.253371 
L 592.214596 663.197171 
L 593.288266 663.236413 
L 595.53321 663.119395 
L 597.094911 663.239405 
L 599.535069 663.146242 
L 600.999163 663.233536 
L 603.341714 663.147141 
L 604.805809 663.233551 
L 607.245966 663.16062 
L 608.710061 663.226073 
L 610.955006 663.152889 
L 612.614313 663.217601 
L 614.664045 663.146764 
L 616.420958 663.216256 
L 618.470691 663.14862 
L 620.227604 663.215253 
L 622.277336 663.148043 
L 624.034249 663.215267 
L 626.083982 663.144483 
L 627.840895 663.216709 
L 629.793021 663.127933 
L 631.745147 663.210221 
L 633.50206 663.108556 
L 635.649399 663.203404 
L 637.308706 663.093768 
L 639.456045 663.209384 
L 641.212958 663.086036 
L 643.26269 663.217036 
L 645.11721 663.077626 
L 647.069336 663.226133 
L 647.166942 663.213046 
L 647.166942 663.213046 
" style="fill:none;stroke:#ff4700;stroke-linecap:square;stroke-width:2;"/>
   </g>
   <g id="line2d_30">
    <path clip-path="url(#pe8423b1fb8)" d="M 159.233058 663.26215 
L 160.50194 663.135785 
L 161.868428 662.767314 
L 163.13731 662.192327 
L 164.601404 661.266531 
L 166.065499 660.085478 
L 167.529593 658.593452 
L 169.481719 656.246489 
L 171.04342 654.01305 
L 173.385971 650.189793 
L 175.142884 646.907359 
L 178.16868 640.650463 
L 181.096869 633.838927 
L 183.244207 628.433273 
L 188.417341 614.657224 
L 194.566538 597.546499 
L 196.811483 591.412638 
L 201.594191 578.934986 
L 204.815199 571.231509 
L 208.036207 564.319544 
L 210.964396 558.836597 
L 212.42849 556.564393 
L 215.259073 552.58381 
L 216.91838 550.868137 
L 219.260931 548.75237 
L 220.920238 547.880201 
L 223.165183 547.004139 
L 224.629278 546.979987 
L 226.874222 547.214948 
L 228.045498 547.752671 
L 230.583262 549.26358 
L 231.656931 550.254414 
L 233.999482 552.753745 
L 234.975545 553.986136 
L 237.806128 558.267144 
L 238.879797 560.072794 
L 242.198411 566.481789 
L 243.955325 570.376819 
L 248.054789 580.178943 
L 254.10638 596.185223 
L 265.819135 628.213934 
L 269.332962 636.865603 
L 272.846789 644.615485 
L 275.774978 650.218898 
L 277.531891 653.114684 
L 279.67923 656.267321 
L 281.240931 658.17413 
L 283.09545 660.088344 
L 284.559545 661.285058 
L 286.121245 662.245114 
L 287.487734 662.83978 
L 288.756615 663.157103 
L 290.025497 663.2628 
L 291.294379 663.15105 
L 292.660867 662.792802 
L 294.027356 662.191635 
L 295.393844 661.324061 
L 296.955544 660.065634 
L 298.322033 658.70043 
L 300.078946 656.58968 
L 301.835859 654.160336 
L 303.787985 650.979111 
L 305.935324 647.098373 
L 308.765907 641.249159 
L 310.620426 637.027959 
L 314.231859 628.175918 
L 319.112174 615.115076 
L 325.749402 596.717288 
L 328.384772 589.521918 
L 334.924394 572.916016 
L 336.486095 569.474898 
L 340.487953 561.375432 
L 344.294599 555.137247 
L 347.808426 550.807403 
L 351.12704 548.123133 
L 352.005497 547.774176 
L 353.176772 547.317561 
L 354.250441 546.999465 
L 355.714536 546.952881 
L 359.03315 547.735397 
L 359.911607 548.323558 
L 361.278095 549.210229 
L 362.449371 550.135409 
L 363.327827 551.023722 
L 366.744048 555.216169 
L 367.915323 557.125493 
L 371.721969 563.86114 
L 376.504677 574.250571 
L 378.944835 580.144977 
L 386.558126 600.561515 
L 392.51211 617.158577 
L 397.587638 630.478583 
L 401.199071 639.140855 
L 404.517685 646.211784 
L 407.250661 651.256229 
L 409.007575 654.046093 
L 411.25252 657.164676 
L 412.81422 658.942938 
L 414.571134 660.609821 
L 415.937622 661.633872 
L 417.401716 662.444142 
L 418.768205 662.963846 
L 420.037086 663.214993 
L 421.305968 663.251735 
L 422.57485 663.071207 
L 423.941338 662.635835 
L 425.307827 661.965349 
L 426.674315 661.027601 
L 428.333622 659.587673 
L 429.797716 658.03026 
L 431.55463 655.784506 
L 433.409149 653.083847 
L 435.263669 649.924519 
L 437.508614 645.726065 
L 440.143984 640.138007 
L 441.998504 635.864173 
L 445.51233 627.15728 
L 450.197433 614.56292 
L 455.468173 599.890679 
L 458.591574 591.250432 
L 461.226944 584.327875 
L 463.862314 577.641528 
L 467.376141 569.393006 
L 472.061243 560.097951 
L 474.79422 555.563576 
L 478.015228 551.439144 
L 478.893684 550.561023 
L 482.309905 547.930393 
L 483.090755 547.646632 
L 484.554849 547.202654 
L 486.409369 546.859188 
L 487.580645 547.080092 
L 489.727983 547.64438 
L 490.508834 548.043987 
L 492.656172 549.654337 
L 494.510692 551.317852 
L 497.829306 555.502569 
L 499.000582 557.391453 
L 501.831164 562.240626 
L 503.685684 566.038379 
L 506.613873 572.412944 
L 510.030093 580.648035 
L 515.300833 594.73634 
L 525.256676 622.143902 
L 528.868109 631.495377 
L 532.577148 640.272395 
L 535.895762 647.208234 
L 538.531132 651.924802 
L 540.190439 654.516337 
L 542.435384 657.533246 
L 543.997085 659.270867 
L 545.753998 660.853701 
L 547.218093 661.890837 
L 548.584581 662.582652 
L 549.951069 663.042214 
L 551.219951 663.243816 
L 552.488833 663.228342 
L 553.757715 662.997697 
L 555.026597 662.545162 
L 556.393085 661.837161 
L 557.661967 660.950626 
L 559.223668 659.562483 
L 560.785368 657.907302 
L 562.347069 655.901819 
L 564.494408 652.752255 
L 566.153715 649.911878 
L 568.789085 644.922727 
L 570.838817 640.505766 
L 573.278974 634.91929 
L 577.573652 624.037393 
L 585.382155 602.587331 
L 588.115132 595.059233 
L 594.947573 577.068723 
L 598.754218 568.260916 
L 601.87762 561.922281 
L 603.536927 559.040031 
L 606.855541 553.939984 
L 609.490911 550.820858 
L 610.662187 549.742639 
L 611.931069 548.88321 
L 612.614313 548.361287 
L 613.590376 547.748632 
L 614.761651 547.309755 
L 615.83532 547.15639 
L 616.420958 547.014209 
L 617.397021 546.880802 
L 618.470691 547.000128 
L 619.54436 547.373839 
L 620.422816 547.655658 
L 621.301273 548.002795 
L 622.472549 548.748134 
L 624.912706 550.837605 
L 626.083982 552.089 
L 627.255257 553.635279 
L 630.671478 558.673865 
L 634.380517 565.594324 
L 638.382375 574.486365 
L 642.872265 585.836641 
L 647.166942 597.506323 
L 647.166942 597.506323 
" style="fill:none;stroke:#800000;stroke-linecap:square;stroke-width:2;"/>
   </g>
   <g id="patch_3">
    <path d="M 108 720.9 
L 108 56.7 
" style="fill:none;stroke:#000000;stroke-linecap:square;stroke-linejoin:miter;stroke-width:0.8;"/>
   </g>
   <g id="patch_4">
    <path d="M 698.4 720.9 
L 698.4 56.7 
" style="fill:none;stroke:#000000;stroke-linecap:square;stroke-linejoin:miter;stroke-width:0.8;"/>
   </g>
   <g id="patch_5">
    <path d="M 108 720.9 
L 698.4 720.9 
" style="fill:none;stroke:#000000;stroke-linecap:square;stroke-linejoin:miter;stroke-width:0.8;"/>
   </g>
   <g id="patch_6">
    <path d="M 108 56.7 
L 698.4 56.7 
" style="fill:none;stroke:#000000;stroke-linecap:square;stroke-linejoin:miter;stroke-width:0.8;"/>
   </g>
   <g id="legend_1">
    <g id="patch_7">
     <path d="M 579.797863 479.726879 
L 684.4 479.726879 
Q 688.4 479.726879 688.4 475.726879 
L 688.4 301.873121 
Q 688.4 297.873121 684.4 297.873121 
L 579.797863 297.873121 
Q 575.797863 297.873121 575.797863 301.873121 
L 575.797863 475.726879 
Q 575.797863 479.726879 579.797863 479.726879 
z
" style="fill:#ffffff;opacity:0.8;stroke:#cccccc;stroke-linejoin:miter;"/>
    </g>
    <g id="line2d_31">
     <path d="M 583.797863 314.069996 
L 623.797863 314.069996 
" style="fill:none;stroke:#0028ff;stroke-linecap:square;stroke-width:2;"/>
    </g>
    <g id="line2d_32"/>
    <g id="text_15">
     <!-- $-30_{0}$ -->
     <g transform="translate(639.797863 321.069996)scale(0.2 -0.2)">
      <defs>
       <path d="M 65.90625 23 
C 67.59375 23 69.40625 23 69.40625 25 
C 69.40625 27 67.59375 27 65.90625 27 
L 11.796875 27 
C 10.09375 27 8.296875 27 8.296875 25 
C 8.296875 23 10.09375 23 11.796875 23 
z
" id="CMSY10-0"/>
      </defs>
      <use transform="scale(0.996264)" xlink:href="#CMSY10-0"/>
      <use transform="translate(77.487468 0)scale(0.996264)" xlink:href="#CMR17-51"/>
      <use transform="translate(123.177945 0)scale(0.996264)" xlink:href="#CMR17-48"/>
      <use transform="translate(168.868422 -14.943915)scale(0.697382)" xlink:href="#CMR17-48"/>
     </g>
    </g>
    <g id="line2d_33">
     <path d="M 583.797863 343.426246 
L 623.797863 343.426246 
" style="fill:none;stroke:#00d4ff;stroke-linecap:square;stroke-width:2;"/>
    </g>
    <g id="line2d_34"/>
    <g id="text_16">
     <!-- $-20_{0}$ -->
     <g transform="translate(639.797863 350.426246)scale(0.2 -0.2)">
      <use transform="scale(0.996264)" xlink:href="#CMSY10-0"/>
      <use transform="translate(77.487468 0)scale(0.996264)" xlink:href="#CMR17-50"/>
      <use transform="translate(123.177945 0)scale(0.996264)" xlink:href="#CMR17-48"/>
      <use transform="translate(168.868422 -14.943915)scale(0.697382)" xlink:href="#CMR17-48"/>
     </g>
    </g>
    <g id="line2d_35">
     <path d="M 583.797863 372.782496 
L 623.797863 372.782496 
" style="fill:none;stroke:#7dff7a;stroke-linecap:square;stroke-width:2;"/>
    </g>
    <g id="line2d_36"/>
    <g id="text_17">
     <!-- $-10_{0}$ -->
     <g transform="translate(639.797863 379.782496)scale(0.2 -0.2)">
      <use transform="scale(0.996264)" xlink:href="#CMSY10-0"/>
      <use transform="translate(77.487468 0)scale(0.996264)" xlink:href="#CMR17-49"/>
      <use transform="translate(123.177945 0)scale(0.996264)" xlink:href="#CMR17-48"/>
      <use transform="translate(168.868422 -14.943915)scale(0.697382)" xlink:href="#CMR17-48"/>
     </g>
    </g>
    <g id="line2d_37">
     <path d="M 583.797863 402.138746 
L 623.797863 402.138746 
" style="fill:none;stroke:#ffe600;stroke-linecap:square;stroke-width:2;"/>
    </g>
    <g id="line2d_38"/>
    <g id="text_18">
     <!-- $0_{0}$ -->
     <g transform="translate(639.797863 409.138746)scale(0.2 -0.2)">
      <use transform="scale(0.996264)" xlink:href="#CMR17-48"/>
      <use transform="translate(45.690477 -14.943915)scale(0.697382)" xlink:href="#CMR17-48"/>
     </g>
    </g>
    <g id="line2d_39">
     <path d="M 583.797863 431.494996 
L 623.797863 431.494996 
" style="fill:none;stroke:#ff4700;stroke-linecap:square;stroke-width:2;"/>
    </g>
    <g id="line2d_40"/>
    <g id="text_19">
     <!-- $10_{0}$ -->
     <g transform="translate(639.797863 438.494996)scale(0.2 -0.2)">
      <use transform="scale(0.996264)" xlink:href="#CMR17-49"/>
      <use transform="translate(45.690477 0)scale(0.996264)" xlink:href="#CMR17-48"/>
      <use transform="translate(91.380954 -14.943915)scale(0.697382)" xlink:href="#CMR17-48"/>
     </g>
    </g>
    <g id="line2d_41">
     <path d="M 583.797863 460.851246 
L 623.797863 460.851246 
" style="fill:none;stroke:#800000;stroke-linecap:square;stroke-width:2;"/>
    </g>
    <g id="line2d_42"/>
    <g id="text_20">
     <!-- $20_{0}$ -->
     <g transform="translate(639.797863 467.851246)scale(0.2 -0.2)">
      <use transform="scale(0.996264)" xlink:href="#CMR17-50"/>
      <use transform="translate(45.690477 0)scale(0.996264)" xlink:href="#CMR17-48"/>
      <use transform="translate(91.380954 -14.943915)scale(0.697382)" xlink:href="#CMR17-48"/>
     </g>
    </g>
   </g>
  </g>
 </g>
 <defs>
  <clipPath id="pe8423b1fb8">
   <rect height="664.2" width="590.4" x="108" y="56.7"/>
  </clipPath>
 </defs>
</svg>
