<?xml version="1.0" encoding="utf-8" standalone="no"?>
<!DOCTYPE svg PUBLIC "-//W3C//DTD SVG 1.1//EN"
  "http://www.w3.org/Graphics/SVG/1.1/DTD/svg11.dtd">
<!-- Created with matplotlib (https://matplotlib.org/) -->
<svg height="576pt" version="1.1" viewBox="0 0 512.25 576" width="512.25pt" xmlns="http://www.w3.org/2000/svg" xmlns:xlink="http://www.w3.org/1999/xlink">
 <metadata>
  <rdf:RDF xmlns:cc="http://creativecommons.org/ns#" xmlns:dc="http://purl.org/dc/elements/1.1/" xmlns:rdf="http://www.w3.org/1999/02/22-rdf-syntax-ns#">
   <cc:Work>
    <dc:type rdf:resource="http://purl.org/dc/dcmitype/StillImage"/>
    <dc:date>2020-09-14T13:52:22.304632</dc:date>
    <dc:format>image/svg+xml</dc:format>
    <dc:creator>
     <cc:Agent>
      <dc:title>Matplotlib v3.3.1, https://matplotlib.org/</dc:title>
     </cc:Agent>
    </dc:creator>
   </cc:Work>
  </rdf:RDF>
 </metadata>
 <defs>
  <style type="text/css">*{stroke-linecap:butt;stroke-linejoin:round;}</style>
 </defs>
 <g id="figure_1">
  <g id="patch_1">
   <path d="M 0 576 
L 512.25 576 
L 512.25 0 
L 0 0 
z
" style="fill:#ffffff;"/>
  </g>
  <g id="axes_1">
   <g id="patch_2">
    <path d="M 76.8375 512.64 
L 496.8825 512.64 
L 496.8825 40.32 
L 76.8375 40.32 
z
" style="fill:#ffffff;"/>
   </g>
   <g id="matplotlib.axis_1">
    <g id="xtick_1">
     <g id="line2d_1">
      <path clip-path="url(#p78e57e3c9f)" d="M 76.8375 512.64 
L 76.8375 40.32 
" style="fill:none;stroke:#e6e6e6;stroke-linecap:square;stroke-width:0.8;"/>
     </g>
     <g id="line2d_2">
      <defs>
       <path d="M 0 0 
L 0 -3.5 
" id="m9af22f9086" style="stroke:#000000;stroke-width:0.8;"/>
      </defs>
      <g>
       <use style="stroke:#000000;stroke-width:0.8;" x="76.8375" xlink:href="#m9af22f9086" y="512.64"/>
      </g>
     </g>
     <g id="text_1">
      <!-- 0.0 -->
      <g transform="translate(64.910156 527.537656)scale(0.15 -0.15)">
       <defs>
        <path d="M 31.78125 66.40625 
Q 24.171875 66.40625 20.328125 58.90625 
Q 16.5 51.421875 16.5 36.375 
Q 16.5 21.390625 20.328125 13.890625 
Q 24.171875 6.390625 31.78125 6.390625 
Q 39.453125 6.390625 43.28125 13.890625 
Q 47.125 21.390625 47.125 36.375 
Q 47.125 51.421875 43.28125 58.90625 
Q 39.453125 66.40625 31.78125 66.40625 
z
M 31.78125 74.21875 
Q 44.046875 74.21875 50.515625 64.515625 
Q 56.984375 54.828125 56.984375 36.375 
Q 56.984375 17.96875 50.515625 8.265625 
Q 44.046875 -1.421875 31.78125 -1.421875 
Q 19.53125 -1.421875 13.0625 8.265625 
Q 6.59375 17.96875 6.59375 36.375 
Q 6.59375 54.828125 13.0625 64.515625 
Q 19.53125 74.21875 31.78125 74.21875 
z
" id="DejaVuSans-48"/>
        <path d="M 10.6875 12.40625 
L 21 12.40625 
L 21 0 
L 10.6875 0 
z
" id="DejaVuSans-46"/>
       </defs>
       <use xlink:href="#DejaVuSans-48"/>
       <use x="63.623047" xlink:href="#DejaVuSans-46"/>
       <use x="95.410156" xlink:href="#DejaVuSans-48"/>
      </g>
     </g>
    </g>
    <g id="xtick_2">
     <g id="line2d_3">
      <path clip-path="url(#p78e57e3c9f)" d="M 160.014728 512.64 
L 160.014728 40.32 
" style="fill:none;stroke:#e6e6e6;stroke-linecap:square;stroke-width:0.8;"/>
     </g>
     <g id="line2d_4">
      <g>
       <use style="stroke:#000000;stroke-width:0.8;" x="160.014728" xlink:href="#m9af22f9086" y="512.64"/>
      </g>
     </g>
     <g id="text_2">
      <!-- 0.2 -->
      <g transform="translate(148.087384 527.537656)scale(0.15 -0.15)">
       <defs>
        <path d="M 19.1875 8.296875 
L 53.609375 8.296875 
L 53.609375 0 
L 7.328125 0 
L 7.328125 8.296875 
Q 12.9375 14.109375 22.625 23.890625 
Q 32.328125 33.6875 34.8125 36.53125 
Q 39.546875 41.84375 41.421875 45.53125 
Q 43.3125 49.21875 43.3125 52.78125 
Q 43.3125 58.59375 39.234375 62.25 
Q 35.15625 65.921875 28.609375 65.921875 
Q 23.96875 65.921875 18.8125 64.3125 
Q 13.671875 62.703125 7.8125 59.421875 
L 7.8125 69.390625 
Q 13.765625 71.78125 18.9375 73 
Q 24.125 74.21875 28.421875 74.21875 
Q 39.75 74.21875 46.484375 68.546875 
Q 53.21875 62.890625 53.21875 53.421875 
Q 53.21875 48.921875 51.53125 44.890625 
Q 49.859375 40.875 45.40625 35.40625 
Q 44.1875 33.984375 37.640625 27.21875 
Q 31.109375 20.453125 19.1875 8.296875 
z
" id="DejaVuSans-50"/>
       </defs>
       <use xlink:href="#DejaVuSans-48"/>
       <use x="63.623047" xlink:href="#DejaVuSans-46"/>
       <use x="95.410156" xlink:href="#DejaVuSans-50"/>
      </g>
     </g>
    </g>
    <g id="xtick_3">
     <g id="line2d_5">
      <path clip-path="url(#p78e57e3c9f)" d="M 243.191955 512.64 
L 243.191955 40.32 
" style="fill:none;stroke:#e6e6e6;stroke-linecap:square;stroke-width:0.8;"/>
     </g>
     <g id="line2d_6">
      <g>
       <use style="stroke:#000000;stroke-width:0.8;" x="243.191955" xlink:href="#m9af22f9086" y="512.64"/>
      </g>
     </g>
     <g id="text_3">
      <!-- 0.4 -->
      <g transform="translate(231.264612 527.537656)scale(0.15 -0.15)">
       <defs>
        <path d="M 37.796875 64.3125 
L 12.890625 25.390625 
L 37.796875 25.390625 
z
M 35.203125 72.90625 
L 47.609375 72.90625 
L 47.609375 25.390625 
L 58.015625 25.390625 
L 58.015625 17.1875 
L 47.609375 17.1875 
L 47.609375 0 
L 37.796875 0 
L 37.796875 17.1875 
L 4.890625 17.1875 
L 4.890625 26.703125 
z
" id="DejaVuSans-52"/>
       </defs>
       <use xlink:href="#DejaVuSans-48"/>
       <use x="63.623047" xlink:href="#DejaVuSans-46"/>
       <use x="95.410156" xlink:href="#DejaVuSans-52"/>
      </g>
     </g>
    </g>
    <g id="xtick_4">
     <g id="line2d_7">
      <path clip-path="url(#p78e57e3c9f)" d="M 326.369183 512.64 
L 326.369183 40.32 
" style="fill:none;stroke:#e6e6e6;stroke-linecap:square;stroke-width:0.8;"/>
     </g>
     <g id="line2d_8">
      <g>
       <use style="stroke:#000000;stroke-width:0.8;" x="326.369183" xlink:href="#m9af22f9086" y="512.64"/>
      </g>
     </g>
     <g id="text_4">
      <!-- 0.6 -->
      <g transform="translate(314.441839 527.537656)scale(0.15 -0.15)">
       <defs>
        <path d="M 33.015625 40.375 
Q 26.375 40.375 22.484375 35.828125 
Q 18.609375 31.296875 18.609375 23.390625 
Q 18.609375 15.53125 22.484375 10.953125 
Q 26.375 6.390625 33.015625 6.390625 
Q 39.65625 6.390625 43.53125 10.953125 
Q 47.40625 15.53125 47.40625 23.390625 
Q 47.40625 31.296875 43.53125 35.828125 
Q 39.65625 40.375 33.015625 40.375 
z
M 52.59375 71.296875 
L 52.59375 62.3125 
Q 48.875 64.0625 45.09375 64.984375 
Q 41.3125 65.921875 37.59375 65.921875 
Q 27.828125 65.921875 22.671875 59.328125 
Q 17.53125 52.734375 16.796875 39.40625 
Q 19.671875 43.65625 24.015625 45.921875 
Q 28.375 48.1875 33.59375 48.1875 
Q 44.578125 48.1875 50.953125 41.515625 
Q 57.328125 34.859375 57.328125 23.390625 
Q 57.328125 12.15625 50.6875 5.359375 
Q 44.046875 -1.421875 33.015625 -1.421875 
Q 20.359375 -1.421875 13.671875 8.265625 
Q 6.984375 17.96875 6.984375 36.375 
Q 6.984375 53.65625 15.1875 63.9375 
Q 23.390625 74.21875 37.203125 74.21875 
Q 40.921875 74.21875 44.703125 73.484375 
Q 48.484375 72.75 52.59375 71.296875 
z
" id="DejaVuSans-54"/>
       </defs>
       <use xlink:href="#DejaVuSans-48"/>
       <use x="63.623047" xlink:href="#DejaVuSans-46"/>
       <use x="95.410156" xlink:href="#DejaVuSans-54"/>
      </g>
     </g>
    </g>
    <g id="xtick_5">
     <g id="line2d_9">
      <path clip-path="url(#p78e57e3c9f)" d="M 409.546411 512.64 
L 409.546411 40.32 
" style="fill:none;stroke:#e6e6e6;stroke-linecap:square;stroke-width:0.8;"/>
     </g>
     <g id="line2d_10">
      <g>
       <use style="stroke:#000000;stroke-width:0.8;" x="409.546411" xlink:href="#m9af22f9086" y="512.64"/>
      </g>
     </g>
     <g id="text_5">
      <!-- 0.8 -->
      <g transform="translate(397.619067 527.537656)scale(0.15 -0.15)">
       <defs>
        <path d="M 31.78125 34.625 
Q 24.75 34.625 20.71875 30.859375 
Q 16.703125 27.09375 16.703125 20.515625 
Q 16.703125 13.921875 20.71875 10.15625 
Q 24.75 6.390625 31.78125 6.390625 
Q 38.8125 6.390625 42.859375 10.171875 
Q 46.921875 13.96875 46.921875 20.515625 
Q 46.921875 27.09375 42.890625 30.859375 
Q 38.875 34.625 31.78125 34.625 
z
M 21.921875 38.8125 
Q 15.578125 40.375 12.03125 44.71875 
Q 8.5 49.078125 8.5 55.328125 
Q 8.5 64.0625 14.71875 69.140625 
Q 20.953125 74.21875 31.78125 74.21875 
Q 42.671875 74.21875 48.875 69.140625 
Q 55.078125 64.0625 55.078125 55.328125 
Q 55.078125 49.078125 51.53125 44.71875 
Q 48 40.375 41.703125 38.8125 
Q 48.828125 37.15625 52.796875 32.3125 
Q 56.78125 27.484375 56.78125 20.515625 
Q 56.78125 9.90625 50.3125 4.234375 
Q 43.84375 -1.421875 31.78125 -1.421875 
Q 19.734375 -1.421875 13.25 4.234375 
Q 6.78125 9.90625 6.78125 20.515625 
Q 6.78125 27.484375 10.78125 32.3125 
Q 14.796875 37.15625 21.921875 38.8125 
z
M 18.3125 54.390625 
Q 18.3125 48.734375 21.84375 45.5625 
Q 25.390625 42.390625 31.78125 42.390625 
Q 38.140625 42.390625 41.71875 45.5625 
Q 45.3125 48.734375 45.3125 54.390625 
Q 45.3125 60.0625 41.71875 63.234375 
Q 38.140625 66.40625 31.78125 66.40625 
Q 25.390625 66.40625 21.84375 63.234375 
Q 18.3125 60.0625 18.3125 54.390625 
z
" id="DejaVuSans-56"/>
       </defs>
       <use xlink:href="#DejaVuSans-48"/>
       <use x="63.623047" xlink:href="#DejaVuSans-46"/>
       <use x="95.410156" xlink:href="#DejaVuSans-56"/>
      </g>
     </g>
    </g>
    <g id="xtick_6">
     <g id="line2d_11">
      <path clip-path="url(#p78e57e3c9f)" d="M 492.723639 512.64 
L 492.723639 40.32 
" style="fill:none;stroke:#e6e6e6;stroke-linecap:square;stroke-width:0.8;"/>
     </g>
     <g id="line2d_12">
      <g>
       <use style="stroke:#000000;stroke-width:0.8;" x="492.723639" xlink:href="#m9af22f9086" y="512.64"/>
      </g>
     </g>
     <g id="text_6">
      <!-- 1.0 -->
      <g transform="translate(480.796295 527.537656)scale(0.15 -0.15)">
       <defs>
        <path d="M 12.40625 8.296875 
L 28.515625 8.296875 
L 28.515625 63.921875 
L 10.984375 60.40625 
L 10.984375 69.390625 
L 28.421875 72.90625 
L 38.28125 72.90625 
L 38.28125 8.296875 
L 54.390625 8.296875 
L 54.390625 0 
L 12.40625 0 
z
" id="DejaVuSans-49"/>
       </defs>
       <use xlink:href="#DejaVuSans-49"/>
       <use x="63.623047" xlink:href="#DejaVuSans-46"/>
       <use x="95.410156" xlink:href="#DejaVuSans-48"/>
      </g>
     </g>
    </g>
    <g id="text_7">
     <!-- $q(\AA^{-1})$ -->
     <g transform="translate(246.11 557.907187)scale(0.25 -0.25)">
      <defs>
       <path d="M 41.703125 8.203125 
Q 38.09375 3.46875 33.171875 1.015625 
Q 28.265625 -1.421875 22.3125 -1.421875 
Q 14.015625 -1.421875 9.296875 4.171875 
Q 4.59375 9.765625 4.59375 19.578125 
Q 4.59375 27.484375 7.5 34.859375 
Q 10.40625 42.234375 15.828125 48.09375 
Q 19.34375 51.90625 23.90625 53.953125 
Q 28.46875 56 33.5 56 
Q 39.546875 56 43.453125 53.609375 
Q 47.359375 51.21875 49.125 46.390625 
L 50.6875 54.59375 
L 59.71875 54.59375 
L 45.125 -20.609375 
L 36.078125 -20.609375 
z
M 13.921875 20.90625 
Q 13.921875 13.671875 16.9375 9.890625 
Q 19.96875 6.109375 25.6875 6.109375 
Q 34.1875 6.109375 40.1875 14.234375 
Q 46.1875 22.359375 46.1875 33.984375 
Q 46.1875 41.015625 43.078125 44.75 
Q 39.984375 48.484375 34.1875 48.484375 
Q 29.9375 48.484375 26.3125 46.5 
Q 22.703125 44.53125 20.015625 40.71875 
Q 17.1875 36.71875 15.546875 31.34375 
Q 13.921875 25.984375 13.921875 20.90625 
z
" id="DejaVuSans-Oblique-113"/>
       <path d="M 31 75.875 
Q 24.46875 64.65625 21.28125 53.65625 
Q 18.109375 42.671875 18.109375 31.390625 
Q 18.109375 20.125 21.3125 9.0625 
Q 24.515625 -2 31 -13.1875 
L 23.1875 -13.1875 
Q 15.875 -1.703125 12.234375 9.375 
Q 8.59375 20.453125 8.59375 31.390625 
Q 8.59375 42.28125 12.203125 53.3125 
Q 15.828125 64.359375 23.1875 75.875 
z
" id="DejaVuSans-40"/>
       <path d="M 49.8125 79.390625 
Q 49.8125 82.46875 47.625 84.640625 
Q 45.453125 86.8125 42.390625 86.8125 
Q 39.265625 86.8125 37.140625 84.6875 
Q 35.015625 82.5625 35.015625 79.390625 
Q 35.015625 76.3125 37.140625 74.15625 
Q 39.265625 72.015625 42.390625 72.015625 
Q 45.453125 72.015625 47.625 74.15625 
Q 49.8125 76.3125 49.8125 79.390625 
z
M 34.421875 68.703125 
Q 31.78125 70.515625 30.390625 73.265625 
Q 29 76.03125 29 79.390625 
Q 29 84.96875 32.90625 88.890625 
Q 36.8125 92.828125 42.390625 92.828125 
Q 47.953125 92.828125 51.875 88.890625 
Q 55.8125 84.96875 55.8125 79.390625 
Q 55.8125 75.53125 54.03125 72.546875 
Q 52.25 69.578125 48.875 67.828125 
L 61.53125 0 
L 51.21875 0 
L 48.1875 18.703125 
L 15.375 18.703125 
L 5.078125 0 
L -5.328125 0 
z
M 40.375 63.1875 
L 19.921875 26.90625 
L 46.6875 26.90625 
z
" id="DejaVuSans-Oblique-197"/>
       <path d="M 10.59375 35.5 
L 73.1875 35.5 
L 73.1875 27.203125 
L 10.59375 27.203125 
z
" id="DejaVuSans-8722"/>
       <path d="M 8.015625 75.875 
L 15.828125 75.875 
Q 23.140625 64.359375 26.78125 53.3125 
Q 30.421875 42.28125 30.421875 31.390625 
Q 30.421875 20.453125 26.78125 9.375 
Q 23.140625 -1.703125 15.828125 -13.1875 
L 8.015625 -13.1875 
Q 14.5 -2 17.703125 9.0625 
Q 20.90625 20.125 20.90625 31.390625 
Q 20.90625 42.671875 17.703125 53.65625 
Q 14.5 64.65625 8.015625 75.875 
z
" id="DejaVuSans-41"/>
      </defs>
      <use transform="translate(0 0.171875)" xlink:href="#DejaVuSans-Oblique-113"/>
      <use transform="translate(63.476562 0.171875)" xlink:href="#DejaVuSans-40"/>
      <use transform="translate(102.490234 0.171875)" xlink:href="#DejaVuSans-Oblique-197"/>
      <use transform="translate(180.704271 38.453125)scale(0.7)" xlink:href="#DejaVuSans-8722"/>
      <use transform="translate(239.356615 38.453125)scale(0.7)" xlink:href="#DejaVuSans-49"/>
      <use transform="translate(286.627122 0.171875)" xlink:href="#DejaVuSans-41"/>
     </g>
    </g>
   </g>
   <g id="matplotlib.axis_2">
    <g id="ytick_1">
     <g id="line2d_13">
      <path clip-path="url(#p78e57e3c9f)" d="M 76.8375 471.653554 
L 496.8825 471.653554 
" style="fill:none;stroke:#e6e6e6;stroke-linecap:square;stroke-width:0.8;"/>
     </g>
     <g id="line2d_14">
      <defs>
       <path d="M 0 0 
L 3.5 0 
" id="m105430887b" style="stroke:#000000;stroke-width:0.8;"/>
      </defs>
      <g>
       <use style="stroke:#000000;stroke-width:0.8;" x="76.8375" xlink:href="#m105430887b" y="471.653554"/>
      </g>
     </g>
     <g id="text_8">
      <!-- 0.0 -->
      <g transform="translate(49.482812 477.352382)scale(0.15 -0.15)">
       <use xlink:href="#DejaVuSans-48"/>
       <use x="63.623047" xlink:href="#DejaVuSans-46"/>
       <use x="95.410156" xlink:href="#DejaVuSans-48"/>
      </g>
     </g>
    </g>
    <g id="ytick_2">
     <g id="line2d_15">
      <path clip-path="url(#p78e57e3c9f)" d="M 76.8375 393.584132 
L 496.8825 393.584132 
" style="fill:none;stroke:#e6e6e6;stroke-linecap:square;stroke-width:0.8;"/>
     </g>
     <g id="line2d_16">
      <g>
       <use style="stroke:#000000;stroke-width:0.8;" x="76.8375" xlink:href="#m105430887b" y="393.584132"/>
      </g>
     </g>
     <g id="text_9">
      <!-- 0.2 -->
      <g transform="translate(49.482812 399.28296)scale(0.15 -0.15)">
       <use xlink:href="#DejaVuSans-48"/>
       <use x="63.623047" xlink:href="#DejaVuSans-46"/>
       <use x="95.410156" xlink:href="#DejaVuSans-50"/>
      </g>
     </g>
    </g>
    <g id="ytick_3">
     <g id="line2d_17">
      <path clip-path="url(#p78e57e3c9f)" d="M 76.8375 315.514711 
L 496.8825 315.514711 
" style="fill:none;stroke:#e6e6e6;stroke-linecap:square;stroke-width:0.8;"/>
     </g>
     <g id="line2d_18">
      <g>
       <use style="stroke:#000000;stroke-width:0.8;" x="76.8375" xlink:href="#m105430887b" y="315.514711"/>
      </g>
     </g>
     <g id="text_10">
      <!-- 0.4 -->
      <g transform="translate(49.482812 321.213539)scale(0.15 -0.15)">
       <use xlink:href="#DejaVuSans-48"/>
       <use x="63.623047" xlink:href="#DejaVuSans-46"/>
       <use x="95.410156" xlink:href="#DejaVuSans-52"/>
      </g>
     </g>
    </g>
    <g id="ytick_4">
     <g id="line2d_19">
      <path clip-path="url(#p78e57e3c9f)" d="M 76.8375 237.445289 
L 496.8825 237.445289 
" style="fill:none;stroke:#e6e6e6;stroke-linecap:square;stroke-width:0.8;"/>
     </g>
     <g id="line2d_20">
      <g>
       <use style="stroke:#000000;stroke-width:0.8;" x="76.8375" xlink:href="#m105430887b" y="237.445289"/>
      </g>
     </g>
     <g id="text_11">
      <!-- 0.6 -->
      <g transform="translate(49.482812 243.144117)scale(0.15 -0.15)">
       <use xlink:href="#DejaVuSans-48"/>
       <use x="63.623047" xlink:href="#DejaVuSans-46"/>
       <use x="95.410156" xlink:href="#DejaVuSans-54"/>
      </g>
     </g>
    </g>
    <g id="ytick_5">
     <g id="line2d_21">
      <path clip-path="url(#p78e57e3c9f)" d="M 76.8375 159.375868 
L 496.8825 159.375868 
" style="fill:none;stroke:#e6e6e6;stroke-linecap:square;stroke-width:0.8;"/>
     </g>
     <g id="line2d_22">
      <g>
       <use style="stroke:#000000;stroke-width:0.8;" x="76.8375" xlink:href="#m105430887b" y="159.375868"/>
      </g>
     </g>
     <g id="text_12">
      <!-- 0.8 -->
      <g transform="translate(49.482812 165.074696)scale(0.15 -0.15)">
       <use xlink:href="#DejaVuSans-48"/>
       <use x="63.623047" xlink:href="#DejaVuSans-46"/>
       <use x="95.410156" xlink:href="#DejaVuSans-56"/>
      </g>
     </g>
    </g>
    <g id="ytick_6">
     <g id="line2d_23">
      <path clip-path="url(#p78e57e3c9f)" d="M 76.8375 81.306446 
L 496.8825 81.306446 
" style="fill:none;stroke:#e6e6e6;stroke-linecap:square;stroke-width:0.8;"/>
     </g>
     <g id="line2d_24">
      <g>
       <use style="stroke:#000000;stroke-width:0.8;" x="76.8375" xlink:href="#m105430887b" y="81.306446"/>
      </g>
     </g>
     <g id="text_13">
      <!-- 1.0 -->
      <g transform="translate(49.482812 87.005274)scale(0.15 -0.15)">
       <use xlink:href="#DejaVuSans-49"/>
       <use x="63.623047" xlink:href="#DejaVuSans-46"/>
       <use x="95.410156" xlink:href="#DejaVuSans-48"/>
      </g>
     </g>
    </g>
    <g id="text_14">
     <!-- I -->
     <g transform="translate(40.283594 280.1675)rotate(-90)scale(0.25 -0.25)">
      <defs>
       <path d="M 9.8125 72.90625 
L 19.671875 72.90625 
L 19.671875 0 
L 9.8125 0 
z
" id="DejaVuSans-73"/>
      </defs>
      <use xlink:href="#DejaVuSans-73"/>
     </g>
    </g>
   </g>
   <g id="line2d_25">
    <path clip-path="url(#p78e57e3c9f)" d="M 76.8375 471.653554 
L 118.426114 81.306446 
L 160.014728 164.166434 
L 201.603342 363.163799 
L 243.191955 471.650294 
L 284.780569 460.348478 
L 326.369183 469.083085 
L 367.957797 471.5439 
L 409.546411 471.651496 
L 451.135025 471.623755 
L 492.723639 471.501084 
" style="fill:none;stroke:#008000;stroke-linecap:square;stroke-width:2;"/>
    <defs>
     <path d="M -2.5 0 
L 2.5 0 
M 0 2.5 
L 0 -2.5 
" id="mcccb431178" style="stroke:#008000;"/>
    </defs>
    <g clip-path="url(#p78e57e3c9f)">
     <use style="fill:#008000;stroke:#008000;" x="76.8375" xlink:href="#mcccb431178" y="471.653554"/>
     <use style="fill:#008000;stroke:#008000;" x="118.426114" xlink:href="#mcccb431178" y="81.306446"/>
     <use style="fill:#008000;stroke:#008000;" x="160.014728" xlink:href="#mcccb431178" y="164.166434"/>
     <use style="fill:#008000;stroke:#008000;" x="201.603342" xlink:href="#mcccb431178" y="363.163799"/>
     <use style="fill:#008000;stroke:#008000;" x="243.191955" xlink:href="#mcccb431178" y="471.650294"/>
     <use style="fill:#008000;stroke:#008000;" x="284.780569" xlink:href="#mcccb431178" y="460.348478"/>
     <use style="fill:#008000;stroke:#008000;" x="326.369183" xlink:href="#mcccb431178" y="469.083085"/>
     <use style="fill:#008000;stroke:#008000;" x="367.957797" xlink:href="#mcccb431178" y="471.5439"/>
     <use style="fill:#008000;stroke:#008000;" x="409.546411" xlink:href="#mcccb431178" y="471.651496"/>
     <use style="fill:#008000;stroke:#008000;" x="451.135025" xlink:href="#mcccb431178" y="471.623755"/>
     <use style="fill:#008000;stroke:#008000;" x="492.723639" xlink:href="#mcccb431178" y="471.501084"/>
    </g>
   </g>
   <g id="line2d_26">
    <defs>
     <path d="M 0 2.5 
C 0.663008 2.5 1.29895 2.236584 1.767767 1.767767 
C 2.236584 1.29895 2.5 0.663008 2.5 0 
C 2.5 -0.663008 2.236584 -1.29895 1.767767 -1.767767 
C 1.29895 -2.236584 0.663008 -2.5 0 -2.5 
C -0.663008 -2.5 -1.29895 -2.236584 -1.767767 -1.767767 
C -2.236584 -1.29895 -2.5 -0.663008 -2.5 0 
C -2.5 0.663008 -2.236584 1.29895 -1.767767 1.767767 
C -1.29895 2.236584 -0.663008 2.5 0 2.5 
z
" id="mec02a36520" style="stroke:#ff0000;"/>
    </defs>
    <g clip-path="url(#p78e57e3c9f)">
     <use style="fill:#ff0000;stroke:#ff0000;" x="76.8375" xlink:href="#mec02a36520" y="471.653554"/>
     <use style="fill:#ff0000;stroke:#ff0000;" x="118.426114" xlink:href="#mec02a36520" y="81.306446"/>
     <use style="fill:#ff0000;stroke:#ff0000;" x="160.014728" xlink:href="#mec02a36520" y="200.202355"/>
     <use style="fill:#ff0000;stroke:#ff0000;" x="201.603342" xlink:href="#mec02a36520" y="399.323897"/>
     <use style="fill:#ff0000;stroke:#ff0000;" x="243.191955" xlink:href="#mec02a36520" y="468.195715"/>
     <use style="fill:#ff0000;stroke:#ff0000;" x="284.780569" xlink:href="#mec02a36520" y="463.453822"/>
     <use style="fill:#ff0000;stroke:#ff0000;" x="326.369183" xlink:href="#mec02a36520" y="467.997265"/>
     <use style="fill:#ff0000;stroke:#ff0000;" x="367.957797" xlink:href="#mec02a36520" y="471.027374"/>
     <use style="fill:#ff0000;stroke:#ff0000;" x="409.546411" xlink:href="#mec02a36520" y="471.489366"/>
     <use style="fill:#ff0000;stroke:#ff0000;" x="451.135025" xlink:href="#mec02a36520" y="471.493848"/>
     <use style="fill:#ff0000;stroke:#ff0000;" x="492.723639" xlink:href="#mec02a36520" y="471.423476"/>
     <use style="fill:#ff0000;stroke:#ff0000;" x="534.312252" xlink:href="#mec02a36520" y="471.547696"/>
     <use style="fill:#ff0000;stroke:#ff0000;" x="575.900866" xlink:href="#mec02a36520" y="471.637801"/>
     <use style="fill:#ff0000;stroke:#ff0000;" x="617.48948" xlink:href="#mec02a36520" y="471.62486"/>
     <use style="fill:#ff0000;stroke:#ff0000;" x="659.078094" xlink:href="#mec02a36520" y="471.633806"/>
     <use style="fill:#ff0000;stroke:#ff0000;" x="700.666708" xlink:href="#mec02a36520" y="471.648624"/>
     <use style="fill:#ff0000;stroke:#ff0000;" x="742.255322" xlink:href="#mec02a36520" y="471.651843"/>
     <use style="fill:#ff0000;stroke:#ff0000;" x="783.843936" xlink:href="#mec02a36520" y="471.652032"/>
     <use style="fill:#ff0000;stroke:#ff0000;" x="825.43255" xlink:href="#mec02a36520" y="471.651898"/>
     <use style="fill:#ff0000;stroke:#ff0000;" x="867.021163" xlink:href="#mec02a36520" y="471.653003"/>
     <use style="fill:#ff0000;stroke:#ff0000;" x="908.609777" xlink:href="#mec02a36520" y="471.653376"/>
     <use style="fill:#ff0000;stroke:#ff0000;" x="950.198391" xlink:href="#mec02a36520" y="471.653417"/>
     <use style="fill:#ff0000;stroke:#ff0000;" x="991.787005" xlink:href="#mec02a36520" y="471.653429"/>
     <use style="fill:#ff0000;stroke:#ff0000;" x="1033.375619" xlink:href="#mec02a36520" y="471.653512"/>
     <use style="fill:#ff0000;stroke:#ff0000;" x="1074.964233" xlink:href="#mec02a36520" y="471.653537"/>
     <use style="fill:#ff0000;stroke:#ff0000;" x="1116.552847" xlink:href="#mec02a36520" y="471.653542"/>
     <use style="fill:#ff0000;stroke:#ff0000;" x="1158.14146" xlink:href="#mec02a36520" y="471.653545"/>
     <use style="fill:#ff0000;stroke:#ff0000;" x="1199.730074" xlink:href="#mec02a36520" y="471.653552"/>
     <use style="fill:#ff0000;stroke:#ff0000;" x="1241.318688" xlink:href="#mec02a36520" y="471.653552"/>
     <use style="fill:#ff0000;stroke:#ff0000;" x="1282.907302" xlink:href="#mec02a36520" y="471.653553"/>
     <use style="fill:#ff0000;stroke:#ff0000;" x="1324.495916" xlink:href="#mec02a36520" y="471.653553"/>
     <use style="fill:#ff0000;stroke:#ff0000;" x="1366.08453" xlink:href="#mec02a36520" y="471.653553"/>
     <use style="fill:#ff0000;stroke:#ff0000;" x="1407.673144" xlink:href="#mec02a36520" y="471.653554"/>
     <use style="fill:#ff0000;stroke:#ff0000;" x="1449.261757" xlink:href="#mec02a36520" y="471.653554"/>
     <use style="fill:#ff0000;stroke:#ff0000;" x="1490.850371" xlink:href="#mec02a36520" y="471.653554"/>
     <use style="fill:#ff0000;stroke:#ff0000;" x="1532.438985" xlink:href="#mec02a36520" y="471.653554"/>
     <use style="fill:#ff0000;stroke:#ff0000;" x="1574.027599" xlink:href="#mec02a36520" y="471.653554"/>
     <use style="fill:#ff0000;stroke:#ff0000;" x="1615.616213" xlink:href="#mec02a36520" y="471.653554"/>
     <use style="fill:#ff0000;stroke:#ff0000;" x="1657.204827" xlink:href="#mec02a36520" y="471.653554"/>
     <use style="fill:#ff0000;stroke:#ff0000;" x="1698.793441" xlink:href="#mec02a36520" y="471.653554"/>
     <use style="fill:#ff0000;stroke:#ff0000;" x="1740.382054" xlink:href="#mec02a36520" y="471.65355"/>
     <use style="fill:#ff0000;stroke:#ff0000;" x="1781.970668" xlink:href="#mec02a36520" y="471.653554"/>
     <use style="fill:#ff0000;stroke:#ff0000;" x="1823.559282" xlink:href="#mec02a36520" y="471.653554"/>
     <use style="fill:#ff0000;stroke:#ff0000;" x="1865.147896" xlink:href="#mec02a36520" y="471.653554"/>
     <use style="fill:#ff0000;stroke:#ff0000;" x="1906.73651" xlink:href="#mec02a36520" y="471.653554"/>
     <use style="fill:#ff0000;stroke:#ff0000;" x="1948.325124" xlink:href="#mec02a36520" y="471.653554"/>
     <use style="fill:#ff0000;stroke:#ff0000;" x="1989.913738" xlink:href="#mec02a36520" y="471.653554"/>
     <use style="fill:#ff0000;stroke:#ff0000;" x="2031.502351" xlink:href="#mec02a36520" y="471.653554"/>
     <use style="fill:#ff0000;stroke:#ff0000;" x="2073.090965" xlink:href="#mec02a36520" y="471.653554"/>
     <use style="fill:#ff0000;stroke:#ff0000;" x="2114.679579" xlink:href="#mec02a36520" y="471.653554"/>
     <use style="fill:#ff0000;stroke:#ff0000;" x="2156.268193" xlink:href="#mec02a36520" y="471.653554"/>
     <use style="fill:#ff0000;stroke:#ff0000;" x="2197.856807" xlink:href="#mec02a36520" y="471.653554"/>
     <use style="fill:#ff0000;stroke:#ff0000;" x="2239.445421" xlink:href="#mec02a36520" y="471.653554"/>
     <use style="fill:#ff0000;stroke:#ff0000;" x="2281.034035" xlink:href="#mec02a36520" y="471.653554"/>
     <use style="fill:#ff0000;stroke:#ff0000;" x="2322.622649" xlink:href="#mec02a36520" y="471.653554"/>
     <use style="fill:#ff0000;stroke:#ff0000;" x="2364.211262" xlink:href="#mec02a36520" y="471.653554"/>
     <use style="fill:#ff0000;stroke:#ff0000;" x="2405.799876" xlink:href="#mec02a36520" y="471.653554"/>
     <use style="fill:#ff0000;stroke:#ff0000;" x="2447.38849" xlink:href="#mec02a36520" y="471.653554"/>
     <use style="fill:#ff0000;stroke:#ff0000;" x="2488.977104" xlink:href="#mec02a36520" y="471.653554"/>
     <use style="fill:#ff0000;stroke:#ff0000;" x="2530.565718" xlink:href="#mec02a36520" y="471.653554"/>
     <use style="fill:#ff0000;stroke:#ff0000;" x="2572.154332" xlink:href="#mec02a36520" y="471.653554"/>
     <use style="fill:#ff0000;stroke:#ff0000;" x="2613.742946" xlink:href="#mec02a36520" y="471.653554"/>
     <use style="fill:#ff0000;stroke:#ff0000;" x="2655.331559" xlink:href="#mec02a36520" y="471.653554"/>
     <use style="fill:#ff0000;stroke:#ff0000;" x="2696.920173" xlink:href="#mec02a36520" y="471.653554"/>
     <use style="fill:#ff0000;stroke:#ff0000;" x="-1" xlink:href="#mec02a36520" y="471.653554"/>
     <use style="fill:#ff0000;stroke:#ff0000;" x="-1" xlink:href="#mec02a36520" y="184.936836"/>
     <use style="fill:#ff0000;stroke:#ff0000;" x="35.248886" xlink:href="#mec02a36520" y="81.306446"/>
    </g>
   </g>
   <g id="patch_3">
    <path d="M 76.8375 512.64 
L 76.8375 40.32 
" style="fill:none;stroke:#000000;stroke-linecap:square;stroke-linejoin:miter;stroke-width:0.8;"/>
   </g>
   <g id="patch_4">
    <path d="M 496.8825 512.64 
L 496.8825 40.32 
" style="fill:none;stroke:#000000;stroke-linecap:square;stroke-linejoin:miter;stroke-width:0.8;"/>
   </g>
   <g id="patch_5">
    <path d="M 76.8375 512.64 
L 496.8825 512.64 
" style="fill:none;stroke:#000000;stroke-linecap:square;stroke-linejoin:miter;stroke-width:0.8;"/>
   </g>
   <g id="patch_6">
    <path d="M 76.8375 40.32 
L 496.8825 40.32 
" style="fill:none;stroke:#000000;stroke-linecap:square;stroke-linejoin:miter;stroke-width:0.8;"/>
   </g>
   <g id="legend_1">
    <g id="patch_7">
     <path d="M 368.6825 115.0325 
L 482.8825 115.0325 
Q 486.8825 115.0325 486.8825 111.0325 
L 486.8825 54.32 
Q 486.8825 50.32 482.8825 50.32 
L 368.6825 50.32 
Q 364.6825 50.32 364.6825 54.32 
L 364.6825 111.0325 
Q 364.6825 115.0325 368.6825 115.0325 
z
" style="fill:#ffffff;opacity:0.8;stroke:#cccccc;stroke-linejoin:miter;"/>
    </g>
    <g id="line2d_27">
     <path d="M 372.6825 66.516875 
L 412.6825 66.516875 
" style="fill:none;stroke:#008000;stroke-linecap:square;stroke-width:2;"/>
    </g>
    <g id="line2d_28">
     <g>
      <use style="fill:#008000;stroke:#008000;" x="392.6825" xlink:href="#mcccb431178" y="66.516875"/>
     </g>
    </g>
    <g id="text_15">
     <!-- $NB_{kin}$ -->
     <g transform="translate(428.6825 73.516875)scale(0.2 -0.2)">
      <defs>
       <path d="M 16.890625 72.90625 
L 30.171875 72.90625 
L 50.296875 10.40625 
L 62.5 72.90625 
L 72.125 72.90625 
L 57.90625 0 
L 44.578125 0 
L 24.515625 62.890625 
L 12.3125 0 
L 2.6875 0 
z
" id="DejaVuSans-Oblique-78"/>
       <path d="M 16.890625 72.90625 
L 42.09375 72.90625 
Q 52.34375 72.90625 57.421875 69.09375 
Q 62.5 65.28125 62.5 57.625 
Q 62.5 50.59375 58.125 45.484375 
Q 53.765625 40.375 46.6875 39.3125 
Q 52.734375 37.9375 55.765625 34.078125 
Q 58.796875 30.21875 58.796875 23.78125 
Q 58.796875 12.796875 50.65625 6.390625 
Q 42.53125 0 28.421875 0 
L 2.6875 0 
z
M 19.28125 34.8125 
L 14.109375 8.109375 
L 29.984375 8.109375 
Q 38.921875 8.109375 43.75 12.203125 
Q 48.578125 16.3125 48.578125 23.78125 
Q 48.578125 29.546875 45.375 32.171875 
Q 42.1875 34.8125 35.109375 34.8125 
z
M 25.09375 64.796875 
L 20.796875 42.828125 
L 35.5 42.828125 
Q 43.359375 42.828125 47.78125 46.234375 
Q 52.203125 49.65625 52.203125 55.71875 
Q 52.203125 60.453125 49.21875 62.625 
Q 46.234375 64.796875 39.703125 64.796875 
z
" id="DejaVuSans-Oblique-66"/>
       <path d="M 18.3125 75.984375 
L 27.296875 75.984375 
L 18.703125 31.6875 
L 49.515625 54.6875 
L 61.1875 54.6875 
L 26.8125 28.515625 
L 51.90625 0 
L 41.015625 0 
L 17.671875 26.703125 
L 12.5 0 
L 3.515625 0 
z
" id="DejaVuSans-Oblique-107"/>
       <path d="M 18.3125 75.984375 
L 27.296875 75.984375 
L 25.09375 64.59375 
L 16.109375 64.59375 
z
M 14.203125 54.6875 
L 23.1875 54.6875 
L 12.5 0 
L 3.515625 0 
z
" id="DejaVuSans-Oblique-105"/>
       <path d="M 55.71875 33.015625 
L 49.3125 0 
L 40.28125 0 
L 46.6875 32.671875 
Q 47.125 34.96875 47.359375 36.71875 
Q 47.609375 38.484375 47.609375 39.5 
Q 47.609375 43.609375 45.015625 45.890625 
Q 42.4375 48.1875 37.796875 48.1875 
Q 30.5625 48.1875 25.34375 43.375 
Q 20.125 38.578125 18.5 30.328125 
L 12.5 0 
L 3.515625 0 
L 14.109375 54.6875 
L 23.09375 54.6875 
L 21.296875 46.09375 
Q 25.046875 50.828125 30.3125 53.40625 
Q 35.59375 56 41.40625 56 
Q 48.640625 56 52.609375 52.09375 
Q 56.59375 48.1875 56.59375 41.109375 
Q 56.59375 39.359375 56.375 37.359375 
Q 56.15625 35.359375 55.71875 33.015625 
z
" id="DejaVuSans-Oblique-110"/>
      </defs>
      <use transform="translate(0 0.09375)" xlink:href="#DejaVuSans-Oblique-78"/>
      <use transform="translate(74.804688 0.09375)" xlink:href="#DejaVuSans-Oblique-66"/>
      <use transform="translate(143.408203 -16.3125)scale(0.7)" xlink:href="#DejaVuSans-Oblique-107"/>
      <use transform="translate(183.945312 -16.3125)scale(0.7)" xlink:href="#DejaVuSans-Oblique-105"/>
      <use transform="translate(203.393555 -16.3125)scale(0.7)" xlink:href="#DejaVuSans-Oblique-110"/>
     </g>
    </g>
    <g id="line2d_29"/>
    <g id="line2d_30">
     <g>
      <use style="fill:#ff0000;stroke:#ff0000;" x="392.6825" xlink:href="#mec02a36520" y="95.873125"/>
     </g>
    </g>
    <g id="text_16">
     <!-- MS -->
     <g transform="translate(428.6825 102.873125)scale(0.2 -0.2)">
      <defs>
       <path d="M 9.8125 72.90625 
L 24.515625 72.90625 
L 43.109375 23.296875 
L 61.8125 72.90625 
L 76.515625 72.90625 
L 76.515625 0 
L 66.890625 0 
L 66.890625 64.015625 
L 48.09375 14.015625 
L 38.1875 14.015625 
L 19.390625 64.015625 
L 19.390625 0 
L 9.8125 0 
z
" id="DejaVuSans-77"/>
       <path d="M 53.515625 70.515625 
L 53.515625 60.890625 
Q 47.90625 63.578125 42.921875 64.890625 
Q 37.9375 66.21875 33.296875 66.21875 
Q 25.25 66.21875 20.875 63.09375 
Q 16.5 59.96875 16.5 54.203125 
Q 16.5 49.359375 19.40625 46.890625 
Q 22.3125 44.4375 30.421875 42.921875 
L 36.375 41.703125 
Q 47.40625 39.59375 52.65625 34.296875 
Q 57.90625 29 57.90625 20.125 
Q 57.90625 9.515625 50.796875 4.046875 
Q 43.703125 -1.421875 29.984375 -1.421875 
Q 24.8125 -1.421875 18.96875 -0.25 
Q 13.140625 0.921875 6.890625 3.21875 
L 6.890625 13.375 
Q 12.890625 10.015625 18.65625 8.296875 
Q 24.421875 6.59375 29.984375 6.59375 
Q 38.421875 6.59375 43.015625 9.90625 
Q 47.609375 13.234375 47.609375 19.390625 
Q 47.609375 24.75 44.3125 27.78125 
Q 41.015625 30.8125 33.5 32.328125 
L 27.484375 33.5 
Q 16.453125 35.6875 11.515625 40.375 
Q 6.59375 45.0625 6.59375 53.421875 
Q 6.59375 63.09375 13.40625 68.65625 
Q 20.21875 74.21875 32.171875 74.21875 
Q 37.3125 74.21875 42.625 73.28125 
Q 47.953125 72.359375 53.515625 70.515625 
z
" id="DejaVuSans-83"/>
      </defs>
      <use xlink:href="#DejaVuSans-77"/>
      <use x="86.279297" xlink:href="#DejaVuSans-83"/>
     </g>
    </g>
   </g>
  </g>
 </g>
 <defs>
  <clipPath id="p78e57e3c9f">
   <rect height="472.32" width="420.045" x="76.8375" y="40.32"/>
  </clipPath>
 </defs>
</svg>
