<?xml version="1.0" encoding="utf-8" standalone="no"?>
<!DOCTYPE svg PUBLIC "-//W3C//DTD SVG 1.1//EN"
  "http://www.w3.org/Graphics/SVG/1.1/DTD/svg11.dtd">
<!-- Created with matplotlib (https://matplotlib.org/) -->
<svg height="576pt" version="1.1" viewBox="0 0 512.25 576" width="512.25pt" xmlns="http://www.w3.org/2000/svg" xmlns:xlink="http://www.w3.org/1999/xlink">
 <metadata>
  <rdf:RDF xmlns:cc="http://creativecommons.org/ns#" xmlns:dc="http://purl.org/dc/elements/1.1/" xmlns:rdf="http://www.w3.org/1999/02/22-rdf-syntax-ns#">
   <cc:Work>
    <dc:type rdf:resource="http://purl.org/dc/dcmitype/StillImage"/>
    <dc:date>2020-09-11T12:47:19.187009</dc:date>
    <dc:format>image/svg+xml</dc:format>
    <dc:creator>
     <cc:Agent>
      <dc:title>Matplotlib v3.3.1, https://matplotlib.org/</dc:title>
     </cc:Agent>
    </dc:creator>
   </cc:Work>
  </rdf:RDF>
 </metadata>
 <defs>
  <style type="text/css">*{stroke-linecap:butt;stroke-linejoin:round;}</style>
 </defs>
 <g id="figure_1">
  <g id="patch_1">
   <path d="M 0 576 
L 512.25 576 
L 512.25 0 
L 0 0 
z
" style="fill:#ffffff;"/>
  </g>
  <g id="axes_1">
   <g id="patch_2">
    <path d="M 76.8375 512.64 
L 496.8825 512.64 
L 496.8825 40.32 
L 76.8375 40.32 
z
" style="fill:#ffffff;"/>
   </g>
   <g id="matplotlib.axis_1">
    <g id="xtick_1">
     <g id="line2d_1">
      <path clip-path="url(#p6056738197)" d="M 109.781175 512.64 
L 109.781175 40.32 
" style="fill:none;stroke:#e6e6e6;stroke-linecap:square;stroke-width:0.8;"/>
     </g>
     <g id="line2d_2">
      <defs>
       <path d="M 0 0 
L 0 -3.5 
" id="m860fcd236d" style="stroke:#000000;stroke-width:0.8;"/>
      </defs>
      <g>
       <use style="stroke:#000000;stroke-width:0.8;" x="109.781175" xlink:href="#m860fcd236d" y="512.64"/>
      </g>
     </g>
     <g id="text_1">
      <!-- 0 -->
      <g transform="translate(105.0093 527.537656)scale(0.15 -0.15)">
       <defs>
        <path d="M 31.78125 66.40625 
Q 24.171875 66.40625 20.328125 58.90625 
Q 16.5 51.421875 16.5 36.375 
Q 16.5 21.390625 20.328125 13.890625 
Q 24.171875 6.390625 31.78125 6.390625 
Q 39.453125 6.390625 43.28125 13.890625 
Q 47.125 21.390625 47.125 36.375 
Q 47.125 51.421875 43.28125 58.90625 
Q 39.453125 66.40625 31.78125 66.40625 
z
M 31.78125 74.21875 
Q 44.046875 74.21875 50.515625 64.515625 
Q 56.984375 54.828125 56.984375 36.375 
Q 56.984375 17.96875 50.515625 8.265625 
Q 44.046875 -1.421875 31.78125 -1.421875 
Q 19.53125 -1.421875 13.0625 8.265625 
Q 6.59375 17.96875 6.59375 36.375 
Q 6.59375 54.828125 13.0625 64.515625 
Q 19.53125 74.21875 31.78125 74.21875 
z
" id="DejaVuSans-48"/>
       </defs>
       <use xlink:href="#DejaVuSans-48"/>
      </g>
     </g>
    </g>
    <g id="xtick_2">
     <g id="line2d_3">
      <path clip-path="url(#p6056738197)" d="M 179.911402 512.64 
L 179.911402 40.32 
" style="fill:none;stroke:#e6e6e6;stroke-linecap:square;stroke-width:0.8;"/>
     </g>
     <g id="line2d_4">
      <g>
       <use style="stroke:#000000;stroke-width:0.8;" x="179.911402" xlink:href="#m860fcd236d" y="512.64"/>
      </g>
     </g>
     <g id="text_2">
      <!-- 100 -->
      <g transform="translate(165.595777 527.537656)scale(0.15 -0.15)">
       <defs>
        <path d="M 12.40625 8.296875 
L 28.515625 8.296875 
L 28.515625 63.921875 
L 10.984375 60.40625 
L 10.984375 69.390625 
L 28.421875 72.90625 
L 38.28125 72.90625 
L 38.28125 8.296875 
L 54.390625 8.296875 
L 54.390625 0 
L 12.40625 0 
z
" id="DejaVuSans-49"/>
       </defs>
       <use xlink:href="#DejaVuSans-49"/>
       <use x="63.623047" xlink:href="#DejaVuSans-48"/>
       <use x="127.246094" xlink:href="#DejaVuSans-48"/>
      </g>
     </g>
    </g>
    <g id="xtick_3">
     <g id="line2d_5">
      <path clip-path="url(#p6056738197)" d="M 250.04163 512.64 
L 250.04163 40.32 
" style="fill:none;stroke:#e6e6e6;stroke-linecap:square;stroke-width:0.8;"/>
     </g>
     <g id="line2d_6">
      <g>
       <use style="stroke:#000000;stroke-width:0.8;" x="250.04163" xlink:href="#m860fcd236d" y="512.64"/>
      </g>
     </g>
     <g id="text_3">
      <!-- 200 -->
      <g transform="translate(235.726005 527.537656)scale(0.15 -0.15)">
       <defs>
        <path d="M 19.1875 8.296875 
L 53.609375 8.296875 
L 53.609375 0 
L 7.328125 0 
L 7.328125 8.296875 
Q 12.9375 14.109375 22.625 23.890625 
Q 32.328125 33.6875 34.8125 36.53125 
Q 39.546875 41.84375 41.421875 45.53125 
Q 43.3125 49.21875 43.3125 52.78125 
Q 43.3125 58.59375 39.234375 62.25 
Q 35.15625 65.921875 28.609375 65.921875 
Q 23.96875 65.921875 18.8125 64.3125 
Q 13.671875 62.703125 7.8125 59.421875 
L 7.8125 69.390625 
Q 13.765625 71.78125 18.9375 73 
Q 24.125 74.21875 28.421875 74.21875 
Q 39.75 74.21875 46.484375 68.546875 
Q 53.21875 62.890625 53.21875 53.421875 
Q 53.21875 48.921875 51.53125 44.890625 
Q 49.859375 40.875 45.40625 35.40625 
Q 44.1875 33.984375 37.640625 27.21875 
Q 31.109375 20.453125 19.1875 8.296875 
z
" id="DejaVuSans-50"/>
       </defs>
       <use xlink:href="#DejaVuSans-50"/>
       <use x="63.623047" xlink:href="#DejaVuSans-48"/>
       <use x="127.246094" xlink:href="#DejaVuSans-48"/>
      </g>
     </g>
    </g>
    <g id="xtick_4">
     <g id="line2d_7">
      <path clip-path="url(#p6056738197)" d="M 320.171858 512.64 
L 320.171858 40.32 
" style="fill:none;stroke:#e6e6e6;stroke-linecap:square;stroke-width:0.8;"/>
     </g>
     <g id="line2d_8">
      <g>
       <use style="stroke:#000000;stroke-width:0.8;" x="320.171858" xlink:href="#m860fcd236d" y="512.64"/>
      </g>
     </g>
     <g id="text_4">
      <!-- 300 -->
      <g transform="translate(305.856233 527.537656)scale(0.15 -0.15)">
       <defs>
        <path d="M 40.578125 39.3125 
Q 47.65625 37.796875 51.625 33 
Q 55.609375 28.21875 55.609375 21.1875 
Q 55.609375 10.40625 48.1875 4.484375 
Q 40.765625 -1.421875 27.09375 -1.421875 
Q 22.515625 -1.421875 17.65625 -0.515625 
Q 12.796875 0.390625 7.625 2.203125 
L 7.625 11.71875 
Q 11.71875 9.328125 16.59375 8.109375 
Q 21.484375 6.890625 26.8125 6.890625 
Q 36.078125 6.890625 40.9375 10.546875 
Q 45.796875 14.203125 45.796875 21.1875 
Q 45.796875 27.640625 41.28125 31.265625 
Q 36.765625 34.90625 28.71875 34.90625 
L 20.21875 34.90625 
L 20.21875 43.015625 
L 29.109375 43.015625 
Q 36.375 43.015625 40.234375 45.921875 
Q 44.09375 48.828125 44.09375 54.296875 
Q 44.09375 59.90625 40.109375 62.90625 
Q 36.140625 65.921875 28.71875 65.921875 
Q 24.65625 65.921875 20.015625 65.03125 
Q 15.375 64.15625 9.8125 62.3125 
L 9.8125 71.09375 
Q 15.4375 72.65625 20.34375 73.4375 
Q 25.25 74.21875 29.59375 74.21875 
Q 40.828125 74.21875 47.359375 69.109375 
Q 53.90625 64.015625 53.90625 55.328125 
Q 53.90625 49.265625 50.4375 45.09375 
Q 46.96875 40.921875 40.578125 39.3125 
z
" id="DejaVuSans-51"/>
       </defs>
       <use xlink:href="#DejaVuSans-51"/>
       <use x="63.623047" xlink:href="#DejaVuSans-48"/>
       <use x="127.246094" xlink:href="#DejaVuSans-48"/>
      </g>
     </g>
    </g>
    <g id="xtick_5">
     <g id="line2d_9">
      <path clip-path="url(#p6056738197)" d="M 390.302086 512.64 
L 390.302086 40.32 
" style="fill:none;stroke:#e6e6e6;stroke-linecap:square;stroke-width:0.8;"/>
     </g>
     <g id="line2d_10">
      <g>
       <use style="stroke:#000000;stroke-width:0.8;" x="390.302086" xlink:href="#m860fcd236d" y="512.64"/>
      </g>
     </g>
     <g id="text_5">
      <!-- 400 -->
      <g transform="translate(375.986461 527.537656)scale(0.15 -0.15)">
       <defs>
        <path d="M 37.796875 64.3125 
L 12.890625 25.390625 
L 37.796875 25.390625 
z
M 35.203125 72.90625 
L 47.609375 72.90625 
L 47.609375 25.390625 
L 58.015625 25.390625 
L 58.015625 17.1875 
L 47.609375 17.1875 
L 47.609375 0 
L 37.796875 0 
L 37.796875 17.1875 
L 4.890625 17.1875 
L 4.890625 26.703125 
z
" id="DejaVuSans-52"/>
       </defs>
       <use xlink:href="#DejaVuSans-52"/>
       <use x="63.623047" xlink:href="#DejaVuSans-48"/>
       <use x="127.246094" xlink:href="#DejaVuSans-48"/>
      </g>
     </g>
    </g>
    <g id="xtick_6">
     <g id="line2d_11">
      <path clip-path="url(#p6056738197)" d="M 460.432314 512.64 
L 460.432314 40.32 
" style="fill:none;stroke:#e6e6e6;stroke-linecap:square;stroke-width:0.8;"/>
     </g>
     <g id="line2d_12">
      <g>
       <use style="stroke:#000000;stroke-width:0.8;" x="460.432314" xlink:href="#m860fcd236d" y="512.64"/>
      </g>
     </g>
     <g id="text_6">
      <!-- 500 -->
      <g transform="translate(446.116689 527.537656)scale(0.15 -0.15)">
       <defs>
        <path d="M 10.796875 72.90625 
L 49.515625 72.90625 
L 49.515625 64.59375 
L 19.828125 64.59375 
L 19.828125 46.734375 
Q 21.96875 47.46875 24.109375 47.828125 
Q 26.265625 48.1875 28.421875 48.1875 
Q 40.625 48.1875 47.75 41.5 
Q 54.890625 34.8125 54.890625 23.390625 
Q 54.890625 11.625 47.5625 5.09375 
Q 40.234375 -1.421875 26.90625 -1.421875 
Q 22.3125 -1.421875 17.546875 -0.640625 
Q 12.796875 0.140625 7.71875 1.703125 
L 7.71875 11.625 
Q 12.109375 9.234375 16.796875 8.0625 
Q 21.484375 6.890625 26.703125 6.890625 
Q 35.15625 6.890625 40.078125 11.328125 
Q 45.015625 15.765625 45.015625 23.390625 
Q 45.015625 31 40.078125 35.4375 
Q 35.15625 39.890625 26.703125 39.890625 
Q 22.75 39.890625 18.8125 39.015625 
Q 14.890625 38.140625 10.796875 36.28125 
z
" id="DejaVuSans-53"/>
       </defs>
       <use xlink:href="#DejaVuSans-53"/>
       <use x="63.623047" xlink:href="#DejaVuSans-48"/>
       <use x="127.246094" xlink:href="#DejaVuSans-48"/>
      </g>
     </g>
    </g>
    <g id="text_7">
     <!-- $z(\AA)$ -->
     <g transform="translate(261.985 556.207969)scale(0.25 -0.25)">
      <defs>
       <path d="M 11.625 54.6875 
L 54.296875 54.6875 
L 52.6875 46.484375 
L 11.53125 7.171875 
L 45.515625 7.171875 
L 44.09375 0 
L -0.296875 0 
L 1.3125 8.203125 
L 42.484375 47.515625 
L 10.203125 47.515625 
z
" id="DejaVuSans-Oblique-122"/>
       <path d="M 31 75.875 
Q 24.46875 64.65625 21.28125 53.65625 
Q 18.109375 42.671875 18.109375 31.390625 
Q 18.109375 20.125 21.3125 9.0625 
Q 24.515625 -2 31 -13.1875 
L 23.1875 -13.1875 
Q 15.875 -1.703125 12.234375 9.375 
Q 8.59375 20.453125 8.59375 31.390625 
Q 8.59375 42.28125 12.203125 53.3125 
Q 15.828125 64.359375 23.1875 75.875 
z
" id="DejaVuSans-40"/>
       <path d="M 49.8125 79.390625 
Q 49.8125 82.46875 47.625 84.640625 
Q 45.453125 86.8125 42.390625 86.8125 
Q 39.265625 86.8125 37.140625 84.6875 
Q 35.015625 82.5625 35.015625 79.390625 
Q 35.015625 76.3125 37.140625 74.15625 
Q 39.265625 72.015625 42.390625 72.015625 
Q 45.453125 72.015625 47.625 74.15625 
Q 49.8125 76.3125 49.8125 79.390625 
z
M 34.421875 68.703125 
Q 31.78125 70.515625 30.390625 73.265625 
Q 29 76.03125 29 79.390625 
Q 29 84.96875 32.90625 88.890625 
Q 36.8125 92.828125 42.390625 92.828125 
Q 47.953125 92.828125 51.875 88.890625 
Q 55.8125 84.96875 55.8125 79.390625 
Q 55.8125 75.53125 54.03125 72.546875 
Q 52.25 69.578125 48.875 67.828125 
L 61.53125 0 
L 51.21875 0 
L 48.1875 18.703125 
L 15.375 18.703125 
L 5.078125 0 
L -5.328125 0 
z
M 40.375 63.1875 
L 19.921875 26.90625 
L 46.6875 26.90625 
z
" id="DejaVuSans-Oblique-197"/>
       <path d="M 8.015625 75.875 
L 15.828125 75.875 
Q 23.140625 64.359375 26.78125 53.3125 
Q 30.421875 42.28125 30.421875 31.390625 
Q 30.421875 20.453125 26.78125 9.375 
Q 23.140625 -1.703125 15.828125 -13.1875 
L 8.015625 -13.1875 
Q 14.5 -2 17.703125 9.0625 
Q 20.90625 20.125 20.90625 31.390625 
Q 20.90625 42.671875 17.703125 53.65625 
Q 14.5 64.65625 8.015625 75.875 
z
" id="DejaVuSans-41"/>
      </defs>
      <use transform="translate(0 0.171875)" xlink:href="#DejaVuSans-Oblique-122"/>
      <use transform="translate(52.490234 0.171875)" xlink:href="#DejaVuSans-40"/>
      <use transform="translate(91.503906 0.171875)" xlink:href="#DejaVuSans-Oblique-197"/>
      <use transform="translate(159.912109 0.171875)" xlink:href="#DejaVuSans-41"/>
     </g>
    </g>
   </g>
   <g id="matplotlib.axis_2">
    <g id="ytick_1">
     <g id="line2d_13">
      <path clip-path="url(#p6056738197)" d="M 76.8375 471.806734 
L 496.8825 471.806734 
" style="fill:none;stroke:#e6e6e6;stroke-linecap:square;stroke-width:0.8;"/>
     </g>
     <g id="line2d_14">
      <defs>
       <path d="M 0 0 
L 3.5 0 
" id="m3b8b02b0e1" style="stroke:#000000;stroke-width:0.8;"/>
      </defs>
      <g>
       <use style="stroke:#000000;stroke-width:0.8;" x="76.8375" xlink:href="#m3b8b02b0e1" y="471.806734"/>
      </g>
     </g>
     <g id="text_8">
      <!-- 0.00 -->
      <g transform="translate(39.939062 477.505563)scale(0.15 -0.15)">
       <defs>
        <path d="M 10.6875 12.40625 
L 21 12.40625 
L 21 0 
L 10.6875 0 
z
" id="DejaVuSans-46"/>
       </defs>
       <use xlink:href="#DejaVuSans-48"/>
       <use x="63.623047" xlink:href="#DejaVuSans-46"/>
       <use x="95.410156" xlink:href="#DejaVuSans-48"/>
       <use x="159.033203" xlink:href="#DejaVuSans-48"/>
      </g>
     </g>
    </g>
    <g id="ytick_2">
     <g id="line2d_15">
      <path clip-path="url(#p6056738197)" d="M 76.8375 413.957833 
L 496.8825 413.957833 
" style="fill:none;stroke:#e6e6e6;stroke-linecap:square;stroke-width:0.8;"/>
     </g>
     <g id="line2d_16">
      <g>
       <use style="stroke:#000000;stroke-width:0.8;" x="76.8375" xlink:href="#m3b8b02b0e1" y="413.957833"/>
      </g>
     </g>
     <g id="text_9">
      <!-- 0.02 -->
      <g transform="translate(39.939062 419.656661)scale(0.15 -0.15)">
       <use xlink:href="#DejaVuSans-48"/>
       <use x="63.623047" xlink:href="#DejaVuSans-46"/>
       <use x="95.410156" xlink:href="#DejaVuSans-48"/>
       <use x="159.033203" xlink:href="#DejaVuSans-50"/>
      </g>
     </g>
    </g>
    <g id="ytick_3">
     <g id="line2d_17">
      <path clip-path="url(#p6056738197)" d="M 76.8375 356.108931 
L 496.8825 356.108931 
" style="fill:none;stroke:#e6e6e6;stroke-linecap:square;stroke-width:0.8;"/>
     </g>
     <g id="line2d_18">
      <g>
       <use style="stroke:#000000;stroke-width:0.8;" x="76.8375" xlink:href="#m3b8b02b0e1" y="356.108931"/>
      </g>
     </g>
     <g id="text_10">
      <!-- 0.04 -->
      <g transform="translate(39.939062 361.807759)scale(0.15 -0.15)">
       <use xlink:href="#DejaVuSans-48"/>
       <use x="63.623047" xlink:href="#DejaVuSans-46"/>
       <use x="95.410156" xlink:href="#DejaVuSans-48"/>
       <use x="159.033203" xlink:href="#DejaVuSans-52"/>
      </g>
     </g>
    </g>
    <g id="ytick_4">
     <g id="line2d_19">
      <path clip-path="url(#p6056738197)" d="M 76.8375 298.26003 
L 496.8825 298.26003 
" style="fill:none;stroke:#e6e6e6;stroke-linecap:square;stroke-width:0.8;"/>
     </g>
     <g id="line2d_20">
      <g>
       <use style="stroke:#000000;stroke-width:0.8;" x="76.8375" xlink:href="#m3b8b02b0e1" y="298.26003"/>
      </g>
     </g>
     <g id="text_11">
      <!-- 0.06 -->
      <g transform="translate(39.939062 303.958858)scale(0.15 -0.15)">
       <defs>
        <path d="M 33.015625 40.375 
Q 26.375 40.375 22.484375 35.828125 
Q 18.609375 31.296875 18.609375 23.390625 
Q 18.609375 15.53125 22.484375 10.953125 
Q 26.375 6.390625 33.015625 6.390625 
Q 39.65625 6.390625 43.53125 10.953125 
Q 47.40625 15.53125 47.40625 23.390625 
Q 47.40625 31.296875 43.53125 35.828125 
Q 39.65625 40.375 33.015625 40.375 
z
M 52.59375 71.296875 
L 52.59375 62.3125 
Q 48.875 64.0625 45.09375 64.984375 
Q 41.3125 65.921875 37.59375 65.921875 
Q 27.828125 65.921875 22.671875 59.328125 
Q 17.53125 52.734375 16.796875 39.40625 
Q 19.671875 43.65625 24.015625 45.921875 
Q 28.375 48.1875 33.59375 48.1875 
Q 44.578125 48.1875 50.953125 41.515625 
Q 57.328125 34.859375 57.328125 23.390625 
Q 57.328125 12.15625 50.6875 5.359375 
Q 44.046875 -1.421875 33.015625 -1.421875 
Q 20.359375 -1.421875 13.671875 8.265625 
Q 6.984375 17.96875 6.984375 36.375 
Q 6.984375 53.65625 15.1875 63.9375 
Q 23.390625 74.21875 37.203125 74.21875 
Q 40.921875 74.21875 44.703125 73.484375 
Q 48.484375 72.75 52.59375 71.296875 
z
" id="DejaVuSans-54"/>
       </defs>
       <use xlink:href="#DejaVuSans-48"/>
       <use x="63.623047" xlink:href="#DejaVuSans-46"/>
       <use x="95.410156" xlink:href="#DejaVuSans-48"/>
       <use x="159.033203" xlink:href="#DejaVuSans-54"/>
      </g>
     </g>
    </g>
    <g id="ytick_5">
     <g id="line2d_21">
      <path clip-path="url(#p6056738197)" d="M 76.8375 240.411128 
L 496.8825 240.411128 
" style="fill:none;stroke:#e6e6e6;stroke-linecap:square;stroke-width:0.8;"/>
     </g>
     <g id="line2d_22">
      <g>
       <use style="stroke:#000000;stroke-width:0.8;" x="76.8375" xlink:href="#m3b8b02b0e1" y="240.411128"/>
      </g>
     </g>
     <g id="text_12">
      <!-- 0.08 -->
      <g transform="translate(39.939062 246.109956)scale(0.15 -0.15)">
       <defs>
        <path d="M 31.78125 34.625 
Q 24.75 34.625 20.71875 30.859375 
Q 16.703125 27.09375 16.703125 20.515625 
Q 16.703125 13.921875 20.71875 10.15625 
Q 24.75 6.390625 31.78125 6.390625 
Q 38.8125 6.390625 42.859375 10.171875 
Q 46.921875 13.96875 46.921875 20.515625 
Q 46.921875 27.09375 42.890625 30.859375 
Q 38.875 34.625 31.78125 34.625 
z
M 21.921875 38.8125 
Q 15.578125 40.375 12.03125 44.71875 
Q 8.5 49.078125 8.5 55.328125 
Q 8.5 64.0625 14.71875 69.140625 
Q 20.953125 74.21875 31.78125 74.21875 
Q 42.671875 74.21875 48.875 69.140625 
Q 55.078125 64.0625 55.078125 55.328125 
Q 55.078125 49.078125 51.53125 44.71875 
Q 48 40.375 41.703125 38.8125 
Q 48.828125 37.15625 52.796875 32.3125 
Q 56.78125 27.484375 56.78125 20.515625 
Q 56.78125 9.90625 50.3125 4.234375 
Q 43.84375 -1.421875 31.78125 -1.421875 
Q 19.734375 -1.421875 13.25 4.234375 
Q 6.78125 9.90625 6.78125 20.515625 
Q 6.78125 27.484375 10.78125 32.3125 
Q 14.796875 37.15625 21.921875 38.8125 
z
M 18.3125 54.390625 
Q 18.3125 48.734375 21.84375 45.5625 
Q 25.390625 42.390625 31.78125 42.390625 
Q 38.140625 42.390625 41.71875 45.5625 
Q 45.3125 48.734375 45.3125 54.390625 
Q 45.3125 60.0625 41.71875 63.234375 
Q 38.140625 66.40625 31.78125 66.40625 
Q 25.390625 66.40625 21.84375 63.234375 
Q 18.3125 60.0625 18.3125 54.390625 
z
" id="DejaVuSans-56"/>
       </defs>
       <use xlink:href="#DejaVuSans-48"/>
       <use x="63.623047" xlink:href="#DejaVuSans-46"/>
       <use x="95.410156" xlink:href="#DejaVuSans-48"/>
       <use x="159.033203" xlink:href="#DejaVuSans-56"/>
      </g>
     </g>
    </g>
    <g id="ytick_6">
     <g id="line2d_23">
      <path clip-path="url(#p6056738197)" d="M 76.8375 182.562227 
L 496.8825 182.562227 
" style="fill:none;stroke:#e6e6e6;stroke-linecap:square;stroke-width:0.8;"/>
     </g>
     <g id="line2d_24">
      <g>
       <use style="stroke:#000000;stroke-width:0.8;" x="76.8375" xlink:href="#m3b8b02b0e1" y="182.562227"/>
      </g>
     </g>
     <g id="text_13">
      <!-- 0.10 -->
      <g transform="translate(39.939062 188.261055)scale(0.15 -0.15)">
       <use xlink:href="#DejaVuSans-48"/>
       <use x="63.623047" xlink:href="#DejaVuSans-46"/>
       <use x="95.410156" xlink:href="#DejaVuSans-49"/>
       <use x="159.033203" xlink:href="#DejaVuSans-48"/>
      </g>
     </g>
    </g>
    <g id="ytick_7">
     <g id="line2d_25">
      <path clip-path="url(#p6056738197)" d="M 76.8375 124.713325 
L 496.8825 124.713325 
" style="fill:none;stroke:#e6e6e6;stroke-linecap:square;stroke-width:0.8;"/>
     </g>
     <g id="line2d_26">
      <g>
       <use style="stroke:#000000;stroke-width:0.8;" x="76.8375" xlink:href="#m3b8b02b0e1" y="124.713325"/>
      </g>
     </g>
     <g id="text_14">
      <!-- 0.12 -->
      <g transform="translate(39.939062 130.412153)scale(0.15 -0.15)">
       <use xlink:href="#DejaVuSans-48"/>
       <use x="63.623047" xlink:href="#DejaVuSans-46"/>
       <use x="95.410156" xlink:href="#DejaVuSans-49"/>
       <use x="159.033203" xlink:href="#DejaVuSans-50"/>
      </g>
     </g>
    </g>
    <g id="ytick_8">
     <g id="line2d_27">
      <path clip-path="url(#p6056738197)" d="M 76.8375 66.864424 
L 496.8825 66.864424 
" style="fill:none;stroke:#e6e6e6;stroke-linecap:square;stroke-width:0.8;"/>
     </g>
     <g id="line2d_28">
      <g>
       <use style="stroke:#000000;stroke-width:0.8;" x="76.8375" xlink:href="#m3b8b02b0e1" y="66.864424"/>
      </g>
     </g>
     <g id="text_15">
      <!-- 0.14 -->
      <g transform="translate(39.939062 72.563252)scale(0.15 -0.15)">
       <use xlink:href="#DejaVuSans-48"/>
       <use x="63.623047" xlink:href="#DejaVuSans-46"/>
       <use x="95.410156" xlink:href="#DejaVuSans-49"/>
       <use x="159.033203" xlink:href="#DejaVuSans-52"/>
      </g>
     </g>
    </g>
    <g id="text_16">
     <!-- $I_b$ -->
     <g transform="translate(30.739844 286.105)rotate(-90)scale(0.25 -0.25)">
      <defs>
       <path d="M 16.890625 72.90625 
L 26.8125 72.90625 
L 12.59375 0 
L 2.6875 0 
z
" id="DejaVuSans-Oblique-73"/>
       <path d="M 49.515625 33.40625 
Q 49.515625 40.484375 46.265625 44.484375 
Q 43.015625 48.484375 37.3125 48.484375 
Q 33.15625 48.484375 29.515625 46.453125 
Q 25.875 44.4375 23.1875 40.578125 
Q 20.359375 36.53125 18.71875 31.171875 
Q 17.09375 25.828125 17.09375 20.515625 
Q 17.09375 13.765625 20.28125 9.9375 
Q 23.484375 6.109375 29.109375 6.109375 
Q 33.34375 6.109375 36.953125 8.078125 
Q 40.578125 10.0625 43.3125 13.921875 
Q 46.09375 17.921875 47.796875 23.234375 
Q 49.515625 28.5625 49.515625 33.40625 
z
M 21.578125 46.390625 
Q 24.90625 50.875 29.90625 53.4375 
Q 34.90625 56 40.375 56 
Q 48.78125 56 53.734375 50.328125 
Q 58.6875 44.671875 58.6875 35.015625 
Q 58.6875 27.09375 55.78125 19.671875 
Q 52.875 12.25 47.515625 6.5 
Q 44 2.6875 39.40625 0.625 
Q 34.8125 -1.421875 29.78125 -1.421875 
Q 24.46875 -1.421875 20.5625 1.015625 
Q 16.65625 3.46875 14.203125 8.296875 
L 12.59375 0 
L 3.609375 0 
L 18.40625 75.984375 
L 27.390625 75.984375 
z
" id="DejaVuSans-Oblique-98"/>
      </defs>
      <use transform="translate(0 0.09375)" xlink:href="#DejaVuSans-Oblique-73"/>
      <use transform="translate(29.492188 -16.3125)scale(0.7)" xlink:href="#DejaVuSans-Oblique-98"/>
     </g>
    </g>
   </g>
   <g id="line2d_29">
    <path clip-path="url(#p6056738197)" d="M 113.287686 471.128124 
L 116.794197 469.060749 
L 120.300709 465.526551 
L 123.80722 460.436838 
L 127.313732 453.725521 
L 130.820243 445.371034 
L 134.326754 435.408327 
L 137.833266 423.934082 
L 141.339777 411.107326 
L 144.846289 397.146645 
L 148.3528 382.324738 
L 151.859311 366.960752 
L 155.365823 351.410791 
L 158.872334 336.056943 
L 162.378845 321.295194 
L 165.885357 307.5226 
L 169.391868 295.124142 
L 172.89838 284.459652 
L 176.404891 275.851257 
L 179.911402 269.571733 
L 183.417914 265.834162 
L 186.924425 264.783252 
L 190.430937 266.488626 
L 193.937448 270.94032 
L 197.443959 278.046695 
L 200.950471 287.634846 
L 204.456982 299.453588 
L 207.963494 313.178943 
L 211.470005 328.422001 
L 214.976516 344.738998 
L 218.483028 361.643265 
L 221.989539 378.618865 
L 225.496051 395.135168 
L 229.002562 410.662686 
L 232.509073 424.688639 
L 236.015585 436.732346 
L 239.522096 446.36104 
L 243.028608 453.203197 
L 246.535119 456.960161 
L 250.04163 457.41716 
L 253.548142 454.451687 
L 257.054653 448.039081 
L 260.561165 438.254519 
L 264.067676 425.270199 
L 267.574187 409.352257 
L 271.080699 390.860512 
L 274.58721 370.242772 
L 278.093722 348.01516 
L 281.600233 324.736679 
L 285.106744 300.995588 
L 288.613256 277.410348 
L 292.119767 254.626685 
L 295.626278 233.292095 
L 299.13279 214.011577 
L 302.639301 197.308777 
L 306.145813 183.613965 
L 309.652324 173.278144 
L 313.158835 166.591662 
L 316.665347 163.783951 
L 320.171858 164.997078 
L 323.67837 170.246543 
L 327.184881 179.391956 
L 330.691392 192.135035 
L 334.197904 208.045783 
L 337.704415 226.604858 
L 341.210927 247.243221 
L 344.717438 269.365986 
L 348.223949 292.358694 
L 351.730461 315.581281 
L 355.236972 338.363631 
L 358.743484 360.0124 
L 362.249995 379.830762 
L 365.756506 397.150988 
L 369.263018 411.371553 
L 372.769529 421.987513 
L 376.276041 428.610658 
L 379.782552 430.978681 
L 383.289063 428.953504 
L 386.795575 422.513505 
L 390.302086 411.746245 
L 393.808598 396.846548 
L 397.315109 378.12004 
L 400.82162 355.986367 
L 404.328132 330.978501 
L 407.834643 303.740641 
L 411.341155 275.021926 
L 414.847666 245.654205 
L 418.354177 216.511537 
L 421.860689 188.467241 
L 425.3672 162.361399 
L 428.873711 138.970871 
L 432.380223 118.970356 
L 435.886734 102.893967 
L 439.393246 91.12058 
L 442.899757 83.886831 
L 446.406268 81.306446 
L 449.91278 83.37399 
L 453.419291 89.957797 
L 456.925803 100.804845 
L 460.432314 115.565254 
" style="fill:none;stroke:#004cff;stroke-linecap:square;stroke-width:2;"/>
   </g>
   <g id="line2d_30">
    <path clip-path="url(#p6056738197)" d="M 113.287686 471.154757 
L 116.794197 469.169778 
L 120.300709 465.781685 
L 123.80722 460.915639 
L 127.313732 454.524878 
L 130.820243 446.611606 
L 134.326754 437.237693 
L 137.833266 426.528452 
L 141.339777 414.671619 
L 144.846289 401.912805 
L 148.3528 388.548131 
L 151.859311 374.914605 
L 155.365823 361.378685 
L 158.872334 348.323487 
L 162.378845 336.135103 
L 165.885357 325.18851 
L 169.391868 315.833561 
L 172.89838 308.381575 
L 176.404891 303.092984 
L 179.911402 300.166514 
L 183.417914 299.730286 
L 186.924425 301.835202 
L 190.430937 306.450882 
L 193.937448 313.464329 
L 197.443959 322.681439 
L 200.950471 333.831324 
L 204.456982 346.573389 
L 207.963494 360.50695 
L 211.470005 375.183079 
L 214.976516 390.11838 
L 218.483028 404.810148 
L 221.989539 418.75263 
L 225.496051 431.453401 
L 229.002562 442.450108 
L 232.509073 451.326102 
L 236.015585 457.724649 
L 239.522096 461.362328 
L 243.028608 462.039513 
L 246.535119 459.648002 
L 250.04163 454.175888 
L 253.548142 445.709717 
L 257.054653 434.43519 
L 260.561165 420.632688 
L 264.067676 404.664816 
L 267.574187 386.964445 
L 271.080699 368.030022 
L 274.58721 348.417311 
L 278.093722 328.713973 
L 281.600233 309.505094 
L 285.106744 291.352539 
L 288.613256 274.795486 
L 292.119767 260.352877 
L 295.626278 248.504165 
L 299.13279 239.648034 
L 302.639301 234.063203 
L 306.145813 231.896301 
L 309.652324 233.180276 
L 313.158835 237.863604 
L 316.665347 245.825681 
L 320.171858 256.867556 
L 323.67837 270.687853 
L 327.184881 286.8641 
L 330.691392 304.856883 
L 334.197904 324.039183 
L 337.704415 343.741159 
L 341.210927 363.293738 
L 344.717438 382.058228 
L 348.223949 399.440025 
L 351.730461 414.890279 
L 355.236972 427.906493 
L 358.743484 438.040843 
L 362.249995 444.916986 
L 365.756506 448.253525 
L 369.263018 447.887595 
L 372.769529 443.789859 
L 376.276041 436.066309 
L 379.782552 424.947406 
L 383.289063 410.769396 
L 386.795575 393.952057 
L 390.302086 374.975775 
L 393.808598 354.365684 
L 397.315109 332.687568 
L 400.82162 310.546067 
L 404.328132 288.576205 
L 407.834643 267.434198 
L 411.341155 247.791352 
L 414.847666 230.31695 
L 418.354177 215.640195 
L 421.860689 204.306544 
L 425.3672 196.749448 
L 428.873711 193.273759 
L 432.380223 194.033913 
L 435.886734 199.00809 
L 439.393246 207.991898 
L 442.899757 220.623078 
L 446.406268 236.421251 
L 449.91278 254.817684 
L 453.419291 275.170315 
L 456.925803 296.782035 
L 460.432314 318.933001 
" style="fill:none;stroke:#29ffce;stroke-linecap:square;stroke-width:2;"/>
   </g>
   <g id="line2d_31">
    <path clip-path="url(#p6056738197)" d="M 113.287686 471.19684 
L 116.794197 469.342354 
L 120.300709 466.186525 
L 123.80722 461.677481 
L 127.313732 455.800103 
L 130.820243 448.594926 
L 134.326754 440.166391 
L 137.833266 430.683811 
L 141.339777 420.377241 
L 144.846289 409.529558 
L 148.3528 398.465596 
L 151.859311 387.539048 
L 155.365823 377.117798 
L 158.872334 367.568323 
L 162.378845 359.239861 
L 165.885357 352.448991 
L 169.391868 347.465298 
L 172.89838 344.498729 
L 176.404891 343.689185 
L 179.911402 345.09883 
L 183.417914 348.707454 
L 186.924425 354.411138 
L 190.430937 362.024323 
L 193.937448 371.285242 
L 197.443959 381.864536 
L 200.950471 393.376751 
L 204.456982 405.394304 
L 207.963494 417.463358 
L 211.470005 429.120985 
L 214.976516 439.913007 
L 218.483028 449.411657 
L 221.989539 457.23262 
L 225.496051 463.050315 
L 229.002562 466.611371 
L 232.509073 467.745317 
L 236.015585 466.371959 
L 239.522096 462.505418 
L 243.028608 456.254788 
L 246.535119 447.821651 
L 250.04163 437.491721 
L 253.548142 425.623128 
L 257.054653 412.637379 
L 260.561165 399.006336 
L 264.067676 385.227182 
L 267.574187 371.797567 
L 271.080699 359.205718 
L 274.58721 347.924727 
L 278.093722 338.389654 
L 281.600233 330.96088 
L 285.106744 325.900798 
L 288.613256 323.379146 
L 292.119767 323.490781 
L 295.626278 326.258077 
L 299.13279 331.610242 
L 302.639301 339.358951 
L 306.145813 349.195988 
L 309.652324 360.720769 
L 313.158835 373.4826 
L 316.665347 387.014817 
L 320.171858 400.847897 
L 323.67837 414.506869 
L 327.184881 427.508396 
L 330.691392 439.371692 
L 334.197904 449.645432 
L 337.704415 457.94232 
L 341.210927 463.968291 
L 344.717438 467.536462 
L 348.223949 468.565275 
L 351.730461 467.066573 
L 355.236972 463.132856 
L 358.743484 456.930636 
L 362.249995 448.701859 
L 365.756506 438.768959 
L 369.263018 427.535468 
L 372.769529 415.478564 
L 376.276041 403.129306 
L 379.782552 391.037968 
L 383.289063 379.735119 
L 386.795575 369.698319 
L 390.302086 361.322122 
L 393.808598 354.896428 
L 397.315109 350.605801 
L 400.82162 348.543518 
L 404.328132 348.722441 
L 407.834643 351.083246 
L 411.341155 355.51086 
L 414.847666 361.850668 
L 418.354177 369.90749 
L 421.860689 379.43185 
L 425.3672 390.114812 
L 428.873711 401.596571 
L 432.380223 413.475574 
L 435.886734 425.311696 
L 439.393246 436.636331 
L 442.899757 446.980368 
L 446.406268 455.912099 
L 449.91278 463.06859 
L 453.419291 468.174385 
L 456.925803 471.05555 
L 460.432314 471.653554 
" style="fill:none;stroke:#ceff29;stroke-linecap:square;stroke-width:2;"/>
   </g>
   <g id="line2d_32">
    <path clip-path="url(#p6056738197)" d="M 113.287686 471.251228 
L 116.794197 469.565911 
L 120.300709 466.712662 
L 123.80722 462.671005 
L 127.313732 457.468115 
L 130.820243 451.194372 
L 134.326754 444.007443 
L 137.833266 436.128516 
L 141.339777 427.833005 
L 144.846289 419.437271 
L 148.3528 411.282506 
L 151.859311 403.716863 
L 155.365823 397.076882 
L 158.872334 391.669227 
L 162.378845 387.753722 
L 165.885357 385.528611 
L 169.391868 385.118832 
L 172.89838 386.567946 
L 176.404891 389.834179 
L 179.911402 394.79082 
L 183.417914 401.230988 
L 186.924425 408.876568 
L 190.430937 417.390866 
L 193.937448 426.394383 
L 197.443959 435.482897 
L 200.950471 444.246945 
L 204.456982 452.291734 
L 207.963494 459.256431 
L 211.470005 464.831861 
L 214.976516 468.775724 
L 218.483028 470.924472 
L 221.989539 471.201365 
L 225.496051 469.620135 
L 229.002562 466.284149 
L 232.509073 461.381016 
L 236.015585 455.173597 
L 239.522096 447.985981 
L 243.028608 440.18671 
L 246.535119 432.173074 
L 250.04163 424.349947 
L 253.548142 417.104889 
L 257.054653 410.79316 
L 260.561165 405.727535 
L 264.067676 402.156939 
L 267.574187 400.243344 
L 271.080699 400.059351 
L 274.58721 401.601672 
L 278.093722 404.79474 
L 281.600233 409.478435 
L 285.106744 415.402975 
L 288.613256 422.250128 
L 292.119767 429.670853 
L 295.626278 437.313579 
L 299.13279 444.831267 
L 302.639301 451.879439 
L 306.145813 458.125266 
L 309.652324 463.274462 
L 313.158835 467.104058 
L 316.665347 469.482985 
L 320.171858 470.371433 
L 323.67837 469.805122 
L 327.184881 467.878577 
L 330.691392 464.738556 
L 334.197904 460.587973 
L 337.704415 455.691704 
L 341.210927 450.372245 
L 344.717438 444.989666 
L 348.223949 439.907533 
L 351.730461 435.453884 
L 355.236972 431.890617 
L 358.743484 429.396397 
L 362.249995 428.06636 
L 365.756506 427.926337 
L 369.263018 428.948215 
L 372.769529 431.061621 
L 376.276041 434.161517 
L 379.782552 438.104388 
L 383.289063 442.697969 
L 386.795575 447.698413 
L 390.302086 452.814822 
L 393.808598 457.718711 
L 397.315109 462.066663 
L 400.82162 465.535472 
L 404.328132 467.85499 
L 407.834643 468.832852 
L 411.341155 468.375227 
L 414.847666 466.49844 
L 418.354177 463.321799 
L 421.860689 459.046624 
L 425.3672 453.935236 
L 428.873711 448.291054 
L 432.380223 442.432028 
L 435.886734 436.660669 
L 439.393246 431.246733 
L 442.899757 426.427563 
L 446.406268 422.413032 
L 449.91278 419.379818 
L 453.419291 417.458814 
L 456.925803 416.731606 
L 460.432314 417.239305 
" style="fill:none;stroke:#ff6800;stroke-linecap:square;stroke-width:2;"/>
   </g>
   <g id="line2d_33">
    <path clip-path="url(#p6056738197)" d="M 113.287686 471.314081 
L 116.794197 469.824949 
L 120.300709 467.32443 
L 123.80722 463.830083 
L 127.313732 459.418515 
L 130.820243 454.235518 
L 134.326754 448.493545 
L 137.833266 442.460616 
L 141.339777 436.443448 
L 144.846289 430.766895 
L 148.3528 425.75156 
L 151.859311 421.691315 
L 155.365823 418.8324 
L 158.872334 417.355588 
L 162.378845 417.362695 
L 165.885357 418.868391 
L 169.391868 421.797911 
L 172.89838 425.990828 
L 176.404891 431.210678 
L 179.911402 437.159759 
L 183.417914 443.498127 
L 186.924425 449.865471 
L 190.430937 455.904389 
L 193.937448 461.283451 
L 197.443959 465.718483 
L 200.950471 468.990609 
L 204.456982 470.959835 
L 207.963494 471.573228 
L 211.470005 470.86717 
L 214.976516 468.963534 
L 218.483028 466.060114 
L 221.989539 462.415875 
L 225.496051 458.332282 
L 229.002562 454.131967 
L 232.509073 450.135314 
L 236.015585 446.639422 
L 239.522096 443.897189 
L 243.028608 442.097913 
L 246.535119 441.358315 
L 250.04163 441.716455 
L 253.548142 443.123715 
L 257.054653 445.450204 
L 260.561165 448.503828 
L 264.067676 452.043389 
L 267.574187 455.786048 
L 271.080699 459.428493 
L 274.58721 462.681329 
L 278.093722 465.294399 
L 281.600233 467.064096 
L 285.106744 467.838629 
L 288.613256 467.535498 
L 292.119767 466.162211 
L 295.626278 463.819921 
L 299.13279 460.683733 
L 302.639301 456.974341 
L 306.145813 452.940032 
L 309.652324 448.853592 
L 313.158835 445.011443 
L 316.665347 441.718914 
L 320.171858 439.256727 
L 323.67837 437.839557 
L 327.184881 437.584078 
L 330.691392 438.499818 
L 334.197904 440.502142 
L 337.704415 443.438168 
L 341.210927 447.110563 
L 344.717438 451.290954 
L 348.223949 455.723562 
L 351.730461 460.123859 
L 355.236972 464.184417 
L 358.743484 467.592644 
L 362.249995 470.059246 
L 365.756506 471.354442 
L 369.263018 471.339993 
L 372.769529 469.988689 
L 376.276041 467.388591 
L 379.782552 463.728322 
L 383.289063 459.26974 
L 386.795575 454.318378 
L 390.302086 449.192342 
L 393.808598 444.194509 
L 397.315109 439.599612 
L 400.82162 435.651828 
L 404.328132 432.558563 
L 407.834643 430.48286 
L 411.341155 429.5447 
L 414.847666 429.822309 
L 418.354177 431.33872 
L 421.860689 434.040895 
L 425.3672 437.792441 
L 428.873711 442.381935 
L 432.380223 447.532463 
L 435.886734 452.90767 
L 439.393246 458.129039 
L 442.899757 462.812915 
L 446.406268 466.615181 
L 449.91278 469.26521 
L 453.419291 470.584854 
L 456.925803 470.502991 
L 460.432314 469.069036 
" style="fill:none;stroke:#800000;stroke-linecap:square;stroke-width:2;"/>
   </g>
   <g id="patch_3">
    <path d="M 76.8375 512.64 
L 76.8375 40.32 
" style="fill:none;stroke:#000000;stroke-linecap:square;stroke-linejoin:miter;stroke-width:0.8;"/>
   </g>
   <g id="patch_4">
    <path d="M 496.8825 512.64 
L 496.8825 40.32 
" style="fill:none;stroke:#000000;stroke-linecap:square;stroke-linejoin:miter;stroke-width:0.8;"/>
   </g>
   <g id="patch_5">
    <path d="M 76.8375 512.64 
L 496.8825 512.64 
" style="fill:none;stroke:#000000;stroke-linecap:square;stroke-linejoin:miter;stroke-width:0.8;"/>
   </g>
   <g id="patch_6">
    <path d="M 76.8375 40.32 
L 496.8825 40.32 
" style="fill:none;stroke:#000000;stroke-linecap:square;stroke-linejoin:miter;stroke-width:0.8;"/>
   </g>
   <g id="legend_1">
    <g id="patch_7">
     <path d="M 90.8375 203.10125 
L 177.2375 203.10125 
Q 181.2375 203.10125 181.2375 199.10125 
L 181.2375 54.32 
Q 181.2375 50.32 177.2375 50.32 
L 90.8375 50.32 
Q 86.8375 50.32 86.8375 54.32 
L 86.8375 199.10125 
Q 86.8375 203.10125 90.8375 203.10125 
z
" style="fill:#ffffff;opacity:0.8;stroke:#cccccc;stroke-linejoin:miter;"/>
    </g>
    <g id="line2d_34">
     <path d="M 94.8375 66.516875 
L 134.8375 66.516875 
" style="fill:none;stroke:#004cff;stroke-linecap:square;stroke-width:2;"/>
    </g>
    <g id="line2d_35"/>
    <g id="text_17">
     <!-- $1_{0}$ -->
     <g transform="translate(150.8375 73.516875)scale(0.2 -0.2)">
      <use transform="translate(0 0.09375)" xlink:href="#DejaVuSans-49"/>
      <use transform="translate(64.580078 -16.3125)scale(0.7)" xlink:href="#DejaVuSans-48"/>
     </g>
    </g>
    <g id="line2d_36">
     <path d="M 94.8375 95.873125 
L 134.8375 95.873125 
" style="fill:none;stroke:#29ffce;stroke-linecap:square;stroke-width:2;"/>
    </g>
    <g id="line2d_37"/>
    <g id="text_18">
     <!-- $2_{0}$ -->
     <g transform="translate(150.8375 102.873125)scale(0.2 -0.2)">
      <use transform="translate(0 0.78125)" xlink:href="#DejaVuSans-50"/>
      <use transform="translate(64.580078 -15.625)scale(0.7)" xlink:href="#DejaVuSans-48"/>
     </g>
    </g>
    <g id="line2d_38">
     <path d="M 94.8375 125.229375 
L 134.8375 125.229375 
" style="fill:none;stroke:#ceff29;stroke-linecap:square;stroke-width:2;"/>
    </g>
    <g id="line2d_39"/>
    <g id="text_19">
     <!-- $3_{0}$ -->
     <g transform="translate(150.8375 132.229375)scale(0.2 -0.2)">
      <use transform="translate(0 0.78125)" xlink:href="#DejaVuSans-51"/>
      <use transform="translate(64.580078 -15.625)scale(0.7)" xlink:href="#DejaVuSans-48"/>
     </g>
    </g>
    <g id="line2d_40">
     <path d="M 94.8375 154.585625 
L 134.8375 154.585625 
" style="fill:none;stroke:#ff6800;stroke-linecap:square;stroke-width:2;"/>
    </g>
    <g id="line2d_41"/>
    <g id="text_20">
     <!-- $4_{0}$ -->
     <g transform="translate(150.8375 161.585625)scale(0.2 -0.2)">
      <use transform="translate(0 0.09375)" xlink:href="#DejaVuSans-52"/>
      <use transform="translate(64.580078 -16.3125)scale(0.7)" xlink:href="#DejaVuSans-48"/>
     </g>
    </g>
    <g id="line2d_42">
     <path d="M 94.8375 183.941875 
L 134.8375 183.941875 
" style="fill:none;stroke:#800000;stroke-linecap:square;stroke-width:2;"/>
    </g>
    <g id="line2d_43"/>
    <g id="text_21">
     <!-- $5_{0}$ -->
     <g transform="translate(150.8375 190.941875)scale(0.2 -0.2)">
      <use transform="translate(0 0.09375)" xlink:href="#DejaVuSans-53"/>
      <use transform="translate(64.580078 -16.3125)scale(0.7)" xlink:href="#DejaVuSans-48"/>
     </g>
    </g>
   </g>
  </g>
 </g>
 <defs>
  <clipPath id="p6056738197">
   <rect height="472.32" width="420.045" x="76.8375" y="40.32"/>
  </clipPath>
 </defs>
</svg>
