<?xml version="1.0" encoding="utf-8" standalone="no"?>
<!DOCTYPE svg PUBLIC "-//W3C//DTD SVG 1.1//EN"
  "http://www.w3.org/Graphics/SVG/1.1/DTD/svg11.dtd">
<!-- Created with matplotlib (https://matplotlib.org/) -->
<svg height="576pt" version="1.1" viewBox="0 0 512.25 576" width="512.25pt" xmlns="http://www.w3.org/2000/svg" xmlns:xlink="http://www.w3.org/1999/xlink">
 <metadata>
  <rdf:RDF xmlns:cc="http://creativecommons.org/ns#" xmlns:dc="http://purl.org/dc/elements/1.1/" xmlns:rdf="http://www.w3.org/1999/02/22-rdf-syntax-ns#">
   <cc:Work>
    <dc:type rdf:resource="http://purl.org/dc/dcmitype/StillImage"/>
    <dc:date>2020-09-11T11:31:50.974535</dc:date>
    <dc:format>image/svg+xml</dc:format>
    <dc:creator>
     <cc:Agent>
      <dc:title>Matplotlib v3.3.1, https://matplotlib.org/</dc:title>
     </cc:Agent>
    </dc:creator>
   </cc:Work>
  </rdf:RDF>
 </metadata>
 <defs>
  <style type="text/css">*{stroke-linecap:butt;stroke-linejoin:round;}</style>
 </defs>
 <g id="figure_1">
  <g id="patch_1">
   <path d="M 0 576 
L 512.25 576 
L 512.25 0 
L 0 0 
z
" style="fill:#ffffff;"/>
  </g>
  <g id="axes_1">
   <g id="patch_2">
    <path d="M 76.8375 512.64 
L 496.8825 512.64 
L 496.8825 40.32 
L 76.8375 40.32 
z
" style="fill:#ffffff;"/>
   </g>
   <g id="matplotlib.axis_1">
    <g id="xtick_1">
     <g id="line2d_1">
      <path clip-path="url(#p02b2f6b0bb)" d="M 109.781175 512.64 
L 109.781175 40.32 
" style="fill:none;stroke:#e6e6e6;stroke-linecap:square;stroke-width:0.8;"/>
     </g>
     <g id="line2d_2">
      <defs>
       <path d="M 0 0 
L 0 -3.5 
" id="mff0ceba2d0" style="stroke:#000000;stroke-width:0.8;"/>
      </defs>
      <g>
       <use style="stroke:#000000;stroke-width:0.8;" x="109.781175" xlink:href="#mff0ceba2d0" y="512.64"/>
      </g>
     </g>
     <g id="text_1">
      <!-- 0 -->
      <g transform="translate(105.0093 527.537656)scale(0.15 -0.15)">
       <defs>
        <path d="M 31.78125 66.40625 
Q 24.171875 66.40625 20.328125 58.90625 
Q 16.5 51.421875 16.5 36.375 
Q 16.5 21.390625 20.328125 13.890625 
Q 24.171875 6.390625 31.78125 6.390625 
Q 39.453125 6.390625 43.28125 13.890625 
Q 47.125 21.390625 47.125 36.375 
Q 47.125 51.421875 43.28125 58.90625 
Q 39.453125 66.40625 31.78125 66.40625 
z
M 31.78125 74.21875 
Q 44.046875 74.21875 50.515625 64.515625 
Q 56.984375 54.828125 56.984375 36.375 
Q 56.984375 17.96875 50.515625 8.265625 
Q 44.046875 -1.421875 31.78125 -1.421875 
Q 19.53125 -1.421875 13.0625 8.265625 
Q 6.59375 17.96875 6.59375 36.375 
Q 6.59375 54.828125 13.0625 64.515625 
Q 19.53125 74.21875 31.78125 74.21875 
z
" id="DejaVuSans-48"/>
       </defs>
       <use xlink:href="#DejaVuSans-48"/>
      </g>
     </g>
    </g>
    <g id="xtick_2">
     <g id="line2d_3">
      <path clip-path="url(#p02b2f6b0bb)" d="M 179.911402 512.64 
L 179.911402 40.32 
" style="fill:none;stroke:#e6e6e6;stroke-linecap:square;stroke-width:0.8;"/>
     </g>
     <g id="line2d_4">
      <g>
       <use style="stroke:#000000;stroke-width:0.8;" x="179.911402" xlink:href="#mff0ceba2d0" y="512.64"/>
      </g>
     </g>
     <g id="text_2">
      <!-- 100 -->
      <g transform="translate(165.595777 527.537656)scale(0.15 -0.15)">
       <defs>
        <path d="M 12.40625 8.296875 
L 28.515625 8.296875 
L 28.515625 63.921875 
L 10.984375 60.40625 
L 10.984375 69.390625 
L 28.421875 72.90625 
L 38.28125 72.90625 
L 38.28125 8.296875 
L 54.390625 8.296875 
L 54.390625 0 
L 12.40625 0 
z
" id="DejaVuSans-49"/>
       </defs>
       <use xlink:href="#DejaVuSans-49"/>
       <use x="63.623047" xlink:href="#DejaVuSans-48"/>
       <use x="127.246094" xlink:href="#DejaVuSans-48"/>
      </g>
     </g>
    </g>
    <g id="xtick_3">
     <g id="line2d_5">
      <path clip-path="url(#p02b2f6b0bb)" d="M 250.04163 512.64 
L 250.04163 40.32 
" style="fill:none;stroke:#e6e6e6;stroke-linecap:square;stroke-width:0.8;"/>
     </g>
     <g id="line2d_6">
      <g>
       <use style="stroke:#000000;stroke-width:0.8;" x="250.04163" xlink:href="#mff0ceba2d0" y="512.64"/>
      </g>
     </g>
     <g id="text_3">
      <!-- 200 -->
      <g transform="translate(235.726005 527.537656)scale(0.15 -0.15)">
       <defs>
        <path d="M 19.1875 8.296875 
L 53.609375 8.296875 
L 53.609375 0 
L 7.328125 0 
L 7.328125 8.296875 
Q 12.9375 14.109375 22.625 23.890625 
Q 32.328125 33.6875 34.8125 36.53125 
Q 39.546875 41.84375 41.421875 45.53125 
Q 43.3125 49.21875 43.3125 52.78125 
Q 43.3125 58.59375 39.234375 62.25 
Q 35.15625 65.921875 28.609375 65.921875 
Q 23.96875 65.921875 18.8125 64.3125 
Q 13.671875 62.703125 7.8125 59.421875 
L 7.8125 69.390625 
Q 13.765625 71.78125 18.9375 73 
Q 24.125 74.21875 28.421875 74.21875 
Q 39.75 74.21875 46.484375 68.546875 
Q 53.21875 62.890625 53.21875 53.421875 
Q 53.21875 48.921875 51.53125 44.890625 
Q 49.859375 40.875 45.40625 35.40625 
Q 44.1875 33.984375 37.640625 27.21875 
Q 31.109375 20.453125 19.1875 8.296875 
z
" id="DejaVuSans-50"/>
       </defs>
       <use xlink:href="#DejaVuSans-50"/>
       <use x="63.623047" xlink:href="#DejaVuSans-48"/>
       <use x="127.246094" xlink:href="#DejaVuSans-48"/>
      </g>
     </g>
    </g>
    <g id="xtick_4">
     <g id="line2d_7">
      <path clip-path="url(#p02b2f6b0bb)" d="M 320.171858 512.64 
L 320.171858 40.32 
" style="fill:none;stroke:#e6e6e6;stroke-linecap:square;stroke-width:0.8;"/>
     </g>
     <g id="line2d_8">
      <g>
       <use style="stroke:#000000;stroke-width:0.8;" x="320.171858" xlink:href="#mff0ceba2d0" y="512.64"/>
      </g>
     </g>
     <g id="text_4">
      <!-- 300 -->
      <g transform="translate(305.856233 527.537656)scale(0.15 -0.15)">
       <defs>
        <path d="M 40.578125 39.3125 
Q 47.65625 37.796875 51.625 33 
Q 55.609375 28.21875 55.609375 21.1875 
Q 55.609375 10.40625 48.1875 4.484375 
Q 40.765625 -1.421875 27.09375 -1.421875 
Q 22.515625 -1.421875 17.65625 -0.515625 
Q 12.796875 0.390625 7.625 2.203125 
L 7.625 11.71875 
Q 11.71875 9.328125 16.59375 8.109375 
Q 21.484375 6.890625 26.8125 6.890625 
Q 36.078125 6.890625 40.9375 10.546875 
Q 45.796875 14.203125 45.796875 21.1875 
Q 45.796875 27.640625 41.28125 31.265625 
Q 36.765625 34.90625 28.71875 34.90625 
L 20.21875 34.90625 
L 20.21875 43.015625 
L 29.109375 43.015625 
Q 36.375 43.015625 40.234375 45.921875 
Q 44.09375 48.828125 44.09375 54.296875 
Q 44.09375 59.90625 40.109375 62.90625 
Q 36.140625 65.921875 28.71875 65.921875 
Q 24.65625 65.921875 20.015625 65.03125 
Q 15.375 64.15625 9.8125 62.3125 
L 9.8125 71.09375 
Q 15.4375 72.65625 20.34375 73.4375 
Q 25.25 74.21875 29.59375 74.21875 
Q 40.828125 74.21875 47.359375 69.109375 
Q 53.90625 64.015625 53.90625 55.328125 
Q 53.90625 49.265625 50.4375 45.09375 
Q 46.96875 40.921875 40.578125 39.3125 
z
" id="DejaVuSans-51"/>
       </defs>
       <use xlink:href="#DejaVuSans-51"/>
       <use x="63.623047" xlink:href="#DejaVuSans-48"/>
       <use x="127.246094" xlink:href="#DejaVuSans-48"/>
      </g>
     </g>
    </g>
    <g id="xtick_5">
     <g id="line2d_9">
      <path clip-path="url(#p02b2f6b0bb)" d="M 390.302086 512.64 
L 390.302086 40.32 
" style="fill:none;stroke:#e6e6e6;stroke-linecap:square;stroke-width:0.8;"/>
     </g>
     <g id="line2d_10">
      <g>
       <use style="stroke:#000000;stroke-width:0.8;" x="390.302086" xlink:href="#mff0ceba2d0" y="512.64"/>
      </g>
     </g>
     <g id="text_5">
      <!-- 400 -->
      <g transform="translate(375.986461 527.537656)scale(0.15 -0.15)">
       <defs>
        <path d="M 37.796875 64.3125 
L 12.890625 25.390625 
L 37.796875 25.390625 
z
M 35.203125 72.90625 
L 47.609375 72.90625 
L 47.609375 25.390625 
L 58.015625 25.390625 
L 58.015625 17.1875 
L 47.609375 17.1875 
L 47.609375 0 
L 37.796875 0 
L 37.796875 17.1875 
L 4.890625 17.1875 
L 4.890625 26.703125 
z
" id="DejaVuSans-52"/>
       </defs>
       <use xlink:href="#DejaVuSans-52"/>
       <use x="63.623047" xlink:href="#DejaVuSans-48"/>
       <use x="127.246094" xlink:href="#DejaVuSans-48"/>
      </g>
     </g>
    </g>
    <g id="xtick_6">
     <g id="line2d_11">
      <path clip-path="url(#p02b2f6b0bb)" d="M 460.432314 512.64 
L 460.432314 40.32 
" style="fill:none;stroke:#e6e6e6;stroke-linecap:square;stroke-width:0.8;"/>
     </g>
     <g id="line2d_12">
      <g>
       <use style="stroke:#000000;stroke-width:0.8;" x="460.432314" xlink:href="#mff0ceba2d0" y="512.64"/>
      </g>
     </g>
     <g id="text_6">
      <!-- 500 -->
      <g transform="translate(446.116689 527.537656)scale(0.15 -0.15)">
       <defs>
        <path d="M 10.796875 72.90625 
L 49.515625 72.90625 
L 49.515625 64.59375 
L 19.828125 64.59375 
L 19.828125 46.734375 
Q 21.96875 47.46875 24.109375 47.828125 
Q 26.265625 48.1875 28.421875 48.1875 
Q 40.625 48.1875 47.75 41.5 
Q 54.890625 34.8125 54.890625 23.390625 
Q 54.890625 11.625 47.5625 5.09375 
Q 40.234375 -1.421875 26.90625 -1.421875 
Q 22.3125 -1.421875 17.546875 -0.640625 
Q 12.796875 0.140625 7.71875 1.703125 
L 7.71875 11.625 
Q 12.109375 9.234375 16.796875 8.0625 
Q 21.484375 6.890625 26.703125 6.890625 
Q 35.15625 6.890625 40.078125 11.328125 
Q 45.015625 15.765625 45.015625 23.390625 
Q 45.015625 31 40.078125 35.4375 
Q 35.15625 39.890625 26.703125 39.890625 
Q 22.75 39.890625 18.8125 39.015625 
Q 14.890625 38.140625 10.796875 36.28125 
z
" id="DejaVuSans-53"/>
       </defs>
       <use xlink:href="#DejaVuSans-53"/>
       <use x="63.623047" xlink:href="#DejaVuSans-48"/>
       <use x="127.246094" xlink:href="#DejaVuSans-48"/>
      </g>
     </g>
    </g>
    <g id="text_7">
     <!-- $z(\AA)$ -->
     <g transform="translate(261.985 556.207969)scale(0.25 -0.25)">
      <defs>
       <path d="M 11.625 54.6875 
L 54.296875 54.6875 
L 52.6875 46.484375 
L 11.53125 7.171875 
L 45.515625 7.171875 
L 44.09375 0 
L -0.296875 0 
L 1.3125 8.203125 
L 42.484375 47.515625 
L 10.203125 47.515625 
z
" id="DejaVuSans-Oblique-122"/>
       <path d="M 31 75.875 
Q 24.46875 64.65625 21.28125 53.65625 
Q 18.109375 42.671875 18.109375 31.390625 
Q 18.109375 20.125 21.3125 9.0625 
Q 24.515625 -2 31 -13.1875 
L 23.1875 -13.1875 
Q 15.875 -1.703125 12.234375 9.375 
Q 8.59375 20.453125 8.59375 31.390625 
Q 8.59375 42.28125 12.203125 53.3125 
Q 15.828125 64.359375 23.1875 75.875 
z
" id="DejaVuSans-40"/>
       <path d="M 49.8125 79.390625 
Q 49.8125 82.46875 47.625 84.640625 
Q 45.453125 86.8125 42.390625 86.8125 
Q 39.265625 86.8125 37.140625 84.6875 
Q 35.015625 82.5625 35.015625 79.390625 
Q 35.015625 76.3125 37.140625 74.15625 
Q 39.265625 72.015625 42.390625 72.015625 
Q 45.453125 72.015625 47.625 74.15625 
Q 49.8125 76.3125 49.8125 79.390625 
z
M 34.421875 68.703125 
Q 31.78125 70.515625 30.390625 73.265625 
Q 29 76.03125 29 79.390625 
Q 29 84.96875 32.90625 88.890625 
Q 36.8125 92.828125 42.390625 92.828125 
Q 47.953125 92.828125 51.875 88.890625 
Q 55.8125 84.96875 55.8125 79.390625 
Q 55.8125 75.53125 54.03125 72.546875 
Q 52.25 69.578125 48.875 67.828125 
L 61.53125 0 
L 51.21875 0 
L 48.1875 18.703125 
L 15.375 18.703125 
L 5.078125 0 
L -5.328125 0 
z
M 40.375 63.1875 
L 19.921875 26.90625 
L 46.6875 26.90625 
z
" id="DejaVuSans-Oblique-197"/>
       <path d="M 8.015625 75.875 
L 15.828125 75.875 
Q 23.140625 64.359375 26.78125 53.3125 
Q 30.421875 42.28125 30.421875 31.390625 
Q 30.421875 20.453125 26.78125 9.375 
Q 23.140625 -1.703125 15.828125 -13.1875 
L 8.015625 -13.1875 
Q 14.5 -2 17.703125 9.0625 
Q 20.90625 20.125 20.90625 31.390625 
Q 20.90625 42.671875 17.703125 53.65625 
Q 14.5 64.65625 8.015625 75.875 
z
" id="DejaVuSans-41"/>
      </defs>
      <use transform="translate(0 0.171875)" xlink:href="#DejaVuSans-Oblique-122"/>
      <use transform="translate(52.490234 0.171875)" xlink:href="#DejaVuSans-40"/>
      <use transform="translate(91.503906 0.171875)" xlink:href="#DejaVuSans-Oblique-197"/>
      <use transform="translate(159.912109 0.171875)" xlink:href="#DejaVuSans-41"/>
     </g>
    </g>
   </g>
   <g id="matplotlib.axis_2">
    <g id="ytick_1">
     <g id="line2d_13">
      <path clip-path="url(#p02b2f6b0bb)" d="M 76.8375 471.655219 
L 496.8825 471.655219 
" style="fill:none;stroke:#e6e6e6;stroke-linecap:square;stroke-width:0.8;"/>
     </g>
     <g id="line2d_14">
      <defs>
       <path d="M 0 0 
L 3.5 0 
" id="m16070f7796" style="stroke:#000000;stroke-width:0.8;"/>
      </defs>
      <g>
       <use style="stroke:#000000;stroke-width:0.8;" x="76.8375" xlink:href="#m16070f7796" y="471.655219"/>
      </g>
     </g>
     <g id="text_8">
      <!-- 0.0 -->
      <g transform="translate(49.482812 477.354047)scale(0.15 -0.15)">
       <defs>
        <path d="M 10.6875 12.40625 
L 21 12.40625 
L 21 0 
L 10.6875 0 
z
" id="DejaVuSans-46"/>
       </defs>
       <use xlink:href="#DejaVuSans-48"/>
       <use x="63.623047" xlink:href="#DejaVuSans-46"/>
       <use x="95.410156" xlink:href="#DejaVuSans-48"/>
      </g>
     </g>
    </g>
    <g id="ytick_2">
     <g id="line2d_15">
      <path clip-path="url(#p02b2f6b0bb)" d="M 76.8375 388.445303 
L 496.8825 388.445303 
" style="fill:none;stroke:#e6e6e6;stroke-linecap:square;stroke-width:0.8;"/>
     </g>
     <g id="line2d_16">
      <g>
       <use style="stroke:#000000;stroke-width:0.8;" x="76.8375" xlink:href="#m16070f7796" y="388.445303"/>
      </g>
     </g>
     <g id="text_9">
      <!-- 0.5 -->
      <g transform="translate(49.482812 394.144131)scale(0.15 -0.15)">
       <use xlink:href="#DejaVuSans-48"/>
       <use x="63.623047" xlink:href="#DejaVuSans-46"/>
       <use x="95.410156" xlink:href="#DejaVuSans-53"/>
      </g>
     </g>
    </g>
    <g id="ytick_3">
     <g id="line2d_17">
      <path clip-path="url(#p02b2f6b0bb)" d="M 76.8375 305.235387 
L 496.8825 305.235387 
" style="fill:none;stroke:#e6e6e6;stroke-linecap:square;stroke-width:0.8;"/>
     </g>
     <g id="line2d_18">
      <g>
       <use style="stroke:#000000;stroke-width:0.8;" x="76.8375" xlink:href="#m16070f7796" y="305.235387"/>
      </g>
     </g>
     <g id="text_10">
      <!-- 1.0 -->
      <g transform="translate(49.482812 310.934215)scale(0.15 -0.15)">
       <use xlink:href="#DejaVuSans-49"/>
       <use x="63.623047" xlink:href="#DejaVuSans-46"/>
       <use x="95.410156" xlink:href="#DejaVuSans-48"/>
      </g>
     </g>
    </g>
    <g id="ytick_4">
     <g id="line2d_19">
      <path clip-path="url(#p02b2f6b0bb)" d="M 76.8375 222.025471 
L 496.8825 222.025471 
" style="fill:none;stroke:#e6e6e6;stroke-linecap:square;stroke-width:0.8;"/>
     </g>
     <g id="line2d_20">
      <g>
       <use style="stroke:#000000;stroke-width:0.8;" x="76.8375" xlink:href="#m16070f7796" y="222.025471"/>
      </g>
     </g>
     <g id="text_11">
      <!-- 1.5 -->
      <g transform="translate(49.482812 227.724299)scale(0.15 -0.15)">
       <use xlink:href="#DejaVuSans-49"/>
       <use x="63.623047" xlink:href="#DejaVuSans-46"/>
       <use x="95.410156" xlink:href="#DejaVuSans-53"/>
      </g>
     </g>
    </g>
    <g id="ytick_5">
     <g id="line2d_21">
      <path clip-path="url(#p02b2f6b0bb)" d="M 76.8375 138.815555 
L 496.8825 138.815555 
" style="fill:none;stroke:#e6e6e6;stroke-linecap:square;stroke-width:0.8;"/>
     </g>
     <g id="line2d_22">
      <g>
       <use style="stroke:#000000;stroke-width:0.8;" x="76.8375" xlink:href="#m16070f7796" y="138.815555"/>
      </g>
     </g>
     <g id="text_12">
      <!-- 2.0 -->
      <g transform="translate(49.482812 144.514383)scale(0.15 -0.15)">
       <use xlink:href="#DejaVuSans-50"/>
       <use x="63.623047" xlink:href="#DejaVuSans-46"/>
       <use x="95.410156" xlink:href="#DejaVuSans-48"/>
      </g>
     </g>
    </g>
    <g id="ytick_6">
     <g id="line2d_23">
      <path clip-path="url(#p02b2f6b0bb)" d="M 76.8375 55.605639 
L 496.8825 55.605639 
" style="fill:none;stroke:#e6e6e6;stroke-linecap:square;stroke-width:0.8;"/>
     </g>
     <g id="line2d_24">
      <g>
       <use style="stroke:#000000;stroke-width:0.8;" x="76.8375" xlink:href="#m16070f7796" y="55.605639"/>
      </g>
     </g>
     <g id="text_13">
      <!-- 2.5 -->
      <g transform="translate(49.482812 61.304467)scale(0.15 -0.15)">
       <use xlink:href="#DejaVuSans-50"/>
       <use x="63.623047" xlink:href="#DejaVuSans-46"/>
       <use x="95.410156" xlink:href="#DejaVuSans-53"/>
      </g>
     </g>
    </g>
    <g id="text_14">
     <!-- $I_b$ -->
     <g transform="translate(40.283594 286.105)rotate(-90)scale(0.25 -0.25)">
      <defs>
       <path d="M 16.890625 72.90625 
L 26.8125 72.90625 
L 12.59375 0 
L 2.6875 0 
z
" id="DejaVuSans-Oblique-73"/>
       <path d="M 49.515625 33.40625 
Q 49.515625 40.484375 46.265625 44.484375 
Q 43.015625 48.484375 37.3125 48.484375 
Q 33.15625 48.484375 29.515625 46.453125 
Q 25.875 44.4375 23.1875 40.578125 
Q 20.359375 36.53125 18.71875 31.171875 
Q 17.09375 25.828125 17.09375 20.515625 
Q 17.09375 13.765625 20.28125 9.9375 
Q 23.484375 6.109375 29.109375 6.109375 
Q 33.34375 6.109375 36.953125 8.078125 
Q 40.578125 10.0625 43.3125 13.921875 
Q 46.09375 17.921875 47.796875 23.234375 
Q 49.515625 28.5625 49.515625 33.40625 
z
M 21.578125 46.390625 
Q 24.90625 50.875 29.90625 53.4375 
Q 34.90625 56 40.375 56 
Q 48.78125 56 53.734375 50.328125 
Q 58.6875 44.671875 58.6875 35.015625 
Q 58.6875 27.09375 55.78125 19.671875 
Q 52.875 12.25 47.515625 6.5 
Q 44 2.6875 39.40625 0.625 
Q 34.8125 -1.421875 29.78125 -1.421875 
Q 24.46875 -1.421875 20.5625 1.015625 
Q 16.65625 3.46875 14.203125 8.296875 
L 12.59375 0 
L 3.609375 0 
L 18.40625 75.984375 
L 27.390625 75.984375 
z
" id="DejaVuSans-Oblique-98"/>
      </defs>
      <use transform="translate(0 0.09375)" xlink:href="#DejaVuSans-Oblique-73"/>
      <use transform="translate(29.492188 -16.3125)scale(0.7)" xlink:href="#DejaVuSans-Oblique-98"/>
     </g>
    </g>
    <g id="text_15">
     <!-- 1e−6 -->
     <g transform="translate(76.8375 37.32)scale(0.1 -0.1)">
      <defs>
       <path d="M 56.203125 29.59375 
L 56.203125 25.203125 
L 14.890625 25.203125 
Q 15.484375 15.921875 20.484375 11.0625 
Q 25.484375 6.203125 34.421875 6.203125 
Q 39.59375 6.203125 44.453125 7.46875 
Q 49.3125 8.734375 54.109375 11.28125 
L 54.109375 2.78125 
Q 49.265625 0.734375 44.1875 -0.34375 
Q 39.109375 -1.421875 33.890625 -1.421875 
Q 20.796875 -1.421875 13.15625 6.1875 
Q 5.515625 13.8125 5.515625 26.8125 
Q 5.515625 40.234375 12.765625 48.109375 
Q 20.015625 56 32.328125 56 
Q 43.359375 56 49.78125 48.890625 
Q 56.203125 41.796875 56.203125 29.59375 
z
M 47.21875 32.234375 
Q 47.125 39.59375 43.09375 43.984375 
Q 39.0625 48.390625 32.421875 48.390625 
Q 24.90625 48.390625 20.390625 44.140625 
Q 15.875 39.890625 15.1875 32.171875 
z
" id="DejaVuSans-101"/>
       <path d="M 10.59375 35.5 
L 73.1875 35.5 
L 73.1875 27.203125 
L 10.59375 27.203125 
z
" id="DejaVuSans-8722"/>
       <path d="M 33.015625 40.375 
Q 26.375 40.375 22.484375 35.828125 
Q 18.609375 31.296875 18.609375 23.390625 
Q 18.609375 15.53125 22.484375 10.953125 
Q 26.375 6.390625 33.015625 6.390625 
Q 39.65625 6.390625 43.53125 10.953125 
Q 47.40625 15.53125 47.40625 23.390625 
Q 47.40625 31.296875 43.53125 35.828125 
Q 39.65625 40.375 33.015625 40.375 
z
M 52.59375 71.296875 
L 52.59375 62.3125 
Q 48.875 64.0625 45.09375 64.984375 
Q 41.3125 65.921875 37.59375 65.921875 
Q 27.828125 65.921875 22.671875 59.328125 
Q 17.53125 52.734375 16.796875 39.40625 
Q 19.671875 43.65625 24.015625 45.921875 
Q 28.375 48.1875 33.59375 48.1875 
Q 44.578125 48.1875 50.953125 41.515625 
Q 57.328125 34.859375 57.328125 23.390625 
Q 57.328125 12.15625 50.6875 5.359375 
Q 44.046875 -1.421875 33.015625 -1.421875 
Q 20.359375 -1.421875 13.671875 8.265625 
Q 6.984375 17.96875 6.984375 36.375 
Q 6.984375 53.65625 15.1875 63.9375 
Q 23.390625 74.21875 37.203125 74.21875 
Q 40.921875 74.21875 44.703125 73.484375 
Q 48.484375 72.75 52.59375 71.296875 
z
" id="DejaVuSans-54"/>
      </defs>
      <use xlink:href="#DejaVuSans-49"/>
      <use x="63.623047" xlink:href="#DejaVuSans-101"/>
      <use x="125.146484" xlink:href="#DejaVuSans-8722"/>
      <use x="208.935547" xlink:href="#DejaVuSans-54"/>
     </g>
    </g>
   </g>
   <g id="line2d_25">
    <path clip-path="url(#p02b2f6b0bb)" d="M 113.287686 471.615876 
L 116.794197 471.497842 
L 120.300709 471.301106 
L 123.80722 471.025652 
L 127.313732 470.671466 
L 130.820243 470.238531 
L 134.326754 469.726836 
L 137.833266 469.13637 
L 141.339777 468.467123 
L 144.846289 467.719089 
L 148.3528 466.892261 
L 151.859311 465.986638 
L 155.365823 465.002216 
L 158.872334 463.938998 
L 162.378845 462.796984 
L 165.885357 461.576178 
L 169.391868 460.276585 
L 172.89838 458.898213 
L 176.404891 457.44107 
L 179.911402 455.905165 
L 183.417914 454.290511 
L 186.924425 452.597121 
L 190.430937 450.825009 
L 193.937448 448.974192 
L 197.443959 447.044686 
L 200.950471 445.036512 
L 204.456982 442.949689 
L 207.963494 440.78424 
L 211.470005 438.540188 
L 214.976516 436.217557 
L 218.483028 433.816375 
L 221.989539 431.336668 
L 225.496051 428.778466 
L 229.002562 426.141799 
L 232.509073 423.426699 
L 236.015585 420.633199 
L 239.522096 417.761333 
L 243.028608 414.811137 
L 246.535119 411.78265 
L 250.04163 408.67591 
L 253.548142 405.490954 
L 257.054653 402.227823 
L 260.561165 398.886567 
L 264.067676 395.467227 
L 267.574187 391.969843 
L 271.080699 388.394458 
L 274.58721 384.741126 
L 278.093722 381.009905 
L 281.600233 377.200849 
L 285.106744 373.313998 
L 288.613256 369.349391 
L 292.119767 365.307079 
L 295.626278 361.187131 
L 299.13279 356.989623 
L 302.639301 352.714628 
L 306.145813 348.3622 
L 309.652324 343.932376 
L 313.158835 339.42519 
L 316.665347 334.840692 
L 320.171858 330.178951 
L 323.67837 325.440062 
L 327.184881 320.624128 
L 330.691392 315.731247 
L 334.197904 310.761497 
L 337.704415 305.714933 
L 341.210927 300.591592 
L 344.717438 295.391501 
L 348.223949 290.114696 
L 351.730461 284.761235 
L 355.236972 279.331198 
L 358.743484 273.824695 
L 362.249995 268.241855 
L 365.756506 262.582812 
L 369.263018 256.847697 
L 372.769529 251.036625 
L 376.276041 245.149688 
L 379.782552 239.186951 
L 383.289063 233.148461 
L 386.795575 227.034252 
L 390.302086 220.84435 
L 393.808598 214.578784 
L 397.315109 208.237601 
L 400.82162 201.820875 
L 404.328132 195.328699 
L 407.834643 188.761181 
L 411.341155 182.118464 
L 414.847666 175.400709 
L 418.354177 168.608091 
L 421.860689 161.74077 
L 425.3672 154.798905 
L 428.873711 147.782652 
L 432.380223 140.692164 
L 435.886734 133.527566 
L 439.393246 126.288952 
L 442.899757 118.976389 
L 446.406268 111.589939 
L 449.91278 104.129669 
L 453.419291 96.595639 
L 456.925803 88.98789 
L 460.432314 81.306446 
" style="fill:none;stroke:#004cff;stroke-linecap:square;stroke-width:2;"/>
   </g>
   <g id="line2d_26">
    <path clip-path="url(#p02b2f6b0bb)" d="M 113.287686 471.61742 
L 116.794197 471.504026 
L 120.300709 471.315055 
L 123.80722 471.050535 
L 127.313732 470.710513 
L 130.820243 470.295057 
L 134.326754 469.804251 
L 137.833266 469.238201 
L 141.339777 468.597031 
L 144.846289 467.880885 
L 148.3528 467.089927 
L 151.859311 466.22434 
L 155.365823 465.284324 
L 158.872334 464.270101 
L 162.378845 463.181912 
L 165.885357 462.020014 
L 169.391868 460.784686 
L 172.89838 459.476223 
L 176.404891 458.094942 
L 179.911402 456.641174 
L 183.417914 455.115273 
L 186.924425 453.517608 
L 190.430937 451.848567 
L 193.937448 450.108557 
L 197.443959 448.298002 
L 200.950471 446.417344 
L 204.456982 444.467043 
L 207.963494 442.447577 
L 211.470005 440.359439 
L 214.976516 438.203143 
L 218.483028 435.979217 
L 221.989539 433.688209 
L 225.496051 431.33068 
L 229.002562 428.907212 
L 232.509073 426.4184 
L 236.015585 423.864859 
L 239.522096 421.247216 
L 243.028608 418.566117 
L 246.535119 415.822226 
L 250.04163 413.016218 
L 253.548142 410.148785 
L 257.054653 407.220634 
L 260.561165 404.232493 
L 264.067676 401.185103 
L 267.574187 398.079211 
L 271.080699 394.915579 
L 274.58721 391.694994 
L 278.093722 388.418263 
L 281.600233 385.086203 
L 285.106744 381.699631 
L 288.613256 378.25937 
L 292.119767 374.766264 
L 295.626278 371.221186 
L 299.13279 367.625034 
L 302.639301 363.978718 
L 306.145813 360.283143 
L 309.652324 356.539208 
L 313.158835 352.747814 
L 316.665347 348.909879 
L 320.171858 345.026349 
L 323.67837 341.098207 
L 327.184881 337.12646 
L 330.691392 333.112127 
L 334.197904 329.056226 
L 337.704415 324.959763 
L 341.210927 320.823731 
L 344.717438 316.649116 
L 348.223949 312.436911 
L 351.730461 308.188129 
L 355.236972 303.903811 
L 358.743484 299.585031 
L 362.249995 295.232897 
L 365.756506 290.848535 
L 369.263018 286.433086 
L 372.769529 281.987692 
L 376.276041 277.513487 
L 379.782552 273.011587 
L 383.289063 268.483093 
L 386.795575 263.929095 
L 390.302086 259.350675 
L 393.808598 254.748908 
L 397.315109 250.124881 
L 400.82162 245.479704 
L 404.328132 240.814504 
L 407.834643 236.130426 
L 411.341155 231.428642 
L 414.847666 226.710358 
L 418.354177 221.976802 
L 421.860689 217.229205 
L 425.3672 212.4688 
L 428.873711 207.69683 
L 432.380223 202.914543 
L 435.886734 198.123184 
L 439.393246 193.323969 
L 442.899757 188.518089 
L 446.406268 183.706723 
L 449.91278 178.89105 
L 453.419291 174.072248 
L 456.925803 169.251475 
L 460.432314 164.429868 
" style="fill:none;stroke:#29ffce;stroke-linecap:square;stroke-width:2;"/>
   </g>
   <g id="line2d_27">
    <path clip-path="url(#p02b2f6b0bb)" d="M 113.287686 471.619859 
L 116.794197 471.51382 
L 120.300709 471.337224 
L 123.80722 471.090277 
L 127.313732 470.773275 
L 130.820243 470.3866 
L 134.326754 469.930723 
L 137.833266 469.406205 
L 141.339777 468.813692 
L 144.846289 468.153916 
L 148.3528 467.427698 
L 151.859311 466.63594 
L 155.365823 465.779628 
L 158.872334 464.85983 
L 162.378845 463.877695 
L 165.885357 462.834451 
L 169.391868 461.731402 
L 172.89838 460.569929 
L 176.404891 459.351488 
L 179.911402 458.077605 
L 183.417914 456.749877 
L 186.924425 455.369971 
L 190.430937 453.939616 
L 193.937448 452.460608 
L 197.443959 450.934805 
L 200.950471 449.364121 
L 204.456982 447.750531 
L 207.963494 446.096061 
L 211.470005 444.40279 
L 214.976516 442.672846 
L 218.483028 440.908403 
L 221.989539 439.11168 
L 225.496051 437.284936 
L 229.002562 435.430467 
L 232.509073 433.550606 
L 236.015585 431.647717 
L 239.522096 429.724193 
L 243.028608 427.782454 
L 246.535119 425.824944 
L 250.04163 423.854125 
L 253.548142 421.872476 
L 257.054653 419.882489 
L 260.561165 417.886672 
L 264.067676 415.887539 
L 267.574187 413.887604 
L 271.080699 411.889376 
L 274.58721 409.89537 
L 278.093722 407.908105 
L 281.600233 405.930093 
L 285.106744 403.963821 
L 288.613256 402.011752 
L 292.119767 400.07633 
L 295.626278 398.159992 
L 299.13279 396.265164 
L 302.639301 394.394251 
L 306.145813 392.549622 
L 309.652324 390.733596 
L 313.158835 388.94844 
L 316.665347 387.196376 
L 320.171858 385.479595 
L 323.67837 383.800259 
L 327.184881 382.160501 
L 330.691392 380.562416 
L 334.197904 379.008047 
L 337.704415 377.499369 
L 341.210927 376.038282 
L 344.717438 374.62661 
L 348.223949 373.266097 
L 351.730461 371.958422 
L 355.236972 370.705205 
L 358.743484 369.508007 
L 362.249995 368.368341 
L 365.756506 367.287664 
L 369.263018 366.26737 
L 372.769529 365.308784 
L 376.276041 364.413155 
L 379.782552 363.58164 
L 383.289063 362.815302 
L 386.795575 362.115107 
L 390.302086 361.481925 
L 393.808598 360.916524 
L 397.315109 360.419576 
L 400.82162 359.99167 
L 404.328132 359.633311 
L 407.834643 359.344918 
L 411.341155 359.126828 
L 414.847666 358.979308 
L 418.354177 358.902555 
L 421.860689 358.896687 
L 425.3672 358.961735 
L 428.873711 359.097643 
L 432.380223 359.304283 
L 435.886734 359.581442 
L 439.393246 359.928815 
L 442.899757 360.345997 
L 446.406268 360.832476 
L 449.91278 361.387653 
L 453.419291 362.010842 
L 456.925803 362.70127 
L 460.432314 363.458062 
" style="fill:none;stroke:#ceff29;stroke-linecap:square;stroke-width:2;"/>
   </g>
   <g id="line2d_28">
    <path clip-path="url(#p02b2f6b0bb)" d="M 113.287686 471.623012 
L 116.794197 471.526517 
L 120.300709 471.366107 
L 123.80722 471.142406 
L 127.313732 470.856289 
L 130.820243 470.508883 
L 134.326754 470.101555 
L 137.833266 469.635914 
L 141.339777 469.113802 
L 144.846289 468.537286 
L 148.3528 467.908648 
L 151.859311 467.230382 
L 155.365823 466.505178 
L 158.872334 465.735912 
L 162.378845 464.925639 
L 165.885357 464.077574 
L 169.391868 463.195086 
L 172.89838 462.281681 
L 176.404891 461.340986 
L 179.911402 460.376738 
L 183.417914 459.392771 
L 186.924425 458.392994 
L 190.430937 457.381381 
L 193.937448 456.361952 
L 197.443959 455.338762 
L 200.950471 454.315877 
L 204.456982 453.297365 
L 207.963494 452.287274 
L 211.470005 451.289623 
L 214.976516 450.308378 
L 218.483028 449.347441 
L 221.989539 448.410635 
L 225.496051 447.501686 
L 229.002562 446.624208 
L 232.509073 445.781693 
L 236.015585 444.977492 
L 239.522096 444.214804 
L 243.028608 443.496664 
L 246.535119 442.825929 
L 250.04163 442.205269 
L 253.548142 441.637154 
L 257.054653 441.123841 
L 260.561165 440.667375 
L 264.067676 440.269578 
L 267.574187 439.932034 
L 271.080699 439.65608 
L 274.58721 439.442811 
L 278.093722 439.293083 
L 281.600233 439.207499 
L 285.106744 439.186408 
L 288.613256 439.22989 
L 292.119767 439.337762 
L 295.626278 439.50959 
L 299.13279 439.744691 
L 302.639301 440.042146 
L 306.145813 440.400786 
L 309.652324 440.819194 
L 313.158835 441.295702 
L 316.665347 441.828405 
L 320.171858 442.415167 
L 323.67837 443.053645 
L 327.184881 443.741298 
L 330.691392 444.475403 
L 334.197904 445.253055 
L 337.704415 446.071181 
L 341.210927 446.926537 
L 344.717438 447.815727 
L 348.223949 448.735207 
L 351.730461 449.681306 
L 355.236972 450.650243 
L 358.743484 451.638147 
L 362.249995 452.641078 
L 365.756506 453.655042 
L 369.263018 454.676009 
L 372.769529 455.699924 
L 376.276041 456.72273 
L 379.782552 457.740373 
L 383.289063 458.748814 
L 386.795575 459.744052 
L 390.302086 460.722129 
L 393.808598 461.679154 
L 397.315109 462.61131 
L 400.82162 463.514876 
L 404.328132 464.386246 
L 407.834643 465.22194 
L 411.341155 466.018619 
L 414.847666 466.773102 
L 418.354177 467.48238 
L 421.860689 468.143628 
L 425.3672 468.754214 
L 428.873711 469.311709 
L 432.380223 469.813896 
L 435.886734 470.258782 
L 439.393246 470.644602 
L 442.899757 470.969823 
L 446.406268 471.233153 
L 449.91278 471.433539 
L 453.419291 471.570182 
L 456.925803 471.642532 
L 460.432314 471.650292 
" style="fill:none;stroke:#ff6800;stroke-linecap:square;stroke-width:2;"/>
   </g>
   <g id="line2d_29">
    <path clip-path="url(#p02b2f6b0bb)" d="M 113.287686 471.626657 
L 116.794197 471.541245 
L 120.300709 471.399803 
L 123.80722 471.203691 
L 127.313732 470.954802 
L 130.820243 470.655539 
L 134.326754 470.308797 
L 137.833266 469.917932 
L 141.339777 469.486728 
L 144.846289 469.019364 
L 148.3528 468.520367 
L 151.859311 467.994575 
L 155.365823 467.447085 
L 158.872334 466.883206 
L 162.378845 466.308406 
L 165.885357 465.728259 
L 169.391868 465.148394 
L 172.89838 464.574434 
L 176.404891 464.011949 
L 179.911402 463.466395 
L 183.417914 462.943065 
L 186.924425 462.447038 
L 190.430937 461.983127 
L 193.937448 461.555834 
L 197.443959 461.169306 
L 200.950471 460.827294 
L 204.456982 460.533119 
L 207.963494 460.289637 
L 211.470005 460.099211 
L 214.976516 459.963691 
L 218.483028 459.884395 
L 221.989539 459.862092 
L 225.496051 459.897002 
L 229.002562 459.988788 
L 232.509073 460.136561 
L 236.015585 460.338888 
L 239.522096 460.593808 
L 243.028608 460.898849 
L 246.535119 461.251052 
L 250.04163 461.647001 
L 253.548142 462.082857 
L 257.054653 462.554388 
L 260.561165 463.057018 
L 264.067676 463.585874 
L 267.574187 464.135825 
L 271.080699 464.701534 
L 274.58721 465.277505 
L 278.093722 465.858149 
L 281.600233 466.437833 
L 285.106744 467.010935 
L 288.613256 467.571892 
L 292.119767 468.115255 
L 295.626278 468.635745 
L 299.13279 469.128305 
L 302.639301 469.588155 
L 306.145813 470.010831 
L 309.652324 470.392233 
L 313.158835 470.728654 
L 316.665347 471.016824 
L 320.171858 471.253939 
L 323.67837 471.437689 
L 327.184881 471.566285 
L 330.691392 471.638474 
L 334.197904 471.653554 
L 337.704415 471.611373 
L 341.210927 471.512334 
L 344.717438 471.357391 
L 348.223949 471.148036 
L 351.730461 470.88629 
L 355.236972 470.574683 
L 358.743484 470.216228 
L 362.249995 469.814401 
L 365.756506 469.373097 
L 369.263018 468.8966 
L 372.769529 468.389533 
L 376.276041 467.856817 
L 379.782552 467.30362 
L 383.289063 466.735304 
L 386.795575 466.157376 
L 390.302086 465.575434 
L 393.808598 464.995111 
L 397.315109 464.422022 
L 400.82162 463.861715 
L 404.328132 463.319615 
L 407.834643 462.800972 
L 411.341155 462.310809 
L 414.847666 461.85388 
L 418.354177 461.434623 
L 421.860689 461.05711 
L 425.3672 460.725011 
L 428.873711 460.441554 
L 432.380223 460.209503 
L 435.886734 460.031124 
L 439.393246 459.908159 
L 442.899757 459.841809 
L 446.406268 459.832722 
L 449.91278 459.880989 
L 453.419291 459.986147 
L 456.925803 460.147181 
L 460.432314 460.362528 
" style="fill:none;stroke:#800000;stroke-linecap:square;stroke-width:2;"/>
   </g>
   <g id="line2d_30">
    <path clip-path="url(#p02b2f6b0bb)" d="M 113.287686 471.615876 
L 116.794197 471.497842 
L 120.300709 471.301106 
L 123.80722 471.025652 
L 127.313732 470.671466 
L 130.820243 470.238531 
L 134.326754 469.726836 
L 137.833266 469.13637 
L 141.339777 468.467123 
L 144.846289 467.719089 
L 148.3528 466.892261 
L 151.859311 465.986638 
L 155.365823 465.002216 
L 158.872334 463.938998 
L 162.378845 462.796984 
L 165.885357 461.576178 
L 169.391868 460.276585 
L 172.89838 458.898213 
L 176.404891 457.44107 
L 179.911402 455.905165 
L 183.417914 454.290511 
L 186.924425 452.597121 
L 190.430937 450.825009 
L 193.937448 448.974192 
L 197.443959 447.044686 
L 200.950471 445.036512 
L 204.456982 442.949689 
L 207.963494 440.78424 
L 211.470005 438.540188 
L 214.976516 436.217557 
L 218.483028 433.816375 
L 221.989539 431.336668 
L 225.496051 428.778466 
L 229.002562 426.141799 
L 232.509073 423.426699 
L 236.015585 420.633199 
L 239.522096 417.761333 
L 243.028608 414.811137 
L 246.535119 411.78265 
L 250.04163 408.67591 
L 253.548142 405.490954 
L 257.054653 402.227823 
L 260.561165 398.886567 
L 264.067676 395.467227 
L 267.574187 391.969843 
L 271.080699 388.394458 
L 274.58721 384.741126 
L 278.093722 381.009905 
L 281.600233 377.200849 
L 285.106744 373.313998 
L 288.613256 369.349391 
L 292.119767 365.307079 
L 295.626278 361.187131 
L 299.13279 356.989623 
L 302.639301 352.714628 
L 306.145813 348.3622 
L 309.652324 343.932376 
L 313.158835 339.42519 
L 316.665347 334.840692 
L 320.171858 330.178951 
L 323.67837 325.440062 
L 327.184881 320.624128 
L 330.691392 315.731247 
L 334.197904 310.761497 
L 337.704415 305.714933 
L 341.210927 300.591592 
L 344.717438 295.391501 
L 348.223949 290.114696 
L 351.730461 284.761235 
L 355.236972 279.331198 
L 358.743484 273.824695 
L 362.249995 268.241855 
L 365.756506 262.582812 
L 369.263018 256.847697 
L 372.769529 251.036625 
L 376.276041 245.149688 
L 379.782552 239.186951 
L 383.289063 233.148461 
L 386.795575 227.034252 
L 390.302086 220.84435 
L 393.808598 214.578784 
L 397.315109 208.237601 
L 400.82162 201.820875 
L 404.328132 195.328699 
L 407.834643 188.761181 
L 411.341155 182.118464 
L 414.847666 175.400709 
L 418.354177 168.608091 
L 421.860689 161.74077 
L 425.3672 154.798905 
L 428.873711 147.782652 
L 432.380223 140.692164 
L 435.886734 133.527566 
L 439.393246 126.288952 
L 442.899757 118.976389 
L 446.406268 111.589939 
L 449.91278 104.129669 
L 453.419291 96.595639 
L 456.925803 88.98789 
L 460.432314 81.306446 
" style="fill:none;stroke:#004cff;stroke-linecap:square;stroke-width:2;"/>
   </g>
   <g id="line2d_31">
    <path clip-path="url(#p02b2f6b0bb)" d="M 113.287686 471.61742 
L 116.794197 471.504026 
L 120.300709 471.315055 
L 123.80722 471.050535 
L 127.313732 470.710513 
L 130.820243 470.295057 
L 134.326754 469.804251 
L 137.833266 469.238201 
L 141.339777 468.597031 
L 144.846289 467.880885 
L 148.3528 467.089927 
L 151.859311 466.22434 
L 155.365823 465.284324 
L 158.872334 464.270101 
L 162.378845 463.181912 
L 165.885357 462.020014 
L 169.391868 460.784686 
L 172.89838 459.476223 
L 176.404891 458.094942 
L 179.911402 456.641174 
L 183.417914 455.115273 
L 186.924425 453.517608 
L 190.430937 451.848567 
L 193.937448 450.108557 
L 197.443959 448.298002 
L 200.950471 446.417344 
L 204.456982 444.467043 
L 207.963494 442.447577 
L 211.470005 440.359439 
L 214.976516 438.203143 
L 218.483028 435.979217 
L 221.989539 433.688209 
L 225.496051 431.33068 
L 229.002562 428.907212 
L 232.509073 426.4184 
L 236.015585 423.864859 
L 239.522096 421.247216 
L 243.028608 418.566117 
L 246.535119 415.822226 
L 250.04163 413.016218 
L 253.548142 410.148785 
L 257.054653 407.220634 
L 260.561165 404.232493 
L 264.067676 401.185103 
L 267.574187 398.079211 
L 271.080699 394.915579 
L 274.58721 391.694994 
L 278.093722 388.418263 
L 281.600233 385.086203 
L 285.106744 381.699631 
L 288.613256 378.25937 
L 292.119767 374.766264 
L 295.626278 371.221186 
L 299.13279 367.625034 
L 302.639301 363.978718 
L 306.145813 360.283143 
L 309.652324 356.539208 
L 313.158835 352.747814 
L 316.665347 348.909879 
L 320.171858 345.026349 
L 323.67837 341.098207 
L 327.184881 337.12646 
L 330.691392 333.112127 
L 334.197904 329.056226 
L 337.704415 324.959763 
L 341.210927 320.823731 
L 344.717438 316.649116 
L 348.223949 312.436911 
L 351.730461 308.188129 
L 355.236972 303.903811 
L 358.743484 299.585031 
L 362.249995 295.232897 
L 365.756506 290.848535 
L 369.263018 286.433086 
L 372.769529 281.987692 
L 376.276041 277.513487 
L 379.782552 273.011587 
L 383.289063 268.483093 
L 386.795575 263.929095 
L 390.302086 259.350675 
L 393.808598 254.748908 
L 397.315109 250.124881 
L 400.82162 245.479704 
L 404.328132 240.814504 
L 407.834643 236.130426 
L 411.341155 231.428642 
L 414.847666 226.710358 
L 418.354177 221.976802 
L 421.860689 217.229205 
L 425.3672 212.4688 
L 428.873711 207.69683 
L 432.380223 202.914543 
L 435.886734 198.123184 
L 439.393246 193.323969 
L 442.899757 188.518089 
L 446.406268 183.706723 
L 449.91278 178.89105 
L 453.419291 174.072248 
L 456.925803 169.251475 
L 460.432314 164.429868 
" style="fill:none;stroke:#29ffce;stroke-linecap:square;stroke-width:2;"/>
   </g>
   <g id="line2d_32">
    <path clip-path="url(#p02b2f6b0bb)" d="M 113.287686 471.619859 
L 116.794197 471.51382 
L 120.300709 471.337224 
L 123.80722 471.090277 
L 127.313732 470.773275 
L 130.820243 470.3866 
L 134.326754 469.930723 
L 137.833266 469.406205 
L 141.339777 468.813692 
L 144.846289 468.153916 
L 148.3528 467.427698 
L 151.859311 466.63594 
L 155.365823 465.779628 
L 158.872334 464.85983 
L 162.378845 463.877695 
L 165.885357 462.834451 
L 169.391868 461.731402 
L 172.89838 460.569929 
L 176.404891 459.351488 
L 179.911402 458.077605 
L 183.417914 456.749877 
L 186.924425 455.369971 
L 190.430937 453.939616 
L 193.937448 452.460608 
L 197.443959 450.934805 
L 200.950471 449.364121 
L 204.456982 447.750531 
L 207.963494 446.096061 
L 211.470005 444.40279 
L 214.976516 442.672846 
L 218.483028 440.908403 
L 221.989539 439.11168 
L 225.496051 437.284936 
L 229.002562 435.430467 
L 232.509073 433.550606 
L 236.015585 431.647717 
L 239.522096 429.724193 
L 243.028608 427.782454 
L 246.535119 425.824944 
L 250.04163 423.854125 
L 253.548142 421.872476 
L 257.054653 419.882489 
L 260.561165 417.886672 
L 264.067676 415.887539 
L 267.574187 413.887604 
L 271.080699 411.889376 
L 274.58721 409.89537 
L 278.093722 407.908105 
L 281.600233 405.930093 
L 285.106744 403.963821 
L 288.613256 402.011752 
L 292.119767 400.07633 
L 295.626278 398.159992 
L 299.13279 396.265164 
L 302.639301 394.394251 
L 306.145813 392.549622 
L 309.652324 390.733596 
L 313.158835 388.94844 
L 316.665347 387.196376 
L 320.171858 385.479595 
L 323.67837 383.800259 
L 327.184881 382.160501 
L 330.691392 380.562416 
L 334.197904 379.008047 
L 337.704415 377.499369 
L 341.210927 376.038282 
L 344.717438 374.62661 
L 348.223949 373.266097 
L 351.730461 371.958422 
L 355.236972 370.705205 
L 358.743484 369.508007 
L 362.249995 368.368341 
L 365.756506 367.287664 
L 369.263018 366.26737 
L 372.769529 365.308784 
L 376.276041 364.413155 
L 379.782552 363.58164 
L 383.289063 362.815302 
L 386.795575 362.115107 
L 390.302086 361.481925 
L 393.808598 360.916524 
L 397.315109 360.419576 
L 400.82162 359.99167 
L 404.328132 359.633311 
L 407.834643 359.344918 
L 411.341155 359.126828 
L 414.847666 358.979308 
L 418.354177 358.902555 
L 421.860689 358.896687 
L 425.3672 358.961735 
L 428.873711 359.097643 
L 432.380223 359.304283 
L 435.886734 359.581442 
L 439.393246 359.928815 
L 442.899757 360.345997 
L 446.406268 360.832476 
L 449.91278 361.387653 
L 453.419291 362.010842 
L 456.925803 362.70127 
L 460.432314 363.458062 
" style="fill:none;stroke:#ceff29;stroke-linecap:square;stroke-width:2;"/>
   </g>
   <g id="line2d_33">
    <path clip-path="url(#p02b2f6b0bb)" d="M 113.287686 471.623012 
L 116.794197 471.526517 
L 120.300709 471.366107 
L 123.80722 471.142406 
L 127.313732 470.856289 
L 130.820243 470.508883 
L 134.326754 470.101555 
L 137.833266 469.635914 
L 141.339777 469.113802 
L 144.846289 468.537286 
L 148.3528 467.908648 
L 151.859311 467.230382 
L 155.365823 466.505178 
L 158.872334 465.735912 
L 162.378845 464.925639 
L 165.885357 464.077574 
L 169.391868 463.195086 
L 172.89838 462.281681 
L 176.404891 461.340986 
L 179.911402 460.376738 
L 183.417914 459.392771 
L 186.924425 458.392994 
L 190.430937 457.381381 
L 193.937448 456.361952 
L 197.443959 455.338762 
L 200.950471 454.315877 
L 204.456982 453.297365 
L 207.963494 452.287274 
L 211.470005 451.289623 
L 214.976516 450.308378 
L 218.483028 449.347441 
L 221.989539 448.410635 
L 225.496051 447.501686 
L 229.002562 446.624208 
L 232.509073 445.781693 
L 236.015585 444.977492 
L 239.522096 444.214804 
L 243.028608 443.496664 
L 246.535119 442.825929 
L 250.04163 442.205269 
L 253.548142 441.637154 
L 257.054653 441.123841 
L 260.561165 440.667375 
L 264.067676 440.269578 
L 267.574187 439.932034 
L 271.080699 439.65608 
L 274.58721 439.442811 
L 278.093722 439.293083 
L 281.600233 439.207499 
L 285.106744 439.186408 
L 288.613256 439.22989 
L 292.119767 439.337762 
L 295.626278 439.50959 
L 299.13279 439.744691 
L 302.639301 440.042146 
L 306.145813 440.400786 
L 309.652324 440.819194 
L 313.158835 441.295702 
L 316.665347 441.828405 
L 320.171858 442.415167 
L 323.67837 443.053645 
L 327.184881 443.741298 
L 330.691392 444.475403 
L 334.197904 445.253055 
L 337.704415 446.071181 
L 341.210927 446.926537 
L 344.717438 447.815727 
L 348.223949 448.735207 
L 351.730461 449.681306 
L 355.236972 450.650243 
L 358.743484 451.638147 
L 362.249995 452.641078 
L 365.756506 453.655042 
L 369.263018 454.676009 
L 372.769529 455.699924 
L 376.276041 456.72273 
L 379.782552 457.740373 
L 383.289063 458.748814 
L 386.795575 459.744052 
L 390.302086 460.722129 
L 393.808598 461.679154 
L 397.315109 462.61131 
L 400.82162 463.514876 
L 404.328132 464.386246 
L 407.834643 465.22194 
L 411.341155 466.018619 
L 414.847666 466.773102 
L 418.354177 467.48238 
L 421.860689 468.143628 
L 425.3672 468.754214 
L 428.873711 469.311709 
L 432.380223 469.813896 
L 435.886734 470.258782 
L 439.393246 470.644602 
L 442.899757 470.969823 
L 446.406268 471.233153 
L 449.91278 471.433539 
L 453.419291 471.570182 
L 456.925803 471.642532 
L 460.432314 471.650292 
" style="fill:none;stroke:#ff6800;stroke-linecap:square;stroke-width:2;"/>
   </g>
   <g id="line2d_34">
    <path clip-path="url(#p02b2f6b0bb)" d="M 113.287686 471.626657 
L 116.794197 471.541245 
L 120.300709 471.399803 
L 123.80722 471.203691 
L 127.313732 470.954802 
L 130.820243 470.655539 
L 134.326754 470.308797 
L 137.833266 469.917932 
L 141.339777 469.486728 
L 144.846289 469.019364 
L 148.3528 468.520367 
L 151.859311 467.994575 
L 155.365823 467.447085 
L 158.872334 466.883206 
L 162.378845 466.308406 
L 165.885357 465.728259 
L 169.391868 465.148394 
L 172.89838 464.574434 
L 176.404891 464.011949 
L 179.911402 463.466395 
L 183.417914 462.943065 
L 186.924425 462.447038 
L 190.430937 461.983127 
L 193.937448 461.555834 
L 197.443959 461.169306 
L 200.950471 460.827294 
L 204.456982 460.533119 
L 207.963494 460.289637 
L 211.470005 460.099211 
L 214.976516 459.963691 
L 218.483028 459.884395 
L 221.989539 459.862092 
L 225.496051 459.897002 
L 229.002562 459.988788 
L 232.509073 460.136561 
L 236.015585 460.338888 
L 239.522096 460.593808 
L 243.028608 460.898849 
L 246.535119 461.251052 
L 250.04163 461.647001 
L 253.548142 462.082857 
L 257.054653 462.554388 
L 260.561165 463.057018 
L 264.067676 463.585874 
L 267.574187 464.135825 
L 271.080699 464.701534 
L 274.58721 465.277505 
L 278.093722 465.858149 
L 281.600233 466.437833 
L 285.106744 467.010935 
L 288.613256 467.571892 
L 292.119767 468.115255 
L 295.626278 468.635745 
L 299.13279 469.128305 
L 302.639301 469.588155 
L 306.145813 470.010831 
L 309.652324 470.392233 
L 313.158835 470.728654 
L 316.665347 471.016824 
L 320.171858 471.253939 
L 323.67837 471.437689 
L 327.184881 471.566285 
L 330.691392 471.638474 
L 334.197904 471.653554 
L 337.704415 471.611373 
L 341.210927 471.512334 
L 344.717438 471.357391 
L 348.223949 471.148036 
L 351.730461 470.88629 
L 355.236972 470.574683 
L 358.743484 470.216228 
L 362.249995 469.814401 
L 365.756506 469.373097 
L 369.263018 468.8966 
L 372.769529 468.389533 
L 376.276041 467.856817 
L 379.782552 467.30362 
L 383.289063 466.735304 
L 386.795575 466.157376 
L 390.302086 465.575434 
L 393.808598 464.995111 
L 397.315109 464.422022 
L 400.82162 463.861715 
L 404.328132 463.319615 
L 407.834643 462.800972 
L 411.341155 462.310809 
L 414.847666 461.85388 
L 418.354177 461.434623 
L 421.860689 461.05711 
L 425.3672 460.725011 
L 428.873711 460.441554 
L 432.380223 460.209503 
L 435.886734 460.031124 
L 439.393246 459.908159 
L 442.899757 459.841809 
L 446.406268 459.832722 
L 449.91278 459.880989 
L 453.419291 459.986147 
L 456.925803 460.147181 
L 460.432314 460.362528 
" style="fill:none;stroke:#800000;stroke-linecap:square;stroke-width:2;"/>
   </g>
   <g id="patch_3">
    <path d="M 76.8375 512.64 
L 76.8375 40.32 
" style="fill:none;stroke:#000000;stroke-linecap:square;stroke-linejoin:miter;stroke-width:0.8;"/>
   </g>
   <g id="patch_4">
    <path d="M 496.8825 512.64 
L 496.8825 40.32 
" style="fill:none;stroke:#000000;stroke-linecap:square;stroke-linejoin:miter;stroke-width:0.8;"/>
   </g>
   <g id="patch_5">
    <path d="M 76.8375 512.64 
L 496.8825 512.64 
" style="fill:none;stroke:#000000;stroke-linecap:square;stroke-linejoin:miter;stroke-width:0.8;"/>
   </g>
   <g id="patch_6">
    <path d="M 76.8375 40.32 
L 496.8825 40.32 
" style="fill:none;stroke:#000000;stroke-linecap:square;stroke-linejoin:miter;stroke-width:0.8;"/>
   </g>
   <g id="legend_1">
    <g id="patch_7">
     <path d="M 90.8375 349.8825 
L 177.2375 349.8825 
Q 181.2375 349.8825 181.2375 345.8825 
L 181.2375 54.32 
Q 181.2375 50.32 177.2375 50.32 
L 90.8375 50.32 
Q 86.8375 50.32 86.8375 54.32 
L 86.8375 345.8825 
Q 86.8375 349.8825 90.8375 349.8825 
z
" style="fill:#ffffff;opacity:0.8;stroke:#cccccc;stroke-linejoin:miter;"/>
    </g>
    <g id="line2d_35">
     <path d="M 94.8375 66.516875 
L 134.8375 66.516875 
" style="fill:none;stroke:#004cff;stroke-linecap:square;stroke-width:2;"/>
    </g>
    <g id="line2d_36"/>
    <g id="text_16">
     <!-- $1_{0}$ -->
     <g transform="translate(150.8375 73.516875)scale(0.2 -0.2)">
      <use transform="translate(0 0.09375)" xlink:href="#DejaVuSans-49"/>
      <use transform="translate(64.580078 -16.3125)scale(0.7)" xlink:href="#DejaVuSans-48"/>
     </g>
    </g>
    <g id="line2d_37">
     <path d="M 94.8375 95.873125 
L 134.8375 95.873125 
" style="fill:none;stroke:#29ffce;stroke-linecap:square;stroke-width:2;"/>
    </g>
    <g id="line2d_38"/>
    <g id="text_17">
     <!-- $2_{0}$ -->
     <g transform="translate(150.8375 102.873125)scale(0.2 -0.2)">
      <use transform="translate(0 0.78125)" xlink:href="#DejaVuSans-50"/>
      <use transform="translate(64.580078 -15.625)scale(0.7)" xlink:href="#DejaVuSans-48"/>
     </g>
    </g>
    <g id="line2d_39">
     <path d="M 94.8375 125.229375 
L 134.8375 125.229375 
" style="fill:none;stroke:#ceff29;stroke-linecap:square;stroke-width:2;"/>
    </g>
    <g id="line2d_40"/>
    <g id="text_18">
     <!-- $3_{0}$ -->
     <g transform="translate(150.8375 132.229375)scale(0.2 -0.2)">
      <use transform="translate(0 0.78125)" xlink:href="#DejaVuSans-51"/>
      <use transform="translate(64.580078 -15.625)scale(0.7)" xlink:href="#DejaVuSans-48"/>
     </g>
    </g>
    <g id="line2d_41">
     <path d="M 94.8375 154.585625 
L 134.8375 154.585625 
" style="fill:none;stroke:#ff6800;stroke-linecap:square;stroke-width:2;"/>
    </g>
    <g id="line2d_42"/>
    <g id="text_19">
     <!-- $4_{0}$ -->
     <g transform="translate(150.8375 161.585625)scale(0.2 -0.2)">
      <use transform="translate(0 0.09375)" xlink:href="#DejaVuSans-52"/>
      <use transform="translate(64.580078 -16.3125)scale(0.7)" xlink:href="#DejaVuSans-48"/>
     </g>
    </g>
    <g id="line2d_43">
     <path d="M 94.8375 183.941875 
L 134.8375 183.941875 
" style="fill:none;stroke:#800000;stroke-linecap:square;stroke-width:2;"/>
    </g>
    <g id="line2d_44"/>
    <g id="text_20">
     <!-- $5_{0}$ -->
     <g transform="translate(150.8375 190.941875)scale(0.2 -0.2)">
      <use transform="translate(0 0.09375)" xlink:href="#DejaVuSans-53"/>
      <use transform="translate(64.580078 -16.3125)scale(0.7)" xlink:href="#DejaVuSans-48"/>
     </g>
    </g>
    <g id="line2d_45">
     <path d="M 94.8375 213.298125 
L 134.8375 213.298125 
" style="fill:none;stroke:#004cff;stroke-linecap:square;stroke-width:2;"/>
    </g>
    <g id="line2d_46"/>
    <g id="text_21">
     <!-- $1_{0}$ -->
     <g transform="translate(150.8375 220.298125)scale(0.2 -0.2)">
      <use transform="translate(0 0.09375)" xlink:href="#DejaVuSans-49"/>
      <use transform="translate(64.580078 -16.3125)scale(0.7)" xlink:href="#DejaVuSans-48"/>
     </g>
    </g>
    <g id="line2d_47">
     <path d="M 94.8375 242.654375 
L 134.8375 242.654375 
" style="fill:none;stroke:#29ffce;stroke-linecap:square;stroke-width:2;"/>
    </g>
    <g id="line2d_48"/>
    <g id="text_22">
     <!-- $2_{0}$ -->
     <g transform="translate(150.8375 249.654375)scale(0.2 -0.2)">
      <use transform="translate(0 0.78125)" xlink:href="#DejaVuSans-50"/>
      <use transform="translate(64.580078 -15.625)scale(0.7)" xlink:href="#DejaVuSans-48"/>
     </g>
    </g>
    <g id="line2d_49">
     <path d="M 94.8375 272.010625 
L 134.8375 272.010625 
" style="fill:none;stroke:#ceff29;stroke-linecap:square;stroke-width:2;"/>
    </g>
    <g id="line2d_50"/>
    <g id="text_23">
     <!-- $3_{0}$ -->
     <g transform="translate(150.8375 279.010625)scale(0.2 -0.2)">
      <use transform="translate(0 0.78125)" xlink:href="#DejaVuSans-51"/>
      <use transform="translate(64.580078 -15.625)scale(0.7)" xlink:href="#DejaVuSans-48"/>
     </g>
    </g>
    <g id="line2d_51">
     <path d="M 94.8375 301.366875 
L 134.8375 301.366875 
" style="fill:none;stroke:#ff6800;stroke-linecap:square;stroke-width:2;"/>
    </g>
    <g id="line2d_52"/>
    <g id="text_24">
     <!-- $4_{0}$ -->
     <g transform="translate(150.8375 308.366875)scale(0.2 -0.2)">
      <use transform="translate(0 0.09375)" xlink:href="#DejaVuSans-52"/>
      <use transform="translate(64.580078 -16.3125)scale(0.7)" xlink:href="#DejaVuSans-48"/>
     </g>
    </g>
    <g id="line2d_53">
     <path d="M 94.8375 330.723125 
L 134.8375 330.723125 
" style="fill:none;stroke:#800000;stroke-linecap:square;stroke-width:2;"/>
    </g>
    <g id="line2d_54"/>
    <g id="text_25">
     <!-- $5_{0}$ -->
     <g transform="translate(150.8375 337.723125)scale(0.2 -0.2)">
      <use transform="translate(0 0.09375)" xlink:href="#DejaVuSans-53"/>
      <use transform="translate(64.580078 -16.3125)scale(0.7)" xlink:href="#DejaVuSans-48"/>
     </g>
    </g>
   </g>
  </g>
 </g>
 <defs>
  <clipPath id="p02b2f6b0bb">
   <rect height="472.32" width="420.045" x="76.8375" y="40.32"/>
  </clipPath>
 </defs>
</svg>
