<?xml version="1.0" encoding="utf-8" standalone="no"?>
<!DOCTYPE svg PUBLIC "-//W3C//DTD SVG 1.1//EN"
  "http://www.w3.org/Graphics/SVG/1.1/DTD/svg11.dtd">
<!-- Created with matplotlib (https://matplotlib.org/) -->
<svg height="576pt" version="1.1" viewBox="0 0 512.25 576" width="512.25pt" xmlns="http://www.w3.org/2000/svg" xmlns:xlink="http://www.w3.org/1999/xlink">
 <defs>
  <style type="text/css">
*{stroke-linecap:butt;stroke-linejoin:round;}
  </style>
 </defs>
 <g id="figure_1">
  <g id="patch_1">
   <path d="M 0 576 
L 512.25 576 
L 512.25 0 
L 0 0 
z
" style="fill:#ffffff;"/>
  </g>
  <g id="axes_1">
   <g id="patch_2">
    <path d="M 76.8375 512.64 
L 496.8825 512.64 
L 496.8825 40.32 
L 76.8375 40.32 
z
" style="fill:#ffffff;"/>
   </g>
   <g id="matplotlib.axis_1">
    <g id="xtick_1">
     <g id="line2d_1">
      <path clip-path="url(#pa46c15472a)" d="M 113.287686 512.64 
L 113.287686 40.32 
" style="fill:none;stroke:#e6e6e6;stroke-linecap:square;stroke-width:0.8;"/>
     </g>
     <g id="line2d_2">
      <defs>
       <path d="M 0 0 
L 0 -3.5 
" id="m1dd5c3d3c6" style="stroke:#000000;stroke-width:0.8;"/>
      </defs>
      <g>
       <use style="stroke:#000000;stroke-width:0.8;" x="113.287686" xlink:href="#m1dd5c3d3c6" y="512.64"/>
      </g>
     </g>
     <g id="text_1">
      <!-- 0 -->
      <defs>
       <path d="M 31.78125 66.40625 
Q 24.171875 66.40625 20.328125 58.90625 
Q 16.5 51.421875 16.5 36.375 
Q 16.5 21.390625 20.328125 13.890625 
Q 24.171875 6.390625 31.78125 6.390625 
Q 39.453125 6.390625 43.28125 13.890625 
Q 47.125 21.390625 47.125 36.375 
Q 47.125 51.421875 43.28125 58.90625 
Q 39.453125 66.40625 31.78125 66.40625 
z
M 31.78125 74.21875 
Q 44.046875 74.21875 50.515625 64.515625 
Q 56.984375 54.828125 56.984375 36.375 
Q 56.984375 17.96875 50.515625 8.265625 
Q 44.046875 -1.421875 31.78125 -1.421875 
Q 19.53125 -1.421875 13.0625 8.265625 
Q 6.59375 17.96875 6.59375 36.375 
Q 6.59375 54.828125 13.0625 64.515625 
Q 19.53125 74.21875 31.78125 74.21875 
z
" id="DejaVuSans-48"/>
      </defs>
      <g transform="translate(108.515811 527.537656)scale(0.15 -0.15)">
       <use xlink:href="#DejaVuSans-48"/>
      </g>
     </g>
    </g>
    <g id="xtick_2">
     <g id="line2d_3">
      <path clip-path="url(#pa46c15472a)" d="M 200.158678 512.64 
L 200.158678 40.32 
" style="fill:none;stroke:#e6e6e6;stroke-linecap:square;stroke-width:0.8;"/>
     </g>
     <g id="line2d_4">
      <g>
       <use style="stroke:#000000;stroke-width:0.8;" x="200.158678" xlink:href="#m1dd5c3d3c6" y="512.64"/>
      </g>
     </g>
     <g id="text_2">
      <!-- 10 -->
      <defs>
       <path d="M 12.40625 8.296875 
L 28.515625 8.296875 
L 28.515625 63.921875 
L 10.984375 60.40625 
L 10.984375 69.390625 
L 28.421875 72.90625 
L 38.28125 72.90625 
L 38.28125 8.296875 
L 54.390625 8.296875 
L 54.390625 0 
L 12.40625 0 
z
" id="DejaVuSans-49"/>
      </defs>
      <g transform="translate(190.614928 527.537656)scale(0.15 -0.15)">
       <use xlink:href="#DejaVuSans-49"/>
       <use x="63.623047" xlink:href="#DejaVuSans-48"/>
      </g>
     </g>
    </g>
    <g id="xtick_3">
     <g id="line2d_5">
      <path clip-path="url(#pa46c15472a)" d="M 287.02967 512.64 
L 287.02967 40.32 
" style="fill:none;stroke:#e6e6e6;stroke-linecap:square;stroke-width:0.8;"/>
     </g>
     <g id="line2d_6">
      <g>
       <use style="stroke:#000000;stroke-width:0.8;" x="287.02967" xlink:href="#m1dd5c3d3c6" y="512.64"/>
      </g>
     </g>
     <g id="text_3">
      <!-- 20 -->
      <defs>
       <path d="M 19.1875 8.296875 
L 53.609375 8.296875 
L 53.609375 0 
L 7.328125 0 
L 7.328125 8.296875 
Q 12.9375 14.109375 22.625 23.890625 
Q 32.328125 33.6875 34.8125 36.53125 
Q 39.546875 41.84375 41.421875 45.53125 
Q 43.3125 49.21875 43.3125 52.78125 
Q 43.3125 58.59375 39.234375 62.25 
Q 35.15625 65.921875 28.609375 65.921875 
Q 23.96875 65.921875 18.8125 64.3125 
Q 13.671875 62.703125 7.8125 59.421875 
L 7.8125 69.390625 
Q 13.765625 71.78125 18.9375 73 
Q 24.125 74.21875 28.421875 74.21875 
Q 39.75 74.21875 46.484375 68.546875 
Q 53.21875 62.890625 53.21875 53.421875 
Q 53.21875 48.921875 51.53125 44.890625 
Q 49.859375 40.875 45.40625 35.40625 
Q 44.1875 33.984375 37.640625 27.21875 
Q 31.109375 20.453125 19.1875 8.296875 
z
" id="DejaVuSans-50"/>
      </defs>
      <g transform="translate(277.48592 527.537656)scale(0.15 -0.15)">
       <use xlink:href="#DejaVuSans-50"/>
       <use x="63.623047" xlink:href="#DejaVuSans-48"/>
      </g>
     </g>
    </g>
    <g id="xtick_4">
     <g id="line2d_7">
      <path clip-path="url(#pa46c15472a)" d="M 373.900662 512.64 
L 373.900662 40.32 
" style="fill:none;stroke:#e6e6e6;stroke-linecap:square;stroke-width:0.8;"/>
     </g>
     <g id="line2d_8">
      <g>
       <use style="stroke:#000000;stroke-width:0.8;" x="373.900662" xlink:href="#m1dd5c3d3c6" y="512.64"/>
      </g>
     </g>
     <g id="text_4">
      <!-- 30 -->
      <defs>
       <path d="M 40.578125 39.3125 
Q 47.65625 37.796875 51.625 33 
Q 55.609375 28.21875 55.609375 21.1875 
Q 55.609375 10.40625 48.1875 4.484375 
Q 40.765625 -1.421875 27.09375 -1.421875 
Q 22.515625 -1.421875 17.65625 -0.515625 
Q 12.796875 0.390625 7.625 2.203125 
L 7.625 11.71875 
Q 11.71875 9.328125 16.59375 8.109375 
Q 21.484375 6.890625 26.8125 6.890625 
Q 36.078125 6.890625 40.9375 10.546875 
Q 45.796875 14.203125 45.796875 21.1875 
Q 45.796875 27.640625 41.28125 31.265625 
Q 36.765625 34.90625 28.71875 34.90625 
L 20.21875 34.90625 
L 20.21875 43.015625 
L 29.109375 43.015625 
Q 36.375 43.015625 40.234375 45.921875 
Q 44.09375 48.828125 44.09375 54.296875 
Q 44.09375 59.90625 40.109375 62.90625 
Q 36.140625 65.921875 28.71875 65.921875 
Q 24.65625 65.921875 20.015625 65.03125 
Q 15.375 64.15625 9.8125 62.3125 
L 9.8125 71.09375 
Q 15.4375 72.65625 20.34375 73.4375 
Q 25.25 74.21875 29.59375 74.21875 
Q 40.828125 74.21875 47.359375 69.109375 
Q 53.90625 64.015625 53.90625 55.328125 
Q 53.90625 49.265625 50.4375 45.09375 
Q 46.96875 40.921875 40.578125 39.3125 
z
" id="DejaVuSans-51"/>
      </defs>
      <g transform="translate(364.356912 527.537656)scale(0.15 -0.15)">
       <use xlink:href="#DejaVuSans-51"/>
       <use x="63.623047" xlink:href="#DejaVuSans-48"/>
      </g>
     </g>
    </g>
    <g id="xtick_5">
     <g id="line2d_9">
      <path clip-path="url(#pa46c15472a)" d="M 460.771654 512.64 
L 460.771654 40.32 
" style="fill:none;stroke:#e6e6e6;stroke-linecap:square;stroke-width:0.8;"/>
     </g>
     <g id="line2d_10">
      <g>
       <use style="stroke:#000000;stroke-width:0.8;" x="460.771654" xlink:href="#m1dd5c3d3c6" y="512.64"/>
      </g>
     </g>
     <g id="text_5">
      <!-- 40 -->
      <defs>
       <path d="M 37.796875 64.3125 
L 12.890625 25.390625 
L 37.796875 25.390625 
z
M 35.203125 72.90625 
L 47.609375 72.90625 
L 47.609375 25.390625 
L 58.015625 25.390625 
L 58.015625 17.1875 
L 47.609375 17.1875 
L 47.609375 0 
L 37.796875 0 
L 37.796875 17.1875 
L 4.890625 17.1875 
L 4.890625 26.703125 
z
" id="DejaVuSans-52"/>
      </defs>
      <g transform="translate(451.227904 527.537656)scale(0.15 -0.15)">
       <use xlink:href="#DejaVuSans-52"/>
       <use x="63.623047" xlink:href="#DejaVuSans-48"/>
      </g>
     </g>
    </g>
    <g id="text_6">
     <!-- $x(\AA)$ -->
     <defs>
      <path d="M 60.015625 54.6875 
L 34.90625 27.875 
L 50.296875 0 
L 39.984375 0 
L 28.421875 21.6875 
L 8.296875 0 
L -2.59375 0 
L 24.3125 28.8125 
L 10.015625 54.6875 
L 20.3125 54.6875 
L 30.8125 34.90625 
L 49.125 54.6875 
z
" id="DejaVuSans-Oblique-120"/>
      <path d="M 31 75.875 
Q 24.46875 64.65625 21.28125 53.65625 
Q 18.109375 42.671875 18.109375 31.390625 
Q 18.109375 20.125 21.3125 9.0625 
Q 24.515625 -2 31 -13.1875 
L 23.1875 -13.1875 
Q 15.875 -1.703125 12.234375 9.375 
Q 8.59375 20.453125 8.59375 31.390625 
Q 8.59375 42.28125 12.203125 53.3125 
Q 15.828125 64.359375 23.1875 75.875 
z
" id="DejaVuSans-40"/>
      <path d="M 49.8125 79.390625 
Q 49.8125 82.46875 47.625 84.640625 
Q 45.453125 86.8125 42.390625 86.8125 
Q 39.265625 86.8125 37.140625 84.6875 
Q 35.015625 82.5625 35.015625 79.390625 
Q 35.015625 76.3125 37.140625 74.15625 
Q 39.265625 72.015625 42.390625 72.015625 
Q 45.453125 72.015625 47.625 74.15625 
Q 49.8125 76.3125 49.8125 79.390625 
z
M 34.421875 68.703125 
Q 31.78125 70.515625 30.390625 73.265625 
Q 29 76.03125 29 79.390625 
Q 29 84.96875 32.90625 88.890625 
Q 36.8125 92.828125 42.390625 92.828125 
Q 47.953125 92.828125 51.875 88.890625 
Q 55.8125 84.96875 55.8125 79.390625 
Q 55.8125 75.53125 54.03125 72.546875 
Q 52.25 69.578125 48.875 67.828125 
L 61.53125 0 
L 51.21875 0 
L 48.1875 18.703125 
L 15.375 18.703125 
L 5.078125 0 
L -5.328125 0 
z
M 40.375 63.1875 
L 19.921875 26.90625 
L 46.6875 26.90625 
z
" id="DejaVuSans-Oblique-197"/>
      <path d="M 8.015625 75.875 
L 15.828125 75.875 
Q 23.140625 64.359375 26.78125 53.3125 
Q 30.421875 42.28125 30.421875 31.390625 
Q 30.421875 20.453125 26.78125 9.375 
Q 23.140625 -1.703125 15.828125 -13.1875 
L 8.015625 -13.1875 
Q 14.5 -2 17.703125 9.0625 
Q 20.90625 20.125 20.90625 31.390625 
Q 20.90625 42.671875 17.703125 53.65625 
Q 14.5 64.65625 8.015625 75.875 
z
" id="DejaVuSans-41"/>
     </defs>
     <g transform="translate(261.11 556.207969)scale(0.25 -0.25)">
      <use transform="translate(0 0.171875)" xlink:href="#DejaVuSans-Oblique-120"/>
      <use transform="translate(59.179688 0.171875)" xlink:href="#DejaVuSans-40"/>
      <use transform="translate(98.193359 0.171875)" xlink:href="#DejaVuSans-Oblique-197"/>
      <use transform="translate(166.601562 0.171875)" xlink:href="#DejaVuSans-41"/>
     </g>
    </g>
   </g>
   <g id="matplotlib.axis_2">
    <g id="ytick_1">
     <g id="line2d_11">
      <path clip-path="url(#pa46c15472a)" d="M 76.8375 471.653611 
L 496.8825 471.653611 
" style="fill:none;stroke:#e6e6e6;stroke-linecap:square;stroke-width:0.8;"/>
     </g>
     <g id="line2d_12">
      <defs>
       <path d="M 0 0 
L 3.5 0 
" id="mdaa5b60701" style="stroke:#000000;stroke-width:0.8;"/>
      </defs>
      <g>
       <use style="stroke:#000000;stroke-width:0.8;" x="76.8375" xlink:href="#mdaa5b60701" y="471.653611"/>
      </g>
     </g>
     <g id="text_7">
      <!-- 0.0 -->
      <defs>
       <path d="M 10.6875 12.40625 
L 21 12.40625 
L 21 0 
L 10.6875 0 
z
" id="DejaVuSans-46"/>
      </defs>
      <g transform="translate(49.482812 477.352439)scale(0.15 -0.15)">
       <use xlink:href="#DejaVuSans-48"/>
       <use x="63.623047" xlink:href="#DejaVuSans-46"/>
       <use x="95.410156" xlink:href="#DejaVuSans-48"/>
      </g>
     </g>
    </g>
    <g id="ytick_2">
     <g id="line2d_13">
      <path clip-path="url(#pa46c15472a)" d="M 76.8375 393.584178 
L 496.8825 393.584178 
" style="fill:none;stroke:#e6e6e6;stroke-linecap:square;stroke-width:0.8;"/>
     </g>
     <g id="line2d_14">
      <g>
       <use style="stroke:#000000;stroke-width:0.8;" x="76.8375" xlink:href="#mdaa5b60701" y="393.584178"/>
      </g>
     </g>
     <g id="text_8">
      <!-- 0.2 -->
      <g transform="translate(49.482812 399.283006)scale(0.15 -0.15)">
       <use xlink:href="#DejaVuSans-48"/>
       <use x="63.623047" xlink:href="#DejaVuSans-46"/>
       <use x="95.410156" xlink:href="#DejaVuSans-50"/>
      </g>
     </g>
    </g>
    <g id="ytick_3">
     <g id="line2d_15">
      <path clip-path="url(#pa46c15472a)" d="M 76.8375 315.514745 
L 496.8825 315.514745 
" style="fill:none;stroke:#e6e6e6;stroke-linecap:square;stroke-width:0.8;"/>
     </g>
     <g id="line2d_16">
      <g>
       <use style="stroke:#000000;stroke-width:0.8;" x="76.8375" xlink:href="#mdaa5b60701" y="315.514745"/>
      </g>
     </g>
     <g id="text_9">
      <!-- 0.4 -->
      <g transform="translate(49.482812 321.213573)scale(0.15 -0.15)">
       <use xlink:href="#DejaVuSans-48"/>
       <use x="63.623047" xlink:href="#DejaVuSans-46"/>
       <use x="95.410156" xlink:href="#DejaVuSans-52"/>
      </g>
     </g>
    </g>
    <g id="ytick_4">
     <g id="line2d_17">
      <path clip-path="url(#pa46c15472a)" d="M 76.8375 237.445312 
L 496.8825 237.445312 
" style="fill:none;stroke:#e6e6e6;stroke-linecap:square;stroke-width:0.8;"/>
     </g>
     <g id="line2d_18">
      <g>
       <use style="stroke:#000000;stroke-width:0.8;" x="76.8375" xlink:href="#mdaa5b60701" y="237.445312"/>
      </g>
     </g>
     <g id="text_10">
      <!-- 0.6 -->
      <defs>
       <path d="M 33.015625 40.375 
Q 26.375 40.375 22.484375 35.828125 
Q 18.609375 31.296875 18.609375 23.390625 
Q 18.609375 15.53125 22.484375 10.953125 
Q 26.375 6.390625 33.015625 6.390625 
Q 39.65625 6.390625 43.53125 10.953125 
Q 47.40625 15.53125 47.40625 23.390625 
Q 47.40625 31.296875 43.53125 35.828125 
Q 39.65625 40.375 33.015625 40.375 
z
M 52.59375 71.296875 
L 52.59375 62.3125 
Q 48.875 64.0625 45.09375 64.984375 
Q 41.3125 65.921875 37.59375 65.921875 
Q 27.828125 65.921875 22.671875 59.328125 
Q 17.53125 52.734375 16.796875 39.40625 
Q 19.671875 43.65625 24.015625 45.921875 
Q 28.375 48.1875 33.59375 48.1875 
Q 44.578125 48.1875 50.953125 41.515625 
Q 57.328125 34.859375 57.328125 23.390625 
Q 57.328125 12.15625 50.6875 5.359375 
Q 44.046875 -1.421875 33.015625 -1.421875 
Q 20.359375 -1.421875 13.671875 8.265625 
Q 6.984375 17.96875 6.984375 36.375 
Q 6.984375 53.65625 15.1875 63.9375 
Q 23.390625 74.21875 37.203125 74.21875 
Q 40.921875 74.21875 44.703125 73.484375 
Q 48.484375 72.75 52.59375 71.296875 
z
" id="DejaVuSans-54"/>
      </defs>
      <g transform="translate(49.482812 243.14414)scale(0.15 -0.15)">
       <use xlink:href="#DejaVuSans-48"/>
       <use x="63.623047" xlink:href="#DejaVuSans-46"/>
       <use x="95.410156" xlink:href="#DejaVuSans-54"/>
      </g>
     </g>
    </g>
    <g id="ytick_5">
     <g id="line2d_19">
      <path clip-path="url(#pa46c15472a)" d="M 76.8375 159.375879 
L 496.8825 159.375879 
" style="fill:none;stroke:#e6e6e6;stroke-linecap:square;stroke-width:0.8;"/>
     </g>
     <g id="line2d_20">
      <g>
       <use style="stroke:#000000;stroke-width:0.8;" x="76.8375" xlink:href="#mdaa5b60701" y="159.375879"/>
      </g>
     </g>
     <g id="text_11">
      <!-- 0.8 -->
      <defs>
       <path d="M 31.78125 34.625 
Q 24.75 34.625 20.71875 30.859375 
Q 16.703125 27.09375 16.703125 20.515625 
Q 16.703125 13.921875 20.71875 10.15625 
Q 24.75 6.390625 31.78125 6.390625 
Q 38.8125 6.390625 42.859375 10.171875 
Q 46.921875 13.96875 46.921875 20.515625 
Q 46.921875 27.09375 42.890625 30.859375 
Q 38.875 34.625 31.78125 34.625 
z
M 21.921875 38.8125 
Q 15.578125 40.375 12.03125 44.71875 
Q 8.5 49.078125 8.5 55.328125 
Q 8.5 64.0625 14.71875 69.140625 
Q 20.953125 74.21875 31.78125 74.21875 
Q 42.671875 74.21875 48.875 69.140625 
Q 55.078125 64.0625 55.078125 55.328125 
Q 55.078125 49.078125 51.53125 44.71875 
Q 48 40.375 41.703125 38.8125 
Q 48.828125 37.15625 52.796875 32.3125 
Q 56.78125 27.484375 56.78125 20.515625 
Q 56.78125 9.90625 50.3125 4.234375 
Q 43.84375 -1.421875 31.78125 -1.421875 
Q 19.734375 -1.421875 13.25 4.234375 
Q 6.78125 9.90625 6.78125 20.515625 
Q 6.78125 27.484375 10.78125 32.3125 
Q 14.796875 37.15625 21.921875 38.8125 
z
M 18.3125 54.390625 
Q 18.3125 48.734375 21.84375 45.5625 
Q 25.390625 42.390625 31.78125 42.390625 
Q 38.140625 42.390625 41.71875 45.5625 
Q 45.3125 48.734375 45.3125 54.390625 
Q 45.3125 60.0625 41.71875 63.234375 
Q 38.140625 66.40625 31.78125 66.40625 
Q 25.390625 66.40625 21.84375 63.234375 
Q 18.3125 60.0625 18.3125 54.390625 
z
" id="DejaVuSans-56"/>
      </defs>
      <g transform="translate(49.482812 165.074707)scale(0.15 -0.15)">
       <use xlink:href="#DejaVuSans-48"/>
       <use x="63.623047" xlink:href="#DejaVuSans-46"/>
       <use x="95.410156" xlink:href="#DejaVuSans-56"/>
      </g>
     </g>
    </g>
    <g id="ytick_6">
     <g id="line2d_21">
      <path clip-path="url(#pa46c15472a)" d="M 76.8375 81.306446 
L 496.8825 81.306446 
" style="fill:none;stroke:#e6e6e6;stroke-linecap:square;stroke-width:0.8;"/>
     </g>
     <g id="line2d_22">
      <g>
       <use style="stroke:#000000;stroke-width:0.8;" x="76.8375" xlink:href="#mdaa5b60701" y="81.306446"/>
      </g>
     </g>
     <g id="text_12">
      <!-- 1.0 -->
      <g transform="translate(49.482812 87.005274)scale(0.15 -0.15)">
       <use xlink:href="#DejaVuSans-49"/>
       <use x="63.623047" xlink:href="#DejaVuSans-46"/>
       <use x="95.410156" xlink:href="#DejaVuSans-48"/>
      </g>
     </g>
    </g>
   </g>
   <g id="line2d_23">
    <path clip-path="url(#pa46c15472a)" d="M 113.287686 471.653533 
L 133.308735 471.550108 
L 138.398832 471.291911 
L 142.47091 470.863585 
L 147.221667 470.11802 
L 152.651104 469.283485 
L 155.705163 469.05625 
L 158.419881 469.084281 
L 161.473939 469.36561 
L 165.546017 470.001329 
L 171.654134 470.950566 
L 175.726211 471.342042 
L 180.476969 471.559419 
L 188.281784 471.6462 
L 217.125669 471.611412 
L 223.233785 471.426157 
L 227.645203 471.069389 
L 231.71728 470.514961 
L 240.879455 469.151345 
L 243.594174 469.040349 
L 246.308892 469.151345 
L 249.362951 469.505457 
L 262.257864 471.317683 
L 267.008621 471.550108 
L 274.474097 471.6441 
L 302.639301 471.626271 
L 309.426098 471.460845 
L 313.837515 471.140715 
L 317.909593 470.6209 
L 328.429127 469.103377 
L 331.143846 469.047428 
L 333.858564 469.211696 
L 337.251962 469.661227 
L 347.092817 471.140715 
L 351.164894 471.444076 
L 356.594331 471.606735 
L 367.792545 471.652896 
L 393.921711 471.550108 
L 399.011808 471.291911 
L 403.083886 470.863585 
L 407.834643 470.11802 
L 413.26408 469.283485 
L 416.318138 469.05625 
L 419.032857 469.084281 
L 422.086915 469.36561 
L 426.158993 470.001329 
L 432.26711 470.950566 
L 436.339187 471.342042 
L 441.089945 471.559419 
L 448.89476 471.6462 
L 460.432314 471.653531 
L 460.432314 471.653531 
" style="fill:none;stroke:#e9f7e5;stroke-linecap:square;"/>
   </g>
   <g id="line2d_24">
    <path clip-path="url(#pa46c15472a)" d="M 113.287686 471.653469 
L 131.272696 471.548826 
L 135.684114 471.302983 
L 139.077512 470.893976 
L 142.13157 470.2971 
L 145.524968 469.382375 
L 152.651104 467.342511 
L 155.026483 466.980172 
L 157.062522 466.903484 
L 159.098561 467.055621 
L 161.473939 467.491891 
L 164.527998 468.333167 
L 170.975454 470.216607 
L 174.029512 470.839018 
L 177.083571 471.239887 
L 180.816309 471.497907 
L 186.245746 471.625573 
L 201.176697 471.65345 
L 218.143688 471.548826 
L 222.555106 471.302983 
L 225.948504 470.893976 
L 229.002562 470.2971 
L 232.39596 469.382375 
L 239.522096 467.342511 
L 241.897475 466.980172 
L 243.933514 466.903484 
L 245.969553 467.055621 
L 248.344931 467.491891 
L 251.39899 468.333167 
L 257.846446 470.216607 
L 260.900504 470.839018 
L 263.954563 471.239887 
L 267.687301 471.497907 
L 273.116738 471.625573 
L 288.047689 471.65345 
L 305.01468 471.548826 
L 309.426098 471.302983 
L 312.819496 470.893976 
L 315.873554 470.2971 
L 319.266952 469.382375 
L 326.393088 467.342511 
L 328.768467 466.980172 
L 330.804506 466.903484 
L 332.840545 467.055621 
L 335.215923 467.491891 
L 338.269982 468.333167 
L 344.717438 470.216607 
L 347.771496 470.839018 
L 350.825555 471.239887 
L 354.558293 471.497907 
L 359.98773 471.625573 
L 374.918681 471.65345 
L 391.885672 471.548826 
L 396.29709 471.302983 
L 399.690488 470.893976 
L 402.744546 470.2971 
L 406.137944 469.382375 
L 413.26408 467.342511 
L 415.639459 466.980172 
L 417.675498 466.903484 
L 419.711537 467.055621 
L 422.086915 467.491891 
L 425.140974 468.333167 
L 431.58843 470.216607 
L 434.642488 470.839018 
L 437.696547 471.239887 
L 441.429285 471.497907 
L 446.858722 471.625573 
L 460.432314 471.653467 
L 460.432314 471.653467 
" style="fill:none;stroke:#d3eecd;stroke-linecap:square;"/>
   </g>
   <g id="line2d_25">
    <path clip-path="url(#pa46c15472a)" d="M 113.287686 471.653347 
L 129.236657 471.550547 
L 133.308735 471.30427 
L 136.023453 470.94639 
L 138.398832 470.432803 
L 140.774211 469.681749 
L 143.149589 468.673434 
L 145.864308 467.249195 
L 151.633085 464.081558 
L 153.329784 463.411675 
L 155.026483 462.981624 
L 156.383842 462.839324 
L 157.741201 462.887015 
L 159.098561 463.121627 
L 160.79526 463.653976 
L 162.831299 464.573245 
L 165.885357 466.273724 
L 169.957435 468.509415 
L 172.332813 469.553379 
L 174.708192 470.340922 
L 177.083571 470.885909 
L 179.798289 471.270257 
L 183.191687 471.511183 
L 188.621124 471.631578 
L 205.248775 471.652072 
L 216.446989 471.538657 
L 220.179727 471.30427 
L 222.894445 470.94639 
L 225.269824 470.432803 
L 227.645203 469.681749 
L 230.020581 468.673434 
L 232.7353 467.249195 
L 238.504077 464.081558 
L 240.200776 463.411675 
L 241.897475 462.981624 
L 243.254834 462.839324 
L 244.612193 462.887015 
L 245.969553 463.121627 
L 247.666252 463.653976 
L 249.702291 464.573245 
L 252.756349 466.273724 
L 256.828427 468.509415 
L 259.203805 469.553379 
L 261.579184 470.340922 
L 263.954563 470.885909 
L 266.669281 471.270257 
L 270.062679 471.511183 
L 275.492116 471.631578 
L 292.119767 471.652072 
L 303.317981 471.538657 
L 307.050719 471.30427 
L 309.765437 470.94639 
L 312.140816 470.432803 
L 314.516195 469.681749 
L 316.891573 468.673434 
L 319.606292 467.249195 
L 325.375069 464.081558 
L 327.071768 463.411675 
L 328.768467 462.981624 
L 330.125826 462.839324 
L 331.483185 462.887015 
L 332.840545 463.121627 
L 334.537244 463.653976 
L 336.573283 464.573245 
L 339.627341 466.273724 
L 343.699419 468.509415 
L 346.074797 469.553379 
L 348.450176 470.340922 
L 350.825555 470.885909 
L 353.540273 471.270257 
L 356.933671 471.511183 
L 362.363108 471.631578 
L 378.990759 471.652072 
L 390.188973 471.538657 
L 393.921711 471.30427 
L 396.636429 470.94639 
L 399.011808 470.432803 
L 401.387187 469.681749 
L 403.762565 468.673434 
L 406.477284 467.249195 
L 412.246061 464.081558 
L 413.94276 463.411675 
L 415.639459 462.981624 
L 416.996818 462.839324 
L 418.354177 462.887015 
L 419.711537 463.121627 
L 421.408236 463.653976 
L 423.444274 464.573245 
L 426.498333 466.273724 
L 430.570411 468.509415 
L 432.945789 469.553379 
L 435.321168 470.340922 
L 437.696547 470.885909 
L 440.411265 471.270257 
L 443.804663 471.511183 
L 449.2341 471.631578 
L 460.432314 471.653343 
L 460.432314 471.653343 
" style="fill:none;stroke:#b8e3b2;stroke-linecap:square;"/>
   </g>
   <g id="line2d_26">
    <path clip-path="url(#pa46c15472a)" d="M 113.287686 471.653201 
L 127.879298 471.551421 
L 131.612036 471.319008 
L 134.326754 470.938461 
L 136.362793 470.459464 
L 138.398832 469.754665 
L 140.434871 468.77779 
L 142.47091 467.505932 
L 144.506949 465.956656 
L 147.561007 463.28529 
L 150.615065 460.640225 
L 152.311764 459.419506 
L 153.669124 458.667163 
L 155.026483 458.164486 
L 156.383842 457.94314 
L 157.401862 457.971006 
L 158.759221 458.264738 
L 160.11658 458.833422 
L 161.473939 459.64148 
L 163.170638 460.913137 
L 165.885357 463.28529 
L 169.278755 466.231824 
L 171.314794 467.738261 
L 173.350833 468.96088 
L 175.386872 469.889973 
L 177.42291 470.553541 
L 179.798289 471.057311 
L 182.513008 471.380605 
L 186.245746 471.572684 
L 193.032542 471.647781 
L 213.392931 471.58987 
L 217.804348 471.380605 
L 220.519067 471.057311 
L 222.894445 470.553541 
L 224.930484 469.889973 
L 226.966523 468.96088 
L 229.002562 467.738261 
L 231.038601 466.231824 
L 233.753319 463.897365 
L 237.825397 460.375685 
L 239.522096 459.210318 
L 240.879455 458.516577 
L 242.236815 458.081903 
L 243.594174 457.933839 
L 244.951533 458.081903 
L 246.308892 458.516577 
L 247.666252 459.210318 
L 249.362951 460.375685 
L 251.39899 462.069689 
L 256.828427 466.762869 
L 258.864465 468.178776 
L 260.900504 469.30242 
L 262.936543 470.13853 
L 264.972582 470.723835 
L 267.347961 471.1591 
L 270.402019 471.454444 
L 274.813437 471.609505 
L 284.654291 471.652883 
L 301.621282 471.551421 
L 305.35402 471.319008 
L 308.068738 470.938461 
L 310.104777 470.459464 
L 312.140816 469.754665 
L 314.176855 468.77779 
L 316.212894 467.505932 
L 318.248933 465.956656 
L 321.302991 463.28529 
L 324.357049 460.640225 
L 326.053748 459.419506 
L 327.411108 458.667163 
L 328.768467 458.164486 
L 330.125826 457.94314 
L 331.143846 457.971006 
L 332.501205 458.264738 
L 333.858564 458.833422 
L 335.215923 459.64148 
L 336.912622 460.913137 
L 339.627341 463.28529 
L 343.020739 466.231824 
L 345.056778 467.738261 
L 347.092817 468.96088 
L 349.128856 469.889973 
L 351.164894 470.553541 
L 353.540273 471.057311 
L 356.254992 471.380605 
L 359.98773 471.572684 
L 366.774526 471.647781 
L 387.134915 471.58987 
L 391.546332 471.380605 
L 394.261051 471.057311 
L 396.636429 470.553541 
L 398.672468 469.889973 
L 400.708507 468.96088 
L 402.744546 467.738261 
L 404.780585 466.231824 
L 407.495303 463.897365 
L 411.567381 460.375685 
L 413.26408 459.210318 
L 414.621439 458.516577 
L 415.978799 458.081903 
L 417.336158 457.933839 
L 418.693517 458.081903 
L 420.050876 458.516577 
L 421.408236 459.210318 
L 423.104935 460.375685 
L 425.140974 462.069689 
L 430.570411 466.762869 
L 432.606449 468.178776 
L 434.642488 469.30242 
L 436.678527 470.13853 
L 438.714566 470.723835 
L 441.089945 471.1591 
L 444.144003 471.454444 
L 448.555421 471.609505 
L 458.396275 471.652883 
L 460.432314 471.653195 
L 460.432314 471.653195 
" style="fill:none;stroke:#98d594;stroke-linecap:square;"/>
   </g>
   <g id="line2d_27">
    <path clip-path="url(#pa46c15472a)" d="M 113.287686 471.653091 
L 127.200618 471.551025 
L 130.933356 471.307535 
L 133.648075 470.897713 
L 135.684114 470.370711 
L 137.380813 469.73302 
L 139.077512 468.874212 
L 140.774211 467.765482 
L 142.47091 466.395809 
L 144.506949 464.431871 
L 147.221667 461.433903 
L 150.615065 457.692502 
L 152.311764 456.145059 
L 153.669124 455.191352 
L 155.026483 454.554134 
L 156.044502 454.308869 
L 157.062522 454.273545 
L 158.080541 454.449448 
L 159.098561 454.830193 
L 160.45592 455.631917 
L 161.813279 456.72299 
L 163.509978 458.39384 
L 166.564036 461.821413 
L 169.278755 464.780688 
L 171.314794 466.690321 
L 173.011493 468.00808 
L 174.708192 469.065244 
L 176.404891 469.877113 
L 178.44093 470.572245 
L 180.476969 471.026745 
L 183.191687 471.372772 
L 186.585085 471.562505 
L 192.693202 471.645074 
L 212.035571 471.604293 
L 216.786329 471.401137 
L 219.501047 471.08391 
L 221.876426 470.572245 
L 223.912465 469.877113 
L 225.609164 469.065244 
L 227.305863 468.00808 
L 229.002562 466.690321 
L 231.038601 464.780688 
L 233.41398 462.207052 
L 237.825397 457.357159 
L 239.522096 455.879882 
L 240.879455 455.000463 
L 241.897475 454.554134 
L 242.915494 454.308869 
L 243.933514 454.273545 
L 244.951533 454.449448 
L 245.969553 454.830193 
L 247.326912 455.631917 
L 248.684271 456.72299 
L 250.38097 458.39384 
L 253.435028 461.821413 
L 256.149747 464.780688 
L 258.185786 466.690321 
L 259.882485 468.00808 
L 261.579184 469.065244 
L 263.275883 469.877113 
L 265.311922 470.572245 
L 267.347961 471.026745 
L 270.062679 471.372772 
L 273.456077 471.562505 
L 279.564194 471.645074 
L 298.906563 471.604293 
L 303.657321 471.401137 
L 306.372039 471.08391 
L 308.747418 470.572245 
L 310.783457 469.877113 
L 312.480156 469.065244 
L 314.176855 468.00808 
L 315.873554 466.690321 
L 317.909593 464.780688 
L 320.284972 462.207052 
L 324.696389 457.357159 
L 326.393088 455.879882 
L 327.750447 455.000463 
L 328.768467 454.554134 
L 329.786486 454.308869 
L 330.804506 454.273545 
L 331.822525 454.449448 
L 332.840545 454.830193 
L 334.197904 455.631917 
L 335.555263 456.72299 
L 337.251962 458.39384 
L 340.30602 461.821413 
L 343.020739 464.780688 
L 345.056778 466.690321 
L 346.753477 468.00808 
L 348.450176 469.065244 
L 350.146875 469.877113 
L 352.182914 470.572245 
L 354.218953 471.026745 
L 356.933671 471.372772 
L 360.327069 471.562505 
L 366.435186 471.645074 
L 385.777555 471.604293 
L 390.528313 471.401137 
L 393.243031 471.08391 
L 395.61841 470.572245 
L 397.654449 469.877113 
L 399.351148 469.065244 
L 401.047847 468.00808 
L 402.744546 466.690321 
L 404.780585 464.780688 
L 407.155964 462.207052 
L 411.567381 457.357159 
L 413.26408 455.879882 
L 414.621439 455.000463 
L 415.639459 454.554134 
L 416.657478 454.308869 
L 417.675498 454.273545 
L 418.693517 454.449448 
L 419.711537 454.830193 
L 421.068896 455.631917 
L 422.426255 456.72299 
L 424.122954 458.39384 
L 427.177012 461.821413 
L 429.891731 464.780688 
L 431.92777 466.690321 
L 433.624469 468.00808 
L 435.321168 469.065244 
L 437.017867 469.877113 
L 439.053906 470.572245 
L 441.089945 471.026745 
L 443.804663 471.372772 
L 447.198061 471.562505 
L 453.306178 471.645074 
L 460.432314 471.653083 
L 460.432314 471.653083 
" style="fill:none;stroke:#73c476;stroke-linecap:square;"/>
   </g>
   <g id="line2d_28">
    <path clip-path="url(#pa46c15472a)" d="M 113.287686 471.653075 
L 127.200618 471.547989 
L 130.933356 471.297295 
L 133.308735 470.944396 
L 135.344774 470.440106 
L 137.041473 469.824547 
L 138.738172 468.988654 
L 140.434871 467.900208 
L 142.13157 466.543457 
L 144.167609 464.577317 
L 146.542988 461.927527 
L 150.954405 456.934124 
L 152.651104 455.413135 
L 154.008463 454.507693 
L 155.026483 454.048158 
L 156.044502 453.795635 
L 157.062522 453.759266 
L 158.080541 453.940374 
L 159.098561 454.332386 
L 160.45592 455.157832 
L 161.813279 456.281191 
L 163.509978 458.001481 
L 166.564036 461.530477 
L 169.278755 464.577317 
L 171.314794 466.543457 
L 173.011493 467.900208 
L 174.708192 468.988654 
L 176.404891 469.824547 
L 178.10159 470.440106 
L 180.137629 470.944396 
L 182.513008 471.297295 
L 185.567066 471.520237 
L 190.657163 471.633297 
L 206.945474 471.647033 
L 214.75029 471.520237 
L 218.143688 471.258873 
L 220.519067 470.875345 
L 222.555106 470.33275 
L 224.251805 469.676189 
L 225.948504 468.791969 
L 227.645203 467.650431 
L 229.341902 466.24023 
L 231.377941 464.218179 
L 234.092659 461.1315 
L 237.486057 457.279391 
L 239.182756 455.686158 
L 240.540116 454.704231 
L 241.558135 454.179003 
L 242.576154 453.856086 
L 243.594174 453.747127 
L 244.612193 453.856086 
L 245.630213 454.179003 
L 246.648232 454.704231 
L 248.005591 455.686158 
L 249.702291 457.279391 
L 252.077669 459.933484 
L 256.149747 464.577317 
L 258.185786 466.543457 
L 259.882485 467.900208 
L 261.579184 468.988654 
L 263.275883 469.824547 
L 264.972582 470.440106 
L 267.008621 470.944396 
L 269.384 471.297295 
L 272.438058 471.520237 
L 277.528155 471.633297 
L 293.816466 471.647033 
L 301.621282 471.520237 
L 305.01468 471.258873 
L 307.390059 470.875345 
L 309.426098 470.33275 
L 311.122797 469.676189 
L 312.819496 468.791969 
L 314.516195 467.650431 
L 316.212894 466.24023 
L 318.248933 464.218179 
L 320.963651 461.1315 
L 324.357049 457.279391 
L 326.053748 455.686158 
L 327.411108 454.704231 
L 328.429127 454.179003 
L 329.447146 453.856086 
L 330.465166 453.747127 
L 331.483185 453.856086 
L 332.501205 454.179003 
L 333.519224 454.704231 
L 334.876583 455.686158 
L 336.573283 457.279391 
L 338.948661 459.933484 
L 343.020739 464.577317 
L 345.056778 466.543457 
L 346.753477 467.900208 
L 348.450176 468.988654 
L 350.146875 469.824547 
L 351.843574 470.440106 
L 353.879613 470.944396 
L 356.254992 471.297295 
L 359.30905 471.520237 
L 364.399147 471.633297 
L 380.687458 471.647033 
L 388.492274 471.520237 
L 391.885672 471.258873 
L 394.261051 470.875345 
L 396.29709 470.33275 
L 397.993789 469.676189 
L 399.690488 468.791969 
L 401.387187 467.650431 
L 403.083886 466.24023 
L 405.119925 464.218179 
L 407.834643 461.1315 
L 411.228041 457.279391 
L 412.92474 455.686158 
L 414.2821 454.704231 
L 415.300119 454.179003 
L 416.318138 453.856086 
L 417.336158 453.747127 
L 418.354177 453.856086 
L 419.372197 454.179003 
L 420.390216 454.704231 
L 421.747575 455.686158 
L 423.444274 457.279391 
L 425.819653 459.933484 
L 429.891731 464.577317 
L 431.92777 466.543457 
L 433.624469 467.900208 
L 435.321168 468.988654 
L 437.017867 469.824547 
L 438.714566 470.440106 
L 440.750605 470.944396 
L 443.125984 471.297295 
L 446.180042 471.520237 
L 451.270139 471.633297 
L 460.432314 471.653068 
L 460.432314 471.653068 
" style="fill:none;stroke:#4bb062;stroke-linecap:square;"/>
   </g>
   <g id="line2d_29">
    <path clip-path="url(#pa46c15472a)" d="M 113.287686 471.653163 
L 127.879298 471.542099 
L 131.612036 471.288484 
L 134.326754 470.873221 
L 136.362793 470.350527 
L 138.398832 469.581432 
L 140.095531 468.715233 
L 141.79223 467.625869 
L 143.828269 466.030614 
L 146.203648 463.851299 
L 150.954405 459.346845 
L 152.651104 458.075166 
L 154.008463 457.318138 
L 155.365823 456.84381 
L 156.383842 456.692388 
L 157.401862 456.722796 
L 158.419881 456.933927 
L 159.77724 457.482461 
L 161.1346 458.303437 
L 162.831299 459.635517 
L 165.206677 461.854569 
L 169.618095 466.030614 
L 171.654134 467.625869 
L 173.690173 468.906035 
L 175.386872 469.729083 
L 177.42291 470.453186 
L 179.458949 470.940528 
L 181.834328 471.288484 
L 185.227726 471.528557 
L 190.657163 471.636627 
L 208.642173 471.642372 
L 215.768309 471.49698 
L 219.161707 471.208523 
L 221.537086 470.800718 
L 223.573125 470.241005 
L 225.609164 469.425476 
L 227.305863 468.515441 
L 229.002562 467.381079 
L 231.038601 465.737216 
L 233.753319 463.189794 
L 237.486057 459.635517 
L 239.182756 458.303437 
L 240.540116 457.482461 
L 241.897475 456.933927 
L 242.915494 456.722796 
L 243.933514 456.692388 
L 244.951533 456.84381 
L 246.308892 457.318138 
L 247.666252 458.075166 
L 249.362951 459.346845 
L 251.39899 461.195386 
L 256.828427 466.316707 
L 258.864465 467.86178 
L 260.561165 468.906035 
L 262.257864 469.729083 
L 264.293902 470.453186 
L 266.329941 470.940528 
L 268.70532 471.288484 
L 272.098718 471.528557 
L 277.528155 471.636627 
L 295.513165 471.642372 
L 302.639301 471.49698 
L 306.032699 471.208523 
L 308.408078 470.800718 
L 310.444117 470.241005 
L 312.480156 469.425476 
L 314.176855 468.515441 
L 315.873554 467.381079 
L 317.909593 465.737216 
L 320.624311 463.189794 
L 324.357049 459.635517 
L 326.053748 458.303437 
L 327.411108 457.482461 
L 328.768467 456.933927 
L 329.786486 456.722796 
L 330.804506 456.692388 
L 331.822525 456.84381 
L 333.179884 457.318138 
L 334.537244 458.075166 
L 336.233943 459.346845 
L 338.269982 461.195386 
L 343.699419 466.316707 
L 345.735457 467.86178 
L 347.432157 468.906035 
L 349.128856 469.729083 
L 351.164894 470.453186 
L 353.200933 470.940528 
L 355.576312 471.288484 
L 358.96971 471.528557 
L 364.399147 471.636627 
L 382.384157 471.642372 
L 389.510293 471.49698 
L 392.903691 471.208523 
L 395.27907 470.800718 
L 397.315109 470.241005 
L 399.351148 469.425476 
L 401.047847 468.515441 
L 402.744546 467.381079 
L 404.780585 465.737216 
L 407.495303 463.189794 
L 411.228041 459.635517 
L 412.92474 458.303437 
L 414.2821 457.482461 
L 415.639459 456.933927 
L 416.657478 456.722796 
L 417.675498 456.692388 
L 418.693517 456.84381 
L 420.050876 457.318138 
L 421.408236 458.075166 
L 423.104935 459.346845 
L 425.140974 461.195386 
L 430.570411 466.316707 
L 432.606449 467.86178 
L 434.303148 468.906035 
L 435.999848 469.729083 
L 438.035886 470.453186 
L 440.071925 470.940528 
L 442.447304 471.288484 
L 445.840702 471.528557 
L 451.270139 471.636627 
L 460.432314 471.653157 
L 460.432314 471.653157 
" style="fill:none;stroke:#2f974e;stroke-linecap:square;"/>
   </g>
   <g id="line2d_30">
    <path clip-path="url(#pa46c15472a)" d="M 113.287686 471.653306 
L 128.897317 471.547072 
L 132.969395 471.286564 
L 135.684114 470.902439 
L 138.059492 470.344564 
L 140.095531 469.654952 
L 142.13157 468.747472 
L 144.506949 467.425089 
L 147.900347 465.214974 
L 150.954405 463.282656 
L 152.990444 462.272481 
L 154.687143 461.715822 
L 156.044502 461.497801 
L 157.401862 461.497801 
L 158.759221 461.715822 
L 160.11658 462.137923 
L 161.813279 462.911333 
L 163.849318 464.102563 
L 171.314794 468.747472 
L 173.350833 469.654952 
L 175.386872 470.344564 
L 177.76225 470.902439 
L 180.476969 471.286564 
L 183.870367 471.520891 
L 189.299804 471.633952 
L 206.945474 471.64987 
L 216.107649 471.534619 
L 219.840387 471.286564 
L 222.555106 470.902439 
L 224.930484 470.344564 
L 226.966523 469.654952 
L 229.002562 468.747472 
L 231.377941 467.425089 
L 234.771339 465.214974 
L 237.825397 463.282656 
L 239.861436 462.272481 
L 241.558135 461.715822 
L 242.915494 461.497801 
L 244.272854 461.497801 
L 245.630213 461.715822 
L 246.987572 462.137923 
L 248.684271 462.911333 
L 250.72031 464.102563 
L 258.185786 468.747472 
L 260.221825 469.654952 
L 262.257864 470.344564 
L 264.633242 470.902439 
L 267.347961 471.286564 
L 270.741359 471.520891 
L 276.170796 471.633952 
L 293.816466 471.64987 
L 302.978641 471.534619 
L 306.711379 471.286564 
L 309.426098 470.902439 
L 311.801476 470.344564 
L 313.837515 469.654952 
L 315.873554 468.747472 
L 318.248933 467.425089 
L 321.642331 465.214974 
L 324.696389 463.282656 
L 326.732428 462.272481 
L 328.429127 461.715822 
L 329.786486 461.497801 
L 331.143846 461.497801 
L 332.501205 461.715822 
L 333.858564 462.137923 
L 335.555263 462.911333 
L 337.591302 464.102563 
L 345.056778 468.747472 
L 347.092817 469.654952 
L 349.128856 470.344564 
L 351.504234 470.902439 
L 354.218953 471.286564 
L 357.612351 471.520891 
L 363.041788 471.633952 
L 380.687458 471.64987 
L 389.849633 471.534619 
L 393.582371 471.286564 
L 396.29709 470.902439 
L 398.672468 470.344564 
L 400.708507 469.654952 
L 402.744546 468.747472 
L 405.119925 467.425089 
L 408.513323 465.214974 
L 411.567381 463.282656 
L 413.60342 462.272481 
L 415.300119 461.715822 
L 416.657478 461.497801 
L 418.014837 461.497801 
L 419.372197 461.715822 
L 420.729556 462.137923 
L 422.426255 462.911333 
L 424.462294 464.102563 
L 431.92777 468.747472 
L 433.963809 469.654952 
L 435.999848 470.344564 
L 438.375226 470.902439 
L 441.089945 471.286564 
L 444.483343 471.520891 
L 449.91278 471.633952 
L 460.432314 471.653302 
L 460.432314 471.653302 
" style="fill:none;stroke:#157f3b;stroke-linecap:square;"/>
   </g>
   <g id="line2d_31">
    <path clip-path="url(#pa46c15472a)" d="M 113.287686 471.65344 
L 130.594016 471.550931 
L 135.005434 471.297694 
L 138.059492 470.917768 
L 140.774211 470.373884 
L 143.488929 469.613047 
L 146.882327 468.417472 
L 151.633085 466.739394 
L 153.669124 466.235275 
L 155.705163 465.964142 
L 157.401862 465.944817 
L 159.098561 466.116404 
L 161.1346 466.549175 
L 163.509978 467.289332 
L 172.332813 470.290573 
L 175.047532 470.861313 
L 178.10159 471.265681 
L 181.834328 471.514004 
L 187.603105 471.632777 
L 205.588115 471.65245 
L 217.804348 471.539704 
L 221.876426 471.297694 
L 224.930484 470.917768 
L 227.645203 470.373884 
L 230.359921 469.613047 
L 233.753319 468.417472 
L 238.504077 466.739394 
L 240.540116 466.235275 
L 242.576154 465.964142 
L 244.272854 465.944817 
L 245.969553 466.116404 
L 248.005591 466.549175 
L 250.38097 467.289332 
L 259.203805 470.290573 
L 261.918524 470.861313 
L 264.972582 471.265681 
L 268.70532 471.514004 
L 274.474097 471.632777 
L 292.459107 471.65245 
L 304.67534 471.539704 
L 308.747418 471.297694 
L 311.801476 470.917768 
L 314.516195 470.373884 
L 317.230913 469.613047 
L 320.624311 468.417472 
L 325.375069 466.739394 
L 327.411108 466.235275 
L 329.447146 465.964142 
L 331.143846 465.944817 
L 332.840545 466.116404 
L 334.876583 466.549175 
L 337.251962 467.289332 
L 346.074797 470.290573 
L 348.789516 470.861313 
L 351.843574 471.265681 
L 355.576312 471.514004 
L 361.345089 471.632777 
L 379.330099 471.65245 
L 391.546332 471.539704 
L 395.61841 471.297694 
L 398.672468 470.917768 
L 401.387187 470.373884 
L 404.101905 469.613047 
L 407.495303 468.417472 
L 412.246061 466.739394 
L 414.2821 466.235275 
L 416.318138 465.964142 
L 418.014837 465.944817 
L 419.711537 466.116404 
L 421.747575 466.549175 
L 424.122954 467.289332 
L 432.945789 470.290573 
L 435.660508 470.861313 
L 438.714566 471.265681 
L 442.447304 471.514004 
L 448.216081 471.632777 
L 460.432314 471.653437 
L 460.432314 471.653437 
" style="fill:none;stroke:#006428;stroke-linecap:square;"/>
   </g>
   <g id="line2d_32">
    <path clip-path="url(#pa46c15472a)" d="M 113.287686 471.653521 
L 132.969395 471.545671 
L 137.720152 471.296566 
L 141.45289 470.895139 
L 145.524968 470.222693 
L 152.990444 468.894846 
L 155.705163 468.677141 
L 158.080541 468.691237 
L 160.79526 468.937543 
L 164.188658 469.496849 
L 172.332813 470.940532 
L 176.065551 471.322905 
L 180.476969 471.545671 
L 187.603105 471.642711 
L 214.41095 471.633748 
L 221.537086 471.483008 
L 225.948504 471.175028 
L 229.681242 470.695852 
L 234.431999 469.82701 
L 239.522096 468.937543 
L 242.236815 468.691237 
L 244.612193 468.677141 
L 247.326912 468.894846 
L 250.72031 469.433029 
L 259.543145 470.984116 
L 263.275883 471.347717 
L 268.02664 471.564581 
L 275.831456 471.64703 
L 303.996661 471.605253 
L 309.765437 471.413492 
L 313.837515 471.065853 
L 317.570253 470.528854 
L 328.429127 468.731146 
L 331.143846 468.667031 
L 333.858564 468.855276 
L 336.912622 469.309227 
L 347.432157 471.104019 
L 351.504234 471.432709 
L 356.594331 471.599893 
L 366.774526 471.652338 
L 393.243031 471.555514 
L 397.993789 471.322905 
L 401.726527 470.940532 
L 405.798604 470.286255 
L 413.94276 468.855276 
L 416.657478 468.667031 
L 419.032857 468.709263 
L 421.747575 468.983203 
L 425.480313 469.627301 
L 432.26711 470.84795 
L 435.999848 471.268651 
L 440.411265 471.523453 
L 446.858722 471.635946 
L 460.432314 471.65352 
L 460.432314 471.65352 
" style="fill:none;stroke:#00441b;stroke-linecap:square;"/>
   </g>
   <g id="line2d_33">
    <path clip-path="url(#pa46c15472a)" d="M 113.287686 81.306446 
L 460.432314 81.306446 
L 460.432314 81.306446 
" style="fill:none;stroke:#e3eef9;stroke-linecap:square;"/>
   </g>
   <g id="line2d_34">
    <path clip-path="url(#pa46c15472a)" d="M 113.287686 81.306446 
L 460.432314 81.306446 
L 460.432314 81.306446 
" style="fill:none;stroke:#d0e1f2;stroke-linecap:square;"/>
   </g>
   <g id="line2d_35">
    <path clip-path="url(#pa46c15472a)" d="M 113.287686 81.306446 
L 460.432314 81.306446 
L 460.432314 81.306446 
" style="fill:none;stroke:#b7d4ea;stroke-linecap:square;"/>
   </g>
   <g id="line2d_36">
    <path clip-path="url(#pa46c15472a)" d="M 113.287686 81.306446 
L 152.990444 81.415134 
L 162.491959 81.392988 
L 179.11961 81.306794 
L 238.843417 81.404622 
L 248.684271 81.400836 
L 266.329941 81.306737 
L 326.053748 81.408284 
L 335.555263 81.400836 
L 353.200933 81.306737 
L 412.92474 81.408284 
L 422.426255 81.400836 
L 440.071925 81.306737 
L 460.432314 81.306446 
L 460.432314 81.306446 
" style="fill:none;stroke:#94c4df;stroke-linecap:square;"/>
   </g>
   <g id="line2d_37">
    <path clip-path="url(#pa46c15472a)" d="M 113.287686 81.306446 
L 149.257706 81.413193 
L 159.4379 81.495133 
L 182.852347 81.306513 
L 236.128698 81.413193 
L 246.308892 81.495133 
L 269.723339 81.306513 
L 322.99969 81.413193 
L 333.179884 81.495133 
L 356.594331 81.306513 
L 409.870682 81.413193 
L 420.050876 81.495133 
L 443.465323 81.306513 
L 460.432314 81.306446 
L 460.432314 81.306446 
" style="fill:none;stroke:#6aaed6;stroke-linecap:square;"/>
   </g>
   <g id="line2d_38">
    <path clip-path="url(#pa46c15472a)" d="M 113.287686 81.306446 
L 148.918366 81.412904 
L 159.098561 81.510574 
L 184.888386 81.306465 
L 235.789358 81.412904 
L 245.969553 81.510574 
L 271.759378 81.306465 
L 322.66035 81.412904 
L 332.840545 81.510574 
L 358.63037 81.306465 
L 409.531342 81.412904 
L 419.711537 81.510574 
L 445.501362 81.306465 
L 460.432314 81.306446 
L 460.432314 81.306446 
" style="fill:none;stroke:#4a98c9;stroke-linecap:square;"/>
   </g>
   <g id="line2d_39">
    <path clip-path="url(#pa46c15472a)" d="M 113.287686 81.306446 
L 151.293745 81.414214 
L 160.45592 81.435868 
L 180.816309 81.30661 
L 237.825397 81.409497 
L 247.326912 81.435868 
L 267.687301 81.30661 
L 324.696389 81.409497 
L 334.197904 81.435868 
L 354.558293 81.30661 
L 411.567381 81.409497 
L 421.068896 81.435868 
L 441.429285 81.30661 
L 460.432314 81.306446 
L 460.432314 81.306446 
" style="fill:none;stroke:#2e7ebc;stroke-linecap:square;"/>
   </g>
   <g id="line2d_40">
    <path clip-path="url(#pa46c15472a)" d="M 113.287686 81.306446 
L 460.432314 81.306446 
L 460.432314 81.306446 
" style="fill:none;stroke:#1764ab;stroke-linecap:square;"/>
   </g>
   <g id="line2d_41">
    <path clip-path="url(#pa46c15472a)" d="M 113.287686 81.306446 
L 460.432314 81.306446 
L 460.432314 81.306446 
" style="fill:none;stroke:#084a91;stroke-linecap:square;"/>
   </g>
   <g id="line2d_42">
    <path clip-path="url(#pa46c15472a)" d="M 113.287686 81.306446 
L 460.432314 81.306446 
L 460.432314 81.306446 
" style="fill:none;stroke:#08306b;stroke-linecap:square;"/>
   </g>
   <g id="line2d_43">
    <path clip-path="url(#pa46c15472a)" d="M 113.287686 471.653554 
L 134.666094 471.545106 
L 140.095531 471.279792 
L 144.846289 470.823718 
L 154.347803 469.811219 
L 157.401862 469.754128 
L 160.79526 469.926174 
L 165.206677 470.406984 
L 172.672153 471.227807 
L 177.42291 471.500893 
L 183.870367 471.628788 
L 201.516037 471.65354 
L 221.537086 471.545106 
L 226.966523 471.279792 
L 231.71728 470.823718 
L 241.218795 469.811219 
L 244.272854 469.754128 
L 247.666252 469.926174 
L 252.077669 470.406984 
L 259.543145 471.227807 
L 264.293902 471.500893 
L 270.741359 471.628788 
L 288.387029 471.65354 
L 308.408078 471.545106 
L 313.837515 471.279792 
L 318.588272 470.823718 
L 328.089787 469.811219 
L 331.143846 469.754128 
L 334.537244 469.926174 
L 338.948661 470.406984 
L 346.414137 471.227807 
L 351.164894 471.500893 
L 357.612351 471.628788 
L 375.258021 471.65354 
L 395.27907 471.545106 
L 400.708507 471.279792 
L 405.459264 470.823718 
L 414.960779 469.811219 
L 418.014837 469.754128 
L 421.408236 469.926174 
L 425.819653 470.406984 
L 433.285129 471.227807 
L 438.035886 471.500893 
L 444.483343 471.628788 
L 460.432314 471.653553 
L 460.432314 471.653553 
" style="fill:none;stroke:#fee5d8;stroke-linecap:square;"/>
   </g>
   <g id="line2d_44">
    <path clip-path="url(#pa46c15472a)" d="M 113.287686 471.653507 
L 132.290715 471.550616 
L 137.041473 471.299735 
L 140.774211 470.879102 
L 144.506949 470.215054 
L 154.008463 468.336369 
L 156.383842 468.191573 
L 158.759221 468.272778 
L 161.473939 468.620413 
L 164.867337 469.309473 
L 171.314794 470.664932 
L 174.708192 471.138012 
L 178.44093 471.438204 
L 183.531027 471.603318 
L 194.050561 471.652663 
L 218.822368 471.560262 
L 223.573125 471.326729 
L 227.305863 470.927427 
L 231.038601 470.284538 
L 241.218795 468.302453 
L 243.594174 468.189225 
L 245.969553 468.302453 
L 248.684271 468.679482 
L 252.417009 469.463173 
L 258.185786 470.664932 
L 261.579184 471.138012 
L 265.311922 471.438204 
L 270.402019 471.603318 
L 280.921553 471.652663 
L 305.69336 471.560262 
L 310.444117 471.326729 
L 314.176855 470.927427 
L 317.909593 470.284538 
L 328.089787 468.302453 
L 330.465166 468.189225 
L 332.840545 468.302453 
L 335.555263 468.679482 
L 339.288001 469.463173 
L 345.056778 470.664932 
L 348.450176 471.138012 
L 352.182914 471.438204 
L 357.273011 471.603318 
L 367.792545 471.652663 
L 392.564352 471.560262 
L 397.315109 471.326729 
L 401.047847 470.927427 
L 404.780585 470.284538 
L 414.960779 468.302453 
L 417.336158 468.189225 
L 419.711537 468.302453 
L 422.426255 468.679482 
L 426.158993 469.463173 
L 431.92777 470.664932 
L 435.321168 471.138012 
L 439.053906 471.438204 
L 444.144003 471.603318 
L 454.663537 471.652663 
L 460.432314 471.653506 
L 460.432314 471.653506 
" style="fill:none;stroke:#fdcab5;stroke-linecap:square;"/>
   </g>
   <g id="line2d_45">
    <path clip-path="url(#pa46c15472a)" d="M 113.287686 471.653418 
L 130.254677 471.549804 
L 134.326754 471.318519 
L 137.380813 470.943702 
L 140.095531 470.391902 
L 142.81025 469.597645 
L 145.864308 468.443532 
L 151.972425 466.025377 
L 154.008463 465.49835 
L 155.705163 465.264449 
L 157.401862 465.242749 
L 159.098561 465.435422 
L 161.1346 465.921379 
L 163.509978 466.752521 
L 171.993473 470.02544 
L 174.708192 470.696872 
L 177.42291 471.13816 
L 180.816309 471.443032 
L 185.567066 471.605729 
L 195.74726 471.652783 
L 217.125669 471.549804 
L 221.197746 471.318519 
L 224.251805 470.943702 
L 226.966523 470.391902 
L 229.681242 469.597645 
L 232.7353 468.443532 
L 238.843417 466.025377 
L 240.879455 465.49835 
L 242.576154 465.264449 
L 244.272854 465.242749 
L 245.969553 465.435422 
L 248.005591 465.921379 
L 250.38097 466.752521 
L 258.864465 470.02544 
L 261.579184 470.696872 
L 264.293902 471.13816 
L 267.687301 471.443032 
L 272.438058 471.605729 
L 282.618252 471.652783 
L 303.996661 471.549804 
L 308.068738 471.318519 
L 311.122797 470.943702 
L 313.837515 470.391902 
L 316.552234 469.597645 
L 319.606292 468.443532 
L 325.714409 466.025377 
L 327.750447 465.49835 
L 329.447146 465.264449 
L 331.143846 465.242749 
L 332.840545 465.435422 
L 334.876583 465.921379 
L 337.251962 466.752521 
L 345.735457 470.02544 
L 348.450176 470.696872 
L 351.164894 471.13816 
L 354.558293 471.443032 
L 359.30905 471.605729 
L 369.489244 471.652783 
L 390.867653 471.549804 
L 394.93973 471.318519 
L 397.993789 470.943702 
L 400.708507 470.391902 
L 403.423226 469.597645 
L 406.477284 468.443532 
L 412.5854 466.025377 
L 414.621439 465.49835 
L 416.318138 465.264449 
L 418.014837 465.242749 
L 419.711537 465.435422 
L 421.747575 465.921379 
L 424.122954 466.752521 
L 432.606449 470.02544 
L 435.321168 470.696872 
L 438.035886 471.13816 
L 441.429285 471.443032 
L 446.180042 471.605729 
L 456.360236 471.652783 
L 460.432314 471.653416 
L 460.432314 471.653416 
" style="fill:none;stroke:#fcab8f;stroke-linecap:square;"/>
   </g>
   <g id="line2d_46">
    <path clip-path="url(#pa46c15472a)" d="M 113.287686 471.653312 
L 128.897317 471.548996 
L 132.969395 471.293192 
L 135.684114 470.916003 
L 138.059492 470.368203 
L 140.095531 469.691049 
L 142.13157 468.799972 
L 144.506949 467.50152 
L 147.900347 465.33151 
L 150.954405 463.434413 
L 152.990444 462.442725 
L 154.687143 461.896279 
L 156.044502 461.682263 
L 157.401862 461.682263 
L 158.759221 461.896279 
L 160.11658 462.310635 
L 161.813279 463.06988 
L 163.849318 464.239354 
L 171.314794 468.799972 
L 173.350833 469.691049 
L 175.386872 470.368203 
L 177.76225 470.916003 
L 180.476969 471.293192 
L 183.870367 471.523288 
L 189.299804 471.634307 
L 207.284814 471.649362 
L 216.446989 471.523288 
L 220.179727 471.257564 
L 222.894445 470.851836 
L 225.269824 470.269586 
L 227.305863 469.557607 
L 229.341902 468.630646 
L 231.71728 467.296714 
L 235.789358 464.668836 
L 238.164737 463.248426 
L 239.861436 462.442725 
L 241.558135 461.896279 
L 242.915494 461.682263 
L 244.272854 461.682263 
L 245.630213 461.896279 
L 246.987572 462.310635 
L 248.684271 463.06988 
L 250.72031 464.239354 
L 258.185786 468.799972 
L 260.221825 469.691049 
L 262.257864 470.368203 
L 264.633242 470.916003 
L 267.347961 471.293192 
L 270.741359 471.523288 
L 276.170796 471.634307 
L 294.155806 471.649362 
L 303.317981 471.523288 
L 307.050719 471.257564 
L 309.765437 470.851836 
L 312.140816 470.269586 
L 314.176855 469.557607 
L 316.212894 468.630646 
L 318.588272 467.296714 
L 322.66035 464.668836 
L 325.035729 463.248426 
L 326.732428 462.442725 
L 328.429127 461.896279 
L 329.786486 461.682263 
L 331.143846 461.682263 
L 332.501205 461.896279 
L 333.858564 462.310635 
L 335.555263 463.06988 
L 337.591302 464.239354 
L 345.056778 468.799972 
L 347.092817 469.691049 
L 349.128856 470.368203 
L 351.504234 470.916003 
L 354.218953 471.293192 
L 357.612351 471.523288 
L 363.041788 471.634307 
L 381.026798 471.649362 
L 390.188973 471.523288 
L 393.921711 471.257564 
L 396.636429 470.851836 
L 399.011808 470.269586 
L 401.047847 469.557607 
L 403.083886 468.630646 
L 405.459264 467.296714 
L 409.531342 464.668836 
L 411.906721 463.248426 
L 413.60342 462.442725 
L 415.300119 461.896279 
L 416.657478 461.682263 
L 418.014837 461.682263 
L 419.372197 461.896279 
L 420.729556 462.310635 
L 422.426255 463.06988 
L 424.462294 464.239354 
L 431.92777 468.799972 
L 433.963809 469.691049 
L 435.999848 470.368203 
L 438.375226 470.916003 
L 441.089945 471.293192 
L 444.483343 471.523288 
L 449.91278 471.634307 
L 460.432314 471.653307 
L 460.432314 471.653307 
" style="fill:none;stroke:#fc8a6a;stroke-linecap:square;"/>
   </g>
   <g id="line2d_47">
    <path clip-path="url(#pa46c15472a)" d="M 113.287686 471.653232 
L 128.218638 471.547731 
L 131.951376 471.31206 
L 134.666094 470.931488 
L 137.041473 470.358831 
L 139.077512 469.627882 
L 141.113551 468.635331 
L 143.149589 467.37079 
L 145.524968 465.597089 
L 151.633085 460.772984 
L 153.329784 459.810682 
L 154.687143 459.285521 
L 156.044502 459.014276 
L 157.401862 459.014276 
L 158.759221 459.285521 
L 160.11658 459.810682 
L 161.473939 460.556936 
L 163.170638 461.73141 
L 165.885357 463.922511 
L 169.618095 466.89288 
L 171.654134 468.243467 
L 173.690173 469.327322 
L 175.726211 470.142322 
L 177.76225 470.718583 
L 180.137629 471.151562 
L 183.191687 471.448924 
L 187.603105 471.607477 
L 197.443959 471.652838 
L 215.08963 471.547731 
L 218.822368 471.31206 
L 221.537086 470.931488 
L 223.912465 470.358831 
L 225.948504 469.627882 
L 227.984543 468.635331 
L 230.020581 467.37079 
L 232.39596 465.597089 
L 238.504077 460.772984 
L 240.200776 459.810682 
L 241.558135 459.285521 
L 242.915494 459.014276 
L 244.272854 459.014276 
L 245.630213 459.285521 
L 246.987572 459.810682 
L 248.344931 460.556936 
L 250.04163 461.73141 
L 252.756349 463.922511 
L 256.489087 466.89288 
L 258.525126 468.243467 
L 260.561165 469.327322 
L 262.597203 470.142322 
L 264.633242 470.718583 
L 267.008621 471.151562 
L 270.062679 471.448924 
L 274.474097 471.607477 
L 284.314951 471.652838 
L 301.960622 471.547731 
L 305.69336 471.31206 
L 308.408078 470.931488 
L 310.783457 470.358831 
L 312.819496 469.627882 
L 314.855535 468.635331 
L 316.891573 467.37079 
L 319.266952 465.597089 
L 325.375069 460.772984 
L 327.071768 459.810682 
L 328.429127 459.285521 
L 329.786486 459.014276 
L 331.143846 459.014276 
L 332.501205 459.285521 
L 333.858564 459.810682 
L 335.215923 460.556936 
L 336.912622 461.73141 
L 339.627341 463.922511 
L 343.360079 466.89288 
L 345.396118 468.243467 
L 347.432157 469.327322 
L 349.468195 470.142322 
L 351.504234 470.718583 
L 353.879613 471.151562 
L 356.933671 471.448924 
L 361.345089 471.607477 
L 371.185943 471.652838 
L 388.831614 471.547731 
L 392.564352 471.31206 
L 395.27907 470.931488 
L 397.654449 470.358831 
L 399.690488 469.627882 
L 401.726527 468.635331 
L 403.762565 467.37079 
L 406.137944 465.597089 
L 412.246061 460.772984 
L 413.94276 459.810682 
L 415.300119 459.285521 
L 416.657478 459.014276 
L 418.014837 459.014276 
L 419.372197 459.285521 
L 420.729556 459.810682 
L 422.086915 460.556936 
L 423.783614 461.73141 
L 426.498333 463.922511 
L 430.231071 466.89288 
L 432.26711 468.243467 
L 434.303148 469.327322 
L 436.339187 470.142322 
L 438.375226 470.718583 
L 440.750605 471.151562 
L 443.804663 471.448924 
L 448.216081 471.607477 
L 458.056935 471.652838 
L 460.432314 471.653226 
L 460.432314 471.653226 
" style="fill:none;stroke:#fb694a;stroke-linecap:square;"/>
   </g>
   <g id="line2d_48">
    <path clip-path="url(#pa46c15472a)" d="M 113.287686 471.653221 
L 128.218638 471.544598 
L 131.951376 471.301953 
L 134.666094 470.910121 
L 136.702133 470.422205 
L 138.738172 469.711291 
L 140.774211 468.73596 
L 142.81025 467.479748 
L 145.185628 465.694862 
L 152.311764 460.017614 
L 153.669124 459.302284 
L 155.026483 458.82436 
L 156.383842 458.61392 
L 157.741201 458.684447 
L 159.098561 459.031407 
L 160.45592 459.632726 
L 162.152619 460.684104 
L 164.188658 462.255282 
L 170.636114 467.479748 
L 172.672153 468.73596 
L 174.708192 469.711291 
L 176.744231 470.422205 
L 178.78027 470.910121 
L 181.155648 471.265616 
L 184.209707 471.501112 
L 188.960464 471.624932 
L 202.194717 471.653004 
L 215.08963 471.544598 
L 218.822368 471.301953 
L 221.537086 470.910121 
L 223.573125 470.422205 
L 225.609164 469.711291 
L 227.645203 468.73596 
L 229.681242 467.479748 
L 232.05662 465.694862 
L 239.182756 460.017614 
L 240.540116 459.302284 
L 241.897475 458.82436 
L 243.254834 458.61392 
L 244.612193 458.684447 
L 245.969553 459.031407 
L 247.326912 459.632726 
L 249.023611 460.684104 
L 251.05965 462.255282 
L 257.507106 467.479748 
L 259.543145 468.73596 
L 261.579184 469.711291 
L 263.615223 470.422205 
L 265.651262 470.910121 
L 268.02664 471.265616 
L 271.080699 471.501112 
L 275.831456 471.624932 
L 289.065709 471.653004 
L 301.960622 471.544598 
L 305.69336 471.301953 
L 308.408078 470.910121 
L 310.444117 470.422205 
L 312.480156 469.711291 
L 314.516195 468.73596 
L 316.552234 467.479748 
L 318.927612 465.694862 
L 326.053748 460.017614 
L 327.411108 459.302284 
L 328.768467 458.82436 
L 330.125826 458.61392 
L 331.483185 458.684447 
L 332.840545 459.031407 
L 334.197904 459.632726 
L 335.894603 460.684104 
L 337.930642 462.255282 
L 344.378098 467.479748 
L 346.414137 468.73596 
L 348.450176 469.711291 
L 350.486215 470.422205 
L 352.522254 470.910121 
L 354.897632 471.265616 
L 357.951691 471.501112 
L 362.702448 471.624932 
L 375.936701 471.653004 
L 388.831614 471.544598 
L 392.564352 471.301953 
L 395.27907 470.910121 
L 397.315109 470.422205 
L 399.351148 469.711291 
L 401.387187 468.73596 
L 403.423226 467.479748 
L 405.798604 465.694862 
L 412.92474 460.017614 
L 414.2821 459.302284 
L 415.639459 458.82436 
L 416.996818 458.61392 
L 418.354177 458.684447 
L 419.711537 459.031407 
L 421.068896 459.632726 
L 422.765595 460.684104 
L 424.801634 462.255282 
L 431.24909 467.479748 
L 433.285129 468.73596 
L 435.321168 469.711291 
L 437.357207 470.422205 
L 439.393246 470.910121 
L 441.768624 471.265616 
L 444.822683 471.501112 
L 449.57344 471.624932 
L 460.432314 471.653215 
L 460.432314 471.653215 
" style="fill:none;stroke:#f14432;stroke-linecap:square;"/>
   </g>
   <g id="line2d_49">
    <path clip-path="url(#pa46c15472a)" d="M 113.287686 471.653284 
L 128.557978 471.551537 
L 132.630055 471.296178 
L 135.344774 470.914134 
L 137.720152 470.352652 
L 139.756191 469.651076 
L 141.79223 468.718059 
L 143.828269 467.55542 
L 146.542988 465.727021 
L 150.954405 462.684735 
L 152.651104 461.758155 
L 154.347803 461.099801 
L 155.705163 460.809666 
L 157.062522 460.750689 
L 158.419881 460.926665 
L 159.77724 461.326313 
L 161.473939 462.100965 
L 163.509978 463.334994 
L 167.582056 466.204992 
L 170.296774 467.966826 
L 172.332813 469.055389 
L 174.368852 469.909808 
L 176.404891 470.539029 
L 178.78027 471.031989 
L 181.494988 471.359594 
L 185.227726 471.562467 
L 191.675183 471.645419 
L 213.053591 471.608711 
L 218.143688 471.413068 
L 221.197746 471.084831 
L 223.573125 470.624048 
L 225.609164 470.029661 
L 227.645203 469.214195 
L 229.681242 468.16388 
L 232.05662 466.671522 
L 239.182756 461.924476 
L 240.879455 461.20659 
L 242.236815 460.861009 
L 243.594174 460.743295 
L 244.951533 460.861009 
L 246.308892 461.20659 
L 247.666252 461.758155 
L 249.362951 462.684735 
L 251.738329 464.2708 
L 256.828427 467.763925 
L 259.203805 469.055389 
L 261.239844 469.909808 
L 263.275883 470.539029 
L 265.651262 471.031989 
L 268.36598 471.359594 
L 272.098718 471.562467 
L 278.546175 471.645419 
L 299.924583 471.608711 
L 305.01468 471.413068 
L 308.068738 471.084831 
L 310.444117 470.624048 
L 312.480156 470.029661 
L 314.516195 469.214195 
L 316.552234 468.16388 
L 318.927612 466.671522 
L 326.053748 461.924476 
L 327.750447 461.20659 
L 329.107807 460.861009 
L 330.465166 460.743295 
L 331.822525 460.861009 
L 333.179884 461.20659 
L 334.537244 461.758155 
L 336.233943 462.684735 
L 338.609321 464.2708 
L 343.699419 467.763925 
L 346.074797 469.055389 
L 348.110836 469.909808 
L 350.146875 470.539029 
L 352.522254 471.031989 
L 355.236972 471.359594 
L 358.96971 471.562467 
L 365.417167 471.645419 
L 386.795575 471.608711 
L 391.885672 471.413068 
L 394.93973 471.084831 
L 397.315109 470.624048 
L 399.351148 470.029661 
L 401.387187 469.214195 
L 403.423226 468.16388 
L 405.798604 466.671522 
L 412.92474 461.924476 
L 414.621439 461.20659 
L 415.978799 460.861009 
L 417.336158 460.743295 
L 418.693517 460.861009 
L 420.050876 461.20659 
L 421.408236 461.758155 
L 423.104935 462.684735 
L 425.480313 464.2708 
L 430.570411 467.763925 
L 432.945789 469.055389 
L 434.981828 469.909808 
L 437.017867 470.539029 
L 439.393246 471.031989 
L 442.107964 471.359594 
L 445.840702 471.562467 
L 452.288159 471.645419 
L 460.432314 471.65328 
L 460.432314 471.65328 
" style="fill:none;stroke:#d92523;stroke-linecap:square;"/>
   </g>
   <g id="line2d_50">
    <path clip-path="url(#pa46c15472a)" d="M 113.287686 471.653389 
L 129.915337 471.545866 
L 133.987415 471.3001 
L 137.041473 470.895481 
L 139.756191 470.291501 
L 142.13157 469.535511 
L 144.846289 468.419707 
L 152.990444 464.816616 
L 154.687143 464.410967 
L 156.383842 464.23702 
L 158.080541 464.312074 
L 159.77724 464.628632 
L 161.813279 465.282171 
L 164.188658 466.308442 
L 170.975454 469.409828 
L 173.350833 470.196911 
L 175.726211 470.768709 
L 178.44093 471.192132 
L 181.834328 471.472599 
L 186.585085 471.614731 
L 198.122639 471.653266 
L 216.786329 471.545866 
L 220.858406 471.3001 
L 223.912465 470.895481 
L 226.627183 470.291501 
L 229.002562 469.535511 
L 231.71728 468.419707 
L 239.861436 464.816616 
L 241.558135 464.410967 
L 243.254834 464.23702 
L 244.951533 464.312074 
L 246.648232 464.628632 
L 248.684271 465.282171 
L 251.05965 466.308442 
L 257.846446 469.409828 
L 260.221825 470.196911 
L 262.597203 470.768709 
L 265.311922 471.192132 
L 268.70532 471.472599 
L 273.456077 471.614731 
L 284.993631 471.653266 
L 303.657321 471.545866 
L 307.729398 471.3001 
L 310.783457 470.895481 
L 313.498175 470.291501 
L 315.873554 469.535511 
L 318.588272 468.419707 
L 326.732428 464.816616 
L 328.429127 464.410967 
L 330.125826 464.23702 
L 331.822525 464.312074 
L 333.519224 464.628632 
L 335.555263 465.282171 
L 337.930642 466.308442 
L 344.717438 469.409828 
L 347.092817 470.196911 
L 349.468195 470.768709 
L 352.182914 471.192132 
L 355.576312 471.472599 
L 360.327069 471.614731 
L 371.864623 471.653266 
L 390.528313 471.545866 
L 394.60039 471.3001 
L 397.654449 470.895481 
L 400.369167 470.291501 
L 402.744546 469.535511 
L 405.459264 468.419707 
L 413.60342 464.816616 
L 415.300119 464.410967 
L 416.996818 464.23702 
L 418.693517 464.312074 
L 420.390216 464.628632 
L 422.426255 465.282171 
L 424.801634 466.308442 
L 431.58843 469.409828 
L 433.963809 470.196911 
L 436.339187 470.768709 
L 439.053906 471.192132 
L 442.447304 471.472599 
L 447.198061 471.614731 
L 458.735615 471.653266 
L 460.432314 471.653386 
L 460.432314 471.653386 
" style="fill:none;stroke:#bc141a;stroke-linecap:square;"/>
   </g>
   <g id="line2d_51">
    <path clip-path="url(#pa46c15472a)" d="M 113.287686 471.653486 
L 131.612036 471.55186 
L 136.023453 471.319086 
L 139.416852 470.938628 
L 142.47091 470.392329 
L 146.203648 469.479337 
L 152.311764 467.933349 
L 154.687143 467.582209 
L 156.723182 467.48159 
L 158.759221 467.582209 
L 161.1346 467.933349 
L 164.188658 468.648915 
L 171.654134 470.531194 
L 175.047532 471.076153 
L 178.44093 471.394204 
L 182.852347 471.578774 
L 190.996503 471.649481 
L 217.125669 471.586241 
L 222.215766 471.370872 
L 225.948504 470.986866 
L 229.341902 470.392329 
L 233.07464 469.479337 
L 239.182756 467.933349 
L 241.558135 467.582209 
L 243.594174 467.48159 
L 245.630213 467.582209 
L 248.005591 467.933349 
L 251.05965 468.648915 
L 258.525126 470.531194 
L 261.918524 471.076153 
L 265.311922 471.394204 
L 269.723339 471.578774 
L 277.867495 471.649481 
L 303.996661 471.586241 
L 309.086758 471.370872 
L 312.819496 470.986866 
L 316.212894 470.392329 
L 319.945632 469.479337 
L 326.053748 467.933349 
L 328.429127 467.582209 
L 330.465166 467.48159 
L 332.501205 467.582209 
L 334.876583 467.933349 
L 337.930642 468.648915 
L 345.396118 470.531194 
L 348.789516 471.076153 
L 352.182914 471.394204 
L 356.594331 471.578774 
L 364.738487 471.649481 
L 390.867653 471.586241 
L 395.95775 471.370872 
L 399.690488 470.986866 
L 403.083886 470.392329 
L 406.816624 469.479337 
L 412.92474 467.933349 
L 415.300119 467.582209 
L 417.336158 467.48159 
L 419.372197 467.582209 
L 421.747575 467.933349 
L 424.801634 468.648915 
L 432.26711 470.531194 
L 435.660508 471.076153 
L 439.053906 471.394204 
L 443.465323 471.578774 
L 451.609479 471.649481 
L 460.432314 471.653484 
L 460.432314 471.653484 
" style="fill:none;stroke:#980c13;stroke-linecap:square;"/>
   </g>
   <g id="line2d_52">
    <path clip-path="url(#pa46c15472a)" d="M 113.287686 471.653545 
L 133.987415 471.549652 
L 139.077512 471.3048 
L 143.488929 470.875553 
L 155.705163 469.484251 
L 158.759221 469.523611 
L 162.152619 469.818828 
L 168.260736 470.657028 
L 173.011493 471.196102 
L 177.76225 471.492609 
L 183.870367 471.625164 
L 199.819338 471.653544 
L 220.858406 471.549652 
L 225.948504 471.3048 
L 230.359921 470.875553 
L 242.576154 469.484251 
L 245.630213 469.523611 
L 249.023611 469.818828 
L 255.131728 470.657028 
L 259.882485 471.196102 
L 264.633242 471.492609 
L 270.741359 471.625164 
L 286.69033 471.653544 
L 307.729398 471.549652 
L 312.819496 471.3048 
L 317.230913 470.875553 
L 329.447146 469.484251 
L 332.501205 469.523611 
L 335.894603 469.818828 
L 342.00272 470.657028 
L 346.753477 471.196102 
L 351.504234 471.492609 
L 357.612351 471.625164 
L 373.561322 471.653544 
L 394.60039 471.549652 
L 399.690488 471.3048 
L 404.101905 470.875553 
L 416.318138 469.484251 
L 419.372197 469.523611 
L 422.765595 469.818828 
L 428.873711 470.657028 
L 433.624469 471.196102 
L 438.375226 471.492609 
L 444.483343 471.625164 
L 460.432314 471.653544 
L 460.432314 471.653544 
" style="fill:none;stroke:#67000d;stroke-linecap:square;"/>
   </g>
   <g id="patch_3">
    <path d="M 76.8375 512.64 
L 76.8375 40.32 
" style="fill:none;stroke:#000000;stroke-linecap:square;stroke-linejoin:miter;stroke-width:0.8;"/>
   </g>
   <g id="patch_4">
    <path d="M 496.8825 512.64 
L 496.8825 40.32 
" style="fill:none;stroke:#000000;stroke-linecap:square;stroke-linejoin:miter;stroke-width:0.8;"/>
   </g>
   <g id="patch_5">
    <path d="M 76.8375 512.64 
L 496.8825 512.64 
" style="fill:none;stroke:#000000;stroke-linecap:square;stroke-linejoin:miter;stroke-width:0.8;"/>
   </g>
   <g id="patch_6">
    <path d="M 76.8375 40.32 
L 496.8825 40.32 
" style="fill:none;stroke:#000000;stroke-linecap:square;stroke-linejoin:miter;stroke-width:0.8;"/>
   </g>
   <g id="legend_1">
    <g id="patch_7">
     <path d="M 342.6825 324.83625 
L 482.8825 324.83625 
Q 486.8825 324.83625 486.8825 320.83625 
L 486.8825 232.12375 
Q 486.8825 228.12375 482.8825 228.12375 
L 342.6825 228.12375 
Q 338.6825 228.12375 338.6825 232.12375 
L 338.6825 320.83625 
Q 338.6825 324.83625 342.6825 324.83625 
z
" style="fill:#ffffff;opacity:0.8;stroke:#cccccc;stroke-linejoin:miter;"/>
    </g>
    <g id="line2d_53">
     <path d="M 346.6825 246.964375 
L 386.6825 246.964375 
" style="fill:none;stroke:#008000;stroke-linecap:square;stroke-width:2;"/>
    </g>
    <g id="line2d_54"/>
    <g id="text_13">
     <!-- $V_z(kV\AA)$ -->
     <defs>
      <path d="M 20.609375 0 
L 7.8125 72.90625 
L 17.484375 72.90625 
L 28.078125 10.203125 
L 63.484375 72.90625 
L 74.21875 72.90625 
L 32.078125 0 
z
" id="DejaVuSans-Oblique-86"/>
      <path d="M 11.625 54.6875 
L 54.296875 54.6875 
L 52.6875 46.484375 
L 11.53125 7.171875 
L 45.515625 7.171875 
L 44.09375 0 
L -0.296875 0 
L 1.3125 8.203125 
L 42.484375 47.515625 
L 10.203125 47.515625 
z
" id="DejaVuSans-Oblique-122"/>
      <path d="M 18.3125 75.984375 
L 27.296875 75.984375 
L 18.703125 31.6875 
L 49.515625 54.6875 
L 61.1875 54.6875 
L 26.8125 28.515625 
L 51.90625 0 
L 41.015625 0 
L 17.671875 26.703125 
L 12.5 0 
L 3.515625 0 
z
" id="DejaVuSans-Oblique-107"/>
     </defs>
     <g transform="translate(402.6825 253.964375)scale(0.2 -0.2)">
      <use transform="translate(0 0.171875)" xlink:href="#DejaVuSans-Oblique-86"/>
      <use transform="translate(68.408203 -16.234375)scale(0.7)" xlink:href="#DejaVuSans-Oblique-122"/>
      <use transform="translate(107.885742 0.171875)" xlink:href="#DejaVuSans-40"/>
      <use transform="translate(146.899414 0.171875)" xlink:href="#DejaVuSans-Oblique-107"/>
      <use transform="translate(204.80957 0.171875)" xlink:href="#DejaVuSans-Oblique-86"/>
      <use transform="translate(273.217773 0.171875)" xlink:href="#DejaVuSans-Oblique-197"/>
      <use transform="translate(341.625977 0.171875)" xlink:href="#DejaVuSans-41"/>
     </g>
    </g>
    <g id="line2d_55">
     <path d="M 346.6825 276.320625 
L 386.6825 276.320625 
" style="fill:none;stroke:#0000ff;stroke-linecap:square;stroke-width:2;"/>
    </g>
    <g id="line2d_56"/>
    <g id="text_14">
     <!-- $re(T)$ -->
     <defs>
      <path d="M 44.578125 46.390625 
Q 43.21875 47.125 41.453125 47.515625 
Q 39.703125 47.90625 37.703125 47.90625 
Q 30.515625 47.90625 25.140625 42.453125 
Q 19.78125 37.015625 18.015625 27.875 
L 12.5 0 
L 3.515625 0 
L 14.203125 54.6875 
L 23.1875 54.6875 
L 21.484375 46.1875 
Q 25.046875 50.921875 30 53.453125 
Q 34.96875 56 40.578125 56 
Q 42.046875 56 43.453125 55.828125 
Q 44.875 55.671875 46.296875 55.28125 
z
" id="DejaVuSans-Oblique-114"/>
      <path d="M 48.09375 32.234375 
Q 48.25 33.015625 48.3125 33.84375 
Q 48.390625 34.671875 48.390625 35.5 
Q 48.390625 41.453125 44.890625 44.921875 
Q 41.40625 48.390625 35.40625 48.390625 
Q 28.71875 48.390625 23.578125 44.15625 
Q 18.453125 39.9375 15.828125 32.171875 
z
M 55.90625 25.203125 
L 14.109375 25.203125 
Q 13.8125 23.34375 13.71875 22.265625 
Q 13.625 21.1875 13.625 20.40625 
Q 13.625 13.625 17.796875 9.90625 
Q 21.96875 6.203125 29.59375 6.203125 
Q 35.453125 6.203125 40.671875 7.515625 
Q 45.90625 8.84375 50.390625 11.375 
L 48.6875 2.484375 
Q 43.84375 0.53125 38.6875 -0.4375 
Q 33.546875 -1.421875 28.21875 -1.421875 
Q 16.84375 -1.421875 10.71875 4.015625 
Q 4.59375 9.46875 4.59375 19.484375 
Q 4.59375 28.03125 7.640625 35.375 
Q 10.6875 42.71875 16.609375 48.484375 
Q 20.40625 52.09375 25.65625 54.046875 
Q 30.90625 56 36.8125 56 
Q 46.09375 56 51.578125 50.4375 
Q 57.078125 44.875 57.078125 35.5 
Q 57.078125 33.25 56.78125 30.6875 
Q 56.5 28.125 55.90625 25.203125 
z
" id="DejaVuSans-Oblique-101"/>
      <path d="M 5.90625 72.90625 
L 67.578125 72.90625 
L 66.015625 64.59375 
L 39.984375 64.59375 
L 27.484375 0 
L 17.578125 0 
L 30.078125 64.59375 
L 4.296875 64.59375 
z
" id="DejaVuSans-Oblique-84"/>
     </defs>
     <g transform="translate(402.6825 283.320625)scale(0.2 -0.2)">
      <use transform="translate(0 0.125)" xlink:href="#DejaVuSans-Oblique-114"/>
      <use transform="translate(41.113281 0.125)" xlink:href="#DejaVuSans-Oblique-101"/>
      <use transform="translate(102.636719 0.125)" xlink:href="#DejaVuSans-40"/>
      <use transform="translate(141.650391 0.125)" xlink:href="#DejaVuSans-Oblique-84"/>
      <use transform="translate(202.734375 0.125)" xlink:href="#DejaVuSans-41"/>
     </g>
    </g>
    <g id="line2d_57">
     <path d="M 346.6825 305.676875 
L 386.6825 305.676875 
" style="fill:none;stroke:#ff0000;stroke-linecap:square;stroke-width:2;"/>
    </g>
    <g id="line2d_58"/>
    <g id="text_15">
     <!-- $im(T)$ -->
     <defs>
      <path d="M 18.3125 75.984375 
L 27.296875 75.984375 
L 25.09375 64.59375 
L 16.109375 64.59375 
z
M 14.203125 54.6875 
L 23.1875 54.6875 
L 12.5 0 
L 3.515625 0 
z
" id="DejaVuSans-Oblique-105"/>
      <path d="M 89.796875 33.015625 
L 83.40625 0 
L 74.421875 0 
L 80.71875 32.71875 
Q 81.109375 34.8125 81.296875 36.328125 
Q 81.5 37.84375 81.5 38.921875 
Q 81.5 43.3125 79.046875 45.75 
Q 76.609375 48.1875 72.21875 48.1875 
Q 65.671875 48.1875 60.546875 43.28125 
Q 55.421875 38.375 53.90625 30.515625 
L 47.90625 0 
L 38.921875 0 
L 45.3125 32.71875 
Q 45.703125 34.515625 45.890625 36.046875 
Q 46.09375 37.59375 46.09375 38.8125 
Q 46.09375 43.265625 43.65625 45.71875 
Q 41.21875 48.1875 36.921875 48.1875 
Q 30.28125 48.1875 25.140625 43.28125 
Q 20.015625 38.375 18.5 30.515625 
L 12.5 0 
L 3.515625 0 
L 14.203125 54.6875 
L 23.1875 54.6875 
L 21.484375 46.1875 
Q 25.140625 50.984375 30.046875 53.484375 
Q 34.96875 56 40.578125 56 
Q 46.53125 56 50.359375 52.875 
Q 54.203125 49.75 54.984375 44.1875 
Q 59.078125 49.953125 64.46875 52.96875 
Q 69.875 56 75.875 56 
Q 82.90625 56 86.734375 51.953125 
Q 90.578125 47.90625 90.578125 40.484375 
Q 90.578125 38.875 90.375 36.9375 
Q 90.1875 35.015625 89.796875 33.015625 
z
" id="DejaVuSans-Oblique-109"/>
     </defs>
     <g transform="translate(402.6825 312.676875)scale(0.2 -0.2)">
      <use transform="translate(0 0.015625)" xlink:href="#DejaVuSans-Oblique-105"/>
      <use transform="translate(27.783203 0.015625)" xlink:href="#DejaVuSans-Oblique-109"/>
      <use transform="translate(125.195312 0.015625)" xlink:href="#DejaVuSans-40"/>
      <use transform="translate(164.208984 0.015625)" xlink:href="#DejaVuSans-Oblique-84"/>
      <use transform="translate(225.292969 0.015625)" xlink:href="#DejaVuSans-41"/>
     </g>
    </g>
   </g>
  </g>
 </g>
 <defs>
  <clipPath id="pa46c15472a">
   <rect height="472.32" width="420.045" x="76.8375" y="40.32"/>
  </clipPath>
 </defs>
</svg>
