<?xml version="1.0" encoding="utf-8" standalone="no"?>
<!DOCTYPE svg PUBLIC "-//W3C//DTD SVG 1.1//EN"
  "http://www.w3.org/Graphics/SVG/1.1/DTD/svg11.dtd">
<!-- Created with matplotlib (https://matplotlib.org/) -->
<svg height="576pt" version="1.1" viewBox="0 0 512.25 576" width="512.25pt" xmlns="http://www.w3.org/2000/svg" xmlns:xlink="http://www.w3.org/1999/xlink">
 <defs>
  <style type="text/css">
*{stroke-linecap:butt;stroke-linejoin:round;}
  </style>
 </defs>
 <g id="figure_1">
  <g id="patch_1">
   <path d="M 0 576 
L 512.25 576 
L 512.25 0 
L 0 0 
z
" style="fill:#ffffff;"/>
  </g>
  <g id="axes_1">
   <g id="patch_2">
    <path d="M 76.8375 512.64 
L 496.8825 512.64 
L 496.8825 40.32 
L 76.8375 40.32 
z
" style="fill:#ffffff;"/>
   </g>
   <g id="matplotlib.axis_1">
    <g id="xtick_1">
     <g id="line2d_1">
      <path clip-path="url(#pab744d478e)" d="M 113.287686 512.64 
L 113.287686 40.32 
" style="fill:none;stroke:#e6e6e6;stroke-linecap:square;stroke-width:0.8;"/>
     </g>
     <g id="line2d_2">
      <defs>
       <path d="M 0 0 
L 0 -3.5 
" id="mcec61ebafb" style="stroke:#000000;stroke-width:0.8;"/>
      </defs>
      <g>
       <use style="stroke:#000000;stroke-width:0.8;" x="113.287686" xlink:href="#mcec61ebafb" y="512.64"/>
      </g>
     </g>
     <g id="text_1">
      <!-- 0 -->
      <defs>
       <path d="M 31.78125 66.40625 
Q 24.171875 66.40625 20.328125 58.90625 
Q 16.5 51.421875 16.5 36.375 
Q 16.5 21.390625 20.328125 13.890625 
Q 24.171875 6.390625 31.78125 6.390625 
Q 39.453125 6.390625 43.28125 13.890625 
Q 47.125 21.390625 47.125 36.375 
Q 47.125 51.421875 43.28125 58.90625 
Q 39.453125 66.40625 31.78125 66.40625 
z
M 31.78125 74.21875 
Q 44.046875 74.21875 50.515625 64.515625 
Q 56.984375 54.828125 56.984375 36.375 
Q 56.984375 17.96875 50.515625 8.265625 
Q 44.046875 -1.421875 31.78125 -1.421875 
Q 19.53125 -1.421875 13.0625 8.265625 
Q 6.59375 17.96875 6.59375 36.375 
Q 6.59375 54.828125 13.0625 64.515625 
Q 19.53125 74.21875 31.78125 74.21875 
z
" id="DejaVuSans-48"/>
      </defs>
      <g transform="translate(108.515811 527.537656)scale(0.15 -0.15)">
       <use xlink:href="#DejaVuSans-48"/>
      </g>
     </g>
    </g>
    <g id="xtick_2">
     <g id="line2d_3">
      <path clip-path="url(#pab744d478e)" d="M 200.158678 512.64 
L 200.158678 40.32 
" style="fill:none;stroke:#e6e6e6;stroke-linecap:square;stroke-width:0.8;"/>
     </g>
     <g id="line2d_4">
      <g>
       <use style="stroke:#000000;stroke-width:0.8;" x="200.158678" xlink:href="#mcec61ebafb" y="512.64"/>
      </g>
     </g>
     <g id="text_2">
      <!-- 10 -->
      <defs>
       <path d="M 12.40625 8.296875 
L 28.515625 8.296875 
L 28.515625 63.921875 
L 10.984375 60.40625 
L 10.984375 69.390625 
L 28.421875 72.90625 
L 38.28125 72.90625 
L 38.28125 8.296875 
L 54.390625 8.296875 
L 54.390625 0 
L 12.40625 0 
z
" id="DejaVuSans-49"/>
      </defs>
      <g transform="translate(190.614928 527.537656)scale(0.15 -0.15)">
       <use xlink:href="#DejaVuSans-49"/>
       <use x="63.623047" xlink:href="#DejaVuSans-48"/>
      </g>
     </g>
    </g>
    <g id="xtick_3">
     <g id="line2d_5">
      <path clip-path="url(#pab744d478e)" d="M 287.02967 512.64 
L 287.02967 40.32 
" style="fill:none;stroke:#e6e6e6;stroke-linecap:square;stroke-width:0.8;"/>
     </g>
     <g id="line2d_6">
      <g>
       <use style="stroke:#000000;stroke-width:0.8;" x="287.02967" xlink:href="#mcec61ebafb" y="512.64"/>
      </g>
     </g>
     <g id="text_3">
      <!-- 20 -->
      <defs>
       <path d="M 19.1875 8.296875 
L 53.609375 8.296875 
L 53.609375 0 
L 7.328125 0 
L 7.328125 8.296875 
Q 12.9375 14.109375 22.625 23.890625 
Q 32.328125 33.6875 34.8125 36.53125 
Q 39.546875 41.84375 41.421875 45.53125 
Q 43.3125 49.21875 43.3125 52.78125 
Q 43.3125 58.59375 39.234375 62.25 
Q 35.15625 65.921875 28.609375 65.921875 
Q 23.96875 65.921875 18.8125 64.3125 
Q 13.671875 62.703125 7.8125 59.421875 
L 7.8125 69.390625 
Q 13.765625 71.78125 18.9375 73 
Q 24.125 74.21875 28.421875 74.21875 
Q 39.75 74.21875 46.484375 68.546875 
Q 53.21875 62.890625 53.21875 53.421875 
Q 53.21875 48.921875 51.53125 44.890625 
Q 49.859375 40.875 45.40625 35.40625 
Q 44.1875 33.984375 37.640625 27.21875 
Q 31.109375 20.453125 19.1875 8.296875 
z
" id="DejaVuSans-50"/>
      </defs>
      <g transform="translate(277.48592 527.537656)scale(0.15 -0.15)">
       <use xlink:href="#DejaVuSans-50"/>
       <use x="63.623047" xlink:href="#DejaVuSans-48"/>
      </g>
     </g>
    </g>
    <g id="xtick_4">
     <g id="line2d_7">
      <path clip-path="url(#pab744d478e)" d="M 373.900662 512.64 
L 373.900662 40.32 
" style="fill:none;stroke:#e6e6e6;stroke-linecap:square;stroke-width:0.8;"/>
     </g>
     <g id="line2d_8">
      <g>
       <use style="stroke:#000000;stroke-width:0.8;" x="373.900662" xlink:href="#mcec61ebafb" y="512.64"/>
      </g>
     </g>
     <g id="text_4">
      <!-- 30 -->
      <defs>
       <path d="M 40.578125 39.3125 
Q 47.65625 37.796875 51.625 33 
Q 55.609375 28.21875 55.609375 21.1875 
Q 55.609375 10.40625 48.1875 4.484375 
Q 40.765625 -1.421875 27.09375 -1.421875 
Q 22.515625 -1.421875 17.65625 -0.515625 
Q 12.796875 0.390625 7.625 2.203125 
L 7.625 11.71875 
Q 11.71875 9.328125 16.59375 8.109375 
Q 21.484375 6.890625 26.8125 6.890625 
Q 36.078125 6.890625 40.9375 10.546875 
Q 45.796875 14.203125 45.796875 21.1875 
Q 45.796875 27.640625 41.28125 31.265625 
Q 36.765625 34.90625 28.71875 34.90625 
L 20.21875 34.90625 
L 20.21875 43.015625 
L 29.109375 43.015625 
Q 36.375 43.015625 40.234375 45.921875 
Q 44.09375 48.828125 44.09375 54.296875 
Q 44.09375 59.90625 40.109375 62.90625 
Q 36.140625 65.921875 28.71875 65.921875 
Q 24.65625 65.921875 20.015625 65.03125 
Q 15.375 64.15625 9.8125 62.3125 
L 9.8125 71.09375 
Q 15.4375 72.65625 20.34375 73.4375 
Q 25.25 74.21875 29.59375 74.21875 
Q 40.828125 74.21875 47.359375 69.109375 
Q 53.90625 64.015625 53.90625 55.328125 
Q 53.90625 49.265625 50.4375 45.09375 
Q 46.96875 40.921875 40.578125 39.3125 
z
" id="DejaVuSans-51"/>
      </defs>
      <g transform="translate(364.356912 527.537656)scale(0.15 -0.15)">
       <use xlink:href="#DejaVuSans-51"/>
       <use x="63.623047" xlink:href="#DejaVuSans-48"/>
      </g>
     </g>
    </g>
    <g id="xtick_5">
     <g id="line2d_9">
      <path clip-path="url(#pab744d478e)" d="M 460.771654 512.64 
L 460.771654 40.32 
" style="fill:none;stroke:#e6e6e6;stroke-linecap:square;stroke-width:0.8;"/>
     </g>
     <g id="line2d_10">
      <g>
       <use style="stroke:#000000;stroke-width:0.8;" x="460.771654" xlink:href="#mcec61ebafb" y="512.64"/>
      </g>
     </g>
     <g id="text_5">
      <!-- 40 -->
      <defs>
       <path d="M 37.796875 64.3125 
L 12.890625 25.390625 
L 37.796875 25.390625 
z
M 35.203125 72.90625 
L 47.609375 72.90625 
L 47.609375 25.390625 
L 58.015625 25.390625 
L 58.015625 17.1875 
L 47.609375 17.1875 
L 47.609375 0 
L 37.796875 0 
L 37.796875 17.1875 
L 4.890625 17.1875 
L 4.890625 26.703125 
z
" id="DejaVuSans-52"/>
      </defs>
      <g transform="translate(451.227904 527.537656)scale(0.15 -0.15)">
       <use xlink:href="#DejaVuSans-52"/>
       <use x="63.623047" xlink:href="#DejaVuSans-48"/>
      </g>
     </g>
    </g>
    <g id="text_6">
     <!-- $x(\AA)$ -->
     <defs>
      <path d="M 60.015625 54.6875 
L 34.90625 27.875 
L 50.296875 0 
L 39.984375 0 
L 28.421875 21.6875 
L 8.296875 0 
L -2.59375 0 
L 24.3125 28.8125 
L 10.015625 54.6875 
L 20.3125 54.6875 
L 30.8125 34.90625 
L 49.125 54.6875 
z
" id="DejaVuSans-Oblique-120"/>
      <path d="M 31 75.875 
Q 24.46875 64.65625 21.28125 53.65625 
Q 18.109375 42.671875 18.109375 31.390625 
Q 18.109375 20.125 21.3125 9.0625 
Q 24.515625 -2 31 -13.1875 
L 23.1875 -13.1875 
Q 15.875 -1.703125 12.234375 9.375 
Q 8.59375 20.453125 8.59375 31.390625 
Q 8.59375 42.28125 12.203125 53.3125 
Q 15.828125 64.359375 23.1875 75.875 
z
" id="DejaVuSans-40"/>
      <path d="M 49.8125 79.390625 
Q 49.8125 82.46875 47.625 84.640625 
Q 45.453125 86.8125 42.390625 86.8125 
Q 39.265625 86.8125 37.140625 84.6875 
Q 35.015625 82.5625 35.015625 79.390625 
Q 35.015625 76.3125 37.140625 74.15625 
Q 39.265625 72.015625 42.390625 72.015625 
Q 45.453125 72.015625 47.625 74.15625 
Q 49.8125 76.3125 49.8125 79.390625 
z
M 34.421875 68.703125 
Q 31.78125 70.515625 30.390625 73.265625 
Q 29 76.03125 29 79.390625 
Q 29 84.96875 32.90625 88.890625 
Q 36.8125 92.828125 42.390625 92.828125 
Q 47.953125 92.828125 51.875 88.890625 
Q 55.8125 84.96875 55.8125 79.390625 
Q 55.8125 75.53125 54.03125 72.546875 
Q 52.25 69.578125 48.875 67.828125 
L 61.53125 0 
L 51.21875 0 
L 48.1875 18.703125 
L 15.375 18.703125 
L 5.078125 0 
L -5.328125 0 
z
M 40.375 63.1875 
L 19.921875 26.90625 
L 46.6875 26.90625 
z
" id="DejaVuSans-Oblique-197"/>
      <path d="M 8.015625 75.875 
L 15.828125 75.875 
Q 23.140625 64.359375 26.78125 53.3125 
Q 30.421875 42.28125 30.421875 31.390625 
Q 30.421875 20.453125 26.78125 9.375 
Q 23.140625 -1.703125 15.828125 -13.1875 
L 8.015625 -13.1875 
Q 14.5 -2 17.703125 9.0625 
Q 20.90625 20.125 20.90625 31.390625 
Q 20.90625 42.671875 17.703125 53.65625 
Q 14.5 64.65625 8.015625 75.875 
z
" id="DejaVuSans-41"/>
     </defs>
     <g transform="translate(261.11 556.207969)scale(0.25 -0.25)">
      <use transform="translate(0 0.171875)" xlink:href="#DejaVuSans-Oblique-120"/>
      <use transform="translate(59.179688 0.171875)" xlink:href="#DejaVuSans-40"/>
      <use transform="translate(98.193359 0.171875)" xlink:href="#DejaVuSans-Oblique-197"/>
      <use transform="translate(166.601562 0.171875)" xlink:href="#DejaVuSans-41"/>
     </g>
    </g>
   </g>
   <g id="matplotlib.axis_2">
    <g id="ytick_1">
     <g id="line2d_11">
      <path clip-path="url(#pab744d478e)" d="M 76.8375 471.653554 
L 496.8825 471.653554 
" style="fill:none;stroke:#e6e6e6;stroke-linecap:square;stroke-width:0.8;"/>
     </g>
     <g id="line2d_12">
      <defs>
       <path d="M 0 0 
L 3.5 0 
" id="mc04ad28990" style="stroke:#000000;stroke-width:0.8;"/>
      </defs>
      <g>
       <use style="stroke:#000000;stroke-width:0.8;" x="76.8375" xlink:href="#mc04ad28990" y="471.653554"/>
      </g>
     </g>
     <g id="text_7">
      <!-- 0.0 -->
      <defs>
       <path d="M 10.6875 12.40625 
L 21 12.40625 
L 21 0 
L 10.6875 0 
z
" id="DejaVuSans-46"/>
      </defs>
      <g transform="translate(49.482812 477.352382)scale(0.15 -0.15)">
       <use xlink:href="#DejaVuSans-48"/>
       <use x="63.623047" xlink:href="#DejaVuSans-46"/>
       <use x="95.410156" xlink:href="#DejaVuSans-48"/>
      </g>
     </g>
    </g>
    <g id="ytick_2">
     <g id="line2d_13">
      <path clip-path="url(#pab744d478e)" d="M 76.8375 393.584132 
L 496.8825 393.584132 
" style="fill:none;stroke:#e6e6e6;stroke-linecap:square;stroke-width:0.8;"/>
     </g>
     <g id="line2d_14">
      <g>
       <use style="stroke:#000000;stroke-width:0.8;" x="76.8375" xlink:href="#mc04ad28990" y="393.584132"/>
      </g>
     </g>
     <g id="text_8">
      <!-- 0.2 -->
      <g transform="translate(49.482812 399.28296)scale(0.15 -0.15)">
       <use xlink:href="#DejaVuSans-48"/>
       <use x="63.623047" xlink:href="#DejaVuSans-46"/>
       <use x="95.410156" xlink:href="#DejaVuSans-50"/>
      </g>
     </g>
    </g>
    <g id="ytick_3">
     <g id="line2d_15">
      <path clip-path="url(#pab744d478e)" d="M 76.8375 315.514711 
L 496.8825 315.514711 
" style="fill:none;stroke:#e6e6e6;stroke-linecap:square;stroke-width:0.8;"/>
     </g>
     <g id="line2d_16">
      <g>
       <use style="stroke:#000000;stroke-width:0.8;" x="76.8375" xlink:href="#mc04ad28990" y="315.514711"/>
      </g>
     </g>
     <g id="text_9">
      <!-- 0.4 -->
      <g transform="translate(49.482812 321.213539)scale(0.15 -0.15)">
       <use xlink:href="#DejaVuSans-48"/>
       <use x="63.623047" xlink:href="#DejaVuSans-46"/>
       <use x="95.410156" xlink:href="#DejaVuSans-52"/>
      </g>
     </g>
    </g>
    <g id="ytick_4">
     <g id="line2d_17">
      <path clip-path="url(#pab744d478e)" d="M 76.8375 237.445289 
L 496.8825 237.445289 
" style="fill:none;stroke:#e6e6e6;stroke-linecap:square;stroke-width:0.8;"/>
     </g>
     <g id="line2d_18">
      <g>
       <use style="stroke:#000000;stroke-width:0.8;" x="76.8375" xlink:href="#mc04ad28990" y="237.445289"/>
      </g>
     </g>
     <g id="text_10">
      <!-- 0.6 -->
      <defs>
       <path d="M 33.015625 40.375 
Q 26.375 40.375 22.484375 35.828125 
Q 18.609375 31.296875 18.609375 23.390625 
Q 18.609375 15.53125 22.484375 10.953125 
Q 26.375 6.390625 33.015625 6.390625 
Q 39.65625 6.390625 43.53125 10.953125 
Q 47.40625 15.53125 47.40625 23.390625 
Q 47.40625 31.296875 43.53125 35.828125 
Q 39.65625 40.375 33.015625 40.375 
z
M 52.59375 71.296875 
L 52.59375 62.3125 
Q 48.875 64.0625 45.09375 64.984375 
Q 41.3125 65.921875 37.59375 65.921875 
Q 27.828125 65.921875 22.671875 59.328125 
Q 17.53125 52.734375 16.796875 39.40625 
Q 19.671875 43.65625 24.015625 45.921875 
Q 28.375 48.1875 33.59375 48.1875 
Q 44.578125 48.1875 50.953125 41.515625 
Q 57.328125 34.859375 57.328125 23.390625 
Q 57.328125 12.15625 50.6875 5.359375 
Q 44.046875 -1.421875 33.015625 -1.421875 
Q 20.359375 -1.421875 13.671875 8.265625 
Q 6.984375 17.96875 6.984375 36.375 
Q 6.984375 53.65625 15.1875 63.9375 
Q 23.390625 74.21875 37.203125 74.21875 
Q 40.921875 74.21875 44.703125 73.484375 
Q 48.484375 72.75 52.59375 71.296875 
z
" id="DejaVuSans-54"/>
      </defs>
      <g transform="translate(49.482812 243.144117)scale(0.15 -0.15)">
       <use xlink:href="#DejaVuSans-48"/>
       <use x="63.623047" xlink:href="#DejaVuSans-46"/>
       <use x="95.410156" xlink:href="#DejaVuSans-54"/>
      </g>
     </g>
    </g>
    <g id="ytick_5">
     <g id="line2d_19">
      <path clip-path="url(#pab744d478e)" d="M 76.8375 159.375868 
L 496.8825 159.375868 
" style="fill:none;stroke:#e6e6e6;stroke-linecap:square;stroke-width:0.8;"/>
     </g>
     <g id="line2d_20">
      <g>
       <use style="stroke:#000000;stroke-width:0.8;" x="76.8375" xlink:href="#mc04ad28990" y="159.375868"/>
      </g>
     </g>
     <g id="text_11">
      <!-- 0.8 -->
      <defs>
       <path d="M 31.78125 34.625 
Q 24.75 34.625 20.71875 30.859375 
Q 16.703125 27.09375 16.703125 20.515625 
Q 16.703125 13.921875 20.71875 10.15625 
Q 24.75 6.390625 31.78125 6.390625 
Q 38.8125 6.390625 42.859375 10.171875 
Q 46.921875 13.96875 46.921875 20.515625 
Q 46.921875 27.09375 42.890625 30.859375 
Q 38.875 34.625 31.78125 34.625 
z
M 21.921875 38.8125 
Q 15.578125 40.375 12.03125 44.71875 
Q 8.5 49.078125 8.5 55.328125 
Q 8.5 64.0625 14.71875 69.140625 
Q 20.953125 74.21875 31.78125 74.21875 
Q 42.671875 74.21875 48.875 69.140625 
Q 55.078125 64.0625 55.078125 55.328125 
Q 55.078125 49.078125 51.53125 44.71875 
Q 48 40.375 41.703125 38.8125 
Q 48.828125 37.15625 52.796875 32.3125 
Q 56.78125 27.484375 56.78125 20.515625 
Q 56.78125 9.90625 50.3125 4.234375 
Q 43.84375 -1.421875 31.78125 -1.421875 
Q 19.734375 -1.421875 13.25 4.234375 
Q 6.78125 9.90625 6.78125 20.515625 
Q 6.78125 27.484375 10.78125 32.3125 
Q 14.796875 37.15625 21.921875 38.8125 
z
M 18.3125 54.390625 
Q 18.3125 48.734375 21.84375 45.5625 
Q 25.390625 42.390625 31.78125 42.390625 
Q 38.140625 42.390625 41.71875 45.5625 
Q 45.3125 48.734375 45.3125 54.390625 
Q 45.3125 60.0625 41.71875 63.234375 
Q 38.140625 66.40625 31.78125 66.40625 
Q 25.390625 66.40625 21.84375 63.234375 
Q 18.3125 60.0625 18.3125 54.390625 
z
" id="DejaVuSans-56"/>
      </defs>
      <g transform="translate(49.482812 165.074696)scale(0.15 -0.15)">
       <use xlink:href="#DejaVuSans-48"/>
       <use x="63.623047" xlink:href="#DejaVuSans-46"/>
       <use x="95.410156" xlink:href="#DejaVuSans-56"/>
      </g>
     </g>
    </g>
    <g id="ytick_6">
     <g id="line2d_21">
      <path clip-path="url(#pab744d478e)" d="M 76.8375 81.306446 
L 496.8825 81.306446 
" style="fill:none;stroke:#e6e6e6;stroke-linecap:square;stroke-width:0.8;"/>
     </g>
     <g id="line2d_22">
      <g>
       <use style="stroke:#000000;stroke-width:0.8;" x="76.8375" xlink:href="#mc04ad28990" y="81.306446"/>
      </g>
     </g>
     <g id="text_12">
      <!-- 1.0 -->
      <g transform="translate(49.482812 87.005274)scale(0.15 -0.15)">
       <use xlink:href="#DejaVuSans-49"/>
       <use x="63.623047" xlink:href="#DejaVuSans-46"/>
       <use x="95.410156" xlink:href="#DejaVuSans-48"/>
      </g>
     </g>
    </g>
   </g>
   <g id="line2d_23">
    <path clip-path="url(#pab744d478e)" d="M 113.287686 471.653554 
L 460.432314 471.653554 
L 460.432314 471.653554 
" style="fill:none;stroke:#e9f7e5;stroke-linecap:square;"/>
   </g>
   <g id="line2d_24">
    <path clip-path="url(#pab744d478e)" d="M 113.287686 471.653554 
L 460.432314 471.653554 
L 460.432314 471.653554 
" style="fill:none;stroke:#d3eecd;stroke-linecap:square;"/>
   </g>
   <g id="line2d_25">
    <path clip-path="url(#pab744d478e)" d="M 113.287686 471.653554 
L 460.432314 471.653554 
L 460.432314 471.653554 
" style="fill:none;stroke:#b8e3b2;stroke-linecap:square;"/>
   </g>
   <g id="line2d_26">
    <path clip-path="url(#pab744d478e)" d="M 113.287686 471.653554 
L 460.432314 471.653554 
L 460.432314 471.653554 
" style="fill:none;stroke:#98d594;stroke-linecap:square;"/>
   </g>
   <g id="line2d_27">
    <path clip-path="url(#pab744d478e)" d="M 113.287686 471.653554 
L 151.293745 471.598721 
L 151.972425 471.416301 
L 152.311764 471.194896 
L 152.651104 470.809129 
L 152.990444 470.172988 
L 153.329784 469.181326 
L 153.669124 467.722188 
L 154.347803 463.066662 
L 155.365823 452.434525 
L 156.044502 445.892351 
L 156.383842 443.934729 
L 156.723182 443.249671 
L 157.062522 443.934729 
L 157.401862 445.892351 
L 158.080541 452.434525 
L 159.098561 463.066662 
L 159.77724 467.722188 
L 160.45592 470.172988 
L 160.79526 470.809129 
L 161.473939 471.416301 
L 162.152619 471.598721 
L 163.849318 471.652955 
L 237.825397 471.629055 
L 238.504077 471.536677 
L 239.182756 471.194896 
L 239.522096 470.809129 
L 239.861436 470.172988 
L 240.200776 469.181326 
L 240.540116 467.722188 
L 241.218795 463.066662 
L 242.236815 452.434525 
L 242.915494 445.892351 
L 243.254834 443.934729 
L 243.594174 443.249671 
L 243.933514 443.934729 
L 244.272854 445.892351 
L 244.951533 452.434525 
L 245.969553 463.066662 
L 246.648232 467.722188 
L 247.326912 470.172988 
L 247.666252 470.809129 
L 248.344931 471.416301 
L 249.023611 471.598721 
L 250.72031 471.652955 
L 324.696389 471.629055 
L 325.375069 471.536677 
L 326.053748 471.194896 
L 326.393088 470.809129 
L 326.732428 470.172988 
L 327.071768 469.181326 
L 327.411108 467.722188 
L 328.089787 463.066662 
L 329.107807 452.434525 
L 329.786486 445.892351 
L 330.125826 443.934729 
L 330.465166 443.249671 
L 330.804506 443.934729 
L 331.143846 445.892351 
L 331.822525 452.434525 
L 332.840545 463.066662 
L 333.519224 467.722188 
L 334.197904 470.172988 
L 334.537244 470.809129 
L 335.215923 471.416301 
L 335.894603 471.598721 
L 337.591302 471.652955 
L 411.567381 471.629055 
L 412.246061 471.536677 
L 412.92474 471.194896 
L 413.26408 470.809129 
L 413.60342 470.172988 
L 413.94276 469.181326 
L 414.2821 467.722188 
L 414.960779 463.066662 
L 415.978799 452.434525 
L 416.657478 445.892351 
L 416.996818 443.934729 
L 417.336158 443.249671 
L 417.675498 443.934729 
L 418.014837 445.892351 
L 418.693517 452.434525 
L 419.711537 463.066662 
L 420.390216 467.722188 
L 421.068896 470.172988 
L 421.408236 470.809129 
L 422.086915 471.416301 
L 422.765595 471.598721 
L 424.462294 471.652955 
L 460.432314 471.653554 
L 460.432314 471.653554 
" style="fill:none;stroke:#73c476;stroke-linecap:square;"/>
   </g>
   <g id="line2d_28">
    <path clip-path="url(#pab744d478e)" d="M 113.287686 471.653554 
L 151.293745 471.550127 
L 151.972425 471.206041 
L 152.311764 470.788419 
L 152.651104 470.060772 
L 152.990444 468.860863 
L 153.329784 466.990359 
L 153.669124 464.238087 
L 154.347803 455.456684 
L 155.365823 435.402007 
L 156.044502 423.061948 
L 156.383842 419.369419 
L 156.723182 418.077241 
L 157.062522 419.369419 
L 157.401862 423.061948 
L 158.080541 435.402007 
L 159.098561 455.456684 
L 159.77724 464.238087 
L 160.45592 468.860863 
L 160.79526 470.060772 
L 161.1346 470.788419 
L 161.473939 471.206041 
L 162.152619 471.550127 
L 163.170638 471.645586 
L 171.314794 471.653554 
L 238.164737 471.550127 
L 238.843417 471.206041 
L 239.182756 470.788419 
L 239.522096 470.060772 
L 239.861436 468.860863 
L 240.200776 466.990359 
L 240.540116 464.238087 
L 241.218795 455.456684 
L 242.236815 435.402007 
L 242.915494 423.061948 
L 243.254834 419.369419 
L 243.594174 418.077241 
L 243.933514 419.369419 
L 244.272854 423.061948 
L 244.951533 435.402007 
L 245.969553 455.456684 
L 246.648232 464.238087 
L 247.326912 468.860863 
L 247.666252 470.060772 
L 248.005591 470.788419 
L 248.344931 471.206041 
L 249.023611 471.550127 
L 250.04163 471.645586 
L 258.185786 471.653554 
L 325.035729 471.550127 
L 325.714409 471.206041 
L 326.053748 470.788419 
L 326.393088 470.060772 
L 326.732428 468.860863 
L 327.071768 466.990359 
L 327.411108 464.238087 
L 328.089787 455.456684 
L 329.107807 435.402007 
L 329.786486 423.061948 
L 330.125826 419.369419 
L 330.465166 418.077241 
L 330.804506 419.369419 
L 331.143846 423.061948 
L 331.822525 435.402007 
L 332.840545 455.456684 
L 333.519224 464.238087 
L 334.197904 468.860863 
L 334.537244 470.060772 
L 334.876583 470.788419 
L 335.215923 471.206041 
L 335.894603 471.550127 
L 336.912622 471.645586 
L 345.056778 471.653554 
L 411.906721 471.550127 
L 412.5854 471.206041 
L 412.92474 470.788419 
L 413.26408 470.060772 
L 413.60342 468.860863 
L 413.94276 466.990359 
L 414.2821 464.238087 
L 414.960779 455.456684 
L 415.978799 435.402007 
L 416.657478 423.061948 
L 416.996818 419.369419 
L 417.336158 418.077241 
L 417.675498 419.369419 
L 418.014837 423.061948 
L 418.693517 435.402007 
L 419.711537 455.456684 
L 420.390216 464.238087 
L 421.068896 468.860863 
L 421.408236 470.060772 
L 421.747575 470.788419 
L 422.086915 471.206041 
L 422.765595 471.550127 
L 423.783614 471.645586 
L 431.92777 471.653554 
L 460.432314 471.653554 
L 460.432314 471.653554 
" style="fill:none;stroke:#4bb062;stroke-linecap:square;"/>
   </g>
   <g id="line2d_29">
    <path clip-path="url(#pab744d478e)" d="M 113.287686 471.653554 
L 153.669124 471.562742 
L 155.026483 471.297182 
L 156.383842 471.01327 
L 157.401862 471.05849 
L 160.79526 471.634048 
L 165.546017 471.653554 
L 240.540116 471.562742 
L 241.897475 471.297182 
L 243.254834 471.01327 
L 244.272854 471.05849 
L 247.666252 471.634048 
L 252.417009 471.653554 
L 327.411108 471.562742 
L 328.768467 471.297182 
L 330.125826 471.01327 
L 331.143846 471.05849 
L 334.537244 471.634048 
L 339.288001 471.653554 
L 414.2821 471.562742 
L 415.639459 471.297182 
L 416.996818 471.01327 
L 418.014837 471.05849 
L 421.408236 471.634048 
L 426.158993 471.653554 
L 460.432314 471.653554 
L 460.432314 471.653554 
" style="fill:none;stroke:#2f974e;stroke-linecap:square;"/>
   </g>
   <g id="line2d_30">
    <path clip-path="url(#pab744d478e)" d="M 113.287686 471.653554 
L 460.432314 471.653554 
L 460.432314 471.653554 
" style="fill:none;stroke:#157f3b;stroke-linecap:square;"/>
   </g>
   <g id="line2d_31">
    <path clip-path="url(#pab744d478e)" d="M 113.287686 471.653554 
L 460.432314 471.653554 
L 460.432314 471.653554 
" style="fill:none;stroke:#006428;stroke-linecap:square;"/>
   </g>
   <g id="line2d_32">
    <path clip-path="url(#pab744d478e)" d="M 113.287686 471.653554 
L 460.432314 471.653554 
L 460.432314 471.653554 
" style="fill:none;stroke:#00441b;stroke-linecap:square;"/>
   </g>
   <g id="line2d_33">
    <path clip-path="url(#pab744d478e)" d="M 113.287686 81.306446 
L 460.432314 81.306446 
L 460.432314 81.306446 
" style="fill:none;stroke:#e3eef9;stroke-linecap:square;"/>
   </g>
   <g id="line2d_34">
    <path clip-path="url(#pab744d478e)" d="M 113.287686 81.306446 
L 460.432314 81.306446 
L 460.432314 81.306446 
" style="fill:none;stroke:#d0e1f2;stroke-linecap:square;"/>
   </g>
   <g id="line2d_35">
    <path clip-path="url(#pab744d478e)" d="M 113.287686 81.306446 
L 460.432314 81.306446 
L 460.432314 81.306446 
" style="fill:none;stroke:#b7d4ea;stroke-linecap:square;"/>
   </g>
   <g id="line2d_36">
    <path clip-path="url(#pab744d478e)" d="M 113.287686 81.306446 
L 460.432314 81.306446 
L 460.432314 81.306446 
" style="fill:none;stroke:#94c4df;stroke-linecap:square;"/>
   </g>
   <g id="line2d_37">
    <path clip-path="url(#pab744d478e)" d="M 113.287686 81.306446 
L 154.687143 81.401095 
L 157.062522 81.829127 
L 159.77724 81.316963 
L 166.224697 81.306446 
L 241.558135 81.401095 
L 243.933514 81.829127 
L 246.648232 81.316963 
L 253.095689 81.306446 
L 328.429127 81.401095 
L 330.804506 81.829127 
L 333.519224 81.316963 
L 339.966681 81.306446 
L 415.300119 81.401095 
L 417.675498 81.829127 
L 420.390216 81.316963 
L 426.837673 81.306446 
L 460.432314 81.306446 
L 460.432314 81.306446 
" style="fill:none;stroke:#6aaed6;stroke-linecap:square;"/>
   </g>
   <g id="line2d_38">
    <path clip-path="url(#pab744d478e)" d="M 113.287686 81.306446 
L 154.008463 81.392257 
L 154.687143 81.643158 
L 155.365823 82.200309 
L 156.383842 83.165015 
L 156.723182 83.25794 
L 157.062522 83.165015 
L 157.741201 82.56434 
L 158.419881 81.88252 
L 159.098561 81.484936 
L 160.11658 81.321242 
L 164.527998 81.306446 
L 240.879455 81.392257 
L 241.558135 81.643158 
L 242.236815 82.200309 
L 243.254834 83.165015 
L 243.594174 83.25794 
L 243.933514 83.165015 
L 244.612193 82.56434 
L 245.290873 81.88252 
L 245.969553 81.484936 
L 246.987572 81.321242 
L 251.39899 81.306446 
L 327.750447 81.392257 
L 328.429127 81.643158 
L 329.107807 82.200309 
L 330.125826 83.165015 
L 330.465166 83.25794 
L 330.804506 83.165015 
L 331.483185 82.56434 
L 332.161865 81.88252 
L 332.840545 81.484936 
L 333.858564 81.321242 
L 338.269982 81.306446 
L 414.621439 81.392257 
L 415.300119 81.643158 
L 415.978799 82.200309 
L 416.996818 83.165015 
L 417.336158 83.25794 
L 417.675498 83.165015 
L 418.354177 82.56434 
L 419.032857 81.88252 
L 419.711537 81.484936 
L 420.729556 81.321242 
L 425.140974 81.306446 
L 460.432314 81.306446 
L 460.432314 81.306446 
" style="fill:none;stroke:#4a98c9;stroke-linecap:square;"/>
   </g>
   <g id="line2d_39">
    <path clip-path="url(#pab744d478e)" d="M 113.287686 81.306446 
L 460.432314 81.306446 
L 460.432314 81.306446 
" style="fill:none;stroke:#2e7ebc;stroke-linecap:square;"/>
   </g>
   <g id="line2d_40">
    <path clip-path="url(#pab744d478e)" d="M 113.287686 81.306446 
L 460.432314 81.306446 
L 460.432314 81.306446 
" style="fill:none;stroke:#1764ab;stroke-linecap:square;"/>
   </g>
   <g id="line2d_41">
    <path clip-path="url(#pab744d478e)" d="M 113.287686 81.306446 
L 460.432314 81.306446 
L 460.432314 81.306446 
" style="fill:none;stroke:#084a91;stroke-linecap:square;"/>
   </g>
   <g id="line2d_42">
    <path clip-path="url(#pab744d478e)" d="M 113.287686 81.306446 
L 460.432314 81.306446 
L 460.432314 81.306446 
" style="fill:none;stroke:#08306b;stroke-linecap:square;"/>
   </g>
   <g id="line2d_43">
    <path clip-path="url(#pab744d478e)" d="M 113.287686 471.653554 
L 460.432314 471.653554 
L 460.432314 471.653554 
" style="fill:none;stroke:#fee5d8;stroke-linecap:square;"/>
   </g>
   <g id="line2d_44">
    <path clip-path="url(#pab744d478e)" d="M 113.287686 471.653554 
L 460.432314 471.653554 
L 460.432314 471.653554 
" style="fill:none;stroke:#fdcab5;stroke-linecap:square;"/>
   </g>
   <g id="line2d_45">
    <path clip-path="url(#pab744d478e)" d="M 113.287686 471.653554 
L 460.432314 471.653554 
L 460.432314 471.653554 
" style="fill:none;stroke:#fcab8f;stroke-linecap:square;"/>
   </g>
   <g id="line2d_46">
    <path clip-path="url(#pab744d478e)" d="M 113.287686 471.653554 
L 460.432314 471.653554 
L 460.432314 471.653554 
" style="fill:none;stroke:#fc8a6a;stroke-linecap:square;"/>
   </g>
   <g id="line2d_47">
    <path clip-path="url(#pab744d478e)" d="M 113.287686 471.653554 
L 151.633085 471.568369 
L 152.311764 471.319265 
L 152.651104 471.038103 
L 152.990444 470.574459 
L 153.329784 469.851701 
L 153.669124 468.788243 
L 154.347803 465.395351 
L 155.365823 457.64896 
L 156.044502 452.884994 
L 156.383842 451.459979 
L 156.723182 450.961367 
L 157.062522 451.459979 
L 157.401862 452.884994 
L 158.080541 457.64896 
L 159.098561 465.395351 
L 159.77724 468.788243 
L 160.45592 470.574459 
L 161.1346 471.319265 
L 161.813279 471.568369 
L 163.170638 471.650475 
L 183.531027 471.653554 
L 238.504077 471.568369 
L 239.182756 471.319265 
L 239.522096 471.038103 
L 239.861436 470.574459 
L 240.200776 469.851701 
L 240.540116 468.788243 
L 241.218795 465.395351 
L 242.236815 457.64896 
L 242.915494 452.884994 
L 243.254834 451.459979 
L 243.594174 450.961367 
L 243.933514 451.459979 
L 244.272854 452.884994 
L 244.951533 457.64896 
L 245.969553 465.395351 
L 246.648232 468.788243 
L 247.326912 470.574459 
L 248.005591 471.319265 
L 248.684271 471.568369 
L 250.04163 471.650475 
L 270.402019 471.653554 
L 325.375069 471.568369 
L 326.053748 471.319265 
L 326.393088 471.038103 
L 326.732428 470.574459 
L 327.071768 469.851701 
L 327.411108 468.788243 
L 328.089787 465.395351 
L 329.107807 457.64896 
L 329.786486 452.884994 
L 330.125826 451.459979 
L 330.465166 450.961367 
L 330.804506 451.459979 
L 331.143846 452.884994 
L 331.822525 457.64896 
L 332.840545 465.395351 
L 333.519224 468.788243 
L 334.197904 470.574459 
L 334.876583 471.319265 
L 335.555263 471.568369 
L 336.912622 471.650475 
L 357.273011 471.653554 
L 412.246061 471.568369 
L 412.92474 471.319265 
L 413.26408 471.038103 
L 413.60342 470.574459 
L 413.94276 469.851701 
L 414.2821 468.788243 
L 414.960779 465.395351 
L 415.978799 457.64896 
L 416.657478 452.884994 
L 416.996818 451.459979 
L 417.336158 450.961367 
L 417.675498 451.459979 
L 418.014837 452.884994 
L 418.693517 457.64896 
L 419.711537 465.395351 
L 420.390216 468.788243 
L 421.068896 470.574459 
L 421.747575 471.319265 
L 422.426255 471.568369 
L 423.783614 471.650475 
L 444.144003 471.653554 
L 460.432314 471.653554 
L 460.432314 471.653554 
" style="fill:none;stroke:#fb694a;stroke-linecap:square;"/>
   </g>
   <g id="line2d_48">
    <path clip-path="url(#pab744d478e)" d="M 113.287686 471.653554 
L 151.293745 471.578172 
L 151.972425 471.327388 
L 152.311764 471.023009 
L 152.651104 470.492672 
L 152.990444 469.618138 
L 153.329784 468.254873 
L 153.669124 466.249036 
L 154.347803 459.850424 
L 155.365823 445.252142 
L 156.044502 436.286608 
L 156.383842 433.607275 
L 156.723182 432.67008 
L 157.062522 433.607275 
L 157.401862 436.286608 
L 158.080541 445.252142 
L 159.098561 459.850424 
L 159.77724 466.249036 
L 160.45592 469.618138 
L 160.79526 470.492672 
L 161.1346 471.023009 
L 161.813279 471.492877 
L 162.831299 471.639223 
L 167.582056 471.653554 
L 238.164737 471.578172 
L 238.843417 471.327388 
L 239.182756 471.023009 
L 239.522096 470.492672 
L 239.861436 469.618138 
L 240.200776 468.254873 
L 240.540116 466.249036 
L 241.218795 459.850424 
L 242.236815 445.252142 
L 242.915494 436.286608 
L 243.254834 433.607275 
L 243.594174 432.67008 
L 243.933514 433.607275 
L 244.272854 436.286608 
L 244.951533 445.252142 
L 245.969553 459.850424 
L 246.648232 466.249036 
L 247.326912 469.618138 
L 247.666252 470.492672 
L 248.005591 471.023009 
L 248.684271 471.492877 
L 249.702291 471.639223 
L 254.453048 471.653554 
L 325.035729 471.578172 
L 325.714409 471.327388 
L 326.053748 471.023009 
L 326.393088 470.492672 
L 326.732428 469.618138 
L 327.071768 468.254873 
L 327.411108 466.249036 
L 328.089787 459.850424 
L 329.107807 445.252142 
L 329.786486 436.286608 
L 330.125826 433.607275 
L 330.465166 432.67008 
L 330.804506 433.607275 
L 331.143846 436.286608 
L 331.822525 445.252142 
L 332.840545 459.850424 
L 333.519224 466.249036 
L 334.197904 469.618138 
L 334.537244 470.492672 
L 334.876583 471.023009 
L 335.555263 471.492877 
L 336.573283 471.639223 
L 341.32404 471.653554 
L 411.906721 471.578172 
L 412.5854 471.327388 
L 412.92474 471.023009 
L 413.26408 470.492672 
L 413.60342 469.618138 
L 413.94276 468.254873 
L 414.2821 466.249036 
L 414.960779 459.850424 
L 415.978799 445.252142 
L 416.657478 436.286608 
L 416.996818 433.607275 
L 417.336158 432.67008 
L 417.675498 433.607275 
L 418.014837 436.286608 
L 418.693517 445.252142 
L 419.711537 459.850424 
L 420.390216 466.249036 
L 421.068896 469.618138 
L 421.408236 470.492672 
L 421.747575 471.023009 
L 422.426255 471.492877 
L 423.444274 471.639223 
L 428.195032 471.653554 
L 460.432314 471.653554 
L 460.432314 471.653554 
" style="fill:none;stroke:#f14432;stroke-linecap:square;"/>
   </g>
   <g id="line2d_49">
    <path clip-path="url(#pab744d478e)" d="M 113.287686 471.653554 
L 154.008463 471.553318 
L 157.401862 471.219847 
L 160.79526 471.639337 
L 167.242716 471.653554 
L 240.879455 471.553318 
L 244.272854 471.219847 
L 247.666252 471.639337 
L 254.113708 471.653554 
L 327.750447 471.553318 
L 331.143846 471.219847 
L 334.537244 471.639337 
L 340.9847 471.653554 
L 414.621439 471.553318 
L 418.014837 471.219847 
L 421.408236 471.639337 
L 427.855692 471.653554 
L 460.432314 471.653554 
L 460.432314 471.653554 
" style="fill:none;stroke:#d92523;stroke-linecap:square;"/>
   </g>
   <g id="line2d_50">
    <path clip-path="url(#pab744d478e)" d="M 113.287686 471.653554 
L 460.432314 471.653554 
L 460.432314 471.653554 
" style="fill:none;stroke:#bc141a;stroke-linecap:square;"/>
   </g>
   <g id="line2d_51">
    <path clip-path="url(#pab744d478e)" d="M 113.287686 471.653554 
L 460.432314 471.653554 
L 460.432314 471.653554 
" style="fill:none;stroke:#980c13;stroke-linecap:square;"/>
   </g>
   <g id="line2d_52">
    <path clip-path="url(#pab744d478e)" d="M 113.287686 471.653554 
L 460.432314 471.653554 
L 460.432314 471.653554 
" style="fill:none;stroke:#67000d;stroke-linecap:square;"/>
   </g>
   <g id="patch_3">
    <path d="M 76.8375 512.64 
L 76.8375 40.32 
" style="fill:none;stroke:#000000;stroke-linecap:square;stroke-linejoin:miter;stroke-width:0.8;"/>
   </g>
   <g id="patch_4">
    <path d="M 496.8825 512.64 
L 496.8825 40.32 
" style="fill:none;stroke:#000000;stroke-linecap:square;stroke-linejoin:miter;stroke-width:0.8;"/>
   </g>
   <g id="patch_5">
    <path d="M 76.8375 512.64 
L 496.8825 512.64 
" style="fill:none;stroke:#000000;stroke-linecap:square;stroke-linejoin:miter;stroke-width:0.8;"/>
   </g>
   <g id="patch_6">
    <path d="M 76.8375 40.32 
L 496.8825 40.32 
" style="fill:none;stroke:#000000;stroke-linecap:square;stroke-linejoin:miter;stroke-width:0.8;"/>
   </g>
   <g id="legend_1">
    <g id="patch_7">
     <path d="M 342.6825 324.83625 
L 482.8825 324.83625 
Q 486.8825 324.83625 486.8825 320.83625 
L 486.8825 232.12375 
Q 486.8825 228.12375 482.8825 228.12375 
L 342.6825 228.12375 
Q 338.6825 228.12375 338.6825 232.12375 
L 338.6825 320.83625 
Q 338.6825 324.83625 342.6825 324.83625 
z
" style="fill:#ffffff;opacity:0.8;stroke:#cccccc;stroke-linejoin:miter;"/>
    </g>
    <g id="line2d_53">
     <path d="M 346.6825 246.964375 
L 386.6825 246.964375 
" style="fill:none;stroke:#008000;stroke-linecap:square;stroke-width:2;"/>
    </g>
    <g id="line2d_54"/>
    <g id="text_13">
     <!-- $V_z(kV\AA)$ -->
     <defs>
      <path d="M 20.609375 0 
L 7.8125 72.90625 
L 17.484375 72.90625 
L 28.078125 10.203125 
L 63.484375 72.90625 
L 74.21875 72.90625 
L 32.078125 0 
z
" id="DejaVuSans-Oblique-86"/>
      <path d="M 11.625 54.6875 
L 54.296875 54.6875 
L 52.6875 46.484375 
L 11.53125 7.171875 
L 45.515625 7.171875 
L 44.09375 0 
L -0.296875 0 
L 1.3125 8.203125 
L 42.484375 47.515625 
L 10.203125 47.515625 
z
" id="DejaVuSans-Oblique-122"/>
      <path d="M 18.3125 75.984375 
L 27.296875 75.984375 
L 18.703125 31.6875 
L 49.515625 54.6875 
L 61.1875 54.6875 
L 26.8125 28.515625 
L 51.90625 0 
L 41.015625 0 
L 17.671875 26.703125 
L 12.5 0 
L 3.515625 0 
z
" id="DejaVuSans-Oblique-107"/>
     </defs>
     <g transform="translate(402.6825 253.964375)scale(0.2 -0.2)">
      <use transform="translate(0 0.171875)" xlink:href="#DejaVuSans-Oblique-86"/>
      <use transform="translate(68.408203 -16.234375)scale(0.7)" xlink:href="#DejaVuSans-Oblique-122"/>
      <use transform="translate(107.885742 0.171875)" xlink:href="#DejaVuSans-40"/>
      <use transform="translate(146.899414 0.171875)" xlink:href="#DejaVuSans-Oblique-107"/>
      <use transform="translate(204.80957 0.171875)" xlink:href="#DejaVuSans-Oblique-86"/>
      <use transform="translate(273.217773 0.171875)" xlink:href="#DejaVuSans-Oblique-197"/>
      <use transform="translate(341.625977 0.171875)" xlink:href="#DejaVuSans-41"/>
     </g>
    </g>
    <g id="line2d_55">
     <path d="M 346.6825 276.320625 
L 386.6825 276.320625 
" style="fill:none;stroke:#0000ff;stroke-linecap:square;stroke-width:2;"/>
    </g>
    <g id="line2d_56"/>
    <g id="text_14">
     <!-- $re(T)$ -->
     <defs>
      <path d="M 44.578125 46.390625 
Q 43.21875 47.125 41.453125 47.515625 
Q 39.703125 47.90625 37.703125 47.90625 
Q 30.515625 47.90625 25.140625 42.453125 
Q 19.78125 37.015625 18.015625 27.875 
L 12.5 0 
L 3.515625 0 
L 14.203125 54.6875 
L 23.1875 54.6875 
L 21.484375 46.1875 
Q 25.046875 50.921875 30 53.453125 
Q 34.96875 56 40.578125 56 
Q 42.046875 56 43.453125 55.828125 
Q 44.875 55.671875 46.296875 55.28125 
z
" id="DejaVuSans-Oblique-114"/>
      <path d="M 48.09375 32.234375 
Q 48.25 33.015625 48.3125 33.84375 
Q 48.390625 34.671875 48.390625 35.5 
Q 48.390625 41.453125 44.890625 44.921875 
Q 41.40625 48.390625 35.40625 48.390625 
Q 28.71875 48.390625 23.578125 44.15625 
Q 18.453125 39.9375 15.828125 32.171875 
z
M 55.90625 25.203125 
L 14.109375 25.203125 
Q 13.8125 23.34375 13.71875 22.265625 
Q 13.625 21.1875 13.625 20.40625 
Q 13.625 13.625 17.796875 9.90625 
Q 21.96875 6.203125 29.59375 6.203125 
Q 35.453125 6.203125 40.671875 7.515625 
Q 45.90625 8.84375 50.390625 11.375 
L 48.6875 2.484375 
Q 43.84375 0.53125 38.6875 -0.4375 
Q 33.546875 -1.421875 28.21875 -1.421875 
Q 16.84375 -1.421875 10.71875 4.015625 
Q 4.59375 9.46875 4.59375 19.484375 
Q 4.59375 28.03125 7.640625 35.375 
Q 10.6875 42.71875 16.609375 48.484375 
Q 20.40625 52.09375 25.65625 54.046875 
Q 30.90625 56 36.8125 56 
Q 46.09375 56 51.578125 50.4375 
Q 57.078125 44.875 57.078125 35.5 
Q 57.078125 33.25 56.78125 30.6875 
Q 56.5 28.125 55.90625 25.203125 
z
" id="DejaVuSans-Oblique-101"/>
      <path d="M 5.90625 72.90625 
L 67.578125 72.90625 
L 66.015625 64.59375 
L 39.984375 64.59375 
L 27.484375 0 
L 17.578125 0 
L 30.078125 64.59375 
L 4.296875 64.59375 
z
" id="DejaVuSans-Oblique-84"/>
     </defs>
     <g transform="translate(402.6825 283.320625)scale(0.2 -0.2)">
      <use transform="translate(0 0.125)" xlink:href="#DejaVuSans-Oblique-114"/>
      <use transform="translate(41.113281 0.125)" xlink:href="#DejaVuSans-Oblique-101"/>
      <use transform="translate(102.636719 0.125)" xlink:href="#DejaVuSans-40"/>
      <use transform="translate(141.650391 0.125)" xlink:href="#DejaVuSans-Oblique-84"/>
      <use transform="translate(202.734375 0.125)" xlink:href="#DejaVuSans-41"/>
     </g>
    </g>
    <g id="line2d_57">
     <path d="M 346.6825 305.676875 
L 386.6825 305.676875 
" style="fill:none;stroke:#ff0000;stroke-linecap:square;stroke-width:2;"/>
    </g>
    <g id="line2d_58"/>
    <g id="text_15">
     <!-- $im(T)$ -->
     <defs>
      <path d="M 18.3125 75.984375 
L 27.296875 75.984375 
L 25.09375 64.59375 
L 16.109375 64.59375 
z
M 14.203125 54.6875 
L 23.1875 54.6875 
L 12.5 0 
L 3.515625 0 
z
" id="DejaVuSans-Oblique-105"/>
      <path d="M 89.796875 33.015625 
L 83.40625 0 
L 74.421875 0 
L 80.71875 32.71875 
Q 81.109375 34.8125 81.296875 36.328125 
Q 81.5 37.84375 81.5 38.921875 
Q 81.5 43.3125 79.046875 45.75 
Q 76.609375 48.1875 72.21875 48.1875 
Q 65.671875 48.1875 60.546875 43.28125 
Q 55.421875 38.375 53.90625 30.515625 
L 47.90625 0 
L 38.921875 0 
L 45.3125 32.71875 
Q 45.703125 34.515625 45.890625 36.046875 
Q 46.09375 37.59375 46.09375 38.8125 
Q 46.09375 43.265625 43.65625 45.71875 
Q 41.21875 48.1875 36.921875 48.1875 
Q 30.28125 48.1875 25.140625 43.28125 
Q 20.015625 38.375 18.5 30.515625 
L 12.5 0 
L 3.515625 0 
L 14.203125 54.6875 
L 23.1875 54.6875 
L 21.484375 46.1875 
Q 25.140625 50.984375 30.046875 53.484375 
Q 34.96875 56 40.578125 56 
Q 46.53125 56 50.359375 52.875 
Q 54.203125 49.75 54.984375 44.1875 
Q 59.078125 49.953125 64.46875 52.96875 
Q 69.875 56 75.875 56 
Q 82.90625 56 86.734375 51.953125 
Q 90.578125 47.90625 90.578125 40.484375 
Q 90.578125 38.875 90.375 36.9375 
Q 90.1875 35.015625 89.796875 33.015625 
z
" id="DejaVuSans-Oblique-109"/>
     </defs>
     <g transform="translate(402.6825 312.676875)scale(0.2 -0.2)">
      <use transform="translate(0 0.015625)" xlink:href="#DejaVuSans-Oblique-105"/>
      <use transform="translate(27.783203 0.015625)" xlink:href="#DejaVuSans-Oblique-109"/>
      <use transform="translate(125.195312 0.015625)" xlink:href="#DejaVuSans-40"/>
      <use transform="translate(164.208984 0.015625)" xlink:href="#DejaVuSans-Oblique-84"/>
      <use transform="translate(225.292969 0.015625)" xlink:href="#DejaVuSans-41"/>
     </g>
    </g>
   </g>
  </g>
 </g>
 <defs>
  <clipPath id="pab744d478e">
   <rect height="472.32" width="420.045" x="76.8375" y="40.32"/>
  </clipPath>
 </defs>
</svg>
