<?xml version="1.0" encoding="utf-8" standalone="no"?>
<!DOCTYPE svg PUBLIC "-//W3C//DTD SVG 1.1//EN"
  "http://www.w3.org/Graphics/SVG/1.1/DTD/svg11.dtd">
<!-- Created with matplotlib (https://matplotlib.org/) -->
<svg height="576pt" version="1.1" viewBox="0 0 512.25 576" width="512.25pt" xmlns="http://www.w3.org/2000/svg" xmlns:xlink="http://www.w3.org/1999/xlink">
 <defs>
  <style type="text/css">
*{stroke-linecap:butt;stroke-linejoin:round;}
  </style>
 </defs>
 <g id="figure_1">
  <g id="patch_1">
   <path d="M 0 576 
L 512.25 576 
L 512.25 0 
L 0 0 
z
" style="fill:#ffffff;"/>
  </g>
  <g id="axes_1">
   <g id="patch_2">
    <path d="M 76.8375 512.64 
L 496.8825 512.64 
L 496.8825 40.32 
L 76.8375 40.32 
z
" style="fill:#ffffff;"/>
   </g>
   <g id="matplotlib.axis_1">
    <g id="xtick_1">
     <g id="line2d_1">
      <path clip-path="url(#p36676b1b21)" d="M 113.287686 512.64 
L 113.287686 40.32 
" style="fill:none;stroke:#e6e6e6;stroke-linecap:square;stroke-width:0.8;"/>
     </g>
     <g id="line2d_2">
      <defs>
       <path d="M 0 0 
L 0 -3.5 
" id="m0630006643" style="stroke:#000000;stroke-width:0.8;"/>
      </defs>
      <g>
       <use style="stroke:#000000;stroke-width:0.8;" x="113.287686" xlink:href="#m0630006643" y="512.64"/>
      </g>
     </g>
     <g id="text_1">
      <!-- 0 -->
      <defs>
       <path d="M 31.78125 66.40625 
Q 24.171875 66.40625 20.328125 58.90625 
Q 16.5 51.421875 16.5 36.375 
Q 16.5 21.390625 20.328125 13.890625 
Q 24.171875 6.390625 31.78125 6.390625 
Q 39.453125 6.390625 43.28125 13.890625 
Q 47.125 21.390625 47.125 36.375 
Q 47.125 51.421875 43.28125 58.90625 
Q 39.453125 66.40625 31.78125 66.40625 
z
M 31.78125 74.21875 
Q 44.046875 74.21875 50.515625 64.515625 
Q 56.984375 54.828125 56.984375 36.375 
Q 56.984375 17.96875 50.515625 8.265625 
Q 44.046875 -1.421875 31.78125 -1.421875 
Q 19.53125 -1.421875 13.0625 8.265625 
Q 6.59375 17.96875 6.59375 36.375 
Q 6.59375 54.828125 13.0625 64.515625 
Q 19.53125 74.21875 31.78125 74.21875 
z
" id="DejaVuSans-48"/>
      </defs>
      <g transform="translate(108.515811 527.537656)scale(0.15 -0.15)">
       <use xlink:href="#DejaVuSans-48"/>
      </g>
     </g>
    </g>
    <g id="xtick_2">
     <g id="line2d_3">
      <path clip-path="url(#p36676b1b21)" d="M 200.158678 512.64 
L 200.158678 40.32 
" style="fill:none;stroke:#e6e6e6;stroke-linecap:square;stroke-width:0.8;"/>
     </g>
     <g id="line2d_4">
      <g>
       <use style="stroke:#000000;stroke-width:0.8;" x="200.158678" xlink:href="#m0630006643" y="512.64"/>
      </g>
     </g>
     <g id="text_2">
      <!-- 10 -->
      <defs>
       <path d="M 12.40625 8.296875 
L 28.515625 8.296875 
L 28.515625 63.921875 
L 10.984375 60.40625 
L 10.984375 69.390625 
L 28.421875 72.90625 
L 38.28125 72.90625 
L 38.28125 8.296875 
L 54.390625 8.296875 
L 54.390625 0 
L 12.40625 0 
z
" id="DejaVuSans-49"/>
      </defs>
      <g transform="translate(190.614928 527.537656)scale(0.15 -0.15)">
       <use xlink:href="#DejaVuSans-49"/>
       <use x="63.623047" xlink:href="#DejaVuSans-48"/>
      </g>
     </g>
    </g>
    <g id="xtick_3">
     <g id="line2d_5">
      <path clip-path="url(#p36676b1b21)" d="M 287.02967 512.64 
L 287.02967 40.32 
" style="fill:none;stroke:#e6e6e6;stroke-linecap:square;stroke-width:0.8;"/>
     </g>
     <g id="line2d_6">
      <g>
       <use style="stroke:#000000;stroke-width:0.8;" x="287.02967" xlink:href="#m0630006643" y="512.64"/>
      </g>
     </g>
     <g id="text_3">
      <!-- 20 -->
      <defs>
       <path d="M 19.1875 8.296875 
L 53.609375 8.296875 
L 53.609375 0 
L 7.328125 0 
L 7.328125 8.296875 
Q 12.9375 14.109375 22.625 23.890625 
Q 32.328125 33.6875 34.8125 36.53125 
Q 39.546875 41.84375 41.421875 45.53125 
Q 43.3125 49.21875 43.3125 52.78125 
Q 43.3125 58.59375 39.234375 62.25 
Q 35.15625 65.921875 28.609375 65.921875 
Q 23.96875 65.921875 18.8125 64.3125 
Q 13.671875 62.703125 7.8125 59.421875 
L 7.8125 69.390625 
Q 13.765625 71.78125 18.9375 73 
Q 24.125 74.21875 28.421875 74.21875 
Q 39.75 74.21875 46.484375 68.546875 
Q 53.21875 62.890625 53.21875 53.421875 
Q 53.21875 48.921875 51.53125 44.890625 
Q 49.859375 40.875 45.40625 35.40625 
Q 44.1875 33.984375 37.640625 27.21875 
Q 31.109375 20.453125 19.1875 8.296875 
z
" id="DejaVuSans-50"/>
      </defs>
      <g transform="translate(277.48592 527.537656)scale(0.15 -0.15)">
       <use xlink:href="#DejaVuSans-50"/>
       <use x="63.623047" xlink:href="#DejaVuSans-48"/>
      </g>
     </g>
    </g>
    <g id="xtick_4">
     <g id="line2d_7">
      <path clip-path="url(#p36676b1b21)" d="M 373.900662 512.64 
L 373.900662 40.32 
" style="fill:none;stroke:#e6e6e6;stroke-linecap:square;stroke-width:0.8;"/>
     </g>
     <g id="line2d_8">
      <g>
       <use style="stroke:#000000;stroke-width:0.8;" x="373.900662" xlink:href="#m0630006643" y="512.64"/>
      </g>
     </g>
     <g id="text_4">
      <!-- 30 -->
      <defs>
       <path d="M 40.578125 39.3125 
Q 47.65625 37.796875 51.625 33 
Q 55.609375 28.21875 55.609375 21.1875 
Q 55.609375 10.40625 48.1875 4.484375 
Q 40.765625 -1.421875 27.09375 -1.421875 
Q 22.515625 -1.421875 17.65625 -0.515625 
Q 12.796875 0.390625 7.625 2.203125 
L 7.625 11.71875 
Q 11.71875 9.328125 16.59375 8.109375 
Q 21.484375 6.890625 26.8125 6.890625 
Q 36.078125 6.890625 40.9375 10.546875 
Q 45.796875 14.203125 45.796875 21.1875 
Q 45.796875 27.640625 41.28125 31.265625 
Q 36.765625 34.90625 28.71875 34.90625 
L 20.21875 34.90625 
L 20.21875 43.015625 
L 29.109375 43.015625 
Q 36.375 43.015625 40.234375 45.921875 
Q 44.09375 48.828125 44.09375 54.296875 
Q 44.09375 59.90625 40.109375 62.90625 
Q 36.140625 65.921875 28.71875 65.921875 
Q 24.65625 65.921875 20.015625 65.03125 
Q 15.375 64.15625 9.8125 62.3125 
L 9.8125 71.09375 
Q 15.4375 72.65625 20.34375 73.4375 
Q 25.25 74.21875 29.59375 74.21875 
Q 40.828125 74.21875 47.359375 69.109375 
Q 53.90625 64.015625 53.90625 55.328125 
Q 53.90625 49.265625 50.4375 45.09375 
Q 46.96875 40.921875 40.578125 39.3125 
z
" id="DejaVuSans-51"/>
      </defs>
      <g transform="translate(364.356912 527.537656)scale(0.15 -0.15)">
       <use xlink:href="#DejaVuSans-51"/>
       <use x="63.623047" xlink:href="#DejaVuSans-48"/>
      </g>
     </g>
    </g>
    <g id="xtick_5">
     <g id="line2d_9">
      <path clip-path="url(#p36676b1b21)" d="M 460.771654 512.64 
L 460.771654 40.32 
" style="fill:none;stroke:#e6e6e6;stroke-linecap:square;stroke-width:0.8;"/>
     </g>
     <g id="line2d_10">
      <g>
       <use style="stroke:#000000;stroke-width:0.8;" x="460.771654" xlink:href="#m0630006643" y="512.64"/>
      </g>
     </g>
     <g id="text_5">
      <!-- 40 -->
      <defs>
       <path d="M 37.796875 64.3125 
L 12.890625 25.390625 
L 37.796875 25.390625 
z
M 35.203125 72.90625 
L 47.609375 72.90625 
L 47.609375 25.390625 
L 58.015625 25.390625 
L 58.015625 17.1875 
L 47.609375 17.1875 
L 47.609375 0 
L 37.796875 0 
L 37.796875 17.1875 
L 4.890625 17.1875 
L 4.890625 26.703125 
z
" id="DejaVuSans-52"/>
      </defs>
      <g transform="translate(451.227904 527.537656)scale(0.15 -0.15)">
       <use xlink:href="#DejaVuSans-52"/>
       <use x="63.623047" xlink:href="#DejaVuSans-48"/>
      </g>
     </g>
    </g>
    <g id="text_6">
     <!-- $x(\AA)$ -->
     <defs>
      <path d="M 60.015625 54.6875 
L 34.90625 27.875 
L 50.296875 0 
L 39.984375 0 
L 28.421875 21.6875 
L 8.296875 0 
L -2.59375 0 
L 24.3125 28.8125 
L 10.015625 54.6875 
L 20.3125 54.6875 
L 30.8125 34.90625 
L 49.125 54.6875 
z
" id="DejaVuSans-Oblique-120"/>
      <path d="M 31 75.875 
Q 24.46875 64.65625 21.28125 53.65625 
Q 18.109375 42.671875 18.109375 31.390625 
Q 18.109375 20.125 21.3125 9.0625 
Q 24.515625 -2 31 -13.1875 
L 23.1875 -13.1875 
Q 15.875 -1.703125 12.234375 9.375 
Q 8.59375 20.453125 8.59375 31.390625 
Q 8.59375 42.28125 12.203125 53.3125 
Q 15.828125 64.359375 23.1875 75.875 
z
" id="DejaVuSans-40"/>
      <path d="M 49.8125 79.390625 
Q 49.8125 82.46875 47.625 84.640625 
Q 45.453125 86.8125 42.390625 86.8125 
Q 39.265625 86.8125 37.140625 84.6875 
Q 35.015625 82.5625 35.015625 79.390625 
Q 35.015625 76.3125 37.140625 74.15625 
Q 39.265625 72.015625 42.390625 72.015625 
Q 45.453125 72.015625 47.625 74.15625 
Q 49.8125 76.3125 49.8125 79.390625 
z
M 34.421875 68.703125 
Q 31.78125 70.515625 30.390625 73.265625 
Q 29 76.03125 29 79.390625 
Q 29 84.96875 32.90625 88.890625 
Q 36.8125 92.828125 42.390625 92.828125 
Q 47.953125 92.828125 51.875 88.890625 
Q 55.8125 84.96875 55.8125 79.390625 
Q 55.8125 75.53125 54.03125 72.546875 
Q 52.25 69.578125 48.875 67.828125 
L 61.53125 0 
L 51.21875 0 
L 48.1875 18.703125 
L 15.375 18.703125 
L 5.078125 0 
L -5.328125 0 
z
M 40.375 63.1875 
L 19.921875 26.90625 
L 46.6875 26.90625 
z
" id="DejaVuSans-Oblique-197"/>
      <path d="M 8.015625 75.875 
L 15.828125 75.875 
Q 23.140625 64.359375 26.78125 53.3125 
Q 30.421875 42.28125 30.421875 31.390625 
Q 30.421875 20.453125 26.78125 9.375 
Q 23.140625 -1.703125 15.828125 -13.1875 
L 8.015625 -13.1875 
Q 14.5 -2 17.703125 9.0625 
Q 20.90625 20.125 20.90625 31.390625 
Q 20.90625 42.671875 17.703125 53.65625 
Q 14.5 64.65625 8.015625 75.875 
z
" id="DejaVuSans-41"/>
     </defs>
     <g transform="translate(261.11 556.207969)scale(0.25 -0.25)">
      <use transform="translate(0 0.171875)" xlink:href="#DejaVuSans-Oblique-120"/>
      <use transform="translate(59.179688 0.171875)" xlink:href="#DejaVuSans-40"/>
      <use transform="translate(98.193359 0.171875)" xlink:href="#DejaVuSans-Oblique-197"/>
      <use transform="translate(166.601562 0.171875)" xlink:href="#DejaVuSans-41"/>
     </g>
    </g>
   </g>
   <g id="matplotlib.axis_2">
    <g id="ytick_1">
     <g id="line2d_11">
      <path clip-path="url(#p36676b1b21)" d="M 76.8375 471.653554 
L 496.8825 471.653554 
" style="fill:none;stroke:#e6e6e6;stroke-linecap:square;stroke-width:0.8;"/>
     </g>
     <g id="line2d_12">
      <defs>
       <path d="M 0 0 
L 3.5 0 
" id="mcd1494692e" style="stroke:#000000;stroke-width:0.8;"/>
      </defs>
      <g>
       <use style="stroke:#000000;stroke-width:0.8;" x="76.8375" xlink:href="#mcd1494692e" y="471.653554"/>
      </g>
     </g>
     <g id="text_7">
      <!-- 0.0 -->
      <defs>
       <path d="M 10.6875 12.40625 
L 21 12.40625 
L 21 0 
L 10.6875 0 
z
" id="DejaVuSans-46"/>
      </defs>
      <g transform="translate(49.482812 477.352382)scale(0.15 -0.15)">
       <use xlink:href="#DejaVuSans-48"/>
       <use x="63.623047" xlink:href="#DejaVuSans-46"/>
       <use x="95.410156" xlink:href="#DejaVuSans-48"/>
      </g>
     </g>
    </g>
    <g id="ytick_2">
     <g id="line2d_13">
      <path clip-path="url(#p36676b1b21)" d="M 76.8375 393.584132 
L 496.8825 393.584132 
" style="fill:none;stroke:#e6e6e6;stroke-linecap:square;stroke-width:0.8;"/>
     </g>
     <g id="line2d_14">
      <g>
       <use style="stroke:#000000;stroke-width:0.8;" x="76.8375" xlink:href="#mcd1494692e" y="393.584132"/>
      </g>
     </g>
     <g id="text_8">
      <!-- 0.2 -->
      <g transform="translate(49.482812 399.28296)scale(0.15 -0.15)">
       <use xlink:href="#DejaVuSans-48"/>
       <use x="63.623047" xlink:href="#DejaVuSans-46"/>
       <use x="95.410156" xlink:href="#DejaVuSans-50"/>
      </g>
     </g>
    </g>
    <g id="ytick_3">
     <g id="line2d_15">
      <path clip-path="url(#p36676b1b21)" d="M 76.8375 315.514711 
L 496.8825 315.514711 
" style="fill:none;stroke:#e6e6e6;stroke-linecap:square;stroke-width:0.8;"/>
     </g>
     <g id="line2d_16">
      <g>
       <use style="stroke:#000000;stroke-width:0.8;" x="76.8375" xlink:href="#mcd1494692e" y="315.514711"/>
      </g>
     </g>
     <g id="text_9">
      <!-- 0.4 -->
      <g transform="translate(49.482812 321.213539)scale(0.15 -0.15)">
       <use xlink:href="#DejaVuSans-48"/>
       <use x="63.623047" xlink:href="#DejaVuSans-46"/>
       <use x="95.410156" xlink:href="#DejaVuSans-52"/>
      </g>
     </g>
    </g>
    <g id="ytick_4">
     <g id="line2d_17">
      <path clip-path="url(#p36676b1b21)" d="M 76.8375 237.445289 
L 496.8825 237.445289 
" style="fill:none;stroke:#e6e6e6;stroke-linecap:square;stroke-width:0.8;"/>
     </g>
     <g id="line2d_18">
      <g>
       <use style="stroke:#000000;stroke-width:0.8;" x="76.8375" xlink:href="#mcd1494692e" y="237.445289"/>
      </g>
     </g>
     <g id="text_10">
      <!-- 0.6 -->
      <defs>
       <path d="M 33.015625 40.375 
Q 26.375 40.375 22.484375 35.828125 
Q 18.609375 31.296875 18.609375 23.390625 
Q 18.609375 15.53125 22.484375 10.953125 
Q 26.375 6.390625 33.015625 6.390625 
Q 39.65625 6.390625 43.53125 10.953125 
Q 47.40625 15.53125 47.40625 23.390625 
Q 47.40625 31.296875 43.53125 35.828125 
Q 39.65625 40.375 33.015625 40.375 
z
M 52.59375 71.296875 
L 52.59375 62.3125 
Q 48.875 64.0625 45.09375 64.984375 
Q 41.3125 65.921875 37.59375 65.921875 
Q 27.828125 65.921875 22.671875 59.328125 
Q 17.53125 52.734375 16.796875 39.40625 
Q 19.671875 43.65625 24.015625 45.921875 
Q 28.375 48.1875 33.59375 48.1875 
Q 44.578125 48.1875 50.953125 41.515625 
Q 57.328125 34.859375 57.328125 23.390625 
Q 57.328125 12.15625 50.6875 5.359375 
Q 44.046875 -1.421875 33.015625 -1.421875 
Q 20.359375 -1.421875 13.671875 8.265625 
Q 6.984375 17.96875 6.984375 36.375 
Q 6.984375 53.65625 15.1875 63.9375 
Q 23.390625 74.21875 37.203125 74.21875 
Q 40.921875 74.21875 44.703125 73.484375 
Q 48.484375 72.75 52.59375 71.296875 
z
" id="DejaVuSans-54"/>
      </defs>
      <g transform="translate(49.482812 243.144117)scale(0.15 -0.15)">
       <use xlink:href="#DejaVuSans-48"/>
       <use x="63.623047" xlink:href="#DejaVuSans-46"/>
       <use x="95.410156" xlink:href="#DejaVuSans-54"/>
      </g>
     </g>
    </g>
    <g id="ytick_5">
     <g id="line2d_19">
      <path clip-path="url(#p36676b1b21)" d="M 76.8375 159.375868 
L 496.8825 159.375868 
" style="fill:none;stroke:#e6e6e6;stroke-linecap:square;stroke-width:0.8;"/>
     </g>
     <g id="line2d_20">
      <g>
       <use style="stroke:#000000;stroke-width:0.8;" x="76.8375" xlink:href="#mcd1494692e" y="159.375868"/>
      </g>
     </g>
     <g id="text_11">
      <!-- 0.8 -->
      <defs>
       <path d="M 31.78125 34.625 
Q 24.75 34.625 20.71875 30.859375 
Q 16.703125 27.09375 16.703125 20.515625 
Q 16.703125 13.921875 20.71875 10.15625 
Q 24.75 6.390625 31.78125 6.390625 
Q 38.8125 6.390625 42.859375 10.171875 
Q 46.921875 13.96875 46.921875 20.515625 
Q 46.921875 27.09375 42.890625 30.859375 
Q 38.875 34.625 31.78125 34.625 
z
M 21.921875 38.8125 
Q 15.578125 40.375 12.03125 44.71875 
Q 8.5 49.078125 8.5 55.328125 
Q 8.5 64.0625 14.71875 69.140625 
Q 20.953125 74.21875 31.78125 74.21875 
Q 42.671875 74.21875 48.875 69.140625 
Q 55.078125 64.0625 55.078125 55.328125 
Q 55.078125 49.078125 51.53125 44.71875 
Q 48 40.375 41.703125 38.8125 
Q 48.828125 37.15625 52.796875 32.3125 
Q 56.78125 27.484375 56.78125 20.515625 
Q 56.78125 9.90625 50.3125 4.234375 
Q 43.84375 -1.421875 31.78125 -1.421875 
Q 19.734375 -1.421875 13.25 4.234375 
Q 6.78125 9.90625 6.78125 20.515625 
Q 6.78125 27.484375 10.78125 32.3125 
Q 14.796875 37.15625 21.921875 38.8125 
z
M 18.3125 54.390625 
Q 18.3125 48.734375 21.84375 45.5625 
Q 25.390625 42.390625 31.78125 42.390625 
Q 38.140625 42.390625 41.71875 45.5625 
Q 45.3125 48.734375 45.3125 54.390625 
Q 45.3125 60.0625 41.71875 63.234375 
Q 38.140625 66.40625 31.78125 66.40625 
Q 25.390625 66.40625 21.84375 63.234375 
Q 18.3125 60.0625 18.3125 54.390625 
z
" id="DejaVuSans-56"/>
      </defs>
      <g transform="translate(49.482812 165.074696)scale(0.15 -0.15)">
       <use xlink:href="#DejaVuSans-48"/>
       <use x="63.623047" xlink:href="#DejaVuSans-46"/>
       <use x="95.410156" xlink:href="#DejaVuSans-56"/>
      </g>
     </g>
    </g>
    <g id="ytick_6">
     <g id="line2d_21">
      <path clip-path="url(#p36676b1b21)" d="M 76.8375 81.306446 
L 496.8825 81.306446 
" style="fill:none;stroke:#e6e6e6;stroke-linecap:square;stroke-width:0.8;"/>
     </g>
     <g id="line2d_22">
      <g>
       <use style="stroke:#000000;stroke-width:0.8;" x="76.8375" xlink:href="#mcd1494692e" y="81.306446"/>
      </g>
     </g>
     <g id="text_12">
      <!-- 1.0 -->
      <g transform="translate(49.482812 87.005274)scale(0.15 -0.15)">
       <use xlink:href="#DejaVuSans-49"/>
       <use x="63.623047" xlink:href="#DejaVuSans-46"/>
       <use x="95.410156" xlink:href="#DejaVuSans-48"/>
      </g>
     </g>
    </g>
   </g>
   <g id="line2d_23">
    <path clip-path="url(#p36676b1b21)" d="M 113.287686 471.653554 
L 460.432314 471.653554 
L 460.432314 471.653554 
" style="fill:none;stroke:#e9f7e5;stroke-linecap:square;"/>
   </g>
   <g id="line2d_24">
    <path clip-path="url(#p36676b1b21)" d="M 113.287686 471.653554 
L 460.432314 471.653554 
L 460.432314 471.653554 
" style="fill:none;stroke:#d3eecd;stroke-linecap:square;"/>
   </g>
   <g id="line2d_25">
    <path clip-path="url(#p36676b1b21)" d="M 113.287686 471.653554 
L 460.432314 471.653554 
L 460.432314 471.653554 
" style="fill:none;stroke:#b8e3b2;stroke-linecap:square;"/>
   </g>
   <g id="line2d_26">
    <path clip-path="url(#p36676b1b21)" d="M 113.287686 471.653554 
L 154.008463 471.565134 
L 157.401862 471.311003 
L 161.473939 471.649061 
L 179.458949 471.653554 
L 240.879455 471.565134 
L 244.272854 471.311003 
L 248.344931 471.649061 
L 266.329941 471.653554 
L 327.750447 471.565134 
L 331.143846 471.311003 
L 335.215923 471.649061 
L 353.200933 471.653554 
L 414.621439 471.565134 
L 418.014837 471.311003 
L 422.086915 471.649061 
L 440.071925 471.653554 
L 460.432314 471.653554 
L 460.432314 471.653554 
" style="fill:none;stroke:#98d594;stroke-linecap:square;"/>
   </g>
   <g id="line2d_27">
    <path clip-path="url(#p36676b1b21)" d="M 113.287686 471.653554 
L 150.615065 471.573432 
L 151.293745 471.281718 
L 151.633085 470.904965 
L 151.972425 470.213001 
L 152.311764 469.003776 
L 152.651104 466.994651 
L 152.990444 463.823731 
L 153.329784 459.075474 
L 153.669124 452.339619 
L 154.347803 431.882618 
L 156.383842 354.134473 
L 156.723182 351.451648 
L 157.062522 354.134473 
L 157.401862 361.828993 
L 158.080541 387.888315 
L 159.098561 431.882618 
L 159.77724 452.339619 
L 160.45592 463.823731 
L 160.79526 466.994651 
L 161.1346 469.003776 
L 161.473939 470.213001 
L 161.813279 470.904965 
L 162.152619 471.281718 
L 162.831299 471.573432 
L 164.188658 471.65139 
L 192.014522 471.653554 
L 237.486057 471.573432 
L 238.164737 471.281718 
L 238.504077 470.904965 
L 238.843417 470.213001 
L 239.182756 469.003776 
L 239.522096 466.994651 
L 239.861436 463.823731 
L 240.200776 459.075474 
L 240.540116 452.339619 
L 241.218795 431.882618 
L 243.254834 354.134473 
L 243.594174 351.451648 
L 243.933514 354.134473 
L 244.272854 361.828993 
L 244.951533 387.888315 
L 245.969553 431.882618 
L 246.648232 452.339619 
L 247.326912 463.823731 
L 247.666252 466.994651 
L 248.005591 469.003776 
L 248.344931 470.213001 
L 248.684271 470.904965 
L 249.023611 471.281718 
L 249.702291 471.573432 
L 251.05965 471.65139 
L 278.885514 471.653554 
L 324.357049 471.573432 
L 325.035729 471.281718 
L 325.375069 470.904965 
L 325.714409 470.213001 
L 326.053748 469.003776 
L 326.393088 466.994651 
L 326.732428 463.823731 
L 327.071768 459.075474 
L 327.411108 452.339619 
L 328.089787 431.882618 
L 330.125826 354.134473 
L 330.465166 351.451648 
L 330.804506 354.134473 
L 331.143846 361.828993 
L 331.822525 387.888315 
L 332.840545 431.882618 
L 333.519224 452.339619 
L 334.197904 463.823731 
L 334.537244 466.994651 
L 334.876583 469.003776 
L 335.215923 470.213001 
L 335.555263 470.904965 
L 335.894603 471.281718 
L 336.573283 471.573432 
L 337.930642 471.65139 
L 365.756506 471.653554 
L 411.228041 471.573432 
L 411.906721 471.281718 
L 412.246061 470.904965 
L 412.5854 470.213001 
L 412.92474 469.003776 
L 413.26408 466.994651 
L 413.60342 463.823731 
L 413.94276 459.075474 
L 414.2821 452.339619 
L 414.960779 431.882618 
L 416.996818 354.134473 
L 417.336158 351.451648 
L 417.675498 354.134473 
L 418.014837 361.828993 
L 418.693517 387.888315 
L 419.711537 431.882618 
L 420.390216 452.339619 
L 421.068896 463.823731 
L 421.408236 466.994651 
L 421.747575 469.003776 
L 422.086915 470.213001 
L 422.426255 470.904965 
L 422.765595 471.281718 
L 423.444274 471.573432 
L 424.801634 471.65139 
L 452.627498 471.653554 
L 460.432314 471.653554 
L 460.432314 471.653554 
" style="fill:none;stroke:#73c476;stroke-linecap:square;"/>
   </g>
   <g id="line2d_28">
    <path clip-path="url(#p36676b1b21)" d="M 113.287686 471.653554 
L 150.275726 471.589888 
L 150.954405 471.330167 
L 151.293745 470.972438 
L 151.633085 470.282315 
L 151.972425 469.014799 
L 152.311764 466.799783 
L 152.651104 463.119536 
L 152.990444 457.311154 
L 153.329784 448.613462 
L 153.669124 436.274954 
L 154.347803 398.802525 
L 156.383842 256.386155 
L 156.723182 251.471847 
L 157.062522 256.386155 
L 157.401862 270.480711 
L 158.080541 318.215278 
L 159.098561 398.802525 
L 159.77724 436.274954 
L 160.45592 457.311154 
L 160.79526 463.119536 
L 161.1346 466.799783 
L 161.473939 469.014799 
L 161.813279 470.282315 
L 162.152619 470.972438 
L 162.491959 471.330167 
L 163.170638 471.589888 
L 164.527998 471.652118 
L 204.909435 471.653554 
L 237.146717 471.589888 
L 237.825397 471.330167 
L 238.164737 470.972438 
L 238.504077 470.282315 
L 238.843417 469.014799 
L 239.182756 466.799783 
L 239.522096 463.119536 
L 239.861436 457.311154 
L 240.200776 448.613462 
L 240.540116 436.274954 
L 241.218795 398.802525 
L 243.254834 256.386155 
L 243.594174 251.471847 
L 243.933514 256.386155 
L 244.272854 270.480711 
L 244.951533 318.215278 
L 245.969553 398.802525 
L 246.648232 436.274954 
L 247.326912 457.311154 
L 247.666252 463.119536 
L 248.005591 466.799783 
L 248.344931 469.014799 
L 248.684271 470.282315 
L 249.023611 470.972438 
L 249.362951 471.330167 
L 250.04163 471.589888 
L 251.39899 471.652118 
L 291.780427 471.653554 
L 324.017709 471.589888 
L 324.696389 471.330167 
L 325.035729 470.972438 
L 325.375069 470.282315 
L 325.714409 469.014799 
L 326.053748 466.799783 
L 326.393088 463.119536 
L 326.732428 457.311154 
L 327.071768 448.613462 
L 327.411108 436.274954 
L 328.089787 398.802525 
L 330.125826 256.386155 
L 330.465166 251.471847 
L 330.804506 256.386155 
L 331.143846 270.480711 
L 331.822525 318.215278 
L 332.840545 398.802525 
L 333.519224 436.274954 
L 334.197904 457.311154 
L 334.537244 463.119536 
L 334.876583 466.799783 
L 335.215923 469.014799 
L 335.555263 470.282315 
L 335.894603 470.972438 
L 336.233943 471.330167 
L 336.912622 471.589888 
L 338.269982 471.652118 
L 378.651419 471.653554 
L 410.888701 471.589888 
L 411.567381 471.330167 
L 411.906721 470.972438 
L 412.246061 470.282315 
L 412.5854 469.014799 
L 412.92474 466.799783 
L 413.26408 463.119536 
L 413.60342 457.311154 
L 413.94276 448.613462 
L 414.2821 436.274954 
L 414.960779 398.802525 
L 416.996818 256.386155 
L 417.336158 251.471847 
L 417.675498 256.386155 
L 418.014837 270.480711 
L 418.693517 318.215278 
L 419.711537 398.802525 
L 420.390216 436.274954 
L 421.068896 457.311154 
L 421.408236 463.119536 
L 421.747575 466.799783 
L 422.086915 469.014799 
L 422.426255 470.282315 
L 422.765595 470.972438 
L 423.104935 471.330167 
L 423.783614 471.589888 
L 425.140974 471.652118 
L 460.432314 471.653554 
L 460.432314 471.653554 
" style="fill:none;stroke:#4bb062;stroke-linecap:square;"/>
   </g>
   <g id="line2d_29">
    <path clip-path="url(#p36676b1b21)" d="M 113.287686 471.653554 
L 152.311764 471.576059 
L 152.990444 471.424564 
L 153.669124 471.088701 
L 154.347803 470.490418 
L 156.383842 468.216604 
L 156.723182 468.138143 
L 157.062522 468.216604 
L 157.741201 468.784429 
L 159.4379 470.824494 
L 160.11658 471.285697 
L 160.79526 471.5173 
L 162.152619 471.642679 
L 169.278755 471.653554 
L 239.182756 471.576059 
L 239.861436 471.424564 
L 240.540116 471.088701 
L 241.218795 470.490418 
L 243.254834 468.216604 
L 243.594174 468.138143 
L 243.933514 468.216604 
L 244.612193 468.784429 
L 246.308892 470.824494 
L 246.987572 471.285697 
L 247.666252 471.5173 
L 249.023611 471.642679 
L 256.149747 471.653554 
L 326.053748 471.576059 
L 326.732428 471.424564 
L 327.411108 471.088701 
L 328.089787 470.490418 
L 330.125826 468.216604 
L 330.465166 468.138143 
L 330.804506 468.216604 
L 331.483185 468.784429 
L 333.179884 470.824494 
L 333.858564 471.285697 
L 334.537244 471.5173 
L 335.894603 471.642679 
L 343.020739 471.653554 
L 412.92474 471.576059 
L 413.60342 471.424564 
L 414.2821 471.088701 
L 414.960779 470.490418 
L 416.996818 468.216604 
L 417.336158 468.138143 
L 417.675498 468.216604 
L 418.354177 468.784429 
L 420.050876 470.824494 
L 420.729556 471.285697 
L 421.408236 471.5173 
L 422.765595 471.642679 
L 429.891731 471.653554 
L 460.432314 471.653554 
L 460.432314 471.653554 
" style="fill:none;stroke:#2f974e;stroke-linecap:square;"/>
   </g>
   <g id="line2d_30">
    <path clip-path="url(#p36676b1b21)" d="M 113.287686 471.653554 
L 460.432314 471.653554 
L 460.432314 471.653554 
" style="fill:none;stroke:#157f3b;stroke-linecap:square;"/>
   </g>
   <g id="line2d_31">
    <path clip-path="url(#p36676b1b21)" d="M 113.287686 471.653554 
L 460.432314 471.653554 
L 460.432314 471.653554 
" style="fill:none;stroke:#006428;stroke-linecap:square;"/>
   </g>
   <g id="line2d_32">
    <path clip-path="url(#p36676b1b21)" d="M 113.287686 471.653554 
L 460.432314 471.653554 
L 460.432314 471.653554 
" style="fill:none;stroke:#00441b;stroke-linecap:square;"/>
   </g>
   <g id="line2d_33">
    <path clip-path="url(#p36676b1b21)" d="M 113.287686 81.306446 
L 460.432314 81.306446 
L 460.432314 81.306446 
" style="fill:none;stroke:#e3eef9;stroke-linecap:square;"/>
   </g>
   <g id="line2d_34">
    <path clip-path="url(#p36676b1b21)" d="M 113.287686 81.306446 
L 460.432314 81.306446 
L 460.432314 81.306446 
" style="fill:none;stroke:#d0e1f2;stroke-linecap:square;"/>
   </g>
   <g id="line2d_35">
    <path clip-path="url(#p36676b1b21)" d="M 113.287686 81.306446 
L 460.432314 81.306446 
L 460.432314 81.306446 
" style="fill:none;stroke:#b7d4ea;stroke-linecap:square;"/>
   </g>
   <g id="line2d_36">
    <path clip-path="url(#p36676b1b21)" d="M 113.287686 81.306446 
L 460.432314 81.306446 
L 460.432314 81.306446 
" style="fill:none;stroke:#94c4df;stroke-linecap:square;"/>
   </g>
   <g id="line2d_37">
    <path clip-path="url(#p36676b1b21)" d="M 113.287686 81.306446 
L 153.329784 81.414091 
L 153.669124 81.560238 
L 154.008463 81.853116 
L 154.347803 82.382207 
L 154.687143 83.240344 
L 155.365823 86.071039 
L 156.044502 89.484693 
L 156.383842 90.666043 
L 156.723182 91.096443 
L 157.062522 90.666043 
L 157.401862 89.484693 
L 158.759221 83.240344 
L 159.098561 82.382207 
L 159.4379 81.853116 
L 160.11658 81.414091 
L 161.1346 81.311224 
L 172.672153 81.306446 
L 240.200776 81.414091 
L 240.540116 81.560238 
L 240.879455 81.853116 
L 241.218795 82.382207 
L 241.558135 83.240344 
L 242.236815 86.071039 
L 242.915494 89.484693 
L 243.254834 90.666043 
L 243.594174 91.096443 
L 243.933514 90.666043 
L 244.272854 89.484693 
L 245.630213 83.240344 
L 245.969553 82.382207 
L 246.308892 81.853116 
L 246.987572 81.414091 
L 248.005591 81.311224 
L 259.543145 81.306446 
L 327.071768 81.414091 
L 327.411108 81.560238 
L 327.750447 81.853116 
L 328.089787 82.382207 
L 328.429127 83.240344 
L 329.107807 86.071039 
L 329.786486 89.484693 
L 330.125826 90.666043 
L 330.465166 91.096443 
L 330.804506 90.666043 
L 331.143846 89.484693 
L 332.501205 83.240344 
L 332.840545 82.382207 
L 333.179884 81.853116 
L 333.858564 81.414091 
L 334.876583 81.311224 
L 346.414137 81.306446 
L 413.94276 81.414091 
L 414.2821 81.560238 
L 414.621439 81.853116 
L 414.960779 82.382207 
L 415.300119 83.240344 
L 415.978799 86.071039 
L 416.657478 89.484693 
L 416.996818 90.666043 
L 417.336158 91.096443 
L 417.675498 90.666043 
L 418.014837 89.484693 
L 419.372197 83.240344 
L 419.711537 82.382207 
L 420.050876 81.853116 
L 420.729556 81.414091 
L 421.747575 81.311224 
L 433.285129 81.306446 
L 460.432314 81.306446 
L 460.432314 81.306446 
" style="fill:none;stroke:#6aaed6;stroke-linecap:square;"/>
   </g>
   <g id="line2d_38">
    <path clip-path="url(#p36676b1b21)" d="M 113.287686 81.306446 
L 152.651104 81.356001 
L 152.990444 81.446405 
L 153.329784 81.667594 
L 153.669124 82.157794 
L 154.008463 83.139713 
L 154.347803 84.91211 
L 154.687143 87.782757 
L 155.365823 97.216751 
L 156.044502 108.521553 
L 156.383842 112.4154 
L 156.723182 113.831693 
L 157.062522 112.4154 
L 157.401862 108.521553 
L 158.759221 87.782757 
L 159.098561 84.91211 
L 159.4379 83.139713 
L 159.77724 82.157794 
L 160.11658 81.667594 
L 160.79526 81.356001 
L 162.152619 81.306762 
L 239.522096 81.356001 
L 239.861436 81.446405 
L 240.200776 81.667594 
L 240.540116 82.157794 
L 240.879455 83.139713 
L 241.218795 84.91211 
L 241.558135 87.782757 
L 242.236815 97.216751 
L 242.915494 108.521553 
L 243.254834 112.4154 
L 243.594174 113.831693 
L 243.933514 112.4154 
L 244.272854 108.521553 
L 245.630213 87.782757 
L 245.969553 84.91211 
L 246.308892 83.139713 
L 246.648232 82.157794 
L 246.987572 81.667594 
L 247.666252 81.356001 
L 249.023611 81.306762 
L 326.393088 81.356001 
L 326.732428 81.446405 
L 327.071768 81.667594 
L 327.411108 82.157794 
L 327.750447 83.139713 
L 328.089787 84.91211 
L 328.429127 87.782757 
L 329.107807 97.216751 
L 329.786486 108.521553 
L 330.125826 112.4154 
L 330.465166 113.831693 
L 330.804506 112.4154 
L 331.143846 108.521553 
L 332.501205 87.782757 
L 332.840545 84.91211 
L 333.179884 83.139713 
L 333.519224 82.157794 
L 333.858564 81.667594 
L 334.537244 81.356001 
L 335.894603 81.306762 
L 413.26408 81.356001 
L 413.60342 81.446405 
L 413.94276 81.667594 
L 414.2821 82.157794 
L 414.621439 83.139713 
L 414.960779 84.91211 
L 415.300119 87.782757 
L 415.978799 97.216751 
L 416.657478 108.521553 
L 416.996818 112.4154 
L 417.336158 113.831693 
L 417.675498 112.4154 
L 418.014837 108.521553 
L 419.372197 87.782757 
L 419.711537 84.91211 
L 420.050876 83.139713 
L 420.390216 82.157794 
L 420.729556 81.667594 
L 421.408236 81.356001 
L 422.765595 81.306762 
L 460.432314 81.306446 
L 460.432314 81.306446 
" style="fill:none;stroke:#4a98c9;stroke-linecap:square;"/>
   </g>
   <g id="line2d_39">
    <path clip-path="url(#p36676b1b21)" d="M 113.287686 81.306446 
L 460.432314 81.306446 
L 460.432314 81.306446 
" style="fill:none;stroke:#2e7ebc;stroke-linecap:square;"/>
   </g>
   <g id="line2d_40">
    <path clip-path="url(#p36676b1b21)" d="M 113.287686 81.306446 
L 460.432314 81.306446 
L 460.432314 81.306446 
" style="fill:none;stroke:#1764ab;stroke-linecap:square;"/>
   </g>
   <g id="line2d_41">
    <path clip-path="url(#p36676b1b21)" d="M 113.287686 81.306446 
L 460.432314 81.306446 
L 460.432314 81.306446 
" style="fill:none;stroke:#084a91;stroke-linecap:square;"/>
   </g>
   <g id="line2d_42">
    <path clip-path="url(#p36676b1b21)" d="M 113.287686 81.306446 
L 460.432314 81.306446 
L 460.432314 81.306446 
" style="fill:none;stroke:#08306b;stroke-linecap:square;"/>
   </g>
   <g id="line2d_43">
    <path clip-path="url(#p36676b1b21)" d="M 113.287686 471.653554 
L 460.432314 471.653554 
L 460.432314 471.653554 
" style="fill:none;stroke:#fee5d8;stroke-linecap:square;"/>
   </g>
   <g id="line2d_44">
    <path clip-path="url(#p36676b1b21)" d="M 113.287686 471.653554 
L 460.432314 471.653554 
L 460.432314 471.653554 
" style="fill:none;stroke:#fdcab5;stroke-linecap:square;"/>
   </g>
   <g id="line2d_45">
    <path clip-path="url(#p36676b1b21)" d="M 113.287686 471.653554 
L 460.432314 471.653554 
L 460.432314 471.653554 
" style="fill:none;stroke:#fcab8f;stroke-linecap:square;"/>
   </g>
   <g id="line2d_46">
    <path clip-path="url(#p36676b1b21)" d="M 113.287686 471.653554 
L 154.347803 471.563142 
L 157.062522 471.386397 
L 164.188658 471.653549 
L 241.218795 471.563142 
L 243.933514 471.386397 
L 251.05965 471.653549 
L 328.089787 471.563142 
L 330.804506 471.386397 
L 337.930642 471.653549 
L 414.960779 471.563142 
L 417.675498 471.386397 
L 424.801634 471.653549 
L 460.432314 471.653554 
L 460.432314 471.653554 
" style="fill:none;stroke:#fc8a6a;stroke-linecap:square;"/>
   </g>
   <g id="line2d_47">
    <path clip-path="url(#p36676b1b21)" d="M 113.287686 471.653554 
L 150.615065 471.595158 
L 151.293745 471.382545 
L 151.633085 471.107953 
L 151.972425 470.603622 
L 152.311764 469.722297 
L 152.651104 468.258001 
L 152.990444 465.947067 
L 153.329784 462.486987 
L 153.669124 457.579833 
L 154.347803 442.693531 
L 156.383842 386.686611 
L 156.723182 384.779219 
L 157.062522 386.686611 
L 157.401862 392.168799 
L 158.080541 410.850685 
L 159.098561 442.693531 
L 159.77724 457.579833 
L 160.45592 465.947067 
L 160.79526 468.258001 
L 161.1346 469.722297 
L 161.473939 470.603622 
L 161.813279 471.107953 
L 162.491959 471.524881 
L 163.509978 471.64305 
L 169.957435 471.653554 
L 237.486057 471.595158 
L 238.164737 471.382545 
L 238.504077 471.107953 
L 238.843417 470.603622 
L 239.182756 469.722297 
L 239.522096 468.258001 
L 239.861436 465.947067 
L 240.200776 462.486987 
L 240.540116 457.579833 
L 241.218795 442.693531 
L 243.254834 386.686611 
L 243.594174 384.779219 
L 243.933514 386.686611 
L 244.272854 392.168799 
L 244.951533 410.850685 
L 245.969553 442.693531 
L 246.648232 457.579833 
L 247.326912 465.947067 
L 247.666252 468.258001 
L 248.005591 469.722297 
L 248.344931 470.603622 
L 248.684271 471.107953 
L 249.362951 471.524881 
L 250.38097 471.64305 
L 256.828427 471.653554 
L 324.357049 471.595158 
L 325.035729 471.382545 
L 325.375069 471.107953 
L 325.714409 470.603622 
L 326.053748 469.722297 
L 326.393088 468.258001 
L 326.732428 465.947067 
L 327.071768 462.486987 
L 327.411108 457.579833 
L 328.089787 442.693531 
L 330.125826 386.686611 
L 330.465166 384.779219 
L 330.804506 386.686611 
L 331.143846 392.168799 
L 331.822525 410.850685 
L 332.840545 442.693531 
L 333.519224 457.579833 
L 334.197904 465.947067 
L 334.537244 468.258001 
L 334.876583 469.722297 
L 335.215923 470.603622 
L 335.555263 471.107953 
L 336.233943 471.524881 
L 337.251962 471.64305 
L 343.699419 471.653554 
L 411.228041 471.595158 
L 411.906721 471.382545 
L 412.246061 471.107953 
L 412.5854 470.603622 
L 412.92474 469.722297 
L 413.26408 468.258001 
L 413.60342 465.947067 
L 413.94276 462.486987 
L 414.2821 457.579833 
L 414.960779 442.693531 
L 416.996818 386.686611 
L 417.336158 384.779219 
L 417.675498 386.686611 
L 418.014837 392.168799 
L 418.693517 410.850685 
L 419.711537 442.693531 
L 420.390216 457.579833 
L 421.068896 465.947067 
L 421.408236 468.258001 
L 421.747575 469.722297 
L 422.086915 470.603622 
L 422.426255 471.107953 
L 423.104935 471.524881 
L 424.122954 471.64305 
L 430.570411 471.653554 
L 460.432314 471.653554 
L 460.432314 471.653554 
" style="fill:none;stroke:#fb694a;stroke-linecap:square;"/>
   </g>
   <g id="line2d_48">
    <path clip-path="url(#p36676b1b21)" d="M 113.287686 471.653554 
L 150.615065 471.546586 
L 150.954405 471.417856 
L 151.293745 471.157129 
L 151.633085 470.654141 
L 151.972425 469.730331 
L 152.311764 468.115979 
L 152.651104 465.433882 
L 152.990444 461.201486 
L 153.329784 454.866189 
L 153.669124 445.886958 
L 154.347803 418.720385 
L 156.044502 328.454342 
L 156.383842 318.948566 
L 156.723182 315.658745 
L 157.062522 318.948566 
L 157.401862 328.454342 
L 158.080541 361.345146 
L 159.098561 418.720385 
L 159.77724 445.886958 
L 160.45592 461.201486 
L 160.79526 465.433882 
L 161.1346 468.115979 
L 161.473939 469.730331 
L 161.813279 470.654141 
L 162.152619 471.157129 
L 162.831299 471.546586 
L 163.849318 471.645928 
L 172.332813 471.653554 
L 237.486057 471.546586 
L 237.825397 471.417856 
L 238.164737 471.157129 
L 238.504077 470.654141 
L 238.843417 469.730331 
L 239.182756 468.115979 
L 239.522096 465.433882 
L 239.861436 461.201486 
L 240.200776 454.866189 
L 240.540116 445.886958 
L 241.218795 418.720385 
L 242.915494 328.454342 
L 243.254834 318.948566 
L 243.594174 315.658745 
L 243.933514 318.948566 
L 244.272854 328.454342 
L 244.951533 361.345146 
L 245.969553 418.720385 
L 246.648232 445.886958 
L 247.326912 461.201486 
L 247.666252 465.433882 
L 248.005591 468.115979 
L 248.344931 469.730331 
L 248.684271 470.654141 
L 249.023611 471.157129 
L 249.702291 471.546586 
L 250.72031 471.645928 
L 259.203805 471.653554 
L 324.357049 471.546586 
L 324.696389 471.417856 
L 325.035729 471.157129 
L 325.375069 470.654141 
L 325.714409 469.730331 
L 326.053748 468.115979 
L 326.393088 465.433882 
L 326.732428 461.201486 
L 327.071768 454.866189 
L 327.411108 445.886958 
L 328.089787 418.720385 
L 329.786486 328.454342 
L 330.125826 318.948566 
L 330.465166 315.658745 
L 330.804506 318.948566 
L 331.143846 328.454342 
L 331.822525 361.345146 
L 332.840545 418.720385 
L 333.519224 445.886958 
L 334.197904 461.201486 
L 334.537244 465.433882 
L 334.876583 468.115979 
L 335.215923 469.730331 
L 335.555263 470.654141 
L 335.894603 471.157129 
L 336.573283 471.546586 
L 337.591302 471.645928 
L 346.074797 471.653554 
L 411.228041 471.546586 
L 411.567381 471.417856 
L 411.906721 471.157129 
L 412.246061 470.654141 
L 412.5854 469.730331 
L 412.92474 468.115979 
L 413.26408 465.433882 
L 413.60342 461.201486 
L 413.94276 454.866189 
L 414.2821 445.886958 
L 414.960779 418.720385 
L 416.657478 328.454342 
L 416.996818 318.948566 
L 417.336158 315.658745 
L 417.675498 318.948566 
L 418.014837 328.454342 
L 418.693517 361.345146 
L 419.711537 418.720385 
L 420.390216 445.886958 
L 421.068896 461.201486 
L 421.408236 465.433882 
L 421.747575 468.115979 
L 422.086915 469.730331 
L 422.426255 470.654141 
L 422.765595 471.157129 
L 423.444274 471.546586 
L 424.462294 471.645928 
L 432.945789 471.653554 
L 460.432314 471.653554 
L 460.432314 471.653554 
" style="fill:none;stroke:#f14432;stroke-linecap:square;"/>
   </g>
   <g id="line2d_49">
    <path clip-path="url(#p36676b1b21)" d="M 113.287686 471.653554 
L 152.651104 471.554247 
L 153.669124 471.241866 
L 154.347803 470.805814 
L 156.383842 469.148584 
L 156.723182 469.091399 
L 157.401862 469.312594 
L 158.419881 470.196307 
L 159.4379 471.049302 
L 160.11658 471.385445 
L 161.1346 471.597072 
L 163.170638 471.652813 
L 238.164737 471.645628 
L 239.522096 471.554247 
L 240.540116 471.241866 
L 241.218795 470.805814 
L 243.254834 469.148584 
L 243.594174 469.091399 
L 244.272854 469.312594 
L 245.290873 470.196307 
L 246.308892 471.049302 
L 246.987572 471.385445 
L 248.005591 471.597072 
L 250.04163 471.652813 
L 325.035729 471.645628 
L 326.393088 471.554247 
L 327.411108 471.241866 
L 328.089787 470.805814 
L 330.125826 469.148584 
L 330.465166 469.091399 
L 331.143846 469.312594 
L 332.161865 470.196307 
L 333.179884 471.049302 
L 333.858564 471.385445 
L 334.876583 471.597072 
L 336.912622 471.652813 
L 411.906721 471.645628 
L 413.26408 471.554247 
L 414.2821 471.241866 
L 414.960779 470.805814 
L 416.996818 469.148584 
L 417.336158 469.091399 
L 418.014837 469.312594 
L 419.032857 470.196307 
L 420.050876 471.049302 
L 420.729556 471.385445 
L 421.747575 471.597072 
L 423.783614 471.652813 
L 460.432314 471.653554 
L 460.432314 471.653554 
" style="fill:none;stroke:#d92523;stroke-linecap:square;"/>
   </g>
   <g id="line2d_50">
    <path clip-path="url(#p36676b1b21)" d="M 113.287686 471.653554 
L 460.432314 471.653554 
L 460.432314 471.653554 
" style="fill:none;stroke:#bc141a;stroke-linecap:square;"/>
   </g>
   <g id="line2d_51">
    <path clip-path="url(#p36676b1b21)" d="M 113.287686 471.653554 
L 460.432314 471.653554 
L 460.432314 471.653554 
" style="fill:none;stroke:#980c13;stroke-linecap:square;"/>
   </g>
   <g id="line2d_52">
    <path clip-path="url(#p36676b1b21)" d="M 113.287686 471.653554 
L 460.432314 471.653554 
L 460.432314 471.653554 
" style="fill:none;stroke:#67000d;stroke-linecap:square;"/>
   </g>
   <g id="patch_3">
    <path d="M 76.8375 512.64 
L 76.8375 40.32 
" style="fill:none;stroke:#000000;stroke-linecap:square;stroke-linejoin:miter;stroke-width:0.8;"/>
   </g>
   <g id="patch_4">
    <path d="M 496.8825 512.64 
L 496.8825 40.32 
" style="fill:none;stroke:#000000;stroke-linecap:square;stroke-linejoin:miter;stroke-width:0.8;"/>
   </g>
   <g id="patch_5">
    <path d="M 76.8375 512.64 
L 496.8825 512.64 
" style="fill:none;stroke:#000000;stroke-linecap:square;stroke-linejoin:miter;stroke-width:0.8;"/>
   </g>
   <g id="patch_6">
    <path d="M 76.8375 40.32 
L 496.8825 40.32 
" style="fill:none;stroke:#000000;stroke-linecap:square;stroke-linejoin:miter;stroke-width:0.8;"/>
   </g>
   <g id="legend_1">
    <g id="patch_7">
     <path d="M 342.6825 324.83625 
L 482.8825 324.83625 
Q 486.8825 324.83625 486.8825 320.83625 
L 486.8825 232.12375 
Q 486.8825 228.12375 482.8825 228.12375 
L 342.6825 228.12375 
Q 338.6825 228.12375 338.6825 232.12375 
L 338.6825 320.83625 
Q 338.6825 324.83625 342.6825 324.83625 
z
" style="fill:#ffffff;opacity:0.8;stroke:#cccccc;stroke-linejoin:miter;"/>
    </g>
    <g id="line2d_53">
     <path d="M 346.6825 246.964375 
L 386.6825 246.964375 
" style="fill:none;stroke:#008000;stroke-linecap:square;stroke-width:2;"/>
    </g>
    <g id="line2d_54"/>
    <g id="text_13">
     <!-- $V_z(kV\AA)$ -->
     <defs>
      <path d="M 20.609375 0 
L 7.8125 72.90625 
L 17.484375 72.90625 
L 28.078125 10.203125 
L 63.484375 72.90625 
L 74.21875 72.90625 
L 32.078125 0 
z
" id="DejaVuSans-Oblique-86"/>
      <path d="M 11.625 54.6875 
L 54.296875 54.6875 
L 52.6875 46.484375 
L 11.53125 7.171875 
L 45.515625 7.171875 
L 44.09375 0 
L -0.296875 0 
L 1.3125 8.203125 
L 42.484375 47.515625 
L 10.203125 47.515625 
z
" id="DejaVuSans-Oblique-122"/>
      <path d="M 18.3125 75.984375 
L 27.296875 75.984375 
L 18.703125 31.6875 
L 49.515625 54.6875 
L 61.1875 54.6875 
L 26.8125 28.515625 
L 51.90625 0 
L 41.015625 0 
L 17.671875 26.703125 
L 12.5 0 
L 3.515625 0 
z
" id="DejaVuSans-Oblique-107"/>
     </defs>
     <g transform="translate(402.6825 253.964375)scale(0.2 -0.2)">
      <use transform="translate(0 0.171875)" xlink:href="#DejaVuSans-Oblique-86"/>
      <use transform="translate(68.408203 -16.234375)scale(0.7)" xlink:href="#DejaVuSans-Oblique-122"/>
      <use transform="translate(107.885742 0.171875)" xlink:href="#DejaVuSans-40"/>
      <use transform="translate(146.899414 0.171875)" xlink:href="#DejaVuSans-Oblique-107"/>
      <use transform="translate(204.80957 0.171875)" xlink:href="#DejaVuSans-Oblique-86"/>
      <use transform="translate(273.217773 0.171875)" xlink:href="#DejaVuSans-Oblique-197"/>
      <use transform="translate(341.625977 0.171875)" xlink:href="#DejaVuSans-41"/>
     </g>
    </g>
    <g id="line2d_55">
     <path d="M 346.6825 276.320625 
L 386.6825 276.320625 
" style="fill:none;stroke:#0000ff;stroke-linecap:square;stroke-width:2;"/>
    </g>
    <g id="line2d_56"/>
    <g id="text_14">
     <!-- $re(T)$ -->
     <defs>
      <path d="M 44.578125 46.390625 
Q 43.21875 47.125 41.453125 47.515625 
Q 39.703125 47.90625 37.703125 47.90625 
Q 30.515625 47.90625 25.140625 42.453125 
Q 19.78125 37.015625 18.015625 27.875 
L 12.5 0 
L 3.515625 0 
L 14.203125 54.6875 
L 23.1875 54.6875 
L 21.484375 46.1875 
Q 25.046875 50.921875 30 53.453125 
Q 34.96875 56 40.578125 56 
Q 42.046875 56 43.453125 55.828125 
Q 44.875 55.671875 46.296875 55.28125 
z
" id="DejaVuSans-Oblique-114"/>
      <path d="M 48.09375 32.234375 
Q 48.25 33.015625 48.3125 33.84375 
Q 48.390625 34.671875 48.390625 35.5 
Q 48.390625 41.453125 44.890625 44.921875 
Q 41.40625 48.390625 35.40625 48.390625 
Q 28.71875 48.390625 23.578125 44.15625 
Q 18.453125 39.9375 15.828125 32.171875 
z
M 55.90625 25.203125 
L 14.109375 25.203125 
Q 13.8125 23.34375 13.71875 22.265625 
Q 13.625 21.1875 13.625 20.40625 
Q 13.625 13.625 17.796875 9.90625 
Q 21.96875 6.203125 29.59375 6.203125 
Q 35.453125 6.203125 40.671875 7.515625 
Q 45.90625 8.84375 50.390625 11.375 
L 48.6875 2.484375 
Q 43.84375 0.53125 38.6875 -0.4375 
Q 33.546875 -1.421875 28.21875 -1.421875 
Q 16.84375 -1.421875 10.71875 4.015625 
Q 4.59375 9.46875 4.59375 19.484375 
Q 4.59375 28.03125 7.640625 35.375 
Q 10.6875 42.71875 16.609375 48.484375 
Q 20.40625 52.09375 25.65625 54.046875 
Q 30.90625 56 36.8125 56 
Q 46.09375 56 51.578125 50.4375 
Q 57.078125 44.875 57.078125 35.5 
Q 57.078125 33.25 56.78125 30.6875 
Q 56.5 28.125 55.90625 25.203125 
z
" id="DejaVuSans-Oblique-101"/>
      <path d="M 5.90625 72.90625 
L 67.578125 72.90625 
L 66.015625 64.59375 
L 39.984375 64.59375 
L 27.484375 0 
L 17.578125 0 
L 30.078125 64.59375 
L 4.296875 64.59375 
z
" id="DejaVuSans-Oblique-84"/>
     </defs>
     <g transform="translate(402.6825 283.320625)scale(0.2 -0.2)">
      <use transform="translate(0 0.125)" xlink:href="#DejaVuSans-Oblique-114"/>
      <use transform="translate(41.113281 0.125)" xlink:href="#DejaVuSans-Oblique-101"/>
      <use transform="translate(102.636719 0.125)" xlink:href="#DejaVuSans-40"/>
      <use transform="translate(141.650391 0.125)" xlink:href="#DejaVuSans-Oblique-84"/>
      <use transform="translate(202.734375 0.125)" xlink:href="#DejaVuSans-41"/>
     </g>
    </g>
    <g id="line2d_57">
     <path d="M 346.6825 305.676875 
L 386.6825 305.676875 
" style="fill:none;stroke:#ff0000;stroke-linecap:square;stroke-width:2;"/>
    </g>
    <g id="line2d_58"/>
    <g id="text_15">
     <!-- $im(T)$ -->
     <defs>
      <path d="M 18.3125 75.984375 
L 27.296875 75.984375 
L 25.09375 64.59375 
L 16.109375 64.59375 
z
M 14.203125 54.6875 
L 23.1875 54.6875 
L 12.5 0 
L 3.515625 0 
z
" id="DejaVuSans-Oblique-105"/>
      <path d="M 89.796875 33.015625 
L 83.40625 0 
L 74.421875 0 
L 80.71875 32.71875 
Q 81.109375 34.8125 81.296875 36.328125 
Q 81.5 37.84375 81.5 38.921875 
Q 81.5 43.3125 79.046875 45.75 
Q 76.609375 48.1875 72.21875 48.1875 
Q 65.671875 48.1875 60.546875 43.28125 
Q 55.421875 38.375 53.90625 30.515625 
L 47.90625 0 
L 38.921875 0 
L 45.3125 32.71875 
Q 45.703125 34.515625 45.890625 36.046875 
Q 46.09375 37.59375 46.09375 38.8125 
Q 46.09375 43.265625 43.65625 45.71875 
Q 41.21875 48.1875 36.921875 48.1875 
Q 30.28125 48.1875 25.140625 43.28125 
Q 20.015625 38.375 18.5 30.515625 
L 12.5 0 
L 3.515625 0 
L 14.203125 54.6875 
L 23.1875 54.6875 
L 21.484375 46.1875 
Q 25.140625 50.984375 30.046875 53.484375 
Q 34.96875 56 40.578125 56 
Q 46.53125 56 50.359375 52.875 
Q 54.203125 49.75 54.984375 44.1875 
Q 59.078125 49.953125 64.46875 52.96875 
Q 69.875 56 75.875 56 
Q 82.90625 56 86.734375 51.953125 
Q 90.578125 47.90625 90.578125 40.484375 
Q 90.578125 38.875 90.375 36.9375 
Q 90.1875 35.015625 89.796875 33.015625 
z
" id="DejaVuSans-Oblique-109"/>
     </defs>
     <g transform="translate(402.6825 312.676875)scale(0.2 -0.2)">
      <use transform="translate(0 0.015625)" xlink:href="#DejaVuSans-Oblique-105"/>
      <use transform="translate(27.783203 0.015625)" xlink:href="#DejaVuSans-Oblique-109"/>
      <use transform="translate(125.195312 0.015625)" xlink:href="#DejaVuSans-40"/>
      <use transform="translate(164.208984 0.015625)" xlink:href="#DejaVuSans-Oblique-84"/>
      <use transform="translate(225.292969 0.015625)" xlink:href="#DejaVuSans-41"/>
     </g>
    </g>
   </g>
  </g>
 </g>
 <defs>
  <clipPath id="p36676b1b21">
   <rect height="472.32" width="420.045" x="76.8375" y="40.32"/>
  </clipPath>
 </defs>
</svg>
