<?xml version="1.0" encoding="utf-8" standalone="no"?>
<!DOCTYPE svg PUBLIC "-//W3C//DTD SVG 1.1//EN"
  "http://www.w3.org/Graphics/SVG/1.1/DTD/svg11.dtd">
<!-- Created with matplotlib (https://matplotlib.org/) -->
<svg height="576pt" version="1.1" viewBox="0 0 512.25 576" width="512.25pt" xmlns="http://www.w3.org/2000/svg" xmlns:xlink="http://www.w3.org/1999/xlink">
 <defs>
  <style type="text/css">
*{stroke-linecap:butt;stroke-linejoin:round;}
  </style>
 </defs>
 <g id="figure_1">
  <g id="patch_1">
   <path d="M 0 576 
L 512.25 576 
L 512.25 0 
L 0 0 
z
" style="fill:#ffffff;"/>
  </g>
  <g id="axes_1">
   <g id="patch_2">
    <path d="M 76.8375 512.64 
L 496.8825 512.64 
L 496.8825 40.32 
L 76.8375 40.32 
z
" style="fill:#ffffff;"/>
   </g>
   <g id="matplotlib.axis_1">
    <g id="xtick_1">
     <g id="line2d_1">
      <path clip-path="url(#p0025f0fb0e)" d="M 113.287686 512.64 
L 113.287686 40.32 
" style="fill:none;stroke:#e6e6e6;stroke-linecap:square;stroke-width:0.8;"/>
     </g>
     <g id="line2d_2">
      <defs>
       <path d="M 0 0 
L 0 -3.5 
" id="me10ee0eeb8" style="stroke:#000000;stroke-width:0.8;"/>
      </defs>
      <g>
       <use style="stroke:#000000;stroke-width:0.8;" x="113.287686" xlink:href="#me10ee0eeb8" y="512.64"/>
      </g>
     </g>
     <g id="text_1">
      <!-- 0 -->
      <defs>
       <path d="M 31.78125 66.40625 
Q 24.171875 66.40625 20.328125 58.90625 
Q 16.5 51.421875 16.5 36.375 
Q 16.5 21.390625 20.328125 13.890625 
Q 24.171875 6.390625 31.78125 6.390625 
Q 39.453125 6.390625 43.28125 13.890625 
Q 47.125 21.390625 47.125 36.375 
Q 47.125 51.421875 43.28125 58.90625 
Q 39.453125 66.40625 31.78125 66.40625 
z
M 31.78125 74.21875 
Q 44.046875 74.21875 50.515625 64.515625 
Q 56.984375 54.828125 56.984375 36.375 
Q 56.984375 17.96875 50.515625 8.265625 
Q 44.046875 -1.421875 31.78125 -1.421875 
Q 19.53125 -1.421875 13.0625 8.265625 
Q 6.59375 17.96875 6.59375 36.375 
Q 6.59375 54.828125 13.0625 64.515625 
Q 19.53125 74.21875 31.78125 74.21875 
z
" id="DejaVuSans-48"/>
      </defs>
      <g transform="translate(108.515811 527.537656)scale(0.15 -0.15)">
       <use xlink:href="#DejaVuSans-48"/>
      </g>
     </g>
    </g>
    <g id="xtick_2">
     <g id="line2d_3">
      <path clip-path="url(#p0025f0fb0e)" d="M 200.158678 512.64 
L 200.158678 40.32 
" style="fill:none;stroke:#e6e6e6;stroke-linecap:square;stroke-width:0.8;"/>
     </g>
     <g id="line2d_4">
      <g>
       <use style="stroke:#000000;stroke-width:0.8;" x="200.158678" xlink:href="#me10ee0eeb8" y="512.64"/>
      </g>
     </g>
     <g id="text_2">
      <!-- 10 -->
      <defs>
       <path d="M 12.40625 8.296875 
L 28.515625 8.296875 
L 28.515625 63.921875 
L 10.984375 60.40625 
L 10.984375 69.390625 
L 28.421875 72.90625 
L 38.28125 72.90625 
L 38.28125 8.296875 
L 54.390625 8.296875 
L 54.390625 0 
L 12.40625 0 
z
" id="DejaVuSans-49"/>
      </defs>
      <g transform="translate(190.614928 527.537656)scale(0.15 -0.15)">
       <use xlink:href="#DejaVuSans-49"/>
       <use x="63.623047" xlink:href="#DejaVuSans-48"/>
      </g>
     </g>
    </g>
    <g id="xtick_3">
     <g id="line2d_5">
      <path clip-path="url(#p0025f0fb0e)" d="M 287.02967 512.64 
L 287.02967 40.32 
" style="fill:none;stroke:#e6e6e6;stroke-linecap:square;stroke-width:0.8;"/>
     </g>
     <g id="line2d_6">
      <g>
       <use style="stroke:#000000;stroke-width:0.8;" x="287.02967" xlink:href="#me10ee0eeb8" y="512.64"/>
      </g>
     </g>
     <g id="text_3">
      <!-- 20 -->
      <defs>
       <path d="M 19.1875 8.296875 
L 53.609375 8.296875 
L 53.609375 0 
L 7.328125 0 
L 7.328125 8.296875 
Q 12.9375 14.109375 22.625 23.890625 
Q 32.328125 33.6875 34.8125 36.53125 
Q 39.546875 41.84375 41.421875 45.53125 
Q 43.3125 49.21875 43.3125 52.78125 
Q 43.3125 58.59375 39.234375 62.25 
Q 35.15625 65.921875 28.609375 65.921875 
Q 23.96875 65.921875 18.8125 64.3125 
Q 13.671875 62.703125 7.8125 59.421875 
L 7.8125 69.390625 
Q 13.765625 71.78125 18.9375 73 
Q 24.125 74.21875 28.421875 74.21875 
Q 39.75 74.21875 46.484375 68.546875 
Q 53.21875 62.890625 53.21875 53.421875 
Q 53.21875 48.921875 51.53125 44.890625 
Q 49.859375 40.875 45.40625 35.40625 
Q 44.1875 33.984375 37.640625 27.21875 
Q 31.109375 20.453125 19.1875 8.296875 
z
" id="DejaVuSans-50"/>
      </defs>
      <g transform="translate(277.48592 527.537656)scale(0.15 -0.15)">
       <use xlink:href="#DejaVuSans-50"/>
       <use x="63.623047" xlink:href="#DejaVuSans-48"/>
      </g>
     </g>
    </g>
    <g id="xtick_4">
     <g id="line2d_7">
      <path clip-path="url(#p0025f0fb0e)" d="M 373.900662 512.64 
L 373.900662 40.32 
" style="fill:none;stroke:#e6e6e6;stroke-linecap:square;stroke-width:0.8;"/>
     </g>
     <g id="line2d_8">
      <g>
       <use style="stroke:#000000;stroke-width:0.8;" x="373.900662" xlink:href="#me10ee0eeb8" y="512.64"/>
      </g>
     </g>
     <g id="text_4">
      <!-- 30 -->
      <defs>
       <path d="M 40.578125 39.3125 
Q 47.65625 37.796875 51.625 33 
Q 55.609375 28.21875 55.609375 21.1875 
Q 55.609375 10.40625 48.1875 4.484375 
Q 40.765625 -1.421875 27.09375 -1.421875 
Q 22.515625 -1.421875 17.65625 -0.515625 
Q 12.796875 0.390625 7.625 2.203125 
L 7.625 11.71875 
Q 11.71875 9.328125 16.59375 8.109375 
Q 21.484375 6.890625 26.8125 6.890625 
Q 36.078125 6.890625 40.9375 10.546875 
Q 45.796875 14.203125 45.796875 21.1875 
Q 45.796875 27.640625 41.28125 31.265625 
Q 36.765625 34.90625 28.71875 34.90625 
L 20.21875 34.90625 
L 20.21875 43.015625 
L 29.109375 43.015625 
Q 36.375 43.015625 40.234375 45.921875 
Q 44.09375 48.828125 44.09375 54.296875 
Q 44.09375 59.90625 40.109375 62.90625 
Q 36.140625 65.921875 28.71875 65.921875 
Q 24.65625 65.921875 20.015625 65.03125 
Q 15.375 64.15625 9.8125 62.3125 
L 9.8125 71.09375 
Q 15.4375 72.65625 20.34375 73.4375 
Q 25.25 74.21875 29.59375 74.21875 
Q 40.828125 74.21875 47.359375 69.109375 
Q 53.90625 64.015625 53.90625 55.328125 
Q 53.90625 49.265625 50.4375 45.09375 
Q 46.96875 40.921875 40.578125 39.3125 
z
" id="DejaVuSans-51"/>
      </defs>
      <g transform="translate(364.356912 527.537656)scale(0.15 -0.15)">
       <use xlink:href="#DejaVuSans-51"/>
       <use x="63.623047" xlink:href="#DejaVuSans-48"/>
      </g>
     </g>
    </g>
    <g id="xtick_5">
     <g id="line2d_9">
      <path clip-path="url(#p0025f0fb0e)" d="M 460.771654 512.64 
L 460.771654 40.32 
" style="fill:none;stroke:#e6e6e6;stroke-linecap:square;stroke-width:0.8;"/>
     </g>
     <g id="line2d_10">
      <g>
       <use style="stroke:#000000;stroke-width:0.8;" x="460.771654" xlink:href="#me10ee0eeb8" y="512.64"/>
      </g>
     </g>
     <g id="text_5">
      <!-- 40 -->
      <defs>
       <path d="M 37.796875 64.3125 
L 12.890625 25.390625 
L 37.796875 25.390625 
z
M 35.203125 72.90625 
L 47.609375 72.90625 
L 47.609375 25.390625 
L 58.015625 25.390625 
L 58.015625 17.1875 
L 47.609375 17.1875 
L 47.609375 0 
L 37.796875 0 
L 37.796875 17.1875 
L 4.890625 17.1875 
L 4.890625 26.703125 
z
" id="DejaVuSans-52"/>
      </defs>
      <g transform="translate(451.227904 527.537656)scale(0.15 -0.15)">
       <use xlink:href="#DejaVuSans-52"/>
       <use x="63.623047" xlink:href="#DejaVuSans-48"/>
      </g>
     </g>
    </g>
    <g id="text_6">
     <!-- $x(\AA)$ -->
     <defs>
      <path d="M 60.015625 54.6875 
L 34.90625 27.875 
L 50.296875 0 
L 39.984375 0 
L 28.421875 21.6875 
L 8.296875 0 
L -2.59375 0 
L 24.3125 28.8125 
L 10.015625 54.6875 
L 20.3125 54.6875 
L 30.8125 34.90625 
L 49.125 54.6875 
z
" id="DejaVuSans-Oblique-120"/>
      <path d="M 31 75.875 
Q 24.46875 64.65625 21.28125 53.65625 
Q 18.109375 42.671875 18.109375 31.390625 
Q 18.109375 20.125 21.3125 9.0625 
Q 24.515625 -2 31 -13.1875 
L 23.1875 -13.1875 
Q 15.875 -1.703125 12.234375 9.375 
Q 8.59375 20.453125 8.59375 31.390625 
Q 8.59375 42.28125 12.203125 53.3125 
Q 15.828125 64.359375 23.1875 75.875 
z
" id="DejaVuSans-40"/>
      <path d="M 49.8125 79.390625 
Q 49.8125 82.46875 47.625 84.640625 
Q 45.453125 86.8125 42.390625 86.8125 
Q 39.265625 86.8125 37.140625 84.6875 
Q 35.015625 82.5625 35.015625 79.390625 
Q 35.015625 76.3125 37.140625 74.15625 
Q 39.265625 72.015625 42.390625 72.015625 
Q 45.453125 72.015625 47.625 74.15625 
Q 49.8125 76.3125 49.8125 79.390625 
z
M 34.421875 68.703125 
Q 31.78125 70.515625 30.390625 73.265625 
Q 29 76.03125 29 79.390625 
Q 29 84.96875 32.90625 88.890625 
Q 36.8125 92.828125 42.390625 92.828125 
Q 47.953125 92.828125 51.875 88.890625 
Q 55.8125 84.96875 55.8125 79.390625 
Q 55.8125 75.53125 54.03125 72.546875 
Q 52.25 69.578125 48.875 67.828125 
L 61.53125 0 
L 51.21875 0 
L 48.1875 18.703125 
L 15.375 18.703125 
L 5.078125 0 
L -5.328125 0 
z
M 40.375 63.1875 
L 19.921875 26.90625 
L 46.6875 26.90625 
z
" id="DejaVuSans-Oblique-197"/>
      <path d="M 8.015625 75.875 
L 15.828125 75.875 
Q 23.140625 64.359375 26.78125 53.3125 
Q 30.421875 42.28125 30.421875 31.390625 
Q 30.421875 20.453125 26.78125 9.375 
Q 23.140625 -1.703125 15.828125 -13.1875 
L 8.015625 -13.1875 
Q 14.5 -2 17.703125 9.0625 
Q 20.90625 20.125 20.90625 31.390625 
Q 20.90625 42.671875 17.703125 53.65625 
Q 14.5 64.65625 8.015625 75.875 
z
" id="DejaVuSans-41"/>
     </defs>
     <g transform="translate(261.11 556.207969)scale(0.25 -0.25)">
      <use transform="translate(0 0.171875)" xlink:href="#DejaVuSans-Oblique-120"/>
      <use transform="translate(59.179688 0.171875)" xlink:href="#DejaVuSans-40"/>
      <use transform="translate(98.193359 0.171875)" xlink:href="#DejaVuSans-Oblique-197"/>
      <use transform="translate(166.601562 0.171875)" xlink:href="#DejaVuSans-41"/>
     </g>
    </g>
   </g>
   <g id="matplotlib.axis_2">
    <g id="ytick_1">
     <g id="line2d_11">
      <path clip-path="url(#p0025f0fb0e)" d="M 76.8375 471.653696 
L 496.8825 471.653696 
" style="fill:none;stroke:#e6e6e6;stroke-linecap:square;stroke-width:0.8;"/>
     </g>
     <g id="line2d_12">
      <defs>
       <path d="M 0 0 
L 3.5 0 
" id="mfa74f4471a" style="stroke:#000000;stroke-width:0.8;"/>
      </defs>
      <g>
       <use style="stroke:#000000;stroke-width:0.8;" x="76.8375" xlink:href="#mfa74f4471a" y="471.653696"/>
      </g>
     </g>
     <g id="text_7">
      <!-- 0.0 -->
      <defs>
       <path d="M 10.6875 12.40625 
L 21 12.40625 
L 21 0 
L 10.6875 0 
z
" id="DejaVuSans-46"/>
      </defs>
      <g transform="translate(49.482812 477.352524)scale(0.15 -0.15)">
       <use xlink:href="#DejaVuSans-48"/>
       <use x="63.623047" xlink:href="#DejaVuSans-46"/>
       <use x="95.410156" xlink:href="#DejaVuSans-48"/>
      </g>
     </g>
    </g>
    <g id="ytick_2">
     <g id="line2d_13">
      <path clip-path="url(#p0025f0fb0e)" d="M 76.8375 393.584246 
L 496.8825 393.584246 
" style="fill:none;stroke:#e6e6e6;stroke-linecap:square;stroke-width:0.8;"/>
     </g>
     <g id="line2d_14">
      <g>
       <use style="stroke:#000000;stroke-width:0.8;" x="76.8375" xlink:href="#mfa74f4471a" y="393.584246"/>
      </g>
     </g>
     <g id="text_8">
      <!-- 0.2 -->
      <g transform="translate(49.482812 399.283074)scale(0.15 -0.15)">
       <use xlink:href="#DejaVuSans-48"/>
       <use x="63.623047" xlink:href="#DejaVuSans-46"/>
       <use x="95.410156" xlink:href="#DejaVuSans-50"/>
      </g>
     </g>
    </g>
    <g id="ytick_3">
     <g id="line2d_15">
      <path clip-path="url(#p0025f0fb0e)" d="M 76.8375 315.514796 
L 496.8825 315.514796 
" style="fill:none;stroke:#e6e6e6;stroke-linecap:square;stroke-width:0.8;"/>
     </g>
     <g id="line2d_16">
      <g>
       <use style="stroke:#000000;stroke-width:0.8;" x="76.8375" xlink:href="#mfa74f4471a" y="315.514796"/>
      </g>
     </g>
     <g id="text_9">
      <!-- 0.4 -->
      <g transform="translate(49.482812 321.213624)scale(0.15 -0.15)">
       <use xlink:href="#DejaVuSans-48"/>
       <use x="63.623047" xlink:href="#DejaVuSans-46"/>
       <use x="95.410156" xlink:href="#DejaVuSans-52"/>
      </g>
     </g>
    </g>
    <g id="ytick_4">
     <g id="line2d_17">
      <path clip-path="url(#p0025f0fb0e)" d="M 76.8375 237.445346 
L 496.8825 237.445346 
" style="fill:none;stroke:#e6e6e6;stroke-linecap:square;stroke-width:0.8;"/>
     </g>
     <g id="line2d_18">
      <g>
       <use style="stroke:#000000;stroke-width:0.8;" x="76.8375" xlink:href="#mfa74f4471a" y="237.445346"/>
      </g>
     </g>
     <g id="text_10">
      <!-- 0.6 -->
      <defs>
       <path d="M 33.015625 40.375 
Q 26.375 40.375 22.484375 35.828125 
Q 18.609375 31.296875 18.609375 23.390625 
Q 18.609375 15.53125 22.484375 10.953125 
Q 26.375 6.390625 33.015625 6.390625 
Q 39.65625 6.390625 43.53125 10.953125 
Q 47.40625 15.53125 47.40625 23.390625 
Q 47.40625 31.296875 43.53125 35.828125 
Q 39.65625 40.375 33.015625 40.375 
z
M 52.59375 71.296875 
L 52.59375 62.3125 
Q 48.875 64.0625 45.09375 64.984375 
Q 41.3125 65.921875 37.59375 65.921875 
Q 27.828125 65.921875 22.671875 59.328125 
Q 17.53125 52.734375 16.796875 39.40625 
Q 19.671875 43.65625 24.015625 45.921875 
Q 28.375 48.1875 33.59375 48.1875 
Q 44.578125 48.1875 50.953125 41.515625 
Q 57.328125 34.859375 57.328125 23.390625 
Q 57.328125 12.15625 50.6875 5.359375 
Q 44.046875 -1.421875 33.015625 -1.421875 
Q 20.359375 -1.421875 13.671875 8.265625 
Q 6.984375 17.96875 6.984375 36.375 
Q 6.984375 53.65625 15.1875 63.9375 
Q 23.390625 74.21875 37.203125 74.21875 
Q 40.921875 74.21875 44.703125 73.484375 
Q 48.484375 72.75 52.59375 71.296875 
z
" id="DejaVuSans-54"/>
      </defs>
      <g transform="translate(49.482812 243.144174)scale(0.15 -0.15)">
       <use xlink:href="#DejaVuSans-48"/>
       <use x="63.623047" xlink:href="#DejaVuSans-46"/>
       <use x="95.410156" xlink:href="#DejaVuSans-54"/>
      </g>
     </g>
    </g>
    <g id="ytick_5">
     <g id="line2d_19">
      <path clip-path="url(#p0025f0fb0e)" d="M 76.8375 159.375896 
L 496.8825 159.375896 
" style="fill:none;stroke:#e6e6e6;stroke-linecap:square;stroke-width:0.8;"/>
     </g>
     <g id="line2d_20">
      <g>
       <use style="stroke:#000000;stroke-width:0.8;" x="76.8375" xlink:href="#mfa74f4471a" y="159.375896"/>
      </g>
     </g>
     <g id="text_11">
      <!-- 0.8 -->
      <defs>
       <path d="M 31.78125 34.625 
Q 24.75 34.625 20.71875 30.859375 
Q 16.703125 27.09375 16.703125 20.515625 
Q 16.703125 13.921875 20.71875 10.15625 
Q 24.75 6.390625 31.78125 6.390625 
Q 38.8125 6.390625 42.859375 10.171875 
Q 46.921875 13.96875 46.921875 20.515625 
Q 46.921875 27.09375 42.890625 30.859375 
Q 38.875 34.625 31.78125 34.625 
z
M 21.921875 38.8125 
Q 15.578125 40.375 12.03125 44.71875 
Q 8.5 49.078125 8.5 55.328125 
Q 8.5 64.0625 14.71875 69.140625 
Q 20.953125 74.21875 31.78125 74.21875 
Q 42.671875 74.21875 48.875 69.140625 
Q 55.078125 64.0625 55.078125 55.328125 
Q 55.078125 49.078125 51.53125 44.71875 
Q 48 40.375 41.703125 38.8125 
Q 48.828125 37.15625 52.796875 32.3125 
Q 56.78125 27.484375 56.78125 20.515625 
Q 56.78125 9.90625 50.3125 4.234375 
Q 43.84375 -1.421875 31.78125 -1.421875 
Q 19.734375 -1.421875 13.25 4.234375 
Q 6.78125 9.90625 6.78125 20.515625 
Q 6.78125 27.484375 10.78125 32.3125 
Q 14.796875 37.15625 21.921875 38.8125 
z
M 18.3125 54.390625 
Q 18.3125 48.734375 21.84375 45.5625 
Q 25.390625 42.390625 31.78125 42.390625 
Q 38.140625 42.390625 41.71875 45.5625 
Q 45.3125 48.734375 45.3125 54.390625 
Q 45.3125 60.0625 41.71875 63.234375 
Q 38.140625 66.40625 31.78125 66.40625 
Q 25.390625 66.40625 21.84375 63.234375 
Q 18.3125 60.0625 18.3125 54.390625 
z
" id="DejaVuSans-56"/>
      </defs>
      <g transform="translate(49.482812 165.074724)scale(0.15 -0.15)">
       <use xlink:href="#DejaVuSans-48"/>
       <use x="63.623047" xlink:href="#DejaVuSans-46"/>
       <use x="95.410156" xlink:href="#DejaVuSans-56"/>
      </g>
     </g>
    </g>
    <g id="ytick_6">
     <g id="line2d_21">
      <path clip-path="url(#p0025f0fb0e)" d="M 76.8375 81.306446 
L 496.8825 81.306446 
" style="fill:none;stroke:#e6e6e6;stroke-linecap:square;stroke-width:0.8;"/>
     </g>
     <g id="line2d_22">
      <g>
       <use style="stroke:#000000;stroke-width:0.8;" x="76.8375" xlink:href="#mfa74f4471a" y="81.306446"/>
      </g>
     </g>
     <g id="text_12">
      <!-- 1.0 -->
      <g transform="translate(49.482812 87.005274)scale(0.15 -0.15)">
       <use xlink:href="#DejaVuSans-49"/>
       <use x="63.623047" xlink:href="#DejaVuSans-46"/>
       <use x="95.410156" xlink:href="#DejaVuSans-48"/>
      </g>
     </g>
    </g>
   </g>
   <g id="line2d_23">
    <path clip-path="url(#p0025f0fb0e)" d="M 113.287686 471.653501 
L 130.254677 471.5482 
L 134.326754 471.313152 
L 137.380813 470.932237 
L 140.095531 470.371457 
L 142.81025 469.564271 
L 145.864308 468.391353 
L 151.972425 465.933694 
L 154.008463 465.398032 
L 155.705163 465.160294 
L 157.401862 465.138238 
L 159.098561 465.334071 
L 161.1346 465.827993 
L 163.509978 466.672735 
L 171.993473 469.99903 
L 174.708192 470.68139 
L 177.42291 471.129859 
L 180.816309 471.439691 
L 185.227726 471.599126 
L 194.389901 471.652156 
L 216.786329 471.558856 
L 221.197746 471.313152 
L 224.251805 470.932237 
L 226.966523 470.371457 
L 229.681242 469.564271 
L 232.7353 468.391353 
L 238.843417 465.933694 
L 240.879455 465.398032 
L 242.576154 465.160294 
L 244.272854 465.138238 
L 245.969553 465.334071 
L 248.005591 465.827993 
L 250.38097 466.672735 
L 258.864465 469.99903 
L 261.579184 470.68139 
L 264.293902 471.129859 
L 267.687301 471.439691 
L 272.098718 471.599126 
L 281.260893 471.652156 
L 303.657321 471.558856 
L 308.068738 471.313152 
L 311.122797 470.932237 
L 313.837515 470.371457 
L 316.552234 469.564271 
L 319.606292 468.391353 
L 325.714409 465.933694 
L 327.750447 465.398032 
L 329.447146 465.160294 
L 331.143846 465.138238 
L 332.840545 465.334071 
L 334.876583 465.827993 
L 337.251962 466.672735 
L 345.735457 469.99903 
L 348.450176 470.68139 
L 351.164894 471.129859 
L 354.558293 471.439691 
L 358.96971 471.599126 
L 368.131885 471.652156 
L 390.528313 471.558856 
L 394.93973 471.313152 
L 397.993789 470.932237 
L 400.708507 470.371457 
L 403.423226 469.564271 
L 406.477284 468.391353 
L 412.5854 465.933694 
L 414.621439 465.398032 
L 416.318138 465.160294 
L 418.014837 465.138238 
L 419.711537 465.334071 
L 421.747575 465.827993 
L 424.122954 466.672735 
L 432.606449 469.99903 
L 435.321168 470.68139 
L 438.035886 471.129859 
L 441.429285 471.439691 
L 445.840702 471.599126 
L 455.002877 471.652156 
L 460.432314 471.653498 
L 460.432314 471.653498 
" style="fill:none;stroke:#e9f7e5;stroke-linecap:square;"/>
   </g>
   <g id="line2d_24">
    <path clip-path="url(#p0025f0fb0e)" d="M 113.287686 471.653341 
L 128.557978 471.542533 
L 132.290715 471.300413 
L 135.005434 470.914829 
L 137.380813 470.341409 
L 139.416852 469.617213 
L 141.45289 468.643969 
L 143.488929 467.417583 
L 145.864308 465.719712 
L 151.633085 461.452016 
L 153.329784 460.549495 
L 154.687143 460.05693 
L 156.044502 459.802514 
L 157.401862 459.802514 
L 158.759221 460.05693 
L 160.11658 460.549495 
L 161.813279 461.452016 
L 163.849318 462.842105 
L 170.975454 468.061186 
L 173.011493 469.162805 
L 175.047532 470.008925 
L 177.083571 470.619387 
L 179.458949 471.087694 
L 182.173668 471.391734 
L 185.906406 471.574876 
L 193.032542 471.648647 
L 214.07161 471.583602 
L 218.483028 471.36388 
L 221.197746 471.03427 
L 223.573125 470.532455 
L 225.609164 469.885137 
L 227.645203 468.997045 
L 229.681242 467.853171 
L 232.05662 466.227829 
L 239.182756 461.057131 
L 240.879455 460.27506 
L 242.236815 459.898567 
L 243.594174 459.770322 
L 244.951533 459.898567 
L 246.308892 460.27506 
L 247.666252 460.875943 
L 249.362951 461.885326 
L 251.738329 463.613003 
L 256.828427 467.417583 
L 258.864465 468.643969 
L 260.900504 469.617213 
L 262.936543 470.341409 
L 264.972582 470.848372 
L 267.347961 471.225376 
L 270.402019 471.481188 
L 275.152776 471.619999 
L 287.02967 471.653341 
L 302.299961 471.542533 
L 306.032699 471.300413 
L 308.747418 470.914829 
L 311.122797 470.341409 
L 313.158835 469.617213 
L 315.194874 468.643969 
L 317.230913 467.417583 
L 319.606292 465.719712 
L 325.375069 461.452016 
L 327.071768 460.549495 
L 328.429127 460.05693 
L 329.786486 459.802514 
L 331.143846 459.802514 
L 332.501205 460.05693 
L 333.858564 460.549495 
L 335.555263 461.452016 
L 337.591302 462.842105 
L 344.717438 468.061186 
L 346.753477 469.162805 
L 348.789516 470.008925 
L 350.825555 470.619387 
L 353.200933 471.087694 
L 355.915652 471.391734 
L 359.64839 471.574876 
L 366.774526 471.648647 
L 387.813594 471.583602 
L 392.225012 471.36388 
L 394.93973 471.03427 
L 397.315109 470.532455 
L 399.351148 469.885137 
L 401.387187 468.997045 
L 403.423226 467.853171 
L 405.798604 466.227829 
L 412.92474 461.057131 
L 414.621439 460.27506 
L 415.978799 459.898567 
L 417.336158 459.770322 
L 418.693517 459.898567 
L 420.050876 460.27506 
L 421.408236 460.875943 
L 423.104935 461.885326 
L 425.480313 463.613003 
L 430.570411 467.417583 
L 432.606449 468.643969 
L 434.642488 469.617213 
L 436.678527 470.341409 
L 438.714566 470.848372 
L 441.089945 471.225376 
L 444.144003 471.481188 
L 448.89476 471.619999 
L 460.432314 471.653336 
L 460.432314 471.653336 
" style="fill:none;stroke:#d3eecd;stroke-linecap:square;"/>
   </g>
   <g id="line2d_25">
    <path clip-path="url(#p0025f0fb0e)" d="M 113.287686 471.653037 
L 126.521939 471.551251 
L 130.254677 471.297628 
L 132.630055 470.931388 
L 134.666094 470.397508 
L 136.362793 469.734442 
L 138.059492 468.819145 
L 139.756191 467.606914 
L 141.45289 466.068877 
L 143.149589 464.203252 
L 145.185628 461.585512 
L 148.918366 456.250239 
L 150.954405 453.527605 
L 152.311764 451.990816 
L 153.669124 450.781636 
L 154.687143 450.134853 
L 155.705163 449.737201 
L 156.723182 449.603025 
L 157.741201 449.737201 
L 158.759221 450.134853 
L 159.77724 450.781636 
L 161.1346 451.990816 
L 162.491959 453.527605 
L 164.527998 456.250239 
L 169.957435 463.793206 
L 171.654134 465.721414 
L 173.350833 467.32589 
L 175.047532 468.601675 
L 176.744231 469.573132 
L 178.44093 470.282662 
L 180.476969 470.85891 
L 182.852347 471.258162 
L 185.906406 471.507439 
L 190.657163 471.628681 
L 204.570095 471.650858 
L 213.73227 471.538185 
L 217.125669 471.297628 
L 219.501047 470.931388 
L 221.537086 470.397508 
L 223.233785 469.734442 
L 224.930484 468.819145 
L 226.627183 467.606914 
L 228.323882 466.068877 
L 230.020581 464.203252 
L 232.05662 461.585512 
L 235.789358 456.250239 
L 237.825397 453.527605 
L 239.182756 451.990816 
L 240.540116 450.781636 
L 241.558135 450.134853 
L 242.576154 449.737201 
L 243.594174 449.603025 
L 244.612193 449.737201 
L 245.630213 450.134853 
L 246.648232 450.781636 
L 248.005591 451.990816 
L 249.362951 453.527605 
L 251.39899 456.250239 
L 256.828427 463.793206 
L 258.525126 465.721414 
L 260.221825 467.32589 
L 261.918524 468.601675 
L 263.615223 469.573132 
L 265.311922 470.282662 
L 267.347961 470.85891 
L 269.723339 471.258162 
L 272.777398 471.507439 
L 277.528155 471.628681 
L 291.441087 471.650858 
L 300.603262 471.538185 
L 303.996661 471.297628 
L 306.372039 470.931388 
L 308.408078 470.397508 
L 310.104777 469.734442 
L 311.801476 468.819145 
L 313.498175 467.606914 
L 315.194874 466.068877 
L 316.891573 464.203252 
L 318.927612 461.585512 
L 322.66035 456.250239 
L 324.696389 453.527605 
L 326.053748 451.990816 
L 327.411108 450.781636 
L 328.429127 450.134853 
L 329.447146 449.737201 
L 330.465166 449.603025 
L 331.483185 449.737201 
L 332.501205 450.134853 
L 333.519224 450.781636 
L 334.876583 451.990816 
L 336.233943 453.527605 
L 338.269982 456.250239 
L 343.699419 463.793206 
L 345.396118 465.721414 
L 347.092817 467.32589 
L 348.789516 468.601675 
L 350.486215 469.573132 
L 352.182914 470.282662 
L 354.218953 470.85891 
L 356.594331 471.258162 
L 359.64839 471.507439 
L 364.399147 471.628681 
L 378.312079 471.650858 
L 387.474254 471.538185 
L 390.867653 471.297628 
L 393.243031 470.931388 
L 395.27907 470.397508 
L 396.975769 469.734442 
L 398.672468 468.819145 
L 400.369167 467.606914 
L 402.065866 466.068877 
L 403.762565 464.203252 
L 405.798604 461.585512 
L 409.531342 456.250239 
L 411.567381 453.527605 
L 412.92474 451.990816 
L 414.2821 450.781636 
L 415.300119 450.134853 
L 416.318138 449.737201 
L 417.336158 449.603025 
L 418.354177 449.737201 
L 419.372197 450.134853 
L 420.390216 450.781636 
L 421.747575 451.990816 
L 423.104935 453.527605 
L 425.140974 456.250239 
L 430.570411 463.793206 
L 432.26711 465.721414 
L 433.963809 467.32589 
L 435.660508 468.601675 
L 437.357207 469.573132 
L 439.053906 470.282662 
L 441.089945 470.85891 
L 443.465323 471.258162 
L 446.519382 471.507439 
L 451.270139 471.628681 
L 460.432314 471.653027 
L 460.432314 471.653027 
" style="fill:none;stroke:#b8e3b2;stroke-linecap:square;"/>
   </g>
   <g id="line2d_26">
    <path clip-path="url(#p0025f0fb0e)" d="M 113.287686 471.652671 
L 125.503919 471.543433 
L 128.897317 471.294855 
L 131.272696 470.897586 
L 132.969395 470.41742 
L 134.666094 469.699718 
L 136.023453 468.903522 
L 137.380813 467.865993 
L 138.738172 466.549036 
L 140.095531 464.921869 
L 141.45289 462.966607 
L 143.149589 460.06466 
L 144.846289 456.708758 
L 147.561007 450.73289 
L 150.275726 444.802506 
L 151.972425 441.623364 
L 153.329784 439.603218 
L 154.347803 438.475308 
L 155.365823 437.72442 
L 156.044502 437.447176 
L 156.723182 437.354259 
L 157.401862 437.447176 
L 158.080541 437.72442 
L 158.759221 438.181508 
L 159.77724 439.187569 
L 160.79526 440.545457 
L 162.152619 442.820775 
L 163.849318 446.220464 
L 167.242716 453.778588 
L 169.618095 458.771402 
L 171.314794 461.86532 
L 173.011493 464.464143 
L 174.368852 466.17229 
L 175.726211 467.564318 
L 177.083571 468.668329 
L 178.44093 469.521076 
L 180.137629 470.295212 
L 181.834328 470.81719 
L 183.870367 471.206675 
L 186.585085 471.474021 
L 190.657163 471.614786 
L 200.837358 471.652611 
L 212.374911 471.543433 
L 215.768309 471.294855 
L 218.143688 470.897586 
L 219.840387 470.41742 
L 221.537086 469.699718 
L 222.894445 468.903522 
L 224.251805 467.865993 
L 225.609164 466.549036 
L 226.966523 464.921869 
L 228.323882 462.966607 
L 230.020581 460.06466 
L 231.71728 456.708758 
L 234.431999 450.73289 
L 237.146717 444.802506 
L 238.843417 441.623364 
L 240.200776 439.603218 
L 241.218795 438.475308 
L 242.236815 437.72442 
L 242.915494 437.447176 
L 243.594174 437.354259 
L 244.272854 437.447176 
L 244.951533 437.72442 
L 245.630213 438.181508 
L 246.648232 439.187569 
L 247.666252 440.545457 
L 249.023611 442.820775 
L 250.72031 446.220464 
L 254.113708 453.778588 
L 256.489087 458.771402 
L 258.185786 461.86532 
L 259.882485 464.464143 
L 261.239844 466.17229 
L 262.597203 467.564318 
L 263.954563 468.668329 
L 265.311922 469.521076 
L 267.008621 470.295212 
L 268.70532 470.81719 
L 270.741359 471.206675 
L 273.456077 471.474021 
L 277.528155 471.614786 
L 287.70835 471.652611 
L 299.245903 471.543433 
L 302.639301 471.294855 
L 305.01468 470.897586 
L 306.711379 470.41742 
L 308.408078 469.699718 
L 309.765437 468.903522 
L 311.122797 467.865993 
L 312.480156 466.549036 
L 313.837515 464.921869 
L 315.194874 462.966607 
L 316.891573 460.06466 
L 318.588272 456.708758 
L 321.302991 450.73289 
L 324.017709 444.802506 
L 325.714409 441.623364 
L 327.071768 439.603218 
L 328.089787 438.475308 
L 329.107807 437.72442 
L 329.786486 437.447176 
L 330.465166 437.354259 
L 331.143846 437.447176 
L 331.822525 437.72442 
L 332.501205 438.181508 
L 333.519224 439.187569 
L 334.537244 440.545457 
L 335.894603 442.820775 
L 337.591302 446.220464 
L 340.9847 453.778588 
L 343.360079 458.771402 
L 345.056778 461.86532 
L 346.753477 464.464143 
L 348.110836 466.17229 
L 349.468195 467.564318 
L 350.825555 468.668329 
L 352.182914 469.521076 
L 353.879613 470.295212 
L 355.576312 470.81719 
L 357.612351 471.206675 
L 360.327069 471.474021 
L 364.399147 471.614786 
L 374.579342 471.652611 
L 386.116895 471.543433 
L 389.510293 471.294855 
L 391.885672 470.897586 
L 393.582371 470.41742 
L 395.27907 469.699718 
L 396.636429 468.903522 
L 397.993789 467.865993 
L 399.351148 466.549036 
L 400.708507 464.921869 
L 402.065866 462.966607 
L 403.762565 460.06466 
L 405.459264 456.708758 
L 408.173983 450.73289 
L 410.888701 444.802506 
L 412.5854 441.623364 
L 413.94276 439.603218 
L 414.960779 438.475308 
L 415.978799 437.72442 
L 416.657478 437.447176 
L 417.336158 437.354259 
L 418.014837 437.447176 
L 418.693517 437.72442 
L 419.372197 438.181508 
L 420.390216 439.187569 
L 421.408236 440.545457 
L 422.765595 442.820775 
L 424.462294 446.220464 
L 427.855692 453.778588 
L 430.231071 458.771402 
L 431.92777 461.86532 
L 433.624469 464.464143 
L 434.981828 466.17229 
L 436.339187 467.564318 
L 437.696547 468.668329 
L 439.053906 469.521076 
L 440.750605 470.295212 
L 442.447304 470.81719 
L 444.483343 471.206675 
L 447.198061 471.474021 
L 451.270139 471.614786 
L 460.432314 471.652656 
L 460.432314 471.652656 
" style="fill:none;stroke:#98d594;stroke-linecap:square;"/>
   </g>
   <g id="line2d_27">
    <path clip-path="url(#p0025f0fb0e)" d="M 113.287686 471.652396 
L 124.82524 471.545086 
L 128.218638 471.290518 
L 130.594016 470.873779 
L 132.290715 470.36108 
L 133.648075 469.76395 
L 135.005434 468.950283 
L 136.362793 467.869298 
L 137.720152 466.4698 
L 139.077512 464.705197 
L 140.434871 462.539866 
L 141.79223 459.956385 
L 143.488929 456.154334 
L 145.524968 450.878337 
L 151.633085 434.327137 
L 152.990444 431.599452 
L 154.008463 430.020817 
L 155.026483 428.904996 
L 155.705163 428.438617 
L 156.383842 428.203523 
L 157.062522 428.203523 
L 157.741201 428.438617 
L 158.419881 428.904996 
L 159.098561 429.595144 
L 160.11658 431.024937 
L 161.1346 432.882308 
L 162.491959 435.912559 
L 164.188658 440.339877 
L 170.296774 456.962865 
L 171.993473 460.641515 
L 173.350833 463.120102 
L 174.708192 465.182778 
L 176.065551 466.852218 
L 177.42291 468.16744 
L 178.78027 469.176737 
L 180.137629 469.931615 
L 181.834328 470.5933 
L 183.531027 471.022511 
L 185.906406 471.365306 
L 188.960464 471.558152 
L 194.729241 471.644877 
L 209.999532 471.597246 
L 214.07161 471.397231 
L 216.446989 471.08703 
L 218.483028 470.5933 
L 220.179727 469.931615 
L 221.537086 469.176737 
L 222.894445 468.16744 
L 224.251805 466.852218 
L 225.609164 465.182778 
L 226.966523 463.120102 
L 228.323882 460.641515 
L 229.681242 457.748092 
L 231.377941 453.599344 
L 233.753319 447.073198 
L 237.486057 436.750917 
L 238.843417 433.585774 
L 240.200776 431.024937 
L 241.218795 429.595144 
L 241.897475 428.904996 
L 242.576154 428.438617 
L 243.254834 428.203523 
L 243.933514 428.203523 
L 244.612193 428.438617 
L 245.290873 428.904996 
L 245.969553 429.595144 
L 246.987572 431.024937 
L 248.005591 432.882308 
L 249.362951 435.912559 
L 251.05965 440.339877 
L 257.167766 456.962865 
L 258.864465 460.641515 
L 260.221825 463.120102 
L 261.579184 465.182778 
L 262.936543 466.852218 
L 264.293902 468.16744 
L 265.651262 469.176737 
L 267.008621 469.931615 
L 268.70532 470.5933 
L 270.402019 471.022511 
L 272.777398 471.365306 
L 275.831456 471.558152 
L 281.600233 471.644877 
L 296.870524 471.597246 
L 300.942602 471.397231 
L 303.317981 471.08703 
L 305.35402 470.5933 
L 307.050719 469.931615 
L 308.408078 469.176737 
L 309.765437 468.16744 
L 311.122797 466.852218 
L 312.480156 465.182778 
L 313.837515 463.120102 
L 315.194874 460.641515 
L 316.552234 457.748092 
L 318.248933 453.599344 
L 320.624311 447.073198 
L 324.357049 436.750917 
L 325.714409 433.585774 
L 327.071768 431.024937 
L 328.089787 429.595144 
L 328.768467 428.904996 
L 329.447146 428.438617 
L 330.125826 428.203523 
L 330.804506 428.203523 
L 331.483185 428.438617 
L 332.161865 428.904996 
L 332.840545 429.595144 
L 333.858564 431.024937 
L 334.876583 432.882308 
L 336.233943 435.912559 
L 337.930642 440.339877 
L 344.038758 456.962865 
L 345.735457 460.641515 
L 347.092817 463.120102 
L 348.450176 465.182778 
L 349.807535 466.852218 
L 351.164894 468.16744 
L 352.522254 469.176737 
L 353.879613 469.931615 
L 355.576312 470.5933 
L 357.273011 471.022511 
L 359.64839 471.365306 
L 362.702448 471.558152 
L 368.471225 471.644877 
L 383.741516 471.597246 
L 387.813594 471.397231 
L 390.188973 471.08703 
L 392.225012 470.5933 
L 393.921711 469.931615 
L 395.27907 469.176737 
L 396.636429 468.16744 
L 397.993789 466.852218 
L 399.351148 465.182778 
L 400.708507 463.120102 
L 402.065866 460.641515 
L 403.423226 457.748092 
L 405.119925 453.599344 
L 407.495303 447.073198 
L 411.228041 436.750917 
L 412.5854 433.585774 
L 413.94276 431.024937 
L 414.960779 429.595144 
L 415.639459 428.904996 
L 416.318138 428.438617 
L 416.996818 428.203523 
L 417.675498 428.203523 
L 418.354177 428.438617 
L 419.032857 428.904996 
L 419.711537 429.595144 
L 420.729556 431.024937 
L 421.747575 432.882308 
L 423.104935 435.912559 
L 424.801634 440.339877 
L 430.90975 456.962865 
L 432.606449 460.641515 
L 433.963809 463.120102 
L 435.321168 465.182778 
L 436.678527 466.852218 
L 438.035886 468.16744 
L 439.393246 469.176737 
L 440.750605 469.931615 
L 442.447304 470.5933 
L 444.144003 471.022511 
L 446.519382 471.365306 
L 449.57344 471.558152 
L 455.342217 471.644877 
L 460.432314 471.652378 
L 460.432314 471.652378 
" style="fill:none;stroke:#73c476;stroke-linecap:square;"/>
   </g>
   <g id="line2d_28">
    <path clip-path="url(#p0025f0fb0e)" d="M 113.287686 471.652358 
L 124.82524 471.541873 
L 128.218638 471.279772 
L 130.254677 470.930824 
L 131.951376 470.447473 
L 133.648075 469.708032 
L 135.005434 468.870288 
L 136.362793 467.757317 
L 137.720152 466.316408 
L 139.077512 464.49959 
L 140.434871 462.270187 
L 141.79223 459.61026 
L 143.488929 455.695705 
L 145.524968 450.263591 
L 151.633085 433.222638 
L 152.990444 430.414241 
L 154.008463 428.788893 
L 155.026483 427.640055 
L 155.705163 427.159876 
L 156.383842 426.917825 
L 157.062522 426.917825 
L 157.741201 427.159876 
L 158.419881 427.640055 
L 159.098561 428.350624 
L 160.11658 429.822725 
L 161.1346 431.735057 
L 162.491959 434.854972 
L 164.188658 439.413296 
L 170.296774 456.528161 
L 171.993473 460.315663 
L 173.350833 462.867591 
L 174.708192 464.991303 
L 176.065551 466.710141 
L 177.42291 468.064281 
L 178.78027 469.103444 
L 180.137629 469.880659 
L 181.834328 470.561922 
L 183.531027 471.003834 
L 185.906406 471.356772 
L 188.960464 471.555325 
L 194.389901 471.643145 
L 209.660193 471.602912 
L 213.73227 471.419192 
L 216.107649 471.13061 
L 218.143688 470.666852 
L 219.840387 470.040159 
L 221.197746 469.320236 
L 222.555106 468.351544 
L 223.912465 467.081035 
L 225.269824 465.457629 
L 226.627183 463.438112 
L 227.984543 460.994218 
L 229.341902 458.120241 
L 231.038601 453.962957 
L 233.07464 448.323838 
L 237.825397 434.854972 
L 239.182756 431.735057 
L 240.200776 429.822725 
L 241.218795 428.350624 
L 241.897475 427.640055 
L 242.576154 427.159876 
L 243.254834 426.917825 
L 243.933514 426.917825 
L 244.612193 427.159876 
L 245.290873 427.640055 
L 245.969553 428.350624 
L 246.987572 429.822725 
L 248.005591 431.735057 
L 249.362951 434.854972 
L 251.05965 439.413296 
L 257.167766 456.528161 
L 258.864465 460.315663 
L 260.221825 462.867591 
L 261.579184 464.991303 
L 262.936543 466.710141 
L 264.293902 468.064281 
L 265.651262 469.103444 
L 267.008621 469.880659 
L 268.70532 470.561922 
L 270.402019 471.003834 
L 272.777398 471.356772 
L 275.831456 471.555325 
L 281.260893 471.643145 
L 296.531185 471.602912 
L 300.603262 471.419192 
L 302.978641 471.13061 
L 305.01468 470.666852 
L 306.711379 470.040159 
L 308.068738 469.320236 
L 309.426098 468.351544 
L 310.783457 467.081035 
L 312.140816 465.457629 
L 313.498175 463.438112 
L 314.855535 460.994218 
L 316.212894 458.120241 
L 317.909593 453.962957 
L 319.945632 448.323838 
L 324.696389 434.854972 
L 326.053748 431.735057 
L 327.071768 429.822725 
L 328.089787 428.350624 
L 328.768467 427.640055 
L 329.447146 427.159876 
L 330.125826 426.917825 
L 330.804506 426.917825 
L 331.483185 427.159876 
L 332.161865 427.640055 
L 332.840545 428.350624 
L 333.858564 429.822725 
L 334.876583 431.735057 
L 336.233943 434.854972 
L 337.930642 439.413296 
L 344.038758 456.528161 
L 345.735457 460.315663 
L 347.092817 462.867591 
L 348.450176 464.991303 
L 349.807535 466.710141 
L 351.164894 468.064281 
L 352.522254 469.103444 
L 353.879613 469.880659 
L 355.576312 470.561922 
L 357.273011 471.003834 
L 359.64839 471.356772 
L 362.702448 471.555325 
L 368.131885 471.643145 
L 383.402177 471.602912 
L 387.474254 471.419192 
L 389.849633 471.13061 
L 391.885672 470.666852 
L 393.582371 470.040159 
L 394.93973 469.320236 
L 396.29709 468.351544 
L 397.654449 467.081035 
L 399.011808 465.457629 
L 400.369167 463.438112 
L 401.726527 460.994218 
L 403.083886 458.120241 
L 404.780585 453.962957 
L 406.816624 448.323838 
L 411.567381 434.854972 
L 412.92474 431.735057 
L 413.94276 429.822725 
L 414.960779 428.350624 
L 415.639459 427.640055 
L 416.318138 427.159876 
L 416.996818 426.917825 
L 417.675498 426.917825 
L 418.354177 427.159876 
L 419.032857 427.640055 
L 419.711537 428.350624 
L 420.729556 429.822725 
L 421.747575 431.735057 
L 423.104935 434.854972 
L 424.801634 439.413296 
L 430.90975 456.528161 
L 432.606449 460.315663 
L 433.963809 462.867591 
L 435.321168 464.991303 
L 436.678527 466.710141 
L 438.035886 468.064281 
L 439.393246 469.103444 
L 440.750605 469.880659 
L 442.447304 470.561922 
L 444.144003 471.003834 
L 446.519382 471.356772 
L 449.57344 471.555325 
L 455.002877 471.643145 
L 460.432314 471.652339 
L 460.432314 471.652339 
" style="fill:none;stroke:#4bb062;stroke-linecap:square;"/>
   </g>
   <g id="line2d_29">
    <path clip-path="url(#p0025f0fb0e)" d="M 113.287686 471.652577 
L 125.164579 471.547561 
L 128.557978 471.303573 
L 130.933356 470.908919 
L 132.630055 470.427663 
L 134.326754 469.702721 
L 135.684114 468.892811 
L 137.041473 467.830555 
L 138.398832 466.473247 
L 139.756191 464.784756 
L 141.113551 462.741449 
L 142.47091 460.338555 
L 144.167609 456.862705 
L 146.203648 452.147914 
L 150.954405 440.886775 
L 152.311764 438.278255 
L 153.329784 436.67938 
L 154.347803 435.448576 
L 155.365823 434.629187 
L 156.044502 434.326651 
L 156.723182 434.225258 
L 157.401862 434.326651 
L 158.080541 434.629187 
L 158.759221 435.127974 
L 159.77724 436.225813 
L 160.79526 437.707577 
L 162.152619 440.190462 
L 163.849318 443.900291 
L 167.242716 452.147914 
L 169.618095 457.596202 
L 171.314794 460.972365 
L 173.011493 463.808269 
L 174.368852 465.672244 
L 175.726211 467.191261 
L 177.083571 468.395986 
L 178.44093 469.326526 
L 179.798289 470.026953 
L 181.494988 470.645189 
L 183.531027 471.110355 
L 185.906406 471.405442 
L 189.299804 471.581441 
L 196.0866 471.649558 
L 211.356892 471.571449 
L 215.08963 471.341063 
L 217.465008 470.982323 
L 219.161707 470.540978 
L 220.858406 469.870989 
L 222.215766 469.117208 
L 223.573125 468.122182 
L 224.930484 466.842377 
L 226.287843 465.239493 
L 227.645203 463.286182 
L 229.002562 460.972365 
L 230.699261 457.596202 
L 232.7353 452.963739 
L 238.164737 440.190462 
L 239.522096 437.707577 
L 240.540116 436.225813 
L 241.558135 435.127974 
L 242.236815 434.629187 
L 242.915494 434.326651 
L 243.594174 434.225258 
L 244.272854 434.326651 
L 244.951533 434.629187 
L 245.630213 435.127974 
L 246.648232 436.225813 
L 247.666252 437.707577 
L 249.023611 440.190462 
L 250.72031 443.900291 
L 254.113708 452.147914 
L 256.489087 457.596202 
L 258.185786 460.972365 
L 259.882485 463.808269 
L 261.239844 465.672244 
L 262.597203 467.191261 
L 263.954563 468.395986 
L 265.311922 469.326526 
L 266.669281 470.026953 
L 268.36598 470.645189 
L 270.402019 471.110355 
L 272.777398 471.405442 
L 276.170796 471.581441 
L 282.957592 471.649558 
L 298.227884 471.571449 
L 301.960622 471.341063 
L 304.336 470.982323 
L 306.032699 470.540978 
L 307.729398 469.870989 
L 309.086758 469.117208 
L 310.444117 468.122182 
L 311.801476 466.842377 
L 313.158835 465.239493 
L 314.516195 463.286182 
L 315.873554 460.972365 
L 317.570253 457.596202 
L 319.606292 452.963739 
L 325.035729 440.190462 
L 326.393088 437.707577 
L 327.411108 436.225813 
L 328.429127 435.127974 
L 329.107807 434.629187 
L 329.786486 434.326651 
L 330.465166 434.225258 
L 331.143846 434.326651 
L 331.822525 434.629187 
L 332.501205 435.127974 
L 333.519224 436.225813 
L 334.537244 437.707577 
L 335.894603 440.190462 
L 337.591302 443.900291 
L 340.9847 452.147914 
L 343.360079 457.596202 
L 345.056778 460.972365 
L 346.753477 463.808269 
L 348.110836 465.672244 
L 349.468195 467.191261 
L 350.825555 468.395986 
L 352.182914 469.326526 
L 353.540273 470.026953 
L 355.236972 470.645189 
L 357.273011 471.110355 
L 359.64839 471.405442 
L 363.041788 471.581441 
L 369.828584 471.649558 
L 385.098876 471.571449 
L 388.831614 471.341063 
L 391.206992 470.982323 
L 392.903691 470.540978 
L 394.60039 469.870989 
L 395.95775 469.117208 
L 397.315109 468.122182 
L 398.672468 466.842377 
L 400.029827 465.239493 
L 401.387187 463.286182 
L 402.744546 460.972365 
L 404.441245 457.596202 
L 406.477284 452.963739 
L 411.906721 440.190462 
L 413.26408 437.707577 
L 414.2821 436.225813 
L 415.300119 435.127974 
L 415.978799 434.629187 
L 416.657478 434.326651 
L 417.336158 434.225258 
L 418.014837 434.326651 
L 418.693517 434.629187 
L 419.372197 435.127974 
L 420.390216 436.225813 
L 421.408236 437.707577 
L 422.765595 440.190462 
L 424.462294 443.900291 
L 427.855692 452.147914 
L 430.231071 457.596202 
L 431.92777 460.972365 
L 433.624469 463.808269 
L 434.981828 465.672244 
L 436.339187 467.191261 
L 437.696547 468.395986 
L 439.053906 469.326526 
L 440.411265 470.026953 
L 442.107964 470.645189 
L 444.144003 471.110355 
L 446.519382 471.405442 
L 449.91278 471.581441 
L 456.699576 471.649558 
L 460.432314 471.652561 
L 460.432314 471.652561 
" style="fill:none;stroke:#2f974e;stroke-linecap:square;"/>
   </g>
   <g id="line2d_30">
    <path clip-path="url(#p0025f0fb0e)" d="M 113.287686 471.652935 
L 126.182599 471.548939 
L 129.575997 471.321898 
L 131.951376 470.967718 
L 133.987415 470.441114 
L 135.684114 469.775766 
L 137.380813 468.842302 
L 138.738172 467.864801 
L 140.095531 466.657048 
L 141.79223 464.804608 
L 143.488929 462.578405 
L 145.524968 459.489168 
L 151.633085 449.797998 
L 152.990444 448.200866 
L 154.008463 447.276532 
L 155.026483 446.623189 
L 156.044502 446.264166 
L 157.062522 446.212458 
L 158.080541 446.469948 
L 159.098561 447.027289 
L 160.11658 447.864472 
L 161.473939 449.36391 
L 162.831299 451.217186 
L 164.867337 454.427615 
L 169.278755 461.592993 
L 170.975454 463.957236 
L 172.672153 465.962186 
L 174.368852 467.585164 
L 176.065551 468.842302 
L 177.76225 469.775766 
L 179.458949 470.441114 
L 181.494988 470.967718 
L 183.870367 471.321898 
L 186.924425 471.535418 
L 192.014522 471.637087 
L 208.642173 471.634585 
L 214.41095 471.484836 
L 217.465008 471.197034 
L 219.840387 470.736079 
L 221.537086 470.20337 
L 223.233785 469.43783 
L 224.930484 468.381078 
L 226.287843 467.290811 
L 227.645203 465.962186 
L 229.341902 463.957236 
L 231.038601 461.592993 
L 233.41398 457.825662 
L 237.486057 451.217186 
L 239.182756 448.952012 
L 240.540116 447.555959 
L 241.558135 446.809218 
L 242.576154 446.350112 
L 243.594174 446.195199 
L 244.612193 446.350112 
L 245.630213 446.809218 
L 246.648232 447.555959 
L 247.666252 448.563842 
L 249.023611 450.252679 
L 250.72031 452.776072 
L 257.507106 463.511593 
L 259.203805 465.591663 
L 260.900504 467.290811 
L 262.597203 468.618386 
L 264.293902 469.6124 
L 265.990602 470.32666 
L 268.02664 470.896835 
L 270.402019 471.28412 
L 273.456077 471.520334 
L 278.206835 471.631735 
L 293.137787 471.646731 
L 300.603262 471.520334 
L 303.996661 471.242599 
L 306.372039 470.819759 
L 308.408078 470.20337 
L 310.104777 469.43783 
L 311.801476 468.381078 
L 313.158835 467.290811 
L 314.516195 465.962186 
L 316.212894 463.957236 
L 317.909593 461.592993 
L 320.284972 457.825662 
L 324.357049 451.217186 
L 326.053748 448.952012 
L 327.411108 447.555959 
L 328.429127 446.809218 
L 329.447146 446.350112 
L 330.465166 446.195199 
L 331.483185 446.350112 
L 332.501205 446.809218 
L 333.519224 447.555959 
L 334.537244 448.563842 
L 335.894603 450.252679 
L 337.591302 452.776072 
L 344.378098 463.511593 
L 346.074797 465.591663 
L 347.771496 467.290811 
L 349.468195 468.618386 
L 351.164894 469.6124 
L 352.861594 470.32666 
L 354.897632 470.896835 
L 357.273011 471.28412 
L 360.327069 471.520334 
L 365.077827 471.631735 
L 380.008779 471.646731 
L 387.474254 471.520334 
L 390.867653 471.242599 
L 393.243031 470.819759 
L 395.27907 470.20337 
L 396.975769 469.43783 
L 398.672468 468.381078 
L 400.029827 467.290811 
L 401.387187 465.962186 
L 403.083886 463.957236 
L 404.780585 461.592993 
L 407.155964 457.825662 
L 411.228041 451.217186 
L 412.92474 448.952012 
L 414.2821 447.555959 
L 415.300119 446.809218 
L 416.318138 446.350112 
L 417.336158 446.195199 
L 418.354177 446.350112 
L 419.372197 446.809218 
L 420.390216 447.555959 
L 421.408236 448.563842 
L 422.765595 450.252679 
L 424.462294 452.776072 
L 431.24909 463.511593 
L 432.945789 465.591663 
L 434.642488 467.290811 
L 436.339187 468.618386 
L 438.035886 469.6124 
L 439.732585 470.32666 
L 441.768624 470.896835 
L 444.144003 471.28412 
L 447.198061 471.520334 
L 451.948819 471.631735 
L 460.432314 471.652924 
L 460.432314 471.652924 
" style="fill:none;stroke:#157f3b;stroke-linecap:square;"/>
   </g>
   <g id="line2d_31">
    <path clip-path="url(#p0025f0fb0e)" d="M 113.287686 471.653268 
L 127.879298 471.547105 
L 131.612036 471.304681 
L 134.326754 470.907741 
L 136.362793 470.408111 
L 138.398832 469.672953 
L 140.095531 468.844976 
L 141.79223 467.80368 
L 143.828269 466.278817 
L 146.203648 464.195665 
L 150.954405 459.889971 
L 152.651104 458.674406 
L 154.008463 457.950782 
L 155.365823 457.497384 
L 156.383842 457.352644 
L 157.401862 457.38171 
L 158.419881 457.583524 
L 159.77724 458.107854 
L 161.1346 458.892604 
L 162.831299 460.165906 
L 165.206677 462.287041 
L 169.618095 466.278817 
L 171.654134 467.80368 
L 173.690173 469.027359 
L 175.726211 469.947485 
L 177.76225 470.598072 
L 180.137629 471.086896 
L 182.852347 471.396997 
L 186.585085 471.57873 
L 193.711221 471.649157 
L 213.73227 471.57873 
L 217.804348 471.368931 
L 220.519067 471.031711 
L 222.894445 470.506241 
L 224.930484 469.814089 
L 226.627183 469.027359 
L 228.323882 468.029182 
L 230.359921 466.552285 
L 232.7353 464.507595 
L 238.164737 459.623736 
L 239.861436 458.470369 
L 241.218795 457.810677 
L 242.576154 457.430022 
L 243.594174 457.342942 
L 244.612193 457.430022 
L 245.969553 457.810677 
L 247.326912 458.470369 
L 248.684271 459.368151 
L 250.38097 460.742996 
L 253.774368 463.880668 
L 256.489087 466.278817 
L 258.525126 467.80368 
L 260.561165 469.027359 
L 262.597203 469.947485 
L 264.633242 470.598072 
L 267.008621 471.086896 
L 269.723339 471.396997 
L 273.456077 471.57873 
L 280.582213 471.649157 
L 300.603262 471.57873 
L 304.67534 471.368931 
L 307.390059 471.031711 
L 309.765437 470.506241 
L 311.801476 469.814089 
L 313.498175 469.027359 
L 315.194874 468.029182 
L 317.230913 466.552285 
L 319.606292 464.507595 
L 325.035729 459.623736 
L 326.732428 458.470369 
L 328.089787 457.810677 
L 329.447146 457.430022 
L 330.465166 457.342942 
L 331.483185 457.430022 
L 332.840545 457.810677 
L 334.197904 458.470369 
L 335.555263 459.368151 
L 337.251962 460.742996 
L 340.64536 463.880668 
L 343.360079 466.278817 
L 345.396118 467.80368 
L 347.432157 469.027359 
L 349.468195 469.947485 
L 351.504234 470.598072 
L 353.879613 471.086896 
L 356.594331 471.396997 
L 360.327069 471.57873 
L 367.453205 471.649157 
L 387.474254 471.57873 
L 391.546332 471.368931 
L 394.261051 471.031711 
L 396.636429 470.506241 
L 398.672468 469.814089 
L 400.369167 469.027359 
L 402.065866 468.029182 
L 404.101905 466.552285 
L 406.477284 464.507595 
L 411.906721 459.623736 
L 413.60342 458.470369 
L 414.960779 457.810677 
L 416.318138 457.430022 
L 417.336158 457.342942 
L 418.354177 457.430022 
L 419.711537 457.810677 
L 421.068896 458.470369 
L 422.426255 459.368151 
L 424.122954 460.742996 
L 427.516352 463.880668 
L 430.231071 466.278817 
L 432.26711 467.80368 
L 434.303148 469.027359 
L 436.339187 469.947485 
L 438.375226 470.598072 
L 440.750605 471.086896 
L 443.465323 471.396997 
L 447.198061 471.57873 
L 454.324197 471.649157 
L 460.432314 471.653262 
L 460.432314 471.653262 
" style="fill:none;stroke:#006428;stroke-linecap:square;"/>
   </g>
   <g id="line2d_32">
    <path clip-path="url(#p0025f0fb0e)" d="M 113.287686 471.653472 
L 129.915337 471.545013 
L 133.987415 471.297105 
L 137.041473 470.888961 
L 139.416852 470.370676 
L 141.79223 469.639544 
L 144.506949 468.544929 
L 148.579026 466.58792 
L 151.633085 465.22646 
L 153.669124 464.567131 
L 155.365823 464.247761 
L 157.062522 464.172039 
L 158.759221 464.347532 
L 160.45592 464.756782 
L 162.491959 465.499453 
L 165.206677 466.75349 
L 169.957435 468.984871 
L 172.672153 469.97996 
L 175.047532 470.617462 
L 177.76225 471.101442 
L 180.816309 471.408455 
L 184.888386 471.583662 
L 192.693202 471.650021 
L 215.768309 471.57537 
L 220.179727 471.357172 
L 223.233785 471.002063 
L 225.948504 470.457239 
L 228.323882 469.757516 
L 230.699261 468.841805 
L 234.092659 467.254383 
L 238.164737 465.360171 
L 240.200776 464.657857 
L 241.897475 464.292825 
L 243.594174 464.166964 
L 245.290873 464.292825 
L 246.987572 464.657857 
L 249.023611 465.360171 
L 251.738329 466.58792 
L 257.167766 469.124092 
L 259.543145 469.97996 
L 261.918524 470.617462 
L 264.633242 471.101442 
L 267.687301 471.408455 
L 271.759378 471.583662 
L 279.564194 471.650021 
L 302.639301 471.57537 
L 307.050719 471.357172 
L 310.104777 471.002063 
L 312.819496 470.457239 
L 315.194874 469.757516 
L 317.570253 468.841805 
L 320.963651 467.254383 
L 325.035729 465.360171 
L 327.071768 464.657857 
L 328.768467 464.292825 
L 330.465166 464.166964 
L 332.161865 464.292825 
L 333.858564 464.657857 
L 335.894603 465.360171 
L 338.609321 466.58792 
L 344.038758 469.124092 
L 346.414137 469.97996 
L 348.789516 470.617462 
L 351.504234 471.101442 
L 354.558293 471.408455 
L 358.63037 471.583662 
L 366.435186 471.650021 
L 389.510293 471.57537 
L 393.921711 471.357172 
L 396.975769 471.002063 
L 399.690488 470.457239 
L 402.065866 469.757516 
L 404.441245 468.841805 
L 407.834643 467.254383 
L 411.906721 465.360171 
L 413.94276 464.657857 
L 415.639459 464.292825 
L 417.336158 464.166964 
L 419.032857 464.292825 
L 420.729556 464.657857 
L 422.765595 465.360171 
L 425.480313 466.58792 
L 430.90975 469.124092 
L 433.285129 469.97996 
L 435.660508 470.617462 
L 438.375226 471.101442 
L 441.429285 471.408455 
L 445.501362 471.583662 
L 453.306178 471.650021 
L 460.432314 471.653469 
L 460.432314 471.653469 
" style="fill:none;stroke:#00441b;stroke-linecap:square;"/>
   </g>
   <g id="line2d_33">
    <path clip-path="url(#p0025f0fb0e)" d="M 113.287686 81.306446 
L 460.432314 81.306446 
L 460.432314 81.306446 
" style="fill:none;stroke:#e3eef9;stroke-linecap:square;"/>
   </g>
   <g id="line2d_34">
    <path clip-path="url(#p0025f0fb0e)" d="M 113.287686 81.306446 
L 460.432314 81.306446 
L 460.432314 81.306446 
" style="fill:none;stroke:#d0e1f2;stroke-linecap:square;"/>
   </g>
   <g id="line2d_35">
    <path clip-path="url(#p0025f0fb0e)" d="M 113.287686 81.306446 
L 146.882327 81.412181 
L 159.098561 81.615979 
L 181.834328 81.306643 
L 233.753319 81.412181 
L 245.969553 81.615979 
L 268.70532 81.306643 
L 320.624311 81.412181 
L 332.840545 81.615979 
L 355.576312 81.306643 
L 407.495303 81.412181 
L 419.711537 81.615979 
L 442.447304 81.306643 
L 460.432314 81.306446 
L 460.432314 81.306446 
" style="fill:none;stroke:#b7d4ea;stroke-linecap:square;"/>
   </g>
   <g id="line2d_36">
    <path clip-path="url(#p0025f0fb0e)" d="M 113.287686 81.306446 
L 143.488929 81.408163 
L 148.918366 81.696997 
L 156.044502 82.102337 
L 159.4379 82.040152 
L 165.206677 81.649323 
L 170.636114 81.388321 
L 177.76225 81.310802 
L 225.609164 81.324176 
L 232.39596 81.489193 
L 238.843417 81.919912 
L 242.915494 82.102337 
L 246.308892 82.040152 
L 252.077669 81.649323 
L 257.507106 81.388321 
L 264.633242 81.310802 
L 312.480156 81.324176 
L 319.266952 81.489193 
L 325.714409 81.919912 
L 329.786486 82.102337 
L 333.179884 82.040152 
L 338.948661 81.649323 
L 344.378098 81.388321 
L 351.504234 81.310802 
L 399.351148 81.324176 
L 406.137944 81.489193 
L 412.5854 81.919912 
L 416.657478 82.102337 
L 420.050876 82.040152 
L 425.819653 81.649323 
L 431.24909 81.388321 
L 438.375226 81.310802 
L 460.432314 81.306446 
L 460.432314 81.306446 
" style="fill:none;stroke:#94c4df;stroke-linecap:square;"/>
   </g>
   <g id="line2d_37">
    <path clip-path="url(#p0025f0fb0e)" d="M 113.287686 81.306446 
L 142.13157 81.411203 
L 146.542988 81.685884 
L 157.062522 82.590338 
L 159.77724 82.458383 
L 164.188658 81.973455 
L 168.939415 81.528218 
L 173.350833 81.355996 
L 181.834328 81.307211 
L 228.323882 81.388958 
L 232.7353 81.627154 
L 237.486057 82.135056 
L 241.897475 82.549239 
L 244.612193 82.576489 
L 247.666252 82.364082 
L 257.507106 81.438011 
L 262.936543 81.322133 
L 281.600233 81.306446 
L 315.873554 81.411203 
L 320.284972 81.685884 
L 330.804506 82.590338 
L 333.519224 82.458383 
L 337.930642 81.973455 
L 342.681399 81.528218 
L 347.092817 81.355996 
L 355.576312 81.307211 
L 402.065866 81.388958 
L 406.477284 81.627154 
L 411.228041 82.135056 
L 415.639459 82.549239 
L 418.354177 82.576489 
L 421.408236 82.364082 
L 431.24909 81.438011 
L 436.678527 81.322133 
L 455.342217 81.306446 
L 460.432314 81.306446 
L 460.432314 81.306446 
" style="fill:none;stroke:#6aaed6;stroke-linecap:square;"/>
   </g>
   <g id="line2d_38">
    <path clip-path="url(#p0025f0fb0e)" d="M 113.287686 81.306446 
L 142.13157 81.417494 
L 146.203648 81.676734 
L 150.954405 82.227485 
L 155.026483 82.623834 
L 157.741201 82.652719 
L 160.79526 82.427569 
L 170.636114 81.445912 
L 175.726211 81.325829 
L 191.675183 81.306447 
L 229.002562 81.417494 
L 233.07464 81.676734 
L 237.825397 82.227485 
L 241.897475 82.623834 
L 244.612193 82.652719 
L 247.666252 82.427569 
L 257.507106 81.445912 
L 262.597203 81.325829 
L 278.546175 81.306447 
L 315.873554 81.417494 
L 319.945632 81.676734 
L 324.696389 82.227485 
L 328.768467 82.623834 
L 331.483185 82.652719 
L 334.537244 82.427569 
L 344.378098 81.445912 
L 349.468195 81.325829 
L 365.417167 81.306447 
L 402.744546 81.417494 
L 406.816624 81.676734 
L 411.567381 82.227485 
L 415.639459 82.623834 
L 418.354177 82.652719 
L 421.408236 82.427569 
L 431.24909 81.445912 
L 436.339187 81.325829 
L 452.288159 81.306447 
L 460.432314 81.306446 
L 460.432314 81.306446 
" style="fill:none;stroke:#4a98c9;stroke-linecap:square;"/>
   </g>
   <g id="line2d_39">
    <path clip-path="url(#p0025f0fb0e)" d="M 113.287686 81.306446 
L 143.149589 81.415261 
L 147.900347 81.687441 
L 156.044502 82.254111 
L 159.098561 82.198022 
L 163.509978 81.860388 
L 169.278755 81.455297 
L 174.708192 81.327559 
L 190.317823 81.306448 
L 230.020581 81.415261 
L 234.771339 81.687441 
L 242.915494 82.254111 
L 245.969553 82.198022 
L 250.38097 81.860388 
L 256.149747 81.455297 
L 261.579184 81.327559 
L 277.188815 81.306448 
L 316.891573 81.415261 
L 321.642331 81.687441 
L 329.786486 82.254111 
L 332.840545 82.198022 
L 337.251962 81.860388 
L 343.020739 81.455297 
L 348.450176 81.327559 
L 364.059807 81.306448 
L 403.762565 81.415261 
L 408.513323 81.687441 
L 416.657478 82.254111 
L 419.711537 82.198022 
L 424.122954 81.860388 
L 429.891731 81.455297 
L 435.321168 81.327559 
L 450.930799 81.306448 
L 460.432314 81.306446 
L 460.432314 81.306446 
" style="fill:none;stroke:#2e7ebc;stroke-linecap:square;"/>
   </g>
   <g id="line2d_40">
    <path clip-path="url(#p0025f0fb0e)" d="M 113.287686 81.306446 
L 145.864308 81.416408 
L 159.4379 81.710719 
L 178.10159 81.308472 
L 230.699261 81.368655 
L 238.504077 81.631423 
L 244.272854 81.744989 
L 249.702291 81.590594 
L 258.525126 81.338365 
L 271.759378 81.306485 
L 319.606292 81.416408 
L 333.179884 81.710719 
L 351.843574 81.308472 
L 404.441245 81.368655 
L 412.246061 81.631423 
L 418.014837 81.744989 
L 423.444274 81.590594 
L 432.26711 81.338365 
L 445.501362 81.306485 
L 460.432314 81.306446 
L 460.432314 81.306446 
" style="fill:none;stroke:#1764ab;stroke-linecap:square;"/>
   </g>
   <g id="line2d_41">
    <path clip-path="url(#p0025f0fb0e)" d="M 113.287686 81.306446 
L 152.311764 81.417246 
L 161.473939 81.413262 
L 179.11961 81.306825 
L 238.164737 81.404914 
L 248.005591 81.417246 
L 266.669281 81.30671 
L 325.375069 81.409142 
L 334.876583 81.417246 
L 353.540273 81.30671 
L 412.246061 81.409142 
L 421.747575 81.417246 
L 440.411265 81.30671 
L 460.432314 81.306446 
L 460.432314 81.306446 
" style="fill:none;stroke:#084a91;stroke-linecap:square;"/>
   </g>
   <g id="line2d_42">
    <path clip-path="url(#p0025f0fb0e)" d="M 113.287686 81.306446 
L 460.432314 81.306446 
L 460.432314 81.306446 
" style="fill:none;stroke:#08306b;stroke-linecap:square;"/>
   </g>
   <g id="line2d_43">
    <path clip-path="url(#p0025f0fb0e)" d="M 113.287686 471.653554 
L 131.272696 471.548729 
L 135.684114 471.302458 
L 139.077512 470.892739 
L 142.13157 470.294825 
L 145.524968 469.378518 
L 152.651104 467.335177 
L 155.026483 466.972231 
L 157.062522 466.895416 
L 159.098561 467.047806 
L 161.473939 467.484808 
L 164.527998 468.327511 
L 170.975454 470.214193 
L 174.029512 470.837685 
L 177.083571 471.239252 
L 180.816309 471.497721 
L 186.245746 471.62561 
L 201.176697 471.653535 
L 218.143688 471.548729 
L 222.555106 471.302458 
L 225.948504 470.892739 
L 229.002562 470.294825 
L 232.39596 469.378518 
L 239.522096 467.335177 
L 241.897475 466.972231 
L 243.933514 466.895416 
L 245.969553 467.047806 
L 248.344931 467.484808 
L 251.39899 468.327511 
L 257.846446 470.214193 
L 260.900504 470.837685 
L 263.954563 471.239252 
L 267.687301 471.497721 
L 273.116738 471.62561 
L 288.047689 471.653535 
L 305.01468 471.548729 
L 309.426098 471.302458 
L 312.819496 470.892739 
L 315.873554 470.294825 
L 319.266952 469.378518 
L 326.393088 467.335177 
L 328.768467 466.972231 
L 330.804506 466.895416 
L 332.840545 467.047806 
L 335.215923 467.484808 
L 338.269982 468.327511 
L 344.717438 470.214193 
L 347.771496 470.837685 
L 350.825555 471.239252 
L 354.558293 471.497721 
L 359.98773 471.62561 
L 374.918681 471.653535 
L 391.885672 471.548729 
L 396.29709 471.302458 
L 399.690488 470.892739 
L 402.744546 470.294825 
L 406.137944 469.378518 
L 413.26408 467.335177 
L 415.639459 466.972231 
L 417.675498 466.895416 
L 419.711537 467.047806 
L 422.086915 467.484808 
L 425.140974 468.327511 
L 431.58843 470.214193 
L 434.642488 470.837685 
L 437.696547 471.239252 
L 441.429285 471.497721 
L 446.858722 471.62561 
L 460.432314 471.653552 
L 460.432314 471.653552 
" style="fill:none;stroke:#fee5d8;stroke-linecap:square;"/>
   </g>
   <g id="line2d_44">
    <path clip-path="url(#p0025f0fb0e)" d="M 113.287686 471.653437 
L 129.236657 471.552493 
L 133.308735 471.31066 
L 136.362793 470.89985 
L 138.738172 470.364701 
L 141.113551 469.591378 
L 143.488929 468.566279 
L 146.203648 467.140086 
L 151.293745 464.373408 
L 153.329784 463.561089 
L 155.026483 463.138895 
L 156.383842 462.999196 
L 157.741201 463.046015 
L 159.4379 463.361113 
L 161.1346 463.930998 
L 163.170638 464.873741 
L 166.564036 466.757426 
L 169.957435 468.566279 
L 172.332813 469.591378 
L 174.708192 470.364701 
L 177.083571 470.89985 
L 179.798289 471.277262 
L 183.191687 471.513839 
L 188.621124 471.632061 
L 205.588115 471.651939 
L 216.446989 471.540817 
L 220.519067 471.277262 
L 223.233785 470.89985 
L 225.609164 470.364701 
L 227.984543 469.591378 
L 230.359921 468.566279 
L 233.07464 467.140086 
L 238.164737 464.373408 
L 240.200776 463.561089 
L 241.897475 463.138895 
L 243.254834 462.999196 
L 244.612193 463.046015 
L 246.308892 463.361113 
L 248.005591 463.930998 
L 250.04163 464.873741 
L 253.435028 466.757426 
L 256.828427 468.566279 
L 259.203805 469.591378 
L 261.579184 470.364701 
L 263.954563 470.89985 
L 266.669281 471.277262 
L 270.062679 471.513839 
L 275.492116 471.632061 
L 292.459107 471.651939 
L 303.317981 471.540817 
L 307.390059 471.277262 
L 310.104777 470.89985 
L 312.480156 470.364701 
L 314.855535 469.591378 
L 317.230913 468.566279 
L 319.945632 467.140086 
L 325.035729 464.373408 
L 327.071768 463.561089 
L 328.768467 463.138895 
L 330.125826 462.999196 
L 331.483185 463.046015 
L 333.179884 463.361113 
L 334.876583 463.930998 
L 336.912622 464.873741 
L 340.30602 466.757426 
L 343.699419 468.566279 
L 346.074797 469.591378 
L 348.450176 470.364701 
L 350.825555 470.89985 
L 353.540273 471.277262 
L 356.933671 471.513839 
L 362.363108 471.632061 
L 379.330099 471.651939 
L 390.188973 471.540817 
L 394.261051 471.277262 
L 396.975769 470.89985 
L 399.351148 470.364701 
L 401.726527 469.591378 
L 404.101905 468.566279 
L 406.816624 467.140086 
L 411.906721 464.373408 
L 413.94276 463.561089 
L 415.639459 463.138895 
L 416.996818 462.999196 
L 418.354177 463.046015 
L 420.050876 463.361113 
L 421.747575 463.930998 
L 423.783614 464.873741 
L 427.177012 466.757426 
L 430.570411 468.566279 
L 432.945789 469.591378 
L 435.321168 470.364701 
L 437.696547 470.89985 
L 440.411265 471.277262 
L 443.804663 471.513839 
L 449.2341 471.632061 
L 460.432314 471.653433 
L 460.432314 471.653433 
" style="fill:none;stroke:#fdcab5;stroke-linecap:square;"/>
   </g>
   <g id="line2d_45">
    <path clip-path="url(#p0025f0fb0e)" d="M 113.287686 471.653216 
L 127.539958 471.547098 
L 131.272696 471.299412 
L 133.987415 470.888219 
L 136.023453 470.365071 
L 138.059492 469.587771 
L 139.756191 468.704267 
L 141.45289 467.583329 
L 143.149589 466.223688 
L 145.185628 464.316031 
L 151.972425 457.585669 
L 153.329784 456.639762 
L 154.687143 455.974118 
L 155.705163 455.684532 
L 156.723182 455.586821 
L 157.741201 455.684532 
L 158.759221 455.974118 
L 160.11658 456.639762 
L 161.473939 457.585669 
L 163.170638 459.074425 
L 165.885357 461.85203 
L 169.278755 465.302866 
L 171.314794 467.06734 
L 173.011493 468.284986 
L 174.708192 469.261861 
L 176.404891 470.012081 
L 178.44093 470.654432 
L 180.816309 471.127249 
L 183.531027 471.420391 
L 187.603105 471.595204 
L 195.74726 471.651627 
L 214.07161 471.558899 
L 217.804348 471.333896 
L 220.519067 470.955188 
L 222.555106 470.4682 
L 224.591144 469.737576 
L 226.287843 468.899521 
L 227.984543 467.826923 
L 229.681242 466.513906 
L 231.71728 464.651441 
L 234.771339 461.493401 
L 237.486057 458.754905 
L 239.182756 457.325819 
L 240.540116 456.445151 
L 241.897475 455.856777 
L 242.915494 455.630322 
L 243.933514 455.597708 
L 244.951533 455.760119 
L 245.969553 456.111672 
L 247.326912 456.851966 
L 248.684271 457.859525 
L 250.38097 459.402658 
L 253.435028 462.568809 
L 256.489087 465.617783 
L 258.525126 467.330099 
L 260.221825 468.499452 
L 261.918524 469.429273 
L 263.615223 470.137302 
L 265.651262 470.738137 
L 268.02664 471.175906 
L 270.741359 471.444239 
L 274.813437 471.602031 
L 283.636272 471.652383 
L 300.942602 471.558899 
L 304.67534 471.333896 
L 307.390059 470.955188 
L 309.426098 470.4682 
L 311.462136 469.737576 
L 313.158835 468.899521 
L 314.855535 467.826923 
L 316.552234 466.513906 
L 318.588272 464.651441 
L 321.642331 461.493401 
L 324.357049 458.754905 
L 326.053748 457.325819 
L 327.411108 456.445151 
L 328.768467 455.856777 
L 329.786486 455.630322 
L 330.804506 455.597708 
L 331.822525 455.760119 
L 332.840545 456.111672 
L 334.197904 456.851966 
L 335.555263 457.859525 
L 337.251962 459.402658 
L 340.30602 462.568809 
L 343.360079 465.617783 
L 345.396118 467.330099 
L 347.092817 468.499452 
L 348.789516 469.429273 
L 350.486215 470.137302 
L 352.522254 470.738137 
L 354.897632 471.175906 
L 357.612351 471.444239 
L 361.684429 471.602031 
L 370.507264 471.652383 
L 387.813594 471.558899 
L 391.546332 471.333896 
L 394.261051 470.955188 
L 396.29709 470.4682 
L 398.333128 469.737576 
L 400.029827 468.899521 
L 401.726527 467.826923 
L 403.423226 466.513906 
L 405.459264 464.651441 
L 408.513323 461.493401 
L 411.228041 458.754905 
L 412.92474 457.325819 
L 414.2821 456.445151 
L 415.639459 455.856777 
L 416.657478 455.630322 
L 417.675498 455.597708 
L 418.693517 455.760119 
L 419.711537 456.111672 
L 421.068896 456.851966 
L 422.426255 457.859525 
L 424.122954 459.402658 
L 427.177012 462.568809 
L 430.231071 465.617783 
L 432.26711 467.330099 
L 433.963809 468.499452 
L 435.660508 469.429273 
L 437.357207 470.137302 
L 439.393246 470.738137 
L 441.768624 471.175906 
L 444.483343 471.444239 
L 448.555421 471.602031 
L 457.378256 471.652383 
L 460.432314 471.653209 
L 460.432314 471.653209 
" style="fill:none;stroke:#fcab8f;stroke-linecap:square;"/>
   </g>
   <g id="line2d_46">
    <path clip-path="url(#p0025f0fb0e)" d="M 113.287686 471.652949 
L 126.182599 471.550831 
L 129.575997 471.327889 
L 131.951376 470.980105 
L 133.987415 470.463011 
L 135.684114 469.809681 
L 137.380813 468.893089 
L 138.738172 467.933271 
L 140.095531 466.747399 
L 141.79223 464.928611 
L 143.488929 462.743047 
L 145.524968 459.71068 
L 151.633085 450.203444 
L 152.990444 448.637697 
L 154.008463 447.731696 
L 155.026483 447.091389 
L 156.044502 446.739557 
L 157.062522 446.688887 
L 158.080541 446.941215 
L 159.098561 447.487419 
L 160.11658 448.307961 
L 161.473939 449.777851 
L 162.831299 451.595035 
L 164.867337 454.74395 
L 169.618095 462.265469 
L 171.314794 464.519932 
L 173.011493 466.413819 
L 174.708192 467.933271 
L 176.404891 469.100202 
L 178.10159 469.959557 
L 179.798289 470.56718 
L 181.834328 471.044017 
L 184.209707 471.361589 
L 187.603105 471.562713 
L 193.711221 471.645766 
L 211.356892 471.598763 
L 215.768309 471.392158 
L 218.483028 471.044017 
L 220.519067 470.56718 
L 222.215766 469.959557 
L 223.912465 469.100202 
L 225.269824 468.193671 
L 226.627183 467.065972 
L 228.323882 465.322474 
L 230.020581 463.2078 
L 232.05662 460.24104 
L 235.450018 454.74395 
L 237.825397 451.113669 
L 239.182756 449.374038 
L 240.540116 448.005568 
L 241.558135 447.2737 
L 242.576154 446.82378 
L 243.594174 446.671974 
L 244.612193 446.82378 
L 245.630213 447.2737 
L 246.648232 448.005568 
L 247.666252 448.993509 
L 249.023611 450.649255 
L 250.72031 453.123901 
L 257.846446 464.096679 
L 259.543145 466.065146 
L 261.239844 467.658697 
L 262.936543 468.893089 
L 264.633242 469.809681 
L 266.329941 470.463011 
L 268.36598 470.980105 
L 270.741359 471.327889 
L 273.795417 471.537554 
L 279.224854 471.63954 
L 296.531185 471.625337 
L 301.621282 471.467497 
L 304.67534 471.156252 
L 306.711379 470.752649 
L 308.408078 470.229561 
L 310.104777 469.477852 
L 311.801476 468.440207 
L 313.158835 467.369675 
L 314.516195 466.065146 
L 316.212894 464.096679 
L 317.909593 461.775708 
L 320.284972 458.078085 
L 324.357049 451.595035 
L 326.053748 449.374038 
L 327.411108 448.005568 
L 328.429127 447.2737 
L 329.447146 446.82378 
L 330.465166 446.671974 
L 331.483185 446.82378 
L 332.501205 447.2737 
L 333.519224 448.005568 
L 334.537244 448.993509 
L 335.894603 450.649255 
L 337.591302 453.123901 
L 344.717438 464.096679 
L 346.414137 466.065146 
L 348.110836 467.658697 
L 349.807535 468.893089 
L 351.504234 469.809681 
L 353.200933 470.463011 
L 355.236972 470.980105 
L 357.612351 471.327889 
L 360.666409 471.537554 
L 366.095846 471.63954 
L 383.402177 471.625337 
L 388.492274 471.467497 
L 391.546332 471.156252 
L 393.582371 470.752649 
L 395.27907 470.229561 
L 396.975769 469.477852 
L 398.672468 468.440207 
L 400.029827 467.369675 
L 401.387187 466.065146 
L 403.083886 464.096679 
L 404.780585 461.775708 
L 407.155964 458.078085 
L 411.228041 451.595035 
L 412.92474 449.374038 
L 414.2821 448.005568 
L 415.300119 447.2737 
L 416.318138 446.82378 
L 417.336158 446.671974 
L 418.354177 446.82378 
L 419.372197 447.2737 
L 420.390216 448.005568 
L 421.408236 448.993509 
L 422.765595 450.649255 
L 424.462294 453.123901 
L 431.58843 464.096679 
L 433.285129 466.065146 
L 434.981828 467.658697 
L 436.678527 468.893089 
L 438.375226 469.809681 
L 440.071925 470.463011 
L 442.107964 470.980105 
L 444.483343 471.327889 
L 447.537401 471.537554 
L 452.966838 471.63954 
L 460.432314 471.652938 
L 460.432314 471.652938 
" style="fill:none;stroke:#fc8a6a;stroke-linecap:square;"/>
   </g>
   <g id="line2d_47">
    <path clip-path="url(#p0025f0fb0e)" d="M 113.287686 471.652749 
L 125.503919 471.551822 
L 128.897317 471.322158 
L 131.272696 470.955116 
L 133.308735 470.398577 
L 135.005434 469.683348 
L 136.362793 468.895498 
L 137.720152 467.875523 
L 139.077512 466.589493 
L 140.434871 465.011492 
L 141.79223 463.128904 
L 143.488929 460.358715 
L 145.524968 456.515577 
L 151.633085 444.470619 
L 152.990444 442.487761 
L 154.008463 441.340532 
L 155.026483 440.529799 
L 156.044502 440.084345 
L 156.723182 439.99878 
L 157.401862 440.084345 
L 158.080541 440.339662 
L 159.098561 441.031231 
L 160.11658 442.070218 
L 161.1346 443.420227 
L 162.491959 445.623451 
L 164.188658 448.843928 
L 170.296774 460.947771 
L 171.993473 463.628142 
L 173.690173 465.838153 
L 175.047532 467.267633 
L 176.404891 468.416776 
L 177.76225 469.316138 
L 179.458949 470.144327 
L 181.155648 470.711587 
L 183.191687 471.14198 
L 185.906406 471.443506 
L 189.639144 471.600025 
L 197.783299 471.652016 
L 212.374911 471.551822 
L 215.768309 471.322158 
L 218.143688 470.955116 
L 220.179727 470.398577 
L 221.876426 469.683348 
L 223.233785 468.895498 
L 224.591144 467.875523 
L 225.948504 466.589493 
L 227.305863 465.011492 
L 228.663222 463.128904 
L 230.359921 460.358715 
L 232.39596 456.515577 
L 238.504077 444.470619 
L 239.861436 442.487761 
L 240.879455 441.340532 
L 241.897475 440.529799 
L 242.915494 440.084345 
L 243.594174 439.99878 
L 244.272854 440.084345 
L 244.951533 440.339662 
L 245.969553 441.031231 
L 246.987572 442.070218 
L 248.005591 443.420227 
L 249.362951 445.623451 
L 251.05965 448.843928 
L 257.167766 460.947771 
L 258.864465 463.628142 
L 260.561165 465.838153 
L 261.918524 467.267633 
L 263.275883 468.416776 
L 264.633242 469.316138 
L 266.329941 470.144327 
L 268.02664 470.711587 
L 270.062679 471.14198 
L 272.777398 471.443506 
L 276.510136 471.600025 
L 284.654291 471.652016 
L 299.245903 471.551822 
L 302.639301 471.322158 
L 305.01468 470.955116 
L 307.050719 470.398577 
L 308.747418 469.683348 
L 310.104777 468.895498 
L 311.462136 467.875523 
L 312.819496 466.589493 
L 314.176855 465.011492 
L 315.534214 463.128904 
L 317.230913 460.358715 
L 319.266952 456.515577 
L 325.375069 444.470619 
L 326.732428 442.487761 
L 327.750447 441.340532 
L 328.768467 440.529799 
L 329.786486 440.084345 
L 330.465166 439.99878 
L 331.143846 440.084345 
L 331.822525 440.339662 
L 332.840545 441.031231 
L 333.858564 442.070218 
L 334.876583 443.420227 
L 336.233943 445.623451 
L 337.930642 448.843928 
L 344.038758 460.947771 
L 345.735457 463.628142 
L 347.432157 465.838153 
L 348.789516 467.267633 
L 350.146875 468.416776 
L 351.504234 469.316138 
L 353.200933 470.144327 
L 354.897632 470.711587 
L 356.933671 471.14198 
L 359.64839 471.443506 
L 363.381128 471.600025 
L 371.525283 471.652016 
L 386.116895 471.551822 
L 389.510293 471.322158 
L 391.885672 470.955116 
L 393.921711 470.398577 
L 395.61841 469.683348 
L 396.975769 468.895498 
L 398.333128 467.875523 
L 399.690488 466.589493 
L 401.047847 465.011492 
L 402.405206 463.128904 
L 404.101905 460.358715 
L 406.137944 456.515577 
L 412.246061 444.470619 
L 413.60342 442.487761 
L 414.621439 441.340532 
L 415.639459 440.529799 
L 416.657478 440.084345 
L 417.336158 439.99878 
L 418.014837 440.084345 
L 418.693517 440.339662 
L 419.711537 441.031231 
L 420.729556 442.070218 
L 421.747575 443.420227 
L 423.104935 445.623451 
L 424.801634 448.843928 
L 430.90975 460.947771 
L 432.606449 463.628142 
L 434.303148 465.838153 
L 435.660508 467.267633 
L 437.017867 468.416776 
L 438.375226 469.316138 
L 440.071925 470.144327 
L 441.768624 470.711587 
L 443.804663 471.14198 
L 446.519382 471.443506 
L 450.25212 471.600025 
L 458.396275 471.652016 
L 460.432314 471.652735 
L 460.432314 471.652735 
" style="fill:none;stroke:#fb694a;stroke-linecap:square;"/>
   </g>
   <g id="line2d_48">
    <path clip-path="url(#p0025f0fb0e)" d="M 113.287686 471.652721 
L 125.503919 471.548808 
L 128.897317 471.312348 
L 131.272696 470.934445 
L 132.969395 470.477687 
L 134.666094 469.794977 
L 136.023453 469.037606 
L 137.380813 468.050686 
L 138.738172 466.798001 
L 140.095531 465.250317 
L 141.45289 463.3907 
L 143.149589 460.631064 
L 144.846289 457.440432 
L 147.561007 451.761351 
L 150.275726 446.129663 
L 151.972425 443.112765 
L 153.329784 441.196594 
L 154.347803 440.127054 
L 155.365823 439.415157 
L 156.044502 439.152336 
L 156.723182 439.064256 
L 157.401862 439.152336 
L 158.080541 439.415157 
L 159.098561 440.127054 
L 160.11658 441.196594 
L 161.1346 442.586319 
L 162.491959 444.854406 
L 164.188658 448.169787 
L 170.296774 460.631064 
L 171.993473 463.3907 
L 173.350833 465.250317 
L 174.708192 466.798001 
L 176.065551 468.050686 
L 177.42291 469.037606 
L 178.78027 469.794977 
L 180.476969 470.477687 
L 182.173668 470.934445 
L 184.549047 471.312348 
L 187.603105 471.534949 
L 192.693202 471.637682 
L 208.642173 471.629203 
L 214.07161 471.461243 
L 216.786329 471.180051 
L 218.822368 470.774553 
L 220.519067 470.235621 
L 222.215766 469.44258 
L 223.573125 468.575209 
L 224.930484 467.459615 
L 226.287843 466.062447 
L 227.645203 464.359924 
L 229.002562 462.343364 
L 230.699261 459.401397 
L 232.7353 455.365866 
L 238.164737 444.248876 
L 239.522096 442.090248 
L 240.540116 440.802428 
L 241.558135 439.848498 
L 242.576154 439.262103 
L 243.254834 439.086299 
L 243.933514 439.086299 
L 244.612193 439.262103 
L 245.290873 439.610883 
L 246.308892 440.445449 
L 247.326912 441.626418 
L 248.684271 443.667629 
L 250.04163 446.129663 
L 252.077669 450.309094 
L 256.149747 458.76232 
L 257.846446 461.79102 
L 259.543145 464.359924 
L 260.900504 466.062447 
L 262.257864 467.459615 
L 263.615223 468.575209 
L 264.972582 469.44258 
L 266.669281 470.235621 
L 268.36598 470.774553 
L 270.402019 471.180051 
L 273.116738 471.461243 
L 277.188815 471.611335 
L 286.69033 471.652707 
L 299.245903 471.548808 
L 302.639301 471.312348 
L 305.01468 470.934445 
L 306.711379 470.477687 
L 308.408078 469.794977 
L 309.765437 469.037606 
L 311.122797 468.050686 
L 312.480156 466.798001 
L 313.837515 465.250317 
L 315.194874 463.3907 
L 316.891573 460.631064 
L 318.588272 457.440432 
L 321.302991 451.761351 
L 324.017709 446.129663 
L 325.714409 443.112765 
L 327.071768 441.196594 
L 328.089787 440.127054 
L 329.107807 439.415157 
L 329.786486 439.152336 
L 330.465166 439.064256 
L 331.143846 439.152336 
L 331.822525 439.415157 
L 332.840545 440.127054 
L 333.858564 441.196594 
L 334.876583 442.586319 
L 336.233943 444.854406 
L 337.930642 448.169787 
L 344.038758 460.631064 
L 345.735457 463.3907 
L 347.092817 465.250317 
L 348.450176 466.798001 
L 349.807535 468.050686 
L 351.164894 469.037606 
L 352.522254 469.794977 
L 354.218953 470.477687 
L 355.915652 470.934445 
L 358.291031 471.312348 
L 361.345089 471.534949 
L 366.435186 471.637682 
L 382.384157 471.629203 
L 387.813594 471.461243 
L 390.528313 471.180051 
L 392.564352 470.774553 
L 394.261051 470.235621 
L 395.95775 469.44258 
L 397.315109 468.575209 
L 398.672468 467.459615 
L 400.029827 466.062447 
L 401.387187 464.359924 
L 402.744546 462.343364 
L 404.441245 459.401397 
L 406.477284 455.365866 
L 411.906721 444.248876 
L 413.26408 442.090248 
L 414.2821 440.802428 
L 415.300119 439.848498 
L 416.318138 439.262103 
L 416.996818 439.086299 
L 417.675498 439.086299 
L 418.354177 439.262103 
L 419.032857 439.610883 
L 420.050876 440.445449 
L 421.068896 441.626418 
L 422.426255 443.667629 
L 423.783614 446.129663 
L 425.819653 450.309094 
L 429.891731 458.76232 
L 431.58843 461.79102 
L 433.285129 464.359924 
L 434.642488 466.062447 
L 435.999848 467.459615 
L 437.357207 468.575209 
L 438.714566 469.44258 
L 440.411265 470.235621 
L 442.107964 470.774553 
L 444.144003 471.180051 
L 446.858722 471.461243 
L 450.930799 471.611335 
L 460.432314 471.652707 
L 460.432314 471.652707 
" style="fill:none;stroke:#f14432;stroke-linecap:square;"/>
   </g>
   <g id="line2d_49">
    <path clip-path="url(#p0025f0fb0e)" d="M 113.287686 471.652881 
L 126.182599 471.541447 
L 129.575997 471.298167 
L 131.951376 470.918656 
L 133.987415 470.35439 
L 135.684114 469.641461 
L 137.380813 468.641255 
L 138.738172 467.593883 
L 140.095531 466.299844 
L 141.45289 464.74496 
L 143.149589 462.437452 
L 145.185628 459.200247 
L 148.579026 453.202443 
L 150.954405 449.24186 
L 152.311764 447.344076 
L 153.669124 445.85126 
L 154.687143 445.052915 
L 155.705163 444.562137 
L 156.723182 444.396547 
L 157.741201 444.562137 
L 158.759221 445.052915 
L 159.77724 445.85126 
L 160.79526 446.928964 
L 162.152619 448.735216 
L 163.849318 451.434952 
L 170.975454 463.40738 
L 172.672153 465.555364 
L 174.368852 467.294264 
L 175.726211 468.401332 
L 177.42291 469.466413 
L 179.11961 470.23175 
L 180.816309 470.760115 
L 182.852347 471.164372 
L 185.567066 471.450511 
L 189.639144 471.607494 
L 198.801319 471.652687 
L 212.714251 471.554413 
L 216.107649 471.334941 
L 218.483028 470.988398 
L 220.519067 470.468062 
L 222.215766 469.805009 
L 223.912465 468.867261 
L 225.269824 467.878036 
L 226.627183 466.647474 
L 227.984543 465.158392 
L 229.681242 462.929977 
L 231.377941 460.327895 
L 233.753319 456.235781 
L 237.486057 449.767003 
L 239.182756 447.344076 
L 240.540116 445.85126 
L 241.558135 445.052915 
L 242.576154 444.562137 
L 243.594174 444.396547 
L 244.612193 444.562137 
L 245.630213 445.052915 
L 246.648232 445.85126 
L 247.666252 446.928964 
L 249.023611 448.735216 
L 250.72031 451.434952 
L 257.846446 463.40738 
L 259.543145 465.555364 
L 261.239844 467.294264 
L 262.597203 468.401332 
L 264.293902 469.466413 
L 265.990602 470.23175 
L 267.687301 470.760115 
L 269.723339 471.164372 
L 272.438058 471.450511 
L 276.510136 471.607494 
L 285.672311 471.652687 
L 299.585243 471.554413 
L 302.978641 471.334941 
L 305.35402 470.988398 
L 307.390059 470.468062 
L 309.086758 469.805009 
L 310.783457 468.867261 
L 312.140816 467.878036 
L 313.498175 466.647474 
L 314.855535 465.158392 
L 316.552234 462.929977 
L 318.248933 460.327895 
L 320.624311 456.235781 
L 324.357049 449.767003 
L 326.053748 447.344076 
L 327.411108 445.85126 
L 328.429127 445.052915 
L 329.447146 444.562137 
L 330.465166 444.396547 
L 331.483185 444.562137 
L 332.501205 445.052915 
L 333.519224 445.85126 
L 334.537244 446.928964 
L 335.894603 448.735216 
L 337.591302 451.434952 
L 344.717438 463.40738 
L 346.414137 465.555364 
L 348.110836 467.294264 
L 349.468195 468.401332 
L 351.164894 469.466413 
L 352.861594 470.23175 
L 354.558293 470.760115 
L 356.594331 471.164372 
L 359.30905 471.450511 
L 363.381128 471.607494 
L 372.543303 471.652687 
L 386.456235 471.554413 
L 389.849633 471.334941 
L 392.225012 470.988398 
L 394.261051 470.468062 
L 395.95775 469.805009 
L 397.654449 468.867261 
L 399.011808 467.878036 
L 400.369167 466.647474 
L 401.726527 465.158392 
L 403.423226 462.929977 
L 405.119925 460.327895 
L 407.495303 456.235781 
L 411.228041 449.767003 
L 412.92474 447.344076 
L 414.2821 445.85126 
L 415.300119 445.052915 
L 416.318138 444.562137 
L 417.336158 444.396547 
L 418.354177 444.562137 
L 419.372197 445.052915 
L 420.390216 445.85126 
L 421.408236 446.928964 
L 422.765595 448.735216 
L 424.462294 451.434952 
L 431.58843 463.40738 
L 433.285129 465.555364 
L 434.981828 467.294264 
L 436.339187 468.401332 
L 438.035886 469.466413 
L 439.732585 470.23175 
L 441.429285 470.760115 
L 443.465323 471.164372 
L 446.180042 471.450511 
L 450.25212 471.607494 
L 459.414295 471.652687 
L 460.432314 471.652869 
L 460.432314 471.652869 
" style="fill:none;stroke:#d92523;stroke-linecap:square;"/>
   </g>
   <g id="line2d_50">
    <path clip-path="url(#p0025f0fb0e)" d="M 113.287686 471.653141 
L 127.200618 471.544248 
L 130.933356 471.284472 
L 133.308735 470.918789 
L 135.344774 470.396233 
L 137.041473 469.758379 
L 138.738172 468.89222 
L 140.434871 467.764384 
L 142.13157 466.358581 
L 143.828269 464.685054 
L 146.203648 461.984679 
L 150.954405 456.404854 
L 152.651104 454.830096 
L 154.008463 453.892774 
L 155.026483 453.417098 
L 156.044502 453.155717 
L 157.062522 453.118073 
L 158.080541 453.305532 
L 159.098561 453.711306 
L 160.11658 454.320855 
L 161.473939 455.412694 
L 163.170638 457.131197 
L 165.546017 459.923618 
L 169.278755 464.321483 
L 171.314794 466.358581 
L 173.011493 467.764384 
L 174.708192 468.89222 
L 176.404891 469.758379 
L 178.10159 470.396233 
L 180.137629 470.918789 
L 182.513008 471.284472 
L 185.567066 471.515491 
L 190.657163 471.632646 
L 206.606134 471.64781 
L 214.75029 471.515491 
L 218.143688 471.244659 
L 220.519067 470.847237 
L 222.555106 470.284988 
L 224.251805 469.604649 
L 225.948504 468.688415 
L 227.645203 467.505573 
L 229.341902 466.0444 
L 231.377941 463.949404 
L 234.092659 460.751822 
L 237.486057 456.762361 
L 239.182756 455.112751 
L 240.540116 454.096223 
L 241.558135 453.552537 
L 242.576154 453.218288 
L 243.594174 453.105508 
L 244.612193 453.218288 
L 245.630213 453.552537 
L 246.648232 454.096223 
L 248.005591 455.112751 
L 249.362951 456.404854 
L 251.39899 458.694394 
L 256.828427 465.039576 
L 258.864465 466.954302 
L 260.561165 468.248457 
L 262.257864 469.268496 
L 263.954563 470.038689 
L 265.990602 470.6865 
L 268.02664 471.102065 
L 270.741359 471.411868 
L 274.474097 471.586165 
L 281.939573 471.65046 
L 300.263923 471.567491 
L 303.996661 471.354072 
L 306.711379 470.984901 
L 308.747418 470.500001 
L 310.444117 469.902951 
L 312.140816 469.085503 
L 313.837515 468.011991 
L 315.534214 466.661942 
L 317.230913 465.039576 
L 319.266952 462.788462 
L 325.375069 455.728806 
L 326.732428 454.565794 
L 328.089787 453.711306 
L 329.107807 453.305532 
L 330.125826 453.118073 
L 331.143846 453.155717 
L 332.161865 453.417098 
L 333.179884 453.892774 
L 334.537244 454.830096 
L 335.894603 456.059926 
L 337.591302 457.897774 
L 344.717438 466.0444 
L 346.414137 467.505573 
L 348.110836 468.688415 
L 349.807535 469.604649 
L 351.504234 470.284988 
L 353.540273 470.847237 
L 355.915652 471.244659 
L 358.96971 471.498708 
L 363.720468 471.626163 
L 376.95472 471.652389 
L 387.813594 471.544248 
L 391.546332 471.284472 
L 393.921711 470.918789 
L 395.95775 470.396233 
L 397.654449 469.758379 
L 399.351148 468.89222 
L 401.047847 467.764384 
L 402.744546 466.358581 
L 404.441245 464.685054 
L 406.816624 461.984679 
L 411.567381 456.404854 
L 413.26408 454.830096 
L 414.621439 453.892774 
L 415.639459 453.417098 
L 416.657478 453.155717 
L 417.675498 453.118073 
L 418.693517 453.305532 
L 419.711537 453.711306 
L 420.729556 454.320855 
L 422.086915 455.412694 
L 423.783614 457.131197 
L 426.158993 459.923618 
L 429.891731 464.321483 
L 431.92777 466.358581 
L 433.624469 467.764384 
L 435.321168 468.89222 
L 437.017867 469.758379 
L 438.714566 470.396233 
L 440.750605 470.918789 
L 443.125984 471.284472 
L 446.180042 471.515491 
L 451.270139 471.632646 
L 460.432314 471.653133 
L 460.432314 471.653133 
" style="fill:none;stroke:#bc141a;stroke-linecap:square;"/>
   </g>
   <g id="line2d_51">
    <path clip-path="url(#p0025f0fb0e)" d="M 113.287686 471.653384 
L 128.897317 471.544575 
L 132.630055 471.312035 
L 135.344774 470.946849 
L 137.720152 470.410143 
L 139.756191 469.739523 
L 141.79223 468.847674 
L 144.167609 467.53194 
L 147.221667 465.52498 
L 150.954405 463.08051 
L 152.651104 462.194794 
L 154.347803 461.565471 
L 155.705163 461.28813 
L 157.062522 461.231753 
L 158.419881 461.399969 
L 159.77724 461.781995 
L 161.473939 462.522486 
L 163.509978 463.70209 
L 167.582056 466.445485 
L 170.296774 468.129588 
L 172.672153 469.321919 
L 174.708192 470.101404 
L 177.083571 470.745865 
L 179.458949 471.156906 
L 182.513008 471.446148 
L 186.924425 471.605238 
L 196.42594 471.652705 
L 215.428969 471.556127 
L 219.501047 471.312035 
L 222.215766 470.946849 
L 224.591144 470.410143 
L 226.627183 469.739523 
L 228.663222 468.847674 
L 231.038601 467.53194 
L 234.092659 465.52498 
L 237.825397 463.08051 
L 239.522096 462.194794 
L 241.218795 461.565471 
L 242.576154 461.28813 
L 243.933514 461.231753 
L 245.290873 461.399969 
L 246.648232 461.781995 
L 248.344931 462.522486 
L 250.38097 463.70209 
L 254.453048 466.445485 
L 257.167766 468.129588 
L 259.543145 469.321919 
L 261.579184 470.101404 
L 263.954563 470.745865 
L 266.329941 471.156906 
L 269.384 471.446148 
L 273.795417 471.605238 
L 283.296932 471.652705 
L 302.299961 471.556127 
L 306.372039 471.312035 
L 309.086758 470.946849 
L 311.462136 470.410143 
L 313.498175 469.739523 
L 315.534214 468.847674 
L 317.909593 467.53194 
L 320.963651 465.52498 
L 324.696389 463.08051 
L 326.393088 462.194794 
L 328.089787 461.565471 
L 329.447146 461.28813 
L 330.804506 461.231753 
L 332.161865 461.399969 
L 333.519224 461.781995 
L 335.215923 462.522486 
L 337.251962 463.70209 
L 341.32404 466.445485 
L 344.038758 468.129588 
L 346.414137 469.321919 
L 348.450176 470.101404 
L 350.825555 470.745865 
L 353.200933 471.156906 
L 356.254992 471.446148 
L 360.666409 471.605238 
L 370.167924 471.652705 
L 389.170953 471.556127 
L 393.243031 471.312035 
L 395.95775 470.946849 
L 398.333128 470.410143 
L 400.369167 469.739523 
L 402.405206 468.847674 
L 404.780585 467.53194 
L 407.834643 465.52498 
L 411.567381 463.08051 
L 413.26408 462.194794 
L 414.960779 461.565471 
L 416.318138 461.28813 
L 417.675498 461.231753 
L 419.032857 461.399969 
L 420.390216 461.781995 
L 422.086915 462.522486 
L 424.122954 463.70209 
L 428.195032 466.445485 
L 430.90975 468.129588 
L 433.285129 469.321919 
L 435.321168 470.101404 
L 437.696547 470.745865 
L 440.071925 471.156906 
L 443.125984 471.446148 
L 447.537401 471.605238 
L 457.038916 471.652705 
L 460.432314 471.65338 
L 460.432314 471.65338 
" style="fill:none;stroke:#980c13;stroke-linecap:square;"/>
   </g>
   <g id="line2d_52">
    <path clip-path="url(#p0025f0fb0e)" d="M 113.287686 471.653533 
L 130.933356 471.545116 
L 135.344774 471.283906 
L 138.398832 470.898447 
L 141.113551 470.354396 
L 144.167609 469.497353 
L 148.579026 467.96161 
L 151.972425 466.876348 
L 154.008463 466.428988 
L 156.044502 466.212023 
L 158.080541 466.256125 
L 160.11658 466.554992 
L 162.491959 467.168335 
L 165.885357 468.325486 
L 170.296774 469.810026 
L 173.350833 470.582744 
L 176.404891 471.096327 
L 179.798289 471.416536 
L 184.209707 471.589936 
L 192.693202 471.651018 
L 216.786329 471.574483 
L 221.537086 471.342841 
L 224.930484 470.952262 
L 227.645203 470.433812 
L 230.359921 469.708557 
L 234.092659 468.447336 
L 238.504077 466.969381 
L 240.879455 466.428988 
L 242.915494 466.212023 
L 244.951533 466.256125 
L 246.987572 466.554992 
L 249.362951 467.168335 
L 252.756349 468.325486 
L 257.167766 469.810026 
L 260.221825 470.582744 
L 263.275883 471.096327 
L 266.669281 471.416536 
L 271.080699 471.589936 
L 279.564194 471.651018 
L 303.657321 471.574483 
L 308.408078 471.342841 
L 311.801476 470.952262 
L 314.516195 470.433812 
L 317.230913 469.708557 
L 320.963651 468.447336 
L 325.375069 466.969381 
L 327.750447 466.428988 
L 329.786486 466.212023 
L 331.822525 466.256125 
L 333.858564 466.554992 
L 336.233943 467.168335 
L 339.627341 468.325486 
L 344.038758 469.810026 
L 347.092817 470.582744 
L 350.146875 471.096327 
L 353.540273 471.416536 
L 357.951691 471.589936 
L 366.435186 471.651018 
L 390.528313 471.574483 
L 395.27907 471.342841 
L 398.672468 470.952262 
L 401.387187 470.433812 
L 404.101905 469.708557 
L 407.834643 468.447336 
L 412.246061 466.969381 
L 414.621439 466.428988 
L 416.657478 466.212023 
L 418.693517 466.256125 
L 420.729556 466.554992 
L 423.104935 467.168335 
L 426.498333 468.325486 
L 430.90975 469.810026 
L 433.963809 470.582744 
L 437.017867 471.096327 
L 440.411265 471.416536 
L 444.822683 471.589936 
L 453.306178 471.651018 
L 460.432314 471.653531 
L 460.432314 471.653531 
" style="fill:none;stroke:#67000d;stroke-linecap:square;"/>
   </g>
   <g id="patch_3">
    <path d="M 76.8375 512.64 
L 76.8375 40.32 
" style="fill:none;stroke:#000000;stroke-linecap:square;stroke-linejoin:miter;stroke-width:0.8;"/>
   </g>
   <g id="patch_4">
    <path d="M 496.8825 512.64 
L 496.8825 40.32 
" style="fill:none;stroke:#000000;stroke-linecap:square;stroke-linejoin:miter;stroke-width:0.8;"/>
   </g>
   <g id="patch_5">
    <path d="M 76.8375 512.64 
L 496.8825 512.64 
" style="fill:none;stroke:#000000;stroke-linecap:square;stroke-linejoin:miter;stroke-width:0.8;"/>
   </g>
   <g id="patch_6">
    <path d="M 76.8375 40.32 
L 496.8825 40.32 
" style="fill:none;stroke:#000000;stroke-linecap:square;stroke-linejoin:miter;stroke-width:0.8;"/>
   </g>
   <g id="legend_1">
    <g id="patch_7">
     <path d="M 342.6825 324.83625 
L 482.8825 324.83625 
Q 486.8825 324.83625 486.8825 320.83625 
L 486.8825 232.12375 
Q 486.8825 228.12375 482.8825 228.12375 
L 342.6825 228.12375 
Q 338.6825 228.12375 338.6825 232.12375 
L 338.6825 320.83625 
Q 338.6825 324.83625 342.6825 324.83625 
z
" style="fill:#ffffff;opacity:0.8;stroke:#cccccc;stroke-linejoin:miter;"/>
    </g>
    <g id="line2d_53">
     <path d="M 346.6825 246.964375 
L 386.6825 246.964375 
" style="fill:none;stroke:#008000;stroke-linecap:square;stroke-width:2;"/>
    </g>
    <g id="line2d_54"/>
    <g id="text_13">
     <!-- $V_z(kV\AA)$ -->
     <defs>
      <path d="M 20.609375 0 
L 7.8125 72.90625 
L 17.484375 72.90625 
L 28.078125 10.203125 
L 63.484375 72.90625 
L 74.21875 72.90625 
L 32.078125 0 
z
" id="DejaVuSans-Oblique-86"/>
      <path d="M 11.625 54.6875 
L 54.296875 54.6875 
L 52.6875 46.484375 
L 11.53125 7.171875 
L 45.515625 7.171875 
L 44.09375 0 
L -0.296875 0 
L 1.3125 8.203125 
L 42.484375 47.515625 
L 10.203125 47.515625 
z
" id="DejaVuSans-Oblique-122"/>
      <path d="M 18.3125 75.984375 
L 27.296875 75.984375 
L 18.703125 31.6875 
L 49.515625 54.6875 
L 61.1875 54.6875 
L 26.8125 28.515625 
L 51.90625 0 
L 41.015625 0 
L 17.671875 26.703125 
L 12.5 0 
L 3.515625 0 
z
" id="DejaVuSans-Oblique-107"/>
     </defs>
     <g transform="translate(402.6825 253.964375)scale(0.2 -0.2)">
      <use transform="translate(0 0.171875)" xlink:href="#DejaVuSans-Oblique-86"/>
      <use transform="translate(68.408203 -16.234375)scale(0.7)" xlink:href="#DejaVuSans-Oblique-122"/>
      <use transform="translate(107.885742 0.171875)" xlink:href="#DejaVuSans-40"/>
      <use transform="translate(146.899414 0.171875)" xlink:href="#DejaVuSans-Oblique-107"/>
      <use transform="translate(204.80957 0.171875)" xlink:href="#DejaVuSans-Oblique-86"/>
      <use transform="translate(273.217773 0.171875)" xlink:href="#DejaVuSans-Oblique-197"/>
      <use transform="translate(341.625977 0.171875)" xlink:href="#DejaVuSans-41"/>
     </g>
    </g>
    <g id="line2d_55">
     <path d="M 346.6825 276.320625 
L 386.6825 276.320625 
" style="fill:none;stroke:#0000ff;stroke-linecap:square;stroke-width:2;"/>
    </g>
    <g id="line2d_56"/>
    <g id="text_14">
     <!-- $re(T)$ -->
     <defs>
      <path d="M 44.578125 46.390625 
Q 43.21875 47.125 41.453125 47.515625 
Q 39.703125 47.90625 37.703125 47.90625 
Q 30.515625 47.90625 25.140625 42.453125 
Q 19.78125 37.015625 18.015625 27.875 
L 12.5 0 
L 3.515625 0 
L 14.203125 54.6875 
L 23.1875 54.6875 
L 21.484375 46.1875 
Q 25.046875 50.921875 30 53.453125 
Q 34.96875 56 40.578125 56 
Q 42.046875 56 43.453125 55.828125 
Q 44.875 55.671875 46.296875 55.28125 
z
" id="DejaVuSans-Oblique-114"/>
      <path d="M 48.09375 32.234375 
Q 48.25 33.015625 48.3125 33.84375 
Q 48.390625 34.671875 48.390625 35.5 
Q 48.390625 41.453125 44.890625 44.921875 
Q 41.40625 48.390625 35.40625 48.390625 
Q 28.71875 48.390625 23.578125 44.15625 
Q 18.453125 39.9375 15.828125 32.171875 
z
M 55.90625 25.203125 
L 14.109375 25.203125 
Q 13.8125 23.34375 13.71875 22.265625 
Q 13.625 21.1875 13.625 20.40625 
Q 13.625 13.625 17.796875 9.90625 
Q 21.96875 6.203125 29.59375 6.203125 
Q 35.453125 6.203125 40.671875 7.515625 
Q 45.90625 8.84375 50.390625 11.375 
L 48.6875 2.484375 
Q 43.84375 0.53125 38.6875 -0.4375 
Q 33.546875 -1.421875 28.21875 -1.421875 
Q 16.84375 -1.421875 10.71875 4.015625 
Q 4.59375 9.46875 4.59375 19.484375 
Q 4.59375 28.03125 7.640625 35.375 
Q 10.6875 42.71875 16.609375 48.484375 
Q 20.40625 52.09375 25.65625 54.046875 
Q 30.90625 56 36.8125 56 
Q 46.09375 56 51.578125 50.4375 
Q 57.078125 44.875 57.078125 35.5 
Q 57.078125 33.25 56.78125 30.6875 
Q 56.5 28.125 55.90625 25.203125 
z
" id="DejaVuSans-Oblique-101"/>
      <path d="M 5.90625 72.90625 
L 67.578125 72.90625 
L 66.015625 64.59375 
L 39.984375 64.59375 
L 27.484375 0 
L 17.578125 0 
L 30.078125 64.59375 
L 4.296875 64.59375 
z
" id="DejaVuSans-Oblique-84"/>
     </defs>
     <g transform="translate(402.6825 283.320625)scale(0.2 -0.2)">
      <use transform="translate(0 0.125)" xlink:href="#DejaVuSans-Oblique-114"/>
      <use transform="translate(41.113281 0.125)" xlink:href="#DejaVuSans-Oblique-101"/>
      <use transform="translate(102.636719 0.125)" xlink:href="#DejaVuSans-40"/>
      <use transform="translate(141.650391 0.125)" xlink:href="#DejaVuSans-Oblique-84"/>
      <use transform="translate(202.734375 0.125)" xlink:href="#DejaVuSans-41"/>
     </g>
    </g>
    <g id="line2d_57">
     <path d="M 346.6825 305.676875 
L 386.6825 305.676875 
" style="fill:none;stroke:#ff0000;stroke-linecap:square;stroke-width:2;"/>
    </g>
    <g id="line2d_58"/>
    <g id="text_15">
     <!-- $im(T)$ -->
     <defs>
      <path d="M 18.3125 75.984375 
L 27.296875 75.984375 
L 25.09375 64.59375 
L 16.109375 64.59375 
z
M 14.203125 54.6875 
L 23.1875 54.6875 
L 12.5 0 
L 3.515625 0 
z
" id="DejaVuSans-Oblique-105"/>
      <path d="M 89.796875 33.015625 
L 83.40625 0 
L 74.421875 0 
L 80.71875 32.71875 
Q 81.109375 34.8125 81.296875 36.328125 
Q 81.5 37.84375 81.5 38.921875 
Q 81.5 43.3125 79.046875 45.75 
Q 76.609375 48.1875 72.21875 48.1875 
Q 65.671875 48.1875 60.546875 43.28125 
Q 55.421875 38.375 53.90625 30.515625 
L 47.90625 0 
L 38.921875 0 
L 45.3125 32.71875 
Q 45.703125 34.515625 45.890625 36.046875 
Q 46.09375 37.59375 46.09375 38.8125 
Q 46.09375 43.265625 43.65625 45.71875 
Q 41.21875 48.1875 36.921875 48.1875 
Q 30.28125 48.1875 25.140625 43.28125 
Q 20.015625 38.375 18.5 30.515625 
L 12.5 0 
L 3.515625 0 
L 14.203125 54.6875 
L 23.1875 54.6875 
L 21.484375 46.1875 
Q 25.140625 50.984375 30.046875 53.484375 
Q 34.96875 56 40.578125 56 
Q 46.53125 56 50.359375 52.875 
Q 54.203125 49.75 54.984375 44.1875 
Q 59.078125 49.953125 64.46875 52.96875 
Q 69.875 56 75.875 56 
Q 82.90625 56 86.734375 51.953125 
Q 90.578125 47.90625 90.578125 40.484375 
Q 90.578125 38.875 90.375 36.9375 
Q 90.1875 35.015625 89.796875 33.015625 
z
" id="DejaVuSans-Oblique-109"/>
     </defs>
     <g transform="translate(402.6825 312.676875)scale(0.2 -0.2)">
      <use transform="translate(0 0.015625)" xlink:href="#DejaVuSans-Oblique-105"/>
      <use transform="translate(27.783203 0.015625)" xlink:href="#DejaVuSans-Oblique-109"/>
      <use transform="translate(125.195312 0.015625)" xlink:href="#DejaVuSans-40"/>
      <use transform="translate(164.208984 0.015625)" xlink:href="#DejaVuSans-Oblique-84"/>
      <use transform="translate(225.292969 0.015625)" xlink:href="#DejaVuSans-41"/>
     </g>
    </g>
   </g>
  </g>
 </g>
 <defs>
  <clipPath id="p0025f0fb0e">
   <rect height="472.32" width="420.045" x="76.8375" y="40.32"/>
  </clipPath>
 </defs>
</svg>
