<?xml version="1.0" encoding="utf-8" standalone="no"?>
<!DOCTYPE svg PUBLIC "-//W3C//DTD SVG 1.1//EN"
  "http://www.w3.org/Graphics/SVG/1.1/DTD/svg11.dtd">
<!-- Created with matplotlib (https://matplotlib.org/) -->
<svg height="576pt" version="1.1" viewBox="0 0 512.25 576" width="512.25pt" xmlns="http://www.w3.org/2000/svg" xmlns:xlink="http://www.w3.org/1999/xlink">
 <defs>
  <style type="text/css">
*{stroke-linecap:butt;stroke-linejoin:round;}
  </style>
 </defs>
 <g id="figure_1">
  <g id="patch_1">
   <path d="M 0 576 
L 512.25 576 
L 512.25 0 
L 0 0 
z
" style="fill:#ffffff;"/>
  </g>
  <g id="axes_1">
   <g id="patch_2">
    <path d="M 76.8375 512.64 
L 496.8825 512.64 
L 496.8825 40.32 
L 76.8375 40.32 
z
" style="fill:#ffffff;"/>
   </g>
   <g id="matplotlib.axis_1">
    <g id="xtick_1">
     <g id="line2d_1">
      <path clip-path="url(#pbf0bad382f)" d="M 113.287686 512.64 
L 113.287686 40.32 
" style="fill:none;stroke:#e6e6e6;stroke-linecap:square;stroke-width:0.8;"/>
     </g>
     <g id="line2d_2">
      <defs>
       <path d="M 0 0 
L 0 -3.5 
" id="mfe7bcc7bf8" style="stroke:#000000;stroke-width:0.8;"/>
      </defs>
      <g>
       <use style="stroke:#000000;stroke-width:0.8;" x="113.287686" xlink:href="#mfe7bcc7bf8" y="512.64"/>
      </g>
     </g>
     <g id="text_1">
      <!-- 0 -->
      <defs>
       <path d="M 31.78125 66.40625 
Q 24.171875 66.40625 20.328125 58.90625 
Q 16.5 51.421875 16.5 36.375 
Q 16.5 21.390625 20.328125 13.890625 
Q 24.171875 6.390625 31.78125 6.390625 
Q 39.453125 6.390625 43.28125 13.890625 
Q 47.125 21.390625 47.125 36.375 
Q 47.125 51.421875 43.28125 58.90625 
Q 39.453125 66.40625 31.78125 66.40625 
z
M 31.78125 74.21875 
Q 44.046875 74.21875 50.515625 64.515625 
Q 56.984375 54.828125 56.984375 36.375 
Q 56.984375 17.96875 50.515625 8.265625 
Q 44.046875 -1.421875 31.78125 -1.421875 
Q 19.53125 -1.421875 13.0625 8.265625 
Q 6.59375 17.96875 6.59375 36.375 
Q 6.59375 54.828125 13.0625 64.515625 
Q 19.53125 74.21875 31.78125 74.21875 
z
" id="DejaVuSans-48"/>
      </defs>
      <g transform="translate(108.515811 527.537656)scale(0.15 -0.15)">
       <use xlink:href="#DejaVuSans-48"/>
      </g>
     </g>
    </g>
    <g id="xtick_2">
     <g id="line2d_3">
      <path clip-path="url(#pbf0bad382f)" d="M 200.158678 512.64 
L 200.158678 40.32 
" style="fill:none;stroke:#e6e6e6;stroke-linecap:square;stroke-width:0.8;"/>
     </g>
     <g id="line2d_4">
      <g>
       <use style="stroke:#000000;stroke-width:0.8;" x="200.158678" xlink:href="#mfe7bcc7bf8" y="512.64"/>
      </g>
     </g>
     <g id="text_2">
      <!-- 10 -->
      <defs>
       <path d="M 12.40625 8.296875 
L 28.515625 8.296875 
L 28.515625 63.921875 
L 10.984375 60.40625 
L 10.984375 69.390625 
L 28.421875 72.90625 
L 38.28125 72.90625 
L 38.28125 8.296875 
L 54.390625 8.296875 
L 54.390625 0 
L 12.40625 0 
z
" id="DejaVuSans-49"/>
      </defs>
      <g transform="translate(190.614928 527.537656)scale(0.15 -0.15)">
       <use xlink:href="#DejaVuSans-49"/>
       <use x="63.623047" xlink:href="#DejaVuSans-48"/>
      </g>
     </g>
    </g>
    <g id="xtick_3">
     <g id="line2d_5">
      <path clip-path="url(#pbf0bad382f)" d="M 287.02967 512.64 
L 287.02967 40.32 
" style="fill:none;stroke:#e6e6e6;stroke-linecap:square;stroke-width:0.8;"/>
     </g>
     <g id="line2d_6">
      <g>
       <use style="stroke:#000000;stroke-width:0.8;" x="287.02967" xlink:href="#mfe7bcc7bf8" y="512.64"/>
      </g>
     </g>
     <g id="text_3">
      <!-- 20 -->
      <defs>
       <path d="M 19.1875 8.296875 
L 53.609375 8.296875 
L 53.609375 0 
L 7.328125 0 
L 7.328125 8.296875 
Q 12.9375 14.109375 22.625 23.890625 
Q 32.328125 33.6875 34.8125 36.53125 
Q 39.546875 41.84375 41.421875 45.53125 
Q 43.3125 49.21875 43.3125 52.78125 
Q 43.3125 58.59375 39.234375 62.25 
Q 35.15625 65.921875 28.609375 65.921875 
Q 23.96875 65.921875 18.8125 64.3125 
Q 13.671875 62.703125 7.8125 59.421875 
L 7.8125 69.390625 
Q 13.765625 71.78125 18.9375 73 
Q 24.125 74.21875 28.421875 74.21875 
Q 39.75 74.21875 46.484375 68.546875 
Q 53.21875 62.890625 53.21875 53.421875 
Q 53.21875 48.921875 51.53125 44.890625 
Q 49.859375 40.875 45.40625 35.40625 
Q 44.1875 33.984375 37.640625 27.21875 
Q 31.109375 20.453125 19.1875 8.296875 
z
" id="DejaVuSans-50"/>
      </defs>
      <g transform="translate(277.48592 527.537656)scale(0.15 -0.15)">
       <use xlink:href="#DejaVuSans-50"/>
       <use x="63.623047" xlink:href="#DejaVuSans-48"/>
      </g>
     </g>
    </g>
    <g id="xtick_4">
     <g id="line2d_7">
      <path clip-path="url(#pbf0bad382f)" d="M 373.900662 512.64 
L 373.900662 40.32 
" style="fill:none;stroke:#e6e6e6;stroke-linecap:square;stroke-width:0.8;"/>
     </g>
     <g id="line2d_8">
      <g>
       <use style="stroke:#000000;stroke-width:0.8;" x="373.900662" xlink:href="#mfe7bcc7bf8" y="512.64"/>
      </g>
     </g>
     <g id="text_4">
      <!-- 30 -->
      <defs>
       <path d="M 40.578125 39.3125 
Q 47.65625 37.796875 51.625 33 
Q 55.609375 28.21875 55.609375 21.1875 
Q 55.609375 10.40625 48.1875 4.484375 
Q 40.765625 -1.421875 27.09375 -1.421875 
Q 22.515625 -1.421875 17.65625 -0.515625 
Q 12.796875 0.390625 7.625 2.203125 
L 7.625 11.71875 
Q 11.71875 9.328125 16.59375 8.109375 
Q 21.484375 6.890625 26.8125 6.890625 
Q 36.078125 6.890625 40.9375 10.546875 
Q 45.796875 14.203125 45.796875 21.1875 
Q 45.796875 27.640625 41.28125 31.265625 
Q 36.765625 34.90625 28.71875 34.90625 
L 20.21875 34.90625 
L 20.21875 43.015625 
L 29.109375 43.015625 
Q 36.375 43.015625 40.234375 45.921875 
Q 44.09375 48.828125 44.09375 54.296875 
Q 44.09375 59.90625 40.109375 62.90625 
Q 36.140625 65.921875 28.71875 65.921875 
Q 24.65625 65.921875 20.015625 65.03125 
Q 15.375 64.15625 9.8125 62.3125 
L 9.8125 71.09375 
Q 15.4375 72.65625 20.34375 73.4375 
Q 25.25 74.21875 29.59375 74.21875 
Q 40.828125 74.21875 47.359375 69.109375 
Q 53.90625 64.015625 53.90625 55.328125 
Q 53.90625 49.265625 50.4375 45.09375 
Q 46.96875 40.921875 40.578125 39.3125 
z
" id="DejaVuSans-51"/>
      </defs>
      <g transform="translate(364.356912 527.537656)scale(0.15 -0.15)">
       <use xlink:href="#DejaVuSans-51"/>
       <use x="63.623047" xlink:href="#DejaVuSans-48"/>
      </g>
     </g>
    </g>
    <g id="xtick_5">
     <g id="line2d_9">
      <path clip-path="url(#pbf0bad382f)" d="M 460.771654 512.64 
L 460.771654 40.32 
" style="fill:none;stroke:#e6e6e6;stroke-linecap:square;stroke-width:0.8;"/>
     </g>
     <g id="line2d_10">
      <g>
       <use style="stroke:#000000;stroke-width:0.8;" x="460.771654" xlink:href="#mfe7bcc7bf8" y="512.64"/>
      </g>
     </g>
     <g id="text_5">
      <!-- 40 -->
      <defs>
       <path d="M 37.796875 64.3125 
L 12.890625 25.390625 
L 37.796875 25.390625 
z
M 35.203125 72.90625 
L 47.609375 72.90625 
L 47.609375 25.390625 
L 58.015625 25.390625 
L 58.015625 17.1875 
L 47.609375 17.1875 
L 47.609375 0 
L 37.796875 0 
L 37.796875 17.1875 
L 4.890625 17.1875 
L 4.890625 26.703125 
z
" id="DejaVuSans-52"/>
      </defs>
      <g transform="translate(451.227904 527.537656)scale(0.15 -0.15)">
       <use xlink:href="#DejaVuSans-52"/>
       <use x="63.623047" xlink:href="#DejaVuSans-48"/>
      </g>
     </g>
    </g>
    <g id="text_6">
     <!-- $x(\AA)$ -->
     <defs>
      <path d="M 60.015625 54.6875 
L 34.90625 27.875 
L 50.296875 0 
L 39.984375 0 
L 28.421875 21.6875 
L 8.296875 0 
L -2.59375 0 
L 24.3125 28.8125 
L 10.015625 54.6875 
L 20.3125 54.6875 
L 30.8125 34.90625 
L 49.125 54.6875 
z
" id="DejaVuSans-Oblique-120"/>
      <path d="M 31 75.875 
Q 24.46875 64.65625 21.28125 53.65625 
Q 18.109375 42.671875 18.109375 31.390625 
Q 18.109375 20.125 21.3125 9.0625 
Q 24.515625 -2 31 -13.1875 
L 23.1875 -13.1875 
Q 15.875 -1.703125 12.234375 9.375 
Q 8.59375 20.453125 8.59375 31.390625 
Q 8.59375 42.28125 12.203125 53.3125 
Q 15.828125 64.359375 23.1875 75.875 
z
" id="DejaVuSans-40"/>
      <path d="M 49.8125 79.390625 
Q 49.8125 82.46875 47.625 84.640625 
Q 45.453125 86.8125 42.390625 86.8125 
Q 39.265625 86.8125 37.140625 84.6875 
Q 35.015625 82.5625 35.015625 79.390625 
Q 35.015625 76.3125 37.140625 74.15625 
Q 39.265625 72.015625 42.390625 72.015625 
Q 45.453125 72.015625 47.625 74.15625 
Q 49.8125 76.3125 49.8125 79.390625 
z
M 34.421875 68.703125 
Q 31.78125 70.515625 30.390625 73.265625 
Q 29 76.03125 29 79.390625 
Q 29 84.96875 32.90625 88.890625 
Q 36.8125 92.828125 42.390625 92.828125 
Q 47.953125 92.828125 51.875 88.890625 
Q 55.8125 84.96875 55.8125 79.390625 
Q 55.8125 75.53125 54.03125 72.546875 
Q 52.25 69.578125 48.875 67.828125 
L 61.53125 0 
L 51.21875 0 
L 48.1875 18.703125 
L 15.375 18.703125 
L 5.078125 0 
L -5.328125 0 
z
M 40.375 63.1875 
L 19.921875 26.90625 
L 46.6875 26.90625 
z
" id="DejaVuSans-Oblique-197"/>
      <path d="M 8.015625 75.875 
L 15.828125 75.875 
Q 23.140625 64.359375 26.78125 53.3125 
Q 30.421875 42.28125 30.421875 31.390625 
Q 30.421875 20.453125 26.78125 9.375 
Q 23.140625 -1.703125 15.828125 -13.1875 
L 8.015625 -13.1875 
Q 14.5 -2 17.703125 9.0625 
Q 20.90625 20.125 20.90625 31.390625 
Q 20.90625 42.671875 17.703125 53.65625 
Q 14.5 64.65625 8.015625 75.875 
z
" id="DejaVuSans-41"/>
     </defs>
     <g transform="translate(261.11 556.207969)scale(0.25 -0.25)">
      <use transform="translate(0 0.171875)" xlink:href="#DejaVuSans-Oblique-120"/>
      <use transform="translate(59.179688 0.171875)" xlink:href="#DejaVuSans-40"/>
      <use transform="translate(98.193359 0.171875)" xlink:href="#DejaVuSans-Oblique-197"/>
      <use transform="translate(166.601562 0.171875)" xlink:href="#DejaVuSans-41"/>
     </g>
    </g>
   </g>
   <g id="matplotlib.axis_2">
    <g id="ytick_1">
     <g id="line2d_11">
      <path clip-path="url(#pbf0bad382f)" d="M 76.8375 471.653582 
L 496.8825 471.653582 
" style="fill:none;stroke:#e6e6e6;stroke-linecap:square;stroke-width:0.8;"/>
     </g>
     <g id="line2d_12">
      <defs>
       <path d="M 0 0 
L 3.5 0 
" id="me212c88f3c" style="stroke:#000000;stroke-width:0.8;"/>
      </defs>
      <g>
       <use style="stroke:#000000;stroke-width:0.8;" x="76.8375" xlink:href="#me212c88f3c" y="471.653582"/>
      </g>
     </g>
     <g id="text_7">
      <!-- 0.0 -->
      <defs>
       <path d="M 10.6875 12.40625 
L 21 12.40625 
L 21 0 
L 10.6875 0 
z
" id="DejaVuSans-46"/>
      </defs>
      <g transform="translate(49.482812 477.35241)scale(0.15 -0.15)">
       <use xlink:href="#DejaVuSans-48"/>
       <use x="63.623047" xlink:href="#DejaVuSans-46"/>
       <use x="95.410156" xlink:href="#DejaVuSans-48"/>
      </g>
     </g>
    </g>
    <g id="ytick_2">
     <g id="line2d_13">
      <path clip-path="url(#pbf0bad382f)" d="M 76.8375 393.584155 
L 496.8825 393.584155 
" style="fill:none;stroke:#e6e6e6;stroke-linecap:square;stroke-width:0.8;"/>
     </g>
     <g id="line2d_14">
      <g>
       <use style="stroke:#000000;stroke-width:0.8;" x="76.8375" xlink:href="#me212c88f3c" y="393.584155"/>
      </g>
     </g>
     <g id="text_8">
      <!-- 0.2 -->
      <g transform="translate(49.482812 399.282983)scale(0.15 -0.15)">
       <use xlink:href="#DejaVuSans-48"/>
       <use x="63.623047" xlink:href="#DejaVuSans-46"/>
       <use x="95.410156" xlink:href="#DejaVuSans-50"/>
      </g>
     </g>
    </g>
    <g id="ytick_3">
     <g id="line2d_15">
      <path clip-path="url(#pbf0bad382f)" d="M 76.8375 315.514728 
L 496.8825 315.514728 
" style="fill:none;stroke:#e6e6e6;stroke-linecap:square;stroke-width:0.8;"/>
     </g>
     <g id="line2d_16">
      <g>
       <use style="stroke:#000000;stroke-width:0.8;" x="76.8375" xlink:href="#me212c88f3c" y="315.514728"/>
      </g>
     </g>
     <g id="text_9">
      <!-- 0.4 -->
      <g transform="translate(49.482812 321.213556)scale(0.15 -0.15)">
       <use xlink:href="#DejaVuSans-48"/>
       <use x="63.623047" xlink:href="#DejaVuSans-46"/>
       <use x="95.410156" xlink:href="#DejaVuSans-52"/>
      </g>
     </g>
    </g>
    <g id="ytick_4">
     <g id="line2d_17">
      <path clip-path="url(#pbf0bad382f)" d="M 76.8375 237.445301 
L 496.8825 237.445301 
" style="fill:none;stroke:#e6e6e6;stroke-linecap:square;stroke-width:0.8;"/>
     </g>
     <g id="line2d_18">
      <g>
       <use style="stroke:#000000;stroke-width:0.8;" x="76.8375" xlink:href="#me212c88f3c" y="237.445301"/>
      </g>
     </g>
     <g id="text_10">
      <!-- 0.6 -->
      <defs>
       <path d="M 33.015625 40.375 
Q 26.375 40.375 22.484375 35.828125 
Q 18.609375 31.296875 18.609375 23.390625 
Q 18.609375 15.53125 22.484375 10.953125 
Q 26.375 6.390625 33.015625 6.390625 
Q 39.65625 6.390625 43.53125 10.953125 
Q 47.40625 15.53125 47.40625 23.390625 
Q 47.40625 31.296875 43.53125 35.828125 
Q 39.65625 40.375 33.015625 40.375 
z
M 52.59375 71.296875 
L 52.59375 62.3125 
Q 48.875 64.0625 45.09375 64.984375 
Q 41.3125 65.921875 37.59375 65.921875 
Q 27.828125 65.921875 22.671875 59.328125 
Q 17.53125 52.734375 16.796875 39.40625 
Q 19.671875 43.65625 24.015625 45.921875 
Q 28.375 48.1875 33.59375 48.1875 
Q 44.578125 48.1875 50.953125 41.515625 
Q 57.328125 34.859375 57.328125 23.390625 
Q 57.328125 12.15625 50.6875 5.359375 
Q 44.046875 -1.421875 33.015625 -1.421875 
Q 20.359375 -1.421875 13.671875 8.265625 
Q 6.984375 17.96875 6.984375 36.375 
Q 6.984375 53.65625 15.1875 63.9375 
Q 23.390625 74.21875 37.203125 74.21875 
Q 40.921875 74.21875 44.703125 73.484375 
Q 48.484375 72.75 52.59375 71.296875 
z
" id="DejaVuSans-54"/>
      </defs>
      <g transform="translate(49.482812 243.144129)scale(0.15 -0.15)">
       <use xlink:href="#DejaVuSans-48"/>
       <use x="63.623047" xlink:href="#DejaVuSans-46"/>
       <use x="95.410156" xlink:href="#DejaVuSans-54"/>
      </g>
     </g>
    </g>
    <g id="ytick_5">
     <g id="line2d_19">
      <path clip-path="url(#pbf0bad382f)" d="M 76.8375 159.375873 
L 496.8825 159.375873 
" style="fill:none;stroke:#e6e6e6;stroke-linecap:square;stroke-width:0.8;"/>
     </g>
     <g id="line2d_20">
      <g>
       <use style="stroke:#000000;stroke-width:0.8;" x="76.8375" xlink:href="#me212c88f3c" y="159.375873"/>
      </g>
     </g>
     <g id="text_11">
      <!-- 0.8 -->
      <defs>
       <path d="M 31.78125 34.625 
Q 24.75 34.625 20.71875 30.859375 
Q 16.703125 27.09375 16.703125 20.515625 
Q 16.703125 13.921875 20.71875 10.15625 
Q 24.75 6.390625 31.78125 6.390625 
Q 38.8125 6.390625 42.859375 10.171875 
Q 46.921875 13.96875 46.921875 20.515625 
Q 46.921875 27.09375 42.890625 30.859375 
Q 38.875 34.625 31.78125 34.625 
z
M 21.921875 38.8125 
Q 15.578125 40.375 12.03125 44.71875 
Q 8.5 49.078125 8.5 55.328125 
Q 8.5 64.0625 14.71875 69.140625 
Q 20.953125 74.21875 31.78125 74.21875 
Q 42.671875 74.21875 48.875 69.140625 
Q 55.078125 64.0625 55.078125 55.328125 
Q 55.078125 49.078125 51.53125 44.71875 
Q 48 40.375 41.703125 38.8125 
Q 48.828125 37.15625 52.796875 32.3125 
Q 56.78125 27.484375 56.78125 20.515625 
Q 56.78125 9.90625 50.3125 4.234375 
Q 43.84375 -1.421875 31.78125 -1.421875 
Q 19.734375 -1.421875 13.25 4.234375 
Q 6.78125 9.90625 6.78125 20.515625 
Q 6.78125 27.484375 10.78125 32.3125 
Q 14.796875 37.15625 21.921875 38.8125 
z
M 18.3125 54.390625 
Q 18.3125 48.734375 21.84375 45.5625 
Q 25.390625 42.390625 31.78125 42.390625 
Q 38.140625 42.390625 41.71875 45.5625 
Q 45.3125 48.734375 45.3125 54.390625 
Q 45.3125 60.0625 41.71875 63.234375 
Q 38.140625 66.40625 31.78125 66.40625 
Q 25.390625 66.40625 21.84375 63.234375 
Q 18.3125 60.0625 18.3125 54.390625 
z
" id="DejaVuSans-56"/>
      </defs>
      <g transform="translate(49.482812 165.074702)scale(0.15 -0.15)">
       <use xlink:href="#DejaVuSans-48"/>
       <use x="63.623047" xlink:href="#DejaVuSans-46"/>
       <use x="95.410156" xlink:href="#DejaVuSans-56"/>
      </g>
     </g>
    </g>
    <g id="ytick_6">
     <g id="line2d_21">
      <path clip-path="url(#pbf0bad382f)" d="M 76.8375 81.306446 
L 496.8825 81.306446 
" style="fill:none;stroke:#e6e6e6;stroke-linecap:square;stroke-width:0.8;"/>
     </g>
     <g id="line2d_22">
      <g>
       <use style="stroke:#000000;stroke-width:0.8;" x="76.8375" xlink:href="#me212c88f3c" y="81.306446"/>
      </g>
     </g>
     <g id="text_12">
      <!-- 1.0 -->
      <g transform="translate(49.482812 87.005274)scale(0.15 -0.15)">
       <use xlink:href="#DejaVuSans-49"/>
       <use x="63.623047" xlink:href="#DejaVuSans-46"/>
       <use x="95.410156" xlink:href="#DejaVuSans-48"/>
      </g>
     </g>
    </g>
   </g>
   <g id="line2d_23">
    <path clip-path="url(#pbf0bad382f)" d="M 113.287686 471.653543 
L 136.023453 471.548815 
L 142.13157 471.280696 
L 149.597046 470.684708 
L 154.687143 470.378465 
L 158.419881 470.368918 
L 162.491959 470.579506 
L 176.744231 471.530297 
L 184.549047 471.639912 
L 212.374911 471.649382 
L 223.912465 471.520116 
L 229.681242 471.235697 
L 243.933514 470.347837 
L 248.005591 470.488442 
L 254.453048 471.001114 
L 260.900504 471.429662 
L 267.347961 471.606486 
L 279.564194 471.652941 
L 309.426098 471.557199 
L 315.534214 471.30206 
L 322.32101 470.769472 
L 328.089787 470.389658 
L 331.822525 470.361053 
L 335.894603 470.555197 
L 351.164894 471.548815 
L 359.30905 471.64385 
L 390.867653 471.632483 
L 399.011808 471.472732 
L 404.780585 471.137227 
L 416.318138 470.354902 
L 420.050876 470.40245 
L 424.801634 470.712553 
L 434.642488 471.429662 
L 441.089945 471.606486 
L 453.306178 471.652941 
L 460.432314 471.653543 
L 460.432314 471.653543 
" style="fill:none;stroke:#e9f7e5;stroke-linecap:square;"/>
   </g>
   <g id="line2d_24">
    <path clip-path="url(#pbf0bad382f)" d="M 113.287686 471.653511 
L 133.648075 471.550285 
L 138.738172 471.29987 
L 143.149589 470.850555 
L 148.918366 469.993361 
L 153.329784 469.432743 
L 156.383842 469.278519 
L 159.098561 469.354588 
L 162.152619 469.655693 
L 167.921396 470.517964 
L 172.672153 471.122252 
L 177.083571 471.44672 
L 182.513008 471.606289 
L 193.711221 471.652828 
L 220.519067 471.550285 
L 225.609164 471.29987 
L 230.020581 470.850555 
L 235.789358 469.993361 
L 240.200776 469.432743 
L 243.254834 469.278519 
L 245.969553 469.354588 
L 249.023611 469.655693 
L 254.792388 470.517964 
L 259.543145 471.122252 
L 263.954563 471.44672 
L 269.384 471.606289 
L 280.582213 471.652828 
L 307.390059 471.550285 
L 312.480156 471.29987 
L 316.891573 470.850555 
L 322.66035 469.993361 
L 327.071768 469.432743 
L 330.125826 469.278519 
L 332.840545 469.354588 
L 335.894603 469.655693 
L 341.66338 470.517964 
L 346.414137 471.122252 
L 350.825555 471.44672 
L 356.254992 471.606289 
L 367.453205 471.652828 
L 394.261051 471.550285 
L 399.351148 471.29987 
L 403.762565 470.850555 
L 409.531342 469.993361 
L 413.94276 469.432743 
L 416.996818 469.278519 
L 419.711537 469.354588 
L 422.765595 469.655693 
L 428.534372 470.517964 
L 433.285129 471.122252 
L 437.696547 471.44672 
L 443.125984 471.606289 
L 454.324197 471.652828 
L 460.432314 471.65351 
L 460.432314 471.65351 
" style="fill:none;stroke:#d3eecd;stroke-linecap:square;"/>
   </g>
   <g id="line2d_25">
    <path clip-path="url(#pbf0bad382f)" d="M 113.287686 471.65345 
L 131.612036 471.546026 
L 136.023453 471.299972 
L 139.416852 470.897807 
L 142.47091 470.320337 
L 145.864308 469.451374 
L 152.311764 467.721007 
L 154.687143 467.349815 
L 156.723182 467.243449 
L 158.759221 467.349815 
L 161.1346 467.721007 
L 163.849318 468.383443 
L 171.993473 470.536619 
L 175.047532 471.043178 
L 178.44093 471.379375 
L 182.852347 471.574475 
L 190.657163 471.648579 
L 216.786329 471.589561 
L 221.876426 471.379375 
L 225.609164 470.997238 
L 228.663222 470.467126 
L 232.05662 469.639946 
L 239.861436 467.590887 
L 242.236815 467.291043 
L 244.272854 467.255396 
L 246.308892 467.430767 
L 248.684271 467.867556 
L 252.077669 468.767068 
L 257.846446 470.320337 
L 260.900504 470.897807 
L 264.293902 471.299972 
L 268.36598 471.534751 
L 274.813437 471.639405 
L 298.227884 471.643891 
L 306.372039 471.509121 
L 310.444117 471.23747 
L 313.837515 470.788021 
L 316.891573 470.163494 
L 320.624311 469.160387 
L 325.714409 467.79236 
L 328.089787 467.387591 
L 330.125826 467.246439 
L 332.161865 467.317589 
L 334.537244 467.653765 
L 337.251962 468.291241 
L 346.414137 470.667651 
L 349.468195 471.127781 
L 353.200933 471.443529 
L 357.951691 471.60205 
L 367.792545 471.652376 
L 391.885672 471.556364 
L 396.29709 471.328271 
L 399.690488 470.948797 
L 402.744546 470.395018 
L 406.137944 469.546341 
L 413.26408 467.653765 
L 415.639459 467.317589 
L 417.675498 467.246439 
L 419.711537 467.387591 
L 422.086915 467.79236 
L 425.140974 468.572892 
L 431.92777 470.395018 
L 434.981828 470.948797 
L 438.375226 471.328271 
L 442.447304 471.546026 
L 449.2341 471.642566 
L 460.432314 471.653448 
L 460.432314 471.653448 
" style="fill:none;stroke:#b8e3b2;stroke-linecap:square;"/>
   </g>
   <g id="line2d_26">
    <path clip-path="url(#pbf0bad382f)" d="M 113.287686 471.653377 
L 130.254677 471.542811 
L 134.326754 471.296007 
L 137.380813 470.896042 
L 140.095531 470.307217 
L 142.47091 469.579743 
L 145.185628 468.521406 
L 152.651104 465.431936 
L 154.687143 464.959147 
L 156.383842 464.798347 
L 158.080541 464.867729 
L 159.77724 465.160359 
L 161.813279 465.764484 
L 164.527998 466.861621 
L 170.636114 469.459663 
L 173.350833 470.307217 
L 176.065551 470.896042 
L 179.11961 471.296007 
L 182.852347 471.530533 
L 188.621124 471.636447 
L 208.642173 471.648433 
L 217.804348 471.517079 
L 221.537086 471.262787 
L 224.591144 470.835707 
L 227.305863 470.215672 
L 230.020581 469.335776 
L 233.07464 468.078562 
L 238.504077 465.764484 
L 240.540116 465.160359 
L 242.236815 464.867729 
L 243.933514 464.798347 
L 245.630213 464.959147 
L 247.326912 465.334131 
L 249.362951 466.01462 
L 252.417009 467.316296 
L 256.828427 469.208212 
L 259.543145 470.119984 
L 262.257864 470.771763 
L 264.972582 471.188695 
L 268.36598 471.468743 
L 273.116738 471.613119 
L 284.314951 471.653164 
L 303.657321 471.553999 
L 307.729398 471.326848 
L 310.783457 470.952877 
L 313.498175 470.394643 
L 315.873554 469.695908 
L 318.588272 468.664595 
L 326.732428 465.334131 
L 328.429127 464.959147 
L 330.125826 464.798347 
L 331.822525 464.867729 
L 333.519224 465.160359 
L 335.555263 465.764484 
L 338.269982 466.861621 
L 344.378098 469.459663 
L 347.092817 470.307217 
L 349.807535 470.896042 
L 352.861594 471.296007 
L 356.594331 471.530533 
L 362.363108 471.636447 
L 382.384157 471.648433 
L 391.546332 471.517079 
L 395.27907 471.262787 
L 398.333128 470.835707 
L 401.047847 470.215672 
L 403.762565 469.335776 
L 406.816624 468.078562 
L 412.246061 465.764484 
L 414.2821 465.160359 
L 415.978799 464.867729 
L 417.675498 464.798347 
L 419.372197 464.959147 
L 421.068896 465.334131 
L 423.104935 466.01462 
L 426.158993 467.316296 
L 430.570411 469.208212 
L 433.285129 470.119984 
L 435.999848 470.771763 
L 438.714566 471.188695 
L 442.107964 471.468743 
L 446.858722 471.613119 
L 458.056935 471.653164 
L 460.432314 471.653374 
L 460.432314 471.653374 
" style="fill:none;stroke:#98d594;stroke-linecap:square;"/>
   </g>
   <g id="line2d_27">
    <path clip-path="url(#pbf0bad382f)" d="M 113.287686 471.653322 
L 129.236657 471.551972 
L 133.308735 471.309166 
L 136.362793 470.896703 
L 138.738172 470.359399 
L 141.113551 469.582957 
L 143.488929 468.553711 
L 146.203648 467.121711 
L 151.293745 464.343579 
L 153.329784 463.527833 
L 155.026483 463.103845 
L 156.383842 462.96355 
L 157.741201 463.010569 
L 159.4379 463.327009 
L 161.1346 463.899307 
L 163.170638 464.846007 
L 166.564036 466.737484 
L 169.957435 468.553711 
L 172.332813 469.582957 
L 174.708192 470.359399 
L 177.083571 470.896703 
L 179.798289 471.275633 
L 183.191687 471.513163 
L 188.621124 471.63186 
L 205.588115 471.651818 
L 216.446989 471.540249 
L 220.519067 471.275633 
L 223.233785 470.896703 
L 225.609164 470.359399 
L 227.984543 469.582957 
L 230.359921 468.553711 
L 233.07464 467.121711 
L 238.164737 464.343579 
L 240.200776 463.527833 
L 241.897475 463.103845 
L 243.254834 462.96355 
L 244.612193 463.010569 
L 246.308892 463.327009 
L 248.005591 463.899307 
L 250.04163 464.846007 
L 253.435028 466.737484 
L 256.828427 468.553711 
L 259.203805 469.582957 
L 261.579184 470.359399 
L 263.954563 470.896703 
L 266.669281 471.275633 
L 270.062679 471.513163 
L 275.492116 471.63186 
L 292.459107 471.651818 
L 303.317981 471.540249 
L 307.390059 471.275633 
L 310.104777 470.896703 
L 312.480156 470.359399 
L 314.855535 469.582957 
L 317.230913 468.553711 
L 319.945632 467.121711 
L 325.035729 464.343579 
L 327.071768 463.527833 
L 328.768467 463.103845 
L 330.125826 462.96355 
L 331.483185 463.010569 
L 333.179884 463.327009 
L 334.876583 463.899307 
L 336.912622 464.846007 
L 340.30602 466.737484 
L 343.699419 468.553711 
L 346.074797 469.582957 
L 348.450176 470.359399 
L 350.825555 470.896703 
L 353.540273 471.275633 
L 356.933671 471.513163 
L 362.363108 471.63186 
L 379.330099 471.651818 
L 390.188973 471.540249 
L 394.261051 471.275633 
L 396.975769 470.896703 
L 399.351148 470.359399 
L 401.726527 469.582957 
L 404.101905 468.553711 
L 406.816624 467.121711 
L 411.906721 464.343579 
L 413.94276 463.527833 
L 415.639459 463.103845 
L 416.996818 462.96355 
L 418.354177 463.010569 
L 420.050876 463.327009 
L 421.747575 463.899307 
L 423.783614 464.846007 
L 427.177012 466.737484 
L 430.570411 468.553711 
L 432.945789 469.582957 
L 435.321168 470.359399 
L 437.696547 470.896703 
L 440.411265 471.275633 
L 443.804663 471.513163 
L 449.2341 471.63186 
L 460.432314 471.653319 
L 460.432314 471.653319 
" style="fill:none;stroke:#73c476;stroke-linecap:square;"/>
   </g>
   <g id="line2d_28">
    <path clip-path="url(#pbf0bad382f)" d="M 113.287686 471.653315 
L 129.236657 471.548965 
L 133.308735 471.298975 
L 136.023453 470.935699 
L 138.398832 470.414369 
L 140.774211 469.651993 
L 143.149589 468.628476 
L 145.864308 467.182765 
L 151.633085 463.967373 
L 153.329784 463.287391 
L 155.026483 462.850856 
L 156.383842 462.706411 
L 157.741201 462.754821 
L 159.098561 462.99297 
L 160.79526 463.533345 
L 162.831299 464.466473 
L 165.885357 466.192588 
L 169.618095 468.290895 
L 171.993473 469.385976 
L 174.368852 470.222761 
L 176.744231 470.80881 
L 179.458949 471.227142 
L 182.852347 471.492983 
L 187.942445 471.6248 
L 201.855377 471.653214 
L 216.107649 471.548965 
L 220.179727 471.298975 
L 222.894445 470.935699 
L 225.269824 470.414369 
L 227.645203 469.651993 
L 230.020581 468.628476 
L 232.7353 467.182765 
L 238.504077 463.967373 
L 240.200776 463.287391 
L 241.897475 462.850856 
L 243.254834 462.706411 
L 244.612193 462.754821 
L 245.969553 462.99297 
L 247.666252 463.533345 
L 249.702291 464.466473 
L 252.756349 466.192588 
L 256.489087 468.290895 
L 258.864465 469.385976 
L 261.239844 470.222761 
L 263.615223 470.80881 
L 266.329941 471.227142 
L 269.723339 471.492983 
L 274.813437 471.6248 
L 288.726369 471.653214 
L 302.978641 471.548965 
L 307.050719 471.298975 
L 309.765437 470.935699 
L 312.140816 470.414369 
L 314.516195 469.651993 
L 316.891573 468.628476 
L 319.606292 467.182765 
L 325.375069 463.967373 
L 327.071768 463.287391 
L 328.768467 462.850856 
L 330.125826 462.706411 
L 331.483185 462.754821 
L 332.840545 462.99297 
L 334.537244 463.533345 
L 336.573283 464.466473 
L 339.627341 466.192588 
L 343.360079 468.290895 
L 345.735457 469.385976 
L 348.110836 470.222761 
L 350.486215 470.80881 
L 353.200933 471.227142 
L 356.594331 471.492983 
L 361.684429 471.6248 
L 375.597361 471.653214 
L 389.849633 471.548965 
L 393.921711 471.298975 
L 396.636429 470.935699 
L 399.011808 470.414369 
L 401.387187 469.651993 
L 403.762565 468.628476 
L 406.477284 467.182765 
L 412.246061 463.967373 
L 413.94276 463.287391 
L 415.639459 462.850856 
L 416.996818 462.706411 
L 418.354177 462.754821 
L 419.711537 462.99297 
L 421.408236 463.533345 
L 423.444274 464.466473 
L 426.498333 466.192588 
L 430.231071 468.290895 
L 432.606449 469.385976 
L 434.981828 470.222761 
L 437.357207 470.80881 
L 440.071925 471.227142 
L 443.465323 471.492983 
L 448.555421 471.6248 
L 460.432314 471.653311 
L 460.432314 471.653311 
" style="fill:none;stroke:#4bb062;stroke-linecap:square;"/>
   </g>
   <g id="line2d_29">
    <path clip-path="url(#pbf0bad382f)" d="M 113.287686 471.653358 
L 129.915337 471.544914 
L 133.987415 471.297041 
L 137.041473 470.888954 
L 139.416852 470.370742 
L 141.79223 469.639712 
L 144.506949 468.54525 
L 148.579026 466.588514 
L 151.633085 465.227245 
L 153.669124 464.568008 
L 155.365823 464.248683 
L 157.062522 464.172972 
L 158.759221 464.34844 
L 160.45592 464.757633 
L 162.491959 465.5002 
L 165.206677 466.754062 
L 169.957435 468.98513 
L 172.672153 469.98008 
L 175.047532 470.617493 
L 177.76225 471.101405 
L 180.816309 471.408376 
L 184.888386 471.583558 
L 192.693202 471.649908 
L 215.768309 471.575267 
L 220.179727 471.3571 
L 223.233785 471.00204 
L 225.948504 470.457292 
L 228.323882 469.757667 
L 230.699261 468.842084 
L 234.092659 467.254884 
L 238.164737 465.360937 
L 240.200776 464.658721 
L 241.897475 464.293741 
L 243.594174 464.167897 
L 245.290873 464.293741 
L 246.987572 464.658721 
L 249.023611 465.360937 
L 251.738329 466.588514 
L 257.167766 469.124331 
L 259.543145 469.98008 
L 261.918524 470.617493 
L 264.633242 471.101405 
L 267.687301 471.408376 
L 271.759378 471.583558 
L 279.564194 471.649908 
L 302.639301 471.575267 
L 307.050719 471.3571 
L 310.104777 471.00204 
L 312.819496 470.457292 
L 315.194874 469.757667 
L 317.570253 468.842084 
L 320.963651 467.254884 
L 325.035729 465.360937 
L 327.071768 464.658721 
L 328.768467 464.293741 
L 330.465166 464.167897 
L 332.161865 464.293741 
L 333.858564 464.658721 
L 335.894603 465.360937 
L 338.609321 466.588514 
L 344.038758 469.124331 
L 346.414137 469.98008 
L 348.789516 470.617493 
L 351.504234 471.101405 
L 354.558293 471.408376 
L 358.63037 471.583558 
L 366.435186 471.649908 
L 389.510293 471.575267 
L 393.921711 471.3571 
L 396.975769 471.00204 
L 399.690488 470.457292 
L 402.065866 469.757667 
L 404.441245 468.842084 
L 407.834643 467.254884 
L 411.906721 465.360937 
L 413.94276 464.658721 
L 415.639459 464.293741 
L 417.336158 464.167897 
L 419.032857 464.293741 
L 420.729556 464.658721 
L 422.765595 465.360937 
L 425.480313 466.588514 
L 430.90975 469.124331 
L 433.285129 469.98008 
L 435.660508 470.617493 
L 438.375226 471.101405 
L 441.429285 471.408376 
L 445.501362 471.583558 
L 453.306178 471.649908 
L 460.432314 471.653355 
L 460.432314 471.653355 
" style="fill:none;stroke:#2f974e;stroke-linecap:square;"/>
   </g>
   <g id="line2d_30">
    <path clip-path="url(#pbf0bad382f)" d="M 113.287686 471.65343 
L 130.933356 471.552264 
L 135.344774 471.308523 
L 138.738172 470.895803 
L 141.79223 470.283765 
L 144.846289 469.435029 
L 152.990444 466.963017 
L 155.026483 466.647482 
L 157.062522 466.565336 
L 159.098561 466.728302 
L 161.1346 467.113247 
L 163.849318 467.878059 
L 171.654134 470.283765 
L 174.708192 470.895803 
L 177.76225 471.277996 
L 181.494988 471.516387 
L 187.263765 471.632631 
L 205.588115 471.652549 
L 218.143688 471.541339 
L 222.555106 471.277996 
L 225.948504 470.839876 
L 229.002562 470.200513 
L 232.05662 469.328748 
L 239.522096 467.035613 
L 241.558135 466.684688 
L 243.594174 466.561884 
L 245.630213 466.684688 
L 247.666252 467.035613 
L 250.04163 467.667565 
L 259.882485 470.586304 
L 262.936543 471.091304 
L 266.329941 471.411066 
L 270.741359 471.587223 
L 279.224854 471.650699 
L 303.996661 471.571363 
L 308.747418 471.336998 
L 312.140816 470.948843 
L 315.194874 470.363997 
L 318.248933 469.539322 
L 327.411108 466.834036 
L 329.447146 466.592867 
L 331.483185 466.592867 
L 333.519224 466.834036 
L 335.894603 467.37338 
L 339.288001 468.434264 
L 344.378098 470.025162 
L 347.432157 470.719144 
L 350.486215 471.173161 
L 353.879613 471.451917 
L 358.63037 471.605952 
L 368.810565 471.652694 
L 391.546332 471.552264 
L 395.95775 471.308523 
L 399.351148 470.895803 
L 402.405206 470.283765 
L 405.459264 469.435029 
L 413.60342 466.963017 
L 415.639459 466.647482 
L 417.675498 466.565336 
L 419.711537 466.728302 
L 421.747575 467.113247 
L 424.462294 467.878059 
L 432.26711 470.283765 
L 435.321168 470.895803 
L 438.375226 471.277996 
L 442.107964 471.516387 
L 447.876741 471.632631 
L 460.432314 471.653428 
L 460.432314 471.653428 
" style="fill:none;stroke:#157f3b;stroke-linecap:square;"/>
   </g>
   <g id="line2d_31">
    <path clip-path="url(#pbf0bad382f)" d="M 113.287686 471.653497 
L 132.969395 471.55042 
L 137.720152 471.31234 
L 141.79223 470.883579 
L 145.864308 470.224362 
L 152.990444 469.016918 
L 155.705163 468.808848 
L 158.419881 468.839549 
L 161.1346 469.101365 
L 164.867337 469.716955 
L 171.654134 470.883579 
L 175.386872 471.285661 
L 179.798289 471.529185 
L 186.245746 471.6367 
L 208.642173 471.651434 
L 220.519067 471.529185 
L 225.269824 471.257434 
L 229.341902 470.788314 
L 233.753319 470.035513 
L 239.522096 469.057725 
L 242.236815 468.822321 
L 244.951533 468.822321 
L 247.666252 469.057725 
L 251.05965 469.592277 
L 259.203805 470.972063 
L 263.275883 471.361227 
L 268.02664 471.568493 
L 275.831456 471.647293 
L 304.336 471.602242 
L 310.104777 471.404465 
L 314.176855 471.053643 
L 318.248933 470.465112 
L 327.750447 468.913 
L 330.465166 468.791432 
L 333.179884 468.913 
L 336.233943 469.300838 
L 342.342059 470.406487 
L 346.414137 471.013719 
L 350.486215 471.383528 
L 355.236972 471.576462 
L 363.720468 471.649335 
L 392.225012 471.583779 
L 397.654449 471.361227 
L 401.726527 470.972063 
L 405.798604 470.346744 
L 413.94276 468.979099 
L 416.657478 468.799186 
L 419.372197 468.860463 
L 422.086915 469.147672 
L 426.158993 469.843936 
L 432.26711 470.883579 
L 435.999848 471.285661 
L 440.411265 471.529185 
L 446.858722 471.6367 
L 460.432314 471.653495 
L 460.432314 471.653495 
" style="fill:none;stroke:#006428;stroke-linecap:square;"/>
   </g>
   <g id="line2d_32">
    <path clip-path="url(#pbf0bad382f)" d="M 113.287686 471.653537 
L 135.684114 471.543131 
L 141.45289 471.274346 
L 147.561007 470.740282 
L 153.669124 470.23627 
L 157.401862 470.160292 
L 161.1346 470.318379 
L 166.903376 470.840284 
L 173.350833 471.359703 
L 179.11961 471.575532 
L 188.281784 471.649336 
L 220.519067 471.588503 
L 226.966523 471.359703 
L 232.39596 470.938123 
L 241.218795 470.205176 
L 244.951533 470.172396 
L 248.684271 470.368135 
L 264.972582 471.552109 
L 273.116738 471.64475 
L 304.336 471.626724 
L 311.801476 471.461103 
L 317.230913 471.119817 
L 329.786486 470.160292 
L 333.519224 470.23627 
L 337.930642 470.575201 
L 347.432157 471.378786 
L 353.200933 471.582264 
L 362.702448 471.650292 
L 394.60039 471.582264 
L 400.708507 471.359703 
L 406.137944 470.938123 
L 414.960779 470.205176 
L 418.693517 470.172396 
L 422.426255 470.368135 
L 438.714566 471.552109 
L 446.858722 471.64475 
L 460.432314 471.653537 
L 460.432314 471.653537 
" style="fill:none;stroke:#00441b;stroke-linecap:square;"/>
   </g>
   <g id="line2d_33">
    <path clip-path="url(#pbf0bad382f)" d="M 113.287686 81.306446 
L 460.432314 81.306446 
L 460.432314 81.306446 
" style="fill:none;stroke:#e3eef9;stroke-linecap:square;"/>
   </g>
   <g id="line2d_34">
    <path clip-path="url(#pbf0bad382f)" d="M 113.287686 81.306446 
L 460.432314 81.306446 
L 460.432314 81.306446 
" style="fill:none;stroke:#d0e1f2;stroke-linecap:square;"/>
   </g>
   <g id="line2d_35">
    <path clip-path="url(#pbf0bad382f)" d="M 113.287686 81.306446 
L 460.432314 81.306446 
L 460.432314 81.306446 
" style="fill:none;stroke:#b7d4ea;stroke-linecap:square;"/>
   </g>
   <g id="line2d_36">
    <path clip-path="url(#pbf0bad382f)" d="M 113.287686 81.306446 
L 460.432314 81.306446 
L 460.432314 81.306446 
" style="fill:none;stroke:#94c4df;stroke-linecap:square;"/>
   </g>
   <g id="line2d_37">
    <path clip-path="url(#pbf0bad382f)" d="M 113.287686 81.306446 
L 460.432314 81.306446 
L 460.432314 81.306446 
" style="fill:none;stroke:#6aaed6;stroke-linecap:square;"/>
   </g>
   <g id="line2d_38">
    <path clip-path="url(#pbf0bad382f)" d="M 113.287686 81.306446 
L 460.432314 81.306446 
L 460.432314 81.306446 
" style="fill:none;stroke:#4a98c9;stroke-linecap:square;"/>
   </g>
   <g id="line2d_39">
    <path clip-path="url(#pbf0bad382f)" d="M 113.287686 81.306446 
L 460.432314 81.306446 
L 460.432314 81.306446 
" style="fill:none;stroke:#2e7ebc;stroke-linecap:square;"/>
   </g>
   <g id="line2d_40">
    <path clip-path="url(#pbf0bad382f)" d="M 113.287686 81.306446 
L 460.432314 81.306446 
L 460.432314 81.306446 
" style="fill:none;stroke:#1764ab;stroke-linecap:square;"/>
   </g>
   <g id="line2d_41">
    <path clip-path="url(#pbf0bad382f)" d="M 113.287686 81.306446 
L 460.432314 81.306446 
L 460.432314 81.306446 
" style="fill:none;stroke:#084a91;stroke-linecap:square;"/>
   </g>
   <g id="line2d_42">
    <path clip-path="url(#pbf0bad382f)" d="M 113.287686 81.306446 
L 460.432314 81.306446 
L 460.432314 81.306446 
" style="fill:none;stroke:#08306b;stroke-linecap:square;"/>
   </g>
   <g id="line2d_43">
    <path clip-path="url(#pbf0bad382f)" d="M 113.287686 471.653554 
L 137.380813 471.548416 
L 144.167609 471.277242 
L 156.044502 470.703838 
L 160.45592 470.776284 
L 167.242716 471.157279 
L 174.708192 471.511851 
L 182.513008 471.634632 
L 205.927455 471.653358 
L 224.251805 471.548416 
L 231.038601 471.277242 
L 242.915494 470.703838 
L 247.326912 470.776284 
L 254.113708 471.157279 
L 261.579184 471.511851 
L 269.384 471.634632 
L 292.798447 471.653358 
L 311.122797 471.548416 
L 317.909593 471.277242 
L 329.786486 470.703838 
L 334.197904 470.776284 
L 340.9847 471.157279 
L 348.450176 471.511851 
L 356.254992 471.634632 
L 379.669439 471.653358 
L 397.993789 471.548416 
L 404.780585 471.277242 
L 416.657478 470.703838 
L 421.068896 470.776284 
L 427.855692 471.157279 
L 435.321168 471.511851 
L 443.125984 471.634632 
L 460.432314 471.653553 
L 460.432314 471.653553 
" style="fill:none;stroke:#fee5d8;stroke-linecap:square;"/>
   </g>
   <g id="line2d_44">
    <path clip-path="url(#pbf0bad382f)" d="M 113.287686 471.65353 
L 135.005434 471.545879 
L 140.434871 471.29049 
L 145.524968 470.825899 
L 154.008463 469.994946 
L 157.401862 469.926065 
L 160.79526 470.082535 
L 165.546017 470.558359 
L 172.672153 471.266328 
L 177.76225 471.525806 
L 184.888386 471.637378 
L 209.320853 471.651867 
L 222.215766 471.536192 
L 227.645203 471.266328 
L 232.7353 470.788598 
L 240.540116 470.013959 
L 243.933514 469.922547 
L 247.326912 470.057838 
L 251.738329 470.481508 
L 259.882485 471.29049 
L 264.972582 471.536192 
L 272.438058 471.64068 
L 300.263923 471.645534 
L 309.765437 471.514691 
L 315.194874 471.21486 
L 320.624311 470.674304 
L 327.411108 470.013959 
L 330.804506 469.922547 
L 334.197904 470.057838 
L 338.609321 470.481508 
L 346.753477 471.29049 
L 351.843574 471.536192 
L 359.30905 471.64068 
L 387.134915 471.645534 
L 396.636429 471.514691 
L 402.065866 471.21486 
L 407.495303 470.674304 
L 414.2821 470.013959 
L 417.675498 469.922547 
L 421.068896 470.057838 
L 425.480313 470.481508 
L 433.624469 471.29049 
L 438.714566 471.536192 
L 446.180042 471.64068 
L 460.432314 471.65353 
L 460.432314 471.65353 
" style="fill:none;stroke:#fdcab5;stroke-linecap:square;"/>
   </g>
   <g id="line2d_45">
    <path clip-path="url(#pbf0bad382f)" d="M 113.287686 471.653486 
L 132.630055 471.548293 
L 137.380813 471.298628 
L 141.113551 470.888216 
L 144.846289 470.253059 
L 153.669124 468.611135 
L 156.044502 468.448044 
L 158.419881 468.493371 
L 161.1346 468.787389 
L 164.527998 469.408264 
L 171.654134 470.788846 
L 175.386872 471.240395 
L 179.458949 471.500487 
L 185.227726 471.626734 
L 201.176697 471.653473 
L 219.501047 471.548293 
L 224.251805 471.298628 
L 227.984543 470.888216 
L 231.71728 470.253059 
L 240.540116 468.611135 
L 242.915494 468.448044 
L 245.290873 468.493371 
L 248.005591 468.787389 
L 251.39899 469.408264 
L 258.525126 470.788846 
L 262.257864 471.240395 
L 266.329941 471.500487 
L 272.098718 471.626734 
L 288.047689 471.653473 
L 306.372039 471.548293 
L 311.122797 471.298628 
L 314.855535 470.888216 
L 318.588272 470.253059 
L 327.411108 468.611135 
L 329.786486 468.448044 
L 332.161865 468.493371 
L 334.876583 468.787389 
L 338.269982 469.408264 
L 345.396118 470.788846 
L 349.128856 471.240395 
L 353.200933 471.500487 
L 358.96971 471.626734 
L 374.918681 471.653473 
L 393.243031 471.548293 
L 397.993789 471.298628 
L 401.726527 470.888216 
L 405.459264 470.253059 
L 414.2821 468.611135 
L 416.657478 468.448044 
L 419.032857 468.493371 
L 421.747575 468.787389 
L 425.140974 469.408264 
L 432.26711 470.788846 
L 435.999848 471.240395 
L 440.071925 471.500487 
L 445.840702 471.626734 
L 460.432314 471.653485 
L 460.432314 471.653485 
" style="fill:none;stroke:#fcab8f;stroke-linecap:square;"/>
   </g>
   <g id="line2d_46">
    <path clip-path="url(#pbf0bad382f)" d="M 113.287686 471.653433 
L 131.272696 471.543366 
L 135.684114 471.284778 
L 139.077512 470.854569 
L 142.13157 470.226753 
L 145.185628 469.370739 
L 152.651104 467.119099 
L 154.687143 466.774536 
L 156.723182 466.653959 
L 158.759221 466.774536 
L 160.79526 467.119099 
L 163.509978 467.841763 
L 172.332813 470.46307 
L 175.386872 471.010878 
L 178.78027 471.368755 
L 183.191687 471.572847 
L 190.657163 471.64791 
L 216.107649 471.595161 
L 221.197746 471.392967 
L 224.591144 471.057482 
L 227.645203 470.535836 
L 230.699261 469.775763 
L 234.771339 468.492428 
L 238.504077 467.361458 
L 240.879455 466.866304 
L 242.915494 466.667502 
L 244.951533 466.707912 
L 246.987572 466.98176 
L 249.362951 467.543756 
L 253.095689 468.715678 
L 257.507106 470.05457 
L 260.561165 470.736017 
L 263.615223 471.181836 
L 267.347961 471.473373 
L 272.438058 471.616342 
L 284.654291 471.653317 
L 304.67534 471.554093 
L 309.086758 471.314753 
L 312.480156 470.909487 
L 315.534214 470.308502 
L 318.588272 469.4751 
L 327.071768 466.98176 
L 329.107807 466.707912 
L 331.143846 466.667502 
L 333.179884 466.866304 
L 335.555263 467.361458 
L 338.609321 468.270618 
L 344.378098 470.05457 
L 347.432157 470.736017 
L 350.486215 471.181836 
L 354.218953 471.473373 
L 359.30905 471.616342 
L 371.525283 471.653317 
L 391.546332 471.554093 
L 395.95775 471.314753 
L 399.351148 470.909487 
L 402.405206 470.308502 
L 405.459264 469.4751 
L 413.94276 466.98176 
L 415.978799 466.707912 
L 418.014837 466.667502 
L 420.050876 466.866304 
L 422.426255 467.361458 
L 425.480313 468.270618 
L 431.24909 470.05457 
L 434.303148 470.736017 
L 437.357207 471.181836 
L 441.089945 471.473373 
L 446.180042 471.616342 
L 458.396275 471.653317 
L 460.432314 471.653431 
L 460.432314 471.653431 
" style="fill:none;stroke:#fc8a6a;stroke-linecap:square;"/>
   </g>
   <g id="line2d_47">
    <path clip-path="url(#pbf0bad382f)" d="M 113.287686 471.653393 
L 130.254677 471.551239 
L 134.326754 471.323214 
L 137.380813 470.953681 
L 140.095531 470.409659 
L 142.81025 469.626599 
L 145.864308 468.488755 
L 151.972425 466.104685 
L 154.008463 465.585086 
L 155.705163 465.35448 
L 157.401862 465.333087 
L 159.098561 465.523044 
L 161.1346 466.002152 
L 163.509978 466.821579 
L 171.993473 470.048363 
L 174.708192 470.71033 
L 177.42291 471.145398 
L 180.816309 471.445972 
L 185.567066 471.606375 
L 195.74726 471.652766 
L 217.125669 471.551239 
L 221.197746 471.323214 
L 224.251805 470.953681 
L 226.966523 470.409659 
L 229.681242 469.626599 
L 232.7353 468.488755 
L 238.843417 466.104685 
L 240.879455 465.585086 
L 242.576154 465.35448 
L 244.272854 465.333087 
L 245.969553 465.523044 
L 248.005591 466.002152 
L 250.38097 466.821579 
L 258.864465 470.048363 
L 261.579184 470.71033 
L 264.293902 471.145398 
L 267.687301 471.445972 
L 272.438058 471.606375 
L 282.618252 471.652766 
L 303.996661 471.551239 
L 308.068738 471.323214 
L 311.122797 470.953681 
L 313.837515 470.409659 
L 316.552234 469.626599 
L 319.606292 468.488755 
L 325.714409 466.104685 
L 327.750447 465.585086 
L 329.447146 465.35448 
L 331.143846 465.333087 
L 332.840545 465.523044 
L 334.876583 466.002152 
L 337.251962 466.821579 
L 345.735457 470.048363 
L 348.450176 470.71033 
L 351.164894 471.145398 
L 354.558293 471.445972 
L 359.30905 471.606375 
L 369.489244 471.652766 
L 390.867653 471.551239 
L 394.93973 471.323214 
L 397.993789 470.953681 
L 400.708507 470.409659 
L 403.423226 469.626599 
L 406.477284 468.488755 
L 412.5854 466.104685 
L 414.621439 465.585086 
L 416.318138 465.35448 
L 418.014837 465.333087 
L 419.711537 465.523044 
L 421.747575 466.002152 
L 424.122954 466.821579 
L 432.606449 470.048363 
L 435.321168 470.71033 
L 438.035886 471.145398 
L 441.429285 471.445972 
L 446.180042 471.606375 
L 456.360236 471.652766 
L 460.432314 471.65339 
L 460.432314 471.65339 
" style="fill:none;stroke:#fb694a;stroke-linecap:square;"/>
   </g>
   <g id="line2d_48">
    <path clip-path="url(#pbf0bad382f)" d="M 113.287686 471.653387 
L 130.254677 471.548211 
L 134.326754 471.313438 
L 137.380813 470.932971 
L 140.095531 470.372852 
L 142.81025 469.566621 
L 145.864308 468.395109 
L 151.972425 465.940503 
L 154.008463 465.405533 
L 155.705163 465.168106 
L 157.401862 465.146079 
L 159.098561 465.341656 
L 161.1346 465.834938 
L 163.509978 466.678607 
L 171.993473 470.000865 
L 174.708192 470.68242 
L 177.42291 471.130361 
L 180.816309 471.439829 
L 185.227726 471.599076 
L 194.389901 471.652044 
L 216.786329 471.558853 
L 221.197746 471.313438 
L 224.251805 470.932971 
L 226.966523 470.372852 
L 229.681242 469.566621 
L 232.7353 468.395109 
L 238.843417 465.940503 
L 240.879455 465.405533 
L 242.576154 465.168106 
L 244.272854 465.146079 
L 245.969553 465.341656 
L 248.005591 465.834938 
L 250.38097 466.678607 
L 258.864465 470.000865 
L 261.579184 470.68242 
L 264.293902 471.130361 
L 267.687301 471.439829 
L 272.098718 471.599076 
L 281.260893 471.652044 
L 303.657321 471.558853 
L 308.068738 471.313438 
L 311.122797 470.932971 
L 313.837515 470.372852 
L 316.552234 469.566621 
L 319.606292 468.395109 
L 325.714409 465.940503 
L 327.750447 465.405533 
L 329.447146 465.168106 
L 331.143846 465.146079 
L 332.840545 465.341656 
L 334.876583 465.834938 
L 337.251962 466.678607 
L 345.735457 470.000865 
L 348.450176 470.68242 
L 351.164894 471.130361 
L 354.558293 471.439829 
L 358.96971 471.599076 
L 368.131885 471.652044 
L 390.528313 471.558853 
L 394.93973 471.313438 
L 397.993789 470.932971 
L 400.708507 470.372852 
L 403.423226 469.566621 
L 406.477284 468.395109 
L 412.5854 465.940503 
L 414.621439 465.405533 
L 416.318138 465.168106 
L 418.014837 465.146079 
L 419.711537 465.341656 
L 421.747575 465.834938 
L 424.122954 466.678607 
L 432.606449 470.000865 
L 435.321168 470.68242 
L 438.035886 471.130361 
L 441.429285 471.439829 
L 445.840702 471.599076 
L 455.002877 471.652044 
L 460.432314 471.653384 
L 460.432314 471.653384 
" style="fill:none;stroke:#f14432;stroke-linecap:square;"/>
   </g>
   <g id="line2d_49">
    <path clip-path="url(#pbf0bad382f)" d="M 113.287686 471.653419 
L 130.933356 471.545017 
L 135.344774 471.283844 
L 138.398832 470.898439 
L 141.113551 470.354464 
L 144.167609 469.49754 
L 148.579026 467.962012 
L 151.972425 466.876902 
L 154.008463 466.429604 
L 156.044502 466.21267 
L 158.080541 466.256766 
L 160.11658 466.555591 
L 162.491959 467.168849 
L 165.885357 468.325837 
L 170.296774 469.810169 
L 173.350833 470.58278 
L 176.404891 471.096291 
L 179.798289 471.416455 
L 184.209707 471.589831 
L 192.693202 471.650904 
L 216.786329 471.57438 
L 221.537086 471.342771 
L 224.930484 470.952246 
L 227.645203 470.433869 
L 230.359921 469.708715 
L 234.092659 468.447671 
L 238.504077 466.969922 
L 240.879455 466.429604 
L 242.915494 466.21267 
L 244.951533 466.256766 
L 246.987572 466.555591 
L 249.362951 467.168849 
L 252.756349 468.325837 
L 257.167766 469.810169 
L 260.221825 470.58278 
L 263.275883 471.096291 
L 266.669281 471.416455 
L 271.080699 471.589831 
L 279.564194 471.650904 
L 303.657321 471.57438 
L 308.408078 471.342771 
L 311.801476 470.952246 
L 314.516195 470.433869 
L 317.230913 469.708715 
L 320.963651 468.447671 
L 325.375069 466.969922 
L 327.750447 466.429604 
L 329.786486 466.21267 
L 331.822525 466.256766 
L 333.858564 466.555591 
L 336.233943 467.168849 
L 339.627341 468.325837 
L 344.038758 469.810169 
L 347.092817 470.58278 
L 350.146875 471.096291 
L 353.540273 471.416455 
L 357.951691 471.589831 
L 366.435186 471.650904 
L 390.528313 471.57438 
L 395.27907 471.342771 
L 398.672468 470.952246 
L 401.387187 470.433869 
L 404.101905 469.708715 
L 407.834643 468.447671 
L 412.246061 466.969922 
L 414.621439 466.429604 
L 416.657478 466.21267 
L 418.693517 466.256766 
L 420.729556 466.555591 
L 423.104935 467.168849 
L 426.498333 468.325837 
L 430.90975 469.810169 
L 433.963809 470.58278 
L 437.017867 471.096291 
L 440.411265 471.416455 
L 444.822683 471.589831 
L 453.306178 471.650904 
L 460.432314 471.653417 
L 460.432314 471.653417 
" style="fill:none;stroke:#d92523;stroke-linecap:square;"/>
   </g>
   <g id="line2d_50">
    <path clip-path="url(#pbf0bad382f)" d="M 113.287686 471.653471 
L 132.290715 471.543256 
L 136.702133 471.303432 
L 140.434871 470.875708 
L 143.828269 470.259783 
L 148.918366 469.061265 
L 152.651104 468.287862 
L 155.026483 468.004989 
L 157.401862 467.952657 
L 159.77724 468.140951 
L 162.491959 468.603069 
L 166.903376 469.637906 
L 171.314794 470.594528 
L 174.708192 471.101283 
L 178.44093 471.422843 
L 183.191687 471.593657 
L 192.353862 471.651481 
L 218.483028 471.563076 
L 223.233785 471.33058 
L 226.966523 470.925231 
L 230.359921 470.330698 
L 235.110679 469.224657 
L 239.182756 468.344443 
L 241.558135 468.032105 
L 243.933514 467.94512 
L 246.308892 468.100221 
L 249.023611 468.534032 
L 253.095689 469.472936 
L 257.846446 470.531686 
L 261.239844 471.060521 
L 264.972582 471.402089 
L 269.723339 471.587015 
L 278.546175 471.650796 
L 305.01468 471.571775 
L 310.104777 471.33058 
L 313.837515 470.925231 
L 317.230913 470.330698 
L 321.981671 469.224657 
L 326.053748 468.344443 
L 328.429127 468.032105 
L 330.804506 467.94512 
L 333.179884 468.100221 
L 335.894603 468.534032 
L 339.966681 469.472936 
L 344.717438 470.531686 
L 348.110836 471.060521 
L 351.843574 471.402089 
L 356.594331 471.587015 
L 365.417167 471.650796 
L 391.885672 471.571775 
L 396.975769 471.33058 
L 400.708507 470.925231 
L 404.101905 470.330698 
L 408.852663 469.224657 
L 412.92474 468.344443 
L 415.300119 468.032105 
L 417.675498 467.94512 
L 420.050876 468.100221 
L 422.765595 468.534032 
L 426.837673 469.472936 
L 431.58843 470.531686 
L 434.981828 471.060521 
L 438.714566 471.402089 
L 443.465323 471.587015 
L 452.288159 471.650796 
L 460.432314 471.65347 
L 460.432314 471.65347 
" style="fill:none;stroke:#bc141a;stroke-linecap:square;"/>
   </g>
   <g id="line2d_51">
    <path clip-path="url(#pbf0bad382f)" d="M 113.287686 471.65352 
L 134.326754 471.544846 
L 139.416852 471.296091 
L 143.828269 470.870097 
L 155.365823 469.590055 
L 158.419881 469.602611 
L 161.813279 469.862749 
L 167.242716 470.566441 
L 172.672153 471.187224 
L 177.42291 471.48632 
L 183.531027 471.623299 
L 198.801319 471.653505 
L 221.197746 471.544846 
L 226.287843 471.296091 
L 230.699261 470.870097 
L 242.236815 469.590055 
L 245.290873 469.602611 
L 248.684271 469.862749 
L 254.113708 470.566441 
L 259.543145 471.187224 
L 264.293902 471.48632 
L 270.402019 471.623299 
L 285.672311 471.653505 
L 308.068738 471.544846 
L 313.158835 471.296091 
L 317.570253 470.870097 
L 329.107807 469.590055 
L 332.161865 469.602611 
L 335.555263 469.862749 
L 340.9847 470.566441 
L 346.414137 471.187224 
L 351.164894 471.48632 
L 357.273011 471.623299 
L 372.543303 471.653505 
L 394.93973 471.544846 
L 400.029827 471.296091 
L 404.441245 470.870097 
L 415.978799 469.590055 
L 419.032857 469.602611 
L 422.426255 469.862749 
L 427.855692 470.566441 
L 433.285129 471.187224 
L 438.035886 471.48632 
L 444.144003 471.623299 
L 459.414295 471.653505 
L 460.432314 471.653519 
L 460.432314 471.653519 
" style="fill:none;stroke:#980c13;stroke-linecap:square;"/>
   </g>
   <g id="line2d_52">
    <path clip-path="url(#pbf0bad382f)" d="M 113.287686 471.65355 
L 136.702133 471.550611 
L 143.149589 471.284847 
L 157.062522 470.562998 
L 161.473939 470.69809 
L 180.137629 471.610358 
L 193.371882 471.653181 
L 223.573125 471.550611 
L 230.020581 471.284847 
L 243.933514 470.562998 
L 248.344931 470.69809 
L 267.008621 471.610358 
L 280.242874 471.653181 
L 310.444117 471.550611 
L 316.891573 471.284847 
L 330.804506 470.562998 
L 335.215923 470.69809 
L 353.879613 471.610358 
L 367.113866 471.653181 
L 397.315109 471.550611 
L 403.762565 471.284847 
L 417.675498 470.562998 
L 422.086915 470.69809 
L 440.750605 471.610358 
L 453.984858 471.653181 
L 460.432314 471.653549 
L 460.432314 471.653549 
" style="fill:none;stroke:#67000d;stroke-linecap:square;"/>
   </g>
   <g id="patch_3">
    <path d="M 76.8375 512.64 
L 76.8375 40.32 
" style="fill:none;stroke:#000000;stroke-linecap:square;stroke-linejoin:miter;stroke-width:0.8;"/>
   </g>
   <g id="patch_4">
    <path d="M 496.8825 512.64 
L 496.8825 40.32 
" style="fill:none;stroke:#000000;stroke-linecap:square;stroke-linejoin:miter;stroke-width:0.8;"/>
   </g>
   <g id="patch_5">
    <path d="M 76.8375 512.64 
L 496.8825 512.64 
" style="fill:none;stroke:#000000;stroke-linecap:square;stroke-linejoin:miter;stroke-width:0.8;"/>
   </g>
   <g id="patch_6">
    <path d="M 76.8375 40.32 
L 496.8825 40.32 
" style="fill:none;stroke:#000000;stroke-linecap:square;stroke-linejoin:miter;stroke-width:0.8;"/>
   </g>
   <g id="legend_1">
    <g id="patch_7">
     <path d="M 342.6825 324.83625 
L 482.8825 324.83625 
Q 486.8825 324.83625 486.8825 320.83625 
L 486.8825 232.12375 
Q 486.8825 228.12375 482.8825 228.12375 
L 342.6825 228.12375 
Q 338.6825 228.12375 338.6825 232.12375 
L 338.6825 320.83625 
Q 338.6825 324.83625 342.6825 324.83625 
z
" style="fill:#ffffff;opacity:0.8;stroke:#cccccc;stroke-linejoin:miter;"/>
    </g>
    <g id="line2d_53">
     <path d="M 346.6825 246.964375 
L 386.6825 246.964375 
" style="fill:none;stroke:#008000;stroke-linecap:square;stroke-width:2;"/>
    </g>
    <g id="line2d_54"/>
    <g id="text_13">
     <!-- $V_z(kV\AA)$ -->
     <defs>
      <path d="M 20.609375 0 
L 7.8125 72.90625 
L 17.484375 72.90625 
L 28.078125 10.203125 
L 63.484375 72.90625 
L 74.21875 72.90625 
L 32.078125 0 
z
" id="DejaVuSans-Oblique-86"/>
      <path d="M 11.625 54.6875 
L 54.296875 54.6875 
L 52.6875 46.484375 
L 11.53125 7.171875 
L 45.515625 7.171875 
L 44.09375 0 
L -0.296875 0 
L 1.3125 8.203125 
L 42.484375 47.515625 
L 10.203125 47.515625 
z
" id="DejaVuSans-Oblique-122"/>
      <path d="M 18.3125 75.984375 
L 27.296875 75.984375 
L 18.703125 31.6875 
L 49.515625 54.6875 
L 61.1875 54.6875 
L 26.8125 28.515625 
L 51.90625 0 
L 41.015625 0 
L 17.671875 26.703125 
L 12.5 0 
L 3.515625 0 
z
" id="DejaVuSans-Oblique-107"/>
     </defs>
     <g transform="translate(402.6825 253.964375)scale(0.2 -0.2)">
      <use transform="translate(0 0.171875)" xlink:href="#DejaVuSans-Oblique-86"/>
      <use transform="translate(68.408203 -16.234375)scale(0.7)" xlink:href="#DejaVuSans-Oblique-122"/>
      <use transform="translate(107.885742 0.171875)" xlink:href="#DejaVuSans-40"/>
      <use transform="translate(146.899414 0.171875)" xlink:href="#DejaVuSans-Oblique-107"/>
      <use transform="translate(204.80957 0.171875)" xlink:href="#DejaVuSans-Oblique-86"/>
      <use transform="translate(273.217773 0.171875)" xlink:href="#DejaVuSans-Oblique-197"/>
      <use transform="translate(341.625977 0.171875)" xlink:href="#DejaVuSans-41"/>
     </g>
    </g>
    <g id="line2d_55">
     <path d="M 346.6825 276.320625 
L 386.6825 276.320625 
" style="fill:none;stroke:#0000ff;stroke-linecap:square;stroke-width:2;"/>
    </g>
    <g id="line2d_56"/>
    <g id="text_14">
     <!-- $re(T)$ -->
     <defs>
      <path d="M 44.578125 46.390625 
Q 43.21875 47.125 41.453125 47.515625 
Q 39.703125 47.90625 37.703125 47.90625 
Q 30.515625 47.90625 25.140625 42.453125 
Q 19.78125 37.015625 18.015625 27.875 
L 12.5 0 
L 3.515625 0 
L 14.203125 54.6875 
L 23.1875 54.6875 
L 21.484375 46.1875 
Q 25.046875 50.921875 30 53.453125 
Q 34.96875 56 40.578125 56 
Q 42.046875 56 43.453125 55.828125 
Q 44.875 55.671875 46.296875 55.28125 
z
" id="DejaVuSans-Oblique-114"/>
      <path d="M 48.09375 32.234375 
Q 48.25 33.015625 48.3125 33.84375 
Q 48.390625 34.671875 48.390625 35.5 
Q 48.390625 41.453125 44.890625 44.921875 
Q 41.40625 48.390625 35.40625 48.390625 
Q 28.71875 48.390625 23.578125 44.15625 
Q 18.453125 39.9375 15.828125 32.171875 
z
M 55.90625 25.203125 
L 14.109375 25.203125 
Q 13.8125 23.34375 13.71875 22.265625 
Q 13.625 21.1875 13.625 20.40625 
Q 13.625 13.625 17.796875 9.90625 
Q 21.96875 6.203125 29.59375 6.203125 
Q 35.453125 6.203125 40.671875 7.515625 
Q 45.90625 8.84375 50.390625 11.375 
L 48.6875 2.484375 
Q 43.84375 0.53125 38.6875 -0.4375 
Q 33.546875 -1.421875 28.21875 -1.421875 
Q 16.84375 -1.421875 10.71875 4.015625 
Q 4.59375 9.46875 4.59375 19.484375 
Q 4.59375 28.03125 7.640625 35.375 
Q 10.6875 42.71875 16.609375 48.484375 
Q 20.40625 52.09375 25.65625 54.046875 
Q 30.90625 56 36.8125 56 
Q 46.09375 56 51.578125 50.4375 
Q 57.078125 44.875 57.078125 35.5 
Q 57.078125 33.25 56.78125 30.6875 
Q 56.5 28.125 55.90625 25.203125 
z
" id="DejaVuSans-Oblique-101"/>
      <path d="M 5.90625 72.90625 
L 67.578125 72.90625 
L 66.015625 64.59375 
L 39.984375 64.59375 
L 27.484375 0 
L 17.578125 0 
L 30.078125 64.59375 
L 4.296875 64.59375 
z
" id="DejaVuSans-Oblique-84"/>
     </defs>
     <g transform="translate(402.6825 283.320625)scale(0.2 -0.2)">
      <use transform="translate(0 0.125)" xlink:href="#DejaVuSans-Oblique-114"/>
      <use transform="translate(41.113281 0.125)" xlink:href="#DejaVuSans-Oblique-101"/>
      <use transform="translate(102.636719 0.125)" xlink:href="#DejaVuSans-40"/>
      <use transform="translate(141.650391 0.125)" xlink:href="#DejaVuSans-Oblique-84"/>
      <use transform="translate(202.734375 0.125)" xlink:href="#DejaVuSans-41"/>
     </g>
    </g>
    <g id="line2d_57">
     <path d="M 346.6825 305.676875 
L 386.6825 305.676875 
" style="fill:none;stroke:#ff0000;stroke-linecap:square;stroke-width:2;"/>
    </g>
    <g id="line2d_58"/>
    <g id="text_15">
     <!-- $im(T)$ -->
     <defs>
      <path d="M 18.3125 75.984375 
L 27.296875 75.984375 
L 25.09375 64.59375 
L 16.109375 64.59375 
z
M 14.203125 54.6875 
L 23.1875 54.6875 
L 12.5 0 
L 3.515625 0 
z
" id="DejaVuSans-Oblique-105"/>
      <path d="M 89.796875 33.015625 
L 83.40625 0 
L 74.421875 0 
L 80.71875 32.71875 
Q 81.109375 34.8125 81.296875 36.328125 
Q 81.5 37.84375 81.5 38.921875 
Q 81.5 43.3125 79.046875 45.75 
Q 76.609375 48.1875 72.21875 48.1875 
Q 65.671875 48.1875 60.546875 43.28125 
Q 55.421875 38.375 53.90625 30.515625 
L 47.90625 0 
L 38.921875 0 
L 45.3125 32.71875 
Q 45.703125 34.515625 45.890625 36.046875 
Q 46.09375 37.59375 46.09375 38.8125 
Q 46.09375 43.265625 43.65625 45.71875 
Q 41.21875 48.1875 36.921875 48.1875 
Q 30.28125 48.1875 25.140625 43.28125 
Q 20.015625 38.375 18.5 30.515625 
L 12.5 0 
L 3.515625 0 
L 14.203125 54.6875 
L 23.1875 54.6875 
L 21.484375 46.1875 
Q 25.140625 50.984375 30.046875 53.484375 
Q 34.96875 56 40.578125 56 
Q 46.53125 56 50.359375 52.875 
Q 54.203125 49.75 54.984375 44.1875 
Q 59.078125 49.953125 64.46875 52.96875 
Q 69.875 56 75.875 56 
Q 82.90625 56 86.734375 51.953125 
Q 90.578125 47.90625 90.578125 40.484375 
Q 90.578125 38.875 90.375 36.9375 
Q 90.1875 35.015625 89.796875 33.015625 
z
" id="DejaVuSans-Oblique-109"/>
     </defs>
     <g transform="translate(402.6825 312.676875)scale(0.2 -0.2)">
      <use transform="translate(0 0.015625)" xlink:href="#DejaVuSans-Oblique-105"/>
      <use transform="translate(27.783203 0.015625)" xlink:href="#DejaVuSans-Oblique-109"/>
      <use transform="translate(125.195312 0.015625)" xlink:href="#DejaVuSans-40"/>
      <use transform="translate(164.208984 0.015625)" xlink:href="#DejaVuSans-Oblique-84"/>
      <use transform="translate(225.292969 0.015625)" xlink:href="#DejaVuSans-41"/>
     </g>
    </g>
   </g>
  </g>
 </g>
 <defs>
  <clipPath id="pbf0bad382f">
   <rect height="472.32" width="420.045" x="76.8375" y="40.32"/>
  </clipPath>
 </defs>
</svg>
