<?xml version="1.0" encoding="utf-8" standalone="no"?>
<!DOCTYPE svg PUBLIC "-//W3C//DTD SVG 1.1//EN"
  "http://www.w3.org/Graphics/SVG/1.1/DTD/svg11.dtd">
<!-- Created with matplotlib (https://matplotlib.org/) -->
<svg height="576pt" version="1.1" viewBox="0 0 512.25 576" width="512.25pt" xmlns="http://www.w3.org/2000/svg" xmlns:xlink="http://www.w3.org/1999/xlink">
 <defs>
  <style type="text/css">
*{stroke-linecap:butt;stroke-linejoin:round;}
  </style>
 </defs>
 <g id="figure_1">
  <g id="patch_1">
   <path d="M 0 576 
L 512.25 576 
L 512.25 0 
L 0 0 
z
" style="fill:#ffffff;"/>
  </g>
  <g id="axes_1">
   <g id="patch_2">
    <path d="M 76.8375 512.64 
L 496.8825 512.64 
L 496.8825 40.32 
L 76.8375 40.32 
z
" style="fill:#ffffff;"/>
   </g>
   <g id="matplotlib.axis_1">
    <g id="xtick_1">
     <g id="line2d_1">
      <path clip-path="url(#p6e20a0f24f)" d="M 113.287686 512.64 
L 113.287686 40.32 
" style="fill:none;stroke:#e6e6e6;stroke-linecap:square;stroke-width:0.8;"/>
     </g>
     <g id="line2d_2">
      <defs>
       <path d="M 0 0 
L 0 -3.5 
" id="m137b6e1bca" style="stroke:#000000;stroke-width:0.8;"/>
      </defs>
      <g>
       <use style="stroke:#000000;stroke-width:0.8;" x="113.287686" xlink:href="#m137b6e1bca" y="512.64"/>
      </g>
     </g>
     <g id="text_1">
      <!-- 0 -->
      <defs>
       <path d="M 31.78125 66.40625 
Q 24.171875 66.40625 20.328125 58.90625 
Q 16.5 51.421875 16.5 36.375 
Q 16.5 21.390625 20.328125 13.890625 
Q 24.171875 6.390625 31.78125 6.390625 
Q 39.453125 6.390625 43.28125 13.890625 
Q 47.125 21.390625 47.125 36.375 
Q 47.125 51.421875 43.28125 58.90625 
Q 39.453125 66.40625 31.78125 66.40625 
z
M 31.78125 74.21875 
Q 44.046875 74.21875 50.515625 64.515625 
Q 56.984375 54.828125 56.984375 36.375 
Q 56.984375 17.96875 50.515625 8.265625 
Q 44.046875 -1.421875 31.78125 -1.421875 
Q 19.53125 -1.421875 13.0625 8.265625 
Q 6.59375 17.96875 6.59375 36.375 
Q 6.59375 54.828125 13.0625 64.515625 
Q 19.53125 74.21875 31.78125 74.21875 
z
" id="DejaVuSans-48"/>
      </defs>
      <g transform="translate(108.515811 527.537656)scale(0.15 -0.15)">
       <use xlink:href="#DejaVuSans-48"/>
      </g>
     </g>
    </g>
    <g id="xtick_2">
     <g id="line2d_3">
      <path clip-path="url(#p6e20a0f24f)" d="M 200.158678 512.64 
L 200.158678 40.32 
" style="fill:none;stroke:#e6e6e6;stroke-linecap:square;stroke-width:0.8;"/>
     </g>
     <g id="line2d_4">
      <g>
       <use style="stroke:#000000;stroke-width:0.8;" x="200.158678" xlink:href="#m137b6e1bca" y="512.64"/>
      </g>
     </g>
     <g id="text_2">
      <!-- 10 -->
      <defs>
       <path d="M 12.40625 8.296875 
L 28.515625 8.296875 
L 28.515625 63.921875 
L 10.984375 60.40625 
L 10.984375 69.390625 
L 28.421875 72.90625 
L 38.28125 72.90625 
L 38.28125 8.296875 
L 54.390625 8.296875 
L 54.390625 0 
L 12.40625 0 
z
" id="DejaVuSans-49"/>
      </defs>
      <g transform="translate(190.614928 527.537656)scale(0.15 -0.15)">
       <use xlink:href="#DejaVuSans-49"/>
       <use x="63.623047" xlink:href="#DejaVuSans-48"/>
      </g>
     </g>
    </g>
    <g id="xtick_3">
     <g id="line2d_5">
      <path clip-path="url(#p6e20a0f24f)" d="M 287.02967 512.64 
L 287.02967 40.32 
" style="fill:none;stroke:#e6e6e6;stroke-linecap:square;stroke-width:0.8;"/>
     </g>
     <g id="line2d_6">
      <g>
       <use style="stroke:#000000;stroke-width:0.8;" x="287.02967" xlink:href="#m137b6e1bca" y="512.64"/>
      </g>
     </g>
     <g id="text_3">
      <!-- 20 -->
      <defs>
       <path d="M 19.1875 8.296875 
L 53.609375 8.296875 
L 53.609375 0 
L 7.328125 0 
L 7.328125 8.296875 
Q 12.9375 14.109375 22.625 23.890625 
Q 32.328125 33.6875 34.8125 36.53125 
Q 39.546875 41.84375 41.421875 45.53125 
Q 43.3125 49.21875 43.3125 52.78125 
Q 43.3125 58.59375 39.234375 62.25 
Q 35.15625 65.921875 28.609375 65.921875 
Q 23.96875 65.921875 18.8125 64.3125 
Q 13.671875 62.703125 7.8125 59.421875 
L 7.8125 69.390625 
Q 13.765625 71.78125 18.9375 73 
Q 24.125 74.21875 28.421875 74.21875 
Q 39.75 74.21875 46.484375 68.546875 
Q 53.21875 62.890625 53.21875 53.421875 
Q 53.21875 48.921875 51.53125 44.890625 
Q 49.859375 40.875 45.40625 35.40625 
Q 44.1875 33.984375 37.640625 27.21875 
Q 31.109375 20.453125 19.1875 8.296875 
z
" id="DejaVuSans-50"/>
      </defs>
      <g transform="translate(277.48592 527.537656)scale(0.15 -0.15)">
       <use xlink:href="#DejaVuSans-50"/>
       <use x="63.623047" xlink:href="#DejaVuSans-48"/>
      </g>
     </g>
    </g>
    <g id="xtick_4">
     <g id="line2d_7">
      <path clip-path="url(#p6e20a0f24f)" d="M 373.900662 512.64 
L 373.900662 40.32 
" style="fill:none;stroke:#e6e6e6;stroke-linecap:square;stroke-width:0.8;"/>
     </g>
     <g id="line2d_8">
      <g>
       <use style="stroke:#000000;stroke-width:0.8;" x="373.900662" xlink:href="#m137b6e1bca" y="512.64"/>
      </g>
     </g>
     <g id="text_4">
      <!-- 30 -->
      <defs>
       <path d="M 40.578125 39.3125 
Q 47.65625 37.796875 51.625 33 
Q 55.609375 28.21875 55.609375 21.1875 
Q 55.609375 10.40625 48.1875 4.484375 
Q 40.765625 -1.421875 27.09375 -1.421875 
Q 22.515625 -1.421875 17.65625 -0.515625 
Q 12.796875 0.390625 7.625 2.203125 
L 7.625 11.71875 
Q 11.71875 9.328125 16.59375 8.109375 
Q 21.484375 6.890625 26.8125 6.890625 
Q 36.078125 6.890625 40.9375 10.546875 
Q 45.796875 14.203125 45.796875 21.1875 
Q 45.796875 27.640625 41.28125 31.265625 
Q 36.765625 34.90625 28.71875 34.90625 
L 20.21875 34.90625 
L 20.21875 43.015625 
L 29.109375 43.015625 
Q 36.375 43.015625 40.234375 45.921875 
Q 44.09375 48.828125 44.09375 54.296875 
Q 44.09375 59.90625 40.109375 62.90625 
Q 36.140625 65.921875 28.71875 65.921875 
Q 24.65625 65.921875 20.015625 65.03125 
Q 15.375 64.15625 9.8125 62.3125 
L 9.8125 71.09375 
Q 15.4375 72.65625 20.34375 73.4375 
Q 25.25 74.21875 29.59375 74.21875 
Q 40.828125 74.21875 47.359375 69.109375 
Q 53.90625 64.015625 53.90625 55.328125 
Q 53.90625 49.265625 50.4375 45.09375 
Q 46.96875 40.921875 40.578125 39.3125 
z
" id="DejaVuSans-51"/>
      </defs>
      <g transform="translate(364.356912 527.537656)scale(0.15 -0.15)">
       <use xlink:href="#DejaVuSans-51"/>
       <use x="63.623047" xlink:href="#DejaVuSans-48"/>
      </g>
     </g>
    </g>
    <g id="xtick_5">
     <g id="line2d_9">
      <path clip-path="url(#p6e20a0f24f)" d="M 460.771654 512.64 
L 460.771654 40.32 
" style="fill:none;stroke:#e6e6e6;stroke-linecap:square;stroke-width:0.8;"/>
     </g>
     <g id="line2d_10">
      <g>
       <use style="stroke:#000000;stroke-width:0.8;" x="460.771654" xlink:href="#m137b6e1bca" y="512.64"/>
      </g>
     </g>
     <g id="text_5">
      <!-- 40 -->
      <defs>
       <path d="M 37.796875 64.3125 
L 12.890625 25.390625 
L 37.796875 25.390625 
z
M 35.203125 72.90625 
L 47.609375 72.90625 
L 47.609375 25.390625 
L 58.015625 25.390625 
L 58.015625 17.1875 
L 47.609375 17.1875 
L 47.609375 0 
L 37.796875 0 
L 37.796875 17.1875 
L 4.890625 17.1875 
L 4.890625 26.703125 
z
" id="DejaVuSans-52"/>
      </defs>
      <g transform="translate(451.227904 527.537656)scale(0.15 -0.15)">
       <use xlink:href="#DejaVuSans-52"/>
       <use x="63.623047" xlink:href="#DejaVuSans-48"/>
      </g>
     </g>
    </g>
    <g id="text_6">
     <!-- $x(\AA)$ -->
     <defs>
      <path d="M 60.015625 54.6875 
L 34.90625 27.875 
L 50.296875 0 
L 39.984375 0 
L 28.421875 21.6875 
L 8.296875 0 
L -2.59375 0 
L 24.3125 28.8125 
L 10.015625 54.6875 
L 20.3125 54.6875 
L 30.8125 34.90625 
L 49.125 54.6875 
z
" id="DejaVuSans-Oblique-120"/>
      <path d="M 31 75.875 
Q 24.46875 64.65625 21.28125 53.65625 
Q 18.109375 42.671875 18.109375 31.390625 
Q 18.109375 20.125 21.3125 9.0625 
Q 24.515625 -2 31 -13.1875 
L 23.1875 -13.1875 
Q 15.875 -1.703125 12.234375 9.375 
Q 8.59375 20.453125 8.59375 31.390625 
Q 8.59375 42.28125 12.203125 53.3125 
Q 15.828125 64.359375 23.1875 75.875 
z
" id="DejaVuSans-40"/>
      <path d="M 49.8125 79.390625 
Q 49.8125 82.46875 47.625 84.640625 
Q 45.453125 86.8125 42.390625 86.8125 
Q 39.265625 86.8125 37.140625 84.6875 
Q 35.015625 82.5625 35.015625 79.390625 
Q 35.015625 76.3125 37.140625 74.15625 
Q 39.265625 72.015625 42.390625 72.015625 
Q 45.453125 72.015625 47.625 74.15625 
Q 49.8125 76.3125 49.8125 79.390625 
z
M 34.421875 68.703125 
Q 31.78125 70.515625 30.390625 73.265625 
Q 29 76.03125 29 79.390625 
Q 29 84.96875 32.90625 88.890625 
Q 36.8125 92.828125 42.390625 92.828125 
Q 47.953125 92.828125 51.875 88.890625 
Q 55.8125 84.96875 55.8125 79.390625 
Q 55.8125 75.53125 54.03125 72.546875 
Q 52.25 69.578125 48.875 67.828125 
L 61.53125 0 
L 51.21875 0 
L 48.1875 18.703125 
L 15.375 18.703125 
L 5.078125 0 
L -5.328125 0 
z
M 40.375 63.1875 
L 19.921875 26.90625 
L 46.6875 26.90625 
z
" id="DejaVuSans-Oblique-197"/>
      <path d="M 8.015625 75.875 
L 15.828125 75.875 
Q 23.140625 64.359375 26.78125 53.3125 
Q 30.421875 42.28125 30.421875 31.390625 
Q 30.421875 20.453125 26.78125 9.375 
Q 23.140625 -1.703125 15.828125 -13.1875 
L 8.015625 -13.1875 
Q 14.5 -2 17.703125 9.0625 
Q 20.90625 20.125 20.90625 31.390625 
Q 20.90625 42.671875 17.703125 53.65625 
Q 14.5 64.65625 8.015625 75.875 
z
" id="DejaVuSans-41"/>
     </defs>
     <g transform="translate(261.11 556.207969)scale(0.25 -0.25)">
      <use transform="translate(0 0.171875)" xlink:href="#DejaVuSans-Oblique-120"/>
      <use transform="translate(59.179688 0.171875)" xlink:href="#DejaVuSans-40"/>
      <use transform="translate(98.193359 0.171875)" xlink:href="#DejaVuSans-Oblique-197"/>
      <use transform="translate(166.601562 0.171875)" xlink:href="#DejaVuSans-41"/>
     </g>
    </g>
   </g>
   <g id="matplotlib.axis_2">
    <g id="ytick_1">
     <g id="line2d_11">
      <path clip-path="url(#p6e20a0f24f)" d="M 76.8375 471.653554 
L 496.8825 471.653554 
" style="fill:none;stroke:#e6e6e6;stroke-linecap:square;stroke-width:0.8;"/>
     </g>
     <g id="line2d_12">
      <defs>
       <path d="M 0 0 
L 3.5 0 
" id="m43de48601f" style="stroke:#000000;stroke-width:0.8;"/>
      </defs>
      <g>
       <use style="stroke:#000000;stroke-width:0.8;" x="76.8375" xlink:href="#m43de48601f" y="471.653554"/>
      </g>
     </g>
     <g id="text_7">
      <!-- 0.0 -->
      <defs>
       <path d="M 10.6875 12.40625 
L 21 12.40625 
L 21 0 
L 10.6875 0 
z
" id="DejaVuSans-46"/>
      </defs>
      <g transform="translate(49.482812 477.352382)scale(0.15 -0.15)">
       <use xlink:href="#DejaVuSans-48"/>
       <use x="63.623047" xlink:href="#DejaVuSans-46"/>
       <use x="95.410156" xlink:href="#DejaVuSans-48"/>
      </g>
     </g>
    </g>
    <g id="ytick_2">
     <g id="line2d_13">
      <path clip-path="url(#p6e20a0f24f)" d="M 76.8375 393.584132 
L 496.8825 393.584132 
" style="fill:none;stroke:#e6e6e6;stroke-linecap:square;stroke-width:0.8;"/>
     </g>
     <g id="line2d_14">
      <g>
       <use style="stroke:#000000;stroke-width:0.8;" x="76.8375" xlink:href="#m43de48601f" y="393.584132"/>
      </g>
     </g>
     <g id="text_8">
      <!-- 0.2 -->
      <g transform="translate(49.482812 399.28296)scale(0.15 -0.15)">
       <use xlink:href="#DejaVuSans-48"/>
       <use x="63.623047" xlink:href="#DejaVuSans-46"/>
       <use x="95.410156" xlink:href="#DejaVuSans-50"/>
      </g>
     </g>
    </g>
    <g id="ytick_3">
     <g id="line2d_15">
      <path clip-path="url(#p6e20a0f24f)" d="M 76.8375 315.514711 
L 496.8825 315.514711 
" style="fill:none;stroke:#e6e6e6;stroke-linecap:square;stroke-width:0.8;"/>
     </g>
     <g id="line2d_16">
      <g>
       <use style="stroke:#000000;stroke-width:0.8;" x="76.8375" xlink:href="#m43de48601f" y="315.514711"/>
      </g>
     </g>
     <g id="text_9">
      <!-- 0.4 -->
      <g transform="translate(49.482812 321.213539)scale(0.15 -0.15)">
       <use xlink:href="#DejaVuSans-48"/>
       <use x="63.623047" xlink:href="#DejaVuSans-46"/>
       <use x="95.410156" xlink:href="#DejaVuSans-52"/>
      </g>
     </g>
    </g>
    <g id="ytick_4">
     <g id="line2d_17">
      <path clip-path="url(#p6e20a0f24f)" d="M 76.8375 237.445289 
L 496.8825 237.445289 
" style="fill:none;stroke:#e6e6e6;stroke-linecap:square;stroke-width:0.8;"/>
     </g>
     <g id="line2d_18">
      <g>
       <use style="stroke:#000000;stroke-width:0.8;" x="76.8375" xlink:href="#m43de48601f" y="237.445289"/>
      </g>
     </g>
     <g id="text_10">
      <!-- 0.6 -->
      <defs>
       <path d="M 33.015625 40.375 
Q 26.375 40.375 22.484375 35.828125 
Q 18.609375 31.296875 18.609375 23.390625 
Q 18.609375 15.53125 22.484375 10.953125 
Q 26.375 6.390625 33.015625 6.390625 
Q 39.65625 6.390625 43.53125 10.953125 
Q 47.40625 15.53125 47.40625 23.390625 
Q 47.40625 31.296875 43.53125 35.828125 
Q 39.65625 40.375 33.015625 40.375 
z
M 52.59375 71.296875 
L 52.59375 62.3125 
Q 48.875 64.0625 45.09375 64.984375 
Q 41.3125 65.921875 37.59375 65.921875 
Q 27.828125 65.921875 22.671875 59.328125 
Q 17.53125 52.734375 16.796875 39.40625 
Q 19.671875 43.65625 24.015625 45.921875 
Q 28.375 48.1875 33.59375 48.1875 
Q 44.578125 48.1875 50.953125 41.515625 
Q 57.328125 34.859375 57.328125 23.390625 
Q 57.328125 12.15625 50.6875 5.359375 
Q 44.046875 -1.421875 33.015625 -1.421875 
Q 20.359375 -1.421875 13.671875 8.265625 
Q 6.984375 17.96875 6.984375 36.375 
Q 6.984375 53.65625 15.1875 63.9375 
Q 23.390625 74.21875 37.203125 74.21875 
Q 40.921875 74.21875 44.703125 73.484375 
Q 48.484375 72.75 52.59375 71.296875 
z
" id="DejaVuSans-54"/>
      </defs>
      <g transform="translate(49.482812 243.144117)scale(0.15 -0.15)">
       <use xlink:href="#DejaVuSans-48"/>
       <use x="63.623047" xlink:href="#DejaVuSans-46"/>
       <use x="95.410156" xlink:href="#DejaVuSans-54"/>
      </g>
     </g>
    </g>
    <g id="ytick_5">
     <g id="line2d_19">
      <path clip-path="url(#p6e20a0f24f)" d="M 76.8375 159.375868 
L 496.8825 159.375868 
" style="fill:none;stroke:#e6e6e6;stroke-linecap:square;stroke-width:0.8;"/>
     </g>
     <g id="line2d_20">
      <g>
       <use style="stroke:#000000;stroke-width:0.8;" x="76.8375" xlink:href="#m43de48601f" y="159.375868"/>
      </g>
     </g>
     <g id="text_11">
      <!-- 0.8 -->
      <defs>
       <path d="M 31.78125 34.625 
Q 24.75 34.625 20.71875 30.859375 
Q 16.703125 27.09375 16.703125 20.515625 
Q 16.703125 13.921875 20.71875 10.15625 
Q 24.75 6.390625 31.78125 6.390625 
Q 38.8125 6.390625 42.859375 10.171875 
Q 46.921875 13.96875 46.921875 20.515625 
Q 46.921875 27.09375 42.890625 30.859375 
Q 38.875 34.625 31.78125 34.625 
z
M 21.921875 38.8125 
Q 15.578125 40.375 12.03125 44.71875 
Q 8.5 49.078125 8.5 55.328125 
Q 8.5 64.0625 14.71875 69.140625 
Q 20.953125 74.21875 31.78125 74.21875 
Q 42.671875 74.21875 48.875 69.140625 
Q 55.078125 64.0625 55.078125 55.328125 
Q 55.078125 49.078125 51.53125 44.71875 
Q 48 40.375 41.703125 38.8125 
Q 48.828125 37.15625 52.796875 32.3125 
Q 56.78125 27.484375 56.78125 20.515625 
Q 56.78125 9.90625 50.3125 4.234375 
Q 43.84375 -1.421875 31.78125 -1.421875 
Q 19.734375 -1.421875 13.25 4.234375 
Q 6.78125 9.90625 6.78125 20.515625 
Q 6.78125 27.484375 10.78125 32.3125 
Q 14.796875 37.15625 21.921875 38.8125 
z
M 18.3125 54.390625 
Q 18.3125 48.734375 21.84375 45.5625 
Q 25.390625 42.390625 31.78125 42.390625 
Q 38.140625 42.390625 41.71875 45.5625 
Q 45.3125 48.734375 45.3125 54.390625 
Q 45.3125 60.0625 41.71875 63.234375 
Q 38.140625 66.40625 31.78125 66.40625 
Q 25.390625 66.40625 21.84375 63.234375 
Q 18.3125 60.0625 18.3125 54.390625 
z
" id="DejaVuSans-56"/>
      </defs>
      <g transform="translate(49.482812 165.074696)scale(0.15 -0.15)">
       <use xlink:href="#DejaVuSans-48"/>
       <use x="63.623047" xlink:href="#DejaVuSans-46"/>
       <use x="95.410156" xlink:href="#DejaVuSans-56"/>
      </g>
     </g>
    </g>
    <g id="ytick_6">
     <g id="line2d_21">
      <path clip-path="url(#p6e20a0f24f)" d="M 76.8375 81.306446 
L 496.8825 81.306446 
" style="fill:none;stroke:#e6e6e6;stroke-linecap:square;stroke-width:0.8;"/>
     </g>
     <g id="line2d_22">
      <g>
       <use style="stroke:#000000;stroke-width:0.8;" x="76.8375" xlink:href="#m43de48601f" y="81.306446"/>
      </g>
     </g>
     <g id="text_12">
      <!-- 1.0 -->
      <g transform="translate(49.482812 87.005274)scale(0.15 -0.15)">
       <use xlink:href="#DejaVuSans-49"/>
       <use x="63.623047" xlink:href="#DejaVuSans-46"/>
       <use x="95.410156" xlink:href="#DejaVuSans-48"/>
      </g>
     </g>
    </g>
   </g>
   <g id="line2d_23">
    <path clip-path="url(#p6e20a0f24f)" d="M 113.287686 471.653554 
L 460.432314 471.653554 
L 460.432314 471.653554 
" style="fill:none;stroke:#e9f7e5;stroke-linecap:square;"/>
   </g>
   <g id="line2d_24">
    <path clip-path="url(#p6e20a0f24f)" d="M 113.287686 471.653554 
L 460.432314 471.653554 
L 460.432314 471.653554 
" style="fill:none;stroke:#d3eecd;stroke-linecap:square;"/>
   </g>
   <g id="line2d_25">
    <path clip-path="url(#p6e20a0f24f)" d="M 113.287686 471.653554 
L 460.432314 471.653554 
L 460.432314 471.653554 
" style="fill:none;stroke:#b8e3b2;stroke-linecap:square;"/>
   </g>
   <g id="line2d_26">
    <path clip-path="url(#p6e20a0f24f)" d="M 113.287686 471.653554 
L 154.687143 471.555137 
L 157.062522 471.422257 
L 163.849318 471.653549 
L 241.558135 471.555137 
L 243.933514 471.422257 
L 250.72031 471.653549 
L 328.429127 471.555137 
L 330.804506 471.422257 
L 337.591302 471.653549 
L 415.300119 471.555137 
L 417.675498 471.422257 
L 424.462294 471.653549 
L 460.432314 471.653554 
L 460.432314 471.653554 
" style="fill:none;stroke:#98d594;stroke-linecap:square;"/>
   </g>
   <g id="line2d_27">
    <path clip-path="url(#p6e20a0f24f)" d="M 113.287686 471.653554 
L 150.954405 471.555559 
L 151.293745 471.434224 
L 151.633085 471.186048 
L 151.972425 470.704544 
L 152.311764 469.818922 
L 152.651104 468.275853 
L 152.990444 465.731291 
L 153.329784 461.764643 
L 153.669124 455.928092 
L 154.347803 437.305988 
L 155.365823 394.777441 
L 156.044502 368.608743 
L 156.383842 360.778254 
L 156.723182 358.038024 
L 157.062522 360.778254 
L 157.401862 368.608743 
L 158.080541 394.777441 
L 159.098561 437.305988 
L 159.77724 455.928092 
L 160.45592 465.731291 
L 160.79526 468.275853 
L 161.1346 469.818922 
L 161.473939 470.704544 
L 161.813279 471.186048 
L 162.491959 471.555559 
L 163.509978 471.647033 
L 173.011493 471.653554 
L 237.825397 471.555559 
L 238.164737 471.434224 
L 238.504077 471.186048 
L 238.843417 470.704544 
L 239.182756 469.818922 
L 239.522096 468.275853 
L 239.861436 465.731291 
L 240.200776 461.764643 
L 240.540116 455.928092 
L 241.218795 437.305988 
L 242.236815 394.777441 
L 242.915494 368.608743 
L 243.254834 360.778254 
L 243.594174 358.038024 
L 243.933514 360.778254 
L 244.272854 368.608743 
L 244.951533 394.777441 
L 245.969553 437.305988 
L 246.648232 455.928092 
L 247.326912 465.731291 
L 247.666252 468.275853 
L 248.005591 469.818922 
L 248.344931 470.704544 
L 248.684271 471.186048 
L 249.362951 471.555559 
L 250.38097 471.647033 
L 259.882485 471.653554 
L 324.696389 471.555559 
L 325.035729 471.434224 
L 325.375069 471.186048 
L 325.714409 470.704544 
L 326.053748 469.818922 
L 326.393088 468.275853 
L 326.732428 465.731291 
L 327.071768 461.764643 
L 327.411108 455.928092 
L 328.089787 437.305988 
L 329.107807 394.777441 
L 329.786486 368.608743 
L 330.125826 360.778254 
L 330.465166 358.038024 
L 330.804506 360.778254 
L 331.143846 368.608743 
L 331.822525 394.777441 
L 332.840545 437.305988 
L 333.519224 455.928092 
L 334.197904 465.731291 
L 334.537244 468.275853 
L 334.876583 469.818922 
L 335.215923 470.704544 
L 335.555263 471.186048 
L 336.233943 471.555559 
L 337.251962 471.647033 
L 346.753477 471.653554 
L 411.567381 471.555559 
L 411.906721 471.434224 
L 412.246061 471.186048 
L 412.5854 470.704544 
L 412.92474 469.818922 
L 413.26408 468.275853 
L 413.60342 465.731291 
L 413.94276 461.764643 
L 414.2821 455.928092 
L 414.960779 437.305988 
L 415.978799 394.777441 
L 416.657478 368.608743 
L 416.996818 360.778254 
L 417.336158 358.038024 
L 417.675498 360.778254 
L 418.014837 368.608743 
L 418.693517 394.777441 
L 419.711537 437.305988 
L 420.390216 455.928092 
L 421.068896 465.731291 
L 421.408236 468.275853 
L 421.747575 469.818922 
L 422.086915 470.704544 
L 422.426255 471.186048 
L 423.104935 471.555559 
L 424.122954 471.647033 
L 433.624469 471.653554 
L 460.432314 471.653554 
L 460.432314 471.653554 
" style="fill:none;stroke:#73c476;stroke-linecap:square;"/>
   </g>
   <g id="line2d_28">
    <path clip-path="url(#p6e20a0f24f)" d="M 113.287686 471.653554 
L 150.615065 471.574904 
L 150.954405 471.468713 
L 151.293745 471.239847 
L 151.633085 470.77173 
L 151.972425 469.863501 
L 152.311764 468.193013 
L 152.651104 465.282427 
L 152.990444 460.482792 
L 153.329784 453.000775 
L 153.669124 441.991685 
L 154.347803 406.866076 
L 155.365823 326.647369 
L 156.044502 277.287133 
L 156.383842 262.517015 
L 156.723182 257.348305 
L 157.062522 262.517015 
L 157.401862 277.287133 
L 158.080541 326.647369 
L 159.098561 406.866076 
L 159.77724 441.991685 
L 160.45592 460.482792 
L 160.79526 465.282427 
L 161.1346 468.193013 
L 161.473939 469.863501 
L 161.813279 470.77173 
L 162.152619 471.239847 
L 162.831299 471.574904 
L 164.188658 471.651972 
L 200.158678 471.653554 
L 237.486057 471.574904 
L 237.825397 471.468713 
L 238.164737 471.239847 
L 238.504077 470.77173 
L 238.843417 469.863501 
L 239.182756 468.193013 
L 239.522096 465.282427 
L 239.861436 460.482792 
L 240.200776 453.000775 
L 240.540116 441.991685 
L 241.218795 406.866076 
L 242.236815 326.647369 
L 242.915494 277.287133 
L 243.254834 262.517015 
L 243.594174 257.348305 
L 243.933514 262.517015 
L 244.272854 277.287133 
L 244.951533 326.647369 
L 245.969553 406.866076 
L 246.648232 441.991685 
L 247.326912 460.482792 
L 247.666252 465.282427 
L 248.005591 468.193013 
L 248.344931 469.863501 
L 248.684271 470.77173 
L 249.023611 471.239847 
L 249.702291 471.574904 
L 251.05965 471.651972 
L 287.02967 471.653554 
L 324.357049 471.574904 
L 324.696389 471.468713 
L 325.035729 471.239847 
L 325.375069 470.77173 
L 325.714409 469.863501 
L 326.053748 468.193013 
L 326.393088 465.282427 
L 326.732428 460.482792 
L 327.071768 453.000775 
L 327.411108 441.991685 
L 328.089787 406.866076 
L 329.107807 326.647369 
L 329.786486 277.287133 
L 330.125826 262.517015 
L 330.465166 257.348305 
L 330.804506 262.517015 
L 331.143846 277.287133 
L 331.822525 326.647369 
L 332.840545 406.866076 
L 333.519224 441.991685 
L 334.197904 460.482792 
L 334.537244 465.282427 
L 334.876583 468.193013 
L 335.215923 469.863501 
L 335.555263 470.77173 
L 335.894603 471.239847 
L 336.573283 471.574904 
L 337.930642 471.651972 
L 373.900662 471.653554 
L 411.228041 471.574904 
L 411.567381 471.468713 
L 411.906721 471.239847 
L 412.246061 470.77173 
L 412.5854 469.863501 
L 412.92474 468.193013 
L 413.26408 465.282427 
L 413.60342 460.482792 
L 413.94276 453.000775 
L 414.2821 441.991685 
L 414.960779 406.866076 
L 415.978799 326.647369 
L 416.657478 277.287133 
L 416.996818 262.517015 
L 417.336158 257.348305 
L 417.675498 262.517015 
L 418.014837 277.287133 
L 418.693517 326.647369 
L 419.711537 406.866076 
L 420.390216 441.991685 
L 421.068896 460.482792 
L 421.408236 465.282427 
L 421.747575 468.193013 
L 422.086915 469.863501 
L 422.426255 470.77173 
L 422.765595 471.239847 
L 423.444274 471.574904 
L 424.801634 471.651972 
L 460.432314 471.653554 
L 460.432314 471.653554 
" style="fill:none;stroke:#4bb062;stroke-linecap:square;"/>
   </g>
   <g id="line2d_29">
    <path clip-path="url(#p6e20a0f24f)" d="M 113.287686 471.653554 
L 152.651104 471.575531 
L 153.669124 471.290308 
L 154.347803 470.860151 
L 156.383842 469.092419 
L 156.723182 469.029122 
L 157.062522 469.092419 
L 157.741201 469.546822 
L 159.4379 471.103443 
L 160.11658 471.425127 
L 161.1346 471.611175 
L 163.509978 471.653403 
L 239.522096 471.575531 
L 240.540116 471.290308 
L 241.218795 470.860151 
L 243.254834 469.092419 
L 243.594174 469.029122 
L 243.933514 469.092419 
L 244.612193 469.546822 
L 246.308892 471.103443 
L 246.987572 471.425127 
L 248.005591 471.611175 
L 250.38097 471.653403 
L 326.393088 471.575531 
L 327.411108 471.290308 
L 328.089787 470.860151 
L 330.125826 469.092419 
L 330.465166 469.029122 
L 330.804506 469.092419 
L 331.483185 469.546822 
L 333.179884 471.103443 
L 333.858564 471.425127 
L 334.876583 471.611175 
L 337.251962 471.653403 
L 413.26408 471.575531 
L 414.2821 471.290308 
L 414.960779 470.860151 
L 416.996818 469.092419 
L 417.336158 469.029122 
L 417.675498 469.092419 
L 418.354177 469.546822 
L 420.050876 471.103443 
L 420.729556 471.425127 
L 421.747575 471.611175 
L 424.122954 471.653403 
L 460.432314 471.653554 
L 460.432314 471.653554 
" style="fill:none;stroke:#2f974e;stroke-linecap:square;"/>
   </g>
   <g id="line2d_30">
    <path clip-path="url(#p6e20a0f24f)" d="M 113.287686 471.653554 
L 460.432314 471.653554 
L 460.432314 471.653554 
" style="fill:none;stroke:#157f3b;stroke-linecap:square;"/>
   </g>
   <g id="line2d_31">
    <path clip-path="url(#p6e20a0f24f)" d="M 113.287686 471.653554 
L 460.432314 471.653554 
L 460.432314 471.653554 
" style="fill:none;stroke:#006428;stroke-linecap:square;"/>
   </g>
   <g id="line2d_32">
    <path clip-path="url(#p6e20a0f24f)" d="M 113.287686 471.653554 
L 460.432314 471.653554 
L 460.432314 471.653554 
" style="fill:none;stroke:#00441b;stroke-linecap:square;"/>
   </g>
   <g id="line2d_33">
    <path clip-path="url(#p6e20a0f24f)" d="M 113.287686 81.306446 
L 460.432314 81.306446 
L 460.432314 81.306446 
" style="fill:none;stroke:#e3eef9;stroke-linecap:square;"/>
   </g>
   <g id="line2d_34">
    <path clip-path="url(#p6e20a0f24f)" d="M 113.287686 81.306446 
L 460.432314 81.306446 
L 460.432314 81.306446 
" style="fill:none;stroke:#d0e1f2;stroke-linecap:square;"/>
   </g>
   <g id="line2d_35">
    <path clip-path="url(#p6e20a0f24f)" d="M 113.287686 81.306446 
L 460.432314 81.306446 
L 460.432314 81.306446 
" style="fill:none;stroke:#b7d4ea;stroke-linecap:square;"/>
   </g>
   <g id="line2d_36">
    <path clip-path="url(#p6e20a0f24f)" d="M 113.287686 81.306446 
L 460.432314 81.306446 
L 460.432314 81.306446 
" style="fill:none;stroke:#94c4df;stroke-linecap:square;"/>
   </g>
   <g id="line2d_37">
    <path clip-path="url(#p6e20a0f24f)" d="M 113.287686 81.306446 
L 153.329784 81.372984 
L 154.008463 81.692295 
L 154.347803 82.108912 
L 154.687143 82.819903 
L 155.365823 85.320846 
L 156.044502 88.509153 
L 156.383842 89.641369 
L 156.723182 90.056883 
L 157.062522 89.641369 
L 157.401862 88.509153 
L 158.419881 83.894861 
L 159.098561 82.108912 
L 159.4379 81.692295 
L 160.11658 81.372984 
L 161.473939 81.307059 
L 239.182756 81.308737 
L 240.200776 81.372984 
L 240.879455 81.692295 
L 241.218795 82.108912 
L 241.558135 82.819903 
L 242.236815 85.320846 
L 242.915494 88.509153 
L 243.254834 89.641369 
L 243.594174 90.056883 
L 243.933514 89.641369 
L 244.272854 88.509153 
L 245.290873 83.894861 
L 245.969553 82.108912 
L 246.308892 81.692295 
L 246.987572 81.372984 
L 248.344931 81.307059 
L 326.053748 81.308737 
L 327.071768 81.372984 
L 327.750447 81.692295 
L 328.089787 82.108912 
L 328.429127 82.819903 
L 329.107807 85.320846 
L 329.786486 88.509153 
L 330.125826 89.641369 
L 330.465166 90.056883 
L 330.804506 89.641369 
L 331.143846 88.509153 
L 332.161865 83.894861 
L 332.840545 82.108912 
L 333.179884 81.692295 
L 333.858564 81.372984 
L 335.215923 81.307059 
L 412.92474 81.308737 
L 413.94276 81.372984 
L 414.621439 81.692295 
L 414.960779 82.108912 
L 415.300119 82.819903 
L 415.978799 85.320846 
L 416.657478 88.509153 
L 416.996818 89.641369 
L 417.336158 90.056883 
L 417.675498 89.641369 
L 418.014837 88.509153 
L 419.032857 83.894861 
L 419.711537 82.108912 
L 420.050876 81.692295 
L 420.729556 81.372984 
L 422.086915 81.307059 
L 460.432314 81.306446 
L 460.432314 81.306446 
" style="fill:none;stroke:#6aaed6;stroke-linecap:square;"/>
   </g>
   <g id="line2d_38">
    <path clip-path="url(#p6e20a0f24f)" d="M 113.287686 81.306446 
L 152.990444 81.391351 
L 153.329784 81.543162 
L 153.669124 81.904954 
L 154.008463 82.678668 
L 154.347803 84.159015 
L 154.687143 86.682228 
L 155.365823 95.526527 
L 156.044502 106.731054 
L 156.383842 110.690917 
L 156.723182 112.141648 
L 157.062522 110.690917 
L 157.401862 106.731054 
L 158.419881 90.489653 
L 158.759221 86.682228 
L 159.098561 84.159015 
L 159.4379 82.678668 
L 159.77724 81.904954 
L 160.11658 81.543162 
L 160.79526 81.334065 
L 163.170638 81.306447 
L 239.861436 81.391351 
L 240.200776 81.543162 
L 240.540116 81.904954 
L 240.879455 82.678668 
L 241.218795 84.159015 
L 241.558135 86.682228 
L 242.236815 95.526527 
L 242.915494 106.731054 
L 243.254834 110.690917 
L 243.594174 112.141648 
L 243.933514 110.690917 
L 244.272854 106.731054 
L 245.290873 90.489653 
L 245.630213 86.682228 
L 245.969553 84.159015 
L 246.308892 82.678668 
L 246.648232 81.904954 
L 246.987572 81.543162 
L 247.666252 81.334065 
L 250.04163 81.306447 
L 326.732428 81.391351 
L 327.071768 81.543162 
L 327.411108 81.904954 
L 327.750447 82.678668 
L 328.089787 84.159015 
L 328.429127 86.682228 
L 329.107807 95.526527 
L 329.786486 106.731054 
L 330.125826 110.690917 
L 330.465166 112.141648 
L 330.804506 110.690917 
L 331.143846 106.731054 
L 332.161865 90.489653 
L 332.501205 86.682228 
L 332.840545 84.159015 
L 333.179884 82.678668 
L 333.519224 81.904954 
L 333.858564 81.543162 
L 334.537244 81.334065 
L 336.912622 81.306447 
L 413.60342 81.391351 
L 413.94276 81.543162 
L 414.2821 81.904954 
L 414.621439 82.678668 
L 414.960779 84.159015 
L 415.300119 86.682228 
L 415.978799 95.526527 
L 416.657478 106.731054 
L 416.996818 110.690917 
L 417.336158 112.141648 
L 417.675498 110.690917 
L 418.014837 106.731054 
L 419.032857 90.489653 
L 419.372197 86.682228 
L 419.711537 84.159015 
L 420.050876 82.678668 
L 420.390216 81.904954 
L 420.729556 81.543162 
L 421.408236 81.334065 
L 423.783614 81.306447 
L 460.432314 81.306446 
L 460.432314 81.306446 
" style="fill:none;stroke:#4a98c9;stroke-linecap:square;"/>
   </g>
   <g id="line2d_39">
    <path clip-path="url(#p6e20a0f24f)" d="M 113.287686 81.306446 
L 460.432314 81.306446 
L 460.432314 81.306446 
" style="fill:none;stroke:#2e7ebc;stroke-linecap:square;"/>
   </g>
   <g id="line2d_40">
    <path clip-path="url(#p6e20a0f24f)" d="M 113.287686 81.306446 
L 460.432314 81.306446 
L 460.432314 81.306446 
" style="fill:none;stroke:#1764ab;stroke-linecap:square;"/>
   </g>
   <g id="line2d_41">
    <path clip-path="url(#p6e20a0f24f)" d="M 113.287686 81.306446 
L 460.432314 81.306446 
L 460.432314 81.306446 
" style="fill:none;stroke:#084a91;stroke-linecap:square;"/>
   </g>
   <g id="line2d_42">
    <path clip-path="url(#p6e20a0f24f)" d="M 113.287686 81.306446 
L 460.432314 81.306446 
L 460.432314 81.306446 
" style="fill:none;stroke:#08306b;stroke-linecap:square;"/>
   </g>
   <g id="line2d_43">
    <path clip-path="url(#p6e20a0f24f)" d="M 113.287686 471.653554 
L 460.432314 471.653554 
L 460.432314 471.653554 
" style="fill:none;stroke:#fee5d8;stroke-linecap:square;"/>
   </g>
   <g id="line2d_44">
    <path clip-path="url(#p6e20a0f24f)" d="M 113.287686 471.653554 
L 460.432314 471.653554 
L 460.432314 471.653554 
" style="fill:none;stroke:#fdcab5;stroke-linecap:square;"/>
   </g>
   <g id="line2d_45">
    <path clip-path="url(#p6e20a0f24f)" d="M 113.287686 471.653554 
L 460.432314 471.653554 
L 460.432314 471.653554 
" style="fill:none;stroke:#fcab8f;stroke-linecap:square;"/>
   </g>
   <g id="line2d_46">
    <path clip-path="url(#p6e20a0f24f)" d="M 113.287686 471.653554 
L 155.026483 471.559726 
L 157.401862 471.496881 
L 162.152619 471.65322 
L 241.218795 471.601331 
L 244.612193 471.514885 
L 248.344931 471.652111 
L 300.263923 471.653554 
L 328.768467 471.559726 
L 331.143846 471.496881 
L 335.894603 471.65322 
L 414.960779 471.601331 
L 418.354177 471.514885 
L 422.086915 471.652111 
L 460.432314 471.653554 
L 460.432314 471.653554 
" style="fill:none;stroke:#fc8a6a;stroke-linecap:square;"/>
   </g>
   <g id="line2d_47">
    <path clip-path="url(#p6e20a0f24f)" d="M 113.287686 471.653554 
L 150.954405 471.582131 
L 151.633085 471.312817 
L 151.972425 470.961878 
L 152.311764 470.316403 
L 152.651104 469.191766 
L 152.990444 467.337259 
L 153.329784 464.446528 
L 153.669124 460.193853 
L 154.347803 446.636826 
L 155.365823 415.815363 
L 156.044502 397.012864 
L 156.383842 391.419176 
L 156.723182 389.46569 
L 157.062522 391.419176 
L 157.401862 397.012864 
L 158.080541 415.815363 
L 159.098561 446.636826 
L 159.77724 460.193853 
L 160.45592 467.337259 
L 160.79526 469.191766 
L 161.1346 470.316403 
L 161.473939 470.961878 
L 161.813279 471.312817 
L 162.491959 471.582131 
L 163.849318 471.651807 
L 197.443959 471.653554 
L 237.825397 471.582131 
L 238.504077 471.312817 
L 238.843417 470.961878 
L 239.182756 470.316403 
L 239.522096 469.191766 
L 239.861436 467.337259 
L 240.200776 464.446528 
L 240.540116 460.193853 
L 241.218795 446.636826 
L 242.236815 415.815363 
L 242.915494 397.012864 
L 243.254834 391.419176 
L 243.594174 389.46569 
L 243.933514 391.419176 
L 244.272854 397.012864 
L 244.951533 415.815363 
L 245.969553 446.636826 
L 246.648232 460.193853 
L 247.326912 467.337259 
L 247.666252 469.191766 
L 248.005591 470.316403 
L 248.344931 470.961878 
L 248.684271 471.312817 
L 249.362951 471.582131 
L 250.72031 471.651807 
L 284.314951 471.653554 
L 324.696389 471.582131 
L 325.375069 471.312817 
L 325.714409 470.961878 
L 326.053748 470.316403 
L 326.393088 469.191766 
L 326.732428 467.337259 
L 327.071768 464.446528 
L 327.411108 460.193853 
L 328.089787 446.636826 
L 329.107807 415.815363 
L 329.786486 397.012864 
L 330.125826 391.419176 
L 330.465166 389.46569 
L 330.804506 391.419176 
L 331.143846 397.012864 
L 331.822525 415.815363 
L 332.840545 446.636826 
L 333.519224 460.193853 
L 334.197904 467.337259 
L 334.537244 469.191766 
L 334.876583 470.316403 
L 335.215923 470.961878 
L 335.555263 471.312817 
L 336.233943 471.582131 
L 337.591302 471.651807 
L 371.185943 471.653554 
L 411.567381 471.582131 
L 412.246061 471.312817 
L 412.5854 470.961878 
L 412.92474 470.316403 
L 413.26408 469.191766 
L 413.60342 467.337259 
L 413.94276 464.446528 
L 414.2821 460.193853 
L 414.960779 446.636826 
L 415.978799 415.815363 
L 416.657478 397.012864 
L 416.996818 391.419176 
L 417.336158 389.46569 
L 417.675498 391.419176 
L 418.014837 397.012864 
L 418.693517 415.815363 
L 419.711537 446.636826 
L 420.390216 460.193853 
L 421.068896 467.337259 
L 421.408236 469.191766 
L 421.747575 470.316403 
L 422.086915 470.961878 
L 422.426255 471.312817 
L 423.104935 471.582131 
L 424.462294 471.651807 
L 458.056935 471.653554 
L 460.432314 471.653554 
L 460.432314 471.653554 
" style="fill:none;stroke:#fb694a;stroke-linecap:square;"/>
   </g>
   <g id="line2d_48">
    <path clip-path="url(#p6e20a0f24f)" d="M 113.287686 471.653554 
L 150.615065 471.596231 
L 151.293745 471.352028 
L 151.633085 471.010845 
L 151.972425 470.348894 
L 152.311764 469.13139 
L 152.651104 467.01013 
L 152.990444 463.512444 
L 153.329784 458.061407 
L 153.669124 450.045843 
L 154.347803 424.548918 
L 155.365823 367.253728 
L 156.044502 333.080708 
L 156.383842 323.070785 
L 156.723182 319.594179 
L 157.062522 323.070785 
L 157.401862 333.080708 
L 158.080541 367.253728 
L 159.098561 424.548918 
L 159.77724 450.045843 
L 160.45592 463.512444 
L 160.79526 467.01013 
L 161.1346 469.13139 
L 161.473939 470.348894 
L 161.813279 471.010845 
L 162.152619 471.352028 
L 162.831299 471.596231 
L 164.188658 471.652401 
L 213.73227 471.653554 
L 237.486057 471.596231 
L 238.164737 471.352028 
L 238.504077 471.010845 
L 238.843417 470.348894 
L 239.182756 469.13139 
L 239.522096 467.01013 
L 239.861436 463.512444 
L 240.200776 458.061407 
L 240.540116 450.045843 
L 241.218795 424.548918 
L 242.236815 367.253728 
L 242.915494 333.080708 
L 243.254834 323.070785 
L 243.594174 319.594179 
L 243.933514 323.070785 
L 244.272854 333.080708 
L 244.951533 367.253728 
L 245.969553 424.548918 
L 246.648232 450.045843 
L 247.326912 463.512444 
L 247.666252 467.01013 
L 248.005591 469.13139 
L 248.344931 470.348894 
L 248.684271 471.010845 
L 249.023611 471.352028 
L 249.702291 471.596231 
L 251.05965 471.652401 
L 300.603262 471.653554 
L 324.357049 471.596231 
L 325.035729 471.352028 
L 325.375069 471.010845 
L 325.714409 470.348894 
L 326.053748 469.13139 
L 326.393088 467.01013 
L 326.732428 463.512444 
L 327.071768 458.061407 
L 327.411108 450.045843 
L 328.089787 424.548918 
L 329.107807 367.253728 
L 329.786486 333.080708 
L 330.125826 323.070785 
L 330.465166 319.594179 
L 330.804506 323.070785 
L 331.143846 333.080708 
L 331.822525 367.253728 
L 332.840545 424.548918 
L 333.519224 450.045843 
L 334.197904 463.512444 
L 334.537244 467.01013 
L 334.876583 469.13139 
L 335.215923 470.348894 
L 335.555263 471.010845 
L 335.894603 471.352028 
L 336.573283 471.596231 
L 337.930642 471.652401 
L 387.474254 471.653554 
L 411.228041 471.596231 
L 411.906721 471.352028 
L 412.246061 471.010845 
L 412.5854 470.348894 
L 412.92474 469.13139 
L 413.26408 467.01013 
L 413.60342 463.512444 
L 413.94276 458.061407 
L 414.2821 450.045843 
L 414.960779 424.548918 
L 415.978799 367.253728 
L 416.657478 333.080708 
L 416.996818 323.070785 
L 417.336158 319.594179 
L 417.675498 323.070785 
L 418.014837 333.080708 
L 418.693517 367.253728 
L 419.711537 424.548918 
L 420.390216 450.045843 
L 421.068896 463.512444 
L 421.408236 467.01013 
L 421.747575 469.13139 
L 422.086915 470.348894 
L 422.426255 471.010845 
L 422.765595 471.352028 
L 423.444274 471.596231 
L 424.801634 471.652401 
L 460.432314 471.653554 
L 460.432314 471.653554 
" style="fill:none;stroke:#f14432;stroke-linecap:square;"/>
   </g>
   <g id="line2d_49">
    <path clip-path="url(#p6e20a0f24f)" d="M 113.287686 471.653554 
L 152.990444 471.553849 
L 154.008463 471.252611 
L 155.026483 470.614603 
L 156.044502 469.918733 
L 156.723182 469.74077 
L 157.401862 469.918733 
L 158.419881 470.614603 
L 159.4379 471.252611 
L 160.45592 471.553849 
L 161.813279 471.645683 
L 171.314794 471.653554 
L 239.861436 471.553849 
L 240.879455 471.252611 
L 241.897475 470.614603 
L 242.915494 469.918733 
L 243.594174 469.74077 
L 244.272854 469.918733 
L 245.290873 470.614603 
L 246.308892 471.252611 
L 247.326912 471.553849 
L 248.684271 471.645683 
L 258.185786 471.653554 
L 326.732428 471.553849 
L 327.750447 471.252611 
L 328.768467 470.614603 
L 329.786486 469.918733 
L 330.465166 469.74077 
L 331.143846 469.918733 
L 332.161865 470.614603 
L 333.179884 471.252611 
L 334.197904 471.553849 
L 335.555263 471.645683 
L 345.056778 471.653554 
L 413.60342 471.553849 
L 414.621439 471.252611 
L 415.639459 470.614603 
L 416.657478 469.918733 
L 417.336158 469.74077 
L 418.014837 469.918733 
L 419.032857 470.614603 
L 420.050876 471.252611 
L 421.068896 471.553849 
L 422.426255 471.645683 
L 431.92777 471.653554 
L 460.432314 471.653554 
L 460.432314 471.653554 
" style="fill:none;stroke:#d92523;stroke-linecap:square;"/>
   </g>
   <g id="line2d_50">
    <path clip-path="url(#p6e20a0f24f)" d="M 113.287686 471.653554 
L 460.432314 471.653554 
L 460.432314 471.653554 
" style="fill:none;stroke:#bc141a;stroke-linecap:square;"/>
   </g>
   <g id="line2d_51">
    <path clip-path="url(#p6e20a0f24f)" d="M 113.287686 471.653554 
L 460.432314 471.653554 
L 460.432314 471.653554 
" style="fill:none;stroke:#980c13;stroke-linecap:square;"/>
   </g>
   <g id="line2d_52">
    <path clip-path="url(#p6e20a0f24f)" d="M 113.287686 471.653554 
L 460.432314 471.653554 
L 460.432314 471.653554 
" style="fill:none;stroke:#67000d;stroke-linecap:square;"/>
   </g>
   <g id="patch_3">
    <path d="M 76.8375 512.64 
L 76.8375 40.32 
" style="fill:none;stroke:#000000;stroke-linecap:square;stroke-linejoin:miter;stroke-width:0.8;"/>
   </g>
   <g id="patch_4">
    <path d="M 496.8825 512.64 
L 496.8825 40.32 
" style="fill:none;stroke:#000000;stroke-linecap:square;stroke-linejoin:miter;stroke-width:0.8;"/>
   </g>
   <g id="patch_5">
    <path d="M 76.8375 512.64 
L 496.8825 512.64 
" style="fill:none;stroke:#000000;stroke-linecap:square;stroke-linejoin:miter;stroke-width:0.8;"/>
   </g>
   <g id="patch_6">
    <path d="M 76.8375 40.32 
L 496.8825 40.32 
" style="fill:none;stroke:#000000;stroke-linecap:square;stroke-linejoin:miter;stroke-width:0.8;"/>
   </g>
   <g id="legend_1">
    <g id="patch_7">
     <path d="M 342.6825 324.83625 
L 482.8825 324.83625 
Q 486.8825 324.83625 486.8825 320.83625 
L 486.8825 232.12375 
Q 486.8825 228.12375 482.8825 228.12375 
L 342.6825 228.12375 
Q 338.6825 228.12375 338.6825 232.12375 
L 338.6825 320.83625 
Q 338.6825 324.83625 342.6825 324.83625 
z
" style="fill:#ffffff;opacity:0.8;stroke:#cccccc;stroke-linejoin:miter;"/>
    </g>
    <g id="line2d_53">
     <path d="M 346.6825 246.964375 
L 386.6825 246.964375 
" style="fill:none;stroke:#008000;stroke-linecap:square;stroke-width:2;"/>
    </g>
    <g id="line2d_54"/>
    <g id="text_13">
     <!-- $V_z(kV\AA)$ -->
     <defs>
      <path d="M 20.609375 0 
L 7.8125 72.90625 
L 17.484375 72.90625 
L 28.078125 10.203125 
L 63.484375 72.90625 
L 74.21875 72.90625 
L 32.078125 0 
z
" id="DejaVuSans-Oblique-86"/>
      <path d="M 11.625 54.6875 
L 54.296875 54.6875 
L 52.6875 46.484375 
L 11.53125 7.171875 
L 45.515625 7.171875 
L 44.09375 0 
L -0.296875 0 
L 1.3125 8.203125 
L 42.484375 47.515625 
L 10.203125 47.515625 
z
" id="DejaVuSans-Oblique-122"/>
      <path d="M 18.3125 75.984375 
L 27.296875 75.984375 
L 18.703125 31.6875 
L 49.515625 54.6875 
L 61.1875 54.6875 
L 26.8125 28.515625 
L 51.90625 0 
L 41.015625 0 
L 17.671875 26.703125 
L 12.5 0 
L 3.515625 0 
z
" id="DejaVuSans-Oblique-107"/>
     </defs>
     <g transform="translate(402.6825 253.964375)scale(0.2 -0.2)">
      <use transform="translate(0 0.171875)" xlink:href="#DejaVuSans-Oblique-86"/>
      <use transform="translate(68.408203 -16.234375)scale(0.7)" xlink:href="#DejaVuSans-Oblique-122"/>
      <use transform="translate(107.885742 0.171875)" xlink:href="#DejaVuSans-40"/>
      <use transform="translate(146.899414 0.171875)" xlink:href="#DejaVuSans-Oblique-107"/>
      <use transform="translate(204.80957 0.171875)" xlink:href="#DejaVuSans-Oblique-86"/>
      <use transform="translate(273.217773 0.171875)" xlink:href="#DejaVuSans-Oblique-197"/>
      <use transform="translate(341.625977 0.171875)" xlink:href="#DejaVuSans-41"/>
     </g>
    </g>
    <g id="line2d_55">
     <path d="M 346.6825 276.320625 
L 386.6825 276.320625 
" style="fill:none;stroke:#0000ff;stroke-linecap:square;stroke-width:2;"/>
    </g>
    <g id="line2d_56"/>
    <g id="text_14">
     <!-- $re(T)$ -->
     <defs>
      <path d="M 44.578125 46.390625 
Q 43.21875 47.125 41.453125 47.515625 
Q 39.703125 47.90625 37.703125 47.90625 
Q 30.515625 47.90625 25.140625 42.453125 
Q 19.78125 37.015625 18.015625 27.875 
L 12.5 0 
L 3.515625 0 
L 14.203125 54.6875 
L 23.1875 54.6875 
L 21.484375 46.1875 
Q 25.046875 50.921875 30 53.453125 
Q 34.96875 56 40.578125 56 
Q 42.046875 56 43.453125 55.828125 
Q 44.875 55.671875 46.296875 55.28125 
z
" id="DejaVuSans-Oblique-114"/>
      <path d="M 48.09375 32.234375 
Q 48.25 33.015625 48.3125 33.84375 
Q 48.390625 34.671875 48.390625 35.5 
Q 48.390625 41.453125 44.890625 44.921875 
Q 41.40625 48.390625 35.40625 48.390625 
Q 28.71875 48.390625 23.578125 44.15625 
Q 18.453125 39.9375 15.828125 32.171875 
z
M 55.90625 25.203125 
L 14.109375 25.203125 
Q 13.8125 23.34375 13.71875 22.265625 
Q 13.625 21.1875 13.625 20.40625 
Q 13.625 13.625 17.796875 9.90625 
Q 21.96875 6.203125 29.59375 6.203125 
Q 35.453125 6.203125 40.671875 7.515625 
Q 45.90625 8.84375 50.390625 11.375 
L 48.6875 2.484375 
Q 43.84375 0.53125 38.6875 -0.4375 
Q 33.546875 -1.421875 28.21875 -1.421875 
Q 16.84375 -1.421875 10.71875 4.015625 
Q 4.59375 9.46875 4.59375 19.484375 
Q 4.59375 28.03125 7.640625 35.375 
Q 10.6875 42.71875 16.609375 48.484375 
Q 20.40625 52.09375 25.65625 54.046875 
Q 30.90625 56 36.8125 56 
Q 46.09375 56 51.578125 50.4375 
Q 57.078125 44.875 57.078125 35.5 
Q 57.078125 33.25 56.78125 30.6875 
Q 56.5 28.125 55.90625 25.203125 
z
" id="DejaVuSans-Oblique-101"/>
      <path d="M 5.90625 72.90625 
L 67.578125 72.90625 
L 66.015625 64.59375 
L 39.984375 64.59375 
L 27.484375 0 
L 17.578125 0 
L 30.078125 64.59375 
L 4.296875 64.59375 
z
" id="DejaVuSans-Oblique-84"/>
     </defs>
     <g transform="translate(402.6825 283.320625)scale(0.2 -0.2)">
      <use transform="translate(0 0.125)" xlink:href="#DejaVuSans-Oblique-114"/>
      <use transform="translate(41.113281 0.125)" xlink:href="#DejaVuSans-Oblique-101"/>
      <use transform="translate(102.636719 0.125)" xlink:href="#DejaVuSans-40"/>
      <use transform="translate(141.650391 0.125)" xlink:href="#DejaVuSans-Oblique-84"/>
      <use transform="translate(202.734375 0.125)" xlink:href="#DejaVuSans-41"/>
     </g>
    </g>
    <g id="line2d_57">
     <path d="M 346.6825 305.676875 
L 386.6825 305.676875 
" style="fill:none;stroke:#ff0000;stroke-linecap:square;stroke-width:2;"/>
    </g>
    <g id="line2d_58"/>
    <g id="text_15">
     <!-- $im(T)$ -->
     <defs>
      <path d="M 18.3125 75.984375 
L 27.296875 75.984375 
L 25.09375 64.59375 
L 16.109375 64.59375 
z
M 14.203125 54.6875 
L 23.1875 54.6875 
L 12.5 0 
L 3.515625 0 
z
" id="DejaVuSans-Oblique-105"/>
      <path d="M 89.796875 33.015625 
L 83.40625 0 
L 74.421875 0 
L 80.71875 32.71875 
Q 81.109375 34.8125 81.296875 36.328125 
Q 81.5 37.84375 81.5 38.921875 
Q 81.5 43.3125 79.046875 45.75 
Q 76.609375 48.1875 72.21875 48.1875 
Q 65.671875 48.1875 60.546875 43.28125 
Q 55.421875 38.375 53.90625 30.515625 
L 47.90625 0 
L 38.921875 0 
L 45.3125 32.71875 
Q 45.703125 34.515625 45.890625 36.046875 
Q 46.09375 37.59375 46.09375 38.8125 
Q 46.09375 43.265625 43.65625 45.71875 
Q 41.21875 48.1875 36.921875 48.1875 
Q 30.28125 48.1875 25.140625 43.28125 
Q 20.015625 38.375 18.5 30.515625 
L 12.5 0 
L 3.515625 0 
L 14.203125 54.6875 
L 23.1875 54.6875 
L 21.484375 46.1875 
Q 25.140625 50.984375 30.046875 53.484375 
Q 34.96875 56 40.578125 56 
Q 46.53125 56 50.359375 52.875 
Q 54.203125 49.75 54.984375 44.1875 
Q 59.078125 49.953125 64.46875 52.96875 
Q 69.875 56 75.875 56 
Q 82.90625 56 86.734375 51.953125 
Q 90.578125 47.90625 90.578125 40.484375 
Q 90.578125 38.875 90.375 36.9375 
Q 90.1875 35.015625 89.796875 33.015625 
z
" id="DejaVuSans-Oblique-109"/>
     </defs>
     <g transform="translate(402.6825 312.676875)scale(0.2 -0.2)">
      <use transform="translate(0 0.015625)" xlink:href="#DejaVuSans-Oblique-105"/>
      <use transform="translate(27.783203 0.015625)" xlink:href="#DejaVuSans-Oblique-109"/>
      <use transform="translate(125.195312 0.015625)" xlink:href="#DejaVuSans-40"/>
      <use transform="translate(164.208984 0.015625)" xlink:href="#DejaVuSans-Oblique-84"/>
      <use transform="translate(225.292969 0.015625)" xlink:href="#DejaVuSans-41"/>
     </g>
    </g>
   </g>
  </g>
 </g>
 <defs>
  <clipPath id="p6e20a0f24f">
   <rect height="472.32" width="420.045" x="76.8375" y="40.32"/>
  </clipPath>
 </defs>
</svg>
