<?xml version="1.0" encoding="utf-8" standalone="no"?>
<!DOCTYPE svg PUBLIC "-//W3C//DTD SVG 1.1//EN"
  "http://www.w3.org/Graphics/SVG/1.1/DTD/svg11.dtd">
<!-- Created with matplotlib (https://matplotlib.org/) -->
<svg height="576pt" version="1.1" viewBox="0 0 512.25 576" width="512.25pt" xmlns="http://www.w3.org/2000/svg" xmlns:xlink="http://www.w3.org/1999/xlink">
 <metadata>
  <rdf:RDF xmlns:cc="http://creativecommons.org/ns#" xmlns:dc="http://purl.org/dc/elements/1.1/" xmlns:rdf="http://www.w3.org/1999/02/22-rdf-syntax-ns#">
   <cc:Work>
    <dc:type rdf:resource="http://purl.org/dc/dcmitype/StillImage"/>
    <dc:date>2020-09-15T19:05:15.005629</dc:date>
    <dc:format>image/svg+xml</dc:format>
    <dc:creator>
     <cc:Agent>
      <dc:title>Matplotlib v3.3.1, https://matplotlib.org/</dc:title>
     </cc:Agent>
    </dc:creator>
   </cc:Work>
  </rdf:RDF>
 </metadata>
 <defs>
  <style type="text/css">*{stroke-linecap:butt;stroke-linejoin:round;}</style>
 </defs>
 <g id="figure_1">
  <g id="patch_1">
   <path d="M 0 576 
L 512.25 576 
L 512.25 0 
L 0 0 
z
" style="fill:#ffffff;"/>
  </g>
  <g id="axes_1">
   <g id="patch_2">
    <path d="M 76.8375 512.64 
L 496.8825 512.64 
L 496.8825 40.32 
L 76.8375 40.32 
z
" style="fill:#ffffff;"/>
   </g>
   <g id="matplotlib.axis_1">
    <g id="xtick_1">
     <g id="line2d_1">
      <path clip-path="url(#p65ecbb772f)" d="M 113.287686 512.64 
L 113.287686 40.32 
" style="fill:none;stroke:#e6e6e6;stroke-linecap:square;stroke-width:0.8;"/>
     </g>
     <g id="line2d_2">
      <defs>
       <path d="M 0 0 
L 0 -3.5 
" id="m72fe01748d" style="stroke:#000000;stroke-width:0.8;"/>
      </defs>
      <g>
       <use style="stroke:#000000;stroke-width:0.8;" x="113.287686" xlink:href="#m72fe01748d" y="512.64"/>
      </g>
     </g>
     <g id="text_1">
      <!-- 0 -->
      <g transform="translate(108.515811 527.537656)scale(0.15 -0.15)">
       <defs>
        <path d="M 31.78125 66.40625 
Q 24.171875 66.40625 20.328125 58.90625 
Q 16.5 51.421875 16.5 36.375 
Q 16.5 21.390625 20.328125 13.890625 
Q 24.171875 6.390625 31.78125 6.390625 
Q 39.453125 6.390625 43.28125 13.890625 
Q 47.125 21.390625 47.125 36.375 
Q 47.125 51.421875 43.28125 58.90625 
Q 39.453125 66.40625 31.78125 66.40625 
z
M 31.78125 74.21875 
Q 44.046875 74.21875 50.515625 64.515625 
Q 56.984375 54.828125 56.984375 36.375 
Q 56.984375 17.96875 50.515625 8.265625 
Q 44.046875 -1.421875 31.78125 -1.421875 
Q 19.53125 -1.421875 13.0625 8.265625 
Q 6.59375 17.96875 6.59375 36.375 
Q 6.59375 54.828125 13.0625 64.515625 
Q 19.53125 74.21875 31.78125 74.21875 
z
" id="DejaVuSans-48"/>
       </defs>
       <use xlink:href="#DejaVuSans-48"/>
      </g>
     </g>
    </g>
    <g id="xtick_2">
     <g id="line2d_3">
      <path clip-path="url(#p65ecbb772f)" d="M 182.716612 512.64 
L 182.716612 40.32 
" style="fill:none;stroke:#e6e6e6;stroke-linecap:square;stroke-width:0.8;"/>
     </g>
     <g id="line2d_4">
      <g>
       <use style="stroke:#000000;stroke-width:0.8;" x="182.716612" xlink:href="#m72fe01748d" y="512.64"/>
      </g>
     </g>
     <g id="text_2">
      <!-- 10 -->
      <g transform="translate(173.172862 527.537656)scale(0.15 -0.15)">
       <defs>
        <path d="M 12.40625 8.296875 
L 28.515625 8.296875 
L 28.515625 63.921875 
L 10.984375 60.40625 
L 10.984375 69.390625 
L 28.421875 72.90625 
L 38.28125 72.90625 
L 38.28125 8.296875 
L 54.390625 8.296875 
L 54.390625 0 
L 12.40625 0 
z
" id="DejaVuSans-49"/>
       </defs>
       <use xlink:href="#DejaVuSans-49"/>
       <use x="63.623047" xlink:href="#DejaVuSans-48"/>
      </g>
     </g>
    </g>
    <g id="xtick_3">
     <g id="line2d_5">
      <path clip-path="url(#p65ecbb772f)" d="M 252.145537 512.64 
L 252.145537 40.32 
" style="fill:none;stroke:#e6e6e6;stroke-linecap:square;stroke-width:0.8;"/>
     </g>
     <g id="line2d_6">
      <g>
       <use style="stroke:#000000;stroke-width:0.8;" x="252.145537" xlink:href="#m72fe01748d" y="512.64"/>
      </g>
     </g>
     <g id="text_3">
      <!-- 20 -->
      <g transform="translate(242.601787 527.537656)scale(0.15 -0.15)">
       <defs>
        <path d="M 19.1875 8.296875 
L 53.609375 8.296875 
L 53.609375 0 
L 7.328125 0 
L 7.328125 8.296875 
Q 12.9375 14.109375 22.625 23.890625 
Q 32.328125 33.6875 34.8125 36.53125 
Q 39.546875 41.84375 41.421875 45.53125 
Q 43.3125 49.21875 43.3125 52.78125 
Q 43.3125 58.59375 39.234375 62.25 
Q 35.15625 65.921875 28.609375 65.921875 
Q 23.96875 65.921875 18.8125 64.3125 
Q 13.671875 62.703125 7.8125 59.421875 
L 7.8125 69.390625 
Q 13.765625 71.78125 18.9375 73 
Q 24.125 74.21875 28.421875 74.21875 
Q 39.75 74.21875 46.484375 68.546875 
Q 53.21875 62.890625 53.21875 53.421875 
Q 53.21875 48.921875 51.53125 44.890625 
Q 49.859375 40.875 45.40625 35.40625 
Q 44.1875 33.984375 37.640625 27.21875 
Q 31.109375 20.453125 19.1875 8.296875 
z
" id="DejaVuSans-50"/>
       </defs>
       <use xlink:href="#DejaVuSans-50"/>
       <use x="63.623047" xlink:href="#DejaVuSans-48"/>
      </g>
     </g>
    </g>
    <g id="xtick_4">
     <g id="line2d_7">
      <path clip-path="url(#p65ecbb772f)" d="M 321.574463 512.64 
L 321.574463 40.32 
" style="fill:none;stroke:#e6e6e6;stroke-linecap:square;stroke-width:0.8;"/>
     </g>
     <g id="line2d_8">
      <g>
       <use style="stroke:#000000;stroke-width:0.8;" x="321.574463" xlink:href="#m72fe01748d" y="512.64"/>
      </g>
     </g>
     <g id="text_4">
      <!-- 30 -->
      <g transform="translate(312.030713 527.537656)scale(0.15 -0.15)">
       <defs>
        <path d="M 40.578125 39.3125 
Q 47.65625 37.796875 51.625 33 
Q 55.609375 28.21875 55.609375 21.1875 
Q 55.609375 10.40625 48.1875 4.484375 
Q 40.765625 -1.421875 27.09375 -1.421875 
Q 22.515625 -1.421875 17.65625 -0.515625 
Q 12.796875 0.390625 7.625 2.203125 
L 7.625 11.71875 
Q 11.71875 9.328125 16.59375 8.109375 
Q 21.484375 6.890625 26.8125 6.890625 
Q 36.078125 6.890625 40.9375 10.546875 
Q 45.796875 14.203125 45.796875 21.1875 
Q 45.796875 27.640625 41.28125 31.265625 
Q 36.765625 34.90625 28.71875 34.90625 
L 20.21875 34.90625 
L 20.21875 43.015625 
L 29.109375 43.015625 
Q 36.375 43.015625 40.234375 45.921875 
Q 44.09375 48.828125 44.09375 54.296875 
Q 44.09375 59.90625 40.109375 62.90625 
Q 36.140625 65.921875 28.71875 65.921875 
Q 24.65625 65.921875 20.015625 65.03125 
Q 15.375 64.15625 9.8125 62.3125 
L 9.8125 71.09375 
Q 15.4375 72.65625 20.34375 73.4375 
Q 25.25 74.21875 29.59375 74.21875 
Q 40.828125 74.21875 47.359375 69.109375 
Q 53.90625 64.015625 53.90625 55.328125 
Q 53.90625 49.265625 50.4375 45.09375 
Q 46.96875 40.921875 40.578125 39.3125 
z
" id="DejaVuSans-51"/>
       </defs>
       <use xlink:href="#DejaVuSans-51"/>
       <use x="63.623047" xlink:href="#DejaVuSans-48"/>
      </g>
     </g>
    </g>
    <g id="xtick_5">
     <g id="line2d_9">
      <path clip-path="url(#p65ecbb772f)" d="M 391.003388 512.64 
L 391.003388 40.32 
" style="fill:none;stroke:#e6e6e6;stroke-linecap:square;stroke-width:0.8;"/>
     </g>
     <g id="line2d_10">
      <g>
       <use style="stroke:#000000;stroke-width:0.8;" x="391.003388" xlink:href="#m72fe01748d" y="512.64"/>
      </g>
     </g>
     <g id="text_5">
      <!-- 40 -->
      <g transform="translate(381.459638 527.537656)scale(0.15 -0.15)">
       <defs>
        <path d="M 37.796875 64.3125 
L 12.890625 25.390625 
L 37.796875 25.390625 
z
M 35.203125 72.90625 
L 47.609375 72.90625 
L 47.609375 25.390625 
L 58.015625 25.390625 
L 58.015625 17.1875 
L 47.609375 17.1875 
L 47.609375 0 
L 37.796875 0 
L 37.796875 17.1875 
L 4.890625 17.1875 
L 4.890625 26.703125 
z
" id="DejaVuSans-52"/>
       </defs>
       <use xlink:href="#DejaVuSans-52"/>
       <use x="63.623047" xlink:href="#DejaVuSans-48"/>
      </g>
     </g>
    </g>
    <g id="xtick_6">
     <g id="line2d_11">
      <path clip-path="url(#p65ecbb772f)" d="M 460.432314 512.64 
L 460.432314 40.32 
" style="fill:none;stroke:#e6e6e6;stroke-linecap:square;stroke-width:0.8;"/>
     </g>
     <g id="line2d_12">
      <g>
       <use style="stroke:#000000;stroke-width:0.8;" x="460.432314" xlink:href="#m72fe01748d" y="512.64"/>
      </g>
     </g>
     <g id="text_6">
      <!-- 50 -->
      <g transform="translate(450.888564 527.537656)scale(0.15 -0.15)">
       <defs>
        <path d="M 10.796875 72.90625 
L 49.515625 72.90625 
L 49.515625 64.59375 
L 19.828125 64.59375 
L 19.828125 46.734375 
Q 21.96875 47.46875 24.109375 47.828125 
Q 26.265625 48.1875 28.421875 48.1875 
Q 40.625 48.1875 47.75 41.5 
Q 54.890625 34.8125 54.890625 23.390625 
Q 54.890625 11.625 47.5625 5.09375 
Q 40.234375 -1.421875 26.90625 -1.421875 
Q 22.3125 -1.421875 17.546875 -0.640625 
Q 12.796875 0.140625 7.71875 1.703125 
L 7.71875 11.625 
Q 12.109375 9.234375 16.796875 8.0625 
Q 21.484375 6.890625 26.703125 6.890625 
Q 35.15625 6.890625 40.078125 11.328125 
Q 45.015625 15.765625 45.015625 23.390625 
Q 45.015625 31 40.078125 35.4375 
Q 35.15625 39.890625 26.703125 39.890625 
Q 22.75 39.890625 18.8125 39.015625 
Q 14.890625 38.140625 10.796875 36.28125 
z
" id="DejaVuSans-53"/>
       </defs>
       <use xlink:href="#DejaVuSans-53"/>
       <use x="63.623047" xlink:href="#DejaVuSans-48"/>
      </g>
     </g>
    </g>
    <g id="text_7">
     <!-- $z(nm)$ -->
     <g transform="translate(250.36 553.653281)scale(0.25 -0.25)">
      <defs>
       <path d="M 11.625 54.6875 
L 54.296875 54.6875 
L 52.6875 46.484375 
L 11.53125 7.171875 
L 45.515625 7.171875 
L 44.09375 0 
L -0.296875 0 
L 1.3125 8.203125 
L 42.484375 47.515625 
L 10.203125 47.515625 
z
" id="DejaVuSans-Oblique-122"/>
       <path d="M 31 75.875 
Q 24.46875 64.65625 21.28125 53.65625 
Q 18.109375 42.671875 18.109375 31.390625 
Q 18.109375 20.125 21.3125 9.0625 
Q 24.515625 -2 31 -13.1875 
L 23.1875 -13.1875 
Q 15.875 -1.703125 12.234375 9.375 
Q 8.59375 20.453125 8.59375 31.390625 
Q 8.59375 42.28125 12.203125 53.3125 
Q 15.828125 64.359375 23.1875 75.875 
z
" id="DejaVuSans-40"/>
       <path d="M 55.71875 33.015625 
L 49.3125 0 
L 40.28125 0 
L 46.6875 32.671875 
Q 47.125 34.96875 47.359375 36.71875 
Q 47.609375 38.484375 47.609375 39.5 
Q 47.609375 43.609375 45.015625 45.890625 
Q 42.4375 48.1875 37.796875 48.1875 
Q 30.5625 48.1875 25.34375 43.375 
Q 20.125 38.578125 18.5 30.328125 
L 12.5 0 
L 3.515625 0 
L 14.109375 54.6875 
L 23.09375 54.6875 
L 21.296875 46.09375 
Q 25.046875 50.828125 30.3125 53.40625 
Q 35.59375 56 41.40625 56 
Q 48.640625 56 52.609375 52.09375 
Q 56.59375 48.1875 56.59375 41.109375 
Q 56.59375 39.359375 56.375 37.359375 
Q 56.15625 35.359375 55.71875 33.015625 
z
" id="DejaVuSans-Oblique-110"/>
       <path d="M 89.796875 33.015625 
L 83.40625 0 
L 74.421875 0 
L 80.71875 32.71875 
Q 81.109375 34.8125 81.296875 36.328125 
Q 81.5 37.84375 81.5 38.921875 
Q 81.5 43.3125 79.046875 45.75 
Q 76.609375 48.1875 72.21875 48.1875 
Q 65.671875 48.1875 60.546875 43.28125 
Q 55.421875 38.375 53.90625 30.515625 
L 47.90625 0 
L 38.921875 0 
L 45.3125 32.71875 
Q 45.703125 34.515625 45.890625 36.046875 
Q 46.09375 37.59375 46.09375 38.8125 
Q 46.09375 43.265625 43.65625 45.71875 
Q 41.21875 48.1875 36.921875 48.1875 
Q 30.28125 48.1875 25.140625 43.28125 
Q 20.015625 38.375 18.5 30.515625 
L 12.5 0 
L 3.515625 0 
L 14.203125 54.6875 
L 23.1875 54.6875 
L 21.484375 46.1875 
Q 25.140625 50.984375 30.046875 53.484375 
Q 34.96875 56 40.578125 56 
Q 46.53125 56 50.359375 52.875 
Q 54.203125 49.75 54.984375 44.1875 
Q 59.078125 49.953125 64.46875 52.96875 
Q 69.875 56 75.875 56 
Q 82.90625 56 86.734375 51.953125 
Q 90.578125 47.90625 90.578125 40.484375 
Q 90.578125 38.875 90.375 36.9375 
Q 90.1875 35.015625 89.796875 33.015625 
z
" id="DejaVuSans-Oblique-109"/>
       <path d="M 8.015625 75.875 
L 15.828125 75.875 
Q 23.140625 64.359375 26.78125 53.3125 
Q 30.421875 42.28125 30.421875 31.390625 
Q 30.421875 20.453125 26.78125 9.375 
Q 23.140625 -1.703125 15.828125 -13.1875 
L 8.015625 -13.1875 
Q 14.5 -2 17.703125 9.0625 
Q 20.90625 20.125 20.90625 31.390625 
Q 20.90625 42.671875 17.703125 53.65625 
Q 14.5 64.65625 8.015625 75.875 
z
" id="DejaVuSans-41"/>
      </defs>
      <use transform="translate(0 0.125)" xlink:href="#DejaVuSans-Oblique-122"/>
      <use transform="translate(52.490234 0.125)" xlink:href="#DejaVuSans-40"/>
      <use transform="translate(91.503906 0.125)" xlink:href="#DejaVuSans-Oblique-110"/>
      <use transform="translate(154.882812 0.125)" xlink:href="#DejaVuSans-Oblique-109"/>
      <use transform="translate(252.294922 0.125)" xlink:href="#DejaVuSans-41"/>
     </g>
    </g>
   </g>
   <g id="matplotlib.axis_2">
    <g id="ytick_1">
     <g id="line2d_13">
      <path clip-path="url(#p65ecbb772f)" d="M 76.8375 471.653554 
L 496.8825 471.653554 
" style="fill:none;stroke:#e6e6e6;stroke-linecap:square;stroke-width:0.8;"/>
     </g>
     <g id="line2d_14">
      <defs>
       <path d="M 0 0 
L 3.5 0 
" id="md5d3d6b05e" style="stroke:#000000;stroke-width:0.8;"/>
      </defs>
      <g>
       <use style="stroke:#000000;stroke-width:0.8;" x="76.8375" xlink:href="#md5d3d6b05e" y="471.653554"/>
      </g>
     </g>
     <g id="text_8">
      <!-- 0.0 -->
      <g transform="translate(49.482812 477.352382)scale(0.15 -0.15)">
       <defs>
        <path d="M 10.6875 12.40625 
L 21 12.40625 
L 21 0 
L 10.6875 0 
z
" id="DejaVuSans-46"/>
       </defs>
       <use xlink:href="#DejaVuSans-48"/>
       <use x="63.623047" xlink:href="#DejaVuSans-46"/>
       <use x="95.410156" xlink:href="#DejaVuSans-48"/>
      </g>
     </g>
    </g>
    <g id="ytick_2">
     <g id="line2d_15">
      <path clip-path="url(#p65ecbb772f)" d="M 76.8375 393.598081 
L 496.8825 393.598081 
" style="fill:none;stroke:#e6e6e6;stroke-linecap:square;stroke-width:0.8;"/>
     </g>
     <g id="line2d_16">
      <g>
       <use style="stroke:#000000;stroke-width:0.8;" x="76.8375" xlink:href="#md5d3d6b05e" y="393.598081"/>
      </g>
     </g>
     <g id="text_9">
      <!-- 0.2 -->
      <g transform="translate(49.482812 399.296909)scale(0.15 -0.15)">
       <use xlink:href="#DejaVuSans-48"/>
       <use x="63.623047" xlink:href="#DejaVuSans-46"/>
       <use x="95.410156" xlink:href="#DejaVuSans-50"/>
      </g>
     </g>
    </g>
    <g id="ytick_3">
     <g id="line2d_17">
      <path clip-path="url(#p65ecbb772f)" d="M 76.8375 315.542608 
L 496.8825 315.542608 
" style="fill:none;stroke:#e6e6e6;stroke-linecap:square;stroke-width:0.8;"/>
     </g>
     <g id="line2d_18">
      <g>
       <use style="stroke:#000000;stroke-width:0.8;" x="76.8375" xlink:href="#md5d3d6b05e" y="315.542608"/>
      </g>
     </g>
     <g id="text_10">
      <!-- 0.4 -->
      <g transform="translate(49.482812 321.241436)scale(0.15 -0.15)">
       <use xlink:href="#DejaVuSans-48"/>
       <use x="63.623047" xlink:href="#DejaVuSans-46"/>
       <use x="95.410156" xlink:href="#DejaVuSans-52"/>
      </g>
     </g>
    </g>
    <g id="ytick_4">
     <g id="line2d_19">
      <path clip-path="url(#p65ecbb772f)" d="M 76.8375 237.487135 
L 496.8825 237.487135 
" style="fill:none;stroke:#e6e6e6;stroke-linecap:square;stroke-width:0.8;"/>
     </g>
     <g id="line2d_20">
      <g>
       <use style="stroke:#000000;stroke-width:0.8;" x="76.8375" xlink:href="#md5d3d6b05e" y="237.487135"/>
      </g>
     </g>
     <g id="text_11">
      <!-- 0.6 -->
      <g transform="translate(49.482812 243.185963)scale(0.15 -0.15)">
       <defs>
        <path d="M 33.015625 40.375 
Q 26.375 40.375 22.484375 35.828125 
Q 18.609375 31.296875 18.609375 23.390625 
Q 18.609375 15.53125 22.484375 10.953125 
Q 26.375 6.390625 33.015625 6.390625 
Q 39.65625 6.390625 43.53125 10.953125 
Q 47.40625 15.53125 47.40625 23.390625 
Q 47.40625 31.296875 43.53125 35.828125 
Q 39.65625 40.375 33.015625 40.375 
z
M 52.59375 71.296875 
L 52.59375 62.3125 
Q 48.875 64.0625 45.09375 64.984375 
Q 41.3125 65.921875 37.59375 65.921875 
Q 27.828125 65.921875 22.671875 59.328125 
Q 17.53125 52.734375 16.796875 39.40625 
Q 19.671875 43.65625 24.015625 45.921875 
Q 28.375 48.1875 33.59375 48.1875 
Q 44.578125 48.1875 50.953125 41.515625 
Q 57.328125 34.859375 57.328125 23.390625 
Q 57.328125 12.15625 50.6875 5.359375 
Q 44.046875 -1.421875 33.015625 -1.421875 
Q 20.359375 -1.421875 13.671875 8.265625 
Q 6.984375 17.96875 6.984375 36.375 
Q 6.984375 53.65625 15.1875 63.9375 
Q 23.390625 74.21875 37.203125 74.21875 
Q 40.921875 74.21875 44.703125 73.484375 
Q 48.484375 72.75 52.59375 71.296875 
z
" id="DejaVuSans-54"/>
       </defs>
       <use xlink:href="#DejaVuSans-48"/>
       <use x="63.623047" xlink:href="#DejaVuSans-46"/>
       <use x="95.410156" xlink:href="#DejaVuSans-54"/>
      </g>
     </g>
    </g>
    <g id="ytick_5">
     <g id="line2d_21">
      <path clip-path="url(#p65ecbb772f)" d="M 76.8375 159.431662 
L 496.8825 159.431662 
" style="fill:none;stroke:#e6e6e6;stroke-linecap:square;stroke-width:0.8;"/>
     </g>
     <g id="line2d_22">
      <g>
       <use style="stroke:#000000;stroke-width:0.8;" x="76.8375" xlink:href="#md5d3d6b05e" y="159.431662"/>
      </g>
     </g>
     <g id="text_12">
      <!-- 0.8 -->
      <g transform="translate(49.482812 165.13049)scale(0.15 -0.15)">
       <defs>
        <path d="M 31.78125 34.625 
Q 24.75 34.625 20.71875 30.859375 
Q 16.703125 27.09375 16.703125 20.515625 
Q 16.703125 13.921875 20.71875 10.15625 
Q 24.75 6.390625 31.78125 6.390625 
Q 38.8125 6.390625 42.859375 10.171875 
Q 46.921875 13.96875 46.921875 20.515625 
Q 46.921875 27.09375 42.890625 30.859375 
Q 38.875 34.625 31.78125 34.625 
z
M 21.921875 38.8125 
Q 15.578125 40.375 12.03125 44.71875 
Q 8.5 49.078125 8.5 55.328125 
Q 8.5 64.0625 14.71875 69.140625 
Q 20.953125 74.21875 31.78125 74.21875 
Q 42.671875 74.21875 48.875 69.140625 
Q 55.078125 64.0625 55.078125 55.328125 
Q 55.078125 49.078125 51.53125 44.71875 
Q 48 40.375 41.703125 38.8125 
Q 48.828125 37.15625 52.796875 32.3125 
Q 56.78125 27.484375 56.78125 20.515625 
Q 56.78125 9.90625 50.3125 4.234375 
Q 43.84375 -1.421875 31.78125 -1.421875 
Q 19.734375 -1.421875 13.25 4.234375 
Q 6.78125 9.90625 6.78125 20.515625 
Q 6.78125 27.484375 10.78125 32.3125 
Q 14.796875 37.15625 21.921875 38.8125 
z
M 18.3125 54.390625 
Q 18.3125 48.734375 21.84375 45.5625 
Q 25.390625 42.390625 31.78125 42.390625 
Q 38.140625 42.390625 41.71875 45.5625 
Q 45.3125 48.734375 45.3125 54.390625 
Q 45.3125 60.0625 41.71875 63.234375 
Q 38.140625 66.40625 31.78125 66.40625 
Q 25.390625 66.40625 21.84375 63.234375 
Q 18.3125 60.0625 18.3125 54.390625 
z
" id="DejaVuSans-56"/>
       </defs>
       <use xlink:href="#DejaVuSans-48"/>
       <use x="63.623047" xlink:href="#DejaVuSans-46"/>
       <use x="95.410156" xlink:href="#DejaVuSans-56"/>
      </g>
     </g>
    </g>
    <g id="ytick_6">
     <g id="line2d_23">
      <path clip-path="url(#p65ecbb772f)" d="M 76.8375 81.376189 
L 496.8825 81.376189 
" style="fill:none;stroke:#e6e6e6;stroke-linecap:square;stroke-width:0.8;"/>
     </g>
     <g id="line2d_24">
      <g>
       <use style="stroke:#000000;stroke-width:0.8;" x="76.8375" xlink:href="#md5d3d6b05e" y="81.376189"/>
      </g>
     </g>
     <g id="text_13">
      <!-- 1.0 -->
      <g transform="translate(49.482812 87.075017)scale(0.15 -0.15)">
       <use xlink:href="#DejaVuSans-49"/>
       <use x="63.623047" xlink:href="#DejaVuSans-46"/>
       <use x="95.410156" xlink:href="#DejaVuSans-48"/>
      </g>
     </g>
    </g>
    <g id="text_14">
     <!-- $Proba$ -->
     <g transform="translate(40.283594 312.48)rotate(-90)scale(0.25 -0.25)">
      <defs>
       <path d="M 16.890625 72.90625 
L 39.703125 72.90625 
Q 49.65625 72.90625 54.875 68.265625 
Q 60.109375 63.625 60.109375 54.6875 
Q 60.109375 42.671875 52.390625 35.984375 
Q 44.671875 29.296875 30.71875 29.296875 
L 18.3125 29.296875 
L 12.59375 0 
L 2.6875 0 
z
M 25.203125 64.796875 
L 19.921875 37.40625 
L 32.328125 37.40625 
Q 40.71875 37.40625 45.203125 41.703125 
Q 49.703125 46 49.703125 54 
Q 49.703125 59.125 46.65625 61.953125 
Q 43.609375 64.796875 38.09375 64.796875 
z
" id="DejaVuSans-Oblique-80"/>
       <path d="M 44.578125 46.390625 
Q 43.21875 47.125 41.453125 47.515625 
Q 39.703125 47.90625 37.703125 47.90625 
Q 30.515625 47.90625 25.140625 42.453125 
Q 19.78125 37.015625 18.015625 27.875 
L 12.5 0 
L 3.515625 0 
L 14.203125 54.6875 
L 23.1875 54.6875 
L 21.484375 46.1875 
Q 25.046875 50.921875 30 53.453125 
Q 34.96875 56 40.578125 56 
Q 42.046875 56 43.453125 55.828125 
Q 44.875 55.671875 46.296875 55.28125 
z
" id="DejaVuSans-Oblique-114"/>
       <path d="M 25.390625 -1.421875 
Q 15.765625 -1.421875 10.171875 4.515625 
Q 4.59375 10.453125 4.59375 20.703125 
Q 4.59375 26.65625 6.515625 32.828125 
Q 8.453125 39.015625 11.53125 43.21875 
Q 16.359375 49.75 22.3125 52.875 
Q 28.265625 56 35.796875 56 
Q 45.125 56 50.859375 50.1875 
Q 56.59375 44.390625 56.59375 35.015625 
Q 56.59375 28.515625 54.6875 22.0625 
Q 52.78125 15.625 49.703125 11.375 
Q 44.921875 4.828125 38.96875 1.703125 
Q 33.015625 -1.421875 25.390625 -1.421875 
z
M 13.921875 21 
Q 13.921875 13.578125 17.015625 9.890625 
Q 20.125 6.203125 26.421875 6.203125 
Q 35.453125 6.203125 41.375 14.078125 
Q 47.3125 21.96875 47.3125 34.078125 
Q 47.3125 41.15625 44.140625 44.765625 
Q 40.96875 48.390625 34.8125 48.390625 
Q 29.734375 48.390625 25.78125 46.015625 
Q 21.828125 43.65625 18.703125 38.8125 
Q 16.40625 35.203125 15.15625 30.5625 
Q 13.921875 25.921875 13.921875 21 
z
" id="DejaVuSans-Oblique-111"/>
       <path d="M 49.515625 33.40625 
Q 49.515625 40.484375 46.265625 44.484375 
Q 43.015625 48.484375 37.3125 48.484375 
Q 33.15625 48.484375 29.515625 46.453125 
Q 25.875 44.4375 23.1875 40.578125 
Q 20.359375 36.53125 18.71875 31.171875 
Q 17.09375 25.828125 17.09375 20.515625 
Q 17.09375 13.765625 20.28125 9.9375 
Q 23.484375 6.109375 29.109375 6.109375 
Q 33.34375 6.109375 36.953125 8.078125 
Q 40.578125 10.0625 43.3125 13.921875 
Q 46.09375 17.921875 47.796875 23.234375 
Q 49.515625 28.5625 49.515625 33.40625 
z
M 21.578125 46.390625 
Q 24.90625 50.875 29.90625 53.4375 
Q 34.90625 56 40.375 56 
Q 48.78125 56 53.734375 50.328125 
Q 58.6875 44.671875 58.6875 35.015625 
Q 58.6875 27.09375 55.78125 19.671875 
Q 52.875 12.25 47.515625 6.5 
Q 44 2.6875 39.40625 0.625 
Q 34.8125 -1.421875 29.78125 -1.421875 
Q 24.46875 -1.421875 20.5625 1.015625 
Q 16.65625 3.46875 14.203125 8.296875 
L 12.59375 0 
L 3.609375 0 
L 18.40625 75.984375 
L 27.390625 75.984375 
z
" id="DejaVuSans-Oblique-98"/>
       <path d="M 53.71875 31.203125 
L 47.609375 0 
L 38.625 0 
L 40.28125 8.296875 
Q 36.328125 3.421875 31.265625 1 
Q 26.21875 -1.421875 20.015625 -1.421875 
Q 13.03125 -1.421875 8.5625 2.84375 
Q 4.109375 7.125 4.109375 13.8125 
Q 4.109375 23.390625 11.75 28.953125 
Q 19.390625 34.515625 32.8125 34.515625 
L 45.3125 34.515625 
L 45.796875 36.921875 
Q 45.90625 37.3125 45.953125 37.765625 
Q 46 38.234375 46 39.203125 
Q 46 43.5625 42.453125 45.96875 
Q 38.921875 48.390625 32.515625 48.390625 
Q 28.125 48.390625 23.5 47.265625 
Q 18.890625 46.140625 14.015625 43.890625 
L 15.578125 52.203125 
Q 20.65625 54.109375 25.515625 55.046875 
Q 30.375 56 34.90625 56 
Q 44.578125 56 49.625 51.796875 
Q 54.6875 47.609375 54.6875 39.59375 
Q 54.6875 37.984375 54.4375 35.8125 
Q 54.203125 33.640625 53.71875 31.203125 
z
M 44 27.484375 
L 35.015625 27.484375 
Q 23.96875 27.484375 18.671875 24.53125 
Q 13.375 21.578125 13.375 15.375 
Q 13.375 11.078125 16.078125 8.640625 
Q 18.796875 6.203125 23.578125 6.203125 
Q 30.90625 6.203125 36.375 11.453125 
Q 41.84375 16.703125 43.609375 25.484375 
z
" id="DejaVuSans-Oblique-97"/>
      </defs>
      <use transform="translate(0 0.015625)" xlink:href="#DejaVuSans-Oblique-80"/>
      <use transform="translate(60.302734 0.015625)" xlink:href="#DejaVuSans-Oblique-114"/>
      <use transform="translate(101.416016 0.015625)" xlink:href="#DejaVuSans-Oblique-111"/>
      <use transform="translate(162.597656 0.015625)" xlink:href="#DejaVuSans-Oblique-98"/>
      <use transform="translate(226.074219 0.015625)" xlink:href="#DejaVuSans-Oblique-97"/>
     </g>
    </g>
   </g>
   <g id="line2d_25">
    <path clip-path="url(#p65ecbb772f)" d="M 113.287686 81.376189 
L 116.759132 81.654522 
L 120.230579 81.928885 
L 123.702025 82.199334 
L 127.173471 82.465927 
L 130.644917 82.728716 
L 134.116364 82.987757 
L 137.58781 83.243104 
L 141.059256 83.494808 
L 144.530702 83.742923 
L 148.002149 83.987498 
L 151.473595 84.228585 
L 154.945041 84.466233 
L 158.416488 84.700491 
L 161.887934 84.931409 
L 165.35938 85.159032 
L 168.830826 85.383409 
L 172.302273 85.604586 
L 175.773719 85.822607 
L 179.245165 86.03752 
L 182.716612 86.249366 
L 186.188058 86.458191 
L 189.659504 86.664038 
L 193.13095 86.866948 
L 196.602397 87.066965 
L 200.073843 87.264128 
L 203.545289 87.458479 
L 207.016736 87.650058 
L 210.488182 87.838905 
L 213.959628 88.025058 
L 217.431074 88.208556 
L 220.902521 88.389436 
L 224.373967 88.567737 
L 227.845413 88.743494 
L 231.31686 88.916745 
L 234.788306 89.087524 
L 238.259752 89.255868 
L 241.731198 89.42181 
L 245.202645 89.585385 
L 248.674091 89.746628 
L 252.145537 89.90557 
L 255.616983 90.062246 
L 259.08843 90.216686 
L 262.559876 90.368924 
L 266.031322 90.518991 
L 269.502769 90.666917 
L 272.974215 90.812733 
L 276.445661 90.956469 
L 279.917107 91.098155 
L 283.388554 91.23782 
L 286.86 91.375493 
L 290.331446 91.511203 
L 293.802893 91.644977 
L 297.274339 91.776842 
L 300.745785 91.906827 
L 304.217231 92.034958 
L 307.688678 92.161261 
L 311.160124 92.285763 
L 314.63157 92.408489 
L 318.103017 92.529464 
L 321.574463 92.648714 
L 325.045909 92.766263 
L 328.517355 92.882136 
L 331.988802 92.996355 
L 335.460248 93.108946 
L 338.931694 93.21993 
L 342.40314 93.329332 
L 345.874587 93.437173 
L 349.346033 93.543476 
L 352.817479 93.648263 
L 356.288926 93.751555 
L 359.760372 93.853374 
L 363.231818 93.953741 
L 366.703264 94.052676 
L 370.174711 94.150199 
L 373.646157 94.246332 
L 377.117603 94.341094 
L 380.58905 94.434504 
L 384.060496 94.526582 
L 387.531942 94.617346 
L 391.003388 94.706816 
L 394.474835 94.79501 
L 397.946281 94.881945 
L 401.417727 94.967641 
L 404.889174 95.052114 
L 408.36062 95.135383 
L 411.832066 95.217464 
L 415.303512 95.298374 
L 418.774959 95.37813 
L 422.246405 95.456748 
L 425.717851 95.534246 
L 429.189298 95.610637 
L 432.660744 95.685939 
L 436.13219 95.760167 
L 439.603636 95.833337 
L 443.075083 95.905463 
L 446.546529 95.976559 
L 450.017975 96.046642 
L 453.489421 96.115726 
L 456.960868 96.183823 
L 460.432314 96.25095 
" style="fill:none;stroke:#fdbf6f;stroke-linecap:square;stroke-width:2;"/>
   </g>
   <g id="line2d_26">
    <path clip-path="url(#p65ecbb772f)" d="M 113.287686 471.653554 
L 116.759132 471.375674 
L 120.230579 471.101745 
L 123.702025 470.83171 
L 127.173471 470.565515 
L 130.644917 470.303104 
L 134.116364 470.044424 
L 137.58781 469.789421 
L 141.059256 469.538045 
L 144.530702 469.290242 
L 148.002149 469.045964 
L 151.473595 468.805158 
L 154.945041 468.567777 
L 158.416488 468.333771 
L 161.887934 468.103093 
L 165.35938 467.875695 
L 168.830826 467.651531 
L 172.302273 467.430556 
L 175.773719 467.212723 
L 179.245165 466.997988 
L 182.716612 466.786308 
L 186.188058 466.577639 
L 189.659504 466.371939 
L 193.13095 466.169165 
L 196.602397 465.969275 
L 200.073843 465.77223 
L 203.545289 465.577988 
L 207.016736 465.386511 
L 210.488182 465.197758 
L 213.959628 465.011691 
L 217.431074 464.828273 
L 220.902521 464.647465 
L 224.373967 464.469232 
L 227.845413 464.293535 
L 231.31686 464.12034 
L 234.788306 463.94961 
L 238.259752 463.781312 
L 241.731198 463.615411 
L 245.202645 463.451872 
L 248.674091 463.290662 
L 252.145537 463.131749 
L 255.616983 462.975099 
L 259.08843 462.820681 
L 262.559876 462.668463 
L 266.031322 462.518413 
L 269.502769 462.370502 
L 272.974215 462.224699 
L 276.445661 462.080974 
L 279.917107 461.939297 
L 283.388554 461.79964 
L 286.86 461.661973 
L 290.331446 461.526269 
L 293.802893 461.3925 
L 297.274339 461.260638 
L 300.745785 461.130656 
L 304.217231 461.002528 
L 307.688678 460.876226 
L 311.160124 460.751726 
L 314.63157 460.629001 
L 318.103017 460.508026 
L 321.574463 460.388777 
L 325.045909 460.271228 
L 328.517355 460.155356 
L 331.988802 460.041137 
L 335.460248 459.928546 
L 338.931694 459.817562 
L 342.40314 459.70816 
L 345.874587 459.600319 
L 349.346033 459.494016 
L 352.817479 459.389229 
L 356.288926 459.285937 
L 359.760372 459.184118 
L 363.231818 459.083752 
L 366.703264 458.984817 
L 370.174711 458.887293 
L 373.646157 458.79116 
L 377.117603 458.696398 
L 380.58905 458.602988 
L 384.060496 458.510911 
L 387.531942 458.420146 
L 391.003388 458.330676 
L 394.474835 458.242483 
L 397.946281 458.155547 
L 401.417727 458.069851 
L 404.889174 457.985378 
L 408.36062 457.902109 
L 411.832066 457.820029 
L 415.303512 457.739119 
L 418.774959 457.659362 
L 422.246405 457.580744 
L 425.717851 457.503247 
L 429.189298 457.426855 
L 432.660744 457.351553 
L 436.13219 457.277325 
L 439.603636 457.204156 
L 443.075083 457.13203 
L 446.546529 457.060933 
L 450.017975 456.99085 
L 453.489421 456.921767 
L 456.960868 456.853669 
L 460.432314 456.786542 
" style="fill:none;stroke:#bfe5a0;stroke-linecap:square;stroke-width:2;"/>
   </g>
   <g id="line2d_27">
    <path clip-path="url(#p65ecbb772f)" d="M 113.287686 471.653554 
L 116.759132 471.653554 
L 120.230579 471.653554 
L 123.702025 471.653554 
L 127.173471 471.653554 
L 130.644917 471.653554 
L 134.116364 471.653554 
L 137.58781 471.653554 
L 141.059256 471.653554 
L 144.530702 471.653554 
L 148.002149 471.653554 
L 151.473595 471.653554 
L 154.945041 471.653554 
L 158.416488 471.653554 
L 161.887934 471.653554 
L 165.35938 471.653554 
L 168.830826 471.653554 
L 172.302273 471.653554 
L 175.773719 471.653554 
L 179.245165 471.653554 
L 182.716612 471.653554 
L 186.188058 471.653554 
L 189.659504 471.653554 
L 193.13095 471.653554 
L 196.602397 471.653554 
L 200.073843 471.653554 
L 203.545289 471.653554 
L 207.016736 471.653554 
L 210.488182 471.653554 
L 213.959628 471.653554 
L 217.431074 471.653554 
L 220.902521 471.653554 
L 224.373967 471.653553 
L 227.845413 471.653553 
L 231.31686 471.653552 
L 234.788306 471.653551 
L 238.259752 471.653549 
L 241.731198 471.653546 
L 245.202645 471.653541 
L 248.674091 471.653534 
L 252.145537 471.653525 
L 255.616983 471.653512 
L 259.08843 471.653494 
L 262.559876 471.653471 
L 266.031322 471.653441 
L 269.502769 471.653403 
L 272.974215 471.653355 
L 276.445661 471.653296 
L 279.917107 471.653223 
L 283.388554 471.653135 
L 286.86 471.653029 
L 290.331446 471.652904 
L 293.802893 471.652756 
L 297.274339 471.652584 
L 300.745785 471.652385 
L 304.217231 471.652155 
L 307.688678 471.651894 
L 311.160124 471.651598 
L 314.63157 471.651263 
L 318.103017 471.650889 
L 321.574463 471.650471 
L 325.045909 471.650007 
L 328.517355 471.649494 
L 331.988802 471.648931 
L 335.460248 471.648314 
L 338.931694 471.64764 
L 342.40314 471.646907 
L 345.874587 471.646114 
L 349.346033 471.645257 
L 352.817479 471.644335 
L 356.288926 471.643344 
L 359.760372 471.642284 
L 363.231818 471.641153 
L 366.703264 471.639948 
L 370.174711 471.638667 
L 373.646157 471.637311 
L 377.117603 471.635875 
L 380.58905 471.634361 
L 384.060496 471.632766 
L 387.531942 471.631088 
L 391.003388 471.629328 
L 394.474835 471.627484 
L 397.946281 471.625556 
L 401.417727 471.623542 
L 404.889174 471.621442 
L 408.36062 471.619256 
L 411.832066 471.616983 
L 415.303512 471.614623 
L 418.774959 471.612176 
L 422.246405 471.609641 
L 425.717851 471.607019 
L 429.189298 471.60431 
L 432.660744 471.601514 
L 436.13219 471.598632 
L 439.603636 471.595663 
L 443.075083 471.592607 
L 446.546529 471.589467 
L 450.017975 471.586241 
L 453.489421 471.582931 
L 456.960868 471.579538 
L 460.432314 471.576061 
" style="fill:none;stroke:#5e4fa2;stroke-linecap:square;stroke-width:2;"/>
   </g>
   <g id="line2d_28">
    <path clip-path="url(#p65ecbb772f)" d="M 113.287686 81.376189 
L 116.759132 81.376642 
L 120.230579 81.377076 
L 123.702025 81.377491 
L 127.173471 81.377888 
L 130.644917 81.378266 
L 134.116364 81.378627 
L 137.58781 81.378972 
L 141.059256 81.379299 
L 144.530702 81.379611 
L 148.002149 81.379908 
L 151.473595 81.380189 
L 154.945041 81.380456 
L 158.416488 81.380709 
L 161.887934 81.380948 
L 165.35938 81.381174 
L 168.830826 81.381387 
L 172.302273 81.381588 
L 175.773719 81.381777 
L 179.245165 81.381954 
L 182.716612 81.382121 
L 186.188058 81.382277 
L 189.659504 81.382423 
L 193.13095 81.382559 
L 196.602397 81.382686 
L 200.073843 81.382804 
L 203.545289 81.382914 
L 207.016736 81.383015 
L 210.488182 81.383109 
L 213.959628 81.383196 
L 217.431074 81.383275 
L 220.902521 81.383348 
L 224.373967 81.383414 
L 227.845413 81.383475 
L 231.31686 81.383529 
L 234.788306 81.383578 
L 238.259752 81.383621 
L 241.731198 81.383659 
L 245.202645 81.383691 
L 248.674091 81.383716 
L 252.145537 81.383736 
L 255.616983 81.383749 
L 259.08843 81.383754 
L 262.559876 81.383751 
L 266.031322 81.383738 
L 269.502769 81.383715 
L 272.974215 81.38368 
L 276.445661 81.383631 
L 279.917107 81.383568 
L 283.388554 81.383488 
L 286.86 81.383388 
L 290.331446 81.383268 
L 293.802893 81.383125 
L 297.274339 81.382957 
L 300.745785 81.38276 
L 304.217231 81.382534 
L 307.688678 81.382274 
L 311.160124 81.381979 
L 314.63157 81.381646 
L 318.103017 81.381272 
L 321.574463 81.380854 
L 325.045909 81.380391 
L 328.517355 81.379879 
L 331.988802 81.379315 
L 335.460248 81.378698 
L 338.931694 81.378025 
L 342.40314 81.377292 
L 345.874587 81.376499 
L 349.346033 81.375642 
L 352.817479 81.374719 
L 356.288926 81.373729 
L 359.760372 81.372669 
L 363.231818 81.371538 
L 366.703264 81.370333 
L 370.174711 81.369052 
L 373.646157 81.367695 
L 377.117603 81.36626 
L 380.58905 81.364746 
L 384.060496 81.36315 
L 387.531942 81.361473 
L 391.003388 81.359713 
L 394.474835 81.357869 
L 397.946281 81.35594 
L 401.417727 81.353927 
L 404.889174 81.351827 
L 408.36062 81.349641 
L 411.832066 81.347368 
L 415.303512 81.345008 
L 418.774959 81.342561 
L 422.246405 81.340026 
L 425.717851 81.337404 
L 429.189298 81.334695 
L 432.660744 81.331899 
L 436.13219 81.329017 
L 439.603636 81.326048 
L 443.075083 81.322992 
L 446.546529 81.319852 
L 450.017975 81.316626 
L 453.489421 81.313316 
L 456.960868 81.309923 
L 460.432314 81.306446 
" style="fill:none;stroke:#000000;stroke-dasharray:7.4,3.2;stroke-dashoffset:0;stroke-width:2;"/>
   </g>
   <g id="patch_3">
    <path d="M 76.8375 512.64 
L 76.8375 40.32 
" style="fill:none;stroke:#000000;stroke-linecap:square;stroke-linejoin:miter;stroke-width:0.8;"/>
   </g>
   <g id="patch_4">
    <path d="M 496.8825 512.64 
L 496.8825 40.32 
" style="fill:none;stroke:#000000;stroke-linecap:square;stroke-linejoin:miter;stroke-width:0.8;"/>
   </g>
   <g id="patch_5">
    <path d="M 76.8375 512.64 
L 496.8825 512.64 
" style="fill:none;stroke:#000000;stroke-linecap:square;stroke-linejoin:miter;stroke-width:0.8;"/>
   </g>
   <g id="patch_6">
    <path d="M 76.8375 40.32 
L 496.8825 40.32 
" style="fill:none;stroke:#000000;stroke-linecap:square;stroke-linejoin:miter;stroke-width:0.8;"/>
   </g>
   <g id="legend_1">
    <g id="patch_7">
     <path d="M 406.1575 323.514375 
L 482.8825 323.514375 
Q 486.8825 323.514375 486.8825 319.514375 
L 486.8825 233.445625 
Q 486.8825 229.445625 482.8825 229.445625 
L 406.1575 229.445625 
Q 402.1575 229.445625 402.1575 233.445625 
L 402.1575 319.514375 
Q 402.1575 323.514375 406.1575 323.514375 
z
" style="fill:#ffffff;opacity:0.8;stroke:#cccccc;stroke-linejoin:miter;"/>
    </g>
    <g id="line2d_29">
     <path d="M 410.1575 245.6425 
L 450.1575 245.6425 
" style="fill:none;stroke:#fdbf6f;stroke-linecap:square;stroke-width:2;"/>
    </g>
    <g id="line2d_30"/>
    <g id="text_15">
     <!-- 0 -->
     <g transform="translate(466.1575 252.6425)scale(0.2 -0.2)">
      <use xlink:href="#DejaVuSans-48"/>
     </g>
    </g>
    <g id="line2d_31">
     <path d="M 410.1575 274.99875 
L 450.1575 274.99875 
" style="fill:none;stroke:#bfe5a0;stroke-linecap:square;stroke-width:2;"/>
    </g>
    <g id="line2d_32"/>
    <g id="text_16">
     <!-- 1 -->
     <g transform="translate(466.1575 281.99875)scale(0.2 -0.2)">
      <use xlink:href="#DejaVuSans-49"/>
     </g>
    </g>
    <g id="line2d_33">
     <path d="M 410.1575 304.355 
L 450.1575 304.355 
" style="fill:none;stroke:#5e4fa2;stroke-linecap:square;stroke-width:2;"/>
    </g>
    <g id="line2d_34"/>
    <g id="text_17">
     <!-- 2 -->
     <g transform="translate(466.1575 311.355)scale(0.2 -0.2)">
      <use xlink:href="#DejaVuSans-50"/>
     </g>
    </g>
   </g>
  </g>
 </g>
 <defs>
  <clipPath id="p65ecbb772f">
   <rect height="472.32" width="420.045" x="76.8375" y="40.32"/>
  </clipPath>
 </defs>
</svg>
