<?xml version="1.0" encoding="utf-8" standalone="no"?>
<!DOCTYPE svg PUBLIC "-//W3C//DTD SVG 1.1//EN"
  "http://www.w3.org/Graphics/SVG/1.1/DTD/svg11.dtd">
<!-- Created with matplotlib (https://matplotlib.org/) -->
<svg height="810pt" version="1.1" viewBox="0 0 720 810" width="720pt" xmlns="http://www.w3.org/2000/svg" xmlns:xlink="http://www.w3.org/1999/xlink">
 <metadata>
  <rdf:RDF xmlns:cc="http://creativecommons.org/ns#" xmlns:dc="http://purl.org/dc/elements/1.1/" xmlns:rdf="http://www.w3.org/1999/02/22-rdf-syntax-ns#">
   <cc:Work>
    <dc:type rdf:resource="http://purl.org/dc/dcmitype/StillImage"/>
    <dc:date>2021-01-18T15:02:58.247587</dc:date>
    <dc:format>image/svg+xml</dc:format>
    <dc:creator>
     <cc:Agent>
      <dc:title>Matplotlib v3.3.1, https://matplotlib.org/</dc:title>
     </cc:Agent>
    </dc:creator>
   </cc:Work>
  </rdf:RDF>
 </metadata>
 <defs>
  <style type="text/css">*{stroke-linecap:butt;stroke-linejoin:round;}</style>
 </defs>
 <g id="figure_1">
  <g id="patch_1">
   <path d="M 0 810 
L 720 810 
L 720 0 
L 0 0 
z
" style="fill:#ffffff;"/>
  </g>
  <g id="axes_1">
   <g id="patch_2">
    <path d="M 108 720.9 
L 698.4 720.9 
L 698.4 56.7 
L 108 56.7 
z
" style="fill:#ffffff;"/>
   </g>
   <g id="matplotlib.axis_1">
    <g id="xtick_1">
     <g id="line2d_1">
      <path clip-path="url(#p94754a107e)" d="M 156.793388 720.9 
L 156.793388 56.7 
" style="fill:none;stroke:#e6e6e6;stroke-linecap:square;stroke-width:0.8;"/>
     </g>
     <g id="line2d_2">
      <defs>
       <path d="M 0 0 
L 0 -3.5 
" id="me2bb7e250a" style="stroke:#000000;stroke-width:0.8;"/>
      </defs>
      <g>
       <use style="stroke:#000000;stroke-width:0.8;" x="156.793388" xlink:href="#me2bb7e250a" y="720.9"/>
      </g>
     </g>
     <g id="text_1">
      <!-- $\mathdefault{0}$ -->
      <g transform="translate(153.13527 734.777725)scale(0.15 -0.15)">
       <defs>
        <path d="M 42 31.640625 
C 42 37.75 41.90625 48.125 37.703125 56.109375 
C 34 63.109375 28.09375 65.59375 22.90625 65.59375 
C 18.09375 65.59375 12 63.40625 8.203125 56.203125 
C 4.203125 48.71875 3.796875 39.4375 3.796875 31.640625 
C 3.796875 25.953125 3.90625 17.28125 7 9.671875 
C 11.296875 -0.609375 19 -2 22.90625 -2 
C 27.5 -2 34.5 -0.109375 38.59375 9.375 
C 41.59375 16.28125 42 24.359375 42 31.640625 
z
M 22.90625 -0.40625 
C 16.5 -0.40625 12.703125 5.078125 11.296875 12.6875 
C 10.203125 18.5625 10.203125 27.15625 10.203125 32.75 
C 10.203125 40.4375 10.203125 46.828125 11.5 52.921875 
C 13.40625 61.390625 19 64 22.90625 64 
C 27 64 32.296875 61.296875 34.203125 53.125 
C 35.5 47.4375 35.59375 40.734375 35.59375 32.75 
C 35.59375 26.25 35.59375 18.265625 34.40625 12.375 
C 32.296875 1.484375 26.40625 -0.40625 22.90625 -0.40625 
z
" id="CMR17-48"/>
       </defs>
       <use transform="scale(0.996264)" xlink:href="#CMR17-48"/>
      </g>
     </g>
    </g>
    <g id="xtick_2">
     <g id="line2d_3">
      <path clip-path="url(#p94754a107e)" d="M 278.77686 720.9 
L 278.77686 56.7 
" style="fill:none;stroke:#e6e6e6;stroke-linecap:square;stroke-width:0.8;"/>
     </g>
     <g id="line2d_4">
      <g>
       <use style="stroke:#000000;stroke-width:0.8;" x="278.77686" xlink:href="#me2bb7e250a" y="720.9"/>
      </g>
     </g>
     <g id="text_2">
      <!-- $\mathdefault{100}$ -->
      <g transform="translate(267.802503 734.777725)scale(0.15 -0.15)">
       <defs>
        <path d="M 26.59375 63.40625 
C 26.59375 65.5 26.5 65.5 25.09375 65.5 
C 21.203125 61.1875 15.296875 59.796875 9.703125 59.796875 
C 9.40625 59.796875 8.90625 59.796875 8.796875 59.5 
C 8.703125 59.296875 8.703125 59.09375 8.703125 57 
C 11.796875 57 17 57.59375 21 59.984375 
L 21 7.203125 
C 21 3.6875 20.796875 2.5 12.203125 2.5 
L 9.203125 2.5 
L 9.203125 0 
C 14 0 19 0 23.796875 0 
C 28.59375 0 33.59375 0 38.40625 0 
L 38.40625 2.5 
L 35.40625 2.5 
C 26.796875 2.5 26.59375 3.59375 26.59375 7.15625 
z
" id="CMR17-49"/>
       </defs>
       <use transform="scale(0.996264)" xlink:href="#CMR17-49"/>
       <use transform="translate(45.690477 0)scale(0.996264)" xlink:href="#CMR17-48"/>
       <use transform="translate(91.380954 0)scale(0.996264)" xlink:href="#CMR17-48"/>
      </g>
     </g>
    </g>
    <g id="xtick_3">
     <g id="line2d_5">
      <path clip-path="url(#p94754a107e)" d="M 400.760331 720.9 
L 400.760331 56.7 
" style="fill:none;stroke:#e6e6e6;stroke-linecap:square;stroke-width:0.8;"/>
     </g>
     <g id="line2d_6">
      <g>
       <use style="stroke:#000000;stroke-width:0.8;" x="400.760331" xlink:href="#me2bb7e250a" y="720.9"/>
      </g>
     </g>
     <g id="text_3">
      <!-- $\mathdefault{200}$ -->
      <g transform="translate(389.785974 734.777725)scale(0.15 -0.15)">
       <defs>
        <path d="M 41.703125 15.453125 
L 39.90625 15.453125 
C 38.90625 8.375 38.09375 7.171875 37.703125 6.5625 
C 37.203125 5.765625 30 5.765625 28.59375 5.765625 
L 9.40625 5.765625 
C 13 9.671875 20 16.75 28.5 24.953125 
C 34.59375 30.734375 41.703125 37.53125 41.703125 47.421875 
C 41.703125 59.21875 32.296875 66 21.796875 66 
C 10.796875 66 4.09375 56.3125 4.09375 47.34375 
C 4.09375 43.4375 7 42.9375 8.203125 42.9375 
C 9.203125 42.9375 12.203125 43.546875 12.203125 47.03125 
C 12.203125 50.109375 9.59375 51 8.203125 51 
C 7.59375 51 7 50.90625 6.59375 50.703125 
C 8.5 59.21875 14.296875 63.40625 20.40625 63.40625 
C 29.09375 63.40625 34.796875 56.515625 34.796875 47.421875 
C 34.796875 38.734375 29.703125 31.25 24 24.75 
L 4.09375 2.28125 
L 4.09375 0 
L 39.296875 0 
z
" id="CMR17-50"/>
       </defs>
       <use transform="scale(0.996264)" xlink:href="#CMR17-50"/>
       <use transform="translate(45.690477 0)scale(0.996264)" xlink:href="#CMR17-48"/>
       <use transform="translate(91.380954 0)scale(0.996264)" xlink:href="#CMR17-48"/>
      </g>
     </g>
    </g>
    <g id="xtick_4">
     <g id="line2d_7">
      <path clip-path="url(#p94754a107e)" d="M 522.743802 720.9 
L 522.743802 56.7 
" style="fill:none;stroke:#e6e6e6;stroke-linecap:square;stroke-width:0.8;"/>
     </g>
     <g id="line2d_8">
      <g>
       <use style="stroke:#000000;stroke-width:0.8;" x="522.743802" xlink:href="#me2bb7e250a" y="720.9"/>
      </g>
     </g>
     <g id="text_4">
      <!-- $\mathdefault{300}$ -->
      <g transform="translate(511.769445 734.777725)scale(0.15 -0.15)">
       <defs>
        <path d="M 22.09375 33.703125 
C 31 33.703125 34.90625 25.96875 34.90625 17.03125 
C 34.90625 5 28.5 0.390625 22.703125 0.390625 
C 17.40625 0.390625 8.796875 3.03125 6.09375 10.828125 
C 6.59375 10.625 7.09375 10.625 7.59375 10.625 
C 10 10.625 11.796875 12.21875 11.796875 14.8125 
C 11.796875 17.703125 9.59375 19 7.59375 19 
C 5.90625 19 3.296875 18.203125 3.296875 14.46875 
C 3.296875 5.234375 12.296875 -2 22.90625 -2 
C 34 -2 42.5 6.71875 42.5 16.953125 
C 42.5 26.671875 34.5 33.703125 25 34.796875 
C 32.59375 36.375 39.90625 43.0625 39.90625 52.015625 
C 39.90625 59.6875 32 65.296875 23 65.296875 
C 13.90625 65.296875 5.90625 59.828125 5.90625 52.015625 
C 5.90625 48.59375 8.5 48 9.796875 48 
C 11.90625 48 13.703125 49.296875 13.703125 51.890625 
C 13.703125 54.46875 11.90625 55.765625 9.796875 55.765625 
C 9.40625 55.765625 8.90625 55.765625 8.5 55.578125 
C 11.40625 61.859375 19.296875 63 22.796875 63 
C 26.296875 63 32.90625 61.328125 32.90625 51.875 
C 32.90625 49.109375 32.5 44.1875 29.09375 39.84375 
C 26.09375 36 22.703125 36 19.40625 35.6875 
C 18.90625 35.6875 16.59375 35.453125 16.203125 35.453125 
C 15.5 35.359375 15.09375 35.265625 15.09375 34.5 
C 15.09375 33.796875 15.203125 33.703125 17.203125 33.703125 
z
" id="CMR17-51"/>
       </defs>
       <use transform="scale(0.996264)" xlink:href="#CMR17-51"/>
       <use transform="translate(45.690477 0)scale(0.996264)" xlink:href="#CMR17-48"/>
       <use transform="translate(91.380954 0)scale(0.996264)" xlink:href="#CMR17-48"/>
      </g>
     </g>
    </g>
    <g id="xtick_5">
     <g id="line2d_9">
      <path clip-path="url(#p94754a107e)" d="M 644.727273 720.9 
L 644.727273 56.7 
" style="fill:none;stroke:#e6e6e6;stroke-linecap:square;stroke-width:0.8;"/>
     </g>
     <g id="line2d_10">
      <g>
       <use style="stroke:#000000;stroke-width:0.8;" x="644.727273" xlink:href="#me2bb7e250a" y="720.9"/>
      </g>
     </g>
     <g id="text_5">
      <!-- $\mathdefault{400}$ -->
      <g transform="translate(633.752916 734.777725)scale(0.15 -0.15)">
       <defs>
        <path d="M 33.59375 64.40625 
C 33.59375 66.5 33.5 66.5 31.703125 66.5 
L 2 19.59375 
L 2 17 
L 27.796875 17 
L 27.796875 7.140625 
C 27.796875 3.5 27.59375 2.5 20.59375 2.5 
L 18.703125 2.5 
L 18.703125 0 
C 21.90625 0 27.296875 0 30.703125 0 
C 34.09375 0 39.5 0 42.703125 0 
L 42.703125 2.5 
L 40.796875 2.5 
C 33.796875 2.5 33.59375 3.5 33.59375 7.140625 
L 33.59375 17 
L 43.796875 17 
L 43.796875 19.59375 
L 33.59375 19.59375 
z
M 28.09375 57.859375 
L 28.09375 19.59375 
L 4 19.59375 
z
" id="CMR17-52"/>
       </defs>
       <use transform="scale(0.996264)" xlink:href="#CMR17-52"/>
       <use transform="translate(45.690477 0)scale(0.996264)" xlink:href="#CMR17-48"/>
       <use transform="translate(91.380954 0)scale(0.996264)" xlink:href="#CMR17-48"/>
      </g>
     </g>
    </g>
    <g id="text_6">
     <!-- $z(\AA)$ -->
     <g transform="translate(379.019452 763.384409)scale(0.25 -0.25)">
      <defs>
       <path d="M 12.703125 7.59375 
C 17 12.546875 20.5 15.6875 25.5 20.25 
C 31.5 25.5 34.09375 28.015625 35.5 29.546875 
C 42.5 36.53125 46 42.390625 46 43.1875 
C 46 44 45.203125 44 45 44 
C 44.296875 44 44.09375 43.640625 43.59375 42.96875 
C 41.09375 38.96875 38.703125 36.984375 36.09375 36.984375 
C 34 36.984375 32.90625 37.828125 31 40.078125 
C 28.90625 42.421875 27.203125 44 24.296875 44 
C 17 44 12.59375 35.265625 12.59375 33.25 
C 12.59375 32.9375 12.703125 32.3125 13.59375 32.3125 
C 14.40625 32.3125 14.5 32.671875 14.796875 33.328125 
C 16.5 37.0625 21.296875 37.71875 23.203125 37.71875 
C 25.296875 37.71875 27.296875 37.125 29.40625 36.359375 
C 33.203125 35 34.796875 35 35.796875 35 
C 36.5 35 36.90625 35 37.40625 35.09375 
C 34.09375 31.15625 28.703125 26.296875 24.203125 22.15625 
L 14.09375 12.75 
C 8 6.484375 4.296875 0.515625 4.296875 -0.1875 
C 4.296875 -0.796875 4.796875 -1 5.40625 -1 
C 6 -1 6.09375 -0.890625 6.796875 0.21875 
C 8.40625 2.546875 11.59375 6 15.296875 6 
C 17.40625 6 18.40625 5.34375 20.40625 3.015625 
C 22.296875 0.953125 24 -1 27.203125 -1 
C 37 -1 42.59375 11.4375 42.59375 13.6875 
C 42.59375 14.109375 42.5 14.71875 41.5 14.71875 
C 40.703125 14.71875 40.59375 14.328125 40.296875 13.359375 
C 38.09375 7.625 32.203125 5.28125 28.296875 5.28125 
C 26.203125 5.28125 24.203125 5.875 22.09375 6.640625 
C 18.09375 8 17 8 15.703125 8 
C 14.703125 8 13.59375 8 12.703125 7.59375 
z
" id="CMMI12-122"/>
       <path d="M 30.59375 -24.390625 
C 30.59375 -24.296875 30.59375 -24.09375 30.296875 -23.796875 
C 25.703125 -19.125 13.40625 -6.359375 13.40625 24.703125 
C 13.40625 55.765625 25.5 68.421875 30.40625 73.390625 
C 30.40625 73.5 30.59375 73.703125 30.59375 74 
C 30.59375 74.296875 30.296875 74.5 29.90625 74.5 
C 28.796875 74.5 20.296875 67.125 15.40625 56.15625 
C 10.40625 45.109375 9 34.359375 9 24.8125 
C 9 17.625 9.703125 5.484375 15.703125 -7.359375 
C 20.5 -17.734375 28.703125 -25 29.90625 -25 
C 30.40625 -25 30.59375 -24.796875 30.59375 -24.390625 
z
" id="CMR17-40"/>
       <path d="M 41.703125 60.75 
C 41.703125 65.3125 37.203125 69.46875 31.203125 69.46875 
C 25.203125 69.46875 20.703125 65.3125 20.703125 60.75 
C 20.703125 56.171875 25.203125 52 31.203125 52 
C 37.203125 52 41.703125 56.171875 41.703125 60.75 
z
M 31.203125 56.484375 
C 29 56.484375 26 57.171875 26 60.734375 
C 26 64.09375 28.703125 65 31.203125 65 
C 33.40625 65 36.40625 64.296875 36.40625 60.734375 
C 36.40625 57.375 33.703125 56.484375 31.203125 56.484375 
z
" id="CMSS17-23"/>
       <path d="M 17 10.796875 
C 13.5 4.90625 10.09375 2.90625 5.296875 2.90625 
C 4.203125 2.8125 3.40625 2.8125 3.40625 0.90625 
C 3.40625 0.375 3.90625 0 4.59375 0 
C 6.40625 0 10.90625 0 12.703125 0 
C 15.59375 0 18.796875 0 21.59375 0 
C 22.203125 0 23.40625 0 23.40625 1.90625 
C 23.40625 2.8125 22.59375 2.90625 22 2.90625 
C 19.703125 2.90625 17.796875 3.6875 17.796875 6.0625 
C 17.796875 7.4375 18.40625 8.53125 19.703125 10.703125 
L 27.296875 23.109375 
L 52.796875 23.109375 
C 52.90625 22.234375 52.90625 21.453125 53 20.5625 
C 53.296875 18 54.5 7.734375 54.5 5.875 
C 54.5 2.90625 49.40625 2.90625 47.796875 2.90625 
C 46.703125 2.90625 45.59375 2.90625 45.59375 1.09375 
C 45.59375 0 46.5 0 47.09375 0 
C 48.796875 0 50.796875 0 52.5 0 
L 58.203125 0 
C 64.296875 0 68.703125 0 68.796875 0 
C 69.5 0 70.59375 0 70.59375 1.90625 
C 70.59375 2.90625 69.703125 2.90625 68.203125 2.90625 
C 62.703125 2.90625 62.59375 3.8125 62.296875 6.78125 
L 56.203125 68.8125 
C 56 70.796875 55.59375 71 54.5 71 
C 53.5 71 52.90625 70.796875 52 69.296875 
z
M 29 26 
L 49.09375 59.671875 
L 52.5 26 
z
" id="CMMI12-65"/>
       <path d="M 26.296875 24.703125 
C 26.296875 31.875 25.59375 44.015625 19.59375 56.859375 
C 14.796875 67.234375 6.59375 74.5 5.40625 74.5 
C 5.09375 74.5 4.703125 74.390625 4.703125 73.890625 
C 4.703125 73.703125 4.796875 73.59375 4.90625 73.390625 
C 9.703125 68.40625 21.90625 55.75 21.90625 24.75 
C 21.90625 -6.359375 9.796875 -19.015625 4.90625 -24.015625 
C 4.796875 -24.203125 4.703125 -24.3125 4.703125 -24.5 
C 4.703125 -25 5.09375 -25 5.40625 -25 
C 6.5 -25 15 -17.625 19.90625 -6.65625 
C 24.90625 4.390625 26.296875 15.140625 26.296875 24.703125 
z
" id="CMR17-41"/>
      </defs>
      <use transform="scale(0.996264)" xlink:href="#CMMI12-122"/>
      <use transform="translate(49.755145 0)scale(0.996264)" xlink:href="#CMR17-40"/>
      <use transform="translate(85.035913 17.618744)scale(0.996264)" xlink:href="#CMSS17-23"/>
      <use transform="translate(85.035913 0)scale(0.996264)" xlink:href="#CMMI12-65"/>
      <use transform="translate(158.163798 0)scale(0.996264)" xlink:href="#CMR17-41"/>
     </g>
    </g>
   </g>
   <g id="matplotlib.axis_2">
    <g id="ytick_1">
     <g id="line2d_11">
      <path clip-path="url(#p94754a107e)" d="M 108 663.262848 
L 698.4 663.262848 
" style="fill:none;stroke:#e6e6e6;stroke-linecap:square;stroke-width:0.8;"/>
     </g>
     <g id="line2d_12">
      <defs>
       <path d="M 0 0 
L 3.5 0 
" id="mb9bed53537" style="stroke:#000000;stroke-width:0.8;"/>
      </defs>
      <g>
       <use style="stroke:#000000;stroke-width:0.8;" x="108" xlink:href="#mb9bed53537" y="663.262848"/>
      </g>
     </g>
     <g id="text_7">
      <!-- $\mathdefault{0.0}$ -->
      <g transform="translate(85.802948 668.451711)scale(0.15 -0.15)">
       <defs>
        <path d="M 18.40625 4.796875 
C 18.40625 7.6875 16 9.671875 13.59375 9.671875 
C 10.703125 9.671875 8.703125 7.28125 8.703125 4.890625 
C 8.703125 2 11.09375 0 13.5 0 
C 16.40625 0 18.40625 2.390625 18.40625 4.796875 
z
" id="CMMI12-58"/>
       </defs>
       <use transform="scale(0.996264)" xlink:href="#CMR17-48"/>
       <use transform="translate(45.690477 0)scale(0.996264)" xlink:href="#CMMI12-58"/>
       <use transform="translate(72.787654 0)scale(0.996264)" xlink:href="#CMR17-48"/>
      </g>
     </g>
    </g>
    <g id="ytick_2">
     <g id="line2d_13">
      <path clip-path="url(#p94754a107e)" d="M 108 534.641002 
L 698.4 534.641002 
" style="fill:none;stroke:#e6e6e6;stroke-linecap:square;stroke-width:0.8;"/>
     </g>
     <g id="line2d_14">
      <g>
       <use style="stroke:#000000;stroke-width:0.8;" x="108" xlink:href="#mb9bed53537" y="534.641002"/>
      </g>
     </g>
     <g id="text_8">
      <!-- $\mathdefault{0.5}$ -->
      <g transform="translate(85.802948 539.829865)scale(0.15 -0.15)">
       <defs>
        <path d="M 11.40625 57.6875 
C 12.40625 57.28125 16.5 56 20.703125 56 
C 30 56 35.09375 61.109375 38 64.0625 
C 38 64.953125 38 65.5 37.40625 65.5 
C 37.296875 65.5 37.09375 65.5 36.296875 65.046875 
C 32.796875 63.40625 28.703125 62.078125 23.703125 62.078125 
C 20.703125 62.078125 16.203125 62.484375 11.296875 64.671875 
C 10.203125 65.171875 10 65.171875 9.90625 65.171875 
C 9.40625 65.171875 9.296875 65.0625 9.296875 63.078125 
L 9.296875 34.421875 
C 9.296875 32.640625 9.296875 32.140625 10.296875 32.140625 
C 10.796875 32.140625 11 32.34375 11.5 33.03125 
C 14.703125 37.515625 19.09375 39.40625 24.09375 39.40625 
C 27.59375 39.40625 35.09375 37.21875 35.09375 20.140625 
C 35.09375 16.953125 35.09375 11.171875 32.09375 6.578125 
C 29.59375 2.484375 25.703125 0.390625 21.40625 0.390625 
C 14.796875 0.390625 8.09375 5 6.296875 12.71875 
C 6.703125 12.609375 7.5 12.421875 7.90625 12.421875 
C 9.203125 12.421875 11.703125 13.125 11.703125 16.21875 
C 11.703125 18.90625 9.796875 20 7.90625 20 
C 5.59375 20 4.09375 18.59375 4.09375 15.796875 
C 4.09375 7.09375 11 -2 21.59375 -2 
C 31.90625 -2 41.703125 6.875 41.703125 19.75 
C 41.703125 31.71875 33.90625 41 24.203125 41 
C 19.09375 41 14.796875 39.109375 11.40625 35.53125 
z
" id="CMR17-53"/>
       </defs>
       <use transform="scale(0.996264)" xlink:href="#CMR17-48"/>
       <use transform="translate(45.690477 0)scale(0.996264)" xlink:href="#CMMI12-58"/>
       <use transform="translate(72.787654 0)scale(0.996264)" xlink:href="#CMR17-53"/>
      </g>
     </g>
    </g>
    <g id="ytick_3">
     <g id="line2d_15">
      <path clip-path="url(#p94754a107e)" d="M 108 406.019157 
L 698.4 406.019157 
" style="fill:none;stroke:#e6e6e6;stroke-linecap:square;stroke-width:0.8;"/>
     </g>
     <g id="line2d_16">
      <g>
       <use style="stroke:#000000;stroke-width:0.8;" x="108" xlink:href="#mb9bed53537" y="406.019157"/>
      </g>
     </g>
     <g id="text_9">
      <!-- $\mathdefault{1.0}$ -->
      <g transform="translate(85.802948 411.208019)scale(0.15 -0.15)">
       <use transform="scale(0.996264)" xlink:href="#CMR17-49"/>
       <use transform="translate(45.690477 0)scale(0.996264)" xlink:href="#CMMI12-58"/>
       <use transform="translate(72.787654 0)scale(0.996264)" xlink:href="#CMR17-48"/>
      </g>
     </g>
    </g>
    <g id="ytick_4">
     <g id="line2d_17">
      <path clip-path="url(#p94754a107e)" d="M 108 277.397311 
L 698.4 277.397311 
" style="fill:none;stroke:#e6e6e6;stroke-linecap:square;stroke-width:0.8;"/>
     </g>
     <g id="line2d_18">
      <g>
       <use style="stroke:#000000;stroke-width:0.8;" x="108" xlink:href="#mb9bed53537" y="277.397311"/>
      </g>
     </g>
     <g id="text_10">
      <!-- $\mathdefault{1.5}$ -->
      <g transform="translate(85.802948 282.586173)scale(0.15 -0.15)">
       <use transform="scale(0.996264)" xlink:href="#CMR17-49"/>
       <use transform="translate(45.690477 0)scale(0.996264)" xlink:href="#CMMI12-58"/>
       <use transform="translate(72.787654 0)scale(0.996264)" xlink:href="#CMR17-53"/>
      </g>
     </g>
    </g>
    <g id="ytick_5">
     <g id="line2d_19">
      <path clip-path="url(#p94754a107e)" d="M 108 148.775465 
L 698.4 148.775465 
" style="fill:none;stroke:#e6e6e6;stroke-linecap:square;stroke-width:0.8;"/>
     </g>
     <g id="line2d_20">
      <g>
       <use style="stroke:#000000;stroke-width:0.8;" x="108" xlink:href="#mb9bed53537" y="148.775465"/>
      </g>
     </g>
     <g id="text_11">
      <!-- $\mathdefault{2.0}$ -->
      <g transform="translate(85.802948 153.964327)scale(0.15 -0.15)">
       <use transform="scale(0.996264)" xlink:href="#CMR17-50"/>
       <use transform="translate(45.690477 0)scale(0.996264)" xlink:href="#CMMI12-58"/>
       <use transform="translate(72.787654 0)scale(0.996264)" xlink:href="#CMR17-48"/>
      </g>
     </g>
    </g>
    <g id="text_12">
     <!-- $I_b$ -->
     <g transform="translate(76.958413 397.80714)rotate(-90)scale(0.25 -0.25)">
      <defs>
       <path d="M 36.796875 60.625 
C 37.703125 64.109375 37.90625 65.109375 45.203125 65.109375 
C 47.40625 65.109375 48.203125 65.109375 48.203125 67 
C 48.203125 68 47.09375 68 46.796875 68 
C 45 68 42.796875 68 41 68 
L 28.703125 68 
C 26.703125 68 24.40625 68 22.40625 68 
C 21.59375 68 20.5 68 20.5 66.109375 
C 20.5 65.109375 21.296875 65.109375 23.296875 65.109375 
C 29.5 65.109375 29.5 64.3125 29.5 63.21875 
C 29.5 62.53125 29.296875 61.921875 29.09375 61.03125 
L 15.59375 7.375 
C 14.703125 3.890625 14.5 2.890625 7.203125 2.890625 
C 5 2.890625 4.09375 2.890625 4.09375 1 
C 4.09375 0 5.09375 0 5.59375 0 
C 7.40625 0 9.59375 0 11.40625 0 
L 23.703125 0 
C 25.703125 0 27.90625 0 29.90625 0 
C 30.703125 0 31.90625 0 31.90625 1.796875 
C 31.90625 2.890625 31.296875 2.890625 29.09375 2.890625 
C 22.90625 2.890625 22.90625 3.6875 22.90625 4.875 
C 22.90625 5.078125 22.90625 5.578125 23.296875 7.171875 
z
" id="CMMI12-73"/>
       <path d="M 23.09375 66.515625 
C 23.203125 66.921875 23.40625 67.515625 23.40625 68 
C 23.40625 69 22.40625 69 22.203125 69 
C 22.09375 69 18.5 68.640625 16.703125 68.390625 
C 15 68.390625 13.5 68.09375 11.703125 68.09375 
C 9.296875 67.890625 8.59375 67.796875 8.59375 66 
C 8.59375 65 9.59375 65 10.59375 65 
C 15.703125 65 15.703125 64.109375 15.703125 63.125 
C 15.703125 62.4375 14.90625 59.546875 14.5 57.75 
L 12.09375 48.203125 
C 11.09375 44.234375 5.40625 21.671875 5 19.875 
C 4.5 17.40625 4.5 15.703125 4.5 14.40625 
C 4.5 4.28125 10.203125 -1 16.703125 -1 
C 28.296875 -1 40.296875 13.875 40.296875 28.34375 
C 40.296875 37.515625 35.09375 44 27.59375 44 
C 22.40625 44 17.703125 39.71875 15.796875 37.71875 
z
M 16.796875 1 
C 13.59375 1 10.09375 3.390625 10.09375 11.171875 
C 10.09375 14.46875 10.40625 16.359375 12.203125 23.34375 
C 12.5 24.640625 14.09375 31.03125 14.5 32.328125 
C 14.703125 33.125 20.59375 42.015625 27.40625 42.015625 
C 31.796875 42.015625 33.796875 37.625 33.796875 32.4375 
C 33.796875 27.640625 31 16.359375 28.5 11.171875 
C 26 5.78125 21.40625 1 16.796875 1 
z
" id="CMMI12-98"/>
      </defs>
      <use transform="scale(0.996264)" xlink:href="#CMMI12-73"/>
      <use transform="translate(43.024176 -14.943915)scale(0.697382)" xlink:href="#CMMI12-98"/>
     </g>
    </g>
    <g id="text_13">
     <!-- $\times\mathdefault{10^{−5}}\mathdefault{}$ -->
     <g transform="translate(108 53.7)scale(0.1 -0.1)">
      <defs>
       <path d="M 38.90625 27.890625 
L 18.90625 47.796875 
C 17.703125 49 17.5 49.1875 16.703125 49.1875 
C 15.703125 49.1875 14.703125 48.296875 14.703125 47.1875 
C 14.703125 46.5 14.90625 46.296875 16 45.1875 
L 36 25.09375 
L 16 5 
C 14.90625 3.890625 14.703125 3.6875 14.703125 3 
C 14.703125 1.890625 15.703125 1 16.703125 1 
C 17.5 1 17.703125 1.1875 18.90625 2.390625 
L 38.796875 22.296875 
L 59.5 1.59375 
C 59.703125 1.5 60.40625 1 61 1 
C 62.203125 1 63 1.890625 63 3 
C 63 3.1875 63 3.59375 62.703125 4.09375 
C 62.59375 4.296875 46.703125 20 41.703125 25.09375 
L 60 43.390625 
C 60.5 44 62 45.296875 62.5 45.890625 
C 62.59375 46.09375 63 46.5 63 47.1875 
C 63 48.296875 62.203125 49.1875 61 49.1875 
C 60.203125 49.1875 59.796875 48.796875 58.703125 47.6875 
z
" id="CMSY10-2"/>
       <path d="M 65.90625 23 
C 67.59375 23 69.40625 23 69.40625 25 
C 69.40625 27 67.59375 27 65.90625 27 
L 11.796875 27 
C 10.09375 27 8.296875 27 8.296875 25 
C 8.296875 23 10.09375 23 11.796875 23 
z
" id="CMSY10-0"/>
      </defs>
      <use transform="scale(0.996264)" xlink:href="#CMSY10-2"/>
      <use transform="translate(77.487468 0)scale(0.996264)" xlink:href="#CMR17-49"/>
      <use transform="translate(123.177945 0)scale(0.996264)" xlink:href="#CMR17-48"/>
      <use transform="translate(168.868422 36.153639)scale(0.697382)" xlink:href="#CMSY10-0"/>
      <use transform="translate(223.109415 36.153639)scale(0.697382)" xlink:href="#CMR17-53"/>
     </g>
    </g>
   </g>
   <g id="line2d_21">
    <path clip-path="url(#p94754a107e)" d="M 159.233058 662.12733 
L 161.672727 658.751799 
L 164.112397 653.229332 
L 166.552066 645.714764 
L 168.991736 636.423583 
L 171.431405 625.629616 
L 173.871074 613.661153 
L 178.750413 587.747963 
L 183.629752 562.107173 
L 186.069421 550.530808 
L 188.509091 540.378142 
L 190.94876 532.059797 
L 193.38843 525.935855 
L 195.828099 522.294136 
L 198.267769 521.330013 
L 200.707438 523.129074 
L 203.147107 527.655288 
L 205.586777 534.748832 
L 208.026446 544.134448 
L 210.466116 555.437022 
L 212.905785 568.200623 
L 222.664463 623.103904 
L 225.104132 634.988559 
L 227.543802 645.070345 
L 229.983471 652.876884 
L 232.42314 657.982931 
L 234.86281 660.019673 
L 237.302479 658.688508 
L 239.742149 653.780006 
L 242.181818 645.19699 
L 244.621488 632.979007 
L 247.061157 617.324778 
L 249.500826 598.607982 
L 251.940496 577.381569 
L 256.819835 530.445259 
L 259.259504 506.59866 
L 261.699174 483.885244 
L 264.138843 463.368005 
L 266.578512 446.05446 
L 269.018182 432.834401 
L 271.457851 424.421624 
L 273.897521 421.303885 
L 276.33719 423.704783 
L 278.77686 431.559441 
L 281.216529 444.505841 
L 283.656198 461.894022 
L 286.095868 482.814782 
L 288.535537 506.147024 
L 293.414876 554.87837 
L 295.854545 577.563266 
L 298.294215 597.373469 
L 300.733884 613.137033 
L 303.173554 623.872834 
L 305.613223 628.844331 
L 308.052893 627.601006 
L 310.492562 620.004872 
L 312.932231 606.240293 
L 315.371901 586.80694 
L 317.81157 562.496146 
L 320.25124 534.351415 
L 325.130579 471.671657 
L 327.570248 439.970672 
L 330.009917 409.963726 
L 332.449587 383.027877 
L 334.889256 360.400702 
L 337.328926 343.123825 
L 339.768595 331.996642 
L 342.208264 327.539653 
L 344.647934 329.967978 
L 347.087603 339.175733 
L 349.527273 354.731224 
L 351.966942 375.885359 
L 354.406612 401.595755 
L 356.846281 430.566439 
L 364.165289 521.549919 
L 366.604959 547.769385 
L 369.044628 569.354298 
L 371.484298 585.034173 
L 373.923967 593.834439 
L 376.363636 595.133339 
L 378.803306 588.696586 
L 381.242975 574.688653 
L 383.682645 553.661722 
L 386.122314 526.523827 
L 388.561983 494.487961 
L 391.001653 459.005775 
L 398.320661 348.341079 
L 400.760331 315.610258 
L 403.2 287.504197 
L 405.639669 265.266352 
L 408.079339 249.874226 
L 410.519008 241.997805 
L 412.958678 241.9689 
L 415.398347 249.761364 
L 417.838017 264.984291 
L 420.277686 286.891498 
L 422.717355 314.406435 
L 425.157025 346.160759 
L 432.476033 450.026835 
L 434.915702 481.381289 
L 437.355372 508.074867 
L 439.795041 528.511723 
L 442.234711 541.370694 
L 444.67438 545.682692 
L 447.11405 540.891474 
L 449.553719 526.894226 
L 451.993388 504.059176 
L 454.433058 473.218563 
L 456.872727 435.635854 
L 459.312397 392.948286 
L 466.631405 254.508245 
L 469.071074 212.243246 
L 471.510744 175.488264 
L 473.950413 146.077227 
L 476.390083 125.4839 
L 478.829752 114.732975 
L 481.269421 114.33719 
L 483.709091 124.264686 
L 486.14876 143.941214 
L 488.58843 172.287997 
L 491.028099 207.788679 
L 493.467769 248.576712 
L 500.786777 380.986436 
L 503.226446 421.04551 
L 505.666116 455.641476 
L 508.105785 483.101695 
L 510.545455 502.120544 
L 512.985124 511.814235 
L 515.424793 511.754967 
L 517.864463 501.985142 
L 520.304132 483.012389 
L 522.743802 455.785264 
L 525.183471 421.64906 
L 527.62314 382.283298 
L 537.381818 213.205911 
L 539.821488 178.628695 
L 542.261157 150.953715 
L 544.700826 131.601473 
L 547.140496 121.576813 
L 549.580165 121.416908 
L 552.019835 131.162655 
L 554.459504 150.356908 
L 556.899174 178.071996 
L 559.338843 212.962318 
L 561.778512 253.337789 
L 566.657851 342.62987 
L 569.097521 387.337191 
L 571.53719 429.331436 
L 573.97686 466.739212 
L 576.416529 497.945929 
L 578.856198 521.66512 
L 581.295868 536.989075 
L 583.735537 543.421024 
L 586.175207 540.889976 
L 588.614876 529.747476 
L 591.054545 510.745194 
L 593.494215 484.993508 
L 595.933884 453.903154 
L 598.373554 419.113987 
L 605.692562 310.688076 
L 608.132231 279.227132 
L 610.571901 252.82923 
L 613.01157 232.793535 
L 615.45124 220.115002 
L 617.890909 215.446523 
L 620.330579 219.072886 
L 622.770248 230.897169 
L 625.209917 250.441628 
L 627.649587 276.864189 
L 630.089256 308.990905 
L 632.528926 345.364898 
L 639.847934 462.648257 
L 642.287603 498.371731 
L 644.727273 529.530802 
L 647.166942 554.695783 
L 647.166942 554.695783 
" style="fill:none;stroke:#004cff;stroke-linecap:square;stroke-width:2;"/>
   </g>
   <g id="line2d_22">
    <path clip-path="url(#p94754a107e)" d="M 159.233058 658.756051 
L 161.672727 645.69526 
L 164.112397 625.391797 
L 166.552066 599.836176 
L 171.431405 542.953919 
L 173.871074 516.857029 
L 176.310744 495.412191 
L 178.750413 480.244077 
L 181.190083 472.196246 
L 183.629752 471.263406 
L 186.069421 476.629713 
L 188.509091 486.822989 
L 190.94876 500.028157 
L 195.828099 528.957731 
L 198.267769 542.539651 
L 200.707438 554.833027 
L 203.147107 565.729839 
L 205.586777 575.422771 
L 212.905785 602.205063 
L 217.785124 621.747954 
L 220.224793 631.554122 
L 222.664463 640.445367 
L 225.104132 647.503597 
L 227.543802 651.78711 
L 229.983471 652.438465 
L 232.42314 648.763764 
L 234.86281 640.31142 
L 237.302479 626.983234 
L 239.742149 609.160313 
L 242.181818 587.782867 
L 247.061157 540.631483 
L 249.500826 518.71226 
L 251.940496 500.495097 
L 254.380165 487.614938 
L 256.819835 481.181155 
L 259.259504 481.609597 
L 261.699174 488.60602 
L 264.138843 501.262402 
L 266.578512 518.165771 
L 273.897521 576.089868 
L 276.33719 592.319475 
L 278.77686 605.461986 
L 281.216529 615.391617 
L 283.656198 622.336056 
L 286.095868 626.765114 
L 288.535537 629.335476 
L 290.975207 630.812136 
L 293.414876 631.918104 
L 295.854545 633.149588 
L 300.733884 636.007487 
L 303.173554 636.552586 
L 305.613223 635.242024 
L 308.052893 631.001392 
L 310.492562 622.930416 
L 312.932231 610.505905 
L 315.371901 593.717366 
L 317.81157 573.146762 
L 325.130579 503.997384 
L 327.570248 485.773248 
L 330.009917 473.626642 
L 332.449587 469.062973 
L 334.889256 472.791126 
L 337.328926 484.593209 
L 339.768595 503.337809 
L 342.208264 527.175618 
L 349.527273 606.197075 
L 351.966942 627.484748 
L 354.406612 643.173108 
L 356.846281 652.261442 
L 359.28595 654.512694 
L 361.72562 650.408434 
L 364.165289 640.997479 
L 366.604959 627.730565 
L 371.484298 596.606964 
L 373.923967 582.376658 
L 376.363636 571.122107 
L 378.803306 563.805591 
L 381.242975 560.715533 
L 383.682645 561.446508 
L 386.122314 565.006965 
L 391.001653 575.254314 
L 393.441322 579.463937 
L 395.880992 581.927447 
L 398.320661 582.272353 
L 400.760331 580.556647 
L 403.2 577.293116 
L 405.639669 573.376978 
L 408.079339 569.90419 
L 410.519008 567.953547 
L 412.958678 568.405394 
L 415.398347 571.808877 
L 417.838017 578.273802 
L 420.277686 587.406892 
L 422.717355 598.360031 
L 425.157025 609.992223 
L 427.596694 621.045836 
L 430.036364 630.264778 
L 432.476033 636.492965 
L 434.915702 638.821474 
L 437.355372 636.787407 
L 439.795041 630.549127 
L 442.234711 620.926859 
L 449.553719 586.086889 
L 451.993388 577.507629 
L 454.433058 572.308624 
L 456.872727 570.854062 
L 459.312397 572.889943 
L 461.752066 577.590878 
L 466.631405 589.644713 
L 469.071074 594.040268 
L 471.510744 595.839361 
L 473.950413 594.64088 
L 476.390083 590.675381 
L 478.829752 584.650227 
L 483.709091 570.606561 
L 486.14876 564.982357 
L 488.58843 561.803144 
L 491.028099 561.895737 
L 493.467769 565.70239 
L 495.907438 573.218145 
L 498.347107 583.941032 
L 500.786777 596.865346 
L 503.226446 610.570749 
L 505.666116 623.420281 
L 508.105785 633.821956 
L 510.545455 640.464773 
L 512.985124 642.461225 
L 515.424793 639.421486 
L 517.864463 631.532602 
L 520.304132 619.631195 
L 522.743802 605.160026 
L 525.183471 589.952297 
L 527.62314 575.917451 
L 530.06281 564.735186 
L 532.502479 557.615133 
L 534.942149 555.152311 
L 537.381818 557.298263 
L 539.821488 563.434724 
L 542.261157 572.497877 
L 547.140496 593.624528 
L 549.580165 602.448793 
L 552.019835 608.186476 
L 554.459504 609.97016 
L 556.899174 607.559411 
L 559.338843 601.305678 
L 561.778512 592.068927 
L 566.657851 570.100259 
L 569.097521 560.704654 
L 571.53719 554.584402 
L 573.97686 553.011629 
L 576.416529 556.667478 
L 578.856198 565.498737 
L 581.295868 578.662575 
L 588.614876 626.323999 
L 591.054545 638.088922 
L 593.494215 645.162375 
L 595.933884 646.861832 
L 598.373554 643.166959 
L 600.813223 634.693604 
L 603.252893 622.602789 
L 610.571901 580.097976 
L 613.01157 568.590596 
L 615.45124 559.895725 
L 617.890909 554.187173 
L 620.330579 551.25986 
L 622.770248 550.686796 
L 625.209917 551.903109 
L 627.649587 554.221251 
L 630.089256 556.888418 
L 632.528926 559.245216 
L 634.968595 560.92219 
L 637.408264 561.964143 
L 639.847934 562.813126 
L 642.287603 564.163177 
L 644.727273 566.776308 
L 647.166942 571.336876 
L 647.166942 571.336876 
" style="fill:none;stroke:#29ffce;stroke-linecap:square;stroke-width:2;"/>
   </g>
   <g id="line2d_23">
    <path clip-path="url(#p94754a107e)" d="M 159.233058 663.037879 
L 161.672727 662.305927 
L 164.112397 660.946437 
L 166.552066 658.942073 
L 171.431405 654.336914 
L 173.871074 652.731676 
L 176.310744 651.810308 
L 178.750413 651.183998 
L 181.190083 650.35765 
L 186.069421 648.149017 
L 188.509091 647.749 
L 190.94876 648.232272 
L 193.38843 649.414553 
L 198.267769 652.472813 
L 200.707438 653.731122 
L 205.586777 655.573136 
L 208.026446 656.719706 
L 212.905785 659.781542 
L 215.345455 661.002531 
L 217.785124 661.653441 
L 227.543802 662.55727 
L 229.983471 662.429768 
L 232.42314 661.845712 
L 239.742149 659.069143 
L 244.621488 657.969336 
L 247.061157 657.148058 
L 249.500826 655.813975 
L 251.940496 654.16137 
L 254.380165 652.771405 
L 256.819835 652.133974 
L 259.259504 652.186175 
L 261.699174 652.414057 
L 264.138843 652.384546 
L 269.018182 651.899857 
L 271.457851 652.163973 
L 273.897521 653.063775 
L 276.33719 654.482321 
L 278.77686 656.092807 
L 281.216529 657.516591 
L 283.656198 658.501372 
L 290.975207 660.298776 
L 295.854545 662.201662 
L 298.294215 662.726666 
L 300.733884 662.794992 
L 303.173554 662.577975 
L 305.613223 662.239983 
L 308.052893 661.73119 
L 310.492562 660.814339 
L 312.932231 659.295354 
L 315.371901 657.207104 
L 320.25124 652.575233 
L 322.690909 650.921457 
L 325.130579 650.035099 
L 330.009917 649.116855 
L 334.889256 647.691974 
L 337.328926 647.793235 
L 339.768595 649.02477 
L 342.208264 651.171603 
L 344.647934 653.622038 
L 347.087603 655.813915 
L 349.527273 657.538547 
L 351.966942 658.892022 
L 356.846281 661.107271 
L 359.28595 662.053342 
L 361.72562 662.696063 
L 364.165289 662.810079 
L 366.604959 662.370949 
L 371.484298 660.950713 
L 376.363636 659.966012 
L 378.803306 659.14739 
L 383.682645 656.613903 
L 386.122314 655.647436 
L 388.561983 655.249575 
L 391.001653 655.354133 
L 395.880992 655.934957 
L 398.320661 655.819784 
L 403.2 655.044599 
L 405.639669 655.127867 
L 410.519008 656.305879 
L 412.958678 656.52533 
L 417.838017 655.877988 
L 420.277686 655.989191 
L 422.717355 656.765532 
L 427.596694 659.17815 
L 430.036364 660.082763 
L 432.476033 660.592817 
L 439.795041 661.436535 
L 442.234711 661.820808 
L 444.67438 661.986671 
L 447.11405 661.702423 
L 451.993388 660.2913 
L 454.433058 659.835304 
L 456.872727 659.601452 
L 459.312397 659.231998 
L 461.752066 658.428918 
L 464.191736 657.199441 
L 466.631405 655.819389 
L 469.071074 654.645012 
L 471.510744 653.901909 
L 473.950413 653.567908 
L 476.390083 653.400307 
L 478.829752 653.065568 
L 483.709091 651.602227 
L 486.14876 651.314952 
L 488.58843 652.004573 
L 491.028099 653.577054 
L 493.467769 655.459349 
L 495.907438 657.096986 
L 498.347107 658.315589 
L 508.105785 662.297647 
L 510.545455 662.777817 
L 512.985124 662.699186 
L 515.424793 662.137436 
L 520.304132 660.580897 
L 525.183471 659.334142 
L 527.62314 658.287186 
L 532.502479 655.193759 
L 534.942149 654.068589 
L 537.381818 653.724379 
L 539.821488 654.018236 
L 542.261157 654.524611 
L 544.700826 654.905824 
L 552.019835 655.498029 
L 554.459504 656.105644 
L 559.338843 657.873828 
L 561.778512 658.242107 
L 564.218182 657.991289 
L 566.657851 657.458448 
L 569.097521 657.195037 
L 571.53719 657.52525 
L 576.416529 659.075627 
L 578.856198 659.539931 
L 583.735537 660.068913 
L 586.175207 660.595143 
L 591.054545 661.976164 
L 593.494215 662.316948 
L 595.933884 662.135101 
L 598.373554 661.48851 
L 603.252893 659.931146 
L 605.692562 659.299624 
L 608.132231 658.458862 
L 610.571901 657.116755 
L 615.45124 653.778668 
L 617.890909 652.747686 
L 620.330579 652.400381 
L 627.649587 652.598289 
L 632.528926 651.822692 
L 634.968595 651.806963 
L 637.408264 652.529722 
L 639.847934 653.991108 
L 642.287603 655.794691 
L 644.727273 657.399142 
L 647.166942 658.549005 
L 647.166942 658.549005 
" style="fill:none;stroke:#ceff29;stroke-linecap:square;stroke-width:2;"/>
   </g>
   <g id="line2d_24">
    <path clip-path="url(#p94754a107e)" d="M 159.233058 663.258941 
L 178.750413 662.925447 
L 183.629752 662.867666 
L 188.509091 662.873838 
L 193.38843 662.889537 
L 198.267769 662.960368 
L 208.026446 663.09335 
L 220.224793 663.240481 
L 237.302479 663.187712 
L 269.018182 662.936264 
L 290.975207 663.199551 
L 312.932231 663.173141 
L 327.570248 662.826964 
L 342.208264 662.938777 
L 347.087603 663.024152 
L 351.966942 663.140309 
L 376.363636 663.171437 
L 391.001653 663.0637 
L 432.476033 663.170333 
L 444.67438 663.239735 
L 491.028099 662.9464 
L 505.666116 663.227661 
L 520.304132 663.214335 
L 534.942149 663.018141 
L 552.019835 663.022966 
L 559.338843 663.09745 
L 571.53719 663.149398 
L 586.175207 663.193203 
L 595.933884 663.237006 
L 615.45124 663.029609 
L 620.330579 662.943158 
L 630.089256 662.94772 
L 644.727273 663.065348 
L 647.166942 663.121881 
L 647.166942 663.121881 
" style="fill:none;stroke:#ff6800;stroke-linecap:square;stroke-width:2;"/>
   </g>
   <g id="line2d_25">
    <path clip-path="url(#p94754a107e)" d="M 159.233058 663.262772 
L 647.166942 663.260709 
L 647.166942 663.260709 
" style="fill:none;stroke:#800000;stroke-linecap:square;stroke-width:2;"/>
   </g>
   <g id="patch_3">
    <path d="M 108 720.9 
L 108 56.7 
" style="fill:none;stroke:#000000;stroke-linecap:square;stroke-linejoin:miter;stroke-width:0.8;"/>
   </g>
   <g id="patch_4">
    <path d="M 698.4 720.9 
L 698.4 56.7 
" style="fill:none;stroke:#000000;stroke-linecap:square;stroke-linejoin:miter;stroke-width:0.8;"/>
   </g>
   <g id="patch_5">
    <path d="M 108 720.9 
L 698.4 720.9 
" style="fill:none;stroke:#000000;stroke-linecap:square;stroke-linejoin:miter;stroke-width:0.8;"/>
   </g>
   <g id="patch_6">
    <path d="M 108 56.7 
L 698.4 56.7 
" style="fill:none;stroke:#000000;stroke-linecap:square;stroke-linejoin:miter;stroke-width:0.8;"/>
   </g>
   <g id="legend_1">
    <g id="patch_7">
     <path d="M 122 219.197509 
L 211.104649 219.197509 
Q 215.104649 219.197509 215.104649 215.197509 
L 215.104649 70.7 
Q 215.104649 66.7 211.104649 66.7 
L 122 66.7 
Q 118 66.7 118 70.7 
L 118 215.197509 
Q 118 219.197509 122 219.197509 
z
" style="fill:#ffffff;opacity:0.8;stroke:#cccccc;stroke-linejoin:miter;"/>
    </g>
    <g id="line2d_26">
     <path d="M 126 82.896875 
L 166 82.896875 
" style="fill:none;stroke:#004cff;stroke-linecap:square;stroke-width:2;"/>
    </g>
    <g id="line2d_27"/>
    <g id="text_14">
     <!-- $1_{0}$ -->
     <g transform="translate(182 89.896875)scale(0.2 -0.2)">
      <use transform="scale(0.996264)" xlink:href="#CMR17-49"/>
      <use transform="translate(45.690477 -14.943915)scale(0.697382)" xlink:href="#CMR17-48"/>
     </g>
    </g>
    <g id="line2d_28">
     <path d="M 126 112.253125 
L 166 112.253125 
" style="fill:none;stroke:#29ffce;stroke-linecap:square;stroke-width:2;"/>
    </g>
    <g id="line2d_29"/>
    <g id="text_15">
     <!-- $5_{0}$ -->
     <g transform="translate(182 119.253125)scale(0.2 -0.2)">
      <use transform="scale(0.996264)" xlink:href="#CMR17-53"/>
      <use transform="translate(45.690477 -14.943915)scale(0.697382)" xlink:href="#CMR17-48"/>
     </g>
    </g>
    <g id="line2d_30">
     <path d="M 126 141.609375 
L 166 141.609375 
" style="fill:none;stroke:#ceff29;stroke-linecap:square;stroke-width:2;"/>
    </g>
    <g id="line2d_31"/>
    <g id="text_16">
     <!-- $9_{0}$ -->
     <g transform="translate(182 148.609375)scale(0.2 -0.2)">
      <defs>
       <path d="M 35.203125 29.125 
C 35.203125 7.25 26.09375 0.484375 18.59375 0.484375 
C 16.296875 0.484375 10.703125 0.484375 8.40625 4.59375 
C 11 4.1875 12.90625 5.578125 12.90625 8.09375 
C 12.90625 10.8125 10.703125 11.703125 9.296875 11.703125 
C 8.40625 11.703125 5.703125 11.296875 5.703125 7.90625 
C 5.703125 1.109375 11.59375 -2 18.796875 -2 
C 30.296875 -2 42 10.53125 42 32.390625 
C 42 59.640625 30.796875 65.296875 23.203125 65.296875 
C 13.296875 65.296875 3.796875 56.6875 3.796875 43.40625 
C 3.796875 31.109375 11.90625 22 22.09375 22 
C 30.5 22 34.203125 29.734375 35.203125 33 
z
M 22.296875 23.59375 
C 19.59375 23.59375 15.796875 24.09375 12.703125 30.03125 
C 10.59375 33.890625 10.59375 38.453125 10.59375 43.296875 
C 10.59375 49.15625 10.59375 53.203125 13.40625 57.5625 
C 14.796875 59.640625 17.40625 63 23.203125 63 
C 35 63 35 45.078125 35 41.125 
C 35 34.09375 31.796875 23.59375 22.296875 23.59375 
z
" id="CMR17-57"/>
      </defs>
      <use transform="scale(0.996264)" xlink:href="#CMR17-57"/>
      <use transform="translate(45.690477 -14.943915)scale(0.697382)" xlink:href="#CMR17-48"/>
     </g>
    </g>
    <g id="line2d_32">
     <path d="M 126 170.965625 
L 166 170.965625 
" style="fill:none;stroke:#ff6800;stroke-linecap:square;stroke-width:2;"/>
    </g>
    <g id="line2d_33"/>
    <g id="text_17">
     <!-- $13_{0}$ -->
     <g transform="translate(182 177.965625)scale(0.2 -0.2)">
      <use transform="scale(0.996264)" xlink:href="#CMR17-49"/>
      <use transform="translate(45.690477 0)scale(0.996264)" xlink:href="#CMR17-51"/>
      <use transform="translate(91.380954 -14.943915)scale(0.697382)" xlink:href="#CMR17-48"/>
     </g>
    </g>
    <g id="line2d_34">
     <path d="M 126 200.321875 
L 166 200.321875 
" style="fill:none;stroke:#800000;stroke-linecap:square;stroke-width:2;"/>
    </g>
    <g id="line2d_35"/>
    <g id="text_18">
     <!-- $17_{0}$ -->
     <g transform="translate(182 207.321875)scale(0.2 -0.2)">
      <defs>
       <path d="M 45.09375 61.578125 
L 45.09375 63.765625 
L 21.59375 63.765625 
C 9.90625 63.765625 9.703125 65.078125 9.296875 67 
L 7.5 67 
L 4.59375 48.34375 
L 6.40625 48.34375 
C 6.703125 50.234375 7.40625 55.3125 8.59375 57.203125 
C 9.203125 58 16.59375 58 18.296875 58 
L 40.296875 58 
L 29.203125 41.578125 
C 21.796875 30.53125 16.703125 15.609375 16.703125 2.578125 
C 16.703125 1.390625 16.703125 -2 20.296875 -2 
C 23.90625 -2 23.90625 1.390625 23.90625 2.671875 
L 23.90625 7.265625 
C 23.90625 23.5625 26.703125 34.3125 31.296875 41.1875 
z
" id="CMR17-55"/>
      </defs>
      <use transform="scale(0.996264)" xlink:href="#CMR17-49"/>
      <use transform="translate(45.690477 0)scale(0.996264)" xlink:href="#CMR17-55"/>
      <use transform="translate(91.380954 -14.943915)scale(0.697382)" xlink:href="#CMR17-48"/>
     </g>
    </g>
   </g>
  </g>
 </g>
 <defs>
  <clipPath id="p94754a107e">
   <rect height="664.2" width="590.4" x="108" y="56.7"/>
  </clipPath>
 </defs>
</svg>
