<?xml version="1.0" encoding="utf-8" standalone="no"?>
<!DOCTYPE svg PUBLIC "-//W3C//DTD SVG 1.1//EN"
  "http://www.w3.org/Graphics/SVG/1.1/DTD/svg11.dtd">
<!-- Created with matplotlib (https://matplotlib.org/) -->
<svg height="810pt" version="1.1" viewBox="0 0 720 810" width="720pt" xmlns="http://www.w3.org/2000/svg" xmlns:xlink="http://www.w3.org/1999/xlink">
 <metadata>
  <rdf:RDF xmlns:cc="http://creativecommons.org/ns#" xmlns:dc="http://purl.org/dc/elements/1.1/" xmlns:rdf="http://www.w3.org/1999/02/22-rdf-syntax-ns#">
   <cc:Work>
    <dc:type rdf:resource="http://purl.org/dc/dcmitype/StillImage"/>
    <dc:date>2021-01-18T15:02:58.087232</dc:date>
    <dc:format>image/svg+xml</dc:format>
    <dc:creator>
     <cc:Agent>
      <dc:title>Matplotlib v3.3.1, https://matplotlib.org/</dc:title>
     </cc:Agent>
    </dc:creator>
   </cc:Work>
  </rdf:RDF>
 </metadata>
 <defs>
  <style type="text/css">*{stroke-linecap:butt;stroke-linejoin:round;}</style>
 </defs>
 <g id="figure_1">
  <g id="patch_1">
   <path d="M 0 810 
L 720 810 
L 720 0 
L 0 0 
z
" style="fill:#ffffff;"/>
  </g>
  <g id="axes_1">
   <g id="patch_2">
    <path d="M 108 720.9 
L 698.4 720.9 
L 698.4 56.7 
L 108 56.7 
z
" style="fill:#ffffff;"/>
   </g>
   <g id="matplotlib.axis_1">
    <g id="xtick_1">
     <g id="line2d_1">
      <path clip-path="url(#p3b415001b0)" d="M 159.233058 720.9 
L 159.233058 56.7 
" style="fill:none;stroke:#e6e6e6;stroke-linecap:square;stroke-width:0.8;"/>
     </g>
     <g id="line2d_2">
      <defs>
       <path d="M 0 0 
L 0 -3.5 
" id="m9fa7724914" style="stroke:#000000;stroke-width:0.8;"/>
      </defs>
      <g>
       <use style="stroke:#000000;stroke-width:0.8;" x="159.233058" xlink:href="#m9fa7724914" y="720.9"/>
      </g>
     </g>
     <g id="text_1">
      <!-- $\mathdefault{0}$ -->
      <g transform="translate(155.574939 734.777725)scale(0.15 -0.15)">
       <defs>
        <path d="M 42 31.640625 
C 42 37.75 41.90625 48.125 37.703125 56.109375 
C 34 63.109375 28.09375 65.59375 22.90625 65.59375 
C 18.09375 65.59375 12 63.40625 8.203125 56.203125 
C 4.203125 48.71875 3.796875 39.4375 3.796875 31.640625 
C 3.796875 25.953125 3.90625 17.28125 7 9.671875 
C 11.296875 -0.609375 19 -2 22.90625 -2 
C 27.5 -2 34.5 -0.109375 38.59375 9.375 
C 41.59375 16.28125 42 24.359375 42 31.640625 
z
M 22.90625 -0.40625 
C 16.5 -0.40625 12.703125 5.078125 11.296875 12.6875 
C 10.203125 18.5625 10.203125 27.15625 10.203125 32.75 
C 10.203125 40.4375 10.203125 46.828125 11.5 52.921875 
C 13.40625 61.390625 19 64 22.90625 64 
C 27 64 32.296875 61.296875 34.203125 53.125 
C 35.5 47.4375 35.59375 40.734375 35.59375 32.75 
C 35.59375 26.25 35.59375 18.265625 34.40625 12.375 
C 32.296875 1.484375 26.40625 -0.40625 22.90625 -0.40625 
z
" id="CMR17-48"/>
       </defs>
       <use transform="scale(0.996264)" xlink:href="#CMR17-48"/>
      </g>
     </g>
    </g>
    <g id="xtick_2">
     <g id="line2d_3">
      <path clip-path="url(#p3b415001b0)" d="M 281.216529 720.9 
L 281.216529 56.7 
" style="fill:none;stroke:#e6e6e6;stroke-linecap:square;stroke-width:0.8;"/>
     </g>
     <g id="line2d_4">
      <g>
       <use style="stroke:#000000;stroke-width:0.8;" x="281.216529" xlink:href="#m9fa7724914" y="720.9"/>
      </g>
     </g>
     <g id="text_2">
      <!-- $\mathdefault{1}$ -->
      <g transform="translate(277.55841 734.777725)scale(0.15 -0.15)">
       <defs>
        <path d="M 26.59375 63.40625 
C 26.59375 65.5 26.5 65.5 25.09375 65.5 
C 21.203125 61.1875 15.296875 59.796875 9.703125 59.796875 
C 9.40625 59.796875 8.90625 59.796875 8.796875 59.5 
C 8.703125 59.296875 8.703125 59.09375 8.703125 57 
C 11.796875 57 17 57.59375 21 59.984375 
L 21 7.203125 
C 21 3.6875 20.796875 2.5 12.203125 2.5 
L 9.203125 2.5 
L 9.203125 0 
C 14 0 19 0 23.796875 0 
C 28.59375 0 33.59375 0 38.40625 0 
L 38.40625 2.5 
L 35.40625 2.5 
C 26.796875 2.5 26.59375 3.59375 26.59375 7.15625 
z
" id="CMR17-49"/>
       </defs>
       <use transform="scale(0.996264)" xlink:href="#CMR17-49"/>
      </g>
     </g>
    </g>
    <g id="xtick_3">
     <g id="line2d_5">
      <path clip-path="url(#p3b415001b0)" d="M 403.2 720.9 
L 403.2 56.7 
" style="fill:none;stroke:#e6e6e6;stroke-linecap:square;stroke-width:0.8;"/>
     </g>
     <g id="line2d_6">
      <g>
       <use style="stroke:#000000;stroke-width:0.8;" x="403.2" xlink:href="#m9fa7724914" y="720.9"/>
      </g>
     </g>
     <g id="text_3">
      <!-- $\mathdefault{2}$ -->
      <g transform="translate(399.541881 734.777725)scale(0.15 -0.15)">
       <defs>
        <path d="M 41.703125 15.453125 
L 39.90625 15.453125 
C 38.90625 8.375 38.09375 7.171875 37.703125 6.5625 
C 37.203125 5.765625 30 5.765625 28.59375 5.765625 
L 9.40625 5.765625 
C 13 9.671875 20 16.75 28.5 24.953125 
C 34.59375 30.734375 41.703125 37.53125 41.703125 47.421875 
C 41.703125 59.21875 32.296875 66 21.796875 66 
C 10.796875 66 4.09375 56.3125 4.09375 47.34375 
C 4.09375 43.4375 7 42.9375 8.203125 42.9375 
C 9.203125 42.9375 12.203125 43.546875 12.203125 47.03125 
C 12.203125 50.109375 9.59375 51 8.203125 51 
C 7.59375 51 7 50.90625 6.59375 50.703125 
C 8.5 59.21875 14.296875 63.40625 20.40625 63.40625 
C 29.09375 63.40625 34.796875 56.515625 34.796875 47.421875 
C 34.796875 38.734375 29.703125 31.25 24 24.75 
L 4.09375 2.28125 
L 4.09375 0 
L 39.296875 0 
z
" id="CMR17-50"/>
       </defs>
       <use transform="scale(0.996264)" xlink:href="#CMR17-50"/>
      </g>
     </g>
    </g>
    <g id="xtick_4">
     <g id="line2d_7">
      <path clip-path="url(#p3b415001b0)" d="M 525.183471 720.9 
L 525.183471 56.7 
" style="fill:none;stroke:#e6e6e6;stroke-linecap:square;stroke-width:0.8;"/>
     </g>
     <g id="line2d_8">
      <g>
       <use style="stroke:#000000;stroke-width:0.8;" x="525.183471" xlink:href="#m9fa7724914" y="720.9"/>
      </g>
     </g>
     <g id="text_4">
      <!-- $\mathdefault{3}$ -->
      <g transform="translate(521.525352 734.777725)scale(0.15 -0.15)">
       <defs>
        <path d="M 22.09375 33.703125 
C 31 33.703125 34.90625 25.96875 34.90625 17.03125 
C 34.90625 5 28.5 0.390625 22.703125 0.390625 
C 17.40625 0.390625 8.796875 3.03125 6.09375 10.828125 
C 6.59375 10.625 7.09375 10.625 7.59375 10.625 
C 10 10.625 11.796875 12.21875 11.796875 14.8125 
C 11.796875 17.703125 9.59375 19 7.59375 19 
C 5.90625 19 3.296875 18.203125 3.296875 14.46875 
C 3.296875 5.234375 12.296875 -2 22.90625 -2 
C 34 -2 42.5 6.71875 42.5 16.953125 
C 42.5 26.671875 34.5 33.703125 25 34.796875 
C 32.59375 36.375 39.90625 43.0625 39.90625 52.015625 
C 39.90625 59.6875 32 65.296875 23 65.296875 
C 13.90625 65.296875 5.90625 59.828125 5.90625 52.015625 
C 5.90625 48.59375 8.5 48 9.796875 48 
C 11.90625 48 13.703125 49.296875 13.703125 51.890625 
C 13.703125 54.46875 11.90625 55.765625 9.796875 55.765625 
C 9.40625 55.765625 8.90625 55.765625 8.5 55.578125 
C 11.40625 61.859375 19.296875 63 22.796875 63 
C 26.296875 63 32.90625 61.328125 32.90625 51.875 
C 32.90625 49.109375 32.5 44.1875 29.09375 39.84375 
C 26.09375 36 22.703125 36 19.40625 35.6875 
C 18.90625 35.6875 16.59375 35.453125 16.203125 35.453125 
C 15.5 35.359375 15.09375 35.265625 15.09375 34.5 
C 15.09375 33.796875 15.203125 33.703125 17.203125 33.703125 
z
" id="CMR17-51"/>
       </defs>
       <use transform="scale(0.996264)" xlink:href="#CMR17-51"/>
      </g>
     </g>
    </g>
    <g id="xtick_5">
     <g id="line2d_9">
      <path clip-path="url(#p3b415001b0)" d="M 647.166942 720.9 
L 647.166942 56.7 
" style="fill:none;stroke:#e6e6e6;stroke-linecap:square;stroke-width:0.8;"/>
     </g>
     <g id="line2d_10">
      <g>
       <use style="stroke:#000000;stroke-width:0.8;" x="647.166942" xlink:href="#m9fa7724914" y="720.9"/>
      </g>
     </g>
     <g id="text_5">
      <!-- $\mathdefault{4}$ -->
      <g transform="translate(643.508823 734.777725)scale(0.15 -0.15)">
       <defs>
        <path d="M 33.59375 64.40625 
C 33.59375 66.5 33.5 66.5 31.703125 66.5 
L 2 19.59375 
L 2 17 
L 27.796875 17 
L 27.796875 7.140625 
C 27.796875 3.5 27.59375 2.5 20.59375 2.5 
L 18.703125 2.5 
L 18.703125 0 
C 21.90625 0 27.296875 0 30.703125 0 
C 34.09375 0 39.5 0 42.703125 0 
L 42.703125 2.5 
L 40.796875 2.5 
C 33.796875 2.5 33.59375 3.5 33.59375 7.140625 
L 33.59375 17 
L 43.796875 17 
L 43.796875 19.59375 
L 33.59375 19.59375 
z
M 28.09375 57.859375 
L 28.09375 19.59375 
L 4 19.59375 
z
" id="CMR17-52"/>
       </defs>
       <use transform="scale(0.996264)" xlink:href="#CMR17-52"/>
      </g>
     </g>
    </g>
    <g id="text_6">
     <!-- $x(\AA)$ -->
     <g transform="translate(378.309582 763.384409)scale(0.25 -0.25)">
      <defs>
       <path d="M 47.40625 40.71875 
C 44.203125 40.109375 43 37.71875 43 35.828125 
C 43 33.421875 44.90625 32.625 46.296875 32.625 
C 49.296875 32.625 51.40625 35.21875 51.40625 37.921875 
C 51.40625 42.109375 46.59375 44 42.40625 44 
C 36.296875 44 32.90625 38.015625 32 36.125 
C 29.703125 44 23.5 44 21.703125 44 
C 11.5 44 6.09375 30.9375 6.09375 28.734375 
C 6.09375 28.34375 6.5 27.84375 7.203125 27.84375 
C 8 27.84375 8.203125 28.4375 8.40625 28.84375 
C 11.796875 39.921875 18.5 42.015625 21.40625 42.015625 
C 25.90625 42.015625 26.796875 37.8125 26.796875 35.421875 
C 26.796875 33.234375 26.203125 30.9375 25 26.140625 
L 21.59375 12.46875 
C 20.09375 6.484375 17.203125 1 11.90625 1 
C 11.40625 1 8.90625 1 6.796875 2.296875 
C 10.40625 3 11.203125 5.984375 11.203125 7.1875 
C 11.203125 9.1875 9.703125 10.375 7.796875 10.375 
C 5.40625 10.375 2.796875 8.28125 2.796875 5.09375 
C 2.796875 0.890625 7.5 -1 11.796875 -1 
C 16.59375 -1 20 2.796875 22.09375 6.890625 
C 23.703125 1 28.703125 -1 32.40625 -1 
C 42.59375 -1 48 12.078125 48 14.265625 
C 48 14.765625 47.59375 15.171875 47 15.171875 
C 46.09375 15.171875 46 14.671875 45.703125 13.875 
C 43 5.09375 37.203125 1 32.703125 1 
C 29.203125 1 27.296875 3.59375 27.296875 7.6875 
C 27.296875 9.875 27.703125 11.46875 29.296875 18.0625 
L 32.796875 31.625 
C 34.296875 37.625 37.703125 42.015625 42.296875 42.015625 
C 42.5 42.015625 45.296875 42.015625 47.40625 40.71875 
z
" id="CMMI12-120"/>
       <path d="M 30.59375 -24.390625 
C 30.59375 -24.296875 30.59375 -24.09375 30.296875 -23.796875 
C 25.703125 -19.125 13.40625 -6.359375 13.40625 24.703125 
C 13.40625 55.765625 25.5 68.421875 30.40625 73.390625 
C 30.40625 73.5 30.59375 73.703125 30.59375 74 
C 30.59375 74.296875 30.296875 74.5 29.90625 74.5 
C 28.796875 74.5 20.296875 67.125 15.40625 56.15625 
C 10.40625 45.109375 9 34.359375 9 24.8125 
C 9 17.625 9.703125 5.484375 15.703125 -7.359375 
C 20.5 -17.734375 28.703125 -25 29.90625 -25 
C 30.40625 -25 30.59375 -24.796875 30.59375 -24.390625 
z
" id="CMR17-40"/>
       <path d="M 41.703125 60.75 
C 41.703125 65.3125 37.203125 69.46875 31.203125 69.46875 
C 25.203125 69.46875 20.703125 65.3125 20.703125 60.75 
C 20.703125 56.171875 25.203125 52 31.203125 52 
C 37.203125 52 41.703125 56.171875 41.703125 60.75 
z
M 31.203125 56.484375 
C 29 56.484375 26 57.171875 26 60.734375 
C 26 64.09375 28.703125 65 31.203125 65 
C 33.40625 65 36.40625 64.296875 36.40625 60.734375 
C 36.40625 57.375 33.703125 56.484375 31.203125 56.484375 
z
" id="CMSS17-23"/>
       <path d="M 17 10.796875 
C 13.5 4.90625 10.09375 2.90625 5.296875 2.90625 
C 4.203125 2.8125 3.40625 2.8125 3.40625 0.90625 
C 3.40625 0.375 3.90625 0 4.59375 0 
C 6.40625 0 10.90625 0 12.703125 0 
C 15.59375 0 18.796875 0 21.59375 0 
C 22.203125 0 23.40625 0 23.40625 1.90625 
C 23.40625 2.8125 22.59375 2.90625 22 2.90625 
C 19.703125 2.90625 17.796875 3.6875 17.796875 6.0625 
C 17.796875 7.4375 18.40625 8.53125 19.703125 10.703125 
L 27.296875 23.109375 
L 52.796875 23.109375 
C 52.90625 22.234375 52.90625 21.453125 53 20.5625 
C 53.296875 18 54.5 7.734375 54.5 5.875 
C 54.5 2.90625 49.40625 2.90625 47.796875 2.90625 
C 46.703125 2.90625 45.59375 2.90625 45.59375 1.09375 
C 45.59375 0 46.5 0 47.09375 0 
C 48.796875 0 50.796875 0 52.5 0 
L 58.203125 0 
C 64.296875 0 68.703125 0 68.796875 0 
C 69.5 0 70.59375 0 70.59375 1.90625 
C 70.59375 2.90625 69.703125 2.90625 68.203125 2.90625 
C 62.703125 2.90625 62.59375 3.8125 62.296875 6.78125 
L 56.203125 68.8125 
C 56 70.796875 55.59375 71 54.5 71 
C 53.5 71 52.90625 70.796875 52 69.296875 
z
M 29 26 
L 49.09375 59.671875 
L 52.5 26 
z
" id="CMMI12-65"/>
       <path d="M 26.296875 24.703125 
C 26.296875 31.875 25.59375 44.015625 19.59375 56.859375 
C 14.796875 67.234375 6.59375 74.5 5.40625 74.5 
C 5.09375 74.5 4.703125 74.390625 4.703125 73.890625 
C 4.703125 73.703125 4.796875 73.59375 4.90625 73.390625 
C 9.703125 68.40625 21.90625 55.75 21.90625 24.75 
C 21.90625 -6.359375 9.796875 -19.015625 4.90625 -24.015625 
C 4.796875 -24.203125 4.703125 -24.3125 4.703125 -24.5 
C 4.703125 -25 5.09375 -25 5.40625 -25 
C 6.5 -25 15 -17.625 19.90625 -6.65625 
C 24.90625 4.390625 26.296875 15.140625 26.296875 24.703125 
z
" id="CMR17-41"/>
      </defs>
      <use transform="scale(0.996264)" xlink:href="#CMMI12-120"/>
      <use transform="translate(55.43406 0)scale(0.996264)" xlink:href="#CMR17-40"/>
      <use transform="translate(90.714827 17.618744)scale(0.996264)" xlink:href="#CMSS17-23"/>
      <use transform="translate(90.714827 0)scale(0.996264)" xlink:href="#CMMI12-65"/>
      <use transform="translate(163.842713 0)scale(0.996264)" xlink:href="#CMR17-41"/>
     </g>
    </g>
   </g>
   <g id="matplotlib.axis_2">
    <g id="ytick_1">
     <g id="line2d_11">
      <path clip-path="url(#p3b415001b0)" d="M 108 663.26283 
L 698.4 663.26283 
" style="fill:none;stroke:#e6e6e6;stroke-linecap:square;stroke-width:0.8;"/>
     </g>
     <g id="line2d_12">
      <defs>
       <path d="M 0 0 
L 3.5 0 
" id="m733f7b7046" style="stroke:#000000;stroke-width:0.8;"/>
      </defs>
      <g>
       <use style="stroke:#000000;stroke-width:0.8;" x="108" xlink:href="#m733f7b7046" y="663.26283"/>
      </g>
     </g>
     <g id="text_7">
      <!-- $\mathdefault{0.0}$ -->
      <g transform="translate(85.802948 668.451692)scale(0.15 -0.15)">
       <defs>
        <path d="M 18.40625 4.796875 
C 18.40625 7.6875 16 9.671875 13.59375 9.671875 
C 10.703125 9.671875 8.703125 7.28125 8.703125 4.890625 
C 8.703125 2 11.09375 0 13.5 0 
C 16.40625 0 18.40625 2.390625 18.40625 4.796875 
z
" id="CMMI12-58"/>
       </defs>
       <use transform="scale(0.996264)" xlink:href="#CMR17-48"/>
       <use transform="translate(45.690477 0)scale(0.996264)" xlink:href="#CMMI12-58"/>
       <use transform="translate(72.787654 0)scale(0.996264)" xlink:href="#CMR17-48"/>
      </g>
     </g>
    </g>
    <g id="ytick_2">
     <g id="line2d_13">
      <path clip-path="url(#p3b415001b0)" d="M 108 553.477702 
L 698.4 553.477702 
" style="fill:none;stroke:#e6e6e6;stroke-linecap:square;stroke-width:0.8;"/>
     </g>
     <g id="line2d_14">
      <g>
       <use style="stroke:#000000;stroke-width:0.8;" x="108" xlink:href="#m733f7b7046" y="553.477702"/>
      </g>
     </g>
     <g id="text_8">
      <!-- $\mathdefault{0.2}$ -->
      <g transform="translate(85.802948 558.666564)scale(0.15 -0.15)">
       <use transform="scale(0.996264)" xlink:href="#CMR17-48"/>
       <use transform="translate(45.690477 0)scale(0.996264)" xlink:href="#CMMI12-58"/>
       <use transform="translate(72.787654 0)scale(0.996264)" xlink:href="#CMR17-50"/>
      </g>
     </g>
    </g>
    <g id="ytick_3">
     <g id="line2d_15">
      <path clip-path="url(#p3b415001b0)" d="M 108 443.692574 
L 698.4 443.692574 
" style="fill:none;stroke:#e6e6e6;stroke-linecap:square;stroke-width:0.8;"/>
     </g>
     <g id="line2d_16">
      <g>
       <use style="stroke:#000000;stroke-width:0.8;" x="108" xlink:href="#m733f7b7046" y="443.692574"/>
      </g>
     </g>
     <g id="text_9">
      <!-- $\mathdefault{0.4}$ -->
      <g transform="translate(85.802948 448.881436)scale(0.15 -0.15)">
       <use transform="scale(0.996264)" xlink:href="#CMR17-48"/>
       <use transform="translate(45.690477 0)scale(0.996264)" xlink:href="#CMMI12-58"/>
       <use transform="translate(72.787654 0)scale(0.996264)" xlink:href="#CMR17-52"/>
      </g>
     </g>
    </g>
    <g id="ytick_4">
     <g id="line2d_17">
      <path clip-path="url(#p3b415001b0)" d="M 108 333.907446 
L 698.4 333.907446 
" style="fill:none;stroke:#e6e6e6;stroke-linecap:square;stroke-width:0.8;"/>
     </g>
     <g id="line2d_18">
      <g>
       <use style="stroke:#000000;stroke-width:0.8;" x="108" xlink:href="#m733f7b7046" y="333.907446"/>
      </g>
     </g>
     <g id="text_10">
      <!-- $\mathdefault{0.6}$ -->
      <g transform="translate(85.802948 339.096308)scale(0.15 -0.15)">
       <defs>
        <path d="M 10.59375 34 
C 10.59375 57.65625 21.796875 63 28.296875 63 
C 30.40625 63 35.5 62.640625 37.5 59 
C 35.90625 59 32.90625 59 32.90625 55.515625 
C 32.90625 52.828125 35.09375 51.921875 36.5 51.921875 
C 37.40625 51.921875 40.09375 52.3125 40.09375 55.625 
C 40.09375 61.78125 35.09375 65.296875 28.203125 65.296875 
C 16.296875 65.296875 3.796875 52.96875 3.796875 31 
C 3.796875 3.953125 15.09375 -2 23.09375 -2 
C 32.796875 -2 42 6.671875 42 20.046875 
C 42 32.515625 33.90625 41.59375 23.703125 41.59375 
C 17.59375 41.59375 13.09375 37.609375 10.59375 30.625 
z
M 23.09375 0.390625 
C 10.796875 0.390625 10.796875 18.75 10.796875 22.4375 
C 10.796875 29.625 14.203125 40 23.5 40 
C 25.203125 40 30.09375 40 33.40625 33.125 
C 35.203125 29.21875 35.203125 25.140625 35.203125 20.140625 
C 35.203125 14.75 35.203125 10.78125 33.09375 6.78125 
C 30.90625 2.671875 27.703125 0.390625 23.09375 0.390625 
z
" id="CMR17-54"/>
       </defs>
       <use transform="scale(0.996264)" xlink:href="#CMR17-48"/>
       <use transform="translate(45.690477 0)scale(0.996264)" xlink:href="#CMMI12-58"/>
       <use transform="translate(72.787654 0)scale(0.996264)" xlink:href="#CMR17-54"/>
      </g>
     </g>
    </g>
    <g id="ytick_5">
     <g id="line2d_19">
      <path clip-path="url(#p3b415001b0)" d="M 108 224.122318 
L 698.4 224.122318 
" style="fill:none;stroke:#e6e6e6;stroke-linecap:square;stroke-width:0.8;"/>
     </g>
     <g id="line2d_20">
      <g>
       <use style="stroke:#000000;stroke-width:0.8;" x="108" xlink:href="#m733f7b7046" y="224.122318"/>
      </g>
     </g>
     <g id="text_11">
      <!-- $\mathdefault{0.8}$ -->
      <g transform="translate(85.802948 229.31118)scale(0.15 -0.15)">
       <defs>
        <path d="M 27.203125 35.375 
C 33.5 38.546875 39.90625 43.328125 39.90625 50.984375 
C 39.90625 60.015625 31.09375 65.296875 23 65.296875 
C 13.90625 65.296875 5.90625 58.734375 5.90625 49.6875 
C 5.90625 47.203125 6.5 42.921875 10.40625 39.140625 
C 11.40625 38.15625 15.59375 35.171875 18.296875 33.28125 
C 13.796875 30.984375 3.296875 25.53125 3.296875 14.59375 
C 3.296875 4.359375 13.09375 -2 22.796875 -2 
C 33.5 -2 42.5 5.65625 42.5 15.78125 
C 42.5 24.84375 36.40625 29.015625 32.40625 31.703125 
z
M 14.09375 44.09375 
C 13.296875 44.59375 9.296875 47.671875 9.296875 52.359375 
C 9.296875 58.421875 15.59375 63 22.796875 63 
C 30.703125 63 36.5 57.4375 36.5 50.96875 
C 36.5 41.703125 26.09375 36.421875 25.59375 36.421875 
C 25.5 36.421875 25.40625 36.421875 24.59375 37.03125 
z
M 32.5 23.734375 
C 34 22.640625 38.796875 19.375 38.796875 13.296875 
C 38.796875 5.953125 31.40625 0.390625 23 0.390625 
C 13.90625 0.390625 7 6.84375 7 14.6875 
C 7 22.546875 13.09375 29.09375 20 32.1875 
z
" id="CMR17-56"/>
       </defs>
       <use transform="scale(0.996264)" xlink:href="#CMR17-48"/>
       <use transform="translate(45.690477 0)scale(0.996264)" xlink:href="#CMMI12-58"/>
       <use transform="translate(72.787654 0)scale(0.996264)" xlink:href="#CMR17-56"/>
      </g>
     </g>
    </g>
    <g id="ytick_6">
     <g id="line2d_21">
      <path clip-path="url(#p3b415001b0)" d="M 108 114.33719 
L 698.4 114.33719 
" style="fill:none;stroke:#e6e6e6;stroke-linecap:square;stroke-width:0.8;"/>
     </g>
     <g id="line2d_22">
      <g>
       <use style="stroke:#000000;stroke-width:0.8;" x="108" xlink:href="#m733f7b7046" y="114.33719"/>
      </g>
     </g>
     <g id="text_12">
      <!-- $\mathdefault{1.0}$ -->
      <g transform="translate(85.802948 119.526052)scale(0.15 -0.15)">
       <use transform="scale(0.996264)" xlink:href="#CMR17-49"/>
       <use transform="translate(45.690477 0)scale(0.996264)" xlink:href="#CMMI12-58"/>
       <use transform="translate(72.787654 0)scale(0.996264)" xlink:href="#CMR17-48"/>
      </g>
     </g>
    </g>
   </g>
   <g id="line2d_23">
    <path clip-path="url(#p3b415001b0)" d="M 159.233058 663.262802 
L 196.47263 663.155092 
L 203.156656 662.915668 
L 207.93096 662.507806 
L 210.795543 662.087393 
L 213.660125 661.464896 
L 216.524708 660.560837 
L 218.434429 659.752348 
L 220.344151 658.737575 
L 222.253873 657.475035 
L 224.163594 655.918081 
L 226.073316 654.015111 
L 227.983038 651.710061 
L 229.892759 648.943216 
L 231.802481 645.652386 
L 233.712203 641.774479 
L 235.621924 637.247481 
L 237.531646 632.012831 
L 239.441368 626.018159 
L 241.351089 619.220321 
L 243.260811 611.588631 
L 245.170533 603.108177 
L 247.080254 593.783042 
L 248.989976 583.639282 
L 251.854558 567.006471 
L 254.719141 548.934636 
L 259.493445 516.822026 
L 264.267749 484.662605 
L 267.132332 466.74802 
L 269.042053 455.860785 
L 270.951775 446.080461 
L 272.861497 437.615665 
L 274.771218 430.652511 
L 275.726079 427.784367 
L 276.68094 425.347814 
L 277.635801 423.356913 
L 278.590662 421.823225 
L 279.545522 420.755701 
L 280.500383 420.160594 
L 281.455244 420.041398 
L 282.410105 420.398812 
L 283.364966 421.230737 
L 284.319827 422.532295 
L 285.274687 424.295874 
L 286.229548 426.511206 
L 287.184409 429.165463 
L 288.13927 432.243386 
L 290.048992 439.597904 
L 291.958713 448.41003 
L 293.868435 458.48736 
L 295.778157 469.616787 
L 298.642739 487.786715 
L 303.417043 520.087159 
L 308.191347 552.030361 
L 311.05593 569.88789 
L 313.920512 586.249642 
L 315.830234 596.19249 
L 317.739956 605.307993 
L 319.649677 613.575843 
L 321.559399 620.996999 
L 323.469121 627.590626 
L 325.378842 633.390833 
L 327.288564 638.443369 
L 329.198286 642.802425 
L 331.108007 646.527669 
L 333.017729 649.681593 
L 334.927451 652.327232 
L 336.837172 654.526288 
L 338.746894 656.337661 
L 340.656616 657.816362 
L 342.566337 659.012788 
L 344.476059 659.972303 
L 346.385781 660.735096 
L 349.250363 661.58579 
L 352.114946 662.16965 
L 355.934389 662.661701 
L 360.708693 662.990464 
L 367.392719 663.180027 
L 379.80591 663.255799 
L 435.187838 663.222667 
L 444.736446 663.031711 
L 449.51075 662.747711 
L 453.330194 662.318686 
L 456.194776 661.80588 
L 459.059359 661.053875 
L 460.96908 660.375981 
L 462.878802 659.519526 
L 464.788524 658.446903 
L 466.698245 657.115332 
L 468.607967 655.476896 
L 470.517689 653.478821 
L 472.42741 651.064041 
L 474.337132 648.172095 
L 476.246854 644.740405 
L 478.156575 640.705948 
L 480.066297 636.007335 
L 481.976019 630.587282 
L 483.88574 624.395433 
L 485.795462 617.391449 
L 487.705183 609.548279 
L 489.614905 600.855461 
L 491.524627 591.322309 
L 494.389209 575.523669 
L 497.253792 558.12733 
L 501.073235 533.075467 
L 509.666983 475.505612 
L 512.531565 458.48736 
L 514.441287 448.41003 
L 516.351008 439.597904 
L 518.26073 432.243386 
L 519.215591 429.165463 
L 520.170452 426.511206 
L 521.125313 424.295874 
L 522.080173 422.532295 
L 523.035034 421.230737 
L 523.989895 420.398812 
L 524.944756 420.041398 
L 525.899617 420.160594 
L 526.854478 420.755701 
L 527.809338 421.823225 
L 528.764199 423.356913 
L 529.71906 425.347814 
L 530.673921 427.784367 
L 531.628782 430.652511 
L 533.538503 437.615665 
L 535.448225 446.080461 
L 537.357947 455.860785 
L 539.267668 466.74802 
L 542.132251 484.662605 
L 545.951694 510.2918 
L 551.680859 548.934636 
L 554.545442 567.006471 
L 557.410024 583.639282 
L 560.274607 598.550113 
L 562.184328 607.454726 
L 564.09405 615.510048 
L 566.003772 622.721884 
L 567.913493 629.113448 
L 569.823215 634.722065 
L 571.732937 639.595888 
L 573.642658 643.790744 
L 575.55238 647.367243 
L 577.462102 650.388209 
L 579.371823 652.916504 
L 581.281545 655.013255 
L 583.191267 656.736473 
L 585.100988 658.140072 
L 587.01071 659.273218 
L 588.920431 660.179988 
L 590.830153 660.899276 
L 593.694736 661.699321 
L 596.559318 662.246648 
L 600.378761 662.706229 
L 605.153066 663.011872 
L 611.837091 663.187057 
L 625.205143 663.257652 
L 647.166942 663.262802 
L 647.166942 663.262802 
" style="fill:none;stroke:#00441b;stroke-linecap:square;stroke-width:2;"/>
   </g>
   <g id="line2d_24">
    <path clip-path="url(#p3b415001b0)" d="M 159.233058 114.33719 
L 229.892759 114.436404 
L 235.621924 114.664634 
L 239.441368 115.008249 
L 242.30595 115.440184 
L 245.170533 116.087152 
L 248.035115 117.017092 
L 249.944837 117.828365 
L 251.854558 118.814207 
L 253.76428 119.988749 
L 255.674002 121.359973 
L 257.583723 122.927555 
L 260.448306 125.620745 
L 263.312888 128.64285 
L 270.951775 137.002343 
L 272.861497 138.790056 
L 274.771218 140.310306 
L 276.68094 141.498474 
L 278.590662 142.302243 
L 280.500383 142.68536 
L 282.410105 142.630312 
L 284.319827 142.139625 
L 286.229548 141.235675 
L 288.13927 139.95903 
L 290.048992 138.36547 
L 292.913574 135.529443 
L 297.687878 130.232903 
L 301.507322 126.104848 
L 304.371904 123.34914 
L 307.236487 120.998585 
L 309.146208 119.676861 
L 311.05593 118.550519 
L 312.965652 117.609837 
L 315.830234 116.512369 
L 318.694817 115.732661 
L 321.559399 115.201334 
L 325.378842 114.768901 
L 330.153146 114.503185 
L 337.792033 114.366522 
L 358.798971 114.337259 
L 473.382271 114.426436 
L 479.111436 114.635225 
L 482.930879 114.952792 
L 485.795462 115.355009 
L 488.660044 115.961565 
L 491.524627 116.839482 
L 493.434348 117.609837 
L 495.34407 118.550519 
L 497.253792 119.676861 
L 499.163513 120.998585 
L 501.073235 122.517638 
L 503.937818 125.145924 
L 506.8024 128.121902 
L 515.396148 137.470474 
L 517.305869 139.197887 
L 519.215591 140.640767 
L 521.125313 141.737169 
L 523.035034 142.438478 
L 524.944756 142.712924 
L 526.854478 142.547939 
L 528.764199 141.951088 
L 530.673921 140.949507 
L 532.583643 139.587891 
L 534.493364 137.925233 
L 537.357947 135.019588 
L 546.906555 124.680906 
L 549.771137 122.11962 
L 551.680859 120.649577 
L 553.590581 119.377222 
L 555.500302 118.298463 
L 557.410024 117.401972 
L 560.274607 116.362228 
L 563.139189 115.628701 
L 566.003772 115.132258 
L 569.823215 114.731285 
L 574.597519 114.487242 
L 582.236406 114.363292 
L 605.153066 114.337221 
L 647.166942 114.33719 
L 647.166942 114.33719 
" style="fill:none;stroke:#08306b;stroke-linecap:square;stroke-width:2;"/>
   </g>
   <g id="line2d_25">
    <path clip-path="url(#p3b415001b0)" d="M 159.233058 663.26281 
L 198.382352 663.152053 
L 205.066378 662.915541 
L 209.840682 662.522196 
L 213.660125 661.952425 
L 216.524708 661.293513 
L 219.38929 660.355054 
L 221.299012 659.529187 
L 223.208733 658.506218 
L 225.118455 657.250328 
L 227.028177 655.72225 
L 228.937898 653.879746 
L 230.84762 651.678348 
L 232.757342 649.072373 
L 234.667063 646.016251 
L 236.576785 642.466152 
L 238.486507 638.381916 
L 240.396228 633.729228 
L 242.30595 628.481999 
L 244.215672 622.624855 
L 246.125393 616.155616 
L 248.035115 609.087631 
L 250.899698 597.435809 
L 253.76428 584.696734 
L 257.583723 566.530476 
L 264.267749 534.308402 
L 267.132332 521.654613 
L 269.042053 514.003206 
L 270.951775 507.15627 
L 272.861497 501.25151 
L 274.771218 496.409553 
L 275.726079 494.41926 
L 276.68094 492.730383 
L 277.635801 491.351731 
L 278.590662 490.290507 
L 279.545522 489.552265 
L 280.500383 489.140872 
L 281.455244 489.058485 
L 282.410105 489.305537 
L 283.364966 489.880731 
L 284.319827 490.781054 
L 285.274687 492.001791 
L 286.229548 493.536557 
L 287.184409 495.377341 
L 288.13927 497.514554 
L 290.048992 502.632446 
L 291.958713 508.784793 
L 293.868435 515.846335 
L 295.778157 523.675736 
L 298.642739 536.522759 
L 303.417043 559.538047 
L 308.191347 582.486541 
L 311.05593 595.381635 
L 313.920512 607.230292 
L 316.785095 617.829866 
L 318.694817 624.146688 
L 320.604538 629.850592 
L 322.51426 634.947283 
L 324.423981 639.455049 
L 326.333703 643.402266 
L 328.243425 646.824926 
L 330.153146 649.764304 
L 332.062868 652.264832 
L 333.97259 654.372251 
L 335.882311 656.132052 
L 337.792033 657.588229 
L 339.701755 658.782336 
L 341.611476 659.752813 
L 343.521198 660.534571 
L 346.385781 661.42052 
L 349.250363 662.040537 
L 353.069806 662.5747 
L 357.844111 662.941739 
L 364.528136 663.16111 
L 375.986466 663.251492 
L 429.458673 663.253506 
L 443.781585 663.120171 
L 449.51075 662.88739 
L 454.285054 662.466077 
L 458.104498 661.85865 
L 460.96908 661.158783 
L 463.833663 660.165245 
L 465.743384 659.29326 
L 467.653106 658.21556 
L 469.562828 656.89543 
L 471.472549 655.292807 
L 473.382271 653.364815 
L 475.291993 651.066576 
L 477.201714 648.352299 
L 479.111436 645.176684 
L 481.021158 641.496627 
L 482.930879 637.273215 
L 484.840601 632.473962 
L 486.750323 627.075222 
L 488.660044 621.06469 
L 490.569766 614.443859 
L 492.479488 607.230292 
L 495.34407 595.381635 
L 498.208653 582.486541 
L 502.028096 564.204437 
L 507.757261 536.522759 
L 510.621843 523.675736 
L 512.531565 515.846335 
L 514.441287 508.784793 
L 516.351008 502.632446 
L 518.26073 497.514554 
L 519.215591 495.377341 
L 520.170452 493.536557 
L 521.125313 492.001791 
L 522.080173 490.781054 
L 523.035034 489.880731 
L 523.989895 489.305537 
L 524.944756 489.058485 
L 525.899617 489.140872 
L 526.854478 489.552265 
L 527.809338 490.290507 
L 528.764199 491.351731 
L 529.71906 492.730383 
L 530.673921 494.41926 
L 531.628782 496.409553 
L 533.538503 501.25151 
L 535.448225 507.15627 
L 537.357947 514.003206 
L 539.267668 521.654613 
L 542.132251 534.308402 
L 545.951694 552.53638 
L 552.63572 584.696734 
L 555.500302 597.435809 
L 558.364885 609.087631 
L 560.274607 616.155616 
L 562.184328 622.624855 
L 564.09405 628.481999 
L 566.003772 633.729228 
L 567.913493 638.381916 
L 569.823215 642.466152 
L 571.732937 646.016251 
L 573.642658 649.072373 
L 575.55238 651.678348 
L 577.462102 653.879746 
L 579.371823 655.72225 
L 581.281545 657.250328 
L 583.191267 658.506218 
L 585.100988 659.529187 
L 587.01071 660.355054 
L 589.875292 661.293513 
L 592.739875 661.952425 
L 595.604457 662.406125 
L 599.423901 662.789885 
L 604.198205 663.04749 
L 611.837091 663.207604 
L 629.024586 663.261196 
L 647.166942 663.26281 
L 647.166942 663.26281 
" style="fill:none;stroke:#67000d;stroke-linecap:square;stroke-width:2;"/>
   </g>
   <g id="patch_3">
    <path d="M 108 720.9 
L 108 56.7 
" style="fill:none;stroke:#000000;stroke-linecap:square;stroke-linejoin:miter;stroke-width:0.8;"/>
   </g>
   <g id="patch_4">
    <path d="M 698.4 720.9 
L 698.4 56.7 
" style="fill:none;stroke:#000000;stroke-linecap:square;stroke-linejoin:miter;stroke-width:0.8;"/>
   </g>
   <g id="patch_5">
    <path d="M 108 720.9 
L 698.4 720.9 
" style="fill:none;stroke:#000000;stroke-linecap:square;stroke-linejoin:miter;stroke-width:0.8;"/>
   </g>
   <g id="patch_6">
    <path d="M 108 56.7 
L 698.4 56.7 
" style="fill:none;stroke:#000000;stroke-linecap:square;stroke-linejoin:miter;stroke-width:0.8;"/>
   </g>
   <g id="legend_1">
    <g id="patch_7">
     <path d="M 546.299094 438.12421 
L 684.4 438.12421 
Q 688.4 438.12421 688.4 434.12421 
L 688.4 343.47579 
Q 688.4 339.47579 684.4 339.47579 
L 546.299094 339.47579 
Q 542.299094 339.47579 542.299094 343.47579 
L 542.299094 434.12421 
Q 542.299094 438.12421 546.299094 438.12421 
z
" style="fill:#ffffff;opacity:0.8;stroke:#cccccc;stroke-linejoin:miter;"/>
    </g>
    <g id="line2d_26">
     <path d="M 550.299094 357.836529 
L 590.299094 357.836529 
" style="fill:none;stroke:#008000;stroke-linecap:square;stroke-width:2;"/>
    </g>
    <g id="line2d_27"/>
    <g id="text_13">
     <!-- $V_z(kV\AA)$ -->
     <g transform="translate(606.299094 364.836529)scale(0.2 -0.2)">
      <defs>
       <path d="M 61.90625 56.875 
C 65.296875 62.25 68.40625 64.625 73.5 65.03125 
C 74.5 65.125 75.296875 65.125 75.296875 66.90625 
C 75.296875 67.3125 75.09375 67.90625 74.203125 67.90625 
C 72.40625 67.90625 68.09375 67.90625 66.296875 67.90625 
C 63.40625 67.90625 60.40625 67.90625 57.59375 67.90625 
C 56.796875 67.90625 55.796875 67.90625 55.796875 66.03125 
C 55.796875 65.125 56.703125 65.03125 57.09375 65.03125 
C 60.796875 64.734375 61.203125 62.953125 61.203125 61.75 
C 61.203125 60.265625 59.796875 57.96875 59.703125 57.875 
L 28.296875 8.4375 
L 21.296875 62.015625 
C 21.296875 65 26.5 65 27.59375 65 
C 29.09375 65 30 65 30 66.90625 
C 30 67.90625 28.90625 67.90625 28.59375 67.90625 
C 26.90625 67.90625 24.90625 67.90625 23.203125 67.90625 
L 17.59375 67.90625 
C 10.296875 67.90625 7.296875 67.90625 7.203125 67.90625 
C 6.59375 67.90625 5.40625 67.90625 5.40625 66.09375 
C 5.40625 65 6.09375 65 7.703125 65 
C 12.796875 65 13.09375 64.09375 13.40625 61.625 
L 21.40625 0.375 
C 21.703125 -1.703125 21.703125 -2 23.09375 -2 
C 24.296875 -2 24.796875 -1.703125 25.796875 -0.125 
z
" id="CMMI12-86"/>
       <path d="M 12.703125 7.59375 
C 17 12.546875 20.5 15.6875 25.5 20.25 
C 31.5 25.5 34.09375 28.015625 35.5 29.546875 
C 42.5 36.53125 46 42.390625 46 43.1875 
C 46 44 45.203125 44 45 44 
C 44.296875 44 44.09375 43.640625 43.59375 42.96875 
C 41.09375 38.96875 38.703125 36.984375 36.09375 36.984375 
C 34 36.984375 32.90625 37.828125 31 40.078125 
C 28.90625 42.421875 27.203125 44 24.296875 44 
C 17 44 12.59375 35.265625 12.59375 33.25 
C 12.59375 32.9375 12.703125 32.3125 13.59375 32.3125 
C 14.40625 32.3125 14.5 32.671875 14.796875 33.328125 
C 16.5 37.0625 21.296875 37.71875 23.203125 37.71875 
C 25.296875 37.71875 27.296875 37.125 29.40625 36.359375 
C 33.203125 35 34.796875 35 35.796875 35 
C 36.5 35 36.90625 35 37.40625 35.09375 
C 34.09375 31.15625 28.703125 26.296875 24.203125 22.15625 
L 14.09375 12.75 
C 8 6.484375 4.296875 0.515625 4.296875 -0.1875 
C 4.296875 -0.796875 4.796875 -1 5.40625 -1 
C 6 -1 6.09375 -0.890625 6.796875 0.21875 
C 8.40625 2.546875 11.59375 6 15.296875 6 
C 17.40625 6 18.40625 5.34375 20.40625 3.015625 
C 22.296875 0.953125 24 -1 27.203125 -1 
C 37 -1 42.59375 11.4375 42.59375 13.6875 
C 42.59375 14.109375 42.5 14.71875 41.5 14.71875 
C 40.703125 14.71875 40.59375 14.328125 40.296875 13.359375 
C 38.09375 7.625 32.203125 5.28125 28.296875 5.28125 
C 26.203125 5.28125 24.203125 5.875 22.09375 6.640625 
C 18.09375 8 17 8 15.703125 8 
C 14.703125 8 13.59375 8 12.703125 7.59375 
z
" id="CMMI12-122"/>
       <path d="M 28.09375 66.515625 
C 28.203125 66.921875 28.40625 67.515625 28.40625 68 
C 28.40625 69 27.40625 69 27.203125 69 
C 27.09375 69 23.5 68.640625 21.703125 68.390625 
C 20 68.390625 18.5 68.09375 16.703125 68.09375 
C 14.296875 67.890625 13.59375 67.796875 13.59375 66 
C 13.59375 65 14.59375 65 15.59375 65 
C 20.703125 65 20.703125 64.109375 20.703125 63.125 
C 20.703125 62.734375 20.703125 62.53125 20.203125 60.75 
L 5.90625 3.875 
C 5.5 2.375 5.5 2.1875 5.5 1.578125 
C 5.5 -0.59375 7.203125 -1 8.203125 -1 
C 11 -1 11.59375 1.203125 12.40625 4.296875 
L 17.09375 22.953125 
C 24.296875 22.15625 28.59375 19.15625 28.59375 14.375 
C 28.59375 13.765625 28.59375 13.375 28.296875 11.875 
C 27.90625 10.375 27.90625 9.1875 27.90625 8.6875 
C 27.90625 2.890625 31.703125 -1 36.796875 -1 
C 41.40625 -1 43.796875 3.1875 44.59375 4.59375 
C 46.703125 8.28125 48 13.875 48 14.265625 
C 48 14.765625 47.59375 15.171875 47 15.171875 
C 46.09375 15.171875 46 14.765625 45.59375 13.171875 
C 44.203125 7.984375 42.09375 1 37 1 
C 35 1 33.703125 2 33.703125 5.78125 
C 33.703125 7.6875 34.09375 9.875 34.5 11.375 
C 34.90625 13.171875 34.90625 13.265625 34.90625 14.46875 
C 34.90625 20.359375 29.59375 23.65625 20.40625 24.84375 
C 24 27.046875 27.59375 30.9375 29 32.4375 
C 34.703125 38.8125 38.59375 42.015625 43.203125 42.015625 
C 45.5 42.015625 46.09375 41.40625 46.796875 40.8125 
C 43.09375 40.40625 41.703125 37.8125 41.703125 35.828125 
C 41.703125 33.421875 43.59375 32.625 45 32.625 
C 47.703125 32.625 50.09375 34.921875 50.09375 38.125 
C 50.09375 41.015625 47.796875 44 43.296875 44 
C 37.796875 44 33.296875 40.109375 26.203125 32.125 
C 25.203125 30.9375 21.5 27.140625 17.796875 25.75 
z
" id="CMMI12-107"/>
      </defs>
      <use transform="scale(0.996264)" xlink:href="#CMMI12-86"/>
      <use transform="translate(56.869579 -14.943915)scale(0.697382)" xlink:href="#CMMI12-122"/>
      <use transform="translate(92.196135 0)scale(0.996264)" xlink:href="#CMR17-40"/>
      <use transform="translate(127.476902 0)scale(0.996264)" xlink:href="#CMMI12-107"/>
      <use transform="translate(181.556103 0)scale(0.996264)" xlink:href="#CMMI12-86"/>
      <use transform="translate(260.103424 17.618744)scale(0.996264)" xlink:href="#CMSS17-23"/>
      <use transform="translate(260.103424 0)scale(0.996264)" xlink:href="#CMMI12-65"/>
      <use transform="translate(333.231309 0)scale(0.996264)" xlink:href="#CMR17-41"/>
     </g>
    </g>
    <g id="line2d_28">
     <path d="M 550.299094 387.998048 
L 590.299094 387.998048 
" style="fill:none;stroke:#0000ff;stroke-linecap:square;stroke-width:2;"/>
    </g>
    <g id="line2d_29"/>
    <g id="text_14">
     <!-- $re(T)$ -->
     <g transform="translate(606.299094 394.998048)scale(0.2 -0.2)">
      <defs>
       <path d="M 38.90625 40.8125 
C 35.796875 40.21875 34.203125 38.015625 34.203125 35.828125 
C 34.203125 33.421875 36.09375 32.625 37.5 32.625 
C 40.296875 32.625 42.59375 35.03125 42.59375 38.015625 
C 42.59375 41.21875 39.5 44 34.5 44 
C 30.5 44 25.90625 42.203125 21.703125 36.125 
C 21 41.40625 17 44 13 44 
C 9.09375 44 7.09375 41.015625 5.90625 38.8125 
C 4.203125 35.21875 2.703125 29.234375 2.703125 28.734375 
C 2.703125 28.34375 3.09375 27.84375 3.796875 27.84375 
C 4.59375 27.84375 4.703125 27.9375 5.296875 30.234375 
C 6.796875 36.21875 8.703125 42.015625 12.703125 42.015625 
C 15.09375 42.015625 15.796875 40.3125 15.796875 37.421875 
C 15.796875 35.21875 14.796875 31.328125 14.09375 28.234375 
L 11.296875 17.46875 
C 10.90625 15.5625 9.796875 11.078125 9.296875 9.28125 
C 8.59375 6.6875 7.5 2 7.5 1.5 
C 7.5 0.09375 8.59375 -1 10.09375 -1 
C 11.203125 -1 13.09375 -0.296875 13.703125 1.703125 
C 14 2.5 17.703125 17.5625 18.296875 19.859375 
C 18.796875 22.046875 19.40625 24.15625 19.90625 26.34375 
C 20.296875 27.734375 20.703125 29.34375 21 30.640625 
C 21.296875 31.53125 24 36.421875 26.5 38.625 
C 27.703125 39.71875 30.296875 42.015625 34.40625 42.015625 
C 36 42.015625 37.59375 41.71875 38.90625 40.8125 
z
" id="CMMI12-114"/>
       <path d="M 17.90625 23.109375 
C 20.59375 23.109375 27.40625 23.109375 32.203125 24.921875 
C 39.796875 27.859375 40.5 33.71875 40.5 35.53125 
C 40.5 39.96875 36.703125 44 30.09375 44 
C 19.59375 44 4.5 34.53125 4.5 16.765625 
C 4.5 6.28125 10.5 -1 19.59375 -1 
C 33.203125 -1 41.796875 9.515625 41.796875 10.8125 
C 41.796875 11.40625 41.203125 11.90625 40.796875 11.90625 
C 40.5 11.90625 40.40625 11.8125 39.5 10.921875 
C 33.09375 2.484375 23.59375 1 19.796875 1 
C 14.09375 1 11.09375 5.46875 11.09375 12.84375 
C 11.09375 14.234375 11.09375 16.734375 12.59375 23.109375 
z
M 13.09375 25 
C 17.40625 40.5 26.90625 42.015625 30.09375 42.015625 
C 34.5 42.015625 37.5 39.40625 37.5 35.578125 
C 37.5 25 21.5 25 17.296875 25 
z
" id="CMMI12-101"/>
       <path d="M 41.703125 61.09375 
C 42.296875 63.5 42.5 64.390625 44 64.796875 
C 44.796875 65 48.09375 65 50.203125 65 
C 60.203125 65 64.90625 64.59375 64.90625 56.78125 
C 64.90625 55.265625 64.5 51.484375 63.90625 47.765625 
L 63.796875 46.5625 
C 63.796875 46.15625 64.203125 45.5625 64.796875 45.5625 
C 65.796875 45.5625 65.796875 46.0625 66.09375 47.65625 
L 69 65.375 
C 69.203125 66.296875 69.203125 66.5 69.203125 66.796875 
C 69.203125 67.890625 68.59375 67.890625 66.59375 67.890625 
L 11.90625 67.890625 
C 9.59375 67.890625 9.5 67.796875 8.90625 66 
L 2.796875 47.96875 
C 2.703125 47.75 2.40625 46.65625 2.40625 46.5625 
C 2.40625 46.0625 2.796875 45.5625 3.40625 45.5625 
C 4.203125 45.5625 4.40625 45.953125 4.796875 47.25 
C 9 59.390625 11.09375 65 24.40625 65 
L 31.09375 65 
C 33.5 65 34.5 65 34.5 63.890625 
C 34.5 63.578125 34.5 63.390625 34 61.578125 
L 20.59375 7.796875 
C 19.59375 3.890625 19.40625 2.890625 8.796875 2.890625 
C 6.296875 2.890625 5.59375 2.890625 5.59375 1 
C 5.59375 0 6.703125 0 7.203125 0 
C 9.703125 0 12.296875 0 14.796875 0 
L 30.40625 0 
C 32.90625 0 35.59375 0 38.09375 0 
C 39.203125 0 40.203125 0 40.203125 1.890625 
C 40.203125 2.890625 39.5 2.890625 36.90625 2.890625 
C 27.90625 2.890625 27.90625 3.796875 27.90625 5.296875 
C 27.90625 5.40625 27.90625 6.109375 28.296875 7.71875 
z
" id="CMMI12-84"/>
      </defs>
      <use transform="scale(0.996264)" xlink:href="#CMMI12-114"/>
      <use transform="translate(46.670612 0)scale(0.996264)" xlink:href="#CMMI12-101"/>
      <use transform="translate(91.882613 0)scale(0.996264)" xlink:href="#CMR17-40"/>
      <use transform="translate(127.163381 0)scale(0.996264)" xlink:href="#CMMI12-84"/>
      <use transform="translate(197.887013 0)scale(0.996264)" xlink:href="#CMR17-41"/>
     </g>
    </g>
    <g id="line2d_30">
     <path d="M 550.299094 418.159567 
L 590.299094 418.159567 
" style="fill:none;stroke:#ff0000;stroke-linecap:square;stroke-width:2;"/>
    </g>
    <g id="line2d_31"/>
    <g id="text_15">
     <!-- $im(T)$ -->
     <g transform="translate(606.299094 425.159567)scale(0.2 -0.2)">
      <defs>
       <path d="M 28.296875 14.265625 
C 28.296875 14.765625 27.90625 15.171875 27.296875 15.171875 
C 26.40625 15.171875 26.296875 14.875 25.796875 13.171875 
C 23.203125 4.09375 19.09375 1 15.796875 1 
C 14.59375 1 13.203125 1.296875 13.203125 4.296875 
C 13.203125 6.984375 14.40625 9.984375 15.5 12.96875 
L 22.5 31.53125 
C 22.796875 32.328125 23.5 34.125 23.5 36.015625 
C 23.5 40.21875 20.5 44 15.59375 44 
C 6.40625 44 2.703125 29.53125 2.703125 28.734375 
C 2.703125 28.34375 3.09375 27.84375 3.796875 27.84375 
C 4.703125 27.84375 4.796875 28.234375 5.203125 29.625 
C 7.59375 37.9375 11.40625 41.90625 15.296875 41.90625 
C 16.203125 41.90625 17.90625 41.90625 17.90625 38.71875 
C 17.90625 36.125 16.59375 32.828125 15.796875 30.640625 
L 8.796875 12.078125 
C 8.203125 10.484375 7.59375 8.875 7.59375 7.078125 
C 7.59375 2.59375 10.703125 -1 15.5 -1 
C 24.703125 -1 28.296875 13.578125 28.296875 14.265625 
z
M 27.5 62.703125 
C 27.5 64.203125 26.296875 66 24.09375 66 
C 21.796875 66 19.203125 63.796875 19.203125 61.203125 
C 19.203125 58.71875 21.296875 57.921875 22.5 57.921875 
C 25.203125 57.921875 27.5 60.515625 27.5 62.703125 
z
" id="CMMI12-105"/>
       <path d="M 20.59375 29.234375 
C 20.796875 29.84375 23.296875 34.828125 27 38.015625 
C 29.59375 40.40625 33 42.015625 36.90625 42.015625 
C 40.90625 42.015625 42.296875 39.015625 42.296875 35.03125 
C 42.296875 34.421875 42.296875 32.4375 41.09375 27.734375 
L 38.59375 17.46875 
C 37.796875 14.46875 35.90625 7.078125 35.703125 5.984375 
C 35.296875 4.484375 34.703125 1.890625 34.703125 1.5 
C 34.703125 0.09375 35.796875 -1 37.296875 -1 
C 40.296875 -1 40.796875 1.296875 41.703125 4.890625 
L 47.703125 28.734375 
C 47.90625 29.53125 53.09375 42.015625 64.09375 42.015625 
C 68.09375 42.015625 69.5 39.015625 69.5 35.03125 
C 69.5 29.4375 65.59375 18.5625 63.40625 12.578125 
C 62.5 10.171875 62 8.875 62 7.078125 
C 62 2.59375 65.09375 -1 69.90625 -1 
C 79.203125 -1 82.703125 13.671875 82.703125 14.265625 
C 82.703125 14.765625 82.296875 15.171875 81.703125 15.171875 
C 80.796875 15.171875 80.703125 14.875 80.203125 13.171875 
C 77.90625 5.1875 74.203125 1 70.203125 1 
C 69.203125 1 67.59375 1 67.59375 4.203125 
C 67.59375 6.8125 68.796875 10 69.203125 11.09375 
C 71 15.90625 75.5 27.703125 75.5 33.515625 
C 75.5 39.5 72 44 64.40625 44 
C 57.703125 44 52.296875 40.21875 48.296875 34.328125 
C 48 39.71875 44.703125 44 37.203125 44 
C 28.296875 44 23.59375 37.734375 21.796875 35.234375 
C 21.5 40.90625 17.40625 44 13 44 
C 10.09375 44 7.796875 42.609375 5.90625 38.8125 
C 4.09375 35.21875 2.703125 29.140625 2.703125 28.734375 
C 2.703125 28.34375 3.09375 27.84375 3.796875 27.84375 
C 4.59375 27.84375 4.703125 27.9375 5.296875 30.234375 
C 6.796875 36.125 8.703125 42.015625 12.703125 42.015625 
C 15 42.015625 15.796875 40.40625 15.796875 37.421875 
C 15.796875 35.21875 14.796875 31.328125 14.09375 28.234375 
L 11.296875 17.46875 
C 10.90625 15.5625 9.796875 11.078125 9.296875 9.28125 
C 8.59375 6.6875 7.5 2 7.5 1.5 
C 7.5 0.09375 8.59375 -1 10.09375 -1 
C 11.296875 -1 12.703125 -0.40625 13.5 1.09375 
C 13.703125 1.59375 14.59375 5.09375 15.09375 7.078125 
L 17.296875 16.0625 
z
" id="CMMI12-109"/>
      </defs>
      <use transform="scale(0.996264)" xlink:href="#CMMI12-105"/>
      <use transform="translate(33.278602 0)scale(0.996264)" xlink:href="#CMMI12-109"/>
      <use transform="translate(118.605826 0)scale(0.996264)" xlink:href="#CMR17-40"/>
      <use transform="translate(153.886594 0)scale(0.996264)" xlink:href="#CMMI12-84"/>
      <use transform="translate(224.610226 0)scale(0.996264)" xlink:href="#CMR17-41"/>
     </g>
    </g>
   </g>
  </g>
 </g>
 <defs>
  <clipPath id="p3b415001b0">
   <rect height="664.2" width="590.4" x="108" y="56.7"/>
  </clipPath>
 </defs>
</svg>
