<?xml version="1.0" encoding="utf-8" standalone="no"?>
<!DOCTYPE svg PUBLIC "-//W3C//DTD SVG 1.1//EN"
  "http://www.w3.org/Graphics/SVG/1.1/DTD/svg11.dtd">
<!-- Created with matplotlib (https://matplotlib.org/) -->
<svg height="810pt" version="1.1" viewBox="0 0 720 810" width="720pt" xmlns="http://www.w3.org/2000/svg" xmlns:xlink="http://www.w3.org/1999/xlink">
 <metadata>
  <rdf:RDF xmlns:cc="http://creativecommons.org/ns#" xmlns:dc="http://purl.org/dc/elements/1.1/" xmlns:rdf="http://www.w3.org/1999/02/22-rdf-syntax-ns#">
   <cc:Work>
    <dc:type rdf:resource="http://purl.org/dc/dcmitype/StillImage"/>
    <dc:date>2021-01-18T15:03:00.834562</dc:date>
    <dc:format>image/svg+xml</dc:format>
    <dc:creator>
     <cc:Agent>
      <dc:title>Matplotlib v3.3.1, https://matplotlib.org/</dc:title>
     </cc:Agent>
    </dc:creator>
   </cc:Work>
  </rdf:RDF>
 </metadata>
 <defs>
  <style type="text/css">*{stroke-linecap:butt;stroke-linejoin:round;}</style>
 </defs>
 <g id="figure_1">
  <g id="patch_1">
   <path d="M 0 810 
L 720 810 
L 720 0 
L 0 0 
z
" style="fill:#ffffff;"/>
  </g>
  <g id="axes_1">
   <g id="patch_2">
    <path d="M 108 720.9 
L 698.4 720.9 
L 698.4 56.7 
L 108 56.7 
z
" style="fill:#ffffff;"/>
   </g>
   <g id="matplotlib.axis_1">
    <g id="xtick_1">
     <g id="line2d_1">
      <path clip-path="url(#p5f20771111)" d="M 156.793388 720.9 
L 156.793388 56.7 
" style="fill:none;stroke:#e6e6e6;stroke-linecap:square;stroke-width:0.8;"/>
     </g>
     <g id="line2d_2">
      <defs>
       <path d="M 0 0 
L 0 -3.5 
" id="m8dabbec58b" style="stroke:#000000;stroke-width:0.8;"/>
      </defs>
      <g>
       <use style="stroke:#000000;stroke-width:0.8;" x="156.793388" xlink:href="#m8dabbec58b" y="720.9"/>
      </g>
     </g>
     <g id="text_1">
      <!-- $\mathdefault{0}$ -->
      <g transform="translate(153.13527 734.777725)scale(0.15 -0.15)">
       <defs>
        <path d="M 42 31.640625 
C 42 37.75 41.90625 48.125 37.703125 56.109375 
C 34 63.109375 28.09375 65.59375 22.90625 65.59375 
C 18.09375 65.59375 12 63.40625 8.203125 56.203125 
C 4.203125 48.71875 3.796875 39.4375 3.796875 31.640625 
C 3.796875 25.953125 3.90625 17.28125 7 9.671875 
C 11.296875 -0.609375 19 -2 22.90625 -2 
C 27.5 -2 34.5 -0.109375 38.59375 9.375 
C 41.59375 16.28125 42 24.359375 42 31.640625 
z
M 22.90625 -0.40625 
C 16.5 -0.40625 12.703125 5.078125 11.296875 12.6875 
C 10.203125 18.5625 10.203125 27.15625 10.203125 32.75 
C 10.203125 40.4375 10.203125 46.828125 11.5 52.921875 
C 13.40625 61.390625 19 64 22.90625 64 
C 27 64 32.296875 61.296875 34.203125 53.125 
C 35.5 47.4375 35.59375 40.734375 35.59375 32.75 
C 35.59375 26.25 35.59375 18.265625 34.40625 12.375 
C 32.296875 1.484375 26.40625 -0.40625 22.90625 -0.40625 
z
" id="CMR17-48"/>
       </defs>
       <use transform="scale(0.996264)" xlink:href="#CMR17-48"/>
      </g>
     </g>
    </g>
    <g id="xtick_2">
     <g id="line2d_3">
      <path clip-path="url(#p5f20771111)" d="M 278.77686 720.9 
L 278.77686 56.7 
" style="fill:none;stroke:#e6e6e6;stroke-linecap:square;stroke-width:0.8;"/>
     </g>
     <g id="line2d_4">
      <g>
       <use style="stroke:#000000;stroke-width:0.8;" x="278.77686" xlink:href="#m8dabbec58b" y="720.9"/>
      </g>
     </g>
     <g id="text_2">
      <!-- $\mathdefault{100}$ -->
      <g transform="translate(267.802503 734.777725)scale(0.15 -0.15)">
       <defs>
        <path d="M 26.59375 63.40625 
C 26.59375 65.5 26.5 65.5 25.09375 65.5 
C 21.203125 61.1875 15.296875 59.796875 9.703125 59.796875 
C 9.40625 59.796875 8.90625 59.796875 8.796875 59.5 
C 8.703125 59.296875 8.703125 59.09375 8.703125 57 
C 11.796875 57 17 57.59375 21 59.984375 
L 21 7.203125 
C 21 3.6875 20.796875 2.5 12.203125 2.5 
L 9.203125 2.5 
L 9.203125 0 
C 14 0 19 0 23.796875 0 
C 28.59375 0 33.59375 0 38.40625 0 
L 38.40625 2.5 
L 35.40625 2.5 
C 26.796875 2.5 26.59375 3.59375 26.59375 7.15625 
z
" id="CMR17-49"/>
       </defs>
       <use transform="scale(0.996264)" xlink:href="#CMR17-49"/>
       <use transform="translate(45.690477 0)scale(0.996264)" xlink:href="#CMR17-48"/>
       <use transform="translate(91.380954 0)scale(0.996264)" xlink:href="#CMR17-48"/>
      </g>
     </g>
    </g>
    <g id="xtick_3">
     <g id="line2d_5">
      <path clip-path="url(#p5f20771111)" d="M 400.760331 720.9 
L 400.760331 56.7 
" style="fill:none;stroke:#e6e6e6;stroke-linecap:square;stroke-width:0.8;"/>
     </g>
     <g id="line2d_6">
      <g>
       <use style="stroke:#000000;stroke-width:0.8;" x="400.760331" xlink:href="#m8dabbec58b" y="720.9"/>
      </g>
     </g>
     <g id="text_3">
      <!-- $\mathdefault{200}$ -->
      <g transform="translate(389.785974 734.777725)scale(0.15 -0.15)">
       <defs>
        <path d="M 41.703125 15.453125 
L 39.90625 15.453125 
C 38.90625 8.375 38.09375 7.171875 37.703125 6.5625 
C 37.203125 5.765625 30 5.765625 28.59375 5.765625 
L 9.40625 5.765625 
C 13 9.671875 20 16.75 28.5 24.953125 
C 34.59375 30.734375 41.703125 37.53125 41.703125 47.421875 
C 41.703125 59.21875 32.296875 66 21.796875 66 
C 10.796875 66 4.09375 56.3125 4.09375 47.34375 
C 4.09375 43.4375 7 42.9375 8.203125 42.9375 
C 9.203125 42.9375 12.203125 43.546875 12.203125 47.03125 
C 12.203125 50.109375 9.59375 51 8.203125 51 
C 7.59375 51 7 50.90625 6.59375 50.703125 
C 8.5 59.21875 14.296875 63.40625 20.40625 63.40625 
C 29.09375 63.40625 34.796875 56.515625 34.796875 47.421875 
C 34.796875 38.734375 29.703125 31.25 24 24.75 
L 4.09375 2.28125 
L 4.09375 0 
L 39.296875 0 
z
" id="CMR17-50"/>
       </defs>
       <use transform="scale(0.996264)" xlink:href="#CMR17-50"/>
       <use transform="translate(45.690477 0)scale(0.996264)" xlink:href="#CMR17-48"/>
       <use transform="translate(91.380954 0)scale(0.996264)" xlink:href="#CMR17-48"/>
      </g>
     </g>
    </g>
    <g id="xtick_4">
     <g id="line2d_7">
      <path clip-path="url(#p5f20771111)" d="M 522.743802 720.9 
L 522.743802 56.7 
" style="fill:none;stroke:#e6e6e6;stroke-linecap:square;stroke-width:0.8;"/>
     </g>
     <g id="line2d_8">
      <g>
       <use style="stroke:#000000;stroke-width:0.8;" x="522.743802" xlink:href="#m8dabbec58b" y="720.9"/>
      </g>
     </g>
     <g id="text_4">
      <!-- $\mathdefault{300}$ -->
      <g transform="translate(511.769445 734.777725)scale(0.15 -0.15)">
       <defs>
        <path d="M 22.09375 33.703125 
C 31 33.703125 34.90625 25.96875 34.90625 17.03125 
C 34.90625 5 28.5 0.390625 22.703125 0.390625 
C 17.40625 0.390625 8.796875 3.03125 6.09375 10.828125 
C 6.59375 10.625 7.09375 10.625 7.59375 10.625 
C 10 10.625 11.796875 12.21875 11.796875 14.8125 
C 11.796875 17.703125 9.59375 19 7.59375 19 
C 5.90625 19 3.296875 18.203125 3.296875 14.46875 
C 3.296875 5.234375 12.296875 -2 22.90625 -2 
C 34 -2 42.5 6.71875 42.5 16.953125 
C 42.5 26.671875 34.5 33.703125 25 34.796875 
C 32.59375 36.375 39.90625 43.0625 39.90625 52.015625 
C 39.90625 59.6875 32 65.296875 23 65.296875 
C 13.90625 65.296875 5.90625 59.828125 5.90625 52.015625 
C 5.90625 48.59375 8.5 48 9.796875 48 
C 11.90625 48 13.703125 49.296875 13.703125 51.890625 
C 13.703125 54.46875 11.90625 55.765625 9.796875 55.765625 
C 9.40625 55.765625 8.90625 55.765625 8.5 55.578125 
C 11.40625 61.859375 19.296875 63 22.796875 63 
C 26.296875 63 32.90625 61.328125 32.90625 51.875 
C 32.90625 49.109375 32.5 44.1875 29.09375 39.84375 
C 26.09375 36 22.703125 36 19.40625 35.6875 
C 18.90625 35.6875 16.59375 35.453125 16.203125 35.453125 
C 15.5 35.359375 15.09375 35.265625 15.09375 34.5 
C 15.09375 33.796875 15.203125 33.703125 17.203125 33.703125 
z
" id="CMR17-51"/>
       </defs>
       <use transform="scale(0.996264)" xlink:href="#CMR17-51"/>
       <use transform="translate(45.690477 0)scale(0.996264)" xlink:href="#CMR17-48"/>
       <use transform="translate(91.380954 0)scale(0.996264)" xlink:href="#CMR17-48"/>
      </g>
     </g>
    </g>
    <g id="xtick_5">
     <g id="line2d_9">
      <path clip-path="url(#p5f20771111)" d="M 644.727273 720.9 
L 644.727273 56.7 
" style="fill:none;stroke:#e6e6e6;stroke-linecap:square;stroke-width:0.8;"/>
     </g>
     <g id="line2d_10">
      <g>
       <use style="stroke:#000000;stroke-width:0.8;" x="644.727273" xlink:href="#m8dabbec58b" y="720.9"/>
      </g>
     </g>
     <g id="text_5">
      <!-- $\mathdefault{400}$ -->
      <g transform="translate(633.752916 734.777725)scale(0.15 -0.15)">
       <defs>
        <path d="M 33.59375 64.40625 
C 33.59375 66.5 33.5 66.5 31.703125 66.5 
L 2 19.59375 
L 2 17 
L 27.796875 17 
L 27.796875 7.140625 
C 27.796875 3.5 27.59375 2.5 20.59375 2.5 
L 18.703125 2.5 
L 18.703125 0 
C 21.90625 0 27.296875 0 30.703125 0 
C 34.09375 0 39.5 0 42.703125 0 
L 42.703125 2.5 
L 40.796875 2.5 
C 33.796875 2.5 33.59375 3.5 33.59375 7.140625 
L 33.59375 17 
L 43.796875 17 
L 43.796875 19.59375 
L 33.59375 19.59375 
z
M 28.09375 57.859375 
L 28.09375 19.59375 
L 4 19.59375 
z
" id="CMR17-52"/>
       </defs>
       <use transform="scale(0.996264)" xlink:href="#CMR17-52"/>
       <use transform="translate(45.690477 0)scale(0.996264)" xlink:href="#CMR17-48"/>
       <use transform="translate(91.380954 0)scale(0.996264)" xlink:href="#CMR17-48"/>
      </g>
     </g>
    </g>
    <g id="text_6">
     <!-- $z(\AA)$ -->
     <g transform="translate(379.019452 763.384409)scale(0.25 -0.25)">
      <defs>
       <path d="M 12.703125 7.59375 
C 17 12.546875 20.5 15.6875 25.5 20.25 
C 31.5 25.5 34.09375 28.015625 35.5 29.546875 
C 42.5 36.53125 46 42.390625 46 43.1875 
C 46 44 45.203125 44 45 44 
C 44.296875 44 44.09375 43.640625 43.59375 42.96875 
C 41.09375 38.96875 38.703125 36.984375 36.09375 36.984375 
C 34 36.984375 32.90625 37.828125 31 40.078125 
C 28.90625 42.421875 27.203125 44 24.296875 44 
C 17 44 12.59375 35.265625 12.59375 33.25 
C 12.59375 32.9375 12.703125 32.3125 13.59375 32.3125 
C 14.40625 32.3125 14.5 32.671875 14.796875 33.328125 
C 16.5 37.0625 21.296875 37.71875 23.203125 37.71875 
C 25.296875 37.71875 27.296875 37.125 29.40625 36.359375 
C 33.203125 35 34.796875 35 35.796875 35 
C 36.5 35 36.90625 35 37.40625 35.09375 
C 34.09375 31.15625 28.703125 26.296875 24.203125 22.15625 
L 14.09375 12.75 
C 8 6.484375 4.296875 0.515625 4.296875 -0.1875 
C 4.296875 -0.796875 4.796875 -1 5.40625 -1 
C 6 -1 6.09375 -0.890625 6.796875 0.21875 
C 8.40625 2.546875 11.59375 6 15.296875 6 
C 17.40625 6 18.40625 5.34375 20.40625 3.015625 
C 22.296875 0.953125 24 -1 27.203125 -1 
C 37 -1 42.59375 11.4375 42.59375 13.6875 
C 42.59375 14.109375 42.5 14.71875 41.5 14.71875 
C 40.703125 14.71875 40.59375 14.328125 40.296875 13.359375 
C 38.09375 7.625 32.203125 5.28125 28.296875 5.28125 
C 26.203125 5.28125 24.203125 5.875 22.09375 6.640625 
C 18.09375 8 17 8 15.703125 8 
C 14.703125 8 13.59375 8 12.703125 7.59375 
z
" id="CMMI12-122"/>
       <path d="M 30.59375 -24.390625 
C 30.59375 -24.296875 30.59375 -24.09375 30.296875 -23.796875 
C 25.703125 -19.125 13.40625 -6.359375 13.40625 24.703125 
C 13.40625 55.765625 25.5 68.421875 30.40625 73.390625 
C 30.40625 73.5 30.59375 73.703125 30.59375 74 
C 30.59375 74.296875 30.296875 74.5 29.90625 74.5 
C 28.796875 74.5 20.296875 67.125 15.40625 56.15625 
C 10.40625 45.109375 9 34.359375 9 24.8125 
C 9 17.625 9.703125 5.484375 15.703125 -7.359375 
C 20.5 -17.734375 28.703125 -25 29.90625 -25 
C 30.40625 -25 30.59375 -24.796875 30.59375 -24.390625 
z
" id="CMR17-40"/>
       <path d="M 41.703125 60.75 
C 41.703125 65.3125 37.203125 69.46875 31.203125 69.46875 
C 25.203125 69.46875 20.703125 65.3125 20.703125 60.75 
C 20.703125 56.171875 25.203125 52 31.203125 52 
C 37.203125 52 41.703125 56.171875 41.703125 60.75 
z
M 31.203125 56.484375 
C 29 56.484375 26 57.171875 26 60.734375 
C 26 64.09375 28.703125 65 31.203125 65 
C 33.40625 65 36.40625 64.296875 36.40625 60.734375 
C 36.40625 57.375 33.703125 56.484375 31.203125 56.484375 
z
" id="CMSS17-23"/>
       <path d="M 17 10.796875 
C 13.5 4.90625 10.09375 2.90625 5.296875 2.90625 
C 4.203125 2.8125 3.40625 2.8125 3.40625 0.90625 
C 3.40625 0.375 3.90625 0 4.59375 0 
C 6.40625 0 10.90625 0 12.703125 0 
C 15.59375 0 18.796875 0 21.59375 0 
C 22.203125 0 23.40625 0 23.40625 1.90625 
C 23.40625 2.8125 22.59375 2.90625 22 2.90625 
C 19.703125 2.90625 17.796875 3.6875 17.796875 6.0625 
C 17.796875 7.4375 18.40625 8.53125 19.703125 10.703125 
L 27.296875 23.109375 
L 52.796875 23.109375 
C 52.90625 22.234375 52.90625 21.453125 53 20.5625 
C 53.296875 18 54.5 7.734375 54.5 5.875 
C 54.5 2.90625 49.40625 2.90625 47.796875 2.90625 
C 46.703125 2.90625 45.59375 2.90625 45.59375 1.09375 
C 45.59375 0 46.5 0 47.09375 0 
C 48.796875 0 50.796875 0 52.5 0 
L 58.203125 0 
C 64.296875 0 68.703125 0 68.796875 0 
C 69.5 0 70.59375 0 70.59375 1.90625 
C 70.59375 2.90625 69.703125 2.90625 68.203125 2.90625 
C 62.703125 2.90625 62.59375 3.8125 62.296875 6.78125 
L 56.203125 68.8125 
C 56 70.796875 55.59375 71 54.5 71 
C 53.5 71 52.90625 70.796875 52 69.296875 
z
M 29 26 
L 49.09375 59.671875 
L 52.5 26 
z
" id="CMMI12-65"/>
       <path d="M 26.296875 24.703125 
C 26.296875 31.875 25.59375 44.015625 19.59375 56.859375 
C 14.796875 67.234375 6.59375 74.5 5.40625 74.5 
C 5.09375 74.5 4.703125 74.390625 4.703125 73.890625 
C 4.703125 73.703125 4.796875 73.59375 4.90625 73.390625 
C 9.703125 68.40625 21.90625 55.75 21.90625 24.75 
C 21.90625 -6.359375 9.796875 -19.015625 4.90625 -24.015625 
C 4.796875 -24.203125 4.703125 -24.3125 4.703125 -24.5 
C 4.703125 -25 5.09375 -25 5.40625 -25 
C 6.5 -25 15 -17.625 19.90625 -6.65625 
C 24.90625 4.390625 26.296875 15.140625 26.296875 24.703125 
z
" id="CMR17-41"/>
      </defs>
      <use transform="scale(0.996264)" xlink:href="#CMMI12-122"/>
      <use transform="translate(49.755145 0)scale(0.996264)" xlink:href="#CMR17-40"/>
      <use transform="translate(85.035913 17.618744)scale(0.996264)" xlink:href="#CMSS17-23"/>
      <use transform="translate(85.035913 0)scale(0.996264)" xlink:href="#CMMI12-65"/>
      <use transform="translate(158.163798 0)scale(0.996264)" xlink:href="#CMR17-41"/>
     </g>
    </g>
   </g>
   <g id="matplotlib.axis_2">
    <g id="ytick_1">
     <g id="line2d_11">
      <path clip-path="url(#p5f20771111)" d="M 108 663.26281 
L 698.4 663.26281 
" style="fill:none;stroke:#e6e6e6;stroke-linecap:square;stroke-width:0.8;"/>
     </g>
     <g id="line2d_12">
      <defs>
       <path d="M 0 0 
L 3.5 0 
" id="m5741709a13" style="stroke:#000000;stroke-width:0.8;"/>
      </defs>
      <g>
       <use style="stroke:#000000;stroke-width:0.8;" x="108" xlink:href="#m5741709a13" y="663.26281"/>
      </g>
     </g>
     <g id="text_7">
      <!-- $\mathdefault{0.000}$ -->
      <g transform="translate(71.170472 668.451672)scale(0.15 -0.15)">
       <defs>
        <path d="M 18.40625 4.796875 
C 18.40625 7.6875 16 9.671875 13.59375 9.671875 
C 10.703125 9.671875 8.703125 7.28125 8.703125 4.890625 
C 8.703125 2 11.09375 0 13.5 0 
C 16.40625 0 18.40625 2.390625 18.40625 4.796875 
z
" id="CMMI12-58"/>
       </defs>
       <use transform="scale(0.996264)" xlink:href="#CMR17-48"/>
       <use transform="translate(45.690477 0)scale(0.996264)" xlink:href="#CMMI12-58"/>
       <use transform="translate(72.787654 0)scale(0.996264)" xlink:href="#CMR17-48"/>
       <use transform="translate(118.478131 0)scale(0.996264)" xlink:href="#CMR17-48"/>
       <use transform="translate(164.168608 0)scale(0.996264)" xlink:href="#CMR17-48"/>
      </g>
     </g>
    </g>
    <g id="ytick_2">
     <g id="line2d_13">
      <path clip-path="url(#p5f20771111)" d="M 108 576.274274 
L 698.4 576.274274 
" style="fill:none;stroke:#e6e6e6;stroke-linecap:square;stroke-width:0.8;"/>
     </g>
     <g id="line2d_14">
      <g>
       <use style="stroke:#000000;stroke-width:0.8;" x="108" xlink:href="#m5741709a13" y="576.274274"/>
      </g>
     </g>
     <g id="text_8">
      <!-- $\mathdefault{0.025}$ -->
      <g transform="translate(71.170472 581.463137)scale(0.15 -0.15)">
       <defs>
        <path d="M 11.40625 57.6875 
C 12.40625 57.28125 16.5 56 20.703125 56 
C 30 56 35.09375 61.109375 38 64.0625 
C 38 64.953125 38 65.5 37.40625 65.5 
C 37.296875 65.5 37.09375 65.5 36.296875 65.046875 
C 32.796875 63.40625 28.703125 62.078125 23.703125 62.078125 
C 20.703125 62.078125 16.203125 62.484375 11.296875 64.671875 
C 10.203125 65.171875 10 65.171875 9.90625 65.171875 
C 9.40625 65.171875 9.296875 65.0625 9.296875 63.078125 
L 9.296875 34.421875 
C 9.296875 32.640625 9.296875 32.140625 10.296875 32.140625 
C 10.796875 32.140625 11 32.34375 11.5 33.03125 
C 14.703125 37.515625 19.09375 39.40625 24.09375 39.40625 
C 27.59375 39.40625 35.09375 37.21875 35.09375 20.140625 
C 35.09375 16.953125 35.09375 11.171875 32.09375 6.578125 
C 29.59375 2.484375 25.703125 0.390625 21.40625 0.390625 
C 14.796875 0.390625 8.09375 5 6.296875 12.71875 
C 6.703125 12.609375 7.5 12.421875 7.90625 12.421875 
C 9.203125 12.421875 11.703125 13.125 11.703125 16.21875 
C 11.703125 18.90625 9.796875 20 7.90625 20 
C 5.59375 20 4.09375 18.59375 4.09375 15.796875 
C 4.09375 7.09375 11 -2 21.59375 -2 
C 31.90625 -2 41.703125 6.875 41.703125 19.75 
C 41.703125 31.71875 33.90625 41 24.203125 41 
C 19.09375 41 14.796875 39.109375 11.40625 35.53125 
z
" id="CMR17-53"/>
       </defs>
       <use transform="scale(0.996264)" xlink:href="#CMR17-48"/>
       <use transform="translate(45.690477 0)scale(0.996264)" xlink:href="#CMMI12-58"/>
       <use transform="translate(72.787654 0)scale(0.996264)" xlink:href="#CMR17-48"/>
       <use transform="translate(118.478131 0)scale(0.996264)" xlink:href="#CMR17-50"/>
       <use transform="translate(164.168608 0)scale(0.996264)" xlink:href="#CMR17-53"/>
      </g>
     </g>
    </g>
    <g id="ytick_3">
     <g id="line2d_15">
      <path clip-path="url(#p5f20771111)" d="M 108 489.285738 
L 698.4 489.285738 
" style="fill:none;stroke:#e6e6e6;stroke-linecap:square;stroke-width:0.8;"/>
     </g>
     <g id="line2d_16">
      <g>
       <use style="stroke:#000000;stroke-width:0.8;" x="108" xlink:href="#m5741709a13" y="489.285738"/>
      </g>
     </g>
     <g id="text_9">
      <!-- $\mathdefault{0.050}$ -->
      <g transform="translate(71.170472 494.474601)scale(0.15 -0.15)">
       <use transform="scale(0.996264)" xlink:href="#CMR17-48"/>
       <use transform="translate(45.690477 0)scale(0.996264)" xlink:href="#CMMI12-58"/>
       <use transform="translate(72.787654 0)scale(0.996264)" xlink:href="#CMR17-48"/>
       <use transform="translate(118.478131 0)scale(0.996264)" xlink:href="#CMR17-53"/>
       <use transform="translate(164.168608 0)scale(0.996264)" xlink:href="#CMR17-48"/>
      </g>
     </g>
    </g>
    <g id="ytick_4">
     <g id="line2d_17">
      <path clip-path="url(#p5f20771111)" d="M 108 402.297203 
L 698.4 402.297203 
" style="fill:none;stroke:#e6e6e6;stroke-linecap:square;stroke-width:0.8;"/>
     </g>
     <g id="line2d_18">
      <g>
       <use style="stroke:#000000;stroke-width:0.8;" x="108" xlink:href="#m5741709a13" y="402.297203"/>
      </g>
     </g>
     <g id="text_10">
      <!-- $\mathdefault{0.075}$ -->
      <g transform="translate(71.170472 407.486065)scale(0.15 -0.15)">
       <defs>
        <path d="M 45.09375 61.578125 
L 45.09375 63.765625 
L 21.59375 63.765625 
C 9.90625 63.765625 9.703125 65.078125 9.296875 67 
L 7.5 67 
L 4.59375 48.34375 
L 6.40625 48.34375 
C 6.703125 50.234375 7.40625 55.3125 8.59375 57.203125 
C 9.203125 58 16.59375 58 18.296875 58 
L 40.296875 58 
L 29.203125 41.578125 
C 21.796875 30.53125 16.703125 15.609375 16.703125 2.578125 
C 16.703125 1.390625 16.703125 -2 20.296875 -2 
C 23.90625 -2 23.90625 1.390625 23.90625 2.671875 
L 23.90625 7.265625 
C 23.90625 23.5625 26.703125 34.3125 31.296875 41.1875 
z
" id="CMR17-55"/>
       </defs>
       <use transform="scale(0.996264)" xlink:href="#CMR17-48"/>
       <use transform="translate(45.690477 0)scale(0.996264)" xlink:href="#CMMI12-58"/>
       <use transform="translate(72.787654 0)scale(0.996264)" xlink:href="#CMR17-48"/>
       <use transform="translate(118.478131 0)scale(0.996264)" xlink:href="#CMR17-55"/>
       <use transform="translate(164.168608 0)scale(0.996264)" xlink:href="#CMR17-53"/>
      </g>
     </g>
    </g>
    <g id="ytick_5">
     <g id="line2d_19">
      <path clip-path="url(#p5f20771111)" d="M 108 315.308667 
L 698.4 315.308667 
" style="fill:none;stroke:#e6e6e6;stroke-linecap:square;stroke-width:0.8;"/>
     </g>
     <g id="line2d_20">
      <g>
       <use style="stroke:#000000;stroke-width:0.8;" x="108" xlink:href="#m5741709a13" y="315.308667"/>
      </g>
     </g>
     <g id="text_11">
      <!-- $\mathdefault{0.100}$ -->
      <g transform="translate(71.170472 320.497529)scale(0.15 -0.15)">
       <use transform="scale(0.996264)" xlink:href="#CMR17-48"/>
       <use transform="translate(45.690477 0)scale(0.996264)" xlink:href="#CMMI12-58"/>
       <use transform="translate(72.787654 0)scale(0.996264)" xlink:href="#CMR17-49"/>
       <use transform="translate(118.478131 0)scale(0.996264)" xlink:href="#CMR17-48"/>
       <use transform="translate(164.168608 0)scale(0.996264)" xlink:href="#CMR17-48"/>
      </g>
     </g>
    </g>
    <g id="ytick_6">
     <g id="line2d_21">
      <path clip-path="url(#p5f20771111)" d="M 108 228.320131 
L 698.4 228.320131 
" style="fill:none;stroke:#e6e6e6;stroke-linecap:square;stroke-width:0.8;"/>
     </g>
     <g id="line2d_22">
      <g>
       <use style="stroke:#000000;stroke-width:0.8;" x="108" xlink:href="#m5741709a13" y="228.320131"/>
      </g>
     </g>
     <g id="text_12">
      <!-- $\mathdefault{0.125}$ -->
      <g transform="translate(71.170472 233.508993)scale(0.15 -0.15)">
       <use transform="scale(0.996264)" xlink:href="#CMR17-48"/>
       <use transform="translate(45.690477 0)scale(0.996264)" xlink:href="#CMMI12-58"/>
       <use transform="translate(72.787654 0)scale(0.996264)" xlink:href="#CMR17-49"/>
       <use transform="translate(118.478131 0)scale(0.996264)" xlink:href="#CMR17-50"/>
       <use transform="translate(164.168608 0)scale(0.996264)" xlink:href="#CMR17-53"/>
      </g>
     </g>
    </g>
    <g id="ytick_7">
     <g id="line2d_23">
      <path clip-path="url(#p5f20771111)" d="M 108 141.331595 
L 698.4 141.331595 
" style="fill:none;stroke:#e6e6e6;stroke-linecap:square;stroke-width:0.8;"/>
     </g>
     <g id="line2d_24">
      <g>
       <use style="stroke:#000000;stroke-width:0.8;" x="108" xlink:href="#m5741709a13" y="141.331595"/>
      </g>
     </g>
     <g id="text_13">
      <!-- $\mathdefault{0.150}$ -->
      <g transform="translate(71.170472 146.520458)scale(0.15 -0.15)">
       <use transform="scale(0.996264)" xlink:href="#CMR17-48"/>
       <use transform="translate(45.690477 0)scale(0.996264)" xlink:href="#CMMI12-58"/>
       <use transform="translate(72.787654 0)scale(0.996264)" xlink:href="#CMR17-49"/>
       <use transform="translate(118.478131 0)scale(0.996264)" xlink:href="#CMR17-53"/>
       <use transform="translate(164.168608 0)scale(0.996264)" xlink:href="#CMR17-48"/>
      </g>
     </g>
    </g>
    <g id="text_14">
     <!-- $I_b$ -->
     <g transform="translate(62.325938 397.80714)rotate(-90)scale(0.25 -0.25)">
      <defs>
       <path d="M 36.796875 60.625 
C 37.703125 64.109375 37.90625 65.109375 45.203125 65.109375 
C 47.40625 65.109375 48.203125 65.109375 48.203125 67 
C 48.203125 68 47.09375 68 46.796875 68 
C 45 68 42.796875 68 41 68 
L 28.703125 68 
C 26.703125 68 24.40625 68 22.40625 68 
C 21.59375 68 20.5 68 20.5 66.109375 
C 20.5 65.109375 21.296875 65.109375 23.296875 65.109375 
C 29.5 65.109375 29.5 64.3125 29.5 63.21875 
C 29.5 62.53125 29.296875 61.921875 29.09375 61.03125 
L 15.59375 7.375 
C 14.703125 3.890625 14.5 2.890625 7.203125 2.890625 
C 5 2.890625 4.09375 2.890625 4.09375 1 
C 4.09375 0 5.09375 0 5.59375 0 
C 7.40625 0 9.59375 0 11.40625 0 
L 23.703125 0 
C 25.703125 0 27.90625 0 29.90625 0 
C 30.703125 0 31.90625 0 31.90625 1.796875 
C 31.90625 2.890625 31.296875 2.890625 29.09375 2.890625 
C 22.90625 2.890625 22.90625 3.6875 22.90625 4.875 
C 22.90625 5.078125 22.90625 5.578125 23.296875 7.171875 
z
" id="CMMI12-73"/>
       <path d="M 23.09375 66.515625 
C 23.203125 66.921875 23.40625 67.515625 23.40625 68 
C 23.40625 69 22.40625 69 22.203125 69 
C 22.09375 69 18.5 68.640625 16.703125 68.390625 
C 15 68.390625 13.5 68.09375 11.703125 68.09375 
C 9.296875 67.890625 8.59375 67.796875 8.59375 66 
C 8.59375 65 9.59375 65 10.59375 65 
C 15.703125 65 15.703125 64.109375 15.703125 63.125 
C 15.703125 62.4375 14.90625 59.546875 14.5 57.75 
L 12.09375 48.203125 
C 11.09375 44.234375 5.40625 21.671875 5 19.875 
C 4.5 17.40625 4.5 15.703125 4.5 14.40625 
C 4.5 4.28125 10.203125 -1 16.703125 -1 
C 28.296875 -1 40.296875 13.875 40.296875 28.34375 
C 40.296875 37.515625 35.09375 44 27.59375 44 
C 22.40625 44 17.703125 39.71875 15.796875 37.71875 
z
M 16.796875 1 
C 13.59375 1 10.09375 3.390625 10.09375 11.171875 
C 10.09375 14.46875 10.40625 16.359375 12.203125 23.34375 
C 12.5 24.640625 14.09375 31.03125 14.5 32.328125 
C 14.703125 33.125 20.59375 42.015625 27.40625 42.015625 
C 31.796875 42.015625 33.796875 37.625 33.796875 32.4375 
C 33.796875 27.640625 31 16.359375 28.5 11.171875 
C 26 5.78125 21.40625 1 16.796875 1 
z
" id="CMMI12-98"/>
      </defs>
      <use transform="scale(0.996264)" xlink:href="#CMMI12-73"/>
      <use transform="translate(43.024176 -14.943915)scale(0.697382)" xlink:href="#CMMI12-98"/>
     </g>
    </g>
   </g>
   <g id="line2d_25">
    <path clip-path="url(#p5f20771111)" d="M 159.233058 663.262656 
L 647.166942 663.248125 
L 647.166942 663.248125 
" style="fill:none;stroke:#004cff;stroke-linecap:square;stroke-width:2;"/>
   </g>
   <g id="line2d_26">
    <path clip-path="url(#p5f20771111)" d="M 159.233058 663.2622 
L 339.768595 663.241178 
L 437.355372 663.259229 
L 647.166942 663.250376 
L 647.166942 663.250376 
" style="fill:none;stroke:#29ffce;stroke-linecap:square;stroke-width:2;"/>
   </g>
   <g id="line2d_27">
    <path clip-path="url(#p5f20771111)" d="M 159.233058 663.262779 
L 647.166942 663.262172 
L 647.166942 663.262172 
" style="fill:none;stroke:#ceff29;stroke-linecap:square;stroke-width:2;"/>
   </g>
   <g id="line2d_28">
    <path clip-path="url(#p5f20771111)" d="M 159.233058 663.262809 
L 647.166942 663.262791 
L 647.166942 663.262791 
" style="fill:none;stroke:#ff6800;stroke-linecap:square;stroke-width:2;"/>
   </g>
   <g id="line2d_29">
    <path clip-path="url(#p5f20771111)" d="M 159.233058 663.26281 
L 647.166942 663.26281 
L 647.166942 663.26281 
" style="fill:none;stroke:#800000;stroke-linecap:square;stroke-width:2;"/>
   </g>
   <g id="line2d_30">
    <path clip-path="url(#p5f20771111)" d="M 159.233058 662.101474 
L 161.672727 658.647742 
L 164.112397 652.992422 
L 166.552066 645.286495 
L 168.991736 635.739875 
L 171.431405 624.619004 
L 173.871074 612.243067 
L 178.750413 585.231268 
L 183.629752 558.048829 
L 186.069421 545.522454 
L 188.509091 534.300816 
L 190.94876 524.797147 
L 193.38843 517.378461 
L 195.828099 512.349503 
L 198.267769 509.937818 
L 200.707438 510.28097 
L 203.147107 513.416926 
L 205.586777 519.278198 
L 208.026446 527.689972 
L 210.466116 538.372438 
L 212.905785 550.947539 
L 215.345455 564.950206 
L 225.104132 623.861252 
L 227.543802 636.259982 
L 229.983471 646.559465 
L 232.42314 654.272808 
L 234.86281 659.004981 
L 237.302479 660.471069 
L 239.742149 658.510168 
L 242.181818 653.094262 
L 244.621488 644.33168 
L 247.061157 632.464989 
L 249.500826 617.863413 
L 251.940496 601.010118 
L 254.380165 582.484866 
L 261.699174 523.655629 
L 264.138843 505.367076 
L 266.578512 488.918175 
L 269.018182 474.943553 
L 271.457851 463.992447 
L 273.897521 456.505626 
L 276.33719 452.795923 
L 278.77686 453.033194 
L 281.216529 457.234391 
L 283.656198 465.259271 
L 286.095868 476.812091 
L 288.535537 491.449431 
L 290.975207 508.594049 
L 293.414876 527.554436 
L 300.733884 587.249104 
L 303.173554 605.220284 
L 305.613223 620.829226 
L 308.052893 633.330093 
L 310.492562 642.085706 
L 312.932231 646.596512 
L 315.371901 646.52469 
L 317.81157 641.712197 
L 320.25124 632.191816 
L 322.690909 618.190507 
L 325.130579 600.124677 
L 327.570248 578.587349 
L 330.009917 554.327537 
L 334.889256 501.243723 
L 339.768595 448.787622 
L 342.208264 425.361946 
L 344.647934 405.079122 
L 347.087603 388.762517 
L 349.527273 377.084022 
L 351.966942 370.532605 
L 354.406612 369.390113 
L 356.846281 373.715394 
L 359.28595 383.33756 
L 361.72562 397.858946 
L 364.165289 416.667933 
L 366.604959 438.961261 
L 369.044628 463.774838 
L 376.363636 542.123699 
L 378.803306 565.607582 
L 381.242975 585.8836 
L 383.682645 601.965746 
L 386.122314 613.030636 
L 388.561983 618.455207 
L 391.001653 617.846348 
L 393.441322 611.061104 
L 395.880992 598.216461 
L 398.320661 579.688175 
L 400.760331 556.098528 
L 403.2 528.293351 
L 405.639669 497.308976 
L 415.398347 366.460398 
L 417.838017 338.545704 
L 420.277686 314.970927 
L 422.717355 296.701363 
L 425.157025 284.487999 
L 427.596694 278.833191 
L 430.036364 279.966382 
L 432.476033 287.830904 
L 434.915702 302.08271 
L 437.355372 322.101501 
L 439.795041 347.014136 
L 442.234711 375.729453 
L 447.11405 439.388638 
L 449.553719 471.497624 
L 451.993388 501.858425 
L 454.433058 529.079519 
L 456.872727 551.88971 
L 459.312397 569.194001 
L 461.752066 580.122279 
L 464.191736 584.068718 
L 466.631405 580.720241 
L 469.071074 570.072746 
L 471.510744 552.434206 
L 473.950413 528.41432 
L 476.390083 498.90111 
L 478.829752 465.025389 
L 483.709091 389.637429 
L 488.58843 314.192629 
L 491.028099 280.296972 
L 493.467769 250.847079 
L 495.907438 227.055795 
L 498.347107 209.904102 
L 500.786777 200.09733 
L 503.226446 198.032865 
L 505.666116 203.780854 
L 508.105785 217.078896 
L 510.545455 237.341014 
L 512.985124 263.680568 
L 515.424793 294.946185 
L 517.864463 329.769227 
L 525.183471 439.885089 
L 527.62314 473.038668 
L 530.06281 501.842762 
L 532.502479 524.9804 
L 534.942149 541.369672 
L 537.381818 550.211391 
L 539.821488 551.024843 
L 542.261157 543.67006 
L 544.700826 528.355598 
L 547.140496 505.6314 
L 549.580165 476.36697 
L 552.019835 441.715746 
L 554.459504 403.067231 
L 561.778512 279.300284 
L 564.218182 241.097815 
L 566.657851 207.135497 
L 569.097521 178.82368 
L 571.53719 157.338905 
L 573.97686 143.572499 
L 576.416529 138.091179 
L 578.856198 141.111454 
L 581.295868 152.488908 
L 583.735537 171.722968 
L 586.175207 197.97718 
L 588.614876 230.114031 
L 591.054545 266.742628 
L 595.933884 347.00508 
L 598.373554 387.158104 
L 600.813223 424.989091 
L 603.252893 458.845293 
L 605.692562 487.23892 
L 608.132231 508.910747 
L 610.571901 522.884145 
L 613.01157 528.507227 
L 615.45124 525.481413 
L 617.890909 513.875262 
L 620.330579 494.12285 
L 622.770248 467.006641 
L 625.209917 433.625315 
L 627.649587 395.347774 
L 632.528926 310.574756 
L 634.968595 267.604694 
L 637.408264 226.638853 
L 639.847934 189.389006 
L 642.287603 157.41176 
L 644.727273 132.042225 
L 647.166942 114.33719 
L 647.166942 114.33719 
" style="fill:none;stroke:#004cff;stroke-linecap:square;stroke-width:2;"/>
   </g>
   <g id="line2d_31">
    <path clip-path="url(#p5f20771111)" d="M 159.233058 662.790008 
L 161.672727 661.385276 
L 164.112397 659.089634 
L 166.552066 655.971322 
L 168.991736 652.125335 
L 171.431405 647.672421 
L 173.871074 642.7573 
L 183.629752 622.012719 
L 186.069421 617.525252 
L 188.509091 613.699561 
L 190.94876 610.701152 
L 193.38843 608.667547 
L 195.828099 607.700867 
L 198.267769 607.861606 
L 200.707438 609.164083 
L 203.147107 611.573904 
L 205.586777 615.007599 
L 208.026446 619.33437 
L 210.466116 624.379921 
L 215.345455 635.750234 
L 220.224793 647.127334 
L 222.664463 652.149144 
L 225.104132 656.386065 
L 227.543802 659.614944 
L 229.983471 661.652601 
L 232.42314 662.36626 
L 234.86281 661.681954 
L 237.302479 659.590266 
L 239.742149 656.148886 
L 242.181818 651.481649 
L 244.621488 645.773955 
L 247.061157 639.264726 
L 256.819835 611.180527 
L 259.259504 605.229498 
L 261.699174 600.287667 
L 264.138843 596.579114 
L 266.578512 594.271018 
L 269.018182 593.465906 
L 271.457851 594.197157 
L 273.897521 596.427903 
L 276.33719 600.053292 
L 278.77686 604.905906 
L 281.216529 610.763996 
L 283.656198 617.362067 
L 290.975207 638.552773 
L 293.414876 645.034881 
L 295.854545 650.735105 
L 298.294215 655.405168 
L 300.733884 658.843062 
L 303.173554 660.901309 
L 305.613223 661.492794 
L 308.052893 660.593982 
L 310.492562 658.24542 
L 312.932231 654.549557 
L 315.371901 649.666009 
L 317.81157 643.804483 
L 320.25124 637.215689 
L 330.009917 609.406866 
L 332.449587 603.573579 
L 334.889256 598.721998 
L 337.328926 595.057741 
L 339.768595 592.736214 
L 342.208264 591.856044 
L 344.647934 592.454904 
L 347.087603 594.507851 
L 349.527273 597.928222 
L 351.966942 602.57115 
L 354.406612 608.239565 
L 356.846281 614.692375 
L 366.604959 642.584277 
L 369.044628 648.573521 
L 371.484298 653.614006 
L 373.923967 657.485028 
L 376.363636 660.014884 
L 378.803306 661.088386 
L 381.242975 660.651971 
L 383.682645 658.716219 
L 386.122314 655.355681 
L 388.561983 650.705958 
L 391.001653 644.958157 
L 393.441322 638.350966 
L 398.320661 623.689392 
L 403.2 609.16507 
L 405.639669 602.728505 
L 408.079339 597.217536 
L 410.519008 592.868204 
L 412.958678 589.867606 
L 415.398347 588.345825 
L 417.838017 588.370201 
L 420.277686 589.942105 
L 422.717355 592.996459 
L 425.157025 597.404171 
L 427.596694 602.977386 
L 430.036364 609.477264 
L 434.915702 624.108638 
L 439.795041 638.78985 
L 442.234711 645.344271 
L 444.67438 650.979924 
L 447.11405 655.445318 
L 449.553719 658.538127 
L 451.993388 660.114221 
L 454.433058 660.094261 
L 456.872727 658.46754 
L 459.312397 655.292836 
L 461.752066 650.696255 
L 464.191736 644.866159 
L 466.631405 638.045395 
L 469.071074 630.521127 
L 476.390083 606.998347 
L 478.829752 599.965093 
L 481.269421 593.863573 
L 483.709091 588.960388 
L 486.14876 585.47124 
L 488.58843 583.551093 
L 491.028099 583.286984 
L 493.467769 584.693808 
L 495.907438 587.713252 
L 498.347107 592.215906 
L 500.786777 598.006477 
L 503.226446 604.831936 
L 505.666116 612.392295 
L 512.985124 636.06024 
L 515.424793 643.102014 
L 517.864463 649.168275 
L 520.304132 653.98118 
L 522.743802 657.316798 
L 525.183471 659.015503 
L 527.62314 658.989565 
L 530.06281 657.227572 
L 532.502479 653.795427 
L 534.942149 648.833872 
L 537.381818 642.552623 
L 539.821488 635.221377 
L 544.700826 618.71473 
L 549.580165 602.173282 
L 552.019835 594.806496 
L 554.459504 588.489836 
L 556.899174 583.506194 
L 559.338843 580.080495 
L 561.778512 578.369267 
L 564.218182 578.453119 
L 566.657851 580.332507 
L 569.097521 583.926981 
L 571.53719 589.078114 
L 573.97686 595.556085 
L 576.416529 603.069611 
L 581.295868 619.810685 
L 583.735537 628.275683 
L 586.175207 636.285913 
L 588.614876 643.472809 
L 591.054545 649.504138 
L 593.494215 654.0993 
L 595.933884 657.042249 
L 598.373554 658.191414 
L 600.813223 657.486186 
L 603.252893 654.949713 
L 605.692562 650.687974 
L 608.132231 644.885183 
L 610.571901 637.795787 
L 613.01157 629.733434 
L 622.770248 595.28097 
L 625.209917 588.074826 
L 627.649587 582.145602 
L 630.089256 577.768354 
L 632.528926 575.148101 
L 634.968595 574.409599 
L 637.408264 575.590819 
L 639.847934 578.640443 
L 642.287603 583.419683 
L 644.727273 589.708496 
L 647.166942 597.215877 
L 647.166942 597.215877 
" style="fill:none;stroke:#29ffce;stroke-linecap:square;stroke-width:2;"/>
   </g>
   <g id="line2d_32">
    <path clip-path="url(#p5f20771111)" d="M 159.233058 662.91961 
L 161.672727 661.903093 
L 164.112397 660.252353 
L 166.552066 658.032019 
L 168.991736 655.331358 
L 171.431405 652.262731 
L 181.190083 639.173598 
L 183.629752 636.488343 
L 186.069421 634.340862 
L 188.509091 632.85156 
L 190.94876 632.109689 
L 193.38843 632.166974 
L 195.828099 633.03337 
L 198.267769 634.675167 
L 200.707438 637.01547 
L 203.147107 639.93703 
L 205.586777 643.287468 
L 212.905785 654.036876 
L 215.345455 657.186387 
L 217.785124 659.807731 
L 220.224793 661.752451 
L 222.664463 662.912465 
L 225.104132 663.227827 
L 227.543802 662.69141 
L 229.983471 661.349947 
L 232.42314 659.301128 
L 234.86281 656.686841 
L 237.302479 653.683039 
L 242.181818 647.303571 
L 244.621488 644.330168 
L 247.061157 641.744136 
L 249.500826 639.691144 
L 251.940496 638.276882 
L 254.380165 637.562085 
L 256.819835 637.56116 
L 259.259504 638.244273 
L 261.699174 639.542498 
L 264.138843 641.355364 
L 266.578512 643.56005 
L 271.457851 648.60151 
L 276.33719 653.60799 
L 278.77686 655.820101 
L 281.216529 657.731922 
L 283.656198 659.294348 
L 286.095868 660.482267 
L 288.535537 661.292116 
L 290.975207 661.73814 
L 293.414876 661.847854 
L 295.854545 661.657246 
L 298.294215 661.206221 
L 300.733884 660.534718 
L 303.173554 659.679816 
L 305.613223 658.674038 
L 310.492562 656.315517 
L 315.371901 653.637526 
L 325.130579 648.082286 
L 327.570248 646.856357 
L 330.009917 645.792233 
L 332.449587 644.946345 
L 334.889256 644.374904 
L 337.328926 644.129489 
L 339.768595 644.252198 
L 342.208264 644.770725 
L 344.647934 645.69386 
L 347.087603 647.0079 
L 349.527273 648.674343 
L 351.966942 650.629204 
L 361.72562 659.279886 
L 364.165289 661.011858 
L 366.604959 662.305711 
L 369.044628 663.046918 
L 371.484298 663.145228 
L 373.923967 662.542133 
L 376.363636 661.216714 
L 378.803306 659.18938 
L 381.242975 656.523142 
L 383.682645 653.322198 
L 386.122314 649.727729 
L 393.441322 638.391022 
L 395.880992 635.091568 
L 398.320661 632.353548 
L 400.760331 630.338323 
L 403.2 629.170409 
L 405.639669 628.928664 
L 408.079339 629.640134 
L 410.519008 631.276923 
L 412.958678 633.756247 
L 415.398347 636.94376 
L 417.838017 640.660137 
L 425.157025 652.735477 
L 427.596694 656.262085 
L 430.036364 659.157273 
L 432.476033 661.234182 
L 434.915702 662.351531 
L 437.355372 662.422875 
L 439.795041 661.422669 
L 442.234711 659.388664 
L 444.67438 656.420446 
L 447.11405 652.67416 
L 449.553719 648.353652 
L 456.872727 634.436031 
L 459.312397 630.354244 
L 461.752066 626.958309 
L 464.191736 624.443172 
L 466.631405 622.953364 
L 469.071074 622.574108 
L 471.510744 623.326148 
L 473.950413 625.16471 
L 476.390083 627.982582 
L 478.829752 631.616983 
L 481.269421 635.859684 
L 488.58843 649.75315 
L 491.028099 653.916007 
L 493.467769 657.455374 
L 495.907438 660.190173 
L 498.347107 661.989825 
L 500.786777 662.781268 
L 503.226446 662.552302 
L 505.666116 661.351082 
L 508.105785 659.281922 
L 510.545455 656.497853 
L 512.985124 653.190475 
L 520.304132 642.356871 
L 522.743802 639.190988 
L 525.183471 636.577347 
L 527.62314 634.661778 
L 530.06281 633.543614 
L 532.502479 633.271542 
L 534.942149 633.842855 
L 537.381818 635.205886 
L 539.821488 637.265209 
L 542.261157 639.889203 
L 544.700826 642.919422 
L 552.019835 652.68652 
L 554.459504 655.598897 
L 556.899174 658.099458 
L 559.338843 660.0876 
L 561.778512 661.499161 
L 564.218182 662.308512 
L 566.657851 662.528089 
L 569.097521 662.205399 
L 571.53719 661.417712 
L 573.97686 660.264811 
L 576.416529 658.86041 
L 583.735537 654.293974 
L 586.175207 652.988406 
L 588.614876 651.911564 
L 591.054545 651.100809 
L 593.494215 650.569796 
L 595.933884 650.310766 
L 598.373554 650.298213 
L 600.813223 650.493402 
L 605.692562 651.315042 
L 615.45124 653.37215 
L 620.330579 654.119611 
L 634.968595 655.85763 
L 639.847934 656.931241 
L 647.166942 659.020278 
L 647.166942 659.020278 
" style="fill:none;stroke:#ceff29;stroke-linecap:square;stroke-width:2;"/>
   </g>
   <g id="line2d_33">
    <path clip-path="url(#p5f20771111)" d="M 159.233058 662.862347 
L 161.672727 661.684558 
L 164.112397 659.799008 
L 166.552066 657.317897 
L 168.991736 654.391191 
L 176.310744 644.847904 
L 178.750413 642.109259 
L 181.190083 639.920412 
L 183.629752 638.434003 
L 186.069421 637.753604 
L 188.509091 637.924289 
L 190.94876 638.927899 
L 193.38843 640.683759 
L 195.828099 643.0554 
L 198.267769 645.863192 
L 205.586777 654.83119 
L 208.026446 657.349206 
L 210.466116 659.380191 
L 212.905785 660.842201 
L 215.345455 661.706489 
L 217.785124 661.995709 
L 220.224793 661.777162 
L 222.664463 661.152213 
L 225.104132 660.24339 
L 232.42314 657.0774 
L 234.86281 656.228849 
L 237.302479 655.596976 
L 239.742149 655.202247 
L 242.181818 655.032863 
L 244.621488 655.04828 
L 254.380165 655.535558 
L 256.819835 655.384325 
L 259.259504 655.016316 
L 261.699174 654.422195 
L 264.138843 653.625117 
L 273.897521 649.878011 
L 276.33719 649.318811 
L 278.77686 649.116449 
L 281.216529 649.339275 
L 283.656198 650.01888 
L 286.095868 651.143691 
L 288.535537 652.656755 
L 290.975207 654.458166 
L 295.854545 658.357886 
L 298.294215 660.124232 
L 300.733884 661.545071 
L 303.173554 662.475638 
L 305.613223 662.807026 
L 308.052893 662.477738 
L 310.492562 661.480983 
L 312.932231 659.866886 
L 315.371901 657.739297 
L 317.81157 655.247445 
L 322.690909 649.915061 
L 325.130579 647.470849 
L 327.570248 645.420088 
L 330.009917 643.908566 
L 332.449587 643.036115 
L 334.889256 642.848946 
L 337.328926 643.337212 
L 339.768595 644.437963 
L 342.208264 646.04303 
L 344.647934 648.010945 
L 351.966942 654.491565 
L 354.406612 656.355045 
L 356.846281 657.892349 
L 359.28595 659.053876 
L 361.72562 659.831196 
L 364.165289 660.253055 
L 366.604959 660.377537 
L 369.044628 660.281463 
L 373.923967 659.755824 
L 378.803306 659.215727 
L 388.561983 658.420079 
L 391.001653 658.038043 
L 393.441322 657.462709 
L 395.880992 656.651088 
L 398.320661 655.58584 
L 400.760331 654.281656 
L 405.639669 651.187002 
L 410.519008 648.120708 
L 412.958678 646.914505 
L 415.398347 646.092042 
L 417.838017 645.751413 
L 420.277686 645.955688 
L 422.717355 646.724667 
L 425.157025 648.030011 
L 427.596694 649.794632 
L 430.036364 651.897343 
L 434.915702 656.476257 
L 437.355372 658.598863 
L 439.795041 660.38517 
L 442.234711 661.697569 
L 444.67438 662.438828 
L 447.11405 662.561069 
L 449.553719 662.070182 
L 451.993388 661.024806 
L 454.433058 659.529765 
L 456.872727 657.724955 
L 461.752066 653.835761 
L 464.191736 652.075093 
L 466.631405 650.621881 
L 469.071074 649.572061 
L 471.510744 648.977236 
L 473.950413 648.842536 
L 476.390083 649.130063 
L 478.829752 649.766703 
L 481.269421 650.654748 
L 488.58843 653.737989 
L 491.028099 654.589856 
L 493.467769 655.254912 
L 495.907438 655.7214 
L 498.347107 656.00953 
L 503.226446 656.255396 
L 508.105785 656.51325 
L 510.545455 656.79881 
L 512.985124 657.231415 
L 517.864463 658.487788 
L 522.743802 659.887042 
L 525.183471 660.419199 
L 527.62314 660.70795 
L 530.06281 660.667408 
L 532.502479 660.236792 
L 534.942149 659.390423 
L 537.381818 658.144044 
L 539.821488 656.556395 
L 544.700826 652.781273 
L 547.140496 650.871662 
L 549.580165 649.150244 
L 552.019835 647.760432 
L 554.459504 646.821698 
L 556.899174 646.417844 
L 559.338843 646.588597 
L 561.778512 647.325301 
L 564.218182 648.571195 
L 566.657851 650.226309 
L 571.53719 654.206296 
L 573.97686 656.212656 
L 576.416529 658.020809 
L 578.856198 659.498074 
L 581.295868 660.545849 
L 583.735537 661.108113 
L 586.175207 661.175728 
L 588.614876 660.786182 
L 591.054545 660.018664 
L 593.494215 658.984807 
L 598.373554 656.648187 
L 600.813223 655.606953 
L 603.252893 654.792639 
L 605.692562 654.269395 
L 608.132231 654.058618 
L 610.571901 654.138098 
L 613.01157 654.446866 
L 620.330579 655.792578 
L 622.770248 656.0506 
L 625.209917 656.093814 
L 627.649587 655.900792 
L 630.089256 655.490139 
L 634.968595 654.267498 
L 637.408264 653.640634 
L 639.847934 653.139719 
L 642.287603 652.855331 
L 644.727273 652.853542 
L 647.166942 653.167063 
L 647.166942 653.167063 
" style="fill:none;stroke:#ff6800;stroke-linecap:square;stroke-width:2;"/>
   </g>
   <g id="line2d_34">
    <path clip-path="url(#p5f20771111)" d="M 159.233058 663.249577 
L 168.991736 662.990317 
L 178.750413 662.708501 
L 186.069421 662.691344 
L 232.42314 663.196913 
L 247.061157 663.088776 
L 254.380165 662.850987 
L 269.018182 662.223514 
L 273.897521 662.277348 
L 281.216529 662.671431 
L 288.535537 663.092752 
L 293.414876 663.180654 
L 298.294215 663.076427 
L 312.932231 662.516153 
L 322.690909 662.545656 
L 349.527273 662.88405 
L 356.846281 663.14265 
L 361.72562 663.162578 
L 369.044628 662.888501 
L 378.803306 662.385393 
L 386.122314 662.300073 
L 417.838017 662.78381 
L 427.596694 663.104115 
L 432.476033 663.089927 
L 439.795041 662.763786 
L 449.553719 662.223684 
L 454.433058 662.134534 
L 461.752066 662.233244 
L 473.950413 662.439328 
L 483.709091 662.576065 
L 503.226446 663.068565 
L 510.545455 662.75466 
L 520.304132 662.243656 
L 525.183471 662.171894 
L 534.942149 662.343752 
L 544.700826 662.45163 
L 554.459504 662.561739 
L 573.97686 663.11633 
L 581.295868 662.851372 
L 591.054545 662.428717 
L 598.373554 662.344182 
L 615.45124 662.504935 
L 625.209917 662.727111 
L 642.287603 663.221084 
L 647.166942 663.170224 
L 647.166942 663.170224 
" style="fill:none;stroke:#800000;stroke-linecap:square;stroke-width:2;"/>
   </g>
   <g id="patch_3">
    <path d="M 108 720.9 
L 108 56.7 
" style="fill:none;stroke:#000000;stroke-linecap:square;stroke-linejoin:miter;stroke-width:0.8;"/>
   </g>
   <g id="patch_4">
    <path d="M 698.4 720.9 
L 698.4 56.7 
" style="fill:none;stroke:#000000;stroke-linecap:square;stroke-linejoin:miter;stroke-width:0.8;"/>
   </g>
   <g id="patch_5">
    <path d="M 108 720.9 
L 698.4 720.9 
" style="fill:none;stroke:#000000;stroke-linecap:square;stroke-linejoin:miter;stroke-width:0.8;"/>
   </g>
   <g id="patch_6">
    <path d="M 108 56.7 
L 698.4 56.7 
" style="fill:none;stroke:#000000;stroke-linecap:square;stroke-linejoin:miter;stroke-width:0.8;"/>
   </g>
   <g id="legend_1">
    <g id="patch_7">
     <path d="M 122 365.978759 
L 211.104649 365.978759 
Q 215.104649 365.978759 215.104649 361.978759 
L 215.104649 70.7 
Q 215.104649 66.7 211.104649 66.7 
L 122 66.7 
Q 118 66.7 118 70.7 
L 118 361.978759 
Q 118 365.978759 122 365.978759 
z
" style="fill:#ffffff;opacity:0.8;stroke:#cccccc;stroke-linejoin:miter;"/>
    </g>
    <g id="line2d_35">
     <path d="M 126 82.896875 
L 166 82.896875 
" style="fill:none;stroke:#004cff;stroke-linecap:square;stroke-width:2;"/>
    </g>
    <g id="line2d_36"/>
    <g id="text_15">
     <!-- $1_{0}$ -->
     <g transform="translate(182 89.896875)scale(0.2 -0.2)">
      <use transform="scale(0.996264)" xlink:href="#CMR17-49"/>
      <use transform="translate(45.690477 -14.943915)scale(0.697382)" xlink:href="#CMR17-48"/>
     </g>
    </g>
    <g id="line2d_37">
     <path d="M 126 112.253125 
L 166 112.253125 
" style="fill:none;stroke:#29ffce;stroke-linecap:square;stroke-width:2;"/>
    </g>
    <g id="line2d_38"/>
    <g id="text_16">
     <!-- $5_{0}$ -->
     <g transform="translate(182 119.253125)scale(0.2 -0.2)">
      <use transform="scale(0.996264)" xlink:href="#CMR17-53"/>
      <use transform="translate(45.690477 -14.943915)scale(0.697382)" xlink:href="#CMR17-48"/>
     </g>
    </g>
    <g id="line2d_39">
     <path d="M 126 141.609375 
L 166 141.609375 
" style="fill:none;stroke:#ceff29;stroke-linecap:square;stroke-width:2;"/>
    </g>
    <g id="line2d_40"/>
    <g id="text_17">
     <!-- $9_{0}$ -->
     <g transform="translate(182 148.609375)scale(0.2 -0.2)">
      <defs>
       <path d="M 35.203125 29.125 
C 35.203125 7.25 26.09375 0.484375 18.59375 0.484375 
C 16.296875 0.484375 10.703125 0.484375 8.40625 4.59375 
C 11 4.1875 12.90625 5.578125 12.90625 8.09375 
C 12.90625 10.8125 10.703125 11.703125 9.296875 11.703125 
C 8.40625 11.703125 5.703125 11.296875 5.703125 7.90625 
C 5.703125 1.109375 11.59375 -2 18.796875 -2 
C 30.296875 -2 42 10.53125 42 32.390625 
C 42 59.640625 30.796875 65.296875 23.203125 65.296875 
C 13.296875 65.296875 3.796875 56.6875 3.796875 43.40625 
C 3.796875 31.109375 11.90625 22 22.09375 22 
C 30.5 22 34.203125 29.734375 35.203125 33 
z
M 22.296875 23.59375 
C 19.59375 23.59375 15.796875 24.09375 12.703125 30.03125 
C 10.59375 33.890625 10.59375 38.453125 10.59375 43.296875 
C 10.59375 49.15625 10.59375 53.203125 13.40625 57.5625 
C 14.796875 59.640625 17.40625 63 23.203125 63 
C 35 63 35 45.078125 35 41.125 
C 35 34.09375 31.796875 23.59375 22.296875 23.59375 
z
" id="CMR17-57"/>
      </defs>
      <use transform="scale(0.996264)" xlink:href="#CMR17-57"/>
      <use transform="translate(45.690477 -14.943915)scale(0.697382)" xlink:href="#CMR17-48"/>
     </g>
    </g>
    <g id="line2d_41">
     <path d="M 126 170.965625 
L 166 170.965625 
" style="fill:none;stroke:#ff6800;stroke-linecap:square;stroke-width:2;"/>
    </g>
    <g id="line2d_42"/>
    <g id="text_18">
     <!-- $13_{0}$ -->
     <g transform="translate(182 177.965625)scale(0.2 -0.2)">
      <use transform="scale(0.996264)" xlink:href="#CMR17-49"/>
      <use transform="translate(45.690477 0)scale(0.996264)" xlink:href="#CMR17-51"/>
      <use transform="translate(91.380954 -14.943915)scale(0.697382)" xlink:href="#CMR17-48"/>
     </g>
    </g>
    <g id="line2d_43">
     <path d="M 126 200.321875 
L 166 200.321875 
" style="fill:none;stroke:#800000;stroke-linecap:square;stroke-width:2;"/>
    </g>
    <g id="line2d_44"/>
    <g id="text_19">
     <!-- $17_{0}$ -->
     <g transform="translate(182 207.321875)scale(0.2 -0.2)">
      <use transform="scale(0.996264)" xlink:href="#CMR17-49"/>
      <use transform="translate(45.690477 0)scale(0.996264)" xlink:href="#CMR17-55"/>
      <use transform="translate(91.380954 -14.943915)scale(0.697382)" xlink:href="#CMR17-48"/>
     </g>
    </g>
    <g id="line2d_45">
     <path d="M 126 229.678125 
L 166 229.678125 
" style="fill:none;stroke:#004cff;stroke-linecap:square;stroke-width:2;"/>
    </g>
    <g id="line2d_46"/>
    <g id="text_20">
     <!-- $1_{0}$ -->
     <g transform="translate(182 236.678125)scale(0.2 -0.2)">
      <use transform="scale(0.996264)" xlink:href="#CMR17-49"/>
      <use transform="translate(45.690477 -14.943915)scale(0.697382)" xlink:href="#CMR17-48"/>
     </g>
    </g>
    <g id="line2d_47">
     <path d="M 126 259.034375 
L 166 259.034375 
" style="fill:none;stroke:#29ffce;stroke-linecap:square;stroke-width:2;"/>
    </g>
    <g id="line2d_48"/>
    <g id="text_21">
     <!-- $5_{0}$ -->
     <g transform="translate(182 266.034375)scale(0.2 -0.2)">
      <use transform="scale(0.996264)" xlink:href="#CMR17-53"/>
      <use transform="translate(45.690477 -14.943915)scale(0.697382)" xlink:href="#CMR17-48"/>
     </g>
    </g>
    <g id="line2d_49">
     <path d="M 126 288.390625 
L 166 288.390625 
" style="fill:none;stroke:#ceff29;stroke-linecap:square;stroke-width:2;"/>
    </g>
    <g id="line2d_50"/>
    <g id="text_22">
     <!-- $9_{0}$ -->
     <g transform="translate(182 295.390625)scale(0.2 -0.2)">
      <use transform="scale(0.996264)" xlink:href="#CMR17-57"/>
      <use transform="translate(45.690477 -14.943915)scale(0.697382)" xlink:href="#CMR17-48"/>
     </g>
    </g>
    <g id="line2d_51">
     <path d="M 126 317.746875 
L 166 317.746875 
" style="fill:none;stroke:#ff6800;stroke-linecap:square;stroke-width:2;"/>
    </g>
    <g id="line2d_52"/>
    <g id="text_23">
     <!-- $13_{0}$ -->
     <g transform="translate(182 324.746875)scale(0.2 -0.2)">
      <use transform="scale(0.996264)" xlink:href="#CMR17-49"/>
      <use transform="translate(45.690477 0)scale(0.996264)" xlink:href="#CMR17-51"/>
      <use transform="translate(91.380954 -14.943915)scale(0.697382)" xlink:href="#CMR17-48"/>
     </g>
    </g>
    <g id="line2d_53">
     <path d="M 126 347.103125 
L 166 347.103125 
" style="fill:none;stroke:#800000;stroke-linecap:square;stroke-width:2;"/>
    </g>
    <g id="line2d_54"/>
    <g id="text_24">
     <!-- $17_{0}$ -->
     <g transform="translate(182 354.103125)scale(0.2 -0.2)">
      <use transform="scale(0.996264)" xlink:href="#CMR17-49"/>
      <use transform="translate(45.690477 0)scale(0.996264)" xlink:href="#CMR17-55"/>
      <use transform="translate(91.380954 -14.943915)scale(0.697382)" xlink:href="#CMR17-48"/>
     </g>
    </g>
   </g>
  </g>
 </g>
 <defs>
  <clipPath id="p5f20771111">
   <rect height="664.2" width="590.4" x="108" y="56.7"/>
  </clipPath>
 </defs>
</svg>
