<?xml version="1.0" encoding="utf-8" standalone="no"?>
<!DOCTYPE svg PUBLIC "-//W3C//DTD SVG 1.1//EN"
  "http://www.w3.org/Graphics/SVG/1.1/DTD/svg11.dtd">
<!-- Created with matplotlib (https://matplotlib.org/) -->
<svg height="810pt" version="1.1" viewBox="0 0 720 810" width="720pt" xmlns="http://www.w3.org/2000/svg" xmlns:xlink="http://www.w3.org/1999/xlink">
 <metadata>
  <rdf:RDF xmlns:cc="http://creativecommons.org/ns#" xmlns:dc="http://purl.org/dc/elements/1.1/" xmlns:rdf="http://www.w3.org/1999/02/22-rdf-syntax-ns#">
   <cc:Work>
    <dc:type rdf:resource="http://purl.org/dc/dcmitype/StillImage"/>
    <dc:date>2021-02-03T11:06:44.544214</dc:date>
    <dc:format>image/svg+xml</dc:format>
    <dc:creator>
     <cc:Agent>
      <dc:title>Matplotlib v3.3.1, https://matplotlib.org/</dc:title>
     </cc:Agent>
    </dc:creator>
   </cc:Work>
  </rdf:RDF>
 </metadata>
 <defs>
  <style type="text/css">*{stroke-linecap:butt;stroke-linejoin:round;}</style>
 </defs>
 <g id="figure_1">
  <g id="patch_1">
   <path d="M 0 810 
L 720 810 
L 720 0 
L 0 0 
z
" style="fill:#ffffff;"/>
  </g>
  <g id="axes_1">
   <g id="patch_2">
    <path d="M 108 720.9 
L 698.4 720.9 
L 698.4 56.7 
L 108 56.7 
z
" style="fill:#ffffff;"/>
   </g>
   <g id="matplotlib.axis_1">
    <g id="xtick_1">
     <g id="line2d_1">
      <path clip-path="url(#p2954fea775)" d="M 159.233058 720.9 
L 159.233058 56.7 
" style="fill:none;stroke:#e6e6e6;stroke-linecap:square;stroke-width:0.8;"/>
     </g>
     <g id="line2d_2">
      <defs>
       <path d="M 0 0 
L 0 3.5 
" id="m6d16072f08" style="stroke:#000000;stroke-width:0.8;"/>
      </defs>
      <g>
       <use style="stroke:#000000;stroke-width:0.8;" x="159.233058" xlink:href="#m6d16072f08" y="720.9"/>
      </g>
     </g>
     <g id="text_1">
      <!-- $\mathdefault{0}$ -->
      <g transform="translate(155.574939 738.277725)scale(0.15 -0.15)">
       <defs>
        <path d="M 42 31.640625 
C 42 37.75 41.90625 48.125 37.703125 56.109375 
C 34 63.109375 28.09375 65.59375 22.90625 65.59375 
C 18.09375 65.59375 12 63.40625 8.203125 56.203125 
C 4.203125 48.71875 3.796875 39.4375 3.796875 31.640625 
C 3.796875 25.953125 3.90625 17.28125 7 9.671875 
C 11.296875 -0.609375 19 -2 22.90625 -2 
C 27.5 -2 34.5 -0.109375 38.59375 9.375 
C 41.59375 16.28125 42 24.359375 42 31.640625 
z
M 22.90625 -0.40625 
C 16.5 -0.40625 12.703125 5.078125 11.296875 12.6875 
C 10.203125 18.5625 10.203125 27.15625 10.203125 32.75 
C 10.203125 40.4375 10.203125 46.828125 11.5 52.921875 
C 13.40625 61.390625 19 64 22.90625 64 
C 27 64 32.296875 61.296875 34.203125 53.125 
C 35.5 47.4375 35.59375 40.734375 35.59375 32.75 
C 35.59375 26.25 35.59375 18.265625 34.40625 12.375 
C 32.296875 1.484375 26.40625 -0.40625 22.90625 -0.40625 
z
" id="CMR17-48"/>
       </defs>
       <use transform="scale(0.996264)" xlink:href="#CMR17-48"/>
      </g>
     </g>
    </g>
    <g id="xtick_2">
     <g id="line2d_3">
      <path clip-path="url(#p2954fea775)" d="M 238.960817 720.9 
L 238.960817 56.7 
" style="fill:none;stroke:#e6e6e6;stroke-linecap:square;stroke-width:0.8;"/>
     </g>
     <g id="line2d_4">
      <g>
       <use style="stroke:#000000;stroke-width:0.8;" x="238.960817" xlink:href="#m6d16072f08" y="720.9"/>
      </g>
     </g>
     <g id="text_2">
      <!-- $\mathdefault{50}$ -->
      <g transform="translate(231.644579 738.277725)scale(0.15 -0.15)">
       <defs>
        <path d="M 11.40625 57.6875 
C 12.40625 57.28125 16.5 56 20.703125 56 
C 30 56 35.09375 61.109375 38 64.0625 
C 38 64.953125 38 65.5 37.40625 65.5 
C 37.296875 65.5 37.09375 65.5 36.296875 65.046875 
C 32.796875 63.40625 28.703125 62.078125 23.703125 62.078125 
C 20.703125 62.078125 16.203125 62.484375 11.296875 64.671875 
C 10.203125 65.171875 10 65.171875 9.90625 65.171875 
C 9.40625 65.171875 9.296875 65.0625 9.296875 63.078125 
L 9.296875 34.421875 
C 9.296875 32.640625 9.296875 32.140625 10.296875 32.140625 
C 10.796875 32.140625 11 32.34375 11.5 33.03125 
C 14.703125 37.515625 19.09375 39.40625 24.09375 39.40625 
C 27.59375 39.40625 35.09375 37.21875 35.09375 20.140625 
C 35.09375 16.953125 35.09375 11.171875 32.09375 6.578125 
C 29.59375 2.484375 25.703125 0.390625 21.40625 0.390625 
C 14.796875 0.390625 8.09375 5 6.296875 12.71875 
C 6.703125 12.609375 7.5 12.421875 7.90625 12.421875 
C 9.203125 12.421875 11.703125 13.125 11.703125 16.21875 
C 11.703125 18.90625 9.796875 20 7.90625 20 
C 5.59375 20 4.09375 18.59375 4.09375 15.796875 
C 4.09375 7.09375 11 -2 21.59375 -2 
C 31.90625 -2 41.703125 6.875 41.703125 19.75 
C 41.703125 31.71875 33.90625 41 24.203125 41 
C 19.09375 41 14.796875 39.109375 11.40625 35.53125 
z
" id="CMR17-53"/>
       </defs>
       <use transform="scale(0.996264)" xlink:href="#CMR17-53"/>
       <use transform="translate(45.690477 0)scale(0.996264)" xlink:href="#CMR17-48"/>
      </g>
     </g>
    </g>
    <g id="xtick_3">
     <g id="line2d_5">
      <path clip-path="url(#p2954fea775)" d="M 318.688576 720.9 
L 318.688576 56.7 
" style="fill:none;stroke:#e6e6e6;stroke-linecap:square;stroke-width:0.8;"/>
     </g>
     <g id="line2d_6">
      <g>
       <use style="stroke:#000000;stroke-width:0.8;" x="318.688576" xlink:href="#m6d16072f08" y="720.9"/>
      </g>
     </g>
     <g id="text_3">
      <!-- $\mathdefault{100}$ -->
      <g transform="translate(307.714219 738.277725)scale(0.15 -0.15)">
       <defs>
        <path d="M 26.59375 63.40625 
C 26.59375 65.5 26.5 65.5 25.09375 65.5 
C 21.203125 61.1875 15.296875 59.796875 9.703125 59.796875 
C 9.40625 59.796875 8.90625 59.796875 8.796875 59.5 
C 8.703125 59.296875 8.703125 59.09375 8.703125 57 
C 11.796875 57 17 57.59375 21 59.984375 
L 21 7.203125 
C 21 3.6875 20.796875 2.5 12.203125 2.5 
L 9.203125 2.5 
L 9.203125 0 
C 14 0 19 0 23.796875 0 
C 28.59375 0 33.59375 0 38.40625 0 
L 38.40625 2.5 
L 35.40625 2.5 
C 26.796875 2.5 26.59375 3.59375 26.59375 7.15625 
z
" id="CMR17-49"/>
       </defs>
       <use transform="scale(0.996264)" xlink:href="#CMR17-49"/>
       <use transform="translate(45.690477 0)scale(0.996264)" xlink:href="#CMR17-48"/>
       <use transform="translate(91.380954 0)scale(0.996264)" xlink:href="#CMR17-48"/>
      </g>
     </g>
    </g>
    <g id="xtick_4">
     <g id="line2d_7">
      <path clip-path="url(#p2954fea775)" d="M 398.416334 720.9 
L 398.416334 56.7 
" style="fill:none;stroke:#e6e6e6;stroke-linecap:square;stroke-width:0.8;"/>
     </g>
     <g id="line2d_8">
      <g>
       <use style="stroke:#000000;stroke-width:0.8;" x="398.416334" xlink:href="#m6d16072f08" y="720.9"/>
      </g>
     </g>
     <g id="text_4">
      <!-- $\mathdefault{150}$ -->
      <g transform="translate(387.441978 738.277725)scale(0.15 -0.15)">
       <use transform="scale(0.996264)" xlink:href="#CMR17-49"/>
       <use transform="translate(45.690477 0)scale(0.996264)" xlink:href="#CMR17-53"/>
       <use transform="translate(91.380954 0)scale(0.996264)" xlink:href="#CMR17-48"/>
      </g>
     </g>
    </g>
    <g id="xtick_5">
     <g id="line2d_9">
      <path clip-path="url(#p2954fea775)" d="M 478.144093 720.9 
L 478.144093 56.7 
" style="fill:none;stroke:#e6e6e6;stroke-linecap:square;stroke-width:0.8;"/>
     </g>
     <g id="line2d_10">
      <g>
       <use style="stroke:#000000;stroke-width:0.8;" x="478.144093" xlink:href="#m6d16072f08" y="720.9"/>
      </g>
     </g>
     <g id="text_5">
      <!-- $\mathdefault{200}$ -->
      <g transform="translate(467.169737 738.277725)scale(0.15 -0.15)">
       <defs>
        <path d="M 41.703125 15.453125 
L 39.90625 15.453125 
C 38.90625 8.375 38.09375 7.171875 37.703125 6.5625 
C 37.203125 5.765625 30 5.765625 28.59375 5.765625 
L 9.40625 5.765625 
C 13 9.671875 20 16.75 28.5 24.953125 
C 34.59375 30.734375 41.703125 37.53125 41.703125 47.421875 
C 41.703125 59.21875 32.296875 66 21.796875 66 
C 10.796875 66 4.09375 56.3125 4.09375 47.34375 
C 4.09375 43.4375 7 42.9375 8.203125 42.9375 
C 9.203125 42.9375 12.203125 43.546875 12.203125 47.03125 
C 12.203125 50.109375 9.59375 51 8.203125 51 
C 7.59375 51 7 50.90625 6.59375 50.703125 
C 8.5 59.21875 14.296875 63.40625 20.40625 63.40625 
C 29.09375 63.40625 34.796875 56.515625 34.796875 47.421875 
C 34.796875 38.734375 29.703125 31.25 24 24.75 
L 4.09375 2.28125 
L 4.09375 0 
L 39.296875 0 
z
" id="CMR17-50"/>
       </defs>
       <use transform="scale(0.996264)" xlink:href="#CMR17-50"/>
       <use transform="translate(45.690477 0)scale(0.996264)" xlink:href="#CMR17-48"/>
       <use transform="translate(91.380954 0)scale(0.996264)" xlink:href="#CMR17-48"/>
      </g>
     </g>
    </g>
    <g id="xtick_6">
     <g id="line2d_11">
      <path clip-path="url(#p2954fea775)" d="M 557.871852 720.9 
L 557.871852 56.7 
" style="fill:none;stroke:#e6e6e6;stroke-linecap:square;stroke-width:0.8;"/>
     </g>
     <g id="line2d_12">
      <g>
       <use style="stroke:#000000;stroke-width:0.8;" x="557.871852" xlink:href="#m6d16072f08" y="720.9"/>
      </g>
     </g>
     <g id="text_6">
      <!-- $\mathdefault{250}$ -->
      <g transform="translate(546.897495 738.277725)scale(0.15 -0.15)">
       <use transform="scale(0.996264)" xlink:href="#CMR17-50"/>
       <use transform="translate(45.690477 0)scale(0.996264)" xlink:href="#CMR17-53"/>
       <use transform="translate(91.380954 0)scale(0.996264)" xlink:href="#CMR17-48"/>
      </g>
     </g>
    </g>
    <g id="xtick_7">
     <g id="line2d_13">
      <path clip-path="url(#p2954fea775)" d="M 637.599611 720.9 
L 637.599611 56.7 
" style="fill:none;stroke:#e6e6e6;stroke-linecap:square;stroke-width:0.8;"/>
     </g>
     <g id="line2d_14">
      <g>
       <use style="stroke:#000000;stroke-width:0.8;" x="637.599611" xlink:href="#m6d16072f08" y="720.9"/>
      </g>
     </g>
     <g id="text_7">
      <!-- $\mathdefault{300}$ -->
      <g transform="translate(626.625254 738.277725)scale(0.15 -0.15)">
       <defs>
        <path d="M 22.09375 33.703125 
C 31 33.703125 34.90625 25.96875 34.90625 17.03125 
C 34.90625 5 28.5 0.390625 22.703125 0.390625 
C 17.40625 0.390625 8.796875 3.03125 6.09375 10.828125 
C 6.59375 10.625 7.09375 10.625 7.59375 10.625 
C 10 10.625 11.796875 12.21875 11.796875 14.8125 
C 11.796875 17.703125 9.59375 19 7.59375 19 
C 5.90625 19 3.296875 18.203125 3.296875 14.46875 
C 3.296875 5.234375 12.296875 -2 22.90625 -2 
C 34 -2 42.5 6.71875 42.5 16.953125 
C 42.5 26.671875 34.5 33.703125 25 34.796875 
C 32.59375 36.375 39.90625 43.0625 39.90625 52.015625 
C 39.90625 59.6875 32 65.296875 23 65.296875 
C 13.90625 65.296875 5.90625 59.828125 5.90625 52.015625 
C 5.90625 48.59375 8.5 48 9.796875 48 
C 11.90625 48 13.703125 49.296875 13.703125 51.890625 
C 13.703125 54.46875 11.90625 55.765625 9.796875 55.765625 
C 9.40625 55.765625 8.90625 55.765625 8.5 55.578125 
C 11.40625 61.859375 19.296875 63 22.796875 63 
C 26.296875 63 32.90625 61.328125 32.90625 51.875 
C 32.90625 49.109375 32.5 44.1875 29.09375 39.84375 
C 26.09375 36 22.703125 36 19.40625 35.6875 
C 18.90625 35.6875 16.59375 35.453125 16.203125 35.453125 
C 15.5 35.359375 15.09375 35.265625 15.09375 34.5 
C 15.09375 33.796875 15.203125 33.703125 17.203125 33.703125 
z
" id="CMR17-51"/>
       </defs>
       <use transform="scale(0.996264)" xlink:href="#CMR17-51"/>
       <use transform="translate(45.690477 0)scale(0.996264)" xlink:href="#CMR17-48"/>
       <use transform="translate(91.380954 0)scale(0.996264)" xlink:href="#CMR17-48"/>
      </g>
     </g>
    </g>
    <g id="text_8">
     <!-- $thickness(\AA)$ -->
     <g transform="translate(333.230863 766.884409)scale(0.25 -0.25)">
      <defs>
       <path d="M 20.09375 40.09375 
L 29.296875 40.09375 
C 31.203125 40.09375 32.203125 40.09375 32.203125 41.890625 
C 32.203125 43 31.59375 43 29.59375 43 
L 20.796875 43 
L 24.5 57.6875 
C 24.90625 59.078125 24.90625 59.28125 24.90625 60 
C 24.90625 61.609375 23.59375 62.5 22.296875 62.5 
C 21.5 62.5 19.203125 62.203125 18.40625 58.984375 
L 14.5 43 
L 5.09375 43 
C 3.09375 43 2.203125 43 2.203125 41.09375 
C 2.203125 40.09375 2.90625 40.09375 4.796875 40.09375 
L 13.703125 40.09375 
L 7.09375 13.765625 
C 6.296875 10.28125 6 9.28125 6 7.984375 
C 6 3.296875 9.296875 -1 14.90625 -1 
C 25 -1 30.40625 13.5625 30.40625 14.25 
C 30.40625 14.859375 30 15.15625 29.40625 15.15625 
C 29.203125 15.15625 28.796875 15.15625 28.59375 14.75 
C 28.5 14.65625 28.40625 14.546875 27.703125 12.953125 
C 25.59375 7.984375 21 1 15.203125 1 
C 12.203125 1 12 3.5 12 5.6875 
C 12 5.78125 12 7.6875 12.296875 8.875 
z
" id="CMMI12-116"/>
       <path d="M 28.09375 66.515625 
C 28.203125 66.921875 28.40625 67.515625 28.40625 68 
C 28.40625 69 27.40625 69 27.203125 69 
C 27.09375 69 22.203125 68.5625 21.703125 68.4375 
C 20 68.328125 18.5 68.09375 16.703125 68.09375 
C 14.203125 67.890625 13.5 67.796875 13.5 66 
C 13.5 65 14.296875 65 15.703125 65 
C 20.59375 65 20.703125 64.109375 20.703125 63.125 
C 20.703125 62.53125 20.5 61.734375 20.40625 61.4375 
L 5.90625 3.875 
C 5.5 2.375 5.5 2.1875 5.5 1.578125 
C 5.5 -0.59375 7.203125 -1 8.203125 -1 
C 9.90625 -1 11.203125 0.296875 11.703125 1.390625 
L 16.203125 19.453125 
C 16.703125 21.65625 17.296875 23.75 17.796875 25.9375 
C 18.90625 30.140625 18.90625 30.234375 20.796875 33.125 
C 22.703125 36.015625 27.203125 42.015625 34.90625 42.015625 
C 38.90625 42.015625 40.296875 39.015625 40.296875 35.03125 
C 40.296875 29.4375 36.40625 18.5625 34.203125 12.578125 
C 33.296875 10.171875 32.796875 8.875 32.796875 7.078125 
C 32.796875 2.59375 35.90625 -1 40.703125 -1 
C 50 -1 53.5 13.671875 53.5 14.265625 
C 53.5 14.765625 53.09375 15.171875 52.5 15.171875 
C 51.59375 15.171875 51.5 14.875 51 13.171875 
C 48.703125 5.1875 45 1 41 1 
C 40 1 38.40625 1 38.40625 4.203125 
C 38.40625 6.8125 39.59375 10 40 11.09375 
C 41.796875 15.90625 46.296875 27.703125 46.296875 33.515625 
C 46.296875 39.5 42.796875 44 35.203125 44 
C 29.5 44 24.5 41.3125 20.40625 36.125 
z
" id="CMMI12-104"/>
       <path d="M 28.296875 14.265625 
C 28.296875 14.765625 27.90625 15.171875 27.296875 15.171875 
C 26.40625 15.171875 26.296875 14.875 25.796875 13.171875 
C 23.203125 4.09375 19.09375 1 15.796875 1 
C 14.59375 1 13.203125 1.296875 13.203125 4.296875 
C 13.203125 6.984375 14.40625 9.984375 15.5 12.96875 
L 22.5 31.53125 
C 22.796875 32.328125 23.5 34.125 23.5 36.015625 
C 23.5 40.21875 20.5 44 15.59375 44 
C 6.40625 44 2.703125 29.53125 2.703125 28.734375 
C 2.703125 28.34375 3.09375 27.84375 3.796875 27.84375 
C 4.703125 27.84375 4.796875 28.234375 5.203125 29.625 
C 7.59375 37.9375 11.40625 41.90625 15.296875 41.90625 
C 16.203125 41.90625 17.90625 41.90625 17.90625 38.71875 
C 17.90625 36.125 16.59375 32.828125 15.796875 30.640625 
L 8.796875 12.078125 
C 8.203125 10.484375 7.59375 8.875 7.59375 7.078125 
C 7.59375 2.59375 10.703125 -1 15.5 -1 
C 24.703125 -1 28.296875 13.578125 28.296875 14.265625 
z
M 27.5 62.703125 
C 27.5 64.203125 26.296875 66 24.09375 66 
C 21.796875 66 19.203125 63.796875 19.203125 61.203125 
C 19.203125 58.71875 21.296875 57.921875 22.5 57.921875 
C 25.203125 57.921875 27.5 60.515625 27.5 62.703125 
z
" id="CMMI12-105"/>
       <path d="M 39.09375 37.984375 
C 37.203125 37.984375 36.296875 37.984375 34.90625 36.796875 
C 34.296875 36.296875 33.203125 34.796875 33.203125 33.203125 
C 33.203125 31.203125 34.703125 30 36.59375 30 
C 39 30 41.703125 31.9375 41.703125 35.8125 
C 41.703125 40.4375 37.09375 44 30.203125 44 
C 17.09375 44 4 29.734375 4 15.5625 
C 4 6.890625 9.40625 -1 19.59375 -1 
C 33.203125 -1 41.796875 9.71875 41.796875 11.03125 
C 41.796875 11.625 41.203125 12.125 40.796875 12.125 
C 40.5 12.125 40.40625 12.03125 39.5 11.140625 
C 33.09375 2.53125 23.59375 1 19.796875 1 
C 12.90625 1 10.703125 6.96875 10.703125 11.9375 
C 10.703125 15.4375 12.40625 25.078125 16 31.859375 
C 18.59375 36.53125 24 41.90625 30.296875 41.90625 
C 31.59375 41.90625 37.09375 41.90625 39.09375 37.984375 
z
" id="CMMI12-99"/>
       <path d="M 28.09375 66.515625 
C 28.203125 66.921875 28.40625 67.515625 28.40625 68 
C 28.40625 69 27.40625 69 27.203125 69 
C 27.09375 69 23.5 68.640625 21.703125 68.390625 
C 20 68.390625 18.5 68.09375 16.703125 68.09375 
C 14.296875 67.890625 13.59375 67.796875 13.59375 66 
C 13.59375 65 14.59375 65 15.59375 65 
C 20.703125 65 20.703125 64.109375 20.703125 63.125 
C 20.703125 62.734375 20.703125 62.53125 20.203125 60.75 
L 5.90625 3.875 
C 5.5 2.375 5.5 2.1875 5.5 1.578125 
C 5.5 -0.59375 7.203125 -1 8.203125 -1 
C 11 -1 11.59375 1.203125 12.40625 4.296875 
L 17.09375 22.953125 
C 24.296875 22.15625 28.59375 19.15625 28.59375 14.375 
C 28.59375 13.765625 28.59375 13.375 28.296875 11.875 
C 27.90625 10.375 27.90625 9.1875 27.90625 8.6875 
C 27.90625 2.890625 31.703125 -1 36.796875 -1 
C 41.40625 -1 43.796875 3.1875 44.59375 4.59375 
C 46.703125 8.28125 48 13.875 48 14.265625 
C 48 14.765625 47.59375 15.171875 47 15.171875 
C 46.09375 15.171875 46 14.765625 45.59375 13.171875 
C 44.203125 7.984375 42.09375 1 37 1 
C 35 1 33.703125 2 33.703125 5.78125 
C 33.703125 7.6875 34.09375 9.875 34.5 11.375 
C 34.90625 13.171875 34.90625 13.265625 34.90625 14.46875 
C 34.90625 20.359375 29.59375 23.65625 20.40625 24.84375 
C 24 27.046875 27.59375 30.9375 29 32.4375 
C 34.703125 38.8125 38.59375 42.015625 43.203125 42.015625 
C 45.5 42.015625 46.09375 41.40625 46.796875 40.8125 
C 43.09375 40.40625 41.703125 37.8125 41.703125 35.828125 
C 41.703125 33.421875 43.59375 32.625 45 32.625 
C 47.703125 32.625 50.09375 34.921875 50.09375 38.125 
C 50.09375 41.015625 47.796875 44 43.296875 44 
C 37.796875 44 33.296875 40.109375 26.203125 32.125 
C 25.203125 30.9375 21.5 27.140625 17.796875 25.75 
z
" id="CMMI12-107"/>
       <path d="M 20.59375 29.234375 
C 20.796875 29.84375 23.296875 34.828125 27 38.015625 
C 29.59375 40.40625 33 42.015625 36.90625 42.015625 
C 40.90625 42.015625 42.296875 39.015625 42.296875 35.03125 
C 42.296875 29.34375 38.203125 17.96875 36.203125 12.578125 
C 35.296875 10.171875 34.796875 8.875 34.796875 7.078125 
C 34.796875 2.59375 37.90625 -1 42.703125 -1 
C 52 -1 55.5 13.671875 55.5 14.265625 
C 55.5 14.765625 55.09375 15.171875 54.5 15.171875 
C 53.59375 15.171875 53.5 14.875 53 13.171875 
C 50.703125 4.984375 46.90625 1 43 1 
C 42 1 40.40625 1 40.40625 4.203125 
C 40.40625 6.703125 41.5 9.703125 42.09375 11.09375 
C 44.09375 16.609375 48.296875 27.8125 48.296875 33.515625 
C 48.296875 39.5 44.796875 44 37.203125 44 
C 28.296875 44 23.59375 37.734375 21.796875 35.234375 
C 21.5 40.90625 17.40625 44 13 44 
C 9.796875 44 7.59375 42.109375 5.90625 38.71875 
C 4.09375 35.125 2.703125 29.140625 2.703125 28.734375 
C 2.703125 28.34375 3.09375 27.84375 3.796875 27.84375 
C 4.59375 27.84375 4.703125 27.9375 5.296875 30.234375 
C 6.90625 36.328125 8.703125 42.015625 12.703125 42.015625 
C 15 42.015625 15.796875 40.40625 15.796875 37.421875 
C 15.796875 35.21875 14.796875 31.328125 14.09375 28.234375 
L 11.296875 17.46875 
C 10.90625 15.5625 9.796875 11.078125 9.296875 9.28125 
C 8.59375 6.6875 7.5 2 7.5 1.5 
C 7.5 0.09375 8.59375 -1 10.09375 -1 
C 11.296875 -1 12.703125 -0.40625 13.5 1.09375 
C 13.703125 1.59375 14.59375 5.09375 15.09375 7.078125 
L 17.296875 16.0625 
z
" id="CMMI12-110"/>
       <path d="M 17.90625 23.109375 
C 20.59375 23.109375 27.40625 23.109375 32.203125 24.921875 
C 39.796875 27.859375 40.5 33.71875 40.5 35.53125 
C 40.5 39.96875 36.703125 44 30.09375 44 
C 19.59375 44 4.5 34.53125 4.5 16.765625 
C 4.5 6.28125 10.5 -1 19.59375 -1 
C 33.203125 -1 41.796875 9.515625 41.796875 10.8125 
C 41.796875 11.40625 41.203125 11.90625 40.796875 11.90625 
C 40.5 11.90625 40.40625 11.8125 39.5 10.921875 
C 33.09375 2.484375 23.59375 1 19.796875 1 
C 14.09375 1 11.09375 5.46875 11.09375 12.84375 
C 11.09375 14.234375 11.09375 16.734375 12.59375 23.109375 
z
M 13.09375 25 
C 17.40625 40.5 26.90625 42.015625 30.09375 42.015625 
C 34.5 42.015625 37.5 39.40625 37.5 35.578125 
C 37.5 25 21.5 25 17.296875 25 
z
" id="CMMI12-101"/>
       <path d="M 22.796875 20 
C 24.5 19.703125 27.203125 19.109375 27.796875 19 
C 29.09375 18.625 33.59375 17.03125 33.59375 12.234375 
C 33.59375 9.15625 30.796875 1.09375 19.203125 1.09375 
C 17.09375 1.09375 9.59375 1.09375 7.59375 6.8125 
C 11.59375 6.3125 13.59375 9.421875 13.59375 11.640625 
C 13.59375 13.75 12.203125 14.84375 10.203125 14.84375 
C 8 14.84375 5.09375 13.140625 5.09375 8.625 
C 5.09375 2.703125 11.09375 -1 19.09375 -1 
C 34.296875 -1 38.796875 10.171875 38.796875 15.375 
C 38.796875 16.859375 38.796875 19.65625 35.59375 22.84375 
C 33.09375 25.25 30.703125 25.75 25.296875 26.84375 
C 22.59375 27.4375 18.296875 28.34375 18.296875 32.828125 
C 18.296875 34.828125 20.09375 42.015625 29.59375 42.015625 
C 33.796875 42.015625 37.90625 40.453125 38.90625 37 
C 34.5 37 34.296875 33.203125 34.296875 33.109375 
C 34.296875 31 36.203125 30.40625 37.09375 30.40625 
C 38.5 30.40625 41.296875 31.484375 41.296875 35.640625 
C 41.296875 39.765625 37.5 44 29.703125 44 
C 16.59375 44 13.09375 33.75 13.09375 29.671875 
C 13.09375 22.09375 20.5 20.5 22.796875 20 
z
" id="CMMI12-115"/>
       <path d="M 30.59375 -24.390625 
C 30.59375 -24.296875 30.59375 -24.09375 30.296875 -23.796875 
C 25.703125 -19.125 13.40625 -6.359375 13.40625 24.703125 
C 13.40625 55.765625 25.5 68.421875 30.40625 73.390625 
C 30.40625 73.5 30.59375 73.703125 30.59375 74 
C 30.59375 74.296875 30.296875 74.5 29.90625 74.5 
C 28.796875 74.5 20.296875 67.125 15.40625 56.15625 
C 10.40625 45.109375 9 34.359375 9 24.8125 
C 9 17.625 9.703125 5.484375 15.703125 -7.359375 
C 20.5 -17.734375 28.703125 -25 29.90625 -25 
C 30.40625 -25 30.59375 -24.796875 30.59375 -24.390625 
z
" id="CMR17-40"/>
       <path d="M 41.703125 60.75 
C 41.703125 65.3125 37.203125 69.46875 31.203125 69.46875 
C 25.203125 69.46875 20.703125 65.3125 20.703125 60.75 
C 20.703125 56.171875 25.203125 52 31.203125 52 
C 37.203125 52 41.703125 56.171875 41.703125 60.75 
z
M 31.203125 56.484375 
C 29 56.484375 26 57.171875 26 60.734375 
C 26 64.09375 28.703125 65 31.203125 65 
C 33.40625 65 36.40625 64.296875 36.40625 60.734375 
C 36.40625 57.375 33.703125 56.484375 31.203125 56.484375 
z
" id="CMSS17-23"/>
       <path d="M 17 10.796875 
C 13.5 4.90625 10.09375 2.90625 5.296875 2.90625 
C 4.203125 2.8125 3.40625 2.8125 3.40625 0.90625 
C 3.40625 0.375 3.90625 0 4.59375 0 
C 6.40625 0 10.90625 0 12.703125 0 
C 15.59375 0 18.796875 0 21.59375 0 
C 22.203125 0 23.40625 0 23.40625 1.90625 
C 23.40625 2.8125 22.59375 2.90625 22 2.90625 
C 19.703125 2.90625 17.796875 3.6875 17.796875 6.0625 
C 17.796875 7.4375 18.40625 8.53125 19.703125 10.703125 
L 27.296875 23.109375 
L 52.796875 23.109375 
C 52.90625 22.234375 52.90625 21.453125 53 20.5625 
C 53.296875 18 54.5 7.734375 54.5 5.875 
C 54.5 2.90625 49.40625 2.90625 47.796875 2.90625 
C 46.703125 2.90625 45.59375 2.90625 45.59375 1.09375 
C 45.59375 0 46.5 0 47.09375 0 
C 48.796875 0 50.796875 0 52.5 0 
L 58.203125 0 
C 64.296875 0 68.703125 0 68.796875 0 
C 69.5 0 70.59375 0 70.59375 1.90625 
C 70.59375 2.90625 69.703125 2.90625 68.203125 2.90625 
C 62.703125 2.90625 62.59375 3.8125 62.296875 6.78125 
L 56.203125 68.8125 
C 56 70.796875 55.59375 71 54.5 71 
C 53.5 71 52.90625 70.796875 52 69.296875 
z
M 29 26 
L 49.09375 59.671875 
L 52.5 26 
z
" id="CMMI12-65"/>
       <path d="M 26.296875 24.703125 
C 26.296875 31.875 25.59375 44.015625 19.59375 56.859375 
C 14.796875 67.234375 6.59375 74.5 5.40625 74.5 
C 5.09375 74.5 4.703125 74.390625 4.703125 73.890625 
C 4.703125 73.703125 4.796875 73.59375 4.90625 73.390625 
C 9.703125 68.40625 21.90625 55.75 21.90625 24.75 
C 21.90625 -6.359375 9.796875 -19.015625 4.90625 -24.015625 
C 4.796875 -24.203125 4.703125 -24.3125 4.703125 -24.5 
C 4.703125 -25 5.09375 -25 5.40625 -25 
C 6.5 -25 15 -17.625 19.90625 -6.65625 
C 24.90625 4.390625 26.296875 15.140625 26.296875 24.703125 
z
" id="CMR17-41"/>
      </defs>
      <use transform="scale(0.996264)" xlink:href="#CMMI12-116"/>
      <use transform="translate(35.22633 0)scale(0.996264)" xlink:href="#CMMI12-104"/>
      <use transform="translate(91.380954 0)scale(0.996264)" xlink:href="#CMMI12-105"/>
      <use transform="translate(124.659556 0)scale(0.996264)" xlink:href="#CMMI12-99"/>
      <use transform="translate(166.64279 0)scale(0.996264)" xlink:href="#CMMI12-107"/>
      <use transform="translate(220.72199 0)scale(0.996264)" xlink:href="#CMMI12-110"/>
      <use transform="translate(278.952038 0)scale(0.996264)" xlink:href="#CMMI12-101"/>
      <use transform="translate(324.164039 0)scale(0.996264)" xlink:href="#CMMI12-115"/>
      <use transform="translate(370.114086 0)scale(0.996264)" xlink:href="#CMMI12-115"/>
      <use transform="translate(416.064134 0)scale(0.996264)" xlink:href="#CMR17-40"/>
      <use transform="translate(451.344902 17.618744)scale(0.996264)" xlink:href="#CMSS17-23"/>
      <use transform="translate(451.344902 0)scale(0.996264)" xlink:href="#CMMI12-65"/>
      <use transform="translate(524.472787 0)scale(0.996264)" xlink:href="#CMR17-41"/>
     </g>
    </g>
   </g>
   <g id="matplotlib.axis_2">
    <g id="ytick_1">
     <g id="line2d_15">
      <path clip-path="url(#p2954fea775)" d="M 108 663.26281 
L 698.4 663.26281 
" style="fill:none;stroke:#e6e6e6;stroke-linecap:square;stroke-width:0.8;"/>
     </g>
     <g id="line2d_16">
      <defs>
       <path d="M 0 0 
L -3.5 0 
" id="mdaa71984bb" style="stroke:#000000;stroke-width:0.8;"/>
      </defs>
      <g>
       <use style="stroke:#000000;stroke-width:0.8;" x="108" xlink:href="#mdaa71984bb" y="663.26281"/>
      </g>
     </g>
     <g id="text_9">
      <!-- $\mathdefault{0.00000}$ -->
      <g transform="translate(53.037997 668.451672)scale(0.15 -0.15)">
       <defs>
        <path d="M 18.40625 4.796875 
C 18.40625 7.6875 16 9.671875 13.59375 9.671875 
C 10.703125 9.671875 8.703125 7.28125 8.703125 4.890625 
C 8.703125 2 11.09375 0 13.5 0 
C 16.40625 0 18.40625 2.390625 18.40625 4.796875 
z
" id="CMMI12-58"/>
       </defs>
       <use transform="scale(0.996264)" xlink:href="#CMR17-48"/>
       <use transform="translate(45.690477 0)scale(0.996264)" xlink:href="#CMMI12-58"/>
       <use transform="translate(72.787654 0)scale(0.996264)" xlink:href="#CMR17-48"/>
       <use transform="translate(118.478131 0)scale(0.996264)" xlink:href="#CMR17-48"/>
       <use transform="translate(164.168608 0)scale(0.996264)" xlink:href="#CMR17-48"/>
       <use transform="translate(209.859086 0)scale(0.996264)" xlink:href="#CMR17-48"/>
       <use transform="translate(255.549563 0)scale(0.996264)" xlink:href="#CMR17-48"/>
      </g>
     </g>
    </g>
    <g id="ytick_2">
     <g id="line2d_17">
      <path clip-path="url(#p2954fea775)" d="M 108 574.503917 
L 698.4 574.503917 
" style="fill:none;stroke:#e6e6e6;stroke-linecap:square;stroke-width:0.8;"/>
     </g>
     <g id="line2d_18">
      <g>
       <use style="stroke:#000000;stroke-width:0.8;" x="108" xlink:href="#mdaa71984bb" y="574.503917"/>
      </g>
     </g>
     <g id="text_10">
      <!-- $\mathdefault{0.00005}$ -->
      <g transform="translate(53.037997 579.692779)scale(0.15 -0.15)">
       <use transform="scale(0.996264)" xlink:href="#CMR17-48"/>
       <use transform="translate(45.690477 0)scale(0.996264)" xlink:href="#CMMI12-58"/>
       <use transform="translate(72.787654 0)scale(0.996264)" xlink:href="#CMR17-48"/>
       <use transform="translate(118.478131 0)scale(0.996264)" xlink:href="#CMR17-48"/>
       <use transform="translate(164.168608 0)scale(0.996264)" xlink:href="#CMR17-48"/>
       <use transform="translate(209.859086 0)scale(0.996264)" xlink:href="#CMR17-48"/>
       <use transform="translate(255.549563 0)scale(0.996264)" xlink:href="#CMR17-53"/>
      </g>
     </g>
    </g>
    <g id="ytick_3">
     <g id="line2d_19">
      <path clip-path="url(#p2954fea775)" d="M 108 485.745023 
L 698.4 485.745023 
" style="fill:none;stroke:#e6e6e6;stroke-linecap:square;stroke-width:0.8;"/>
     </g>
     <g id="line2d_20">
      <g>
       <use style="stroke:#000000;stroke-width:0.8;" x="108" xlink:href="#mdaa71984bb" y="485.745023"/>
      </g>
     </g>
     <g id="text_11">
      <!-- $\mathdefault{0.00010}$ -->
      <g transform="translate(53.037997 490.933885)scale(0.15 -0.15)">
       <use transform="scale(0.996264)" xlink:href="#CMR17-48"/>
       <use transform="translate(45.690477 0)scale(0.996264)" xlink:href="#CMMI12-58"/>
       <use transform="translate(72.787654 0)scale(0.996264)" xlink:href="#CMR17-48"/>
       <use transform="translate(118.478131 0)scale(0.996264)" xlink:href="#CMR17-48"/>
       <use transform="translate(164.168608 0)scale(0.996264)" xlink:href="#CMR17-48"/>
       <use transform="translate(209.859086 0)scale(0.996264)" xlink:href="#CMR17-49"/>
       <use transform="translate(255.549563 0)scale(0.996264)" xlink:href="#CMR17-48"/>
      </g>
     </g>
    </g>
    <g id="ytick_4">
     <g id="line2d_21">
      <path clip-path="url(#p2954fea775)" d="M 108 396.986129 
L 698.4 396.986129 
" style="fill:none;stroke:#e6e6e6;stroke-linecap:square;stroke-width:0.8;"/>
     </g>
     <g id="line2d_22">
      <g>
       <use style="stroke:#000000;stroke-width:0.8;" x="108" xlink:href="#mdaa71984bb" y="396.986129"/>
      </g>
     </g>
     <g id="text_12">
      <!-- $\mathdefault{0.00015}$ -->
      <g transform="translate(53.037997 402.174992)scale(0.15 -0.15)">
       <use transform="scale(0.996264)" xlink:href="#CMR17-48"/>
       <use transform="translate(45.690477 0)scale(0.996264)" xlink:href="#CMMI12-58"/>
       <use transform="translate(72.787654 0)scale(0.996264)" xlink:href="#CMR17-48"/>
       <use transform="translate(118.478131 0)scale(0.996264)" xlink:href="#CMR17-48"/>
       <use transform="translate(164.168608 0)scale(0.996264)" xlink:href="#CMR17-48"/>
       <use transform="translate(209.859086 0)scale(0.996264)" xlink:href="#CMR17-49"/>
       <use transform="translate(255.549563 0)scale(0.996264)" xlink:href="#CMR17-53"/>
      </g>
     </g>
    </g>
    <g id="ytick_5">
     <g id="line2d_23">
      <path clip-path="url(#p2954fea775)" d="M 108 308.227236 
L 698.4 308.227236 
" style="fill:none;stroke:#e6e6e6;stroke-linecap:square;stroke-width:0.8;"/>
     </g>
     <g id="line2d_24">
      <g>
       <use style="stroke:#000000;stroke-width:0.8;" x="108" xlink:href="#mdaa71984bb" y="308.227236"/>
      </g>
     </g>
     <g id="text_13">
      <!-- $\mathdefault{0.00020}$ -->
      <g transform="translate(53.037997 313.416098)scale(0.15 -0.15)">
       <use transform="scale(0.996264)" xlink:href="#CMR17-48"/>
       <use transform="translate(45.690477 0)scale(0.996264)" xlink:href="#CMMI12-58"/>
       <use transform="translate(72.787654 0)scale(0.996264)" xlink:href="#CMR17-48"/>
       <use transform="translate(118.478131 0)scale(0.996264)" xlink:href="#CMR17-48"/>
       <use transform="translate(164.168608 0)scale(0.996264)" xlink:href="#CMR17-48"/>
       <use transform="translate(209.859086 0)scale(0.996264)" xlink:href="#CMR17-50"/>
       <use transform="translate(255.549563 0)scale(0.996264)" xlink:href="#CMR17-48"/>
      </g>
     </g>
    </g>
    <g id="ytick_6">
     <g id="line2d_25">
      <path clip-path="url(#p2954fea775)" d="M 108 219.468342 
L 698.4 219.468342 
" style="fill:none;stroke:#e6e6e6;stroke-linecap:square;stroke-width:0.8;"/>
     </g>
     <g id="line2d_26">
      <g>
       <use style="stroke:#000000;stroke-width:0.8;" x="108" xlink:href="#mdaa71984bb" y="219.468342"/>
      </g>
     </g>
     <g id="text_14">
      <!-- $\mathdefault{0.00025}$ -->
      <g transform="translate(53.037997 224.657205)scale(0.15 -0.15)">
       <use transform="scale(0.996264)" xlink:href="#CMR17-48"/>
       <use transform="translate(45.690477 0)scale(0.996264)" xlink:href="#CMMI12-58"/>
       <use transform="translate(72.787654 0)scale(0.996264)" xlink:href="#CMR17-48"/>
       <use transform="translate(118.478131 0)scale(0.996264)" xlink:href="#CMR17-48"/>
       <use transform="translate(164.168608 0)scale(0.996264)" xlink:href="#CMR17-48"/>
       <use transform="translate(209.859086 0)scale(0.996264)" xlink:href="#CMR17-50"/>
       <use transform="translate(255.549563 0)scale(0.996264)" xlink:href="#CMR17-53"/>
      </g>
     </g>
    </g>
    <g id="ytick_7">
     <g id="line2d_27">
      <path clip-path="url(#p2954fea775)" d="M 108 130.709449 
L 698.4 130.709449 
" style="fill:none;stroke:#e6e6e6;stroke-linecap:square;stroke-width:0.8;"/>
     </g>
     <g id="line2d_28">
      <g>
       <use style="stroke:#000000;stroke-width:0.8;" x="108" xlink:href="#mdaa71984bb" y="130.709449"/>
      </g>
     </g>
     <g id="text_15">
      <!-- $\mathdefault{0.00030}$ -->
      <g transform="translate(53.037997 135.898311)scale(0.15 -0.15)">
       <use transform="scale(0.996264)" xlink:href="#CMR17-48"/>
       <use transform="translate(45.690477 0)scale(0.996264)" xlink:href="#CMMI12-58"/>
       <use transform="translate(72.787654 0)scale(0.996264)" xlink:href="#CMR17-48"/>
       <use transform="translate(118.478131 0)scale(0.996264)" xlink:href="#CMR17-48"/>
       <use transform="translate(164.168608 0)scale(0.996264)" xlink:href="#CMR17-48"/>
       <use transform="translate(209.859086 0)scale(0.996264)" xlink:href="#CMR17-51"/>
       <use transform="translate(255.549563 0)scale(0.996264)" xlink:href="#CMR17-48"/>
      </g>
     </g>
    </g>
    <g id="text_16">
     <!-- $I_{hk}$ -->
     <g transform="translate(44.193462 403.530831)rotate(-90)scale(0.25 -0.25)">
      <defs>
       <path d="M 36.796875 60.625 
C 37.703125 64.109375 37.90625 65.109375 45.203125 65.109375 
C 47.40625 65.109375 48.203125 65.109375 48.203125 67 
C 48.203125 68 47.09375 68 46.796875 68 
C 45 68 42.796875 68 41 68 
L 28.703125 68 
C 26.703125 68 24.40625 68 22.40625 68 
C 21.59375 68 20.5 68 20.5 66.109375 
C 20.5 65.109375 21.296875 65.109375 23.296875 65.109375 
C 29.5 65.109375 29.5 64.3125 29.5 63.21875 
C 29.5 62.53125 29.296875 61.921875 29.09375 61.03125 
L 15.59375 7.375 
C 14.703125 3.890625 14.5 2.890625 7.203125 2.890625 
C 5 2.890625 4.09375 2.890625 4.09375 1 
C 4.09375 0 5.09375 0 5.59375 0 
C 7.40625 0 9.59375 0 11.40625 0 
L 23.703125 0 
C 25.703125 0 27.90625 0 29.90625 0 
C 30.703125 0 31.90625 0 31.90625 1.796875 
C 31.90625 2.890625 31.296875 2.890625 29.09375 2.890625 
C 22.90625 2.890625 22.90625 3.6875 22.90625 4.875 
C 22.90625 5.078125 22.90625 5.578125 23.296875 7.171875 
z
" id="CMMI12-73"/>
      </defs>
      <use transform="scale(0.996264)" xlink:href="#CMMI12-73"/>
      <use transform="translate(43.024176 -14.943915)scale(0.697382)" xlink:href="#CMMI12-104"/>
      <use transform="translate(82.33223 -14.943915)scale(0.697382)" xlink:href="#CMMI12-107"/>
     </g>
    </g>
   </g>
   <g id="line2d_29">
    <path clip-path="url(#p2954fea775)" d="M 159.233058 663.26281 
L 195.907827 663.158337 
L 205.475158 662.912621 
L 213.447934 662.442732 
L 219.826155 661.814436 
L 224.60982 661.145518 
L 229.393486 660.265974 
L 234.177151 659.136786 
L 238.960817 657.711592 
L 242.149927 656.606651 
L 246.933593 654.681564 
L 251.717258 652.398301 
L 254.906368 650.60987 
L 258.095479 648.741068 
L 262.879144 645.508236 
L 266.068255 643.086016 
L 269.257365 640.486983 
L 272.446475 637.619093 
L 275.635586 634.579525 
L 278.824696 631.298078 
L 282.013807 627.81412 
L 286.797472 622.089285 
L 291.581138 615.819414 
L 293.175693 613.675198 
L 299.553913 604.253819 
L 302.743024 599.09952 
L 304.337579 596.583259 
L 313.90491 579.61881 
L 318.688576 570.414133 
L 321.877686 564.167037 
L 323.472241 560.799406 
L 326.661351 554.542447 
L 329.850462 547.835223 
L 333.039572 541.386651 
L 336.228683 534.677709 
L 337.823238 531.593981 
L 342.606903 521.776077 
L 345.796014 515.448166 
L 352.174234 503.397231 
L 358.552455 492.539062 
L 363.336121 484.989674 
L 369.714341 476.294365 
L 372.903452 472.697528 
L 374.498007 470.705691 
L 376.092562 469.162577 
L 377.687117 467.803682 
L 380.876228 464.6702 
L 385.659893 461.138349 
L 388.849003 459.178333 
L 390.443559 458.262751 
L 395.227224 456.104456 
L 396.821779 455.524646 
L 403.2 453.778266 
L 407.983666 453.007989 
L 411.172776 452.814748 
L 414.361886 452.786706 
L 415.956441 452.772439 
L 422.334662 453.377865 
L 423.929217 453.994003 
L 425.523772 454.391698 
L 427.118328 454.665252 
L 428.712883 455.218865 
L 430.307438 456.070141 
L 433.496548 457.189022 
L 436.685659 459.188538 
L 438.280214 459.955014 
L 439.874769 460.930086 
L 441.469324 462.204962 
L 444.658435 464.585109 
L 449.4421 468.749251 
L 455.820321 475.322956 
L 457.414876 477.412041 
L 462.198542 483.021782 
L 463.793097 485.281196 
L 466.982207 489.382239 
L 474.954983 500.802966 
L 481.333204 510.418515 
L 490.900535 525.032052 
L 492.49509 527.633582 
L 495.6842 532.284856 
L 498.873311 537.230388 
L 502.062421 541.753545 
L 503.656976 544.224923 
L 508.440642 550.820738 
L 510.035197 553.089359 
L 511.629752 555.0554 
L 514.818862 559.456075 
L 518.007973 563.383038 
L 521.197083 567.412855 
L 524.386193 571.219022 
L 525.980749 573.184981 
L 529.169859 576.642688 
L 532.358969 580.295129 
L 535.54808 583.576794 
L 538.73719 586.862477 
L 546.709966 594.418303 
L 551.493632 598.609971 
L 557.871852 603.776483 
L 565.844628 609.624347 
L 572.222849 613.778056 
L 578.60107 617.443821 
L 586.573845 621.246012 
L 591.357511 623.118986 
L 596.141176 624.679197 
L 600.924842 625.945869 
L 607.303063 627.208298 
L 613.681283 628.060924 
L 620.059504 628.603153 
L 629.626835 629.032919 
L 647.166942 629.178088 
L 647.166942 629.178088 
" style="fill:none;stroke:#e2514a;stroke-linecap:square;stroke-width:2;"/>
   </g>
   <g id="line2d_30">
    <path clip-path="url(#p2954fea775)" d="M 159.233058 663.26281 
L 199.096937 663.161419 
L 215.042489 662.863173 
L 253.311813 662.045588 
L 264.4737 662.062076 
L 275.635586 662.172504 
L 294.770248 662.365219 
L 310.7158 662.184842 
L 328.255907 661.568891 
L 337.823238 661.261338 
L 344.201458 661.134092 
L 350.579679 661.111601 
L 360.14701 661.29766 
L 374.498007 661.835517 
L 387.254448 662.226977 
L 398.416334 662.31825 
L 407.983666 662.149465 
L 417.550997 661.755838 
L 430.307438 660.878303 
L 438.280214 660.218677 
L 446.25299 659.499617 
L 457.414876 658.683671 
L 468.576762 658.330097 
L 482.927759 658.675764 
L 489.30598 659.004059 
L 498.873311 659.608057 
L 519.602528 660.605662 
L 540.331745 661.026485 
L 564.250073 660.982384 
L 594.546621 660.585744 
L 610.492173 660.032678 
L 637.599611 659.066265 
L 647.166942 658.953341 
L 647.166942 658.953341 
" style="fill:none;stroke:#fca55d;stroke-linecap:square;stroke-width:2;"/>
   </g>
   <g id="line2d_31">
    <path clip-path="url(#p2954fea775)" d="M 159.233058 663.26281 
L 195.907827 663.156243 
L 205.475158 662.899202 
L 211.853379 662.540311 
L 218.231599 661.938988 
L 224.60982 660.987811 
L 229.393486 660.024602 
L 235.771706 658.23762 
L 240.555372 656.520352 
L 245.339037 654.395668 
L 250.122703 651.842251 
L 253.311813 649.797261 
L 256.500924 647.67531 
L 261.284589 643.986293 
L 266.068255 639.732598 
L 269.257365 636.607305 
L 274.041031 631.515128 
L 280.419251 623.956924 
L 285.202917 617.781309 
L 291.581138 608.892606 
L 293.175693 606.545984 
L 294.770248 604.411347 
L 302.743024 592.302254 
L 304.337579 589.817995 
L 305.932134 587.67386 
L 310.7158 580.2052 
L 312.310355 578.015471 
L 313.90491 575.399058 
L 315.499465 573.079166 
L 317.09402 570.971646 
L 320.283131 566.00686 
L 323.472241 562.051522 
L 325.066796 559.471079 
L 326.661351 557.405575 
L 328.255907 555.577118 
L 333.039572 549.460029 
L 334.634127 547.896813 
L 336.228683 545.693724 
L 337.823238 543.827491 
L 339.417793 542.362098 
L 341.012348 540.733247 
L 342.606903 538.83419 
L 345.796014 536.174986 
L 347.390569 534.496305 
L 348.985124 533.060092 
L 352.174234 530.804479 
L 353.768789 529.303448 
L 355.363345 528.26111 
L 356.9579 527.355655 
L 358.552455 526.111511 
L 360.14701 525.047576 
L 363.336121 523.641391 
L 364.930676 522.438009 
L 368.119786 521.393012 
L 369.714341 520.477911 
L 371.308896 519.808197 
L 374.498007 519.013612 
L 376.092562 518.104101 
L 380.876228 517.167773 
L 382.470783 516.600707 
L 384.065338 516.52132 
L 385.659893 516.298028 
L 387.254448 515.671262 
L 388.849003 515.761298 
L 392.038114 515.311718 
L 393.632669 514.856911 
L 395.227224 515.124305 
L 396.821779 514.84168 
L 398.416334 514.444451 
L 401.605445 514.595053 
L 403.2 514.349172 
L 404.794555 513.854695 
L 406.38911 514.313542 
L 411.172776 513.65639 
L 412.767331 513.90011 
L 415.956441 513.265241 
L 417.550997 513.534402 
L 419.145552 513.373759 
L 422.334662 512.762823 
L 423.929217 512.924657 
L 425.523772 512.462997 
L 430.307438 511.708043 
L 433.496548 510.771439 
L 435.091104 510.566792 
L 436.685659 509.91574 
L 439.874769 508.829747 
L 441.469324 508.185398 
L 444.658435 506.510871 
L 446.25299 505.831003 
L 449.4421 503.858889 
L 455.820321 499.241282 
L 459.009431 496.495271 
L 460.603986 495.167777 
L 462.198542 493.320164 
L 465.387652 490.12819 
L 468.576762 486.340771 
L 470.171317 484.258232 
L 471.765873 482.413658 
L 478.144093 473.307317 
L 481.333204 468.058521 
L 482.927759 465.510046 
L 486.116869 459.946715 
L 487.711424 456.816186 
L 489.30598 454.043689 
L 495.6842 441.183025 
L 503.656976 423.429244 
L 508.440642 411.691355 
L 513.224307 399.443806 
L 519.602528 381.84646 
L 525.980749 363.136676 
L 529.169859 353.141034 
L 532.358969 343.127677 
L 543.520856 306.259533 
L 546.709966 295.315243 
L 549.899076 284.435714 
L 557.871852 257.459052 
L 561.060963 246.902503 
L 562.655518 241.408001 
L 565.844628 231.6588 
L 567.439183 226.231439 
L 573.817404 207.10072 
L 577.006514 198.745517 
L 578.60107 193.93089 
L 580.195625 189.816178 
L 581.79018 186.051534 
L 584.97929 177.776851 
L 586.573845 174.502809 
L 588.168401 170.973921 
L 589.762956 167.123716 
L 591.357511 163.757657 
L 592.952066 160.828441 
L 596.141176 154.219471 
L 597.735732 151.723402 
L 602.519397 143.55345 
L 604.113952 141.536312 
L 607.303063 136.69268 
L 610.492173 133.081484 
L 612.086728 131.010859 
L 613.681283 129.259319 
L 615.275839 128.000662 
L 618.464949 124.771278 
L 621.654059 122.653991 
L 623.248614 121.375587 
L 624.84317 120.388825 
L 626.437725 119.733519 
L 629.626835 117.946353 
L 636.005056 115.861876 
L 642.383277 114.786357 
L 647.166942 114.33719 
L 647.166942 114.33719 
" style="fill:none;stroke:#fee999;stroke-linecap:square;stroke-width:2;"/>
   </g>
   <g id="line2d_32">
    <path clip-path="url(#p2954fea775)" d="M 159.233058 663.26281 
L 195.907827 663.163838 
L 207.069713 662.876217 
L 215.042489 662.421762 
L 221.42071 661.847326 
L 226.204375 661.250554 
L 232.582596 660.223857 
L 238.960817 658.88052 
L 245.339037 657.214819 
L 250.122703 655.792866 
L 254.906368 654.250347 
L 258.095479 653.142402 
L 261.284589 651.996323 
L 269.257365 649.210882 
L 270.85192 648.714197 
L 274.041031 647.563967 
L 277.230141 646.635874 
L 278.824696 646.088987 
L 289.986582 643.535354 
L 297.959358 642.623535 
L 299.553913 642.451827 
L 309.121245 642.493079 
L 310.7158 642.5471 
L 313.90491 642.886819 
L 315.499465 642.93913 
L 320.283131 643.482671 
L 321.877686 643.65355 
L 323.472241 643.984179 
L 328.255907 644.493493 
L 329.850462 644.719927 
L 331.445017 644.75974 
L 336.228683 645.228213 
L 337.823238 645.213057 
L 341.012348 645.428213 
L 344.201458 645.371447 
L 345.796014 645.391706 
L 348.985124 645.113041 
L 350.579679 645.057811 
L 356.9579 644.190182 
L 360.14701 643.582354 
L 361.741565 643.250023 
L 364.930676 642.380891 
L 366.525231 642.069093 
L 369.714341 641.042494 
L 371.308896 640.651458 
L 372.903452 640.141984 
L 374.498007 639.504853 
L 377.687117 638.58282 
L 379.281672 637.883264 
L 388.849003 634.525666 
L 390.443559 633.787697 
L 395.227224 632.086695 
L 396.821779 631.403426 
L 400.01089 630.415329 
L 401.605445 629.694702 
L 406.38911 628.142455 
L 407.983666 627.515927 
L 409.578221 627.156768 
L 414.361886 625.658442 
L 415.956441 625.305423 
L 419.145552 624.34961 
L 420.740107 624.132077 
L 423.929217 623.331055 
L 427.118328 622.972346 
L 428.712883 622.614199 
L 430.307438 622.417756 
L 431.901993 622.436658 
L 433.496548 622.164658 
L 435.091104 622.041311 
L 438.280214 622.048816 
L 439.874769 621.912736 
L 446.25299 622.165026 
L 447.847545 622.431568 
L 451.036655 622.547136 
L 454.225766 623.093042 
L 455.820321 623.103214 
L 460.603986 623.874996 
L 462.198542 623.999806 
L 463.793097 624.405977 
L 465.387652 624.67755 
L 466.982207 624.697324 
L 470.171317 625.430584 
L 473.360428 625.55201 
L 474.954983 625.957943 
L 476.549538 626.129077 
L 478.144093 626.069117 
L 481.333204 626.602012 
L 484.522314 626.503952 
L 486.116869 626.783851 
L 487.711424 626.773707 
L 489.30598 626.520412 
L 492.49509 626.703205 
L 494.089645 626.391467 
L 495.6842 626.199176 
L 497.278755 626.27109 
L 498.873311 625.981898 
L 500.467866 625.566384 
L 503.656976 625.231862 
L 505.251531 624.689653 
L 506.846087 624.305233 
L 508.440642 624.102414 
L 511.629752 622.955127 
L 513.224307 622.605283 
L 514.818862 622.112257 
L 516.413418 621.38263 
L 519.602528 620.369933 
L 522.791638 618.898307 
L 524.386193 618.38609 
L 525.980749 617.690376 
L 527.575304 616.82851 
L 530.764414 615.516647 
L 533.953525 613.860183 
L 535.54808 613.22463 
L 540.331745 610.806829 
L 541.9263 610.064765 
L 543.520856 609.124853 
L 548.304521 606.742519 
L 554.682742 603.602937 
L 557.871852 602.254503 
L 561.060963 600.67391 
L 562.655518 600.139746 
L 565.844628 598.613864 
L 567.439183 598.169138 
L 572.222849 596.348637 
L 573.817404 595.967607 
L 577.006514 594.771683 
L 578.60107 594.474973 
L 583.384735 593.146869 
L 584.97929 592.923288 
L 588.168401 592.08562 
L 589.762956 591.895815 
L 594.546621 591.012089 
L 596.141176 590.849354 
L 599.330287 590.318942 
L 602.519397 590.016327 
L 604.113952 589.790973 
L 620.059504 588.805992 
L 647.166942 588.496781 
L 647.166942 588.496781 
" style="fill:none;stroke:#edf8a3;stroke-linecap:square;stroke-width:2;"/>
   </g>
   <g id="line2d_33">
    <path clip-path="url(#p2954fea775)" d="M 159.233058 663.26281 
L 199.096937 663.161658 
L 215.042489 662.863745 
L 235.771706 662.255324 
L 254.906368 661.607997 
L 264.4737 661.139114 
L 285.202917 659.682789 
L 289.986582 659.36757 
L 294.770248 659.126122 
L 299.553913 658.953946 
L 305.932134 658.867498 
L 313.90491 658.9735 
L 342.606903 659.750459 
L 372.903452 659.841084 
L 390.443559 660.185441 
L 406.38911 660.610812 
L 423.929217 660.833954 
L 433.496548 660.804901 
L 455.820321 660.755694 
L 476.549538 661.009895 
L 486.116869 660.935689 
L 495.6842 660.544147 
L 506.846087 659.75683 
L 533.953525 657.146764 
L 537.142635 656.804667 
L 556.277297 654.928516 
L 564.250073 654.398939 
L 572.222849 654.141115 
L 577.006514 654.137104 
L 581.79018 654.255263 
L 586.573845 654.477718 
L 594.546621 655.00108 
L 608.897618 656.251868 
L 626.437725 657.395839 
L 636.005056 657.732511 
L 647.166942 657.872385 
L 647.166942 657.872385 
" style="fill:none;stroke:#a2d9a4;stroke-linecap:square;stroke-width:2;"/>
   </g>
   <g id="line2d_34">
    <path clip-path="url(#p2954fea775)" d="M 159.233058 663.26281 
L 197.502382 663.16472 
L 210.258824 662.916067 
L 218.231599 662.654081 
L 230.988041 662.077675 
L 238.960817 661.792752 
L 248.528148 661.445375 
L 251.717258 661.417762 
L 253.311813 661.332191 
L 256.500924 661.375456 
L 259.690034 661.264849 
L 261.284589 661.336857 
L 266.068255 661.247245 
L 267.66281 661.275298 
L 270.85192 661.142752 
L 272.446475 661.229708 
L 277.230141 661.102456 
L 278.824696 661.142736 
L 282.013807 660.947015 
L 283.608362 661.024228 
L 288.392027 660.829232 
L 289.986582 660.873649 
L 293.175693 660.623033 
L 294.770248 660.718794 
L 299.553913 660.501651 
L 301.148469 660.574983 
L 302.743024 660.377081 
L 304.337579 660.309471 
L 305.932134 660.447646 
L 310.7158 660.317225 
L 312.310355 660.425552 
L 313.90491 660.253108 
L 315.499465 660.241708 
L 317.09402 660.427285 
L 318.688576 660.418219 
L 320.283131 660.274599 
L 323.472241 660.60017 
L 325.066796 660.464634 
L 326.661351 660.504757 
L 328.255907 660.745398 
L 329.850462 660.767352 
L 331.445017 660.663174 
L 334.634127 661.047895 
L 336.228683 660.957637 
L 337.823238 661.011502 
L 339.417793 661.258747 
L 344.201458 661.430039 
L 345.796014 661.575087 
L 347.390569 661.503103 
L 348.985124 661.554963 
L 350.579679 661.800741 
L 353.768789 661.734852 
L 356.9579 662.043295 
L 358.552455 661.963618 
L 360.14701 661.999398 
L 361.741565 662.207932 
L 364.930676 662.115071 
L 368.119786 662.357482 
L 369.714341 662.260095 
L 371.308896 662.277171 
L 372.903452 662.443912 
L 376.092562 662.327105 
L 379.281672 662.504095 
L 380.876228 662.387151 
L 382.470783 662.387626 
L 384.065338 662.521224 
L 388.849003 662.460776 
L 390.443559 662.523997 
L 392.038114 662.384565 
L 393.632669 662.380867 
L 395.227224 662.493271 
L 400.01089 662.403564 
L 401.605445 662.462229 
L 403.2 662.313252 
L 404.794555 662.307853 
L 406.38911 662.422079 
L 409.578221 662.235816 
L 412.767331 662.375376 
L 414.361886 662.214893 
L 415.956441 662.210218 
L 417.550997 662.329823 
L 420.740107 662.125579 
L 423.929217 662.256532 
L 425.523772 662.079342 
L 430.307438 662.088699 
L 431.901993 661.944867 
L 435.091104 662.056078 
L 436.685659 661.849699 
L 441.469324 661.812755 
L 443.063879 661.635392 
L 444.658435 661.732601 
L 446.25299 661.706128 
L 447.847545 661.475808 
L 449.4421 661.439064 
L 451.036655 661.518985 
L 454.225766 661.12797 
L 455.820321 661.219141 
L 457.414876 661.164465 
L 459.009431 660.887732 
L 460.603986 660.803096 
L 462.198542 660.881454 
L 465.387652 660.400905 
L 466.982207 660.477596 
L 468.576762 660.407508 
L 470.171317 660.080707 
L 471.765873 659.974083 
L 473.360428 660.073718 
L 476.549538 659.54749 
L 478.144093 659.614675 
L 479.738649 659.568117 
L 481.333204 659.230066 
L 482.927759 659.137998 
L 484.522314 659.258401 
L 487.711424 658.776947 
L 490.900535 658.883487 
L 492.49509 658.594373 
L 494.089645 658.560931 
L 495.6842 658.737479 
L 498.873311 658.407868 
L 502.062421 658.655464 
L 503.656976 658.444054 
L 505.251531 658.529627 
L 506.846087 658.74827 
L 510.035197 658.640695 
L 513.224307 659.003677 
L 514.818862 658.912719 
L 519.602528 659.324583 
L 521.197083 659.341598 
L 524.386193 659.757511 
L 525.980749 659.739492 
L 530.764414 660.183594 
L 532.358969 660.225112 
L 535.54808 660.59058 
L 537.142635 660.596093 
L 546.709966 661.245279 
L 549.899076 661.306627 
L 553.088187 661.475316 
L 556.277297 661.569268 
L 559.466407 661.647187 
L 565.844628 661.773449 
L 575.411959 662.035603 
L 580.195625 662.153835 
L 589.762956 662.334573 
L 596.141176 662.473078 
L 607.303063 662.628527 
L 618.464949 662.708334 
L 639.194166 662.743515 
L 647.166942 662.745618 
L 647.166942 662.745618 
" style="fill:none;stroke:#47a0b3;stroke-linecap:square;stroke-width:2;"/>
   </g>
   <g id="line2d_35">
    <path clip-path="url(#p2954fea775)" d="M 159.233058 663.26281 
L 197.502382 663.168317 
L 210.258824 662.932196 
L 221.42071 662.571556 
L 253.311813 661.570009 
L 269.257365 661.710229 
L 297.959358 662.668436 
L 309.121245 662.83063 
L 321.877686 662.772869 
L 341.012348 662.37045 
L 355.363345 661.895084 
L 392.038114 660.22968 
L 403.2 660.246335 
L 414.361886 660.633131 
L 425.523772 661.279275 
L 439.874769 662.280245 
L 455.820321 663.028691 
L 468.576762 663.22507 
L 486.116869 663.207966 
L 540.331745 663.081887 
L 600.924842 662.921071 
L 639.194166 662.149405 
L 647.166942 662.105872 
L 647.166942 662.105872 
" style="fill:none;stroke:#5e4fa2;stroke-linecap:square;stroke-width:2;"/>
   </g>
   <g id="patch_3">
    <path d="M 108 720.9 
L 108 56.7 
" style="fill:none;stroke:#000000;stroke-linecap:square;stroke-linejoin:miter;stroke-width:0.8;"/>
   </g>
   <g id="patch_4">
    <path d="M 698.4 720.9 
L 698.4 56.7 
" style="fill:none;stroke:#000000;stroke-linecap:square;stroke-linejoin:miter;stroke-width:0.8;"/>
   </g>
   <g id="patch_5">
    <path d="M 108 720.9 
L 698.4 720.9 
" style="fill:none;stroke:#000000;stroke-linecap:square;stroke-linejoin:miter;stroke-width:0.8;"/>
   </g>
   <g id="patch_6">
    <path d="M 108 56.7 
L 698.4 56.7 
" style="fill:none;stroke:#000000;stroke-linecap:square;stroke-linejoin:miter;stroke-width:0.8;"/>
   </g>
   <g id="legend_1">
    <g id="patch_7">
     <path d="M 122 298.669638 
L 222.677356 298.669638 
Q 226.677356 298.669638 226.677356 294.669638 
L 226.677356 70.7 
Q 226.677356 66.7 222.677356 66.7 
L 122 66.7 
Q 118 66.7 118 70.7 
L 118 294.669638 
Q 118 298.669638 122 298.669638 
z
" style="fill:#ffffff;opacity:0.8;stroke:#cccccc;stroke-linejoin:miter;"/>
    </g>
    <g id="line2d_36">
     <path d="M 126 82.896875 
L 166 82.896875 
" style="fill:none;stroke:#e2514a;stroke-linecap:square;stroke-width:2;"/>
    </g>
    <g id="line2d_37"/>
    <g id="text_17">
     <!-- $I_{(3,0)}$ -->
     <g transform="translate(182 89.896875)scale(0.2 -0.2)">
      <defs>
       <path d="M 19.5 -0.484375 
C 19.5 5.359375 17.59375 9.671875 13.5 9.671875 
C 10.296875 9.671875 8.703125 7.078125 8.703125 4.890625 
C 8.703125 2.6875 10.203125 0 13.59375 0 
C 14.90625 0 16 0.40625 16.90625 1.296875 
C 17.09375 1.5 17.203125 1.5 17.296875 1.5 
C 17.5 1.5 17.5 0.078125 17.5 -0.421875 
C 17.5 -3.75 16.90625 -10.296875 11.09375 -16.875 
C 10 -18.078125 10 -18.28125 10 -18.484375 
C 10 -19 10.5 -19.5 11 -19.5 
C 11.796875 -19.5 19.5 -12.046875 19.5 -0.484375 
z
" id="CMMI12-59"/>
      </defs>
      <use transform="scale(0.996264)" xlink:href="#CMMI12-73"/>
      <use transform="translate(43.024176 -17.925121)scale(0.697382)" xlink:href="#CMR17-40"/>
      <use transform="translate(67.720596 -17.925121)scale(0.697382)" xlink:href="#CMR17-51"/>
      <use transform="translate(99.703778 -17.925121)scale(0.697382)" xlink:href="#CMMI12-59"/>
      <use transform="translate(118.671711 -17.925121)scale(0.697382)" xlink:href="#CMR17-48"/>
      <use transform="translate(150.654893 -17.925121)scale(0.697382)" xlink:href="#CMR17-41"/>
     </g>
    </g>
    <g id="line2d_38">
     <path d="M 126 115.178252 
L 166 115.178252 
" style="fill:none;stroke:#fca55d;stroke-linecap:square;stroke-width:2;"/>
    </g>
    <g id="line2d_39"/>
    <g id="text_18">
     <!-- $I_{(6,0)}$ -->
     <g transform="translate(182 122.178252)scale(0.2 -0.2)">
      <defs>
       <path d="M 10.59375 34 
C 10.59375 57.65625 21.796875 63 28.296875 63 
C 30.40625 63 35.5 62.640625 37.5 59 
C 35.90625 59 32.90625 59 32.90625 55.515625 
C 32.90625 52.828125 35.09375 51.921875 36.5 51.921875 
C 37.40625 51.921875 40.09375 52.3125 40.09375 55.625 
C 40.09375 61.78125 35.09375 65.296875 28.203125 65.296875 
C 16.296875 65.296875 3.796875 52.96875 3.796875 31 
C 3.796875 3.953125 15.09375 -2 23.09375 -2 
C 32.796875 -2 42 6.671875 42 20.046875 
C 42 32.515625 33.90625 41.59375 23.703125 41.59375 
C 17.59375 41.59375 13.09375 37.609375 10.59375 30.625 
z
M 23.09375 0.390625 
C 10.796875 0.390625 10.796875 18.75 10.796875 22.4375 
C 10.796875 29.625 14.203125 40 23.5 40 
C 25.203125 40 30.09375 40 33.40625 33.125 
C 35.203125 29.21875 35.203125 25.140625 35.203125 20.140625 
C 35.203125 14.75 35.203125 10.78125 33.09375 6.78125 
C 30.90625 2.671875 27.703125 0.390625 23.09375 0.390625 
z
" id="CMR17-54"/>
      </defs>
      <use transform="scale(0.996264)" xlink:href="#CMMI12-73"/>
      <use transform="translate(43.024176 -17.925121)scale(0.697382)" xlink:href="#CMR17-40"/>
      <use transform="translate(67.720596 -17.925121)scale(0.697382)" xlink:href="#CMR17-54"/>
      <use transform="translate(99.703778 -17.925121)scale(0.697382)" xlink:href="#CMMI12-59"/>
      <use transform="translate(118.671711 -17.925121)scale(0.697382)" xlink:href="#CMR17-48"/>
      <use transform="translate(150.654893 -17.925121)scale(0.697382)" xlink:href="#CMR17-41"/>
     </g>
    </g>
    <g id="line2d_40">
     <path d="M 126 147.459629 
L 166 147.459629 
" style="fill:none;stroke:#fee999;stroke-linecap:square;stroke-width:2;"/>
    </g>
    <g id="line2d_41"/>
    <g id="text_19">
     <!-- $I_{(0,3)}$ -->
     <g transform="translate(182 154.459629)scale(0.2 -0.2)">
      <use transform="scale(0.996264)" xlink:href="#CMMI12-73"/>
      <use transform="translate(43.024176 -17.925121)scale(0.697382)" xlink:href="#CMR17-40"/>
      <use transform="translate(67.720596 -17.925121)scale(0.697382)" xlink:href="#CMR17-48"/>
      <use transform="translate(99.703778 -17.925121)scale(0.697382)" xlink:href="#CMMI12-59"/>
      <use transform="translate(118.671711 -17.925121)scale(0.697382)" xlink:href="#CMR17-51"/>
      <use transform="translate(150.654893 -17.925121)scale(0.697382)" xlink:href="#CMR17-41"/>
     </g>
    </g>
    <g id="line2d_42">
     <path d="M 126 179.741006 
L 166 179.741006 
" style="fill:none;stroke:#edf8a3;stroke-linecap:square;stroke-width:2;"/>
    </g>
    <g id="line2d_43"/>
    <g id="text_20">
     <!-- $I_{(3,3)}$ -->
     <g transform="translate(182 186.741006)scale(0.2 -0.2)">
      <use transform="scale(0.996264)" xlink:href="#CMMI12-73"/>
      <use transform="translate(43.024176 -17.925121)scale(0.697382)" xlink:href="#CMR17-40"/>
      <use transform="translate(67.720596 -17.925121)scale(0.697382)" xlink:href="#CMR17-51"/>
      <use transform="translate(99.703778 -17.925121)scale(0.697382)" xlink:href="#CMMI12-59"/>
      <use transform="translate(118.671711 -17.925121)scale(0.697382)" xlink:href="#CMR17-51"/>
      <use transform="translate(150.654893 -17.925121)scale(0.697382)" xlink:href="#CMR17-41"/>
     </g>
    </g>
    <g id="line2d_44">
     <path d="M 126 212.022382 
L 166 212.022382 
" style="fill:none;stroke:#a2d9a4;stroke-linecap:square;stroke-width:2;"/>
    </g>
    <g id="line2d_45"/>
    <g id="text_21">
     <!-- $I_{(6,3)}$ -->
     <g transform="translate(182 219.022382)scale(0.2 -0.2)">
      <use transform="scale(0.996264)" xlink:href="#CMMI12-73"/>
      <use transform="translate(43.024176 -17.925121)scale(0.697382)" xlink:href="#CMR17-40"/>
      <use transform="translate(67.720596 -17.925121)scale(0.697382)" xlink:href="#CMR17-54"/>
      <use transform="translate(99.703778 -17.925121)scale(0.697382)" xlink:href="#CMMI12-59"/>
      <use transform="translate(118.671711 -17.925121)scale(0.697382)" xlink:href="#CMR17-51"/>
      <use transform="translate(150.654893 -17.925121)scale(0.697382)" xlink:href="#CMR17-41"/>
     </g>
    </g>
    <g id="line2d_46">
     <path d="M 126 244.303759 
L 166 244.303759 
" style="fill:none;stroke:#47a0b3;stroke-linecap:square;stroke-width:2;"/>
    </g>
    <g id="line2d_47"/>
    <g id="text_22">
     <!-- $I_{(0,6)}$ -->
     <g transform="translate(182 251.303759)scale(0.2 -0.2)">
      <use transform="scale(0.996264)" xlink:href="#CMMI12-73"/>
      <use transform="translate(43.024176 -17.925121)scale(0.697382)" xlink:href="#CMR17-40"/>
      <use transform="translate(67.720596 -17.925121)scale(0.697382)" xlink:href="#CMR17-48"/>
      <use transform="translate(99.703778 -17.925121)scale(0.697382)" xlink:href="#CMMI12-59"/>
      <use transform="translate(118.671711 -17.925121)scale(0.697382)" xlink:href="#CMR17-54"/>
      <use transform="translate(150.654893 -17.925121)scale(0.697382)" xlink:href="#CMR17-41"/>
     </g>
    </g>
    <g id="line2d_48">
     <path d="M 126 276.585136 
L 166 276.585136 
" style="fill:none;stroke:#5e4fa2;stroke-linecap:square;stroke-width:2;"/>
    </g>
    <g id="line2d_49"/>
    <g id="text_23">
     <!-- $I_{(3,6)}$ -->
     <g transform="translate(182 283.585136)scale(0.2 -0.2)">
      <use transform="scale(0.996264)" xlink:href="#CMMI12-73"/>
      <use transform="translate(43.024176 -17.925121)scale(0.697382)" xlink:href="#CMR17-40"/>
      <use transform="translate(67.720596 -17.925121)scale(0.697382)" xlink:href="#CMR17-51"/>
      <use transform="translate(99.703778 -17.925121)scale(0.697382)" xlink:href="#CMMI12-59"/>
      <use transform="translate(118.671711 -17.925121)scale(0.697382)" xlink:href="#CMR17-54"/>
      <use transform="translate(150.654893 -17.925121)scale(0.697382)" xlink:href="#CMR17-41"/>
     </g>
    </g>
   </g>
  </g>
 </g>
 <defs>
  <clipPath id="p2954fea775">
   <rect height="664.2" width="590.4" x="108" y="56.7"/>
  </clipPath>
 </defs>
</svg>
