<?xml version="1.0" encoding="utf-8" standalone="no"?>
<!DOCTYPE svg PUBLIC "-//W3C//DTD SVG 1.1//EN"
  "http://www.w3.org/Graphics/SVG/1.1/DTD/svg11.dtd">
<!-- Created with matplotlib (https://matplotlib.org/) -->
<svg height="810pt" version="1.1" viewBox="0 0 720 810" width="720pt" xmlns="http://www.w3.org/2000/svg" xmlns:xlink="http://www.w3.org/1999/xlink">
 <metadata>
  <rdf:RDF xmlns:cc="http://creativecommons.org/ns#" xmlns:dc="http://purl.org/dc/elements/1.1/" xmlns:rdf="http://www.w3.org/1999/02/22-rdf-syntax-ns#">
   <cc:Work>
    <dc:type rdf:resource="http://purl.org/dc/dcmitype/StillImage"/>
    <dc:date>2021-02-09T12:06:15.891740</dc:date>
    <dc:format>image/svg+xml</dc:format>
    <dc:creator>
     <cc:Agent>
      <dc:title>Matplotlib v3.3.1, https://matplotlib.org/</dc:title>
     </cc:Agent>
    </dc:creator>
   </cc:Work>
  </rdf:RDF>
 </metadata>
 <defs>
  <style type="text/css">*{stroke-linecap:butt;stroke-linejoin:round;}</style>
 </defs>
 <g id="figure_1">
  <g id="patch_1">
   <path d="M 0 810 
L 720 810 
L 720 0 
L 0 0 
z
" style="fill:#ffffff;"/>
  </g>
  <g id="axes_1">
   <g id="patch_2">
    <path d="M 108 720.9 
L 698.4 720.9 
L 698.4 56.7 
L 108 56.7 
z
" style="fill:#ffffff;"/>
   </g>
   <g id="matplotlib.axis_1">
    <g id="xtick_1">
     <g id="line2d_1">
      <path clip-path="url(#pfb43015573)" d="M 159.233058 720.9 
L 159.233058 56.7 
" style="fill:none;stroke:#e6e6e6;stroke-linecap:square;stroke-width:0.8;"/>
     </g>
     <g id="line2d_2">
      <defs>
       <path d="M 0 0 
L 0 3.5 
" id="me7e0e1b138" style="stroke:#000000;stroke-width:0.8;"/>
      </defs>
      <g>
       <use style="stroke:#000000;stroke-width:0.8;" x="159.233058" xlink:href="#me7e0e1b138" y="720.9"/>
      </g>
     </g>
     <g id="text_1">
      <!-- $\mathdefault{0}$ -->
      <g transform="translate(155.574939 738.277725)scale(0.15 -0.15)">
       <defs>
        <path d="M 42 31.640625 
C 42 37.75 41.90625 48.125 37.703125 56.109375 
C 34 63.109375 28.09375 65.59375 22.90625 65.59375 
C 18.09375 65.59375 12 63.40625 8.203125 56.203125 
C 4.203125 48.71875 3.796875 39.4375 3.796875 31.640625 
C 3.796875 25.953125 3.90625 17.28125 7 9.671875 
C 11.296875 -0.609375 19 -2 22.90625 -2 
C 27.5 -2 34.5 -0.109375 38.59375 9.375 
C 41.59375 16.28125 42 24.359375 42 31.640625 
z
M 22.90625 -0.40625 
C 16.5 -0.40625 12.703125 5.078125 11.296875 12.6875 
C 10.203125 18.5625 10.203125 27.15625 10.203125 32.75 
C 10.203125 40.4375 10.203125 46.828125 11.5 52.921875 
C 13.40625 61.390625 19 64 22.90625 64 
C 27 64 32.296875 61.296875 34.203125 53.125 
C 35.5 47.4375 35.59375 40.734375 35.59375 32.75 
C 35.59375 26.25 35.59375 18.265625 34.40625 12.375 
C 32.296875 1.484375 26.40625 -0.40625 22.90625 -0.40625 
z
" id="CMR17-48"/>
       </defs>
       <use transform="scale(0.996264)" xlink:href="#CMR17-48"/>
      </g>
     </g>
    </g>
    <g id="xtick_2">
     <g id="line2d_3">
      <path clip-path="url(#pfb43015573)" d="M 258.811402 720.9 
L 258.811402 56.7 
" style="fill:none;stroke:#e6e6e6;stroke-linecap:square;stroke-width:0.8;"/>
     </g>
     <g id="line2d_4">
      <g>
       <use style="stroke:#000000;stroke-width:0.8;" x="258.811402" xlink:href="#me7e0e1b138" y="720.9"/>
      </g>
     </g>
     <g id="text_2">
      <!-- $\mathdefault{50}$ -->
      <g transform="translate(251.495164 738.277725)scale(0.15 -0.15)">
       <defs>
        <path d="M 11.40625 57.6875 
C 12.40625 57.28125 16.5 56 20.703125 56 
C 30 56 35.09375 61.109375 38 64.0625 
C 38 64.953125 38 65.5 37.40625 65.5 
C 37.296875 65.5 37.09375 65.5 36.296875 65.046875 
C 32.796875 63.40625 28.703125 62.078125 23.703125 62.078125 
C 20.703125 62.078125 16.203125 62.484375 11.296875 64.671875 
C 10.203125 65.171875 10 65.171875 9.90625 65.171875 
C 9.40625 65.171875 9.296875 65.0625 9.296875 63.078125 
L 9.296875 34.421875 
C 9.296875 32.640625 9.296875 32.140625 10.296875 32.140625 
C 10.796875 32.140625 11 32.34375 11.5 33.03125 
C 14.703125 37.515625 19.09375 39.40625 24.09375 39.40625 
C 27.59375 39.40625 35.09375 37.21875 35.09375 20.140625 
C 35.09375 16.953125 35.09375 11.171875 32.09375 6.578125 
C 29.59375 2.484375 25.703125 0.390625 21.40625 0.390625 
C 14.796875 0.390625 8.09375 5 6.296875 12.71875 
C 6.703125 12.609375 7.5 12.421875 7.90625 12.421875 
C 9.203125 12.421875 11.703125 13.125 11.703125 16.21875 
C 11.703125 18.90625 9.796875 20 7.90625 20 
C 5.59375 20 4.09375 18.59375 4.09375 15.796875 
C 4.09375 7.09375 11 -2 21.59375 -2 
C 31.90625 -2 41.703125 6.875 41.703125 19.75 
C 41.703125 31.71875 33.90625 41 24.203125 41 
C 19.09375 41 14.796875 39.109375 11.40625 35.53125 
z
" id="CMR17-53"/>
       </defs>
       <use transform="scale(0.996264)" xlink:href="#CMR17-53"/>
       <use transform="translate(45.690477 0)scale(0.996264)" xlink:href="#CMR17-48"/>
      </g>
     </g>
    </g>
    <g id="xtick_3">
     <g id="line2d_5">
      <path clip-path="url(#pfb43015573)" d="M 358.389745 720.9 
L 358.389745 56.7 
" style="fill:none;stroke:#e6e6e6;stroke-linecap:square;stroke-width:0.8;"/>
     </g>
     <g id="line2d_6">
      <g>
       <use style="stroke:#000000;stroke-width:0.8;" x="358.389745" xlink:href="#me7e0e1b138" y="720.9"/>
      </g>
     </g>
     <g id="text_3">
      <!-- $\mathdefault{100}$ -->
      <g transform="translate(347.415389 738.277725)scale(0.15 -0.15)">
       <defs>
        <path d="M 26.59375 63.40625 
C 26.59375 65.5 26.5 65.5 25.09375 65.5 
C 21.203125 61.1875 15.296875 59.796875 9.703125 59.796875 
C 9.40625 59.796875 8.90625 59.796875 8.796875 59.5 
C 8.703125 59.296875 8.703125 59.09375 8.703125 57 
C 11.796875 57 17 57.59375 21 59.984375 
L 21 7.203125 
C 21 3.6875 20.796875 2.5 12.203125 2.5 
L 9.203125 2.5 
L 9.203125 0 
C 14 0 19 0 23.796875 0 
C 28.59375 0 33.59375 0 38.40625 0 
L 38.40625 2.5 
L 35.40625 2.5 
C 26.796875 2.5 26.59375 3.59375 26.59375 7.15625 
z
" id="CMR17-49"/>
       </defs>
       <use transform="scale(0.996264)" xlink:href="#CMR17-49"/>
       <use transform="translate(45.690477 0)scale(0.996264)" xlink:href="#CMR17-48"/>
       <use transform="translate(91.380954 0)scale(0.996264)" xlink:href="#CMR17-48"/>
      </g>
     </g>
    </g>
    <g id="xtick_4">
     <g id="line2d_7">
      <path clip-path="url(#pfb43015573)" d="M 457.968089 720.9 
L 457.968089 56.7 
" style="fill:none;stroke:#e6e6e6;stroke-linecap:square;stroke-width:0.8;"/>
     </g>
     <g id="line2d_8">
      <g>
       <use style="stroke:#000000;stroke-width:0.8;" x="457.968089" xlink:href="#me7e0e1b138" y="720.9"/>
      </g>
     </g>
     <g id="text_4">
      <!-- $\mathdefault{150}$ -->
      <g transform="translate(446.993732 738.277725)scale(0.15 -0.15)">
       <use transform="scale(0.996264)" xlink:href="#CMR17-49"/>
       <use transform="translate(45.690477 0)scale(0.996264)" xlink:href="#CMR17-53"/>
       <use transform="translate(91.380954 0)scale(0.996264)" xlink:href="#CMR17-48"/>
      </g>
     </g>
    </g>
    <g id="xtick_5">
     <g id="line2d_9">
      <path clip-path="url(#pfb43015573)" d="M 557.546433 720.9 
L 557.546433 56.7 
" style="fill:none;stroke:#e6e6e6;stroke-linecap:square;stroke-width:0.8;"/>
     </g>
     <g id="line2d_10">
      <g>
       <use style="stroke:#000000;stroke-width:0.8;" x="557.546433" xlink:href="#me7e0e1b138" y="720.9"/>
      </g>
     </g>
     <g id="text_5">
      <!-- $\mathdefault{200}$ -->
      <g transform="translate(546.572076 738.277725)scale(0.15 -0.15)">
       <defs>
        <path d="M 41.703125 15.453125 
L 39.90625 15.453125 
C 38.90625 8.375 38.09375 7.171875 37.703125 6.5625 
C 37.203125 5.765625 30 5.765625 28.59375 5.765625 
L 9.40625 5.765625 
C 13 9.671875 20 16.75 28.5 24.953125 
C 34.59375 30.734375 41.703125 37.53125 41.703125 47.421875 
C 41.703125 59.21875 32.296875 66 21.796875 66 
C 10.796875 66 4.09375 56.3125 4.09375 47.34375 
C 4.09375 43.4375 7 42.9375 8.203125 42.9375 
C 9.203125 42.9375 12.203125 43.546875 12.203125 47.03125 
C 12.203125 50.109375 9.59375 51 8.203125 51 
C 7.59375 51 7 50.90625 6.59375 50.703125 
C 8.5 59.21875 14.296875 63.40625 20.40625 63.40625 
C 29.09375 63.40625 34.796875 56.515625 34.796875 47.421875 
C 34.796875 38.734375 29.703125 31.25 24 24.75 
L 4.09375 2.28125 
L 4.09375 0 
L 39.296875 0 
z
" id="CMR17-50"/>
       </defs>
       <use transform="scale(0.996264)" xlink:href="#CMR17-50"/>
       <use transform="translate(45.690477 0)scale(0.996264)" xlink:href="#CMR17-48"/>
       <use transform="translate(91.380954 0)scale(0.996264)" xlink:href="#CMR17-48"/>
      </g>
     </g>
    </g>
    <g id="xtick_6">
     <g id="line2d_11">
      <path clip-path="url(#pfb43015573)" d="M 657.124777 720.9 
L 657.124777 56.7 
" style="fill:none;stroke:#e6e6e6;stroke-linecap:square;stroke-width:0.8;"/>
     </g>
     <g id="line2d_12">
      <g>
       <use style="stroke:#000000;stroke-width:0.8;" x="657.124777" xlink:href="#me7e0e1b138" y="720.9"/>
      </g>
     </g>
     <g id="text_6">
      <!-- $\mathdefault{250}$ -->
      <g transform="translate(646.15042 738.277725)scale(0.15 -0.15)">
       <use transform="scale(0.996264)" xlink:href="#CMR17-50"/>
       <use transform="translate(45.690477 0)scale(0.996264)" xlink:href="#CMR17-53"/>
       <use transform="translate(91.380954 0)scale(0.996264)" xlink:href="#CMR17-48"/>
      </g>
     </g>
    </g>
    <g id="text_7">
     <!-- $thickness(\AA)$ -->
     <g transform="translate(333.230863 766.884409)scale(0.25 -0.25)">
      <defs>
       <path d="M 20.09375 40.09375 
L 29.296875 40.09375 
C 31.203125 40.09375 32.203125 40.09375 32.203125 41.890625 
C 32.203125 43 31.59375 43 29.59375 43 
L 20.796875 43 
L 24.5 57.6875 
C 24.90625 59.078125 24.90625 59.28125 24.90625 60 
C 24.90625 61.609375 23.59375 62.5 22.296875 62.5 
C 21.5 62.5 19.203125 62.203125 18.40625 58.984375 
L 14.5 43 
L 5.09375 43 
C 3.09375 43 2.203125 43 2.203125 41.09375 
C 2.203125 40.09375 2.90625 40.09375 4.796875 40.09375 
L 13.703125 40.09375 
L 7.09375 13.765625 
C 6.296875 10.28125 6 9.28125 6 7.984375 
C 6 3.296875 9.296875 -1 14.90625 -1 
C 25 -1 30.40625 13.5625 30.40625 14.25 
C 30.40625 14.859375 30 15.15625 29.40625 15.15625 
C 29.203125 15.15625 28.796875 15.15625 28.59375 14.75 
C 28.5 14.65625 28.40625 14.546875 27.703125 12.953125 
C 25.59375 7.984375 21 1 15.203125 1 
C 12.203125 1 12 3.5 12 5.6875 
C 12 5.78125 12 7.6875 12.296875 8.875 
z
" id="CMMI12-116"/>
       <path d="M 28.09375 66.515625 
C 28.203125 66.921875 28.40625 67.515625 28.40625 68 
C 28.40625 69 27.40625 69 27.203125 69 
C 27.09375 69 22.203125 68.5625 21.703125 68.4375 
C 20 68.328125 18.5 68.09375 16.703125 68.09375 
C 14.203125 67.890625 13.5 67.796875 13.5 66 
C 13.5 65 14.296875 65 15.703125 65 
C 20.59375 65 20.703125 64.109375 20.703125 63.125 
C 20.703125 62.53125 20.5 61.734375 20.40625 61.4375 
L 5.90625 3.875 
C 5.5 2.375 5.5 2.1875 5.5 1.578125 
C 5.5 -0.59375 7.203125 -1 8.203125 -1 
C 9.90625 -1 11.203125 0.296875 11.703125 1.390625 
L 16.203125 19.453125 
C 16.703125 21.65625 17.296875 23.75 17.796875 25.9375 
C 18.90625 30.140625 18.90625 30.234375 20.796875 33.125 
C 22.703125 36.015625 27.203125 42.015625 34.90625 42.015625 
C 38.90625 42.015625 40.296875 39.015625 40.296875 35.03125 
C 40.296875 29.4375 36.40625 18.5625 34.203125 12.578125 
C 33.296875 10.171875 32.796875 8.875 32.796875 7.078125 
C 32.796875 2.59375 35.90625 -1 40.703125 -1 
C 50 -1 53.5 13.671875 53.5 14.265625 
C 53.5 14.765625 53.09375 15.171875 52.5 15.171875 
C 51.59375 15.171875 51.5 14.875 51 13.171875 
C 48.703125 5.1875 45 1 41 1 
C 40 1 38.40625 1 38.40625 4.203125 
C 38.40625 6.8125 39.59375 10 40 11.09375 
C 41.796875 15.90625 46.296875 27.703125 46.296875 33.515625 
C 46.296875 39.5 42.796875 44 35.203125 44 
C 29.5 44 24.5 41.3125 20.40625 36.125 
z
" id="CMMI12-104"/>
       <path d="M 28.296875 14.265625 
C 28.296875 14.765625 27.90625 15.171875 27.296875 15.171875 
C 26.40625 15.171875 26.296875 14.875 25.796875 13.171875 
C 23.203125 4.09375 19.09375 1 15.796875 1 
C 14.59375 1 13.203125 1.296875 13.203125 4.296875 
C 13.203125 6.984375 14.40625 9.984375 15.5 12.96875 
L 22.5 31.53125 
C 22.796875 32.328125 23.5 34.125 23.5 36.015625 
C 23.5 40.21875 20.5 44 15.59375 44 
C 6.40625 44 2.703125 29.53125 2.703125 28.734375 
C 2.703125 28.34375 3.09375 27.84375 3.796875 27.84375 
C 4.703125 27.84375 4.796875 28.234375 5.203125 29.625 
C 7.59375 37.9375 11.40625 41.90625 15.296875 41.90625 
C 16.203125 41.90625 17.90625 41.90625 17.90625 38.71875 
C 17.90625 36.125 16.59375 32.828125 15.796875 30.640625 
L 8.796875 12.078125 
C 8.203125 10.484375 7.59375 8.875 7.59375 7.078125 
C 7.59375 2.59375 10.703125 -1 15.5 -1 
C 24.703125 -1 28.296875 13.578125 28.296875 14.265625 
z
M 27.5 62.703125 
C 27.5 64.203125 26.296875 66 24.09375 66 
C 21.796875 66 19.203125 63.796875 19.203125 61.203125 
C 19.203125 58.71875 21.296875 57.921875 22.5 57.921875 
C 25.203125 57.921875 27.5 60.515625 27.5 62.703125 
z
" id="CMMI12-105"/>
       <path d="M 39.09375 37.984375 
C 37.203125 37.984375 36.296875 37.984375 34.90625 36.796875 
C 34.296875 36.296875 33.203125 34.796875 33.203125 33.203125 
C 33.203125 31.203125 34.703125 30 36.59375 30 
C 39 30 41.703125 31.9375 41.703125 35.8125 
C 41.703125 40.4375 37.09375 44 30.203125 44 
C 17.09375 44 4 29.734375 4 15.5625 
C 4 6.890625 9.40625 -1 19.59375 -1 
C 33.203125 -1 41.796875 9.71875 41.796875 11.03125 
C 41.796875 11.625 41.203125 12.125 40.796875 12.125 
C 40.5 12.125 40.40625 12.03125 39.5 11.140625 
C 33.09375 2.53125 23.59375 1 19.796875 1 
C 12.90625 1 10.703125 6.96875 10.703125 11.9375 
C 10.703125 15.4375 12.40625 25.078125 16 31.859375 
C 18.59375 36.53125 24 41.90625 30.296875 41.90625 
C 31.59375 41.90625 37.09375 41.90625 39.09375 37.984375 
z
" id="CMMI12-99"/>
       <path d="M 28.09375 66.515625 
C 28.203125 66.921875 28.40625 67.515625 28.40625 68 
C 28.40625 69 27.40625 69 27.203125 69 
C 27.09375 69 23.5 68.640625 21.703125 68.390625 
C 20 68.390625 18.5 68.09375 16.703125 68.09375 
C 14.296875 67.890625 13.59375 67.796875 13.59375 66 
C 13.59375 65 14.59375 65 15.59375 65 
C 20.703125 65 20.703125 64.109375 20.703125 63.125 
C 20.703125 62.734375 20.703125 62.53125 20.203125 60.75 
L 5.90625 3.875 
C 5.5 2.375 5.5 2.1875 5.5 1.578125 
C 5.5 -0.59375 7.203125 -1 8.203125 -1 
C 11 -1 11.59375 1.203125 12.40625 4.296875 
L 17.09375 22.953125 
C 24.296875 22.15625 28.59375 19.15625 28.59375 14.375 
C 28.59375 13.765625 28.59375 13.375 28.296875 11.875 
C 27.90625 10.375 27.90625 9.1875 27.90625 8.6875 
C 27.90625 2.890625 31.703125 -1 36.796875 -1 
C 41.40625 -1 43.796875 3.1875 44.59375 4.59375 
C 46.703125 8.28125 48 13.875 48 14.265625 
C 48 14.765625 47.59375 15.171875 47 15.171875 
C 46.09375 15.171875 46 14.765625 45.59375 13.171875 
C 44.203125 7.984375 42.09375 1 37 1 
C 35 1 33.703125 2 33.703125 5.78125 
C 33.703125 7.6875 34.09375 9.875 34.5 11.375 
C 34.90625 13.171875 34.90625 13.265625 34.90625 14.46875 
C 34.90625 20.359375 29.59375 23.65625 20.40625 24.84375 
C 24 27.046875 27.59375 30.9375 29 32.4375 
C 34.703125 38.8125 38.59375 42.015625 43.203125 42.015625 
C 45.5 42.015625 46.09375 41.40625 46.796875 40.8125 
C 43.09375 40.40625 41.703125 37.8125 41.703125 35.828125 
C 41.703125 33.421875 43.59375 32.625 45 32.625 
C 47.703125 32.625 50.09375 34.921875 50.09375 38.125 
C 50.09375 41.015625 47.796875 44 43.296875 44 
C 37.796875 44 33.296875 40.109375 26.203125 32.125 
C 25.203125 30.9375 21.5 27.140625 17.796875 25.75 
z
" id="CMMI12-107"/>
       <path d="M 20.59375 29.234375 
C 20.796875 29.84375 23.296875 34.828125 27 38.015625 
C 29.59375 40.40625 33 42.015625 36.90625 42.015625 
C 40.90625 42.015625 42.296875 39.015625 42.296875 35.03125 
C 42.296875 29.34375 38.203125 17.96875 36.203125 12.578125 
C 35.296875 10.171875 34.796875 8.875 34.796875 7.078125 
C 34.796875 2.59375 37.90625 -1 42.703125 -1 
C 52 -1 55.5 13.671875 55.5 14.265625 
C 55.5 14.765625 55.09375 15.171875 54.5 15.171875 
C 53.59375 15.171875 53.5 14.875 53 13.171875 
C 50.703125 4.984375 46.90625 1 43 1 
C 42 1 40.40625 1 40.40625 4.203125 
C 40.40625 6.703125 41.5 9.703125 42.09375 11.09375 
C 44.09375 16.609375 48.296875 27.8125 48.296875 33.515625 
C 48.296875 39.5 44.796875 44 37.203125 44 
C 28.296875 44 23.59375 37.734375 21.796875 35.234375 
C 21.5 40.90625 17.40625 44 13 44 
C 9.796875 44 7.59375 42.109375 5.90625 38.71875 
C 4.09375 35.125 2.703125 29.140625 2.703125 28.734375 
C 2.703125 28.34375 3.09375 27.84375 3.796875 27.84375 
C 4.59375 27.84375 4.703125 27.9375 5.296875 30.234375 
C 6.90625 36.328125 8.703125 42.015625 12.703125 42.015625 
C 15 42.015625 15.796875 40.40625 15.796875 37.421875 
C 15.796875 35.21875 14.796875 31.328125 14.09375 28.234375 
L 11.296875 17.46875 
C 10.90625 15.5625 9.796875 11.078125 9.296875 9.28125 
C 8.59375 6.6875 7.5 2 7.5 1.5 
C 7.5 0.09375 8.59375 -1 10.09375 -1 
C 11.296875 -1 12.703125 -0.40625 13.5 1.09375 
C 13.703125 1.59375 14.59375 5.09375 15.09375 7.078125 
L 17.296875 16.0625 
z
" id="CMMI12-110"/>
       <path d="M 17.90625 23.109375 
C 20.59375 23.109375 27.40625 23.109375 32.203125 24.921875 
C 39.796875 27.859375 40.5 33.71875 40.5 35.53125 
C 40.5 39.96875 36.703125 44 30.09375 44 
C 19.59375 44 4.5 34.53125 4.5 16.765625 
C 4.5 6.28125 10.5 -1 19.59375 -1 
C 33.203125 -1 41.796875 9.515625 41.796875 10.8125 
C 41.796875 11.40625 41.203125 11.90625 40.796875 11.90625 
C 40.5 11.90625 40.40625 11.8125 39.5 10.921875 
C 33.09375 2.484375 23.59375 1 19.796875 1 
C 14.09375 1 11.09375 5.46875 11.09375 12.84375 
C 11.09375 14.234375 11.09375 16.734375 12.59375 23.109375 
z
M 13.09375 25 
C 17.40625 40.5 26.90625 42.015625 30.09375 42.015625 
C 34.5 42.015625 37.5 39.40625 37.5 35.578125 
C 37.5 25 21.5 25 17.296875 25 
z
" id="CMMI12-101"/>
       <path d="M 22.796875 20 
C 24.5 19.703125 27.203125 19.109375 27.796875 19 
C 29.09375 18.625 33.59375 17.03125 33.59375 12.234375 
C 33.59375 9.15625 30.796875 1.09375 19.203125 1.09375 
C 17.09375 1.09375 9.59375 1.09375 7.59375 6.8125 
C 11.59375 6.3125 13.59375 9.421875 13.59375 11.640625 
C 13.59375 13.75 12.203125 14.84375 10.203125 14.84375 
C 8 14.84375 5.09375 13.140625 5.09375 8.625 
C 5.09375 2.703125 11.09375 -1 19.09375 -1 
C 34.296875 -1 38.796875 10.171875 38.796875 15.375 
C 38.796875 16.859375 38.796875 19.65625 35.59375 22.84375 
C 33.09375 25.25 30.703125 25.75 25.296875 26.84375 
C 22.59375 27.4375 18.296875 28.34375 18.296875 32.828125 
C 18.296875 34.828125 20.09375 42.015625 29.59375 42.015625 
C 33.796875 42.015625 37.90625 40.453125 38.90625 37 
C 34.5 37 34.296875 33.203125 34.296875 33.109375 
C 34.296875 31 36.203125 30.40625 37.09375 30.40625 
C 38.5 30.40625 41.296875 31.484375 41.296875 35.640625 
C 41.296875 39.765625 37.5 44 29.703125 44 
C 16.59375 44 13.09375 33.75 13.09375 29.671875 
C 13.09375 22.09375 20.5 20.5 22.796875 20 
z
" id="CMMI12-115"/>
       <path d="M 30.59375 -24.390625 
C 30.59375 -24.296875 30.59375 -24.09375 30.296875 -23.796875 
C 25.703125 -19.125 13.40625 -6.359375 13.40625 24.703125 
C 13.40625 55.765625 25.5 68.421875 30.40625 73.390625 
C 30.40625 73.5 30.59375 73.703125 30.59375 74 
C 30.59375 74.296875 30.296875 74.5 29.90625 74.5 
C 28.796875 74.5 20.296875 67.125 15.40625 56.15625 
C 10.40625 45.109375 9 34.359375 9 24.8125 
C 9 17.625 9.703125 5.484375 15.703125 -7.359375 
C 20.5 -17.734375 28.703125 -25 29.90625 -25 
C 30.40625 -25 30.59375 -24.796875 30.59375 -24.390625 
z
" id="CMR17-40"/>
       <path d="M 41.703125 60.75 
C 41.703125 65.3125 37.203125 69.46875 31.203125 69.46875 
C 25.203125 69.46875 20.703125 65.3125 20.703125 60.75 
C 20.703125 56.171875 25.203125 52 31.203125 52 
C 37.203125 52 41.703125 56.171875 41.703125 60.75 
z
M 31.203125 56.484375 
C 29 56.484375 26 57.171875 26 60.734375 
C 26 64.09375 28.703125 65 31.203125 65 
C 33.40625 65 36.40625 64.296875 36.40625 60.734375 
C 36.40625 57.375 33.703125 56.484375 31.203125 56.484375 
z
" id="CMSS17-23"/>
       <path d="M 17 10.796875 
C 13.5 4.90625 10.09375 2.90625 5.296875 2.90625 
C 4.203125 2.8125 3.40625 2.8125 3.40625 0.90625 
C 3.40625 0.375 3.90625 0 4.59375 0 
C 6.40625 0 10.90625 0 12.703125 0 
C 15.59375 0 18.796875 0 21.59375 0 
C 22.203125 0 23.40625 0 23.40625 1.90625 
C 23.40625 2.8125 22.59375 2.90625 22 2.90625 
C 19.703125 2.90625 17.796875 3.6875 17.796875 6.0625 
C 17.796875 7.4375 18.40625 8.53125 19.703125 10.703125 
L 27.296875 23.109375 
L 52.796875 23.109375 
C 52.90625 22.234375 52.90625 21.453125 53 20.5625 
C 53.296875 18 54.5 7.734375 54.5 5.875 
C 54.5 2.90625 49.40625 2.90625 47.796875 2.90625 
C 46.703125 2.90625 45.59375 2.90625 45.59375 1.09375 
C 45.59375 0 46.5 0 47.09375 0 
C 48.796875 0 50.796875 0 52.5 0 
L 58.203125 0 
C 64.296875 0 68.703125 0 68.796875 0 
C 69.5 0 70.59375 0 70.59375 1.90625 
C 70.59375 2.90625 69.703125 2.90625 68.203125 2.90625 
C 62.703125 2.90625 62.59375 3.8125 62.296875 6.78125 
L 56.203125 68.8125 
C 56 70.796875 55.59375 71 54.5 71 
C 53.5 71 52.90625 70.796875 52 69.296875 
z
M 29 26 
L 49.09375 59.671875 
L 52.5 26 
z
" id="CMMI12-65"/>
       <path d="M 26.296875 24.703125 
C 26.296875 31.875 25.59375 44.015625 19.59375 56.859375 
C 14.796875 67.234375 6.59375 74.5 5.40625 74.5 
C 5.09375 74.5 4.703125 74.390625 4.703125 73.890625 
C 4.703125 73.703125 4.796875 73.59375 4.90625 73.390625 
C 9.703125 68.40625 21.90625 55.75 21.90625 24.75 
C 21.90625 -6.359375 9.796875 -19.015625 4.90625 -24.015625 
C 4.796875 -24.203125 4.703125 -24.3125 4.703125 -24.5 
C 4.703125 -25 5.09375 -25 5.40625 -25 
C 6.5 -25 15 -17.625 19.90625 -6.65625 
C 24.90625 4.390625 26.296875 15.140625 26.296875 24.703125 
z
" id="CMR17-41"/>
      </defs>
      <use transform="scale(0.996264)" xlink:href="#CMMI12-116"/>
      <use transform="translate(35.22633 0)scale(0.996264)" xlink:href="#CMMI12-104"/>
      <use transform="translate(91.380954 0)scale(0.996264)" xlink:href="#CMMI12-105"/>
      <use transform="translate(124.659556 0)scale(0.996264)" xlink:href="#CMMI12-99"/>
      <use transform="translate(166.64279 0)scale(0.996264)" xlink:href="#CMMI12-107"/>
      <use transform="translate(220.72199 0)scale(0.996264)" xlink:href="#CMMI12-110"/>
      <use transform="translate(278.952038 0)scale(0.996264)" xlink:href="#CMMI12-101"/>
      <use transform="translate(324.164039 0)scale(0.996264)" xlink:href="#CMMI12-115"/>
      <use transform="translate(370.114086 0)scale(0.996264)" xlink:href="#CMMI12-115"/>
      <use transform="translate(416.064134 0)scale(0.996264)" xlink:href="#CMR17-40"/>
      <use transform="translate(451.344902 17.618744)scale(0.996264)" xlink:href="#CMSS17-23"/>
      <use transform="translate(451.344902 0)scale(0.996264)" xlink:href="#CMMI12-65"/>
      <use transform="translate(524.472787 0)scale(0.996264)" xlink:href="#CMR17-41"/>
     </g>
    </g>
   </g>
   <g id="matplotlib.axis_2">
    <g id="ytick_1">
     <g id="line2d_13">
      <path clip-path="url(#pfb43015573)" d="M 108 720.9 
L 698.4 720.9 
" style="fill:none;stroke:#e6e6e6;stroke-linecap:square;stroke-width:0.8;"/>
     </g>
     <g id="line2d_14">
      <defs>
       <path d="M 0 0 
L -3.5 0 
" id="m14dffdc7b0" style="stroke:#000000;stroke-width:0.8;"/>
      </defs>
      <g>
       <use style="stroke:#000000;stroke-width:0.8;" x="108" xlink:href="#m14dffdc7b0" y="720.9"/>
      </g>
     </g>
     <g id="text_8">
      <!-- $\mathdefault{0.000}$ -->
      <g transform="translate(67.670472 726.088862)scale(0.15 -0.15)">
       <defs>
        <path d="M 18.40625 4.796875 
C 18.40625 7.6875 16 9.671875 13.59375 9.671875 
C 10.703125 9.671875 8.703125 7.28125 8.703125 4.890625 
C 8.703125 2 11.09375 0 13.5 0 
C 16.40625 0 18.40625 2.390625 18.40625 4.796875 
z
" id="CMMI12-58"/>
       </defs>
       <use transform="scale(0.996264)" xlink:href="#CMR17-48"/>
       <use transform="translate(45.690477 0)scale(0.996264)" xlink:href="#CMMI12-58"/>
       <use transform="translate(72.787654 0)scale(0.996264)" xlink:href="#CMR17-48"/>
       <use transform="translate(118.478131 0)scale(0.996264)" xlink:href="#CMR17-48"/>
       <use transform="translate(164.168608 0)scale(0.996264)" xlink:href="#CMR17-48"/>
      </g>
     </g>
    </g>
    <g id="ytick_2">
     <g id="line2d_15">
      <path clip-path="url(#pfb43015573)" d="M 108 588.06 
L 698.4 588.06 
" style="fill:none;stroke:#e6e6e6;stroke-linecap:square;stroke-width:0.8;"/>
     </g>
     <g id="line2d_16">
      <g>
       <use style="stroke:#000000;stroke-width:0.8;" x="108" xlink:href="#m14dffdc7b0" y="588.06"/>
      </g>
     </g>
     <g id="text_9">
      <!-- $\mathdefault{0.001}$ -->
      <g transform="translate(67.670472 593.248862)scale(0.15 -0.15)">
       <use transform="scale(0.996264)" xlink:href="#CMR17-48"/>
       <use transform="translate(45.690477 0)scale(0.996264)" xlink:href="#CMMI12-58"/>
       <use transform="translate(72.787654 0)scale(0.996264)" xlink:href="#CMR17-48"/>
       <use transform="translate(118.478131 0)scale(0.996264)" xlink:href="#CMR17-48"/>
       <use transform="translate(164.168608 0)scale(0.996264)" xlink:href="#CMR17-49"/>
      </g>
     </g>
    </g>
    <g id="ytick_3">
     <g id="line2d_17">
      <path clip-path="url(#pfb43015573)" d="M 108 455.22 
L 698.4 455.22 
" style="fill:none;stroke:#e6e6e6;stroke-linecap:square;stroke-width:0.8;"/>
     </g>
     <g id="line2d_18">
      <g>
       <use style="stroke:#000000;stroke-width:0.8;" x="108" xlink:href="#m14dffdc7b0" y="455.22"/>
      </g>
     </g>
     <g id="text_10">
      <!-- $\mathdefault{0.002}$ -->
      <g transform="translate(67.670472 460.408862)scale(0.15 -0.15)">
       <use transform="scale(0.996264)" xlink:href="#CMR17-48"/>
       <use transform="translate(45.690477 0)scale(0.996264)" xlink:href="#CMMI12-58"/>
       <use transform="translate(72.787654 0)scale(0.996264)" xlink:href="#CMR17-48"/>
       <use transform="translate(118.478131 0)scale(0.996264)" xlink:href="#CMR17-48"/>
       <use transform="translate(164.168608 0)scale(0.996264)" xlink:href="#CMR17-50"/>
      </g>
     </g>
    </g>
    <g id="ytick_4">
     <g id="line2d_19">
      <path clip-path="url(#pfb43015573)" d="M 108 322.38 
L 698.4 322.38 
" style="fill:none;stroke:#e6e6e6;stroke-linecap:square;stroke-width:0.8;"/>
     </g>
     <g id="line2d_20">
      <g>
       <use style="stroke:#000000;stroke-width:0.8;" x="108" xlink:href="#m14dffdc7b0" y="322.38"/>
      </g>
     </g>
     <g id="text_11">
      <!-- $\mathdefault{0.003}$ -->
      <g transform="translate(67.670472 327.568862)scale(0.15 -0.15)">
       <defs>
        <path d="M 22.09375 33.703125 
C 31 33.703125 34.90625 25.96875 34.90625 17.03125 
C 34.90625 5 28.5 0.390625 22.703125 0.390625 
C 17.40625 0.390625 8.796875 3.03125 6.09375 10.828125 
C 6.59375 10.625 7.09375 10.625 7.59375 10.625 
C 10 10.625 11.796875 12.21875 11.796875 14.8125 
C 11.796875 17.703125 9.59375 19 7.59375 19 
C 5.90625 19 3.296875 18.203125 3.296875 14.46875 
C 3.296875 5.234375 12.296875 -2 22.90625 -2 
C 34 -2 42.5 6.71875 42.5 16.953125 
C 42.5 26.671875 34.5 33.703125 25 34.796875 
C 32.59375 36.375 39.90625 43.0625 39.90625 52.015625 
C 39.90625 59.6875 32 65.296875 23 65.296875 
C 13.90625 65.296875 5.90625 59.828125 5.90625 52.015625 
C 5.90625 48.59375 8.5 48 9.796875 48 
C 11.90625 48 13.703125 49.296875 13.703125 51.890625 
C 13.703125 54.46875 11.90625 55.765625 9.796875 55.765625 
C 9.40625 55.765625 8.90625 55.765625 8.5 55.578125 
C 11.40625 61.859375 19.296875 63 22.796875 63 
C 26.296875 63 32.90625 61.328125 32.90625 51.875 
C 32.90625 49.109375 32.5 44.1875 29.09375 39.84375 
C 26.09375 36 22.703125 36 19.40625 35.6875 
C 18.90625 35.6875 16.59375 35.453125 16.203125 35.453125 
C 15.5 35.359375 15.09375 35.265625 15.09375 34.5 
C 15.09375 33.796875 15.203125 33.703125 17.203125 33.703125 
z
" id="CMR17-51"/>
       </defs>
       <use transform="scale(0.996264)" xlink:href="#CMR17-48"/>
       <use transform="translate(45.690477 0)scale(0.996264)" xlink:href="#CMMI12-58"/>
       <use transform="translate(72.787654 0)scale(0.996264)" xlink:href="#CMR17-48"/>
       <use transform="translate(118.478131 0)scale(0.996264)" xlink:href="#CMR17-48"/>
       <use transform="translate(164.168608 0)scale(0.996264)" xlink:href="#CMR17-51"/>
      </g>
     </g>
    </g>
    <g id="ytick_5">
     <g id="line2d_21">
      <path clip-path="url(#pfb43015573)" d="M 108 189.54 
L 698.4 189.54 
" style="fill:none;stroke:#e6e6e6;stroke-linecap:square;stroke-width:0.8;"/>
     </g>
     <g id="line2d_22">
      <g>
       <use style="stroke:#000000;stroke-width:0.8;" x="108" xlink:href="#m14dffdc7b0" y="189.54"/>
      </g>
     </g>
     <g id="text_12">
      <!-- $\mathdefault{0.004}$ -->
      <g transform="translate(67.670472 194.728862)scale(0.15 -0.15)">
       <defs>
        <path d="M 33.59375 64.40625 
C 33.59375 66.5 33.5 66.5 31.703125 66.5 
L 2 19.59375 
L 2 17 
L 27.796875 17 
L 27.796875 7.140625 
C 27.796875 3.5 27.59375 2.5 20.59375 2.5 
L 18.703125 2.5 
L 18.703125 0 
C 21.90625 0 27.296875 0 30.703125 0 
C 34.09375 0 39.5 0 42.703125 0 
L 42.703125 2.5 
L 40.796875 2.5 
C 33.796875 2.5 33.59375 3.5 33.59375 7.140625 
L 33.59375 17 
L 43.796875 17 
L 43.796875 19.59375 
L 33.59375 19.59375 
z
M 28.09375 57.859375 
L 28.09375 19.59375 
L 4 19.59375 
z
" id="CMR17-52"/>
       </defs>
       <use transform="scale(0.996264)" xlink:href="#CMR17-48"/>
       <use transform="translate(45.690477 0)scale(0.996264)" xlink:href="#CMMI12-58"/>
       <use transform="translate(72.787654 0)scale(0.996264)" xlink:href="#CMR17-48"/>
       <use transform="translate(118.478131 0)scale(0.996264)" xlink:href="#CMR17-48"/>
       <use transform="translate(164.168608 0)scale(0.996264)" xlink:href="#CMR17-52"/>
      </g>
     </g>
    </g>
    <g id="ytick_6">
     <g id="line2d_23">
      <path clip-path="url(#pfb43015573)" d="M 108 56.7 
L 698.4 56.7 
" style="fill:none;stroke:#e6e6e6;stroke-linecap:square;stroke-width:0.8;"/>
     </g>
     <g id="line2d_24">
      <g>
       <use style="stroke:#000000;stroke-width:0.8;" x="108" xlink:href="#m14dffdc7b0" y="56.7"/>
      </g>
     </g>
     <g id="text_13">
      <!-- $\mathdefault{0.005}$ -->
      <g transform="translate(67.670472 61.888862)scale(0.15 -0.15)">
       <use transform="scale(0.996264)" xlink:href="#CMR17-48"/>
       <use transform="translate(45.690477 0)scale(0.996264)" xlink:href="#CMMI12-58"/>
       <use transform="translate(72.787654 0)scale(0.996264)" xlink:href="#CMR17-48"/>
       <use transform="translate(118.478131 0)scale(0.996264)" xlink:href="#CMR17-48"/>
       <use transform="translate(164.168608 0)scale(0.996264)" xlink:href="#CMR17-53"/>
      </g>
     </g>
    </g>
    <g id="text_14">
     <!-- $I_{hk}$ -->
     <g transform="translate(58.825938 403.530831)rotate(-90)scale(0.25 -0.25)">
      <defs>
       <path d="M 36.796875 60.625 
C 37.703125 64.109375 37.90625 65.109375 45.203125 65.109375 
C 47.40625 65.109375 48.203125 65.109375 48.203125 67 
C 48.203125 68 47.09375 68 46.796875 68 
C 45 68 42.796875 68 41 68 
L 28.703125 68 
C 26.703125 68 24.40625 68 22.40625 68 
C 21.59375 68 20.5 68 20.5 66.109375 
C 20.5 65.109375 21.296875 65.109375 23.296875 65.109375 
C 29.5 65.109375 29.5 64.3125 29.5 63.21875 
C 29.5 62.53125 29.296875 61.921875 29.09375 61.03125 
L 15.59375 7.375 
C 14.703125 3.890625 14.5 2.890625 7.203125 2.890625 
C 5 2.890625 4.09375 2.890625 4.09375 1 
C 4.09375 0 5.09375 0 5.59375 0 
C 7.40625 0 9.59375 0 11.40625 0 
L 23.703125 0 
C 25.703125 0 27.90625 0 29.90625 0 
C 30.703125 0 31.90625 0 31.90625 1.796875 
C 31.90625 2.890625 31.296875 2.890625 29.09375 2.890625 
C 22.90625 2.890625 22.90625 3.6875 22.90625 4.875 
C 22.90625 5.078125 22.90625 5.578125 23.296875 7.171875 
z
" id="CMMI12-73"/>
      </defs>
      <use transform="scale(0.996264)" xlink:href="#CMMI12-73"/>
      <use transform="translate(43.024176 -14.943915)scale(0.697382)" xlink:href="#CMMI12-104"/>
      <use transform="translate(82.33223 -14.943915)scale(0.697382)" xlink:href="#CMMI12-107"/>
     </g>
    </g>
   </g>
   <g id="line2d_25">
    <path clip-path="url(#pfb43015573)" d="M 159.233058 720.9 
L 209.02223 720.789374 
L 222.963198 720.51959 
L 232.921032 720.136556 
L 242.878867 719.531064 
L 250.845134 718.845154 
L 258.811402 717.944262 
L 266.777669 716.808463 
L 274.743937 715.417197 
L 282.710204 713.764536 
L 290.676472 711.81857 
L 296.651172 710.185897 
L 304.61744 707.788943 
L 312.583707 705.124181 
L 320.549975 702.22765 
L 330.507809 698.371445 
L 346.440344 691.793243 
L 358.389745 686.652873 
L 370.339147 681.318564 
L 382.288548 675.608573 
L 394.237949 669.409346 
L 406.18735 662.753895 
L 416.145185 656.89743 
L 430.086153 648.191161 
L 438.05242 643.024541 
L 450.001822 634.700722 
L 459.959656 627.069974 
L 465.934357 622.16425 
L 471.909057 617.007852 
L 481.866892 608.073139 
L 501.78256 590.034718 
L 505.765694 586.505437 
L 515.723528 578.136458 
L 523.689796 571.974395 
L 527.67293 568.958772 
L 535.639197 563.552821 
L 539.622331 560.95526 
L 547.588598 556.431859 
L 551.571732 554.328452 
L 557.546433 551.577014 
L 563.521133 549.155519 
L 569.495834 547.148423 
L 575.470535 545.474486 
L 581.445235 544.189469 
L 585.428369 543.498144 
L 591.40307 542.756838 
L 597.37777 542.317251 
L 603.352471 542.142799 
L 611.318738 542.280607 
L 617.293439 542.560657 
L 637.209108 543.527869 
L 645.175375 543.681827 
L 647.166942 543.696634 
L 647.166942 543.696634 
" style="fill:none;stroke:#be254a;stroke-linecap:square;stroke-width:2;"/>
   </g>
   <g id="line2d_26">
    <path clip-path="url(#pfb43015573)" d="M 159.233058 720.9 
L 211.013797 720.791225 
L 224.954765 720.557307 
L 236.904166 720.14388 
L 246.862 719.573201 
L 254.828268 718.923228 
L 262.794535 718.056486 
L 270.760803 716.941368 
L 276.735503 715.905894 
L 282.710204 714.694455 
L 288.684905 713.265946 
L 294.659605 711.624248 
L 300.634306 709.726976 
L 306.609007 707.583984 
L 312.583707 705.135501 
L 318.558408 702.4002 
L 324.533108 699.325415 
L 328.516242 697.108186 
L 334.490943 693.444437 
L 338.474077 690.821991 
L 342.45721 688.035549 
L 348.431911 683.53831 
L 354.406612 678.744374 
L 360.381312 673.624881 
L 366.356013 668.264198 
L 372.330713 662.6107 
L 378.305414 656.720474 
L 384.280115 650.523515 
L 392.246382 641.854216 
L 400.21265 632.699176 
L 406.18735 625.540791 
L 414.153618 615.621962 
L 422.119885 605.211312 
L 428.094586 597.164223 
L 436.060853 586.06136 
L 442.035554 577.438056 
L 450.001822 565.488131 
L 457.968089 552.970079 
L 465.934357 540.121021 
L 475.892191 523.900099 
L 485.850025 508.015751 
L 493.816293 495.730947 
L 501.78256 484.004211 
L 505.765694 478.236585 
L 511.740395 470.007538 
L 519.706662 459.407532 
L 523.689796 454.419424 
L 529.664497 447.1184 
L 533.64763 442.490663 
L 543.605465 431.724891 
L 549.580165 425.85427 
L 551.571732 423.940235 
L 559.538 417.061069 
L 563.521133 413.802957 
L 569.495834 409.45642 
L 575.470535 405.499892 
L 581.445235 402.062772 
L 585.428369 399.982225 
L 591.40307 397.313016 
L 597.37777 395.102342 
L 603.352471 393.353736 
L 607.335605 392.450623 
L 611.318738 391.73969 
L 615.301872 391.185658 
L 621.276573 390.714868 
L 629.24284 390.516335 
L 637.209108 390.529855 
L 647.166942 390.609425 
L 647.166942 390.609425 
" style="fill:none;stroke:#da464d;stroke-linecap:square;stroke-width:2;"/>
   </g>
   <g id="line2d_27">
    <path clip-path="url(#pfb43015573)" d="M 159.233058 720.9 
L 214.99693 720.797479 
L 232.921032 720.546385 
L 246.862 720.139411 
L 258.811402 719.560883 
L 268.769236 718.860062 
L 276.735503 718.122284 
L 284.701771 717.202006 
L 292.668038 716.069276 
L 300.634306 714.679823 
L 306.609007 713.477193 
L 314.575274 711.589631 
L 320.549975 709.95578 
L 328.516242 707.458861 
L 334.490943 705.312778 
L 340.465643 702.946018 
L 346.440344 700.299864 
L 352.415045 697.3981 
L 358.389745 694.204978 
L 364.364446 690.781746 
L 370.339147 687.10245 
L 376.313847 683.230888 
L 380.296981 680.541733 
L 390.254815 673.419793 
L 398.221083 667.295535 
L 404.195783 662.537514 
L 412.162051 655.886284 
L 418.136752 650.677824 
L 428.094586 641.606387 
L 436.060853 634.019329 
L 446.018688 624.078787 
L 453.984955 615.841941 
L 461.951223 607.485058 
L 475.892191 593.223171 
L 483.858458 585.416539 
L 495.80786 574.323841 
L 507.757261 563.866735 
L 519.706662 554.081198 
L 529.664497 546.446657 
L 535.639197 542.160459 
L 543.605465 536.670029 
L 551.571732 531.578635 
L 561.529567 525.824502 
L 565.5127 523.699793 
L 569.495834 521.642519 
L 577.462102 517.936142 
L 581.445235 516.18108 
L 587.419936 513.830684 
L 597.37777 510.44496 
L 605.344038 508.244816 
L 611.318738 506.925847 
L 617.293439 505.833958 
L 623.26814 505.075 
L 629.24284 504.585044 
L 635.217541 504.329714 
L 645.175375 504.208327 
L 647.166942 504.206266 
L 647.166942 504.206266 
" style="fill:none;stroke:#ed6246;stroke-linecap:square;stroke-width:2;"/>
   </g>
   <g id="line2d_28">
    <path clip-path="url(#pfb43015573)" d="M 159.233058 720.9 
L 207.030663 720.800541 
L 220.971631 720.525727 
L 230.929465 720.124041 
L 240.8873 719.471745 
L 248.853567 718.721467 
L 256.819835 717.72798 
L 264.786102 716.472988 
L 272.75237 714.933817 
L 280.718637 713.077529 
L 286.693338 711.480778 
L 294.659605 709.088349 
L 302.625873 706.399264 
L 308.600573 704.188781 
L 316.566841 701.045772 
L 328.516242 695.931768 
L 348.431911 686.802735 
L 362.372879 679.966456 
L 374.32228 673.710476 
L 384.280115 668.109569 
L 394.237949 662.08644 
L 404.195783 655.659647 
L 412.162051 650.27147 
L 422.119885 643.176048 
L 426.103019 640.245754 
L 438.05242 631.109876 
L 448.010255 623.077217 
L 457.968089 614.551525 
L 469.91749 603.619074 
L 501.78256 572.94732 
L 507.757261 567.513718 
L 515.723528 560.707144 
L 521.698229 555.95449 
L 529.664497 550.126327 
L 535.639197 546.216486 
L 539.622331 543.772217 
L 545.597032 540.519005 
L 549.580165 538.533699 
L 555.554866 535.983789 
L 559.538 534.462368 
L 563.521133 533.139809 
L 569.495834 531.490331 
L 573.478968 530.593162 
L 579.453668 529.571692 
L 583.436802 529.039549 
L 589.411503 528.533041 
L 595.386203 528.267957 
L 601.360904 528.222676 
L 609.327172 528.385404 
L 637.209108 529.250156 
L 647.166942 529.335558 
L 647.166942 529.335558 
" style="fill:none;stroke:#f7844e;stroke-linecap:square;stroke-width:2;"/>
   </g>
   <g id="line2d_29">
    <path clip-path="url(#pfb43015573)" d="M 159.233058 720.9 
L 207.030663 720.799436 
L 220.971631 720.515283 
L 230.929465 720.088325 
L 238.895733 719.542496 
L 246.862 718.754224 
L 252.836701 717.974757 
L 258.811402 716.993991 
L 264.786102 715.799214 
L 270.760803 714.348746 
L 274.743937 713.22618 
L 280.718637 711.290732 
L 284.701771 709.818531 
L 290.676472 707.300253 
L 294.659605 705.420182 
L 298.642739 703.346526 
L 302.625873 701.100864 
L 306.609007 698.642173 
L 310.59214 695.954879 
L 314.575274 693.088481 
L 318.558408 689.962009 
L 322.541542 686.597738 
L 326.524675 683.026539 
L 330.507809 679.150256 
L 334.490943 675.032672 
L 338.474077 670.666194 
L 342.45721 665.996738 
L 348.431911 658.520775 
L 354.406612 650.41801 
L 360.381312 641.778107 
L 366.356013 632.542024 
L 372.330713 622.809339 
L 378.305414 612.520119 
L 384.280115 601.748384 
L 390.254815 590.440191 
L 396.229516 578.663179 
L 402.204217 566.403328 
L 408.178917 553.64716 
L 414.153618 540.44833 
L 422.119885 522.08915 
L 428.094586 507.773763 
L 436.060853 488.071101 
L 444.027121 467.579508 
L 451.993388 446.326804 
L 459.959656 424.583298 
L 481.866892 364.087126 
L 487.841592 348.000091 
L 497.799427 322.110168 
L 505.765694 302.470371 
L 509.748828 292.955932 
L 517.715095 274.799949 
L 521.698229 266.114467 
L 529.664497 249.674104 
L 533.64763 241.921424 
L 539.622331 230.843425 
L 543.605465 223.949196 
L 549.580165 214.140117 
L 553.563299 208.091563 
L 557.546433 202.349245 
L 563.521133 194.367358 
L 567.504267 189.541866 
L 573.478968 182.849027 
L 577.462102 178.938967 
L 581.445235 175.323426 
L 585.428369 171.992058 
L 589.411503 169.09827 
L 593.394637 166.488106 
L 597.37777 164.204219 
L 601.360904 162.289833 
L 605.344038 160.639897 
L 609.327172 159.320188 
L 613.310305 158.312269 
L 617.293439 157.504665 
L 621.276573 156.952449 
L 627.251273 156.415957 
L 633.225974 156.135018 
L 641.192242 155.993531 
L 647.166942 155.971951 
L 647.166942 155.971951 
" style="fill:none;stroke:#fcaa5f;stroke-linecap:square;stroke-width:2;"/>
   </g>
   <g id="line2d_30">
    <path clip-path="url(#pfb43015573)" d="M 159.233058 720.9 
L 209.02223 720.791012 
L 222.963198 720.520043 
L 232.921032 720.122934 
L 240.8873 719.628003 
L 248.853567 718.91636 
L 254.828268 718.208285 
L 260.802968 717.330525 
L 266.777669 716.243139 
L 272.75237 714.937245 
L 278.72707 713.352574 
L 284.701771 711.489338 
L 290.676472 709.285351 
L 294.659605 707.626651 
L 298.642739 705.784112 
L 304.61744 702.695784 
L 308.600573 700.36603 
L 314.575274 696.492028 
L 318.558408 693.603212 
L 322.541542 690.468804 
L 326.524675 687.114818 
L 330.507809 683.438032 
L 334.490943 679.489926 
L 338.474077 675.274909 
L 342.45721 670.71388 
L 346.440344 665.839155 
L 350.423478 660.66927 
L 354.406612 655.163909 
L 358.389745 649.355037 
L 362.372879 643.253901 
L 368.34758 633.493036 
L 374.32228 623.169239 
L 380.296981 612.199205 
L 386.271682 600.709133 
L 392.246382 588.635762 
L 398.221083 576.061051 
L 404.195783 562.909784 
L 410.170484 549.259419 
L 416.145185 535.05104 
L 422.119885 520.343159 
L 428.094586 505.102824 
L 434.069287 489.3825 
L 440.043987 473.16413 
L 448.010255 450.954594 
L 463.94279 405.314139 
L 473.900624 377.035825 
L 481.866892 355.09834 
L 487.841592 339.031217 
L 497.799427 313.192629 
L 507.757261 288.595513 
L 513.731962 274.50074 
L 519.706662 260.782676 
L 527.67293 243.38818 
L 533.64763 231.01371 
L 541.613898 215.36531 
L 547.588598 204.488379 
L 551.571732 197.409892 
L 557.546433 187.590989 
L 563.521133 178.348638 
L 569.495834 169.910164 
L 573.478968 164.569101 
L 577.462102 159.711855 
L 581.445235 155.090971 
L 585.428369 150.751906 
L 589.411503 146.898472 
L 593.394637 143.25871 
L 597.37777 139.975902 
L 601.360904 137.122281 
L 605.344038 134.487262 
L 609.327172 132.281198 
L 611.318738 131.302352 
L 617.293439 128.867244 
L 621.276573 127.670214 
L 625.259707 126.785576 
L 629.24284 126.071682 
L 633.225974 125.625364 
L 637.209108 125.32704 
L 643.183808 125.096493 
L 647.166942 125.038112 
L 647.166942 125.038112 
" style="fill:none;stroke:#fec877;stroke-linecap:square;stroke-width:2;"/>
   </g>
   <g id="line2d_31">
    <path clip-path="url(#pfb43015573)" d="M 159.233058 720.9 
L 211.013797 720.802679 
L 226.946332 720.558021 
L 238.895733 720.178501 
L 248.853567 719.671386 
L 258.811402 718.937179 
L 266.777669 718.152011 
L 274.743937 717.165973 
L 282.710204 715.94987 
L 290.676472 714.469282 
L 296.651172 713.186856 
L 304.61744 711.216469 
L 312.583707 708.909036 
L 318.558408 706.979858 
L 324.533108 704.850533 
L 328.516242 703.335654 
L 336.48251 700.023111 
L 342.45721 697.28521 
L 348.431911 694.339365 
L 354.406612 691.100144 
L 360.381312 687.619728 
L 364.364446 685.107842 
L 372.330713 679.761489 
L 378.305414 675.419319 
L 384.280115 670.852691 
L 392.246382 664.397045 
L 398.221083 659.281168 
L 404.195783 653.953653 
L 412.162051 646.511624 
L 420.128318 638.626742 
L 428.094586 630.361661 
L 436.060853 621.746926 
L 451.993388 603.687494 
L 461.951223 592.337534 
L 473.900624 579.0885 
L 487.841592 564.206579 
L 497.799427 553.820361 
L 515.723528 535.83682 
L 521.698229 530.081024 
L 531.656063 520.810347 
L 541.613898 512.115799 
L 549.580165 505.592273 
L 555.554866 500.996666 
L 561.529567 496.631843 
L 567.504267 492.549228 
L 573.478968 488.735319 
L 579.453668 485.257533 
L 583.436802 483.04894 
L 587.419936 481.002641 
L 597.37777 476.489801 
L 603.352471 474.205144 
L 607.335605 472.828791 
L 611.318738 471.583839 
L 619.285006 469.560015 
L 623.26814 468.772138 
L 629.24284 467.889019 
L 635.217541 467.353497 
L 643.183808 467.023713 
L 647.166942 466.96409 
L 647.166942 466.96409 
" style="fill:none;stroke:#fee491;stroke-linecap:square;stroke-width:2;"/>
   </g>
   <g id="line2d_32">
    <path clip-path="url(#pfb43015573)" d="M 159.233058 720.9 
L 207.030663 720.803314 
L 220.971631 720.533934 
L 230.929465 720.130888 
L 238.895733 719.617397 
L 246.862 718.87698 
L 252.836701 718.14557 
L 258.811402 717.228168 
L 264.786102 716.110094 
L 270.760803 714.759341 
L 274.743937 713.714988 
L 280.718637 711.914432 
L 286.693338 709.803233 
L 292.668038 707.369752 
L 298.642739 704.556167 
L 304.61744 701.37724 
L 308.600573 699.005854 
L 314.575274 695.114404 
L 318.558408 692.239992 
L 322.541542 689.167059 
L 326.524675 685.905323 
L 332.499376 680.515391 
L 336.48251 676.66978 
L 340.465643 672.539334 
L 344.448777 668.176972 
L 348.431911 663.582446 
L 352.415045 658.678395 
L 358.389745 650.897752 
L 362.372879 645.365324 
L 368.34758 636.560905 
L 372.330713 630.435744 
L 378.305414 620.739628 
L 384.280115 610.584466 
L 390.254815 599.894089 
L 396.229516 588.782536 
L 402.204217 577.154306 
L 408.178917 565.082998 
L 414.153618 552.548851 
L 422.119885 535.109251 
L 428.094586 521.475921 
L 436.060853 502.712275 
L 446.018688 478.29972 
L 459.959656 442.996396 
L 473.900624 407.432801 
L 485.850025 377.649697 
L 493.816293 358.579737 
L 499.790993 344.714402 
L 505.765694 331.411595 
L 509.748828 322.806674 
L 517.715095 306.507999 
L 521.698229 298.767636 
L 527.67293 287.727043 
L 531.656063 280.744827 
L 537.630764 270.83658 
L 541.613898 264.647182 
L 547.588598 255.996546 
L 551.571732 250.572876 
L 555.554866 245.567544 
L 559.538 240.791862 
L 563.521133 236.368072 
L 567.504267 232.327569 
L 571.487401 228.479919 
L 575.470535 225.023223 
L 581.445235 220.403469 
L 585.428369 217.665824 
L 589.411503 215.252825 
L 595.386203 212.058951 
L 599.369337 210.281863 
L 605.344038 208.042837 
L 611.318738 206.307619 
L 619.285006 204.667685 
L 623.26814 204.048619 
L 631.234407 203.213228 
L 637.209108 202.864764 
L 643.183808 202.68115 
L 647.166942 202.632508 
L 647.166942 202.632508 
" style="fill:none;stroke:#fff6b0;stroke-linecap:square;stroke-width:2;"/>
   </g>
   <g id="line2d_33">
    <path clip-path="url(#pfb43015573)" d="M 0 0 
" style="fill:none;stroke:#f8fcb4;stroke-linecap:square;stroke-width:2;"/>
   </g>
   <g id="line2d_34">
    <path clip-path="url(#pfb43015573)" d="M 159.233058 720.9 
L 207.030663 720.802963 
L 220.971631 720.533092 
L 230.929465 720.130999 
L 240.8873 719.460118 
L 248.853567 718.666758 
L 254.828268 717.884496 
L 260.802968 716.929061 
L 266.777669 715.757135 
L 272.75237 714.371524 
L 278.72707 712.711996 
L 284.701771 710.795709 
L 290.676472 708.562066 
L 294.659605 706.907144 
L 298.642739 705.096482 
L 304.61744 702.104387 
L 310.59214 698.710024 
L 316.566841 694.966297 
L 322.541542 690.789856 
L 326.524675 687.811633 
L 332.499376 682.920956 
L 338.474077 677.651669 
L 344.448777 671.881116 
L 348.431911 667.813032 
L 352.415045 663.487977 
L 358.389745 656.633249 
L 362.372879 651.791509 
L 368.34758 644.054924 
L 372.330713 638.689892 
L 378.305414 630.156517 
L 384.280115 621.21789 
L 390.254815 611.768403 
L 396.229516 601.922814 
L 402.204217 591.57143 
L 408.178917 580.811714 
L 414.153618 569.598048 
L 422.119885 553.925197 
L 428.094586 541.651749 
L 436.060853 524.661104 
L 446.018688 502.509175 
L 457.968089 475.134882 
L 477.883758 429.286842 
L 497.799427 384.652269 
L 511.740395 354.511629 
L 519.706662 337.747694 
L 527.67293 321.60262 
L 533.64763 309.934213 
L 541.613898 294.971705 
L 549.580165 280.918918 
L 553.563299 274.278885 
L 559.538 264.77016 
L 563.521133 258.682401 
L 569.495834 250.217462 
L 573.478968 244.833255 
L 577.462102 239.90171 
L 583.436802 232.922187 
L 587.419936 228.69459 
L 593.394637 222.964445 
L 597.37777 219.54662 
L 601.360904 216.533945 
L 605.344038 213.704099 
L 609.327172 211.321829 
L 611.318738 210.236826 
L 617.293439 207.502433 
L 621.276573 206.113013 
L 625.259707 205.031127 
L 629.24284 204.126396 
L 635.217541 203.300066 
L 641.192242 202.857475 
L 647.166942 202.688296 
L 647.166942 202.688296 
" style="fill:none;stroke:#e9f69d;stroke-linecap:square;stroke-width:2;"/>
   </g>
   <g id="line2d_35">
    <path clip-path="url(#pfb43015573)" d="M 159.233058 720.9 
L 211.013797 720.804466 
L 226.946332 720.564541 
L 238.895733 720.19048 
L 248.853567 719.688388 
L 258.811402 718.955738 
L 266.777669 718.16728 
L 274.743937 717.168424 
L 282.710204 715.930013 
L 290.676472 714.404775 
L 296.651172 713.074548 
L 304.61744 711.0101 
L 310.59214 709.215302 
L 316.566841 707.226744 
L 322.541542 705.002402 
L 328.516242 702.553126 
L 334.490943 699.858518 
L 340.465643 696.905093 
L 346.440344 693.69036 
L 352.415045 690.132717 
L 358.389745 686.287814 
L 364.364446 682.071043 
L 370.339147 677.566855 
L 376.313847 672.737777 
L 382.288548 667.667878 
L 388.263248 662.32023 
L 394.237949 656.75212 
L 400.21265 650.910286 
L 406.18735 644.855763 
L 414.153618 636.402474 
L 422.119885 627.513141 
L 428.094586 620.576586 
L 436.060853 611.020345 
L 455.976522 586.100529 
L 467.925923 571.171825 
L 479.875325 556.553618 
L 487.841592 547.085943 
L 497.799427 535.699469 
L 507.757261 525.115752 
L 513.731962 519.222995 
L 519.706662 513.606299 
L 525.681363 508.397103 
L 531.656063 503.50427 
L 537.630764 498.98585 
L 543.605465 494.875688 
L 547.588598 492.271762 
L 551.571732 489.884773 
L 557.546433 486.55427 
L 561.529567 484.564186 
L 565.5127 482.710282 
L 573.478968 479.400646 
L 577.462102 477.97732 
L 585.428369 475.430171 
L 589.411503 474.359914 
L 597.37777 472.445777 
L 601.360904 471.659427 
L 609.327172 470.194218 
L 617.293439 468.988284 
L 627.251273 467.827002 
L 633.225974 467.35987 
L 639.200675 467.061091 
L 647.166942 466.898075 
L 647.166942 466.898075 
" style="fill:none;stroke:#caea9e;stroke-linecap:square;stroke-width:2;"/>
   </g>
   <g id="line2d_36">
    <path clip-path="url(#pfb43015573)" d="M 159.233058 720.9 
L 209.02223 720.792654 
L 222.963198 720.526518 
L 232.921032 720.136721 
L 240.8873 719.650329 
L 248.853567 718.951446 
L 254.828268 718.255089 
L 260.802968 717.39219 
L 266.777669 716.321925 
L 272.75237 715.036806 
L 278.72707 713.474008 
L 284.701771 711.63778 
L 290.676472 709.461632 
L 294.659605 707.826272 
L 298.642739 706.002141 
L 302.625873 704.015752 
L 306.609007 701.827552 
L 310.59214 699.407644 
L 314.575274 696.806413 
L 318.558408 693.949618 
L 322.541542 690.840229 
L 326.524675 687.506206 
L 330.507809 683.863344 
L 334.490943 679.939313 
L 338.474077 675.739936 
L 342.45721 671.214918 
L 346.440344 666.370167 
L 350.423478 661.217377 
L 354.406612 655.761186 
L 358.389745 650.009038 
L 362.372879 643.944445 
L 368.34758 634.299392 
L 374.32228 624.084394 
L 380.296981 613.256486 
L 386.271682 601.883665 
L 392.246382 589.944112 
L 398.221083 577.486649 
L 404.195783 564.463923 
L 410.170484 550.920426 
L 416.145185 536.842988 
L 422.119885 522.231912 
L 428.094586 507.094476 
L 434.069287 491.466968 
L 442.035554 469.896109 
L 450.001822 447.703627 
L 463.94279 408.131754 
L 479.875325 363.474525 
L 487.841592 341.76172 
L 499.790993 310.465229 
L 509.748828 285.667868 
L 519.706662 262.303258 
L 525.681363 249.077686 
L 529.664497 240.474886 
L 535.639197 228.204946 
L 541.613898 216.473029 
L 549.580165 201.949133 
L 553.563299 195.144019 
L 559.538 185.488641 
L 563.521133 179.415815 
L 569.495834 170.962692 
L 573.478968 165.681061 
L 577.462102 160.834544 
L 583.436802 154.031513 
L 587.419936 149.938199 
L 593.394637 144.409432 
L 597.37777 141.16777 
L 599.369337 139.659083 
L 605.344038 135.604824 
L 609.327172 133.357452 
L 611.318738 132.322379 
L 617.293439 129.744515 
L 623.26814 127.821777 
L 629.24284 126.426451 
L 635.217541 125.57929 
L 641.192242 125.116413 
L 647.166942 124.937026 
L 647.166942 124.937026 
" style="fill:none;stroke:#a7dba4;stroke-linecap:square;stroke-width:2;"/>
   </g>
   <g id="line2d_37">
    <path clip-path="url(#pfb43015573)" d="M 159.233058 720.9 
L 207.030663 720.800502 
L 220.971631 720.520923 
L 230.929465 720.10246 
L 238.895733 719.569452 
L 246.862 718.802585 
L 252.836701 718.047074 
L 258.811402 717.099697 
L 264.786102 715.950561 
L 270.760803 714.560834 
L 276.735503 712.906142 
L 282.710204 710.97258 
L 288.684905 708.710035 
L 294.659605 706.117528 
L 300.634306 703.150162 
L 304.61744 700.972708 
L 308.600573 698.58969 
L 314.575274 694.689231 
L 318.558408 691.834599 
L 324.533108 687.178138 
L 328.516242 683.816076 
L 334.490943 678.354828 
L 338.474077 674.456894 
L 342.45721 670.32134 
L 348.431911 663.727842 
L 354.406612 656.624874 
L 360.381312 649.084298 
L 366.356013 641.03904 
L 372.330713 632.577293 
L 378.305414 623.603911 
L 384.280115 614.203667 
L 390.254815 604.280745 
L 396.229516 593.931276 
L 402.204217 583.089919 
L 408.178917 571.805829 
L 414.153618 560.059972 
L 420.128318 547.831862 
L 426.103019 535.182237 
L 434.069287 517.590834 
L 440.043987 503.904635 
L 448.010255 485.095542 
L 455.976522 465.721825 
L 467.925923 435.983975 
L 487.841592 386.138283 
L 513.731962 323.031414 
L 521.698229 304.292876 
L 531.656063 281.792378 
L 537.630764 268.841204 
L 541.613898 260.416021 
L 549.580165 244.395606 
L 553.563299 236.785825 
L 559.538 225.879747 
L 563.521133 218.899769 
L 569.495834 209.172725 
L 573.478968 202.983884 
L 577.462102 197.306608 
L 583.436802 189.308283 
L 587.419936 184.4643 
L 591.40307 180.039445 
L 595.386203 175.909624 
L 599.369337 172.265388 
L 605.344038 167.502797 
L 609.327172 164.884253 
L 611.318738 163.701407 
L 617.293439 160.80731 
L 621.276573 159.369431 
L 625.259707 158.261283 
L 629.24284 157.347511 
L 633.225974 156.767533 
L 637.209108 156.357356 
L 641.192242 156.093835 
L 647.166942 155.92977 
L 647.166942 155.92977 
" style="fill:none;stroke:#7ecca5;stroke-linecap:square;stroke-width:2;"/>
   </g>
   <g id="line2d_38">
    <path clip-path="url(#pfb43015573)" d="M 159.233058 720.9 
L 207.030663 720.801235 
L 220.971631 720.530359 
L 230.929465 720.13766 
L 240.8873 719.50545 
L 250.845134 718.57398 
L 258.811402 717.56925 
L 264.786102 716.661459 
L 272.75237 715.233839 
L 280.718637 713.536408 
L 288.684905 711.584234 
L 296.651172 709.407501 
L 306.609007 706.394647 
L 318.558408 702.442214 
L 362.372879 687.247751 
L 380.296981 680.568103 
L 386.271682 678.102264 
L 394.237949 674.668342 
L 404.195783 670.032506 
L 412.162051 666.087457 
L 420.128318 661.884318 
L 426.103019 658.647438 
L 438.05242 651.734278 
L 450.001822 644.335469 
L 461.951223 636.420721 
L 471.909057 629.42416 
L 481.866892 622.020993 
L 491.824726 614.185944 
L 503.774127 604.226584 
L 521.698229 588.57022 
L 541.613898 571.366971 
L 551.571732 563.305622 
L 561.529567 555.880482 
L 567.504267 551.815252 
L 573.478968 548.004604 
L 579.453668 544.600968 
L 583.436802 542.471348 
L 587.419936 540.539731 
L 595.386203 537.157798 
L 599.369337 535.721242 
L 607.335605 533.342848 
L 611.318738 532.382266 
L 619.285006 530.940592 
L 625.259707 530.231236 
L 631.234407 529.756034 
L 639.200675 529.439733 
L 647.166942 529.337477 
L 647.166942 529.337477 
" style="fill:none;stroke:#5ab4ab;stroke-linecap:square;stroke-width:2;"/>
   </g>
   <g id="line2d_39">
    <path clip-path="url(#pfb43015573)" d="M 159.233058 720.9 
L 214.99693 720.800714 
L 232.921032 720.559804 
L 246.862 720.169332 
L 258.811402 719.613883 
L 268.769236 718.94042 
L 276.735503 718.230021 
L 284.701771 717.341701 
L 294.659605 715.938341 
L 302.625873 714.528798 
L 308.600573 713.298269 
L 316.566841 711.384839 
L 322.541542 709.714291 
L 328.516242 707.855381 
L 334.490943 705.753081 
L 340.465643 703.42374 
L 346.440344 700.828906 
L 352.415045 697.974609 
L 358.389745 694.869022 
L 366.356013 690.381699 
L 372.330713 686.754418 
L 380.296981 681.645552 
L 388.263248 676.145394 
L 394.237949 671.826847 
L 402.204217 665.753329 
L 408.178917 660.971766 
L 418.136752 652.629224 
L 428.094586 643.753333 
L 434.069287 638.176191 
L 442.035554 630.546297 
L 459.959656 612.51968 
L 477.883758 594.566891 
L 485.850025 586.69621 
L 497.799427 575.285349 
L 509.748828 564.480287 
L 519.706662 556.045785 
L 523.689796 552.827363 
L 535.639197 543.733986 
L 545.597032 536.840365 
L 551.571732 533.03069 
L 559.538 528.309706 
L 569.495834 523.005053 
L 575.470535 520.169844 
L 585.428369 515.964293 
L 589.411503 514.499472 
L 595.386203 512.395202 
L 601.360904 510.612608 
L 607.335605 508.96402 
L 611.318738 507.996612 
L 621.276573 506.043671 
L 627.251273 505.20032 
L 631.234407 504.788529 
L 637.209108 504.385442 
L 643.183808 504.180777 
L 647.166942 504.124572 
L 647.166942 504.124572 
" style="fill:none;stroke:#3b92b9;stroke-linecap:square;stroke-width:2;"/>
   </g>
   <g id="line2d_40">
    <path clip-path="url(#pfb43015573)" d="M 159.233058 720.9 
L 211.013797 720.794193 
L 224.954765 720.56894 
L 236.904166 720.172968 
L 246.862 719.628968 
L 254.828268 719.012089 
L 262.794535 718.193093 
L 270.760803 717.145882 
L 276.735503 716.177345 
L 284.701771 714.623229 
L 292.668038 712.737225 
L 298.642739 711.063761 
L 304.61744 709.191277 
L 308.600573 707.792316 
L 314.575274 705.495332 
L 318.558408 703.83 
L 324.533108 701.075363 
L 330.507809 698.057211 
L 336.48251 694.728817 
L 342.45721 691.122998 
L 348.431911 687.212673 
L 356.398178 681.638813 
L 362.372879 677.183885 
L 368.34758 672.54562 
L 374.32228 667.657554 
L 380.296981 662.560209 
L 386.271682 657.167427 
L 392.246382 651.558544 
L 398.221083 645.660603 
L 404.195783 639.570033 
L 412.162051 630.993504 
L 418.136752 624.326144 
L 428.094586 612.648196 
L 436.060853 602.806058 
L 442.035554 595.190688 
L 450.001822 584.618039 
L 457.968089 573.559766 
L 467.925923 559.357724 
L 487.841592 530.351287 
L 491.824726 524.616508 
L 499.790993 512.977211 
L 505.765694 504.351229 
L 517.715095 487.334236 
L 527.67293 473.601217 
L 533.64763 465.595232 
L 543.605465 452.8848 
L 547.588598 448.009048 
L 553.563299 440.956749 
L 559.538 434.26343 
L 563.521133 429.970783 
L 571.487401 422.049344 
L 575.470535 418.344933 
L 583.436802 411.643618 
L 587.419936 408.610702 
L 593.394637 404.487465 
L 597.37777 402.047513 
L 601.360904 399.899422 
L 605.344038 397.894511 
L 609.327172 396.223463 
L 613.310305 394.840165 
L 617.293439 393.599711 
L 621.276573 392.664445 
L 625.259707 391.951755 
L 629.24284 391.368314 
L 635.217541 390.853479 
L 641.192242 390.603536 
L 647.166942 390.513462 
L 647.166942 390.513462 
" style="fill:none;stroke:#4471b2;stroke-linecap:square;stroke-width:2;"/>
   </g>
   <g id="line2d_41">
    <path clip-path="url(#pfb43015573)" d="M 159.233058 720.9 
L 209.02223 720.791918 
L 222.963198 720.531362 
L 232.921032 720.16481 
L 242.878867 719.590475 
L 252.836701 718.756929 
L 260.802968 717.873197 
L 268.769236 716.771541 
L 276.735503 715.458874 
L 284.701771 713.921537 
L 294.659605 711.705905 
L 306.609007 708.648653 
L 322.541542 704.050724 
L 340.465643 698.605928 
L 356.398178 693.769708 
L 364.364446 691.349924 
L 376.313847 687.565301 
L 386.271682 684.139182 
L 396.229516 680.435023 
L 406.18735 676.475958 
L 418.136752 671.345856 
L 430.086153 665.847789 
L 440.043987 660.979598 
L 450.001822 655.741987 
L 459.959656 649.956459 
L 467.925923 644.965555 
L 477.883758 638.224555 
L 483.858458 633.936942 
L 491.824726 627.979499 
L 503.774127 618.421708 
L 525.681363 599.70045 
L 531.656063 594.486474 
L 539.622331 587.600104 
L 551.571732 577.728139 
L 563.521133 568.648395 
L 571.487401 563.224983 
L 575.470535 560.686721 
L 581.445235 557.231528 
L 585.428369 555.108725 
L 591.40307 552.300961 
L 595.386203 550.634872 
L 599.369337 549.174198 
L 605.344038 547.330083 
L 609.327172 546.351036 
L 613.310305 545.575252 
L 617.293439 544.927308 
L 623.26814 544.305194 
L 629.24284 543.927161 
L 637.209108 543.711106 
L 647.166942 543.651283 
L 647.166942 543.651283 
" style="fill:none;stroke:#5e4fa2;stroke-linecap:square;stroke-width:2;"/>
   </g>
   <g id="patch_3">
    <path d="M 108 720.9 
L 108 56.7 
" style="fill:none;stroke:#000000;stroke-linecap:square;stroke-linejoin:miter;stroke-width:0.8;"/>
   </g>
   <g id="patch_4">
    <path d="M 698.4 720.9 
L 698.4 56.7 
" style="fill:none;stroke:#000000;stroke-linecap:square;stroke-linejoin:miter;stroke-width:0.8;"/>
   </g>
   <g id="patch_5">
    <path d="M 108 720.9 
L 698.4 720.9 
" style="fill:none;stroke:#000000;stroke-linecap:square;stroke-linejoin:miter;stroke-width:0.8;"/>
   </g>
   <g id="patch_6">
    <path d="M 108 56.7 
L 698.4 56.7 
" style="fill:none;stroke:#000000;stroke-linecap:square;stroke-linejoin:miter;stroke-width:0.8;"/>
   </g>
   <g id="legend_1">
    <g id="patch_7">
     <path d="M 122 621.483406 
L 244.373735 621.483406 
Q 248.373735 621.483406 248.373735 617.483406 
L 248.373735 70.7 
Q 248.373735 66.7 244.373735 66.7 
L 122 66.7 
Q 118 66.7 118 70.7 
L 118 617.483406 
Q 118 621.483406 122 621.483406 
z
" style="fill:#ffffff;opacity:0.8;stroke:#cccccc;stroke-linejoin:miter;"/>
    </g>
    <g id="line2d_42">
     <path d="M 126 82.896875 
L 166 82.896875 
" style="fill:none;stroke:#be254a;stroke-linecap:square;stroke-width:2;"/>
    </g>
    <g id="line2d_43"/>
    <g id="text_15">
     <!-- $I_{(0,-2)}$ -->
     <g transform="translate(182 89.896875)scale(0.2 -0.2)">
      <defs>
       <path d="M 19.5 -0.484375 
C 19.5 5.359375 17.59375 9.671875 13.5 9.671875 
C 10.296875 9.671875 8.703125 7.078125 8.703125 4.890625 
C 8.703125 2.6875 10.203125 0 13.59375 0 
C 14.90625 0 16 0.40625 16.90625 1.296875 
C 17.09375 1.5 17.203125 1.5 17.296875 1.5 
C 17.5 1.5 17.5 0.078125 17.5 -0.421875 
C 17.5 -3.75 16.90625 -10.296875 11.09375 -16.875 
C 10 -18.078125 10 -18.28125 10 -18.484375 
C 10 -19 10.5 -19.5 11 -19.5 
C 11.796875 -19.5 19.5 -12.046875 19.5 -0.484375 
z
" id="CMMI12-59"/>
       <path d="M 65.90625 23 
C 67.59375 23 69.40625 23 69.40625 25 
C 69.40625 27 67.59375 27 65.90625 27 
L 11.796875 27 
C 10.09375 27 8.296875 27 8.296875 25 
C 8.296875 23 10.09375 23 11.796875 23 
z
" id="CMSY10-0"/>
      </defs>
      <use transform="scale(0.996264)" xlink:href="#CMMI12-73"/>
      <use transform="translate(43.024176 -17.925121)scale(0.697382)" xlink:href="#CMR17-40"/>
      <use transform="translate(67.720596 -17.925121)scale(0.697382)" xlink:href="#CMR17-48"/>
      <use transform="translate(99.703778 -17.925121)scale(0.697382)" xlink:href="#CMMI12-59"/>
      <use transform="translate(118.671711 -17.925121)scale(0.697382)" xlink:href="#CMSY10-0"/>
      <use transform="translate(172.912704 -17.925121)scale(0.697382)" xlink:href="#CMR17-50"/>
      <use transform="translate(204.895886 -17.925121)scale(0.697382)" xlink:href="#CMR17-41"/>
     </g>
    </g>
    <g id="line2d_44">
     <path d="M 126 115.178252 
L 166 115.178252 
" style="fill:none;stroke:#da464d;stroke-linecap:square;stroke-width:2;"/>
    </g>
    <g id="line2d_45"/>
    <g id="text_16">
     <!-- $I_{(1,-2)}$ -->
     <g transform="translate(182 122.178252)scale(0.2 -0.2)">
      <use transform="scale(0.996264)" xlink:href="#CMMI12-73"/>
      <use transform="translate(43.024176 -17.925121)scale(0.697382)" xlink:href="#CMR17-40"/>
      <use transform="translate(67.720596 -17.925121)scale(0.697382)" xlink:href="#CMR17-49"/>
      <use transform="translate(99.703778 -17.925121)scale(0.697382)" xlink:href="#CMMI12-59"/>
      <use transform="translate(118.671711 -17.925121)scale(0.697382)" xlink:href="#CMSY10-0"/>
      <use transform="translate(172.912704 -17.925121)scale(0.697382)" xlink:href="#CMR17-50"/>
      <use transform="translate(204.895886 -17.925121)scale(0.697382)" xlink:href="#CMR17-41"/>
     </g>
    </g>
    <g id="line2d_46">
     <path d="M 126 147.459629 
L 166 147.459629 
" style="fill:none;stroke:#ed6246;stroke-linecap:square;stroke-width:2;"/>
    </g>
    <g id="line2d_47"/>
    <g id="text_17">
     <!-- $I_{(2,-2)}$ -->
     <g transform="translate(182 154.459629)scale(0.2 -0.2)">
      <use transform="scale(0.996264)" xlink:href="#CMMI12-73"/>
      <use transform="translate(43.024176 -17.925121)scale(0.697382)" xlink:href="#CMR17-40"/>
      <use transform="translate(67.720596 -17.925121)scale(0.697382)" xlink:href="#CMR17-50"/>
      <use transform="translate(99.703778 -17.925121)scale(0.697382)" xlink:href="#CMMI12-59"/>
      <use transform="translate(118.671711 -17.925121)scale(0.697382)" xlink:href="#CMSY10-0"/>
      <use transform="translate(172.912704 -17.925121)scale(0.697382)" xlink:href="#CMR17-50"/>
      <use transform="translate(204.895886 -17.925121)scale(0.697382)" xlink:href="#CMR17-41"/>
     </g>
    </g>
    <g id="line2d_48">
     <path d="M 126 179.741006 
L 166 179.741006 
" style="fill:none;stroke:#f7844e;stroke-linecap:square;stroke-width:2;"/>
    </g>
    <g id="line2d_49"/>
    <g id="text_18">
     <!-- $I_{(-1,-1)}$ -->
     <g transform="translate(182 186.741006)scale(0.2 -0.2)">
      <use transform="scale(0.996264)" xlink:href="#CMMI12-73"/>
      <use transform="translate(43.024176 -17.925121)scale(0.697382)" xlink:href="#CMR17-40"/>
      <use transform="translate(67.720596 -17.925121)scale(0.697382)" xlink:href="#CMSY10-0"/>
      <use transform="translate(121.961589 -17.925121)scale(0.697382)" xlink:href="#CMR17-49"/>
      <use transform="translate(153.944771 -17.925121)scale(0.697382)" xlink:href="#CMMI12-59"/>
      <use transform="translate(172.912704 -17.925121)scale(0.697382)" xlink:href="#CMSY10-0"/>
      <use transform="translate(227.153697 -17.925121)scale(0.697382)" xlink:href="#CMR17-49"/>
      <use transform="translate(259.136879 -17.925121)scale(0.697382)" xlink:href="#CMR17-41"/>
     </g>
    </g>
    <g id="line2d_50">
     <path d="M 126 212.022382 
L 166 212.022382 
" style="fill:none;stroke:#fcaa5f;stroke-linecap:square;stroke-width:2;"/>
    </g>
    <g id="line2d_51"/>
    <g id="text_19">
     <!-- $I_{(0,-1)}$ -->
     <g transform="translate(182 219.022382)scale(0.2 -0.2)">
      <use transform="scale(0.996264)" xlink:href="#CMMI12-73"/>
      <use transform="translate(43.024176 -17.925121)scale(0.697382)" xlink:href="#CMR17-40"/>
      <use transform="translate(67.720596 -17.925121)scale(0.697382)" xlink:href="#CMR17-48"/>
      <use transform="translate(99.703778 -17.925121)scale(0.697382)" xlink:href="#CMMI12-59"/>
      <use transform="translate(118.671711 -17.925121)scale(0.697382)" xlink:href="#CMSY10-0"/>
      <use transform="translate(172.912704 -17.925121)scale(0.697382)" xlink:href="#CMR17-49"/>
      <use transform="translate(204.895886 -17.925121)scale(0.697382)" xlink:href="#CMR17-41"/>
     </g>
    </g>
    <g id="line2d_52">
     <path d="M 126 244.303759 
L 166 244.303759 
" style="fill:none;stroke:#fec877;stroke-linecap:square;stroke-width:2;"/>
    </g>
    <g id="line2d_53"/>
    <g id="text_20">
     <!-- $I_{(1,-1)}$ -->
     <g transform="translate(182 251.303759)scale(0.2 -0.2)">
      <use transform="scale(0.996264)" xlink:href="#CMMI12-73"/>
      <use transform="translate(43.024176 -17.925121)scale(0.697382)" xlink:href="#CMR17-40"/>
      <use transform="translate(67.720596 -17.925121)scale(0.697382)" xlink:href="#CMR17-49"/>
      <use transform="translate(99.703778 -17.925121)scale(0.697382)" xlink:href="#CMMI12-59"/>
      <use transform="translate(118.671711 -17.925121)scale(0.697382)" xlink:href="#CMSY10-0"/>
      <use transform="translate(172.912704 -17.925121)scale(0.697382)" xlink:href="#CMR17-49"/>
      <use transform="translate(204.895886 -17.925121)scale(0.697382)" xlink:href="#CMR17-41"/>
     </g>
    </g>
    <g id="line2d_54">
     <path d="M 126 276.585136 
L 166 276.585136 
" style="fill:none;stroke:#fee491;stroke-linecap:square;stroke-width:2;"/>
    </g>
    <g id="line2d_55"/>
    <g id="text_21">
     <!-- $I_{(2,-1)}$ -->
     <g transform="translate(182 283.585136)scale(0.2 -0.2)">
      <use transform="scale(0.996264)" xlink:href="#CMMI12-73"/>
      <use transform="translate(43.024176 -17.925121)scale(0.697382)" xlink:href="#CMR17-40"/>
      <use transform="translate(67.720596 -17.925121)scale(0.697382)" xlink:href="#CMR17-50"/>
      <use transform="translate(99.703778 -17.925121)scale(0.697382)" xlink:href="#CMMI12-59"/>
      <use transform="translate(118.671711 -17.925121)scale(0.697382)" xlink:href="#CMSY10-0"/>
      <use transform="translate(172.912704 -17.925121)scale(0.697382)" xlink:href="#CMR17-49"/>
      <use transform="translate(204.895886 -17.925121)scale(0.697382)" xlink:href="#CMR17-41"/>
     </g>
    </g>
    <g id="line2d_56">
     <path d="M 126 308.866513 
L 166 308.866513 
" style="fill:none;stroke:#fff6b0;stroke-linecap:square;stroke-width:2;"/>
    </g>
    <g id="line2d_57"/>
    <g id="text_22">
     <!-- $I_{(-1,0)}$ -->
     <g transform="translate(182 315.866513)scale(0.2 -0.2)">
      <use transform="scale(0.996264)" xlink:href="#CMMI12-73"/>
      <use transform="translate(43.024176 -17.925121)scale(0.697382)" xlink:href="#CMR17-40"/>
      <use transform="translate(67.720596 -17.925121)scale(0.697382)" xlink:href="#CMSY10-0"/>
      <use transform="translate(121.961589 -17.925121)scale(0.697382)" xlink:href="#CMR17-49"/>
      <use transform="translate(153.944771 -17.925121)scale(0.697382)" xlink:href="#CMMI12-59"/>
      <use transform="translate(172.912704 -17.925121)scale(0.697382)" xlink:href="#CMR17-48"/>
      <use transform="translate(204.895886 -17.925121)scale(0.697382)" xlink:href="#CMR17-41"/>
     </g>
    </g>
    <g id="line2d_58">
     <path d="M 126 341.14789 
L 166 341.14789 
" style="fill:none;stroke:#f8fcb4;stroke-linecap:square;stroke-width:2;"/>
    </g>
    <g id="line2d_59"/>
    <g id="text_23">
     <!-- $I_{(0,0)}$ -->
     <g transform="translate(182 348.14789)scale(0.2 -0.2)">
      <use transform="scale(0.996264)" xlink:href="#CMMI12-73"/>
      <use transform="translate(43.024176 -17.925121)scale(0.697382)" xlink:href="#CMR17-40"/>
      <use transform="translate(67.720596 -17.925121)scale(0.697382)" xlink:href="#CMR17-48"/>
      <use transform="translate(99.703778 -17.925121)scale(0.697382)" xlink:href="#CMMI12-59"/>
      <use transform="translate(118.671711 -17.925121)scale(0.697382)" xlink:href="#CMR17-48"/>
      <use transform="translate(150.654893 -17.925121)scale(0.697382)" xlink:href="#CMR17-41"/>
     </g>
    </g>
    <g id="line2d_60">
     <path d="M 126 373.429267 
L 166 373.429267 
" style="fill:none;stroke:#e9f69d;stroke-linecap:square;stroke-width:2;"/>
    </g>
    <g id="line2d_61"/>
    <g id="text_24">
     <!-- $I_{(1,0)}$ -->
     <g transform="translate(182 380.429267)scale(0.2 -0.2)">
      <use transform="scale(0.996264)" xlink:href="#CMMI12-73"/>
      <use transform="translate(43.024176 -17.925121)scale(0.697382)" xlink:href="#CMR17-40"/>
      <use transform="translate(67.720596 -17.925121)scale(0.697382)" xlink:href="#CMR17-49"/>
      <use transform="translate(99.703778 -17.925121)scale(0.697382)" xlink:href="#CMMI12-59"/>
      <use transform="translate(118.671711 -17.925121)scale(0.697382)" xlink:href="#CMR17-48"/>
      <use transform="translate(150.654893 -17.925121)scale(0.697382)" xlink:href="#CMR17-41"/>
     </g>
    </g>
    <g id="line2d_62">
     <path d="M 126 405.710643 
L 166 405.710643 
" style="fill:none;stroke:#caea9e;stroke-linecap:square;stroke-width:2;"/>
    </g>
    <g id="line2d_63"/>
    <g id="text_25">
     <!-- $I_{(-2,1)}$ -->
     <g transform="translate(182 412.710643)scale(0.2 -0.2)">
      <use transform="scale(0.996264)" xlink:href="#CMMI12-73"/>
      <use transform="translate(43.024176 -17.925121)scale(0.697382)" xlink:href="#CMR17-40"/>
      <use transform="translate(67.720596 -17.925121)scale(0.697382)" xlink:href="#CMSY10-0"/>
      <use transform="translate(121.961589 -17.925121)scale(0.697382)" xlink:href="#CMR17-50"/>
      <use transform="translate(153.944771 -17.925121)scale(0.697382)" xlink:href="#CMMI12-59"/>
      <use transform="translate(172.912704 -17.925121)scale(0.697382)" xlink:href="#CMR17-49"/>
      <use transform="translate(204.895886 -17.925121)scale(0.697382)" xlink:href="#CMR17-41"/>
     </g>
    </g>
    <g id="line2d_64">
     <path d="M 126 437.99202 
L 166 437.99202 
" style="fill:none;stroke:#a7dba4;stroke-linecap:square;stroke-width:2;"/>
    </g>
    <g id="line2d_65"/>
    <g id="text_26">
     <!-- $I_{(-1,1)}$ -->
     <g transform="translate(182 444.99202)scale(0.2 -0.2)">
      <use transform="scale(0.996264)" xlink:href="#CMMI12-73"/>
      <use transform="translate(43.024176 -17.925121)scale(0.697382)" xlink:href="#CMR17-40"/>
      <use transform="translate(67.720596 -17.925121)scale(0.697382)" xlink:href="#CMSY10-0"/>
      <use transform="translate(121.961589 -17.925121)scale(0.697382)" xlink:href="#CMR17-49"/>
      <use transform="translate(153.944771 -17.925121)scale(0.697382)" xlink:href="#CMMI12-59"/>
      <use transform="translate(172.912704 -17.925121)scale(0.697382)" xlink:href="#CMR17-49"/>
      <use transform="translate(204.895886 -17.925121)scale(0.697382)" xlink:href="#CMR17-41"/>
     </g>
    </g>
    <g id="line2d_66">
     <path d="M 126 470.273397 
L 166 470.273397 
" style="fill:none;stroke:#7ecca5;stroke-linecap:square;stroke-width:2;"/>
    </g>
    <g id="line2d_67"/>
    <g id="text_27">
     <!-- $I_{(0,1)}$ -->
     <g transform="translate(182 477.273397)scale(0.2 -0.2)">
      <use transform="scale(0.996264)" xlink:href="#CMMI12-73"/>
      <use transform="translate(43.024176 -17.925121)scale(0.697382)" xlink:href="#CMR17-40"/>
      <use transform="translate(67.720596 -17.925121)scale(0.697382)" xlink:href="#CMR17-48"/>
      <use transform="translate(99.703778 -17.925121)scale(0.697382)" xlink:href="#CMMI12-59"/>
      <use transform="translate(118.671711 -17.925121)scale(0.697382)" xlink:href="#CMR17-49"/>
      <use transform="translate(150.654893 -17.925121)scale(0.697382)" xlink:href="#CMR17-41"/>
     </g>
    </g>
    <g id="line2d_68">
     <path d="M 126 502.554774 
L 166 502.554774 
" style="fill:none;stroke:#5ab4ab;stroke-linecap:square;stroke-width:2;"/>
    </g>
    <g id="line2d_69"/>
    <g id="text_28">
     <!-- $I_{(1,1)}$ -->
     <g transform="translate(182 509.554774)scale(0.2 -0.2)">
      <use transform="scale(0.996264)" xlink:href="#CMMI12-73"/>
      <use transform="translate(43.024176 -17.925121)scale(0.697382)" xlink:href="#CMR17-40"/>
      <use transform="translate(67.720596 -17.925121)scale(0.697382)" xlink:href="#CMR17-49"/>
      <use transform="translate(99.703778 -17.925121)scale(0.697382)" xlink:href="#CMMI12-59"/>
      <use transform="translate(118.671711 -17.925121)scale(0.697382)" xlink:href="#CMR17-49"/>
      <use transform="translate(150.654893 -17.925121)scale(0.697382)" xlink:href="#CMR17-41"/>
     </g>
    </g>
    <g id="line2d_70">
     <path d="M 126 534.836151 
L 166 534.836151 
" style="fill:none;stroke:#3b92b9;stroke-linecap:square;stroke-width:2;"/>
    </g>
    <g id="line2d_71"/>
    <g id="text_29">
     <!-- $I_{(-2,2)}$ -->
     <g transform="translate(182 541.836151)scale(0.2 -0.2)">
      <use transform="scale(0.996264)" xlink:href="#CMMI12-73"/>
      <use transform="translate(43.024176 -17.925121)scale(0.697382)" xlink:href="#CMR17-40"/>
      <use transform="translate(67.720596 -17.925121)scale(0.697382)" xlink:href="#CMSY10-0"/>
      <use transform="translate(121.961589 -17.925121)scale(0.697382)" xlink:href="#CMR17-50"/>
      <use transform="translate(153.944771 -17.925121)scale(0.697382)" xlink:href="#CMMI12-59"/>
      <use transform="translate(172.912704 -17.925121)scale(0.697382)" xlink:href="#CMR17-50"/>
      <use transform="translate(204.895886 -17.925121)scale(0.697382)" xlink:href="#CMR17-41"/>
     </g>
    </g>
    <g id="line2d_72">
     <path d="M 126 567.117528 
L 166 567.117528 
" style="fill:none;stroke:#4471b2;stroke-linecap:square;stroke-width:2;"/>
    </g>
    <g id="line2d_73"/>
    <g id="text_30">
     <!-- $I_{(-1,2)}$ -->
     <g transform="translate(182 574.117528)scale(0.2 -0.2)">
      <use transform="scale(0.996264)" xlink:href="#CMMI12-73"/>
      <use transform="translate(43.024176 -17.925121)scale(0.697382)" xlink:href="#CMR17-40"/>
      <use transform="translate(67.720596 -17.925121)scale(0.697382)" xlink:href="#CMSY10-0"/>
      <use transform="translate(121.961589 -17.925121)scale(0.697382)" xlink:href="#CMR17-49"/>
      <use transform="translate(153.944771 -17.925121)scale(0.697382)" xlink:href="#CMMI12-59"/>
      <use transform="translate(172.912704 -17.925121)scale(0.697382)" xlink:href="#CMR17-50"/>
      <use transform="translate(204.895886 -17.925121)scale(0.697382)" xlink:href="#CMR17-41"/>
     </g>
    </g>
    <g id="line2d_74">
     <path d="M 126 599.398904 
L 166 599.398904 
" style="fill:none;stroke:#5e4fa2;stroke-linecap:square;stroke-width:2;"/>
    </g>
    <g id="line2d_75"/>
    <g id="text_31">
     <!-- $I_{(0,2)}$ -->
     <g transform="translate(182 606.398904)scale(0.2 -0.2)">
      <use transform="scale(0.996264)" xlink:href="#CMMI12-73"/>
      <use transform="translate(43.024176 -17.925121)scale(0.697382)" xlink:href="#CMR17-40"/>
      <use transform="translate(67.720596 -17.925121)scale(0.697382)" xlink:href="#CMR17-48"/>
      <use transform="translate(99.703778 -17.925121)scale(0.697382)" xlink:href="#CMMI12-59"/>
      <use transform="translate(118.671711 -17.925121)scale(0.697382)" xlink:href="#CMR17-50"/>
      <use transform="translate(150.654893 -17.925121)scale(0.697382)" xlink:href="#CMR17-41"/>
     </g>
    </g>
   </g>
  </g>
 </g>
 <defs>
  <clipPath id="pfb43015573">
   <rect height="664.2" width="590.4" x="108" y="56.7"/>
  </clipPath>
 </defs>
</svg>
