<?xml version="1.0" encoding="utf-8" standalone="no"?>
<!DOCTYPE svg PUBLIC "-//W3C//DTD SVG 1.1//EN"
  "http://www.w3.org/Graphics/SVG/1.1/DTD/svg11.dtd">
<!-- Created with matplotlib (https://matplotlib.org/) -->
<svg height="810pt" version="1.1" viewBox="0 0 720 810" width="720pt" xmlns="http://www.w3.org/2000/svg" xmlns:xlink="http://www.w3.org/1999/xlink">
 <metadata>
  <rdf:RDF xmlns:cc="http://creativecommons.org/ns#" xmlns:dc="http://purl.org/dc/elements/1.1/" xmlns:rdf="http://www.w3.org/1999/02/22-rdf-syntax-ns#">
   <cc:Work>
    <dc:type rdf:resource="http://purl.org/dc/dcmitype/StillImage"/>
    <dc:date>2021-09-15T21:33:10.583972</dc:date>
    <dc:format>image/svg+xml</dc:format>
    <dc:creator>
     <cc:Agent>
      <dc:title>Matplotlib v3.3.1, https://matplotlib.org/</dc:title>
     </cc:Agent>
    </dc:creator>
   </cc:Work>
  </rdf:RDF>
 </metadata>
 <defs>
  <style type="text/css">*{stroke-linecap:butt;stroke-linejoin:round;}</style>
 </defs>
 <g id="figure_1">
  <g id="patch_1">
   <path d="M 0 810 
L 720 810 
L 720 0 
L 0 0 
z
" style="fill:#ffffff;"/>
  </g>
  <g id="axes_1">
   <g id="patch_2">
    <path d="M 108 720.9 
L 698.4 720.9 
L 698.4 56.7 
L 108 56.7 
z
" style="fill:#ffffff;"/>
   </g>
   <g id="matplotlib.axis_1">
    <g id="xtick_1">
     <g id="line2d_1">
      <path clip-path="url(#p0146013456)" d="M 159.233058 720.9 
L 159.233058 56.7 
" style="fill:none;stroke:#e6e6e6;stroke-linecap:square;stroke-width:0.8;"/>
     </g>
     <g id="line2d_2">
      <defs>
       <path d="M 0 0 
L 0 3.5 
" id="m170d271cd5" style="stroke:#000000;stroke-width:0.8;"/>
      </defs>
      <g>
       <use style="stroke:#000000;stroke-width:0.8;" x="159.233058" xlink:href="#m170d271cd5" y="720.9"/>
      </g>
     </g>
     <g id="text_1">
      <!-- 0 -->
      <g transform="translate(154.461183 739.297656)scale(0.15 -0.15)">
       <defs>
        <path d="M 31.78125 66.40625 
Q 24.171875 66.40625 20.328125 58.90625 
Q 16.5 51.421875 16.5 36.375 
Q 16.5 21.390625 20.328125 13.890625 
Q 24.171875 6.390625 31.78125 6.390625 
Q 39.453125 6.390625 43.28125 13.890625 
Q 47.125 21.390625 47.125 36.375 
Q 47.125 51.421875 43.28125 58.90625 
Q 39.453125 66.40625 31.78125 66.40625 
z
M 31.78125 74.21875 
Q 44.046875 74.21875 50.515625 64.515625 
Q 56.984375 54.828125 56.984375 36.375 
Q 56.984375 17.96875 50.515625 8.265625 
Q 44.046875 -1.421875 31.78125 -1.421875 
Q 19.53125 -1.421875 13.0625 8.265625 
Q 6.59375 17.96875 6.59375 36.375 
Q 6.59375 54.828125 13.0625 64.515625 
Q 19.53125 74.21875 31.78125 74.21875 
z
" id="DejaVuSans-48"/>
       </defs>
       <use xlink:href="#DejaVuSans-48"/>
      </g>
     </g>
    </g>
    <g id="xtick_2">
     <g id="line2d_3">
      <path clip-path="url(#p0146013456)" d="M 233.00519 720.9 
L 233.00519 56.7 
" style="fill:none;stroke:#e6e6e6;stroke-linecap:square;stroke-width:0.8;"/>
     </g>
     <g id="line2d_4">
      <g>
       <use style="stroke:#000000;stroke-width:0.8;" x="233.00519" xlink:href="#m170d271cd5" y="720.9"/>
      </g>
     </g>
     <g id="text_2">
      <!-- 5 -->
      <g transform="translate(228.233315 739.297656)scale(0.15 -0.15)">
       <defs>
        <path d="M 10.796875 72.90625 
L 49.515625 72.90625 
L 49.515625 64.59375 
L 19.828125 64.59375 
L 19.828125 46.734375 
Q 21.96875 47.46875 24.109375 47.828125 
Q 26.265625 48.1875 28.421875 48.1875 
Q 40.625 48.1875 47.75 41.5 
Q 54.890625 34.8125 54.890625 23.390625 
Q 54.890625 11.625 47.5625 5.09375 
Q 40.234375 -1.421875 26.90625 -1.421875 
Q 22.3125 -1.421875 17.546875 -0.640625 
Q 12.796875 0.140625 7.71875 1.703125 
L 7.71875 11.625 
Q 12.109375 9.234375 16.796875 8.0625 
Q 21.484375 6.890625 26.703125 6.890625 
Q 35.15625 6.890625 40.078125 11.328125 
Q 45.015625 15.765625 45.015625 23.390625 
Q 45.015625 31 40.078125 35.4375 
Q 35.15625 39.890625 26.703125 39.890625 
Q 22.75 39.890625 18.8125 39.015625 
Q 14.890625 38.140625 10.796875 36.28125 
z
" id="DejaVuSans-53"/>
       </defs>
       <use xlink:href="#DejaVuSans-53"/>
      </g>
     </g>
    </g>
    <g id="xtick_3">
     <g id="line2d_5">
      <path clip-path="url(#p0146013456)" d="M 306.777323 720.9 
L 306.777323 56.7 
" style="fill:none;stroke:#e6e6e6;stroke-linecap:square;stroke-width:0.8;"/>
     </g>
     <g id="line2d_6">
      <g>
       <use style="stroke:#000000;stroke-width:0.8;" x="306.777323" xlink:href="#m170d271cd5" y="720.9"/>
      </g>
     </g>
     <g id="text_3">
      <!-- 10 -->
      <g transform="translate(297.233573 739.297656)scale(0.15 -0.15)">
       <defs>
        <path d="M 12.40625 8.296875 
L 28.515625 8.296875 
L 28.515625 63.921875 
L 10.984375 60.40625 
L 10.984375 69.390625 
L 28.421875 72.90625 
L 38.28125 72.90625 
L 38.28125 8.296875 
L 54.390625 8.296875 
L 54.390625 0 
L 12.40625 0 
z
" id="DejaVuSans-49"/>
       </defs>
       <use xlink:href="#DejaVuSans-49"/>
       <use x="63.623047" xlink:href="#DejaVuSans-48"/>
      </g>
     </g>
    </g>
    <g id="xtick_4">
     <g id="line2d_7">
      <path clip-path="url(#p0146013456)" d="M 380.549456 720.9 
L 380.549456 56.7 
" style="fill:none;stroke:#e6e6e6;stroke-linecap:square;stroke-width:0.8;"/>
     </g>
     <g id="line2d_8">
      <g>
       <use style="stroke:#000000;stroke-width:0.8;" x="380.549456" xlink:href="#m170d271cd5" y="720.9"/>
      </g>
     </g>
     <g id="text_4">
      <!-- 15 -->
      <g transform="translate(371.005706 739.297656)scale(0.15 -0.15)">
       <use xlink:href="#DejaVuSans-49"/>
       <use x="63.623047" xlink:href="#DejaVuSans-53"/>
      </g>
     </g>
    </g>
    <g id="xtick_5">
     <g id="line2d_9">
      <path clip-path="url(#p0146013456)" d="M 454.321588 720.9 
L 454.321588 56.7 
" style="fill:none;stroke:#e6e6e6;stroke-linecap:square;stroke-width:0.8;"/>
     </g>
     <g id="line2d_10">
      <g>
       <use style="stroke:#000000;stroke-width:0.8;" x="454.321588" xlink:href="#m170d271cd5" y="720.9"/>
      </g>
     </g>
     <g id="text_5">
      <!-- 20 -->
      <g transform="translate(444.777838 739.297656)scale(0.15 -0.15)">
       <defs>
        <path d="M 19.1875 8.296875 
L 53.609375 8.296875 
L 53.609375 0 
L 7.328125 0 
L 7.328125 8.296875 
Q 12.9375 14.109375 22.625 23.890625 
Q 32.328125 33.6875 34.8125 36.53125 
Q 39.546875 41.84375 41.421875 45.53125 
Q 43.3125 49.21875 43.3125 52.78125 
Q 43.3125 58.59375 39.234375 62.25 
Q 35.15625 65.921875 28.609375 65.921875 
Q 23.96875 65.921875 18.8125 64.3125 
Q 13.671875 62.703125 7.8125 59.421875 
L 7.8125 69.390625 
Q 13.765625 71.78125 18.9375 73 
Q 24.125 74.21875 28.421875 74.21875 
Q 39.75 74.21875 46.484375 68.546875 
Q 53.21875 62.890625 53.21875 53.421875 
Q 53.21875 48.921875 51.53125 44.890625 
Q 49.859375 40.875 45.40625 35.40625 
Q 44.1875 33.984375 37.640625 27.21875 
Q 31.109375 20.453125 19.1875 8.296875 
z
" id="DejaVuSans-50"/>
       </defs>
       <use xlink:href="#DejaVuSans-50"/>
       <use x="63.623047" xlink:href="#DejaVuSans-48"/>
      </g>
     </g>
    </g>
    <g id="xtick_6">
     <g id="line2d_11">
      <path clip-path="url(#p0146013456)" d="M 528.093721 720.9 
L 528.093721 56.7 
" style="fill:none;stroke:#e6e6e6;stroke-linecap:square;stroke-width:0.8;"/>
     </g>
     <g id="line2d_12">
      <g>
       <use style="stroke:#000000;stroke-width:0.8;" x="528.093721" xlink:href="#m170d271cd5" y="720.9"/>
      </g>
     </g>
     <g id="text_6">
      <!-- 25 -->
      <g transform="translate(518.549971 739.297656)scale(0.15 -0.15)">
       <use xlink:href="#DejaVuSans-50"/>
       <use x="63.623047" xlink:href="#DejaVuSans-53"/>
      </g>
     </g>
    </g>
    <g id="xtick_7">
     <g id="line2d_13">
      <path clip-path="url(#p0146013456)" d="M 601.865853 720.9 
L 601.865853 56.7 
" style="fill:none;stroke:#e6e6e6;stroke-linecap:square;stroke-width:0.8;"/>
     </g>
     <g id="line2d_14">
      <g>
       <use style="stroke:#000000;stroke-width:0.8;" x="601.865853" xlink:href="#m170d271cd5" y="720.9"/>
      </g>
     </g>
     <g id="text_7">
      <!-- 30 -->
      <g transform="translate(592.322103 739.297656)scale(0.15 -0.15)">
       <defs>
        <path d="M 40.578125 39.3125 
Q 47.65625 37.796875 51.625 33 
Q 55.609375 28.21875 55.609375 21.1875 
Q 55.609375 10.40625 48.1875 4.484375 
Q 40.765625 -1.421875 27.09375 -1.421875 
Q 22.515625 -1.421875 17.65625 -0.515625 
Q 12.796875 0.390625 7.625 2.203125 
L 7.625 11.71875 
Q 11.71875 9.328125 16.59375 8.109375 
Q 21.484375 6.890625 26.8125 6.890625 
Q 36.078125 6.890625 40.9375 10.546875 
Q 45.796875 14.203125 45.796875 21.1875 
Q 45.796875 27.640625 41.28125 31.265625 
Q 36.765625 34.90625 28.71875 34.90625 
L 20.21875 34.90625 
L 20.21875 43.015625 
L 29.109375 43.015625 
Q 36.375 43.015625 40.234375 45.921875 
Q 44.09375 48.828125 44.09375 54.296875 
Q 44.09375 59.90625 40.109375 62.90625 
Q 36.140625 65.921875 28.71875 65.921875 
Q 24.65625 65.921875 20.015625 65.03125 
Q 15.375 64.15625 9.8125 62.3125 
L 9.8125 71.09375 
Q 15.4375 72.65625 20.34375 73.4375 
Q 25.25 74.21875 29.59375 74.21875 
Q 40.828125 74.21875 47.359375 69.109375 
Q 53.90625 64.015625 53.90625 55.328125 
Q 53.90625 49.265625 50.4375 45.09375 
Q 46.96875 40.921875 40.578125 39.3125 
z
" id="DejaVuSans-51"/>
       </defs>
       <use xlink:href="#DejaVuSans-51"/>
       <use x="63.623047" xlink:href="#DejaVuSans-48"/>
      </g>
     </g>
    </g>
    <g id="xtick_8">
     <g id="line2d_15">
      <path clip-path="url(#p0146013456)" d="M 675.637986 720.9 
L 675.637986 56.7 
" style="fill:none;stroke:#e6e6e6;stroke-linecap:square;stroke-width:0.8;"/>
     </g>
     <g id="line2d_16">
      <g>
       <use style="stroke:#000000;stroke-width:0.8;" x="675.637986" xlink:href="#m170d271cd5" y="720.9"/>
      </g>
     </g>
     <g id="text_8">
      <!-- 35 -->
      <g transform="translate(666.094236 739.297656)scale(0.15 -0.15)">
       <use xlink:href="#DejaVuSans-51"/>
       <use x="63.623047" xlink:href="#DejaVuSans-53"/>
      </g>
     </g>
    </g>
    <g id="text_9">
     <!-- $k/k_0(k_0=2\pi/a)$ -->
     <g transform="translate(312.95 765.413281)scale(0.25 -0.25)">
      <defs>
       <path d="M 18.3125 75.984375 
L 27.296875 75.984375 
L 18.703125 31.6875 
L 49.515625 54.6875 
L 61.1875 54.6875 
L 26.8125 28.515625 
L 51.90625 0 
L 41.015625 0 
L 17.671875 26.703125 
L 12.5 0 
L 3.515625 0 
z
" id="DejaVuSans-Oblique-107"/>
       <path d="M 25.390625 72.90625 
L 33.6875 72.90625 
L 8.296875 -9.28125 
L 0 -9.28125 
z
" id="DejaVuSans-47"/>
       <path d="M 31 75.875 
Q 24.46875 64.65625 21.28125 53.65625 
Q 18.109375 42.671875 18.109375 31.390625 
Q 18.109375 20.125 21.3125 9.0625 
Q 24.515625 -2 31 -13.1875 
L 23.1875 -13.1875 
Q 15.875 -1.703125 12.234375 9.375 
Q 8.59375 20.453125 8.59375 31.390625 
Q 8.59375 42.28125 12.203125 53.3125 
Q 15.828125 64.359375 23.1875 75.875 
z
" id="DejaVuSans-40"/>
       <path d="M 10.59375 45.40625 
L 73.1875 45.40625 
L 73.1875 37.203125 
L 10.59375 37.203125 
z
M 10.59375 25.484375 
L 73.1875 25.484375 
L 73.1875 17.1875 
L 10.59375 17.1875 
z
" id="DejaVuSans-61"/>
       <path d="M 9.125 54.6875 
L 61.53125 54.6875 
L 59.765625 45.703125 
L 52.875 45.703125 
L 46.34375 12.109375 
Q 45.65625 8.59375 46.578125 7.03125 
Q 47.46875 5.515625 50.140625 5.515625 
Q 50.875 5.515625 51.953125 5.671875 
Q 53.078125 5.765625 53.421875 5.8125 
L 52.15625 -0.6875 
Q 50.34375 -1.3125 48.484375 -1.609375 
Q 46.578125 -1.90625 44.78125 -1.90625 
Q 38.921875 -1.90625 37.3125 1.265625 
Q 35.6875 4.5 37.359375 13.09375 
L 43.703125 45.703125 
L 23.53125 45.703125 
L 14.65625 0 
L 5.46875 0 
L 14.359375 45.703125 
L 7.375 45.703125 
z
" id="DejaVuSans-Oblique-960"/>
       <path d="M 53.71875 31.203125 
L 47.609375 0 
L 38.625 0 
L 40.28125 8.296875 
Q 36.328125 3.421875 31.265625 1 
Q 26.21875 -1.421875 20.015625 -1.421875 
Q 13.03125 -1.421875 8.5625 2.84375 
Q 4.109375 7.125 4.109375 13.8125 
Q 4.109375 23.390625 11.75 28.953125 
Q 19.390625 34.515625 32.8125 34.515625 
L 45.3125 34.515625 
L 45.796875 36.921875 
Q 45.90625 37.3125 45.953125 37.765625 
Q 46 38.234375 46 39.203125 
Q 46 43.5625 42.453125 45.96875 
Q 38.921875 48.390625 32.515625 48.390625 
Q 28.125 48.390625 23.5 47.265625 
Q 18.890625 46.140625 14.015625 43.890625 
L 15.578125 52.203125 
Q 20.65625 54.109375 25.515625 55.046875 
Q 30.375 56 34.90625 56 
Q 44.578125 56 49.625 51.796875 
Q 54.6875 47.609375 54.6875 39.59375 
Q 54.6875 37.984375 54.4375 35.8125 
Q 54.203125 33.640625 53.71875 31.203125 
z
M 44 27.484375 
L 35.015625 27.484375 
Q 23.96875 27.484375 18.671875 24.53125 
Q 13.375 21.578125 13.375 15.375 
Q 13.375 11.078125 16.078125 8.640625 
Q 18.796875 6.203125 23.578125 6.203125 
Q 30.90625 6.203125 36.375 11.453125 
Q 41.84375 16.703125 43.609375 25.484375 
z
" id="DejaVuSans-Oblique-97"/>
       <path d="M 8.015625 75.875 
L 15.828125 75.875 
Q 23.140625 64.359375 26.78125 53.3125 
Q 30.421875 42.28125 30.421875 31.390625 
Q 30.421875 20.453125 26.78125 9.375 
Q 23.140625 -1.703125 15.828125 -13.1875 
L 8.015625 -13.1875 
Q 14.5 -2 17.703125 9.0625 
Q 20.90625 20.125 20.90625 31.390625 
Q 20.90625 42.671875 17.703125 53.65625 
Q 14.5 64.65625 8.015625 75.875 
z
" id="DejaVuSans-41"/>
      </defs>
      <use transform="translate(0 0.015625)" xlink:href="#DejaVuSans-Oblique-107"/>
      <use transform="translate(57.910156 0.015625)" xlink:href="#DejaVuSans-47"/>
      <use transform="translate(91.601562 0.015625)" xlink:href="#DejaVuSans-Oblique-107"/>
      <use transform="translate(149.511719 -16.390625)scale(0.7)" xlink:href="#DejaVuSans-48"/>
      <use transform="translate(196.782227 0.015625)" xlink:href="#DejaVuSans-40"/>
      <use transform="translate(235.795898 0.015625)" xlink:href="#DejaVuSans-Oblique-107"/>
      <use transform="translate(293.706055 -16.390625)scale(0.7)" xlink:href="#DejaVuSans-48"/>
      <use transform="translate(360.458984 0.015625)" xlink:href="#DejaVuSans-61"/>
      <use transform="translate(463.730469 0.015625)" xlink:href="#DejaVuSans-50"/>
      <use transform="translate(527.353516 0.015625)" xlink:href="#DejaVuSans-Oblique-960"/>
      <use transform="translate(587.558594 0.015625)" xlink:href="#DejaVuSans-47"/>
      <use transform="translate(621.25 0.015625)" xlink:href="#DejaVuSans-Oblique-97"/>
      <use transform="translate(682.529297 0.015625)" xlink:href="#DejaVuSans-41"/>
     </g>
    </g>
   </g>
   <g id="matplotlib.axis_2">
    <g id="ytick_1">
     <g id="line2d_17">
      <path clip-path="url(#p0146013456)" d="M 108 644.549437 
L 698.4 644.549437 
" style="fill:none;stroke:#e6e6e6;stroke-linecap:square;stroke-width:0.8;"/>
     </g>
     <g id="line2d_18">
      <defs>
       <path d="M 0 0 
L -3.5 0 
" id="m4e72b4920c" style="stroke:#000000;stroke-width:0.8;"/>
      </defs>
      <g>
       <use style="stroke:#000000;stroke-width:0.8;" x="108" xlink:href="#m4e72b4920c" y="644.549437"/>
      </g>
     </g>
     <g id="text_10">
      <!-- −1.0 -->
      <g transform="translate(64.575781 650.248265)scale(0.15 -0.15)">
       <defs>
        <path d="M 10.59375 35.5 
L 73.1875 35.5 
L 73.1875 27.203125 
L 10.59375 27.203125 
z
" id="DejaVuSans-8722"/>
        <path d="M 10.6875 12.40625 
L 21 12.40625 
L 21 0 
L 10.6875 0 
z
" id="DejaVuSans-46"/>
       </defs>
       <use xlink:href="#DejaVuSans-8722"/>
       <use x="83.789062" xlink:href="#DejaVuSans-49"/>
       <use x="147.412109" xlink:href="#DejaVuSans-46"/>
       <use x="179.199219" xlink:href="#DejaVuSans-48"/>
      </g>
     </g>
    </g>
    <g id="ytick_2">
     <g id="line2d_19">
      <path clip-path="url(#p0146013456)" d="M 108 548.583419 
L 698.4 548.583419 
" style="fill:none;stroke:#e6e6e6;stroke-linecap:square;stroke-width:0.8;"/>
     </g>
     <g id="line2d_20">
      <g>
       <use style="stroke:#000000;stroke-width:0.8;" x="108" xlink:href="#m4e72b4920c" y="548.583419"/>
      </g>
     </g>
     <g id="text_11">
      <!-- −0.8 -->
      <g transform="translate(64.575781 554.282247)scale(0.15 -0.15)">
       <defs>
        <path d="M 31.78125 34.625 
Q 24.75 34.625 20.71875 30.859375 
Q 16.703125 27.09375 16.703125 20.515625 
Q 16.703125 13.921875 20.71875 10.15625 
Q 24.75 6.390625 31.78125 6.390625 
Q 38.8125 6.390625 42.859375 10.171875 
Q 46.921875 13.96875 46.921875 20.515625 
Q 46.921875 27.09375 42.890625 30.859375 
Q 38.875 34.625 31.78125 34.625 
z
M 21.921875 38.8125 
Q 15.578125 40.375 12.03125 44.71875 
Q 8.5 49.078125 8.5 55.328125 
Q 8.5 64.0625 14.71875 69.140625 
Q 20.953125 74.21875 31.78125 74.21875 
Q 42.671875 74.21875 48.875 69.140625 
Q 55.078125 64.0625 55.078125 55.328125 
Q 55.078125 49.078125 51.53125 44.71875 
Q 48 40.375 41.703125 38.8125 
Q 48.828125 37.15625 52.796875 32.3125 
Q 56.78125 27.484375 56.78125 20.515625 
Q 56.78125 9.90625 50.3125 4.234375 
Q 43.84375 -1.421875 31.78125 -1.421875 
Q 19.734375 -1.421875 13.25 4.234375 
Q 6.78125 9.90625 6.78125 20.515625 
Q 6.78125 27.484375 10.78125 32.3125 
Q 14.796875 37.15625 21.921875 38.8125 
z
M 18.3125 54.390625 
Q 18.3125 48.734375 21.84375 45.5625 
Q 25.390625 42.390625 31.78125 42.390625 
Q 38.140625 42.390625 41.71875 45.5625 
Q 45.3125 48.734375 45.3125 54.390625 
Q 45.3125 60.0625 41.71875 63.234375 
Q 38.140625 66.40625 31.78125 66.40625 
Q 25.390625 66.40625 21.84375 63.234375 
Q 18.3125 60.0625 18.3125 54.390625 
z
" id="DejaVuSans-56"/>
       </defs>
       <use xlink:href="#DejaVuSans-8722"/>
       <use x="83.789062" xlink:href="#DejaVuSans-48"/>
       <use x="147.412109" xlink:href="#DejaVuSans-46"/>
       <use x="179.199219" xlink:href="#DejaVuSans-56"/>
      </g>
     </g>
    </g>
    <g id="ytick_3">
     <g id="line2d_21">
      <path clip-path="url(#p0146013456)" d="M 108 452.617402 
L 698.4 452.617402 
" style="fill:none;stroke:#e6e6e6;stroke-linecap:square;stroke-width:0.8;"/>
     </g>
     <g id="line2d_22">
      <g>
       <use style="stroke:#000000;stroke-width:0.8;" x="108" xlink:href="#m4e72b4920c" y="452.617402"/>
      </g>
     </g>
     <g id="text_12">
      <!-- −0.6 -->
      <g transform="translate(64.575781 458.31623)scale(0.15 -0.15)">
       <defs>
        <path d="M 33.015625 40.375 
Q 26.375 40.375 22.484375 35.828125 
Q 18.609375 31.296875 18.609375 23.390625 
Q 18.609375 15.53125 22.484375 10.953125 
Q 26.375 6.390625 33.015625 6.390625 
Q 39.65625 6.390625 43.53125 10.953125 
Q 47.40625 15.53125 47.40625 23.390625 
Q 47.40625 31.296875 43.53125 35.828125 
Q 39.65625 40.375 33.015625 40.375 
z
M 52.59375 71.296875 
L 52.59375 62.3125 
Q 48.875 64.0625 45.09375 64.984375 
Q 41.3125 65.921875 37.59375 65.921875 
Q 27.828125 65.921875 22.671875 59.328125 
Q 17.53125 52.734375 16.796875 39.40625 
Q 19.671875 43.65625 24.015625 45.921875 
Q 28.375 48.1875 33.59375 48.1875 
Q 44.578125 48.1875 50.953125 41.515625 
Q 57.328125 34.859375 57.328125 23.390625 
Q 57.328125 12.15625 50.6875 5.359375 
Q 44.046875 -1.421875 33.015625 -1.421875 
Q 20.359375 -1.421875 13.671875 8.265625 
Q 6.984375 17.96875 6.984375 36.375 
Q 6.984375 53.65625 15.1875 63.9375 
Q 23.390625 74.21875 37.203125 74.21875 
Q 40.921875 74.21875 44.703125 73.484375 
Q 48.484375 72.75 52.59375 71.296875 
z
" id="DejaVuSans-54"/>
       </defs>
       <use xlink:href="#DejaVuSans-8722"/>
       <use x="83.789062" xlink:href="#DejaVuSans-48"/>
       <use x="147.412109" xlink:href="#DejaVuSans-46"/>
       <use x="179.199219" xlink:href="#DejaVuSans-54"/>
      </g>
     </g>
    </g>
    <g id="ytick_4">
     <g id="line2d_23">
      <path clip-path="url(#p0146013456)" d="M 108 356.651384 
L 698.4 356.651384 
" style="fill:none;stroke:#e6e6e6;stroke-linecap:square;stroke-width:0.8;"/>
     </g>
     <g id="line2d_24">
      <g>
       <use style="stroke:#000000;stroke-width:0.8;" x="108" xlink:href="#m4e72b4920c" y="356.651384"/>
      </g>
     </g>
     <g id="text_13">
      <!-- −0.4 -->
      <g transform="translate(64.575781 362.350212)scale(0.15 -0.15)">
       <defs>
        <path d="M 37.796875 64.3125 
L 12.890625 25.390625 
L 37.796875 25.390625 
z
M 35.203125 72.90625 
L 47.609375 72.90625 
L 47.609375 25.390625 
L 58.015625 25.390625 
L 58.015625 17.1875 
L 47.609375 17.1875 
L 47.609375 0 
L 37.796875 0 
L 37.796875 17.1875 
L 4.890625 17.1875 
L 4.890625 26.703125 
z
" id="DejaVuSans-52"/>
       </defs>
       <use xlink:href="#DejaVuSans-8722"/>
       <use x="83.789062" xlink:href="#DejaVuSans-48"/>
       <use x="147.412109" xlink:href="#DejaVuSans-46"/>
       <use x="179.199219" xlink:href="#DejaVuSans-52"/>
      </g>
     </g>
    </g>
    <g id="ytick_5">
     <g id="line2d_25">
      <path clip-path="url(#p0146013456)" d="M 108 260.685367 
L 698.4 260.685367 
" style="fill:none;stroke:#e6e6e6;stroke-linecap:square;stroke-width:0.8;"/>
     </g>
     <g id="line2d_26">
      <g>
       <use style="stroke:#000000;stroke-width:0.8;" x="108" xlink:href="#m4e72b4920c" y="260.685367"/>
      </g>
     </g>
     <g id="text_14">
      <!-- −0.2 -->
      <g transform="translate(64.575781 266.384195)scale(0.15 -0.15)">
       <use xlink:href="#DejaVuSans-8722"/>
       <use x="83.789062" xlink:href="#DejaVuSans-48"/>
       <use x="147.412109" xlink:href="#DejaVuSans-46"/>
       <use x="179.199219" xlink:href="#DejaVuSans-50"/>
      </g>
     </g>
    </g>
    <g id="ytick_6">
     <g id="line2d_27">
      <path clip-path="url(#p0146013456)" d="M 108 164.719349 
L 698.4 164.719349 
" style="fill:none;stroke:#e6e6e6;stroke-linecap:square;stroke-width:0.8;"/>
     </g>
     <g id="line2d_28">
      <g>
       <use style="stroke:#000000;stroke-width:0.8;" x="108" xlink:href="#m4e72b4920c" y="164.719349"/>
      </g>
     </g>
     <g id="text_15">
      <!-- 0.0 -->
      <g transform="translate(77.145313 170.418177)scale(0.15 -0.15)">
       <use xlink:href="#DejaVuSans-48"/>
       <use x="63.623047" xlink:href="#DejaVuSans-46"/>
       <use x="95.410156" xlink:href="#DejaVuSans-48"/>
      </g>
     </g>
    </g>
    <g id="ytick_7">
     <g id="line2d_29">
      <path clip-path="url(#p0146013456)" d="M 108 68.753332 
L 698.4 68.753332 
" style="fill:none;stroke:#e6e6e6;stroke-linecap:square;stroke-width:0.8;"/>
     </g>
     <g id="line2d_30">
      <g>
       <use style="stroke:#000000;stroke-width:0.8;" x="108" xlink:href="#m4e72b4920c" y="68.753332"/>
      </g>
     </g>
     <g id="text_16">
      <!-- 0.2 -->
      <g transform="translate(77.145313 74.45216)scale(0.15 -0.15)">
       <use xlink:href="#DejaVuSans-48"/>
       <use x="63.623047" xlink:href="#DejaVuSans-46"/>
       <use x="95.410156" xlink:href="#DejaVuSans-50"/>
      </g>
     </g>
    </g>
    <g id="text_17">
     <!-- $E(Ry)$ -->
     <g transform="translate(55.325781 422.55)rotate(-90)scale(0.25 -0.25)">
      <defs>
       <path d="M 16.890625 72.90625 
L 62.984375 72.90625 
L 61.375 64.59375 
L 25.09375 64.59375 
L 20.90625 43.015625 
L 55.71875 43.015625 
L 54.109375 34.71875 
L 19.28125 34.71875 
L 14.203125 8.296875 
L 51.3125 8.296875 
L 49.703125 0 
L 2.6875 0 
z
" id="DejaVuSans-Oblique-69"/>
       <path d="M 25.203125 64.796875 
L 20.21875 38.921875 
L 32.90625 38.921875 
Q 40.375 38.921875 44.984375 43.046875 
Q 49.609375 47.171875 49.609375 53.8125 
Q 49.609375 59.125 46.5 61.953125 
Q 43.40625 64.796875 37.59375 64.796875 
z
M 43.3125 35.015625 
Q 46.4375 34.28125 48.515625 31.390625 
Q 50.59375 28.515625 53.328125 19.921875 
L 59.515625 0 
L 49.125 0 
L 43.40625 18.703125 
Q 41.21875 25.921875 38.328125 28.359375 
Q 35.453125 30.8125 29.5 30.8125 
L 18.609375 30.8125 
L 12.59375 0 
L 2.6875 0 
L 16.890625 72.90625 
L 39.109375 72.90625 
Q 49.21875 72.90625 54.609375 68.328125 
Q 60.015625 63.765625 60.015625 55.171875 
Q 60.015625 47.5625 55.421875 41.984375 
Q 50.828125 36.421875 43.3125 35.015625 
z
" id="DejaVuSans-Oblique-82"/>
       <path d="M 24.8125 -5.078125 
Q 18.5625 -15.578125 14.625 -18.1875 
Q 10.6875 -20.796875 4.59375 -20.796875 
L -2.484375 -20.796875 
L -0.984375 -13.28125 
L 4.203125 -13.28125 
Q 7.953125 -13.28125 10.59375 -11.234375 
Q 13.234375 -9.1875 16.5 -3.21875 
L 19.28125 2 
L 7.171875 54.6875 
L 16.703125 54.6875 
L 25.78125 12.796875 
L 50.875 54.6875 
L 60.296875 54.6875 
z
" id="DejaVuSans-Oblique-121"/>
      </defs>
      <use transform="translate(0 0.125)" xlink:href="#DejaVuSans-Oblique-69"/>
      <use transform="translate(63.183594 0.125)" xlink:href="#DejaVuSans-40"/>
      <use transform="translate(102.197266 0.125)" xlink:href="#DejaVuSans-Oblique-82"/>
      <use transform="translate(171.679688 0.125)" xlink:href="#DejaVuSans-Oblique-121"/>
      <use transform="translate(230.859375 0.125)" xlink:href="#DejaVuSans-41"/>
     </g>
    </g>
   </g>
   <g id="line2d_31">
    <path clip-path="url(#p0146013456)" d="M 159.233058 663.26281 
L 173.987484 658.464509 
L 188.741911 639.271306 
L 203.496337 610.4815 
L 218.250764 576.893394 
L 233.00519 544.264948 
L 247.759617 535.628007 
L 262.514043 536.587667 
L 277.26847 537.067497 
" style="fill:none;stroke:#0028ff;stroke-linecap:square;stroke-width:2;"/>
    <defs>
     <path d="M 0 2.5 
C 0.663008 2.5 1.29895 2.236584 1.767767 1.767767 
C 2.236584 1.29895 2.5 0.663008 2.5 0 
C 2.5 -0.663008 2.236584 -1.29895 1.767767 -1.767767 
C 1.29895 -2.236584 0.663008 -2.5 0 -2.5 
C -0.663008 -2.5 -1.29895 -2.236584 -1.767767 -1.767767 
C -2.236584 -1.29895 -2.5 -0.663008 -2.5 0 
C -2.5 0.663008 -2.236584 1.29895 -1.767767 1.767767 
C -1.29895 2.236584 -0.663008 2.5 0 2.5 
z
" id="ma9a9732bdf" style="stroke:#0028ff;"/>
    </defs>
    <g clip-path="url(#p0146013456)">
     <use style="fill:#0028ff;stroke:#0028ff;" x="159.233058" xlink:href="#ma9a9732bdf" y="663.26281"/>
     <use style="fill:#0028ff;stroke:#0028ff;" x="173.987484" xlink:href="#ma9a9732bdf" y="658.464509"/>
     <use style="fill:#0028ff;stroke:#0028ff;" x="188.741911" xlink:href="#ma9a9732bdf" y="639.271306"/>
     <use style="fill:#0028ff;stroke:#0028ff;" x="203.496337" xlink:href="#ma9a9732bdf" y="610.4815"/>
     <use style="fill:#0028ff;stroke:#0028ff;" x="218.250764" xlink:href="#ma9a9732bdf" y="576.893394"/>
     <use style="fill:#0028ff;stroke:#0028ff;" x="233.00519" xlink:href="#ma9a9732bdf" y="544.264948"/>
     <use style="fill:#0028ff;stroke:#0028ff;" x="247.759617" xlink:href="#ma9a9732bdf" y="535.628007"/>
     <use style="fill:#0028ff;stroke:#0028ff;" x="262.514043" xlink:href="#ma9a9732bdf" y="536.587667"/>
     <use style="fill:#0028ff;stroke:#0028ff;" x="277.26847" xlink:href="#ma9a9732bdf" y="537.067497"/>
    </g>
   </g>
   <g id="line2d_32">
    <path clip-path="url(#p0146013456)" d="M 159.233058 471.810605 
L 173.987484 474.209756 
L 188.741911 479.967717 
L 203.496337 488.124828 
L 218.250764 498.68109 
L 233.00519 507.797862 
L 247.759617 514.515483 
L 262.514043 518.833954 
L 277.26847 519.313784 
" style="fill:none;stroke:#00d4ff;stroke-linecap:square;stroke-width:2;"/>
    <defs>
     <path d="M 0 2.5 
C 0.663008 2.5 1.29895 2.236584 1.767767 1.767767 
C 2.236584 1.29895 2.5 0.663008 2.5 0 
C 2.5 -0.663008 2.236584 -1.29895 1.767767 -1.767767 
C 1.29895 -2.236584 0.663008 -2.5 0 -2.5 
C -0.663008 -2.5 -1.29895 -2.236584 -1.767767 -1.767767 
C -2.236584 -1.29895 -2.5 -0.663008 -2.5 0 
C -2.5 0.663008 -2.236584 1.29895 -1.767767 1.767767 
C -1.29895 2.236584 -0.663008 2.5 0 2.5 
z
" id="m35da5cf509" style="stroke:#00d4ff;"/>
    </defs>
    <g clip-path="url(#p0146013456)">
     <use style="fill:#00d4ff;stroke:#00d4ff;" x="159.233058" xlink:href="#m35da5cf509" y="471.810605"/>
     <use style="fill:#00d4ff;stroke:#00d4ff;" x="173.987484" xlink:href="#m35da5cf509" y="474.209756"/>
     <use style="fill:#00d4ff;stroke:#00d4ff;" x="188.741911" xlink:href="#m35da5cf509" y="479.967717"/>
     <use style="fill:#00d4ff;stroke:#00d4ff;" x="203.496337" xlink:href="#m35da5cf509" y="488.124828"/>
     <use style="fill:#00d4ff;stroke:#00d4ff;" x="218.250764" xlink:href="#m35da5cf509" y="498.68109"/>
     <use style="fill:#00d4ff;stroke:#00d4ff;" x="233.00519" xlink:href="#m35da5cf509" y="507.797862"/>
     <use style="fill:#00d4ff;stroke:#00d4ff;" x="247.759617" xlink:href="#m35da5cf509" y="514.515483"/>
     <use style="fill:#00d4ff;stroke:#00d4ff;" x="262.514043" xlink:href="#m35da5cf509" y="518.833954"/>
     <use style="fill:#00d4ff;stroke:#00d4ff;" x="277.26847" xlink:href="#m35da5cf509" y="519.313784"/>
    </g>
   </g>
   <g id="line2d_33">
    <path clip-path="url(#p0146013456)" d="M 159.233058 471.810605 
L 173.987484 470.850945 
L 188.741911 467.012304 
L 203.496337 460.294683 
L 218.250764 457.895533 
L 233.00519 440.141819 
L 247.759617 429.105727 
L 262.514043 420.948616 
L 277.26847 423.827596 
" style="fill:none;stroke:#7dff7a;stroke-linecap:square;stroke-width:2;"/>
    <defs>
     <path d="M 0 2.5 
C 0.663008 2.5 1.29895 2.236584 1.767767 1.767767 
C 2.236584 1.29895 2.5 0.663008 2.5 0 
C 2.5 -0.663008 2.236584 -1.29895 1.767767 -1.767767 
C 1.29895 -2.236584 0.663008 -2.5 0 -2.5 
C -0.663008 -2.5 -1.29895 -2.236584 -1.767767 -1.767767 
C -2.236584 -1.29895 -2.5 -0.663008 -2.5 0 
C -2.5 0.663008 -2.236584 1.29895 -1.767767 1.767767 
C -1.29895 2.236584 -0.663008 2.5 0 2.5 
z
" id="m42f88a4734" style="stroke:#7dff7a;"/>
    </defs>
    <g clip-path="url(#p0146013456)">
     <use style="fill:#7dff7a;stroke:#7dff7a;" x="159.233058" xlink:href="#m42f88a4734" y="471.810605"/>
     <use style="fill:#7dff7a;stroke:#7dff7a;" x="173.987484" xlink:href="#m42f88a4734" y="470.850945"/>
     <use style="fill:#7dff7a;stroke:#7dff7a;" x="188.741911" xlink:href="#m42f88a4734" y="467.012304"/>
     <use style="fill:#7dff7a;stroke:#7dff7a;" x="203.496337" xlink:href="#m42f88a4734" y="460.294683"/>
     <use style="fill:#7dff7a;stroke:#7dff7a;" x="218.250764" xlink:href="#m42f88a4734" y="457.895533"/>
     <use style="fill:#7dff7a;stroke:#7dff7a;" x="233.00519" xlink:href="#m42f88a4734" y="440.141819"/>
     <use style="fill:#7dff7a;stroke:#7dff7a;" x="247.759617" xlink:href="#m42f88a4734" y="429.105727"/>
     <use style="fill:#7dff7a;stroke:#7dff7a;" x="262.514043" xlink:href="#m42f88a4734" y="420.948616"/>
     <use style="fill:#7dff7a;stroke:#7dff7a;" x="277.26847" xlink:href="#m42f88a4734" y="423.827596"/>
    </g>
   </g>
   <g id="line2d_34">
    <path clip-path="url(#p0146013456)" d="M 159.233058 471.810605 
L 173.987484 470.850945 
L 188.741911 467.012304 
L 203.496337 460.294683 
L 218.250764 451.177911 
L 233.00519 440.141819 
L 247.759617 429.105727 
L 262.514043 420.948616 
L 277.26847 417.589805 
" style="fill:none;stroke:#ffe600;stroke-linecap:square;stroke-width:2;"/>
    <defs>
     <path d="M 0 2.5 
C 0.663008 2.5 1.29895 2.236584 1.767767 1.767767 
C 2.236584 1.29895 2.5 0.663008 2.5 0 
C 2.5 -0.663008 2.236584 -1.29895 1.767767 -1.767767 
C 1.29895 -2.236584 0.663008 -2.5 0 -2.5 
C -0.663008 -2.5 -1.29895 -2.236584 -1.767767 -1.767767 
C -2.236584 -1.29895 -2.5 -0.663008 -2.5 0 
C -2.5 0.663008 -2.236584 1.29895 -1.767767 1.767767 
C -1.29895 2.236584 -0.663008 2.5 0 2.5 
z
" id="m6030e50a50" style="stroke:#ffe600;"/>
    </defs>
    <g clip-path="url(#p0146013456)">
     <use style="fill:#ffe600;stroke:#ffe600;" x="159.233058" xlink:href="#m6030e50a50" y="471.810605"/>
     <use style="fill:#ffe600;stroke:#ffe600;" x="173.987484" xlink:href="#m6030e50a50" y="470.850945"/>
     <use style="fill:#ffe600;stroke:#ffe600;" x="188.741911" xlink:href="#m6030e50a50" y="467.012304"/>
     <use style="fill:#ffe600;stroke:#ffe600;" x="203.496337" xlink:href="#m6030e50a50" y="460.294683"/>
     <use style="fill:#ffe600;stroke:#ffe600;" x="218.250764" xlink:href="#m6030e50a50" y="451.177911"/>
     <use style="fill:#ffe600;stroke:#ffe600;" x="233.00519" xlink:href="#m6030e50a50" y="440.141819"/>
     <use style="fill:#ffe600;stroke:#ffe600;" x="247.759617" xlink:href="#m6030e50a50" y="429.105727"/>
     <use style="fill:#ffe600;stroke:#ffe600;" x="262.514043" xlink:href="#m6030e50a50" y="420.948616"/>
     <use style="fill:#ffe600;stroke:#ffe600;" x="277.26847" xlink:href="#m6030e50a50" y="417.589805"/>
    </g>
   </g>
   <g id="line2d_35">
    <path clip-path="url(#p0146013456)" d="M 159.233058 443.98046 
L 173.987484 445.89978 
L 188.741911 451.657741 
L 203.496337 457.415702 
L 218.250764 451.177911 
L 233.00519 436.783009 
L 247.759617 428.146067 
L 262.514043 426.226747 
L 277.26847 417.589805 
" style="fill:none;stroke:#ff4700;stroke-linecap:square;stroke-width:2;"/>
    <defs>
     <path d="M 0 2.5 
C 0.663008 2.5 1.29895 2.236584 1.767767 1.767767 
C 2.236584 1.29895 2.5 0.663008 2.5 0 
C 2.5 -0.663008 2.236584 -1.29895 1.767767 -1.767767 
C 1.29895 -2.236584 0.663008 -2.5 0 -2.5 
C -0.663008 -2.5 -1.29895 -2.236584 -1.767767 -1.767767 
C -2.236584 -1.29895 -2.5 -0.663008 -2.5 0 
C -2.5 0.663008 -2.236584 1.29895 -1.767767 1.767767 
C -1.29895 2.236584 -0.663008 2.5 0 2.5 
z
" id="m897efa0b2e" style="stroke:#ff4700;"/>
    </defs>
    <g clip-path="url(#p0146013456)">
     <use style="fill:#ff4700;stroke:#ff4700;" x="159.233058" xlink:href="#m897efa0b2e" y="443.98046"/>
     <use style="fill:#ff4700;stroke:#ff4700;" x="173.987484" xlink:href="#m897efa0b2e" y="445.89978"/>
     <use style="fill:#ff4700;stroke:#ff4700;" x="188.741911" xlink:href="#m897efa0b2e" y="451.657741"/>
     <use style="fill:#ff4700;stroke:#ff4700;" x="203.496337" xlink:href="#m897efa0b2e" y="457.415702"/>
     <use style="fill:#ff4700;stroke:#ff4700;" x="218.250764" xlink:href="#m897efa0b2e" y="451.177911"/>
     <use style="fill:#ff4700;stroke:#ff4700;" x="233.00519" xlink:href="#m897efa0b2e" y="436.783009"/>
     <use style="fill:#ff4700;stroke:#ff4700;" x="247.759617" xlink:href="#m897efa0b2e" y="428.146067"/>
     <use style="fill:#ff4700;stroke:#ff4700;" x="262.514043" xlink:href="#m897efa0b2e" y="426.226747"/>
     <use style="fill:#ff4700;stroke:#ff4700;" x="277.26847" xlink:href="#m897efa0b2e" y="417.589805"/>
    </g>
   </g>
   <g id="line2d_36">
    <path clip-path="url(#p0146013456)" d="M 159.233058 443.98046 
L 173.987484 443.50063 
L 188.741911 442.06114 
L 203.496337 440.141819 
L 218.250764 437.262839 
L 233.00519 433.424198 
L 247.759617 383.521869 
L 262.514043 317.305317 
L 277.26847 277.47942 
" style="fill:none;stroke:#800000;stroke-linecap:square;stroke-width:2;"/>
    <defs>
     <path d="M 0 2.5 
C 0.663008 2.5 1.29895 2.236584 1.767767 1.767767 
C 2.236584 1.29895 2.5 0.663008 2.5 0 
C 2.5 -0.663008 2.236584 -1.29895 1.767767 -1.767767 
C 1.29895 -2.236584 0.663008 -2.5 0 -2.5 
C -0.663008 -2.5 -1.29895 -2.236584 -1.767767 -1.767767 
C -2.236584 -1.29895 -2.5 -0.663008 -2.5 0 
C -2.5 0.663008 -2.236584 1.29895 -1.767767 1.767767 
C -1.29895 2.236584 -0.663008 2.5 0 2.5 
z
" id="mec75b552d7" style="stroke:#800000;"/>
    </defs>
    <g clip-path="url(#p0146013456)">
     <use style="fill:#800000;stroke:#800000;" x="159.233058" xlink:href="#mec75b552d7" y="443.98046"/>
     <use style="fill:#800000;stroke:#800000;" x="173.987484" xlink:href="#mec75b552d7" y="443.50063"/>
     <use style="fill:#800000;stroke:#800000;" x="188.741911" xlink:href="#mec75b552d7" y="442.06114"/>
     <use style="fill:#800000;stroke:#800000;" x="203.496337" xlink:href="#mec75b552d7" y="440.141819"/>
     <use style="fill:#800000;stroke:#800000;" x="218.250764" xlink:href="#mec75b552d7" y="437.262839"/>
     <use style="fill:#800000;stroke:#800000;" x="233.00519" xlink:href="#mec75b552d7" y="433.424198"/>
     <use style="fill:#800000;stroke:#800000;" x="247.759617" xlink:href="#mec75b552d7" y="383.521869"/>
     <use style="fill:#800000;stroke:#800000;" x="262.514043" xlink:href="#mec75b552d7" y="317.305317"/>
     <use style="fill:#800000;stroke:#800000;" x="277.26847" xlink:href="#mec75b552d7" y="277.47942"/>
    </g>
   </g>
   <g id="line2d_37">
    <path clip-path="url(#p0146013456)" d="M 159.233058 663.26281 
L 159.233058 114.33719 
" style="fill:none;stroke:#000000;stroke-dasharray:7.4,3.2;stroke-dashoffset:0;stroke-width:2;"/>
   </g>
   <g id="line2d_38">
    <path clip-path="url(#p0146013456)" d="M 277.26847 537.067497 
L 292.022896 534.668347 
L 306.777323 526.511235 
L 321.531749 516.914633 
L 336.286176 511.636502 
" style="fill:none;stroke:#0028ff;stroke-linecap:square;stroke-width:2;"/>
    <g clip-path="url(#p0146013456)">
     <use style="fill:#0028ff;stroke:#0028ff;" x="277.26847" xlink:href="#ma9a9732bdf" y="537.067497"/>
     <use style="fill:#0028ff;stroke:#0028ff;" x="292.022896" xlink:href="#ma9a9732bdf" y="534.668347"/>
     <use style="fill:#0028ff;stroke:#0028ff;" x="306.777323" xlink:href="#ma9a9732bdf" y="526.511235"/>
     <use style="fill:#0028ff;stroke:#0028ff;" x="321.531749" xlink:href="#ma9a9732bdf" y="516.914633"/>
     <use style="fill:#0028ff;stroke:#0028ff;" x="336.286176" xlink:href="#ma9a9732bdf" y="511.636502"/>
    </g>
   </g>
   <g id="line2d_39">
    <path clip-path="url(#p0146013456)" d="M 277.26847 519.313784 
L 292.022896 517.874293 
L 306.777323 511.636502 
L 321.531749 501.560071 
L 336.286176 486.685338 
" style="fill:none;stroke:#00d4ff;stroke-linecap:square;stroke-width:2;"/>
    <g clip-path="url(#p0146013456)">
     <use style="fill:#00d4ff;stroke:#00d4ff;" x="277.26847" xlink:href="#m35da5cf509" y="519.313784"/>
     <use style="fill:#00d4ff;stroke:#00d4ff;" x="292.022896" xlink:href="#m35da5cf509" y="517.874293"/>
     <use style="fill:#00d4ff;stroke:#00d4ff;" x="306.777323" xlink:href="#m35da5cf509" y="511.636502"/>
     <use style="fill:#00d4ff;stroke:#00d4ff;" x="321.531749" xlink:href="#m35da5cf509" y="501.560071"/>
     <use style="fill:#00d4ff;stroke:#00d4ff;" x="336.286176" xlink:href="#m35da5cf509" y="486.685338"/>
    </g>
   </g>
   <g id="line2d_40">
    <path clip-path="url(#p0146013456)" d="M 277.26847 423.827596 
L 292.022896 426.706577 
L 306.777323 446.859441 
L 321.531749 467.971964 
L 336.286176 486.685338 
" style="fill:none;stroke:#7dff7a;stroke-linecap:square;stroke-width:2;"/>
    <g clip-path="url(#p0146013456)">
     <use style="fill:#7dff7a;stroke:#7dff7a;" x="277.26847" xlink:href="#m42f88a4734" y="423.827596"/>
     <use style="fill:#7dff7a;stroke:#7dff7a;" x="292.022896" xlink:href="#m42f88a4734" y="426.706577"/>
     <use style="fill:#7dff7a;stroke:#7dff7a;" x="306.777323" xlink:href="#m42f88a4734" y="446.859441"/>
     <use style="fill:#7dff7a;stroke:#7dff7a;" x="321.531749" xlink:href="#m42f88a4734" y="467.971964"/>
     <use style="fill:#7dff7a;stroke:#7dff7a;" x="336.286176" xlink:href="#m42f88a4734" y="486.685338"/>
    </g>
   </g>
   <g id="line2d_41">
    <path clip-path="url(#p0146013456)" d="M 277.26847 417.589805 
L 292.022896 426.706577 
L 306.777323 432.944368 
L 321.531749 417.589805 
L 336.286176 445.41995 
" style="fill:none;stroke:#ffe600;stroke-linecap:square;stroke-width:2;"/>
    <g clip-path="url(#p0146013456)">
     <use style="fill:#ffe600;stroke:#ffe600;" x="277.26847" xlink:href="#m6030e50a50" y="417.589805"/>
     <use style="fill:#ffe600;stroke:#ffe600;" x="292.022896" xlink:href="#m6030e50a50" y="426.706577"/>
     <use style="fill:#ffe600;stroke:#ffe600;" x="306.777323" xlink:href="#m6030e50a50" y="432.944368"/>
     <use style="fill:#ffe600;stroke:#ffe600;" x="321.531749" xlink:href="#m6030e50a50" y="417.589805"/>
     <use style="fill:#ffe600;stroke:#ffe600;" x="336.286176" xlink:href="#m6030e50a50" y="445.41995"/>
    </g>
   </g>
   <g id="line2d_42">
    <path clip-path="url(#p0146013456)" d="M 277.26847 417.589805 
L 292.022896 417.589805 
L 306.777323 417.589805 
L 321.531749 441.10148 
L 336.286176 417.589805 
" style="fill:none;stroke:#ff4700;stroke-linecap:square;stroke-width:2;"/>
    <g clip-path="url(#p0146013456)">
     <use style="fill:#ff4700;stroke:#ff4700;" x="277.26847" xlink:href="#m897efa0b2e" y="417.589805"/>
     <use style="fill:#ff4700;stroke:#ff4700;" x="292.022896" xlink:href="#m897efa0b2e" y="417.589805"/>
     <use style="fill:#ff4700;stroke:#ff4700;" x="306.777323" xlink:href="#m897efa0b2e" y="417.589805"/>
     <use style="fill:#ff4700;stroke:#ff4700;" x="321.531749" xlink:href="#m897efa0b2e" y="441.10148"/>
     <use style="fill:#ff4700;stroke:#ff4700;" x="336.286176" xlink:href="#m897efa0b2e" y="417.589805"/>
    </g>
   </g>
   <g id="line2d_43">
    <path clip-path="url(#p0146013456)" d="M 277.26847 277.47942 
L 292.022896 262.124857 
L 306.777323 224.21828 
L 321.531749 173.356291 
L 336.286176 114.33719 
" style="fill:none;stroke:#800000;stroke-linecap:square;stroke-width:2;"/>
    <g clip-path="url(#p0146013456)">
     <use style="fill:#800000;stroke:#800000;" x="277.26847" xlink:href="#mec75b552d7" y="277.47942"/>
     <use style="fill:#800000;stroke:#800000;" x="292.022896" xlink:href="#mec75b552d7" y="262.124857"/>
     <use style="fill:#800000;stroke:#800000;" x="306.777323" xlink:href="#mec75b552d7" y="224.21828"/>
     <use style="fill:#800000;stroke:#800000;" x="321.531749" xlink:href="#mec75b552d7" y="173.356291"/>
     <use style="fill:#800000;stroke:#800000;" x="336.286176" xlink:href="#mec75b552d7" y="114.33719"/>
    </g>
   </g>
   <g id="line2d_44">
    <path clip-path="url(#p0146013456)" d="M 277.26847 663.26281 
L 277.26847 114.33719 
" style="fill:none;stroke:#000000;stroke-dasharray:7.4,3.2;stroke-dashoffset:0;stroke-width:2;"/>
   </g>
   <g id="line2d_45">
    <path clip-path="url(#p0146013456)" d="M 336.286176 511.636502 
L 357.152086 506.838201 
L 378.017996 511.636502 
L 398.883906 529.390216 
L 419.749816 538.506987 
" style="fill:none;stroke:#0028ff;stroke-linecap:square;stroke-width:2;"/>
    <g clip-path="url(#p0146013456)">
     <use style="fill:#0028ff;stroke:#0028ff;" x="336.286176" xlink:href="#ma9a9732bdf" y="511.636502"/>
     <use style="fill:#0028ff;stroke:#0028ff;" x="357.152086" xlink:href="#ma9a9732bdf" y="506.838201"/>
     <use style="fill:#0028ff;stroke:#0028ff;" x="378.017996" xlink:href="#ma9a9732bdf" y="511.636502"/>
     <use style="fill:#0028ff;stroke:#0028ff;" x="398.883906" xlink:href="#ma9a9732bdf" y="529.390216"/>
     <use style="fill:#0028ff;stroke:#0028ff;" x="419.749816" xlink:href="#ma9a9732bdf" y="538.506987"/>
    </g>
   </g>
   <g id="line2d_46">
    <path clip-path="url(#p0146013456)" d="M 336.286176 486.685338 
L 357.152086 494.362619 
L 378.017996 492.443299 
L 398.883906 479.008056 
L 419.749816 472.770265 
" style="fill:none;stroke:#00d4ff;stroke-linecap:square;stroke-width:2;"/>
    <g clip-path="url(#p0146013456)">
     <use style="fill:#00d4ff;stroke:#00d4ff;" x="336.286176" xlink:href="#m35da5cf509" y="486.685338"/>
     <use style="fill:#00d4ff;stroke:#00d4ff;" x="357.152086" xlink:href="#m35da5cf509" y="494.362619"/>
     <use style="fill:#00d4ff;stroke:#00d4ff;" x="378.017996" xlink:href="#m35da5cf509" y="492.443299"/>
     <use style="fill:#00d4ff;stroke:#00d4ff;" x="398.883906" xlink:href="#m35da5cf509" y="479.008056"/>
     <use style="fill:#00d4ff;stroke:#00d4ff;" x="419.749816" xlink:href="#m35da5cf509" y="472.770265"/>
    </g>
   </g>
   <g id="line2d_47">
    <path clip-path="url(#p0146013456)" d="M 336.286176 486.685338 
L 357.152086 482.846697 
L 378.017996 457.415702 
L 398.883906 468.931625 
L 419.749816 472.770265 
" style="fill:none;stroke:#7dff7a;stroke-linecap:square;stroke-width:2;"/>
    <g clip-path="url(#p0146013456)">
     <use style="fill:#7dff7a;stroke:#7dff7a;" x="336.286176" xlink:href="#m42f88a4734" y="486.685338"/>
     <use style="fill:#7dff7a;stroke:#7dff7a;" x="357.152086" xlink:href="#m42f88a4734" y="482.846697"/>
     <use style="fill:#7dff7a;stroke:#7dff7a;" x="378.017996" xlink:href="#m42f88a4734" y="457.415702"/>
     <use style="fill:#7dff7a;stroke:#7dff7a;" x="398.883906" xlink:href="#m42f88a4734" y="468.931625"/>
     <use style="fill:#7dff7a;stroke:#7dff7a;" x="419.749816" xlink:href="#m42f88a4734" y="472.770265"/>
    </g>
   </g>
   <g id="line2d_48">
    <path clip-path="url(#p0146013456)" d="M 336.286176 445.41995 
L 357.152086 446.37961 
L 378.017996 469.891285 
L 398.883906 445.89978 
L 419.749816 422.867936 
" style="fill:none;stroke:#ffe600;stroke-linecap:square;stroke-width:2;"/>
    <g clip-path="url(#p0146013456)">
     <use style="fill:#ffe600;stroke:#ffe600;" x="336.286176" xlink:href="#m6030e50a50" y="445.41995"/>
     <use style="fill:#ffe600;stroke:#ffe600;" x="357.152086" xlink:href="#m6030e50a50" y="446.37961"/>
     <use style="fill:#ffe600;stroke:#ffe600;" x="378.017996" xlink:href="#m6030e50a50" y="469.891285"/>
     <use style="fill:#ffe600;stroke:#ffe600;" x="398.883906" xlink:href="#m6030e50a50" y="445.89978"/>
     <use style="fill:#ffe600;stroke:#ffe600;" x="419.749816" xlink:href="#m6030e50a50" y="422.867936"/>
    </g>
   </g>
   <g id="line2d_49">
    <path clip-path="url(#p0146013456)" d="M 336.286176 417.589805 
L 357.152086 422.867936 
L 378.017996 425.746917 
L 398.883906 423.347766 
L 419.749816 422.867936 
" style="fill:none;stroke:#ff4700;stroke-linecap:square;stroke-width:2;"/>
    <g clip-path="url(#p0146013456)">
     <use style="fill:#ff4700;stroke:#ff4700;" x="336.286176" xlink:href="#m897efa0b2e" y="417.589805"/>
     <use style="fill:#ff4700;stroke:#ff4700;" x="357.152086" xlink:href="#m897efa0b2e" y="422.867936"/>
     <use style="fill:#ff4700;stroke:#ff4700;" x="378.017996" xlink:href="#m897efa0b2e" y="425.746917"/>
     <use style="fill:#ff4700;stroke:#ff4700;" x="398.883906" xlink:href="#m897efa0b2e" y="423.347766"/>
     <use style="fill:#ff4700;stroke:#ff4700;" x="419.749816" xlink:href="#m897efa0b2e" y="422.867936"/>
    </g>
   </g>
   <g id="line2d_50">
    <path clip-path="url(#p0146013456)" d="M 336.286176 114.33719 
L 357.152086 184.872213 
L 378.017996 286.116361 
L 398.883906 333.61954 
L 419.749816 370.566457 
" style="fill:none;stroke:#800000;stroke-linecap:square;stroke-width:2;"/>
    <g clip-path="url(#p0146013456)">
     <use style="fill:#800000;stroke:#800000;" x="336.286176" xlink:href="#mec75b552d7" y="114.33719"/>
     <use style="fill:#800000;stroke:#800000;" x="357.152086" xlink:href="#mec75b552d7" y="184.872213"/>
     <use style="fill:#800000;stroke:#800000;" x="378.017996" xlink:href="#mec75b552d7" y="286.116361"/>
     <use style="fill:#800000;stroke:#800000;" x="398.883906" xlink:href="#mec75b552d7" y="333.61954"/>
     <use style="fill:#800000;stroke:#800000;" x="419.749816" xlink:href="#mec75b552d7" y="370.566457"/>
    </g>
   </g>
   <g id="line2d_51">
    <path clip-path="url(#p0146013456)" d="M 336.286176 663.26281 
L 336.286176 114.33719 
" style="fill:none;stroke:#000000;stroke-dasharray:7.4,3.2;stroke-dashoffset:0;stroke-width:2;"/>
   </g>
   <g id="line2d_52">
    <path clip-path="url(#p0146013456)" d="M 419.749816 538.506987 
L 445.305233 544.744778 
L 470.860649 591.288297 
L 496.416065 584.090846 
L 521.971482 663.26281 
" style="fill:none;stroke:#0028ff;stroke-linecap:square;stroke-width:2;"/>
    <g clip-path="url(#p0146013456)">
     <use style="fill:#0028ff;stroke:#0028ff;" x="419.749816" xlink:href="#ma9a9732bdf" y="538.506987"/>
     <use style="fill:#0028ff;stroke:#0028ff;" x="445.305233" xlink:href="#ma9a9732bdf" y="544.744778"/>
     <use style="fill:#0028ff;stroke:#0028ff;" x="470.860649" xlink:href="#ma9a9732bdf" y="591.288297"/>
     <use style="fill:#0028ff;stroke:#0028ff;" x="496.416065" xlink:href="#ma9a9732bdf" y="584.090846"/>
     <use style="fill:#0028ff;stroke:#0028ff;" x="521.971482" xlink:href="#ma9a9732bdf" y="663.26281"/>
    </g>
   </g>
   <g id="line2d_53">
    <path clip-path="url(#p0146013456)" d="M 419.749816 472.770265 
L 445.305233 470.850945 
L 470.860649 480.447547 
L 496.416065 468.931625 
L 521.971482 471.810605 
" style="fill:none;stroke:#00d4ff;stroke-linecap:square;stroke-width:2;"/>
    <g clip-path="url(#p0146013456)">
     <use style="fill:#00d4ff;stroke:#00d4ff;" x="419.749816" xlink:href="#m35da5cf509" y="472.770265"/>
     <use style="fill:#00d4ff;stroke:#00d4ff;" x="445.305233" xlink:href="#m35da5cf509" y="470.850945"/>
     <use style="fill:#00d4ff;stroke:#00d4ff;" x="470.860649" xlink:href="#m35da5cf509" y="480.447547"/>
     <use style="fill:#00d4ff;stroke:#00d4ff;" x="496.416065" xlink:href="#m35da5cf509" y="468.931625"/>
     <use style="fill:#00d4ff;stroke:#00d4ff;" x="521.971482" xlink:href="#m35da5cf509" y="471.810605"/>
    </g>
   </g>
   <g id="line2d_54">
    <path clip-path="url(#p0146013456)" d="M 419.749816 472.770265 
L 445.305233 470.850945 
L 470.860649 467.012304 
L 496.416065 476.608906 
L 521.971482 471.810605 
" style="fill:none;stroke:#7dff7a;stroke-linecap:square;stroke-width:2;"/>
    <g clip-path="url(#p0146013456)">
     <use style="fill:#7dff7a;stroke:#7dff7a;" x="419.749816" xlink:href="#m42f88a4734" y="472.770265"/>
     <use style="fill:#7dff7a;stroke:#7dff7a;" x="445.305233" xlink:href="#m42f88a4734" y="470.850945"/>
     <use style="fill:#7dff7a;stroke:#7dff7a;" x="470.860649" xlink:href="#m42f88a4734" y="467.012304"/>
     <use style="fill:#7dff7a;stroke:#7dff7a;" x="496.416065" xlink:href="#m42f88a4734" y="476.608906"/>
     <use style="fill:#7dff7a;stroke:#7dff7a;" x="521.971482" xlink:href="#m42f88a4734" y="471.810605"/>
    </g>
   </g>
   <g id="line2d_55">
    <path clip-path="url(#p0146013456)" d="M 419.749816 422.867936 
L 445.305233 439.661989 
L 470.860649 467.012304 
L 496.416065 445.89978 
L 521.971482 471.810605 
" style="fill:none;stroke:#ffe600;stroke-linecap:square;stroke-width:2;"/>
    <g clip-path="url(#p0146013456)">
     <use style="fill:#ffe600;stroke:#ffe600;" x="419.749816" xlink:href="#m6030e50a50" y="422.867936"/>
     <use style="fill:#ffe600;stroke:#ffe600;" x="445.305233" xlink:href="#m6030e50a50" y="439.661989"/>
     <use style="fill:#ffe600;stroke:#ffe600;" x="470.860649" xlink:href="#m6030e50a50" y="467.012304"/>
     <use style="fill:#ffe600;stroke:#ffe600;" x="496.416065" xlink:href="#m6030e50a50" y="445.89978"/>
     <use style="fill:#ffe600;stroke:#ffe600;" x="521.971482" xlink:href="#m6030e50a50" y="471.810605"/>
    </g>
   </g>
   <g id="line2d_56">
    <path clip-path="url(#p0146013456)" d="M 419.749816 422.867936 
L 445.305233 430.065388 
L 470.860649 443.0208 
L 496.416065 468.931625 
L 521.971482 443.98046 
" style="fill:none;stroke:#ff4700;stroke-linecap:square;stroke-width:2;"/>
    <g clip-path="url(#p0146013456)">
     <use style="fill:#ff4700;stroke:#ff4700;" x="419.749816" xlink:href="#m897efa0b2e" y="422.867936"/>
     <use style="fill:#ff4700;stroke:#ff4700;" x="445.305233" xlink:href="#m897efa0b2e" y="430.065388"/>
     <use style="fill:#ff4700;stroke:#ff4700;" x="470.860649" xlink:href="#m897efa0b2e" y="443.0208"/>
     <use style="fill:#ff4700;stroke:#ff4700;" x="496.416065" xlink:href="#m897efa0b2e" y="468.931625"/>
     <use style="fill:#ff4700;stroke:#ff4700;" x="521.971482" xlink:href="#m897efa0b2e" y="443.98046"/>
    </g>
   </g>
   <g id="line2d_57">
    <path clip-path="url(#p0146013456)" d="M 419.749816 370.566457 
L 445.305233 430.065388 
L 470.860649 443.0208 
L 496.416065 445.89978 
L 521.971482 443.98046 
" style="fill:none;stroke:#800000;stroke-linecap:square;stroke-width:2;"/>
    <g clip-path="url(#p0146013456)">
     <use style="fill:#800000;stroke:#800000;" x="419.749816" xlink:href="#mec75b552d7" y="370.566457"/>
     <use style="fill:#800000;stroke:#800000;" x="445.305233" xlink:href="#mec75b552d7" y="430.065388"/>
     <use style="fill:#800000;stroke:#800000;" x="470.860649" xlink:href="#mec75b552d7" y="443.0208"/>
     <use style="fill:#800000;stroke:#800000;" x="496.416065" xlink:href="#mec75b552d7" y="445.89978"/>
     <use style="fill:#800000;stroke:#800000;" x="521.971482" xlink:href="#mec75b552d7" y="443.98046"/>
    </g>
   </g>
   <g id="line2d_58">
    <path clip-path="url(#p0146013456)" d="M 419.749816 663.26281 
L 419.749816 114.33719 
" style="fill:none;stroke:#000000;stroke-dasharray:7.4,3.2;stroke-dashoffset:0;stroke-width:2;"/>
   </g>
   <g id="line2d_59">
    <path clip-path="url(#p0146013456)" d="M 521.971482 663.26281 
L 542.837392 653.666208 
L 563.703302 615.279801 
L 584.569212 562.498492 
L 605.435122 513.555823 
L 626.301032 504.918881 
L 647.166942 516.914633 
" style="fill:none;stroke:#0028ff;stroke-linecap:square;stroke-width:2;"/>
    <g clip-path="url(#p0146013456)">
     <use style="fill:#0028ff;stroke:#0028ff;" x="521.971482" xlink:href="#ma9a9732bdf" y="663.26281"/>
     <use style="fill:#0028ff;stroke:#0028ff;" x="542.837392" xlink:href="#ma9a9732bdf" y="653.666208"/>
     <use style="fill:#0028ff;stroke:#0028ff;" x="563.703302" xlink:href="#ma9a9732bdf" y="615.279801"/>
     <use style="fill:#0028ff;stroke:#0028ff;" x="584.569212" xlink:href="#ma9a9732bdf" y="562.498492"/>
     <use style="fill:#0028ff;stroke:#0028ff;" x="605.435122" xlink:href="#ma9a9732bdf" y="513.555823"/>
     <use style="fill:#0028ff;stroke:#0028ff;" x="626.301032" xlink:href="#ma9a9732bdf" y="504.918881"/>
     <use style="fill:#0028ff;stroke:#0028ff;" x="647.166942" xlink:href="#ma9a9732bdf" y="516.914633"/>
    </g>
   </g>
   <g id="line2d_60">
    <path clip-path="url(#p0146013456)" d="M 521.971482 471.810605 
L 542.837392 475.649246 
L 563.703302 483.326527 
L 584.569212 489.564318 
L 605.435122 488.604658 
L 626.301032 495.322279 
L 647.166942 505.878541 
" style="fill:none;stroke:#00d4ff;stroke-linecap:square;stroke-width:2;"/>
    <g clip-path="url(#p0146013456)">
     <use style="fill:#00d4ff;stroke:#00d4ff;" x="521.971482" xlink:href="#m35da5cf509" y="471.810605"/>
     <use style="fill:#00d4ff;stroke:#00d4ff;" x="542.837392" xlink:href="#m35da5cf509" y="475.649246"/>
     <use style="fill:#00d4ff;stroke:#00d4ff;" x="563.703302" xlink:href="#m35da5cf509" y="483.326527"/>
     <use style="fill:#00d4ff;stroke:#00d4ff;" x="584.569212" xlink:href="#m35da5cf509" y="489.564318"/>
     <use style="fill:#00d4ff;stroke:#00d4ff;" x="605.435122" xlink:href="#m35da5cf509" y="488.604658"/>
     <use style="fill:#00d4ff;stroke:#00d4ff;" x="626.301032" xlink:href="#m35da5cf509" y="495.322279"/>
     <use style="fill:#00d4ff;stroke:#00d4ff;" x="647.166942" xlink:href="#m35da5cf509" y="505.878541"/>
    </g>
   </g>
   <g id="line2d_61">
    <path clip-path="url(#p0146013456)" d="M 521.971482 471.810605 
L 542.837392 469.891285 
L 563.703302 467.492134 
L 584.569212 472.290435 
L 605.435122 484.766017 
L 626.301032 478.048396 
L 647.166942 458.375363 
" style="fill:none;stroke:#7dff7a;stroke-linecap:square;stroke-width:2;"/>
    <g clip-path="url(#p0146013456)">
     <use style="fill:#7dff7a;stroke:#7dff7a;" x="521.971482" xlink:href="#m42f88a4734" y="471.810605"/>
     <use style="fill:#7dff7a;stroke:#7dff7a;" x="542.837392" xlink:href="#m42f88a4734" y="469.891285"/>
     <use style="fill:#7dff7a;stroke:#7dff7a;" x="563.703302" xlink:href="#m42f88a4734" y="467.492134"/>
     <use style="fill:#7dff7a;stroke:#7dff7a;" x="584.569212" xlink:href="#m42f88a4734" y="472.290435"/>
     <use style="fill:#7dff7a;stroke:#7dff7a;" x="605.435122" xlink:href="#m42f88a4734" y="484.766017"/>
     <use style="fill:#7dff7a;stroke:#7dff7a;" x="626.301032" xlink:href="#m42f88a4734" y="478.048396"/>
     <use style="fill:#7dff7a;stroke:#7dff7a;" x="647.166942" xlink:href="#m42f88a4734" y="458.375363"/>
    </g>
   </g>
   <g id="line2d_62">
    <path clip-path="url(#p0146013456)" d="M 521.971482 471.810605 
L 542.837392 469.891285 
L 563.703302 464.133324 
L 584.569212 455.496382 
L 605.435122 455.976212 
L 626.301032 449.738421 
L 647.166942 439.182159 
" style="fill:none;stroke:#ffe600;stroke-linecap:square;stroke-width:2;"/>
    <g clip-path="url(#p0146013456)">
     <use style="fill:#ffe600;stroke:#ffe600;" x="521.971482" xlink:href="#m6030e50a50" y="471.810605"/>
     <use style="fill:#ffe600;stroke:#ffe600;" x="542.837392" xlink:href="#m6030e50a50" y="469.891285"/>
     <use style="fill:#ffe600;stroke:#ffe600;" x="563.703302" xlink:href="#m6030e50a50" y="464.133324"/>
     <use style="fill:#ffe600;stroke:#ffe600;" x="584.569212" xlink:href="#m6030e50a50" y="455.496382"/>
     <use style="fill:#ffe600;stroke:#ffe600;" x="605.435122" xlink:href="#m6030e50a50" y="455.976212"/>
     <use style="fill:#ffe600;stroke:#ffe600;" x="626.301032" xlink:href="#m6030e50a50" y="449.738421"/>
     <use style="fill:#ffe600;stroke:#ffe600;" x="647.166942" xlink:href="#m6030e50a50" y="439.182159"/>
    </g>
   </g>
   <g id="line2d_63">
    <path clip-path="url(#p0146013456)" d="M 521.971482 443.98046 
L 542.837392 446.37961 
L 563.703302 452.617402 
L 584.569212 456.935872 
L 605.435122 444.94012 
L 626.301032 434.383858 
L 647.166942 425.267087 
" style="fill:none;stroke:#ff4700;stroke-linecap:square;stroke-width:2;"/>
    <g clip-path="url(#p0146013456)">
     <use style="fill:#ff4700;stroke:#ff4700;" x="521.971482" xlink:href="#m897efa0b2e" y="443.98046"/>
     <use style="fill:#ff4700;stroke:#ff4700;" x="542.837392" xlink:href="#m897efa0b2e" y="446.37961"/>
     <use style="fill:#ff4700;stroke:#ff4700;" x="563.703302" xlink:href="#m897efa0b2e" y="452.617402"/>
     <use style="fill:#ff4700;stroke:#ff4700;" x="584.569212" xlink:href="#m897efa0b2e" y="456.935872"/>
     <use style="fill:#ff4700;stroke:#ff4700;" x="605.435122" xlink:href="#m897efa0b2e" y="444.94012"/>
     <use style="fill:#ff4700;stroke:#ff4700;" x="626.301032" xlink:href="#m897efa0b2e" y="434.383858"/>
     <use style="fill:#ff4700;stroke:#ff4700;" x="647.166942" xlink:href="#m897efa0b2e" y="425.267087"/>
    </g>
   </g>
   <g id="line2d_64">
    <path clip-path="url(#p0146013456)" d="M 521.971482 443.98046 
L 542.837392 444.46029 
L 563.703302 440.621649 
L 584.569212 418.069635 
L 605.435122 364.328666 
L 626.301032 266.443328 
L 647.166942 180.553742 
" style="fill:none;stroke:#800000;stroke-linecap:square;stroke-width:2;"/>
    <g clip-path="url(#p0146013456)">
     <use style="fill:#800000;stroke:#800000;" x="521.971482" xlink:href="#mec75b552d7" y="443.98046"/>
     <use style="fill:#800000;stroke:#800000;" x="542.837392" xlink:href="#mec75b552d7" y="444.46029"/>
     <use style="fill:#800000;stroke:#800000;" x="563.703302" xlink:href="#mec75b552d7" y="440.621649"/>
     <use style="fill:#800000;stroke:#800000;" x="584.569212" xlink:href="#mec75b552d7" y="418.069635"/>
     <use style="fill:#800000;stroke:#800000;" x="605.435122" xlink:href="#mec75b552d7" y="364.328666"/>
     <use style="fill:#800000;stroke:#800000;" x="626.301032" xlink:href="#mec75b552d7" y="266.443328"/>
     <use style="fill:#800000;stroke:#800000;" x="647.166942" xlink:href="#mec75b552d7" y="180.553742"/>
    </g>
   </g>
   <g id="line2d_65">
    <path clip-path="url(#p0146013456)" d="M 521.971482 663.26281 
L 521.971482 114.33719 
" style="fill:none;stroke:#000000;stroke-dasharray:7.4,3.2;stroke-dashoffset:0;stroke-width:2;"/>
   </g>
   <g id="line2d_66">
    <path clip-path="url(#p0146013456)" d="M 647.166942 663.26281 
L 647.166942 114.33719 
" style="fill:none;stroke:#000000;stroke-dasharray:7.4,3.2;stroke-dashoffset:0;stroke-width:2;"/>
   </g>
   <g id="line2d_67">
    <path clip-path="url(#p0146013456)" d="M 159.233058 351.373253 
L 647.166942 351.373253 
" style="fill:none;stroke:#008000;stroke-dasharray:7.4,3.2;stroke-dashoffset:0;stroke-width:2;"/>
   </g>
   <g id="patch_3">
    <path d="M 108 720.9 
L 108 56.7 
" style="fill:none;stroke:#000000;stroke-linecap:square;stroke-linejoin:miter;stroke-width:0.8;"/>
   </g>
   <g id="patch_4">
    <path d="M 698.4 720.9 
L 698.4 56.7 
" style="fill:none;stroke:#000000;stroke-linecap:square;stroke-linejoin:miter;stroke-width:0.8;"/>
   </g>
   <g id="patch_5">
    <path d="M 108 720.9 
L 698.4 720.9 
" style="fill:none;stroke:#000000;stroke-linecap:square;stroke-linejoin:miter;stroke-width:0.8;"/>
   </g>
   <g id="patch_6">
    <path d="M 108 56.7 
L 698.4 56.7 
" style="fill:none;stroke:#000000;stroke-linecap:square;stroke-linejoin:miter;stroke-width:0.8;"/>
   </g>
   <g id="text_18">
    <!-- G -->
    <g transform="translate(151.48462 711.245819)scale(0.2 -0.2)">
     <defs>
      <path d="M 59.515625 10.40625 
L 59.515625 29.984375 
L 43.40625 29.984375 
L 43.40625 38.09375 
L 69.28125 38.09375 
L 69.28125 6.78125 
Q 63.578125 2.734375 56.6875 0.65625 
Q 49.8125 -1.421875 42 -1.421875 
Q 24.90625 -1.421875 15.25 8.5625 
Q 5.609375 18.5625 5.609375 36.375 
Q 5.609375 54.25 15.25 64.234375 
Q 24.90625 74.21875 42 74.21875 
Q 49.125 74.21875 55.546875 72.453125 
Q 61.96875 70.703125 67.390625 67.28125 
L 67.390625 56.78125 
Q 61.921875 61.421875 55.765625 63.765625 
Q 49.609375 66.109375 42.828125 66.109375 
Q 29.4375 66.109375 22.71875 58.640625 
Q 16.015625 51.171875 16.015625 36.375 
Q 16.015625 21.625 22.71875 14.15625 
Q 29.4375 6.6875 42.828125 6.6875 
Q 48.046875 6.6875 52.140625 7.59375 
Q 56.25 8.5 59.515625 10.40625 
z
" id="DejaVuSans-71"/>
     </defs>
     <use xlink:href="#DejaVuSans-71"/>
    </g>
   </g>
   <g id="text_19">
    <!-- X -->
    <g transform="translate(270.41847 711.245819)scale(0.2 -0.2)">
     <defs>
      <path d="M 6.296875 72.90625 
L 16.890625 72.90625 
L 35.015625 45.796875 
L 53.21875 72.90625 
L 63.8125 72.90625 
L 40.375 37.890625 
L 65.375 0 
L 54.78125 0 
L 34.28125 31 
L 13.625 0 
L 2.984375 0 
L 29 38.921875 
z
" id="DejaVuSans-88"/>
     </defs>
     <use xlink:href="#DejaVuSans-88"/>
    </g>
   </g>
   <g id="text_20">
    <!-- W -->
    <g transform="translate(326.398676 711.245819)scale(0.2 -0.2)">
     <defs>
      <path d="M 3.328125 72.90625 
L 13.28125 72.90625 
L 28.609375 11.28125 
L 43.890625 72.90625 
L 54.984375 72.90625 
L 70.3125 11.28125 
L 85.59375 72.90625 
L 95.609375 72.90625 
L 77.296875 0 
L 64.890625 0 
L 49.515625 63.28125 
L 33.984375 0 
L 21.578125 0 
z
" id="DejaVuSans-87"/>
     </defs>
     <use xlink:href="#DejaVuSans-87"/>
    </g>
   </g>
   <g id="text_21">
    <!-- L -->
    <g transform="translate(414.177941 711.245819)scale(0.2 -0.2)">
     <defs>
      <path d="M 9.8125 72.90625 
L 19.671875 72.90625 
L 19.671875 8.296875 
L 55.171875 8.296875 
L 55.171875 0 
L 9.8125 0 
z
" id="DejaVuSans-76"/>
     </defs>
     <use xlink:href="#DejaVuSans-76"/>
    </g>
   </g>
   <g id="text_22">
    <!-- G -->
    <g transform="translate(514.223044 711.245819)scale(0.2 -0.2)">
     <use xlink:href="#DejaVuSans-71"/>
    </g>
   </g>
   <g id="text_23">
    <!-- K -->
    <g transform="translate(640.60913 711.245819)scale(0.2 -0.2)">
     <defs>
      <path d="M 9.8125 72.90625 
L 19.671875 72.90625 
L 19.671875 42.09375 
L 52.390625 72.90625 
L 65.09375 72.90625 
L 28.90625 38.921875 
L 67.671875 0 
L 54.6875 0 
L 19.671875 35.109375 
L 19.671875 0 
L 9.8125 0 
z
" id="DejaVuSans-75"/>
     </defs>
     <use xlink:href="#DejaVuSans-75"/>
    </g>
   </g>
   <g id="legend_1">
    <g id="patch_7">
     <path d="M 122 278.19375 
L 204.2 278.19375 
Q 208.2 278.19375 208.2 274.19375 
L 208.2 70.7 
Q 208.2 66.7 204.2 66.7 
L 122 66.7 
Q 118 66.7 118 70.7 
L 118 274.19375 
Q 118 278.19375 122 278.19375 
z
" style="fill:#ffffff;opacity:0.8;stroke:#cccccc;stroke-linejoin:miter;"/>
    </g>
    <g id="line2d_68">
     <path d="M 126 82.896875 
L 166 82.896875 
" style="fill:none;stroke:#008000;stroke-dasharray:7.4,3.2;stroke-dashoffset:0;stroke-width:2;"/>
    </g>
    <g id="line2d_69"/>
    <g id="text_24">
     <!-- $E_f$ -->
     <g transform="translate(182 89.896875)scale(0.2 -0.2)">
      <defs>
       <path d="M 47.796875 75.984375 
L 46.390625 68.5 
L 37.796875 68.5 
Q 32.90625 68.5 30.6875 66.578125 
Q 28.46875 64.65625 27.390625 59.515625 
L 26.421875 54.6875 
L 41.21875 54.6875 
L 39.890625 47.703125 
L 25.09375 47.703125 
L 15.828125 0 
L 6.78125 0 
L 16.109375 47.703125 
L 7.515625 47.703125 
L 8.796875 54.6875 
L 17.390625 54.6875 
L 18.109375 58.5 
Q 19.96875 68.171875 24.625 72.078125 
Q 29.296875 75.984375 39.3125 75.984375 
z
" id="DejaVuSans-Oblique-102"/>
      </defs>
      <use transform="translate(0 0.09375)" xlink:href="#DejaVuSans-Oblique-69"/>
      <use transform="translate(63.183594 -16.3125)scale(0.7)" xlink:href="#DejaVuSans-Oblique-102"/>
     </g>
    </g>
    <g id="line2d_70">
     <path d="M 126 112.253125 
L 166 112.253125 
" style="fill:none;stroke:#0028ff;stroke-linecap:square;stroke-width:2;"/>
    </g>
    <g id="line2d_71">
     <defs>
      <path d="M 0 3 
C 0.795609 3 1.55874 2.683901 2.12132 2.12132 
C 2.683901 1.55874 3 0.795609 3 0 
C 3 -0.795609 2.683901 -1.55874 2.12132 -2.12132 
C 1.55874 -2.683901 0.795609 -3 0 -3 
C -0.795609 -3 -1.55874 -2.683901 -2.12132 -2.12132 
C -2.683901 -1.55874 -3 -0.795609 -3 0 
C -3 0.795609 -2.683901 1.55874 -2.12132 2.12132 
C -1.55874 2.683901 -0.795609 3 0 3 
z
" id="m5f27298a84" style="stroke:#0028ff;"/>
     </defs>
     <g>
      <use style="fill:#0028ff;stroke:#0028ff;" x="146" xlink:href="#m5f27298a84" y="112.253125"/>
     </g>
    </g>
    <g id="text_25">
     <!-- 0 -->
     <g transform="translate(182 119.253125)scale(0.2 -0.2)">
      <use xlink:href="#DejaVuSans-48"/>
     </g>
    </g>
    <g id="line2d_72">
     <path d="M 126 141.609375 
L 166 141.609375 
" style="fill:none;stroke:#00d4ff;stroke-linecap:square;stroke-width:2;"/>
    </g>
    <g id="line2d_73">
     <defs>
      <path d="M 0 3 
C 0.795609 3 1.55874 2.683901 2.12132 2.12132 
C 2.683901 1.55874 3 0.795609 3 0 
C 3 -0.795609 2.683901 -1.55874 2.12132 -2.12132 
C 1.55874 -2.683901 0.795609 -3 0 -3 
C -0.795609 -3 -1.55874 -2.683901 -2.12132 -2.12132 
C -2.683901 -1.55874 -3 -0.795609 -3 0 
C -3 0.795609 -2.683901 1.55874 -2.12132 2.12132 
C -1.55874 2.683901 -0.795609 3 0 3 
z
" id="m19cf6d7fed" style="stroke:#00d4ff;"/>
     </defs>
     <g>
      <use style="fill:#00d4ff;stroke:#00d4ff;" x="146" xlink:href="#m19cf6d7fed" y="141.609375"/>
     </g>
    </g>
    <g id="text_26">
     <!-- 1 -->
     <g transform="translate(182 148.609375)scale(0.2 -0.2)">
      <use xlink:href="#DejaVuSans-49"/>
     </g>
    </g>
    <g id="line2d_74">
     <path d="M 126 170.965625 
L 166 170.965625 
" style="fill:none;stroke:#7dff7a;stroke-linecap:square;stroke-width:2;"/>
    </g>
    <g id="line2d_75">
     <defs>
      <path d="M 0 3 
C 0.795609 3 1.55874 2.683901 2.12132 2.12132 
C 2.683901 1.55874 3 0.795609 3 0 
C 3 -0.795609 2.683901 -1.55874 2.12132 -2.12132 
C 1.55874 -2.683901 0.795609 -3 0 -3 
C -0.795609 -3 -1.55874 -2.683901 -2.12132 -2.12132 
C -2.683901 -1.55874 -3 -0.795609 -3 0 
C -3 0.795609 -2.683901 1.55874 -2.12132 2.12132 
C -1.55874 2.683901 -0.795609 3 0 3 
z
" id="m5c9255c6e2" style="stroke:#7dff7a;"/>
     </defs>
     <g>
      <use style="fill:#7dff7a;stroke:#7dff7a;" x="146" xlink:href="#m5c9255c6e2" y="170.965625"/>
     </g>
    </g>
    <g id="text_27">
     <!-- 2 -->
     <g transform="translate(182 177.965625)scale(0.2 -0.2)">
      <use xlink:href="#DejaVuSans-50"/>
     </g>
    </g>
    <g id="line2d_76">
     <path d="M 126 200.321875 
L 166 200.321875 
" style="fill:none;stroke:#ffe600;stroke-linecap:square;stroke-width:2;"/>
    </g>
    <g id="line2d_77">
     <defs>
      <path d="M 0 3 
C 0.795609 3 1.55874 2.683901 2.12132 2.12132 
C 2.683901 1.55874 3 0.795609 3 0 
C 3 -0.795609 2.683901 -1.55874 2.12132 -2.12132 
C 1.55874 -2.683901 0.795609 -3 0 -3 
C -0.795609 -3 -1.55874 -2.683901 -2.12132 -2.12132 
C -2.683901 -1.55874 -3 -0.795609 -3 0 
C -3 0.795609 -2.683901 1.55874 -2.12132 2.12132 
C -1.55874 2.683901 -0.795609 3 0 3 
z
" id="mb7d697e006" style="stroke:#ffe600;"/>
     </defs>
     <g>
      <use style="fill:#ffe600;stroke:#ffe600;" x="146" xlink:href="#mb7d697e006" y="200.321875"/>
     </g>
    </g>
    <g id="text_28">
     <!-- 3 -->
     <g transform="translate(182 207.321875)scale(0.2 -0.2)">
      <use xlink:href="#DejaVuSans-51"/>
     </g>
    </g>
    <g id="line2d_78">
     <path d="M 126 229.678125 
L 166 229.678125 
" style="fill:none;stroke:#ff4700;stroke-linecap:square;stroke-width:2;"/>
    </g>
    <g id="line2d_79">
     <defs>
      <path d="M 0 3 
C 0.795609 3 1.55874 2.683901 2.12132 2.12132 
C 2.683901 1.55874 3 0.795609 3 0 
C 3 -0.795609 2.683901 -1.55874 2.12132 -2.12132 
C 1.55874 -2.683901 0.795609 -3 0 -3 
C -0.795609 -3 -1.55874 -2.683901 -2.12132 -2.12132 
C -2.683901 -1.55874 -3 -0.795609 -3 0 
C -3 0.795609 -2.683901 1.55874 -2.12132 2.12132 
C -1.55874 2.683901 -0.795609 3 0 3 
z
" id="m4f8cc42028" style="stroke:#ff4700;"/>
     </defs>
     <g>
      <use style="fill:#ff4700;stroke:#ff4700;" x="146" xlink:href="#m4f8cc42028" y="229.678125"/>
     </g>
    </g>
    <g id="text_29">
     <!-- 4 -->
     <g transform="translate(182 236.678125)scale(0.2 -0.2)">
      <use xlink:href="#DejaVuSans-52"/>
     </g>
    </g>
    <g id="line2d_80">
     <path d="M 126 259.034375 
L 166 259.034375 
" style="fill:none;stroke:#800000;stroke-linecap:square;stroke-width:2;"/>
    </g>
    <g id="line2d_81">
     <defs>
      <path d="M 0 3 
C 0.795609 3 1.55874 2.683901 2.12132 2.12132 
C 2.683901 1.55874 3 0.795609 3 0 
C 3 -0.795609 2.683901 -1.55874 2.12132 -2.12132 
C 1.55874 -2.683901 0.795609 -3 0 -3 
C -0.795609 -3 -1.55874 -2.683901 -2.12132 -2.12132 
C -2.683901 -1.55874 -3 -0.795609 -3 0 
C -3 0.795609 -2.683901 1.55874 -2.12132 2.12132 
C -1.55874 2.683901 -0.795609 3 0 3 
z
" id="mfad52f4e2d" style="stroke:#800000;"/>
     </defs>
     <g>
      <use style="fill:#800000;stroke:#800000;" x="146" xlink:href="#mfad52f4e2d" y="259.034375"/>
     </g>
    </g>
    <g id="text_30">
     <!-- 5 -->
     <g transform="translate(182 266.034375)scale(0.2 -0.2)">
      <use xlink:href="#DejaVuSans-53"/>
     </g>
    </g>
   </g>
  </g>
 </g>
 <defs>
  <clipPath id="p0146013456">
   <rect height="664.2" width="590.4" x="108" y="56.7"/>
  </clipPath>
 </defs>
</svg>
