<?xml version="1.0" encoding="utf-8" standalone="no"?>
<!DOCTYPE svg PUBLIC "-//W3C//DTD SVG 1.1//EN"
  "http://www.w3.org/Graphics/SVG/1.1/DTD/svg11.dtd">
<!-- Created with matplotlib (https://matplotlib.org/) -->
<svg height="810pt" version="1.1" viewBox="0 0 720 810" width="720pt" xmlns="http://www.w3.org/2000/svg" xmlns:xlink="http://www.w3.org/1999/xlink">
 <metadata>
  <rdf:RDF xmlns:cc="http://creativecommons.org/ns#" xmlns:dc="http://purl.org/dc/elements/1.1/" xmlns:rdf="http://www.w3.org/1999/02/22-rdf-syntax-ns#">
   <cc:Work>
    <dc:type rdf:resource="http://purl.org/dc/dcmitype/StillImage"/>
    <dc:date>2021-09-15T15:53:05.763687</dc:date>
    <dc:format>image/svg+xml</dc:format>
    <dc:creator>
     <cc:Agent>
      <dc:title>Matplotlib v3.3.1, https://matplotlib.org/</dc:title>
     </cc:Agent>
    </dc:creator>
   </cc:Work>
  </rdf:RDF>
 </metadata>
 <defs>
  <style type="text/css">*{stroke-linecap:butt;stroke-linejoin:round;}</style>
 </defs>
 <g id="figure_1">
  <g id="patch_1">
   <path d="M 0 810 
L 720 810 
L 720 0 
L 0 0 
z
" style="fill:#ffffff;"/>
  </g>
  <g id="axes_1">
   <g id="patch_2">
    <path d="M 108 720.9 
L 698.4 720.9 
L 698.4 56.7 
L 108 56.7 
z
" style="fill:#ffffff;"/>
   </g>
   <g id="matplotlib.axis_1">
    <g id="xtick_1">
     <g id="line2d_1">
      <path clip-path="url(#p0d17274d47)" d="M 108 720.9 
L 108 56.7 
" style="fill:none;stroke:#e6e6e6;stroke-linecap:square;stroke-width:0.8;"/>
     </g>
     <g id="line2d_2">
      <defs>
       <path d="M 0 0 
L 0 3.5 
" id="m71437b4ae0" style="stroke:#000000;stroke-width:0.8;"/>
      </defs>
      <g>
       <use style="stroke:#000000;stroke-width:0.8;" x="108" xlink:href="#m71437b4ae0" y="720.9"/>
      </g>
     </g>
     <g id="text_1">
      <!-- 0.0 -->
      <g transform="translate(96.072656 739.297656)scale(0.15 -0.15)">
       <defs>
        <path d="M 31.78125 66.40625 
Q 24.171875 66.40625 20.328125 58.90625 
Q 16.5 51.421875 16.5 36.375 
Q 16.5 21.390625 20.328125 13.890625 
Q 24.171875 6.390625 31.78125 6.390625 
Q 39.453125 6.390625 43.28125 13.890625 
Q 47.125 21.390625 47.125 36.375 
Q 47.125 51.421875 43.28125 58.90625 
Q 39.453125 66.40625 31.78125 66.40625 
z
M 31.78125 74.21875 
Q 44.046875 74.21875 50.515625 64.515625 
Q 56.984375 54.828125 56.984375 36.375 
Q 56.984375 17.96875 50.515625 8.265625 
Q 44.046875 -1.421875 31.78125 -1.421875 
Q 19.53125 -1.421875 13.0625 8.265625 
Q 6.59375 17.96875 6.59375 36.375 
Q 6.59375 54.828125 13.0625 64.515625 
Q 19.53125 74.21875 31.78125 74.21875 
z
" id="DejaVuSans-48"/>
        <path d="M 10.6875 12.40625 
L 21 12.40625 
L 21 0 
L 10.6875 0 
z
" id="DejaVuSans-46"/>
       </defs>
       <use xlink:href="#DejaVuSans-48"/>
       <use x="63.623047" xlink:href="#DejaVuSans-46"/>
       <use x="95.410156" xlink:href="#DejaVuSans-48"/>
      </g>
     </g>
    </g>
    <g id="xtick_2">
     <g id="line2d_3">
      <path clip-path="url(#p0d17274d47)" d="M 173.6 720.9 
L 173.6 56.7 
" style="fill:none;stroke:#e6e6e6;stroke-linecap:square;stroke-width:0.8;"/>
     </g>
     <g id="line2d_4">
      <g>
       <use style="stroke:#000000;stroke-width:0.8;" x="173.6" xlink:href="#m71437b4ae0" y="720.9"/>
      </g>
     </g>
     <g id="text_2">
      <!-- 0.3 -->
      <g transform="translate(161.672656 739.297656)scale(0.15 -0.15)">
       <defs>
        <path d="M 40.578125 39.3125 
Q 47.65625 37.796875 51.625 33 
Q 55.609375 28.21875 55.609375 21.1875 
Q 55.609375 10.40625 48.1875 4.484375 
Q 40.765625 -1.421875 27.09375 -1.421875 
Q 22.515625 -1.421875 17.65625 -0.515625 
Q 12.796875 0.390625 7.625 2.203125 
L 7.625 11.71875 
Q 11.71875 9.328125 16.59375 8.109375 
Q 21.484375 6.890625 26.8125 6.890625 
Q 36.078125 6.890625 40.9375 10.546875 
Q 45.796875 14.203125 45.796875 21.1875 
Q 45.796875 27.640625 41.28125 31.265625 
Q 36.765625 34.90625 28.71875 34.90625 
L 20.21875 34.90625 
L 20.21875 43.015625 
L 29.109375 43.015625 
Q 36.375 43.015625 40.234375 45.921875 
Q 44.09375 48.828125 44.09375 54.296875 
Q 44.09375 59.90625 40.109375 62.90625 
Q 36.140625 65.921875 28.71875 65.921875 
Q 24.65625 65.921875 20.015625 65.03125 
Q 15.375 64.15625 9.8125 62.3125 
L 9.8125 71.09375 
Q 15.4375 72.65625 20.34375 73.4375 
Q 25.25 74.21875 29.59375 74.21875 
Q 40.828125 74.21875 47.359375 69.109375 
Q 53.90625 64.015625 53.90625 55.328125 
Q 53.90625 49.265625 50.4375 45.09375 
Q 46.96875 40.921875 40.578125 39.3125 
z
" id="DejaVuSans-51"/>
       </defs>
       <use xlink:href="#DejaVuSans-48"/>
       <use x="63.623047" xlink:href="#DejaVuSans-46"/>
       <use x="95.410156" xlink:href="#DejaVuSans-51"/>
      </g>
     </g>
    </g>
    <g id="xtick_3">
     <g id="line2d_5">
      <path clip-path="url(#p0d17274d47)" d="M 239.2 720.9 
L 239.2 56.7 
" style="fill:none;stroke:#e6e6e6;stroke-linecap:square;stroke-width:0.8;"/>
     </g>
     <g id="line2d_6">
      <g>
       <use style="stroke:#000000;stroke-width:0.8;" x="239.2" xlink:href="#m71437b4ae0" y="720.9"/>
      </g>
     </g>
     <g id="text_3">
      <!-- 0.6 -->
      <g transform="translate(227.272656 739.297656)scale(0.15 -0.15)">
       <defs>
        <path d="M 33.015625 40.375 
Q 26.375 40.375 22.484375 35.828125 
Q 18.609375 31.296875 18.609375 23.390625 
Q 18.609375 15.53125 22.484375 10.953125 
Q 26.375 6.390625 33.015625 6.390625 
Q 39.65625 6.390625 43.53125 10.953125 
Q 47.40625 15.53125 47.40625 23.390625 
Q 47.40625 31.296875 43.53125 35.828125 
Q 39.65625 40.375 33.015625 40.375 
z
M 52.59375 71.296875 
L 52.59375 62.3125 
Q 48.875 64.0625 45.09375 64.984375 
Q 41.3125 65.921875 37.59375 65.921875 
Q 27.828125 65.921875 22.671875 59.328125 
Q 17.53125 52.734375 16.796875 39.40625 
Q 19.671875 43.65625 24.015625 45.921875 
Q 28.375 48.1875 33.59375 48.1875 
Q 44.578125 48.1875 50.953125 41.515625 
Q 57.328125 34.859375 57.328125 23.390625 
Q 57.328125 12.15625 50.6875 5.359375 
Q 44.046875 -1.421875 33.015625 -1.421875 
Q 20.359375 -1.421875 13.671875 8.265625 
Q 6.984375 17.96875 6.984375 36.375 
Q 6.984375 53.65625 15.1875 63.9375 
Q 23.390625 74.21875 37.203125 74.21875 
Q 40.921875 74.21875 44.703125 73.484375 
Q 48.484375 72.75 52.59375 71.296875 
z
" id="DejaVuSans-54"/>
       </defs>
       <use xlink:href="#DejaVuSans-48"/>
       <use x="63.623047" xlink:href="#DejaVuSans-46"/>
       <use x="95.410156" xlink:href="#DejaVuSans-54"/>
      </g>
     </g>
    </g>
    <g id="xtick_4">
     <g id="line2d_7">
      <path clip-path="url(#p0d17274d47)" d="M 304.8 720.9 
L 304.8 56.7 
" style="fill:none;stroke:#e6e6e6;stroke-linecap:square;stroke-width:0.8;"/>
     </g>
     <g id="line2d_8">
      <g>
       <use style="stroke:#000000;stroke-width:0.8;" x="304.8" xlink:href="#m71437b4ae0" y="720.9"/>
      </g>
     </g>
     <g id="text_4">
      <!-- 0.9 -->
      <g transform="translate(292.872656 739.297656)scale(0.15 -0.15)">
       <defs>
        <path d="M 10.984375 1.515625 
L 10.984375 10.5 
Q 14.703125 8.734375 18.5 7.8125 
Q 22.3125 6.890625 25.984375 6.890625 
Q 35.75 6.890625 40.890625 13.453125 
Q 46.046875 20.015625 46.78125 33.40625 
Q 43.953125 29.203125 39.59375 26.953125 
Q 35.25 24.703125 29.984375 24.703125 
Q 19.046875 24.703125 12.671875 31.3125 
Q 6.296875 37.9375 6.296875 49.421875 
Q 6.296875 60.640625 12.9375 67.421875 
Q 19.578125 74.21875 30.609375 74.21875 
Q 43.265625 74.21875 49.921875 64.515625 
Q 56.59375 54.828125 56.59375 36.375 
Q 56.59375 19.140625 48.40625 8.859375 
Q 40.234375 -1.421875 26.421875 -1.421875 
Q 22.703125 -1.421875 18.890625 -0.6875 
Q 15.09375 0.046875 10.984375 1.515625 
z
M 30.609375 32.421875 
Q 37.25 32.421875 41.125 36.953125 
Q 45.015625 41.5 45.015625 49.421875 
Q 45.015625 57.28125 41.125 61.84375 
Q 37.25 66.40625 30.609375 66.40625 
Q 23.96875 66.40625 20.09375 61.84375 
Q 16.21875 57.28125 16.21875 49.421875 
Q 16.21875 41.5 20.09375 36.953125 
Q 23.96875 32.421875 30.609375 32.421875 
z
" id="DejaVuSans-57"/>
       </defs>
       <use xlink:href="#DejaVuSans-48"/>
       <use x="63.623047" xlink:href="#DejaVuSans-46"/>
       <use x="95.410156" xlink:href="#DejaVuSans-57"/>
      </g>
     </g>
    </g>
    <g id="xtick_5">
     <g id="line2d_9">
      <path clip-path="url(#p0d17274d47)" d="M 370.4 720.9 
L 370.4 56.7 
" style="fill:none;stroke:#e6e6e6;stroke-linecap:square;stroke-width:0.8;"/>
     </g>
     <g id="line2d_10">
      <g>
       <use style="stroke:#000000;stroke-width:0.8;" x="370.4" xlink:href="#m71437b4ae0" y="720.9"/>
      </g>
     </g>
     <g id="text_5">
      <!-- 1.2 -->
      <g transform="translate(358.472656 739.297656)scale(0.15 -0.15)">
       <defs>
        <path d="M 12.40625 8.296875 
L 28.515625 8.296875 
L 28.515625 63.921875 
L 10.984375 60.40625 
L 10.984375 69.390625 
L 28.421875 72.90625 
L 38.28125 72.90625 
L 38.28125 8.296875 
L 54.390625 8.296875 
L 54.390625 0 
L 12.40625 0 
z
" id="DejaVuSans-49"/>
        <path d="M 19.1875 8.296875 
L 53.609375 8.296875 
L 53.609375 0 
L 7.328125 0 
L 7.328125 8.296875 
Q 12.9375 14.109375 22.625 23.890625 
Q 32.328125 33.6875 34.8125 36.53125 
Q 39.546875 41.84375 41.421875 45.53125 
Q 43.3125 49.21875 43.3125 52.78125 
Q 43.3125 58.59375 39.234375 62.25 
Q 35.15625 65.921875 28.609375 65.921875 
Q 23.96875 65.921875 18.8125 64.3125 
Q 13.671875 62.703125 7.8125 59.421875 
L 7.8125 69.390625 
Q 13.765625 71.78125 18.9375 73 
Q 24.125 74.21875 28.421875 74.21875 
Q 39.75 74.21875 46.484375 68.546875 
Q 53.21875 62.890625 53.21875 53.421875 
Q 53.21875 48.921875 51.53125 44.890625 
Q 49.859375 40.875 45.40625 35.40625 
Q 44.1875 33.984375 37.640625 27.21875 
Q 31.109375 20.453125 19.1875 8.296875 
z
" id="DejaVuSans-50"/>
       </defs>
       <use xlink:href="#DejaVuSans-49"/>
       <use x="63.623047" xlink:href="#DejaVuSans-46"/>
       <use x="95.410156" xlink:href="#DejaVuSans-50"/>
      </g>
     </g>
    </g>
    <g id="xtick_6">
     <g id="line2d_11">
      <path clip-path="url(#p0d17274d47)" d="M 436 720.9 
L 436 56.7 
" style="fill:none;stroke:#e6e6e6;stroke-linecap:square;stroke-width:0.8;"/>
     </g>
     <g id="line2d_12">
      <g>
       <use style="stroke:#000000;stroke-width:0.8;" x="436" xlink:href="#m71437b4ae0" y="720.9"/>
      </g>
     </g>
     <g id="text_6">
      <!-- 1.5 -->
      <g transform="translate(424.072656 739.297656)scale(0.15 -0.15)">
       <defs>
        <path d="M 10.796875 72.90625 
L 49.515625 72.90625 
L 49.515625 64.59375 
L 19.828125 64.59375 
L 19.828125 46.734375 
Q 21.96875 47.46875 24.109375 47.828125 
Q 26.265625 48.1875 28.421875 48.1875 
Q 40.625 48.1875 47.75 41.5 
Q 54.890625 34.8125 54.890625 23.390625 
Q 54.890625 11.625 47.5625 5.09375 
Q 40.234375 -1.421875 26.90625 -1.421875 
Q 22.3125 -1.421875 17.546875 -0.640625 
Q 12.796875 0.140625 7.71875 1.703125 
L 7.71875 11.625 
Q 12.109375 9.234375 16.796875 8.0625 
Q 21.484375 6.890625 26.703125 6.890625 
Q 35.15625 6.890625 40.078125 11.328125 
Q 45.015625 15.765625 45.015625 23.390625 
Q 45.015625 31 40.078125 35.4375 
Q 35.15625 39.890625 26.703125 39.890625 
Q 22.75 39.890625 18.8125 39.015625 
Q 14.890625 38.140625 10.796875 36.28125 
z
" id="DejaVuSans-53"/>
       </defs>
       <use xlink:href="#DejaVuSans-49"/>
       <use x="63.623047" xlink:href="#DejaVuSans-46"/>
       <use x="95.410156" xlink:href="#DejaVuSans-53"/>
      </g>
     </g>
    </g>
    <g id="xtick_7">
     <g id="line2d_13">
      <path clip-path="url(#p0d17274d47)" d="M 501.6 720.9 
L 501.6 56.7 
" style="fill:none;stroke:#e6e6e6;stroke-linecap:square;stroke-width:0.8;"/>
     </g>
     <g id="line2d_14">
      <g>
       <use style="stroke:#000000;stroke-width:0.8;" x="501.6" xlink:href="#m71437b4ae0" y="720.9"/>
      </g>
     </g>
     <g id="text_7">
      <!-- 1.8 -->
      <g transform="translate(489.672656 739.297656)scale(0.15 -0.15)">
       <defs>
        <path d="M 31.78125 34.625 
Q 24.75 34.625 20.71875 30.859375 
Q 16.703125 27.09375 16.703125 20.515625 
Q 16.703125 13.921875 20.71875 10.15625 
Q 24.75 6.390625 31.78125 6.390625 
Q 38.8125 6.390625 42.859375 10.171875 
Q 46.921875 13.96875 46.921875 20.515625 
Q 46.921875 27.09375 42.890625 30.859375 
Q 38.875 34.625 31.78125 34.625 
z
M 21.921875 38.8125 
Q 15.578125 40.375 12.03125 44.71875 
Q 8.5 49.078125 8.5 55.328125 
Q 8.5 64.0625 14.71875 69.140625 
Q 20.953125 74.21875 31.78125 74.21875 
Q 42.671875 74.21875 48.875 69.140625 
Q 55.078125 64.0625 55.078125 55.328125 
Q 55.078125 49.078125 51.53125 44.71875 
Q 48 40.375 41.703125 38.8125 
Q 48.828125 37.15625 52.796875 32.3125 
Q 56.78125 27.484375 56.78125 20.515625 
Q 56.78125 9.90625 50.3125 4.234375 
Q 43.84375 -1.421875 31.78125 -1.421875 
Q 19.734375 -1.421875 13.25 4.234375 
Q 6.78125 9.90625 6.78125 20.515625 
Q 6.78125 27.484375 10.78125 32.3125 
Q 14.796875 37.15625 21.921875 38.8125 
z
M 18.3125 54.390625 
Q 18.3125 48.734375 21.84375 45.5625 
Q 25.390625 42.390625 31.78125 42.390625 
Q 38.140625 42.390625 41.71875 45.5625 
Q 45.3125 48.734375 45.3125 54.390625 
Q 45.3125 60.0625 41.71875 63.234375 
Q 38.140625 66.40625 31.78125 66.40625 
Q 25.390625 66.40625 21.84375 63.234375 
Q 18.3125 60.0625 18.3125 54.390625 
z
" id="DejaVuSans-56"/>
       </defs>
       <use xlink:href="#DejaVuSans-49"/>
       <use x="63.623047" xlink:href="#DejaVuSans-46"/>
       <use x="95.410156" xlink:href="#DejaVuSans-56"/>
      </g>
     </g>
    </g>
    <g id="xtick_8">
     <g id="line2d_15">
      <path clip-path="url(#p0d17274d47)" d="M 567.2 720.9 
L 567.2 56.7 
" style="fill:none;stroke:#e6e6e6;stroke-linecap:square;stroke-width:0.8;"/>
     </g>
     <g id="line2d_16">
      <g>
       <use style="stroke:#000000;stroke-width:0.8;" x="567.2" xlink:href="#m71437b4ae0" y="720.9"/>
      </g>
     </g>
     <g id="text_8">
      <!-- 2.1 -->
      <g transform="translate(555.272656 739.297656)scale(0.15 -0.15)">
       <use xlink:href="#DejaVuSans-50"/>
       <use x="63.623047" xlink:href="#DejaVuSans-46"/>
       <use x="95.410156" xlink:href="#DejaVuSans-49"/>
      </g>
     </g>
    </g>
    <g id="xtick_9">
     <g id="line2d_17">
      <path clip-path="url(#p0d17274d47)" d="M 632.8 720.9 
L 632.8 56.7 
" style="fill:none;stroke:#e6e6e6;stroke-linecap:square;stroke-width:0.8;"/>
     </g>
     <g id="line2d_18">
      <g>
       <use style="stroke:#000000;stroke-width:0.8;" x="632.8" xlink:href="#m71437b4ae0" y="720.9"/>
      </g>
     </g>
     <g id="text_9">
      <!-- 2.4 -->
      <g transform="translate(620.872656 739.297656)scale(0.15 -0.15)">
       <defs>
        <path d="M 37.796875 64.3125 
L 12.890625 25.390625 
L 37.796875 25.390625 
z
M 35.203125 72.90625 
L 47.609375 72.90625 
L 47.609375 25.390625 
L 58.015625 25.390625 
L 58.015625 17.1875 
L 47.609375 17.1875 
L 47.609375 0 
L 37.796875 0 
L 37.796875 17.1875 
L 4.890625 17.1875 
L 4.890625 26.703125 
z
" id="DejaVuSans-52"/>
       </defs>
       <use xlink:href="#DejaVuSans-50"/>
       <use x="63.623047" xlink:href="#DejaVuSans-46"/>
       <use x="95.410156" xlink:href="#DejaVuSans-52"/>
      </g>
     </g>
    </g>
    <g id="xtick_10">
     <g id="line2d_19">
      <path clip-path="url(#p0d17274d47)" d="M 698.4 720.9 
L 698.4 56.7 
" style="fill:none;stroke:#e6e6e6;stroke-linecap:square;stroke-width:0.8;"/>
     </g>
     <g id="line2d_20">
      <g>
       <use style="stroke:#000000;stroke-width:0.8;" x="698.4" xlink:href="#m71437b4ae0" y="720.9"/>
      </g>
     </g>
     <g id="text_10">
      <!-- 2.7 -->
      <g transform="translate(686.472656 739.297656)scale(0.15 -0.15)">
       <defs>
        <path d="M 8.203125 72.90625 
L 55.078125 72.90625 
L 55.078125 68.703125 
L 28.609375 0 
L 18.3125 0 
L 43.21875 64.59375 
L 8.203125 64.59375 
z
" id="DejaVuSans-55"/>
       </defs>
       <use xlink:href="#DejaVuSans-50"/>
       <use x="63.623047" xlink:href="#DejaVuSans-46"/>
       <use x="95.410156" xlink:href="#DejaVuSans-55"/>
      </g>
     </g>
    </g>
    <g id="text_11">
     <!-- $r(a_0)$ -->
     <g transform="translate(374.7 765.413281)scale(0.25 -0.25)">
      <defs>
       <path d="M 44.578125 46.390625 
Q 43.21875 47.125 41.453125 47.515625 
Q 39.703125 47.90625 37.703125 47.90625 
Q 30.515625 47.90625 25.140625 42.453125 
Q 19.78125 37.015625 18.015625 27.875 
L 12.5 0 
L 3.515625 0 
L 14.203125 54.6875 
L 23.1875 54.6875 
L 21.484375 46.1875 
Q 25.046875 50.921875 30 53.453125 
Q 34.96875 56 40.578125 56 
Q 42.046875 56 43.453125 55.828125 
Q 44.875 55.671875 46.296875 55.28125 
z
" id="DejaVuSans-Oblique-114"/>
       <path d="M 31 75.875 
Q 24.46875 64.65625 21.28125 53.65625 
Q 18.109375 42.671875 18.109375 31.390625 
Q 18.109375 20.125 21.3125 9.0625 
Q 24.515625 -2 31 -13.1875 
L 23.1875 -13.1875 
Q 15.875 -1.703125 12.234375 9.375 
Q 8.59375 20.453125 8.59375 31.390625 
Q 8.59375 42.28125 12.203125 53.3125 
Q 15.828125 64.359375 23.1875 75.875 
z
" id="DejaVuSans-40"/>
       <path d="M 53.71875 31.203125 
L 47.609375 0 
L 38.625 0 
L 40.28125 8.296875 
Q 36.328125 3.421875 31.265625 1 
Q 26.21875 -1.421875 20.015625 -1.421875 
Q 13.03125 -1.421875 8.5625 2.84375 
Q 4.109375 7.125 4.109375 13.8125 
Q 4.109375 23.390625 11.75 28.953125 
Q 19.390625 34.515625 32.8125 34.515625 
L 45.3125 34.515625 
L 45.796875 36.921875 
Q 45.90625 37.3125 45.953125 37.765625 
Q 46 38.234375 46 39.203125 
Q 46 43.5625 42.453125 45.96875 
Q 38.921875 48.390625 32.515625 48.390625 
Q 28.125 48.390625 23.5 47.265625 
Q 18.890625 46.140625 14.015625 43.890625 
L 15.578125 52.203125 
Q 20.65625 54.109375 25.515625 55.046875 
Q 30.375 56 34.90625 56 
Q 44.578125 56 49.625 51.796875 
Q 54.6875 47.609375 54.6875 39.59375 
Q 54.6875 37.984375 54.4375 35.8125 
Q 54.203125 33.640625 53.71875 31.203125 
z
M 44 27.484375 
L 35.015625 27.484375 
Q 23.96875 27.484375 18.671875 24.53125 
Q 13.375 21.578125 13.375 15.375 
Q 13.375 11.078125 16.078125 8.640625 
Q 18.796875 6.203125 23.578125 6.203125 
Q 30.90625 6.203125 36.375 11.453125 
Q 41.84375 16.703125 43.609375 25.484375 
z
" id="DejaVuSans-Oblique-97"/>
       <path d="M 8.015625 75.875 
L 15.828125 75.875 
Q 23.140625 64.359375 26.78125 53.3125 
Q 30.421875 42.28125 30.421875 31.390625 
Q 30.421875 20.453125 26.78125 9.375 
Q 23.140625 -1.703125 15.828125 -13.1875 
L 8.015625 -13.1875 
Q 14.5 -2 17.703125 9.0625 
Q 20.90625 20.125 20.90625 31.390625 
Q 20.90625 42.671875 17.703125 53.65625 
Q 14.5 64.65625 8.015625 75.875 
z
" id="DejaVuSans-41"/>
      </defs>
      <use transform="translate(0 0.125)" xlink:href="#DejaVuSans-Oblique-114"/>
      <use transform="translate(41.113281 0.125)" xlink:href="#DejaVuSans-40"/>
      <use transform="translate(80.126953 0.125)" xlink:href="#DejaVuSans-Oblique-97"/>
      <use transform="translate(141.40625 -16.28125)scale(0.7)" xlink:href="#DejaVuSans-48"/>
      <use transform="translate(188.676758 0.125)" xlink:href="#DejaVuSans-41"/>
     </g>
    </g>
   </g>
   <g id="matplotlib.axis_2">
    <g id="ytick_1">
     <g id="line2d_21">
      <path clip-path="url(#p0d17274d47)" d="M 108 720.9 
L 698.4 720.9 
" style="fill:none;stroke:#e6e6e6;stroke-linecap:square;stroke-width:0.8;"/>
     </g>
     <g id="line2d_22">
      <defs>
       <path d="M 0 0 
L -3.5 0 
" id="m6bf348d804" style="stroke:#000000;stroke-width:0.8;"/>
      </defs>
      <g>
       <use style="stroke:#000000;stroke-width:0.8;" x="108" xlink:href="#m6bf348d804" y="720.9"/>
      </g>
     </g>
     <g id="text_12">
      <!-- −120 -->
      <g transform="translate(59.799219 726.598828)scale(0.15 -0.15)">
       <defs>
        <path d="M 10.59375 35.5 
L 73.1875 35.5 
L 73.1875 27.203125 
L 10.59375 27.203125 
z
" id="DejaVuSans-8722"/>
       </defs>
       <use xlink:href="#DejaVuSans-8722"/>
       <use x="83.789062" xlink:href="#DejaVuSans-49"/>
       <use x="147.412109" xlink:href="#DejaVuSans-50"/>
       <use x="211.035156" xlink:href="#DejaVuSans-48"/>
      </g>
     </g>
    </g>
    <g id="ytick_2">
     <g id="line2d_23">
      <path clip-path="url(#p0d17274d47)" d="M 108 665.55 
L 698.4 665.55 
" style="fill:none;stroke:#e6e6e6;stroke-linecap:square;stroke-width:0.8;"/>
     </g>
     <g id="line2d_24">
      <g>
       <use style="stroke:#000000;stroke-width:0.8;" x="108" xlink:href="#m6bf348d804" y="665.55"/>
      </g>
     </g>
     <g id="text_13">
      <!-- −110 -->
      <g transform="translate(59.799219 671.248828)scale(0.15 -0.15)">
       <use xlink:href="#DejaVuSans-8722"/>
       <use x="83.789062" xlink:href="#DejaVuSans-49"/>
       <use x="147.412109" xlink:href="#DejaVuSans-49"/>
       <use x="211.035156" xlink:href="#DejaVuSans-48"/>
      </g>
     </g>
    </g>
    <g id="ytick_3">
     <g id="line2d_25">
      <path clip-path="url(#p0d17274d47)" d="M 108 610.2 
L 698.4 610.2 
" style="fill:none;stroke:#e6e6e6;stroke-linecap:square;stroke-width:0.8;"/>
     </g>
     <g id="line2d_26">
      <g>
       <use style="stroke:#000000;stroke-width:0.8;" x="108" xlink:href="#m6bf348d804" y="610.2"/>
      </g>
     </g>
     <g id="text_14">
      <!-- −100 -->
      <g transform="translate(59.799219 615.898828)scale(0.15 -0.15)">
       <use xlink:href="#DejaVuSans-8722"/>
       <use x="83.789062" xlink:href="#DejaVuSans-49"/>
       <use x="147.412109" xlink:href="#DejaVuSans-48"/>
       <use x="211.035156" xlink:href="#DejaVuSans-48"/>
      </g>
     </g>
    </g>
    <g id="ytick_4">
     <g id="line2d_27">
      <path clip-path="url(#p0d17274d47)" d="M 108 554.85 
L 698.4 554.85 
" style="fill:none;stroke:#e6e6e6;stroke-linecap:square;stroke-width:0.8;"/>
     </g>
     <g id="line2d_28">
      <g>
       <use style="stroke:#000000;stroke-width:0.8;" x="108" xlink:href="#m6bf348d804" y="554.85"/>
      </g>
     </g>
     <g id="text_15">
      <!-- −90 -->
      <g transform="translate(69.342969 560.548828)scale(0.15 -0.15)">
       <use xlink:href="#DejaVuSans-8722"/>
       <use x="83.789062" xlink:href="#DejaVuSans-57"/>
       <use x="147.412109" xlink:href="#DejaVuSans-48"/>
      </g>
     </g>
    </g>
    <g id="ytick_5">
     <g id="line2d_29">
      <path clip-path="url(#p0d17274d47)" d="M 108 499.5 
L 698.4 499.5 
" style="fill:none;stroke:#e6e6e6;stroke-linecap:square;stroke-width:0.8;"/>
     </g>
     <g id="line2d_30">
      <g>
       <use style="stroke:#000000;stroke-width:0.8;" x="108" xlink:href="#m6bf348d804" y="499.5"/>
      </g>
     </g>
     <g id="text_16">
      <!-- −80 -->
      <g transform="translate(69.342969 505.198828)scale(0.15 -0.15)">
       <use xlink:href="#DejaVuSans-8722"/>
       <use x="83.789062" xlink:href="#DejaVuSans-56"/>
       <use x="147.412109" xlink:href="#DejaVuSans-48"/>
      </g>
     </g>
    </g>
    <g id="ytick_6">
     <g id="line2d_31">
      <path clip-path="url(#p0d17274d47)" d="M 108 444.15 
L 698.4 444.15 
" style="fill:none;stroke:#e6e6e6;stroke-linecap:square;stroke-width:0.8;"/>
     </g>
     <g id="line2d_32">
      <g>
       <use style="stroke:#000000;stroke-width:0.8;" x="108" xlink:href="#m6bf348d804" y="444.15"/>
      </g>
     </g>
     <g id="text_17">
      <!-- −70 -->
      <g transform="translate(69.342969 449.848828)scale(0.15 -0.15)">
       <use xlink:href="#DejaVuSans-8722"/>
       <use x="83.789062" xlink:href="#DejaVuSans-55"/>
       <use x="147.412109" xlink:href="#DejaVuSans-48"/>
      </g>
     </g>
    </g>
    <g id="ytick_7">
     <g id="line2d_33">
      <path clip-path="url(#p0d17274d47)" d="M 108 388.8 
L 698.4 388.8 
" style="fill:none;stroke:#e6e6e6;stroke-linecap:square;stroke-width:0.8;"/>
     </g>
     <g id="line2d_34">
      <g>
       <use style="stroke:#000000;stroke-width:0.8;" x="108" xlink:href="#m6bf348d804" y="388.8"/>
      </g>
     </g>
     <g id="text_18">
      <!-- −60 -->
      <g transform="translate(69.342969 394.498828)scale(0.15 -0.15)">
       <use xlink:href="#DejaVuSans-8722"/>
       <use x="83.789062" xlink:href="#DejaVuSans-54"/>
       <use x="147.412109" xlink:href="#DejaVuSans-48"/>
      </g>
     </g>
    </g>
    <g id="ytick_8">
     <g id="line2d_35">
      <path clip-path="url(#p0d17274d47)" d="M 108 333.45 
L 698.4 333.45 
" style="fill:none;stroke:#e6e6e6;stroke-linecap:square;stroke-width:0.8;"/>
     </g>
     <g id="line2d_36">
      <g>
       <use style="stroke:#000000;stroke-width:0.8;" x="108" xlink:href="#m6bf348d804" y="333.45"/>
      </g>
     </g>
     <g id="text_19">
      <!-- −50 -->
      <g transform="translate(69.342969 339.148828)scale(0.15 -0.15)">
       <use xlink:href="#DejaVuSans-8722"/>
       <use x="83.789062" xlink:href="#DejaVuSans-53"/>
       <use x="147.412109" xlink:href="#DejaVuSans-48"/>
      </g>
     </g>
    </g>
    <g id="ytick_9">
     <g id="line2d_37">
      <path clip-path="url(#p0d17274d47)" d="M 108 278.1 
L 698.4 278.1 
" style="fill:none;stroke:#e6e6e6;stroke-linecap:square;stroke-width:0.8;"/>
     </g>
     <g id="line2d_38">
      <g>
       <use style="stroke:#000000;stroke-width:0.8;" x="108" xlink:href="#m6bf348d804" y="278.1"/>
      </g>
     </g>
     <g id="text_20">
      <!-- −40 -->
      <g transform="translate(69.342969 283.798828)scale(0.15 -0.15)">
       <use xlink:href="#DejaVuSans-8722"/>
       <use x="83.789062" xlink:href="#DejaVuSans-52"/>
       <use x="147.412109" xlink:href="#DejaVuSans-48"/>
      </g>
     </g>
    </g>
    <g id="ytick_10">
     <g id="line2d_39">
      <path clip-path="url(#p0d17274d47)" d="M 108 222.75 
L 698.4 222.75 
" style="fill:none;stroke:#e6e6e6;stroke-linecap:square;stroke-width:0.8;"/>
     </g>
     <g id="line2d_40">
      <g>
       <use style="stroke:#000000;stroke-width:0.8;" x="108" xlink:href="#m6bf348d804" y="222.75"/>
      </g>
     </g>
     <g id="text_21">
      <!-- −30 -->
      <g transform="translate(69.342969 228.448828)scale(0.15 -0.15)">
       <use xlink:href="#DejaVuSans-8722"/>
       <use x="83.789062" xlink:href="#DejaVuSans-51"/>
       <use x="147.412109" xlink:href="#DejaVuSans-48"/>
      </g>
     </g>
    </g>
    <g id="ytick_11">
     <g id="line2d_41">
      <path clip-path="url(#p0d17274d47)" d="M 108 167.4 
L 698.4 167.4 
" style="fill:none;stroke:#e6e6e6;stroke-linecap:square;stroke-width:0.8;"/>
     </g>
     <g id="line2d_42">
      <g>
       <use style="stroke:#000000;stroke-width:0.8;" x="108" xlink:href="#m6bf348d804" y="167.4"/>
      </g>
     </g>
     <g id="text_22">
      <!-- −20 -->
      <g transform="translate(69.342969 173.098828)scale(0.15 -0.15)">
       <use xlink:href="#DejaVuSans-8722"/>
       <use x="83.789062" xlink:href="#DejaVuSans-50"/>
       <use x="147.412109" xlink:href="#DejaVuSans-48"/>
      </g>
     </g>
    </g>
    <g id="ytick_12">
     <g id="line2d_43">
      <path clip-path="url(#p0d17274d47)" d="M 108 112.05 
L 698.4 112.05 
" style="fill:none;stroke:#e6e6e6;stroke-linecap:square;stroke-width:0.8;"/>
     </g>
     <g id="line2d_44">
      <g>
       <use style="stroke:#000000;stroke-width:0.8;" x="108" xlink:href="#m6bf348d804" y="112.05"/>
      </g>
     </g>
     <g id="text_23">
      <!-- −10 -->
      <g transform="translate(69.342969 117.748828)scale(0.15 -0.15)">
       <use xlink:href="#DejaVuSans-8722"/>
       <use x="83.789062" xlink:href="#DejaVuSans-49"/>
       <use x="147.412109" xlink:href="#DejaVuSans-48"/>
      </g>
     </g>
    </g>
    <g id="text_24">
     <!-- $V(R_y)$ -->
     <g transform="translate(48.049219 421.425)rotate(-90)scale(0.25 -0.25)">
      <defs>
       <path d="M 20.609375 0 
L 7.8125 72.90625 
L 17.484375 72.90625 
L 28.078125 10.203125 
L 63.484375 72.90625 
L 74.21875 72.90625 
L 32.078125 0 
z
" id="DejaVuSans-Oblique-86"/>
       <path d="M 25.203125 64.796875 
L 20.21875 38.921875 
L 32.90625 38.921875 
Q 40.375 38.921875 44.984375 43.046875 
Q 49.609375 47.171875 49.609375 53.8125 
Q 49.609375 59.125 46.5 61.953125 
Q 43.40625 64.796875 37.59375 64.796875 
z
M 43.3125 35.015625 
Q 46.4375 34.28125 48.515625 31.390625 
Q 50.59375 28.515625 53.328125 19.921875 
L 59.515625 0 
L 49.125 0 
L 43.40625 18.703125 
Q 41.21875 25.921875 38.328125 28.359375 
Q 35.453125 30.8125 29.5 30.8125 
L 18.609375 30.8125 
L 12.59375 0 
L 2.6875 0 
L 16.890625 72.90625 
L 39.109375 72.90625 
Q 49.21875 72.90625 54.609375 68.328125 
Q 60.015625 63.765625 60.015625 55.171875 
Q 60.015625 47.5625 55.421875 41.984375 
Q 50.828125 36.421875 43.3125 35.015625 
z
" id="DejaVuSans-Oblique-82"/>
       <path d="M 24.8125 -5.078125 
Q 18.5625 -15.578125 14.625 -18.1875 
Q 10.6875 -20.796875 4.59375 -20.796875 
L -2.484375 -20.796875 
L -0.984375 -13.28125 
L 4.203125 -13.28125 
Q 7.953125 -13.28125 10.59375 -11.234375 
Q 13.234375 -9.1875 16.5 -3.21875 
L 19.28125 2 
L 7.171875 54.6875 
L 16.703125 54.6875 
L 25.78125 12.796875 
L 50.875 54.6875 
L 60.296875 54.6875 
z
" id="DejaVuSans-Oblique-121"/>
      </defs>
      <use transform="translate(0 0.125)" xlink:href="#DejaVuSans-Oblique-86"/>
      <use transform="translate(68.408203 0.125)" xlink:href="#DejaVuSans-40"/>
      <use transform="translate(107.421875 0.125)" xlink:href="#DejaVuSans-Oblique-82"/>
      <use transform="translate(176.904297 -16.28125)scale(0.7)" xlink:href="#DejaVuSans-Oblique-121"/>
      <use transform="translate(221.064453 0.125)" xlink:href="#DejaVuSans-41"/>
     </g>
    </g>
   </g>
   <g id="line2d_45">
    <path clip-path="url(#p0d17274d47)" d="M 155.42721 811 
L 156.106667 793.257545 
L 160.48 700.535813 
L 164.853333 624.292962 
L 169.226667 560.029179 
L 173.6 504.3708 
L 182.346667 417.875029 
L 184.533333 400.233729 
L 191.093333 354.861711 
L 195.466667 328.74525 
L 199.84 305.12925 
L 206.4 274.1394 
L 208.586667 264.960391 
L 217.333333 233.43255 
L 226.08 208.113 
L 228.266667 202.501964 
L 234.826667 186.724784 
L 239.2 177.8058 
L 243.573333 169.462234 
L 252.32 154.652727 
L 261.066667 142.682271 
L 278.56 123.460615 
L 282.933333 119.653706 
L 296.053333 109.810256 
L 304.8 104.5593 
L 313.546667 99.755234 
L 326.666667 94.055715 
L 331.04 92.335632 
L 348.533333 86.704732 
L 366.026667 82.165691 
L 370.4 81.192375 
L 383.52 78.589607 
L 392.266667 77.043254 
L 401.013333 75.58922 
L 414.133333 73.6371 
L 418.506667 73.059433 
L 453.493333 69.290373 
L 457.866667 68.921972 
L 488.48 66.825233 
L 501.6 66.12795 
L 523.466667 65.072416 
L 545.333333 64.23867 
L 558.453333 63.779964 
L 589.066667 62.909264 
L 593.44 62.798473 
L 628.426667 62.03267 
L 632.8 61.951331 
L 634.986667 61.913465 
L 676.533333 61.896513 
L 720.266667 61.89697 
" style="fill:none;stroke:#0000ff;stroke-linecap:square;"/>
    <defs>
     <path d="M 0 2.5 
C 0.663008 2.5 1.29895 2.236584 1.767767 1.767767 
C 2.236584 1.29895 2.5 0.663008 2.5 0 
C 2.5 -0.663008 2.236584 -1.29895 1.767767 -1.767767 
C 1.29895 -2.236584 0.663008 -2.5 0 -2.5 
C -0.663008 -2.5 -1.29895 -2.236584 -1.767767 -1.767767 
C -2.236584 -1.29895 -2.5 -0.663008 -2.5 0 
C -2.5 0.663008 -2.236584 1.29895 -1.767767 1.767767 
C -1.29895 2.236584 -0.663008 2.5 0 2.5 
z
" id="m40f3176aa6" style="stroke:#0000ff;"/>
    </defs>
    <g clip-path="url(#p0d17274d47)">
     <use style="fill:#0000ff;stroke:#0000ff;" x="109.274361" xlink:href="#m40f3176aa6" y="58321"/>
     <use style="fill:#0000ff;stroke:#0000ff;" x="110.186667" xlink:href="#m40f3176aa6" y="31166.721"/>
     <use style="fill:#0000ff;stroke:#0000ff;" x="111.28" xlink:href="#m40f3176aa6" y="20339.154"/>
     <use style="fill:#0000ff;stroke:#0000ff;" x="112.373333" xlink:href="#m40f3176aa6" y="14945.01975"/>
     <use style="fill:#0000ff;stroke:#0000ff;" x="113.466667" xlink:href="#m40f3176aa6" y="11721.8232"/>
     <use style="fill:#0000ff;stroke:#0000ff;" x="114.56" xlink:href="#m40f3176aa6" y="9585.018"/>
     <use style="fill:#0000ff;stroke:#0000ff;" x="115.653333" xlink:href="#m40f3176aa6" y="8067.584571"/>
     <use style="fill:#0000ff;stroke:#0000ff;" x="116.746667" xlink:href="#m40f3176aa6" y="6936.705"/>
     <use style="fill:#0000ff;stroke:#0000ff;" x="118.933333" xlink:href="#m40f3176aa6" y="5366.979"/>
     <use style="fill:#0000ff;stroke:#0000ff;" x="121.12" xlink:href="#m40f3176aa6" y="4333.2255"/>
     <use style="fill:#0000ff;stroke:#0000ff;" x="123.306667" xlink:href="#m40f3176aa6" y="3602.9745"/>
     <use style="fill:#0000ff;stroke:#0000ff;" x="125.493333" xlink:href="#m40f3176aa6" y="3060.82125"/>
     <use style="fill:#0000ff;stroke:#0000ff;" x="127.68" xlink:href="#m40f3176aa6" y="2643.39"/>
     <use style="fill:#0000ff;stroke:#0000ff;" x="129.866667" xlink:href="#m40f3176aa6" y="2312.48925"/>
     <use style="fill:#0000ff;stroke:#0000ff;" x="134.24" xlink:href="#m40f3176aa6" y="1824.809625"/>
     <use style="fill:#0000ff;stroke:#0000ff;" x="138.613333" xlink:href="#m40f3176aa6" y="1485.520714"/>
     <use style="fill:#0000ff;stroke:#0000ff;" x="142.986667" xlink:href="#m40f3176aa6" y="1238.318719"/>
     <use style="fill:#0000ff;stroke:#0000ff;" x="147.36" xlink:href="#m40f3176aa6" y="1051.73925"/>
     <use style="fill:#0000ff;stroke:#0000ff;" x="151.733333" xlink:href="#m40f3176aa6" y="907.457175"/>
     <use style="fill:#0000ff;stroke:#0000ff;" x="156.106667" xlink:href="#m40f3176aa6" y="793.257545"/>
     <use style="fill:#0000ff;stroke:#0000ff;" x="160.48" xlink:href="#m40f3176aa6" y="700.535813"/>
     <use style="fill:#0000ff;stroke:#0000ff;" x="164.853333" xlink:href="#m40f3176aa6" y="624.292962"/>
     <use style="fill:#0000ff;stroke:#0000ff;" x="169.226667" xlink:href="#m40f3176aa6" y="560.029179"/>
     <use style="fill:#0000ff;stroke:#0000ff;" x="173.6" xlink:href="#m40f3176aa6" y="504.3708"/>
     <use style="fill:#0000ff;stroke:#0000ff;" x="182.346667" xlink:href="#m40f3176aa6" y="417.875029"/>
     <use style="fill:#0000ff;stroke:#0000ff;" x="184.533333" xlink:href="#m40f3176aa6" y="400.233729"/>
     <use style="fill:#0000ff;stroke:#0000ff;" x="191.093333" xlink:href="#m40f3176aa6" y="354.861711"/>
     <use style="fill:#0000ff;stroke:#0000ff;" x="195.466667" xlink:href="#m40f3176aa6" y="328.74525"/>
     <use style="fill:#0000ff;stroke:#0000ff;" x="199.84" xlink:href="#m40f3176aa6" y="305.12925"/>
     <use style="fill:#0000ff;stroke:#0000ff;" x="206.4" xlink:href="#m40f3176aa6" y="274.1394"/>
     <use style="fill:#0000ff;stroke:#0000ff;" x="208.586667" xlink:href="#m40f3176aa6" y="264.960391"/>
     <use style="fill:#0000ff;stroke:#0000ff;" x="217.333333" xlink:href="#m40f3176aa6" y="233.43255"/>
     <use style="fill:#0000ff;stroke:#0000ff;" x="226.08" xlink:href="#m40f3176aa6" y="208.113"/>
     <use style="fill:#0000ff;stroke:#0000ff;" x="228.266667" xlink:href="#m40f3176aa6" y="202.501964"/>
     <use style="fill:#0000ff;stroke:#0000ff;" x="234.826667" xlink:href="#m40f3176aa6" y="186.724784"/>
     <use style="fill:#0000ff;stroke:#0000ff;" x="239.2" xlink:href="#m40f3176aa6" y="177.8058"/>
     <use style="fill:#0000ff;stroke:#0000ff;" x="243.573333" xlink:href="#m40f3176aa6" y="169.462234"/>
     <use style="fill:#0000ff;stroke:#0000ff;" x="252.32" xlink:href="#m40f3176aa6" y="154.652727"/>
     <use style="fill:#0000ff;stroke:#0000ff;" x="261.066667" xlink:href="#m40f3176aa6" y="142.682271"/>
     <use style="fill:#0000ff;stroke:#0000ff;" x="278.56" xlink:href="#m40f3176aa6" y="123.460615"/>
     <use style="fill:#0000ff;stroke:#0000ff;" x="282.933333" xlink:href="#m40f3176aa6" y="119.653706"/>
     <use style="fill:#0000ff;stroke:#0000ff;" x="296.053333" xlink:href="#m40f3176aa6" y="109.810256"/>
     <use style="fill:#0000ff;stroke:#0000ff;" x="304.8" xlink:href="#m40f3176aa6" y="104.5593"/>
     <use style="fill:#0000ff;stroke:#0000ff;" x="313.546667" xlink:href="#m40f3176aa6" y="99.755234"/>
     <use style="fill:#0000ff;stroke:#0000ff;" x="326.666667" xlink:href="#m40f3176aa6" y="94.055715"/>
     <use style="fill:#0000ff;stroke:#0000ff;" x="331.04" xlink:href="#m40f3176aa6" y="92.335632"/>
     <use style="fill:#0000ff;stroke:#0000ff;" x="348.533333" xlink:href="#m40f3176aa6" y="86.704732"/>
     <use style="fill:#0000ff;stroke:#0000ff;" x="366.026667" xlink:href="#m40f3176aa6" y="82.165691"/>
     <use style="fill:#0000ff;stroke:#0000ff;" x="370.4" xlink:href="#m40f3176aa6" y="81.192375"/>
     <use style="fill:#0000ff;stroke:#0000ff;" x="383.52" xlink:href="#m40f3176aa6" y="78.589607"/>
     <use style="fill:#0000ff;stroke:#0000ff;" x="392.266667" xlink:href="#m40f3176aa6" y="77.043254"/>
     <use style="fill:#0000ff;stroke:#0000ff;" x="401.013333" xlink:href="#m40f3176aa6" y="75.58922"/>
     <use style="fill:#0000ff;stroke:#0000ff;" x="414.133333" xlink:href="#m40f3176aa6" y="73.6371"/>
     <use style="fill:#0000ff;stroke:#0000ff;" x="418.506667" xlink:href="#m40f3176aa6" y="73.059433"/>
     <use style="fill:#0000ff;stroke:#0000ff;" x="453.493333" xlink:href="#m40f3176aa6" y="69.290373"/>
     <use style="fill:#0000ff;stroke:#0000ff;" x="457.866667" xlink:href="#m40f3176aa6" y="68.921972"/>
     <use style="fill:#0000ff;stroke:#0000ff;" x="488.48" xlink:href="#m40f3176aa6" y="66.825233"/>
     <use style="fill:#0000ff;stroke:#0000ff;" x="501.6" xlink:href="#m40f3176aa6" y="66.12795"/>
     <use style="fill:#0000ff;stroke:#0000ff;" x="523.466667" xlink:href="#m40f3176aa6" y="65.072416"/>
     <use style="fill:#0000ff;stroke:#0000ff;" x="545.333333" xlink:href="#m40f3176aa6" y="64.23867"/>
     <use style="fill:#0000ff;stroke:#0000ff;" x="558.453333" xlink:href="#m40f3176aa6" y="63.779964"/>
     <use style="fill:#0000ff;stroke:#0000ff;" x="589.066667" xlink:href="#m40f3176aa6" y="62.909264"/>
     <use style="fill:#0000ff;stroke:#0000ff;" x="593.44" xlink:href="#m40f3176aa6" y="62.798473"/>
     <use style="fill:#0000ff;stroke:#0000ff;" x="628.426667" xlink:href="#m40f3176aa6" y="62.03267"/>
     <use style="fill:#0000ff;stroke:#0000ff;" x="632.8" xlink:href="#m40f3176aa6" y="61.951331"/>
     <use style="fill:#0000ff;stroke:#0000ff;" x="634.986667" xlink:href="#m40f3176aa6" y="61.913465"/>
     <use style="fill:#0000ff;stroke:#0000ff;" x="676.533333" xlink:href="#m40f3176aa6" y="61.896513"/>
     <use style="fill:#0000ff;stroke:#0000ff;" x="720.266667" xlink:href="#m40f3176aa6" y="61.89697"/>
    </g>
   </g>
   <g id="patch_3">
    <path d="M 108 720.9 
L 108 56.7 
" style="fill:none;stroke:#000000;stroke-linecap:square;stroke-linejoin:miter;stroke-width:0.8;"/>
   </g>
   <g id="patch_4">
    <path d="M 698.4 720.9 
L 698.4 56.7 
" style="fill:none;stroke:#000000;stroke-linecap:square;stroke-linejoin:miter;stroke-width:0.8;"/>
   </g>
   <g id="patch_5">
    <path d="M 108 720.9 
L 698.4 720.9 
" style="fill:none;stroke:#000000;stroke-linecap:square;stroke-linejoin:miter;stroke-width:0.8;"/>
   </g>
   <g id="patch_6">
    <path d="M 108 56.7 
L 698.4 56.7 
" style="fill:none;stroke:#000000;stroke-linecap:square;stroke-linejoin:miter;stroke-width:0.8;"/>
   </g>
  </g>
 </g>
 <defs>
  <clipPath id="p0d17274d47">
   <rect height="664.2" width="590.4" x="108" y="56.7"/>
  </clipPath>
 </defs>
</svg>
